<svg width="627" height="426" viewBox="0 0 627 426" fill="none" xmlns="http://www.w3.org/2000/svg">
<path d="M161.829 95.1224L577.303 102.227L615.148 302.111L75.6903 425.607L0 25.5681L111.767 0L161.829 95.1224Z" fill="#031C51"/>
<path d="M565.578 107.84C562.164 97.5218 556.034 85.1677 548.877 77.3842C548.506 76.9769 548.219 76.2528 547.684 76.7506L544.969 109.469L565.619 107.84H565.578Z" fill="#2A3553"/>
<path d="M526.252 110.239C521.645 96.2103 513.335 79.4667 503.586 68.9227C503.051 68.3797 502.681 67.384 501.94 68.108L498.238 112.456L526.252 110.239Z" fill="#2A3553"/>
<path d="M432.01 107.885C428.802 92.8605 421.932 74.7139 412.676 62.9028C412.183 62.2693 411.895 61.2285 410.99 61.9073L401.158 107.749L432.01 107.93V107.885Z" fill="#031C51"/>
<path d="M313.332 100.327C307.409 83.5837 300.333 66.9305 289.391 53.4902L278.531 97.748L313.332 100.327Z" fill="#031C51"/>
<path d="M479.44 112.727C476.972 103.631 474.792 94.4898 471.007 85.8916C470.061 83.7647 461.217 66.5232 459.859 67.202L449.493 110.917L479.399 112.727H479.44Z" fill="#031C51"/>
<path d="M371.294 105.169C365.452 89.2856 359.488 72.7228 348.381 60.3234L339.701 102.409L371.294 105.169Z" fill="#031C51"/>
<path d="M577.301 102.228L600.337 99.875L611.568 125.85C615.558 135.127 618.561 144.902 620.453 154.993L622.181 164.225C626.623 187.712 627.24 211.832 624.073 235.544L615.105 302.112L426.332 291.749L577.301 102.228Z" fill="#031C51"/>
</svg>
