<svg width="713" height="275" viewBox="0 0 713 275" fill="none" xmlns="http://www.w3.org/2000/svg">
<path d="M95.0217 15.9441C124.475 22.3248 149.074 30.1538 175.484 30.7873C195.27 31.2399 206.171 27.6194 224.724 21.284C253.725 11.3735 274.087 6.80283 301.566 25.7187C315.881 35.5839 322.545 53.0065 335.462 63.4601C350.6 75.7237 370.674 82.5569 389.021 86.3129C422.835 93.2367 462.737 97.3548 497.332 101.382C521.109 104.188 538.304 102.559 561.916 100.93C574.709 100.07 595.894 101.428 607.206 96.0878C626.787 86.8109 636.948 73.5063 659.12 87.5348C677.796 99.346 705.563 123.602 711.116 147.676C712.432 153.333 713.337 170.032 710.499 174.874C708.812 177.77 696.06 177.634 692.728 177.77C652.744 179.173 611.814 177.001 571.747 177.136C436.081 177.634 300.332 183.562 164.665 186.278C161.374 186.821 158.453 188.405 156.643 191.708L134.389 263.254L99.7523 274.522C98.148 274.522 96.5437 268.729 95.8444 266.965C90.8258 253.886 87.4938 236.69 81.7759 224.562C78.156 216.823 75.7289 216.145 68.1599 217.955C57.0532 220.625 46.1522 226.417 34.8809 228.68C33.4411 228.318 31.5076 212.434 26.1599 210.352C20.8123 208.271 6.08558 216.371 0.203125 217.321L0.203125 1.92476C0.203125 1.92476 30.4319 -0.978812 49.4393 1.92476C67.8497 4.73712 95.0217 15.9441 95.0217 15.9441ZM647.437 111.157C644.434 109.754 638.922 109.166 635.796 110.388C632.176 111.791 625.224 118.533 632.135 119.71C633.616 119.981 635.426 118.805 637.071 118.669C641.884 118.352 644.969 119.62 649 122.425C650.481 123.466 658.05 131.792 658.38 125.321C658.668 120.162 651.345 112.967 647.396 111.112L647.437 111.157ZM277.871 41.6027C265.366 36.2175 248.953 37.6658 236.612 43.775C229.331 47.3953 231.511 47.9383 234.843 54.5C251.092 86.2226 283.671 97.0834 313.495 81.4258C314.359 79.9777 310.41 73.5516 309.505 71.9677C301.73 58.437 291.57 47.5309 277.912 41.648L277.871 41.6027Z" fill="#031C51"/>
<path d="M277.871 41.6026C291.57 47.4856 301.689 58.4369 309.464 71.9224C310.369 73.5063 314.318 79.9324 313.454 81.3805C283.63 97.0834 251.051 86.1773 234.802 54.4547C231.429 47.893 229.29 47.3952 236.571 43.7297C248.912 37.5752 265.325 36.1722 277.83 41.5573L277.871 41.6026ZM308.559 79.9776C299.057 57.0795 279.188 40.9239 255.823 42.7793C252.573 43.0508 237.764 46.0828 236.612 49.0695C248.048 74.3661 270.714 88.2137 296.3 83.1001C300.455 82.2856 304.528 80.1134 308.559 79.9776Z" fill="#4A5775"/>
<path d="M647.437 111.157C651.387 112.967 658.709 120.162 658.421 125.366C658.092 131.838 650.523 123.511 649.042 122.47C645.011 119.664 641.884 118.443 637.112 118.714C635.426 118.805 633.616 119.981 632.176 119.755C625.224 118.579 632.176 111.836 635.837 110.433C639.005 109.211 644.476 109.799 647.479 111.202L647.437 111.157Z" fill="white"/>
<path d="M308.559 79.9775C304.528 80.1132 300.496 82.2401 296.3 83.0999C270.714 88.2136 248.048 74.366 236.612 49.0694C237.764 46.0826 252.614 43.0506 255.823 42.7791C279.188 40.9237 299.057 57.0793 308.559 79.9775ZM265.736 77.2168C267.176 81.5159 271.536 76.4476 273.017 74.5017C276.678 69.7501 279.928 62.6905 280.916 56.5813C283.013 43.2316 274.786 51.2415 271.207 57.4864C268.945 61.4235 264.214 72.8273 265.695 77.2621L265.736 77.2168Z" fill="white"/>
<path d="M265.736 77.2168C264.255 72.7819 268.986 61.3781 271.248 57.4411C274.827 51.1961 283.054 43.1865 280.956 56.5362C279.969 62.6907 276.719 69.75 273.058 74.4564C271.577 76.4023 267.217 81.4708 265.777 77.1717L265.736 77.2168Z" fill="#4A5775"/>
<path d="M643.694 176.141C638.388 193.925 628.392 215.194 616.298 228.635C615.64 229.359 615.187 230.58 614.2 229.721L607.207 173.561L643.694 176.186V176.141Z" fill="#031C51"/>
<path d="M502.68 174.376C493.959 194.016 483.922 213.475 469.648 228.68L461.297 174.331L502.68 174.421V174.376Z" fill="#031C51"/>
<path d="M700.215 174.647C696.348 185.372 692.893 196.233 687.545 206.279C686.229 208.768 674.012 228.77 672.49 227.775L664.674 174.104L700.215 174.647Z" fill="#031C51"/>
<path d="M571.665 173.878C563.15 192.523 554.429 211.936 540.032 225.829L534.026 174.285L571.665 173.878Z" fill="#031C51"/>
<path d="M430.774 175.688C423.04 192.975 413.744 211.484 400.786 224.652C399.675 225.738 398.647 227.503 396.96 226.915L391.859 175.643H430.774V175.688Z" fill="#031C51"/>
<path d="M331.471 227.865L323.861 178.992L362.118 178.494C355.207 197.138 344.841 214.018 331.471 227.865Z" fill="#031C51"/>
</svg>
