<svg width="523" height="488" viewBox="0 0 523 488" fill="none" xmlns="http://www.w3.org/2000/svg">
<path d="M522.387 468.348L520.872 467.654L479.882 467.603C477.829 466.96 478.958 461.536 478.522 459.377C478.188 457.809 476.648 456.421 476.494 454.724C476.314 452.668 479.292 448.735 480.19 446.01C483.142 436.962 481.217 424.135 481.602 414.341C484.297 346.094 486.735 277.563 490.431 209.316C491.201 195.101 498.876 165.54 477.572 163.381C448.003 160.399 413.199 166.311 383.63 163.406C377.727 162.815 380.653 160.09 380.422 155.618C379.934 147.135 377.65 137.084 370.36 131.866C365.278 128.242 360.966 126.931 355.679 130.915L354.036 129.81L354.703 80.6611C356.064 76.4197 357.758 73.8749 356.757 69.0937C356.346 67.1658 354.113 65.0322 354.164 63.1815C354.267 60.0968 356.885 57.7834 356.141 52.7965C355.422 47.9382 351.007 44.9307 350.468 43.0542C349.493 39.6097 350.673 36.9878 348.004 33.0292C346.079 30.2016 341.459 28.3251 340.022 26.3458C339.098 25.0605 339.329 23.3126 338.507 21.9759C336.12 18.0687 331.603 15.1126 327.06 14.3414C324.621 13.9302 321.105 14.6756 319.282 14.0587C317.845 13.5703 314.303 7.63237 308.579 6.42422C303.6 5.39601 298.492 8.19788 295.874 7.45243C293.718 6.8355 290.612 1.51451 285.119 0.53771C278.189 -0.696143 275.802 3.98222 272.979 3.98222C270.592 3.98222 267.075 0.177836 262.712 0.177836C261.608 0.177836 256.449 0.846173 255.525 1.12893C253.882 1.64304 251.803 5.19036 249.442 5.39601C246.67 5.65306 242.692 2.20855 237.173 3.33958C232.989 4.21356 226.932 11.1026 225.264 11.2568C223.21 11.4625 219.257 9.04616 216.485 9.04616C212.353 9.04616 206.373 11.411 203.267 14.1872C202.009 15.3182 200.803 18.2743 199.211 18.9427C196.85 19.9452 193.616 18.9427 190.947 19.4825C187.687 20.1508 180.834 24.7264 179.602 27.9652C179.037 29.4304 179.114 32.9778 178.498 33.8517C178.293 34.1602 173.493 36.3452 172.133 37.3991C168.539 40.1752 166.101 43.594 166.126 48.3752C166.126 50.7915 167.82 52.5395 167.666 54.2103C167.487 56.0097 163.765 60.1997 163.303 63.1301C162.251 69.6849 165.741 71.3043 166.049 74.2347C166.178 75.3915 164.458 77.7564 164.176 79.4529C162.636 88.2441 168.924 104.284 166.178 114.592L167.666 132.56C165.279 132.766 164.176 130.812 161.635 131.223C156.912 131.994 150.392 138.01 148.467 142.354C147.954 143.536 145.824 149.654 145.67 150.579C145.079 154.255 146.106 159.216 145.67 163.072C142.923 165.566 138.534 163.509 135.069 163.406C112.867 162.764 90.3826 163.509 68.3089 164.203C61.6867 164.409 48.8018 162.687 43.7454 166.054C32.6828 173.457 33.7608 181.837 34.1202 193.97C36.2506 261.858 40.2546 329.642 42.9753 397.504C43.5143 410.948 42.6417 425.317 43.6427 438.71C43.9507 442.951 48.1601 453.208 48.0831 454.082C47.9805 455.058 46.9024 455.958 46.6714 457.141C46.1067 460.225 45.7988 463.361 45.7731 466.523L44.6693 467.628C39.4076 467.5 1.65117 466.574 0.393475 468.477C-0.0171995 469.093 0.752875 471.407 1.49722 471.407H45.157C46.3377 477.448 45.5164 484.671 52.1385 487.55C192.461 487.987 332.424 487.756 472.9 487.241C480.113 485.159 476.699 473.335 479.933 472.23C494.23 471.818 508.604 472.975 522.746 470.661L522.412 468.425L522.387 468.348ZM350.314 148.317C350.314 147.957 352.547 142.277 352.958 141.428C357.065 133.023 365.124 129.861 371.156 138.447C374.236 142.816 375.956 155.386 376.007 160.862C376.007 161.684 375.622 163.406 374.878 163.406H359.477L358.476 161.684C360.401 159.216 361.556 152.533 364.277 151.299C365.432 150.785 368.358 151.119 368.615 149.757L367.408 147.212C361.043 146.287 358.014 148.806 355.627 154.409C354.395 157.34 353.907 165.823 350.288 162.301V148.343L350.314 148.317ZM182.553 126.494C188.046 110.402 194.027 110.196 193.359 90.2234C192.974 78.399 188.56 74.646 203.421 71.6899C242.692 63.8755 279.396 63.6699 319.128 69.2993C333.143 71.2786 328.933 75.3144 329.78 86.5476C330.114 90.9946 330.345 98.6033 331.423 102.536C332.758 107.472 338.918 115.363 341.074 120.787C344.59 129.655 344.616 140.966 344.488 150.502C344.436 154.307 342.511 157.391 345.078 161.376C344.975 161.838 343.512 163.329 343.358 163.329H236.608L178.703 163.252C179.961 150.322 178.241 139.063 182.553 126.442V126.494ZM161.404 136.57C172.749 136.287 175.469 154.358 174.16 162.918C173.955 164.306 172.03 163.972 171.491 163.201C170.644 162.018 170.233 157.777 169.489 156.029C167.461 151.273 160.942 144.127 156.681 150.502C157.579 152.507 159.325 151.505 160.274 151.993C162.174 152.97 167.076 161.581 165.87 163.381C165.356 164.152 156.039 163.201 154.114 164.126L150.392 162.635C150.803 154.795 150.161 136.853 161.429 136.57H161.404ZM472.669 482.177L468.101 483.129H54.2689C52.7546 483.206 50.8039 481.766 50.4188 480.378C49.8798 478.45 49.4435 470.353 49.4948 468.014C49.8798 453.439 54.6283 457.937 65.2545 458.169C183.452 460.739 302.214 456.806 420.334 457.372C435.657 458.914 454.677 455.418 469.564 457.372C472.079 457.706 473.85 459.737 474.261 462.23C474.646 464.749 473.85 481.046 472.669 482.229V482.177ZM465.919 452.976C373.517 453.105 280.782 452.642 188.56 452.951C148.621 453.079 105.809 455.778 65.9988 453.722C63.201 453.568 58.5297 453.259 55.9373 452.771C52.5749 452.179 49.8542 449.018 48.9815 445.779C47.8521 441.64 47.5954 433.029 47.3131 428.351C45.696 402.003 45.542 375.244 44.4127 348.947C42.3336 299.85 41.1016 250.933 39.3049 201.939C39.0226 193.944 34.6592 173.817 44.5923 169.807C46.2094 169.164 52.8059 168.65 55.0389 168.522C86.8662 166.671 120.234 170.347 152.112 167.956L157.708 168.547C197.543 167.982 237.558 169.524 277.291 167.751C341.408 170.681 408.784 163.972 472.49 167.751C475.519 167.93 482.731 168.342 484.528 170.398C486.658 172.84 488.198 180.346 488.249 183.585C488.429 197.363 485.939 211.629 485.272 225.459C482.397 286.894 480.652 348.356 477.931 409.946C477.521 419.457 478.034 430.021 477.264 439.404C476.648 446.858 473.953 452.205 465.893 453.002L465.919 452.976Z" fill="black"/>
<path d="M359.505 163.382L358.504 161.659C360.429 159.192 361.584 152.508 364.305 151.275C365.46 150.76 368.386 151.095 368.642 149.732L367.436 147.187C361.071 146.262 358.042 148.781 355.655 154.385C354.423 157.315 353.935 165.798 350.316 162.276V148.318C350.316 147.959 352.549 142.278 352.96 141.429C357.067 133.024 365.126 129.862 371.158 138.448C374.238 142.817 375.958 155.387 376.009 160.863C376.009 161.685 375.624 163.407 374.88 163.407H359.479L359.505 163.382Z" fill="#FCF7ED"/>
<path d="M171.465 163.2C170.618 162.018 170.207 157.777 169.463 156.029C167.435 151.273 160.916 144.127 156.655 150.502C157.553 152.507 159.298 151.504 160.248 151.993C162.148 152.97 167.05 161.581 165.844 163.38C165.33 164.151 156.013 163.2 154.088 164.126L150.366 162.635C150.777 154.795 150.135 136.852 161.403 136.57C172.671 136.287 175.469 154.358 174.16 162.918C173.954 164.306 172.029 163.971 171.49 163.2H171.465Z" fill="#FCF7ED"/>
<path d="M274.421 321.083C267.26 329.026 253.425 327.663 247.881 318.564C236.613 300.107 256.531 273.194 273.959 290.236C282.224 298.333 282.095 312.6 274.447 321.083H274.421ZM258.43 289.954C246.803 292.37 244.673 319.335 258.328 321.314C271.983 323.293 276.834 312.446 274.729 300.493C273.471 293.347 265.437 288.514 258.43 289.954Z" fill="black"/>
<path d="M248.883 118.012C250.962 120.068 250.962 128.474 250.5 131.353C249.165 139.913 234.432 135.106 228.888 134.72C215.516 133.795 203.965 133.666 191.876 140.272C189.515 140.838 190.413 134.592 190.695 133.204C194.468 115.39 211.409 112.485 226.706 113.385C230.505 113.616 246.599 115.801 248.857 118.037L248.883 118.012Z" fill="black"/>
<path d="M274.239 118.037C276.369 116.109 287.252 113.924 290.614 113.487C296.877 112.664 308.402 111.893 314.408 112.999C324.598 114.849 332.888 127.908 335.609 137.213C334.967 138.37 334.454 138.344 333.273 138.241C329.089 137.881 323.956 134.462 319.644 133.46C313.381 131.969 301.497 131.943 294.901 132.483C289.973 132.869 275.06 137.984 272.365 132.329C270.389 128.216 270.722 121.25 274.239 118.037Z" fill="black"/>
<path d="M254.966 119.63C255.71 114.335 258.405 118.139 258.482 121.841C258.482 122.869 257.943 129.989 257.789 130.555C257.276 132.226 255.864 132.072 254.966 130.683C255.299 127.213 254.504 122.998 254.966 119.656V119.63Z" fill="black"/>
</svg>
