<svg width="523" height="488" viewBox="0 0 523 488" fill="none" xmlns="http://www.w3.org/2000/svg">
<g clip-path="url(#clip0_3_1088)">
<path d="M259.907 340.958C261.208 341.143 262.596 340.701 263.496 339.76C265.725 337.432 267.958 332.458 270.056 329.588C273.93 324.29 277.64 323.05 282.929 319.741C285.332 318.238 287.969 316.771 286.642 313.453C286.045 311.963 284.538 311.248 283.244 310.43C276.917 306.434 273.329 305.31 268.92 298.749C267.564 296.73 264.448 290.678 262.731 289.613C261.155 288.636 258.88 288.825 257.583 290.188C255.265 292.623 253.154 297.753 250.938 300.743C249.273 302.986 247.468 304.655 245.127 306.207C242.786 307.758 235.75 310.982 234.581 313.06C232.555 316.657 236.282 318.589 238.79 320.115C244.818 323.783 248.177 324.903 252.231 331.114C253.623 333.244 256.483 339.162 258.318 340.351C258.742 340.623 259.408 340.886 259.907 340.958ZM278.319 315.196C273.253 317.693 268.903 321.189 265.417 325.582C263.726 327.712 262.511 330.16 260.945 332.205C260.82 332.367 260.768 332.582 260.498 332.523C257.944 328.101 255.015 323.832 251.049 320.534C248.439 318.362 245.462 316.742 242.674 314.82C249.585 311.657 254.556 306.681 258.673 300.447C258.982 299.98 260.324 297.402 260.689 297.493C260.925 297.551 262.934 300.993 263.328 301.551C266.493 306.054 269.937 309.479 274.521 312.576C275.46 313.213 277.42 314.096 278.122 314.729C278.296 314.885 278.382 314.92 278.323 315.193L278.319 315.196Z" fill="black"/>
</g>
<path d="M522.108 468.17L520.593 467.476L479.603 467.425C477.55 466.782 478.679 461.358 478.243 459.199C477.909 457.631 476.369 456.243 476.215 454.546C476.035 452.49 479.013 448.557 479.911 445.832C482.863 436.784 480.938 423.957 481.323 414.163C484.018 345.916 486.456 277.386 490.152 209.138C490.922 194.923 498.597 165.362 477.293 163.203C447.724 160.221 412.92 166.133 383.351 163.228C377.448 162.637 380.374 159.913 380.143 155.44C379.655 146.957 377.371 136.906 370.081 131.688C364.999 128.064 360.687 126.753 355.4 130.737L353.757 129.632L354.424 80.4832C355.785 76.2418 357.479 73.697 356.478 68.9158C356.067 66.988 353.834 64.8544 353.885 63.0036C353.988 59.919 356.606 57.6055 355.862 52.6187C355.143 47.7604 350.728 44.7529 350.189 42.8764C349.214 39.4319 350.394 36.81 347.725 32.8513C345.8 30.0238 341.18 28.1473 339.743 26.168C338.819 24.8827 339.05 23.1347 338.228 21.7981C335.841 17.8909 331.324 14.9348 326.781 14.1636C324.342 13.7523 320.826 14.4978 319.004 13.8808C317.566 13.3924 314.024 7.45453 308.3 6.24638C303.321 5.21817 298.213 8.02005 295.595 7.27459C293.439 6.65767 290.333 1.33667 284.841 0.359874C277.91 -0.873979 275.523 3.80438 272.7 3.80438C270.313 3.80438 266.796 0 262.433 0C261.329 0 256.17 0.668337 255.246 0.951095C253.604 1.4652 251.524 5.01253 249.163 5.21817C246.391 5.47522 242.413 2.03072 236.894 3.16175C232.71 4.03573 226.653 10.9247 224.985 11.079C222.931 11.2846 218.979 8.86832 216.206 8.86832C212.074 8.86832 206.094 11.2332 202.988 14.0094C201.73 15.1404 200.524 18.0965 198.933 18.7649C196.571 19.7674 193.337 18.7649 190.668 19.3047C187.408 19.973 180.555 24.5485 179.323 27.7874C178.758 29.2526 178.835 32.7999 178.219 33.6739C178.014 33.9824 173.214 36.1673 171.854 37.2212C168.26 39.9974 165.822 43.4162 165.847 48.1974C165.847 50.6137 167.542 52.3616 167.388 54.0325C167.208 55.8319 163.486 60.0218 163.024 62.9522C161.972 69.5071 165.462 71.1265 165.77 74.0569C165.899 75.2136 164.179 77.5785 163.897 79.2751C162.357 88.0663 168.645 104.106 165.899 114.414L167.388 132.382C165 132.588 163.897 130.634 161.356 131.046C156.633 131.817 150.113 137.832 148.188 142.176C147.675 143.358 145.545 149.476 145.391 150.402C144.8 154.077 145.827 159.039 145.391 162.894C142.644 165.388 138.255 163.331 134.79 163.228C112.588 162.586 90.1037 163.331 68.0299 164.025C61.4078 164.231 48.5228 162.509 43.4664 165.876C32.4039 173.279 33.4819 181.659 33.8412 193.792C35.9716 261.68 39.9756 329.465 42.6963 397.326C43.2354 410.77 42.3627 425.14 43.3637 438.532C43.6717 442.773 47.8812 453.03 47.8042 453.904C47.7015 454.881 46.6234 455.78 46.3924 456.963C45.8277 460.047 45.5198 463.183 45.4941 466.345L44.3904 467.45C39.1286 467.322 1.37221 466.397 0.114517 468.299C-0.296158 468.916 0.473916 471.229 1.21826 471.229H44.8781C46.0588 477.27 45.2374 484.493 51.8595 487.372C192.182 487.809 332.145 487.578 472.622 487.064C479.834 484.981 476.42 473.157 479.654 472.052C493.951 471.64 508.325 472.797 522.467 470.484L522.133 468.247L522.108 468.17ZM350.035 148.14C350.035 147.78 352.268 142.099 352.679 141.25C356.786 132.845 364.845 129.683 370.877 138.269C373.957 142.639 375.677 155.208 375.728 160.684C375.728 161.506 375.343 163.228 374.599 163.228H359.198L358.197 161.506C360.122 159.039 361.277 152.355 363.998 151.121C365.153 150.607 368.079 150.941 368.336 149.579L367.129 147.034C360.764 146.109 357.735 148.628 355.348 154.232C354.116 157.162 353.629 165.645 350.009 162.123V148.165L350.035 148.14ZM182.274 126.316C187.767 110.224 193.748 110.019 193.08 90.0456C192.695 78.2212 188.281 74.4682 203.142 71.5121C242.413 63.6977 279.117 63.492 318.85 69.1215C332.864 71.1008 328.654 75.1365 329.501 86.3697C329.835 90.8167 330.066 98.4255 331.144 102.358C332.479 107.294 338.639 115.185 340.795 120.609C344.311 129.477 344.337 140.788 344.209 150.324C344.157 154.129 342.232 157.213 344.799 161.198C344.696 161.66 343.233 163.151 343.079 163.151H236.33L178.424 163.074C179.682 150.145 177.962 138.886 182.274 126.264V126.316ZM161.125 136.392C172.47 136.109 175.19 154.18 173.881 162.74C173.676 164.128 171.751 163.794 171.212 163.023C170.365 161.84 169.954 157.599 169.21 155.851C167.182 151.096 160.663 143.95 156.402 150.324C157.3 152.329 159.046 151.327 159.995 151.815C161.895 152.792 166.797 161.403 165.591 163.203C165.077 163.974 155.76 163.023 153.835 163.948L150.113 162.457C150.524 154.617 149.883 136.675 161.15 136.392H161.125ZM472.391 482L467.822 482.951H53.99C52.4756 483.028 50.5249 481.588 50.1399 480.2C49.6009 478.272 49.1645 470.175 49.2158 467.836C49.6008 453.261 54.3493 457.76 64.9755 457.991C183.173 460.561 301.935 456.629 420.055 457.194C435.378 458.736 454.398 455.24 469.285 457.194C471.8 457.528 473.571 459.559 473.982 462.052C474.367 464.571 473.571 480.869 472.391 482.051V482ZM465.64 452.798C373.238 452.927 280.503 452.464 188.281 452.773C148.342 452.901 105.53 455.6 65.7198 453.544C62.9221 453.39 58.2507 453.081 55.6583 452.593C52.2959 452.002 49.5752 448.84 48.7025 445.601C47.5732 441.462 47.3164 432.851 47.0341 428.173C45.4171 401.825 45.2631 375.066 44.1337 348.769C42.0547 299.672 40.8227 250.755 39.026 201.761C38.7436 193.766 34.3802 173.639 44.3134 169.629C45.9304 168.986 52.5269 168.472 54.76 168.344C86.5872 166.493 119.955 170.169 151.833 167.778L157.429 168.37C197.264 167.804 237.279 169.346 277.012 167.573C341.129 170.503 408.505 163.794 472.211 167.573C475.24 167.753 482.452 168.164 484.249 170.22C486.379 172.662 487.919 180.168 487.971 183.407C488.15 197.185 485.66 211.452 484.993 225.281C482.118 286.717 480.373 348.178 477.652 409.768C477.242 419.279 477.755 429.844 476.985 439.226C476.369 446.681 473.674 452.027 465.614 452.824L465.64 452.798Z" fill="black"/>
<path d="M359.226 163.204L358.225 161.482C360.15 159.014 361.305 152.331 364.026 151.097C365.181 150.583 368.107 150.917 368.363 149.555L367.157 147.01C360.792 146.084 357.763 148.604 355.376 154.207C354.144 157.138 353.656 165.62 350.037 162.099V148.141C350.037 147.781 352.27 142.1 352.681 141.252C356.788 132.846 364.847 129.684 370.879 138.27C373.959 142.64 375.679 155.21 375.73 160.685C375.73 161.508 375.345 163.23 374.601 163.23H359.2L359.226 163.204Z" fill="#FCF7ED"/>
<path d="M171.186 163.023C170.339 161.84 169.928 157.599 169.184 155.851C167.156 151.095 160.637 143.949 156.376 150.324C157.274 152.329 159.02 151.327 159.969 151.815C161.869 152.792 166.771 161.403 165.565 163.203C165.051 163.974 155.734 163.023 153.809 163.948L150.087 162.457C150.498 154.617 149.856 136.675 161.124 136.392C172.392 136.109 175.19 154.18 173.881 162.74C173.676 164.128 171.75 163.794 171.211 163.023H171.186Z" fill="#FCF7ED"/>
<path d="M248.604 117.834C250.683 119.89 250.683 128.296 250.221 131.175C248.886 139.735 234.153 134.928 228.609 134.542C215.237 133.617 203.686 133.488 191.597 140.095C189.236 140.66 190.134 134.414 190.416 133.026C194.19 115.212 211.13 112.307 226.428 113.207C230.226 113.438 246.32 115.623 248.578 117.859L248.604 117.834Z" fill="black"/>
<path d="M273.96 117.859C276.09 115.931 286.973 113.746 290.335 113.309C296.598 112.487 308.123 111.716 314.129 112.821C324.319 114.672 332.609 127.73 335.33 137.035C334.688 138.192 334.175 138.166 332.994 138.063C328.81 137.704 323.677 134.285 319.365 133.282C313.102 131.791 301.218 131.766 294.622 132.305C289.694 132.691 274.781 137.806 272.086 132.151C270.11 128.038 270.443 121.072 273.96 117.859Z" fill="black"/>
<path d="M254.687 119.453C255.431 114.157 258.126 117.962 258.203 121.663C258.203 122.691 257.664 129.812 257.51 130.377C256.997 132.048 255.585 131.894 254.687 130.506C255.02 127.036 254.225 122.82 254.687 119.478V119.453Z" fill="black"/>
<defs>
<clipPath id="clip0_3_1088">
<rect width="53" height="52" fill="white" transform="matrix(1 0 0 -1 234 341)"/>
</clipPath>
</defs>
</svg>
