<svg width="68" height="104" viewBox="0 0 68 104" fill="none" xmlns="http://www.w3.org/2000/svg">
<path d="M64.262 37.1541C62.0928 36.5624 55.081 36.3652 53.6787 38.1182C52.868 39.1261 51.9038 42.5005 53.7882 42.7415C54.8181 42.873 58.2801 41.7336 59.8797 41.6679C61.6983 41.6021 63.0569 42.0184 64.766 42.5005C64.8974 45.3709 64.3277 48.2413 64.5249 51.1118C64.7002 53.7412 65.6862 56.4582 65.8615 59.0657C66.1902 63.7329 64.744 68.0056 63.7361 72.4756L62.7282 69.6271C61.6107 67.0853 56.8778 65.0037 54.2045 64.938C52.1229 64.8723 50.874 64.9818 48.7047 64.8065C45.8562 64.5655 41.8464 65.8364 39.1732 66.8881C35.8426 68.2028 33.3885 69.9777 32.271 73.5274L31.789 73.7465C25.3689 71.9716 20.3292 68.2466 17.8532 61.8923C16.2974 57.8605 16.2974 53.3248 13.931 49.5999C13.2517 49.5122 13.7119 49.8847 13.7776 50.301C14.2378 53.6535 15.5305 58.9999 15.1361 62.221C14.676 66.0117 11.2797 65.6173 8.6722 64.1492C3.41341 61.213 -0.749791 53.1057 2.51504 47.4525C4.59664 43.8371 9.63631 44.4725 12.2 47.343C12.5067 47.6716 13.1203 49.1835 13.5366 48.7891C14.9827 43.6837 18.6639 39.5862 22.6956 36.2995L22.0383 25.1465C32.4463 22.4952 43.7746 20.8737 54.5113 22.5171C56.8778 22.8896 59.1785 22.9334 60.296 25.2122C62.0489 28.7619 63.0349 33.2976 64.2182 37.0883L64.262 37.1541ZM44.0814 37.7019C43.4679 37.658 43.1392 37.1979 42.5037 37.0226C39.6991 36.2557 30.0799 36.2338 27.7572 37.9648C26.9903 38.5345 22.8271 43.7495 23.3749 44.3411C24.7553 44.122 25.9605 43.2674 27.2971 42.8292C30.3647 41.8212 32.775 41.624 35.996 41.6679C38.3624 41.7117 45.2427 43.3331 45.3961 39.6739C45.4399 38.7974 44.6511 37.0664 43.8184 36.6501L44.0814 37.7019ZM43.0296 58.6713C41.1014 59.1533 41.0357 61.476 42.3504 62.6592C43.7308 63.8862 46.0096 63.2508 47.653 63.4699C49.0115 63.6671 49.9756 64.5874 51.619 64.4778C55.344 64.2806 61.1944 61.8923 58.6964 57.1813C57.2284 54.3766 53.8102 54.267 52.6488 51.2871C51.7724 49.0521 51.619 46.598 52.3201 44.3192C49.888 46.7514 50.4139 50.805 52.4516 53.3467C53.7444 54.9682 55.9794 55.4722 57.0531 57.247C59.3538 60.972 55.4754 62.703 52.3859 63.0974C49.9756 63.4261 49.6688 62.462 47.8721 62.1771C45.3303 61.7389 40.9918 63.2508 43.0296 58.6713ZM55.2344 46.0721L12.4848 56.8088C12.6163 52.799 8.84749 46.8609 4.37752 49.6437L4.24606 50.7174C4.66238 50.7831 4.42136 50.2791 4.81577 50.1038C5.97708 49.5999 8.12442 50.2134 8.89133 51.2651C8.23398 53.522 7.75192 56.0638 8.69412 58.3426C8.89132 58.8027 9.48294 60.0736 10.0746 59.6135C9.24192 57.488 9.32956 54.9901 10.0746 52.8428L12.4629 56.8307L55.2344 46.0721ZM10.4251 63.4042C11.1263 64.1054 12.9669 63.9301 13.0326 62.5277C13.2079 59.5477 8.49691 61.4979 10.4251 63.4042Z" fill="white"/>
<path d="M48.8588 92.9408C49.6476 97.2136 49.056 99.6239 44.9804 101.399C35.2736 105.628 17.2403 97.608 11.9596 88.8215C10.382 86.214 12.0035 86.1921 12.6389 83.6503C13.6468 79.6186 13.4277 73.4614 13.5154 69.1667C13.5154 68.356 13.0771 67.2166 13.2962 66.2963L14.7643 65.5732C16.7364 75.9155 24.3616 83.7161 33.2139 88.8215C35.5584 90.1581 41.9786 92.9408 44.4984 92.9408H48.8807H48.8588Z" fill="white"/>
<path d="M61.3476 71.6865C62.4213 75.0609 59.7042 83.8036 55.1685 82.7738C54.0072 82.5109 53.6566 81.1304 53.9633 80.1006C54.2482 79.1584 59.0907 77.8875 58.1485 75.1266C57.6883 75.1266 57.8417 75.784 57.535 76.1127C54.8836 79.0707 44.3661 78.3257 41.1451 75.9155C40.8383 76.2441 42.1311 77.2959 42.3721 77.4712C44.1689 78.6982 46.623 79.1803 48.5074 80.2321C48.858 84.2857 42.8103 83.6941 40.2686 82.7738C36.8942 81.5687 34.3744 77.9752 35.1413 74.3159C35.9082 70.6567 37.5077 72.5192 39.9399 72.7383C42.5693 72.9793 45.7246 72.6945 48.4416 72.7383C51.6846 72.7602 55.2342 73.1546 58.4991 72.7383C59.507 72.6068 60.3616 71.9933 61.3038 71.7084L61.3476 71.6865Z" fill="white"/>
<path d="M60.8221 71.1607C59.0692 71.6866 57.1848 71.336 55.3881 71.4236C52.5615 71.577 51.7945 71.577 49.0337 71.4236C45.0677 71.1826 40.9045 72.2782 36.9385 71.4236C37.5082 70.3938 38.4285 69.9994 39.4583 69.5611C43.8406 67.7206 49.1432 68.0273 53.7885 67.9616C56.5713 67.9178 59.9457 67.9616 60.844 71.1607H60.8221Z" fill="white"/>
<path d="M44.0809 37.7019L43.818 36.6502C44.6287 37.0665 45.4175 38.7975 45.3956 39.674C45.2422 43.3332 38.3839 41.7117 35.9955 41.6679C32.7964 41.6241 30.3642 41.7994 27.2966 42.8292C25.9381 43.2675 24.7549 44.122 23.3744 44.3411C22.8266 43.7714 26.9679 38.5565 27.7568 37.9649C30.0794 36.2338 39.6986 36.2558 42.5033 37.0227C43.1387 37.198 43.4674 37.6581 44.0809 37.7019Z" fill="black"/>
<path d="M43.0295 58.6705C40.9918 63.2719 45.3522 61.76 47.872 62.1763C49.6469 62.4831 49.9755 63.4253 52.3858 63.0966C55.4753 62.6803 59.3537 60.9493 57.053 57.2462C55.9574 55.4933 53.7443 54.9674 52.4516 53.3459C50.4138 50.8042 49.8879 46.7505 52.3201 44.3184C51.6189 46.6191 51.7723 49.0513 52.6488 51.2862C53.8101 54.2662 57.2283 54.3977 58.6964 57.1805C61.1943 61.8915 55.3439 64.2579 51.6189 64.477C49.9755 64.5647 49.0333 63.6444 47.6529 63.4691C46.0095 63.25 43.7526 63.8854 42.3503 62.6584C40.9479 61.4313 41.1013 59.1525 43.0295 58.6705Z" fill="black"/>
<path d="M36.9162 46.8616L37.0476 47.4752C37.5297 51.1782 33.0597 50.8496 33.5856 47.3218L33.739 46.7302C34.1553 45.3497 36.1492 44.6924 36.9162 46.8836V46.8616Z" fill="black"/>
<path d="M59.7041 46.5309V47.254C60.2081 50.5188 56.0668 51.0009 56.5927 47.4074L56.8117 46.3337C57.1404 45.26 59.4192 44.7122 59.6822 46.5309H59.7041Z" fill="black"/>
<path d="M12.4844 56.8087L10.0961 52.8208C9.35107 54.9681 9.26342 57.466 10.0961 59.5915C9.50445 60.0516 8.91284 58.7807 8.71563 58.3206C7.77343 56.0418 8.25548 53.5 8.91283 51.2431C8.14592 50.2133 5.99858 49.5779 4.83727 50.0818C4.42095 50.2571 4.6839 50.7611 4.26758 50.6953L4.39904 49.6217C8.86901 46.8389 12.6378 52.7989 12.5063 56.7868L12.4844 56.8087Z" fill="black"/>
<path d="M10.425 63.4037C8.51865 61.4974 13.2077 59.5692 13.0325 62.5273C12.9448 63.9296 11.1261 64.083 10.425 63.4037Z" fill="black"/>
<path d="M2.55907 60.2488C4.48729 63.3164 8.25608 67.3043 12.2221 66.647C11.5209 72.5193 12.5288 78.5888 11.1484 84.4173C11.0389 84.4173 10.9512 84.4173 10.8636 84.4173V89.194C15.1363 95.9209 22.7616 100.566 30.2773 102.648C35.5799 104.116 43.2928 105.036 47.8942 101.399C48.8583 100.632 50.4579 98.8351 50.4579 97.5862C50.4579 96.4906 50.2388 93.905 50.4579 93.0724C50.4579 93.0067 50.6331 92.8533 50.7865 92.7437L50.7427 92.6342L51.8602 92.1959L51.7945 92.1521C52.1012 92.0864 52.3861 91.9768 52.6928 91.8672H52.7586C55.0593 90.9908 57.36 89.194 58.85 87.3973C62.4654 83.0588 67.4613 67.4139 67.5051 61.7607C67.527 57.707 66.037 53.8068 65.8836 49.8189C65.6864 44.6039 66.6725 41.5144 65.5111 35.8612C65.1825 34.2397 63.824 31.1502 63.7801 29.8574C63.7582 29.2 64.9195 27.8196 65.0729 26.6802C65.3797 24.4452 64.3279 23.3058 64.3279 22.1883C64.3279 21.7282 64.9195 20.9393 65.0948 20.3039C65.6645 18.2223 65.3578 16.6885 64.0431 15.0013C63.7801 14.6726 63.1666 14.585 63.0132 14.1687C62.5092 12.7225 63.4734 11.605 62.0272 9.58913C60.4496 7.39796 59.0253 8.14296 57.6668 7.31032C57.4038 7.15693 56.6808 5.55739 56.1987 5.05342C53.9199 2.59932 52.1231 4.11122 50.1292 3.43196C49.5156 3.21284 48.6611 1.26271 46.2946 0.890211C44.2569 0.561536 41.8247 1.67904 41.1016 1.54757C40.3128 1.4161 39.0419 0.145221 37.3328 0.0137509C34.8568 -0.161542 33.6297 1.39418 32.2493 1.54757C31.6577 1.6133 29.8609 0.824483 28.8749 0.846395C26.618 0.890218 25.3471 2.68696 24.0544 2.92799C23.0683 3.10328 22.3014 2.64315 21.425 2.64315C19.3653 2.64315 17.3932 3.80446 16.1223 5.33827C15.9032 5.62313 15.7718 6.28047 15.6841 6.34621C15.2897 6.60915 12.2221 6.23665 10.3158 7.48561C8.43137 8.73458 8.6724 10.5094 7.90549 11.1668C7.46726 11.5393 6.34977 11.6926 5.6486 12.109C3.85184 13.1388 2.75626 15.1328 2.4495 17.1705C2.38377 17.6526 2.71244 18.1347 2.58097 18.6167C2.4495 19.1645 1.7045 19.6027 1.39774 20.1067C0.345979 21.9692 -0.0484233 23.3058 0.411721 25.5189C0.652749 26.724 1.72642 27.3594 1.83598 27.8196C2.07701 28.8494 1.06907 30.4709 1.6826 32.4649C2.23039 34.2178 3.3917 34.6779 3.93949 35.7954C4.44346 36.8472 4.31199 38.7973 4.79404 40.2654C5.21036 41.5144 5.97727 42.588 6.65653 43.7055C-1.80136 45.0421 -1.03444 54.5518 2.55907 60.2926V60.2488ZM44.98 101.399C35.2731 105.628 17.2398 97.6081 11.9591 88.8215C10.3815 86.2141 12.003 86.1921 12.6384 83.6504C13.6463 79.6187 13.4272 73.4615 13.5149 69.1668C13.5149 68.3561 13.0766 67.2167 13.2957 66.2964L14.7638 65.5733C16.7359 75.9156 24.3611 83.7161 33.2134 88.8215C35.558 90.1581 41.9781 92.9409 44.4979 92.9409H48.8802C49.669 97.2137 49.0774 99.624 45.0019 101.399H44.98ZM55.1688 82.7958C54.0075 82.5329 53.6569 81.1525 53.9637 80.1226C54.2486 79.1804 59.091 77.9096 58.1488 75.1487C57.6887 75.1487 57.8421 75.806 57.5353 76.1347C54.884 79.0928 44.3664 78.3478 41.1454 75.9375C40.8387 76.2662 42.1314 77.3179 42.3725 77.4932C44.1692 78.7203 46.6233 79.2023 48.5077 80.2541C48.8583 84.3078 42.8107 83.7161 40.269 82.7958C36.8946 81.5907 34.3747 77.9972 35.1416 74.338C35.9085 70.6787 37.5081 72.5412 39.9403 72.7603C42.5697 73.0013 45.725 72.7165 48.442 72.7603C51.6849 72.7822 55.2346 73.1766 58.4994 72.7603C59.5074 72.6288 60.3619 72.0153 61.3041 71.7305C62.3778 75.1049 59.6607 83.8476 55.125 82.8178L55.1688 82.7958ZM36.9165 71.4237C37.4862 70.3939 38.4065 69.9995 39.4363 69.5612C43.8186 67.7206 49.1212 68.0274 53.7665 67.9617C56.5493 67.9179 59.9237 67.9617 60.8221 71.1608C59.0691 71.6867 57.1847 71.3361 55.388 71.4237C52.5614 71.5771 51.7945 71.5771 49.0117 71.4237C45.0457 71.1827 40.8825 72.2783 36.9165 71.4237ZM12.2221 47.4086C12.5288 47.7373 13.1424 49.2492 13.5587 48.8548C15.0049 43.7493 18.686 39.6519 22.7177 36.3651L22.0604 25.2121C32.4684 22.5608 43.7967 20.9393 54.5334 22.5827C56.8999 22.9552 59.2006 22.999 60.3181 25.2778C62.071 28.8275 63.057 33.3632 64.2403 37.1539C62.071 36.5623 55.0593 36.3651 53.6569 38.1181C52.8462 39.126 51.8821 42.5004 53.7665 42.7414C54.7964 42.8729 58.2584 41.7335 59.8579 41.6677C61.6766 41.602 63.0351 42.0183 64.7442 42.5004C64.8757 45.3708 64.306 48.2412 64.5032 51.1116C64.6785 53.741 65.6645 56.4581 65.8398 59.0656C66.1685 63.7327 64.7223 68.0055 63.7144 72.4755L62.7065 69.627C61.589 67.0852 56.8561 65.0036 54.1828 64.9379C52.1012 64.8721 50.8523 64.9817 48.683 64.8064C45.8345 64.5654 41.8247 65.8363 39.1515 66.888C35.8209 68.2027 33.3668 69.9776 32.2493 73.5272L31.7672 73.7464C25.3471 71.9715 20.3075 68.2465 17.8315 61.8922C16.2757 57.8604 16.2757 53.3247 13.9093 49.5997C13.23 49.4902 13.6902 49.8846 13.7559 50.3009C14.216 53.6534 15.5088 58.9998 15.1144 62.2208C14.6543 66.0115 11.258 65.6171 8.65049 64.1491C3.39171 61.2129 -0.771513 53.1056 2.49332 47.4524C4.57492 43.837 9.61461 44.4724 12.1783 47.3428L12.2221 47.4086Z" fill="black"/>
</svg>
