<svg width="224" height="507" viewBox="0 0 224 507" fill="none" xmlns="http://www.w3.org/2000/svg">
<path d="M124.403 3.31333C124.328 2.66615 124.714 1.11044 124.328 0.193602V0.189453L0 0.189657L0.167353 506.5H223.348L223.181 357.151C223.268 355.288 222.301 354.043 222.301 354.043L221.712 345.633C221.712 345.633 209.44 333.428 210.19 328.844C210.398 327.578 211.825 324.031 211.763 323.409C211.746 323.247 209.888 322.065 209.693 321.567C209.22 320.36 209.713 318.559 209.489 317.738C209.004 315.933 207.855 313.759 207.183 311.419C207.071 311.034 206.249 310.971 205.88 310.117C205.395 308.992 206.15 307.42 205.428 306.03C205.005 305.217 203.918 305.105 203.611 304.085C203.262 302.907 203.171 299.438 203.022 298.111C202.989 297.833 200.765 294.792 200.723 294.572C200.578 293.796 200.69 291.681 200.553 290.39C200.541 290.253 200.574 290.108 200.553 289.975C199.28 289.129 199.595 288.685 199.172 287.623C199.114 287.482 198.558 287.478 198.492 287.2C197.181 281.595 190.311 277.817 188.2 272.354C186.42 267.753 184.914 262.725 183.67 257.809C172.531 252.339 156.9 242.077 156.768 237.472C156.701 235.223 157.95 231.718 157.56 228.469C157.527 228.175 156.834 228.254 156.755 227.934C156.436 226.656 156.95 224.553 156.722 223.06C156.195 219.596 154.208 214.899 153.976 210.958C153.739 206.859 154.967 201.292 154.689 197.318C154.602 196.073 153.495 193.758 153.441 192.75C153.283 189.78 152.511 187.092 151.744 183.681C151.209 181.296 150.325 180.757 150.586 177.894C150.673 176.932 151.408 175.206 151.366 174.563C151.354 174.322 150.661 174.376 150.557 174.019C149.097 168.892 149.939 163.561 148.35 158.475C148.168 157.89 147.5 157.599 147.342 157.056C146.973 155.77 146.579 149.775 146.77 148.381C146.878 147.581 147.641 147.825 147.641 147.552C147.724 141.163 135.389 133.666 133.762 127.351C133.186 125.119 131.418 122.278 131.452 119.784C131.472 118.353 132.464 116.748 132.617 115.233C132.962 111.852 130.954 106.999 133.858 104.659C133.845 104.522 133.87 104.381 133.858 104.244C133.708 102.56 133.057 100.29 133.074 98.6931C133.099 96.2869 134.546 92.1259 134.31 89.9271C134.231 89.197 133.617 89.3298 133.48 89.002C132.688 87.1103 133.576 85.7246 133.443 83.7333C133.347 82.2938 132.339 80.5223 132.298 79.5059C132.273 78.8131 132.92 78.336 132.92 77.5893C132.92 77.2491 131.829 71.2544 131.709 70.935C131.481 70.3293 130.651 70.3957 130.535 69.9642C130.302 69.1096 130.336 67.7406 131.369 67.3548C131.298 66.9773 131.439 66.4877 131.369 66.1102C130.531 66.438 129.975 64.1853 129.838 63.704C128.801 60.0782 129.564 56.9626 128.78 53.5732C128.348 51.7064 127.067 48.9517 126.365 46.948C126.266 46.6576 125.656 46.641 125.585 46.334C125.258 44.9359 125.859 44.1435 125.984 43.3097C126.004 43.1728 125.959 43.0276 125.984 42.8948C126.701 38.9744 126.726 35.4232 127.245 31.5111C127.336 30.8308 128.046 30.3869 128.079 29.4452C128.178 26.7942 126.573 21.3637 126.399 18.02C126.39 17.8831 126.403 17.742 126.399 17.6051C124.959 17.7752 125.826 17.1488 125.859 16.4477C125.996 13.7138 125.337 13.3487 125.158 11.5565C124.959 9.54862 125.685 6.2837 125.154 3.78211C125.088 3.47097 124.432 3.56639 124.403 3.31333Z" fill="#031C51"/>
</svg>
