<svg width="2334" height="1422" viewBox="0 0 2334 1422" fill="none" xmlns="http://www.w3.org/2000/svg">
<g clip-path="url(#clip0_2665_51380)">
<rect width="2334" height="1421" transform="translate(0 0.464844)" fill="#FCF7ED" fill-opacity="0.32"/>
<g clip-path="url(#clip1_2665_51380)">
<mask id="mask0_2665_51380" style="mask-type:luminance" maskUnits="userSpaceOnUse" x="0" y="0" width="2335" height="1422">
<path d="M2334 0.464844H0V1421.46H2334V0.464844Z" fill="white"/>
</mask>
<g mask="url(#mask0_2665_51380)">
<path opacity="0.3" d="M735.449 1220.55C720.108 1210.91 652.093 1256.85 661.694 1265.53C667.491 1270.77 732.723 1235.32 735.449 1220.55Z" fill="#F3EAD5"/>
<path opacity="0.3" d="M1024.84 907.797C985.348 917.323 956.258 951.084 922.789 972.567C963.815 961.066 996.77 939.871 1024.84 907.797Z" fill="#F3EAD5"/>
<path opacity="0.3" d="M712.719 1282.38C758.519 1262.43 809.257 1247.16 843.293 1209.27C793.349 1219.87 733.684 1230.86 712.719 1282.38Z" fill="#F3EAD5"/>
<path opacity="0.3" d="M1132.86 775.376C1140.02 782.479 1199.79 724.587 1206.5 716.188C1173.2 720.358 1141.55 741.837 1132.86 775.376Z" fill="#F3EAD5"/>
<path opacity="0.3" d="M985.123 992.301L828.979 1040.1L755.281 1085.25C748.575 1086.83 758.973 1063.54 744.085 1068.45C732.605 1072.23 677.151 1125.62 661.354 1138.47C638.115 1157.36 621.011 1154.09 627.659 1197.94C636.409 1207.58 804.543 1074.77 824.431 1063.72C873.866 1036.38 937.28 1024.71 985.123 992.301Z" fill="#F3EAD5"/>
<path opacity="0.3" d="M985.234 1203.58V1203.63C960.914 1192.92 940.458 1203.29 917.219 1212.09C908.98 1215.25 851.021 1239.03 866.078 1254.2C869.886 1258.03 957.789 1222.07 968.188 1217.56C972.62 1215.64 988.643 1207.98 985.234 1203.58Z" fill="#F3EAD5"/>
<path opacity="0.3" d="M549.606 1352.25C575.119 1349.82 575.234 1332.69 575.46 1312.9C546.65 1313.12 495.172 1357.44 549.606 1352.25Z" fill="#F3EAD5"/>
<path opacity="0.3" d="M1104.05 710.266C1094.9 718.159 1080.01 720.187 1070.75 727.911C1062.23 735.015 1004.16 788.284 1013.65 797.925C1028.42 799.11 1036.2 782.369 1048.02 778.421C1056.43 775.603 1064.27 781.127 1074.33 777.068C1117.97 759.591 1115.98 703.162 1135.98 674.358C1146.1 659.814 1175.93 649.046 1183.88 629.035C1145.41 630.894 1127.86 689.803 1104.05 710.266Z" fill="#F3EAD5"/>
<path opacity="0.3" d="M792.324 1127.59L934.095 1051.55C881.079 1050.36 821.476 1084.69 792.324 1127.59Z" fill="#F3EAD5"/>
<path opacity="0.3" d="M1032.58 1301.98C1027.58 1296.46 990.648 1325.27 981.899 1327.69L936.156 1363.88C945.987 1364.84 955.136 1364.11 964.679 1361.29C979.226 1356.95 1049.57 1320.93 1032.64 1302.05L1032.58 1301.98H1032.58Z" fill="#F3EAD5"/>
<path opacity="0.3" d="M594.123 0.46761C504.998 0.46761 189.329 -7.47078 -0.000639677 0.46761C1.64814 12.079 -7.27007 205.081 0.229614 214.101C0.686009 219.682 -1.82622 375.369 -1.54251 380.951C-0.292568 404.573 -5.68296 547.533 7.95132 566.98C7.10021 600.519 -0.625613 1388.83 -0.000639677 1421.47C62.0156 1419.65 77.3933 1419.5 154.364 1421.47C154.59 1445.15 601.388 995.226 639.08 972.677L739.199 880.567C787.215 804.293 850.115 746.347 908.698 679.829C921.995 664.779 940.292 623.569 962.565 623.401C963.815 652.715 934.61 671.315 930.745 696.516C925.346 732.029 948.018 720.307 911.482 752.944C902.901 760.611 900.117 764.445 894.435 769.854C888.753 775.266 862.105 783.044 863.182 803.565L900.117 775.489C904.434 775.209 914.039 761.566 911.424 778.137C903.3 829.099 854.264 881.801 817.781 916.307L800.849 893.812C785.451 910.157 734.368 974.82 718.46 981.525C711.811 984.35 706.754 971.999 699.312 973.13C695.903 973.64 649.195 1014.78 647.492 1017.77C644.709 1022.51 636.584 1088.18 639.026 1091L715.45 1040.15C772.101 998.948 816.65 948.43 865.912 902.153C884.209 884.96 927.452 860.043 940.009 846.173C951.431 833.608 947.734 820.922 951.201 815.004C974.666 774.53 987.905 739.523 1007.97 702.316C1015.41 688.504 1047.12 665.618 1058.08 647.862C1073.2 623.508 1066.21 611.275 1072.97 589.405C1086.1 546.731 1225.54 445.939 1263.61 406.761C1278.56 391.427 1317.13 328.743 1329.69 325.925C1333.44 325.078 1340.09 327.953 1342.87 330.491L1337.19 375.53C1336.4 376.488 1332.87 374.629 1331.51 375.53C1317.87 384.381 1330.03 388.099 1331.51 392.439C1332.76 396.046 1336.68 400.39 1337.19 403.713C1337.48 405.461 1337.25 407.546 1337.19 409.348C1313.04 408.221 1325.43 444.524 1324.35 455.687C1322.99 469.725 1316.96 485.281 1314.52 499.488C1312.76 501.404 1310.71 503.264 1308.84 505.127C1299.46 514.484 1293.27 529.876 1292.02 542.614C1290.49 557.779 1297.3 563.641 1297.48 567.079C1298.84 590.475 1300.38 611.444 1303.16 634.671L1297.48 662.858C1296.11 664.886 1292.99 666.408 1291.79 668.497C1279.98 689.186 1264.92 724.305 1254.86 747.363C1248.15 762.697 1242.41 781.354 1240.65 798.094C1226.16 816.192 1189.29 848.941 1169.06 859.372C1155.53 866.303 1134.11 864.39 1132.8 865.69C1129.05 869.297 1133.09 952.782 1115.76 967.1C1113.88 968.959 1112.01 970.933 1110.08 972.739C1108.14 974.536 1106.33 976.511 1104.39 978.37C1102.46 980.229 1100.59 982.096 1098.71 984.009C1093.14 989.702 1087.4 994.95 1081.66 1000.92C1048.65 1035.58 1033.25 1062.03 988.987 1086.43C983.872 1089.26 895.06 1121.1 911.367 1136.1L982.223 1119.13L993.415 1135.93C1029.61 1123.19 1102.57 1078.26 1137.06 1074.99C1150.81 1073.69 1156.15 1083.78 1166.78 1091.05C1169 1092.58 1171.89 1098.21 1178.14 1102.33C1191.72 1118.34 1227.69 1142.58 1248.38 1140.21C1257.35 1139.2 1263.49 1127.75 1274.46 1133C1285.42 1138.24 1294.4 1158.2 1303.6 1166.54C1367.53 1224.66 1505.83 1299.29 1590.73 1315.53C1600.5 1317.39 1598.06 1317.11 1598.45 1307.86C1600.05 1268.96 1725.55 1393.56 1730.32 1346.89C1753.79 1314.75 1964.5 1455.34 1972.34 1421.46C1981.54 1381.84 2332.85 1473.67 2340.29 1431.67C2343.7 1412.34 2330.48 1311.1 2334 1291.66C2347.24 1218.43 2336.07 101.927 2334 0.463497C2180.79 0.46761 1849.09 21.6092 1841.38 -8.20703H593.19C593.391 -5.82963 593.695 -2.98333 594.119 0.46761H594.123Z" fill="#F3EAD5"/>
<path opacity="0.3" d="M1243.2 1338.42C1219.79 1372.52 1281.84 1364.13 1291.79 1338.81C1278.32 1338.7 1252.01 1325.56 1243.2 1338.42Z" fill="#F3EAD5"/>
<path opacity="0.3" d="M1286.11 583.939C1280.71 578.752 1264.97 597.92 1261.5 601.469C1243.66 619.9 1218.03 645.27 1209.39 668.271C1224.97 665.791 1292.18 589.8 1286.1 583.939H1286.11Z" fill="#F3EAD5"/>
<path opacity="0.3" d="M1337.25 1299.41C1334.52 1314.07 1340.03 1309.33 1348.55 1313.22C1367.08 1321.74 1385.03 1323.48 1405.32 1321.84C1392.59 1301.66 1359.18 1300.15 1337.25 1299.41Z" fill="#F3EAD5"/>
<path opacity="0.3" d="M1126.95 1169.59L1126.89 1169.53C1131.38 1163.22 1125.7 1146.98 1113.93 1148.05C1104.56 1148.9 1059.16 1177.65 1049.27 1185.48C1024.15 1205.38 1037.28 1208.54 1062.22 1198.34C1071.26 1194.62 1124.9 1172.47 1126.94 1169.59H1126.95Z" fill="#F3EAD5"/>
<path opacity="0.3" d="M1101.61 1376.92C1118.65 1394.62 1151.55 1404.09 1175.36 1404.99C1169.39 1375.9 1123.99 1376.24 1101.61 1376.92Z" fill="#F3EAD5"/>
<path opacity="0.3" d="M1138.48 1301.83C1140.93 1315.98 1165.08 1332.73 1176.33 1340.28C1191.95 1350.82 1209.57 1364.12 1229.28 1363.73C1214.68 1328.72 1174.51 1308.54 1138.48 1301.82V1301.83Z" fill="#F3EAD5"/>
<path opacity="0.3" d="M-310.287 -754.207H2859.19C2872.62 -748.004 2797.24 -661.361 2789.83 -647.158C2760.19 -662.266 2769.57 -647.158 2767.15 -638.586C2748.27 -571.904 2708.55 -521.732 2708.91 -455.608V-449.969C2653.1 -435.54 2677.88 -391.003 2668.38 -377.023C2660.97 -366.028 2604.8 -326.007 2604.7 -322.737C2600.88 -244.661 2562.43 -161.514 2535.34 -83.7753C2534.75 -81.9697 2536.04 -79.9418 2535.34 -78.1403L2523.76 -61.227C2523.06 -59.4213 2524.45 -57.3936 2523.76 -55.5878C2489.26 -36.2519 2506.62 -8.46344 2491.79 14.3687L2500.61 17.6386C2491.56 32.3514 2462.97 51.967 2457.06 66.8525C2444.1 99.548 2448.62 141.543 2425.69 175.538C2411.21 197.128 2373.46 214.437 2364.67 241.551C2352.28 279.659 2403.34 320.527 2338.73 344.429C2346.14 308.574 2335.48 284.278 2339.07 257.333C2340.7 245.158 2368.02 234.5 2361.77 220.466C2321.37 230.614 2313.73 217.591 2280.96 214.827V237.318C2260.81 233.991 2173.04 227.677 2165.16 231.625C2158.22 235.122 2187.4 276.722 2118.85 257.106C2099.06 251.414 2102.88 226.159 2078.67 231.741C2052.15 241.324 2062.01 257.785 2061.08 271.087C2052.74 275.936 1988.7 256.317 1972.61 255.7C1951.88 254.852 1897.82 270.524 1887.74 265.452C1867.36 255.136 1931.27 241.945 1910.78 231.687C1900.94 226.784 1876.05 233.267 1865.73 240.707C1856.36 247.473 1854.97 263.424 1851.61 264.72C1847.56 266.357 1808.42 266.184 1806.79 265.399C1789.09 256.884 1838.41 229.886 1829.84 225.995C1795.69 228.59 1771.36 232.814 1737.44 225.995C1745.77 300.574 1675.61 244.261 1627.44 243.471C1583.21 242.682 1585.77 265.061 1558.78 265.567C1527.17 266.131 1504.94 245.894 1487.34 244.261C1456.54 241.328 1409.19 261.454 1361.25 260.496C1326.05 259.764 1314.13 250.464 1301.27 249.501C1285.18 248.263 1271.75 261.508 1257.5 259.932C1252.06 259.311 1196.6 214.441 1193.59 259.875C1108.6 239.185 1095.17 283.719 1048.74 293.586C1043.41 294.713 962.821 264.724 946.613 266.077C932.021 267.315 904.699 289.358 875.633 288.346C869.959 288.177 870.078 276.788 863.245 276.562C836.034 275.603 768.763 291.048 735.763 293.249C696.278 295.898 643.361 290.09 609.436 293.701C594.613 295.281 618.584 305.37 615.11 310.615C580.954 313.095 595.773 307.628 592.068 297.929C589.174 290.431 558.603 293.195 557.333 293.759C544.365 299.451 588.594 312.926 580.375 321.889C522.478 323.411 400.785 300.41 418.387 344.437C388.631 346.806 382.957 332.204 383.652 321.889C378.208 319.351 326.454 342.183 291.37 321.773C270.297 309.483 330.969 313.206 314.296 299.336C296.813 306.834 247.255 297.983 245.056 299.279C237.762 303.618 255.129 334.117 181.489 333.216C173.036 319.009 208.7 299.731 156.014 300.463C122.203 300.916 115.37 325.66 100.202 327.52C72.0656 330.958 79.9395 307.846 56.8977 302.997C33.8559 298.147 -18.3664 303.503 -30.5246 314.497C-60.0505 341.048 -31.2195 371.658 -32.2597 397.645C-33.5344 428.539 -63.0602 471.661 -67.2295 505.088C-72.6733 549.51 -62.7148 604.754 -55.7661 648.666C-71.0492 639.646 -73.9438 622.848 -77.303 611.237C-112.388 490.487 -26.4705 368.725 -57.9659 247.412C-64.3348 222.889 -105.09 195.101 -112.388 166.407C-120.147 135.402 -108.453 108.12 -102.084 79.7061C-95.1353 48.7588 -87.8412 19.8968 -90.5056 -13.3087C-91.6651 -27.1742 -82.4015 -31.6863 -113.663 -21.6502C-121.767 -61.3915 -133.81 -99.8371 -136.819 -139.973C-141.104 -196.175 -139.944 -212.525 -171.555 -269.571C-172.365 -271.035 -179.778 -275.263 -183.133 -280.845C-161.827 -286.369 -172.019 -300.46 -176.999 -309.086C-195.291 -340.091 -234.43 -375.998 -240.104 -408.299C-243.694 -429.268 -230.031 -452.947 -232.576 -474.986C-243.114 -564.73 -278.199 -632.038 -307.375 -718.908C-311.314 -730.63 -311.314 -742.246 -310.27 -754.026V-754.195L-310.287 -754.207Z" fill="#526E8D"/>
<path opacity="0.3" d="M-0.0012238 527.579C-3.4098 483.667 -0.0012238 419.58 -0.687872 371.098C1.30217 337.671 -0.683761 322.407 -0.0012238 291.517C0.566186 265.588 -0.0012238 177.492 -0.0012238 0.466106C5.96481 -10.4708 2334.8 -11.7088 2334 0.466106C2332.24 27.4114 2337.63 110.501 2334 146.351C2333.83 148.211 2334.23 214.079 2334 215.942C2334 253.499 2336.99 257.435 2335.26 295.03L2334.07 404.423C2335.8 464.907 2341.39 548.861 2334 603.088C2344.42 748.982 2340.08 1245.38 2334 1291.66C2307.57 1282.24 1619.53 629.104 1609.59 685.253C1596.58 680.013 1599.87 664.169 1590.15 651.035C1573.33 628.15 1539.18 617.324 1516.46 583.333C1466.86 509.206 1448.38 446.237 1382.58 381.015C1376.05 374.533 1373.78 347.304 1348.55 352.828C1349.68 343.808 1350.48 337.268 1342.87 330.279C1340.08 327.742 1333.43 324.866 1329.68 325.714C1317.13 328.531 1278.54 391.162 1263.6 406.55C1225.53 445.727 1086.09 546.52 1072.96 589.194C1066.26 611.068 1073.19 623.3 1058.07 647.65C1047.05 665.407 1015.4 688.292 1007.96 702.104C990.228 713.547 999.549 704.753 996.593 693.763C991.651 675.274 985.968 623.074 962.557 623.243C939.145 623.411 921.987 664.564 908.69 679.671C850.107 746.189 787.206 804.197 739.19 880.414L154.363 1421.47H-0.0012238C-0.568634 1358.78 1.1336 778.716 -0.0012238 721.272C-0.683761 688.634 -0.852339 651.2 -0.0012238 617.604C0.566186 595.282 -0.00122392 586.06 -0.622086 544.377C-0.905791 538.796 -0.165691 533.045 -0.622086 527.468L-0.0012238 527.579Z" fill="#67849F"/>
<path opacity="0.3" d="M962.504 623.348C985.916 623.179 991.598 675.379 996.54 693.868C999.497 704.863 990.176 713.656 1007.91 702.21C987.848 739.413 974.609 774.367 951.139 814.894C957.73 791.107 936.481 800.637 931.083 792.687C924.035 782.256 933.525 750.124 911.367 752.941C947.903 720.303 925.232 731.972 930.63 696.513C934.495 671.258 963.7 652.712 962.451 623.397L962.508 623.34L962.504 623.348Z" fill="#3D506B"/>
<path opacity="0.3" d="M1183.89 629.035C1175.93 649.046 1146.1 659.871 1135.98 674.358C1115.93 703.109 1117.91 759.591 1074.33 777.068C1064.28 781.07 1056.44 775.603 1048.03 778.421C1036.21 782.365 1028.42 799.11 1013.65 797.925C1004.1 788.231 1062.18 734.957 1070.76 727.911C1080.07 720.187 1094.9 718.159 1104.05 710.266C1127.86 689.745 1145.42 630.894 1183.89 629.035H1183.89Z" fill="#526E8D"/>
<path opacity="0.3" d="M1382.59 381.049C1371.79 396.325 1374.58 407.262 1352.07 403.765C1346.33 402.865 1350.77 378.79 1337.19 403.597C1336.68 400.269 1332.75 395.988 1331.5 392.323V375.409C1332.87 374.509 1336.39 376.368 1337.19 375.409C1342.19 369.602 1347.64 360.018 1348.55 352.861C1373.78 347.28 1376.11 374.562 1382.59 381.049Z" fill="#2F405D"/>
<path opacity="0.3" d="M1286.11 583.939C1292.24 589.8 1225.02 665.733 1209.4 668.271C1218.04 645.328 1243.66 619.905 1261.51 601.469C1264.91 597.92 1280.71 578.752 1286.11 583.939H1286.11Z" fill="#526E8D"/>
<path opacity="0.3" d="M1337.19 409.244C1336.68 422.04 1333.21 445.49 1331.51 459.923C1330.66 467.079 1332.82 475.931 1331.51 482.471C1327.82 501.297 1315.37 498.368 1314.46 499.384C1316.9 485.177 1322.93 469.675 1324.29 455.583C1325.37 444.42 1312.98 408.117 1337.13 409.244H1337.19Z" fill="#2F405D"/>
<path opacity="0.3" d="M1240.7 797.992C1242.46 781.247 1248.2 762.644 1254.91 747.256C1264.97 724.198 1279.97 689.08 1291.84 668.391C1291.84 682.034 1289.23 696.183 1284.46 708.979C1275.94 731.585 1253.89 781.642 1240.76 797.992H1240.71H1240.7Z" fill="#2F405D"/>
<path opacity="0.3" d="M1297.47 566.976C1297.25 563.537 1290.48 557.676 1292.02 542.511C1293.32 529.715 1299.46 514.381 1308.84 505.023L1297.47 566.976Z" fill="#2F405D"/>
<path opacity="0.3" d="M1297.47 662.754L1303.15 634.566C1303.27 635.751 1309.4 638.511 1308.09 647.251C1306.79 655.988 1300.59 658.073 1297.47 662.754Z" fill="#2F405D"/>
<path opacity="0.3" d="M1348.55 352.917C1347.64 360.073 1342.19 369.657 1337.19 375.465L1342.87 330.426C1350.48 337.361 1349.69 343.9 1348.55 352.974V352.917Z" fill="#1C2D47"/>
<path opacity="0.3" d="M1382.59 381.061C1448.38 446.283 1466.86 509.251 1516.46 583.379C1539.19 617.37 1573.33 628.196 1590.16 651.081C1599.82 664.215 1596.52 680.054 1609.59 685.299C1612.48 662.754 1669.68 713.511 1695.74 733.192C1756.31 775.813 1995.63 985.694 2053.32 1051.51C2049.24 1065.94 2052.91 1151.12 1855.79 1034.41C1848.72 1030.22 1841.73 1026.09 1834.83 1022.03C1727.7 958.93 1644.37 912.637 1640.89 921.891C1630.38 907.795 1619.19 902.383 1601.17 904.748C1598.62 949.737 1561.12 884.848 1564.24 927.522C1548.9 911.51 1536.68 881.245 1521.68 916.133C1509.36 911.571 1461.11 838.674 1450.77 848.661L1547.25 989.479C1541.91 988.857 1526.23 991.671 1524.52 995.114C1512.59 971.216 1488.5 929.895 1467.53 913.657C1458.38 906.611 1440.65 905.883 1436.45 899.454C1432.24 893.033 1430.94 860.729 1421.56 854.695C1417.76 852.272 1407.41 862.028 1399.68 857.459C1389.91 851.713 1357.69 800.52 1340.02 792.352C1342.52 843.647 1401.33 864.389 1410.93 913.439C1373.32 909.885 1354 858.133 1331.16 846.184C1317.92 839.254 1295.47 837.107 1279.16 830.172C1275.7 828.708 1232.11 795.564 1240.81 817.487C1242.06 820.592 1271.21 866.643 1274.79 871.098C1245.98 869.634 1281.84 892.914 1274.79 899.224C1263.42 909.321 1218.14 855.937 1214.84 842.688C1196.32 842.688 1194.27 861.683 1182.74 866.981C1174.9 870.588 1156.94 870.366 1155.97 871.489C1153.76 874.022 1157.22 884.404 1155.41 889.192C1153.02 895.386 1144.9 894.263 1142.45 900.404C1135.86 916.758 1137.73 946.179 1127.28 962.982C1122.79 970.192 1116.71 966.079 1115.91 966.869C1133.19 952.551 1129.15 869.066 1132.96 865.459C1134.27 864.212 1155.69 866.076 1169.21 859.141C1189.5 848.71 1226.32 815.899 1240.81 797.863C1253.93 781.518 1275.98 731.46 1284.5 708.855C1289.34 696.116 1291.89 681.967 1291.89 668.266C1293.08 666.181 1296.21 664.659 1297.57 662.627C1300.7 657.946 1306.95 655.47 1308.2 647.124C1309.5 638.33 1303.36 635.624 1303.25 634.439C1300.47 611.159 1298.94 590.244 1297.57 566.848L1308.94 504.896C1310.81 503.036 1312.85 501.173 1314.62 499.256C1315.53 498.241 1327.92 501.173 1331.67 482.347C1364.85 511.267 1386.95 539.792 1433.72 547.175C1426.73 536.917 1412.69 487.365 1404.8 482.968C1394.62 477.276 1384.11 493.004 1376.78 491.256C1365.59 488.608 1350.87 460.535 1331.67 459.799C1333.37 445.312 1336.83 421.859 1337.35 409.121C1337.41 407.315 1337.63 405.23 1337.35 403.486C1350.87 378.683 1346.5 402.754 1352.24 403.654C1374.74 407.151 1371.95 396.214 1382.75 380.938L1382.58 381.049L1382.59 381.061ZM1432.08 647.527C1413.78 636.985 1383.44 632.025 1392.08 661.562C1400.26 689.523 1468.05 781.633 1490.32 806.55L1541.52 854.242C1520.33 778.42 1467.37 716.863 1432.08 647.527ZM1615.33 820.42C1618.96 816.418 1611.86 801.54 1608.85 795.959C1599.82 779.383 1522.82 688.063 1509.58 680.396C1501.69 675.83 1494.25 672.671 1484.87 674.024C1480.55 677.969 1514.42 730.115 1519.87 737.836C1527.6 748.773 1582.43 820.81 1587.09 823.636C1590.78 825.89 1614.42 821.436 1615.39 820.416H1615.33L1615.33 820.42ZM1612.48 690.938V696.573C1616.18 694.714 1616.18 692.797 1612.48 690.938ZM1328.66 781.073V786.712C1332.36 784.853 1332.36 782.937 1328.66 781.073Z" fill="#3D506B"/>
<path opacity="0.3" d="M1331.5 392.327C1330.03 387.988 1317.87 384.266 1331.5 375.414V392.327Z" fill="#1C2D47"/>
<path opacity="0.3" d="M1432.08 647.538C1467.31 716.931 1520.27 778.489 1541.52 854.253L1490.32 806.561C1468.05 781.648 1400.26 689.534 1392.08 661.577C1383.44 632.036 1413.84 636.996 1432.08 647.538H1432.08Z" fill="#67849F"/>
<path opacity="0.3" d="M1615.33 820.411C1614.36 821.48 1590.72 825.885 1587.03 823.631C1582.37 820.806 1527.53 748.768 1519.81 737.831C1514.41 730.164 1480.49 677.964 1484.81 674.019C1494.24 672.666 1501.63 675.879 1509.52 680.391C1522.77 688 1599.75 779.378 1608.79 795.954C1611.86 801.535 1618.96 816.413 1615.26 820.415H1615.32L1615.33 820.411Z" fill="#67849F"/>
<path opacity="0.3" d="M1612.48 690.945C1616.18 692.804 1616.18 694.721 1612.48 696.584V690.945Z" fill="#67849F"/>
<path opacity="0.3" d="M1331.51 459.977C1350.71 460.709 1365.43 488.781 1376.62 491.434C1383.95 493.182 1394.52 477.453 1404.64 483.146C1412.53 487.543 1426.57 537.094 1433.56 547.352C1386.8 539.969 1364.69 511.444 1331.51 482.525C1332.81 475.985 1330.65 467.138 1331.51 459.977Z" fill="#526E8D"/>
<g opacity="0.3">
<path d="M1480.8 361.565L1483.01 357.945C1482.41 359.85 1480.87 361.372 1480.8 361.565Z" fill="#3D506B"/>
<path d="M1373.58 548.418C1375.02 548.817 1375.02 549.228 1373.58 549.623V548.418Z" fill="#67849F"/>
</g>
</g>
</g>
</g>
<defs>
<clipPath id="clip0_2665_51380">
<rect width="2334" height="1421" fill="white" transform="translate(0 0.464844)"/>
</clipPath>
<clipPath id="clip1_2665_51380">
<rect width="2334" height="1421" fill="white" transform="translate(0 0.464844)"/>
</clipPath>
</defs>
</svg>
