<svg width="202" height="508" viewBox="0 0 202 508" fill="none" xmlns="http://www.w3.org/2000/svg">
<path d="M201.397 1.1988V1.19477L201.405 1.19892L201.397 1.1988L201.565 507.522H0.515254L0.34791 355.347C-0.162364 354.588 26.0704 314.598 26.0579 314.391C26.0372 314.026 26.73 313.018 26.8752 312.308C27.2652 310.4 40.2453 294.627 40.4402 292.702C40.4693 292.433 49.5332 286.482 49.5622 286.208C50.7529 282.367 51.4538 286.157 51.6405 282.187C51.188 278.967 53.1515 279.598 53.1557 279.461C53.8609 276.52 62.3966 274.617 63.4255 271.626C65.8524 264.549 67.1125 267.854 68.7719 260.627C69.1743 258.884 72.276 256.529 72.1018 255.093C71.6039 251.036 74.1611 252.644 74.6921 248.889C74.912 247.329 73.8873 242.525 73.9661 241.953C73.9868 241.816 74.6257 241.808 74.8207 239.63C74.8331 239.493 74.8041 239.352 74.8207 239.215C77.3513 236.141 76.3225 232.942 76.6668 229.661C77.0111 226.379 77.6666 225.342 77.8699 221.654C78.1022 217.41 79.8197 211.677 80.3632 207.134C80.5042 205.935 81.7571 204.914 82.089 203.981C82.6407 202.438 82.5121 200.533 82.8855 198.978C83.2589 197.422 84.4661 196.775 84.5159 195.605C84.6943 191.527 82.3918 189.706 84.7731 185.433C85.5945 183.964 85.076 177.202 85.2046 175.219C85.4037 172.128 87.9094 168.191 88.3865 164.686C88.8346 161.417 89.2951 157.044 89.3739 153.991C89.432 151.775 91.61 142.138 92.3608 140.052C92.7799 138.89 94.1489 137.359 94.2899 136.592C95.1694 131.875 94.7546 126.332 95.5386 121.466C95.8954 121.275 96.248 121.628 96.7085 120.777C97.169 119.927 97.1773 118.491 97.5922 117.508C98.1439 116.206 99.2807 115.484 99.2682 114.003C99.2682 113.866 99.2724 113.725 99.2682 113.588C100.695 112.04 99.2267 109.734 99.6789 108.078C100.392 106.987 103.616 104.262 103.753 103.345C104.018 101.574 102.803 97.8689 103.048 95.6286C103.193 94.3011 103.857 92.0111 104.276 90.6835C106.375 84.021 104.939 76.3627 107.076 69.3765C107.329 68.5509 108.49 69.0156 107.872 66.6343C107.752 66.1655 107.159 65.8627 107.13 65.2985C107.117 65.0537 107.781 65.1284 107.947 64.7674C108.573 63.415 110.378 60.1874 110.461 59.2789C110.561 58.2293 110.432 57.047 110.461 55.9642C110.503 54.5205 110.361 52.9565 110.453 51.6248C111.162 41.1123 116.605 31.0023 118.377 21.3859C118.974 18.1292 119.787 14.4495 120.401 11.7363C120.613 10.8029 120.227 9.68276 120.509 8.59583C120.791 7.50891 122.62 5.3724 122.77 3.88306C122.878 2.78784 122.023 1.19894 122.069 0L201.397 1.1988Z" fill="#031C51"/>
</svg>
