<svg width="1181" height="2470" viewBox="0 0 1181 2470" fill="none" xmlns="http://www.w3.org/2000/svg">
<path d="M1151.48 0.570312C1150.04 7.56305 1145.21 10.9388 1141.84 15.7614C1136.29 23.7187 1132.19 33.605 1124.24 39.1509C1123.99 42.7678 1132.92 49.0372 1129.78 53.3775L1118.93 57.7178V66.8807C1109.53 70.2565 1099.64 76.5259 1098.44 87.6178L1090.96 88.5823C1090.24 94.3694 1086.38 100.88 1086.62 106.426C1087.1 116.071 1101.81 129.092 1082.28 131.262C1084.45 139.702 1086.86 139.46 1080.11 146.453C1076.73 149.829 1040.32 176.594 1037.91 176.594C1032.37 176.594 1030.92 166.949 1028.27 163.573C1019.83 153.205 1008.98 155.616 1001.02 165.02C999.09 167.19 985.587 185.757 985.105 186.963C983.658 190.821 989.204 193.473 986.793 199.019C986.551 199.743 975.942 208.906 974.736 209.629C971.36 211.799 940.496 226.99 938.085 227.472C933.021 228.196 922.411 224.82 916.624 228.437C915.419 229.16 914.936 231.813 913.489 232.777C911.56 233.983 907.944 233.501 906.738 234.947C905.291 236.876 907.702 239.77 907.22 241.699C906.014 248.451 874.668 255.202 870.328 259.543C867.434 262.436 864.782 275.939 860.923 278.109L850.314 274.251L848.144 289.443C836.569 291.613 836.569 295.712 835.123 306.804C834.881 309.697 837.052 312.35 835.846 315.002C831.265 326.335 819.69 341.526 814.144 353.583C812.457 356.959 812.939 360.817 811.733 363.228C810.528 365.398 806.91 366.363 804.981 368.533C803.294 370.462 802.329 374.802 801.847 375.043C795.095 379.384 786.656 366.845 776.769 382.277C774.599 385.653 774.117 389.511 771.947 392.646C768.812 397.468 761.819 400.844 761.337 408.319C752.174 406.872 746.87 397.951 736.501 398.433C725.891 403.738 732.402 420.617 729.026 427.85C725.891 434.602 710.7 447.623 706.601 455.098C705.878 456.545 701.537 467.154 701.537 468.119C701.055 471.495 707.083 478.729 705.154 483.551L691.651 494.161C690.204 503.565 686.587 512.004 685.141 522.614C683.453 534.429 683.694 533.706 679.353 545.521C678.63 547.209 678.871 550.826 678.389 551.308C678.148 551.549 674.049 551.549 670.914 553.72C669.226 554.925 655.482 572.528 654.999 574.216C652.588 581.691 659.822 584.102 658.857 588.201C656.446 592.783 649.212 596.399 647.525 601.222C644.39 611.349 642.702 615.931 638.844 625.817C637.156 630.399 634.986 645.59 634.021 646.795C631.369 650.895 625.099 644.384 622.688 648.966C624.858 654.753 628.475 659.093 622.688 663.916C613.525 671.391 575.909 678.865 571.328 684.894C567.711 689.716 574.221 694.057 572.292 697.674C569.881 702.496 562.165 701.532 558.307 703.219C553.484 705.148 557.101 709.971 556.137 713.106C555.413 715.276 552.279 716.24 551.796 719.616C551.073 723.474 553.484 727.091 553.243 730.949L545.768 733.361L547.938 743.006C546.009 746.623 534.435 749.757 530.577 752.892C525.755 756.75 523.584 765.672 520.691 768.565C518.762 770.494 514.421 770.494 512.975 773.147C511.287 776.523 516.833 782.551 516.591 785.686C516.35 788.097 512.975 790.267 512.492 793.643C511.769 797.742 514.18 802.082 513.457 804.976C512.733 807.869 508.875 809.798 508.393 811.969C507.67 814.621 510.563 817.032 508.393 821.131C505.982 825.954 499.23 825.231 498.748 834.393C498.266 841.869 513.216 839.94 504.776 855.131C502.365 859.23 495.854 862.847 494.167 866.946C493.202 868.875 491.755 877.556 491.755 879.485C491.996 885.754 502.124 909.867 502.124 914.207C502.124 916.136 499.471 918.306 498.989 921.682C498.507 925.781 500.436 941.214 499.954 942.178C496.096 948.206 485.968 940.49 484.039 946.277C481.869 953.029 494.167 960.263 490.791 967.979C489.103 971.837 465.954 982.206 459.926 987.028C457.274 989.198 456.309 992.574 453.657 994.503C448.352 998.12 433.884 997.879 431.714 1001.25C428.58 1006.32 435.331 1011.62 435.09 1014.03C435.09 1016.2 424.48 1023.68 422.792 1027.06C418.934 1034.29 420.381 1041.52 423.275 1048.76L414.353 1055.03C419.658 1058.16 415.559 1062.98 416.523 1066.36C417.488 1069.74 423.516 1072.87 418.934 1077.69L376.496 1110.73L366.127 1108.32C364.68 1114.83 371.914 1123.75 368.297 1129.54C365.645 1134.12 338.156 1138.46 332.851 1143.76C326.823 1150.03 321.036 1156.3 314.043 1162.57C311.391 1164.74 305.604 1167.15 304.157 1169.32C301.746 1172.46 303.434 1177.04 300.54 1180.65C291.136 1192.71 275.222 1204.53 264.371 1215.38C261.96 1217.79 261.477 1221.16 260.272 1222.61C256.896 1225.99 248.697 1224.78 256.172 1235.39C257.619 1237.56 262.201 1238.77 263.889 1241.66C266.3 1245.76 267.506 1248.65 270.158 1253.48C272.569 1257.57 271.846 1262.88 273.534 1266.5C275.463 1270.35 287.76 1277.59 285.59 1281.69C282.697 1286.03 277.874 1284.1 273.775 1285.06C264.13 1287.72 243.875 1294.95 234.471 1292.06C232.301 1291.33 231.095 1287.72 228.443 1287.96C224.585 1288.2 217.351 1297.6 213.734 1300.5C206.018 1306.52 196.614 1312.55 188.898 1319.3C185.522 1322.2 182.387 1327.5 180.217 1329.43C177.564 1331.6 171.054 1332.32 170.09 1333.77C169.607 1334.49 164.061 1346.31 163.338 1348C159.721 1357.16 153.693 1387.06 146.7 1391.64C138.261 1396.71 116.8 1396.71 106.431 1401.29C101.85 1403.22 98.4743 1409.24 95.3396 1409.73C93.4106 1409.73 91.4816 1406.83 88.1058 1406.83C83.2832 1406.83 80.8719 1411.17 76.0493 1411.66C71.4679 1411.9 59.6525 1409.24 55.3122 1410.21C52.9009 1410.69 50.7307 1415.27 48.0783 1416.72C44.9436 1418.41 41.3267 1418.41 38.4331 1420.58C33.1283 1424.19 36.7453 1425.88 35.7808 1429.98C31.4405 1449.27 14.3203 1469.29 0.09375 1485.92V1516.79V2469.49H1180.42V0.570312H1151.72H1151.48Z" fill="#031C51"/>
</svg>
