<svg width="995" height="2470" viewBox="0 0 995 2470" fill="none" xmlns="http://www.w3.org/2000/svg">
<path d="M994.339 1544.52C993.616 1538.97 993.374 1533.43 991.445 1528.36V1517.03H985.176C984.935 1516.07 984.453 1514.38 983.971 1512.69C981.077 1511.24 979.148 1508.35 978.183 1504.97C978.183 1504.97 977.942 1504.97 977.701 1505.21C973.843 1495.57 983.729 1495.57 982.283 1486.41C981.077 1478.45 963.957 1460.85 961.787 1449.51C960.581 1443 964.439 1442.28 963.957 1438.42C962.751 1428.78 949.73 1404.42 947.56 1392.61C952.865 1382.24 943.702 1375.73 942.979 1369.94C942.255 1364.88 946.113 1361.02 942.737 1353.79C940.808 1349.93 937.674 1350.17 937.191 1349.45C936.709 1348.72 938.397 1346.31 938.156 1344.62C937.674 1342.21 933.575 1338.84 932.851 1334.98C931.887 1330.4 932.851 1325.57 932.61 1320.99C924.412 1322.92 927.546 1318.1 925.135 1315.69C922.965 1313.76 916.695 1314.24 914.284 1311.35C911.873 1307.97 913.802 1303.63 912.114 1300.01C910.185 1295.92 899.334 1288.2 897.888 1282.41C896.923 1274.94 919.107 1268.43 909.462 1252.75C907.533 1249.62 903.675 1250.34 901.504 1247.21C898.611 1242.87 898.129 1232.26 895.235 1226.23C893.547 1222.61 885.349 1211.28 882.696 1207.18C880.767 1204.53 875.704 1202.12 875.463 1201.63C873.051 1197.29 880.526 1194.16 869.675 1187.17C867.505 1185.72 864.371 1185.96 862.201 1184.03C860.271 1181.14 863.165 1177.52 862.924 1174.39C862.442 1170.77 855.449 1164.02 854.484 1160.16C853.279 1155.58 854.966 1149.07 851.832 1144.73C847.009 1138.22 821.932 1135.56 816.386 1130.26C811.322 1125.44 819.521 1114.59 817.833 1108.32L807.464 1110.73L764.302 1076.73C761.167 1071.91 767.437 1068.77 767.678 1065.4C767.919 1062.02 764.543 1058.16 769.607 1055.03C755.622 1048.03 763.338 1048.28 763.579 1038.39C764.061 1023.92 749.111 1017.89 748.87 1014.28C748.87 1011.62 755.38 1006.56 752.246 1001.5C750.076 997.88 735.608 998.121 730.303 994.745C727.651 993.057 726.927 989.44 724.034 987.27C718.005 982.448 694.857 972.079 693.169 968.221C689.552 960.505 702.091 953.271 699.921 946.519C697.992 940.732 687.864 948.69 684.006 942.42C683.524 941.456 685.453 926.024 684.971 921.924C684.489 918.549 682.077 916.378 681.836 914.449C681.836 910.109 691.722 885.996 692.205 879.727C692.205 877.798 690.517 869.117 689.793 867.188C688.106 862.848 681.354 859.472 679.184 855.373C670.503 840.182 685.694 842.111 685.212 834.636C684.73 825.473 677.978 826.196 675.567 821.374C673.638 817.274 676.29 814.863 675.567 812.211C675.085 810.041 671.227 808.112 670.503 805.218C669.78 802.325 671.95 797.984 671.468 793.885C670.985 790.75 667.609 788.58 667.368 785.928C667.127 782.552 672.673 776.765 670.985 773.389C669.539 770.737 665.439 770.737 663.269 768.808C660.376 765.914 657.964 756.992 653.383 753.134C649.525 750 637.951 746.865 636.022 743.248L638.192 733.603L630.717 731.191C630.717 727.333 632.887 723.958 632.164 719.858C631.681 716.724 628.547 715.759 627.823 713.348C627.1 710.937 628.788 708.284 628.064 705.873C626.618 701.292 614.561 703.944 611.668 697.916C609.739 694.299 616.249 689.958 612.632 685.136C608.051 679.108 570.435 671.633 561.272 664.158C555.485 659.335 558.86 654.995 561.272 649.208C558.619 644.385 552.591 651.137 549.939 647.038C549.215 645.832 547.045 630.882 545.116 626.059C541.258 616.173 539.57 611.592 536.435 601.464C534.989 596.642 527.755 593.025 525.102 588.443C524.138 584.344 531.131 581.933 528.96 574.458C528.478 572.77 514.734 555.167 513.046 553.962C509.911 551.792 505.812 551.792 505.571 551.551C505.089 551.068 505.33 547.451 504.606 545.763C500.266 533.948 500.507 534.672 498.819 522.856C497.373 512.488 493.756 503.807 492.309 494.403L478.806 483.793C476.877 478.971 482.905 471.737 482.423 468.361C482.423 467.397 478.082 456.546 477.359 455.34C473.019 447.865 458.069 434.844 454.934 428.093C451.558 420.859 457.827 404.944 448.182 398.916C437.573 397.71 432.027 407.114 422.623 408.561C422.14 401.086 415.148 397.469 412.013 392.888C408.396 387.342 407.432 379.626 400.68 375.527H382.113C382.113 368.775 373.674 366.846 371.986 363.47C370.78 361.059 371.021 357.201 369.574 353.825C364.028 341.769 352.454 326.577 347.873 315.244C346.908 312.592 349.078 309.94 348.596 307.046C347.149 295.954 347.391 291.855 335.575 289.685L333.405 274.494L322.795 278.352C318.937 276.182 316.285 262.678 313.391 259.785C309.051 255.203 277.463 248.693 276.499 241.941C276.258 240.012 278.669 237.119 276.981 235.19C275.775 233.502 271.917 234.225 270.229 233.02C268.783 232.055 268.3 229.403 267.095 228.679C261.308 225.062 250.698 228.438 245.634 227.715C243.223 227.474 212.6 212.041 208.983 209.871C207.777 209.148 197.167 199.985 196.926 199.261C194.274 193.716 199.82 191.304 198.614 187.205C198.132 185.999 184.629 167.432 182.7 165.262C174.742 155.858 163.892 153.447 155.452 163.816C152.8 167.191 151.353 176.836 145.807 176.836C142.672 176.836 99.0279 144.525 98.5456 139.703L101.198 131.745C81.4255 129.575 96.3755 116.554 96.8577 106.909C97.0989 101.363 92.9997 94.6116 92.5174 89.0656L85.0424 88.1011C83.8368 77.0092 73.9505 70.4987 64.3054 67.364V58.2011C42.1215 52.4141 59.7239 46.3858 59.2416 39.3931C51.2844 33.8471 47.1852 23.9609 41.6393 16.0036C38.2635 11.181 33.4409 7.80523 31.9941 0.8125H0.40625V2469.97H991.204V1544.76H994.098L994.339 1544.52Z" fill="#031C51"/>
</svg>
