<svg width="277" height="264" viewBox="0 0 277 264" fill="none" xmlns="http://www.w3.org/2000/svg">
<path d="M95.0239 249.02C94.5055 248.809 93.1228 249.347 92.3356 248.732C91.4908 248.08 91.8748 246.39 91.3948 245.679C90.454 244.335 85.5004 245.334 83.734 245.027V247.695C82.5244 247.638 81.2766 247.772 80.0478 247.715C69.8333 247.292 58.1019 244.931 48.1755 244.988C34.1787 245.065 18.473 249.481 4.36095 250.345C2.92094 250.422 1.48096 250.345 0.0601595 250.345C-0.0934407 248.598 -0.0166031 249.251 1.0586 249.039C8.02821 247.734 15.593 247.503 22.6394 246.351C21.1802 238.057 19.779 229.724 18.7422 221.353C17.1294 208.393 13.3467 184.489 17.0331 172.643C19.8364 163.657 27.0172 158.972 35.7916 156.86C40.0924 155.823 48.2718 155.881 51.363 154.499C53.9742 153.327 60.2139 146.742 64.4763 144.361C75.4971 138.198 87.6702 137.391 97.8462 132.572C99.6318 131.727 109.001 124.738 106.985 122.78C91.0494 124.297 84.3678 99.548 101.667 96.86C101.667 94.5176 100.054 92.8088 99.7278 90.4856C98.8062 83.9384 100.976 72.1497 108.963 71.6121C108.906 69.5385 106.467 67.3112 108.579 65.5832C110.691 63.8552 111.593 66.5048 112.572 66.2936C113.033 66.1976 116.912 60.5336 118.716 59.1128C129.43 50.5496 141.315 56.3096 153.142 55.0232C157.443 54.5624 168.848 49.0904 162.761 58.9977C169.712 58.9401 178.217 61.2632 181.27 68.06C187.241 81.3272 174.761 72.38 174.051 72.956C178.985 77.5832 182.096 86.3576 178.832 92.6744C177.565 95.1129 172.995 97.7049 172.726 99.1833C171.382 106.287 175.664 106.518 176.566 111.299C177.238 114.908 176.508 119.074 174.358 122.07C173.052 123.874 171.075 124.546 169.923 126.274C167.85 129.404 166.409 135.586 163.971 139.58C162.339 142.268 160.304 144.783 158.153 147.068L158.441 148.047C168.176 153.769 174.147 166.153 174.742 177.27L260.451 168.265L260.777 174.659L245.801 225.116C246.569 225.846 263.984 223.331 266.73 223.139C267.69 223.062 269.36 222.543 269.033 224.118C268.265 225.327 267.229 225.02 266.077 225.155C262.621 225.558 246.666 226.249 245.13 227.439C242.442 232.374 242.211 245.449 236.393 247.273C221.609 249.98 206.653 251.919 191.869 254.55C177.085 257.18 158.979 262.153 144.445 263.593C138.397 264.188 102.473 251.919 95.0431 249.039C109.635 250.979 126.569 260.176 140.7 262.172C142.755 262.46 145.309 262.671 146.633 260.694L145.366 258.121C132.214 253.935 117.622 251.823 104.566 247.791C103.491 247.465 102.685 248.329 103.03 246.39L145.769 256.278L147.516 251.728C141.027 250.729 134.538 249.75 128.144 248.156C127.395 247.964 124.995 248.003 125.609 246.735C126.262 245.372 135.152 242.396 136.227 243.74L135.9 245.065L148.841 243.068C149.168 245.123 148.304 244.124 147.19 244.374C143.005 245.276 137.417 244.585 134.249 247.715L149.494 245.699L152.182 233.775C148.65 234.351 145.193 232.22 141.814 233.699C139.894 234.543 139.587 236.809 138.224 237.404C136.688 238.076 134.806 237.347 133.577 238.076C132.905 238.479 132.656 239.977 131.984 240.457C130.813 241.321 129.334 240.803 128.297 241.417C127.644 241.782 127.241 243.318 126.281 244.048C121.462 247.696 117.968 241.014 114.685 238.595C108.867 242.588 103.933 243.683 96.8478 243.164L93.1039 247.369L95.0811 249.02H95.0239ZM145.481 75.6248V85.2633C145.481 86.0505 143.504 87.2217 142.179 86.6073C140.854 85.9929 130.793 74.6073 128.893 76.2969C127.645 83.8041 124.227 91.2344 119.561 97.2056C118.332 98.78 114.569 101.219 114.896 103.177L122.576 107.478C128.528 96.8793 147.555 96.7449 149.859 110.204C155.369 111.414 154.985 108.169 158.134 105.884C161.936 103.119 166.237 103.388 170.71 103.503C168.541 100.546 159.497 100.124 158.749 95.8808C158.537 94.6904 158.806 94.8825 159.766 94.8633C163.779 94.7673 167.523 96.6488 170.71 98.876C172.361 89.18 164.931 83.4392 158.115 78.2744C158.748 79.8872 154.045 92.3672 152.144 90.236C153.2 84.3992 149.302 79.5032 145.5 75.6248H145.481ZM149.494 112.201C149.187 125.046 130.428 130.959 123.939 119.439C121.788 115.618 122.845 111.087 121.904 109.532C121.309 108.553 116.739 106.038 115.414 105.404C114.224 104.828 112.784 105.058 111.651 104.521C109.981 103.734 108.156 100.22 106.14 99.4137C101.11 97.3593 94.6012 100.393 93.7372 105.923C92.3739 114.543 98.3452 121.455 107.216 120.246L107.984 120.822C109.117 130.998 111.305 139.734 119.58 146.415C138.8 161.929 161.033 149.084 167.389 127.772C167.753 126.524 167.197 126.889 166.429 126.812C164.125 126.524 161.609 127.407 159.44 126.159C160.515 132.169 153.008 134.78 148.438 132.841L148.15 130.806C164.854 132.284 153.219 121.071 154.121 112.201L149.494 112.239V112.201ZM132.041 102.37C119.503 104.482 122.288 126.62 138.224 123.183C145.846 121.532 150.761 110.934 145.193 104.847C142.275 101.66 136.035 101.718 132.041 102.39V102.37ZM170.633 106.287C158.902 102.639 152.451 112.335 158.633 122.607C160.438 125.603 164.393 125.026 167.427 124.47C169.942 123.241 171.19 109.379 170.653 106.287H170.633ZM170.729 122.127C175.472 120.764 175.856 112.239 173.053 108.86L170.729 122.127ZM73.7693 212.483C82.9661 213.174 91.7788 215.766 100.553 218.3L117.507 210.735C118.16 196.758 119.638 182.857 121.596 169.033C113.859 156.668 100.15 148.489 104.989 131.439C95.3694 134.358 95.0428 145.974 95.7148 154.345C95.8684 156.169 97.8271 167.977 99.3631 167.958C102.397 165.27 105.699 161.91 109.059 159.74C109.692 159.337 110.998 158.012 111.632 159.011C108.233 161.852 102.876 168.611 99.0172 170.319C97.078 171.183 96.5788 167.996 96.1756 166.518C94.3516 160.124 93.1227 151.004 93.7179 144.419C93.9675 141.577 95.2925 138.908 95.3501 136.086C79.7213 139.849 61.4045 144.399 51.7085 158.204C42.0125 172.009 32.8922 212.963 34.601 230.089C35.4074 238.191 38.8061 241.225 46.4093 242.857C56.8349 245.104 67.8556 244.355 78.4156 245.699C75.67 236.617 76.9756 226.614 83.2924 219.356L88.3803 216.476C73.5579 214.383 58.5244 210.313 43.894 215.804C43.6636 214.057 45.6028 213.577 46.8508 213.116C54.0509 210.428 64.2844 211.004 71.7917 211.83L75.7854 186.582C77.2254 186.927 76.707 187.503 76.6878 188.425C76.5726 191.881 72.5789 211.311 73.7885 212.483H73.7693ZM108.291 132.764C106.928 131.324 106.371 135.836 106.313 136.431C105.161 148.297 112.035 153.596 118.909 161.679C119.638 162.543 121.923 166.883 122.902 165.98L129.507 154.422C129.315 153.596 123.094 151.177 121.635 150.313C115.164 146.454 110.096 140.175 108.291 132.764ZM141.507 165.654V155.363H131.869C131.024 155.363 123.209 167.651 123.075 169.801L118.928 211.158C129.584 210.428 143.235 220.105 141.507 231.759C146.249 230.838 154.294 235.753 153.2 227.747C152.969 226.038 151.529 221.891 150.896 220.028C150.608 219.164 150.704 218.012 149.475 217.801L148.803 229.763L152.451 227.785C154.525 229.993 148.304 231.913 147.459 231.107C146.844 209.795 153.507 189.231 158.096 168.668C159.363 168.841 158.768 172.028 158.672 172.892C157.251 185.583 151.971 199.35 150.243 212.175L154.429 224.463C159.229 212.156 160.764 196.278 166.198 184.431C168.598 179.19 172.572 179.9 171.958 173.718C171.401 168.015 167.35 160.412 163.74 156.035C162.953 155.075 157.558 149.641 156.944 149.487C155.254 149.046 146.922 155.631 143.542 154.786C143.504 159.759 143.696 164.54 142.14 169.34C141.372 169.475 140.854 169.321 140.163 168.995C138.781 168.361 132.579 163.753 130.755 162.447C127.952 160.451 128.835 159.395 131.715 160.815C134.595 162.236 137.494 164.54 140.144 166.345L141.469 165.673L141.507 165.654ZM50.5179 156.687C33.0075 158.185 18.8382 161.276 17.283 181.571C16.2462 195.049 20.2203 223.369 22.7163 237.289C23.0235 238.979 23.8106 245.18 25.0202 245.622L41.8587 243.702L37.5194 241.071C31.7018 235.849 32.6619 224.003 33.2379 216.803C34.8507 196.969 40.3226 173.756 50.4987 156.687H50.5179ZM259.05 169.974C255.19 169.935 251.273 170.281 247.433 170.646C229.021 172.374 209.437 174.908 191.062 177.366C186.512 177.98 174.032 179.036 171.056 181.263C167.043 184.259 163.357 199.753 161.763 205.187C157.232 220.547 152.586 237.5 149.264 253.129C148.477 256.873 146.249 260.771 151.721 260.271C160.496 259.465 171.536 256.124 180.579 254.55C199.414 251.267 218.518 249.039 237.123 244.681L259.069 169.974H259.05ZM139.51 228.419C134.192 209.987 116.893 210.774 102.55 219.011C93.5453 224.175 91.7211 229.993 93.7372 240.342C98.7676 240.611 104.009 242.223 108.771 239.843C110.288 239.094 112.438 236.463 113.955 236.425C117.468 236.31 121.155 245.487 125.302 242.415C127.338 240.899 124.035 236.828 122.902 235.407C119.677 231.299 117.411 230.223 112.956 228.054C111.996 227.593 111.286 228.188 111.632 226.422C115.376 226.076 119.388 228.841 122.019 231.299C123.651 232.835 128.221 240.668 130.909 238.748C134.019 236.502 125.84 227.996 123.9 226.441L117.603 221.775C123.018 222.14 127.088 226.652 130.563 230.396C132.022 231.971 134.998 238.345 138.032 234.889C141.507 230.934 129.641 220.355 126.166 218.857C123.843 217.859 121.424 217.455 118.928 217.11C119.869 214.691 123.958 216.419 125.916 217.11C132.464 219.337 135.075 223.638 139.491 228.438L139.51 228.419ZM80.7387 243.03C84.6555 243.702 90.2237 242.531 94.3517 243.03C94.0829 241.782 92.1819 241.763 91.7979 240.611C90.4923 236.617 91.2605 229.878 92.9117 225.98C94.0829 223.196 95.8875 221.699 97.0203 219.126C81.8139 214.479 77.1871 230.396 79.2223 242.243C79.2799 242.339 80.5851 243.011 80.7579 243.049L80.7387 243.03ZM148.803 246.371C145.29 247.158 141.526 247.023 138.032 247.888C137.36 248.06 136.035 248.079 136.189 249.02C139.779 249.116 143.715 248.559 147.19 247.715C148.323 247.446 149.13 248.367 148.803 246.371Z" fill="black"/>
<path d="M77.4183 45.7345C79.3575 45.6577 82.0073 43.3729 82.9097 47.5393C84.0809 52.9345 82.9096 62.1697 83.7544 68.0257L83.4281 69.6962C82.1801 71.4626 60.6375 71.3473 56.7975 72.3649L55.7606 71.9426L55.1658 67.6801L19.972 68.3522L18.6281 49.4401C18.5129 36.3456 18.5702 23.2705 19.3382 10.2529C19.4534 8.23686 18.5319 0.441601 20.3559 0L68.452 0.576095L67.7798 45.7537C70.967 45.6577 74.2119 45.8881 77.4183 45.7537V45.7345ZM67.1273 1.9009H21.6421C19.7221 4.4929 20.8549 8.928 20.6821 12.2304C20.5861 13.8048 20.0104 15.264 19.972 16.8192C19.396 33.1969 20.1832 49.6321 21.412 65.9329L22.3335 66.8545C22.6023 66.8737 22.8329 66.3362 23.0057 66.3362H55.2234L54.052 48.1537C54.148 47.6929 55.3769 46.4066 55.5497 46.4066H66.5128L67.185 1.9009H67.1273ZM81.0666 47.0593L55.8375 48.4033L57.1622 70.3105C65.4566 69.1777 73.9627 70.4834 82.1035 68.3522L81.0666 47.0785V47.0593Z" fill="black"/>
<path d="M261.719 70.9804L212.184 71.6523L215.217 11.1723L262.737 7.81226C264.311 28.8939 263.755 49.9371 261.7 70.9612L261.719 70.9804ZM213.892 70.9804L260.088 69.0219C260.28 62.9931 261.47 56.7147 261.739 50.7435C262.199 40.1451 262.929 21.5596 261.739 11.4987C261.662 10.7883 261.758 9.96267 261.086 9.50187L217.156 13.4571L213.892 70.9804Z" fill="black"/>
<path d="M264.695 112.166C265.617 112.108 269.457 109.919 269.015 112.819C262.315 113.51 253.214 114.988 247.435 110.822C245.841 109.67 243.268 105.542 242.155 105.503L229.175 112.819C228.215 111.859 233.246 108.537 233.995 108.019C236.299 106.444 239.025 104.697 241.79 104.179C242.443 103.295 238.891 100.185 238.027 99.6474C228.619 93.6762 220.977 102.143 211.242 100.857C212.836 98.8986 216.753 99.3402 219.345 98.6682C226.046 96.9402 229.252 93.9259 236.51 97.1707C239.313 98.4187 242.942 102.988 244.248 103.372C246.11 103.929 251.755 103.603 254.097 103.526C256.747 103.449 260.087 101.587 262.372 103.833C262.449 104.025 260.817 104.831 260.721 104.831H245.111C245.111 108.172 251.313 112.147 254.078 112.147C257.572 112.147 261.239 112.339 264.695 112.147V112.166Z" fill="black"/>
<path d="M101.665 13.8384C100.82 17.2752 104.967 34.7664 103.028 36.1488L80.0265 35.8608C77.4921 33.576 78.2027 16.6992 77.7419 12.5328L101.646 13.8576L101.665 13.8384ZM81.4089 34.44H102.337L100.263 15.9313C99.6106 14.8753 81.9658 14.8944 79.105 14.5104C80.0074 17.5824 79.1049 33.6912 81.4281 34.44H81.4089Z" fill="black"/>
<path d="M276.31 91.58C276.464 92.732 274.794 92.2136 274.006 92.2328C267.709 92.4824 260.451 91.9639 254.077 91.5607C248.413 91.1959 242.422 90.9079 236.796 90.2359C235.798 90.1207 234.78 89.6983 235.817 88.9111L276.33 91.58H276.31Z" fill="black"/>
<path d="M262.369 122.802C264.615 124.53 257.415 124.165 256.724 124.127C250.542 123.781 243.015 122.879 236.775 122.149C235.777 122.034 234.74 121.631 235.796 120.825L262.349 122.821L262.369 122.802Z" fill="black"/>
<path d="M222.187 118.154C224.049 118.288 226.775 119.44 229.156 118.826C230.231 119.651 229.156 120.035 228.177 120.151C224.74 120.592 218.481 119.939 214.852 119.517C213.854 119.402 212.798 119.383 212.548 118.173C215.735 118.327 218.999 117.943 222.187 118.173V118.154Z" fill="black"/>
<path d="M229.174 87.5868H217.885V88.9116H229.174V87.5868Z" fill="black"/>
<path d="M259.05 169.976L237.104 244.683C218.5 249.042 199.395 251.269 180.56 254.552C171.517 256.126 160.496 259.467 151.703 260.274C146.25 260.773 148.458 256.894 149.245 253.131C152.547 237.483 157.213 220.549 161.744 205.189C163.338 199.755 167.024 184.261 171.037 181.266C174.013 179.038 186.512 177.982 191.044 177.368C209.418 174.91 229.002 172.376 247.415 170.648C251.255 170.283 255.171 169.938 259.031 169.976H259.05ZM154.121 251.672L170.73 189.234L167.235 198.68C162.262 215.518 157.328 232.414 152.758 249.368L154.121 251.672ZM206.404 205.995C198.57 207.627 196.4 222.68 203.658 223.755C215.005 225.426 221.706 202.827 206.404 205.995Z" fill="#4A5775"/>
<path d="M73.7685 212.481C72.5589 211.31 76.5525 191.88 76.6677 188.424C76.6869 187.521 77.2054 186.945 75.7654 186.58L71.7716 211.828C64.2644 211.003 54.0308 210.446 46.8308 213.115C45.5828 213.576 43.6436 214.056 43.874 215.803C58.5044 210.312 73.5378 214.382 88.3603 216.475L83.2724 219.355C76.9556 226.612 75.65 236.616 78.3956 245.697C67.8355 244.353 56.8149 245.083 46.3893 242.856C38.7861 241.224 35.3878 238.19 34.5814 230.088C32.8726 212.942 41.7045 172.411 51.6885 158.203C61.6725 143.995 79.7013 139.867 95.3301 136.084C95.2725 138.887 93.9475 141.575 93.6979 144.417C93.1027 151.003 94.3316 160.123 96.1556 166.516C96.578 167.995 97.058 171.182 98.9972 170.318C102.856 168.609 108.213 161.851 111.612 159.009C110.959 158.03 109.653 159.335 109.039 159.739C105.66 161.908 102.357 165.288 99.3431 167.956C97.8263 167.956 95.8484 156.167 95.6948 154.343C95.042 145.972 95.3494 134.337 104.969 131.438C100.13 148.487 113.839 156.667 121.576 169.032C119.618 182.875 118.159 196.776 117.487 210.734L100.533 218.299C91.7396 215.764 82.9461 213.172 73.7493 212.481H73.7685ZM78.4148 177.268C78.146 169.588 76.2644 159.777 68.7955 156.014C67.9699 156.859 67.4325 156.686 68.4885 157.646C69.7557 158.798 71.215 159.451 72.4246 161.006C76.015 165.652 75.3619 170.74 76.8787 175.848C77.2243 177 76.6484 177.576 78.3956 177.288L78.4148 177.268Z" fill="#C8DEF5"/>
<path d="M141.506 165.653L140.181 166.325C137.532 164.501 134.594 162.216 131.752 160.795C128.91 159.375 128.008 160.431 130.792 162.428C132.616 163.714 138.817 168.341 140.2 168.975C140.891 169.282 141.41 169.455 142.178 169.32C143.733 164.539 143.541 159.74 143.579 154.767C146.958 155.631 155.311 149.045 156.981 149.468C157.596 149.621 162.99 155.055 163.778 156.015C167.387 160.392 171.438 167.996 171.995 173.698C172.61 179.88 168.635 179.151 166.235 184.412C160.821 196.258 159.266 212.136 154.466 224.444L150.28 212.156C152.008 199.33 157.288 185.564 158.709 172.872C158.805 171.989 159.4 168.821 158.133 168.648C153.563 189.212 146.901 209.794 147.496 231.087C148.341 231.893 154.562 229.973 152.488 227.765L148.84 229.743L149.512 217.781C150.722 217.992 150.626 219.144 150.933 220.008C151.566 221.871 152.987 226.018 153.237 227.727C154.331 235.733 146.287 230.818 141.544 231.74C143.272 220.085 129.621 210.408 118.965 211.138L123.112 169.781C123.266 167.631 131.061 155.343 131.906 155.343H141.544V165.634L141.506 165.653Z" fill="#C8DEF5"/>
<path d="M149.493 112.202L154.12 112.163C153.218 121.034 164.853 132.247 148.149 130.768L148.437 132.803C153.006 134.743 160.514 132.131 159.438 126.122C161.589 127.37 164.123 126.506 166.427 126.774C167.195 126.87 167.752 126.506 167.387 127.734C161.051 149.027 138.798 161.872 119.579 146.378C111.304 139.696 109.115 130.96 107.983 120.784L107.214 120.208C98.3248 121.418 92.3727 114.506 93.7359 105.885C94.5999 100.355 101.109 97.3216 106.139 99.376C108.155 100.202 109.979 103.696 111.65 104.483C112.783 105.021 114.242 104.79 115.413 105.366C116.738 106.019 121.307 108.515 121.903 109.494C122.844 111.05 121.787 115.581 123.938 119.402C130.427 130.922 149.186 125.008 149.493 112.163V112.202ZM108.29 114.832C108.77 110.07 103.912 104.061 98.9967 104.214L104.296 108.534L108.27 114.851L108.29 114.832ZM145.48 140.733C143.522 137.527 138.875 136.912 135.477 137.699C133.941 138.064 130.274 139.619 131.887 141.405C134.248 141.232 136.149 139.408 138.549 139.35C141.314 139.293 142.696 141.943 145.48 140.714V140.733Z" fill="white"/>
<path d="M50.5164 156.688C40.3403 173.757 34.8684 196.97 33.2556 216.803C32.6796 224.003 31.7195 235.85 37.5371 241.072L41.8763 243.703L25.0379 245.623C23.8283 245.2 23.0412 238.979 22.734 237.29C20.2188 223.37 16.2639 195.05 17.3007 181.571C18.8559 161.277 33.0252 158.186 50.5356 156.688H50.5164Z" fill="white"/>
<path d="M145.481 75.6261C149.282 79.5045 153.18 84.4005 152.124 90.2373C154.025 92.3877 158.729 79.8885 158.095 78.2757C164.911 83.4213 172.342 89.1621 170.69 98.8773C167.503 96.6501 163.759 94.7686 159.747 94.8646C158.786 94.8838 158.518 94.7109 158.729 95.8821C159.478 100.125 168.521 100.548 170.69 103.505C166.217 103.389 161.935 103.121 158.114 105.885C154.966 108.17 155.349 111.415 149.839 110.205C147.516 96.7461 128.508 96.8806 122.556 107.479L114.876 103.178C114.549 101.22 118.313 98.7621 119.542 97.2069C124.207 91.2357 127.606 83.8054 128.873 76.2982C130.774 74.6278 140.815 86.0134 142.159 86.6086C143.503 87.2038 145.462 86.0518 145.462 85.2645V75.6261H145.481ZM129.545 98.2246C131.83 98.455 146.153 97.7637 145.481 94.5765C143.849 91.6389 126.223 94.9222 129.545 98.2246Z" fill="white"/>
<path d="M139.511 228.419C135.095 223.638 132.465 219.337 125.937 217.091C123.959 216.419 119.87 214.691 118.948 217.091C121.425 217.437 123.844 217.84 126.187 218.838C129.662 220.317 141.527 230.915 138.052 234.87C135.018 238.346 132.043 231.952 130.583 230.378C127.108 226.634 123.038 222.121 117.623 221.757L123.921 226.422C125.86 227.977 134.039 236.502 130.929 238.73C128.241 240.669 123.671 232.816 122.039 231.28C119.409 228.822 115.396 226.058 111.652 226.403C111.326 228.17 112.017 227.555 112.977 228.035C117.431 230.205 119.697 231.299 122.922 235.389C124.036 236.81 127.357 240.88 125.322 242.397C121.175 245.45 117.489 236.272 113.975 236.406C112.458 236.464 110.308 239.075 108.791 239.824C104.03 242.205 98.7687 240.592 93.7575 240.323C91.7415 229.974 93.5657 224.157 102.57 218.992C116.932 210.755 134.212 209.968 139.531 228.4L139.511 228.419Z" fill="white"/>
<path d="M132.042 102.373C136.036 101.701 142.276 101.643 145.194 104.83C150.762 110.917 145.847 121.534 138.225 123.166C122.27 126.603 119.504 104.465 132.042 102.353V102.373ZM135.997 112.261C133.732 112.913 132.503 117.925 134.461 119.537L136.477 120.171C141.527 119.019 140.797 110.897 135.978 112.261H135.997Z" fill="white"/>
<path d="M80.739 243.031C80.5662 242.993 79.2609 242.321 79.2033 242.225C77.1681 230.398 81.7949 214.462 97.0013 219.108C95.8877 221.681 94.0831 223.179 92.8927 225.963C91.2415 229.86 90.4734 236.619 91.779 240.593C92.163 241.764 94.0639 241.764 94.3327 243.012C90.2047 242.513 84.6365 243.684 80.7197 243.012L80.739 243.031Z" fill="#C8DEF5"/>
<path d="M108.29 132.767C110.095 140.179 115.164 146.457 121.634 150.316C123.093 151.18 129.314 153.58 129.506 154.425L122.902 165.983C121.922 166.886 119.637 162.547 118.908 161.683C112.034 153.58 105.16 148.281 106.312 136.435C106.37 135.839 106.927 131.327 108.29 132.767Z" fill="white"/>
<path d="M170.632 106.289C171.169 109.38 169.922 123.242 167.406 124.471C164.373 125.047 160.417 125.604 158.613 122.609C152.449 112.337 158.901 102.641 170.613 106.289H170.632ZM163.989 122.052C169.614 112.951 156.77 109.476 159.726 120.209C160.245 122.052 162.299 122.321 163.989 122.052Z" fill="white"/>
<path d="M170.73 122.131L173.053 108.864C175.856 112.243 175.491 120.787 170.73 122.131Z" fill="white"/>
<path d="M148.804 246.374C149.13 248.371 148.324 247.45 147.191 247.718C143.716 248.563 139.78 249.12 136.189 249.024C136.036 248.083 137.36 248.064 138.032 247.891C141.527 247.027 145.29 247.162 148.804 246.374Z" fill="white"/>
<path d="M67.1252 1.90112L66.453 46.4068H55.4899C55.3171 46.4068 54.0882 47.6739 53.9922 48.1539L55.1636 66.3364H22.9459C22.7731 66.3364 22.5425 66.8739 22.2737 66.8547L21.3522 65.9332C20.1234 49.6323 19.3362 33.1971 19.9122 16.8195C19.9698 15.2451 20.546 13.805 20.6228 12.2306C20.8148 8.92822 19.682 4.49313 21.5828 1.90112H67.0675H67.1252ZM59.1569 11.8658H29.9345L30.5491 18.2211L41.8769 18.5091L42.6644 33.3316C49.9796 42.3172 58.8114 42.4899 56.373 28.2435L55.8546 27.4371C51.6498 27.2835 47.9828 30.2594 43.1828 29.1458V18.5283H56.1236C57.986 17.2035 56.2576 13.2674 59.0993 13.2098V11.885L59.1569 11.8658ZM42.5491 36.442C40.8019 36.9988 32.0659 35.5971 31.5667 36.4035C28.7827 40.9347 35.1762 41.7603 35.2914 42.1635C35.9058 44.3907 33.2369 50.7267 35.2145 52.0899C39.2657 52.2243 43.2785 53.4916 47.2146 52.3779C47.2337 51.3795 44.8531 51.3987 44.0275 51.2643C41.3779 50.8035 38.6132 50.458 35.9252 50.3812L36.8852 41.7027C40.226 40.4739 43.3555 41.3188 42.5875 36.442H42.5491Z" fill="white"/>
<path d="M81.0639 47.0543L82.1007 68.3279C73.9599 70.4591 65.4539 69.1536 57.1595 70.2864L55.8348 48.3791L81.0639 47.035V47.0543ZM72.4239 59.6879C69.3327 59.5919 66.4331 59.5726 63.4187 60.3406C62.3051 60.6286 61.4798 59.6687 61.8062 61.6847C64.9742 61.6271 68.2958 61.4159 71.4446 61.0127C72.347 60.8975 73.5567 60.5519 72.4239 59.6879Z" fill="white"/>
<path d="M213.891 70.9796L217.155 13.4563L261.085 9.5011C261.757 9.9811 261.661 10.7876 261.737 11.498C262.928 21.5588 262.179 40.1443 261.737 50.7427C261.488 56.7139 260.298 62.9924 260.086 69.0212L213.891 70.9796ZM225.18 43.4084C225.699 36.65 224.796 29.2963 225.18 22.4803L231.69 25.9363L232.515 31.754L249.085 31.1203C250.16 30.2947 249.085 29.9107 248.106 29.7955C243.114 29.1619 238.141 30.8707 233.149 30.4675V25.8211L253.078 24.4963L252.445 16.8163C250.218 15.2803 228.752 19.6195 224.47 19.4659L223.184 50.3971C224.432 50.1283 224.394 49.0916 224.528 48.0932C224.701 46.73 225.084 44.5411 225.18 43.4275V43.4084ZM254.403 37.7636L240.137 38.4163L238.486 40.4132C243.402 39.7796 248.547 39.9716 253.424 39.0692C254.518 38.858 254.576 39.5108 254.423 37.7636H254.403ZM249.757 49.0723C248.777 48.7267 248.125 48.6883 247.107 48.7075C242.941 48.8227 235.721 49.706 231.574 50.4548C230.864 50.5892 229.097 50.6851 229.193 51.7027C235.145 51.4915 242.153 51.434 247.952 50.2052C248.585 50.0708 249.949 49.9748 249.776 49.0532L249.757 49.0723ZM249.085 55.0436C248.182 54.3524 230.806 56.1955 228.502 57.3667C229.386 58.7876 230.038 57.962 230.998 57.9236C236.259 57.7892 242.826 57.0212 248.106 56.3684C249.008 56.2532 250.218 55.9076 249.085 55.0436Z" fill="white"/>
<path d="M81.4101 34.4375C79.0677 33.6694 79.9894 17.5798 79.087 14.5078C81.9478 14.8918 99.5926 14.8727 100.245 15.9287L102.319 34.4375H81.3909H81.4101ZM95.0039 21.1511C91.7207 20.6711 90.0884 23.1671 87.9956 25.1063L84.7125 21.8039C83.5796 22.5143 86.4213 27.1415 86.7285 27.1415C89.2822 25.7783 91.0291 24.1847 93.6595 22.7639C94.5235 22.2839 95.3687 22.9751 95.0039 21.1511Z" fill="white"/>
<path d="M154.122 251.672L152.759 249.368C157.328 232.415 162.263 215.538 167.236 198.68L170.73 189.234L154.122 251.672Z" fill="black"/>
<path d="M206.402 205.993C221.685 202.805 215.003 225.404 203.656 223.753C196.399 222.697 198.568 207.625 206.402 205.993ZM208.341 207.375C200.892 207.817 199.336 220.393 203.042 221.66C211.356 224.501 218.825 206.741 208.341 207.375Z" fill="black"/>
<path d="M78.4162 177.27C76.669 177.558 77.245 176.982 76.8994 175.83C75.3826 170.722 76.0357 165.654 72.4453 160.988C71.2357 159.414 69.7764 158.78 68.5092 157.628C67.4724 156.687 67.9906 156.86 68.8162 155.996C76.285 159.778 78.1666 169.57 78.4354 177.25L78.4162 177.27Z" fill="black"/>
<path d="M145.48 140.732C142.696 141.961 141.314 139.312 138.549 139.369C136.129 139.427 134.248 141.251 131.886 141.424C130.293 139.638 133.96 138.064 135.477 137.718C138.875 136.931 143.54 137.545 145.48 140.752V140.732Z" fill="black"/>
<path d="M108.291 114.834L104.316 108.517L99.0168 104.197C103.932 104.043 108.79 110.072 108.31 114.815L108.291 114.834Z" fill="black"/>
<path d="M129.546 98.224C126.225 94.9408 143.85 91.6383 145.482 94.5759C146.154 97.7439 131.85 98.4352 129.546 98.224Z" fill="black"/>
<path d="M135.996 112.262C140.815 110.898 141.526 119.02 136.495 120.172L134.479 119.538C132.502 117.926 133.731 112.895 136.015 112.262H135.996Z" fill="black"/>
<path d="M163.989 122.052C162.281 122.302 160.226 122.052 159.727 120.209C156.77 109.476 169.634 112.951 163.989 122.052Z" fill="black"/>
<path d="M59.1571 11.8598V13.1846C56.3155 13.2614 58.0438 17.1782 56.1622 18.5031H43.2214V29.1207C48.0023 30.2535 51.6692 27.2583 55.8932 27.4119L56.4116 28.2183C58.85 42.4455 50.0182 42.2727 42.703 33.3063L41.9155 18.4838L30.5877 18.1959L29.9731 11.8407H59.1955L59.1571 11.8598ZM55.8355 13.1846H31.2594C31.2786 14.471 30.8179 16.5639 32.3539 17.0823L55.5477 16.5446L55.8355 13.1846ZM55.1638 29.1207C53.1094 28.8519 51.381 30.0231 49.4802 30.4071C47.9634 30.6951 43.7396 29.6582 43.97 32.0198C48.674 39.4694 57.0646 40.967 55.183 29.1398L55.1638 29.1207Z" fill="black"/>
<path d="M42.5491 36.4401C43.3363 41.3169 40.1876 40.4913 36.8467 41.7009L35.8867 50.3793C38.5747 50.4561 41.3395 50.7825 43.9891 51.2625C44.8147 51.4161 47.1953 51.3969 47.1761 52.3761C43.2401 53.5089 39.2273 52.2417 35.1761 52.0881C33.2177 50.7057 35.8866 44.3889 35.253 42.1617C35.1378 41.7777 28.7443 40.9329 31.5283 36.4017C32.0275 35.5953 40.7635 36.9969 42.5107 36.4401H42.5491Z" fill="black"/>
<path d="M72.4264 59.6887C73.54 60.5335 72.3496 60.8983 71.4472 61.0135C68.2984 61.4167 64.9959 61.6279 61.8087 61.6855C61.4823 59.6695 62.3076 60.6295 63.4212 60.3415C66.4356 59.5735 69.3352 59.5927 72.4264 59.6887Z" fill="black"/>
<path d="M225.179 43.4116C225.083 44.5444 224.718 46.714 224.526 48.0772C224.392 49.0756 224.43 50.1124 223.182 50.3812L224.469 19.4499C228.769 19.6035 250.216 15.2451 252.443 16.8003L253.076 24.4803L233.147 25.8051V30.4516C238.139 30.8548 243.112 29.1459 248.104 29.7795C249.083 29.8947 250.158 30.2787 249.083 31.1043L232.513 31.7379L231.688 25.9203L225.179 22.4643C224.795 29.2803 225.697 36.634 225.179 43.3924V43.4116ZM251.675 22.4259C251.886 21.197 252.136 18.3171 250.676 17.8947L227.195 21.5043C228.462 22.6563 229.691 23.6163 231.476 23.8659C233.78 24.1731 250.83 23.4435 251.675 22.4451V22.4259Z" fill="black"/>
<path d="M249.085 55.0462C250.199 55.891 249.008 56.2558 248.106 56.371C242.826 57.043 236.259 57.7918 230.998 57.9262C230.038 57.9454 229.386 58.7709 228.503 57.3693C230.807 56.2173 248.183 54.3742 249.085 55.0462Z" fill="black"/>
<path d="M249.758 49.0722C249.931 49.9746 248.568 50.0706 247.934 50.2242C242.155 51.453 235.128 51.5298 229.176 51.7218C229.08 50.7042 230.846 50.589 231.556 50.4738C235.704 49.725 242.942 48.8418 247.089 48.7266C248.107 48.6882 248.759 48.7266 249.739 49.0914L249.758 49.0722Z" fill="black"/>
<path d="M254.404 37.7646C254.557 39.4927 254.5 38.859 253.405 39.0702C248.528 39.9726 243.383 39.7807 238.468 40.4143L240.119 38.4174L254.384 37.7646H254.404Z" fill="black"/>
<path d="M95.0057 21.1573C95.3705 22.9813 94.5445 22.2901 93.6613 22.7701C91.0117 24.1909 89.284 25.7845 86.7304 27.1477C86.4232 27.1477 83.5815 22.5397 84.7143 21.8101L87.9974 25.1125C90.1094 23.1541 91.7225 20.6581 95.0057 21.1573Z" fill="black"/>
<path d="M208.343 207.376C218.826 206.742 211.357 224.502 203.044 221.661C199.319 220.393 200.874 207.817 208.343 207.376Z" fill="white"/>
<path d="M55.8347 13.1881L55.5469 16.5481L32.3531 17.0858C30.8171 16.5866 31.297 14.4745 31.2586 13.1881H55.8347Z" fill="white"/>
<path d="M55.1654 29.1248C57.047 40.9712 48.6564 39.4544 43.9524 32.0048C43.722 29.6432 47.9463 30.6799 49.4631 30.3919C51.3831 30.0271 53.0918 28.8368 55.1462 29.1056L55.1654 29.1248Z" fill="white"/>
<path d="M251.677 22.4221C250.832 23.4205 233.782 24.1694 231.478 23.843C229.693 23.5934 228.464 22.6333 227.197 21.4813L250.678 17.8717C252.138 18.2941 251.888 21.1742 251.677 22.403V22.4221Z" fill="white"/>
</svg>
