<svg width="257" height="262" viewBox="0 0 257 262" fill="none" xmlns="http://www.w3.org/2000/svg">
<path d="M115.075 238.836C114.959 238.952 115.42 240.199 114.729 240.66C114.172 241.025 111.945 241.409 111.081 241.601C101.52 243.694 73.065 246.651 64.6746 243.655C62.4474 242.868 59.9709 240.449 57.8013 240.603L0.949829 261.185C3.81063 257.249 11.0681 257.153 14.7161 254.657C15.3305 254.235 15.5608 254.119 15.6184 253.294C15.772 251.009 12.8921 241.064 12.3161 237.761C9.58969 222.382 3.98347 198.017 3.86827 183.195C3.65707 154.529 30.1724 159.425 50.0636 157.62C55.8429 157.102 56.2458 154.375 60.4123 151.495C65.7883 147.79 72.9883 145.524 79.1899 143.508C73.7179 139.207 68.1498 139.726 65.6346 132.065C62.409 122.273 68.6875 115.86 71.9899 107.163C79.0171 88.6729 80.6298 69.2425 104.476 64.3273C128.591 59.3545 151.843 70.1641 150.403 97.3321C150.288 99.5017 148.963 103.207 149.193 104.935C149.328 105.914 150.845 107.239 151.44 108.622C153.187 112.711 153.437 116.878 150.883 120.756C150.077 121.985 147.504 123.694 147.446 123.924C147.139 125.057 147.331 130.51 147.465 132.027C147.888 136.999 151.229 141.089 146.563 144.679C141.897 148.27 137.904 146.369 133.181 147.175C130.051 147.713 126.537 150.67 122.755 149.979L128.015 152.667C140.361 161.268 141.225 188.11 142.761 201.761L200.419 199.399C200.668 196.769 200.15 185.038 198.076 183.79L162.518 181.121C158.467 180.449 158.563 175.879 158.659 172.635C158.831 167.182 160.041 161.076 160.406 155.566C161.443 139.937 161.693 123.444 163.363 107.911C163.766 104.091 164.227 100.846 168.028 99.0409C190.493 99.5017 214.224 97.5241 236.611 98.7529C238.973 98.8873 246.691 99.4633 248.073 100.827C249.033 101.767 248.726 107.873 248.649 109.658C247.517 130.836 244.272 156.814 240.931 177.838C240.259 182.1 240.624 187.342 235.402 188.187L215.145 185.863L216.682 198.843L256.31 198.516C255.638 199.495 254.697 199.361 253.699 199.438C242.064 200.244 229.257 199.188 217.488 199.995C219.101 202.241 231.273 206.081 228.144 209.748C226.819 211.303 208.963 214.049 206.045 214.126C200.669 214.28 185.501 211.15 180.163 209.364C179.165 209.038 178.166 208.865 177.494 207.924L182.217 205.006L195.715 200.571L142.761 203.508L143.702 207.694C150.845 209.038 160.099 214.759 167.184 214.74C173.731 214.721 182.179 214.433 188.15 217.831C191.107 219.521 193.104 222.439 196.31 223.803C199.804 225.281 217.123 227.854 217.987 230.388C218.505 231.905 217.737 234.247 216.816 235.495C213.878 239.431 197.097 244.654 191.798 246.958C185.059 249.876 171.523 257.403 165.168 258.555C163.536 258.843 162.019 259.073 160.406 258.555L125.885 248.359C123.984 246.919 121.967 243.137 123.619 241.121C124.636 239.892 126.307 239.969 126.902 238.798H115.132L115.075 238.836ZM146.851 100.558H137.731C137.539 100.558 136.137 98.8297 135.676 98.5033C138.691 95.2393 142.761 98.5993 146.255 98.7913C143.587 88.9801 136.329 79.6872 127.171 75.2136C123.024 80.8968 118.224 86.4072 113.021 91.1496C108.144 95.6232 100.349 99.1369 100.022 106.433L105.955 109.236C109.257 101.94 119.299 99.5785 125.04 105.55C127.728 108.353 126.749 112.366 131.741 111.175C133.833 103.918 139.766 101.191 146.793 104.071V100.538L146.851 100.558ZM247.363 101.825C247.094 101.422 242.256 100.615 241.276 100.558C218.332 98.8297 193.238 101.902 170.064 100.558C167.817 100.654 166.013 102.209 165.725 104.455L161.021 169.947L234.153 177.089L243.888 101.748L235.075 184.711C232.214 185.115 235.094 178.817 234.499 178.241L160.368 171.771C159.408 179.681 162.537 179.278 168.912 180.007C190.78 182.523 213.091 182.273 234.806 186.382C238.934 186.305 238.589 182.695 239.107 179.623C242.832 157.659 246.269 129.53 247.44 107.335C247.536 105.511 247.498 103.649 247.363 101.825ZM123.695 106.644C119.183 102.113 110.371 103.553 107.894 109.563C101.5 125.076 125.961 128.071 126.307 113.806C126.364 111.598 125.27 108.218 123.715 106.644H123.695ZM145.085 122.926C144.528 118.567 149.942 106.913 144.412 105.07C138.115 102.977 133.564 107.777 133.315 113.825C133.007 121.62 138.211 123.406 145.085 122.926ZM147.427 121.159C152.63 119.086 151.152 111.713 149.174 107.623L147.427 121.159ZM128.015 112.923C128.284 129.703 102.364 128.417 105.398 111.156L99.1962 108.218C97.0074 120.679 96.8154 133.428 96.7578 146.081L96.297 146.791C94.7418 147.905 87.2733 145.102 85.0845 144.699C88.5405 155.873 113.136 166.587 113.923 148.615C110.793 146.599 106.435 145.044 105.072 141.166C108.124 142.318 109.776 144.583 112.905 145.966C129.264 153.262 143.126 140.897 144.489 124.673L135.657 123.502C136.771 129.358 129.264 134.234 126.249 128.225C139.113 131.182 131.683 120.18 131.28 113.46L127.996 112.903L128.015 112.923ZM115.67 149.403C112.867 168.91 87.1581 156.814 82.7229 144.372C81.6285 143.681 71.1644 147.694 69.206 148.539C49.142 157.275 45.2251 174.555 41.7114 194.58C40.6746 200.494 35.0298 244.059 36.8346 245.902L57.4169 239.432L51.6185 230.235C48.2393 219.771 46.8953 208.078 46.8377 197.076C47.7209 197.038 47.8362 199.131 47.9322 199.783C50.0058 213.915 49.2379 237.473 66.2491 242.657C72.7387 244.635 87.4846 243.06 94.7614 242.369C100.944 241.774 107.088 240.411 113.289 240.027C113.616 238.222 112.08 239.22 110.985 237.915C107.491 233.671 109.43 224.647 111.523 220.02L82.9915 219.444L80.0538 218.273L77.4237 183.54C78.2877 183.444 78.4794 185.076 78.537 185.652C79.689 195.771 80.073 206.043 80.937 216.219L81.5131 217.409C89.6731 219.195 98.2556 217.831 106.569 218.235C108.585 218.331 112.348 218.58 114.172 218.868C114.864 218.983 115.574 219.233 115.67 220.02L113.328 220.615L122.121 220.02C123.773 204.603 124.733 189.07 124.502 173.556C125.232 172.596 125.558 173.556 125.673 174.42C126.307 179.451 125.884 188.513 125.692 193.87C125.481 199.822 124.982 206.12 124.483 212.091C124.272 214.606 123.734 217.524 123.312 220.039C132.816 219.79 142.512 218.215 151.747 221.172C153.974 218.369 155.913 215.758 159.772 215.335C159.715 214.529 158.908 214.395 158.332 214.145C155.817 212.993 143.088 209.672 142.262 208.731C138.269 189.166 142.339 152.801 115.651 149.441L115.67 149.403ZM52.713 158.235C36.297 160.884 8.16902 155.489 5.73062 178.606C4.46341 190.625 9.97369 216.679 12.3161 229.543C13.4489 235.726 14.486 242.177 15.9452 248.263C16.1564 249.166 16.9242 253.447 17.7114 253.505C20.265 251.911 34.8955 248.091 35.5675 246.094C35.5099 233.748 36.5085 221.422 38.1021 209.191C39.6957 196.961 41.9033 181.62 46.3961 170.407C48.1049 166.126 50.8122 162.363 52.713 158.196V158.235ZM201.552 204.718H214.492L213.322 185.307L200.381 184.423C202.032 191.086 201.513 197.902 201.571 204.718H201.552ZM200.381 201.185L179.798 207.079C179.798 207.694 180.355 207.886 180.835 208.097C184.156 209.537 195.177 211.707 199.075 212.206C208.483 213.396 218.332 211.169 227.433 208.827C228.182 207.867 218.179 202.107 217.123 201.78C215.472 201.281 216.739 204.257 215.99 205.332C211.363 206.407 206.218 206.676 201.322 206.388L200.438 205.505L200.361 201.185H200.381ZM171.561 219.425C175.862 220.193 180.489 224.148 183.312 227.374C185.078 229.409 188.208 235.918 190.685 235.937C194.64 235.976 192.029 230.58 191.088 228.43C185.731 216.334 173.904 214.529 161.923 216.526C159.677 216.91 151.67 219.675 154.512 222.651C155.414 223.592 160.118 226.203 161.846 227.662C163.785 229.294 167.664 234.689 169.968 234.036C170.87 233.787 174.671 228.891 174.518 233.518H172.156C172.656 234.843 173.942 235.15 175.229 235.15C175.766 235.15 177.878 234.881 177.456 233.825C177.148 233.076 171.388 228.795 170.428 228.487C167.952 227.719 167.28 228.948 165.11 229.409C165.609 226.433 168.393 225.895 170.966 226.798C175.613 228.411 180.221 237.857 184.483 232.001C181.641 226.971 177.571 223.783 172.732 220.884C171.984 220.443 171.235 220.999 171.581 219.425H171.561ZM194.505 233.556C202.301 232.884 194.909 225.78 192.163 223.246C190.493 221.71 187.843 219.329 185.692 218.849C189.82 223.054 193.622 227.47 194.525 233.556H194.505ZM168.028 237.665L167.741 235.323C161.577 230.734 156.892 224.321 149.193 222.113C143.356 220.443 137.27 221.499 131.261 221.172L112.541 222.459C109.814 224.897 109.468 235.803 112.752 237.377C119.145 237.972 126.537 236.148 132.912 237.223C136.56 237.838 147.523 246.382 149.558 243.579C150.249 239.969 144.758 237.281 142.108 235.649C141.513 235.284 136.329 233.364 137.462 232.366C143.299 231.156 151.056 242.638 153.763 243.444C155.433 243.943 157.91 242.983 157.392 241.025C156.758 238.567 146.102 231.675 143.932 229.447C150.134 231.022 156.835 236.379 159.292 242.312C160.867 242.753 162.537 242.004 162.768 240.295C163.421 235.38 153.552 229.044 149.808 226.779C149.059 226.337 148.31 226.894 148.656 225.319C151.075 225.607 153.129 227.259 155.049 228.622C157.276 230.196 165.955 239.796 168.048 237.684L168.028 237.665ZM216.259 231.195C216.009 230.177 214.896 229.889 214.051 229.601C209.174 227.912 202.569 227.182 197.443 225.915C198.71 228.487 200.63 229.121 199.536 232.423C198.71 234.939 196.406 234.324 194.678 235.208C193.564 235.784 192.758 237.07 191.606 237.435C191.088 237.607 185.136 238.817 184.79 238.817C182.755 238.779 180.086 235.918 178.665 235.611C177.341 235.323 173.212 238.491 171.273 234.766C169.929 235.572 169.91 237.377 168.95 238.318C166.8 240.43 160.579 239.585 165.475 244.808C167.26 245.096 178.32 239.643 181.392 238.99C182.64 238.721 182.928 238.625 182.736 240.046C179.28 240.411 166.857 247.112 164.496 245.652L163.305 242.983C161.808 243.963 159.907 243.252 158.428 243.694C157.584 243.943 157.2 245.134 155.932 245.345C153.686 245.748 152.476 244.155 151.248 244.174C150.23 244.193 149.5 245.403 148.617 245.691C144.508 246.996 137.001 238.971 131.817 238.836C129.686 238.779 125.942 240.718 124.483 242.388L160.809 251.067L164.726 251.163L216.24 231.195H216.259ZM216.835 232.366L163.459 252.814C151.612 250.222 139.881 246.996 128.035 244.404C127.42 244.27 124.022 243.003 124.502 244.404C124.867 245.441 126.23 247.015 127.286 247.495L162.845 257.518C173.097 254.772 182.601 249.454 192.316 245.192C197.961 242.734 204.048 241.025 209.577 238.337C212.265 237.032 215.932 235.592 216.816 232.347L216.835 232.366ZM182.141 235.323C182.928 237.3 185.52 237.876 186.845 236.187L185.385 233.575L182.16 235.342L182.141 235.323Z" fill="black"/>
<path d="M43.3054 100.565V109.685L41.9231 110.492L32.8987 102.447C23.9707 101.621 14.8124 105.288 7.63162 97.9924C0.450808 90.6964 4.32914 76.834 13.3147 73.2052C18.4412 71.1316 36.8732 70.9588 42.134 72.5908C54.0764 76.2964 56.3422 96.8404 43.3054 100.546V100.565ZM42.2878 99.5285C42.691 99.1829 44.534 98.9333 45.494 98.3381C54.518 92.6933 51.1198 74.7988 39.4846 73.4932C34.7806 72.9556 21.782 72.9172 17.174 73.5508C5.48116 75.1636 1.04614 92.5588 11.1262 98.914C17.1358 102.696 26.1023 101.007 32.8607 100.661L41.2509 108.226L41.5964 101.506C41.7308 100.892 41.7885 99.97 42.2685 99.5476L42.2878 99.5285Z" fill="black"/>
<path d="M106.934 30.6332C106.147 32.0348 103.92 40.3292 101.577 38.7548L98.0256 30.8252C86.9856 31.1516 79.4206 24.854 81.1102 13.334C81.763 8.82199 85.5263 3.65714 89.7887 2.00593C93.6287 0.508332 112.272 0.66197 117.168 1.08437C127.44 2.00597 131.856 13.1227 128.65 22.0315C125.213 31.6124 115.325 30.422 106.953 30.6332H106.934ZM102.153 37.0077L106.262 29.6348C113.558 27.7532 121.661 31.2476 126.153 23.6444C130.877 15.6572 127.171 3.40756 117.149 2.27476C111.926 1.67956 100.157 1.79472 94.8573 2.35152C80.1309 3.90672 77.6352 24.1244 90.384 28.4444C93.5136 29.5004 96.0477 29.1932 99.2157 29.6156L102.134 36.9884L102.153 37.0077Z" fill="black"/>
<path d="M210.959 81.1463C209.826 80.0903 214.184 74.0231 214.337 73.1015C214.491 72.1031 212.917 69.0311 212.706 67.3223C210.862 51.0406 221.672 46.9702 235.899 48.8326C242.139 49.6582 248.072 55.3607 249.051 61.5815C251.394 76.5383 238.261 83.9303 224.936 81.0119C223.246 80.6471 219.982 78.8615 218.907 78.8423C216.949 78.8423 213.781 82.2983 210.977 81.1463H210.959ZM243.694 54.2855C239.086 49.6007 230.543 49.1974 224.36 50.119C217.045 51.1942 213.608 58.0103 213.896 64.9415C213.992 67.3799 216.027 71.4695 216.027 72.6215C216.027 74.2343 212.379 77.671 212.725 79.975L218.907 77.0759C225.262 80.8391 235.707 81.5687 241.851 77.0375C249.147 71.6615 250.145 60.8518 243.694 54.3046V54.2855Z" fill="black"/>
<path d="M221.944 11.3158C223.038 12.4486 223.729 14.5414 223.902 16.1158C224.248 19.111 224.286 35.3926 223.46 37.447C222.961 38.6758 221.003 40.2887 219.793 40.8455C216.721 42.2087 202.84 42.0934 198.885 41.7478C193.201 41.2486 191.416 38.6758 190.955 33.2038C190.686 30.0166 190.552 15.2133 191.416 13.0245C191.953 11.6997 194.295 9.97182 195.659 9.62622C198.615 8.85822 214.263 8.91577 217.758 9.33817C219.102 9.49177 221.061 10.375 221.963 11.3158H221.944ZM196.696 10.663C194.622 11.0854 192.529 12.7942 192.184 14.983C191.608 18.7462 191.838 33.6454 193.009 37.0438C194.507 41.3638 199.403 39.9238 202.417 39.943C207.064 39.9622 213.342 40.4999 217.739 39.9815C219.582 39.7703 221.579 38.6183 222.289 36.8711C223.115 34.8359 223.057 19.6487 222.731 16.7303C222.404 13.8118 220.638 11.047 217.7 10.5862C214.571 10.087 199.672 10.087 196.696 10.6822V10.663Z" fill="black"/>
<path d="M40.8087 22.4539C54.4215 20.4955 65.8069 25.7563 63.1573 41.2891C62.8501 43.0555 60.7 45.9739 61.0264 47.1835C61.564 49.2763 70.9718 54.0763 58.895 52.8859C57.1094 52.7131 55.2854 51.7148 53.6534 51.7724C50.063 51.8876 47.0874 53.4812 42.4793 52.8476C26.3321 50.6396 24.6039 24.7771 40.8087 22.4539ZM62.7158 51.7147L59.1833 46.7227C66.8441 32.3803 58.895 22.0507 43.0742 23.5483C25.3526 25.2379 27.7335 49.7754 43.6503 51.6571C48.0471 52.1755 50.831 50.4475 54.1526 50.5243C56.7446 50.5819 59.759 52.4827 62.7158 51.7147Z" fill="black"/>
<path d="M151.977 24.1816C155.126 23.4712 171.734 23.6057 175.401 24.0473C178.531 24.4121 180.623 27.1192 180.988 30.2296C181.353 33.34 181.392 50.0824 180.662 52.2904C180.048 54.0952 177.379 56.188 175.42 56.4568C171.235 57.0328 157.91 56.956 153.609 56.4568C145.334 55.4776 147.503 42.1337 147.465 36.1241C147.465 34.7225 146.812 33.4553 146.831 32.0537C146.889 29.1545 148.943 24.892 151.977 24.2008V24.1816ZM152.553 25.3721C150.364 25.8713 148.847 28.0984 148.598 30.2296C148.06 34.7608 148.348 46.8952 149.327 51.3112C149.807 53.5 152.073 55.0168 154.185 55.2664C158.582 55.7848 170.39 55.7848 174.806 55.2664C177.206 54.9784 178.915 53.4809 179.51 51.1577C180.278 48.1817 180.182 34.3385 179.778 30.8441C179.356 27.1576 177.82 25.66 174.191 25.2568C170.563 24.8536 155.644 24.6809 152.553 25.3721Z" fill="black"/>
<path d="M115.669 149.406C142.357 152.766 138.287 189.13 142.28 208.695C143.087 209.636 155.835 212.958 158.351 214.11C158.927 214.378 159.733 214.494 159.791 215.3C155.931 215.722 153.973 218.334 151.765 221.137C142.53 218.199 132.815 219.755 123.33 220.004C123.752 217.489 124.29 214.57 124.501 212.055C124.981 206.084 125.499 199.806 125.711 193.834C125.903 188.478 126.325 179.415 125.691 174.385C125.576 173.521 125.25 172.561 124.52 173.521C124.751 189.034 123.791 204.567 122.14 219.985L113.346 220.58L115.688 219.985C115.592 219.198 114.882 218.948 114.191 218.833C112.367 218.545 108.603 218.295 106.587 218.199C98.2738 217.777 89.7105 219.159 81.5313 217.374L80.9552 216.183C80.0912 206.026 79.7072 195.754 78.5552 185.617C78.4976 185.041 78.2867 183.409 77.4419 183.505L80.0721 218.238L83.0098 219.409L111.541 219.985C109.448 224.612 107.528 233.636 111.004 237.879C112.079 239.185 113.634 238.186 113.307 239.991C107.106 240.394 100.943 241.758 94.7796 242.334C87.522 243.025 72.757 244.599 66.2674 242.622C49.237 237.438 50.0241 213.898 47.9505 199.748C47.8545 199.095 47.7392 197.002 46.856 197.041C46.9136 208.042 48.2576 219.735 51.6368 230.199L57.4352 239.396L36.8528 245.866C35.048 244.023 40.6929 200.458 41.7297 194.545C45.2433 174.519 49.1603 157.239 69.2243 148.503C71.1827 147.658 81.6276 143.626 82.7412 144.337C87.1764 156.778 112.885 168.874 115.688 149.367L115.669 149.406Z" fill="#4A5775"/>
<path d="M247.363 101.823C247.498 103.628 247.536 105.509 247.44 107.333C246.288 129.529 242.851 157.657 239.107 179.622C238.589 182.694 238.934 186.303 234.806 186.38C213.091 182.271 190.781 182.521 168.912 180.006C162.557 179.276 159.427 179.679 160.368 171.769L234.499 178.239C235.113 178.834 232.214 185.113 235.075 184.71L243.888 101.746L234.154 177.087L161.021 169.945L165.725 104.453C166.013 102.207 167.818 100.652 170.064 100.556C193.238 101.9 218.333 98.8087 241.277 100.556C242.256 100.633 247.095 101.42 247.363 101.823ZM235.67 105.855H172.137C172.233 108.716 174.729 107.045 176.534 107.007C181.065 106.892 185.213 107.564 189.475 107.66C204.854 107.986 220.31 107.353 235.69 107.621V105.855H235.67ZM174.192 114.687C178.281 115.186 183.235 114.322 187.421 114.687C187.498 113.305 187.613 113.65 186.557 113.516C182.717 113.017 177.245 113.247 173.309 113.209C171.946 114.015 173.885 114.649 174.192 114.687ZM192.72 119.391H183.6L183.005 120.562C183.965 121.906 195.005 121.369 192.72 119.391ZM171.542 126.457H184.195L184.79 125.286C183.85 123.903 181.718 125.113 180.566 125.074C178.205 124.959 172.003 123.27 171.542 126.476V126.457ZM216.259 127.033C215.645 125.381 214.531 125.381 213.053 125.228C207.869 124.709 197.097 124.786 191.837 125.266C190.915 125.343 190.09 125.727 189.187 125.862C189.014 126.092 189.955 127.033 190.07 127.033H216.24H216.259ZM204.202 131.737H183.312C183.273 132.121 184.099 132.908 184.195 132.908H201.84C202.378 132.908 203.971 134.022 205.066 133.484L204.183 131.718L204.202 131.737ZM226.263 137.631L182.141 136.748C182.141 138.073 183.177 138.111 184.176 138.246C188.688 138.802 194.755 138.054 199.517 138.188C207.465 138.418 216.221 139.724 224.227 138.822C225.11 138.726 226.051 138.706 226.263 137.631ZM190.973 144.697L190.09 142.93H173.021L172.157 143.813L173.021 144.697H190.953H190.973ZM186.845 150.572C186.883 150.188 186.058 149.401 185.962 149.401H173.309C173.27 149.785 174.096 150.572 174.192 150.572H186.845ZM181.546 154.7H170.966C170.544 156.178 172.233 156.159 173.174 156.294C174.115 156.428 184.08 156.908 181.546 154.7Z" fill="white"/>
<path d="M52.7127 158.24C50.8119 162.406 48.1046 166.169 46.3958 170.451C41.903 181.664 39.6569 197.158 38.1017 209.235C36.5465 221.312 35.5096 233.773 35.5672 246.137C34.8952 248.134 20.2647 251.955 17.7111 253.549C16.9239 253.491 16.1752 249.209 15.9448 248.307C14.4856 242.201 13.4486 235.769 12.3158 229.587C9.97336 216.723 4.46308 190.668 5.73029 178.649C8.16869 155.532 36.2967 160.928 52.7127 158.278V158.24Z" fill="white"/>
<path d="M128.015 112.922L131.298 113.479C131.702 120.199 139.132 131.181 126.268 128.244C129.283 134.273 136.79 129.377 135.676 123.521L144.508 124.692C143.145 140.897 129.302 153.261 112.924 145.985C109.795 144.583 108.143 142.337 105.091 141.185C106.454 145.063 110.812 146.618 113.942 148.634C113.136 166.606 88.5595 155.892 85.1035 144.718C87.2923 145.121 94.7608 147.924 96.316 146.81L96.7768 146.1C96.8344 133.428 97.0456 120.698 99.2152 108.237L105.417 111.175C102.383 128.417 128.303 129.722 128.034 112.942L128.015 112.922Z" fill="white"/>
<path d="M168.03 237.665C165.937 239.797 157.24 230.177 155.032 228.603C153.092 227.24 151.038 225.608 148.638 225.301C148.311 226.875 149.06 226.318 149.79 226.76C153.553 229.006 163.422 235.362 162.75 240.277C162.52 241.986 160.849 242.734 159.275 242.293C156.817 236.36 150.116 231.003 143.915 229.429C146.103 231.656 156.74 238.568 157.374 241.006C157.892 242.984 155.416 243.925 153.745 243.425C151.038 242.619 143.281 231.137 137.444 232.347C136.312 233.345 141.496 235.265 142.091 235.63C144.721 237.262 150.231 239.95 149.54 243.56C147.505 246.363 136.542 237.819 132.894 237.205C126.539 236.129 119.147 237.953 112.734 237.358C109.451 235.784 109.796 224.859 112.523 222.44L131.243 221.153C137.272 221.48 143.339 220.405 149.175 222.094C156.875 224.302 161.56 230.734 167.723 235.304L168.011 237.646L168.03 237.665Z" fill="white"/>
<path d="M146.851 100.56V104.093C139.805 101.213 133.872 103.939 131.779 111.197C126.787 112.387 127.766 108.374 125.078 105.571C119.338 99.5998 109.296 101.961 105.994 109.257L100.061 106.454C100.388 99.1582 108.163 95.6446 113.059 91.171C118.243 86.4094 123.063 80.899 127.21 75.235C136.349 79.7086 143.606 88.9823 146.295 98.8127C142.8 98.6207 138.749 95.2606 135.715 98.5246C136.157 98.8702 137.559 100.579 137.77 100.579H146.89L146.851 100.56ZM123.907 96.451C120.298 96.2206 115.843 97.2574 112.714 99.1006C111.965 99.5422 111.236 98.9854 111.562 100.56C114.116 100.387 121.642 100.099 123.331 98.5054C124.061 97.8142 124.003 97.3918 123.907 96.451Z" fill="white"/>
<path d="M216.258 231.2L164.745 251.168L160.828 251.072L124.502 242.393C125.961 240.723 129.704 238.784 131.836 238.841C137.02 238.976 144.527 247.001 148.636 245.696C149.519 245.408 150.249 244.217 151.266 244.179C152.495 244.16 153.705 245.753 155.951 245.35C157.199 245.12 157.602 243.929 158.447 243.699C159.925 243.277 161.826 243.987 163.324 242.989L164.514 245.657C166.876 247.117 179.298 240.416 182.754 240.051C182.946 238.63 182.658 238.726 181.41 238.995C178.338 239.648 167.298 245.101 165.493 244.813C160.597 239.59 166.818 240.435 168.969 238.323C169.929 237.382 169.948 235.577 171.292 234.771C173.231 238.477 177.359 235.328 178.684 235.616C180.086 235.923 182.754 238.803 184.809 238.822C185.154 238.822 191.106 237.612 191.625 237.44C192.777 237.075 193.583 235.789 194.696 235.213C196.444 234.329 198.729 234.944 199.554 232.429C200.649 229.145 198.729 228.492 197.462 225.92C202.588 227.187 209.193 227.917 214.069 229.606C214.933 229.894 216.028 230.182 216.277 231.2H216.258Z" fill="white"/>
<path d="M171.56 219.426C171.234 221 171.983 220.444 172.712 220.885C177.551 223.784 181.621 226.991 184.463 232.002C180.181 237.858 175.592 228.412 170.946 226.799C168.373 225.896 165.589 226.434 165.09 229.41C167.259 228.968 167.931 227.72 170.408 228.488C171.368 228.796 177.147 233.077 177.435 233.826C177.858 234.882 175.746 235.151 175.208 235.151C173.941 235.151 172.635 234.863 172.136 233.538H174.498C174.651 228.892 170.85 233.788 169.947 234.037C167.624 234.69 163.765 229.295 161.826 227.663C160.098 226.204 155.394 223.593 154.491 222.652C151.65 219.676 159.656 216.911 161.903 216.527C173.884 214.53 185.691 216.316 191.067 228.431C192.027 230.581 194.639 235.976 190.664 235.938C188.188 235.919 185.058 229.391 183.291 227.375C180.469 224.13 175.842 220.175 171.541 219.426H171.56Z" fill="white"/>
<path d="M216.834 232.366C215.931 235.592 212.283 237.032 209.595 238.356C204.065 241.044 197.979 242.753 192.334 245.211C182.619 249.454 173.115 254.792 162.863 257.537L127.304 247.515C126.248 247.035 124.866 245.46 124.52 244.424C124.04 243.022 127.438 244.289 128.053 244.424C139.918 246.996 151.63 250.222 163.477 252.833L216.853 232.385L216.834 232.366Z" fill="white"/>
<path d="M200.381 201.186L200.457 205.506L201.341 206.39C206.218 206.678 211.382 206.409 216.009 205.334C216.758 204.258 215.472 201.282 217.142 201.781C218.198 202.089 228.201 207.868 227.453 208.828C218.333 211.17 208.483 213.398 199.094 212.207C195.196 211.708 184.176 209.538 180.854 208.098C180.374 207.887 179.817 207.695 179.817 207.081L200.4 201.186H200.381Z" fill="white"/>
<path d="M123.694 106.645C125.249 108.2 126.343 111.599 126.286 113.807C125.94 128.072 101.479 125.077 107.873 109.563C110.35 103.554 119.162 102.133 123.674 106.645H123.694ZM116.686 113C113.652 113.826 112.961 120.219 116.57 120.584C121.601 121.083 121.447 111.714 116.686 113Z" fill="white"/>
<path d="M201.553 204.721C201.515 197.905 202.014 191.089 200.363 184.427L213.304 185.31L214.475 204.721H201.534H201.553Z" fill="white"/>
<path d="M145.083 122.93C138.21 123.41 132.987 121.624 133.314 113.829C133.563 107.781 138.114 102.962 144.411 105.074C149.941 106.917 144.527 118.572 145.083 122.93ZM143.163 113.061C140.015 109.855 136.347 117.497 138.977 119.436C142.702 122.181 145.506 115.442 143.163 113.061Z" fill="white"/>
<path d="M194.505 233.558C193.603 227.471 189.801 223.055 185.673 218.85C187.823 219.33 190.473 221.711 192.144 223.247C194.889 225.782 202.281 232.886 194.486 233.558H194.505Z" fill="white"/>
<path d="M147.426 121.16L149.173 107.624C151.132 111.713 152.629 119.067 147.426 121.16Z" fill="white"/>
<path d="M182.141 235.323L185.367 233.557L186.826 236.168C185.501 237.857 182.909 237.281 182.122 235.304L182.141 235.323Z" fill="white"/>
<path d="M42.288 99.5193C41.808 99.9225 41.7502 100.863 41.6158 101.478L41.2703 108.198L32.8802 100.633C26.1218 100.978 17.136 102.687 11.1456 98.8856C1.06559 92.5304 5.50061 75.116 17.1934 73.5224C21.8014 72.8888 34.8001 72.9464 39.5041 73.4648C51.1393 74.7704 54.5183 92.6456 45.5135 98.3097C44.5535 98.9049 42.7104 99.1544 42.3072 99.5L42.288 99.5193ZM34.6272 89.228C36.6048 91.4936 40.2912 88.2104 38.0064 85.5416C36.1632 83.372 32.784 87.1352 34.6272 89.228ZM20.2272 86.0024C17.04 82.8728 13.9104 90.0728 18.3264 90.0344C20.5344 90.0152 21.6288 87.3848 20.2272 86.0024ZM26.0448 85.3304C23.2032 86.2904 26.5438 92.9528 29.1358 88.3832C30.3454 86.252 28.2144 84.6008 26.0448 85.3304Z" fill="white"/>
<path d="M102.153 37.0079L99.2345 29.6351C96.0665 29.2127 93.5324 29.5199 90.4028 28.4639C77.6348 24.1439 80.1305 3.907 94.8761 2.371C100.175 1.8142 111.926 1.69904 117.168 2.29424C127.19 3.42705 130.895 15.6575 126.172 23.6639C121.449 31.6703 113.558 27.7727 106.281 29.6543L102.172 37.027L102.153 37.0079ZM93.4553 14.7935C91.0937 17.4623 96.1049 20.8222 97.7369 17.5774C99.2537 14.5822 95.0873 12.9311 93.4553 14.7935ZM104.323 14.1406C101.539 14.9086 102.595 19.5934 105.84 18.691C108.624 17.923 107.568 13.2382 104.323 14.1406ZM112.809 14.1406C111.292 15.0814 112.271 20.1887 115.67 18.4799C118.761 16.9247 115.939 12.1822 112.809 14.1406Z" fill="white"/>
<path d="M243.695 54.2901C250.146 60.8373 249.147 71.6469 241.851 77.0229C235.707 81.5541 225.263 80.8245 218.908 77.0613L212.725 79.9606C212.38 77.6565 216.027 74.2197 216.027 72.6069C216.027 71.4549 213.992 67.3653 213.896 64.9269C213.608 57.9957 217.026 51.1796 224.36 50.1044C230.543 49.202 239.087 49.6053 243.695 54.2709V54.2901ZM236.994 63.0453C234.555 65.6373 238.645 68.2293 240.104 65.8677C241.564 63.5061 238.376 61.5861 236.994 63.0453ZM221.903 62.9492C219.637 63.6788 221.384 67.9605 223.938 66.1749C225.378 65.1573 224.456 62.1428 221.903 62.9492ZM229.564 62.9492C227.298 63.6788 229.045 67.9605 231.599 66.1749C233.039 65.1573 232.117 62.1428 229.564 62.9492Z" fill="white"/>
<path d="M196.694 10.6628C199.67 10.0676 214.588 10.0676 217.699 10.5668C220.655 11.0276 222.403 13.8692 222.729 16.7108C223.056 19.5525 223.113 34.8165 222.288 36.8517C221.577 38.5989 219.58 39.7508 217.737 39.962C213.34 40.4804 207.043 39.962 202.415 39.9236C199.382 39.9236 194.486 41.3636 193.008 37.0244C191.836 33.626 191.606 18.7268 192.182 14.9636C192.528 12.7748 194.62 11.066 196.694 10.6436V10.6628ZM199.497 17.594L198.614 18.4772V32.6084L199.497 33.4916H214.8C217.296 31.4756 215.721 29.4596 215.683 27.3092C215.645 24.2564 216.393 20.0132 214.8 17.6132H199.497V17.594Z" fill="white"/>
<path d="M62.7168 51.7149C59.7792 52.4829 56.7456 50.5821 54.1536 50.5245C50.832 50.4477 48.0481 52.1756 43.6513 51.6572C27.7345 49.7756 25.3536 25.2573 43.0752 23.5485C58.896 22.0317 66.8451 32.3805 59.1843 46.7229L62.7168 51.7149ZM46.6274 35.2797C44.3426 35.6637 45.0529 39.6572 47.0689 39.3116C49.3537 38.9276 48.6434 34.9341 46.6274 35.2797ZM53.7121 35.3181C51.0241 36.0093 52.3681 40.0413 54.7105 39.3308C56.7649 38.7164 56.1697 34.6845 53.7121 35.3181ZM38.9666 35.8941C36.989 36.5085 38.5635 39.5613 40.0035 39.3308C42.0003 39.0044 42.269 34.8573 38.9666 35.8941Z" fill="white"/>
<path d="M152.554 25.3714C155.645 24.6802 170.622 24.8337 174.193 25.2561C177.764 25.6785 179.357 27.1569 179.78 30.8433C180.202 34.5297 180.279 48.181 179.511 51.157C178.916 53.4802 177.207 54.9969 174.807 55.2657C170.391 55.7841 158.583 55.7841 154.186 55.2657C152.074 55.0161 149.809 53.4993 149.329 51.3105C148.369 46.8945 148.081 34.7601 148.599 30.2289C148.849 28.0977 150.365 25.8514 152.554 25.3714ZM173.905 48.1809C172.042 43.7265 169.239 38.7154 166.493 34.7026C165.841 33.7618 164.881 31.6882 163.613 31.7074L154.493 48.1809H173.905Z" fill="white"/>
<path d="M235.67 105.856V107.623C220.291 107.354 204.854 107.988 189.456 107.661C185.193 107.565 181.046 106.893 176.515 107.008C174.71 107.047 172.214 108.717 172.118 105.856H235.651H235.67Z" fill="black"/>
<path d="M226.262 137.633C226.032 138.709 225.11 138.728 224.227 138.824C216.22 139.726 207.484 138.421 199.516 138.19C194.735 138.056 188.687 138.785 184.175 138.248C183.177 138.133 182.141 138.075 182.141 136.75L226.262 137.633Z" fill="black"/>
<path d="M216.258 127.032H190.089C189.974 127.032 189.033 126.091 189.206 125.861C190.108 125.726 190.914 125.342 191.855 125.265C197.116 124.805 207.887 124.708 213.071 125.227C214.55 125.381 215.663 125.381 216.277 127.032H216.258Z" fill="black"/>
<path d="M190.973 144.7H173.022L172.157 143.817L173.022 142.933H190.09L190.973 144.7Z" fill="black"/>
<path d="M204.201 131.743L205.084 133.51C203.97 134.028 202.376 132.934 201.858 132.934H184.213C184.117 132.934 183.292 132.147 183.33 131.763H204.22L204.201 131.743Z" fill="black"/>
<path d="M171.544 126.459C171.985 123.253 178.187 124.961 180.567 125.057C181.739 125.115 183.851 123.905 184.791 125.269L184.196 126.44H171.544V126.459Z" fill="black"/>
<path d="M174.192 114.695C173.885 114.657 171.946 114.004 173.309 113.217C177.245 113.236 182.717 113.025 186.557 113.524C187.632 113.659 187.517 113.313 187.421 114.695C183.217 114.331 178.282 115.195 174.192 114.695Z" fill="black"/>
<path d="M181.545 154.705C184.079 156.913 174.076 156.433 173.173 156.298C172.271 156.164 170.524 156.183 170.966 154.705H181.545Z" fill="black"/>
<path d="M192.719 119.395C195.004 121.373 183.963 121.93 183.003 120.566L183.599 119.395H192.719Z" fill="black"/>
<path d="M186.846 150.574H174.193C174.097 150.574 173.271 149.787 173.31 149.403H185.963C186.059 149.403 186.884 150.19 186.846 150.574Z" fill="black"/>
<path d="M123.907 96.4517C123.984 97.3925 124.061 97.8149 123.331 98.5061C121.661 100.1 114.116 100.388 111.562 100.561C111.236 98.9861 111.965 99.5429 112.714 99.1013C115.824 97.2581 120.298 96.2213 123.907 96.4517Z" fill="black"/>
<path d="M116.689 113C121.45 111.694 121.604 121.083 116.573 120.584C112.964 120.219 113.655 113.825 116.689 113Z" fill="black"/>
<path d="M143.163 113.063C145.505 115.444 142.702 122.183 138.977 119.437C136.347 117.498 140.014 109.876 143.163 113.063Z" fill="black"/>
<path d="M20.2273 86.0021C21.6289 87.3653 20.5345 89.9958 18.3265 90.0342C13.9297 90.0726 17.0401 82.8917 20.2273 86.0021Z" fill="black"/>
<path d="M34.6265 89.2338C32.7833 87.1218 36.1625 83.3778 38.0057 85.5474C40.2713 88.2162 36.5849 91.4994 34.6265 89.2338Z" fill="black"/>
<path d="M26.0439 85.3359C28.2135 84.6063 30.3637 86.2574 29.1349 88.3886C26.5429 92.939 23.1831 86.2959 26.0439 85.3359Z" fill="black"/>
<path d="M93.4544 14.7892C95.1056 12.9268 99.2528 14.5971 97.736 17.5731C96.104 20.7987 91.0928 17.4388 93.4544 14.7892Z" fill="black"/>
<path d="M112.811 14.1403C115.94 12.1819 118.743 16.9243 115.671 18.4795C112.273 20.1883 111.313 15.0811 112.811 14.1403Z" fill="black"/>
<path d="M104.321 14.1397C107.566 13.2373 108.603 17.9029 105.838 18.6901C102.593 19.5925 101.556 14.9269 104.321 14.1397Z" fill="black"/>
<path d="M236.995 63.0404C238.378 61.5812 241.507 63.5588 240.106 65.8628C238.704 68.1668 234.557 65.6324 236.995 63.0404Z" fill="black"/>
<path d="M221.904 62.9484C224.438 62.142 225.379 65.1565 223.939 66.1741C221.385 67.9597 219.658 63.678 221.904 62.9484Z" fill="black"/>
<path d="M229.564 62.9484C232.098 62.142 233.039 65.1565 231.599 66.1741C229.046 67.9597 227.317 63.678 229.564 62.9484Z" fill="black"/>
<path d="M199.497 17.6014H214.8C216.394 20.0206 215.645 24.2447 215.683 27.2975C215.722 29.4479 217.296 31.4638 214.8 33.4798H199.497L198.614 32.5966V18.4654L199.497 17.5822V17.6014ZM214.493 18.7727H199.786V31.4254C201.725 33.403 204.758 31.8094 207.12 31.6942C209.482 31.579 212.054 31.8287 214.493 31.7135V18.7727Z" fill="black"/>
<path d="M53.7122 35.3182C56.1506 34.6846 56.7458 38.7165 54.7106 39.3309C52.3874 40.0221 51.0242 36.0094 53.7122 35.3182Z" fill="black"/>
<path d="M46.6282 35.2812C48.625 34.9356 49.3545 38.9292 47.0697 39.3132C45.0729 39.6588 44.3434 35.6652 46.6282 35.2812Z" fill="black"/>
<path d="M38.964 35.8921C42.2665 34.8553 42.0169 39.0025 40.0009 39.3289C38.5609 39.5593 36.9864 36.5065 38.964 35.8921Z" fill="black"/>
<path d="M173.902 48.1804H154.491L163.611 31.7069C164.897 31.7069 165.838 33.7613 166.491 34.7021C169.236 38.7149 172.04 43.726 173.902 48.1804ZM172.136 47.0093L164.475 33.4733L156.238 47.0093H172.116H172.136Z" fill="black"/>
<path d="M214.493 18.768V31.7088C212.055 31.824 209.559 31.5744 207.121 31.6896C204.682 31.8048 201.745 33.3984 199.786 31.4208V18.768H214.493Z" fill="white"/>
<path d="M172.137 47.0057H156.258L164.476 33.4697L172.137 47.0057Z" fill="white"/>
<path d="M130.011 137.23C132.296 139.208 121.256 139.765 120.296 138.401L120.891 137.23H130.011Z" fill="black"/>
</svg>
