<svg width="329" height="275" viewBox="0 0 329 275" fill="none" xmlns="http://www.w3.org/2000/svg">
<path d="M318.521 332.374C319.017 332.466 320.136 333.215 320.649 333.543C321.627 335.253 317.319 336.847 316.221 337.294C303.1 342.622 284.943 345.61 270.968 348.84C248.682 353.992 214.773 363.885 192.748 361.154C191.211 360.964 183.692 360.169 185.313 357.248C186.379 355.33 195.73 354.784 197.946 354.457C198.294 354.404 199.261 354.288 199.201 353.707C193.842 351.005 191.411 344.522 188.243 339.36C184.807 333.757 179.5 328.76 181.167 320.993C182.402 315.243 190.49 308.532 194.116 304.341C192.79 301.241 193.209 299.393 194.443 296.419C200.734 285.718 206.716 274.727 213.184 264.159C215.8 259.884 220.126 255.179 221.181 250.238C221.526 248.619 222.338 244.326 222.38 242.851C222.436 240.961 218.455 235.63 217.33 233.603C212.174 224.309 207.8 214.258 206.579 203.225L202.904 204.816L186.882 239.335C194.766 246.184 200.379 249.256 195.751 261.548C188.387 281.111 177.612 303.021 168.925 322.243C166.347 327.951 163.4 335.44 160.337 340.634C157.299 345.782 155.245 346.757 149.544 346.191L146.84 349.952C149.808 349.78 152.836 348.703 155.85 348.228C157.9 347.904 163.443 347.007 165.131 347.563C165.574 347.707 166.52 348.253 165.816 348.763L113.803 359.229L114.162 357.86C122.096 354.964 130.842 354.031 138.825 351.606C139.184 351.497 139.891 351.508 139.806 350.941C136.532 349.724 135.15 345.459 135.207 341.887L111.542 334.725C107.392 345.188 95.9629 340.855 97.3134 329.443C97.4576 328.218 98.8045 325.452 98.6427 324.755C97.3134 321.972 92.4251 316.412 92.0347 313.586C91.5951 310.39 93.7333 306.73 94.9923 303.926C104.041 283.764 114.169 262.607 123.935 242.844C127.512 235.609 130.891 225.568 139.648 226.114C146.239 226.522 154.183 230.252 160.773 230.83C161.385 230.882 162.008 231.065 162.486 230.474L177.26 198.499C175.361 193.755 178.79 187.224 183.748 190.001C184.673 187.773 185.095 185.334 186.069 183.124C187.29 180.362 189.78 177.958 190.592 175.171C192.199 169.635 191.387 159.532 191.83 153.257C192.512 143.551 193.894 132.533 197.351 123.626C193.968 119.357 191.401 118.316 194.102 112.368C198.73 102.187 208.141 83.814 214.678 75.4596C222.925 64.9163 234.365 62.1925 246.132 59.4651L248.084 48.5875C246.284 43.8894 243.326 38.287 242.82 33.1455C242.63 31.2205 243.129 29.5419 243.087 28.0322C243.062 27.2052 242.32 26.1811 242.162 25.1922C241.532 21.191 242.893 20.3006 243.403 17.2953C243.801 14.948 243.059 13.2659 245.06 11.2564C245.622 10.6899 246.544 10.5456 247.015 9.89806C247.68 8.98308 247.852 7.19536 248.928 6.12554C250.451 4.61583 251.71 5.36189 252.969 4.74252C253.69 4.38709 254.551 2.52546 255.522 2.08557C256.493 1.64568 258.452 1.62808 259.454 1.81108C260.298 1.96592 261.321 2.99703 261.873 2.88793C263.241 2.61696 264.5 0.554744 267.208 0.56882C269.343 0.575858 270.046 2.05742 271.087 2.17355C272.181 2.29672 273.869 1.21986 275.641 1.38526C277.66 1.57177 278.469 3.13075 279.517 3.35598C281.933 3.88033 283.667 2.42693 286.03 4.72492C286.47 5.15426 286.74 6.11146 287.064 6.32613C287.904 6.88216 289.371 6.24167 290.908 7.53672C291.97 8.4341 291.942 9.43353 292.427 9.97548C292.712 10.2957 293.447 10.4048 293.918 10.8623C296.44 13.3116 295.817 17.6331 293.897 20.3253C293.373 21.0608 292.399 21.2191 292.322 22.12C292.244 23.0209 293.218 26.6597 293.384 28.0533C293.517 29.1865 293.208 30.5343 293.394 31.5971C293.556 32.512 294.365 32.7478 294.428 33.5643C294.558 35.2359 293.007 34.9825 292.68 35.6441C292.311 36.3901 292.209 39.0225 292.318 39.9198C292.582 42.1052 294.534 42.4008 295.669 43.6536C298.676 46.9581 297.298 52.1594 293.074 52.7752C292.511 60.5948 290.493 70.2372 282.844 72.676C289.382 77.0292 294.083 81.7729 297.315 89.5925C302.397 101.895 304.599 116.44 308.819 129.19C309.079 131.491 308.85 132.339 307.451 133.902C306.459 135.01 303.948 135.862 304.426 137.65L320.857 174.115C328.65 181.336 336.439 197.711 329.74 208.318C327.552 211.777 326.564 210.841 323.881 212.006C322.182 212.745 321.085 214.212 318.863 214.188C316.563 214.163 316.278 212.294 315.279 211.978C314.569 211.749 313.732 212.009 312.968 211.809C309.944 211.024 309.536 207.128 311.309 204.594C312.884 202.342 315.894 202.775 313.415 199.062C312.754 198.077 311.731 197.317 311.017 196.229C308.808 192.855 308.52 189.596 308.231 185.538C300.357 177.247 292.86 168.587 286.712 158.582L288.464 188.762C287.94 191.091 285.974 192.337 283.93 192.587L280.811 212.407C284.838 225.41 289.244 238.297 292.775 251.49C296.306 264.684 298.465 280.041 302.51 292.291C303.73 295.986 306.87 298.921 306.04 303.531C312.807 300.804 320.74 296.117 327.292 301.962C335.581 309.359 325.745 319.596 320.614 325.245L312.012 332.364C314.006 332.621 316.612 332.012 318.514 332.364L318.521 332.374ZM289.8 22.4262C284.989 21.3986 280.006 20.6138 275.117 21.5464C275.511 23.7318 275.789 25.7447 274.945 27.8668C274.055 30.0979 271.822 30.8405 270.897 32.3994C269.259 35.162 269.628 45.1211 270.373 48.4045C271.379 52.8491 274.499 55.3583 278.314 56.5196C279.974 55.0486 281.56 53.5495 283.442 52.4233C284.113 52.0222 286.568 51.262 286.674 51.1142C286.892 50.8116 286.47 49.872 286.916 49.5412C288.963 47.7992 293.116 52.4761 294.618 48.7951C296.12 45.1141 290.774 44.3751 290.039 41.7146C289.42 39.4764 290.577 36.8723 290.581 34.5848C289.076 35.3203 276.7 35.5596 280.91 31.8047C282.819 30.1014 288.819 31.3859 291.288 31.4176L289.8 22.4297V22.4262ZM264.926 63.8007C261.198 55.58 266.304 47.9998 265.186 39.223C264.891 36.9004 263.85 34.7361 261.771 33.9795C254.407 31.305 252.382 43.7979 257.375 48.0033C259.542 49.8297 260.523 48.4889 261.406 48.9746C262.862 49.7734 261.993 51.3113 260.505 51.5435C257.46 52.0222 255.237 49.3441 253.335 47.215C253.598 49.0977 251.731 50.977 250.17 49.9775L248.411 59.8522C254.073 60.0071 259.496 62.2241 264.929 63.8007H264.926ZM290.233 57.4909C287.352 56.2381 284.17 57.9273 282.499 60.6405C284.564 61.7561 286.709 61.471 288.956 61.3831L290.233 57.4909ZM280.688 145.624C277.368 145.16 273.742 146.997 272.41 142.485C270.676 136.626 269.691 124.214 269.15 117.714C268.812 113.688 268.042 106.854 268.429 103.081C268.721 100.22 270.257 101.917 270.514 104.331C271.78 116.257 271.952 128.282 274.168 140.113C274.819 143.576 276.194 143.017 279.179 142.805C285.907 142.33 299.854 137.615 305.112 132.846C306.072 131.977 307.12 131.277 306.684 129.661C300.554 113.392 299.83 89.9866 286.688 78.648C278.17 71.3 256.036 61.2317 245.436 62.2241C232.874 63.3995 220.773 70.1422 213.338 81.4457C206.403 91.9855 201.325 104.728 195.058 115.828C194.798 117.728 199.447 122.211 200.857 123.369C203.685 125.688 207.283 127.838 210.813 128.18C211.035 123.221 216.229 87.7555 218.237 86.3689C218.663 86.0769 219.764 86.3056 219.929 86.9531C215.121 105.453 214.045 124.837 210.289 143.587C207.923 155.397 204.455 166.848 201.673 178.528C201.747 179.373 202.574 179.996 203.186 180.39C206.857 182.741 215.044 185.584 219.328 187.132C238.54 194.083 258.283 197.127 278.226 191.894C280.85 191.204 283.364 190.046 285.984 189.357C285.91 177.75 283.895 166.123 284.869 154.485L280.692 145.621L280.688 145.624ZM209.709 133.761C207.662 133.821 199.567 124.84 198.86 125.421C195.424 136.513 194.204 148.633 193.567 160.359C193.325 164.839 193.926 169.181 193.135 173.696C192.189 179.084 188.841 181.565 187.096 186.657C186.46 188.515 183.931 196.775 185.155 198.095C186.242 198.401 185.792 196.757 186.094 195.797C186.692 193.9 188.285 190.423 190.279 190.198C191.426 190.067 192.252 190.972 193.068 190.947C193.201 190.944 195.505 190.187 195.618 190.103C196.124 189.719 197.344 184.257 198.681 184.254C201.381 184.243 196.866 191.127 197.457 191.771C199.12 191.679 201.178 191.626 202.387 193.14C202.778 193.625 203.031 194.804 203.129 194.871C203.52 195.138 205.5 194.815 206.238 195.325L206.885 184.725C200.203 181.882 198.603 181.91 200.443 173.605C201.821 167.38 204.012 161.091 205.51 154.813C207.167 147.876 208.619 140.842 209.716 133.761H209.709ZM328.541 196.314C328.801 197.349 328.541 201.188 328.541 202.634C328.541 203.609 326.723 207.726 326.079 208.751C326.751 209.444 328.46 206.058 328.674 205.548C333.053 195.075 326.213 182.36 319.109 175.709L302.541 139.029C302.126 138.547 301.95 139.015 301.644 139.233C295.94 143.358 290.953 146.736 283.899 147.342C289.237 160.971 298.142 170.783 307.264 181.118C307.855 181.787 308.653 182.163 309.223 182.867C311.375 185.531 310.201 188.325 311.249 191.648C312.525 195.684 318.62 199.562 315.831 203.76C315.057 204.922 310.676 206.657 312.712 208.962C314.695 211.207 318.894 207.272 320.041 205.33C320.691 204.225 321.683 200.262 321.89 200.104C322.436 199.682 323.501 200.086 323.631 201.061C323.951 203.444 320.206 210.274 317.642 210.735L317.815 211.52C322.316 212.769 325.963 205.597 326.385 201.406C326.508 200.192 325.9 195.015 327.602 195.364C327.774 195.399 328.495 196.177 328.53 196.314H328.541ZM281.441 193.351C257.379 201.205 231.963 195.353 209.048 185.844C209.002 188.083 208.454 190.567 208.348 192.763C207.536 209.458 214.358 225.305 222.932 238.375L229.779 209.56C227.226 208.969 214.995 199.858 215.371 197.507C215.484 196.81 216.177 196.937 216.683 197.208C217.808 197.81 219.401 199.882 220.527 200.79C223.636 203.296 226.994 205.421 230.31 207.561C231.281 206.284 230.866 204.366 232.941 204.806C231.323 213.565 228.696 222.183 226.857 230.942C225.468 237.562 224.712 244.582 223.291 251.026C222.042 256.699 217.014 262.196 214.031 267.08C208.936 275.428 202.982 285.123 198.357 293.699C196.964 296.282 195.153 299.196 195.343 302.353C197.26 301.251 198.512 300.948 200.699 301.272C206.569 302.145 215.132 311.907 218.476 317.231C219.693 319.167 220.576 321.18 221.522 323.277C232.631 309.75 243.414 295.782 252.913 280.756C265.225 261.277 272.199 239.483 277.551 216.419C278.258 213.375 282.387 194.85 281.441 193.344V193.351ZM191.475 192.562C189.572 190.648 184.93 201.776 190.42 201.248C189.495 198.109 190.764 195.515 191.475 192.562ZM195.34 202.036C194.548 200.347 194.429 198.267 194.721 196.405C194.847 195.607 196.398 192.805 195.157 192.559C192.713 192.07 190.117 203.602 195.34 202.036ZM199.908 203.225C200.02 201.776 199.739 200.122 199.933 198.707C200.179 196.916 203.319 193.703 198.712 194.16C195.551 194.473 196.092 203.697 199.908 203.225ZM183.035 197.693C180.52 198.295 180.706 199.689 179.704 201.652C175.952 209.011 172.235 216.978 168.795 224.544C168.349 225.523 165.444 231.653 165.813 232.054C171.661 233.462 178.456 233.494 183.566 237.115L198.849 205.203C197.819 205.689 196.69 204.214 196.215 204.169C195.646 204.109 194.904 204.964 193.838 204.746C193.054 204.587 192.354 203.43 191.608 203.335C190.648 203.215 189.741 203.947 188.289 203.44C186.984 202.986 186.78 201.505 186.034 200.84C185.036 199.949 182.904 200.02 183.031 197.693H183.035ZM279.693 216.655C277.094 228.327 273.651 239.905 269.761 251.11C266.832 259.553 263.667 267.89 258.972 275.297L279.046 318.287C281.472 322.127 287.982 319.375 291.175 317.83C297.604 314.719 306.677 307.54 303.062 298.411C301.972 295.656 300.857 294.23 299.9 290.905C293.623 269.086 290.412 246.036 282.51 224.745L279.696 216.658L279.693 216.655ZM95.6359 316.06C96.4799 316.911 102.057 318.284 103.608 318.752C114.735 322.127 126.049 324.769 137.211 327.986C142.18 328.612 145.388 326.673 147.951 321.972L181.941 248.791C184.371 242.749 184.286 238.853 178.122 236.988C165.423 233.142 150.807 231.555 137.883 228.507C132.309 228.986 129.168 237.213 126.749 242.059C115.397 264.796 105.156 288.385 94.201 311.344C93.8001 312.593 94.8376 315.25 95.6359 316.06ZM137.784 332.075C138.839 330.861 140.056 332.198 141.058 332.357C143.123 332.684 143.914 332.177 146.035 333.476C146.706 333.888 147.28 334.901 147.793 335.074C150.241 335.904 152.868 330.664 153.926 328.69L189.541 249.439C190.42 244.903 188.514 243.667 185.669 241.141C185.823 245.87 183.952 249.354 182.162 253.391C171.464 277.525 159.62 301.138 148.584 325.058C142.539 334.071 132.481 329.087 124.407 326.972C115.562 324.653 106.742 322.032 97.9886 319.343L100.144 323.256C102.873 322.267 105.733 321.813 108.149 323.921C109.256 324.889 109.608 326.332 110.906 326.747L137.169 334.359C137.496 334.363 137.299 332.635 137.784 332.079V332.075ZM150.002 343.829C153.61 344.023 155.414 344.16 157.735 340.866C170.94 312.98 183.411 284.507 195.308 255.918C195.776 251.955 194.608 249.555 191.999 247.067L191.07 251.55C178.276 276.846 168.756 304.464 155.808 329.619C154.383 332.388 152.266 336.576 149.298 337.118C149.798 339.395 150.234 341.433 149.998 343.829H150.002ZM257.892 277.873C257.361 277.733 257.33 277.958 257.038 278.289C255.476 280.059 253.229 284.616 251.71 286.914C243.678 299.059 233.915 312.706 224.518 323.499C222.078 326.3 219.197 328.007 218.881 322.5C218.223 321.43 218.561 326.128 218.621 326.547C218.958 328.802 221.061 337.15 222.232 338.681C223.238 339.997 225.204 339.877 226.607 340.479C229.199 341.587 230.018 343.192 231.538 345.624C249.266 343.136 266.797 338.959 284.24 334.725L281.465 322.764C278.972 321.792 278.349 321.588 276.939 319.061C271.928 310.077 267.078 298.496 262.629 288.934C260.945 285.316 259.313 281.625 257.889 277.866L257.892 277.873ZM325.699 303.595C321.44 300.354 317.269 301.811 312.726 303.151C313.703 303.57 317.772 308.708 315.061 308.624C314.206 308.596 311.942 304.042 309.402 304.732C307.943 305.129 310.486 306.671 310.809 307.079C311.379 307.797 312.318 309.866 311.136 310.253C309.701 310.725 305.513 302.69 304.627 308.441C305.481 308.912 307.728 311.031 306.948 312.245L305.573 312.579L304.124 311.048C300.892 319.403 291.928 325.421 283.913 322.503C284.63 325.164 284.571 330.15 286.825 331.671C294.052 336.548 308.755 325.023 314.453 319.896C319.197 315.623 323.874 310.228 325.706 303.598L325.699 303.595ZM217.485 332.772L215.849 335.499C212.994 334.493 216.968 331.129 217.123 329.397C217.225 328.246 216.159 325.406 216.06 323.862C216.004 322.999 216.616 322.042 216.271 321.321C216.131 321.025 213.384 318.6 212.73 317.766C209.329 313.445 205.901 305.09 199.718 304.71C195.719 304.464 190.93 311.087 188.31 314.011C190.465 314.62 192.695 315.18 194.707 316.295C206.351 322.76 207.575 345.117 219.391 349.379C222.528 350.509 227.297 350.202 229.748 347.528C229.822 347.035 227.831 344.097 227.297 343.653C224.641 341.429 219.844 342.826 219.581 337.512C218.761 338.016 218.737 339.948 217.836 340.482C217.344 340.775 216.954 340.827 216.584 340.289C215.751 338.941 218.005 336.872 218.171 335.299C218.237 334.658 218.206 332.923 217.481 332.772H217.485ZM321.739 320.782C323.976 318.242 329.191 311.08 328.474 307.385C328.337 306.674 327.763 305.798 327.137 305.52C324.194 315.416 315.008 323.133 307.285 328.436C301.198 332.614 294.041 337.167 286.719 334.356C286.726 338.262 291.119 339.261 293.922 339.261C300.924 339.261 316.721 326.48 321.739 320.786V320.782ZM230.834 350.146C224.954 353.317 218.726 353.109 213.613 348.372C203.938 339.416 202.426 317.376 187.385 316.197C185.567 316.053 183.052 320.909 183.397 321.314C187.634 319.695 192.08 323.992 194.823 327.233C203.914 337.98 210.029 363.99 227.673 355.076C229.611 354.098 230.877 352.704 230.838 350.146H230.834ZM210.1 354.489C201.979 346.627 199.004 333.62 190.585 326.065C185.771 321.743 180.513 321.641 184.733 329.876C188.816 335.077 191.777 342.492 195.681 347.591C199.219 352.215 204.712 354.534 210.1 354.489ZM136.297 336.326L110.29 329.211V331.797C111.352 331.593 111.792 332.339 112.664 332.67C120.025 335.443 128.113 337.115 135.59 339.487L136.297 336.33V336.326ZM107.829 334.75C107.002 334.567 105.761 333.817 105.191 333.166C104.565 332.448 104.597 331.523 103.967 331.192C103.074 333.486 106.854 337.885 107.829 334.75ZM147.547 343.041C146.566 348.467 141.561 347.225 142.268 341.855C140.946 342.721 141.797 345.793 142.613 346.799C144.445 349.069 147.209 346.514 147.825 344.336C147.923 343.991 148.152 342.925 147.547 343.037V343.041Z" fill="black"/>
<path d="M29.112 210.077C27.1638 210.046 25.1768 211.246 23.2953 210.443L-2.35597 196.029C-3.57277 194.174 -2.25398 193.741 -0.523736 194.547C5.91898 197.542 12.9912 202.416 19.3847 205.918C19.9685 206.238 23.9811 208.483 24.1886 208.314C23.1124 206.516 25.1381 201.842 23.8439 200.403L-1.44161 185.619C-3.52354 184.036 -2.53884 182.769 -0.0419385 183.87C8.15564 187.488 16.4798 194.495 24.6387 198.552L26.4745 198.855L160.199 177.377L156.222 175.21L140.959 170.617L140.586 169.762C140.615 168.611 144.743 166.352 145.788 165.606C144.515 164.343 135.987 161.7 135.635 160.63C135.505 160.232 135.536 159.803 135.761 159.444C136.264 158.631 151.344 153.768 153.525 153.472L153.352 152.413L154.087 151.804L184.444 159.11C184.504 159.493 184.458 159.81 184.275 160.158C183.825 161.013 175.814 165.926 174.365 166.771C172.561 167.823 166.459 171.451 164.852 171.683C164.078 171.796 163.73 171.733 162.995 171.603C158.571 170.818 153.131 167.77 148.686 166.542L144.036 169.294C151.098 170.93 157.85 173.281 164.24 176.712L186.473 173.397C187.233 173.591 187.345 174.977 186.653 175.273L165.123 178.792C166.083 180.541 166.185 182.772 166.178 184.768L184.279 181.924C185.675 181.91 186.058 182.234 185.826 183.68L165.861 186.911C163.818 193.58 160.425 198.221 161.293 205.643C161.694 209.071 164.114 212.611 164.096 216.229C164.089 217.918 162.524 223.017 160.418 222.356C158.902 221.877 161.304 219.083 161.62 218.006C162.77 214.131 159.974 210.327 159.229 206.653C157.826 199.731 161.103 193.847 163.361 187.579L140.871 191.092V224.316C140.871 224.379 140.133 225.132 139.943 225.164C139.581 225.273 138.761 224.404 138.761 224.316V191.443L38.952 207.969L38.7867 264.23C38.442 264.751 30.6524 266.651 29.4497 266.162L5.44422 253.257L4.52986 252.131L5.38091 251.304L29.1085 263.864V210.074L29.112 210.077ZM180.586 159.803L157.214 154.5L139.109 160.331C147.391 163.625 155.61 167.218 164.219 169.639C166.888 168.555 169.406 167.13 171.903 165.711C174.4 164.293 178.012 162.284 180.14 160.609C180.424 160.384 180.787 160.619 180.583 159.806L180.586 159.803ZM164.019 185.067C164.188 183.135 164.145 180.946 163.02 179.302L162.155 179.119L26.3197 200.952L25.954 208.321L164.022 185.067H164.019ZM36.8454 208.67L31.2221 209.373V264.219L36.8454 263.163V208.67Z" fill="black"/>
<path d="M102.608 139.716L144.563 135.197C148.449 134.785 152.071 136.503 155.626 137.836C164.214 141.056 177.557 146.053 185.392 150.248C187.277 151.258 188.6 152.856 185.501 152.61C172.539 147.426 159.92 141.183 146.581 137.037L102.562 141.88L103.262 146.275L129.465 158.733C131.357 162.91 127.06 164.332 123.722 164.976C108.825 167.848 93.0737 168.773 78.1345 171.754L74.5473 171.486L47.7601 157.498C44.472 155.055 45.0065 149.833 44.5775 146.092L-2.64917 150.611C-3.29274 150.442 -3.51078 149.217 -3.02195 148.869L44.2188 143.981L40.5121 111.284C40.9728 109.926 41.7359 109.321 43.0828 108.92L95.975 103.989C98.2961 104.489 98.9678 106.217 99.3581 108.339C100.29 113.424 100.255 119.868 100.807 125.171C101.31 130.017 101.876 134.901 102.608 139.716ZM101.155 145.737C100.037 136.559 98.9502 127.339 97.9936 118.14C97.6595 114.937 97.8424 111.105 97.2692 107.966C96.8366 105.608 95.1908 105.932 93.2495 106.016C88.1959 106.234 82.548 107.301 77.4311 107.769C67.9675 108.631 58.4019 109.12 48.9664 110.232C47.6968 110.383 43.1075 110.693 42.6222 111.636L47.0357 152.416L101.159 145.733L101.155 145.737ZM48.7906 154.524L75.6903 168.58C92.0819 165.638 108.794 164.138 125.171 161.151C125.685 161.056 127.872 160.813 127.858 160.331L101.331 147.831C84.011 150.013 66.6487 151.8 49.311 153.827C48.8152 153.884 48.3017 154.024 48.7906 154.528V154.524Z" fill="black"/>
<path d="M38.9499 160.856C41.7563 161.433 44.742 161.598 47.5167 162.309C48.2658 162.503 51.0581 163.069 50.8753 164.15C50.6678 165.36 41.6437 169.112 39.9979 169.812C36.7801 171.181 29.3597 174.545 26.3212 175.112C23.2827 175.678 20.9652 173.701 18.0674 173.173L8.38218 177.026C11.0162 177.614 13.6362 178.42 16.3336 178.743C17.7157 178.909 19.1189 178.673 20.501 178.796C27.8862 179.454 19.1575 182.724 17.8704 185.117L47.1967 189.347C48.0443 189.213 52.9361 183.755 53.8997 182.664C55.6299 180.707 57.5782 178.388 59.1361 176.301C59.414 175.928 61.299 173.356 61.0985 173.169C54.6452 174.172 48.1216 174.323 41.598 174.577C40.0331 174.637 32.458 175.545 31.7511 174.577C31.41 174.109 31.5893 174.028 31.9129 173.676C33.1261 172.356 45.0093 172.631 47.566 172.462C52.9396 172.103 58.2991 171.332 63.6833 171.114C66.1556 171.937 59.8219 177.955 60.3987 178.441C64.0702 178.332 67.5834 179.546 70.9243 180.922C71.6875 182.034 67.3583 184.508 66.4827 185.053C64.6539 186.193 58.2183 189.815 56.3966 189.681C55.0286 189.579 52.9853 188.396 51.4168 188.418C50.6643 188.541 49.9574 191.268 47.566 191.465C41.0283 190.649 34.4484 189.98 27.9459 188.928C25.9273 188.601 15.4966 186.978 14.6842 186.018C14.322 185.704 14.2974 185.542 14.5154 185.12C15.2504 183.695 18.194 182.143 19.2771 180.904C15.8307 180.996 12.0748 180.359 8.80771 179.243C6.62028 178.497 2.19267 176.956 6.38114 175.21L15.4087 171.765C13.369 171.371 -0.582059 163.991 -0.775481 163.09C-0.85285 162.738 -0.757897 162.235 -0.582059 161.911C0.156462 160.55 17.0545 156.108 19.6218 154.68C21.1305 154 22.9486 156.33 24.3166 156.214C25.0376 156.154 27.2813 154.627 28.3187 154.264C33.9069 152.297 41.0916 153.307 38.9569 160.863L38.9499 160.856ZM36.8258 160.138C38.7881 153.434 29.8309 155.443 26.3036 157.347L31.424 159.075L36.8293 160.141L36.8258 160.138ZM46.6798 164.378C37.6171 162.781 28.2625 161.334 20.1493 156.773L2.75184 162.795C9.75372 167.092 17.1284 170.85 25.0622 173.18L37.8843 168.408L46.6798 164.378ZM67.4181 181.601L58.8829 180.257L53.0064 186.869C54.2092 186.545 55.3873 187.51 56.372 187.559C57.8912 187.633 65.3784 183.48 66.9574 182.386C67.2634 182.171 67.608 182.446 67.4181 181.605V181.601Z" fill="black"/>
<path d="M70.9309 247.69C75.6504 248.535 81.1576 248.134 85.7681 249.196C87.5019 249.598 89.4572 250.319 86.9392 251.575C84.8573 252.613 79.7368 253.88 77.2575 254.545C73.6775 255.51 69.8758 256.618 66.1868 256.836C62.4133 253.219 58.573 250.266 53.7058 248.222C52.2006 247.588 47.6182 247.095 48.0684 245.083C48.2231 244.389 60.479 242.485 61.9561 242.401C65.6311 242.19 74.8134 241.743 70.9344 247.687L70.9309 247.69ZM69.8758 245.237C69.0529 245.072 68.4902 244.618 67.6005 244.519C64.8047 244.206 57.2929 244.755 54.6236 245.621C54.2333 245.748 53.7726 245.734 53.7093 246.286C57.2577 247.064 61.0171 249.52 63.8727 251.769C65.1985 252.814 66.1797 254.792 67.9205 254.746L81.8223 251.209L67.4211 249.274L66.7354 247.919L69.8723 245.241L69.8758 245.237Z" fill="black"/>
<path d="M82.0866 272.75C82.3152 272.982 82.4523 273.429 82.3644 273.746C82.2237 274.302 81.7806 274.527 81.3832 274.854C78.299 277.402 70.3898 281.636 66.5952 283.614C65.4945 284.187 62.5791 285.869 61.5838 286.003C59.8606 286.235 55.5878 284.951 53.7063 284.434C48.6632 283.047 43.8312 280.918 38.9288 279.151L39.2875 277.747C45.5509 276.41 51.5822 274.548 57.4552 272.015C58.9005 271.392 62.9835 268.875 64.0878 268.802C65.5507 268.703 71.5714 270.723 73.6604 271.145C75.461 271.508 81.1054 271.751 82.0795 272.747L82.0866 272.75ZM79.0129 274.066C73.7976 273.683 68.758 272.261 63.7431 270.899C57.7435 274.735 50.8014 276.135 44.2251 278.465C43.8875 278.585 43.4197 278.504 43.5217 278.979L61.2251 284.152L68.0054 280.802L79.0164 274.066H79.0129Z" fill="black"/>
<path d="M146.492 149.612C146.369 151.326 149.678 149.64 150.364 150.122C152.277 151.466 148.176 152.462 147.033 152.431C145.999 152.402 142.226 151.547 142.627 150.136C143.014 149.443 144.958 149.731 144.733 148.732C144.181 148.106 143.084 147.198 142.813 146.43C142.56 145.705 142.753 144.713 142.567 144.393C142.412 144.122 139.789 143.383 139.251 143.323C133.293 142.654 127.983 147.542 122.113 147.103C120.784 147.004 115.46 146.114 114.535 145.544C113.726 145.044 113.877 144.833 114.204 144.023C115.034 143.499 121.241 144.97 122.778 145.037C129.4 145.329 134.855 138.47 142.88 142.155C143.414 142.401 143.91 143.161 144.265 143.232C144.695 143.316 145.366 142.679 145.989 142.598C150.019 142.077 150.789 144.72 153.785 145.311C157.619 146.068 160.96 144.988 164.265 145.378C165.535 145.526 166.073 146.321 164.916 147.12C164.483 147.419 160.2 147.842 159.324 147.852C157.626 147.873 155.438 147.666 153.733 147.479C153.05 147.405 152.122 146.775 151.644 146.87C150.986 147.001 148.552 150.34 146.499 149.619L146.492 149.612ZM145.088 145.392C145.739 147.595 148.465 147.989 149.639 145.888C148.851 143.858 146.622 144.945 145.088 145.392Z" fill="black"/>
<path d="M146.423 90.997C148.428 90.8703 151.445 90.6451 153.369 90.8738C155.658 91.1448 154.445 95.973 154.582 98.0986C154.649 99.1121 154.888 100.808 155.085 101.815C155.342 103.117 157.385 107.586 156.347 108.315C151.424 109.142 146.377 109.487 141.394 109.536C141.088 109.532 140.884 109.416 140.691 109.184C140.23 108.638 139.2 102.378 139.119 101.266C138.996 99.6189 138.851 93.9319 139.273 92.6404C139.407 92.2357 139.615 91.8134 140.054 91.6621C141.187 91.282 144.999 91.092 146.423 91.0005V90.997ZM152.82 93.0064L141.222 93.3513C141.222 97.9965 140.965 102.867 142.618 107.252L154.227 106.71C153.073 102.297 151.737 97.5391 152.824 93.0029L152.82 93.0064Z" fill="black"/>
<path d="M117.03 100.33C114.782 95.0227 114.255 89.2056 113.96 83.5116L115.412 82.8324L128.568 81.5585C130.105 84.6025 129.788 88.0267 131.023 91.4297C131.568 92.9323 134.037 96.4057 133.323 97.5811C132.669 98.658 118.222 101.065 117.03 100.326V100.33ZM127.517 83.86L116.319 84.9685C116.048 89.5082 117.244 93.9282 118.415 98.2427C119.115 98.8515 131.019 96.6837 131.026 95.994C128.519 92.6156 127.721 88.0055 127.52 83.8635L127.517 83.86Z" fill="black"/>
<path d="M133.462 173.542C133.589 174.014 133.519 174.475 133.308 174.915C132.896 175.759 125.086 181.812 124.15 181.953C118.861 180.894 112.731 180.098 107.611 178.486C106.925 178.272 106.179 178.208 105.733 177.533L110.466 169.995L111.177 169.643L133.466 173.542H133.462ZM129.974 174.925L111.933 171.733L108.891 176.678L123.447 179.845C124.308 179.891 130.297 175.245 129.977 174.929L129.974 174.925Z" fill="black"/>
<path d="M123.226 109.983C125.417 109.853 129.933 109.522 131.899 109.888C132.458 109.993 132.898 110.254 133.066 110.827C133.583 112.573 131.902 121.494 131.336 123.721C131.083 124.724 130.696 127.1 129.729 127.388C128.125 127.867 121.711 126.984 119.657 126.702C118.7 126.572 115.177 126.255 114.902 125.474L117.494 110.926C117.962 110.124 122.041 110.05 123.226 109.979V109.983ZM131.034 111.989L119.08 112.341C119.284 116.43 118.194 120.438 116.974 124.292L128.906 125.33L131.034 111.985V111.989Z" fill="black"/>
<path d="M77.2845 177.057L91.1089 174.918C93.1944 176.491 98.9373 178.609 100.446 180.369C101.955 182.128 98.881 182.765 97.6361 183.177C95.6631 183.828 89.0094 185.686 87.3003 185.45C86.4879 185.341 83.5971 183.8 82.7707 183.283C81.582 182.54 76.328 178.479 77.2845 177.054V177.057ZM97.6361 181.245L90.4021 177.029L80.4145 178.44C81.7192 180.151 85.5771 183.149 87.6625 183.342C90.2755 183.582 94.8297 181.375 97.6361 181.245Z" fill="black"/>
<path d="M112.746 238.906C112.802 239.472 112.824 239.715 112.395 240.134C111.185 241.32 104.967 240.338 103.247 239.793C100.413 238.899 98.6686 235.158 96.3757 235.059C94.0546 234.961 86.3881 238.698 84.6121 238.008C84.3448 237.903 83.8489 237.326 83.9263 236.977C84.183 236.59 84.5804 236.446 84.9813 236.266C86.2368 235.707 93.0207 233.701 94.452 233.437C100.423 232.343 99.8256 236.291 103.504 237.776C106.1 238.825 109.968 238.853 112.743 238.906H112.746Z" fill="black"/>
<path d="M131.663 146.877C134.188 146.782 140.118 148.362 138.071 151.913C136.21 155.137 127.549 153.627 125.569 151.378C122.966 148.426 129.673 146.955 131.667 146.877H131.663ZM135.845 150.048C134.03 148.295 129.553 149.045 127.503 150.132C127.503 150.657 135.12 152.758 136.14 151.019C136.33 150.794 135.992 150.189 135.841 150.048H135.845Z" fill="black"/>
<path d="M232.149 30.7247C232.856 30.5874 234.85 30.3657 235.258 30.9992C237.189 34.001 225.337 42.5032 225.914 36.394C226.15 33.9201 230.134 31.1188 232.149 30.7282V30.7247Z" fill="black"/>
<path d="M288.653 212.702C288.164 212.533 288.034 211.53 288.105 210.978C288.147 210.756 288.931 210.33 289.005 210.33H305.875C306.571 210.33 306.571 212.698 305.875 212.698H288.653V212.702Z" fill="black"/>
<path d="M233.557 44.5335C236.845 43.7769 234.883 47.9963 233.799 49.5588C230.244 54.6897 225.964 50.6216 230.866 46.2649C231.464 45.7335 232.853 44.6954 233.557 44.5335Z" fill="black"/>
<path d="M43.8671 179.141L42.6292 180.886L37.5474 184.412C37.3013 183.093 38.2437 182.371 39.137 181.611C39.8298 181.02 43.2129 178.359 43.8706 179.144L43.8671 179.141Z" fill="black"/>
<path d="M48.0377 182.262C46.0543 183.177 44.8128 185.725 42.4636 185.82C41.5352 184.894 46.7295 181.639 47.2148 180.904L48.0799 181.431L48.0377 182.266V182.262Z" fill="black"/>
<path d="M33.5361 176.353L34.3696 176.85C34.4188 177.631 30.9583 180.133 30.1776 180.39C29.4777 180.619 29.221 180.654 28.7603 180.017L33.5361 176.353Z" fill="black"/>
<path d="M34.0338 181.949C33.2074 181.118 36.7769 178.947 37.3149 178.725C37.7334 178.553 38.1308 178.377 38.2469 178.968C38.268 180.031 34.4488 182.368 34.0338 181.949Z" fill="black"/>
<path d="M280.689 145.625L284.867 154.489C283.893 166.127 285.908 177.754 285.982 189.36C283.362 190.05 280.847 191.208 278.224 191.898C258.28 197.131 238.537 194.083 219.325 187.136C215.042 185.588 206.855 182.744 203.183 180.394C202.568 180 201.745 179.377 201.671 178.532C204.453 166.852 207.92 155.401 210.287 143.591C214.043 124.841 215.119 105.457 219.926 86.957C219.761 86.3095 218.66 86.0772 218.235 86.3728C216.227 87.7594 211.033 123.229 210.811 128.184C207.28 127.842 203.683 125.696 200.855 123.373C199.445 122.215 194.796 117.735 195.056 115.832C201.323 104.732 206.401 91.9894 213.336 81.4496C220.77 70.1461 232.872 63.4034 245.434 62.228C256.033 61.2356 278.168 71.3074 286.685 78.6519C299.831 89.987 300.552 113.396 306.682 129.665C307.118 131.284 306.07 131.981 305.11 132.85C299.852 137.615 285.905 142.334 279.177 142.809C276.191 143.02 274.816 143.58 274.166 140.117C271.95 128.282 271.778 116.261 270.512 104.335C270.255 101.92 268.722 100.221 268.426 103.085C268.039 106.858 268.813 113.688 269.147 117.718C269.689 124.218 270.673 136.63 272.407 142.489C273.74 147.001 277.366 145.164 280.686 145.628L280.689 145.625ZM245.599 64.9941C245.412 66.2117 246 66.5742 246.918 66.8663C249.123 67.5666 260.967 70.3185 262.645 70.1602C264.227 70.0124 264.245 68.9742 262.908 68.2458C257.109 67.4012 251.479 64.9202 245.595 64.9941H245.599ZM243.665 176.762C245.56 176.977 247.709 176.604 249.64 176.762C251.25 174.661 248.106 175.34 246.872 175.133C235.727 173.274 226.454 167.739 218.706 158.596C216.336 158.001 220.071 162.784 220.415 163.196C225.346 169.083 236.497 175.945 243.665 176.762ZM259.307 184.659C262.634 184.029 266.091 181.97 268.904 179.848C270.35 178.757 277.299 172.476 276.877 170.646C276.775 170.199 276.297 169.959 275.818 170.237C274.795 170.832 271.25 175.316 269.615 176.695C266.481 179.341 262.94 181.365 259.367 183.146L259.307 184.659Z" fill="#F9D483"/>
<path d="M281.447 193.351C282.393 194.857 278.264 213.382 277.557 216.426C272.205 239.487 265.231 261.281 252.919 280.763C243.42 295.79 232.638 309.761 221.528 323.285C220.579 321.184 219.7 319.171 218.483 317.239C215.135 311.915 206.575 302.152 200.706 301.28C198.518 300.956 197.266 301.259 195.35 302.36C195.163 299.203 196.971 296.29 198.363 293.706C202.988 285.127 208.942 275.435 214.038 267.088C217.02 262.203 222.049 256.706 223.297 251.033C224.718 244.586 225.474 237.569 226.863 230.95C228.703 222.191 231.33 213.572 232.947 204.813C230.872 204.373 231.284 206.291 230.317 207.569C227 205.429 223.642 203.303 220.533 200.798C219.408 199.89 217.815 197.817 216.689 197.215C216.183 196.944 215.49 196.818 215.377 197.514C214.998 199.865 227.232 208.976 229.786 209.567L222.939 238.382C214.361 225.312 207.539 209.465 208.354 192.771C208.46 190.575 209.012 188.09 209.054 185.852C231.97 195.361 257.389 201.213 281.447 193.358V193.351ZM227.683 251.406C230.373 252.36 233.464 252.409 236.288 252.198C237.839 252.082 243.083 251.234 244.299 250.537C245.319 249.953 245.228 248.816 243.927 248.894C241.18 249.063 238.043 249.992 235.237 250.224C233.211 250.389 230.391 249.854 228.565 250.231C227.964 250.354 227.581 250.65 227.686 251.41L227.683 251.406Z" fill="black"/>
<path d="M279.698 216.655L282.512 224.742C290.414 246.033 293.625 269.083 299.902 290.902C300.859 294.227 301.974 295.652 303.064 298.408C306.679 307.537 297.606 314.719 291.177 317.827C287.984 319.371 281.474 322.123 279.048 318.284L258.974 275.294C263.673 267.886 266.834 259.55 269.764 251.107C273.653 239.899 277.1 228.321 279.695 216.651L279.698 216.655ZM287.534 307.998C287.333 308.247 287.312 308.638 287.084 308.877C287.344 310.584 291.434 307.533 292.106 307.026C294.546 305.172 296.92 302.529 297.972 299.407C297.585 298.936 297.528 298.637 296.909 298.996C295.9 299.58 293.213 303.363 292 304.538C290.892 305.608 288.198 307.171 287.534 308.001V307.998Z" fill="black"/>
<path d="M199.91 203.225C196.091 203.7 195.553 194.473 198.714 194.16C203.321 193.702 200.181 196.915 199.935 198.706C199.741 200.121 200.026 201.775 199.91 203.225Z" fill="white"/>
<path d="M290.234 57.4907L288.958 61.3829C286.714 61.4709 284.565 61.7559 282.501 60.6403C284.171 57.9271 287.354 56.2379 290.234 57.4907Z" fill="white"/>
<path d="M195.437 202.009C190.211 203.589 192.806 191.94 195.254 192.433C196.499 192.683 194.944 195.512 194.818 196.322C194.526 198.204 194.646 200.302 195.437 202.009Z" fill="white"/>
<path d="M191.565 192.436C190.855 195.42 189.585 198.038 190.51 201.209C185.017 201.744 189.663 190.5 191.565 192.436Z" fill="white"/>
<path d="M164.014 185.067L25.9461 208.321L26.3118 200.952L162.147 179.12L163.012 179.303C164.137 180.946 164.18 183.131 164.011 185.067H164.014Z" fill="white"/>
<path d="M36.8413 208.67V263.164L31.218 264.219V209.373L36.8413 208.67Z" fill="white"/>
<path d="M180.582 159.803C180.783 160.616 180.42 160.384 180.139 160.605C178.011 162.28 174.34 164.322 171.903 165.708C169.466 167.095 166.888 168.555 164.219 169.635C155.61 167.214 147.391 163.621 139.109 160.327L157.213 154.496L180.586 159.799L180.582 159.803ZM168.632 159.81C165.221 159.324 161.514 158.378 158.082 158.209C157.491 158.181 157.185 157.797 156.682 158.578C156.549 159.215 157.364 159.423 157.794 159.571C159.003 159.986 168.284 161.408 168.629 160.855V159.81H168.632ZM162.657 164.019C162.784 163.822 162.713 162.956 162.306 162.794C161.838 162.47 153.922 161.137 152.99 161.186C152.353 161.218 151.836 161.123 151.421 161.738C151.432 162.397 162.316 164.55 162.661 164.019H162.657Z" fill="white"/>
<path d="M48.7929 154.524C48.3041 154.024 48.8175 153.884 49.3134 153.824C66.651 151.797 84.0133 150.012 101.333 147.827L127.86 160.327C127.874 160.809 125.687 161.056 125.174 161.147C108.796 164.135 92.0878 165.634 75.6926 168.576L48.7929 154.52V154.524ZM95.4639 150.062C83.317 151.005 70.8079 153.56 58.7207 155.143C57.518 155.509 57.9365 156.709 58.879 156.931C59.0548 156.973 61.7487 156.681 62.3184 156.632C66.7882 156.248 71.2686 155.157 75.7278 154.577C83.6476 153.546 91.599 152.712 99.5152 151.656C101.653 149.33 96.8952 149.953 95.4639 150.062ZM107.832 152.075C107.755 151.955 105.961 151.607 105.568 151.705C92.1828 154.239 77.764 154.862 64.4707 157.382C61.0348 158.033 62.0793 159.602 65.4835 159.447C76.4945 158.941 92.2707 156.087 103.384 154.123C104.273 153.964 108.842 153.637 107.832 152.078V152.075ZM113.104 155.238C112.925 154.957 110.333 154.763 109.77 154.886C98.5024 156.896 87.0237 157.681 75.7348 159.511C74.4372 159.722 70.6531 160.13 69.781 160.587C69.1831 160.901 69.0706 161.024 69.1796 161.735L70.3894 162.284C83.6405 160.309 97.6232 159.43 110.769 156.938C111.409 156.815 113.923 156.505 113.108 155.242L113.104 155.238ZM96.8601 160.602C94.0642 160.915 91.286 162.21 88.3811 161.963L87.9521 162.238C87.2417 164.286 88.9016 164.11 90.449 164.036C92.9776 163.913 95.6749 162.882 98.1718 162.622C100.088 162.424 103.609 163.484 104.316 161.393C104.013 160.081 98.0874 160.464 96.8601 160.602Z" fill="white"/>
<path d="M101.152 145.737L47.029 152.42L42.6154 111.64C43.1007 110.693 47.6901 110.384 48.9597 110.236C58.3916 109.124 67.9608 108.635 77.4244 107.773C82.5413 107.308 88.1892 106.242 93.2428 106.02C95.184 105.936 96.8299 105.608 97.2624 107.97C97.8357 111.109 97.6563 114.941 97.9869 118.143C98.9435 127.346 100.03 136.563 101.148 145.741L101.152 145.737ZM49.1531 149.235L98.3456 143.464L95.3739 108.804L45.6715 113.094L49.1531 149.235Z" fill="white"/>
<path d="M46.6758 164.378L37.8804 168.408L25.0583 173.179C17.1245 170.85 9.75332 167.091 2.74792 162.795L20.1454 156.773C28.2585 161.338 37.6131 162.78 46.6758 164.378ZM20.6694 160.507C17.9755 161.274 15.0953 162.024 12.4999 163.065C12.1377 163.21 11.2444 163.22 11.5398 163.84C11.9724 164.48 12.3628 164.375 13.0204 164.301C13.8855 164.206 22.2203 162.112 20.6729 160.507H20.6694ZM24.1826 163.319C23.8837 163.023 17.9017 164.888 17.666 165.416L17.8595 166.479C18.0951 166.666 23.1452 165.019 23.6164 164.681C24.2213 164.248 24.2776 164.072 24.1826 163.319ZM31.9054 165.085C31.508 164.769 25.1392 166.996 24.2811 167.454C23.2577 167.999 23.8731 169.006 24.9739 168.883C25.5999 168.812 32.236 166.352 32.2501 165.958L31.9054 165.085Z" fill="white"/>
<path d="M67.4115 181.601C67.6014 182.442 67.2602 182.171 66.9508 182.382C65.3717 183.48 57.8845 187.633 56.3653 187.555C55.3806 187.506 54.2025 186.542 52.9998 186.865L58.8763 180.253L67.4115 181.597V181.601Z" fill="white"/>
<path d="M36.8189 160.138L31.4136 159.072L26.2932 157.344C29.8205 155.443 38.7777 153.43 36.8154 160.134L36.8189 160.138Z" fill="white"/>
<path d="M69.8757 245.237L66.7387 247.915L67.4245 249.27L81.8257 251.206L67.9239 254.742C66.1831 254.788 65.1984 252.81 63.8761 251.765C61.0205 249.516 57.2646 247.064 53.7126 246.282C53.7759 245.73 54.2366 245.744 54.627 245.617C57.2962 244.755 64.8116 244.206 67.6039 244.516C68.4936 244.614 69.0528 245.068 69.8792 245.234L69.8757 245.237Z" fill="white"/>
<path d="M79.0108 274.065L67.9999 280.801L61.2195 284.151L43.5161 278.978C43.4141 278.503 43.8819 278.584 44.2195 278.464C50.7958 276.131 57.7379 274.734 63.7375 270.898C68.756 272.26 73.792 273.682 79.0073 274.065H79.0108Z" fill="white"/>
<path d="M145.084 145.392C146.618 144.945 148.851 143.857 149.635 145.888C148.46 147.989 145.731 147.595 145.084 145.392Z" fill="white"/>
<path d="M152.817 93.0063C151.73 97.539 153.07 102.297 154.22 106.713L142.611 107.255C140.962 102.87 141.215 97.9964 141.215 93.3547L152.813 93.0098L152.817 93.0063Z" fill="white"/>
<path d="M127.515 83.859C127.716 88.0046 128.511 92.6147 131.022 95.9895C131.018 96.6793 119.11 98.8471 118.41 98.2383C117.239 93.9238 116.047 89.5037 116.314 84.9641L127.512 83.8555L127.515 83.859Z" fill="white"/>
<path d="M129.976 174.925C130.296 175.242 124.307 179.887 123.445 179.841L108.889 176.674L111.931 171.729L129.972 174.921L129.976 174.925Z" fill="white"/>
<path d="M131.031 111.989L128.903 125.333L116.971 124.295C118.191 120.441 119.278 116.43 119.077 112.344L131.031 111.992V111.989Z" fill="white"/>
<path d="M97.6408 181.245C94.8345 181.375 90.2838 183.582 87.6673 183.342C85.5819 183.149 81.724 180.15 80.4193 178.44L90.4069 177.029L97.6408 181.245Z" fill="white"/>
<path d="M135.848 150.048C135.996 150.192 136.333 150.794 136.147 151.019C135.127 152.757 127.51 150.656 127.51 150.132C129.56 149.045 134.037 148.295 135.852 150.048H135.848Z" fill="white"/>
<path d="M243.661 176.762C236.494 175.945 225.346 169.083 220.412 163.196C220.067 162.784 216.333 158.001 218.703 158.596C226.45 167.739 235.724 173.274 246.869 175.133C248.103 175.34 251.247 174.661 249.636 176.762C247.706 176.604 245.557 176.977 243.661 176.762Z" fill="black"/>
<path d="M259.312 184.659L259.372 183.145C262.945 181.365 266.486 179.341 269.62 176.695C271.255 175.315 274.8 170.832 275.823 170.237C276.305 169.959 276.78 170.199 276.882 170.645C277.304 172.472 270.355 178.754 268.909 179.848C266.096 181.97 262.639 184.029 259.312 184.659Z" fill="black"/>
<path d="M245.6 64.9945C251.484 64.9206 257.114 67.4016 262.913 68.2462C264.25 68.9747 264.229 70.0128 262.65 70.1606C260.969 70.319 249.128 67.5635 246.923 66.8667C246.005 66.5746 245.417 66.2157 245.604 64.9945H245.6Z" fill="black"/>
<path d="M227.675 251.406C227.569 250.646 227.952 250.35 228.554 250.227C230.382 249.854 233.199 250.389 235.225 250.22C238.031 249.987 241.172 249.058 243.915 248.89C245.216 248.809 245.308 249.945 244.288 250.533C243.071 251.23 237.831 252.078 236.277 252.194C233.453 252.405 230.361 252.356 227.671 251.402L227.675 251.406Z" fill="black"/>
<path d="M149.625 247.725L149.379 249.71C138.076 269.752 127.877 290.42 116.676 310.514C115.636 312.386 112.108 319.287 110.997 320.311C109.805 321.406 108.606 320.276 109.513 318.816L147.592 248.278C148.204 247.472 148.707 247.321 149.625 247.729V247.725Z" fill="black"/>
<path d="M166.044 251.251C168.565 250.403 166.979 253.44 166.473 254.499C155.448 277.697 141.405 300.216 130.391 323.524C129.874 325.255 127.577 325.396 128.003 323.629C128.386 322.045 131.305 317.038 132.248 315.183C142.552 294.99 153.144 273.372 164.352 253.781C164.651 253.26 165.668 251.371 166.04 251.247L166.044 251.251Z" fill="black"/>
<path d="M285.933 38.2347C286.742 39.1848 286.791 42.4752 285.117 42.8553C280.05 44.0061 283.911 35.8628 285.933 38.2347Z" fill="black"/>
<path d="M273.016 42.4783L274.085 42.6508C274.665 43.1294 274.637 49.1964 273.891 49.1823C272.235 47.5564 272.467 44.6813 273.019 42.4783H273.016Z" fill="black"/>
<path d="M260.012 40.9024L261.411 40.3042C260.901 39.1534 258.257 38.1821 258.243 37.151C258.197 33.8712 264.731 39.1675 262.797 42.2432C261.932 43.6157 259.699 42.5599 260.015 40.8989L260.012 40.9024Z" fill="black"/>
<path d="M168.629 159.809V160.855C168.28 161.407 159 159.985 157.79 159.57C157.361 159.422 156.549 159.215 156.679 158.578C157.178 157.796 157.488 158.18 158.078 158.208C161.511 158.377 165.217 159.32 168.629 159.809Z" fill="black"/>
<path d="M162.661 164.019C162.319 164.551 151.432 162.393 151.421 161.739C151.836 161.123 152.356 161.218 152.989 161.186C153.921 161.137 161.841 162.471 162.305 162.795C162.71 162.957 162.784 163.822 162.657 164.019H162.661Z" fill="black"/>
<path d="M107.83 152.075C108.836 153.634 104.271 153.964 103.381 154.119C92.268 156.083 76.4883 158.937 65.4808 159.444C62.0766 159.602 61.0321 158.029 64.468 157.378C77.7649 154.858 92.1801 154.235 105.565 151.702C105.959 151.603 107.752 151.951 107.83 152.071V152.075Z" fill="black"/>
<path d="M113.103 155.239C113.918 156.506 111.407 156.815 110.764 156.935C97.6182 159.427 83.6356 160.303 70.3844 162.281L69.1746 161.732C69.0691 161.021 69.1781 160.894 69.776 160.584C70.6481 160.127 74.4322 159.719 75.7299 159.507C87.0187 157.678 98.5009 156.896 109.765 154.883C110.328 154.76 112.916 154.954 113.099 155.235L113.103 155.239Z" fill="black"/>
<path d="M95.4588 150.061C96.8937 149.949 101.648 149.326 99.5102 151.656C91.5904 152.711 83.6425 153.545 75.7228 154.576C71.267 155.157 66.7831 156.248 62.3133 156.632C61.7436 156.681 59.0498 156.969 58.8739 156.931C57.9314 156.709 57.513 155.509 58.7157 155.143C70.8028 153.559 83.3119 151.005 95.4588 150.061Z" fill="black"/>
<path d="M96.8614 160.602C98.0923 160.465 104.018 160.081 104.317 161.394C103.61 163.481 100.093 162.422 98.1732 162.622C95.6763 162.879 92.9789 163.914 90.4503 164.037C88.903 164.114 87.2395 164.287 87.9534 162.239L88.3825 161.964C91.2873 162.21 94.0656 160.919 96.8614 160.602Z" fill="black"/>
<path d="M49.1551 149.235L45.6735 113.093L95.376 108.803L98.3476 143.463L49.1551 149.235ZM93.4207 110.58L47.7308 114.8L50.8959 147.148L96.5857 141.869L93.4207 110.58Z" fill="black"/>
<path d="M20.672 160.507C22.2193 162.115 13.8846 164.205 13.0195 164.3C12.3618 164.374 11.9715 164.48 11.5389 163.839C11.247 163.22 12.1403 163.209 12.499 163.065C15.0944 162.023 17.9746 161.274 20.6684 160.507H20.672Z" fill="black"/>
<path d="M31.9058 165.085L32.2505 165.957C32.2399 166.352 25.6003 168.815 24.9743 168.882C23.8771 169.005 23.2581 167.999 24.2815 167.453C25.1396 166.996 31.5049 164.768 31.9058 165.085Z" fill="black"/>
<path d="M24.1843 163.318C24.2792 164.072 24.223 164.248 23.6181 164.68C23.1468 165.018 18.0968 166.665 17.8611 166.479L17.6677 165.416C17.9069 164.888 23.8889 163.023 24.1843 163.318Z" fill="black"/>
<path d="M93.4224 110.58L96.5839 141.869L50.8941 147.148L47.7325 114.8L93.4224 110.58Z" fill="white"/>
</svg>
