<svg width="257" height="241" viewBox="0 0 257 241" fill="none" xmlns="http://www.w3.org/2000/svg">
<path d="M224.138 233.975L255.357 234.051L256.278 235.203L223.868 235.146C217.475 239.907 210.256 242.48 202.211 239.35C200.387 238.64 198.121 236.317 196.854 235.856C193.225 234.531 185.833 236.951 181.686 235.683L180.246 238.429L160.701 238.026L160.624 235.645C155.785 235.683 150.908 236.183 146.051 236.202C127.888 236.279 109.532 235.53 91.4076 235.722C86.4731 235.779 81.7306 237.488 77.7753 237.469C75.1257 237.469 73.5131 236.048 71.2091 235.856C65.7371 235.395 57.4811 235.99 51.5867 235.99C40.3931 235.971 29.2379 236.278 18.0443 236.586C18.2747 233.206 23.1325 235.165 25.3981 235.165C36.2845 235.126 47.2094 235.223 58.0766 235.184C61.8974 235.184 65.8906 235.011 69.6538 234.454C61.993 227.101 55.0235 218.48 49.1483 209.629C45.5579 204.214 40.4698 192.541 37.129 188.624C35.881 187.165 31.1773 185.13 29.1997 183.574C19.1388 175.702 14.934 159.075 8.00276 148.381C6.88916 143.85 8.96259 144.445 9.74979 141.91C10.1722 140.586 9.63472 137.994 11.3243 136.918C14.5115 134.864 16.9306 137.782 19.369 139.299C19.9642 139.664 20.9821 139.395 21.5389 139.722C24.7453 141.565 32.7707 155.715 38.1851 159.747C45.8843 165.488 41.046 159.133 40.6812 155.197C40.0284 148.362 45.9803 143.984 49.1675 151.664C50.3771 154.582 50.5883 157.75 52.0859 160.861C53.6795 164.182 56.79 166.678 57.9036 170.038C59.0172 173.398 58.1722 175.568 59.6506 178.659C60.7066 180.867 69.9228 192.003 71.7852 192.79C73.6476 193.578 75.7402 190.659 76.393 189.047C76.393 188.739 71.4014 186.704 72.9566 184.746C82.7294 171.728 88.9499 154.736 102.428 145.002C108.88 140.336 116.464 137.61 123.107 133.29C119.939 129.392 116.06 125.379 114.313 120.541C109.532 107.254 116.08 86.9408 118.441 73.2512C119.286 68.4128 117.865 66.8383 121.014 61.8847C139.868 32.3166 182.358 48.0223 184.835 81.1423C184.95 82.7743 183.836 84.3103 184.547 86.3839C185.737 89.8207 198.563 97.3472 199.888 104.432C201.769 114.474 190.48 111.939 185.104 112.976C183.529 113.283 181.84 114.666 180.131 115.242C178.806 115.683 176.944 115.318 175.945 115.933C174.563 116.797 173.948 127.472 174.908 128.778C188.08 133.75 200.982 138.723 210.717 149.302C219.242 144.483 229.244 141.411 235.734 133.712C237.558 131.542 241.226 124.515 243.798 124.035C245.123 123.786 250.902 129.238 251.248 130.621C251.766 132.714 250.653 134.269 250.922 135.824C251.133 137.053 252.4 137.418 252.707 138.301C253.744 141.258 248.156 154.256 246.256 157.309C241.206 165.411 232.988 169.731 225.731 175.491C225.75 179.024 225.77 182.595 225.981 186.109C226.672 197.014 228.957 208.343 228.361 219.287C228.073 224.643 226 229.136 224.138 234.013V233.975ZM182.512 83.2735C184.336 60.7327 159.817 42.2239 138.659 49.5967C131.267 52.1695 121.801 60.6942 120.227 68.5855C120.073 69.3727 120.38 69.7567 121.11 69.3919C121.993 68.9695 124.201 64.707 125.661 63.3054C134.512 54.8574 155.017 54.1855 156.534 69.2575C166.172 71.9455 174.236 77.9743 182.512 83.2543V83.2735ZM154.633 68.2206C151.062 54.627 130.307 57.5839 124.317 67.8175C129.597 67.7983 134.704 66.3199 140.041 66.3391C144.822 66.3391 149.929 67.5102 154.633 68.2206ZM160.412 113.187C166.672 109.578 169.302 102.243 170.665 95.4847C171.337 92.0863 172.912 80.3743 171.088 77.9935C169.456 75.8815 155.497 70.5439 152.329 69.7951C143.824 67.7791 133.359 67.7983 124.892 70.0639C123.702 70.3711 121.782 70.7167 120.918 71.5231C119.728 72.6367 118.48 80.3936 118.019 82.6016C116.944 87.9008 114.255 99.6703 114.332 104.47C114.39 107.178 115.984 109.443 117.558 111.478L129.193 104.202C124.969 98.0768 129.078 96.3488 131.958 91.5872C132.88 90.0704 133.379 88.3232 134.224 86.7872C134.646 86 134.07 85.2895 135.664 85.5583C136.393 92.9887 123.145 99.1903 133.168 104.585C139.139 107.792 146.819 102.742 153.577 104.221C157.187 105.027 159.568 109.942 160.432 113.206L160.412 113.187ZM185.91 111.69C189.865 111.958 199.158 111.306 198.736 105.642C198.467 101.955 189.136 92.0672 186.006 89.6864C185.315 89.168 184.988 88.2847 183.894 88.5727C183.145 91.9711 186.198 92.6047 187.581 94.7743C191.056 100.227 188.252 106.506 185.891 111.69H185.91ZM180.957 94.1599C179.69 94.4479 177.846 95.7919 177.04 96.8479C175.35 99.0176 172.163 109.328 172.892 111.747C174.044 115.453 180.899 113.149 183.184 111.21C188.406 106.794 189.75 92.1247 180.938 94.1791L180.957 94.1599ZM151.926 108.752C149.372 109.174 147.625 111.459 145.244 112.573C141.232 114.435 137.91 115.03 133.571 113.994C132.457 113.725 127.676 110.96 128.31 112.861C130.96 120.886 149.334 115.894 151.926 108.771V108.752ZM131.555 137.418C131.382 150.109 145.955 152.163 155.747 149.341C163.945 146.979 172.278 138.454 172.854 129.699C172.988 127.741 172.547 125.744 172.662 123.766C172.701 123.037 174.41 112.266 172.317 113.974C167.248 131.158 149.103 141.872 131.555 137.418ZM234.218 149.802C233.891 149.494 237.385 144.675 237.865 143.734C239.766 140.106 240.477 136.131 242.397 132.464C243.203 130.928 246.179 127.626 245.852 126.512C245.142 124.035 241.706 127.741 240.918 128.797C237.731 133.078 232.97 147.728 227.939 149.418C227.19 149.667 226.749 149.322 227.037 148.573C227.344 147.805 231.529 143.504 232.624 141.718C233.2 140.778 234.793 139.03 234.083 137.917C227.459 144.464 212.905 147.402 207.376 154.371C201.097 162.282 200.713 182.672 198.621 193.29C197.795 197.437 195.606 208.784 194.108 212.048C193.897 212.509 193.686 213.104 193.091 213.104L194.454 201.757L189.731 203.466C190.71 215.523 191.382 237.526 207.357 238.736C212.042 239.082 215.517 238.89 219.126 235.914C229.629 227.255 226 210.301 225.212 198.589C224.713 191.178 224.425 183.728 223.849 176.317C222.044 176.374 220.988 178.198 219.376 178.736C218.531 179.024 217.782 179.235 217.974 178.007C229.494 170.134 242.032 164.24 247.811 150.685C248.771 148.419 253.129 137.955 249.424 137.437C245.181 136.822 242.742 146.979 240.745 149.84C239.939 150.992 234.333 156.752 233.238 155.754C232.989 154.717 233.718 154.275 234.332 153.622C236.214 151.664 238.326 150.493 239.978 147.978C241.782 145.213 242.512 140.931 244.259 138.762C245.507 137.206 248.886 136.285 249.212 135.786C250.326 134.115 249.923 128.317 246.966 129.181C244.086 130.026 239.958 143.293 237.789 146.518C237.366 147.133 235.024 150.531 234.198 149.782L234.218 149.802ZM204.112 145.136C196.412 138.301 183.99 134.538 174.409 131.12C172.451 140.394 163.561 149.706 154.172 151.318C146.646 152.605 135.164 151.875 131.267 144.195C129.443 140.605 130.979 134.634 125.833 134.71C123.817 134.749 111.664 141.181 109.148 142.659C91.7147 152.912 85.6475 169.174 74.5114 185.034C74.3962 185.974 75.7209 186.685 76.3354 187.184C82.7674 192.426 93.2314 195.286 99.3754 201.565C100.335 193.616 100.95 185.552 102.39 177.68C103.024 174.147 103.6 168.867 105.846 166.275L97.5707 234.339L161.392 234.474C164.06 229.463 161.872 223.664 161.181 218.403L178.365 217.194L180.995 233.783L195.606 234.397C189.52 225.911 189.193 214.429 187.984 204.368L185.046 205.059L181.801 180.81C183.299 180.253 183.453 182.538 183.606 183.478C184.662 189.795 185.181 196.304 186.141 202.64L195.779 198.704C199.178 187.088 198.793 173.936 201.769 162.397C203.036 157.501 205.091 154.506 208.547 150.934C208.701 149.994 204.956 145.942 204.054 145.155L204.112 145.136ZM29.5451 160.074C28.1435 160.304 27.4525 158.691 26.8573 157.731C24.8605 154.448 23.6891 149.955 21.8459 146.48C20.0603 143.12 16.4315 136.112 11.8043 138.685C10.3451 140.893 14.9722 142.947 16.4314 144.906C18.8506 148.17 20.9818 154.083 23.2282 157.962C24.7642 160.611 28.5851 167.446 30.4667 169.29C33.6347 172.4 45.0396 169.654 47.3052 174.627C48.3996 177.008 44.7708 174.032 44.5212 173.917C40.2396 172.016 37.3786 172.899 33.289 172.419C27.7978 171.766 21.8457 157.078 18.7929 152.72C16.7193 152.586 13.7241 153.699 13.9545 156.138C19.0617 163.933 21.9228 175.818 29.142 181.808C32.4444 184.554 37.2637 186.378 40.7005 189.123L39.5867 190.275C44.8667 199.952 50.5691 209.379 57.2891 218.134C61.6667 223.837 70.0765 235.415 77.6797 235.683C85.0717 235.933 95.8811 225.45 97.5707 218.557C98.2043 215.965 99.3565 206.634 98.7613 204.407C97.6861 200.336 82.1531 192.656 77.9675 190.544C77.0459 191.83 73.6284 193.309 74.2236 194.998C76.4316 196.688 78.755 198.397 80.6366 200.47C81.2702 201.162 83.1326 202.928 82.5374 203.965C77.2958 199.568 71.3053 195.21 66.5821 190.275C64.6045 188.221 58.2492 180.81 57.4236 178.544C56.4636 175.914 57.1548 173.552 56.4252 170.998C55.5996 168.138 51.7789 164.778 50.3197 161.533C49.1293 158.902 47.8235 150.646 45.8459 149.667C42.1787 147.843 42.2556 155.389 42.6012 157.501C42.7932 158.73 45.4812 163.76 42.6012 163.702C35.6508 163.587 26.6075 147.613 21.8459 143.139L29.5836 160.093L29.5451 160.074ZM17.929 150.973C17.1802 147.728 15.4331 144.56 12.3035 143.082C6.62034 144.253 10.7865 150.186 12.0729 153.565L17.9098 150.973H17.929ZM162.428 236.778C165.174 236.298 178.23 238.006 179.382 236.221C179.997 234.032 177.596 219.306 176.675 218.71L162.985 219.536C162.409 220.15 164.521 228.618 164.425 230.346C164.329 232.458 162.16 234.531 162.409 236.797L162.428 236.778ZM86.3005 234.743L94.9021 234.435C96.8797 231.498 96.3612 227.581 97.206 224.24C94.0572 228.483 90.2365 231.325 86.3005 234.743Z" fill="black"/>
<path d="M58.4614 43.5107C57.175 44.8931 54.314 45.9492 52.4516 46.2372C45.674 47.2932 38.1667 47.0243 31.3123 48.2339C29.9875 49.5779 26.0134 58.314 24.4198 58.0068C21.7894 55.9332 23.4788 51.3635 22.3076 49.1555C21.2516 47.1587 16.2981 47.4275 15.2421 41.3411C14.2629 35.6003 12.7075 21.3923 13.0531 15.8819C13.4179 9.94912 17.2386 8.18266 22.5954 7.54906C31.6578 6.47386 41.8916 6.85789 51.0692 5.89789C58.0964 6.30109 58.9031 11.2355 59.4983 17.1875C59.9975 22.1411 60.9765 31.5298 60.7269 36.1762C60.6117 38.4418 59.9782 41.8212 58.423 43.4916L58.4614 43.5107ZM24.6307 55.6259L31.2547 46.602C39.5299 45.546 48.2467 45.7187 56.2339 43.4531C57.8083 42.4355 58.9219 39.9395 59.0755 38.0579C59.4211 34.0259 58.8839 26.8259 58.5383 22.5827C58.3079 19.7795 57.9429 14.5378 57.4053 12.0802C56.7909 9.25784 53.9684 7.16502 51.0884 7.14582C49.9748 7.14582 48.8419 7.79861 47.6131 7.85621C39.3187 8.18261 26.4547 7.62585 18.7939 9.69946C16.1635 10.4099 14.8388 12.6563 14.57 15.2291C16.202 21.8339 14.5702 40.4195 18.6214 45.1043C19.9846 46.6787 21.9046 46.7364 23.4598 47.9268L24.6307 55.6259Z" fill="black"/>
<path d="M190.173 29.4208L195.972 0.217529L236.503 7.68637L237.386 8.55039L233.009 28.9984C229.783 33.0496 222.64 36.1024 217.456 35.5648C208.816 34.6816 198.909 30.784 190.173 29.4208ZM235.696 8.87676L196.222 1.33116L191.268 27.8848L219.952 34.336L221.527 27.1744L231.358 28.6335L235.696 8.85754V8.87676ZM229.918 29.8816L222.18 28.9791L221.143 33.76C221.642 34.1056 225.578 32.4544 226.423 32.0896C227.383 31.6672 229.476 30.8416 229.918 29.9008V29.8816Z" fill="black"/>
<path d="M1.32223 113.976C0.765426 113.438 0.496738 112.267 0.477538 111.499C0.419938 108.177 0.976551 103.108 1.24535 99.5756C1.53335 95.6588 1.03434 85.6555 5.75755 85.1371C13.7832 86.0587 22.8067 85.4444 30.7363 86.366C35.4211 86.9036 34.4615 93.4124 34.4423 97.214C34.4423 101.476 34.2309 108.504 33.7509 112.632C33.5013 114.84 31.7157 116.625 29.4885 116.702C25.7637 116.836 19.7543 116.241 15.7799 115.992C13.0727 115.819 2.70461 115.377 1.30301 113.976H1.32223ZM5.35395 86.75C3.66435 87.326 3.60673 90.1869 3.41473 91.8381C3.08833 94.4877 1.80204 111.94 2.57004 112.939C6.27565 113.88 29.8918 115.838 31.5238 114.571C32.0614 112.824 32.3302 110.385 32.4454 108.542C32.7334 103.896 33.0408 98.27 33.0984 93.662C33.0984 92.2796 33.3094 89.9564 32.407 88.8812L5.35395 86.75Z" fill="black"/>
<path d="M90.8511 0.482747C93.7119 -0.227654 108.842 2.03789 112.509 2.82509C118.768 4.1499 120.035 6.33875 119.997 12.7132C119.978 16.2268 118.326 30.7996 116.81 33.2764C115.792 34.9468 113.066 36.982 111.05 37.0972C108.458 37.2316 90.1026 34.6011 87.8178 33.6603C84.0738 32.1243 82.9218 29.1484 82.9794 25.3276C83.037 21.8908 85.3598 5.5132 86.915 3.1708C87.587 2.1724 89.6799 0.789966 90.8319 0.501966L90.8511 0.482747ZM92.0994 1.59638C90.1602 1.90358 87.9522 3.95799 87.3186 5.80119C86.3394 8.662 84.1696 23.5228 84.2656 26.4988C84.3424 28.6876 86.1088 31.222 88.0288 32.2012C89.9488 33.1804 105.097 35.2732 108.016 35.3884C111.606 35.542 115.254 35.2156 116.33 31.0876C117.328 27.2668 118.691 16.1116 118.768 12.118C118.845 8.35475 117.674 5.57075 113.891 4.43795C111.779 3.80435 93.7698 1.34678 92.1186 1.59638H92.0994Z" fill="black"/>
<path d="M217.629 56.5889C219.338 56.1473 222.122 56.2242 223.946 56.3202C227.268 56.4738 242.167 58.3554 244.355 59.6802C245.565 60.4098 246.852 62.0801 247.121 63.4817C247.793 66.8993 245.565 85.5809 244.01 88.6529C242.704 91.2257 239.44 92.6465 236.695 92.6081C233.335 92.5505 219.492 90.6498 216.439 89.6514C214.193 88.9218 211.754 86.5409 211.178 84.2177C210.468 81.2801 212.426 65.8817 213.29 62.3489C213.847 60.0833 215.133 57.2609 217.61 56.6081L217.629 56.5889ZM216.304 59.0658C215.69 59.661 214.941 61.5809 214.73 62.4641C213.885 65.9393 212.138 78.6498 212.253 81.9714C212.407 86.3874 215.613 88.1922 219.434 88.9026C222.832 89.5362 236.176 91.2642 238.922 90.7074C240.823 90.3234 242.628 88.5761 243.261 86.7137C244.337 83.5265 245.988 70.5473 246.064 66.9185C246.141 63.2897 245.008 60.8514 241.264 59.9106C237.52 58.9698 226.192 57.5105 222.314 57.4721C220.375 57.4529 217.764 57.6257 216.324 59.0465L216.304 59.0658Z" fill="black"/>
<path d="M85.7637 58.9863C86.6085 59.7735 87.4722 61.4823 87.8562 62.5959C89.1042 66.2247 91.639 76.6119 92.0037 80.3367C92.4454 84.8103 91.4277 87.1719 87.1653 88.8807C83.3637 90.4167 70.4422 93.6616 66.679 93.3544C64.5286 93.1816 62.3974 91.7224 61.3798 89.8024C60.3046 87.7672 56.119 71.2744 56.119 69.028C56.119 66.9544 57.7125 64.2087 59.4021 63.0183C61.4566 61.5591 74.9925 57.9111 78.0453 57.4311C80.8869 56.9703 83.5365 56.8935 85.7637 58.9863ZM79.8884 58.5447C76.9316 58.8327 64.8739 62.02 62.0131 63.172C58.0195 64.7848 57.3669 67.1848 57.9429 71.3128C58.3461 74.1928 62.1093 88.8999 63.6453 90.4551C64.9701 91.8183 67.0821 92.2024 68.9253 92.0296C72.3813 91.7224 83.2484 89.0152 86.5508 87.7288C89.066 86.7496 90.9475 84.4647 90.7939 81.6615C90.6403 78.8583 87.2036 64.3815 86.1284 62.0007C85.0532 59.6199 82.5572 58.2759 79.9076 58.5255L79.8884 58.5447Z" fill="black"/>
<path d="M52.6054 118.987C53.9878 117.586 72.8422 116.299 74.7238 117.413C76.2215 118.296 76.7397 121.33 76.9509 123.038C77.2773 125.554 77.8149 136.939 76.9509 138.514C76.5669 139.224 74.9926 140.318 74.1862 140.53C70.8838 141.374 59.8823 142.238 56.5607 141.835C51.1463 141.182 52.6055 134.405 52.2407 130.43C51.9911 127.493 50.1478 121.445 52.5862 118.968L52.6054 118.987ZM55.1399 139.992C57.0983 141.701 61.879 139.954 64.1638 139.8C69.9622 139.397 76.7399 141.663 76.1831 133.733C75.9335 130.239 75.6261 123.845 75.0501 120.754C74.1477 115.992 66.468 118.738 62.8776 119.083C60.6888 119.294 54.775 118.642 53.623 120.216C52.8742 121.234 53.3351 134.194 53.6423 136.344C53.7767 137.266 54.5063 139.435 55.1207 139.992H55.1399Z" fill="black"/>
<path d="M162.296 3.90099C162.987 4.55379 166.098 11.9075 166.232 12.9827C166.366 13.9811 166.117 14.7299 165.541 15.5171C164.197 17.3603 154.001 21.4882 151.755 20.4706C149.393 19.4146 146.974 9.96827 148.395 7.56826C149.509 5.68666 160.952 2.61459 162.315 3.90099H162.296ZM161.297 4.97619C159.454 4.93779 149.451 7.08828 149.566 8.66268C156.325 13.5011 159.185 13.789 161.297 4.97619ZM149.624 10.7362C149.701 13.2322 150.738 19.2226 153.886 19.3762C154.328 19.3954 161.067 16.6498 161.931 16.1698C166.443 13.6738 164.005 11.1395 162.277 7.31865C158.917 15.3251 156.498 14.5186 149.624 10.7362Z" fill="black"/>
<path d="M223.658 120.449C223.831 122.907 223.658 125.46 223.312 127.879C223.158 128.859 223.735 128.897 222.179 128.82C221.949 126.497 222.026 124.212 222.506 121.927C222.717 120.929 221.853 120.219 223.658 120.449Z" fill="black"/>
<path d="M204.113 145.137C205.015 145.943 208.74 149.994 208.605 150.916C205.13 154.487 203.095 157.502 201.828 162.379C198.852 173.918 199.236 187.089 195.838 198.686L186.199 202.622C185.239 196.286 184.701 189.777 183.665 183.46C183.511 182.519 183.338 180.234 181.86 180.791L185.105 205.041L188.042 204.35C189.233 214.411 189.578 225.892 195.665 234.379L181.053 233.764L178.423 217.175L161.239 218.385C161.93 223.646 164.1 229.444 161.45 234.455L97.6292 234.321L105.905 166.257C103.658 168.849 103.082 174.148 102.448 177.662C101.028 185.553 100.394 193.598 99.4339 201.547C93.3091 195.249 82.8259 192.388 76.3939 187.166C75.7795 186.667 74.4548 185.956 74.57 185.015C85.7252 169.156 91.7733 152.894 109.207 142.641C111.722 141.162 123.856 134.711 125.892 134.692C131.037 134.615 129.501 140.586 131.325 144.177C135.223 151.838 146.724 152.586 154.231 151.3C163.639 149.687 172.509 140.375 174.468 131.102C184.049 134.519 196.471 138.283 204.17 145.118L204.113 145.137Z" fill="#C7C7C7"/>
<path d="M234.219 149.801C235.044 150.55 237.386 147.151 237.809 146.537C239.978 143.311 244.106 130.044 246.986 129.199C249.943 128.335 250.346 134.134 249.233 135.804C248.906 136.303 245.508 137.225 244.279 138.78C242.532 140.95 241.822 145.231 239.998 147.996C238.347 150.511 236.234 151.683 234.353 153.641C233.738 154.275 233.009 154.735 233.259 155.772C234.353 156.771 239.959 151.011 240.766 149.859C242.762 146.998 245.22 136.841 249.444 137.455C253.15 137.993 248.791 148.457 247.831 150.703C242.052 164.259 229.514 170.153 217.994 178.025C217.802 179.235 218.551 179.043 219.396 178.755C221.009 178.217 222.065 176.374 223.869 176.335C224.445 183.747 224.733 191.177 225.233 198.607C226.02 210.319 229.649 227.292 219.146 235.932C215.537 238.908 212.042 239.1 207.376 238.755C191.402 237.545 190.73 215.542 189.751 203.484L194.474 201.775L193.111 213.123C193.706 213.123 193.917 212.528 194.129 212.067C195.645 208.803 197.834 197.455 198.641 193.308C200.734 182.691 201.117 162.3 207.396 154.39C212.925 147.42 227.479 144.483 234.103 137.935C234.814 139.049 233.22 140.815 232.644 141.737C231.55 143.523 227.364 147.823 227.056 148.591C226.749 149.359 227.211 149.686 227.959 149.436C232.99 147.747 237.771 133.097 240.939 128.815C241.726 127.759 245.143 124.054 245.873 126.531C246.199 127.644 243.242 130.947 242.417 132.483C240.497 136.15 239.767 140.124 237.886 143.753C237.406 144.675 233.892 149.513 234.238 149.82L234.219 149.801ZM228.496 156.54C220.336 157.366 209.969 157.02 208.682 167.35L212.062 162.761C215.921 158.479 222.199 159.497 227.268 157.961C228.324 157.635 228.804 158.076 228.496 156.559V156.54Z" fill="white"/>
<path d="M29.5452 160.075L21.8075 143.121C26.5691 147.614 35.6124 163.569 42.5628 163.684C45.4428 163.742 42.7548 158.712 42.5628 157.483C42.2172 155.371 42.1403 147.825 45.8075 149.649C47.7851 150.628 49.0909 158.884 50.2813 161.515C51.7405 164.779 55.5611 168.12 56.3868 170.98C57.1356 173.553 56.4252 175.896 57.3852 178.526C58.2108 180.792 64.5852 188.184 66.5436 190.257C71.2668 195.192 77.2574 199.55 82.499 203.947C83.0942 202.91 81.2318 201.144 80.5982 200.452C78.7166 198.379 76.3932 196.689 74.1852 194.98C73.59 193.31 77.0075 191.812 77.9291 190.526C82.1147 192.638 97.6285 200.318 98.7229 204.388C99.3181 206.616 98.1659 215.947 97.5323 218.539C95.8427 225.432 85.0333 235.915 77.6413 235.665C70.0381 235.416 61.6091 223.819 57.2507 218.116C50.5307 209.361 44.8283 199.934 39.5483 190.257L40.662 189.105C37.2444 186.36 32.4252 184.555 29.1036 181.79C21.8844 175.78 19.0429 163.915 13.9165 156.12C13.6861 153.681 16.6809 152.567 18.7545 152.702C21.8073 157.06 27.7594 171.768 33.2506 172.401C37.3402 172.881 40.182 171.998 44.4828 173.899C44.7324 174.014 48.3419 176.99 47.2667 174.609C45.0011 169.636 33.5963 172.382 30.4283 169.272C28.5467 167.428 24.7258 160.593 23.1898 157.944C20.9434 154.065 18.8122 148.152 16.3929 144.888C14.9529 142.948 10.3067 140.875 11.7659 138.667C16.3931 136.094 20.0219 143.102 21.8075 146.462C23.6507 149.937 24.8221 154.449 26.8189 157.713C27.3949 158.673 28.1051 160.286 29.5067 160.056L29.5452 160.075Z" fill="white"/>
<path d="M160.414 113.186C159.55 109.922 157.169 104.987 153.559 104.2C146.801 102.702 139.121 107.771 133.15 104.565C123.127 99.1888 136.375 92.968 135.646 85.5376C134.052 85.2688 134.647 85.9792 134.206 86.7664C133.361 88.3216 132.862 90.0496 131.94 91.5664C129.06 96.328 124.951 98.056 129.175 104.181L117.54 111.458C115.966 109.442 114.353 107.157 114.314 104.45C114.218 99.6496 116.926 87.88 118.001 82.5808C118.443 80.3728 119.71 72.6159 120.9 71.5023C121.764 70.6767 123.684 70.3503 124.874 70.0431C133.361 67.7967 143.825 67.7583 152.311 69.7743C155.479 70.5231 169.438 75.8607 171.07 77.9727C172.913 80.3535 171.338 92.0655 170.647 95.4639C169.284 102.242 166.673 109.576 160.394 113.166L160.414 113.186ZM119.921 77.7808L132.689 77.32C133.284 77.3008 133.879 75.7648 133.226 74.8816C131.786 72.904 119.345 72.8848 119.921 77.7808ZM158.455 75.8416C156.266 74.8048 144.036 71.2143 144.17 75.4191C144.286 78.9135 155.038 76.5327 157.687 78.0687L158.455 75.8416ZM124.721 85.3839C121.553 86.4207 123.703 97.5568 126.871 91.432C127.966 89.3008 127.601 84.4431 124.721 85.3839ZM148.586 87.5152C144.785 90.3568 149.066 98.728 151.87 92.9104C153.175 90.2032 151.774 87.0736 148.586 87.5152Z" fill="white"/>
<path d="M182.514 83.272C174.239 77.992 166.175 71.9632 156.536 69.2752C155.019 54.2032 134.514 54.8559 125.663 63.3231C124.184 64.7247 121.995 68.9872 121.112 69.4096C120.383 69.7552 120.076 69.3903 120.229 68.6031C121.804 60.7119 131.289 52.1871 138.661 49.6143C159.82 42.2223 184.338 60.7504 182.514 83.2912V83.272Z" fill="white"/>
<path d="M131.557 137.419C149.125 141.874 167.251 131.16 172.32 113.976C174.412 112.267 172.703 123.058 172.665 123.768C172.569 125.727 172.991 127.742 172.857 129.701C172.262 138.456 163.948 146.981 155.75 149.342C145.938 152.165 131.385 150.13 131.557 137.419Z" fill="white"/>
<path d="M162.43 236.779C162.181 234.514 164.35 232.459 164.446 230.328C164.523 228.6 162.43 220.133 163.006 219.519L176.696 218.693C177.617 219.307 179.999 234.015 179.403 236.203C178.251 238.008 165.195 236.28 162.45 236.76L162.43 236.779Z" fill="white"/>
<path d="M180.959 94.1652C189.772 92.1108 188.427 106.78 183.205 111.196C180.901 113.135 174.046 115.439 172.914 111.733C172.165 109.333 175.372 99.0229 177.061 96.8341C177.868 95.7973 179.73 94.4532 180.978 94.146L180.959 94.1652ZM184.914 100.424C182.725 97.6213 175.909 102.748 177.387 106.05C179.557 103.612 181.17 100.674 184.914 100.424Z" fill="white"/>
<path d="M154.635 68.2215C149.911 67.5303 144.824 66.3592 140.043 66.34C134.724 66.34 129.598 67.7992 124.318 67.8184C130.289 57.5848 151.063 54.6087 154.635 68.2215Z" fill="white"/>
<path d="M185.909 111.69C188.271 106.506 191.055 100.228 187.599 94.7751C186.217 92.6055 183.164 91.9911 183.913 88.5735C185.026 88.2663 185.333 89.1495 186.025 89.6871C189.154 92.0679 198.485 101.956 198.754 105.642C199.157 111.306 189.884 111.94 185.929 111.69H185.909Z" fill="white"/>
<path d="M17.9286 150.972L12.0917 153.564C10.8053 150.185 6.63912 144.233 12.3223 143.081C15.4519 144.559 17.199 147.727 17.9478 150.972H17.9286Z" fill="white"/>
<path d="M151.926 108.755C149.334 115.897 130.959 120.87 128.31 112.844C127.676 110.943 132.457 113.708 133.57 113.977C137.91 115.033 141.231 114.419 145.244 112.556C147.625 111.443 149.372 109.158 151.926 108.735V108.755Z" fill="white"/>
<path d="M86.2997 234.747C90.2357 231.348 94.0564 228.507 97.2052 224.244C96.3604 227.585 96.8789 231.483 94.9013 234.439L86.2997 234.747Z" fill="white"/>
<path d="M24.6314 55.6284L23.4604 47.9293C21.9052 46.7389 20.0044 46.6813 18.622 45.1069C14.5516 40.4221 16.1834 21.8364 14.5706 15.2316C14.8394 12.678 16.1641 10.4124 18.7945 9.70201C26.4745 7.62841 39.3193 8.16597 47.6137 7.85877C48.8425 7.82037 49.9754 7.14838 51.089 7.14838C53.969 7.14838 56.7915 9.26039 57.4059 12.0828C57.9435 14.5404 58.3085 19.7821 58.5389 22.5853C58.8845 26.8285 59.4217 34.0285 59.0761 38.0605C58.9225 39.9421 57.8281 42.4189 56.2345 43.4557C48.2473 45.7021 39.5305 45.5485 31.2553 46.6045L24.6314 55.6284ZM46.3083 28.0188C48.9195 29.5356 52.2793 25.0237 49.0345 23.5261C45.5209 21.9133 44.7723 27.1356 46.3083 28.0188ZM36.9961 24.3516C34.3273 25.3692 35.9212 30.7068 39.7228 28.6332C42.2764 27.2316 40.2985 23.1036 36.9961 24.3516ZM26.3596 25.3501C24.1516 26.0989 24.2857 29.9005 26.5321 30.4957C31.3513 31.7629 31.39 23.6605 26.3596 25.3501Z" fill="white"/>
<path d="M235.696 8.8744L231.357 28.6504L221.526 27.1912L219.952 34.3529L191.267 27.9016L196.221 1.34802L235.696 8.89362V8.8744ZM226.979 13.924C226.768 12.9256 225.789 12.9064 225.021 12.6376C220.182 10.9864 208.489 8.60557 203.344 8.12557C202.422 8.02957 201.904 7.47277 201.232 8.60557L226.979 13.924ZM212.252 17.4184C210.217 15.4984 205.782 15.0952 202.96 14.7496C202.557 14.692 200.79 13.8856 200.886 15.1528C200.944 15.9016 210.812 17.6104 212.252 17.4184Z" fill="white"/>
<path d="M229.918 29.8779C229.476 30.8187 227.383 31.6443 226.423 32.0667C225.578 32.4315 221.642 34.0827 221.143 33.7371L222.18 28.9563L229.918 29.8586V29.8779Z" fill="white"/>
<path d="M5.35541 86.7522L32.4084 88.8834C33.3108 89.9586 33.119 92.2818 33.0998 93.6642C33.0422 98.2722 32.7348 103.898 32.4468 108.544C32.3316 110.387 32.0437 112.826 31.5253 114.573C29.8933 115.821 6.2771 113.863 2.5715 112.941C1.8035 111.943 3.08978 94.4899 3.41618 91.8403C3.62739 90.2082 3.6658 87.3474 5.35541 86.7522ZM27.1861 93.5874L10.5013 92.397C10.4437 93.8754 10.3861 93.4147 11.4421 93.5299C15.6277 93.9907 21.4643 94.5666 25.5923 94.4322C26.3603 94.413 26.9173 94.9122 27.1861 93.5874ZM26.2645 101.325C24.1909 99.5587 19.6979 99.5586 16.9139 99.3666C15.8003 99.2898 8.96529 98.445 9.00369 99.8658C10.5397 100.941 13.3813 100.941 15.2821 101.114C18.8149 101.44 22.7125 101.44 26.2837 101.325H26.2645ZM19.9668 108.103C19.3908 106.797 17.2019 106.701 15.9731 106.528C14.1491 106.298 9.94461 105.741 8.639 107.027C12.1334 108.256 16.242 108.045 19.9668 108.103Z" fill="white"/>
<path d="M92.1001 1.60111C93.7513 1.35151 111.761 3.80907 113.873 4.44267C117.655 5.57547 118.826 8.35948 118.749 12.1227C118.673 16.1355 117.309 27.2715 116.311 31.0923C115.236 35.2203 111.607 35.5275 107.998 35.3931C105.079 35.2779 89.9686 33.2044 88.0102 32.206C86.0518 31.2076 84.3239 28.7115 84.2471 26.5035C84.1511 23.5275 86.3209 8.66672 87.3001 5.80592C87.9337 3.96271 90.1417 1.88911 92.0809 1.60111H92.1001ZM103.274 11.2011L101.45 11.6235C100.471 14.4651 102.218 21.3387 98.4934 22.5483C97.8406 22.7595 92.7911 22.6827 94.8263 24.2763C100.951 29.1339 105.137 15.5787 103.274 11.2011ZM110.82 22.8363C110.417 22.4523 106.634 25.7931 106.193 26.2539C105.751 26.7147 103.908 28.3851 104.522 28.9995C105.502 28.7115 111.876 23.8155 110.839 22.8363H110.82Z" fill="white"/>
<path d="M216.304 59.0661C217.744 57.6453 220.355 57.4533 222.294 57.4917C226.192 57.5493 237.52 58.9893 241.245 59.9301C244.97 60.8709 246.141 63.2325 246.045 66.9381C245.949 70.6437 244.317 83.5461 243.242 86.7333C242.608 88.5957 240.822 90.3429 238.902 90.7269C236.157 91.2837 222.832 89.5557 219.414 88.9221C215.574 88.1925 212.368 86.3878 212.233 81.991C212.118 78.6502 213.865 65.9589 214.71 62.4837C214.921 61.6005 215.69 59.6805 216.285 59.0853L216.304 59.0661ZM223.293 65.2677C220.95 66.0357 219.203 78.4005 220.125 80.1477C221.046 81.8949 234.083 83.5653 235.369 82.8933C236.137 82.4901 236.694 81.1269 236.925 80.2821C237.328 78.7461 238.48 70.9702 238.384 69.6454C238.269 67.8406 237.098 67.1493 235.523 66.6693C234.179 66.2469 224.195 64.9605 223.273 65.2485L223.293 65.2677Z" fill="white"/>
<path d="M79.8893 58.5428C82.5389 58.2932 85.0157 59.5604 86.1101 62.018C87.2045 64.4756 90.6219 79.01 90.7755 81.6788C90.9291 84.482 89.0668 86.7668 86.5324 87.746C83.2492 89.0324 72.3629 91.7396 68.9069 92.0468C67.0637 92.2004 64.9517 91.8356 63.6269 90.4724C62.0909 88.898 58.3278 74.2101 57.9246 71.3301C57.3486 67.202 58.0011 64.8019 61.9947 63.1891C64.8555 62.0371 76.9133 58.85 79.8701 58.562L79.8893 58.5428Z" fill="white"/>
<path d="M55.1402 139.993C54.5066 139.437 53.7961 137.267 53.6617 136.345C53.3545 134.195 52.8937 121.254 53.6425 120.217C54.7945 118.643 60.7078 119.296 62.8966 119.085C66.487 118.72 74.1672 115.993 75.0696 120.755C75.6648 123.846 75.9529 130.259 76.2025 133.734C76.7593 141.664 69.9817 139.398 64.1833 139.801C61.8985 139.955 57.1178 141.702 55.1594 139.993H55.1402ZM58.4041 135.846C61.8025 135.309 64.9126 129.76 65.7958 126.668L58.4041 135.846Z" fill="white"/>
<path d="M149.624 10.7367C156.497 14.4999 158.916 15.3256 162.276 7.31915C164.004 11.14 166.443 13.6743 161.931 16.1703C161.067 16.6503 154.328 19.3959 153.886 19.3767C150.737 19.2231 149.701 13.2327 149.624 10.7367Z" fill="white"/>
<path d="M161.295 4.97548C159.164 13.7883 156.323 13.5004 149.565 8.66197C149.469 7.08757 159.471 4.93708 161.295 4.97548Z" fill="white"/>
<path d="M228.498 156.542C228.805 158.058 228.306 157.617 227.27 157.943C222.201 159.479 215.923 158.462 212.063 162.743L208.684 167.332C209.97 157.003 220.338 157.348 228.498 156.523V156.542Z" fill="black"/>
<path d="M158.455 75.8468L157.688 78.074C155.038 76.5571 144.286 78.9187 144.171 75.4243C144.036 71.2195 156.267 74.81 158.455 75.8468Z" fill="black"/>
<path d="M119.922 77.7828C119.346 72.8868 131.787 72.9252 133.227 74.8836C133.88 75.7668 133.265 77.3028 132.689 77.322L119.922 77.7828Z" fill="black"/>
<path d="M148.586 87.5189C151.773 87.0773 153.174 90.1877 151.869 92.9141C149.066 98.7317 144.784 90.3605 148.586 87.5189Z" fill="black"/>
<path d="M124.721 85.3859C127.601 84.4451 127.966 89.3027 126.871 91.4339C123.723 97.5587 121.553 86.4227 124.721 85.3859Z" fill="black"/>
<path d="M184.913 100.421C181.169 100.671 179.576 103.608 177.387 106.047C175.908 102.744 182.724 97.6179 184.913 100.421Z" fill="black"/>
<path d="M26.3592 25.3504C31.3896 23.6608 31.3701 31.744 26.5317 30.496C24.2853 29.9008 24.1512 26.0992 26.3592 25.3504Z" fill="black"/>
<path d="M36.9941 24.3515C40.2965 23.1035 42.2744 27.2507 39.7208 28.6331C35.9192 30.7067 34.3061 25.3691 36.9941 24.3515Z" fill="black"/>
<path d="M46.308 28.0203C44.7912 27.1371 45.5399 21.9148 49.0343 23.5276C52.2791 25.0252 48.9192 29.5179 46.308 28.0203Z" fill="black"/>
<path d="M226.979 13.9248L201.232 8.60639C201.904 7.47359 202.422 8.03039 203.344 8.12639C208.489 8.60639 220.163 11.0065 225.021 12.6385C225.789 12.8881 226.768 12.9264 226.979 13.9248Z" fill="black"/>
<path d="M212.253 17.4183C210.813 17.6295 200.945 15.9016 200.887 15.1528C200.791 13.8856 202.558 14.6919 202.961 14.7495C205.764 15.0951 210.218 15.4983 212.253 17.4183Z" fill="black"/>
<path d="M26.2649 101.322C22.7129 101.438 18.8154 101.438 15.2633 101.111C13.3625 100.938 10.5209 100.919 8.9849 99.8632C8.9465 98.4424 15.8007 99.2872 16.8951 99.364C19.6791 99.556 24.1721 99.556 26.2457 101.322H26.2649Z" fill="black"/>
<path d="M27.1833 93.586C26.8953 94.93 26.3575 94.4116 25.5895 94.4308C21.4615 94.5652 15.6442 93.9893 11.4393 93.5285C10.4025 93.4133 10.4602 93.874 10.4986 92.3956L27.1833 93.586Z" fill="black"/>
<path d="M19.9665 108.1C16.2417 108.043 12.1331 108.254 8.63867 107.025C9.94427 105.739 14.1487 106.296 15.9727 106.526C17.2015 106.68 19.3713 106.795 19.9665 108.1Z" fill="black"/>
<path d="M103.274 11.1999C105.156 15.5775 100.951 29.1327 94.8264 24.2751C92.7912 22.6623 97.8598 22.7583 98.4934 22.5471C102.199 21.3375 100.471 14.4638 101.45 11.6222L103.274 11.1999Z" fill="black"/>
<path d="M110.821 22.8314C111.877 23.8106 105.483 28.7066 104.504 28.9946C103.89 28.3802 105.714 26.729 106.174 26.249C106.635 25.769 110.399 22.4474 110.802 22.8314H110.821Z" fill="black"/>
<path d="M223.291 65.2674C224.194 64.9794 234.178 66.2658 235.541 66.6882C237.116 67.1682 238.268 67.8594 238.402 69.6642C238.498 70.989 237.327 78.7651 236.943 80.3011C236.732 81.1459 236.156 82.5091 235.388 82.9123C234.101 83.5843 221.026 81.8371 220.143 80.1667C219.26 78.4963 220.968 66.0355 223.311 65.2867L223.291 65.2674ZM236.597 68.3203L223.004 67.0338L221.257 79.5523L235.311 81.3571L236.597 68.3203Z" fill="black"/>
<path d="M58.4031 135.845L65.7949 126.667C64.9117 129.758 61.8015 135.307 58.4031 135.845Z" fill="black"/>
<path d="M236.599 68.3212L235.293 81.3579L221.258 79.5531L223.005 67.0347L236.599 68.3212Z" fill="white"/>
</svg>
