<svg width="1441" height="961" viewBox="0 0 1441 961" fill="none" xmlns="http://www.w3.org/2000/svg">
<path d="M1440.33 0.804688H0.332031V960.806H1440.33V0.804688Z" fill="#031C51"/>
<g style="mix-blend-mode:lighten" opacity="0.3">
<path d="M533.805 672.844H443.546V639.935H533.805V672.844ZM946.989 639.935H856.73V672.844H946.989V639.935ZM843.693 639.935H753.434V672.844H843.693V639.935ZM1153.56 338.917H1063.3V371.826H1153.56V338.917ZM740.397 639.935H650.138V672.844H740.397V639.935ZM585.453 690.105H495.193V723.014H585.453V690.105ZM688.749 690.105H598.49V723.014H688.749V690.105ZM637.101 639.935H546.842V672.844H637.101V639.935ZM792.045 690.105H701.786V723.014H792.045V690.105ZM1011.67 522.335H1101.93V489.426H1011.67V522.335ZM1153.56 439.256H1063.3V472.165H1153.56V439.256ZM1011.67 421.996H1101.93V389.087H1011.67V421.996ZM1153.56 539.596H1063.3V572.505H1153.56V539.596ZM1011.67 622.674H1101.93V589.766H1011.67V622.674ZM998.619 690.105H908.359V723.014H998.619V690.105ZM1050.27 639.935H960.007V672.844H1050.27V639.935ZM1101.91 690.105H1011.65V723.014H1101.91V690.105ZM1153.56 639.935H1063.3V672.844H1153.56V639.935ZM895.341 690.105H805.082V723.014H895.341V690.105ZM185.305 321.656H275.565V288.747H185.305V321.656ZM288.601 321.656H378.861V288.747H288.601V321.656ZM236.953 271.487H327.212V238.578H236.953V271.487ZM391.898 321.656H482.157V288.747H391.898V321.656ZM340.249 271.487H430.509V238.578H340.249V271.487ZM598.49 321.656H688.749V288.747H598.49V321.656ZM482.157 690.105H391.898V723.014H482.157V690.105ZM495.193 321.656H585.453V288.747H495.193V321.656ZM443.546 271.487H533.805V238.578H443.546V271.487ZM546.842 271.487H637.101V238.578H546.842V271.487ZM185.305 622.674H275.565V589.766H185.305V622.674ZM327.212 539.596H236.953V572.505H327.212V539.596ZM327.212 338.917H236.953V371.826H327.212V338.917ZM430.509 639.935H340.249V672.844H430.509V639.935ZM378.861 690.105H288.601V723.014H378.861V690.105ZM185.305 421.996H275.565V389.087H185.305V421.996ZM185.305 522.335H275.565V489.426H185.305V522.335ZM327.212 439.256H236.953V472.165H327.212V439.256ZM82.009 622.674H172.268V589.766H82.009V622.674ZM82.009 421.996H172.268V389.087H82.009V421.996ZM223.917 439.256H133.657V472.165H223.917V439.256ZM650.138 271.487H740.397V238.578H650.138V271.487ZM223.917 539.596H133.657V572.505H223.917V539.596ZM133.657 171.147H223.917V138.238H133.657V171.147ZM223.917 238.578H133.657V271.487H223.917V238.578ZM82.009 221.317H172.268V188.408H82.009V221.317ZM82.009 321.656H172.268V288.747H82.009V321.656ZM223.917 338.917H133.657V371.826H223.917V338.917ZM82.009 522.335H172.268V489.426H82.009V522.335ZM430.509 740.274H340.249V773.183H430.509V740.274ZM378.861 790.444H288.601V823.353H378.861V790.444ZM482.157 790.444H391.898V823.353H482.157V790.444ZM533.805 740.274H443.546V773.183H533.805V740.274ZM327.212 740.274H236.953V773.183H327.212V740.274ZM82.009 723.014H172.268V690.105H82.009V723.014ZM275.565 790.444H185.305V823.353H275.565V790.444ZM223.917 639.935H133.657V672.844H223.917V639.935ZM1153.56 238.578H1063.3V271.487H1153.56V238.578ZM753.434 171.147H843.693V138.238H753.434V171.147ZM805.082 221.317H895.341V188.408H805.082V221.317ZM856.73 171.147H946.989V138.238H856.73V171.147ZM701.786 221.317H792.045V188.408H701.786V221.317ZM185.305 221.317H275.565V188.408H185.305V221.317ZM908.378 221.317H998.638V188.408H908.378V221.317ZM650.138 171.147H740.397V138.238H650.138V171.147ZM960.026 171.147H1050.29V138.238H960.026V171.147ZM1011.67 321.656H1101.93V288.747H1011.67V321.656ZM391.898 221.317H482.157V188.408H391.898V221.317ZM288.601 221.317H378.861V188.408H288.601V221.317ZM340.249 171.147H430.509V138.238H340.249V171.147ZM236.953 171.147H327.212V138.238H236.953V171.147ZM495.193 221.317H585.453V188.408H495.193V221.317ZM443.546 171.147H533.805V138.238H443.546V171.147ZM546.842 171.147H637.101V138.238H546.842V171.147ZM598.49 221.317H688.749V188.408H598.49V221.317ZM68.9721 389.087H0.332031V421.996H68.9721V389.087ZM327.212 639.935H236.953V672.844H327.212V639.935ZM1011.67 221.317H1101.93V188.408H1011.67V221.317ZM68.9721 88.0687H0.332031V120.978H68.9721V88.0687ZM185.305 723.014H275.565V690.105H185.305V723.014ZM1256.86 37.899H1166.6V70.8079H1256.86V37.899ZM908.378 321.656H998.638V288.747H908.378V321.656ZM1114.97 120.978H1205.23V88.0687H1114.97V120.978ZM223.917 740.274H133.657V773.183H223.917V740.274ZM82.009 823.353H172.268V790.444H82.009V823.353ZM637.101 439.256H546.842V472.165H637.101V439.256ZM391.898 522.335H482.157V489.426H391.898V522.335ZM533.805 439.256H443.546V472.165H533.805V439.256ZM946.989 338.917H856.73V371.826H946.989V338.917ZM585.453 489.426H495.193V522.335H585.453V489.426ZM1050.27 238.578H960.007V271.487H1050.27V238.578ZM805.082 421.996H895.341V389.087H805.082V421.996ZM430.509 539.596H340.249V572.505H430.509V539.596ZM288.601 622.674H378.861V589.766H288.601V622.674ZM1153.56 138.238H1063.3V171.147H1153.56V138.238ZM1373.21 873.523H1440.33V840.614H1373.21V873.523ZM1373.21 572.505H1440.33V539.596H1373.21V572.505ZM1373.21 773.183H1440.33V740.274H1373.21V773.183ZM1373.21 472.165H1440.33V439.256H1373.21V472.165ZM1373.21 672.844H1440.33V639.935H1373.21V672.844ZM1373.21 171.147H1440.33V138.238H1373.21V171.147ZM1373.21 371.826H1440.33V338.917H1373.21V371.826ZM1373.21 70.8079H1440.33V37.899H1373.21V70.8079ZM1373.21 271.487H1440.33V238.578H1373.21V271.487ZM120.62 840.614H30.3611V873.523H120.62V840.614ZM585.453 790.444H495.193V823.353H585.453V790.444ZM68.9721 489.426H0.332031V522.335H68.9721V489.426ZM68.9721 589.766H0.332031V622.674H68.9721V589.766ZM68.9721 288.747H0.332031V321.656H68.9721V288.747ZM68.9721 188.408H0.332031V221.317H68.9721V188.408ZM68.9721 690.105H0.332031V723.014H68.9721V690.105ZM68.9721 890.783H0.332031V923.692H68.9721V890.783ZM68.9721 790.444H0.332031V823.353H68.9721V790.444ZM533.805 539.596H443.546V572.505H533.805V539.596ZM895.341 589.766H805.082V622.674H895.341V589.766ZM843.693 539.596H753.434V572.505H843.693V539.596ZM792.045 589.766H701.786V622.674H792.045V589.766ZM946.989 539.596H856.73V572.505H946.989V539.596ZM688.749 589.766H598.49V622.674H688.749V589.766ZM585.453 589.766H495.193V622.674H585.453V589.766ZM637.101 539.596H546.842V572.505H637.101V539.596ZM740.397 539.596H650.138V572.505H740.397V539.596ZM998.619 589.766H908.359V622.674H998.619V589.766ZM805.082 321.656H895.341V288.747H805.082V321.656ZM1050.27 338.917H960.007V371.826H1050.27V338.917ZM856.73 271.487H946.989V238.578H856.73V271.487ZM1050.27 539.596H960.007V572.505H1050.27V539.596ZM753.434 271.487H843.693V238.578H753.434V271.487ZM701.786 321.656H792.045V288.747H701.786V321.656ZM908.378 522.335H998.638V489.426H908.378V522.335ZM1050.27 439.256H960.007V472.165H1050.27V439.256ZM908.378 421.996H998.638V389.087H908.378V421.996ZM701.786 421.996H792.045V389.087H701.786V421.996ZM753.434 371.826H843.693V338.917H753.434V371.826ZM688.749 489.426H598.49V522.335H688.749V489.426ZM650.138 371.826H740.397V338.917H650.138V371.826ZM598.49 421.996H688.749V389.087H598.49V421.996ZM946.989 439.256H856.73V472.165H946.989V439.256ZM792.045 489.426H701.786V522.335H792.045V489.426ZM482.157 589.766H391.898V622.674H482.157V589.766ZM843.693 439.256H753.434V472.165H843.693V439.256ZM895.341 489.426H805.082V522.335H895.341V489.426ZM740.397 439.256H650.138V472.165H740.397V439.256ZM430.509 439.256H340.249V472.165H430.509V439.256ZM340.249 371.826H430.509V338.917H340.249V371.826ZM288.601 421.996H378.861V389.087H288.601V421.996ZM288.601 522.335H378.861V489.426H288.601V522.335ZM546.842 371.826H637.101V338.917H546.842V371.826ZM391.898 421.996H482.157V389.087H391.898V421.996ZM495.193 421.996H585.453V389.087H495.193V421.996ZM443.546 371.826H533.805V338.917H443.546V371.826ZM1256.86 539.596H1166.6V572.505H1256.86V539.596ZM82.009 20.6382H172.268V0.804688H82.009V20.6382ZM288.601 20.6382H378.861V0.804688H288.601V20.6382ZM495.193 20.6382H585.453V0.804688H495.193V20.6382ZM185.305 20.6382H275.565V0.804688H185.305V20.6382ZM391.898 20.6382H482.157V0.804688H391.898V20.6382ZM805.082 20.6382H895.341V0.804688H805.082V20.6382ZM598.49 20.6382H688.749V0.804688H598.49V20.6382ZM1011.67 20.6382H1101.93V0.804688H1011.67V20.6382ZM701.786 20.6382H792.045V0.804688H701.786V20.6382ZM908.378 20.6382H998.638V0.804688H908.378V20.6382ZM17.3242 338.917H0.332031V371.826H17.3242V338.917ZM1360.15 840.614H1269.9V873.523H1360.15V840.614ZM17.3242 740.274H0.332031V773.183H17.3242V740.274ZM17.3242 639.935H0.332031V672.844H17.3242V639.935ZM17.3242 37.899H0.332031V70.8079H17.3242V37.899ZM0.332031 20.6382H68.9721V0.804688H0.332031V20.6382ZM17.3242 238.578H0.332031V271.487H17.3242V238.578ZM17.3242 138.238H0.332031V171.147H17.3242V138.238ZM17.3242 439.256H0.332031V472.165H17.3242V439.256ZM1218.27 522.335H1308.53V489.426H1218.27V522.335ZM1218.27 421.996H1308.53V389.087H1218.27V421.996ZM1360.15 539.596H1269.9V572.505H1360.15V539.596ZM1360.15 439.256H1269.9V472.165H1360.15V439.256ZM1218.27 622.674H1308.53V589.766H1218.27V622.674ZM1218.27 823.353H1308.53V790.444H1218.27V823.353ZM1360.15 740.274H1269.9V773.183H1360.15V740.274ZM1218.27 723.014H1308.53V690.105H1218.27V723.014ZM1360.15 639.935H1269.9V672.844H1360.15V639.935ZM1114.97 20.6382H1205.23V0.804688H1114.97V20.6382ZM1218.27 120.978H1308.53V88.0687H1218.27V120.978ZM1360.15 37.899H1269.9V70.8079H1360.15V37.899ZM1360.15 138.238H1269.9V171.147H1360.15V138.238ZM1218.27 0.804688V20.6382H1308.53V0.804688H1218.27ZM1218.27 321.656H1308.53V288.747H1218.27V321.656ZM1360.15 338.917H1269.9V371.826H1360.15V338.917ZM1360.15 238.578H1269.9V271.487H1360.15V238.578ZM1218.27 221.317H1308.53V188.408H1218.27V221.317ZM17.3242 539.596H0.332031V572.505H17.3242V539.596ZM1321.56 120.978H1411.82V88.0687H1321.56V120.978ZM1321.56 0.804688V20.6382H1411.82V0.804688H1321.56ZM1321.56 723.014H1411.82V690.105H1321.56V723.014ZM1424.86 890.783V923.692H1440.33V890.783H1424.86ZM1321.56 622.674H1411.82V589.766H1321.56V622.674ZM1424.86 790.444V823.353H1440.33V790.444H1424.86ZM1321.56 522.335H1411.82V489.426H1321.56V522.335ZM1321.56 421.996H1411.82V389.087H1321.56V421.996ZM1321.56 321.656H1411.82V288.747H1321.56V321.656ZM1321.56 221.317H1411.82V188.408H1321.56V221.317ZM1424.86 88.0687V120.978H1440.33V88.0687H1424.86ZM1424.86 690.105V723.014H1440.33V690.105H1424.86ZM1424.86 188.408V221.317H1440.33V188.408H1424.86ZM1424.86 20.6382H1440.33V0.804688H1424.86V20.6382ZM1424.86 288.747V321.656H1440.33V288.747H1424.86ZM17.3242 840.614H0.332031V873.523H17.3242V840.614ZM1424.86 389.087V421.996H1440.33V389.087H1424.86ZM1424.86 489.426V522.335H1440.33V489.426H1424.86ZM1424.86 589.766V622.674H1440.33V589.766H1424.86ZM327.212 940.953H236.953V960.787H327.212V940.953ZM430.509 940.953H340.249V960.787H430.509V940.953ZM533.805 940.953H443.546V960.787H533.805V940.953ZM637.101 940.953H546.842V960.787H637.101V940.953ZM17.3242 940.953H0.332031V960.787H17.3242V940.953ZM740.397 940.953H650.138V960.787H740.397V940.953ZM120.62 940.953H30.3611V960.787H120.62V940.953ZM223.917 940.953H133.657V960.787H223.917V940.953ZM1153.56 940.953H1063.3V960.787H1153.56V940.953ZM1256.86 940.953H1166.6V960.787H1256.86V940.953ZM1321.56 923.692H1411.82V890.783H1321.56V923.692ZM1360.15 940.953H1269.9V960.787H1360.15V940.953ZM1373.21 960.806H1440.33V940.972H1373.21V960.806ZM1321.56 823.353H1411.82V790.444H1321.56V823.353ZM843.693 940.953H753.434V960.787H843.693V940.953ZM946.989 940.953H856.73V960.787H946.989V940.953ZM1050.27 940.953H960.007V960.787H1050.27V940.953ZM792.045 890.783H701.786V923.692H792.045V890.783ZM1063.32 70.8079H1153.58V37.899H1063.32V70.8079ZM1256.86 338.917H1166.6V371.826H1256.86V338.917ZM1011.67 120.978H1101.93V88.0687H1011.67V120.978ZM1308.51 890.783H1218.25V923.692H1308.51V890.783ZM1114.97 221.317H1205.23V188.408H1114.97V221.317ZM1114.97 321.656H1205.23V288.747H1114.97V321.656ZM1256.86 238.578H1166.6V271.487H1256.86V238.578ZM1256.86 138.238H1166.6V171.147H1256.86V138.238ZM856.73 70.8079H946.989V37.899H856.73V70.8079ZM960.026 70.8079H1050.29V37.899H960.026V70.8079ZM598.49 120.978H688.749V88.0687H598.49V120.978ZM805.082 120.978H895.341V88.0687H805.082V120.978ZM546.842 70.8079H637.101V37.899H546.842V70.8079ZM443.546 70.8079H533.805V37.899H443.546V70.8079ZM495.193 120.978H585.453V88.0687H495.193V120.978ZM650.138 70.8079H740.397V37.899H650.138V70.8079ZM753.434 70.8079H843.693V37.899H753.434V70.8079ZM391.898 120.978H482.157V88.0687H391.898V120.978ZM701.786 120.978H792.045V88.0687H701.786V120.978ZM895.341 790.444H805.082V823.353H895.341V790.444ZM946.989 740.274H856.73V773.183H946.989V740.274ZM1114.97 421.996H1205.23V389.087H1114.97V421.996ZM1050.27 740.274H960.007V773.183H1050.27V740.274ZM843.693 740.274H753.434V773.183H843.693V740.274ZM688.749 790.444H598.49V823.353H688.749V790.444ZM740.397 740.274H650.138V773.183H740.397V740.274ZM1101.91 790.444H1011.65V823.353H1101.91V790.444ZM792.045 790.444H701.786V823.353H792.045V790.444ZM998.619 790.444H908.359V823.353H998.619V790.444ZM1114.97 522.335H1205.23V489.426H1114.97V522.335ZM1153.56 740.274H1063.3V773.183H1153.56V740.274ZM1256.86 639.935H1166.6V672.844H1256.86V639.935ZM1256.86 439.256H1166.6V472.165H1256.86V439.256ZM1114.97 622.674H1205.23V589.766H1114.97V622.674ZM1205.21 790.444H1114.95V823.353H1205.21V790.444ZM1256.86 740.274H1166.6V773.183H1256.86V740.274ZM1114.97 723.014H1205.23V690.105H1114.97V723.014ZM908.378 120.978H998.638V88.0687H908.378V120.978ZM637.101 840.614H546.842V873.523H637.101V840.614ZM740.397 840.614H650.138V873.523H740.397V840.614ZM688.749 890.783H598.49V923.692H688.749V890.783ZM637.101 740.274H546.842V773.183H637.101V740.274ZM533.805 840.614H443.546V873.523H533.805V840.614ZM482.157 890.783H391.898V923.692H482.157V890.783ZM585.453 890.783H495.193V923.692H585.453V890.783ZM430.509 840.614H340.249V873.523H430.509V840.614ZM843.693 840.614H753.434V873.523H843.693V840.614ZM1256.86 840.614H1166.6V873.523H1256.86V840.614ZM1205.21 890.783H1114.95V923.692H1205.21V890.783ZM1101.91 890.783H1011.65V923.692H1101.91V890.783ZM895.341 890.783H805.082V923.692H895.341V890.783ZM378.861 890.783H288.601V923.692H378.861V890.783ZM1153.56 840.614H1063.3V873.523H1153.56V840.614ZM1050.27 840.614H960.007V873.523H1050.27V840.614ZM946.989 840.614H856.73V873.523H946.989V840.614ZM998.619 890.783H908.359V923.692H998.619V890.783ZM133.657 70.8079H223.917V37.899H133.657V70.8079ZM340.249 70.8079H430.509V37.899H340.249V70.8079ZM82.009 120.978H172.268V88.0687H82.009V120.978ZM120.62 238.578H30.3611V271.487H120.62V238.578ZM120.62 138.238H30.3611V171.147H120.62V138.238ZM30.3611 70.8079H120.62V37.899H30.3611V70.8079ZM288.601 120.978H378.861V88.0687H288.601V120.978ZM236.953 70.8079H327.212V37.899H236.953V70.8079ZM185.305 120.978H275.565V88.0687H185.305V120.978ZM275.565 890.783H185.305V923.692H275.565V890.783ZM223.917 840.614H133.657V873.523H223.917V840.614ZM172.268 890.783H82.009V923.692H172.268V890.783ZM120.62 338.917H30.3611V371.826H120.62V338.917ZM120.62 740.274H30.3611V773.183H120.62V740.274ZM327.212 840.614H236.953V873.523H327.212V840.614ZM120.62 439.256H30.3611V472.165H120.62V439.256ZM120.62 539.596H30.3611V572.505H120.62V539.596ZM120.62 639.935H30.3611V672.844H120.62V639.935Z" fill="#C8DEF5"/>
</g>
</svg>
