<svg width="102" height="90" viewBox="0 0 102 90" fill="none" xmlns="http://www.w3.org/2000/svg">
<circle cx="19.5176" cy="23.8535" r="6.50585" fill="#F9D483"/>
<circle cx="26.0234" cy="37.9512" r="6.50585" fill="#F9D483"/>
<circle cx="21.6855" cy="79.1504" r="6.50585" fill="#F9D483"/>
<circle cx="16.2637" cy="63.9746" r="6.50585" fill="#F9D483"/>
<circle cx="11.9277" cy="47.709" r="6.50585" fill="#F9D483"/>
<circle cx="6.50585" cy="32.5293" r="6.50585" fill="#F9D483"/>
<circle cx="28.1934" cy="53.1309" r="6.50585" fill="#F9D483"/>
<circle cx="34.9121" cy="20.5996" r="6.50585" fill="#535D77"/>
<circle cx="39.0351" cy="83.4902" r="6.50585" fill="#F9D483"/>
<circle cx="54.2148" cy="81.3223" r="6.50585" fill="#F9D483"/>
<circle cx="69.3945" cy="80.2363" r="6.50585" fill="white" fill-opacity="0.2"/>
<circle cx="44.4551" cy="6.50585" r="6.50585" fill="white" fill-opacity="0.2"/>
<circle cx="50.9629" cy="20.5996" r="6.50585" fill="white" fill-opacity="0.2"/>
<circle cx="57.4687" cy="34.6973" r="6.50585" fill="white" fill-opacity="0.2"/>
<circle cx="60.7207" cy="7.59179" r="6.50585" fill="white" fill-opacity="0.2"/>
<circle cx="79.1543" cy="53.1309" r="6.50585" fill="white" fill-opacity="0.2"/>
<circle cx="95.4199" cy="47.709" r="6.50585" fill="white" fill-opacity="0.2"/>
<circle cx="95.4199" cy="63.9746" r="6.50585" fill="white" fill-opacity="0.2"/>
<circle cx="82.4082" cy="71.5644" r="6.50585" fill="white" fill-opacity="0.2"/>
<circle cx="67.2285" cy="65.0566" r="6.50585" fill="white" fill-opacity="0.2"/>
<circle cx="50.9629" cy="66.1426" r="6.50585" fill="#F9D483"/>
<circle cx="34.6973" cy="68.3144" r="6.50585" fill="#F9D483"/>
<circle cx="61.8066" cy="49.8769" r="6.50585" fill="white" fill-opacity="0.2"/>
<circle cx="45.541" cy="50.959" r="6.50585" fill="#F9D483"/>
</svg>
