<svg width="116" height="102" viewBox="0 0 116 102" fill="none" xmlns="http://www.w3.org/2000/svg">
<circle cx="22.0403" cy="26.9407" r="7.34694" fill="#F9D483"/>
<circle cx="29.388" cy="42.8587" r="7.34694" fill="#F9D483"/>
<circle cx="24.4895" cy="89.3899" r="7.34694" fill="#F9D483"/>
<circle cx="18.3665" cy="72.2454" r="7.34694" fill="#F9D483"/>
<circle cx="13.47" cy="53.8782" r="7.34694" fill="#F9D483"/>
<circle cx="7.34694" cy="36.7376" r="7.34694" fill="#F9D483"/>
<circle cx="31.8372" cy="60.0032" r="7.34694" fill="#F9D483"/>
<circle cx="39.427" cy="23.2688" r="7.34694" fill="#F9D483"/>
<circle cx="44.0813" cy="94.2883" r="7.34694" fill="#F9D483"/>
<circle cx="61.2239" cy="91.8391" r="7.34694" fill="#F9D483"/>
<circle cx="78.3665" cy="90.6126" r="7.34694" fill="white" fill-opacity="0.2"/>
<circle cx="50.2044" cy="7.34694" r="7.34694" fill="white" fill-opacity="0.2"/>
<circle cx="57.5501" cy="23.2688" r="7.34694" fill="white" fill-opacity="0.2"/>
<circle cx="64.8977" cy="39.1868" r="7.34694" fill="white" fill-opacity="0.2"/>
<circle cx="68.5715" cy="8.5735" r="7.34694" fill="white" fill-opacity="0.2"/>
<circle cx="75.9173" cy="24.4915" r="7.34694" fill="white" fill-opacity="0.2"/>
<circle cx="82.0403" cy="42.8587" r="7.34694" fill="white" fill-opacity="0.2"/>
<circle cx="89.388" cy="60.0032" r="7.34694" fill="white" fill-opacity="0.2"/>
<circle cx="107.755" cy="53.8782" r="7.34694" fill="white" fill-opacity="0.2"/>
<circle cx="107.755" cy="72.2454" r="7.34694" fill="white" fill-opacity="0.2"/>
<circle cx="93.0618" cy="80.8196" r="7.34694" fill="white" fill-opacity="0.2"/>
<circle cx="75.9173" cy="73.4719" r="7.34694" fill="white" fill-opacity="0.2"/>
<circle cx="57.5501" cy="74.6946" r="7.34694" fill="#F9D483"/>
<circle cx="39.1829" cy="77.1438" r="7.34694" fill="#F9D483"/>
<circle cx="69.7962" cy="56.3274" r="7.34694" fill="white" fill-opacity="0.2"/>
<circle cx="51.429" cy="57.554" r="7.34694" fill="#F9D483"/>
</svg>
