<svg width="260" height="165" viewBox="0 0 260 165" fill="none" xmlns="http://www.w3.org/2000/svg">
<path d="M23.2438 60.4731C23.0447 62.0267 21.7881 62.464 21.5303 60.8452C21.3997 60.0292 21.3606 58.3385 21.3214 57.4182C20.5903 40.2472 21.8926 22.5638 21.3214 5.34067C21.6217 1.54159 23.5506 0.311167 27.1604 0.0761719H252.925C254.129 0.360124 255.389 0.125104 256.564 0.458013C258.35 0.967168 259.306 2.59256 259.339 4.38439V149.298C259.117 151.857 257.622 153.316 255.03 153.414L121.181 153.404C120.548 153.525 120.548 154.602 120.271 155.173C119.866 156.012 119.171 156.726 118.26 156.991C106.171 159.566 93.8597 161.332 81.9239 164.517L52.2754 161.429C51.2832 161.191 50.2551 160.349 50.0528 159.344C47.7616 161.655 45.7184 163.032 42.3045 162.787C39.0994 162.556 37.3859 162.941 34.2592 163.172C29.0566 163.561 23.7758 163.717 18.5504 163.564C17.4309 163.531 15.8023 163.133 14.735 163.163C12.8257 163.218 11.4875 164.621 8.62188 164.302C0.635324 163.407 0.122905 153.864 1.35989 147.705C2.38799 142.594 4.20594 136.628 5.73014 131.592C9.17021 120.217 10.7499 116.324 21.8403 111.137C23.5506 110.338 28.1558 108.895 29.0762 107.652C30.1892 106.15 30.3099 104.322 32.6403 103.709L32.438 99.4365C27.3823 100.925 22.2875 96.5089 22.121 91.4696C22.0982 90.8168 22.4409 90.2554 22.2516 89.4264C22.1406 88.9401 21.4976 88.2808 21.2365 87.7618C18.6222 82.5952 17.4668 76.2112 21.5303 71.3971C22.5257 70.2189 24.546 69.5792 24.8724 69.1875C25.0487 68.9753 25.2674 67.9799 25.5121 67.5294C29.964 59.2328 40.2907 59.7355 48.3393 58.1917C51.4301 57.5977 54.3741 56.4814 57.4355 55.783C59.3775 55.783 56.4107 58.9097 55.9897 59.4286C58.2906 59.6408 60.7059 59.7355 62.9253 60.4404C63.8652 60.7407 66.5448 61.8178 66.1205 63.1298C65.6995 64.0241 62.5401 64.2298 62.3117 64.6965L63.8359 66.2305C64.3972 67.0986 66.1662 69.3376 65.6603 70.3429C65.2099 71.2404 62.4814 70.1242 61.6818 69.9153C61.4272 69.85 61.3129 69.5563 61.3521 70.0524C62.2464 71.743 63.1276 74.0245 63.5584 75.8881C63.7967 76.926 64.0186 77.817 63.4573 78.7635C67.5925 80.415 68.2943 86.8219 65.2099 89.8148C66.1467 96.881 63.4246 104.949 57.2658 108.849L54.0771 110.347C58.4179 112.071 63.2386 113.435 66.1075 117.368C69.7173 122.322 71.3818 129.147 74.4759 134.461C74.9394 135.149 75.8793 134.682 76.5876 134.976C76.9075 134.924 78.8592 130.945 79.1334 130.322C79.5185 129.447 80.6576 126.931 80.7 126.131C80.762 124.995 79.92 124.633 79.3847 123.807C77.4492 120.824 75.5987 116.317 77.397 112.89C78.102 111.549 79.3423 110.928 80.8665 111.092C81.7412 105.595 90.5306 108.376 93.0405 110.922C95.6907 113.608 94.1535 122.228 93.1906 125.612C92.6423 127.535 91.7611 129.349 91.1736 131.252C89.2186 137.591 87.851 144.18 84.9071 150.156L87.9881 149.464L96.807 124.251C97.6719 123.024 98.5205 122.665 99.9598 122.427C109.422 120.854 119.69 120.886 129.223 119.333C130.731 119.098 131.909 119.878 131.926 121.454L121.478 151.88L251.783 151.889C253.34 151.432 256.009 152.203 257.015 150.613C257.158 150.385 257.615 148.926 257.615 148.723V33.2072H23.2438V60.4828V60.4731ZM257.605 31.4741V5.73231C257.4 3.54229 257.282 2.3184 254.808 2.01813L25.9658 2.13239C24.5787 2.30864 23.247 3.77083 23.247 5.15469V31.4741H257.609H257.605ZM58.79 70.3984C58.4342 70.023 56.192 68.1006 55.7938 68.4172C55.9962 69.194 56.6881 70.7117 56.1887 71.3971L55.7318 71.6354C53.0881 70.4114 50.4346 69.2005 47.5592 68.6065C48.0847 70.0426 50.5195 71.5733 47.9443 72.3403C44.1257 73.4761 39.6314 72.4611 35.8813 71.4787C37.177 75.9338 36.1326 80.6141 34.158 84.6841L41.4363 83.6364C42.4089 81.5378 44.0212 79.4032 46.505 79.1323C49.8439 78.7668 51.8381 80.5488 53.1012 83.4438L55.6078 83.0652C56.2638 80.9633 57.5563 78.8745 59.8475 78.3066C60.4937 78.1467 62.1354 78.3359 62.2888 77.8659C62.5891 76.9455 61.3064 76.5343 60.6145 76.4984C59.7169 76.4495 56.6065 77.8758 56.8448 76.4332C57.083 74.9905 60.0955 74.142 61.3456 74.7327C61.7568 74.3411 59.2208 70.852 58.79 70.3984ZM60.3403 79.5632C58.1993 79.932 57.1189 82.2819 56.7534 84.1978C57.9871 86.0451 59.0381 90.1836 61.7992 90.0334C67.5631 89.7201 66.9822 78.4143 60.3403 79.5632ZM46.3614 80.5195C40.8717 81.4529 41.5179 92.1223 48.3752 90.9571C53.878 90.0204 53.049 79.3836 46.3614 80.5195ZM63.8359 94.5441C63.9468 93.3528 63.7543 92.0212 63.8359 90.8103C62.6283 91.2248 61.4729 91.2346 60.2065 91.2019C60.1608 93.1733 58.3788 94.518 56.4662 94.4625C55.722 94.4429 54.5144 94.2111 54.8375 93.3005C57.0635 93.5975 59.3938 92.9513 58.7574 90.2424L55.4315 84.6188L53.3068 84.6841C54.2762 94.6779 41.0251 94.9227 41.2437 85.0659L34.171 86.032C33.9622 86.8839 34.6802 90.4414 33.4889 90.4316C32.4314 89.9323 32.0953 88.6692 31.2924 87.8369C30.0064 86.502 28.5083 85.8916 26.6969 86.5085C21.057 88.4309 24.0336 98.9078 31.1716 98.0625C31.8276 97.9841 33.2278 97.2302 33.6847 97.6969C33.8838 97.9547 33.936 98.2453 33.9719 98.5586C34.2787 101.215 33.7794 104.854 34.171 107.355C34.7357 110.941 40.9924 114.463 43.3554 116.931C44.3803 118.001 45.3137 119.359 46.319 120.472L49.8602 111.673C47.4646 111.78 45.1668 110.537 43.2869 109.15C42.5134 108.578 39.602 106.02 39.2822 105.302C39.1745 105.063 39.0406 104.828 39.2234 104.58C39.6869 103.937 41.5016 105.468 42.0727 105.768C47.6082 108.683 53.5255 110.726 58.6692 105.834C61.2738 103.356 63.5095 98.0918 63.8359 94.5375V94.5441ZM41.6256 117.417C41.6876 117.146 41.5864 117.104 41.4396 116.934C40.7542 116.154 38.9754 115.286 38.0876 114.541C35.5288 112.4 32.2715 108.895 32.5326 105.36C31.4392 106.062 31.3054 107.025 30.7473 107.978C30.4764 108.445 29.7877 109.117 29.6637 109.381C29.2068 110.37 30.6918 114.209 31.0933 115.41C31.9712 118.047 33.0222 120.628 34.1645 123.158C37.0465 121.803 38.179 117.818 41.6289 117.414L41.6256 117.417ZM89.4927 112.632H86.5259C85.6545 112.632 84.4044 113.553 83.5559 113.784L84.1335 116.268C85.2922 115.077 86.6402 114.832 88.2557 114.92C89.1827 114.972 90.4784 115.087 90.449 116.268H87.4822C86.9894 116.268 84.2184 117.326 84.1237 117.743C84.3881 119.003 84.2804 120.981 85.2726 121.921C86.5259 123.112 87.3158 121.141 86.2583 120.348L86.3268 119.901C87.2538 119.081 88.321 119.068 89.4927 119.137L89.4699 119.881L88.2394 120.276C88.1937 122.025 87.8217 123.295 86.0364 123.856C86.0755 124.656 85.9809 125.469 86.0951 126.265C86.2093 127.061 86.7413 127.701 86.8131 128.23C86.8654 128.625 86.663 128.569 86.366 128.484C85.2335 128.161 84.7406 126.608 84.6982 125.557C84.6721 124.96 84.9528 123.794 84.8712 123.488C84.8092 123.249 83.7321 122.28 83.422 121.666C83.0369 120.903 82.7758 119.999 82.7921 119.137C80.9938 119.826 79.4336 118.403 79.5316 116.558C79.5675 115.909 79.871 114.979 80.687 115.116C80.465 116.506 80.8012 118.321 82.6028 117.988C82.6257 116.48 82.704 113.833 81.2516 112.923C79.5609 111.862 78.3696 113.69 78.1967 115.211C77.8507 118.239 79.3064 121.131 80.9905 123.52C81.9011 124.813 82.5082 124.545 82.172 126.65C81.7249 129.451 78.4904 134.947 76.8618 137.421C74.0451 141.703 70.9053 144.079 73.7905 149.859C74.2703 150.819 74.786 151.942 75.9642 151.853C78.1412 151.69 80.7751 150.675 83.001 150.408C86.1212 144.888 87.4104 138.599 89.2479 132.581C90.5926 128.184 92.5999 123.902 92.9328 119.232C93.0601 117.45 93.207 113.432 92.0581 112.071C90.8407 110.625 85.9123 109.084 84.0748 109.424C82.5245 109.711 81.1831 111.878 83.0728 112.821C84.2021 111.353 86.2844 111.075 88.0338 111.31C88.7943 111.412 89.7016 111.722 89.4862 112.632H89.4927ZM28.2211 110.334C22.3919 112.599 14.9831 115.207 11.6017 120.805C8.22043 126.402 4.44746 140.763 3.00485 147.62C2.67194 149.203 2.3423 150.825 2.3782 152.444L3.29859 150.401C6.49387 144.513 14.6828 142.333 20.5642 145.365C22.9043 138.351 25.2739 129.992 21.2953 123.102C20.339 121.444 18.9094 119.62 17.0458 118.964L16.9283 118.376C19.82 118.621 22.405 122.052 23.4723 124.561C26.4586 131.582 24.2131 139.177 21.9024 146.028C22.7934 147.264 23.9651 148.257 24.0434 149.924C26.9841 150.551 29.9444 151.289 32.9373 151.654C34.455 151.84 40.0557 152.464 41.1556 152.072C41.371 151.997 42.9605 151.021 43.0519 150.904C43.3489 150.515 43.6165 148.198 43.7079 147.539C44.4423 142.232 44.6773 136.644 44.8894 131.301C45.0134 128.194 44.377 125.035 45.8 122.14C45.3725 121.52 43.1531 118.432 42.5721 118.458C41.7464 118.494 40.4669 119.205 39.8109 119.718C38.5282 120.72 35.3721 125.479 33.5835 124.597C32.6729 124.15 29.432 114.904 28.9391 113.35C28.6291 112.374 28.3255 111.359 28.2244 110.331L28.2211 110.334ZM52.7063 110.361L51.7891 110.638L48.3262 119.519L50.823 117.139C52.4615 116.089 53.9563 119.277 55.4087 119.904C55.1345 116.581 54.2207 113.318 52.7063 110.361ZM73.0268 135.025C70.4288 130.214 68.7805 124.826 66.0422 120.093C64.7236 117.815 63.5748 116.444 61.2836 115.087C59.4036 113.974 57.256 113.216 55.2194 112.44C55.6404 114.091 56.2083 115.69 56.4988 117.381C56.6163 118.066 57.0439 121.043 56.8513 121.435C56.7697 121.601 56.3813 121.875 56.1985 121.918C55.1052 122.156 51.9686 118.308 51.5117 118.39C50.3824 119.378 49.511 120.612 48.522 121.728C47.1578 123.272 46.4267 123.256 46.2145 125.736C45.8424 130.067 46.1329 134.878 45.8359 139.33C45.6042 142.813 45.2223 146.321 44.6903 149.765C46.926 148.515 49.1813 146.22 51.4007 145.088C54.5568 143.479 57.9904 145.019 60.9604 146.318C61.3554 141.236 62.4716 136.194 62.873 131.099C63.0656 128.638 62.873 126.004 63.2582 123.54C63.6596 123.494 63.7869 123.527 64.0056 123.847C65.0957 125.446 63.9044 134.81 63.6139 137.199C63.4507 138.54 62.0408 146.52 62.3443 147.043C63.7053 147.601 64.0513 149.647 65.5559 149.761C63.5128 144.014 66.7831 136.298 73.0235 135.022L73.0268 135.025ZM130.277 120.86L100.335 123.948C97.8089 123.932 97.4728 126.663 96.7645 128.609C93.2429 138.286 89.8909 148.129 86.6173 157.895C86.4313 158.446 85.2824 161.619 85.4717 161.821L117.098 155.636L118.505 155.13L130.14 122.163L130.277 120.86ZM75.7064 136.37C67.3053 135.635 63.1766 147.767 69.3354 152.993L73.4086 152.252C71.532 149.334 70.5365 146.178 71.6788 142.77C72.4817 140.371 74.3323 138.426 75.7064 136.367V136.37ZM22.2842 149.575C22.7183 149.011 20.3455 147.02 19.8592 146.739C15.3878 144.167 8.23349 145.949 5.05779 149.869C0.390533 155.626 3.76206 163.907 11.5626 162.591C9.7479 158.955 10.3713 155.13 13.0998 152.167C15.489 149.572 18.867 148.332 22.2842 149.579V149.575ZM65.7321 155.489C66.7146 154.801 63.8979 150.701 63.3365 149.977C61.6197 147.754 60.435 147.137 57.7064 146.416C55.8656 145.93 54.0248 145.414 52.2852 146.351C49.5665 147.816 46.5638 150.545 43.8711 152.294C41.7986 153.642 41.6746 153.877 39.0439 153.782C35.5027 153.652 31.3119 153.006 27.8066 152.385C24.9703 151.883 20.0354 150.186 17.4603 150.969C13.8636 152.059 11.0632 157.043 12.4275 160.679C12.7539 161.547 13.5274 161.498 14.3695 161.609C20.7992 162.451 29.68 162.242 36.1489 161.609C37.5262 161.475 39.3605 160.93 40.6073 160.881C42.3208 160.813 42.9083 161.583 45.0363 160.92C49.5175 159.523 49.7166 153.965 55.4577 155.564C57.2528 156.064 58.1013 157.807 60.076 157.624C60.9213 156.547 59.965 155.636 59.1458 154.938C57.2103 153.28 54.41 152.297 51.9719 151.677L52.0568 151.096C52.3929 150.643 54.0803 151.113 54.6189 151.237C56.4662 151.661 58.3755 152.673 59.8246 153.88C60.3207 154.295 62.2594 156.586 62.4455 156.632C63.2288 156.831 63.7249 155.728 63.6205 155.078C63.4866 154.233 60.5002 151.109 59.6941 150.561C58.4995 149.748 53.6887 148.694 53.5026 148.42C53.2644 148.067 53.7866 147.568 54.1946 147.522C54.8963 147.447 57.788 148.296 58.5779 148.609C61.0486 149.592 62.9448 151.775 64.2569 154.034C64.4952 154.445 64.9162 156.06 65.7354 155.486L65.7321 155.489ZM87.3876 151.106L67.413 154.967C66.8484 155.222 67.1878 156.544 65.4351 156.837C65.1512 156.886 64.8085 156.677 64.5898 156.759C64.3287 156.854 63.9795 157.559 63.4605 157.719L61.7274 157.993L84.127 160.865L84.894 158.378C84.708 158.198 79.8155 160.228 80.1158 158.492C80.2463 157.745 84.4828 157.219 85.2759 156.942L85.4652 156.273L75.7716 158.74C74.4922 159.06 73.9276 157.957 75.2723 157.474C78.51 156.312 82.5767 155.979 85.9091 154.899L86.4215 153.978L70.5985 157.794C67.6937 157.151 70.7127 156.472 71.8681 156.175C76.7704 154.899 81.8097 153.919 86.787 152.999L87.381 151.106H87.3876ZM51.1984 158.188C51.1135 159.51 52.0339 159.993 53.2317 160.078C62.638 160.499 72.4001 162.588 81.7477 162.98C82.4266 163.009 83.1577 162.856 83.3763 162.115L83.0434 161.671L51.2016 158.192L51.1984 158.188Z" fill="black"/>
<path d="M244.106 101.34C245.78 101.177 247.317 100.439 247.467 98.5756L247.461 44.9674C247.294 43.5737 246.296 43.058 245.046 42.7871L76.8057 42.8165C74.9845 43.182 74.5471 44.4418 74.3709 46.1227V78.0886C73.6659 80.4091 72.9348 78.5487 72.8303 77.1355C72.0438 66.7141 73.4309 55.3071 72.8401 44.7813C72.9903 42.9503 74.2762 41.524 76.0419 41.0932L245.428 41.0703C247.569 41.4293 248.988 42.7512 249.191 44.9641L249.181 98.9476C249.23 100.583 247.252 102.874 245.64 102.874H86.5253C86.0227 102.874 86.0227 101.343 86.5253 101.343H244.106V101.34Z" fill="black"/>
<path d="M97.878 53.5467C115.509 51.7581 117.272 78.5312 99.9244 79.5202C83.0472 80.4797 81.2684 55.2341 97.878 53.5467ZM105.711 60.9947L97.4798 69.2424C96.8172 69.5525 95.0841 67.3004 94.4738 66.7913C94.1768 66.5432 93.3184 65.7991 93.0279 65.7436C91.7452 65.4923 90.802 66.713 91.2524 67.8912L96.468 73.0252C96.8662 73.3026 97.4732 73.2961 97.9106 73.1068C98.3479 72.9175 101.543 69.4644 102.216 68.7986C102.513 68.5081 102.894 68.3384 103.185 68.0446C103.991 66.4486 107.053 64.6242 107.689 63.1718C108.325 61.7194 107.105 60.5704 105.705 60.9947H105.711Z" fill="black"/>
<path d="M197.675 87.0825C197.528 87.559 195.965 87.3502 195.498 87.3436L194.996 86.4135C194.943 86.9488 193.945 87.3731 193.471 87.4742C185.527 89.1845 187.257 73.5932 195.185 78.7533V74.0632C195.727 73.5965 197.153 73.6062 197.675 74.0632V87.0793V87.0825ZM192.649 79.7553C189.878 80.2122 190.139 86.0251 193.347 85.6432C196.099 85.3168 195.958 79.2102 192.649 79.7553Z" fill="black"/>
<path d="M176.803 60.76C180.664 57.8096 184.107 60.8351 183.702 65.2674C183.356 69.0371 179.577 70.7147 176.705 68.2277L176.496 69.2036L174.397 69.0044L174.342 56.0993L174.495 55.8676C174.753 55.6881 176.542 55.6457 176.806 56.07V60.76H176.803ZM179.038 61.5858C175.951 61.638 176.065 66.9939 178.617 67.2713C182.433 67.6891 181.894 61.5368 179.038 61.5858Z" fill="black"/>
<path d="M132.577 65.5458C131.806 69.0838 127.772 70.2131 124.655 68.9663C119.743 67.0015 119.613 58.9268 124.208 56.5116C126.627 55.242 130.521 55.6695 132.038 58.1402C133.292 60.1801 132.179 60.0072 130.364 60.3042C129.874 60.2226 129.597 58.2055 127.315 58.0717C124.117 57.8889 123.059 60.9798 123.435 63.6789C123.96 67.465 128.461 68.5682 130.455 65.2619L132.577 65.5458Z" fill="black"/>
<path d="M163.21 86.4103V90.7185C162.655 91.2799 161.65 90.9078 160.912 91.0057V78.2768C161.379 77.7644 162.257 78.0223 162.9 78.0125L163.213 78.7567H163.497C165.723 76.6156 169.408 78.0941 170.021 81.0413C170.984 85.6858 167.492 89.6447 163.213 86.4103H163.21ZM164.878 79.7521C162.707 80.2449 162.456 85.1765 165.025 85.4605C168.977 85.8946 168.468 78.9394 164.878 79.7521Z" fill="black"/>
<path d="M180.442 83.3464C180.292 84.6062 181.803 85.7388 182.975 85.6083C184.013 85.4908 184.629 84.4071 184.966 84.3419C185.217 84.2929 186.872 84.9065 186.937 85.184C185.475 88.327 180.409 88.4608 178.686 85.3863C175.556 79.8117 182.684 75.1052 186.072 79.3417C186.81 80.2621 187.583 82.3118 186.855 83.3431H180.442V83.3464ZM184.463 81.6231C184.342 78.7933 180.804 79.074 180.442 81.6231H184.463Z" fill="black"/>
<path d="M152.678 83.3453C152.704 85.0425 154.428 85.9564 155.939 85.3592C157.127 84.8892 156.738 83.7533 158.684 84.9054C159.878 85.6137 157.77 86.929 157.026 87.2097C152.835 88.7829 149.261 85.3983 150.397 81.1553C151.533 76.9124 157.763 76.4619 159.062 80.8909C159.281 81.6318 159.532 82.7415 158.906 83.3453H152.682H152.678ZM156.699 81.622C156.435 78.7564 153.132 79.0044 152.678 81.622H156.699Z" fill="black"/>
<path d="M129.13 87.3682H127.021L126.924 86.6011C124.962 88.3244 120.895 87.9035 120.879 84.7865C120.863 81.6696 124.551 81.7479 126.822 81.428C126.8 79.0455 124.094 79.3816 123.079 81.0168L121.277 80.3804C121 80.2139 121.169 80.1552 121.235 79.9724C122.096 77.5637 126.643 77.0447 128.275 78.9442C128.487 79.1923 129.13 80.3509 129.13 80.5761V87.3714V87.3682ZM126.832 83.1546C125.974 83.2068 123.718 83.2525 123.425 84.2479C122.664 86.81 127.687 85.906 126.832 83.1546Z" fill="black"/>
<path d="M137.697 59.6616C144.636 58.6596 145.452 68.4641 139.512 69.3225C132.57 70.3245 131.884 60.5004 137.697 59.6616ZM138.272 61.5644C135.171 62.0246 135.749 67.671 138.774 67.4556C142.139 67.2173 141.676 61.0618 138.272 61.5644Z" fill="black"/>
<path d="M211.607 59.6609C219.264 58.623 219.071 70.3433 211.607 69.3217C206.248 68.5906 206.202 60.392 211.607 59.6609ZM211.985 61.5669C209.146 62.1185 209.224 67.4483 212.442 67.3504C216.108 67.2394 215.367 60.9076 211.985 61.5669Z" fill="black"/>
<path d="M147.319 69.1815H145.021V59.8013L146.95 59.8829L147.225 60.7575C149.278 58.6981 153.09 59.377 153.449 62.5755C153.592 63.8615 153.612 67.246 153.458 68.5189C153.432 68.7245 153.465 68.9595 153.269 69.0966C152.763 69.188 151.161 69.4002 150.984 68.8649C150.707 67.481 151.451 62.7419 150.488 61.8966C149.281 60.8391 147.319 62.3405 147.319 63.5318V69.1782V69.1815Z" fill="black"/>
<path d="M227.353 69.1818C226.834 69.0872 225.274 69.4527 225.081 68.8685C224.781 67.1974 226.171 60.2096 222.614 61.6718C222.131 61.8708 221.224 63.0654 221.224 63.5354V69.1818C220.414 69.5017 219.742 69.3417 218.926 69.1818V59.8016L220.913 59.8245L221.318 60.5653C222.575 59.3022 225.261 59.2402 226.498 60.5588C226.703 60.7775 227.35 61.9916 227.35 62.1939V69.1818H227.353Z" fill="black"/>
<path d="M193.844 69.1832C192.874 69.2191 191.667 69.6075 191.644 68.227C190.27 69.8393 187.447 69.8393 186.187 68.129C185.958 67.8157 185.42 66.719 185.42 66.409V60.0935L185.737 59.8356C185.909 59.7801 186.096 59.8095 186.272 59.7965C186.748 59.7541 187.424 59.7018 187.718 60.0935V66.0271C187.718 66.755 188.795 67.4795 189.519 67.4501C190.244 67.4207 191.546 66.6048 191.546 65.8345V60.0935L191.863 59.8356C192.036 59.7801 192.222 59.8095 192.398 59.7965C192.874 59.7541 193.55 59.7018 193.844 60.0935V69.1865V69.1832Z" fill="black"/>
<path d="M139.469 84.3039C139.365 85.8836 137.831 87.3262 136.293 87.5416C128.591 88.6089 128.493 76.7612 136.101 77.8122C137.21 77.9656 138.924 79.1732 139.192 80.2796C139.459 81.3861 137.315 81.4513 136.878 81.0531C136.6 80.8018 136.705 80.2078 136.032 79.9859C132.318 78.7619 131.828 85.1753 134.968 85.4593C136.9 85.6355 136.861 84.1016 137.491 83.9482L139.469 84.3039Z" fill="black"/>
<path d="M149.023 80.8397C148.432 80.9963 147.675 81.4206 147.061 81.215C146.637 81.0714 146.725 80.2424 145.971 80.0139C142.345 78.9108 141.973 84.5408 144.307 85.3046C145.788 85.7909 146.666 85.2621 147.251 83.9044L149.343 84.4919C147.061 90.3406 138.954 87.4163 140.628 81.1563C141.754 76.9459 148.272 76.365 149.023 80.8397Z" fill="black"/>
<path d="M174.681 75.5195C174.87 76.3224 175.086 77.1971 174.701 77.9837L176.874 78.0131C177.351 78.1698 177.302 79.6123 177.008 79.818L174.697 79.9028L174.971 85.0825L176.871 85.2881C177.38 85.4546 177.217 86.7307 177.099 87.1877C171.264 89.0089 172.449 83.7019 172.4 79.9028L170.895 79.8768C170.281 78.4178 170.849 77.7651 172.4 77.9903L172.579 75.5848L174.678 75.5228L174.681 75.5195Z" fill="black"/>
<path d="M199.207 59.8039C199.987 59.9051 201.489 59.4024 201.694 60.4795C202.047 62.3235 200.418 61.5924 199.207 61.7165C199.423 63.0318 198.904 65.3883 199.246 66.56C199.556 67.6207 201.449 66.4653 201.694 67.7545C202.132 70.0686 198.365 69.5953 197.399 68.4106C196.371 67.1507 197.187 63.6649 196.887 62.033L196.599 61.7459L195.189 61.7197L195.274 59.9834L196.916 59.8039L197.096 57.3984L199.129 57.4931L199.21 59.8039H199.207Z" fill="black"/>
<path d="M158.807 66.6018C159.032 67.4112 160.729 66.8401 161.02 67.2611V69.0073C159.926 69.6437 157.802 69.4054 156.995 68.4132C155.967 67.1501 156.783 63.6676 156.483 62.0357L156.196 61.7485L154.773 61.6408C154.11 60.0513 155.018 59.601 156.509 59.8066C156.421 58.8797 155.938 57.486 157.168 57.313C159.424 56.9964 158.725 58.1257 158.804 59.8099L160.788 59.8359C161.343 60.0187 161.03 61.2524 161.105 61.7257H158.807V66.6051V66.6018Z" fill="black"/>
<path d="M165.126 69.1829H162.828V59.8027H164.937V60.7589C165.86 59.9658 167.061 59.1891 168.298 59.7896V61.5358C168.112 61.7969 166.702 61.6108 165.984 62.2864C165.704 62.5508 165.126 63.7976 165.126 64.1076V69.1796V69.1829Z" fill="black"/>
<path d="M205.907 69.1813C205.121 69.4457 204.399 69.4489 203.609 69.1813V59.8011C204.347 59.899 205.352 59.5269 205.907 60.0883V69.1813Z" fill="black"/>
<path d="M172.208 69.1806C171.398 69.5005 170.726 69.3406 169.91 69.1806V60.0876L170.227 59.8298C170.4 59.7743 170.586 59.8037 170.762 59.7906C171.239 59.7482 171.914 59.6959 172.208 60.0876V69.1806Z" fill="black"/>
<path d="M169.96 56.218C171.207 55.0691 173.322 56.7271 172.023 58.1828C170.724 59.6384 168.613 57.4582 169.96 56.218Z" fill="black"/>
<path d="M204.693 55.8404C206.465 55.7424 206.703 58.5918 204.85 58.6669C202.885 58.7485 202.94 55.935 204.693 55.8404Z" fill="black"/>
<path d="M257.606 31.4755H23.2441V5.15609C23.2441 3.77224 24.5758 2.30678 25.9629 2.1338L254.805 2.01953C257.279 2.3198 257.397 3.5437 257.603 5.73372V31.4755H257.606ZM144.968 8.35784C143.532 8.79193 142.909 10.0779 142.742 11.4944C142.413 14.3307 142.465 20.6428 142.716 23.5379C142.856 25.1796 143.516 26.8082 145.324 27.0563C178.439 26.9747 211.612 27.3043 244.691 26.8898C245.657 26.4981 246.3 25.6887 246.483 24.6639C246.104 20.3295 247.057 14.9312 246.483 10.7241C246.313 9.48712 245.566 8.51456 244.28 8.33178L144.965 8.35784H144.968ZM40.1899 9.65356C38.9203 9.47405 37.2916 9.78738 35.9763 9.65356L35.6891 9.94082V21.4262C35.9828 21.8178 36.6617 21.7656 37.1349 21.7232C37.3112 21.7068 37.494 21.7395 37.6702 21.684L37.9868 21.4262V17.9796C37.9868 17.9371 37.631 17.6532 38.1043 17.5259C38.5253 17.4117 39.0639 17.4574 39.4359 17.6793C40.1083 18.084 41.5966 21.4099 42.047 21.671C42.2885 21.8113 44.4753 21.8015 44.4916 21.4262L41.6194 17.0266C44.9518 15.2543 44.0118 10.1954 40.1866 9.65356H40.1899ZM82.7435 9.69277C81.141 9.82658 81.2552 12.4377 82.8708 12.3332C84.6463 12.219 84.4472 9.55242 82.7435 9.69277ZM88.9187 13.2928L88.8371 11.1746L86.8135 10.995V13.2928L85.2697 13.3744C84.9792 13.5767 84.927 15.0226 85.4035 15.1793L86.8135 15.2053C87.0126 15.4044 86.51 19.8269 87.0289 20.8289C87.6588 22.0528 89.9043 22.043 91.001 21.498C91.0238 21.0541 91.2131 19.9869 90.7138 19.8269L89.2353 19.7747L88.948 19.4875L88.9187 15.2053L90.8476 15.1237C91.1381 14.9214 91.1903 13.4755 90.7138 13.3188L88.9219 13.2928H88.9187ZM56.5612 20.7571C58.6957 22.8622 62.2206 21.8701 62.7918 18.8511C63.4413 15.4306 61.2317 12.1733 57.573 13.4396C57.1813 13.5767 56.8712 13.9683 56.6558 14.0532C56.1532 14.2523 56.4665 13.3874 56.3719 13.2895C55.742 13.3613 54.913 13.0545 54.456 13.5799V24.8728C54.7563 25.4374 56.5612 25.1763 56.5612 24.6802V20.7571ZM68.0139 13.1459C62.5209 13.5017 62.6515 22.0169 68.3272 21.9125C74.3718 21.8015 73.8725 12.764 68.0139 13.1459ZM95.7759 13.1492C90.4298 13.5833 90.7268 21.9778 96.2818 21.9092C102.088 21.8407 101.889 12.6531 95.7759 13.1492ZM101.749 13.5799V21.4262C101.99 21.7885 102.408 21.7264 102.803 21.7264C103.051 21.7264 103.296 21.7395 103.537 21.684L103.854 21.4262V17.4051C103.854 17.3366 104.213 16.2432 104.278 16.1061C104.996 14.6701 106.589 15.176 106.834 14.8333C106.984 14.6179 106.984 13.4951 106.834 13.2764C106.377 12.6204 104.281 13.5604 103.949 14.2425L103.541 13.3124C103.129 13.2797 101.883 13.1328 101.749 13.5734V13.5799ZM47.1777 18.0775H52.8274C53.2549 17.7511 53.1407 17.1473 53.0917 16.6642C52.6838 12.5322 46.7828 11.9905 45.363 15.783C43.8486 19.8334 47.6118 23.2507 51.5251 21.3707C52.1648 21.0639 53.4508 20.1631 52.4879 19.5658C50.7908 18.5181 51.0094 19.6017 50.0629 19.9053C48.6399 20.3622 47.3637 19.5136 47.181 18.0775H47.1777ZM79.2871 15.3425C79.545 15.1205 79.8355 14.4416 80.1064 14.1544C78.8465 13.0479 76.0266 12.8913 74.7439 13.9586C73.3078 15.1564 73.6048 16.6871 75.0703 17.6663C75.8471 18.1852 78.1024 18.5084 78.0143 19.5071L77.6226 20.0912C76.5129 20.509 75.6284 19.5984 74.6493 19.2884L73.6048 20.7571C75.2955 21.7232 77.5736 22.513 79.3557 21.2466C80.7493 20.2544 80.671 18.2342 79.2251 17.3431C78.7551 17.0527 74.5056 15.9985 76.3334 15.1629C77.5802 14.5918 78.7225 15.8288 79.2904 15.3457L79.2871 15.3425ZM81.8329 13.2928V21.4262C82.0744 21.7885 82.4922 21.7264 82.8871 21.7264C83.1352 21.7264 83.38 21.7395 83.6215 21.684L83.9381 21.4262V13.5799C83.4322 13.0349 82.5151 13.3776 81.8329 13.2928ZM109.954 13.3188C109.536 13.296 107.728 13.1328 107.692 13.5767C108.502 15.4273 109.151 17.3464 109.889 19.2231C110.078 19.7061 111.051 21.449 111.083 21.6481C111.142 22.0136 110.613 23.0646 110.284 23.2572C109.592 23.6619 107.692 23.0711 108.286 24.8434C108.635 25.8845 111.354 24.9087 112.059 23.8806C112.653 23.0124 115.796 14.7419 115.907 13.7529C115.923 13.5995 115.927 13.4429 115.92 13.2895L113.903 13.4756L111.899 19.2198L109.954 13.3156V13.3188Z" fill="#C4DEF8"/>
<path d="M28.2219 110.336C28.3231 111.361 28.6266 112.379 28.9367 113.355C29.4295 114.909 32.6737 124.152 33.5811 124.602C35.3696 125.483 38.5257 120.725 39.8084 119.723C40.4645 119.21 41.7439 118.499 42.5696 118.463C43.1506 118.437 45.37 121.524 45.7975 122.144C44.3745 125.039 45.0109 128.199 44.8869 131.306C44.6748 136.649 44.4398 142.236 43.7054 147.543C43.614 148.203 43.3464 150.52 43.0494 150.908C42.9613 151.026 41.3685 151.999 41.1531 152.077C40.0532 152.469 34.4525 151.845 32.9348 151.659C29.9419 151.29 26.9816 150.556 24.0409 149.929C23.9626 148.262 22.7909 147.273 21.8999 146.032C24.2074 139.178 26.4562 131.583 23.4698 124.566C22.4025 122.053 19.8175 118.626 16.9258 118.381L17.0433 118.969C18.9037 119.622 20.3332 121.449 21.2928 123.107C25.2714 129.997 22.9019 138.356 20.5617 145.37C14.6803 142.338 6.49139 144.518 3.29611 150.406L2.37571 152.449C2.33981 150.83 2.67272 149.208 3.00237 147.625C4.44498 140.768 8.12982 126.551 11.5993 120.81C15.0687 115.069 22.3894 112.608 28.2186 110.339L28.2219 110.336Z" fill="#C4DEF8"/>
<path d="M130.278 120.861L130.141 122.164L118.506 155.131L117.099 155.637L85.4728 161.822C85.2802 161.62 86.4324 158.448 86.6184 157.896C89.892 148.131 93.2439 138.287 96.7656 128.61C97.4738 126.661 97.81 123.933 100.336 123.949L130.278 120.861ZM110.124 136.028C107.376 136.475 104.667 140.81 106.531 143.166C109.302 146.672 115.164 139.573 112.282 136.652C111.691 136.051 110.937 135.895 110.124 136.028Z" fill="white"/>
<path d="M63.837 94.5457C63.5074 98.0967 61.2749 103.365 58.6704 105.842C53.5266 110.734 47.6093 108.691 42.0739 105.776C41.5027 105.476 39.688 103.945 39.2246 104.588C39.0451 104.836 39.1789 105.071 39.2833 105.31C39.6032 106.028 42.5112 108.587 43.288 109.158C45.1647 110.542 47.4657 111.788 49.8614 111.681L46.3201 120.48C45.3181 119.367 44.3847 118.009 43.3566 116.939C40.9936 114.471 34.7368 110.95 34.1722 107.363C33.7805 104.863 34.2799 101.22 33.9731 98.5667C33.9372 98.2534 33.885 97.9629 33.6859 97.705C33.2257 97.2383 31.8288 97.9955 31.1727 98.0706C24.038 98.9159 21.0582 88.439 26.698 86.5166C28.5095 85.8998 30.0075 86.5101 31.2935 87.845C32.0964 88.6773 32.4326 89.9404 33.49 90.4397C34.6813 90.4495 33.9633 86.8953 34.1722 86.0401L41.2449 85.0741C41.0262 94.9308 54.2773 94.686 53.3079 84.6922L55.4327 84.627L58.7585 90.2505C59.395 92.9562 57.0646 93.6057 54.8387 93.3087C54.5156 94.2193 55.7232 94.451 56.4673 94.4706C58.3832 94.5228 60.162 93.1781 60.2076 91.21C61.474 91.2427 62.6294 91.2329 63.837 90.8184C63.7554 92.026 63.948 93.3576 63.837 94.5522V94.5457ZM30.1348 92.7277C30.533 94.9275 32.9842 95.6423 31.5807 92.7212C30.7811 91.0533 28.6498 88.8601 26.6491 89.131C26.104 89.2028 25.3468 89.5553 25.931 90.1428C26.9885 90.4235 28.1929 90.5932 28.9533 91.4842C28.3332 92.4209 27.6413 93.622 28.219 94.7512C29.1165 95.404 29.2471 92.5971 30.1381 92.731L30.1348 92.7277ZM58.8173 97.3688C58.3114 96.9576 57.7859 97.3264 57.2408 97.3297C53.7747 97.3558 49.9103 96.295 46.8913 96.3995C44.4793 96.4843 45.1712 98.0836 46.0264 99.5262C48.3665 103.482 53.7192 105.133 57.0418 101.341C57.5346 100.78 59.4145 97.94 58.8173 97.3688Z" fill="#FCF7ED"/>
<path d="M73.0285 135.028C66.7881 136.304 63.5177 144.019 65.5609 149.767C64.0563 149.653 63.7103 147.606 62.3493 147.048C62.0458 146.526 63.4557 138.543 63.6189 137.205C63.9094 134.815 65.1007 125.452 64.0106 123.852C63.7919 123.532 63.6679 123.5 63.2632 123.546C62.8748 126.013 63.0706 128.644 62.878 131.105C62.4766 136.199 61.3604 141.242 60.9654 146.324C57.9921 145.025 54.5618 143.481 51.4057 145.093C49.1831 146.226 46.9278 148.523 44.6953 149.77C45.2273 146.327 45.6059 142.822 45.8409 139.336C46.1379 134.884 45.8474 130.073 46.2195 125.742C46.4317 123.258 47.1628 123.278 48.527 121.734C49.516 120.618 50.3874 119.384 51.5167 118.395C51.9736 118.317 55.1102 122.162 56.2035 121.923C56.3896 121.884 56.7747 121.61 56.8563 121.44C57.0489 121.049 56.6213 118.072 56.5038 117.387C56.2133 115.699 55.6454 114.097 55.2244 112.445C57.2577 113.222 59.4086 113.976 61.2886 115.092C63.5765 116.45 64.7254 117.818 66.0472 120.099C68.7856 124.831 70.4338 130.22 73.0318 135.031L73.0285 135.028ZM49.4278 126.659C47.9298 125.308 46.621 129.107 48.9905 128.715C49.8652 128.572 50.0153 127.188 49.4278 126.659ZM47.7992 140.916C48.9807 142.094 50.6355 139.656 49.0884 138.954C47.7959 138.37 47.1334 140.25 47.7992 140.916Z" fill="#C4DEF8"/>
<path d="M65.7336 155.491C64.9144 156.066 64.4966 154.45 64.2551 154.039C62.943 151.784 61.0467 149.6 58.576 148.614C57.7862 148.301 54.8944 147.449 54.1927 147.528C53.7847 147.573 53.2625 148.073 53.5008 148.425C53.6836 148.696 58.4977 149.753 59.6923 150.566C60.4952 151.114 63.4815 154.235 63.6186 155.083C63.7231 155.733 63.2237 156.833 62.4437 156.637C62.2609 156.591 60.3222 154.297 59.8228 153.886C58.3737 152.678 56.4643 151.666 54.617 151.242C54.0785 151.118 52.3911 150.651 52.0549 151.101L51.9701 151.682C54.4114 152.303 57.2085 153.285 59.1439 154.943C59.9599 155.641 60.9194 156.552 60.0741 157.629C58.0995 157.812 57.2509 156.069 55.4558 155.57C49.7148 153.97 49.5157 159.532 45.0345 160.925C42.9097 161.588 42.319 160.818 40.6055 160.886C39.3587 160.935 37.5277 161.48 36.1471 161.614C29.6782 162.244 20.7973 162.456 14.3676 161.614C13.5256 161.503 12.752 161.552 12.4257 160.684C11.0614 157.045 13.865 152.064 17.4585 150.974C20.0336 150.194 24.9652 151.888 27.8048 152.391C31.3101 153.011 35.5041 153.66 39.0421 153.788C41.6727 153.882 41.7967 153.647 43.8693 152.299C46.5619 150.55 49.5646 147.821 52.2834 146.356C54.023 145.419 55.8638 145.935 57.7046 146.421C60.4331 147.139 61.6179 147.759 63.3347 149.982C63.8961 150.707 66.7127 154.806 65.7303 155.495L65.7336 155.491Z" fill="#FCF7ED"/>
<path d="M89.4939 112.635C89.7093 111.721 88.802 111.414 88.0415 111.313C86.2921 111.078 84.2098 111.355 83.0805 112.824C81.1908 111.884 82.5322 109.714 84.0825 109.426C85.92 109.087 90.8484 110.627 92.0658 112.073C93.2147 113.438 93.0678 117.452 92.9405 119.234C92.6076 123.905 90.5971 128.19 89.2556 132.583C87.4148 138.602 86.1256 144.891 83.0087 150.41C80.7828 150.674 78.1489 151.693 75.9719 151.856C74.7937 151.944 74.278 150.825 73.7982 149.862C70.913 144.085 74.0528 141.706 76.8695 137.423C78.4981 134.949 81.7293 129.453 82.1797 126.653C82.5159 124.548 81.9088 124.815 80.9982 123.523C79.3141 121.134 77.8584 118.239 78.2044 115.213C78.3773 113.692 79.5686 111.865 81.2593 112.925C82.7117 113.836 82.6334 116.483 82.6105 117.991C80.8089 118.327 80.4727 116.509 80.6947 115.119C79.8787 114.981 79.5752 115.912 79.5393 116.561C79.4413 118.405 81.0047 119.825 82.7998 119.14C82.7835 119.998 83.0446 120.905 83.4297 121.669C83.7398 122.283 84.8169 123.252 84.8789 123.49C84.9605 123.8 84.683 124.962 84.7059 125.559C84.7483 126.61 85.2412 128.164 86.3737 128.487C86.6707 128.572 86.8731 128.627 86.8208 128.233C86.749 127.704 86.2105 127.028 86.1028 126.268C85.9886 125.471 86.0832 124.659 86.044 123.859C87.8294 123.298 88.2014 122.028 88.2471 120.279L89.4776 119.884L89.5004 119.14C88.3255 119.068 87.2582 119.084 86.3345 119.903L86.266 120.35C87.3235 121.144 86.5336 123.115 85.2803 121.924C84.2914 120.984 84.3991 119.006 84.1315 117.746C84.2261 117.328 86.9971 116.271 87.4899 116.271H90.4567C90.4894 115.092 89.1904 114.975 88.2634 114.923C86.6479 114.835 85.2999 115.079 84.1412 116.271L83.5635 113.787C84.4089 113.555 85.6622 112.635 86.5336 112.635H89.5004H89.4939Z" fill="#FCF7ED"/>
<path d="M58.7902 70.3997C59.2211 70.8533 61.757 74.3424 61.3458 74.734C60.099 74.1433 57.0735 75.0539 56.845 76.4344C56.6165 77.815 59.7172 76.4508 60.6147 76.4997C61.3066 76.5389 62.5893 76.9501 62.289 77.8672C62.1356 78.3372 60.4972 78.1479 59.8477 78.3079C57.5565 78.8725 56.264 80.9614 55.608 83.0665L53.1014 83.4451C51.8383 80.5501 49.8441 78.7681 46.5052 79.1336C44.0215 79.4045 42.4091 81.5358 41.4365 83.6377L34.1582 84.6854C36.1328 80.6154 37.1772 75.9384 35.8815 71.48C39.6316 72.4624 44.1259 73.4807 47.9446 72.3416C50.5197 71.5746 48.0882 70.0439 47.5594 68.6078C50.4349 69.2051 53.0883 70.4127 55.732 71.6367L56.189 71.3984C56.6883 70.713 55.9964 69.1953 55.794 68.4185C56.1922 68.0986 58.4345 70.0243 58.7902 70.3997ZM45.6044 75.1713C44.4001 75.3247 43.2088 75.9024 42.2166 76.5715C41.6552 76.9501 39.1845 78.8954 40.8033 79.3034C41.1917 79.4013 42.9803 78.1904 43.6004 77.9554C44.5176 77.6061 45.9145 77.2438 46.8838 77.2145C47.7128 77.1884 49.1946 77.6845 49.7788 77.2406C50.4022 76.6107 49.7527 75.9318 49.1032 75.5858C48.098 75.0473 46.7174 75.031 45.6044 75.1713Z" fill="#FCF7ED"/>
<path d="M22.2848 149.446C18.8708 148.199 15.4895 149.443 13.1004 152.034C10.3686 154.998 9.74518 158.823 11.5631 162.459C3.76261 163.774 0.391083 155.491 5.05834 149.736C8.23403 145.817 15.3883 144.035 19.8598 146.606C20.3461 146.887 22.7189 148.878 22.2848 149.443V149.446Z" fill="#C4DEF8"/>
<path d="M41.6258 117.419C38.1759 117.823 37.0434 121.805 34.1614 123.163C33.0224 120.633 31.9714 118.052 31.0902 115.415C30.6887 114.213 29.2037 110.372 29.6606 109.386C29.7846 109.122 30.4733 108.446 30.7442 107.983C31.3023 107.03 31.4361 106.064 32.5295 105.365C32.2684 108.9 35.529 112.409 38.0845 114.546C38.9723 115.291 40.7511 116.159 41.4365 116.939C41.5833 117.105 41.6845 117.151 41.6225 117.422L41.6258 117.419Z" fill="#C4DEF8"/>
<path d="M87.388 151.109L86.794 153.002C81.8166 153.923 76.7806 154.905 71.8751 156.178C70.7229 156.478 67.7006 157.154 70.6054 157.797L86.4284 153.982L85.916 154.902C82.5869 155.982 78.5169 156.315 75.2792 157.477C73.9345 157.96 74.4959 159.063 75.7786 158.743L85.4721 156.276L85.2828 156.945C84.4897 157.222 80.25 157.748 80.1227 158.495C79.8225 160.232 84.7117 158.202 84.901 158.381L84.134 160.868L61.7344 157.996L63.4675 157.722C63.9831 157.562 64.3356 156.857 64.5967 156.762C64.8154 156.684 65.1581 156.89 65.4421 156.841C67.1947 156.547 66.8553 155.225 67.4199 154.97L87.3945 151.109H87.388Z" fill="white"/>
<path d="M75.7063 136.37C74.3322 138.43 72.4816 140.375 71.6787 142.774C70.5364 146.182 71.5351 149.334 73.4086 152.255L69.3353 152.996C63.1765 147.771 67.3052 135.639 75.7063 136.374V136.37Z" fill="#C4DEF8"/>
<path d="M46.3625 80.5203C53.0501 79.3845 53.8791 90.0213 48.3763 90.958C41.519 92.1264 40.8728 81.4538 46.3625 80.5203ZM48.4579 83.5883C46.0851 83.8853 46.4409 88.657 48.6146 88.5363C50.5565 88.4286 50.6903 83.8363 48.4579 83.5883Z" fill="#FCF7ED"/>
<path d="M60.3408 79.5663C66.9827 78.4175 67.5637 89.7233 61.7998 90.0366C59.0386 90.1867 57.9876 86.0482 56.7539 84.2009C57.1195 82.2851 58.1998 79.9351 60.3408 79.5663ZM60.7227 82.804C58.8689 83.1336 58.8982 88.0392 61.4342 87.5561C63.3403 87.1939 62.9682 82.4026 60.7227 82.804Z" fill="#FCF7ED"/>
<path d="M51.1981 158.189L83.0399 161.668L83.3729 162.112C83.1574 162.853 82.4231 163.006 81.7442 162.977C72.3999 162.585 62.6378 160.496 53.2282 160.075C52.0304 159.99 51.11 159.507 51.1949 158.186L51.1981 158.189Z" fill="white"/>
<path d="M52.7062 110.361C54.2206 113.318 55.1345 116.582 55.4087 119.905C53.9563 119.275 52.4647 116.086 50.823 117.14L48.3262 119.52L51.7891 110.639L52.7062 110.361Z" fill="#C4DEF8"/>
<path d="M105.711 60.9935C107.111 60.5692 108.315 61.7572 107.695 63.1705C107.075 64.5837 103.994 66.4506 103.191 68.0433C102.901 68.3371 102.519 68.5035 102.222 68.7973C101.546 69.4598 98.3607 72.9129 97.9168 73.1055C97.4729 73.2981 96.8724 73.3013 96.4742 73.0239L91.2586 67.8899C90.8082 66.7117 91.7515 65.491 93.0341 65.7423C93.3246 65.7978 94.183 66.5419 94.48 66.79C95.0903 67.2992 96.8234 69.5512 97.486 69.2411L105.717 60.9935H105.711Z" fill="#FCF7ED"/>
<path d="M144.968 8.35809L244.283 8.33203C245.569 8.5148 246.316 9.48737 246.486 10.7244C247.06 14.9314 246.107 20.3298 246.486 24.6641C246.303 25.6889 245.657 26.4984 244.694 26.89C211.615 27.3046 178.442 26.9749 145.327 27.0565C143.516 26.8117 142.86 25.1798 142.719 23.5381C142.468 20.6398 142.419 14.3276 142.745 11.4947C142.909 10.0782 143.535 8.79544 144.971 8.35809H144.968ZM145.729 9.88888C145.112 10.0912 144.557 10.6362 144.456 11.2955C144.762 15.2317 144.008 19.8761 144.446 23.7274C144.635 25.3887 145.438 25.281 146.864 25.5225L242.39 25.5552C244.27 25.3659 244.733 25.2484 244.945 23.3227C245.239 20.6235 245.239 14.5757 244.965 11.8634C244.867 10.8875 244.596 10.0749 243.522 9.86274L145.732 9.89207L145.729 9.88888Z" fill="black"/>
<path d="M40.1909 9.65085C44.0128 10.1926 44.9561 15.2516 41.6237 17.0238L44.4959 21.4235C44.4796 21.7988 42.2928 21.8119 42.0513 21.6682C41.6041 21.4071 40.1158 18.0781 39.4402 17.6766C39.0681 17.4547 38.5296 17.4057 38.1086 17.5232C37.6353 17.6505 37.9911 17.9377 37.9911 17.9769V21.4235L37.6745 21.6813C37.5015 21.7368 37.3155 21.7074 37.1392 21.7204C36.6627 21.7629 35.9871 21.8151 35.6934 21.4235V9.93811L35.9806 9.65085C37.2959 9.78467 38.9245 9.47134 40.1942 9.65085H40.1909ZM37.9878 11.5668V15.108C37.9878 15.1668 37.7234 15.3789 37.7985 15.5845C42.6159 16.4364 42.8803 10.8879 37.9878 11.5668Z" fill="black"/>
<path d="M56.5622 20.757V24.6802C56.5622 25.1763 54.7573 25.4374 54.457 24.8727V13.5799C54.914 13.0544 55.743 13.3645 56.3729 13.2895C56.4675 13.3874 56.1509 14.2555 56.6568 14.0531C56.8755 13.9683 57.1823 13.5734 57.574 13.4396C61.236 12.1732 63.4456 15.4273 62.7928 18.851C62.2184 21.8701 58.6967 22.8622 56.5622 20.757ZM57.1954 15.4566C56.1738 16.4031 56.2946 19.5429 57.8547 19.9411C61.6962 20.9268 61.5656 14.582 58.2072 15.0226C57.9558 15.0552 57.3782 15.2869 57.1954 15.4566Z" fill="black"/>
<path d="M47.1776 18.0754C47.3603 19.5115 48.6398 20.3601 50.0595 19.9032C51.006 19.5996 50.7873 18.516 52.4845 19.5637C53.4474 20.1577 52.1647 21.0585 51.5217 21.3686C47.6084 23.2486 43.8419 19.8313 45.3596 15.7809C46.7794 11.9851 52.6804 12.5301 53.0883 16.6621C53.1373 17.1484 53.2515 17.749 52.824 18.0754H47.1743H47.1776ZM50.8167 16.5447C50.5458 14.1719 47.7357 14.3645 47.1776 16.5447H50.8167Z" fill="black"/>
<path d="M95.7761 13.1502C101.889 12.6541 102.088 21.8417 96.282 21.9103C90.7269 21.9756 90.4299 13.5811 95.7761 13.1502ZM95.763 15.0595C93.227 15.5001 93.6448 20.3176 96.4647 19.9879C99.2847 19.6583 98.9681 14.5047 95.763 15.0595Z" fill="black"/>
<path d="M68.0138 13.1465C73.8723 12.7647 74.3717 21.8021 68.3271 21.9131C62.6513 22.0175 62.5207 13.5056 68.0138 13.1465ZM67.8081 15.0591C65.4321 15.4703 65.6899 19.6513 67.7755 19.9809C71.4146 20.5554 71.4016 14.4357 67.8081 15.0591Z" fill="black"/>
<path d="M109.955 13.3201L111.9 19.2244L113.904 13.4801L115.921 13.2941C115.928 13.4475 115.925 13.6008 115.908 13.7575C115.794 14.7464 112.654 23.017 112.06 23.8851C111.355 24.9132 108.637 25.8891 108.287 24.848C107.693 23.0757 109.593 23.6632 110.285 23.2618C110.614 23.0692 111.146 22.0182 111.084 21.6527C111.052 21.4503 110.079 19.7107 109.89 19.2277C109.152 17.3477 108.503 15.4318 107.693 13.5813C107.733 13.1374 109.541 13.3006 109.955 13.3234V13.3201Z" fill="black"/>
<path d="M79.2871 15.3421C78.7192 15.8252 77.5736 14.5882 76.3301 15.1593C74.5024 15.9949 78.7551 17.0523 79.2219 17.3395C80.6677 18.2306 80.7493 20.2509 79.3524 21.2431C77.5704 22.5094 75.2922 21.7196 73.6016 20.7535L74.646 19.2848C75.6251 19.5948 76.5096 20.5055 77.6193 20.0877L78.011 19.5035C78.0991 18.5048 75.8438 18.1816 75.067 17.6627C73.6016 16.6835 73.3046 15.1528 74.7406 13.955C76.0233 12.8877 78.8432 13.0444 80.1031 14.1508C79.8322 14.438 79.545 15.1202 79.2839 15.3389L79.2871 15.3421Z" fill="black"/>
<path d="M88.9206 13.2938L90.7125 13.3199C91.189 13.4766 91.14 14.9192 90.8463 15.1248L88.9174 15.2064L88.9467 19.4886L89.2339 19.7757L90.7125 19.828C91.2118 19.9879 91.0225 21.0552 90.9997 21.499C89.903 22.0441 87.6575 22.0539 87.0276 20.8299C86.5119 19.8279 87.0113 15.4055 86.8122 15.2064L85.4022 15.1803C84.9257 15.0269 84.9779 13.5778 85.2684 13.3754L86.8122 13.2938V10.9961L88.8325 11.1756L88.9141 13.2938H88.9206Z" fill="black"/>
<path d="M101.748 13.5817C101.885 13.141 103.129 13.2879 103.54 13.3205L103.948 14.2508C104.281 13.5686 106.376 12.6287 106.833 13.2847C106.983 13.5001 106.983 14.6261 106.833 14.8415C106.592 15.1842 104.996 14.6783 104.278 16.1144C104.209 16.2482 103.853 17.3448 103.853 17.4134V21.4344L103.537 21.6923C103.295 21.7478 103.047 21.7347 102.802 21.7347C102.411 21.7347 101.993 21.8 101.748 21.4344V13.5882V13.5817Z" fill="black"/>
<path d="M81.832 13.2933C82.5174 13.3781 83.4346 13.0354 83.9372 13.5804V21.4267L83.6206 21.6845C83.3791 21.74 83.131 21.7269 82.8862 21.7269C82.4946 21.7269 82.0768 21.7922 81.832 21.4267V13.2933Z" fill="black"/>
<path d="M82.7445 9.69285C84.4514 9.55251 84.6473 12.2191 82.8717 12.3333C81.2562 12.4377 81.1419 9.8234 82.7445 9.69285Z" fill="black"/>
<path d="M110.125 136.029C110.938 135.899 111.688 136.055 112.282 136.653C115.167 139.574 109.306 146.672 106.531 143.167C104.668 140.807 107.377 136.476 110.125 136.029ZM110.122 137.55C108.173 137.968 106.006 142.436 108.734 142.315C109.753 142.27 111.081 140.899 111.365 139.952C111.682 138.888 111.584 137.237 110.122 137.55Z" fill="black"/>
<path d="M58.8169 97.3692C59.4174 97.9403 57.5342 100.78 57.0414 101.341C53.7155 105.134 48.3629 103.482 46.026 99.5266C45.1709 98.084 44.4789 96.4847 46.8909 96.3998C49.9099 96.2954 53.7743 97.3561 57.2405 97.33C57.7855 97.3268 58.311 96.9579 58.8169 97.3692ZM54.4532 101.345L47.1781 98.665C48.7447 101.07 51.1567 102.797 54.0713 101.628C54.2541 101.557 54.5086 101.606 54.4532 101.345Z" fill="black"/>
<path d="M30.1354 92.7259C29.2444 92.5953 29.1139 95.399 28.2163 94.7462C27.6386 93.6137 28.3305 92.4158 28.9507 91.4791C28.1902 90.5881 26.9826 90.4184 25.9284 90.1377C25.3474 89.5502 26.1014 89.2009 26.6464 89.1259C28.6504 88.8582 30.7817 91.0515 31.578 92.716C32.9815 95.6372 30.5304 94.9224 30.1322 92.7226L30.1354 92.7259Z" fill="black"/>
<path d="M47.7977 140.916C47.1319 140.254 47.7944 138.37 49.0869 138.955C50.634 139.653 48.9792 142.094 47.7977 140.916Z" fill="black"/>
<path d="M49.4271 126.659C50.0113 127.188 49.8612 128.572 48.9897 128.715C46.6202 129.107 47.9323 125.308 49.4271 126.659Z" fill="black"/>
<path d="M45.6046 75.1703C46.7176 75.03 48.0982 75.0463 49.1034 75.5849C49.7497 75.9308 50.3992 76.6097 49.779 77.2396C49.1948 77.6835 47.7163 77.1874 46.884 77.2135C45.9114 77.2429 44.5145 77.6052 43.6006 77.9544C42.9805 78.1926 41.1887 79.4003 40.8035 79.3024C39.1847 78.8944 41.6554 76.9491 42.2168 76.5705C43.209 75.9015 44.4003 75.3237 45.6046 75.1703Z" fill="black"/>
<path d="M48.4567 83.5898C50.6892 83.8379 50.5586 88.4301 48.6134 88.5378C46.4364 88.6586 46.0806 83.8836 48.4567 83.5898Z" fill="black"/>
<path d="M60.7232 82.8032C62.972 82.4017 63.3441 87.193 61.4347 87.5553C58.8955 88.0383 58.8694 83.1328 60.7232 82.8032Z" fill="black"/>
<path d="M145.729 9.88878L243.519 9.85938C244.593 10.0715 244.867 10.8874 244.962 11.8601C245.233 14.569 245.233 20.6202 244.942 23.3194C244.733 25.2417 244.267 25.3625 242.387 25.5518L146.861 25.5192C145.435 25.2776 144.632 25.3853 144.443 23.7241C144.006 19.8728 144.76 15.2316 144.453 11.2922C144.557 10.6329 145.109 10.0879 145.726 9.88551L145.729 9.88878ZM191.931 21.7136V13.962L191.615 13.7042L190.401 13.6748V21.4263L190.717 21.6842L191.931 21.7136ZM194.804 13.6748L193.472 13.6846C193.456 14.1643 193.296 14.6213 193.263 15.1044C193.195 16.1422 193.462 17.0985 193.462 17.983C193.462 18.6945 192.969 20.9825 193.354 21.5373L194.804 21.7168V13.678V13.6748ZM152.296 14.3439C152.315 16.7982 152.279 19.2592 152.296 21.7136H153.637V16.9288C154.884 17.7415 156.121 20.8552 157.165 21.5373C157.622 21.8343 158.125 21.7005 158.614 21.7136V13.8674H157.084V18.6521C156.144 17.9047 154.538 14.5201 153.745 14.0436C153.373 13.8217 152.834 13.7726 152.413 13.8901C151.94 14.0174 152.296 14.3014 152.296 14.3439ZM235.751 14.4678L234.436 14.4418V15.9758C232.834 15.7147 232.827 17.3825 234.436 17.1246C234.439 19.703 233.725 22.6274 237.471 21.5014C237.941 19.8434 236.215 20.6397 235.944 20.2677C235.588 19.22 236.212 18.2474 235.774 17.1246L237.289 17.1083L237.181 15.966L235.964 15.9758L235.745 14.4711L235.751 14.4678ZM165.126 19.2265C165.697 14.804 159.456 14.7845 159.558 18.9393C159.629 21.9551 163.559 22.7221 165.122 20.47C163.899 19.3179 163.807 20.2285 163.03 20.4864C162.162 20.7736 161.082 20.1861 161.108 19.2265H165.129H165.126ZM177.186 15.9725V23.8187L178.635 23.6392L178.527 21.1391C179.046 21.175 179.212 21.6059 179.78 21.7005C184.918 22.5426 183.299 13.1787 178.527 16.5437L178.514 15.9856L177.186 15.9692V15.9725ZM199.014 15.9725V21.4263C199.386 21.8735 200.202 21.8539 200.545 21.4263V18.3649C200.545 17.5848 201.71 16.9125 202.461 17.1214V15.7832C202.095 15.7603 201.733 15.8191 201.393 15.9594C200.747 16.2271 200.45 17.1409 200.251 15.9594L199.014 15.9725ZM204.184 19.2265H208.11C208.77 19.2265 208.149 17.5 207.911 17.1312C205.904 14.0436 201.361 16.9256 203.192 20.3199C204.187 22.1672 207.167 22.3043 208.202 20.47C206.886 19.1743 206.844 20.3264 206.158 20.532C205.098 20.8552 204.494 20.1306 204.187 19.2298L204.184 19.2265ZM214.716 23.8187V15.9725L213.385 15.9888L213.371 16.5469C212.154 15.3883 210.091 15.7146 209.373 17.2388C208.087 19.9739 210.313 22.8657 213.179 21.3317V23.822H214.713L214.716 23.8187ZM227.543 19.2265C227.713 16.7199 225.683 15.0293 223.32 16.25C220.581 17.6632 222.011 22.6764 226.016 21.6255C226.577 21.4786 227.755 20.7475 227.034 20.2122C225.98 19.4321 226.123 20.3427 225.294 20.5288C224.273 20.7572 223.555 20.2057 223.326 19.2265H227.54H227.543ZM228.943 16.4164C228.783 16.56 228.545 17.0137 228.509 17.2291C228.14 19.5627 231.528 19.0699 231.362 20.0653C231.156 21.2893 229.185 19.8989 228.816 20.0066C228.558 20.0817 228.219 20.6887 228.388 20.9498C229.028 21.942 232.311 22.1509 232.817 20.5745C233.552 18.2833 229.638 18.2473 229.841 17.4085C230.069 16.4653 232.076 17.8231 232.432 16.9288C233.052 15.7375 229.919 15.5352 228.943 16.4131V16.4164ZM167.012 15.9954L165.504 16.0704L167.068 21.6874C168.905 22.2325 168.889 20.2481 169.316 18.9099C169.395 18.6651 169.176 18.3746 169.623 18.4595C170.198 19.7976 169.888 22.2586 171.999 21.694L173.55 15.9725L172.11 16.1586C171.722 17.1638 171.797 18.6325 171.063 19.4158L170.077 15.9986H168.98L167.9 19.6116L167.012 15.9986V15.9954ZM185.228 15.9725H183.886V20.2807C183.886 20.3362 184.356 21.1228 184.47 21.2273C185.192 21.8996 186.964 21.9812 187.62 21.1424C187.591 22.0041 188.576 21.8767 189.056 21.4296V15.9758L187.607 16.1553C187.072 16.9223 188.511 21.3415 185.933 20.5353C185.711 20.4668 185.224 19.8499 185.224 19.7096V15.9758L185.228 15.9725ZM217.396 15.9725L216.178 15.9986L215.891 16.2858C215.888 18.5835 215.173 22.1477 218.626 21.6972C219.015 21.645 219.543 21.3088 219.778 21.3186C219.883 21.3251 219.866 21.6711 220.013 21.7103C220.333 21.7919 221.12 21.7657 221.205 21.41L221.035 15.9692H219.693V19.703C219.693 20.6593 217.396 20.8878 217.396 19.8956V15.9725Z" fill="#C4DEF8"/>
<path d="M37.987 11.5695C42.8794 10.8906 42.615 16.4391 37.7977 15.5872C37.7258 15.3816 37.987 15.1695 37.987 15.1107V11.5695Z" fill="#C4DEF8"/>
<path d="M57.1939 15.456C57.3767 15.2863 57.9511 15.0546 58.2057 15.022C61.5642 14.5813 61.6947 20.9294 57.8532 19.9405C56.2931 19.539 56.1723 16.3992 57.1939 15.456Z" fill="#C4DEF8"/>
<path d="M50.8169 16.546H47.1777C47.7358 14.3658 50.546 14.1732 50.8169 16.546Z" fill="#C4DEF8"/>
<path d="M95.7636 15.0577C98.9687 14.4996 99.1613 19.6695 96.4653 19.9861C93.7694 20.3027 93.2276 15.4983 95.7636 15.0577Z" fill="#C4DEF8"/>
<path d="M67.8077 15.0579C71.3979 14.4378 71.4109 20.5542 67.775 19.9798C65.6895 19.6501 65.4316 15.4691 67.8077 15.0579Z" fill="#C4DEF8"/>
<path d="M110.123 137.551C111.582 137.237 111.683 138.889 111.366 139.953C111.082 140.899 109.754 142.273 108.736 142.316C106.007 142.437 108.174 137.968 110.123 137.551Z" fill="white"/>
<path d="M54.4528 101.344C54.5083 101.601 54.257 101.552 54.0709 101.628C51.1563 102.796 48.7444 101.073 47.1777 98.6641L54.4528 101.344Z" fill="white"/>
<path d="M152.296 14.3442C152.296 14.2986 151.941 14.0178 152.414 13.8905C152.835 13.7763 153.373 13.8221 153.745 14.044C154.535 14.5173 156.141 17.9051 157.084 18.6525V13.8677H158.615V21.714C158.122 21.6977 157.62 21.8347 157.166 21.5377C156.121 20.8556 154.884 17.7419 153.638 16.9292V21.714H152.296C152.28 19.2596 152.316 16.8019 152.296 14.3442Z" fill="black"/>
<path d="M167.012 15.9955L167.9 19.6085L168.98 15.9988H170.077L171.062 19.416C171.797 18.6294 171.721 17.1607 172.11 16.1587L173.549 15.9727L171.999 21.6941C169.887 22.262 170.201 19.7978 169.623 18.4596C169.179 18.3748 169.394 18.6653 169.316 18.9101C168.888 20.2483 168.905 22.2327 167.067 21.6876L165.504 16.0706L167.012 15.9955Z" fill="black"/>
<path d="M177.186 15.9721L178.514 15.9884L178.527 16.5465C183.299 13.1783 184.914 22.5422 179.78 21.7034C179.209 21.6087 179.043 21.1779 178.527 21.142L178.635 23.6421L177.186 23.8216V15.9754V15.9721ZM179.428 17.1568C178.387 17.4767 178.165 20.9755 180.302 20.5316C182.196 20.14 181.827 16.4225 179.428 17.1568Z" fill="black"/>
<path d="M214.717 23.8181H213.183V21.331C210.317 22.865 208.091 19.9732 209.377 17.2382C210.095 15.714 212.158 15.3909 213.375 16.5463L213.388 15.9882L214.72 15.9718V23.8181H214.717ZM211.404 17.1598C210.01 17.5776 210.124 21.2233 212.474 20.5248C213.862 20.1103 213.718 16.4712 211.404 17.1598Z" fill="black"/>
<path d="M165.125 19.2263H161.104C161.081 20.1826 162.158 20.7702 163.027 20.4862C163.803 20.2316 163.898 19.3177 165.119 20.4699C163.555 22.7219 159.626 21.9549 159.554 18.9392C159.453 14.7843 165.693 14.8039 165.122 19.2263H165.125ZM163.591 18.2668C163.373 16.6479 161.783 16.4912 161.108 17.9861C161.055 18.3745 161.124 18.2342 161.388 18.2701C162.067 18.3615 162.893 18.2048 163.591 18.2701V18.2668Z" fill="black"/>
<path d="M204.183 19.2249C204.487 20.1257 205.09 20.8503 206.154 20.5271C206.84 20.3183 206.882 19.1694 208.198 20.4651C207.163 22.2994 204.183 22.1623 203.188 20.315C201.357 16.9239 205.9 14.0387 207.907 17.1263C208.149 17.4983 208.765 19.2216 208.106 19.2216H204.18L204.183 19.2249ZM206.866 18.2653C206.582 17.2274 205.854 16.4931 204.855 17.3091C204.571 17.5408 203.977 18.1674 204.66 18.2653C205.342 18.3633 206.171 18.1968 206.866 18.2653Z" fill="black"/>
<path d="M227.543 19.2261H223.329C223.558 20.2052 224.276 20.7601 225.297 20.5283C226.123 20.3423 225.983 19.4284 227.037 20.2117C227.758 20.747 226.58 21.4781 226.019 21.625C222.011 22.6759 220.585 17.6595 223.323 16.2495C225.686 15.0288 227.716 16.7194 227.546 19.2261H227.543ZM226.012 18.2665C226.231 18.0544 225.431 16.3605 224.106 17.2254C223.777 17.4408 223.098 18.1686 223.806 18.2665C224.478 18.3612 225.314 18.198 226.012 18.2665Z" fill="black"/>
<path d="M217.396 15.972V19.8951C217.396 20.8873 219.694 20.6621 219.694 19.7025V15.9688H221.035L221.205 21.4095C221.12 21.7653 220.334 21.7914 220.014 21.7098C219.867 21.6739 219.883 21.3246 219.779 21.3181C219.544 21.3051 219.015 21.6445 218.627 21.6968C215.173 22.1472 215.888 18.5798 215.892 16.2853L216.179 15.9982L217.396 15.972Z" fill="black"/>
<path d="M185.227 15.972V19.7058C185.227 19.8494 185.713 20.463 185.935 20.5316C188.514 21.3377 187.074 16.9185 187.609 16.1515L189.059 15.972V21.4258C188.579 21.8762 187.593 22.0003 187.622 21.1387C186.963 21.9775 185.194 21.8959 184.473 21.2235C184.359 21.1158 183.889 20.3325 183.889 20.277V15.9688H185.23L185.227 15.972Z" fill="black"/>
<path d="M228.944 16.4165C229.92 15.5385 233.053 15.7408 232.433 16.9321C232.078 17.8264 230.07 16.4686 229.842 17.4119C229.639 18.2507 233.553 18.2866 232.818 20.5778C232.313 22.1542 229.029 21.9486 228.389 20.9531C228.22 20.6888 228.559 20.0849 228.817 20.0098C229.186 19.9021 231.157 21.2926 231.363 20.0686C231.529 19.0732 228.145 19.566 228.51 17.2324C228.543 17.017 228.784 16.5632 228.944 16.4196V16.4165Z" fill="black"/>
<path d="M235.751 14.4688L235.969 15.9734L237.187 15.9636L237.294 17.106L235.78 17.1223C236.217 18.2418 235.594 19.2176 235.95 20.2653C236.217 20.6374 237.947 19.841 237.477 21.4991C233.73 22.6251 234.445 19.7007 234.442 17.1223C232.833 17.3801 232.836 15.7123 234.442 15.9734V14.4395L235.754 14.4655L235.751 14.4688Z" fill="black"/>
<path d="M191.93 21.7127L190.713 21.6832L190.396 21.4254V13.6738L191.614 13.7032L191.93 13.9611V21.7127Z" fill="black"/>
<path d="M194.803 13.6751V21.714L193.354 21.5344C192.969 20.9829 193.462 18.6949 193.462 17.9801C193.462 17.0956 193.194 16.1394 193.263 15.1015C193.295 14.6184 193.455 14.1647 193.472 13.6817L194.803 13.6719V13.6751Z" fill="black"/>
<path d="M199.014 15.9734L200.251 15.9604C200.45 17.1419 200.75 16.2247 201.393 15.9604C201.732 15.82 202.095 15.7612 202.46 15.7841V17.1223C201.71 16.9134 200.548 17.5858 200.548 18.3658V21.4272C200.205 21.8548 199.386 21.8744 199.017 21.4272V15.9734H199.014Z" fill="black"/>
<path d="M179.428 17.1563C181.83 16.422 182.195 20.1395 180.302 20.5311C178.165 20.975 178.387 17.4729 179.428 17.1563Z" fill="#C4DEF8"/>
<path d="M211.404 17.1594C213.714 16.4675 213.861 20.1099 212.474 20.5244C210.128 21.2262 210.013 17.5772 211.404 17.1594Z" fill="#C4DEF8"/>
<path d="M163.594 18.2688C162.895 18.2068 162.066 18.3602 161.391 18.2688C161.126 18.2329 161.058 18.3732 161.11 17.9848C161.786 16.4933 163.375 16.6467 163.594 18.2656V18.2688Z" fill="#C4DEF8"/>
<path d="M206.866 18.2673C206.171 18.202 205.332 18.3652 204.66 18.2673C203.987 18.1694 204.568 17.5427 204.855 17.311C205.854 16.495 206.582 17.2261 206.866 18.2673Z" fill="#C4DEF8"/>
<path d="M226.011 18.2671C225.316 18.2018 224.477 18.365 223.805 18.2671C223.097 18.1659 223.775 17.4414 224.105 17.2259C225.427 16.3578 226.227 18.0549 226.011 18.2671Z" fill="#C4DEF8"/>
</svg>
