<svg width="246" height="121" viewBox="0 0 246 121" fill="none" xmlns="http://www.w3.org/2000/svg">
<path d="M183.69 2.90527C183.658 3.18928 184.193 3.24755 184.382 3.27303C188.249 3.78644 190.721 4.00492 193.944 6.51008C194.778 7.15822 196.861 8.59287 194.847 9.1172L189.312 8.72392C191.785 10.6465 193.806 13.5959 194.137 16.7892C194.202 17.4337 194.385 20.2047 193.332 19.9316C192.943 19.8296 189.465 17.0587 189.316 17.248C189.553 18.5443 189.575 19.9061 189.516 21.2315C189.469 22.3203 188.879 24.9747 189.116 25.8376C189.156 25.9869 189.673 26.1836 189.895 26.4603C192.91 30.1744 191.952 34.8315 188.184 37.5405C188.278 40.3479 187.652 43.0897 186.636 45.6859L184.47 49.6221C186.09 49.8915 187.856 51.0021 189.185 51.9816C193.842 55.4116 195.936 60.5129 198.619 65.4322L239.834 60.6659C241.567 60.8006 242.336 61.2485 242.263 63.0982L233.331 98.4727L242.922 97.4968C243.421 97.5733 245.467 97.1691 245.158 98.1814C244.979 98.7676 234.343 99.3356 232.978 99.8672C232.268 102.128 232.173 106.491 229.693 107.536L175.774 117.604C174.766 117.782 173.757 117.942 172.727 117.866C169.577 117.625 163.35 115.426 159.99 114.509C155.34 113.238 147.915 111.668 143.746 109.811C141.973 109.021 141.907 107.517 142.577 105.842C140.804 105.668 139.027 105.708 137.247 105.646C135.659 105.588 134.148 105.085 132.557 105.806C129.72 107.095 127.834 107.983 124.466 107.215L110.433 109.083L109.999 109.618L109.373 117.137C109.253 117.731 108.536 118.554 108.062 118.929C104.672 121.624 93.6139 121.984 90.9922 118.15C90.0819 116.817 90.2895 113.857 90.0237 112.233C89.7251 111.927 82.774 113.347 81.587 113.394C80.1705 113.449 79.344 112.779 80.866 112.287C82.1914 111.861 89.5102 111.199 89.8234 110.871L88.2759 94.5401L87.3583 93.8447L25.3557 105.056C24.1395 104.943 24.4089 102.562 23.9647 101.746C17.4579 98.1195 10.6998 94.9298 4.18199 91.3286C3.52657 90.9645 1.20348 89.8175 0.966797 89.3113L11.5809 25.5718C12.2983 24.7926 17.192 24.7453 17.4761 24.3884C17.8475 19.9571 23.8373 19.4328 25.7307 23.1832L28.5563 22.8628C28.498 19.1597 33.0932 17.7505 35.7331 20.0481C36.0681 20.3394 36.5597 21.1259 36.7017 21.2097C37.2989 21.5702 38.7153 21.0713 39.4217 21.024C40.281 16.7601 45.9577 15.7333 48.0841 19.5638L50.6366 19.3417C51.1573 16.0756 54.5801 14.4661 57.4566 16.1629C58.356 16.6946 58.691 17.4119 59.4666 18.0018L61.6804 17.5903C62.4924 13.2245 68.1982 12.4926 70.3829 16.2831L72.2909 15.8862C72.7825 12.285 77.527 10.7084 80.145 13.2573C81.1282 14.2113 80.7422 15.107 82.8213 14.2986C83.3129 9.76898 89.8161 8.74944 91.7059 12.9878C93.5156 13.0825 96.8764 11.0835 97.1131 13.9345L108.841 83.1941C110.484 83.9333 110.957 84.6542 111.31 86.3947C111.409 86.879 111.263 87.4798 111.39 87.8658C111.463 88.0843 112.308 88.5649 112.606 88.9763C113.44 90.1306 113.502 91.689 112.945 92.9744C112.581 93.8192 111.459 94.3763 111.361 94.8788C111.172 95.8546 111.27 97.6424 111.161 98.7494C110.87 101.753 110.571 104.772 110.192 107.761L121.633 106.21L119.106 103.993C112.264 101.062 113.51 92.7923 114.551 86.8244C116 78.5333 119.558 62.3117 125.22 56.1981C129.221 51.876 136.788 49.5056 142.341 47.9216C143.87 47.4847 147.748 46.8912 148.833 46.3195C148.993 46.2357 149.481 45.1944 149.758 44.8666C150.646 43.8143 151.673 43.2172 152.831 42.5108L152.653 40.3151C146.554 40.7666 142.763 34.6421 145.29 29.1548C145.487 28.7252 146.229 27.8804 146.226 27.6474C146.222 27.1522 144.711 24.3156 144.427 23.4344C142.49 17.4228 144.325 10.6101 150.916 8.90234L149.161 7.65707L148.997 6.78682C150.428 6.29161 151.881 6.62297 153.246 7.15823C152.995 5.72359 154.641 2.45013 156.246 2.69045C157.324 2.85066 155.904 4.73316 155.962 5.41407C158.642 3.02907 162.28 2.30813 165.754 1.9258C169.475 1.51434 173.142 1.75828 176.805 1.53617C179.168 1.39052 181.571 0.593093 183.814 0.400109C188.001 0.0396281 185.817 1.85659 183.694 2.89798L183.69 2.90527ZM90.0273 13.3701C88.9277 10.7885 84.9624 11.6587 84.2123 14.1457L90.0273 13.3701ZM187.761 24.8108V21.0313C187.761 20.3394 187.284 18.2166 187.04 17.4884C186.876 17.0004 186.494 16.1156 186.144 15.7661C185.525 15.1471 179.714 12.8349 179.23 13.1844C179.903 13.8289 181.877 17.0114 180.104 17.0769C179.201 17.1097 174.667 15.3692 173.506 14.9322C172.257 14.4625 171.081 13.8362 169.828 13.3774C170.134 14.2258 171.66 17.4192 169.861 17.3937C168.889 17.3791 165.393 15.879 164.304 15.4092C163.31 14.9796 162.371 14.4151 161.391 13.96C161.697 19.1087 159.236 23.6056 157.896 28.3974L162.746 30.0469C164.199 22.2984 174.504 22.7499 175.767 30.411L179.23 31.0191C179.168 26.5914 183.384 22.8082 187.761 24.8145V24.8108ZM79.3622 14.9213C79.7117 14.5863 78.2152 13.7962 77.953 13.7161C76.238 13.2063 74.3191 13.9491 73.7401 15.6969L79.3622 14.9213ZM95.846 13.9564L91.9571 14.4261C91.7423 16.0319 91.4 17.4956 89.8452 18.3258C89.0005 18.7773 86.7356 19.5165 87.2126 17.827C88.9167 17.2517 90.4133 16.8875 90.4169 14.7319L81.4158 16.0646C81.343 17.6085 80.8842 18.9667 79.5005 19.8078C78.8961 20.1756 77.0245 20.9257 76.5439 20.1646C75.9613 19.2434 77.8438 19.0541 78.339 18.8429C79.384 18.3914 79.9593 17.4301 79.9484 16.2867L70.6415 17.6449C70.991 19.826 69.2105 22.0653 67.033 22.2838C65.7659 22.4113 65.4382 21.3517 66.4723 20.9366C66.8255 20.7946 67.2915 20.8128 67.7139 20.6271C68.7262 20.1792 69.236 19.1014 69.2833 18.0309L59.7105 19.3745C59.4265 21.2242 59.0806 22.8555 57.2673 23.7549C56.5645 24.1008 54.3434 24.829 54.7694 23.398C55.0279 22.5314 57.5331 22.972 57.9882 20.6016C58.0247 20.4086 58.1448 19.5893 57.9336 19.5784L48.5174 21.0203C48.2043 22.6844 48.0113 24.1845 46.4638 25.1713C45.7792 25.6046 43.3542 26.4166 43.4816 25.113C43.5654 24.2719 44.5631 24.4977 45.1821 24.2792C46.4092 23.8459 46.868 22.5205 46.9772 21.3262L37.2005 22.8555C37.0585 24.3957 36.9893 25.7685 35.602 26.7225C34.9466 27.1703 32.2885 28.2736 32.4269 26.8608C32.5034 26.0853 33.552 26.2018 34.1929 25.8959C35.2525 25.3898 35.8132 24.221 35.7295 23.074L26.0329 24.4285C26.1567 25.834 25.8108 27.4616 24.6638 28.3901C23.9137 28.9982 20.8733 30.0797 21.4013 28.4302C21.5433 27.986 22.7558 27.8585 23.262 27.5709C24.2597 26.9992 24.6165 25.9251 24.4818 24.8181L13.234 26.3693L25.8254 103.439L86.204 92.6248L86.4844 92.3809C86.0948 90.9244 86.4043 88.3464 88.254 88.1826L88.2759 87.0392L30.1074 97.4203C29.5176 96.9761 29.5321 96.2588 29.3901 95.6034C26.0693 80.3394 24.7476 64.0886 21.5979 48.73C21.5287 47.8925 21.3649 47.0405 22.4099 46.8802C45.0219 43.5922 67.5282 39.4704 90.1511 36.2843C91.0978 36.1496 94.6735 35.4723 95.2597 35.7636L103.438 82.058L103.715 82.3639L107.472 82.7753L95.835 13.96L95.846 13.9564ZM68.6971 16.6654C68.7844 16.3013 68.5732 16.2904 68.373 16.1193C66.6434 14.6082 63.8433 15.2927 63.075 17.441L68.6971 16.6654ZM57.646 18.2166C56.3533 16.3778 52.774 16.6582 52.2169 18.9922L57.646 18.2166ZM46.3983 19.9608C46.8425 19.5347 44.8471 18.6936 44.5085 18.6462C43.2049 18.4569 41.2641 19.2543 41.1658 20.7363L46.3983 19.9608ZM35.1505 21.7049C35.2379 21.3407 35.0267 21.3298 34.8265 21.1587C33.1479 19.6913 30.6099 20.4013 29.9145 22.4805L35.1469 21.7049H35.1505ZM23.9028 23.4527C23.9684 23.0667 23.6552 22.8956 23.3894 22.7098C21.8164 21.6102 19.2785 22.2401 18.8634 24.2283L23.9028 23.4527ZM187.739 26.1909C178.877 22.2766 177.183 39.4667 186.967 36.8086L187.739 26.1909ZM167.931 25.8231C162.331 26.7662 162.444 37.2347 169.209 37.14C176.681 37.0344 176.127 24.4431 167.931 25.8231ZM155.627 32.6977C155.26 32.3846 154.706 30.3382 154.317 29.65C151.655 24.9492 146.208 26.9009 145.869 32.0714C145.574 36.5465 149.172 39.5614 153.501 39.1827L153.727 39.3429C154.517 41.9246 154.244 44.6773 154.655 47.3354C155.74 54.352 160.947 58.0624 165.776 62.5957C166.114 62.6576 167.855 60.2071 168.139 59.7629C168.437 59.2932 170.163 56.1763 170.112 55.9287C166.467 54.5741 161.916 53.256 160.419 49.2361L163.849 51.9124C169.697 55.1094 175.053 56.0525 180.57 51.6429C184.717 48.3258 186.836 43.2572 186.986 37.992C185.573 38.4581 184.32 38.5601 182.915 37.992C184.025 41.1271 179.594 43.2937 177.289 41.382C177.129 40.7011 178.804 41.1381 179.31 41.0762C180.195 40.9706 181.953 40.1986 182.106 39.2082C182.223 38.4727 181.163 37.657 180.81 37.089C179.929 35.6726 179.073 34.1032 179.019 32.3846L175.738 31.7874C174.995 40.9269 162.699 40.3698 162.44 31.183L157.124 29.6573C157.251 30.502 157.058 33.9175 155.627 32.6977ZM188.344 35.6653C190.911 33.7136 190.78 30.0287 189.116 27.5235C188.828 27.6109 188.752 28.5249 188.733 28.7834C188.566 31.0665 188.519 33.3786 188.344 35.6617V35.6653ZM21.1646 84.6834L12.0798 28.8817L2.38323 88.0042L21.1646 84.6834ZM94.4842 37.0235L84.9879 38.378L86.9286 50.201L96.4213 48.6426L94.4842 37.0235ZM83.8154 38.7785L73.7438 40.1258L75.6809 51.9525L85.7671 50.3977L83.8154 38.7785ZM74.5012 52.1273L72.575 40.3188L62.1247 42.0811L63.8506 53.8896L74.5012 52.1273ZM62.6636 54.0571L60.7556 42.336L50.0795 43.8071L52.0203 55.8267L62.6636 54.0607V54.0571ZM153.049 44C152.711 43.625 150.726 45.8352 150.493 46.1921C148.065 49.877 148.818 54.5195 149.623 58.5758C150.107 61.0118 150.836 63.3932 151.699 65.7126C152.077 65.9966 153.982 63.3422 154.309 62.9963C156.461 60.7205 158.391 58.9582 161.486 61.0592C161.807 61.2776 162.666 61.9949 162.746 62.4137C161.02 62.7123 160.062 61.0446 158.282 61.5361C157.794 61.6709 157.044 62.2644 156.636 62.603C155.34 63.6845 153.53 66.5974 152.387 67.2711C150.777 68.2141 149.885 64.8606 149.514 63.7282C147.952 58.9618 146.717 52.7353 148.207 47.8816C141.376 49.826 131.909 51.5665 126.676 56.6933C120.941 62.3117 117.34 79.0504 115.916 87.0356C115.05 91.8857 113.855 97.9665 117.861 101.772C117.802 100.894 117.438 100.075 117.369 99.1608C116.674 90.3309 125.016 81.7267 133.849 84.6251C134.822 84.9419 135.481 85.4844 136.376 85.874C136.617 81.5665 138.587 77.4992 138.896 73.1771C139.337 67.0198 137.072 59.4716 130.561 57.5709C131.111 56.7079 133.201 57.5454 133.988 57.924C139.155 60.4292 140.626 68.1886 140.251 73.3664C140.036 76.334 137.108 85.3169 137.585 87.0866C137.771 87.7711 139.005 88.9254 138.991 89.9449C142.84 90.939 146.612 92.5047 150.486 93.3786C151.207 93.5388 152.023 93.7937 152.751 93.8301C155.635 93.9721 158.344 91.6381 161.104 90.9244C161.737 86.2236 162.502 81.541 163.107 76.8365C163.536 73.5012 163.573 67.5951 164.541 64.704C164.738 64.1141 165.135 63.7609 165.262 63.1966L164.494 63.3021C160.769 59.5662 156.017 56.2564 154.207 51.0822C153.428 48.8502 152.991 46.3668 153.046 44.0037L153.049 44ZM48.918 44.1967L36.8947 45.9408L38.8354 57.9605L50.8587 56.0197L48.918 44.1967ZM35.7222 46.3377L23.0144 48.253L24.875 60.2836L37.6666 58.1425L35.7222 46.3377ZM98.3402 60.2581L96.6325 49.8952L87.118 51.3699L88.8657 61.8347L98.3402 60.2581ZM197.265 65.709C194.676 61.0336 192.666 56.1981 188.213 52.9538C187.452 52.4003 184.24 50.3503 183.505 50.6817C182.023 52.0326 180.566 53.54 178.662 54.2901C179.255 56.3328 179.896 58.4265 180.005 60.5785C180.045 61.3541 180.213 65.5561 178.738 64.562C177.5 63.7318 175.782 60.8552 174.092 60.8552C172.403 60.8552 170.342 64.6895 168.372 64.7441C168.08 64.4455 169.642 62.6249 169.916 62.3154C170.611 61.5325 172.778 59.4825 173.753 59.3514C174.798 59.2094 176.382 60.4183 177.187 61.0664C177.471 61.2958 178.567 62.6322 178.84 62.4173C178.538 59.9231 178.403 57.4216 177.482 55.0512C175.454 55.8814 173.284 56.1362 171.092 56.027C170.808 58.128 169.471 60.1088 168.255 61.8202C167.177 63.3349 165.899 64.0449 165.546 66.0913C164.876 69.9874 164.774 74.5572 164.272 78.5807C163.773 82.5715 163.023 86.5331 162.553 90.5275C168.353 88.7142 173.284 88.4083 177.486 93.3349C178.534 94.562 179.073 95.8546 179.998 97.1181L187.991 62.8543C188.278 62.694 188.573 62.501 188.697 62.9307C188.883 63.5898 188.784 65.2684 188.704 65.9821C188.264 69.9146 186.811 74.9249 185.919 78.8975C185.227 81.9852 184.437 85.0548 183.694 88.1316C183.566 88.7178 183.978 89.0164 184.368 89.3623C184.812 89.4497 184.608 89.1693 184.681 88.9072C186.57 81.9415 187.9 74.8229 189.811 67.8609C190.98 65.8146 195.167 66.0257 197.261 65.7126L197.265 65.709ZM85.9418 51.5774L75.8739 53.114L77.6217 63.7755L87.7042 62.2243L85.9455 51.5774H85.9418ZM74.7087 53.3034L64.0472 55.0512L65.7914 65.7126L76.4528 63.9612L74.7087 53.3034ZM64.6262 66.0986L62.8893 55.3242L52.2133 56.9883L53.9611 67.6498L64.6262 66.0986ZM51.0444 57.1885L39.0284 59.122L40.9619 69.8927L52.7995 68.0357L51.0444 57.1885ZM37.856 59.3187L25.1481 61.4415L26.8121 72.3032L39.5965 70.1549L37.856 59.3187ZM98.7553 61.4451L89.0587 62.9999L90.9849 73.9673L100.496 72.4925L98.7553 61.4488V61.4451ZM240.872 62.2426C240.635 61.9658 238.578 62.177 238.086 62.2207C224.993 63.3786 211.243 65.2283 198.164 66.896C196.831 67.0671 192.214 67.4604 191.439 68.1194L179.816 115.331L229.031 106.279C229.275 106.221 229.475 106.105 229.664 105.944C230.509 105.231 231.343 101.127 231.689 99.8272C234.664 88.6851 237.974 76.7018 240.377 65.4796C240.497 64.9261 241.123 62.5339 240.872 62.2426ZM89.6413 74.4333L87.8935 63.1893L77.811 64.937L79.77 75.9663L89.6413 74.4333ZM78.5866 76.3705L76.6531 65.2101L66.1846 66.8851L67.9215 78.1183L78.5866 76.3705ZM66.7599 78.3076L64.8264 67.1509L54.2378 68.997L56.0948 80.2484L66.7599 78.3076ZM54.9333 80.445L53.0071 69.2847L40.9692 71.1417L42.91 82.3821L54.9333 80.445ZM41.7448 82.7717L39.8186 71.4148L27.2127 73.4757L28.9532 84.8982L41.7484 82.7717H41.7448ZM102.244 82.1891L100.703 73.7415L91.1998 75.2198L92.3577 82.9683C95.5802 82.2692 98.9446 82.16 102.244 82.1891ZM90.0309 75.5985L79.9484 77.1497L81.6889 86.9519L88.2904 85.7793C88.9604 84.5523 89.685 83.5073 91.1961 83.3507L90.0346 75.5985H90.0309ZM78.765 77.5575L68.1181 79.2834L69.6693 89.1693L80.3198 87.2177L78.765 77.5575ZM66.9529 79.4728L56.3715 81.4063L58.0247 91.2193L68.4931 89.3441L66.9566 79.4728H66.9529ZM55.1153 81.6138L43.2959 83.5473L44.8471 93.6262L56.8704 91.4924L55.1153 81.6138ZM109.806 86.0634C109.854 85.0839 109.107 84.6579 108.31 84.363C105.244 83.2342 93.1078 83.0776 90.4679 84.8545C90.1693 85.0548 89.8307 85.3716 89.8343 85.7685C93.643 86.3037 97.7139 86.7989 101.577 86.6496C103.467 86.5768 105.499 86.1908 107.389 86.0634C108.19 86.0088 109.009 86.0998 109.81 86.0634H109.806ZM41.9159 83.9551L29.1389 86.067L30.8867 96.1459L43.6673 93.801L41.9159 83.9515V83.9551ZM137.534 89.7483C136.952 87.9786 135.065 86.4421 133.31 85.9286C126.986 84.0716 119.554 89.4716 118.782 95.9092C117.766 104.379 124.003 108.005 131.526 105.06L128.832 104.171C127.048 102.911 126.72 100.603 126.869 98.5601C127.244 93.3932 131.992 87.9532 137.538 89.7483H137.534ZM21.5761 85.8704C15.6773 86.9627 9.74212 87.8985 3.84335 88.98L3.35179 89.3587L23.9065 100.02L21.5797 85.8704H21.5761ZM109.999 86.26C103.762 88.3428 95.9188 88.5795 89.736 86.2637C89.31 86.2891 89.0806 88.7324 90.2785 89.4024C93.308 91.0919 106.511 91.3176 109.289 89.3295C109.555 89.1402 109.836 88.9727 109.963 88.645L110.003 86.2637L109.999 86.26ZM88.6473 89.3878C87.7115 88.8453 87.4165 91.2812 87.6569 92.024C88.3414 94.125 93.6139 94.7841 95.5547 94.9807C99.2906 95.3594 107.472 95.3521 110.717 93.4696C112.253 92.5775 112.505 90.3272 111.063 89.3732C110.804 89.6682 110.677 89.9377 110.342 90.1852C106.977 92.6467 92.0846 92.6795 88.9459 89.9486C88.7784 89.8029 88.6946 89.4133 88.6473 89.3878ZM183.49 90.3309L183.108 90.4474L181.171 97.8864C181.917 97.8973 182.31 98.0794 182.623 97.3074C183.323 95.5924 183.45 93.1783 184.065 91.3832C183.945 91.212 183.537 90.3709 183.49 90.3309ZM168.372 92.4647C171.427 92.4792 174.139 95.0098 175.782 97.3621C176.393 98.2396 177.828 101.469 178.159 101.768C178.684 102.241 179.492 101.943 179.616 101.273C180.009 99.1208 176.612 94.1359 174.966 92.7486C170.396 88.9035 163.624 91.354 158.682 93.3385C157.583 93.7791 156.523 94.5438 155.369 94.8751C150.777 96.1969 142.035 91.8056 136.999 90.9645C131.388 90.025 127.572 95.4614 128.278 100.65C128.682 103.607 130.864 103.556 133.391 103.876C136.919 104.32 146.375 104.845 149.539 103.971C149.969 103.851 149.991 103.501 150.056 103.501C150.442 103.501 151.822 104.313 152.365 104.488C154.75 105.253 156.236 105.253 158.628 104.532C159.392 104.302 161.275 103.305 161.825 103.352C163.7 103.512 166.577 107.324 168.04 107.332C168.361 107.332 168.929 107.172 169.136 106.884C169.686 106.159 168.106 104.237 167.589 103.614C166.045 101.761 164.031 100.37 161.97 99.1499C164.279 98.1013 167.341 101.167 168.75 102.838C169.719 103.985 171.452 107.499 173.091 107.339C174.729 107.179 173.295 104.433 172.93 103.701C171.223 100.275 168.441 97.1909 164.883 95.6616C165.783 94.7841 167.163 95.4177 168.113 95.9165C170.127 96.9761 171.915 99.3029 173.102 101.204C173.579 101.961 175.301 105.821 175.538 105.937C175.851 106.094 176.24 106.072 176.575 106.003C177.551 105.668 176.958 103.166 176.754 102.398C176.036 99.6888 173.888 96.7758 171.754 94.9916C170.673 94.0886 169.3 93.4951 168.368 92.4683L168.372 92.4647ZM110.196 95.1773C103.554 96.8268 96.221 97.0635 89.645 94.9844L89.8307 98.9242C93.3954 100.909 98.3329 101.032 102.353 100.807C103.693 100.73 109.093 99.9874 109.825 98.9715L110.196 95.1773ZM182.135 99.0553L180.777 99.2482C181.28 101.327 181.05 103.403 178.451 103.319V103.898C179.106 103.898 180.526 103.884 180.985 103.428C181.265 103.152 182.296 99.2155 182.135 99.0553ZM163.911 106.225L161.876 104.539C159.047 106.203 155.868 106.978 152.674 105.926C152.216 105.777 151.05 105.092 150.836 105.081C150.177 105.041 148.232 105.573 147.333 105.642C146.597 105.697 145.84 105.606 145.104 105.646L178.338 114.96L179.037 112.429L175.498 112.768L158.031 107.987C157.707 107.558 157.659 107.048 158.235 106.847L163.915 106.225H163.911ZM176.71 116.111L144.183 106.84C143.178 106.68 143.382 108.482 144.22 108.562C150.697 110.427 157.164 112.375 163.675 114.119C166.278 114.818 171.685 116.653 174.088 116.497C174.933 116.442 175.836 116.063 176.71 116.111ZM108.645 111.85C103.332 114.505 96.7017 114.181 91.1925 112.24C91.8006 113.973 91.1087 116.835 92.6453 118.055C95.6202 120.415 104.079 120.131 107.156 118.022C108.845 116.864 108.037 113.686 108.641 111.854L108.645 111.85Z" fill="black"/>
<path d="M204.828 34.114C204.821 33.0726 205.429 32.1076 205.887 31.2046C206.841 29.3294 208.232 26.9735 209.398 25.2148C209.707 24.7488 210.585 23.3141 210.92 23.052C211.681 22.4621 212.289 23.5727 211.892 24.2172C209.882 26.9262 208.374 30.5601 206.263 33.1272C205.902 33.5641 205.447 34.1977 204.824 34.1104L204.828 34.114Z" fill="black"/>
<path d="M219.698 32.3984C220.364 32.2054 220.634 32.6059 220.536 33.2322C220.43 33.8949 215.314 38.4355 214.418 39.1492C213.916 39.5497 212.405 40.948 211.804 40.6093C211.498 40.4018 211.709 40.2962 211.84 40.0668C212.044 39.7063 212.485 39.1893 212.769 38.8615C214.735 36.5785 217.517 34.5176 219.698 32.402V32.3984Z" fill="black"/>
<path d="M225.909 42.8789C227.333 42.5876 227.508 43.3305 226.412 44.157C225.002 45.2166 221.39 47.0008 219.693 47.7145C219.249 47.9002 217.425 48.8323 217.236 48.1624C217.061 47.5543 219.009 46.4656 219.504 46.167C220.575 45.5188 224.962 43.0683 225.909 42.8753V42.8789Z" fill="black"/>
<path d="M95.8451 13.9567L107.482 82.7721L103.725 82.3606L103.448 82.0548L95.2698 35.7603C94.68 35.469 91.1079 36.1463 90.1612 36.281C67.5347 39.4671 45.032 43.589 22.42 46.877C21.375 47.0372 21.5388 47.8893 21.608 48.7267C24.7577 64.0854 26.0794 80.3361 29.4002 95.6001C29.5422 96.2592 29.5277 96.9728 30.1175 97.4171L88.286 87.036L88.2641 88.1793C86.4144 88.3432 86.1049 90.9211 86.4945 92.3776L86.2141 92.6216L25.8355 103.436L13.2441 26.366L24.4919 24.8149C24.6266 25.9218 24.2697 26.9996 23.2721 27.5676C22.7659 27.8589 21.5534 27.9864 21.4114 28.427C20.8834 30.0764 23.9238 28.995 24.6739 28.3869C25.8209 27.4584 26.1668 25.8307 26.043 24.4252L35.7396 23.0707C35.8197 24.2177 35.2589 25.3902 34.203 25.8926C33.5621 26.1985 32.5171 26.082 32.437 26.8576C32.295 28.2704 34.9567 27.1707 35.6121 26.7192C36.9994 25.7652 37.0686 24.3925 37.2106 22.8522L46.9873 21.3229C46.8781 22.5173 46.4193 23.8427 45.1922 24.276C44.5732 24.4944 43.5755 24.2723 43.4917 25.1098C43.3643 26.4133 45.7893 25.6013 46.4739 25.168C48.0214 24.1849 48.2144 22.6811 48.5275 21.017L57.9437 19.5751C58.1549 19.5824 58.0347 20.4054 57.9983 20.5983C57.5432 22.9688 55.0344 22.5282 54.7795 23.3948C54.3535 24.8258 56.5783 24.1012 57.2774 23.7516C59.0907 22.8522 59.4366 21.2209 59.7206 19.3712L69.2934 18.0276C69.246 19.0945 68.7363 20.1759 67.724 20.6238C67.3016 20.8095 66.8356 20.7913 66.4824 20.9333C65.4483 21.3484 65.776 22.408 67.0431 22.2806C69.2242 22.0621 71.0048 19.8227 70.6516 17.6416L79.9585 16.2835C79.9694 17.4268 79.3941 18.3881 78.3491 18.8396C77.8575 19.0544 75.975 19.2401 76.554 20.1614C77.0346 20.926 78.9062 20.1723 79.5106 19.8045C80.8943 18.9634 81.3531 17.6052 81.4259 16.0614L90.427 14.7287C90.4234 16.8843 88.9268 17.2484 87.2227 17.8237C86.7457 19.5132 89.0106 18.7741 89.8553 18.3226C91.4065 17.4924 91.7488 16.0286 91.9672 14.4228L95.8561 13.9531L95.8451 13.9567ZM89.1162 30.7646C90.3797 32.2466 94.0391 31.0996 93.4783 28.6308C93.0705 26.8321 90.2304 27.1744 90.0447 26.6318C89.7461 25.7579 90.6637 25.6669 91.2791 25.7834C91.5594 25.8381 91.7633 26.1075 91.9126 26.133C92.5244 26.2386 93.5111 24.6874 91.4648 24.4362C88.7193 24.0975 87.6124 27.2508 89.7243 28.1174C90.194 28.3104 93.1616 28.5762 91.9709 29.756C90.9441 30.7719 89.5568 29.2207 89.3565 29.2681C88.9013 29.6504 88.7011 30.2767 89.1198 30.7646H89.1162ZM87.2919 26.3405L87.281 25.5176C87.2155 25.2809 87.0589 25.2045 86.8295 25.1899C86.4435 25.1644 83.4541 25.6851 83.0026 25.8308C82.2634 26.0711 81.8993 26.5481 82.5911 27.1161L84.4044 26.9377C84.8341 27.3783 84.3243 33.9943 86.4945 31.664L85.7626 26.5517L87.2956 26.3405H87.2919ZM81.0982 26.5663C80.3445 26.5553 79.8238 26.2859 79.8201 27.1926C79.8201 27.8953 80.359 32.0718 80.5775 32.6107C80.8251 33.2188 81.4915 33.3717 81.7864 32.7563C82.2962 31.7004 81.1273 27.9026 81.0982 26.5663ZM77.9595 26.9814C76.1097 26.2713 76.1389 29.4283 75.8694 30.6226L74.0452 27.5094C73.2914 27.0797 72.6797 27.32 72.5668 28.1939C72.4758 28.8712 72.6834 33.8997 72.9819 34.0963L73.7466 34.0271C74.3984 33.5902 73.7138 31.0268 73.9359 30.2403C74.6496 30.568 75.0684 32.9384 75.7675 32.9566C76.9363 32.9857 76.878 31.1979 77.0965 30.3968C77.1511 30.1966 77.1439 29.8106 77.4242 29.8543C77.559 30.4223 78.2617 34.6097 79.2812 33.1605C79.6672 32.6107 78.1925 27.9244 77.9631 26.9887L77.9595 26.9814ZM66.5661 34.5988C66.7118 33.7176 66.4605 32.5197 66.5661 31.5948L67.826 33.7285C69.4135 34.5187 69.399 31.9808 69.5738 31.0159C70.3639 31.6676 70.2183 34.9046 71.4927 34.4859C71.7184 34.4022 71.784 34.2493 71.8095 34.0199C71.8532 33.6157 70.6406 28.9768 70.3967 28.4451C70.0653 27.7278 69.2897 27.7242 68.831 28.3395L68.3139 31.5912C67.1778 30.5206 67.1742 28.0628 65.0477 29.1006C65.0732 30.0364 64.9968 34.7845 65.725 35.0576C66.1619 35.2215 66.4969 35.043 66.5698 34.5952L66.5661 34.5988ZM60.5035 29.5084C57.5323 30.0582 57.9255 35.4145 60.6637 35.8441C65.6121 36.6233 65.0004 28.6746 60.5035 29.5084ZM56.8514 31.7732C56.9642 31.6931 57.1681 30.8156 56.9788 30.6189C54.4846 29.3227 51.8811 31.2744 52.2343 34.0016C52.4346 35.5601 53.9784 37.0785 55.5951 37.0093C56.4872 36.9692 58.7047 35.6147 57.5286 34.7153C56.6838 34.0708 56.8878 35.0976 56.287 35.3707C53.5743 36.6015 52.5074 31.562 55.4167 31.5766C55.7954 31.5766 56.6511 31.9116 56.8514 31.7696V31.7732ZM44.8499 38.3784C47.122 38.7316 45.9059 36.8309 46.0187 35.5928C46.1243 34.4459 47.4643 32.7017 47.5335 31.6531C47.5663 31.136 46.8781 31.136 46.5321 31.2416C45.8694 31.4455 45.265 33.6229 45.0392 34.3075C44.4093 33.8232 43.5755 32.1847 42.9055 31.8788C42.1627 31.5402 41.7148 32.4396 42.0389 33.1423C42.261 33.6193 43.6483 34.6061 44.0707 35.1814C44.7698 36.1354 44.7297 37.2387 44.8499 38.3784ZM40.1928 37.9924L39.5774 32.8874L39.2934 32.5888H38.3795C38.0445 32.7017 38.0554 32.9165 38.07 33.2115C38.0991 33.805 38.9438 38.9137 39.1186 39.1613C39.4245 39.5909 42.3848 39.0229 42.7926 38.7498C44.4566 37.6319 40.7535 37.7703 40.1928 37.9924ZM34.7929 33.1751C34.5125 33.6193 35.532 39.7948 35.9216 40.0315C36.5443 40.341 37.0031 39.9587 37.0286 39.2923C37.0541 38.626 36.3222 34.1145 36.0709 33.4882C35.9726 33.2479 35.8597 33.0622 35.5976 32.9785L34.7929 33.1751ZM31.4102 34.1728C31.1553 33.9616 30.762 33.8669 30.4416 33.9507C30.1285 34.0927 29.91 34.3403 29.7716 34.6534C29.5677 35.1159 28.763 39.6091 28.7448 40.2318C28.7339 40.5267 28.6975 40.96 29.0652 41.0802C30.1357 41.4297 30.001 40.0606 30.2996 39.8312C30.3906 39.7584 32.4297 39.194 32.5462 39.2158C32.8885 39.2705 33.4165 41.0401 34.3632 40.3046C34.4615 39.9805 34.3268 39.7038 34.2285 39.4088C34.0391 38.8554 31.6833 34.3985 31.4175 34.1801L31.4102 34.1728ZM23.465 34.7408C22.7768 34.8501 21.7974 35.145 21.7537 35.9533C21.7318 36.383 22.6057 41.2804 22.7768 41.7356C23.0681 42.5075 25.0162 41.7975 25.5879 41.5171C26.4982 41.0692 27.6743 39.9951 27.8891 38.9719C28.57 35.7604 26.48 34.2675 23.465 34.7445V34.7408Z" fill="white"/>
<path d="M240.872 62.2432C241.124 62.5382 240.494 64.9268 240.377 65.4802C237.974 76.7025 234.66 88.6894 231.689 99.8279C231.343 101.128 230.509 105.228 229.665 105.945C229.475 106.105 229.275 106.226 229.031 106.28L179.816 115.332L191.439 68.1201C192.215 67.4611 196.835 67.0642 198.164 66.8967C211.247 65.229 224.993 63.3793 238.087 62.2214C238.582 62.1777 240.636 61.9629 240.872 62.2432ZM212.536 83.0163C207.504 83.7482 206.674 92.9751 213.41 91.8354C217.867 91.0816 219.509 82.0004 212.536 83.0163Z" fill="white"/>
<path d="M153.048 44.0013C152.99 46.3645 153.43 48.8478 154.21 51.0799C156.019 56.2541 160.771 59.5639 164.496 63.2998L165.264 63.1942C165.137 63.7586 164.744 64.1118 164.543 64.7017C163.571 67.5928 163.535 73.4989 163.109 76.8342C162.504 81.5387 161.74 86.2212 161.106 90.9221C158.342 91.6357 155.633 93.9698 152.753 93.8278C152.025 93.7914 151.206 93.5401 150.488 93.3763C146.61 92.5024 142.842 90.9366 138.993 89.9426C139.008 88.9267 137.773 87.7688 137.588 87.0842C137.111 85.3146 140.038 76.3317 140.253 73.3641C140.624 68.1827 139.153 60.4233 133.99 57.9218C133.204 57.5394 131.11 56.7056 130.564 57.5685C137.078 59.4692 139.339 67.0175 138.898 73.1748C138.589 77.4969 136.619 81.5641 136.379 85.8717C135.483 85.4784 134.82 84.9396 133.852 84.6228C125.014 81.728 116.672 90.3322 117.372 99.1585C117.444 100.072 117.805 100.888 117.863 101.769C113.858 97.9642 115.052 91.8834 115.919 87.0333C117.342 79.0481 120.944 62.3094 126.678 56.691C131.911 51.5678 141.378 49.8273 148.209 47.8792C146.72 52.733 147.954 58.9595 149.516 63.7258C149.888 64.8582 150.783 68.2154 152.389 67.2687C153.532 66.5987 155.342 63.6821 156.638 62.6007C157.046 62.2621 157.796 61.6685 158.284 61.5338C160.068 61.0422 161.022 62.7099 162.748 62.4114C162.668 61.9926 161.813 61.2753 161.488 61.0568C158.393 58.9559 156.464 60.7145 154.312 62.9939C153.984 63.3399 152.08 65.9943 151.701 65.7103C150.838 63.3908 150.11 61.0095 149.625 58.5735C148.821 54.5172 148.067 49.8746 150.496 46.1897C150.729 45.8365 152.713 43.6227 153.052 43.9977L153.048 44.0013Z" fill="#C4DEF8"/>
<path d="M197.265 65.7095C195.167 66.0226 190.98 65.8115 189.815 67.8578C187.903 74.8162 186.574 81.9384 184.684 88.9041C184.615 89.1662 184.815 89.4466 184.371 89.3592C183.982 89.017 183.57 88.7147 183.698 88.1285C184.44 85.0517 185.23 81.9821 185.922 78.8944C186.814 74.9218 188.267 69.9115 188.708 65.9789C188.788 65.2653 188.886 63.5831 188.701 62.9276C188.58 62.498 188.282 62.6873 187.994 62.8511L180.002 97.115C179.077 95.8515 178.534 94.5589 177.489 93.3318C173.287 88.4052 168.353 88.7147 162.557 90.5244C163.026 86.53 163.776 82.5684 164.275 78.5776C164.778 74.554 164.88 69.9843 165.55 66.0882C165.899 64.0418 167.181 63.3354 168.259 61.8171C169.475 60.1057 170.811 58.1285 171.095 56.0239C173.287 56.1295 175.454 55.8746 177.486 55.048C178.407 57.4148 178.542 59.92 178.844 62.4142C178.571 62.6291 177.475 61.2963 177.191 61.0633C176.386 60.4152 174.802 59.2063 173.757 59.3483C172.781 59.4794 170.618 61.5294 169.919 62.3123C169.642 62.6218 168.08 64.4424 168.375 64.741C170.345 64.6863 172.479 60.8558 174.096 60.8521C175.712 60.8485 177.504 63.7287 178.742 64.5589C180.22 65.553 180.049 61.351 180.009 60.5754C179.903 58.4271 179.259 56.3334 178.665 54.287C180.57 53.5369 182.026 52.0295 183.508 50.6786C184.244 50.3472 187.455 52.3972 188.216 52.9507C192.67 56.195 194.679 61.0342 197.268 65.7059L197.265 65.7095ZM167.261 68.6771C165.732 69.9078 168.102 71.9688 169.158 70.4759C170.112 69.125 168.546 67.643 167.261 68.6771ZM165.896 83.1145C167.039 84.2615 169.249 82.3244 167.807 81.1082C166.365 79.892 164.963 82.1787 165.896 83.1145Z" fill="#C4DEF8"/>
<path d="M155.629 32.6984C157.056 33.9182 157.253 30.5027 157.125 29.6579L162.442 31.1836C162.704 40.3704 174.997 40.9275 175.739 31.7881L179.02 32.3852C179.075 34.1039 179.93 35.6696 180.812 37.0897C181.165 37.6577 182.224 38.4734 182.108 39.2089C181.951 40.1993 180.196 40.9712 179.311 41.0768C178.805 41.1387 177.134 40.7018 177.291 41.3827C179.595 43.2943 184.023 41.1278 182.916 37.9927C184.318 38.5607 185.574 38.4588 186.987 37.9927C186.838 43.2579 184.722 48.3265 180.571 51.6436C175.055 56.0531 169.702 55.1101 163.851 51.9131L160.421 49.2368C161.917 53.2603 166.469 54.5748 170.114 55.9293C170.165 56.1769 168.439 59.2938 168.14 59.7635C167.856 60.2078 166.116 62.6583 165.777 62.5964C160.949 58.0631 155.745 54.3527 154.657 47.3361C154.245 44.678 154.518 41.9216 153.728 39.3436L153.502 39.1834C149.169 39.5657 145.576 36.5471 145.87 32.0721C146.209 26.9015 151.656 24.9499 154.318 29.6507C154.708 30.3389 155.261 32.3852 155.629 32.6984ZM149.308 29.2938C148.962 29.4103 148.798 29.8582 148.925 30.1859C149.177 30.8159 149.453 30.3898 149.807 30.4772C150.932 30.7612 151.383 32.1049 151.638 33.1062C151.766 33.616 151.798 35.5932 152.37 35.4693C153.324 34.6355 152.814 32.327 152.312 31.2674C151.875 30.3425 150.4 28.9261 149.308 29.2902V29.2938ZM166.068 42.282C165.366 44.2811 167.004 47.2887 168.581 48.5413C171.785 51.0793 175.037 50.4675 177.677 47.5909C177.931 47.3142 177.997 46.8518 178.263 46.626C178.55 46.3784 179.315 46.342 179.417 46.0362C179.763 44.9802 176.883 45.4208 176.224 45.3625C173.719 45.1404 170.933 44.2447 168.621 43.2688C167.776 42.912 167.091 42.0454 166.065 42.2893L166.068 42.282Z" fill="#FCF7ED"/>
<path d="M168.371 92.4639C169.303 93.4907 170.68 94.0842 171.757 94.9873C173.891 96.7751 176.04 99.6844 176.757 102.393C176.961 103.162 177.554 105.663 176.578 105.998C176.243 106.071 175.854 106.093 175.541 105.933C175.304 105.813 173.578 101.957 173.105 101.199C171.914 99.3021 170.13 96.9717 168.116 95.9121C167.162 95.4133 165.782 94.7797 164.887 95.6572C168.444 97.1865 171.226 100.271 172.934 103.697C173.298 104.429 174.74 107.174 173.094 107.335C171.448 107.495 169.722 103.985 168.753 102.834C167.344 101.163 164.278 98.0932 161.974 99.1455C164.034 100.365 166.048 101.756 167.592 103.61C168.109 104.232 169.686 106.155 169.139 106.879C168.932 107.167 168.364 107.327 168.043 107.327C166.58 107.32 163.703 103.508 161.828 103.348C161.278 103.3 159.396 104.294 158.631 104.527C156.239 105.248 154.749 105.248 152.368 104.484C151.825 104.309 150.445 103.5 150.059 103.497C149.994 103.497 149.972 103.846 149.542 103.967C146.378 104.84 136.926 104.316 133.394 103.872C130.863 103.551 128.686 103.606 128.281 100.646C127.575 95.457 131.391 90.0207 137.002 90.9601C142.038 91.8012 150.777 96.1962 155.372 94.8708C156.523 94.5394 157.586 93.7784 158.686 93.3341C163.627 91.3497 170.399 88.8991 174.969 92.7443C176.615 94.1316 180.012 99.1164 179.619 101.268C179.495 101.938 178.687 102.237 178.162 101.764C177.831 101.465 176.396 98.2352 175.785 97.3577C174.142 95.0018 171.426 92.4748 168.375 92.4603L168.371 92.4639Z" fill="#FCF7ED"/>
<path d="M21.1639 84.6825L2.37891 88.0033L12.0755 28.8809L21.1639 84.6825Z" fill="white"/>
<path d="M187.76 24.8104C183.379 22.8041 179.167 26.5837 179.228 31.015L175.766 30.4069C174.506 22.7458 164.197 22.2979 162.745 30.0428L157.895 28.3933C159.234 23.6015 161.696 19.1009 161.39 13.9559C162.37 14.411 163.313 14.9718 164.303 15.4051C165.392 15.8785 168.887 17.3786 169.86 17.3896C171.658 17.4151 170.129 14.2217 169.827 13.3733C171.079 13.8357 172.255 14.4584 173.504 14.9281C174.666 15.3651 179.199 17.1092 180.102 17.0728C181.876 17.0072 179.902 13.8248 179.228 13.1803C179.713 12.8307 185.524 15.143 186.143 15.762C186.493 16.1115 186.875 16.9963 187.039 17.4842C187.283 18.2125 187.76 20.3353 187.76 21.0271V24.8067V24.8104ZM180.39 20.9325L186.857 21.4823L187.188 21.0308C186.074 18.7732 180.787 17.8119 180.394 20.9325H180.39ZM168.327 19.6289C167.242 19.76 162.719 21.3184 163.801 22.8805C164.205 23.4631 165.931 22.3052 166.539 22.1049C167.759 21.7044 171.698 21.3767 172.237 21.0199C172.867 20.6011 172.467 20.0659 171.902 19.8183C171.05 19.4505 169.266 19.5124 168.327 19.6253V19.6289Z" fill="#FCF7ED"/>
<path d="M137.535 89.7489C131.985 87.9537 127.241 93.3937 126.866 98.5606C126.717 100.603 127.044 102.912 128.829 104.172L131.523 105.06C124 108.002 117.763 104.376 118.779 95.9098C119.551 89.4721 126.986 84.0722 133.307 85.9292C135.062 86.4463 136.948 87.9792 137.531 89.7489H137.535Z" fill="#C4DEF8"/>
<path d="M41.745 82.771L28.9497 84.8975L27.2129 73.475L39.8188 71.4141L41.745 82.771Z" fill="white"/>
<path d="M35.7215 46.3379L37.6659 58.1427L24.8743 60.2838L23.0137 48.2532L35.7215 46.3379ZM32.368 49.6369C31.6871 49.7534 30.1068 53.7951 29.4331 54.4615L27.8419 53.1324C25.3877 53.4274 29.211 56.3367 29.7827 56.191C30.1796 56.0891 32.7576 51.4247 32.936 50.7874C33.0962 50.2194 33.0015 49.7716 32.3716 49.6369H32.368Z" fill="white"/>
<path d="M37.8565 59.3184L39.597 70.1546L26.8127 72.3029L25.1523 61.4412L37.8565 59.3184Z" fill="white"/>
<path d="M54.9328 80.4455L42.9095 82.3826L40.9688 71.1422L53.0066 69.2852L54.9328 80.4455Z" fill="white"/>
<path d="M21.5756 85.8711L23.9023 100.021L3.34766 89.3594L3.83922 88.9807C9.74163 87.8993 15.6768 86.9671 21.5719 85.8711H21.5756Z" fill="white"/>
<path d="M48.9178 44.1973L50.8586 56.0203L38.8353 57.9611L36.8945 45.9414L48.9178 44.1973ZM40.9873 50.9991C40.6268 51.5161 42.7387 53.5989 43.1902 53.8975C43.3723 54.0176 43.4997 54.1487 43.74 54.0577C44.0495 53.9084 44.2352 53.6353 44.4246 53.3695C44.8433 52.7796 46.8678 49.3205 47.0317 48.7888C47.1518 48.3992 46.9443 47.8712 46.4964 47.8676C45.7318 47.864 43.9731 51.5307 43.6781 52.3354C43.263 52.6376 41.7155 49.954 40.9836 50.9991H40.9873Z" fill="white"/>
<path d="M51.0453 57.1875L52.8004 68.0347L40.9628 69.8953L39.0293 59.121L51.0453 57.1875Z" fill="white"/>
<path d="M41.9157 83.9551L43.6708 93.8045L30.8865 96.1459L29.1387 86.067L41.9157 83.9551Z" fill="white"/>
<path d="M66.7585 78.3073L56.0933 80.2517L54.2363 69.0004L64.825 67.1543L66.7585 78.3073Z" fill="white"/>
<path d="M55.1163 81.6152L56.8713 91.4939L44.848 93.6276L43.2969 83.5487L55.1163 81.6152Z" fill="white"/>
<path d="M78.5858 76.3693L67.9244 78.1171L66.1875 66.884L76.656 65.209L78.5858 76.3693Z" fill="white"/>
<path d="M62.6641 54.0567L52.0209 55.8228L50.0801 43.8031L60.7561 42.332L62.6641 54.0531V54.0567ZM56.4267 51.6972C56.8709 50.8015 59.54 46.7561 59.3652 46.0789C59.2268 45.5436 58.5641 45.4307 58.2146 45.8859L55.8004 50.2007C55.1486 49.6727 53.9507 48.0742 53.4664 49.4142C53.3645 49.913 55.3489 51.8393 55.8332 51.9012L56.4231 51.6972H56.4267Z" fill="white"/>
<path d="M64.6258 66.0986L53.9607 67.6497L52.2129 56.9882L62.8889 55.3242L64.6258 66.0986Z" fill="white"/>
<path d="M74.5015 52.1268L63.8509 53.8892L62.125 42.0807L72.5753 40.3184L74.5015 52.1268ZM68.2787 49.9749C68.5481 49.8147 71.2535 44.8153 71.228 44.4876C71.1843 43.9523 70.6746 43.8795 70.2449 44.0943C69.6477 44.3965 68.3478 47.5061 67.9182 48.2672C67.6487 48.3218 67.6706 48.3072 67.5176 48.1433C67.1462 47.7501 66.8222 46.8362 66.083 46.8944C64.3425 47.0328 67.4849 50.4409 68.275 49.9749H68.2787Z" fill="white"/>
<path d="M74.7081 53.3047L76.4486 63.9625L65.7907 65.7139L64.043 55.0525L74.7081 53.3047Z" fill="white"/>
<path d="M89.6409 74.4338L79.7695 75.9667L77.8105 64.9375L87.8931 63.1934L89.6409 74.4338Z" fill="white"/>
<path d="M85.943 51.5762L87.7053 62.2194L77.6191 63.7706L75.875 53.1128L85.943 51.5762Z" fill="white"/>
<path d="M98.7552 61.4453L100.496 72.4891L90.9848 73.9638L89.0586 63.0001L98.7552 61.4453Z" fill="white"/>
<path d="M83.8157 38.7773L85.7674 50.3965L75.6813 51.9513L73.7441 40.1246L83.8157 38.7773ZM79.3625 46.3256L77.4873 44.9965C75.5429 45.3825 78.6671 47.8221 79.0858 47.884C79.3225 47.9204 79.5373 47.8913 79.7558 47.7821C80.4768 47.4216 82.0607 43.4782 82.8217 42.688L82.4685 41.7595C82.2646 41.6248 82.0935 41.6466 81.8859 41.7595C81.4672 41.9816 79.6975 45.6046 79.3625 46.3256Z" fill="white"/>
<path d="M66.9522 79.4727L68.4888 89.344L58.0239 91.2192L56.3672 81.4062L66.9522 79.4727Z" fill="white"/>
<path d="M78.7658 77.5566L80.3206 87.2132L69.67 89.1685L68.1152 79.2826L78.7658 77.5566Z" fill="white"/>
<path d="M98.3414 60.2594L88.8669 61.836L87.1191 51.3712L96.6373 49.8965L98.3414 60.2594Z" fill="white"/>
<path d="M94.4826 37.0234L96.4197 48.6425L86.9271 50.201L84.9863 38.378L94.4826 37.0234ZM92.6729 40.3406C92.2214 40.4899 90.612 44.0983 89.9311 44.579C89.7709 44.579 88.1469 42.2813 87.7245 43.5448C87.4005 44.5134 89.3886 45.5475 89.9675 46.3049C90.135 46.3668 90.2661 46.3194 90.4154 46.2393C90.6703 46.101 93.383 41.6842 93.474 41.3346C93.5505 41.047 93.5796 40.7739 93.4303 40.5008C93.2737 40.275 92.9133 40.2605 92.6729 40.3406Z" fill="white"/>
<path d="M108.646 111.851C108.042 113.683 108.85 116.862 107.16 118.02C104.08 120.128 95.6213 120.412 92.6501 118.052C91.1135 116.832 91.8017 113.974 91.1973 112.237C96.7028 114.182 103.337 114.506 108.65 111.848L108.646 111.851Z" fill="white"/>
<path d="M90.0295 75.5996L91.1911 83.3518C89.68 83.5047 88.9554 84.5533 88.2854 85.7804L81.6839 86.9529L79.9434 77.1508L90.0259 75.5996H90.0295Z" fill="white"/>
<path d="M167.932 25.8225C176.128 24.4425 176.682 37.0301 169.21 37.1394C162.441 37.2377 162.332 26.7656 167.932 25.8225ZM169.094 31.2515C168.216 31.4336 166.468 33.0212 167.309 33.9206C167.877 34.0808 168.711 32.4022 170.368 32.7954C170.929 32.9302 171.438 33.7713 172.167 33.1559C172.433 31.612 170.368 30.9857 169.094 31.2515Z" fill="#FCF7ED"/>
<path d="M110.196 95.1774L109.824 98.9715C109.092 99.9874 103.692 100.73 102.352 100.807C98.3325 101.032 93.395 100.909 89.8302 98.9242L89.6445 94.9844C96.2206 97.0635 103.554 96.8305 110.196 95.1774Z" fill="white"/>
<path d="M102.245 82.1878C98.946 82.1551 95.5816 82.268 92.3591 82.9671L91.2012 75.2185L100.705 73.7402L102.245 82.1878Z" fill="white"/>
<path d="M88.6464 89.3878C88.6937 89.4169 88.7774 89.8029 88.9449 89.9485C92.0837 92.6794 106.976 92.6467 110.341 90.1852C110.679 89.9376 110.803 89.6681 111.062 89.3732C112.504 90.3308 112.252 92.5775 110.716 93.4696C107.475 95.3521 99.2896 95.3594 95.5537 94.9807C93.613 94.784 88.3405 94.125 87.6559 92.024C87.4156 91.2812 87.7106 88.8489 88.6464 89.3878Z" fill="white"/>
<path d="M163.912 106.225L158.232 106.848C157.656 107.048 157.704 107.561 158.028 107.987L175.495 112.768L179.034 112.43L178.335 114.96L145.102 105.646C145.837 105.606 146.591 105.697 147.33 105.642C148.229 105.573 150.174 105.045 150.833 105.082C151.048 105.093 152.213 105.777 152.672 105.926C155.865 106.975 159.047 106.199 161.873 104.539L163.908 106.225H163.912Z" fill="white"/>
<path d="M187.739 26.1921L186.967 36.8098C177.183 39.4643 178.876 22.2778 187.739 26.1921ZM186.21 33.1431C185.904 30.0845 181.611 29.9826 181.556 33.2414C181.654 33.9551 183.173 32.1418 183.308 32.0799C184.644 31.4609 185.004 33.3434 186.21 33.1431Z" fill="#FCF7ED"/>
<path d="M109.999 86.2595L109.959 88.6409C109.835 88.9686 109.551 89.1361 109.286 89.3254C106.507 91.3172 93.3079 91.0878 90.2747 89.3982C89.0768 88.7319 89.3062 86.285 89.7322 86.2595C95.915 88.5753 103.758 88.3386 109.996 86.2559L109.999 86.2595Z" fill="white"/>
<path d="M176.71 116.111C175.837 116.063 174.937 116.442 174.089 116.497C171.686 116.653 166.278 114.818 163.675 114.119C157.164 112.375 150.698 110.423 144.22 108.562C143.382 108.482 143.178 106.68 144.183 106.84L176.71 116.111Z" fill="white"/>
<path d="M109.806 86.0635C109.005 86.1036 108.185 86.0126 107.384 86.0635C105.495 86.1946 103.463 86.577 101.573 86.6498C97.7133 86.7991 93.6424 86.3002 89.8301 85.7686C89.8301 85.3681 90.1687 85.0549 90.4636 84.8547C93.1035 83.0778 105.24 83.2343 108.306 84.3631C109.103 84.6581 109.849 85.0841 109.802 86.0635H109.806Z" fill="white"/>
<path d="M188.344 35.6655C188.519 33.3824 188.566 31.0703 188.733 28.7872C188.752 28.5287 188.828 27.6147 189.116 27.5273C190.78 30.0325 190.911 33.7138 188.344 35.6691V35.6655Z" fill="#FCF7ED"/>
<path d="M183.491 90.332C183.539 90.3721 183.943 91.2132 184.067 91.3843C183.451 93.1795 183.324 95.5936 182.625 97.3086C182.312 98.0806 181.915 97.8985 181.172 97.8876L183.109 90.4486L183.491 90.332Z" fill="white"/>
<path d="M90.026 13.3707L84.2109 14.1463C84.9647 11.6593 88.9263 10.7891 90.026 13.3707Z" fill="white"/>
<path d="M79.3623 14.9216L73.7402 15.6971C74.3192 13.9494 76.2381 13.2066 77.9531 13.7163C78.2189 13.7965 79.7118 14.5866 79.3623 14.9216Z" fill="white"/>
<path d="M68.6963 16.6655L63.0742 17.4411C63.8462 15.2928 66.6426 14.6082 68.3722 16.1194C68.5688 16.2905 68.78 16.3014 68.6963 16.6655Z" fill="white"/>
<path d="M46.3985 19.9612L41.166 20.7367C41.2643 19.2547 43.2051 18.4573 44.5087 18.6467C44.8473 18.694 46.8427 19.5352 46.3985 19.9612Z" fill="white"/>
<path d="M35.1504 21.7049L29.918 22.4805C30.6134 20.4014 33.1514 19.6913 34.83 21.1587C35.0266 21.3299 35.2378 21.3444 35.154 21.7049H35.1504Z" fill="white"/>
<path d="M57.6459 18.2169L52.2168 18.9925C52.7739 16.6548 56.3496 16.3781 57.6459 18.2169Z" fill="white"/>
<path d="M23.9027 23.4533L18.8633 24.2288C19.2747 22.2407 21.8127 21.6071 23.3893 22.7104C23.6551 22.8961 23.9719 23.0673 23.9027 23.4533Z" fill="white"/>
<path d="M182.136 99.0547C182.296 99.2149 181.266 103.151 180.985 103.428C180.527 103.883 179.103 103.898 178.451 103.898V103.319C181.055 103.399 181.28 101.327 180.778 99.2477L182.136 99.0547Z" fill="white"/>
<path d="M77.9609 26.9812C78.1903 27.9207 79.665 32.6033 79.279 33.1531C78.2594 34.6023 77.5567 30.4149 77.422 29.8469C77.1452 29.7995 77.1525 30.1891 77.0943 30.3894C76.8758 31.1905 76.934 32.9783 75.7652 32.9492C75.0661 32.931 74.6474 30.5642 73.9337 30.2328C73.7116 31.0193 74.3998 33.5828 73.7443 34.0197L72.9797 34.0889C72.6811 33.8923 72.4736 28.8638 72.5646 28.1865C72.6811 27.3162 73.2892 27.0723 74.0429 27.5019L75.8672 30.6151C76.1366 29.4208 76.1075 26.2639 77.9572 26.9739L77.9609 26.9812Z" fill="black"/>
<path d="M66.5669 34.5999C66.4941 35.0478 66.1591 35.2262 65.7222 35.0623C64.9903 34.7893 65.0704 30.0375 65.0449 29.1053C67.175 28.0712 67.175 30.5254 68.3111 31.5959L68.8281 28.3443C69.2869 27.7289 70.0625 27.7326 70.3939 28.4499C70.6378 28.9779 71.8504 33.6204 71.8067 34.0246C71.7812 34.254 71.7156 34.4033 71.4899 34.4907C70.2155 34.9094 70.3611 31.6724 69.571 31.0206C69.3998 31.9855 69.4107 34.5234 67.8232 33.7333L66.5633 31.5995C66.4577 32.5244 66.709 33.7224 66.5633 34.6036L66.5669 34.5999Z" fill="black"/>
<path d="M23.4657 34.7402C26.4806 34.2668 28.5707 35.7597 27.8898 38.9677C27.6713 39.9872 26.4988 41.0614 25.5885 41.5129C25.0168 41.7932 23.0688 42.5033 22.7775 41.7313C22.6064 41.2762 21.7325 36.3824 21.7543 35.9491C21.798 35.1407 22.7775 34.8458 23.4657 34.7366V34.7402ZM23.9063 40.5115C27.5475 40.2712 27.6494 34.9915 23.5421 36.0729L23.9063 40.5115Z" fill="black"/>
<path d="M60.5034 29.5087C65.004 28.6748 65.6121 36.6236 60.6637 35.8444C57.9255 35.4147 57.5322 30.0585 60.5034 29.5087ZM60.6928 30.8559C59.0615 31.3402 59.6805 35.1671 61.9709 34.4644C63.2271 34.0784 62.9977 30.1713 60.6928 30.8559Z" fill="black"/>
<path d="M31.411 34.1718C31.6768 34.394 34.0327 38.8472 34.222 39.4006C34.324 39.6956 34.4587 39.976 34.3567 40.2964C33.4137 41.0319 32.8821 39.2659 32.5398 39.2077C32.4233 39.1895 30.3878 39.7538 30.2931 39.823C29.9982 40.0524 30.1329 41.4252 29.0588 41.072C28.6946 40.9518 28.7274 40.5221 28.7383 40.2235C28.7602 39.6009 29.5649 35.104 29.7652 34.6452C29.9035 34.3321 30.122 34.0881 30.4352 33.9424C30.7556 33.8587 31.1488 33.9534 31.4037 34.1646L31.411 34.1718ZM30.497 38.3775C30.7811 38.3884 32.0409 38.1481 32.0446 37.8932L31.076 36.2474C30.792 36.1891 30.8794 36.4694 30.8248 36.6697C30.7519 36.9355 30.4351 38.3156 30.497 38.3775Z" fill="black"/>
<path d="M89.1158 30.7639C88.6971 30.276 88.901 29.6497 89.3525 29.2674C89.5528 29.2201 90.9437 30.7748 91.9669 29.7553C93.154 28.5755 90.19 28.3097 89.7203 28.1168C87.6084 27.2501 88.7153 24.0969 91.4608 24.4355C93.5072 24.6867 92.5204 26.2379 91.9087 26.1323C91.7594 26.1068 91.5555 25.8337 91.2751 25.7828C90.6561 25.6662 89.7385 25.7573 90.0407 26.6312C90.2264 27.1737 93.0666 26.8278 93.4744 28.6302C94.0351 31.0989 90.3794 32.2423 89.1122 30.7639H89.1158Z" fill="black"/>
<path d="M56.8519 31.7738C56.6517 31.9122 55.7923 31.5808 55.4173 31.5808C52.508 31.5663 53.5785 36.6057 56.2875 35.375C56.8883 35.1019 56.6844 34.0714 57.5292 34.7196C58.7053 35.6189 56.4878 36.9735 55.5957 37.0136C53.979 37.0827 52.4351 35.5643 52.2349 34.0059C51.8853 31.2786 54.4851 29.3269 56.9794 30.6232C57.1651 30.8198 56.9648 31.701 56.8519 31.7775V31.7738Z" fill="black"/>
<path d="M44.8496 38.3778C44.7294 37.2381 44.7695 36.1385 44.0704 35.1808C43.648 34.6055 42.2607 33.6188 42.0386 33.1418C41.7145 32.4426 42.1624 31.5396 42.9052 31.8783C43.5752 32.1841 44.409 33.819 45.0389 34.3069C45.2647 33.6224 45.8691 31.4413 46.5318 31.2411C46.8778 31.1355 47.5659 31.1355 47.5332 31.6525C47.464 32.7012 46.124 34.4453 46.0184 35.5923C45.9056 36.8303 47.1217 38.731 44.8496 38.3778Z" fill="black"/>
<path d="M87.293 26.3409L85.76 26.5522L86.4919 31.6644C84.3217 33.9948 84.8315 27.3787 84.4018 26.9381L82.5885 27.1165C81.8967 26.5485 82.2644 26.0715 83 25.8312C83.4515 25.6856 86.4409 25.1649 86.8269 25.1904C87.0599 25.2049 87.2129 25.2814 87.2784 25.518L87.2893 26.3409H87.293Z" fill="black"/>
<path d="M40.1929 37.9914C40.7536 37.7693 44.4567 37.6273 42.7927 38.7488C42.3849 39.0219 39.4246 39.59 39.1187 39.1603C38.9439 38.9127 38.0991 33.804 38.07 33.2105C38.0555 32.9156 38.0445 32.7008 38.3795 32.5879H39.2935L39.5775 32.8829L40.1929 37.9878V37.9914Z" fill="black"/>
<path d="M34.7934 33.1732L35.5981 32.9766C35.8603 33.0603 35.9768 33.246 36.0715 33.4863C36.3227 34.1126 37.0546 38.5949 37.0291 39.2904C37.0036 39.9859 36.5448 40.3391 35.9222 40.0296C35.5289 39.7929 34.5094 33.6174 34.7934 33.1732Z" fill="black"/>
<path d="M81.0984 26.5668C81.1275 27.9032 82.2927 31.7046 81.7866 32.7569C81.4916 33.3686 80.8253 33.2194 80.5777 32.6113C80.3592 32.0724 79.8203 27.8996 79.8203 27.1932C79.8203 26.2865 80.3447 26.5523 81.0984 26.5668Z" fill="black"/>
<path d="M212.535 83.0167C219.508 82.0008 217.866 91.0856 213.409 91.8357C206.673 92.9754 207.507 83.7485 212.535 83.0167ZM212.725 84.1746C209.885 84.6989 208.508 90.0223 211.723 90.5139C216.446 91.2349 218.165 83.1696 212.725 84.1746Z" fill="black"/>
<path d="M165.897 83.1142C164.965 82.1784 166.316 79.8516 167.808 81.1078C169.301 82.3641 167.044 84.2611 165.897 83.1142Z" fill="black"/>
<path d="M167.262 68.6766C168.547 67.6425 170.113 69.1245 169.159 70.4754C168.103 71.9683 165.732 69.9074 167.262 68.6766Z" fill="black"/>
<path d="M166.066 42.2809C167.093 42.037 167.781 42.9036 168.622 43.2604C170.931 44.2363 173.72 45.132 176.225 45.3541C176.884 45.4124 179.764 44.9754 179.418 46.0278C179.317 46.3373 178.556 46.37 178.264 46.6176C178.002 46.8434 177.933 47.3058 177.678 47.5826C175.034 50.4591 171.786 51.0745 168.582 48.5329C167.006 47.284 165.367 44.2727 166.07 42.2736L166.066 42.2809Z" fill="black"/>
<path d="M149.306 29.2929C150.398 28.9288 151.873 30.3453 152.31 31.2701C152.812 32.3297 153.322 34.6383 152.368 35.4721C151.796 35.5923 151.764 33.6187 151.636 33.109C151.381 32.1076 150.93 30.764 149.805 30.48C149.451 30.3889 149.175 30.8186 148.923 30.1887C148.792 29.861 148.96 29.4131 149.306 29.2966V29.2929Z" fill="black"/>
<path d="M168.329 19.6294C169.272 19.5165 171.056 19.451 171.904 19.8224C172.469 20.0663 172.869 20.6052 172.239 21.024C171.7 21.3808 167.757 21.7085 166.541 22.109C165.933 22.3093 164.207 23.4672 163.802 22.8846C162.721 21.3189 167.243 19.7641 168.329 19.633V19.6294Z" fill="black"/>
<path d="M180.39 20.9334C180.784 17.8129 186.071 18.7705 187.185 21.0317L186.853 21.4832L180.387 20.9334H180.39Z" fill="black"/>
<path d="M32.3671 49.6367C32.9971 49.7678 33.0917 50.2156 32.9315 50.7873C32.7531 51.4209 30.1751 56.0853 29.7782 56.1909C29.2065 56.3402 25.3833 53.4272 27.8375 53.1323L29.4287 54.4613C30.1023 53.795 31.6826 49.7532 32.3635 49.6367H32.3671Z" fill="black"/>
<path d="M40.9867 50.9987C41.7149 49.9536 43.2625 52.6408 43.6812 52.335C43.9761 51.5303 45.7349 47.8635 46.4995 47.8672C46.9437 47.8672 47.1513 48.3952 47.0348 48.7884C46.8709 49.3237 44.85 52.7792 44.4277 53.3691C44.2383 53.6386 44.0526 53.9116 43.7431 54.0573C43.5028 54.1483 43.3717 54.0172 43.1933 53.8971C42.7454 53.5948 40.6299 51.5121 40.9903 50.9987H40.9867Z" fill="black"/>
<path d="M56.4253 51.6986L55.8354 51.9025C55.3511 51.837 53.3667 49.9107 53.4686 49.4155C53.9566 48.0756 55.1509 49.6741 55.8027 50.202L58.2168 45.8872C58.5663 45.4321 59.229 45.5449 59.3674 46.0802C59.5422 46.7611 56.8732 50.8028 56.4289 51.6986H56.4253Z" fill="black"/>
<path d="M68.2799 49.9755C67.4897 50.4379 64.3473 47.0334 66.0878 46.895C66.827 46.8368 67.1474 47.7471 67.5225 48.1439C67.6754 48.3078 67.6536 48.3224 67.923 48.2678C68.3527 47.5068 69.6526 44.3971 70.2498 44.0949C70.6758 43.8801 71.1892 43.9529 71.2329 44.4882C71.2584 44.8159 68.5529 49.8189 68.2835 49.9755H68.2799Z" fill="black"/>
<path d="M79.3627 46.3263C79.6977 45.609 81.4673 41.986 81.886 41.7602C82.0936 41.651 82.2647 41.6291 82.4686 41.7602L82.8218 42.6887C82.0608 43.4789 80.4769 47.4223 79.7559 47.7828C79.5411 47.892 79.3226 47.9175 79.0859 47.8847C78.6672 47.8228 75.543 45.3868 77.4874 44.9972L79.3627 46.3263Z" fill="black"/>
<path d="M92.6733 40.3393C92.9173 40.2591 93.2741 40.2737 93.4307 40.4994C93.58 40.7725 93.5509 41.0456 93.4744 41.3333C93.3834 41.6829 90.6707 46.0996 90.4158 46.238C90.2665 46.3181 90.1354 46.3655 89.9679 46.3036C89.389 45.5426 87.4009 44.5121 87.7249 43.5435C88.1473 42.28 89.7713 44.5776 89.9315 44.5776C90.6124 44.097 92.2218 40.4885 92.6733 40.3393Z" fill="black"/>
<path d="M169.093 31.2525C170.367 30.9867 172.432 31.6166 172.166 33.1569C171.438 33.7722 170.928 32.9275 170.367 32.7964C168.711 32.4031 167.877 34.0781 167.309 33.9215C166.468 33.0221 168.216 31.4345 169.093 31.2525Z" fill="black"/>
<path d="M186.21 33.1408C185.005 33.3411 184.641 31.4585 183.308 32.0776C183.173 32.1395 181.655 33.9492 181.557 33.2391C181.611 29.9802 185.904 30.0858 186.21 33.1408Z" fill="black"/>
<path d="M23.9051 40.513L23.541 36.0744C27.6483 34.9893 27.5464 40.2727 23.9051 40.513Z" fill="white"/>
<path d="M60.6939 30.8557C62.9988 30.1711 63.2282 34.0782 61.972 34.4641C59.6817 35.1669 59.0627 31.34 60.6939 30.8557Z" fill="white"/>
<path d="M30.4962 38.3781C30.4343 38.3162 30.7511 36.9362 30.824 36.6704C30.8786 36.4701 30.7875 36.1898 31.0752 36.248L32.0438 37.8939C32.0438 38.1488 30.7803 38.3891 30.4962 38.3781Z" fill="white"/>
<path d="M212.725 84.1747C218.165 83.1697 216.447 91.235 211.724 90.514C208.509 90.0225 209.885 84.6991 212.725 84.1747Z" fill="white"/>
</svg>
