<svg width="214" height="248" viewBox="0 0 214 248" fill="none" xmlns="http://www.w3.org/2000/svg">
<path d="M149.862 27.0943C174.988 23.9378 195.603 46.9125 188.801 71.5445C178.294 109.577 116.628 101.854 120.578 57.5346C121.869 43.0776 135.448 28.9058 149.862 27.0943ZM154.109 40.9887V29.0446C154.109 28.2968 152.279 28.32 151.631 28.3816C147.226 28.8172 142.169 36.645 139.876 40.0714C139.876 41.3933 149.824 41.1659 151.142 41.1968C152.31 41.2237 153.369 42.1256 154.109 40.9887ZM155.485 41.216C158.858 41.216 162.477 41.216 165.818 40.7497C166.632 40.6379 170.147 40.2525 170.178 39.6089C166.589 34.1359 162.936 27.9461 155.485 28.3508V41.216ZM145.376 29.7345C144.937 29.3182 139.383 32.2474 138.523 32.7561C137.664 33.2649 131.293 37.4428 132.056 38.4565C134.149 39.0423 136.203 40.53 138.485 39.6089L145.376 29.7383V29.7345ZM173.739 33.9933C173.361 33.4152 166.046 29.7846 165.599 30.1931C165.549 31.0603 166.308 31.7656 166.79 32.4401C167.545 33.5 172.058 39.8555 172.482 40.0675C173.076 40.3643 173.689 40.3257 174.321 40.2949C174.587 40.0405 174.205 34.6986 173.739 33.9856V33.9933ZM179.377 39.3738C179.825 38.7648 176.163 34.9684 175.246 35.7084L176.148 40.1137L179.377 39.3738ZM122.178 60.9725H133.432C133.362 54.3896 135.008 48.1073 137.14 41.956L130.51 39.4508C125.045 44.8389 122.347 52.4856 121.677 60.036L122.174 60.9725H122.178ZM188.069 56.3437C188.701 53.2333 183.232 41.1698 180.499 40.7497L176.645 41.2392C176.495 42.9543 176.602 49.5911 175.747 50.678C173.982 52.9211 168.154 48.1921 167.668 53.561C167.256 58.1166 171.619 55.5227 173.103 55.5883C178.14 55.8157 175.812 60.6411 176.845 62.3562C177.262 63.0499 181.015 64.3257 181.848 63.7051C183.471 62.4911 182.014 60.9263 182.095 59.3576C182.241 56.4207 186.034 56.9372 188.072 56.3398L188.069 56.3437ZM155.485 43.0545V61.4312H174.552C177.385 55.0024 170.871 58.6446 168.004 57.4074C164.998 56.1124 164.936 50.6241 167.761 49.1248C170.124 47.8722 172.205 49.9804 174.733 49.4331C175.169 49.0631 175.693 43.5709 174.783 42.8155C172.282 39.948 159.394 43.3782 155.482 43.0506L155.485 43.0545ZM154.109 43.0545L139.02 42.2104C136.08 47.7874 135.471 53.6958 134.835 59.8664L135.004 60.5331L153.585 61.3618C153.539 60.8608 154.109 60.0668 154.109 59.824V43.0545ZM188.566 66.7152C188.859 64.1252 188.354 61.0959 188.566 58.4442C188.566 57.2956 184.353 58.344 183.71 59.1302C185.209 66.7846 181.443 66.2874 175.704 64.1869L175.242 69.6984C174.463 73.568 174.702 73.8801 173.415 77.5069L171.538 82.2899C173.388 82.8873 178.117 85.3116 179.624 84.4367C183.459 82.2013 188.08 71.0628 188.566 66.7152ZM133.204 62.3523H122.178C121.422 63.1039 121.854 65.4935 122.004 66.6613C122.783 72.8202 126.14 80.7791 131.277 84.3134L137.113 82.1011C135.667 77.6958 134.338 73.2018 133.902 68.546C133.79 67.3666 134.384 62.7108 133.208 62.3485L133.204 62.3523ZM154.109 62.811C153.524 63.0615 152.749 62.3523 152.502 62.3523H135.274C134.735 66.6883 135.563 71.953 136.785 76.235C137.263 77.9154 137.891 79.5304 138.55 81.1375C139.001 81.4189 146.085 79.9428 147.457 79.8194C149.616 79.6229 152.452 80.4631 154.113 79.1257V62.8148L154.109 62.811ZM174.325 62.811H155.489V79.1218C156.491 80.3051 158.291 79.673 159.798 79.8695C161.949 80.147 168.694 82.182 169.996 81.2262C172.525 79.3685 174.918 66.2142 174.325 62.8148V62.811ZM154.109 81.1877C149.141 80.9641 144.189 81.4844 139.402 82.8026C140.701 87.1038 148.691 95.6755 153.335 94.5269C153.612 94.4576 154.109 93.5171 154.109 93.363V81.1877ZM155.485 81.1877V94.5115C162.199 95.0434 166.158 88.4181 168.813 83.2612C164.4 82.4595 160.041 80.8716 155.485 81.1877ZM144 92.6692L138.034 83.6851L132.518 85.327C131.798 86.3098 136.743 89.5975 137.61 90.1062C138.477 90.615 143.491 93.1356 144.004 92.6692H144ZM177.539 85.7857L170.185 84.1515L163.76 93.5904C166.42 93.1857 169.044 92.1296 171.415 90.9156C172.085 90.5726 178.526 86.8225 177.539 85.7895V85.7857Z" fill="black"/>
<path d="M202.345 26.0597C202.557 27.0348 201.848 27.1042 201.277 27.5166C199.107 29.0853 195.207 30.9892 192.709 32.2688C192.316 32.4692 188.485 34.7586 188.574 33.1784C189.911 31.9874 201.709 25.4816 202.345 26.0597Z" fill="black"/>
<path d="M213.836 48.5742C213.635 49.3758 212.784 49.6071 212.101 49.8191C208.012 51.1025 202.489 51.2104 198.219 52.2395V50.8635L213.836 48.5703V48.5742Z" fill="black"/>
<path d="M198.215 94.5076C197.128 95.5136 188.849 87.8091 189.03 86.938C189.096 86.6143 189.998 85.882 190.414 86.464C192.534 88.7803 195.293 90.4685 197.297 92.9043C197.725 93.4207 198.411 93.6443 198.215 94.5115V94.5076Z" fill="black"/>
<path d="M207.401 76.131C206.711 76.7169 195.503 72.9514 195.469 72.2268C196.105 71.3056 196.421 71.5677 197.319 71.7373C198.564 71.9762 200.922 72.8087 202.241 73.252C202.668 73.3946 208.662 75.0596 207.397 76.1272L207.401 76.131Z" fill="black"/>
<path d="M153.189 1.24942C153.752 0.501707 154.022 1.25712 154.111 1.9316C154.75 6.95359 153.428 12.9083 154.531 18.0343L153.193 19.1713V1.25326L153.189 1.24942Z" fill="black"/>
<path d="M126.996 9.51916C128.561 14.3639 132.538 18.484 133.891 23.3017C133.124 23.0165 132.604 22.2456 132.141 21.6136C131.089 20.1798 126.271 11.5272 126.09 10.2013C125.967 9.30333 126.256 9.48063 127 9.52302L126.996 9.51916Z" fill="black"/>
<path d="M178.916 14.1147C179.343 14.5733 175.589 20.2659 174.977 20.9674C174.518 21.4916 174.267 22.1005 173.408 21.9194C173.065 21.5725 177.921 13.0548 178.916 14.1147Z" fill="black"/>
<path d="M154.111 43.055V59.8245C154.111 60.0673 153.54 60.8613 153.586 61.3623L135.006 60.5337L134.836 59.8669C135.472 53.6964 136.081 47.7879 139.022 42.2109L154.111 43.055Z" fill="white"/>
<path d="M154.111 62.8121V79.123C152.45 80.4604 149.613 79.624 147.455 79.8167C146.082 79.9401 138.998 81.4162 138.548 81.1348C137.888 79.5276 137.26 77.9128 136.782 76.2323C135.561 71.9504 134.732 66.6856 135.272 62.3496H152.5C152.746 62.3496 153.521 63.0588 154.107 62.8083L154.111 62.8121Z" fill="white"/>
<path d="M174.326 62.8125C174.919 66.2118 172.526 79.3661 169.997 81.2238C168.695 82.1796 161.95 80.1485 159.799 79.8672C158.296 79.6706 156.496 80.3027 155.49 79.1194V62.8086H174.326V62.8125Z" fill="white"/>
<path d="M155.486 43.0545C159.398 43.3859 172.283 39.9557 174.788 42.8194C175.698 43.5748 175.173 49.0631 174.738 49.437C172.21 49.9804 170.128 47.8722 167.766 49.1287C164.941 50.6279 164.998 56.1163 168.009 57.4113C171.019 58.7063 177.386 55.0024 174.557 61.435H155.49V43.0583L155.486 43.0545Z" fill="white"/>
<path d="M188.07 56.344C186.035 56.9414 182.239 56.425 182.092 59.3619C182.015 60.9305 183.472 62.4953 181.846 63.7094C181.013 64.3299 177.259 63.0541 176.843 62.3604C175.81 60.6453 178.138 55.8199 173.1 55.5925C171.617 55.5269 167.254 58.1208 167.666 53.5652C168.156 48.1963 173.979 52.9254 175.744 50.6823C176.6 49.5954 176.492 42.9546 176.642 41.2434L180.497 40.7539C183.229 41.174 188.698 53.2376 188.066 56.3479L188.07 56.344Z" fill="white"/>
<path d="M133.205 62.3535C134.38 62.7158 133.791 67.3716 133.899 68.551C134.334 73.203 135.664 77.697 137.109 82.1061L131.274 84.3184C126.14 80.7803 122.779 72.8214 122.001 66.6663C121.854 65.4985 121.423 63.1051 122.174 62.3574H133.201L133.205 62.3535Z" fill="white"/>
<path d="M122.179 60.9729L121.682 60.0363C122.352 52.4898 125.05 44.8393 130.515 39.4512L137.145 41.9564C135.009 48.1076 133.367 54.39 133.437 60.9729H122.183H122.179Z" fill="white"/>
<path d="M188.567 66.7169C188.077 71.0644 183.456 82.2029 179.625 84.4384C178.118 85.3171 173.389 82.889 171.539 82.2916L173.416 77.5086C174.858 71.7581 174.002 74.6526 175.243 69.7L175.705 64.1885C181.444 66.2891 185.21 66.7862 183.711 59.1318C184.358 58.3456 188.567 57.2973 188.567 58.4458C188.355 61.0975 188.86 64.123 188.567 66.7169Z" fill="white"/>
<path d="M154.11 81.1889V93.3642C154.11 93.5222 153.613 94.4588 153.335 94.5282C148.691 95.6767 140.701 87.105 139.402 82.8038C144.189 81.4856 149.142 80.9653 154.11 81.1889Z" fill="white"/>
<path d="M155.486 41.2161V28.3509C162.936 27.9462 166.59 34.1398 170.178 39.6089C170.144 40.2487 166.633 40.638 165.819 40.7498C162.482 41.2123 158.859 41.2161 155.486 41.2161Z" fill="white"/>
<path d="M154.11 40.9898C153.37 42.1267 152.311 41.221 151.143 41.1979C149.821 41.167 139.877 41.3944 139.877 40.0725C142.17 36.6461 147.227 28.8183 151.632 28.3827C152.28 28.3172 154.11 28.2979 154.11 29.0457V40.9898Z" fill="white"/>
<path d="M155.486 81.1895C160.042 80.8734 164.401 82.4614 168.814 83.263C166.159 88.4199 162.2 95.0452 155.486 94.5133V81.1895Z" fill="white"/>
<path d="M177.54 85.7865C178.527 86.8194 172.087 90.5695 171.416 90.9125C169.042 92.1304 166.421 93.1826 163.762 93.5873L170.187 84.1484L177.54 85.7826V85.7865Z" fill="white"/>
<path d="M145.376 29.7358L138.484 39.6063C136.199 40.5274 134.145 39.0436 132.056 38.4539C131.293 37.4402 137.644 33.2739 138.523 32.7536C139.402 32.2333 144.932 29.3157 145.376 29.7319V29.7358Z" fill="white"/>
<path d="M144.001 92.6696C143.492 93.1398 138.505 90.6346 137.607 90.1066C136.709 89.5786 131.795 86.3102 132.515 85.3274L138.031 83.6855L143.997 92.6696H144.001Z" fill="white"/>
<path d="M173.74 33.9944C174.211 34.7074 174.588 40.0455 174.322 40.3037C173.69 40.3345 173.077 40.3731 172.484 40.0763C172.06 39.8643 167.547 33.5049 166.791 32.4489C166.31 31.7744 165.546 31.0691 165.6 30.2019C166.047 29.7934 173.363 33.424 173.74 34.0021V33.9944Z" fill="white"/>
<path d="M179.378 39.3738L176.148 40.1138L175.246 35.7085C176.167 34.9685 179.829 38.7649 179.378 39.3738Z" fill="white"/>
<path d="M0.398329 130.346C5.07729 121.924 11.6602 115.542 20.0084 110.786C23.7045 108.681 29.1813 106.908 32.4149 104.762C33.8024 103.837 34.6157 102.534 36.3154 101.57C37.8801 100.684 39.5413 100.291 41.1716 99.6124L42.5745 89.2215C36.2537 91.033 30.6574 83.1281 31.3242 77.4393C31.463 76.2677 32.6577 74.0284 32.6385 73.4387C32.6269 73.0225 31.039 70.5558 30.7075 69.7156C28.0366 62.8937 27.9364 53.9289 32.6577 47.928C35.4212 44.4129 48.1477 37.3174 52.58 35.9492C60.8934 33.3862 69.0103 35.213 77.3816 33.1087C79.6054 32.5498 84.8663 29.5435 82.9161 34.0414C82.1646 35.7719 80.5921 36.404 79.1853 37.3829C78.877 37.5949 78.5262 37.3213 78.7189 38.1692L90.4125 41.0097C91.1178 41.9694 85.8376 43.908 85.456 44.7328C85.1593 45.3726 87.518 46.0317 87.7686 46.6676C88.6049 47.8046 89.5453 49.142 89.9616 50.5025C90.1967 51.2734 91.0754 54.6805 89.5723 54.4492L86.5198 52.3564C88.2927 57.0122 85.3867 61.7683 85.5061 66.4858C93.7579 68.1431 92.0158 79.2199 86.5082 83.0047C85.9802 83.3709 84.8587 83.5289 84.8008 83.5983C84.6235 83.8103 84.4463 86.8474 84.2998 87.5296C82.8622 94.1587 79.6054 101.354 73.1265 104.361C70.7215 105.478 68.1855 105.621 65.6109 106.057C68.8214 108.882 72.9531 110.204 76.5645 112.47C87.2945 119.203 90.929 126.002 93.7194 138.208C95.8508 147.531 96.583 157.213 98.9264 166.505C101.451 166.024 104.284 166.301 106.361 164.555C104.777 163.457 104.453 161.695 105.347 159.988C105.617 159.475 106.357 159.109 106.538 158.701C106.87 157.957 106.65 157.024 106.87 156.195C107.143 155.166 108.442 154.338 107.244 154.11C105.313 153.74 98.857 153.517 97.8356 152.522C96.5021 151.231 97.2459 147.616 97.6815 145.943C97.8087 145.458 98.4061 145.045 98.4716 144.652C98.6566 143.527 97.3307 141.18 99.6124 140.428C102.603 139.441 103.829 143.469 106.307 140.035C107.352 138.59 108.331 136.161 106.022 135.46C104.284 134.932 100.869 137.175 99.809 134.955C99.0227 133.309 100.796 127.054 101.22 125.023C102.272 123.79 110.107 126.345 112.034 125.732C109.533 120.105 113.214 116.929 118.671 118.918C122.398 120.278 121.069 123.258 120.12 125.859C119.989 126.222 119.616 126.202 120.174 126.634C122.075 127.204 127.929 126.414 128.796 128.322C129.128 129.051 127.84 138.389 127.305 139.064C125.697 141.095 121.304 135.765 120.113 139.653C117.877 146.965 127.301 141.072 126.846 146.375C126.761 147.346 125.721 149.25 125.898 149.956C126.002 150.356 129.505 152.873 130.28 154.812C133.822 163.653 121.273 173.813 114.69 177.856C114.297 179.274 114.663 180.65 114.355 182.13C113.391 186.717 104.623 191.662 100.337 192.748C100.58 193.381 102.441 193.149 103.008 193.115C108.762 192.768 117.303 191.735 122.849 192.382C126.588 192.818 125.316 196.024 124.692 198.495C122.348 207.757 118.61 216.718 116.64 226.072H130.816V227.135L115.981 227.54C115.415 227.906 113.052 238.417 112.104 240.147C111.452 241.334 110.493 241.881 109.217 242.224L51.6049 247.697L17.6727 240.872C15.6339 240.606 14.971 237.079 16.5435 236.027C17.0329 235.699 18.7134 235.422 19.3955 235.333C25.7896 234.505 32.4111 234.462 38.8437 233.869C43.5496 233.433 48.2633 232.813 52.9731 232.404L54.615 227.135L0.390625 227.49V226.072H8.89678C7.57095 224.168 5.29313 223.131 4.99251 220.587C4.67646 217.897 7.69813 204.7 7.12 204.099L0.390625 202.318V200.191C2.96907 201.625 5.91365 202.523 8.89293 202.669L5.8751 200.199C1.29249 194.336 6.61896 181.833 14.2155 181.221C11.2902 177.143 5.37407 174.688 0.390625 175.019V173.601C3.20802 173.393 5.93292 173.828 8.54605 174.838C7.01595 171.724 4.14844 168.968 0.390625 169.346V167.573C3.80927 167.673 6.40699 169.041 8.53449 171.658C9.19741 172.475 11.2401 176.599 11.9069 176.434C12.5737 176.268 17.2025 167.357 17.823 166.039C23.0955 154.843 26.36 141.6 19.9467 130.107C18.2547 127.077 16.8248 126.526 14.7359 124.329C14.4776 124.056 13.834 123.574 14.3967 123.25C23.6004 127.301 25.5121 139.222 24.8453 148.244C24.0205 159.371 16.9828 167.77 16.0308 178.781C15.5799 183.992 17.7961 180.712 19.515 179.783C20.6135 179.189 21.7967 178.866 23.0531 178.889C22.899 177.825 23.797 176.411 23.7546 175.532C23.6814 174.052 21.049 172.988 22.5444 169.693C23.0493 168.579 23.7893 168.633 24.3058 167.916C24.8569 167.157 25.0149 166.178 25.7164 165.426C28.4104 162.543 36.8819 163.252 40.5742 163.715C44.2665 164.177 48.5369 165.207 51.7783 167.215L53.5551 139.387L55.6517 124.468C52.711 119.018 41.4183 111.256 40.4624 105.332C40.2196 103.829 40.7091 102.391 40.6166 100.923C38.8244 102.241 35.61 102.973 34.4615 105.047C31.8137 109.818 37.1825 120.105 39.3833 124.672L46.7293 119.407C47.5079 119.141 49.9861 121.134 49.2962 121.836C48.3596 122.055 47.689 121.015 46.8064 121.265C45.1183 121.743 41.1947 126.476 39.5452 126.441C38.6124 126.295 38.2193 125.393 37.7684 124.684C35.3788 120.934 33.0432 114.609 32.3841 110.215C32.2376 109.248 32.3995 108.323 32.2878 107.467C32.2261 106.997 32.4689 106.831 31.7559 106.939C29.5282 107.282 21.7235 111.653 19.4187 113.036C10.7853 118.232 4.75355 124.761 0.390625 133.884V130.338L0.398329 130.346ZM47.1803 72.9145H54.4454C55.6556 72.5368 55.7288 71.3536 56.3917 70.6097C59.4481 67.168 64.1001 65.1677 68.0968 68.4745C69.8505 69.9237 69.8813 71.5001 71.0954 73.2306C72.4868 72.1899 74.1286 72.3441 75.5238 73.2653C76.5067 69.6693 79.9947 66.6939 83.6793 66.1736C83.3324 63.3562 77.3199 65.4297 76.5953 64.4007C76.8034 62.6702 79.5476 62.1344 80.9891 62.2963C81.6597 62.3734 83.8065 63.6568 83.6677 62.4775C82.9817 56.7656 79.6324 51.7397 75.0074 48.4444C73.5197 52.1405 68.2857 52.9615 64.9056 51.6395C64.3737 52.2793 67.4686 54.4145 67.935 54.8346C68.6981 57.6906 64.1617 57.0778 62.3426 56.8581C60.0416 56.5806 57.5364 55.5939 55.5323 54.48C53.9675 56.569 52.0982 58.7736 49.3039 59.0858C49.9553 63.7763 48.4945 68.4206 47.1803 72.9107V72.9145ZM84.0377 67.9504C80.9659 67.696 77.2582 71.1609 76.9383 74.1479C76.6454 76.8959 79.8559 82.5114 82.8314 82.469L83.5521 81.968L84.0377 67.9504ZM62.6856 68.382C52.8112 69.8312 55.4128 86.0303 64.7399 82.8583C71.7506 80.4726 70.1781 67.2836 62.6856 68.382ZM87.1056 80.5921C90.2429 77.2929 91.0909 69.307 85.456 68.305L85.1014 81.7753C85.3096 82.0104 86.8898 80.8195 87.1056 80.5921ZM46.8565 74.3598C46.5597 75.3465 45.7118 78.584 44.2318 78.1986C42.5052 77.7477 42.9831 72.8375 39.1829 72.2324C32.3648 71.1455 31.6248 79.7056 34.6927 84.1649C37.0168 87.5411 40.0886 88.9402 43.9852 87.0979C44.2511 87.3947 43.7462 94.0084 43.6306 95.0722C43.3569 97.6429 41.8769 102.322 41.9193 104.303C42.0272 109.387 53.4356 117.819 56.0063 122.321L56.7386 122.545C58.9548 118.548 61.5448 114.443 61.2942 109.668C58.7235 107.856 56.3532 105.952 54.2719 103.571C53.1504 102.287 48.5793 96.1475 48.9493 94.733C49.4696 92.7327 52.1175 97.2035 52.6532 97.7431C66.2661 111.51 82.1183 101.836 83.2322 84.4154L80.1681 83.579C80.5188 86.3463 75.2618 89.2023 73.5736 87.4563C72.9454 86.805 73.3617 86.8936 73.9167 86.7317C75.4969 86.2615 77.3854 86.566 78.3181 84.7468C79.775 81.9102 77.4933 80.3646 76.1713 78.1215C74.8262 75.8437 75.2618 73.4965 71.3575 75.1268C70.1434 88.1115 53.8017 87.9034 54.615 74.3367C52.0519 74.938 49.435 74.7299 46.8527 74.3637L46.8565 74.3598ZM69.8621 123.963V118.112C69.8621 117.419 69.2107 114.543 68.9795 113.68C68.1315 110.516 66.3895 107.602 63.1327 106.592C63.1635 110.762 62.3079 115.249 60.4887 119.014C58.0028 124.16 57.0392 124.198 56.095 130.569C54.4955 141.365 53.6013 154.65 53.1966 165.6C53.1311 167.369 54.0985 170.148 54.7229 171.901C55.4821 174.036 56.9005 174.541 55.2856 177.262C54.8077 178.064 53.7979 178.577 53.4163 179.294C51.998 181.953 53.1889 190.659 53.2275 193.966C53.3238 202.873 53.1619 211.684 53.582 220.556C53.6244 221.489 53.2429 225.158 53.3739 225.362C53.767 225.991 55.0505 225.875 55.2817 225.12C57.494 217.681 59.2746 210.085 61.5448 202.669C62.0843 200.908 63.0209 196.857 64.0384 195.593C66.3856 192.679 76.9422 195.234 77.3276 193.569C76.472 173.686 81.6558 154.315 82.9855 134.601C83.4249 134.026 83.6253 134.608 83.6947 135.125C83.9491 137.106 83.8142 140.84 83.6908 142.926C83.0163 154.492 79.9677 166.382 79.089 178.029C78.7267 182.809 78.137 185.129 81.7329 188.856C88.3968 195.762 99.173 192.667 106.349 188.281C108.419 187.017 110.354 185.418 112.046 183.699C110.67 183.695 109.29 184.728 107.872 184.867C105.598 185.086 102.472 182.581 101.123 180.804C97.8318 176.468 98.4215 172.229 101.416 167.928C97.4656 167.928 93.993 170.221 90.9598 172.526L90.5936 171.458L94.3283 168.282C91.2527 167.804 88.7822 170.036 85.826 170.406C85.7528 169.519 86.8744 169.084 87.491 168.706C88.1077 168.328 91.2527 166.864 91.6728 166.864H97.5196C92.7134 151.147 94.7986 129.509 81.3822 117.951C79.247 116.112 75.0035 113.129 72.4868 111.957C72.1052 111.78 69.7966 110.655 70.0394 111.56C71.0299 115.237 71.7352 120.009 71.2958 123.793C71.2033 124.576 70.9875 125.674 70.0394 125.763C68.621 125.89 65.0521 121.115 63.8457 120.571C63.6723 120.494 61.3366 121.924 61.7259 120.602C62.1923 119.897 62.94 118.413 63.9536 118.683L69.8698 123.963H69.8621ZM126.21 138.146L127.482 128.908C127.062 128.334 120.49 128.345 119.13 127.686C117.083 126.696 121.076 123.516 119.442 120.988C118.567 119.635 114.127 119.165 113.129 120.625C111.121 123.558 116.895 127.625 109.383 127.15C108.08 127.07 102.815 125.62 102.272 126.43C102.006 126.823 100.904 133.822 101.208 134.269C102.993 135.09 104.199 133.348 106.388 134.053C111.075 135.56 107.845 143.608 103.744 143.103C102.314 142.926 101.173 141.153 99.6741 142.089C100.584 145.373 98.5602 148.086 99.0805 151.289L110.107 152.954C110.662 152.842 110.674 151.085 111.318 150.368C112.007 149.601 112.971 149.709 113.449 149.308C113.973 148.869 113.923 147.755 114.497 147.165C116.378 145.227 122.691 148.591 124.796 149.489L125.358 145.573C124.757 144.756 121.15 145.936 119.3 144.178C117.823 142.779 118.147 139.11 119.646 137.78C122.294 135.433 125.59 138.686 126.214 138.146H126.21ZM103.648 167.692C101.944 169.203 100.252 173.223 100.36 175.497C100.437 177.093 102.48 180.589 103.894 181.232C104.758 181.625 109.04 179.224 110.146 178.623C117.881 174.395 138.632 159.764 124.676 151.204C123.316 150.368 116.274 146.992 115.26 148.464C115.01 148.83 115.276 149.659 115.557 150.048C116.212 150.954 121.974 153.848 123.547 155.17C123.986 155.54 126.071 157.371 125.501 157.995C122.055 156.55 117.658 151.952 114.162 151.054C112.385 150.599 111.634 152.095 112.3 153.648C112.863 154.958 115.203 155.521 116.401 156.292C118.841 157.86 121.647 159.645 123.027 162.247C122.468 162.69 115.996 157.548 114.759 156.87C113.06 155.941 109.155 153.528 108.3 156.203C107.444 158.878 110.527 158.793 112.281 159.703C113.661 160.416 119.855 164.582 119.828 165.974C119.816 166.602 119.361 166.37 118.941 166.162C117.661 165.53 116.197 163.742 114.84 162.813C113.403 161.826 106.777 157.995 106.353 161.387C105.914 164.887 114.32 165.704 114.516 169.338C109.911 167.288 107.61 163.21 104.769 170.047C103.621 170.61 104.839 167.534 104.592 167.215C104.295 167.326 103.871 167.492 103.652 167.689L103.648 167.692ZM34.0028 164.817C31.9948 164.856 27.3698 165.203 26.3446 167.118C24.7952 170.02 28.1175 171.419 30.3337 172.19C35.4597 173.975 46.2206 175.412 51.1732 173.162C55.9369 170.995 50.1017 167.854 47.6312 166.941C44.1123 165.638 37.7453 164.74 34.0028 164.817ZM24.1477 169.697C22.9414 173.354 24.8338 174.491 27.8593 175.732C33.5558 178.068 43.777 179.085 49.8358 178.203C51.6627 177.937 53.9559 177.752 54.2565 175.52C54.7075 172.159 52.5067 174.484 50.9188 175.035C45.7234 176.835 30.5302 175.37 26.0941 171.828C25.277 171.173 24.961 170.255 24.1477 169.7V169.697ZM51.786 179.629C42.8251 180.627 33.602 179.798 25.2115 176.434C24.9571 177.999 24.2094 180.623 25.7819 181.71C28.873 183.849 38.2617 183.294 41.3489 186.701C42.9946 188.517 41.8769 189.761 41.9232 191.515C41.9463 192.429 42.6439 193.126 42.563 194.298C42.4281 196.221 40.5241 197.304 40.447 197.609C40.1811 198.614 40.7245 199.829 40.1811 201.166C39.8188 202.064 38.493 202.688 38.1615 203.401C37.6759 204.438 38.2155 205.205 37.0322 206.173C35.0242 207.818 29.347 208.242 26.8071 207.992C25.3156 207.845 23.851 207.013 22.3748 207.105C26.1827 210.929 40.4008 212.501 44.0121 208.901C44.4862 208.431 44.756 207.949 44.8832 207.294L51.786 179.637V179.629ZM35.6602 204.087C33.7832 204.164 31.8715 204.087 29.9907 204.087C28.5415 204.087 23.8394 202.496 22.2785 201.879C21.5963 201.609 20.282 201.154 19.8927 200.545C24.2826 201.197 34.211 204.245 37.9572 201.42C38.782 200.8 39.5028 199.551 38.5122 198.73C38.2232 198.491 32.2184 198.861 31.0428 198.784C29.031 198.649 22.4211 197.531 20.9719 196.448C20.5518 196.136 20.1317 195.836 20.2512 195.227C25.3348 196.263 30.7268 197.867 35.9762 197.308C38.8745 197 41.2333 196.159 40.8016 192.745C35.8374 193.442 26.5142 192.752 22.0202 190.44C21.4691 190.158 20.8216 190 20.9603 189.199C26.1481 189.943 32.5961 192.174 37.8108 191.696C41.8191 191.33 41.6765 188.343 38.4236 186.794C35.3287 185.321 25.4273 184.238 23.9859 182.446C23.6004 181.968 23.1379 180.35 22.8643 180.303C21.2956 180.511 19.7463 181.336 18.8251 182.635C18.1468 183.595 18.0543 184.643 17.4839 185.549C15.1482 189.237 12.3964 191.789 13.2443 196.734C13.6682 199.208 18.4705 203.398 20.7175 204.504C23.9088 206.072 27.8786 206.535 31.4051 206.207C32.6231 206.095 35.9145 205.591 36.1997 204.265C36.4271 203.205 35.7218 204.084 35.664 204.084L35.6602 204.087ZM14.9286 202.311C11.163 198.869 10.3806 195.123 12.3848 190.374C13.6066 187.48 16.6398 185.572 16.6976 182.462C15.341 183.082 13.9342 182.651 12.5081 183.055C9.11262 184.023 6.02543 190.004 5.71709 193.276C5.11584 199.686 9.10105 202.029 14.9247 202.311H14.9286ZM14.3967 225.713C26.7956 225.559 39.206 225.829 51.6087 225.713L51.2541 187.422C49.2538 193.735 48.6217 201.601 46.3709 207.714C45.2763 210.69 43.1372 211.58 40.1772 212.15C32.0257 213.727 24.1169 210.593 16.821 207.379L7.84459 209.055C8.14522 212.243 5.825 217.947 6.58813 220.761C7.07761 222.568 11.3596 225.705 13.0708 226.018C13.8494 226.16 14.1963 225.713 14.3928 225.713H14.3967ZM78.7189 188.135V193.808H86.1613L82.4421 191.681L78.7189 188.135ZM123.019 198.414C123.069 196.903 124.942 194.29 122.51 194.144L67.1988 195.924C66.4087 195.936 64.8131 196.533 65.4336 197.346C67.935 195.446 72.4867 196.414 75.7281 196.298C91.1641 195.747 106.639 194.768 122.159 194.494C124.129 194.529 122.992 196.032 122.761 197.262C122.691 197.628 122.394 198.499 123.023 198.41L123.019 198.414ZM113.803 228.901L115.576 221.813L113.534 227.744L113.803 228.901ZM41.5069 241.315C38.6009 241.249 18.2509 236.528 17.4068 237.414C17.3451 238.258 17.2989 239.01 18.2624 239.218C23.5234 240.101 29.401 242.14 34.6426 242.691C35.0358 242.733 35.9222 243.011 35.8374 242.382L18.5553 238.952L17.7652 237.773C18.671 237.102 37.0631 241.307 39.9614 241.627C40.3545 241.669 41.5686 241.974 41.5108 241.319L41.5069 241.315ZM108.843 240.251L52.4913 245.211C52.2986 243.978 52.9345 242.883 53.1157 241.754C53.1773 241.377 53.4895 240.521 52.8536 240.606L51.7898 245.921L101.936 241.311L108.847 240.251H108.843Z" fill="black"/>
<path d="M0.398438 133.891C4.76136 124.768 10.7931 118.235 19.4265 113.043C21.7313 111.656 29.536 107.289 31.7637 106.946C32.4767 106.834 32.2339 107.004 32.2956 107.474C32.4073 108.326 32.2455 109.255 32.3919 110.222C33.051 114.616 35.3866 120.941 37.7762 124.691C38.2271 125.396 38.6203 126.302 39.553 126.448C41.2064 126.487 45.1299 121.754 46.8142 121.272C47.6968 121.021 48.3675 122.062 49.304 121.842C49.9939 121.141 47.5157 119.148 46.7371 119.414L39.3911 124.679C37.1904 120.112 31.8215 109.825 34.4693 105.054C35.6179 102.984 38.8322 102.252 40.6244 100.93C40.7169 102.398 40.2274 103.836 40.4703 105.339C41.4222 111.263 52.715 119.025 55.6596 124.475L53.5629 139.394L51.7861 167.221C48.5448 165.21 44.3784 164.196 40.582 163.722C36.7857 163.248 28.4183 162.55 25.7242 165.433C25.0227 166.185 24.8609 167.16 24.3136 167.923C23.7933 168.644 23.0571 168.59 22.5522 169.7C21.0529 172.995 23.6853 174.059 23.7624 175.539C23.8087 176.421 22.9068 177.832 23.061 178.896C21.8045 178.873 20.6251 179.196 19.5228 179.79C17.8039 180.719 15.5916 183.999 16.0387 178.788C16.9868 167.773 24.0245 159.374 24.8532 148.251C25.5238 139.229 23.6083 127.308 14.4045 123.257C13.8418 123.581 14.4854 124.062 14.7437 124.336C16.8326 126.533 18.2625 127.084 19.9545 130.113C26.3678 141.607 23.1034 154.846 17.8309 166.046C17.2103 167.36 12.593 176.271 11.9147 176.441C11.2364 176.61 9.20907 172.482 8.5423 171.665C6.4148 169.048 3.81709 167.68 0.398438 167.58V133.902V133.891Z" fill="#C4DEF8"/>
<path d="M0.398438 175.014C5.38188 174.683 11.298 177.138 14.2233 181.216C6.62678 181.828 1.30032 194.331 5.88293 200.193L8.90074 202.664C5.91761 202.518 2.97688 201.62 0.398438 200.186V175.014Z" fill="#C4DEF8"/>
<path d="M0.398438 169.341C4.15625 168.964 7.01991 171.719 8.55387 174.834C5.94074 173.824 3.21584 173.388 0.398438 173.596V169.341Z" fill="#C4DEF8"/>
<path d="M104.946 113.326C103.574 113.607 103.251 112.077 102.761 111.087C102.021 109.587 97.6351 99.1039 98.2171 98.441C98.9147 98.3022 99.0611 98.7647 99.3502 99.2542C100.919 101.933 103.64 108.674 104.607 111.719C104.777 112.247 105.031 112.744 104.946 113.326Z" fill="black"/>
<path d="M119.832 96.6627C119.404 101.322 119.327 106.799 118.402 111.366C118.275 111.991 118.067 112.372 117.354 112.264C117.481 107.805 117.566 102.687 118.471 98.3123C118.71 97.1637 118.494 96.3698 119.832 96.6627Z" fill="black"/>
<path d="M130.819 115.453C130.349 114.94 132.554 112.269 132.955 111.741C133.66 110.816 138.57 105.058 139.141 105.174C139.391 105.224 139.958 105.921 139.507 106.241C136.944 108.877 134.897 112.408 132.057 114.744C131.656 115.071 131.486 115.603 130.816 115.449L130.819 115.453Z" fill="black"/>
<path d="M95.3763 121.479C94.8753 122.015 88.9399 116.969 88.2846 116.345C87.8144 115.898 85.209 113.628 85.8103 112.973C86.8663 113.065 87.7875 113.986 88.6084 114.603C90.073 115.705 92.3123 117.551 93.6111 118.816C94.3588 119.544 95.5305 120.319 95.3763 121.479Z" fill="black"/>
<path d="M147.12 120.067C147.093 120.483 147.305 120.826 146.9 121.154C146.519 121.462 143.979 122.379 143.212 122.711C141.528 123.443 138.795 124.703 137.122 125.135C135.45 125.567 135.353 124.665 136.833 123.775C137.908 123.131 146.642 119.577 147.12 120.063V120.067Z" fill="black"/>
<path d="M69.8625 123.963L63.9464 118.682C62.9327 118.413 62.185 119.896 61.7187 120.602C61.3294 121.924 63.665 120.494 63.8384 120.571C65.0448 121.114 68.6099 125.89 70.0321 125.762C70.9802 125.678 71.1999 124.579 71.2886 123.793C71.7279 120.008 71.0226 115.233 70.0321 111.56C69.7854 110.65 72.0941 111.776 72.4795 111.957C74.9963 113.128 79.2397 116.112 81.3749 117.95C94.7874 129.509 92.7023 151.146 97.5123 166.863H91.6656C91.2455 166.863 88.0812 168.343 87.4838 168.706C86.8864 169.068 85.7456 169.519 85.8188 170.405C88.7749 170.035 91.2455 167.808 94.3211 168.282L90.5864 171.458L90.9525 172.525C93.9896 170.22 97.4584 167.927 101.409 167.927C98.4104 172.228 97.8207 176.468 101.116 180.804C102.465 182.581 105.591 185.086 107.865 184.866C109.283 184.731 110.663 183.694 112.039 183.698C110.347 185.417 108.412 187.017 106.342 188.281C99.1658 192.663 88.3895 195.762 81.7256 188.855C78.1336 185.132 78.7233 182.812 79.0817 178.029C79.9604 166.382 83.0091 154.491 83.6836 142.925C83.8069 140.836 83.9418 137.101 83.6874 135.124C83.6219 134.608 83.4176 134.026 82.9783 134.6C81.6486 154.31 76.4647 173.681 77.3203 193.569C76.9311 195.234 66.3745 192.675 64.0312 195.592C63.0137 196.857 62.0771 200.911 61.5375 202.669C59.2674 210.088 57.4868 217.681 55.2745 225.119C55.0432 225.875 53.7598 225.986 53.3667 225.362C53.2395 225.158 53.621 221.489 53.5748 220.556C53.1547 211.684 53.3166 202.873 53.2202 193.966C53.1855 190.659 51.9907 181.956 53.4091 179.293C53.7906 178.58 54.8004 178.064 55.2783 177.262C56.8971 174.545 55.4749 174.036 54.7156 171.901C54.0913 170.143 53.1239 167.368 53.1894 165.599C53.5941 154.649 54.4882 141.364 56.0877 130.569C57.032 124.194 57.9955 124.159 60.4815 119.014C62.3006 115.248 63.1563 110.762 63.1254 106.592C66.3822 107.602 68.1243 110.515 68.9722 113.68C69.2035 114.543 69.8548 117.422 69.8548 118.112V123.963H69.8625ZM60.204 139.476L60.4699 136.728C58.4272 134.392 56.1301 138.982 58.8627 139.772L60.204 139.476ZM58.7895 159.336C59.3561 158.457 59.5796 156.577 58.5236 156.041L57.3557 155.921C55.3631 156.472 56.5502 160.662 58.7895 159.336ZM58.4734 181.089C57.7219 180.893 56.5887 180.993 56.2149 181.748C55.2244 186.581 60.389 185.386 58.4734 181.089ZM56.6427 202.719C55.0085 203.177 55.3708 206.773 57.56 206.16C59.2212 205.698 58.6777 202.144 56.6427 202.719Z" fill="#C4DEF8"/>
<path d="M46.8557 74.3586C49.4419 74.7248 52.055 74.9329 54.6181 74.3316C53.8048 87.8983 70.1465 88.1065 71.3606 75.1218C75.2649 73.4914 74.8293 75.8386 76.1744 78.1164C77.4964 80.3596 79.7781 81.9051 78.3212 84.7418C77.3885 86.5571 75.4999 86.2565 73.9197 86.7267C73.3647 86.8924 72.9485 86.8037 73.5767 87.4512C75.2649 89.201 80.5219 86.3451 80.1712 83.574L83.2353 84.4103C82.1214 101.831 66.2692 111.505 52.6563 97.738C52.1205 97.1984 49.4766 92.7276 48.9524 94.7279C48.5824 96.1424 53.1535 102.282 54.275 103.566C56.3563 105.947 58.7266 107.851 61.2973 109.663C61.5478 114.438 58.9579 118.547 56.7417 122.54L56.0094 122.316C53.4387 117.814 42.0303 109.378 41.9224 104.298C41.88 102.317 43.36 97.6378 43.6336 95.0671C43.7493 94.0033 44.2542 87.3934 43.9882 87.0928C40.0917 88.9351 37.016 87.536 34.6958 84.1598C31.6279 79.7005 32.3679 71.1404 39.1859 72.2273C42.9862 72.8324 42.5044 77.7464 44.2349 78.1935C45.7149 78.5789 46.5628 75.3414 46.8596 74.3548L46.8557 74.3586ZM35.4821 77.519C36.8542 77.1413 39.3208 78.182 39.5829 79.6273C39.6947 80.2517 37.6867 82.2404 40.4308 82.699C42.6123 83.0652 40.9434 79.2419 40.242 78.2513C39.1127 76.6596 36.727 75.3684 35.4821 77.5152V77.519ZM62.0643 89.9295C60.407 91.3285 65.9146 93.7258 67.0169 94.011C68.389 94.3695 75.789 95.2675 75.8777 93.2942C75.9085 92.5657 74.8024 92.9974 74.5441 93.009C72.089 93.1169 70.1427 93.2595 67.7261 92.5889C66.6392 92.2882 62.3033 89.7213 62.0643 89.9256V89.9295Z" fill="#FCF7ED"/>
<path d="M14.3971 225.713C14.2005 225.713 13.8537 226.16 13.0751 226.018C11.3639 225.705 7.08189 222.568 6.59241 220.76C5.82928 217.947 8.1495 212.243 7.84887 209.055L16.8252 207.379C24.125 210.593 32.0299 213.727 40.1815 212.15C43.1454 211.576 45.2806 210.689 46.3752 207.714C48.626 201.605 49.2581 193.735 51.2584 187.422L51.613 225.713C39.2103 225.829 26.7998 225.559 14.401 225.713H14.3971Z" fill="#C4DEF8"/>
<path d="M126.211 138.146C125.586 138.686 122.291 135.429 119.643 137.78C118.144 139.11 117.82 142.783 119.296 144.178C121.146 145.932 124.754 144.756 125.355 145.573L124.792 149.489C122.688 148.591 116.371 145.222 114.494 147.165C113.92 147.755 113.97 148.868 113.446 149.308C112.968 149.709 112.004 149.601 111.314 150.368C110.671 151.085 110.659 152.846 110.104 152.954L99.0773 151.289C98.557 148.082 100.577 145.373 99.6708 142.089C101.17 141.152 102.311 142.925 103.741 143.103C107.846 143.608 111.075 135.56 106.385 134.053C104.196 133.348 102.989 135.09 101.205 134.269C100.9 133.826 102.003 126.823 102.269 126.43C102.812 125.624 108.077 127.069 109.38 127.15C116.891 127.624 111.118 123.558 113.126 120.625C114.128 119.164 118.564 119.635 119.439 120.987C121.073 123.516 117.08 126.695 119.127 127.686C120.491 128.345 127.062 128.333 127.479 128.908L126.207 138.146H126.211Z" fill="white"/>
<path d="M47.1797 72.9135C48.4901 68.4234 49.9547 63.7792 49.3033 59.0886C52.0976 58.7764 53.9669 56.5718 55.5317 54.4829C57.532 55.5967 60.0411 56.5834 62.342 56.8609C64.1612 57.0806 68.6975 57.6896 67.9344 54.8375C67.468 54.4174 64.3732 52.2822 64.905 51.6424C68.2851 52.9643 73.5191 52.1434 75.0068 48.4473C79.6357 51.7426 82.9811 56.7684 83.6671 62.4803C83.8097 63.6597 81.663 62.3762 80.9885 62.2992C79.547 62.1373 76.8067 62.6692 76.5947 64.4035C77.3232 65.4326 83.3357 63.3591 83.6787 66.1765C79.9941 66.6968 76.5022 69.6722 75.5233 73.2681C74.1281 72.347 72.4823 72.189 71.0948 73.2334C69.8808 71.5029 69.8461 69.9266 68.0963 68.4774C64.0995 65.1705 59.4475 67.1708 56.3912 70.6126C55.7282 71.3565 55.6512 72.5397 54.4448 72.9174H47.1797V72.9135ZM65.9264 64.3727C66.0613 64.1684 66.0112 63.4824 65.9071 63.2242C64.9359 60.8076 55.4084 63.0661 54.6452 65.9529L55.5008 66.7854C57.2892 66.0801 59.3704 65.1551 61.2667 64.8506C62.1801 64.7042 65.5718 64.9046 65.9264 64.3727Z" fill="#FCF7ED"/>
<path d="M103.648 167.691C103.871 167.494 104.295 167.325 104.588 167.217C104.831 167.537 103.617 170.612 104.766 170.05C107.61 163.212 109.911 167.29 114.513 169.341C114.316 165.706 105.91 164.889 106.35 161.389C106.774 158.002 113.399 161.833 114.837 162.815C116.193 163.744 117.658 165.533 118.937 166.165C119.358 166.373 119.808 166.604 119.824 165.976C119.851 164.585 113.657 160.418 112.277 159.705C110.524 158.796 107.41 158.981 108.296 156.206C109.183 153.431 113.056 155.944 114.756 156.872C115.993 157.547 122.464 162.688 123.023 162.249C121.643 159.651 118.837 157.863 116.398 156.294C115.199 155.523 112.859 154.961 112.297 153.65C111.63 152.097 112.385 150.598 114.158 151.056C117.654 151.954 122.052 156.549 125.497 157.998C126.068 157.37 123.983 155.539 123.543 155.173C121.971 153.851 116.209 150.956 115.553 150.05C115.268 149.657 115.006 148.829 115.257 148.466C116.274 146.994 123.312 150.374 124.672 151.207C138.628 159.767 117.878 174.397 110.142 178.625C109.04 179.227 104.754 181.628 103.891 181.235C102.476 180.591 100.43 177.095 100.356 175.5C100.249 173.226 101.941 169.206 103.644 167.695L103.648 167.691Z" fill="#FCF7ED"/>
<path d="M35.6608 204.087C35.7186 204.087 36.4278 203.208 36.1965 204.268C35.9113 205.594 32.616 206.095 31.4019 206.211C27.8715 206.538 23.9017 206.076 20.7143 204.507C18.4673 203.401 13.665 199.211 13.2411 196.737C12.3932 191.788 15.145 189.241 17.4807 185.552C18.0549 184.646 18.1436 183.602 18.8219 182.638C19.7392 181.34 21.2886 180.515 22.8611 180.307C23.1347 180.349 23.5972 181.968 23.9827 182.45C25.4203 184.238 35.3255 185.321 38.4204 186.797C41.6733 188.346 41.8159 191.333 37.8076 191.7C32.5929 192.177 26.1448 189.942 20.9571 189.202C20.8222 190.004 21.4659 190.158 22.017 190.443C26.5148 192.756 35.8381 193.446 40.7984 192.748C41.2301 196.163 38.8713 197.003 35.973 197.311C30.7236 197.87 25.3278 196.267 20.248 195.23C20.1285 195.839 20.5524 196.14 20.9687 196.452C22.4179 197.535 29.0278 198.653 31.0396 198.787C32.219 198.864 38.2238 198.494 38.509 198.733C39.5034 199.554 38.7788 200.803 37.954 201.424C34.2078 204.253 24.2833 201.2 19.8895 200.549C20.2788 201.158 21.5931 201.609 22.2753 201.882C23.8362 202.503 28.5383 204.091 29.9875 204.091C31.8683 204.091 33.78 204.168 35.6569 204.091L35.6608 204.087Z" fill="#FCF7ED"/>
<path d="M51.7862 179.629L44.8834 207.286C44.7523 207.945 44.4825 208.423 44.0123 208.893C40.401 212.497 26.1829 210.921 22.375 207.097C23.8511 207.005 25.3157 207.837 26.8073 207.984C29.3472 208.234 35.0244 207.81 37.0324 206.165C38.2156 205.197 37.6761 204.43 38.1617 203.393C38.4931 202.684 39.819 202.056 40.1813 201.158C40.7208 199.821 40.1813 198.61 40.4472 197.601C40.5281 197.3 42.4282 196.213 42.5631 194.29C42.6441 193.118 41.9465 192.421 41.9234 191.507C41.8771 189.754 42.9948 188.509 41.3491 186.693C38.2619 183.286 28.8731 183.841 25.7821 181.702C24.2096 180.615 24.9534 177.991 25.2117 176.426C33.6022 179.787 42.8252 180.615 51.7862 179.621V179.629Z" fill="white"/>
<path d="M62.6853 68.3812C70.1778 67.2828 71.7465 80.4718 64.7396 82.8575C55.4164 86.0295 52.8148 69.8304 62.6853 68.3812ZM63.0206 74.3938C61.4019 74.8755 61.768 78.7952 63.6411 78.6025C66.0192 77.9165 65.7455 73.5844 63.0206 74.3938Z" fill="#FCF7ED"/>
<path d="M14.9277 202.31C9.10404 202.029 5.11882 199.685 5.72007 193.276C6.0284 190.004 9.11559 184.022 12.5111 183.054C13.9333 182.65 15.3401 183.081 16.7006 182.461C16.6467 185.571 13.6096 187.479 12.3878 190.374C10.3836 195.122 11.166 198.868 14.9315 202.31H14.9277Z" fill="#C4DEF8"/>
<path d="M34.0038 164.817C37.7462 164.74 44.1094 165.642 47.6321 166.941C50.1027 167.854 55.9417 170.999 51.1741 173.161C46.2177 175.412 35.4607 173.975 30.3346 172.19C28.1223 171.419 24.8 170.02 26.3455 167.118C27.3669 165.203 31.9958 164.856 34.0038 164.817ZM29.7102 166.228C28.0221 166.605 27.6136 167.796 28.9201 168.995C31.4138 171.288 41.1186 172.691 44.518 172.525C46.6108 172.421 52.7736 171.123 48.719 168.687C45.4931 166.748 33.2908 165.422 29.7102 166.228Z" fill="white"/>
<path d="M24.1472 169.695C24.9604 170.25 25.2764 171.168 26.0935 171.823C30.5297 175.369 45.7228 176.829 50.9182 175.029C52.5062 174.478 54.7069 172.154 54.256 175.515C53.9553 177.747 51.6621 177.932 49.8352 178.198C43.7765 179.08 33.559 178.063 27.8587 175.727C24.8371 174.49 22.9408 173.349 24.1472 169.691V169.695Z" fill="white"/>
<path d="M84.038 67.9507L83.5524 81.9683L82.8316 82.4694C79.8524 82.5118 76.6457 76.8963 76.9386 74.1482C77.2546 71.1613 80.9662 67.6963 84.038 67.9507ZM79.4746 77.829C82.1918 78.5266 83.2594 74.8805 81.3208 73.3157C78.4726 72.861 78.434 75.925 79.4746 77.829Z" fill="#FCF7ED"/>
<path d="M87.1057 80.5918C86.8899 80.8192 85.3135 82.0101 85.1016 81.775L85.4562 68.3047C91.091 69.3068 90.243 77.2926 87.1057 80.5918Z" fill="#FCF7ED"/>
<path d="M123.019 198.413C122.387 198.502 122.687 197.634 122.757 197.264C122.988 196.035 124.125 194.532 122.156 194.497C106.635 194.771 91.1641 195.754 75.7243 196.301C72.483 196.417 67.9312 195.445 65.4298 197.349C64.8131 196.536 66.4049 195.935 67.195 195.927L122.506 194.146C124.938 194.293 123.065 196.902 123.015 198.417L123.019 198.413Z" fill="white"/>
<path d="M108.844 240.25L101.934 241.31L51.7871 245.919L52.8509 240.605C53.4868 240.52 53.1746 241.375 53.1129 241.753C52.9318 242.882 52.2959 243.977 52.4886 245.21L108.84 240.25H108.844Z" fill="white"/>
<path d="M41.5075 241.314C41.5653 241.969 40.3512 241.665 39.9581 241.622C37.0598 241.302 18.6715 237.097 17.762 237.768L18.5521 238.947L35.8342 242.378C35.9189 243.006 35.0325 242.728 34.6394 242.686C29.4015 242.135 23.5239 240.096 18.2591 239.213C17.2917 239.005 17.3418 238.258 17.4035 237.41C18.2476 236.523 38.5976 241.245 41.5036 241.31L41.5075 241.314Z" fill="white"/>
<path d="M113.805 228.9L113.535 227.748L115.578 221.812L113.805 228.9Z" fill="white"/>
<path d="M58.472 181.089C60.3876 185.387 55.223 186.582 56.2135 181.748C56.5873 180.993 57.7243 180.893 58.472 181.089Z" fill="black"/>
<path d="M60.2035 139.475L58.8622 139.772C56.1296 138.982 58.4228 134.395 60.4694 136.727L60.2035 139.475Z" fill="black"/>
<path d="M58.7888 159.335C56.5495 160.661 55.3624 156.471 57.355 155.92L58.5228 156.039C59.5789 156.575 59.3553 158.456 58.7888 159.335Z" fill="black"/>
<path d="M56.6421 202.719C58.6771 202.145 59.2205 205.698 57.5594 206.161C55.3702 206.77 55.0079 203.177 56.6421 202.719Z" fill="black"/>
<path d="M62.0644 89.9311C62.3033 89.7307 66.6393 92.2937 67.7262 92.5943C70.1427 93.2649 72.0891 93.1223 74.5442 93.0144C74.8024 93.0029 75.9085 92.5712 75.8777 93.2996C75.7891 95.273 68.3891 94.3749 67.017 94.0165C65.9147 93.7274 60.4071 91.334 62.0644 89.9349V89.9311Z" fill="black"/>
<path d="M35.4824 77.5189C36.7312 75.3721 39.1131 76.6633 40.2423 78.255C40.9438 79.2456 42.6126 83.0689 40.4312 82.7028C37.687 82.2441 39.695 80.2553 39.5833 79.631C39.3212 78.1818 36.8507 77.145 35.4824 77.5227V77.5189Z" fill="black"/>
<path d="M65.9276 64.3717C65.5769 64.9075 62.1814 64.7032 61.2679 64.8496C59.3678 65.1541 57.2904 66.0791 55.5021 66.7844L54.6465 65.9519C55.4096 63.0652 64.9371 60.8066 65.9084 63.2232C66.0124 63.4814 66.0625 64.1675 65.9276 64.3717Z" fill="black"/>
<path d="M63.0216 74.3933C65.7465 73.5839 66.0201 77.916 63.6421 78.6021C61.769 78.7909 61.4067 74.8751 63.0216 74.3933Z" fill="black"/>
<path d="M29.7091 166.226C33.2896 165.421 45.4919 166.746 48.7179 168.685C52.7686 171.125 46.6096 172.424 44.5168 172.524C41.1174 172.69 31.4165 171.287 28.919 168.993C27.6124 167.795 28.021 166.604 29.7091 166.226ZM38.8512 167.567C36.0916 167.301 32.9697 167.764 30.1677 167.567C30.002 168.392 30.2564 168.138 30.6225 168.365C31.7865 169.101 37.5523 170.759 38.8512 170.759H47.0028C47.0529 170.759 47.7967 170.396 47.8854 170.227C47.4537 169.325 40.1423 167.691 38.8512 167.567Z" fill="black"/>
<path d="M79.4738 77.8275C78.4332 75.9235 78.4718 72.8634 81.32 73.3143C83.2586 74.8752 82.191 78.5251 79.4738 77.8275Z" fill="black"/>
<path d="M38.8508 167.567C40.1458 167.691 47.4533 169.325 47.885 170.227C47.7925 170.392 47.0525 170.758 47.0024 170.758H38.8508C37.552 170.758 31.7861 169.101 30.6222 168.365C30.256 168.134 30.0055 168.388 30.1674 167.567C32.9693 167.764 36.0912 167.301 38.8508 167.567Z" fill="white"/>
<path d="M171.072 41.2169C172.895 43.5217 174.171 49.5188 174.171 49.5188L175.697 49.4379C175.697 49.4379 175.431 47.8847 175.284 47.3798C174.741 45.4989 172.479 40.0723 172.479 40.0723C172.479 40.0723 170.725 40.7853 171.068 41.2169H171.072Z" fill="black"/>
<path d="M65.1563 197.385L52.8537 240.602L51.9981 244.864C51.8941 245.388 52.3219 245.866 52.8537 245.82L108.138 240.914C109.383 240.802 110.439 239.946 110.801 238.748L123.015 198.406L123.219 195.774C123.478 194.953 122.849 194.124 121.99 194.151L67.1913 195.916C66.2547 195.87 65.4106 196.475 65.1524 197.377L65.1563 197.385Z" fill="white"/>
</svg>
