<svg width="51" height="78" viewBox="0 0 51 78" fill="none" xmlns="http://www.w3.org/2000/svg">
<g clip-path="url(#clip0_2414_66077)">
<path d="M30.6342 30.2262C30.5873 30.4195 30.8861 30.5601 31.0208 30.6421C33.4286 32.1946 36.973 32.5344 38.9942 34.9363C41.3903 37.7777 42.5268 46.3486 43.5696 50.2386C44.1613 52.4414 45.1807 54.8433 45.3564 57.1047C45.6552 60.9361 44.1027 65.1191 42.1402 68.3236C40.617 84.616 38.8946 100.902 37.1663 117.183L37.0433 117.441C36.1352 117.951 35.0397 117.986 34.0496 118.255C34.0496 118.448 34.8112 118.97 35.0104 119.105C35.772 119.608 36.7972 120.089 37.6291 120.481C39.1289 121.184 42.7612 122.274 43.7044 123.346C44.6476 124.418 44.4484 125.736 43.0131 126.082C40.9685 126.574 37.9748 126.059 35.8951 125.83C33.3232 125.555 30.353 125.408 27.8514 124.934C27.371 124.846 26.2462 124.594 26.0822 124.037C25.8068 123.082 26.5684 120.399 26.9141 119.398C27.0137 119.116 27.5936 118.003 27.4765 117.839C26.7266 117.617 25.9767 117.359 25.344 116.878C25.2444 116.709 25.2795 114.125 25.2913 113.691C25.5842 104.816 26.2931 95.9345 26.7266 87.0707L26.627 86.2563C23.9965 96.6902 21.3075 107.107 18.806 117.57C18.349 118.495 15.2265 118.847 14.2657 118.782C14.1895 119.286 14.3535 119.772 14.3653 120.253C14.4121 121.923 14.5234 124.354 14.3653 125.971C14.1544 128.173 9.9773 128.455 8.33108 128.191C5.51316 127.74 4.92146 126.012 6.00527 123.504C6.81374 121.63 7.96784 119.772 8.94034 117.974C8.40722 117.722 6.59696 117.33 6.57939 116.65C7.72764 107.839 9.35045 99.0922 10.5456 90.2869C11.5122 83.1455 12.1156 75.9513 13.1057 68.8157C13.0764 68.6576 11.8403 67.8725 11.6059 67.6675C9.57306 65.9041 6.01699 60.2917 5.54832 57.6495C5.00934 54.6032 6.31576 50.4261 7.16523 47.4324C8.01471 44.4388 10.0417 37.6254 11.9399 35.3699C14.0782 32.8273 18.0209 31.4213 21.0205 30.1852C18.6654 29.7809 17.0719 28.6268 16.7438 26.1428C16.4509 26.3127 16.527 27.0157 16.568 27.3204C16.6442 27.9238 17.0016 28.3632 17.2242 28.9022C16.1228 28.8494 15.1679 27.8418 14.8925 26.8165C14.3125 24.6665 15.6893 21.3682 16.2458 19.224C17.5523 14.1916 17.8159 9.57514 23.5982 7.7473C27.6054 6.48188 34.0907 8.6788 35.151 13.1136C35.4088 14.1975 35.0514 15.2403 35.1979 16.0136C35.3033 16.576 36.0064 16.9978 36.0122 18.0289C36.0181 19.06 35.2331 19.3295 35.1159 19.8391C34.9401 20.63 35.2506 22.5399 35.4264 23.3894C35.7369 24.9301 36.891 27.1681 35.7486 28.5565C35.1335 29.3064 33.1474 30.2379 32.1984 30.2379H30.6283L30.6342 30.2262ZM34.1551 15.1992C33.4404 13.1195 32.4093 10.9284 30.4467 9.78019C30.1011 11.6022 28.8356 13.2191 27.2421 14.1389C25.8244 14.9532 23.7212 15.1758 23.317 17.1032L25.3088 17.4841C25.6193 14.4552 29.8257 14.1506 30.3647 17.1911L30.8626 17.2087C31.3137 15.6621 32.6202 15.0645 34.161 15.2051L34.1551 15.1992ZM27.2831 15.6035C25.3967 15.9491 25.0921 20.0442 27.6054 19.9973C30.5522 19.9387 30.8041 14.9649 27.2831 15.6035ZM29.6851 27.3731H27.8338C27.5526 27.3731 25.2034 26.4065 25.6018 26.0432C26.2989 26.0432 26.9902 26.7052 27.6522 26.7931C28.7185 26.9396 30.435 26.8576 31.4016 26.3772C33.7567 25.2113 34.1785 22.7039 34.4422 20.3312C34.0028 20.2727 33.4814 20.5304 33.1123 20.1907C33.3818 19.8391 34.3074 19.9505 34.489 19.5697C34.6706 19.1889 34.7175 16.5233 34.5886 16.1425C34.3953 15.5449 33.2939 15.6445 32.8018 15.7968C32.0402 16.0312 31.2493 16.8748 31.3958 17.7125C31.4544 18.0582 32.0109 19.0424 32.1574 19.5228C32.2745 19.9094 32.6143 20.7706 32.2453 21.046C32.0461 21.1924 30.5814 21.6201 30.4408 21.4795C30.3354 20.8468 31.8176 20.9698 31.8703 20.4836C31.8879 20.343 31.138 18.1519 31.0208 17.9117C30.9798 17.8238 30.974 17.7242 30.8626 17.6891C30.3647 17.5192 30.2124 18.7202 29.9546 19.142C28.9587 20.7706 26.2579 21.0753 25.4963 19.0658C25.3674 18.7202 25.3674 18.3394 25.221 18.0113L23.1295 17.5895C22.9127 18.6557 22.8952 19.7806 22.9303 20.8702C22.9889 22.5692 23.1998 24.4966 23.5337 26.1663C23.6509 26.7638 24.2426 28.5038 24.1723 28.949C24.0668 29.6052 22.2097 29.7692 21.8348 30.0445C21.6063 30.2086 21.3427 30.812 20.9502 30.9526C20.8857 31.6615 23.3228 32.6516 23.9087 32.8332C25.4963 33.3253 29.6968 33.6826 30.7338 32.095C31.3723 31.1166 30.271 31.2045 29.8257 30.7183C29.1871 30.0211 29.439 28.2343 29.6851 27.3848V27.3731ZM35.1979 18.9077C35.6783 18.4448 35.6783 17.5661 35.1979 17.1032V18.9077ZM42.1402 67.1285C43.265 64.8964 44.2726 62.3363 44.6007 59.8406C45.0811 56.2025 43.7161 53.4373 42.8139 50.0511C41.8004 46.2256 41.2438 42.0368 40.0018 38.3108C38.8419 34.8309 37.1898 34.1103 34.0262 32.6808C33.6044 32.4875 32.1398 31.7962 31.8 31.7611C31.7238 31.7552 31.6535 31.7259 31.5832 31.7845C30.7513 34.163 26.8672 34.1103 24.8343 33.7002C23.3756 33.4073 21.2021 32.5695 20.4639 31.2162L20.3233 31.1752C16.5505 32.7512 12.8362 34.1162 11.1021 38.1233C9.28013 42.3297 7.75108 47.4324 6.72585 51.9083C5.5483 57.0403 6.13415 58.9735 8.98135 63.2561C10.1648 65.037 11.5473 66.8824 13.3342 68.0776C14.2364 66.033 15.6073 64.129 17.1246 62.5003C16.3864 61.0182 15.8943 59.3016 15.162 57.837C14.582 56.6829 13.8439 56.2962 12.7366 55.6987C12.2445 55.435 10.4811 54.8141 10.3932 54.3337C10.3815 54.2575 10.3932 54.1755 10.3932 54.0993C11.8813 54.5504 13.1877 55.4292 14.5762 56.097C14.4297 55.7631 14.541 55.3003 14.5879 54.9254C15.1737 50.3148 16.9957 45.8682 15.3788 41.1697C15.1444 40.4843 14.582 39.8106 14.7168 39.0724C15.2206 39.0255 15.7303 40.4433 15.8826 40.8592C16.9957 43.8822 16.609 47.3914 16.0642 50.5081C15.7889 52.0782 15.0038 54.5387 15.0566 56.0385C15.08 56.7708 15.6073 57.3449 15.8943 57.9718C16.1814 58.5986 17.1129 61.1002 17.5347 61.3755C18.103 61.7504 19.0696 62.061 19.714 62.43C22.2683 63.8771 24.2192 66.279 26.7442 67.6675C27.4472 68.0541 28.2791 68.2475 28.8356 68.8099C28.0213 69.1497 26.8731 68.4818 26.1466 68.0776C23.4634 66.5837 20.7627 63.1858 17.9506 62.2953C17.8862 62.2777 17.7925 62.2777 17.81 62.3421C20.1651 68.0483 27.1132 72.2078 33.2295 70.1632C35.4908 69.4074 39.6444 66.1501 40.2479 63.7775C40.7341 61.8735 39.7909 59.9402 39.416 58.1358C38.9063 55.6928 38.8829 53.1327 38.6251 50.6487C38.3615 48.1061 38.092 45.587 37.8635 43.0386C37.7932 42.277 37.3597 40.1562 37.6291 39.5704C37.8576 39.0783 38.0978 39.6055 38.1388 39.9102C38.4493 42.1598 38.5724 44.4798 38.8126 46.747C39.2227 50.6194 39.5683 54.5036 40.1424 58.3525C40.3123 58.7861 41.1501 58.54 41.607 58.5986C41.9585 58.6455 42.644 58.9091 42.7084 59.3016C42.7436 59.5008 42.6147 59.4598 42.4682 59.4481C41.8355 59.3895 41.1559 58.9794 40.4236 59.161C40.7107 60.0105 40.8689 60.901 40.9802 61.7856C41.0563 62.4007 40.9919 63.2854 41.1091 63.8478C41.1676 64.1407 41.484 64.6328 41.5895 64.9843C41.7886 65.6405 41.8472 66.2966 42.0054 66.9469C42.0288 67.0465 41.9937 67.1812 42.1284 67.1519L42.1402 67.1285ZM17.5112 63.0452C17.3999 62.9573 17.1539 63.2502 17.0836 63.3264C16.8434 63.5842 14.1778 67.1812 14.377 67.3218C14.9277 67.2867 15.4315 67.5796 15.8709 67.8842L15.9939 67.8549C16.5622 67.1402 17.025 66.3493 17.5698 65.617C17.7632 65.3651 18.2025 65.078 18.2611 64.7793C18.3431 64.3575 17.5581 63.5431 17.5112 63.0452ZM25.9884 116.574C26.3341 116.703 26.668 116.896 27.0254 117.013C29.4098 117.786 33.8563 117.898 36.229 117.095C36.3462 117.054 36.4692 117.042 36.5102 116.902C37.6877 107.517 38.42 98.0845 39.3808 88.6759C40.0253 82.4132 41.1501 75.8048 41.4723 69.5539C41.5543 67.9252 41.3024 65.9685 40.6638 64.4688C39.6913 66.6481 37.3362 68.7337 35.2858 69.9288C29.4918 73.3033 22.3503 70.2803 18.6068 65.3241L18.3842 65.4823C17.2711 67.2691 16.2165 69.4543 14.2833 70.462C14.0138 69.8703 15.5897 68.6576 15.5135 68.3295C15.2557 68.0424 14.418 67.7436 14.0899 67.937L13.9259 68.2475C12.7483 75.84 12.1449 83.5146 11.1314 91.1305L7.25312 116.527C7.32343 116.738 9.25084 117.324 9.60235 117.417C12.3031 118.156 15.619 118.595 18.185 117.288C19.468 112.373 20.5635 107.405 21.7996 102.472C23.7036 94.8858 25.5315 86.7426 27.828 79.3082C28.2674 77.8905 28.8473 76.3497 29.5679 75.0608C29.9897 74.311 30.5287 73.3619 31.2962 72.9342C31.3196 73.1686 31.2962 73.356 31.2259 73.5728C31.056 74.0766 30.2358 75.1839 29.9312 75.799C27.1953 81.2942 27.4589 86.5199 27.1132 92.478C26.6973 99.6194 26.2286 106.808 25.9708 113.973C25.9416 114.84 25.9884 115.713 25.9884 116.58V116.574ZM33.4755 118.314C33.3701 118.22 31.0794 118.331 30.6752 118.308C29.8491 118.261 28.9704 118.009 28.156 118.068C27.9276 118.208 27.0371 121.108 27.0195 121.507C27.0195 121.618 27.0019 121.712 27.1074 121.782C28.572 122.198 30.0659 122.544 31.5598 122.848C35.3619 123.616 39.2988 124.184 43.1771 123.827C43.2181 123.774 42.4858 123.2 42.3862 123.141C41.0856 122.415 38.9649 121.858 37.5003 121.179C36.4985 120.716 34.1492 119.608 33.581 118.724C33.5048 118.601 33.4872 118.337 33.4638 118.32L33.4755 118.314ZM13.7033 118.782L9.52619 118.156L6.6907 123.797C6.62626 124.33 7.76867 124.987 8.22563 125.168C9.93044 125.842 12.5667 125.619 13.6154 123.961L13.7091 118.782H13.7033ZM43.5638 124.389C39.5449 124.828 35.4322 124.278 31.4836 123.487C30.4467 123.282 29.398 123.047 28.3669 122.801C27.9627 122.702 27.3066 122.432 26.9668 122.391C26.7735 122.368 26.7442 122.854 26.7325 123.006C26.6797 123.791 26.6914 123.967 27.4706 124.166C32.2511 124.459 37.512 125.9 42.2808 125.525C43.0599 125.467 43.6751 125.315 43.5638 124.383V124.389ZM13.8029 124.676C11.9633 126.603 8.1143 126.603 6.43293 124.489C5.99355 125.033 6.11658 126.205 6.58525 126.715C7.5519 127.775 10.9439 127.687 12.2152 127.224C13.4865 126.762 13.7794 126.029 13.8029 124.676Z" fill="black"/>
<path d="M25.9892 116.574C25.9892 115.713 25.9365 114.834 25.9716 113.967C26.2294 106.808 26.7039 99.6194 27.114 92.4721C27.4597 86.5141 27.196 81.2884 29.9319 75.7931C30.2366 75.1839 31.0568 74.0707 31.2266 73.5669C31.3028 73.3443 31.3204 73.1568 31.2969 72.9284C30.5295 73.3502 29.9905 74.2992 29.5687 75.055C28.8481 76.3438 28.2623 77.8905 27.8288 79.3023C25.5264 86.7367 23.6986 94.8799 21.8004 102.467C20.5643 107.399 19.4688 112.362 18.1858 117.283C15.6139 118.595 12.298 118.15 9.60313 117.412C9.25162 117.318 7.32421 116.732 7.25391 116.521L11.1322 91.1247C12.1516 83.5087 12.7491 75.8341 13.9267 68.2416L14.0907 67.9311C14.4188 67.7378 15.2507 68.0366 15.5143 68.3236C15.5905 68.6517 14.0204 69.8644 14.284 70.4561C16.2173 69.4543 17.2718 67.2691 18.3849 65.4764L18.6076 65.3182C22.357 70.2745 29.4984 73.2974 35.2865 69.923C37.3429 68.7278 39.6921 66.6422 40.6646 64.4629C41.3032 65.9627 41.5551 67.9194 41.4731 69.548C41.1567 75.7931 40.026 82.4015 39.3816 88.67C38.415 98.0787 37.6827 107.517 36.511 116.896C36.4641 117.037 36.3469 117.048 36.2298 117.089C33.8571 117.892 29.4105 117.781 27.0262 117.007C26.6688 116.89 26.3407 116.697 25.9892 116.568V116.574Z" fill="white"/>
<path d="M42.141 67.1291C42.0063 67.1583 42.0414 67.0236 42.018 66.924C41.8598 66.2796 41.7953 65.6176 41.602 64.9614C41.4966 64.6099 41.1802 64.1178 41.1216 63.8249C41.0103 63.2625 41.0689 62.3779 40.9928 61.7627C40.8814 60.8722 40.7174 59.9817 40.4362 59.1381C41.1685 58.9565 41.8481 59.3666 42.4808 59.4252C42.6272 59.4369 42.7561 59.4838 42.721 59.2787C42.6565 58.8862 41.9711 58.6226 41.6196 58.5757C41.1627 58.5171 40.3249 58.7632 40.155 58.3297C39.5809 54.4807 39.2352 50.5965 38.8251 46.7241C38.5849 44.451 38.4619 42.1369 38.1514 39.8873C38.1104 39.5826 37.8643 39.0554 37.6417 39.5475C37.3722 40.1333 37.8116 42.2541 37.8761 43.0157C38.1045 45.5583 38.374 48.0832 38.6376 50.6258C38.8954 53.1039 38.9189 55.6699 39.4285 58.1129C39.8035 59.9173 40.7467 61.8564 40.2604 63.7546C39.657 66.1331 35.4975 69.3845 33.242 70.1403C27.12 72.1849 20.1777 68.0254 17.8226 62.3193C17.7992 62.2548 17.8988 62.2548 17.9632 62.2724C20.7811 63.1629 23.476 66.5608 26.1592 68.0547C26.8856 68.4589 28.0339 69.1268 28.8482 68.787C28.2916 68.2304 27.4539 68.0313 26.7567 67.6446C24.2259 66.2561 22.2809 63.86 19.7266 62.4071C19.0822 62.0381 18.1155 61.7276 17.5472 61.3526C17.1254 61.0773 16.1998 58.5874 15.9069 57.9489C15.614 57.3103 15.0984 56.7479 15.0691 56.0156C15.0164 54.5158 15.8073 52.0553 16.0768 50.4852C16.6158 47.3685 17.0024 43.8593 15.8952 40.8364C15.7429 40.4204 15.2332 39.0085 14.7293 39.0495C14.5946 39.7877 15.157 40.4614 15.3913 41.1468C17.0083 45.8453 15.1863 50.2919 14.6005 54.9025C14.5536 55.2833 14.4423 55.7461 14.5887 56.0742C13.2003 55.4063 11.8938 54.5334 10.4058 54.0764C10.4058 54.1526 10.3941 54.2346 10.4058 54.3108C10.4937 54.7912 12.2571 55.4122 12.7492 55.6758C13.8506 56.2733 14.5946 56.66 15.1746 57.8141C15.9128 59.2787 16.399 60.9953 17.1372 62.4774C15.6198 64.1061 14.2548 66.0159 13.3468 68.0547C11.5541 66.8596 10.1773 65.0142 8.99393 63.2332C6.14673 58.9448 5.56088 57.0115 6.73843 51.8854C7.76366 47.4095 9.29271 42.3068 11.1147 38.1005C12.9367 33.8941 16.5689 32.7341 20.3359 31.1523L20.4765 31.1934C21.2088 32.5408 23.3881 33.3786 24.8469 33.6773C26.8856 34.0874 30.7639 34.1402 31.5958 31.7616C31.6661 31.703 31.7364 31.7265 31.8126 31.7382C32.1524 31.7733 33.617 32.4646 34.0388 32.658C37.2023 34.0874 38.8486 34.8022 40.0144 38.2879C41.2564 42.008 41.8129 46.2027 42.8265 50.0283C43.7228 53.4203 45.0937 56.1855 44.6133 59.8177C44.2852 62.3134 43.2775 64.8735 42.1527 67.1056L42.141 67.1291Z" fill="#0F172A"/>
<path d="M27.2837 15.6044C30.8105 14.96 30.5527 19.9397 27.6059 19.9983C25.0926 20.051 25.3973 15.9501 27.2837 15.6044ZM28.6136 17.321C28.098 16.7761 27.1197 17.5436 27.6411 18.147C28.2093 18.8031 29.1467 17.8892 28.6136 17.321Z" fill="white"/>
<path d="M17.5121 63.0456C17.5589 63.5435 18.344 64.3637 18.2619 64.7797C18.2034 65.0785 17.764 65.3655 17.5706 65.6174C17.0258 66.3439 16.563 67.1406 15.9947 67.8554L15.8717 67.8847C15.4323 67.58 14.9344 67.2929 14.3778 67.3222C14.1786 67.1816 16.8442 63.5846 17.0844 63.3268C17.1547 63.2506 17.4008 62.9577 17.5121 63.0456Z" fill="white"/>
<path d="M35.1992 18.9079V17.1035C35.6796 17.5663 35.6796 18.4451 35.1992 18.9079Z" fill="white"/>
<path d="M28.8892 23.3951C29.2407 23.2837 31.1447 23.4419 31.5313 23.5767C32.0879 23.77 31.5665 23.9985 31.2384 24.0102C30.8108 24.0278 29.7269 23.9106 29.2641 23.8461C28.9712 23.8051 28.4381 23.5357 28.8892 23.3951Z" fill="black"/>
<path d="M33.0843 17.3079C33.9689 17.1263 34.1681 18.4679 33.2483 18.5265C32.5629 18.5733 32.3461 17.4602 33.0843 17.3079Z" fill="black"/>
<path d="M28.6136 17.3207C29.1525 17.889 28.2152 18.8029 27.6411 18.1467C27.1138 17.5433 28.098 16.7759 28.6136 17.3207Z" fill="black"/>
</g>
<defs>
<clipPath id="clip0_2414_66077">
<rect width="43.4472" height="68.4294" fill="white" transform="translate(3.68555 4.89453)"/>
</clipPath>
</defs>
</svg>
