<svg width="49" height="75" viewBox="0 0 49 75" fill="none" xmlns="http://www.w3.org/2000/svg">
<g clip-path="url(#clip0_2414_66076)">
<path d="M12.6238 50.0903C11.5319 49.2458 10.2896 47.9598 10.1828 46.5039C9.97897 43.762 13.3033 36.9629 14.7106 34.4103C16.7586 30.6832 18.3115 29.0235 22.0241 26.9124C22.3492 26.728 24.6253 25.5002 24.7515 25.5875L26.2607 30.7754C26.6684 31.0374 27.9059 29.6009 28.2213 29.3292C28.6241 28.9798 28.9202 28.6498 29.4831 28.8196C29.3958 28.5915 29.3181 28.3246 29.0463 28.2664C28.595 28.2227 27.4109 29.6058 26.9984 29.9212C26.8479 30.0377 26.6926 30.1833 26.4888 30.1591L25.1591 25.1508C25.5279 24.3258 26.0423 23.4862 26.9207 23.1465L26.8819 24.0928C26.7703 24.0249 26.5228 23.9715 26.4888 24.1316C26.3724 24.6994 29.5074 27.684 30.0315 28.3101C30.6236 29.0138 31.138 29.7902 31.6524 30.5521C31.5942 31.0617 31.2836 31.5082 31.2205 32.0226C31.0749 33.2747 31.4389 34.6189 31.5262 35.8759C31.8368 40.4183 31.6378 45.1208 31.6184 49.668C31.6087 51.4248 31.8465 53.4582 31.6864 55.1762C31.5796 56.2972 31.0312 58.1122 30.7206 59.2527C30.6381 59.5487 30.1334 61.4414 30.0218 61.5093C28.9833 61.5821 27.9399 61.3152 26.9887 60.9076C24.3244 59.7525 20.5148 55.6081 17.5545 58.1365L16.9624 58.7237C17.5933 56.4185 18.3746 54.1474 18.6173 51.75C19.8839 51.9829 21.0147 52.837 22.3492 52.6866C22.5725 52.6623 23.1548 52.4294 23.2907 52.4682C23.3829 52.4973 23.4945 52.7545 23.6159 52.8565C24.3584 53.4825 27.4255 53.5553 28.2796 53.1088C28.9638 52.7497 29.0172 51.4539 29.1434 50.7454C29.5171 48.6732 29.7646 46.5718 30.0509 44.4851C30.4828 44.1987 30.6624 43.7377 30.4974 43.2184C30.4634 43.1117 30.2984 43.1117 30.245 42.9952C30.1383 42.7428 30.2062 42.4322 30.0218 42.1168C29.5656 41.3306 27.5856 41.384 26.7654 41.3549C26.0666 41.3306 25.3532 41.2821 24.6398 41.3549C24.3244 41.3888 23.7032 41.4471 23.4411 41.5733C23.0092 41.7868 23.0189 42.2042 22.8588 42.5681C22.5725 43.2233 22.0386 43.8202 23.1063 44.1599L23.0675 45.2179C22.0241 45.5915 21.4272 46.4214 20.738 47.227L19.6607 46.9164C19.8354 46.2564 19.6946 45.6158 19.0007 45.4071C19.1996 44.5676 19.1026 43.5824 19.2627 42.7574C19.5393 41.2918 21.0826 39.4525 21.6455 37.9723C21.7572 37.6812 21.8785 37.3851 21.8445 37.0697C21.8445 36.9969 21.7038 37.0212 21.6552 37.0406C21.1748 37.225 18.6561 43.0437 18.0204 43.8056C16.7052 42.5293 15.1571 42.4225 13.5702 43.2961C13.0072 43.6067 12.1628 44.2327 12.0755 44.9121C12.2599 45.082 13.0558 44.2424 13.2644 44.092C14.4534 43.2281 16.4771 42.7428 17.5545 44.0434C18.1805 44.7957 17.3507 44.3929 17.0012 44.3637C15.4531 44.223 14.2447 45.4799 13.5119 46.7029C13.2644 47.1154 12.6287 48.4645 12.6287 48.8916V50.1145L12.6238 50.0903ZM21.9173 35.5556V33.9784C21.9173 33.5707 21.5 32.3138 21.3252 31.8916C20.9661 31.0277 20.2867 29.8145 19.321 29.6398L19.1608 29.8776C20.4469 30.6249 21.0341 31.9789 21.3301 33.3814C21.4077 33.7454 21.563 35.6284 21.7232 35.6672L21.9173 35.5507V35.5556Z" fill="#C4DEF8"/>
<path d="M35.7003 29.6051C35.3363 29.3333 34.7297 28.1832 34.1958 28.3045C33.958 28.3579 32.9098 29.5808 32.7448 29.838C32.6768 29.9399 32.5846 29.9885 32.6283 30.1535C33.1185 30.1632 34.0794 28.7655 34.3899 28.8286C34.8364 29.1198 35.4576 30.3961 35.9332 30.5174C36.3457 30.6242 36.1079 29.343 36.0739 29.1149C35.972 28.4598 35.7973 27.6979 35.4673 27.1204C35.4479 27.067 35.5304 27.067 35.5838 27.0815C35.8653 27.1689 36.6417 27.6057 36.9378 27.7755C41.5335 30.4107 40.6843 34.4192 42.2372 38.8597C42.3974 39.3208 43.5184 41.7764 43.2612 42.0481C42.3003 41.7618 41.1841 41.6599 40.2718 42.1695C40.1213 42.2568 39.3885 42.8246 39.5584 42.9896C40.0485 42.9605 40.4222 42.5723 40.9221 42.4218C41.6306 42.2083 42.2421 42.2423 42.9458 42.4364L41.7616 42.9459C39.5535 44.1398 38.5101 47.4835 39.9515 49.6042C39.3351 49.5654 38.0976 48.7938 37.9423 48.1872C37.7628 47.5029 37.9909 45.8529 38.0734 45.0813C38.4276 41.7278 39.2866 38.4278 39.5584 35.0647C39.6166 34.3659 39.7137 33.2934 39.636 32.6236C39.6166 32.4392 39.5729 32.0898 39.3206 32.1141C39.1507 33.1575 39.1895 34.2445 39.0828 35.3025C38.515 40.9417 37.0057 46.3188 37.1125 52.089C37.1416 53.5788 37.3794 55.0833 37.4328 56.5731C37.457 57.1797 37.525 58.4512 37.4134 58.9996C37.2289 59.912 35.5789 60.7904 34.7733 61.0864C34.3366 61.2465 33.8513 61.4407 33.3854 61.4213C33.0311 61.3339 32.2012 56.0587 32.1527 55.389C31.6674 48.7161 32.3371 41.7327 31.9149 34.9822C31.8082 33.2982 31.4345 32.4683 31.9926 30.7261C32.274 29.8429 33.0263 28.6248 33.1573 27.7949C33.2252 27.3485 33.0893 27.0379 33.0942 26.6302C33.0991 26.2225 33.2252 25.6742 33.2592 25.252C34.9335 25.8586 35.4479 28.0084 35.7003 29.5857V29.6051ZM32.3323 33.5263C32.7885 33.866 33.1913 32.9973 32.7836 32.7984L32.5118 32.7547C32.2013 32.8032 32.1673 33.3031 32.3323 33.5263ZM32.7642 38.9956C32.4293 39.0927 32.4342 39.9759 32.9049 39.9322C33.2641 39.8983 33.2252 39.2383 33.0311 39.015C32.9486 38.9616 32.8564 38.9665 32.7691 38.9908L32.7642 38.9956ZM33.1718 46.7701C33.3854 46.377 33.4145 45.8189 32.8418 45.8432C32.5798 45.9257 32.5943 46.5226 32.7011 46.7361L33.1718 46.7701ZM33.167 52.152L32.6963 52.186C32.3323 53.4527 33.5989 53.341 33.167 52.152Z" fill="#C4DEF8"/>
<path d="M23.3362 50.7227C24.7678 50.7227 26.1509 51.1012 27.5874 50.8828C27.7718 51.0769 27.1215 51.3584 26.9759 51.4166C25.8161 51.8631 24.564 51.7272 23.3799 51.9165C22.9916 51.9796 22.5597 52.1737 22.1812 52.2125C21.2737 52.3096 18.7647 51.3099 17.7407 50.9993C17.1632 50.8246 16.576 50.6693 15.9839 50.5528L15.8626 50.4363C15.6103 49.325 16.3916 47.9662 17.2311 47.2576C18.2794 46.3792 18.4395 46.8985 19.4344 47.3353C19.7644 47.4809 20.1769 47.5391 20.439 47.6507C20.5603 47.7041 20.5118 47.9128 20.7738 47.8885C20.9971 47.8643 21.9337 46.5103 22.2734 46.2288C23.5303 45.1854 25.5589 45.2873 27.0584 45.6998C27.2623 45.7581 28.7958 46.1948 28.228 46.5879C28.0339 46.7189 25.127 46.4812 24.4912 46.554C24.2631 46.5782 23.2343 46.7917 23.1033 46.8985L23.0644 47.2576C23.1858 47.4566 24.5931 47.4566 24.9474 47.5003C25.8112 47.6119 27.568 48.0244 28.2814 48.5C28.4367 48.6019 28.626 48.6893 28.5095 48.9125C28.2523 49.0775 27.932 49.0872 27.6359 49.0678C26.3693 48.9901 24.8115 48.4466 23.54 48.8251C23.0887 48.9562 23.2197 49.1212 23.6177 49.1503C24.8795 49.2425 26.6459 49.3444 27.8543 49.6404C28.5192 49.8006 28.6308 50.15 27.8737 50.2519L23.6225 50.3344C23.4187 50.3684 23.3168 50.5188 23.3459 50.7275L23.3362 50.7227Z" fill="white"/>
<path d="M46.8091 44.262C46.6344 44.8104 46.5131 45.2714 47.1245 45.5723C48.857 45.4947 50.609 45.3879 52.2784 45.9169L52.4046 45.7228C52.3318 45.3733 50.4925 45.2423 50.3712 44.6017C50.3372 44.4222 50.3906 44.2572 50.575 44.2038C51.1234 44.0388 52.3609 44.6066 52.9287 44.6551C53.0791 44.6697 53.1762 44.6794 53.2733 44.5386C53.0161 44.2717 52.6763 44.1019 52.3269 43.9903C51.7349 43.7961 49.9053 43.7864 50.1188 42.8983C50.1819 42.6363 52.3124 42.8158 52.6715 42.8547C53.1665 42.9129 53.6469 43.2041 54.1371 43.0002C54.1662 42.8595 54.0934 42.8449 54.0061 42.777C53.3363 42.2626 50.706 42.3839 50.4731 41.8986C50.2062 41.3357 50.8273 41.2241 51.2593 41.1852C51.9727 41.1221 53.6615 41.1221 54.2439 41.5152C54.6515 41.787 55.064 42.7527 54.7631 43.1895C54.603 43.4176 54.3069 43.1313 54.2293 43.4516C54.1905 43.6166 54.3215 43.898 54.3021 44.1407C54.2633 44.6017 53.8022 44.922 53.3509 44.888C53.414 45.3005 53.4722 45.3345 53.2247 45.6694C52.6763 46.407 51.2787 46.7856 50.3954 46.7807C50.114 46.7807 49.4588 46.5672 49.2307 46.6351C49.124 46.6642 48.9832 46.8681 48.8328 46.9554C47.4545 47.727 45.4357 48.6831 43.9118 49.0471C43.1985 49.2169 42.7957 49.5081 42.519 48.6734C41.8348 46.6351 43.4993 44.262 45.6686 44.262H46.8091Z" fill="white"/>
<path d="M19.1604 46.7038C18.3403 46.1166 17.9472 46.0729 17.1562 46.7038C15.8556 47.7423 14.9917 49.3923 15.4673 51.0715C15.5644 51.4063 15.7731 51.8819 16.171 51.9013L15.972 50.9598L17.6657 51.4694C17.8113 51.5665 17.3891 51.9256 17.3115 51.9838C16.1467 52.8282 14.3851 52.2119 13.5747 51.154C12.1867 49.3438 14.0163 45.9613 15.8022 45.0344C17.0543 44.3841 17.69 45.1654 18.6363 45.772C19.0537 46.0438 19.4274 45.9321 19.1653 46.6989L19.1604 46.7038Z" fill="#C4DEF8"/>
<path d="M45.4696 43.8702C43.2275 43.7635 41.7911 46.0347 41.9221 48.0875C41.9803 48.9513 42.4171 49.9316 43.3828 50.0141C43.6012 50.0335 43.9895 50.082 43.9749 49.7812L43.5042 49.5434C44.1884 49.5773 44.8824 49.1697 45.5133 49.0678C45.7268 49.0338 45.5279 49.3298 45.4745 49.4269C44.7028 50.8197 42.7131 51.174 41.3834 50.3635C37.8019 48.1748 40.7283 41.7495 44.6495 43.2393C44.9358 43.3509 45.4211 43.5208 45.4745 43.8702H45.4696Z" fill="#C4DEF8"/>
<path d="M32.1431 14.2614C33.8756 14.1255 34.2056 16.5423 33.0264 17.5129C31.2259 18.993 29.5273 15.7949 30.9396 14.7127C31.2307 14.4894 31.784 14.2856 32.1431 14.2614ZM31.8616 16.6684C31.9635 16.7704 32.279 16.7898 32.4149 16.7509C33.104 16.5471 32.8128 14.6981 31.9199 15.1495C31.5899 15.3145 31.6287 16.4403 31.8616 16.6684Z" fill="white"/>
<path d="M29.6356 44.4995L28.9659 48.5178C28.6795 48.0228 27.8351 47.785 27.2916 47.5909C26.6073 47.3482 25.8842 47.091 25.1466 47.0959C25.1271 46.96 25.3261 47.0231 25.4232 47.0182C26.156 46.9891 28.2428 47.3385 28.6504 46.7804C29.257 45.9506 27.8254 45.4361 27.2576 45.2614C26.0735 44.9023 24.8408 44.8878 23.6227 45.0528C23.3995 44.9363 23.5208 44.1016 23.613 44.1016C25.5542 44.7664 27.6216 44.5917 29.6356 44.4995Z" fill="white"/>
<path d="M29.7162 42.845C29.7356 43.0246 29.6774 43.2527 29.7308 43.4225C29.789 43.6021 30.1773 43.636 30.0268 43.8641C29.9832 43.9321 28.7651 44.0874 28.5709 44.1019C27.3092 44.2184 25.8436 44.1553 24.5915 43.9078C24.2178 43.8302 23.7762 43.6215 23.4316 43.5681C23.2812 43.5438 23.0288 43.7282 22.9366 43.5099C22.825 43.2381 23.1259 43.3546 23.2132 43.2381C23.3006 43.1216 23.2812 42.5781 23.5238 42.549C23.6063 42.5393 24.8293 42.9857 25.135 43.0391C26.6491 43.3012 28.2167 43.1799 29.7065 42.8402L29.7162 42.845Z" fill="white"/>
<path d="M37.1171 13.9308L37.4374 17.0367C36.9715 17.6482 36.3261 17.1823 35.9524 16.7116C34.9042 15.3964 35.2778 13.8823 37.1171 13.9308ZM36.462 14.8092C35.967 14.8529 35.9621 15.8429 36.3309 16.0127C37.0832 16.3525 37.1365 14.751 36.462 14.8092Z" fill="white"/>
<path d="M25.4995 52.2213C25.8149 52.1922 26.3536 52.0611 26.6739 51.9786C27.0524 51.8816 27.8144 51.6972 27.9454 51.2798C28.1104 50.7363 27.7658 50.678 28.6491 50.5664C28.5763 50.9741 28.4792 52.3378 28.2172 52.5755C27.6445 53.0948 24.4755 53.0366 23.9223 52.4639C23.8495 52.3863 23.7815 52.3475 23.8058 52.2261C24.3542 52.1922 24.9559 52.2747 25.4995 52.2261V52.2213Z" fill="white"/>
<path d="M29.48 42.4471C27.6989 42.8742 25.4666 42.9033 23.7292 42.2482C23.3604 42.1074 23.7098 41.957 23.9427 41.9181C24.9667 41.7289 28.2425 41.7095 29.1597 42.0977C29.3053 42.1608 29.4945 42.2627 29.4751 42.452L29.48 42.4471Z" fill="white"/>
<path d="M19.3171 61.0436C18.7881 60.8835 17.1478 59.9857 17.1139 59.4227C17.0799 58.8598 18.5503 57.9814 19.0454 57.8164C19.0793 58.1998 18.9871 58.5686 19.0065 58.9569C19.0211 59.2675 19.3851 60.9611 19.322 61.0436H19.3171Z" fill="white"/>
<path d="M37.8252 16.9206L37.5098 14.0039C38.6648 14.3776 38.7182 16.2314 37.8252 16.9206Z" fill="white"/>
<path d="M21.9186 35.5555L21.7245 35.6719C21.5595 35.6331 21.409 33.7502 21.3314 33.3862C21.0354 31.9788 20.4482 30.6248 19.1621 29.8823L19.3223 29.6445C20.2929 29.8192 20.9723 31.0325 21.3265 31.8963C21.5013 32.3185 21.9186 33.5755 21.9186 33.9831V35.5603V35.5555Z" fill="black"/>
<path d="M33.1718 46.7714L32.701 46.7375C32.5943 46.5288 32.5797 45.9319 32.8418 45.8445C33.4144 45.8203 33.3853 46.3783 33.1718 46.7714Z" fill="black"/>
<path d="M33.1662 52.1543C33.5982 53.3433 32.3315 53.4549 32.6955 52.1883L33.1662 52.1543Z" fill="black"/>
<path d="M32.7645 38.9976C32.8567 38.9733 32.9489 38.9636 33.0265 39.0218C33.2206 39.2402 33.2595 39.9051 32.9003 39.939C32.4296 39.9827 32.4247 39.0946 32.7596 39.0024L32.7645 38.9976Z" fill="black"/>
<path d="M32.332 33.5275C32.167 33.3043 32.201 32.8044 32.5116 32.7559L32.7834 32.7995C33.1862 33.0034 32.7834 33.8672 32.332 33.5275Z" fill="black"/>
<path d="M35.699 19.9966C35.9708 20.2344 34.6411 20.5935 34.5391 20.6081C34.0053 20.676 33.2337 20.5353 32.7338 20.3266C32.4524 20.2101 32.1612 20.1228 32.234 19.7637C32.7727 19.8025 33.2337 20.084 33.7724 20.1568C34.4566 20.2441 35.0342 20.0888 35.699 20.0015V19.9966Z" fill="black"/>
<path d="M26.9591 19.2071C26.5272 19.1634 25.9982 18.9401 26.1341 18.4257L25.0664 17.3192C25.7701 17.2173 26.0904 17.4648 26.435 18.0375C26.5126 18.1685 27.0027 19.1634 26.9542 19.2119L26.9591 19.2071Z" fill="black"/>
<path d="M33.0216 13.2963C32.3325 13.2429 31.5658 13.0973 30.9203 13.437C30.6485 13.5826 30.5515 13.9272 30.1875 13.8447C30.3379 12.6702 32.58 12.0199 33.0216 13.2914V13.2963Z" fill="black"/>
<path d="M31.8618 16.6678C31.6338 16.4397 31.5901 15.3138 31.9201 15.1488C32.8179 14.6975 33.1042 16.5465 32.4151 16.7503C32.2743 16.7892 31.9638 16.7697 31.8618 16.6678Z" fill="black"/>
<path d="M36.4634 14.8104C37.1429 14.7473 37.0846 16.3536 36.3324 16.0139C35.9587 15.8441 35.9636 14.8541 36.4634 14.8104Z" fill="black"/>
<path d="M59.3584 99.4258C57.49 98.4164 55.9031 99.8286 54.3307 100.518C53.2631 100.984 51.8217 101.202 50.5794 101.129C51.0841 100.498 51.4335 99.8383 51.6664 99.0958C51.4529 98.659 51.1666 98.13 50.8317 97.5525C50.2348 95.9947 43.9696 81.3338 41.9653 76.1897C40.291 71.8851 36.6367 68.653 34.7586 64.4406C35.2148 63.0527 35.0595 62.9022 35.1614 61.4463C36.1514 61.1212 37.6656 60.1894 37.8888 59.0926C38.0296 58.3938 37.9422 57.1757 37.9082 56.4283C37.85 54.987 37.6704 53.5408 37.5879 52.0995L37.6704 48.7461C38.1169 49.2944 38.8109 49.8234 39.4952 50.0321C39.7718 50.1146 40.2134 50.1146 40.4221 50.2068C40.655 50.3136 41.1112 50.8522 41.5528 51.0464C43.13 51.75 45.0761 51.1434 45.9254 49.639C46.0758 49.3672 46.1729 48.9353 46.3427 48.7169C46.5514 48.45 48.2014 47.8579 48.6479 47.6347C48.8517 47.5328 49.337 47.1349 49.4632 47.1106C49.5894 47.0863 49.7592 47.1785 49.9145 47.1785C51.2345 47.1785 52.7584 47.0912 53.6125 45.9071C53.7629 45.7032 53.8212 45.4315 53.9376 45.2859C54.2046 44.951 54.6219 44.8734 54.7432 44.2813C54.7772 44.1114 54.7238 43.8203 54.7772 43.7232C54.7918 43.6989 54.9907 43.6164 55.0781 43.5145C55.4663 43.0438 55.2285 42.6604 55.3159 42.1751C55.3596 41.9422 55.7235 41.4811 55.8206 41.1851C56.1506 40.1708 55.7624 39.637 54.8403 39.2585C55.146 38.7101 55.4324 38.1423 55.6653 37.5599C55.8837 37.0164 56.4903 35.8614 55.51 35.7498C54.4618 35.6284 52.7778 35.5993 51.7247 35.6672C50.5551 35.7449 50.4581 35.8128 49.9679 36.8223C49.4632 37.8657 49.0944 39.0498 48.6091 40.1126C48.1723 40.4377 47.6724 40.5833 47.391 41.1026C47.0221 41.782 47.3327 42.18 47.4249 42.8642C46.9057 43.1214 46.8668 44.0387 46.1729 43.83C45.8962 43.7475 45.8331 43.4514 45.6633 43.3107C45.1052 42.84 44.4501 42.6604 43.7706 42.4469C43.7075 40.6755 42.7806 39.0838 42.2808 37.3998C40.9802 33.0369 41.6984 29.965 37.1754 27.3784C36.6513 27.0823 35.5982 26.7281 35.2051 26.4514C35.1469 26.4126 34.8751 25.9176 34.7538 25.7769C34.3995 25.3644 33.9676 25.0683 33.4872 24.816L33.7298 24.0395C37.1609 23.9716 37.9082 20.1911 37.9034 17.4394C39.2671 16.5416 39.17 14.0326 37.5103 13.5668L37.4472 13.4746C37.4569 12.9795 37.1997 12.3729 37.1948 11.907C37.19 11.4023 37.3647 10.7617 37.2773 10.2182L38.5003 11.1645C38.7235 11.2567 38.5828 10.7084 38.5634 10.6259C38.2819 9.60187 37.3307 8.98069 36.4135 8.60215C36.894 8.41289 38.2285 7.16081 38.0587 6.64154C37.9228 6.22419 37.2288 6.792 37.0395 6.86479C36.8018 6.957 36.1951 7.18993 35.9767 7.21905C35.2973 7.31126 34.4335 7.15111 33.7298 7.21905C34.0258 6.92302 34.9722 6.15139 34.9916 5.76315C34.9964 5.63698 35.0013 5.62727 34.8703 5.64183C34.0647 6.0058 33.3076 6.45713 32.4389 6.67552C29.9299 7.31611 25.9408 6.55905 25.1303 9.88335C24.3587 9.88335 23.8152 10.3541 23.4221 10.9704C22.3059 12.7369 22.8785 14.9207 24.184 16.4058C23.2231 18.3324 24.6741 20.8317 26.8725 20.7686C26.9987 21.4577 27.1297 22.108 26.9502 22.8068C26.3339 22.768 25.9068 23.2096 25.5428 23.6416C25.2419 24.0007 24.8585 24.8354 24.5916 25.0538C24.1354 25.4323 22.796 25.9225 22.1797 26.2622C17.5111 28.844 15.7398 31.1055 13.3958 35.8323C12.3281 37.987 11.1246 40.6319 10.3966 42.9176C9.3484 46.2079 9.31443 47.591 11.8331 50.0321C12.4058 50.5902 12.5805 50.7552 13.0949 51.3715C14.4004 52.9293 16.5308 53.3952 18.1372 51.9636C17.9139 53.2157 17.6713 54.4677 17.3461 55.7004C17.0792 56.6953 16.3076 58.4375 16.5017 59.3935C16.7104 60.4175 18.6176 61.2716 19.5154 61.5773C20.0056 63.0284 20.2142 63.2468 20.9567 64.5668C19.7484 67.7843 18.2536 71.4241 17.0161 74.6367C16.788 75.2239 16.5794 77.5146 16.0649 77.796C15.206 78.2668 15.007 78.1503 14.2354 78.9607C10.6199 82.7703 7.37809 87.1817 3.76747 91.0253C3.53938 91.2631 3.50541 91.2533 3.58305 91.5106L4.19453 93.6216C4.16541 93.6362 4.13144 93.6507 4.09262 93.6653C2.44746 94.3301 1.26818 95.2813 0.132585 96.6402C-1.93479 99.1103 1.307 101.294 2.49113 103.264C3.20937 104.458 3.56364 105.846 4.50512 106.924C6.22308 108.889 9.09605 109.195 11.5565 109.01C13.1143 108.894 13.9442 108.394 13.7161 106.696C13.4686 104.817 11.4546 104.881 10.7412 103.837C10.2559 103.124 9.94532 101.906 9.7512 100.794C9.7512 100.794 10.3627 100.998 10.5471 100.959C14.4246 100.105 19.331 91.9764 21.3062 89.1957C22.8154 87.0749 24.0093 85.7549 24.9265 83.7846C26.1009 81.2708 26.79 78.0484 28.0033 75.6656C28.047 75.5831 27.9645 75.5151 28.1683 75.5539C29.1 77.2913 30.2162 78.6162 30.983 80.4312C31.9439 82.7218 32.7155 85.226 33.691 87.5748C35.3798 91.6465 37.1754 95.6938 39.0099 99.7073C39.8543 101.911 40.7035 103.988 41.5286 105.749C41.645 105.997 41.7858 106.312 41.9168 106.54C41.9556 106.603 41.8925 106.671 42.0527 106.642C42.3584 106.492 42.6447 106.346 42.9311 106.201C43.1398 107.763 44.222 110.486 45.0421 111.442C45.5323 112.014 45.9836 111.888 46.6679 111.743C48.8566 111.262 53.4329 108.04 55.4663 106.676C57.126 105.565 63.071 101.411 59.3584 99.4064V99.4258ZM37.8257 16.9202L37.5103 14.0035C38.6653 14.3772 38.7187 16.2311 37.8257 16.9202ZM50.4678 101.459C50.5842 101.459 50.7007 101.411 50.6667 101.58C50.4144 101.823 50.1378 102.177 50.0213 102.512C49.8757 102.91 49.9825 103.051 50.3076 102.721C50.8026 102.216 51.1083 101.44 52.0062 101.469C51.9382 101.794 51.5354 101.954 51.4189 102.26C51.3898 102.333 51.2879 102.736 51.4917 102.648C52.0644 102.085 52.6565 101.406 53.5009 101.309C53.069 101.896 52.5594 102.498 51.8751 102.794C50.9676 103.187 49.2642 103.332 48.1189 103.298C49.0216 102.682 49.735 102.095 50.2833 101.488C50.3464 101.479 50.4095 101.464 50.4678 101.464V101.459ZM55.3935 41.0735C55.3596 41.19 55.1169 41.8354 54.9616 41.6558C54.0735 40.6367 53.7532 40.9036 52.6516 40.5008C51.8897 40.2242 51.9916 39.7438 52.7729 39.6321C53.8309 39.4817 55.8352 39.5205 55.3935 41.0735ZM48.3033 40.8745C48.1432 41.2288 48.017 41.6073 47.852 41.9616C47.7986 42.0732 47.9005 42.1751 47.6724 42.1314C47.6045 41.6364 47.7792 41.0346 48.3033 40.8696V40.8745ZM47.323 44.422C48.4538 42.0392 49.2594 39.3021 50.4192 36.9581C50.5503 36.6864 50.6764 36.3855 50.9676 36.2448C52.4769 36.07 54.0347 36.1429 55.5585 36.1817C55.7041 36.2836 55.675 36.7106 55.4372 36.7009H51.4141L51.1375 36.8174L47.5074 45.1209C47.4298 45.1645 47.2988 45.1209 47.2066 45.1354L47.3279 44.4318L47.323 44.422ZM45.6633 44.2619H46.8038C46.629 44.8103 46.5077 45.2713 47.1192 45.5722C48.8517 45.4945 50.6036 45.3878 52.2731 45.9168L52.3992 45.7226C52.3264 45.3732 50.4872 45.2422 50.3658 44.6016C50.3319 44.422 50.3853 44.257 50.5697 44.2037C51.1181 44.0387 52.3556 44.6065 52.9234 44.655C53.0738 44.6695 53.1709 44.6793 53.2679 44.5385C53.0107 44.2716 52.671 44.1017 52.3216 43.9901C51.7295 43.796 49.9 43.7863 50.1135 42.8982C50.1766 42.6361 52.307 42.8157 52.6662 42.8545C53.1612 42.9128 53.6416 43.2039 54.1318 43.0001C54.1609 42.8594 54.0881 42.8448 54.0007 42.7769C53.331 42.2625 50.7007 42.3838 50.4678 41.8985C50.2008 41.3355 50.822 41.2239 51.2539 41.1851C51.9673 41.122 53.6562 41.122 54.2385 41.5151C54.6462 41.7869 55.0587 42.7526 54.7578 43.1894C54.5976 43.4175 54.3016 43.1311 54.224 43.4514C54.1851 43.6164 54.3162 43.8979 54.2968 44.1406C54.2579 44.6016 53.7969 44.9219 53.3456 44.8879C53.4087 45.3004 53.4669 45.3344 53.2194 45.6693C52.671 46.4069 51.2733 46.7854 50.3901 46.7806C50.1086 46.7806 49.4535 46.5671 49.2254 46.635C49.1186 46.6641 48.9779 46.8679 48.8274 46.9553C47.4492 47.7269 45.4304 48.683 43.9065 49.0469C43.1931 49.2168 42.7903 49.508 42.5137 48.6733C41.8294 46.635 43.494 44.2619 45.6633 44.2619ZM44.6442 43.2379C44.9305 43.3495 45.4158 43.5194 45.4692 43.8688C43.2271 43.762 41.7906 46.0332 41.9216 48.0861C41.9799 48.9499 42.4167 49.9302 43.3824 50.0127C43.6008 50.0321 43.989 50.0806 43.9745 49.7797L43.5037 49.5419C44.188 49.5759 44.882 49.1683 45.5129 49.0663C45.7264 49.0324 45.5274 49.3284 45.474 49.4255C44.7024 50.8183 42.7127 51.1726 41.383 50.3621C37.8015 48.1734 40.7278 41.748 44.649 43.2379H44.6442ZM35.7001 29.6059C35.3361 29.3341 34.7295 28.184 34.1957 28.3053C33.9579 28.3587 32.9096 29.5816 32.7446 29.8388C32.6767 29.9407 32.5845 29.9893 32.6282 30.1543C33.1183 30.164 34.0792 28.7663 34.3898 28.8294C34.8363 29.1206 35.4575 30.3969 35.9331 30.5182C36.3456 30.625 36.1078 29.3438 36.0738 29.1157C35.9719 28.4606 35.7972 27.6987 35.4672 27.1211C35.4478 27.0678 35.5303 27.0678 35.5836 27.0823C35.8651 27.1697 36.6416 27.6064 36.9376 27.7763C41.5334 30.4115 40.6841 34.42 42.2371 38.8605C42.3972 39.3216 43.5183 41.7772 43.2611 42.0489C42.3002 41.7626 41.184 41.6607 40.2716 42.1703C40.1212 42.2576 39.3884 42.8254 39.5582 42.9904C40.0484 42.9613 40.4221 42.5731 40.9219 42.4226C41.6305 42.2091 42.2419 42.243 42.9456 42.4372L41.7615 42.9467C39.5534 44.1406 38.51 47.4843 39.9513 49.605C39.335 49.5662 38.0975 48.7946 37.9422 48.188C37.7626 47.5037 37.9907 45.8537 38.0732 45.0821C38.4275 41.7286 39.2865 38.4286 39.5582 35.0655C39.6165 34.3667 39.7135 33.2941 39.6359 32.6244C39.6165 32.44 39.5728 32.0906 39.3204 32.1149C39.1506 33.1583 39.1894 34.2453 39.0826 35.3033C38.5148 40.9424 37.0056 46.3196 37.1123 52.0898C37.1415 53.5796 37.3793 55.0841 37.4326 56.5739C37.4569 57.1805 37.5248 58.452 37.4132 59.0004C37.2288 59.9128 35.5788 60.7912 34.7732 61.0872C34.3364 61.2473 33.8511 61.4415 33.3852 61.4221C33.031 61.3347 32.2011 56.0595 32.1526 55.3898C31.6673 48.7169 32.337 41.7335 31.9148 34.983C31.808 33.299 31.4343 32.4691 31.9924 30.7269C32.2739 29.8437 33.0261 28.6256 33.1572 27.7957C33.2251 27.3492 33.0892 27.0386 33.0941 26.631C33.0941 26.2233 33.2251 25.675 33.2591 25.2527C34.9333 25.8594 35.4478 28.0092 35.7001 29.5865V29.6059ZM37.4375 17.0366C36.9716 17.6481 36.3262 17.1822 35.9525 16.7115C34.9042 15.3963 35.2779 13.8822 37.1172 13.9307L37.4375 17.0366ZM27.9402 14.6344C27.9936 14.416 28.144 14.2268 28.1974 14.0278C28.4255 13.1688 28.4109 12.3681 28.2993 11.4897C29.333 11.8148 30.454 11.9119 31.5266 11.7226C31.6867 11.5334 30.8083 10.2425 30.9005 10.1503C31.9148 10.4997 33.0795 10.9364 34.1666 10.9413C34.283 10.9413 34.3995 10.9898 34.3655 10.82L33.5794 9.91246C34.2005 10.1017 35.0692 10.3153 35.5885 10.6986C35.836 10.8831 37.1123 12.1254 36.8115 12.4312C36.5057 12.339 35.3653 12.601 35.472 13.0232C35.6564 13.2513 35.9525 12.9553 36.2291 12.9116C36.4523 12.8776 36.6901 12.9165 36.9182 12.9019L37.0492 13.5376C36.0398 13.4503 35.142 14.0278 34.9042 15.0178L34.0744 15.1391C33.8026 14.8188 33.7395 14.4403 33.3707 14.1782C32.2108 13.3629 30.2065 14.1346 30.0221 15.571L27.6733 16.134C27.8189 15.6584 27.8286 15.0954 27.945 14.6344H27.9402ZM33.0261 17.5171C31.2257 18.9972 29.5271 15.7991 30.9393 14.7169C31.2305 14.4937 31.7838 14.2899 32.1429 14.2656C33.8754 14.1297 34.2054 16.5465 33.0261 17.5171ZM26.4503 20.3027C24.975 20.1086 23.6502 17.8956 24.7469 16.6436C25.6641 15.6002 26.6008 17.0366 27.5034 17.2356C27.5034 17.0172 27.4889 16.5756 27.717 16.464C27.848 16.4009 29.9445 15.969 30.027 16.0563C30.0901 18.643 33.3367 19.2399 34.0695 16.5125C34.2394 15.8865 33.9676 15.5468 34.8654 15.4254C35.0158 15.8088 35.1129 16.1874 35.3216 16.5513C35.4526 16.7891 36.132 17.5219 36.1417 17.5899C36.1757 17.8228 35.9282 18.2014 35.7389 18.3421C35.4866 18.5265 34.2733 18.6478 34.7878 19.0603C35.21 19.4001 36.6707 18.3761 36.5737 17.7209L37.4326 17.7112C37.4035 18.1334 37.4715 18.5945 37.4326 19.0118C37.3113 20.3027 36.5009 22.6273 35.2585 23.2193C33.3124 24.1463 31.2645 23.1223 29.6096 22.1129C29.4009 21.9867 29.3233 21.7343 29.0078 21.812C28.8623 21.9527 29.7358 22.7486 29.8717 22.8748C30.6967 23.6416 31.6479 24.3258 32.7107 24.6947C32.6136 25.4032 32.6476 26.102 32.6282 26.8105C32.6185 27.1794 32.6864 27.7423 32.667 27.9656C32.6088 28.5479 32.0458 29.4846 31.8808 30.0815C31.2936 29.3972 30.8568 28.5965 30.2648 27.917C29.6339 27.1891 28.8089 26.5533 28.178 25.8303C27.9062 25.5148 27.2608 24.7626 27.2705 24.3744C27.285 23.5445 27.5665 22.8166 27.5083 21.8508C27.4937 21.5888 27.3239 21.2248 27.353 20.987C27.3772 20.7977 28.0081 20.2056 27.4064 20.2348C27.0861 20.2493 26.8337 20.3512 26.4552 20.3027H26.4503ZM17.3073 51.983C16.1426 52.8274 14.3809 52.2111 13.5705 51.1531C12.1825 49.343 14.0121 45.9604 15.798 45.0335C17.0501 44.3832 17.6858 45.1645 18.6322 45.7712C19.0495 46.0429 19.4232 45.9313 19.1611 46.6981C18.341 46.1109 17.9479 46.0672 17.1569 46.6981C15.8563 47.7366 14.9924 49.3866 15.468 51.0658C15.5651 51.4006 15.7738 51.8762 16.1717 51.8956L15.9727 50.9542L17.6664 51.4637C17.812 51.5608 17.3898 51.9199 17.3122 51.9781L17.3073 51.983ZM17.7441 50.9978C17.1666 50.8231 16.5794 50.6678 15.9873 50.5514L15.866 50.4349C15.6136 49.3236 16.3949 47.9647 17.2345 47.2562C18.2827 46.3778 18.4429 46.8971 19.4378 47.3338C19.7678 47.4794 20.1803 47.5377 20.4423 47.6493C20.5637 47.7027 20.5151 47.9113 20.7772 47.8871C21.0004 47.8628 21.937 46.5088 22.2768 46.2274C23.5337 45.184 25.5622 45.2859 27.0618 45.6984C27.2656 45.7566 28.7992 46.1934 28.2314 46.5865C28.0373 46.7175 25.1303 46.4797 24.4946 46.5525C24.2665 46.5768 23.2376 46.7903 23.1066 46.8971L23.0678 47.2562C23.1891 47.4552 24.5965 47.4552 24.9508 47.4988C25.8146 47.6105 27.5714 48.023 28.2848 48.4985C28.44 48.6005 28.6293 48.6878 28.5128 48.911C28.2556 49.076 27.9353 49.0858 27.6393 49.0663C26.3727 48.9887 24.8149 48.4452 23.5434 48.8237C23.0921 48.9547 23.2231 49.1197 23.621 49.1489C24.8828 49.2411 26.6493 49.343 27.8577 49.639C28.5225 49.7991 28.6342 50.1486 27.8771 50.2505L23.6259 50.333C23.4221 50.3669 23.3202 50.5174 23.3493 50.7261C24.7809 50.7261 26.164 51.1046 27.6005 50.8862C27.7849 51.0803 27.1346 51.3618 26.989 51.4201C25.8291 51.8665 24.5771 51.7306 23.3929 51.9199C23.0047 51.983 22.5728 52.1771 22.1943 52.2159C21.2867 52.313 18.7778 51.3133 17.7538 51.0027L17.7441 50.9978ZM25.1449 43.0438C26.659 43.3059 28.2265 43.1845 29.7164 42.8448C29.7358 43.0244 29.6776 43.2525 29.7309 43.4223C29.7892 43.6019 30.1774 43.6359 30.027 43.8639C29.9833 43.9319 28.7652 44.0872 28.5711 44.1017C27.3093 44.2182 25.8437 44.1551 24.5916 43.9076C24.218 43.83 23.7763 43.6213 23.4318 43.5679C23.2813 43.5437 23.029 43.7281 22.9368 43.5097C22.8251 43.2379 23.126 43.3544 23.2134 43.2379C23.3007 43.1214 23.2813 42.5779 23.524 42.5488C23.6065 42.5391 24.8294 42.9856 25.1352 43.0389L25.1449 43.0438ZM23.9462 41.9179C24.9702 41.7286 28.2459 41.7092 29.1631 42.0975C29.3087 42.1605 29.498 42.2625 29.4786 42.4517C27.6975 42.8788 25.4652 42.9079 23.7278 42.2528C23.359 42.112 23.7084 41.9616 23.9413 41.9228L23.9462 41.9179ZM27.2559 45.2616C26.0718 44.9025 24.8391 44.8879 23.621 45.0529C23.3978 44.9365 23.5191 44.1017 23.6113 44.1017C25.5525 44.7666 27.6199 44.5919 29.6339 44.4997L28.9642 48.518C28.6779 48.023 27.8334 47.7852 27.2899 47.591C26.6056 47.3484 25.8825 47.0912 25.1449 47.096C25.1255 46.9602 25.3244 47.0232 25.4215 47.0184C26.1543 46.9893 28.2411 47.3387 28.6487 46.7806C29.2554 45.9507 27.8237 45.4363 27.2559 45.2616ZM28.6487 50.5611C28.5759 50.9687 28.4789 52.3324 28.2168 52.5702C27.6442 53.0895 24.4752 53.0312 23.9219 52.4586C23.8491 52.3809 23.7812 52.3421 23.8054 52.2208C24.3538 52.1868 24.9556 52.2693 25.4991 52.2208C25.8146 52.1917 26.3533 52.0606 26.6736 51.9781C27.0521 51.8811 27.814 51.6967 27.945 51.2793C28.11 50.7358 27.7655 50.6775 28.6487 50.5659V50.5611ZM18.6079 51.7452C19.8745 51.9781 21.0053 52.8323 22.3398 52.6818C22.5631 52.6576 23.1454 52.4246 23.2813 52.4634C23.3735 52.4926 23.4852 52.7498 23.6065 52.8517C24.349 53.4777 27.4161 53.5505 28.2702 53.104C28.9545 52.7449 29.0078 51.4492 29.134 50.7406C29.5077 48.6684 29.7552 46.5671 30.0415 44.4803C30.4734 44.1939 30.653 43.7329 30.488 43.2136C30.454 43.1069 30.289 43.1069 30.2357 42.9904C30.1289 42.7381 30.1968 42.4275 30.0124 42.112C29.5562 41.3258 27.5762 41.3792 26.7561 41.3501C26.0572 41.3258 25.3438 41.2773 24.6305 41.3501C24.315 41.3841 23.6938 41.4423 23.4318 41.5685C22.9999 41.782 23.0096 42.1994 22.8494 42.5634C22.5631 43.2185 22.0293 43.8154 23.0969 44.1551L23.0581 45.2131C22.0147 45.5868 21.4178 46.4166 20.7287 47.2222L19.6513 46.9116C19.826 46.2516 19.6853 45.611 18.9913 45.4024C19.1903 44.5628 19.0932 43.5776 19.2533 42.7526C19.53 41.287 21.0732 39.4477 21.6362 37.9676C21.7478 37.6764 21.8691 37.3804 21.8351 37.0649C21.8351 36.9921 21.6944 37.0164 21.6459 37.0358C21.1654 37.2202 18.6467 43.0389 18.011 43.8009C16.6958 42.5245 15.1477 42.4178 13.5608 43.2913C12.9978 43.6019 12.1534 44.2279 12.0661 44.9073C12.2505 45.0772 13.0464 44.2376 13.2551 44.0872C14.444 43.2234 16.4677 42.738 17.5451 44.0386C18.1711 44.7909 17.3413 44.3881 16.9919 44.3589C15.4437 44.2182 14.2354 45.4751 13.5026 46.6981C13.2551 47.1106 12.6193 48.4597 12.6193 48.8868V50.1097C11.5274 49.2653 10.285 47.9793 10.1783 46.5234C9.97444 43.7815 13.2987 36.9824 14.7061 34.4297C16.7541 30.7026 18.307 29.0429 22.0195 26.9319C22.3447 26.7475 24.6208 25.5197 24.7469 25.607L26.2562 30.7949C26.6639 31.0569 27.9014 29.6204 28.2168 29.3487C28.6196 28.9993 28.9156 28.6693 29.4786 28.8391C29.3912 28.611 29.3136 28.3441 29.0418 28.2859C28.5905 28.2422 27.4064 29.6253 26.9939 29.9407C26.8434 30.0572 26.6881 30.2028 26.4843 30.1785L25.1546 25.1703C25.5234 24.3452 26.0378 23.5057 26.9162 23.166L26.8774 24.1123C26.7658 24.0443 26.5183 23.991 26.4843 24.1511C26.3678 24.7189 29.5028 27.7035 30.027 28.3295C30.619 29.0332 31.1335 29.8097 31.6479 30.5716C31.5896 31.0812 31.279 31.5277 31.216 32.0421C31.0704 33.2942 31.4343 34.6384 31.5217 35.8953C31.8323 40.4377 31.6333 45.1403 31.6139 49.6875C31.6042 51.4443 31.842 53.4777 31.6818 55.1957C31.5751 56.3167 31.0267 58.1317 30.7161 59.2722C30.6336 59.5682 30.1289 61.4609 30.0173 61.5288C28.9787 61.6016 27.9353 61.3347 26.9842 60.9271C24.3199 59.772 20.5103 55.6276 17.5499 58.156L16.9579 58.7432C17.5888 56.438 18.3701 54.1668 18.6128 51.7695L18.6079 51.7452ZM19.3164 61.0435C18.7875 60.8834 17.1471 59.9856 17.1132 59.4226C17.0792 58.8742 18.5497 57.9813 19.0447 57.8163C19.0786 58.1997 18.9864 58.5685 19.0058 58.9567C19.0204 59.2673 19.3844 60.961 19.3213 61.0435H19.3164ZM4.61674 94.9368C5.00013 95.9219 5.5194 96.8391 6.15999 97.6593C5.94161 97.6981 5.6941 97.669 5.36895 97.4894C4.56336 97.0478 4.36439 95.9074 4.61189 94.9368H4.61674ZM11.639 108.549C9.5862 108.807 6.96073 108.515 5.33984 107.127C4.02953 106.006 3.651 104.196 2.74834 102.784C2.28731 102.066 1.60304 101.43 1.09347 100.736C0.185966 99.5083 -0.83316 97.8583 0.80715 96.7275C0.977004 99.1443 2.88423 100.668 3.94218 102.614C4.49057 103.614 4.77204 104.788 5.53396 105.667C7.29559 107.7 10.8189 107.671 13.2502 107.205C13.4152 108.302 12.4689 108.438 11.6342 108.545L11.639 108.549ZM11.4934 104.914C12.3087 105.327 13.1483 105.807 13.2502 106.817C11.6681 107.035 9.93562 107.147 8.36325 106.783C5.3641 106.089 5.37381 104.206 4.09747 101.988C3.16085 100.362 1.47201 98.955 1.27789 96.9314C1.20024 96.0918 1.39921 95.9559 1.98643 95.4318C2.64158 94.8494 3.48114 94.3496 4.34497 94.1554L4.36439 94.2234C4.36439 94.2234 4.36439 94.2331 4.36924 94.2428C3.70923 95.4318 4.05865 97.7321 5.52425 98.0378C5.73778 98.0815 6.2619 98.0136 6.30558 98.198C6.14543 99.3239 6.43176 100.629 6.71323 101.731C6.9122 102.517 7.18397 103.386 7.59162 104.085C7.66927 104.221 8.02354 104.618 7.97015 104.691C7.80515 104.682 7.3878 104.963 7.41691 105.123C7.44603 105.274 7.5625 105.196 7.63045 105.186C8.05751 105.113 8.58648 104.827 9.05237 104.716C10.12 104.458 10.4986 104.419 11.4837 104.914H11.4934ZM9.77547 102.891L10.3384 103.944L10.2268 104.06C9.79488 104.022 8.58648 104.56 8.29045 104.415C7.68868 104.119 7.05294 101.299 6.9122 100.591C6.76661 99.8529 6.51911 98.955 6.72779 98.3193C7.0675 98.6833 7.43147 99.023 7.81486 99.3384C7.65471 99.3675 7.35383 99.5568 7.18882 99.5665C6.93647 99.9159 8.0478 99.7752 8.33898 99.7412C8.65928 99.9693 8.98928 100.183 9.33385 100.377C9.33385 100.484 9.33385 100.6 9.31443 100.746C9.04752 100.726 7.57706 100.789 7.65956 101.178C7.72265 101.483 9.0281 101.013 9.39208 101.338C9.46002 101.396 9.62017 102.216 9.62988 102.362C9.64444 102.58 9.46973 102.376 9.27561 102.391C8.82428 102.425 8.2031 102.483 7.89736 102.833C7.89251 103.119 9.55223 102.745 9.77547 102.886V102.891ZM27.4743 74.9134C26.2125 77.2573 25.2565 79.8488 23.7132 82.0278C22.6698 83.5031 21.3256 84.5999 20.1026 85.9005C17.4966 88.6716 14.9585 91.5251 12.5708 94.4951C11.8817 92.9519 9.82399 90.2488 9.82399 90.2488L5.43204 90.7583C5.92705 90.1906 6.68412 89.4286 6.90735 89.1763C8.64472 87.2108 10.3772 85.2405 12.1049 83.2653C13.2454 81.9647 14.4586 80.2759 15.6476 79.0869C16.2396 78.4948 16.7929 78.4609 17.3995 78.0824C17.9673 77.7232 18.8797 74.9376 19.1563 74.166C20.0492 71.691 20.7335 68.6918 21.7332 66.343C21.772 66.2508 21.772 66.1537 21.874 66.0906C23.4997 68.6918 25.4166 71.1863 26.989 73.8166C27.1637 74.1126 27.5568 74.6076 27.4743 74.9134ZM32.5699 83.5953C31.7789 81.4988 31.381 80.043 30.2211 78.0678C27.8625 74.0592 25.1206 70.2836 22.6262 66.3624C21.0587 63.9019 19.3456 61.2571 19.5106 58.1997C19.5979 58.0735 20.4909 58.19 20.6753 58.2239C23.6841 58.7383 25.9262 61.8151 29.1971 61.9899C30.1289 62.0384 30.3182 62.0384 30.6627 61.1648L31.842 56.7875C32.138 58.1463 32.2496 59.6216 32.6864 60.9416C33.1572 62.3635 33.4969 61.8879 34.7538 61.6696L34.1666 63.8146L32.138 61.5628L31.876 61.2765L31.6818 61.3978C31.6188 61.6938 33.0261 64.7221 33.2639 65.2413C34.6713 68.3327 36.2922 71.327 37.7287 74.4038C39.2913 77.7378 40.4075 81.13 41.6741 84.5465L33.293 84.0418C33.4144 84.3767 33.5357 84.7164 33.6764 85.0804C34.7053 87.8029 35.8845 91.1903 37.1172 94.6068C35.4914 90.9233 33.9142 87.1574 32.5651 83.5856L32.5699 83.5953ZM44.7995 109.816C44.7121 109.874 44.7461 109.937 44.6442 109.816C44.3093 109.408 43.5814 107.181 43.46 106.589C43.4164 106.37 43.3921 106.176 43.3872 105.992C43.8046 105.778 44.1977 105.575 44.5811 105.371C45.309 105.322 46.1292 104.774 46.5563 104.279C46.9008 104.075 47.2357 103.876 47.5414 103.682L48.7401 103.75C49.4389 103.619 50.1572 103.614 50.856 103.497C53.1563 103.119 53.5057 101.614 55.3159 100.557C56.3981 99.9208 58.3927 99.0521 59.4118 100.125C55.5877 100.882 53.462 104.677 50.2008 106.467C48.5071 107.399 46.9833 107.894 45.4352 109.185C45.2265 109.36 45.0033 109.68 44.8043 109.816H44.7995ZM57.5386 102.624C55.4712 104.022 53.7823 106.006 51.715 107.433C50.6182 108.19 49.4098 108.739 48.2791 109.433C47.3182 110.025 46.4543 110.762 45.4692 111.306L44.9984 110.398C44.9984 110.068 46.333 109.054 46.6533 108.831C48.1432 107.792 49.9097 107.273 51.3947 106.249C53.8454 104.56 55.971 101.571 58.912 100.692C59.7903 100.43 60.0427 100.411 60.1106 101.459C59.2031 101.532 58.2811 102.119 57.5337 102.624H57.5386Z" fill="black"/>
<path d="M26.9889 73.8124C25.4166 71.1821 22.9755 67.8287 21.3498 65.2227C21.2479 65.2857 21.2478 65.3828 21.209 65.475C20.2093 67.8287 18.8359 70.9492 17.943 73.4242C17.6663 74.1958 16.9918 77.7822 16.4191 78.1413C15.8125 78.5247 15.2593 78.5587 14.6672 79.1459C13.4782 80.3349 12.265 82.0188 11.1245 83.3243C9.39686 85.2994 7.65949 87.2649 5.92698 89.2352C5.59697 89.6089 4.01005 91.2395 3.9324 91.5598C3.87902 91.7733 4.01005 92.3703 4.07799 92.6372C5.70374 98.9752 10.2898 100.945 10.7266 100.577C13.7597 99.6449 18.5739 93.006 22.5776 86.6826C23.5336 85.1733 24.2858 84.9112 24.8973 83.2127C25.7805 80.7473 26.4503 77.7094 27.712 75.3702C27.7945 75.0645 27.1636 74.1036 26.9889 73.8124ZM19.0009 78.8887C18.3458 79.1653 17.579 79.4031 16.8753 79.2478L16.9772 79.0731L20.0298 77.9909C20.0589 78.4713 19.3892 78.7285 19.0058 78.8935L19.0009 78.8887Z" fill="white"/>
<path d="M34.7543 61.6741L34.1671 63.8191L32.1385 61.5673L31.8765 61.281L31.6823 61.4023C31.6192 61.7032 33.9487 63.9744 34.3903 64.7509C36.1956 67.9296 39.782 72.3749 41.2233 75.4517C42.9849 79.2176 49.0803 95.1451 51.0555 99.2265C49.8665 101.915 47.4012 103.138 42.3686 106.297C42.2133 106.331 42.2716 106.263 42.2327 106.195C42.0968 105.967 41.9561 105.652 41.8445 105.404C39.1608 99.6729 34.8077 89.5011 32.5704 83.595C31.7794 81.4985 31.3815 80.0426 30.2216 78.0675C27.863 74.0589 25.1211 70.2833 22.6267 66.362C21.0592 63.9016 19.346 61.2567 19.5111 58.1993C19.5984 58.0732 20.4914 58.1896 20.6758 58.2236C23.6846 58.738 25.9267 61.8148 29.1976 61.9895C30.1294 62.038 30.3187 62.038 30.6632 61.1645L31.8425 56.7871C32.1385 58.1459 32.2501 59.6213 32.6869 60.9413C33.1576 62.3632 33.4974 61.8876 34.7543 61.6692V61.6741Z" fill="white"/>
</g>
<defs>
<clipPath id="clip0_2414_66076">
<rect width="41.848" height="65.9106" fill="white" transform="translate(3.64453 4.73828)"/>
</clipPath>
</defs>
</svg>
