<svg width="52" height="80" viewBox="0 0 52 80" fill="none" xmlns="http://www.w3.org/2000/svg">
<g clip-path="url(#clip0_2414_66078)">
<path d="M32.4086 31.7642C32.5903 32.7483 32.454 33.3034 31.5154 33.7122C29.2797 34.6862 25.1263 32.8391 23.9101 30.8154C23.5467 30.2149 23.9202 30.2098 24.0665 29.6244C24.2987 28.6958 24.2482 27.2777 24.2684 26.2886C24.2684 26.1019 24.1675 25.8394 24.2179 25.6275L24.5561 25.4609C25.0102 27.843 26.7665 29.6396 28.8053 30.8154C29.3453 31.1233 30.824 31.7642 31.4043 31.7642H32.4137H32.4086Z" fill="white"/>
<path d="M35.163 26.7463C34.7592 26.8675 34.3252 26.7867 33.9114 26.8069C33.2604 26.8422 33.0837 26.8422 32.4479 26.8069C31.5344 26.7514 30.5756 27.0037 29.6621 26.8069C29.7933 26.5697 30.0053 26.4789 30.2425 26.3779C31.2518 25.954 32.4731 26.0247 33.543 26.0095C34.1839 25.9994 34.9611 26.0095 35.168 26.7463H35.163Z" fill="white"/>
<path d="M31.3079 19.0407L31.2473 18.7985C31.434 18.8944 31.6157 19.2931 31.6107 19.4949C31.5753 20.3377 29.9957 19.9643 29.4457 19.9542C28.7089 19.9441 28.1487 19.9845 27.4421 20.2216C27.1293 20.3226 26.8567 20.5194 26.5388 20.5699C26.4126 20.4387 27.3664 19.2376 27.5481 19.1013C28.0831 18.7026 30.2985 18.7077 30.9445 18.8843C31.0909 18.9247 31.1666 19.0306 31.3079 19.0407Z" fill="black"/>
<path d="M31.0657 23.87C30.5964 24.9298 31.6006 24.5816 32.181 24.6775C32.5898 24.7481 32.6655 24.9651 33.2206 24.8894C33.9322 24.7935 34.8255 24.3949 34.2956 23.542C34.0432 23.1382 33.5335 23.0171 33.2358 22.6437C32.7664 22.0583 32.6453 21.1246 33.2055 20.5645C33.044 21.0944 33.0793 21.6545 33.2812 22.1693C33.5487 22.8556 34.3359 22.8859 34.6741 23.5268C35.2494 24.6119 33.9019 25.1569 33.044 25.2074C32.6655 25.2275 32.4485 25.0156 32.1305 24.9752C31.752 24.9248 31.2322 25.0711 30.9093 24.7885C30.5863 24.5059 30.6216 23.981 31.0657 23.87Z" fill="black"/>
<path d="M29.6579 21.1507L29.6882 21.292C29.7992 22.1449 28.7697 22.0692 28.8908 21.2567L28.9261 21.1205C29.022 20.8025 29.4812 20.6511 29.6579 21.1558V21.1507Z" fill="black"/>
<path d="M34.907 21.0742V21.2407C35.023 21.9927 34.0692 22.1037 34.1903 21.2761L34.2408 21.0288C34.3165 20.7815 34.8414 20.6553 34.9019 21.0742H34.907Z" fill="black"/>
<path d="M24.0312 23.4412L23.4811 22.5227C23.3095 23.0172 23.2893 23.5926 23.4811 24.0821C23.3448 24.1881 23.2086 23.8954 23.1631 23.7894C22.9461 23.2645 23.0572 22.6791 23.2086 22.1593C23.0319 21.9221 22.5374 21.7758 22.2699 21.8918C22.174 21.9322 22.2346 22.0483 22.1387 22.0332L22.169 21.7859C23.1985 21.1449 24.0665 22.5176 24.0362 23.4361L24.0312 23.4412Z" fill="black"/>
<path d="M23.5564 24.9614C23.1173 24.5223 24.1973 24.0782 24.1569 24.7595C24.1367 25.0825 23.7179 25.1178 23.5564 24.9614Z" fill="black"/>
<path d="M21.7456 24.2338C22.1898 24.9403 23.0578 25.8588 23.9712 25.7074C23.8097 27.0599 24.0419 28.4578 23.7239 29.8003C23.6987 29.8003 23.6785 29.8003 23.6583 29.8003V30.9004C24.6424 32.4497 26.3987 33.5196 28.1296 33.9991C29.3509 34.3372 31.1274 34.5491 32.1872 33.7114C32.4092 33.5348 32.7776 33.1209 32.7776 32.8333C32.7776 32.581 32.7271 31.9855 32.7776 31.7937C32.7776 31.7785 32.818 31.7432 32.8533 31.718L32.8432 31.6927L33.1006 31.5918L33.0855 31.5817C33.1561 31.5666 33.2217 31.5413 33.2924 31.5161H33.3075C33.8374 31.3142 34.3673 30.9004 34.7105 30.4866C35.5432 29.4874 36.6938 25.8841 36.7039 24.582C36.7089 23.6484 36.3658 22.7501 36.3304 21.8316C36.285 20.6305 36.5121 19.9189 36.2447 18.6169C36.169 18.2434 35.8561 17.5319 35.846 17.2341C35.8409 17.0827 36.1084 16.7648 36.1437 16.5024C36.2144 15.9876 35.9721 15.7252 35.9721 15.4678C35.9721 15.3618 36.1084 15.1801 36.1488 15.0338C36.28 14.5543 36.2093 14.2011 35.9065 13.8125C35.846 13.7368 35.7047 13.7166 35.6693 13.6207C35.5533 13.2876 35.7753 13.0303 35.4422 12.566C35.0789 12.0613 34.7508 12.2329 34.438 12.0411C34.3774 12.0058 34.2109 11.6374 34.0998 11.5213C33.575 10.9561 33.1612 11.3043 32.7019 11.1479C32.5606 11.0974 32.3638 10.6482 31.8187 10.5625C31.3494 10.4868 30.7892 10.7441 30.6227 10.7139C30.441 10.6836 30.1483 10.3909 29.7547 10.3606C29.1844 10.3202 28.9018 10.6785 28.5838 10.7139C28.4476 10.729 28.0338 10.5473 27.8067 10.5524C27.2869 10.5625 26.9942 10.9763 26.6964 11.0318C26.4693 11.0722 26.2927 10.9662 26.0908 10.9662C25.6164 10.9662 25.1622 11.2337 24.8695 11.5869C24.8191 11.6525 24.7888 11.8039 24.7686 11.8191C24.6777 11.8796 23.9712 11.7938 23.5322 12.0815C23.0981 12.3692 23.1537 12.7779 22.977 12.9293C22.8761 13.0151 22.6187 13.0504 22.4572 13.1463C22.0434 13.3835 21.7911 13.8428 21.7204 14.3121C21.7053 14.4231 21.781 14.5342 21.7507 14.6452C21.7204 14.7714 21.5488 14.8723 21.4782 14.9884C21.2359 15.4173 21.1451 15.7252 21.2511 16.2349C21.3066 16.5124 21.5539 16.6588 21.5791 16.7648C21.6346 17.002 21.4025 17.3754 21.5438 17.8347C21.6699 18.2384 21.9374 18.3444 22.0636 18.6018C22.1797 18.844 22.1494 19.2931 22.2604 19.6313C22.3563 19.9189 22.5329 20.1662 22.6894 20.4236C20.7414 20.7314 20.918 22.9217 21.7456 24.2439V24.2338ZM31.5159 33.7114C29.2803 34.6854 25.1269 32.8383 23.9107 30.8146C23.5473 30.2141 23.9208 30.209 24.0671 29.6236C24.2992 28.695 24.2488 27.2769 24.269 26.2878C24.269 26.1011 24.168 25.8386 24.2185 25.6267L24.5566 25.4601C25.0108 27.8422 26.7671 29.6388 28.8059 30.8146C29.3459 31.1225 30.8246 31.7634 31.4049 31.7634H32.4143C32.5959 32.7475 32.4597 33.3026 31.521 33.7114H31.5159ZM33.8626 29.4268C33.5952 29.3662 33.5144 29.0483 33.5851 28.8111C33.6507 28.5941 34.766 28.3014 34.549 27.6655C34.443 27.6655 34.4783 27.8169 34.4077 27.8926C33.797 28.5739 31.3746 28.4023 30.6328 27.8472C30.5621 27.9229 30.8599 28.1651 30.9154 28.2055C31.3292 28.4881 31.8944 28.5992 32.3285 28.8414C32.4092 29.775 31.0163 29.6388 30.4309 29.4268C29.6537 29.1492 29.0734 28.3216 29.25 27.4788C29.4266 26.636 29.795 27.065 30.3552 27.1154C30.9608 27.171 31.6875 27.1053 32.3133 27.1154C33.0602 27.1205 33.8778 27.2113 34.6297 27.1154C34.8619 27.0852 35.0587 26.9439 35.2757 26.8782C35.523 27.6554 34.8972 29.669 33.8525 29.4319L33.8626 29.4268ZM29.6588 26.8076C29.79 26.5704 30.002 26.4796 30.2391 26.3786C31.2485 25.9547 32.4698 26.0254 33.5397 26.0102C34.1806 26.0001 34.9578 26.0102 35.1647 26.747C34.7609 26.8682 34.3269 26.7874 33.9131 26.8076C33.2621 26.8429 33.0855 26.8429 32.4445 26.8076C31.5311 26.7521 30.5722 27.0044 29.6588 26.8076ZM23.9712 21.2765C24.0419 21.3522 24.1832 21.7004 24.2791 21.6096C24.6121 20.4337 25.46 19.49 26.3886 18.733L26.2372 16.1642C28.6343 15.5536 31.2434 15.1801 33.7163 15.5586C34.2613 15.6444 34.7912 15.6545 35.0486 16.1794C35.4523 16.9969 35.6794 18.0416 35.9519 18.9146C35.4523 18.7784 33.8374 18.733 33.5144 19.1367C33.3277 19.3688 33.1056 20.146 33.5397 20.2015C33.7768 20.2318 34.5742 19.9694 34.9426 19.9543C35.3615 19.9391 35.6744 20.035 36.068 20.146C36.0983 20.8071 35.9671 21.4682 36.0125 22.1294C36.0529 22.735 36.28 23.3607 36.3203 23.9613C36.396 25.0362 36.063 26.0203 35.8308 27.0498L35.5987 26.3938C35.3413 25.8084 34.2512 25.3289 33.6355 25.3138C33.1561 25.2987 32.8685 25.3239 32.3688 25.2835C31.7128 25.228 30.7892 25.5207 30.1735 25.7629C29.4065 26.0657 28.8412 26.4745 28.5838 27.2921L28.4728 27.3425C26.9942 26.9338 25.8334 26.0758 25.2632 24.6123C24.9048 23.6837 24.9048 22.6391 24.3598 21.7811C24.2034 21.7559 24.3093 21.8467 24.3245 21.9426C24.4305 22.7148 24.7282 23.9462 24.6374 24.688C24.5314 25.5611 23.7492 25.4702 23.1486 25.1321C21.9374 24.4559 20.9786 22.5886 21.7305 21.2866C22.2099 20.4539 23.3707 20.6002 23.9611 21.2613L23.9712 21.2765Z" fill="black"/>
<path d="M32.5597 32.0808C32.6859 32.0454 32.696 32.1161 32.7666 32.1615C33.236 32.4794 33.7053 32.9589 34.1898 33.302C36.8746 35.24 38.2473 35.3106 39.5695 38.6717C40.4173 40.8266 41.0936 43.0673 41.9465 45.2273C42.7136 47.1652 43.5917 49.0577 44.384 50.9855C44.4092 51.4397 43.0769 52.1563 42.6782 52.3329C42.2392 52.5247 41.2904 52.8578 40.8362 52.8881C40.7252 52.8931 40.6798 52.8477 40.6243 52.7568C39.9783 49.4261 39.5291 46.0499 38.8176 42.7342C38.6308 41.8561 38.434 40.5944 38.1262 39.787C38.0706 39.6507 38.0505 39.4943 37.8536 39.5246C37.8284 39.8677 37.9092 40.2008 37.9596 40.5339C38.6359 44.8336 39.519 49.3251 40.3568 53.6047C41.4923 59.4184 43.1577 65.2877 43.2334 71.2477C43.2435 71.9139 42.2896 72.2672 41.7345 72.4892C38.4138 73.8266 33.7457 73.1402 30.4906 71.8281C26.8368 70.3595 23.7281 67.6747 20.7708 65.1766C19.6403 62.3757 18.5856 59.479 18.2474 56.456C18.9792 56.2289 19.07 56.1482 19.3274 55.4518C20.0895 53.4079 20.7052 50.2436 21.1896 48.0483C21.8406 45.096 22.4614 42.0731 22.1384 39.03C21.982 39.0047 21.9163 39.0956 21.8911 39.2369C21.7902 39.8021 21.9264 40.7559 21.8911 41.3918C21.8356 42.4718 21.6691 44.2179 21.3511 45.2374C21.3107 45.3635 21.2956 45.5301 21.1442 45.5654C20.6547 42.8957 19.6302 39.8829 17.5056 38.0762C17.4248 38.0106 16.9858 37.6472 16.9252 37.7078C16.9505 38.0156 17.3138 38.1216 17.5056 38.3234C19.6706 40.5894 20.7607 44.0817 20.9524 47.1551L18.9035 55.3205L18.6562 55.2852C16.9555 54.5333 15.2548 53.7409 13.5288 53.0496C11.9997 52.4389 10.5109 51.8283 8.82031 52.1765C10.0668 48.7851 11.1771 45.3383 12.4589 41.9621C13.1806 40.0595 13.983 37.7279 15.2043 36.1029C17.1725 33.4837 20.5689 32.1514 23.2688 30.4355C23.829 30.8998 24.2984 31.5458 24.8636 32.0404C26.4129 33.3929 28.9564 34.8615 31.071 34.3568C32.3629 34.0489 32.5294 33.302 32.5547 32.0808H32.5597ZM22.2242 62.6028C22.9963 63.2589 24.0511 63.6425 24.9544 64.132C28.371 65.9791 32.5143 68.7042 36.5718 68.3106C36.6879 68.3005 37.1925 68.2147 37.1925 68.1037C37.0916 67.9523 36.9755 67.9876 36.8241 67.9775C36.2387 67.9321 35.6079 68.0229 35.0124 67.9725C31.4646 67.6596 27.8764 65.1464 24.7374 63.6122C23.9552 63.2286 23.072 62.7694 22.2242 62.6079V62.6028Z" fill="#F9D483"/>
<path d="M47.2344 121.09C46.0939 118.279 43.2122 118.652 41.2138 117.269C40.6183 116.856 40.9463 116.886 40.9968 116.417C41.0472 115.937 40.8807 115.175 40.9059 114.59C41.0119 112.127 41.8194 109.351 42.208 106.873C42.9851 101.892 43.4999 96.4672 43.7219 91.4307C43.8683 88.1756 43.5756 85.2284 43.4696 82.0035C43.4545 81.6049 43.4848 81.2011 43.4696 80.8024C43.944 80.8024 44.2064 80.974 44.6556 80.7066C45.4227 80.2524 46.5985 77.5827 46.8357 76.6844C47.4413 74.4083 45.9727 70.3357 45.4933 67.8982C44.8726 64.7339 44.4487 61.5243 43.7724 58.3701C43.3838 56.5483 42.8135 54.7567 42.4855 52.9399C43.1365 52.6523 43.9339 52.2132 44.4588 51.7287C44.6556 51.5471 44.9685 51.3351 44.8373 51.0222C43.9844 48.9581 43.0608 46.9243 42.2433 44.8401C41.3702 42.6145 40.694 40.2072 39.7805 38.0372C38.3876 34.7215 36.041 34.3128 33.4318 32.3143C33.0988 32.062 32.8919 31.8752 32.7657 31.7289L32.2005 31.6986C32.1449 32.1528 32.0036 33.0208 31.9481 33.1722C31.5848 34.1664 29.9396 34.1109 29.0867 33.9242C27.0983 33.4902 25.1099 31.8601 23.8129 30.3411L23.1821 29.9727C23.172 29.9777 23.1569 29.9827 23.1468 29.9878C19.1044 32.3042 15.486 33.7274 13.432 38.2189C11.3831 42.7003 10.081 47.8024 8.25919 52.3999C8.06237 53.596 9.55113 54.8274 10.5403 55.2462C10.5806 56.1647 10.3889 57.0832 10.4747 58.0017C10.6866 60.3686 12.7103 63.1493 13.9013 65.1478C13.7903 67.6509 13.1948 70.3811 13.8206 72.8489C14.0174 73.6211 14.3959 74.6052 15.1731 74.9332L15.1933 75.0392C14.1385 80.3432 13.6591 85.8794 12.1047 91.0673C11.7212 92.3391 11.7616 91.9757 11.0096 92.869C9.10198 95.14 8.70834 100.565 7.66369 103.502C7.00762 105.354 4.98392 107.807 5.45325 109.765C5.55419 110.199 5.80147 110.623 5.99829 111.017C4.98896 112.733 3.19741 114.529 4.20674 116.639C4.69121 117.648 6.71491 120.626 7.45677 121.494C9.26852 123.608 13.0888 123.976 15.7282 123.81C17.4542 123.699 18.4534 123.401 18.3323 121.453C18.191 119.132 17.2372 119.389 15.8594 118.218C15.0116 117.497 14.8703 116.164 14.7744 115.125C16.6366 115.407 16.2884 112.611 17.3129 111.915C17.8074 111.577 18.4585 111.542 18.953 111.072C20.2298 109.861 22.3898 104.623 23.2275 102.776C24.8324 99.2378 26.3211 95.6396 27.7998 92.0464C27.8755 92.0464 27.8452 92.4047 27.8402 92.5006C27.7241 94.1104 27.5626 95.5033 27.6787 97.1334C27.9159 100.484 29.3743 104.36 28.4609 107.6C27.9916 109.266 27.3002 110.517 27.3405 112.359C27.3708 113.555 27.9058 114.66 28.0017 115.831C28.0622 116.588 27.9058 117.497 28.0117 118.223C28.0723 118.657 28.4407 118.884 28.4962 119.228C28.7687 120.863 27.7493 123.204 29.9698 123.79C31.6807 124.239 34.3301 124.345 36.1469 124.476C38.968 124.678 42.8943 125.026 45.6144 124.441C47.7239 123.982 48.0318 123.088 47.2243 121.09H47.2344ZM43.3939 80.4744L43.3081 78.1328C43.7169 77.8602 43.9995 77.7745 44.2317 77.3051C44.3831 76.9922 44.378 76.5633 44.6303 76.3412C44.6202 77.7543 43.4545 79.0613 43.8027 80.4744H43.3889H43.3939ZM45.4832 69.7352C46.3411 73.5908 47.5221 75.3066 45.4176 79.1522C45.246 79.46 44.6001 80.6662 44.1459 80.3785C43.7018 80.101 44.918 77.3404 44.9584 76.7096C45.0189 75.8668 44.59 75.5085 44.6303 74.5598C44.6455 74.2115 44.8423 73.4394 44.7969 73.1568C44.7716 73.0155 44.701 72.9196 44.5445 72.9448C44.1761 73.7422 44.4285 76.9973 43.6311 77.3707C43.2324 77.5575 43.182 77.1739 43.1466 76.8661C42.9902 75.5539 43.0558 74.0702 42.965 72.7379L43.6361 71.6731C43.5907 69.4525 43.4595 67.2573 43.1214 65.067C42.5612 61.4132 41.5973 57.8352 40.9059 54.2117C40.911 53.9139 41.784 53.9896 42.0263 53.8534L42.1878 53.9291C43.8178 59.0716 44.3124 64.4967 45.4782 69.7452L45.4832 69.7352ZM8.82946 52.1829C10.076 48.7916 11.1862 45.3447 12.4681 41.9685C13.1898 40.0659 13.9922 37.7344 15.2135 36.1094C17.1817 33.4902 20.578 32.1579 23.278 30.442C23.8382 30.9063 24.3075 31.5523 24.8727 32.0468C26.4221 33.3993 28.9656 34.8679 31.0801 34.3632C32.372 34.0554 32.5386 33.3085 32.5638 32.0872C32.69 32.0519 32.7001 32.1225 32.7707 32.1679C33.2401 32.4859 33.7094 32.9653 34.1939 33.3085C36.8787 35.2464 38.2514 35.3171 39.5736 38.6781C40.4214 40.833 41.0977 43.0737 41.9506 45.2337C42.7177 47.1716 43.5958 49.0641 44.3881 50.9919C44.4133 51.4461 43.081 52.1627 42.6823 52.3394C42.2433 52.5312 41.2945 52.8642 40.8403 52.8945C40.7293 52.8996 40.6839 52.8541 40.6284 52.7633C39.9824 49.4325 39.5332 46.0563 38.8217 42.7407C38.6349 41.8625 38.4381 40.6009 38.1303 39.7934C38.0748 39.6572 38.0546 39.5007 37.8577 39.531C37.8325 39.8742 37.9133 40.2072 37.9637 40.5403C38.64 44.8401 39.5231 49.3316 40.3609 53.6111C41.4964 59.4249 43.1618 65.2941 43.2375 71.2542C43.2476 71.9204 42.2937 72.2736 41.7386 72.4957C38.4179 73.833 33.7498 73.1467 30.4947 71.8346C26.8409 70.366 23.7322 67.6812 20.7749 65.1831C19.6444 62.3822 18.5897 59.4854 18.2515 56.4625C18.9833 56.2354 19.0691 56.1546 19.3315 55.4582C20.0936 53.4143 20.7093 50.2501 21.1937 48.0548C21.8447 45.1025 22.4655 42.0796 22.1425 39.0364C21.9861 39.0112 21.9204 39.102 21.8952 39.2433C21.7943 39.8086 21.9305 40.7624 21.8952 41.3983C21.8397 42.4782 21.6732 44.2244 21.3552 45.2438C21.3149 45.37 21.2997 45.5365 21.1483 45.5718C20.6588 42.9022 19.6343 39.8893 17.5097 38.0826C17.4289 38.017 16.9899 37.6536 16.9293 37.7142C16.9546 38.0221 17.3179 38.128 17.5097 38.3299C19.6747 40.5958 20.7648 44.0881 20.9565 47.1615L18.9076 55.327L18.6603 55.2917C16.9596 54.5397 15.2589 53.7474 13.5329 53.056C12.0038 52.4454 10.515 51.8347 8.82441 52.1829H8.82946ZM11.1004 58.8798C10.6412 57.1236 11.0601 55.1857 11.3074 53.4194C12.6296 53.7625 13.9669 54.0603 15.274 54.4539C15.5869 54.5498 17.0706 54.9737 17.1615 55.1302C18.1355 59.334 19.5637 63.3966 21.224 67.3683C21.2543 67.4945 21.224 67.6105 21.1887 67.7316C21.0575 68.2111 20.3055 69.5232 20.028 70.0481C19.9523 70.1944 19.2609 71.5267 19.1599 71.451C18.302 70.1894 17.2422 69.0286 16.3136 67.8023C14.5927 65.5212 11.807 61.6 11.0954 58.8748L11.1004 58.8798ZM14.2748 72.9145C13.7096 70.7394 14.1587 68.1354 14.2849 65.9148L17.4088 69.937C16.5811 71.3753 15.597 72.7379 15.3548 74.4285C14.6987 74.4285 14.411 73.4394 14.2697 72.9095L14.2748 72.9145ZM16.3944 123.32C14.3959 123.608 10.4444 123.27 8.75376 122.114C7.61826 121.337 5.84185 118.541 5.07476 117.275C4.46916 116.275 4.06543 115.68 4.51458 114.494C4.54486 114.413 4.72149 113.929 4.85775 114.055C5.31699 115.438 6.25567 116.578 7.04295 117.784C8.13302 119.455 8.34498 120.469 10.4797 121.125C12.8113 121.842 15.5213 121.711 17.9235 121.499C18.0446 122.836 17.6207 123.144 16.3944 123.315V123.32ZM15.0419 117.89C15.6576 118.859 17.1261 119.106 17.6359 120.176C17.762 120.444 18.0244 121.07 17.6359 121.165C15.925 121.579 11.161 121.211 9.60159 120.358C8.35003 119.672 8.0119 118.566 7.29528 117.456C6.70482 116.543 5.16559 114.529 5.11008 113.52C5.06971 112.753 5.87717 112.056 6.23044 111.41C6.40707 111.41 7.00258 112.273 7.17921 112.45C7.81509 113.081 8.59227 113.434 9.24328 113.939C10.0407 114.559 10.1365 116.472 11.0651 117.411C11.5698 117.921 12.6346 118.36 13.3412 118.36H14.623C14.6684 118.163 14.5473 118.173 14.3959 118.138C12.9475 117.804 11.9432 118.132 10.9995 116.649C10.8178 116.361 9.99523 114.575 10.1567 114.388L14.3707 115.836C14.7189 116.457 14.6533 117.264 15.0469 117.89H15.0419ZM28.5063 118.481C28.1884 118.087 28.4003 116.215 28.3398 115.584C28.259 114.701 27.8503 113.823 27.7746 112.924C27.5575 110.451 28.5063 109.361 28.9757 107.201C29.6721 104.017 28.2489 100.187 28.0874 96.8911C27.8503 91.9707 30.6259 83.7093 32.7354 79.1976C33.129 78.3599 33.8659 77.2748 34.1485 76.4724C34.1939 76.3412 34.2343 76.2251 34.2141 76.0838C33.5075 76.9821 32.8818 78.1176 32.3519 79.1421C30.1011 83.5125 28.6779 88.2362 26.9166 92.8135C25.1352 97.4412 23.1266 102.17 20.9717 106.636C20.3964 107.832 19.3012 110.547 18.1102 111.057C15.5869 112.132 13.104 109.846 11.0046 108.857C10.8885 108.801 10.7876 108.731 10.6462 108.761C11.484 109.811 12.887 110.512 14.1183 111.032C14.4817 111.183 16.4802 111.829 16.5609 111.986C16.6114 112.087 16.5811 112.142 16.5609 112.233C16.5004 112.551 16.0764 113.58 15.92 113.913C15.6021 114.59 15.5465 114.756 14.734 114.711C12.9677 114.61 9.24328 113.262 7.79994 112.218C5.69045 110.689 5.37251 109.22 6.46258 106.858C7.06818 105.551 7.78985 104.456 8.26423 103.033C9.15749 100.353 9.33917 97.1687 10.4595 94.6403C11.378 92.5662 12.7961 92.5965 14.3555 91.3398C15.2538 90.6131 16.1774 89.3817 16.7931 88.4027C17.0454 87.999 17.7166 86.9442 17.8327 86.5455C17.8831 86.379 17.6863 86.384 17.6005 86.4446C17.4996 86.5102 16.5357 88.1504 16.3288 88.438C15.2286 89.9924 14.1032 91.36 12.2915 92.1322C12.8415 89.7653 13.4421 87.4085 13.9064 85.0214C14.5523 81.6907 14.9157 78.2287 15.6424 74.9282C15.9049 73.722 16.2531 71.9254 17.4996 71.3249C18.1809 70.9968 18.9429 71.345 18.8269 72.1525C18.7814 72.4503 18.3777 72.8338 18.9934 72.6521L22.0971 66.9898C24.0703 68.8823 26.2959 70.477 28.7788 71.6327C31.6403 72.9701 34.7692 74.1257 37.9738 73.939C39.5332 73.8482 40.9917 73.2173 42.5612 73.1921C42.7126 75.2158 42.7732 77.2446 42.8943 79.2733C43.1416 83.5327 43.5352 87.8173 43.3081 92.0968C43.0356 97.2495 42.4603 102.947 41.6276 108.034C41.2945 110.068 40.699 112.117 40.5779 114.181C40.5577 114.549 40.6536 116.497 40.487 116.613C40.0732 116.583 39.73 116.401 39.3011 116.371C36.2024 116.139 33.6842 118.46 30.7773 118.688C30.3534 118.723 29.1826 118.753 28.8142 118.672C28.7031 118.647 28.577 118.572 28.5063 118.486V118.481ZM29.0059 119.268C31.5343 119.752 33.7498 118.501 36.0763 117.774C37.5196 118.319 39.2102 119.455 40.8151 119.046C41.2087 118.945 41.7891 118.718 41.9001 118.274C41.4863 118.38 41.1835 118.657 40.7495 118.733C39.397 118.97 37.7265 118.132 36.5305 117.567C36.4699 117.431 36.7172 117.391 36.803 117.35C37.3682 117.103 38.6097 116.755 39.2102 116.78C40.0833 116.815 40.805 117.582 41.5973 117.956C43.4747 118.839 46.0384 119.036 46.871 121.292C46.8509 121.554 45.897 121.655 45.6245 121.711C41.3853 122.518 35.1477 122.049 30.8883 121.231C30.6158 121.181 29.1018 120.878 29.0009 120.802C28.7536 120.615 29.0614 119.591 29.0009 119.268H29.0059ZM46.9417 123.522C45.9778 124.4 41.7336 124.355 40.371 124.315C37.9738 124.244 35.2385 124.062 32.8515 123.815C32.0894 123.734 30.1616 123.553 29.5712 123.209C28.905 122.816 28.9201 121.948 28.9201 121.251C30.3181 121.478 31.7008 121.801 33.1089 121.983C36.9746 122.493 41.5569 122.826 45.3924 122.134C45.9273 122.039 46.4673 121.928 46.9821 121.751C47.2697 122.19 47.3454 123.149 46.9417 123.517V123.522Z" fill="black"/>
</g>
<defs>
<clipPath id="clip0_2414_66078">
<rect width="44.3436" height="69.8411" fill="white" transform="translate(3.58203 5.03711)"/>
</clipPath>
</defs>
</svg>
