<svg width="353" height="246" viewBox="0 0 353 246" fill="none" xmlns="http://www.w3.org/2000/svg">
<path d="M0 152.049H20.5M118.5 245.049C118.5 245.049 113 215.901 113 210.049C113 205.549 119.745 199.915 118.5 193.049C117.892 189.693 115 185.049 115 185.049C117.136 179.88 117.782 177.089 127 170.549L129 161.549L130.5 152.049H91.25M93.5 199.049L95 213.549L88.5 231.549M55.5 231.549L62.5 205.549L74.5 194.549L73 183.549L76 170.549M20.5 152.049L23 143.049L23.5032 143.121M20.5 152.049H52M40.5 145.549L52 152.049M40.5 145.549C51.3113 130.581 58.0155 122.003 65.3439 107.372C65.7367 106.587 66.5797 106.142 67.4419 106.303C73.056 107.354 90.9571 111.206 97.5 117.049C98.0481 124.133 96.2301 131.197 93.5 143.049M40.5 145.549L23.5032 143.121M52 152.049H91.25M91.25 152.049L93.5 143.049M93.5 143.049L106 145.364M117.5 151.049L107 145.549L106 145.364M23.5032 143.121C33.6532 123.866 39.6235 112.856 50.5 93.0488M50.5 93.0488C65.7237 96.1028 74.2615 96.4023 89.5 95.0488M50.5 93.0488L48.5 92.0488L56 63.5488L58 62.0488C58 62.0488 44.0656 66.8868 38 73.5488C32.8262 79.2313 28 91.0488 28 91.0488M89.5 95.0488L108 103.549C114.101 108.809 116.068 112.523 115 122.049L106 145.364M89.5 95.0488L99.5 63.5488L152.5 65.0488M28 91.0488C28 91.0488 26 103.549 24.5 103.549C22.0847 103.549 23.5 97.0488 23 97.5488C22.6895 97.8593 18 108.549 17 107.049C16 105.549 18.5 98.5488 18.5 98.5488C18.5 98.5488 15 106.049 13.5 106.049C10 106.049 18.5 89.0488 18.5 89.0488M28 91.0488L18.5 89.0488M18.5 89.0488C23.5 72.5488 34.0071 53.1247 70.5 43.0488M70.5 43.0488C69.5237 40.7056 68.4327 39.55 68 37.0488C67.6671 35.1247 68.5 33.0488 68 32.0488C67.296 30.6407 65.3829 32.6506 64 31.5488C62.2926 30.1884 63 27.7319 63 25.5488C63 24.5488 67.2871 25.2715 67 23.5488C66.5 20.5488 65.6379 17.9784 66.5 14.5488C67.0322 12.4315 68.5 9.54877 68.5 9.54877C68.5 9.54877 70.9909 5.84766 73.5 4.04877C76.4261 1.95092 78.4938 0.73589 82 1.04877C85.9381 1.40019 87.8887 4.08013 90.5 7.04883C93.3284 10.2643 94.3758 12.4914 95 16.5488C96 23.0488 95.5 28.5488 95.5 34.0488C95.5 36.5187 95.0892 37.6071 94 39.5488C92.7841 41.7163 89.5 44.0488 89.5 44.0488V45.5488M70.5 43.0488C71.4001 46.0659 72.3576 47.7416 74.5 50.0488C76.0149 51.6802 76.8597 52.9358 79 53.5488C81.0734 54.1426 83.1665 54.0489 84.5 53.0488C86.5 51.5489 89.5 45.5488 89.5 45.5488M152.5 65.0488C152.5 65.0488 169.5 65.0488 169.5 64.0488C169.5 60.5488 160.5 61.0488 160.5 61.0488C160.5 61.0488 171.5 61.5488 171.5 60.0488C171.5 57.9763 160 58.5488 160 57.5488C160 56.0488 171.259 57.0488 170.5 56.0488C168.782 53.7837 164 55.0488 163.5 54.0488C163.109 53.2677 166 53.0488 164.5 52.0488C163.38 51.302 153 55.5488 153 55.5488M152.5 65.0488L153 55.5488M153 55.5488C153 55.5488 138.671 53.4605 129.5 52.0488C113.858 49.6409 89.5 45.5488 89.5 45.5488M75.5 16.0488L82 14.5488M86.5 14.0488H91.5M86.5 20.5488L91.5 28.0488L84.5 29.5488M79 34.5488C81.9282 35.4316 83.5713 36.8043 86.5 35.5488M171.5 57.5488H254.5L262 95.5488M262 95.5488H253.5M262 95.5488H288M248 95.5488H253.5M253.5 95.5488L252.5 152.049M252.5 152.049L236.5 154.049L241 161.549V170.549C241 170.549 246.414 175.635 245 177.049C238.5 183.549 241 189.049 241 189.049C241 189.049 244.013 195.209 245 200.049C246.638 208.085 243.924 212.919 245 221.049C245.87 227.622 249.701 230.956 249 237.549C248.68 240.563 247 245.049 247 245.049M252.5 152.049H263.5M268.5 186.049C268.5 186.049 267.926 196.88 270.5 203.049C272.861 208.707 278.709 209.555 280 215.549C280.908 219.766 278.834 222.239 279 226.549C279.288 234.027 284 245.049 284 245.049M316 210.049C317.184 218.054 317.555 222.479 314.5 229.549L321 243.049M352.5 152.049H337.5M263.5 152.049L265 148.049L274.5 144.549M263.5 152.049H285.5M274.5 144.549L285.5 143.049V152.049M274.5 144.549C272.247 127.656 270.5 109.049 277 105.549C283.5 102.049 288 103.049 288 103.049M285.5 152.049H288M288 152.049V118.549M288 152.049H297.5M288 95.5488H295M288 95.5488V103.049M288 103.049L302 101.549M288 103.049V118.549M302 101.549V94.5488M302 101.549L331.5 107.049M331.5 107.049C330.394 110.763 327.978 116.549 323 116.549M331.5 107.049C334.102 76.5749 332 61.5488 319 54.0488M323 116.549C314.67 116.549 306.848 116.21 300.5 116.389M323 116.549H337.407M288 118.549C290.664 117.081 295.036 116.543 300.5 116.389M300.5 116.389L297.5 152.049M297.5 152.049H337.5M337.5 152.049C337.966 136.581 336.88 129.14 337.407 116.549M343.5 69.0488C339.308 92.8613 337.832 106.383 337.407 116.549M319 54.0488L317 58.5488C317 58.5488 314.852 62.1663 313 61.5488C310 60.5488 306.5 55.5488 306.5 55.5488M319 54.0488V48.5488M262 90.5488H267M267 90.5488C267 90.5488 269.293 86.0691 273 84.5488C276.974 82.9188 285.5 83.5488 285.5 83.5488V91.5488L270 90.711M267 90.5488L270 90.711M270 90.711L274 87.0488M286 83.5488C286 83.5488 295.581 84.1476 302 83.9551M313 70.5488C313 70.5488 310 82.7711 306.5 83.5488C305.482 83.775 303.876 83.8989 302 83.9551M302 83.9551L303.5 67.0488L306.5 55.5488M306.5 55.5488C300.226 54.1867 296.5 47.5488 298 45.5488C299.5 43.5488 292.588 45.3722 293.5 43.5488C295 40.5488 299.5 30.5488 299.5 30.5488M319 48.5488L314.5 45.0488L318 42.0488V38.5488L314.5 37.5488L312 38.5488V32.5488C307.945 32.0302 306.373 31.4275 306.5 29.0488C304.729 30.0367 304.36 30.4803 299.5 30.5488M319 48.5488L322.5 34.5488L322 29.0488L317 22.5488L311.5 19.5488H302C302 19.5488 295.027 21.3386 296.5 23.5488C297.131 24.4963 298.9 23.9147 299 25.0488C299.116 26.3536 296.724 25.4573 296 26.5488C295.45 27.3785 295.21 28.0964 295.5 29.0488C295.79 30.0012 299.5 30.5488 299.5 30.5488M284 92.5488C308.59 97.5282 318.253 95.3368 324 77.5488M301.5 47.5488H305.5" stroke="black" stroke-width="2"/>
<circle cx="81" cy="20.5488" r="1" fill="black"/>
<circle cx="90" cy="19.5488" r="1" fill="black"/>
<circle cx="302" cy="37.5488" r="1" fill="black"/>
</svg>
