<svg width="222" height="206" viewBox="0 0 222 206" fill="none" xmlns="http://www.w3.org/2000/svg">
<path d="M124.955 15.5946L178.138 34.2053C182.788 26.9388 192.619 25.6495 199.125 31.3287C206.937 38.1496 204.595 51.2526 194.702 54.5629L205.195 92.2872C211.306 90.9621 218.024 94.5394 220.379 100.319C224.502 110.433 216.466 121.148 205.677 119.673L196.41 152.962C204.473 157.404 205.474 169.025 198.527 175.026C191.265 181.299 180.595 178.441 176.737 169.936L124.929 190.021C124.507 190.372 124.724 192.71 124.626 193.527C122.815 208.704 99.2756 209.497 97.3332 192.61C97.2498 191.873 97.5119 189.909 97.0686 189.54L45.0205 169.931C40.7616 179.008 28.5068 180.701 22.0481 172.872C16.1281 165.693 18.9428 154.931 27.5034 151.551L15.8254 119.213C3.56829 120.445 -4.35846 106.465 3.46819 96.6938C6.4306 92.995 10.7324 91.4436 15.3988 91.4316L26.2975 53.8265C18.7044 50.9523 14.9103 42.5681 18.1873 34.9822C22.7441 24.434 37.9803 24.0122 43.1115 34.1815L96.928 16.0665L97.2236 15.7519C96.4943 10.5254 99.5282 5.044 104.049 2.48202C113.899 -3.09476 125.582 4.49109 124.958 15.5898L124.955 15.5946ZM109.149 1.87191C93.2149 3.88575 95.6554 28.9455 112.631 27.2582C128.942 25.6352 126.5 -0.320671 109.149 1.87191ZM176.103 41.3026C176.067 39.2077 176.574 37.1033 177.556 35.2611L124.691 16.5717C124.555 17.8205 124.181 19.3029 123.685 20.4493C123.404 21.0975 121.94 22.9969 122.176 23.4712L145.637 47.3965L176.103 41.3026ZM43.7097 34.9084C43.9766 36.1667 44.3317 37.3988 44.5962 38.6643C44.7226 39.2649 44.4413 40.0895 45.0634 40.3398L76.6417 46.7793L99.8857 22.6919C98.4652 21.0713 98.0935 18.9645 97.1854 17.0865L43.7073 34.9107L43.7097 34.9084ZM110.625 28.4903C107.722 28.2377 105.041 27.3249 102.7 25.5804C102.245 25.2396 100.887 23.6738 100.548 23.7334L78.012 46.9294L108.203 53.6645C109.34 53.9862 109.848 52.7207 110.887 52.368L110.625 28.4903ZM144.217 47.2917L121.44 24.21C118.561 26.6218 115.472 28.3878 111.59 28.4808C111.704 36.3717 111.943 44.253 111.826 52.1702C112.25 52.785 113.334 53.755 114.068 53.7193C114.895 53.6811 116.211 53.326 117.112 53.1664C126.133 51.5672 135.058 49.3794 144.079 47.7612L144.219 47.2917H144.217ZM28.6474 28.0637C14.7506 29.9441 14.8388 51.8937 29.3052 53.2355C48.388 55.0062 47.8685 25.4636 28.6474 28.0637ZM187.986 29.0146C172.349 30.9951 174.12 56.0143 191.706 54.1626C207.845 52.4633 205.15 26.8411 187.986 29.0146ZM75.624 47.7659L44.663 41.3336C44.5438 44.663 43.059 47.8112 40.845 50.2564C40.4541 50.6902 39.1314 51.5148 39.2029 51.8961L54.0387 69.8895L75.624 47.7659ZM176.134 42.5252L146.602 48.3594L167.442 69.4272L181.37 52.6468C178.445 50.0848 176.069 46.5886 176.134 42.5276V42.5252ZM108.73 54.6678L76.9825 48.04L54.7085 70.9739C55.7666 72.0273 61.5341 79.9611 62.1967 80.0874C62.3254 80.1113 63.1762 79.9158 63.2119 79.8777C63.4932 79.5631 67.9952 77.7638 83.4912 68.8409C91.0485 64.4939 98.9276 60.6736 106.509 56.3742C106.797 56.2098 109.142 55.0205 108.73 54.6678ZM113.732 55.6187C113.768 55.6592 114.433 55.7069 114.779 55.8832C129.324 63.338 143.633 71.2599 158.204 78.6646L159.946 78.3882L166.572 70.2232L145.063 48.5739L113.837 54.8918C113.699 55.0181 113.682 55.5567 113.732 55.6187ZM26.7623 98.4312L53.2284 70.7404L38.1138 52.3298C35.006 54.3461 30.8281 55.0491 27.277 53.9528L16.3164 91.8106C20.3036 92.2848 24.2288 94.8873 26.1164 98.436L26.7575 98.4312H26.7623ZM193.758 54.9037C191.012 55.6568 188 55.583 185.295 54.6773C184.623 54.4509 182.449 53.1711 182.094 53.3451L168.29 70.2303L196.136 98.7148C197.678 95.4974 200.972 93.5098 204.244 92.3969L193.758 54.9037ZM64.4322 80.9859C64.4322 80.9859 83.9202 90.302 84.2205 90.4807L99.092 97.9712C101.621 93.803 106.094 90.6857 111.116 90.8597L110.887 57.4467L109.056 56.1335L85.393 68.7194L64.4322 80.9883V80.9859ZM157.492 80.5569L157.685 79.6561C144.074 72.4873 130.535 65.1207 116.833 58.1163C116.347 57.8685 113.568 56.4076 113.375 56.4171C113.101 56.4338 112.319 57.256 111.876 57.3346L112.064 90.8597C117.129 90.874 121.34 94.0484 123.878 98.2215L157.492 80.5569ZM167.794 71.0978C167.494 70.8905 166.913 71.6126 166.724 71.8081C164.482 74.1222 162.527 77.1465 160.406 79.5488L160.635 80.0398L192.569 96.8058L167.794 71.0955V71.0978ZM54.1865 71.8128L28.9453 97.5232L61.098 80.8548L54.1865 71.8128ZM195.426 99.4322L160.106 81.1265L159.482 81.9487L155.654 105.142L194.001 105.383C193.817 103.279 194.752 101.355 195.428 99.4322H195.426ZM82.8906 90.8573L61.6485 81.5055L27.0578 99.6896L27.992 104.906L97.5405 104.668C97.4738 102.69 98.1101 100.807 98.6273 98.9436L82.8906 90.8573ZM158.493 81.5912L157.573 81.4506L124.266 99.2987C125.082 101.124 125.477 103.138 125.401 105.142H154.696L158.493 81.5912ZM109.149 92.1085C95.7245 93.8077 95.1573 114.644 109.149 117.223C128.173 120.731 129.688 89.5084 109.149 92.1085ZM12.4579 92.8282C5.80618 93.6361 0.996746 100.08 1.58541 106.658C2.55779 117.526 16.1305 122.006 23.4733 113.839C31.5169 104.892 24.2408 91.3983 12.4579 92.8282ZM205.853 93.3049C192.449 94.9136 191.322 115.383 204.702 118.369C223.899 122.652 225.984 90.8883 205.853 93.3049ZM97.7765 105.855H27.9896C27.9658 107.871 27.3152 109.94 26.3428 111.694L64.027 133.658C64.8755 132.745 65.998 133.622 66.7964 133.36L99.4233 111.782C98.7131 109.871 97.6025 107.998 97.7765 105.855ZM154.46 106.336L125.513 105.917C125.067 105.998 125.144 107.414 125.01 107.964C124.698 109.249 124.124 110.395 123.756 111.653L149.546 128.941L150.592 128.658L154.46 106.336ZM193.999 106.57L155.44 106.36L151.66 128.651C151.669 129.215 152.611 129.625 152.854 130.202C153.047 130.662 152.942 131.265 153.087 131.518C153.216 131.742 157.265 133.987 157.618 133.91L195.185 111.794C194.563 110.121 193.836 108.4 193.999 106.57ZM111.061 157.474L111.318 118.867C111.108 118.229 109.953 118.553 109.352 118.453C105.675 117.85 102.116 115.657 100.153 112.526L67.397 134.194L67.5829 135.448L109.683 158.146C109.879 158.355 111.018 157.543 111.058 157.474H111.061ZM112.302 118.474L112.129 157.18L114.083 158.47L139.434 144.287L148.926 132.883C147.801 132.054 148.724 130.069 148.268 129.552L123.27 112.616C122.939 112.528 121.378 114.58 120.877 115.026C118.671 116.997 115.298 118.515 112.3 118.474H112.302ZM63.1905 134.475L25.9233 112.79L25.6111 112.866C23.6807 116.039 20.3894 118.145 16.7978 118.956L28.483 151.086C32.9278 149.952 37.6323 150.746 41.212 153.675L62.9021 136.353C63.2954 136.029 63.405 134.847 63.1881 134.478L63.1905 134.475ZM198.129 116.012C197.545 115.369 196.201 113.293 195.793 112.979C195.581 112.814 195.459 112.714 195.188 112.857L158.512 134.547L177.809 146.468L198.889 117.04C199.23 116.439 198.405 116.32 198.131 116.015L198.129 116.012ZM204.716 119.43L199.711 117.626L178.858 147.288L185.602 151.527C188.982 150.848 192.218 150.882 195.421 152.283L204.714 119.428L204.716 119.43ZM156.126 134.902C156.2 134.559 156.093 134.516 155.878 134.32C155.69 134.146 153.03 132.581 152.856 132.552C152.268 132.461 150.842 134.015 149.732 133.26L142.313 142.521L156.126 134.902ZM177.084 147.29L157.306 135.247L140.523 144.9L128.502 160.379C132.756 160.469 137 160.472 141.252 160.608C146.946 160.789 152.692 161.17 158.381 161.342C161.224 161.427 164.077 161.301 166.915 161.52L177.084 147.29ZM109.445 158.956L67.2325 136.856L66.3698 137.328L72.0539 161.573C72.4209 161.551 72.7522 161.349 73.124 161.332C84.3706 160.855 95.7126 160.445 106.943 159.664C107.572 159.621 108.442 159.506 109.09 159.425C109.419 159.385 109.788 159.306 109.445 158.956ZM65.3402 137.566L63.4908 137.159L42.1486 154.189C41.9294 154.621 43.4332 156.029 43.8098 156.592C45.0705 158.484 45.6639 160.431 46.0786 162.657L71.1029 161.568L65.3426 137.566H65.3402ZM138.027 146.334L114.45 159.664C118.733 159.664 122.989 160.269 127.26 160.09L138.027 146.334ZM184.47 151.813L177.807 148.003L168.514 161.57L176.348 161.785C176.925 158.761 178.843 155.846 181.26 153.958C182.225 153.205 183.248 152.936 184.163 152.342C184.394 152.192 184.589 152.369 184.468 151.813H184.47ZM30.3157 151.871C25.9424 152.462 21.5453 156.623 20.4871 160.855C17.5438 172.621 31.1713 181.747 40.59 173.808C50.1302 165.767 43.1663 150.131 30.3157 151.871ZM187.752 152.352C183.35 152.883 179.16 156.582 177.792 160.729C174.22 171.582 185.364 181.132 195.428 175.741C207.5 169.275 201.87 150.648 187.75 152.352H187.752ZM111.061 162.097C110.985 161.968 109.464 161.02 109.307 160.422L72.2922 162.526L76.9443 180.851L97.4238 188.699C98.0768 187.212 98.42 185.796 99.2517 184.356C100.798 181.678 103.637 179.321 106.599 178.367C108.015 177.912 109.342 177.829 110.772 177.54C111.016 174.881 110.811 172.204 110.868 169.54C110.88 168.977 111.113 168.456 111.125 167.893C111.144 167.097 111.218 162.364 111.063 162.099L111.061 162.097ZM126.116 161.096C124.81 161.039 123.482 161.165 122.176 161.106C120.796 161.041 114.826 160.293 114.066 160.846C113.878 160.982 113.811 161.389 113.549 161.577C113.227 161.806 112.145 162.257 112.102 162.326C111.826 162.762 112.109 171.244 112.074 172.655C112.055 173.408 111.533 177.478 111.823 177.764L113.442 177.71L126.114 161.096H126.116ZM166.369 162.526C163.08 162.307 159.768 162.412 156.476 162.295C148.483 162.011 140.432 161.523 132.441 161.322C130.79 161.282 129.131 161.373 127.479 161.33L114.455 177.881C114.45 178.06 116.719 178.777 117.145 178.997C121.028 180.968 123.852 184.893 124.569 189.19L155.981 177.019L166.372 162.528L166.369 162.526ZM71.3151 162.547L46.0906 163.713C46.2431 165.457 45.8641 167.142 45.4137 168.811L75.624 180.379L71.3151 162.547ZM176.136 162.76L167.611 162.576L157.797 176.33L176.613 169.187C176.007 167.066 175.917 164.933 176.136 162.76ZM110.11 178.784C92.7311 180.281 96.1892 206.897 113.315 203.892C128.704 201.192 125.639 177.447 110.11 178.784Z" fill="black"/>
<path d="M97.7774 105.855C97.6035 107.998 98.7141 109.871 99.4243 111.783L66.7973 133.36C65.9989 133.623 64.8764 132.743 64.028 133.658L26.3438 111.694C27.3137 109.94 27.9668 107.872 27.9906 105.855H97.7774Z" fill="#FCF7ED"/>
<path d="M111.062 157.473C111.021 157.542 109.882 158.357 109.687 158.145L67.5863 135.447L67.4004 134.194L100.156 112.525C102.12 115.657 105.678 117.85 109.355 118.453C109.958 118.55 111.112 118.226 111.322 118.867L111.064 157.473H111.062Z" fill="#FCF7ED"/>
<path d="M112.304 118.474C115.303 118.515 118.675 116.996 120.882 115.025C121.382 114.58 122.941 112.528 123.275 112.616L148.273 129.551C148.728 130.068 147.806 132.054 148.93 132.883L139.438 144.287L114.087 158.47L112.133 157.18L112.307 118.474H112.304Z" fill="#FCF7ED"/>
<path d="M157.493 80.5559L123.879 98.2205C121.341 94.0474 117.13 90.873 112.065 90.8587L111.877 57.3336C112.323 57.255 113.104 56.4328 113.376 56.4161C113.569 56.4042 116.348 57.8651 116.834 58.1153C130.536 65.1197 144.075 72.4886 157.686 79.655L157.493 80.5559Z" fill="#FCF7ED"/>
<path d="M63.1911 134.475C63.408 134.846 63.2983 136.026 62.9051 136.35L41.215 153.672C37.6353 150.743 32.9307 149.949 28.4859 151.083L16.8008 118.953C20.3924 118.142 23.6837 116.035 25.6141 112.863L25.9263 112.787L63.1935 134.472L63.1911 134.475Z" fill="#FCF7ED"/>
<path d="M82.2503 90.5288L98.6281 98.944C98.111 100.808 97.4746 102.69 97.5414 104.669L27.9928 104.907L27.0586 99.69L61.6493 81.5059L63.2342 81.5726C71.5328 85.5216 82.2527 90.5288 82.2527 90.5288H82.2503Z" fill="#FCF7ED"/>
<path d="M26.7653 98.4314L26.1242 98.4362C24.2343 94.8876 20.3114 92.2851 16.3242 91.8108L27.2849 53.9531C30.8359 55.0494 35.0138 54.3463 38.1216 52.3301L53.2363 70.7406L26.7701 98.4314H26.7653Z" fill="#FCF7ED"/>
<path d="M193.759 54.903L204.245 92.3961C200.973 93.509 197.681 95.4967 196.137 98.714L168.291 70.2296L182.095 53.3443C182.45 53.1703 184.621 54.4501 185.296 54.6766C188.001 55.5846 191.013 55.6561 193.759 54.903Z" fill="#FCF7ED"/>
<path d="M166.37 162.525L155.979 177.015L124.568 189.187C123.85 184.89 121.029 180.967 117.144 178.993C116.715 178.777 114.448 178.059 114.453 177.878L127.478 161.326C129.129 161.369 130.788 161.279 132.44 161.319C140.431 161.519 148.481 162.008 156.475 162.292C159.766 162.408 163.079 162.304 166.368 162.523L166.37 162.525Z" fill="#FCF7ED"/>
<path d="M176.104 41.3031L145.639 47.3971L122.178 23.4717C121.942 22.9975 123.405 21.098 123.687 20.4498C124.185 19.3035 124.556 17.8211 124.692 16.5723L177.558 35.2616C176.576 37.1039 176.071 39.2083 176.104 41.3031Z" fill="#FCF7ED"/>
<path d="M43.7109 34.9082L97.1891 17.084C98.0995 18.962 98.4713 21.0688 99.8893 22.6894L76.6453 46.7768L45.067 40.3372C44.445 40.0894 44.7238 39.2624 44.5999 38.6618C44.333 37.3987 43.9802 36.1666 43.7133 34.9058L43.7109 34.9082Z" fill="#FCF7ED"/>
<path d="M85.3944 68.7167L109.058 56.1309L110.888 57.444L111.117 90.857C106.095 90.6831 101.622 93.8003 99.0935 97.9686L84.2219 90.4781C83.9216 90.2994 64.5122 80.9833 64.4336 80.9833L85.3944 68.7144V68.7167Z" fill="#FCF7ED"/>
<path d="M111.062 162.096C111.217 162.363 111.141 167.093 111.124 167.889C111.112 168.452 110.879 168.974 110.867 169.536C110.809 172.201 111.017 174.877 110.771 177.537C109.341 177.828 108.014 177.909 106.598 178.364C103.638 179.317 100.797 181.674 99.2505 184.353C98.4188 185.792 98.0756 187.208 97.4226 188.695L76.9432 180.847L72.291 162.522L109.306 160.418C109.465 161.016 110.986 161.965 111.06 162.093L111.062 162.096Z" fill="#FCF7ED"/>
<path d="M177.087 147.291L166.917 161.521C164.077 161.302 161.226 161.428 158.383 161.342C152.694 161.171 146.948 160.789 141.254 160.608C137 160.472 132.758 160.47 128.504 160.379L140.525 144.9L157.308 135.248L177.087 147.291Z" fill="#FCF7ED"/>
<path d="M193.999 106.569C193.834 108.399 194.561 110.12 195.186 111.793L157.618 133.91C157.266 133.986 153.216 131.741 153.088 131.517C152.942 131.264 153.05 130.661 152.854 130.201C152.611 129.622 151.67 129.215 151.66 128.65L155.44 106.359L193.999 106.569Z" fill="#FCF7ED"/>
<path d="M113.735 55.6191C113.685 55.5595 113.701 55.0185 113.84 54.8922L145.065 48.5742L166.574 70.2236L159.949 78.3885L158.207 78.665C143.635 71.2603 129.324 63.336 114.781 55.8836C114.438 55.7073 113.771 55.6596 113.735 55.6191Z" fill="#FCF7ED"/>
<path d="M108.732 54.6669C109.145 55.0196 106.802 56.2088 106.511 56.3733C98.9301 60.6702 91.051 64.4929 83.4937 68.84C78.0741 72.1694 66.1888 78.3253 63.2144 79.8767C63.1692 79.9006 62.3279 80.1103 62.1992 80.0865C61.5366 79.9602 55.7691 72.0287 54.7109 70.973L76.985 48.0391L108.732 54.6669Z" fill="#FCF7ED"/>
<path d="M195.425 99.4307C194.748 101.354 193.814 103.277 193.997 105.382L155.65 105.141L159.478 81.9472L160.102 81.125L195.422 99.4307H195.425Z" fill="#FCF7ED"/>
<path d="M110.626 28.4891L110.888 52.3667C109.849 52.7195 109.344 53.9873 108.205 53.6632L78.0137 46.9282L100.55 23.7321C100.888 23.6725 102.244 25.2383 102.702 25.5791C105.042 27.3237 107.723 28.2364 110.626 28.4891Z" fill="#FCF7ED"/>
<path d="M144.217 47.2907L144.077 47.7602C135.056 49.3784 126.133 51.5662 117.11 53.1653C116.209 53.325 114.896 53.6801 114.066 53.7183C113.332 53.754 112.248 52.7864 111.824 52.1691C111.941 44.252 111.702 36.3707 111.588 28.4797C115.47 28.3868 118.559 26.6208 121.438 24.209L144.215 47.2907H144.217Z" fill="#FCF7ED"/>
<path d="M75.6251 47.7663L54.0398 69.89L39.204 51.8965C39.1325 51.5176 40.4552 50.6906 40.846 50.2568C43.0601 47.8116 44.5449 44.6634 44.664 41.334L75.6251 47.7663Z" fill="#FCF7ED"/>
<path d="M198.131 116.012C198.408 116.317 199.23 116.436 198.889 117.036L177.809 146.465L158.512 134.544L195.188 112.854C195.46 112.711 195.581 112.811 195.793 112.975C196.201 113.29 197.547 115.366 198.129 116.009L198.131 116.012Z" fill="#FCF7ED"/>
<path d="M109.446 158.955C109.789 159.308 109.422 159.384 109.091 159.425C108.443 159.506 107.573 159.618 106.944 159.663C95.7139 160.445 84.3719 160.855 73.1253 161.331C72.7535 161.348 72.4222 161.548 72.0552 161.572L66.3711 137.327L67.2338 136.855L109.446 158.955Z" fill="#FCF7ED"/>
<path d="M176.137 42.5239C176.072 46.5849 178.448 50.0811 181.373 52.6431L167.445 69.4235L146.605 48.3557L176.137 42.5215V42.5239Z" fill="#FCF7ED"/>
<path d="M158.494 81.5898L154.697 105.139H125.402C125.478 103.139 125.083 101.123 124.268 99.2973L157.574 81.4492L158.494 81.5898Z" fill="#FCF7ED"/>
<path d="M187.988 29.0138C205.152 26.8379 207.85 52.4625 191.708 54.1618C174.122 56.0135 172.351 30.9967 187.988 29.0138ZM191.692 35.4557C190.543 36.3232 188.658 45.7132 187.428 47.5149L187.714 48.4658L188.62 48.218L193.041 35.4986C192.998 35.0148 191.978 35.2388 191.692 35.4557ZM185.834 38.0391C185.538 38.1154 181.915 40.6321 181.606 40.9658C181.332 41.2589 181.065 41.4472 181.124 41.9167C181.17 42.4172 185.938 45.6798 186.253 45.6202C186.756 45.5225 186.701 44.4763 186.394 44.0544C186.062 43.6016 183.05 42.0025 183.048 41.6903L186.746 39.1974C186.742 38.5944 186.534 37.8556 185.834 38.0368V38.0391ZM196.856 41.3375C196.947 41.7308 196.73 41.819 196.496 42.0454C195.934 42.5935 193.346 44.0139 193.148 44.4262L193.756 45.5178C194.065 45.7084 196.048 44.1998 196.456 43.9091C196.968 43.5444 199.013 42.1598 199.008 41.6903C199.004 41.0968 195.107 38.3776 194.463 38.1178C193.684 37.8056 193.248 38.4896 193.386 39.1903L196.854 41.3375H196.856Z" fill="#FCF7ED"/>
<path d="M65.3422 137.566L71.1026 161.567L46.0782 162.656C45.6636 160.431 45.0701 158.483 43.8094 156.591C43.4352 156.029 41.9314 154.62 42.1482 154.189L63.4904 137.158L65.3398 137.566H65.3422Z" fill="#FCF7ED"/>
<path d="M187.753 152.352C201.872 150.65 207.501 169.275 195.432 175.741C185.367 181.132 174.221 171.582 177.796 160.729C179.161 156.579 183.351 152.881 187.756 152.352H187.753ZM192.329 158.476C191.202 158.405 190.944 159.063 190.549 159.909C189.05 163.107 188.406 167.318 186.95 170.61C186.728 171.708 188.118 171.382 188.473 170.691L192.329 158.476ZM182.805 164.906C183.54 164.518 186.156 163.069 186.504 162.526C186.898 161.911 186.194 161.16 185.437 161.448C185.196 161.539 181.449 164.199 181.252 164.42C180.839 164.878 180.689 165.209 181.14 165.733C181.325 165.948 185.639 168.958 185.899 168.844C188.182 167.831 182.553 165.273 182.803 164.906H182.805ZM193.085 161.606L192.67 162.526L196.137 165.023C196.121 165.581 190.723 167.573 193.397 168.722L198.228 165.028C198.116 164.537 197.77 164.294 197.417 163.989C196.917 163.558 193.483 161.37 193.087 161.608L193.085 161.606Z" fill="#FCF7ED"/>
<path d="M154.461 106.337L150.593 128.659L149.547 128.942L123.758 111.654C124.125 110.396 124.699 109.25 125.011 107.965C125.145 107.415 125.069 105.999 125.514 105.918L154.461 106.337Z" fill="#FCF7ED"/>
<path d="M204.717 119.431L195.425 152.286C192.222 150.882 188.985 150.849 185.606 151.53L178.861 147.291L199.715 117.629L204.72 119.433L204.717 119.431Z" fill="#FCF7ED"/>
<path d="M109.151 1.87161C126.501 -0.320972 128.944 25.6349 112.633 27.2579C95.6572 28.9452 93.2167 3.88544 109.151 1.87161ZM110.164 7.28633H108.732L108.872 8.70674L108.582 9.15717L105.874 9.19053V10.6205L107.783 10.6181L107.543 18.7116H105.877V20.1439L108.751 20.2464C109.196 20.561 108.975 21.6024 108.737 22.0457H110.166L110.164 20.3798H111.596L111.594 22.0481H113.026L113.048 20.4037C116.611 20.2893 118.446 15.8588 114.692 14.4265C117.302 12.5032 116.106 9.26203 113.024 9.19053V7.52227H111.594V8.95221H110.164V7.28394V7.28633Z" fill="#FCF7ED"/>
<path d="M12.4603 92.8277C24.2431 91.3977 31.5169 104.892 23.4757 113.838C16.1353 122.006 2.56256 117.525 1.5878 106.658C0.999134 100.08 5.80857 93.6332 12.4603 92.8277ZM9.89349 100.142V111.095H12.9917L12.9894 113.002H14.66L14.6576 111.095C18.5352 111.784 21.5143 107.618 17.5223 105.263C20.7207 102.906 17.906 99.5913 14.6576 99.9059V98.2376H12.9894L12.9584 99.7534L12.6009 100.111L9.89587 100.144L9.89349 100.142Z" fill="#FCF7ED"/>
<path d="M109.15 92.1072C129.689 89.5071 128.173 120.73 109.15 117.222C95.1575 114.641 95.7248 93.8064 109.15 92.1072Z" fill="#FCF7ED"/>
<path d="M205.856 93.3072C225.987 90.8906 223.902 122.654 204.705 118.372C191.323 115.386 192.45 94.9183 205.856 93.3072Z" fill="#FCF7ED"/>
<path d="M28.649 28.0626C47.8701 25.4625 48.3896 55.0051 29.3068 53.2344C14.8404 51.8926 14.7522 29.943 28.649 28.0626Z" fill="#FCF7ED"/>
<path d="M110.111 178.783C125.638 177.446 128.703 201.19 113.316 203.89C96.1927 206.896 92.7345 180.282 110.111 178.783Z" fill="#FCF7ED"/>
<path d="M30.3167 151.87C43.1697 150.133 50.1336 165.767 40.591 173.808C31.1723 181.746 17.5448 172.621 20.4881 160.855C21.5463 156.622 25.9434 152.463 30.3167 151.87Z" fill="#FCF7ED"/>
<path d="M71.3154 162.547L75.6244 180.378L45.4141 168.81C45.8645 167.144 46.2434 165.457 46.0909 163.712L71.3154 162.547Z" fill="#FCF7ED"/>
<path d="M54.1885 71.8105L61.0975 80.8526L28.9473 97.5186L54.1885 71.8105Z" fill="#FCF7ED"/>
<path d="M167.794 71.0991L192.568 96.8095L160.635 80.0434L160.406 79.5525C162.525 77.1478 164.479 74.1258 166.724 71.8117C166.913 71.6163 167.494 70.8941 167.794 71.1015V71.0991Z" fill="#FCF7ED"/>
<path d="M126.116 161.098L113.444 177.711L111.826 177.766C111.535 177.478 112.057 173.407 112.076 172.656C112.112 171.246 111.831 162.764 112.105 162.327C112.148 162.258 113.232 161.81 113.552 161.579C113.814 161.393 113.881 160.983 114.069 160.847C114.829 160.297 120.797 161.045 122.179 161.107C123.485 161.167 124.813 161.043 126.119 161.098H126.116Z" fill="#FCF7ED"/>
<path d="M176.138 162.758C175.919 164.931 176.009 167.064 176.615 169.185L157.799 176.328L167.613 162.574L176.138 162.758Z" fill="#FCF7ED"/>
<path d="M138.029 146.336L127.261 160.092C122.99 160.271 118.734 159.668 114.451 159.665L138.029 146.336Z" fill="#FCF7ED"/>
<path d="M184.473 151.813C184.595 152.368 184.397 152.194 184.168 152.342C183.253 152.933 182.23 153.204 181.265 153.958C178.849 155.845 176.93 158.76 176.353 161.784L168.52 161.57L177.812 148.002L184.475 151.813H184.473Z" fill="#FCF7ED"/>
<path d="M156.126 134.901L142.312 142.52L149.732 133.259C150.842 134.014 152.267 132.46 152.856 132.551C153.03 132.577 155.69 134.145 155.878 134.319C156.092 134.514 156.2 134.557 156.126 134.901Z" fill="#FCF7ED"/>
<path d="M191.689 35.4565C191.975 35.2396 192.995 35.0156 193.038 35.4993L188.617 48.2185L187.712 48.4663L187.426 47.5154C188.656 45.7137 190.543 36.3239 191.689 35.4565Z" fill="black"/>
<path d="M196.856 41.3364L193.389 39.1892C193.25 38.4885 193.687 37.8045 194.466 38.1167C195.109 38.3741 199.006 41.0934 199.011 41.6892C199.013 42.1563 196.968 43.5433 196.458 43.9079C196.051 44.1987 194.068 45.7072 193.758 45.5166L193.15 44.4251C193.348 44.0104 195.936 42.5924 196.499 42.0442C196.73 41.8202 196.947 41.7297 196.859 41.3364H196.856Z" fill="black"/>
<path d="M185.833 38.0396C186.531 37.8584 186.739 38.5972 186.746 39.2002L183.047 41.693C183.047 42.0052 186.062 43.6043 186.393 44.0572C186.7 44.479 186.758 45.5252 186.252 45.6229C185.938 45.6849 181.169 42.4199 181.124 41.9194C181.064 41.4499 181.331 41.2593 181.605 40.9685C181.917 40.6349 185.54 38.1182 185.833 38.042V38.0396Z" fill="black"/>
<path d="M192.329 158.476L188.473 170.69C188.118 171.381 186.726 171.71 186.95 170.609C188.409 167.315 189.052 163.104 190.549 159.908C190.944 159.062 191.202 158.405 192.329 158.476Z" fill="black"/>
<path d="M182.806 164.907C182.555 165.274 188.185 167.831 185.901 168.844C185.642 168.958 181.326 165.95 181.142 165.733C180.692 165.207 180.842 164.878 181.254 164.42C181.454 164.199 185.201 161.539 185.439 161.448C186.197 161.16 186.9 161.911 186.507 162.526C186.159 163.069 183.542 164.518 182.808 164.907H182.806Z" fill="black"/>
<path d="M193.083 161.606C193.479 161.368 196.911 163.556 197.413 163.987C197.766 164.292 198.112 164.535 198.224 165.026L193.393 168.72C190.721 167.574 196.117 165.579 196.134 165.021L192.666 162.524L193.081 161.604L193.083 161.606Z" fill="black"/>
<path d="M110.163 7.28711V8.95535H111.593V7.52543H113.023V9.19367C116.102 9.26517 117.299 12.5063 114.689 14.4296C118.443 15.8619 116.608 20.2922 113.045 20.4066L113.023 22.051H111.591L111.593 20.3828H110.161L110.163 22.051H108.733C108.972 21.6054 109.193 20.5639 108.748 20.2493L105.873 20.1469V18.7169H107.539L107.78 10.6236H105.871V9.19605L108.578 9.16269L108.869 8.71226L108.729 7.29188H110.161L110.163 7.28711ZM109.923 13.717C114.57 14.1889 114.954 9.81569 109.923 10.6188V13.717ZM109.923 18.7169C111.202 18.7026 113.867 19.072 114.174 17.349C114.56 15.1827 111.524 15.2756 110.151 15.2446L109.923 18.7169Z" fill="black"/>
<path d="M9.89301 100.143L12.598 100.11L12.9555 99.752L12.9865 98.2363H14.6571L14.6548 99.9046C17.9031 99.5876 20.7178 102.903 17.5194 105.262C21.5138 107.617 18.5323 111.782 14.6548 111.094V113H12.9865V111.094H9.89062V100.141L9.89301 100.143ZM12.2858 104.654C18.3297 105.55 18.4179 100.462 12.2524 101.687L12.2858 104.654ZM12.0356 109.43H15.4889C16.1348 109.43 17.1167 108.463 16.9999 107.698C16.7258 105.903 13.5346 106.151 12.3072 106.606L12.0356 109.43Z" fill="black"/>
<path d="M109.924 18.7166L110.153 15.2441C111.525 15.2751 114.562 15.1822 114.176 17.3486C113.868 19.0717 111.204 18.7023 109.924 18.7166Z" fill="#FCF7ED"/>
<path d="M109.924 13.7166V10.6183C114.955 9.81518 114.571 14.1861 109.924 13.7166Z" fill="#FCF7ED"/>
<path d="M12.0332 109.428L12.3049 106.603C13.5323 106.148 16.7235 105.898 16.9976 107.695C17.1143 108.46 16.1324 109.428 15.4866 109.428H12.0332Z" fill="#FCF7ED"/>
<path d="M12.2853 104.653L12.252 101.686C18.4175 100.461 18.3293 105.549 12.2853 104.653Z" fill="#FCF7ED"/>
<path d="M111.264 57.461C112.877 57.461 114.186 56.1528 114.186 54.5391C114.186 52.9254 112.877 51.6172 111.264 51.6172C109.65 51.6172 108.342 52.9254 108.342 54.5391C108.342 56.1528 109.65 57.461 111.264 57.461Z" fill="black"/>
<path d="M158.844 83.0118C160.457 83.0118 161.766 81.7036 161.766 80.0899C161.766 78.4761 160.457 77.168 158.844 77.168C157.23 77.168 155.922 78.4761 155.922 80.0899C155.922 81.7036 157.23 83.0118 158.844 83.0118Z" fill="black"/>
<path d="M150.65 133.717C152.264 133.717 153.572 132.409 153.572 130.795C153.572 129.181 152.264 127.873 150.65 127.873C149.037 127.873 147.729 129.181 147.729 130.795C147.729 132.409 149.037 133.717 150.65 133.717Z" fill="black"/>
<path d="M111.594 162.879C113.207 162.879 114.516 161.571 114.516 159.957C114.516 158.343 113.207 157.035 111.594 157.035C109.98 157.035 108.672 158.343 108.672 159.957C108.672 161.571 109.98 162.879 111.594 162.879Z" fill="black"/>
<path d="M65.8711 138.35C67.4848 138.35 68.793 137.041 68.793 135.428C68.793 133.814 67.4848 132.506 65.8711 132.506C64.2574 132.506 62.9492 133.814 62.9492 135.428C62.9492 137.041 64.2574 138.35 65.8711 138.35Z" fill="black"/>
<path d="M62.4629 83.4571C64.0766 83.4571 65.3848 82.1489 65.3848 80.5352C65.3848 78.9215 64.0766 77.6133 62.4629 77.6133C60.8492 77.6133 59.541 78.9215 59.541 80.5352C59.541 82.1489 60.8492 83.4571 62.4629 83.4571Z" fill="black"/>
<path d="M100.689 112.715L106.092 112.744C105.995 112.15 105.887 111.557 105.887 110.952C105.618 111.288 105.437 111.769 105.313 112.184C105.277 112.305 105.327 112.477 105.153 112.479C105.084 112.227 105.189 111.926 105.287 111.686C105.439 111.307 105.69 110.983 105.861 110.616C105.809 109.801 105.792 108.99 105.773 108.175C105.754 107.36 105.678 106.419 105.742 105.62C105.761 105.392 105.773 105.325 106.007 105.268C106.464 105.153 107.124 105.137 107.608 105.106C109.114 105.013 110.649 105.029 112.16 105.079C113.013 105.108 113.962 105.11 114.801 105.258C114.989 105.292 115.346 105.346 115.442 105.527C115.566 105.763 115.568 106.395 115.582 106.679C115.668 108.206 115.649 109.758 115.611 111.288C115.599 111.783 115.625 112.279 115.554 112.772H118.755C118.685 111.528 118.447 110.296 118.087 109.109C117.496 107.155 116.367 104.77 114.498 103.771C114.353 103.695 114.176 103.645 114.036 103.559C114.005 103.54 113.955 103.537 114.012 103.492C114.315 103.511 114.574 103.609 114.839 103.752C117.258 105.063 118.857 109.831 118.962 112.434C118.967 112.534 118.964 112.632 118.933 112.727L118.974 112.772H120.487L120.47 113.008L100.694 112.949V112.713L100.689 112.715ZM106.474 112.744C106.424 111.867 106.307 110.992 106.238 110.115C106.169 109.238 106.119 108.373 106.092 107.501C106.078 107.069 105.987 106.292 106.097 105.894C106.149 105.701 106.571 105.668 106.755 105.642C108.375 105.406 110.323 105.406 111.95 105.461C113.054 105.499 114.164 105.544 115.239 105.813C115.304 105.804 115.254 105.656 115.227 105.62C115.146 105.511 114.331 105.42 114.152 105.401C112.572 105.237 110.952 105.256 109.367 105.284C108.411 105.303 107.408 105.289 106.459 105.401C106.3 105.42 106.138 105.451 105.98 105.496C105.947 105.542 105.947 105.597 105.942 105.649C105.89 106.381 105.956 107.153 105.973 107.882C106.006 109.217 106.071 110.544 106.149 111.876C106.166 112.162 106.202 112.453 106.207 112.744H106.471H106.474ZM111.457 109.503C111.71 109.248 111.705 108.966 111.538 108.664C111.161 107.985 110.082 108.271 110.208 109.083C110.287 109.6 111.066 109.893 111.459 109.5L111.457 109.503Z" fill="black"/>
<path d="M108.942 99.9985C109.225 101.14 109.597 102.427 110.498 103.245C111.628 104.269 112.867 103.619 113.441 102.398C113.532 102.205 113.703 101.617 113.82 101.514C113.851 101.486 113.889 101.462 113.935 101.467C113.947 101.774 113.82 102.108 113.696 102.387C113.534 102.756 113.31 103.104 113.024 103.39C113.274 103.418 113.482 103.621 113.73 103.552C113.596 103.979 113.131 104.365 112.757 104.591C111.599 105.294 110.598 104.877 110.09 103.676V103.643C110.133 103.604 110.353 103.485 110.367 103.464C110.419 103.383 110.243 103.292 110.176 103.211C109.442 102.365 108.915 101.114 108.854 99.9961H108.942V99.9985Z" fill="black"/>
<path d="M112.113 96.2385L111.863 96.0049C111.412 95.3519 110.673 94.9658 109.87 95.0397C108.566 95.1588 108.269 96.727 107.399 97.4444C107.101 97.6899 106.936 97.678 106.862 98.1427C106.784 98.6408 107.084 99.1699 107.511 99.4178C107.749 99.556 108.035 99.5631 108.235 99.7347C107.289 99.8682 106.388 98.7695 106.681 97.871C106.789 97.5445 106.972 97.5469 107.206 97.3681C107.985 96.7723 108.288 95.5497 109.146 95.0778C110.194 94.4987 111.815 95.0349 112.113 96.2385Z" fill="black"/>
<path d="M112.052 97.5621C112.052 97.5621 112.087 97.7504 112.102 97.7909C112.259 98.258 112.638 98.7633 112.976 99.1184C113.117 99.2661 113.706 99.8119 113.887 99.7952C114.185 99.5807 114.48 99.3448 114.85 99.5664C115.429 99.9192 115.162 100.93 114.473 101.111C114.375 101.137 113.977 101.187 113.934 101.099C113.92 101.039 113.977 101.049 114.015 101.035C114.223 100.965 114.425 100.977 114.635 100.861C115.19 100.551 115.083 99.5259 114.401 99.688C114.135 99.75 114.108 100.031 113.756 99.9549C113.591 99.9192 112.983 99.4806 112.833 99.3496C112.712 99.2423 112.311 98.7418 112.259 98.7204C111.98 98.6012 111.711 99.0231 111.563 98.8729C111.415 98.7228 111.701 98.5774 111.811 98.5321C111.882 98.5011 112.102 98.4606 112.114 98.4225C112.066 98.2008 111.918 97.9744 111.92 97.7456C111.92 97.6765 111.959 97.4978 112.056 97.5597L112.052 97.5621Z" fill="black"/>
<path d="M112.651 96.045L112.465 96.2404C112.365 95.7995 113.202 95.5325 113.538 95.5063C115.204 95.38 115.845 97.1699 115.466 98.5498C115.423 98.7095 115.266 99.2147 115.051 99.0455C115.313 98.4521 115.454 97.8586 115.33 97.208C115.075 95.8543 113.817 95.2037 112.651 96.045Z" fill="black"/>
<path d="M111.733 97.5299C111.723 97.8135 111.578 98.121 111.435 98.3617C111.132 98.8693 110.693 99.3102 110.148 99.5414C109.69 99.7345 109.087 99.8989 108.591 99.8203C108.575 99.7988 108.701 99.7035 108.737 99.6868C108.942 99.6082 109.321 99.5986 109.559 99.5414C110.286 99.3674 111.084 98.7192 111.413 98.0495C111.435 98.0066 111.616 97.4084 111.73 97.5299H111.733Z" fill="black"/>
<path d="M108.561 97.9433C108.592 97.8242 108.661 97.7169 108.699 97.5977C108.801 97.2712 108.83 96.9042 108.99 96.5968C109.419 95.7745 110.646 95.5958 111.292 96.256C111.256 96.3036 111.254 96.2965 111.204 96.2869C111.075 96.2655 110.868 96.0987 110.701 96.0558C110.246 95.9342 109.74 96.0319 109.385 96.3441C109.006 96.6778 108.985 97.2116 108.804 97.643C108.787 97.6788 108.623 98.0077 108.563 97.9457L108.561 97.9433Z" fill="black"/>
<path d="M117.72 111.157L117.691 111.288C117.229 111.591 116.619 111.896 116.252 112.315C116.19 112.387 116.023 112.713 115.944 112.596C115.923 112.556 115.923 112.508 115.93 112.465C115.968 112.239 116.771 111.636 116.988 111.495C117.086 111.433 117.656 111.09 117.72 111.154V111.157Z" fill="black"/>
<path d="M109.969 103.846C109.964 103.944 109.873 104.017 109.807 104.079C109.573 104.291 109.239 104.485 108.987 104.699C108.915 104.759 108.727 105.018 108.648 104.933C108.677 104.835 108.701 104.763 108.768 104.685C108.875 104.551 109.654 103.92 109.795 103.862C109.852 103.839 109.909 103.843 109.969 103.846Z" fill="black"/>
<path d="M111.409 96.8243C111.24 96.7838 111.18 96.6003 111.037 96.5074C110.711 96.2905 110.268 96.4692 109.972 96.6671C109.944 96.6861 109.698 96.9507 109.705 96.8124C109.712 96.6861 110.048 96.4478 110.165 96.3906C110.67 96.1475 111.238 96.2595 111.409 96.8267V96.8243Z" fill="black"/>
<path d="M113.465 98.6168C113.37 98.7098 113.074 98.3165 113.029 98.245C112.826 97.9114 112.71 97.449 112.731 97.0605C112.85 97.2012 112.834 97.4466 112.886 97.6254C112.938 97.8041 113.074 98.0639 113.177 98.2164C113.22 98.2808 113.508 98.5763 113.465 98.6192V98.6168Z" fill="black"/>
<path d="M112.049 102.548C112.033 102.577 111.701 102.76 111.646 102.777C111.57 102.801 111.27 102.844 111.237 102.744C111.17 102.553 111.401 102.641 111.477 102.636C111.668 102.627 111.825 102.46 111.985 102.379C112.061 102.374 112.08 102.501 112.052 102.551L112.049 102.548Z" fill="black"/>
<path d="M113.933 104.256C113.957 104.377 113.826 104.48 113.738 104.544C113.661 104.601 113.028 104.94 112.994 104.902L112.999 104.79C113.261 104.692 113.497 104.544 113.726 104.387C113.795 104.339 113.831 104.239 113.933 104.256Z" fill="black"/>
<path d="M110.052 104.323C110.073 104.337 110.238 104.561 110.281 104.606C110.34 104.668 110.464 104.711 110.469 104.814C110.385 104.888 110.154 104.613 110.102 104.549C110.066 104.506 109.978 104.404 109.968 104.358C109.956 104.297 110.016 104.299 110.052 104.32V104.323Z" fill="black"/>
<path d="M106.474 112.742H106.21C106.205 112.451 106.169 112.162 106.152 111.874C106.074 110.542 106.012 109.214 105.976 107.88C105.957 107.15 105.89 106.378 105.945 105.646C105.95 105.594 105.95 105.539 105.983 105.494C106.138 105.449 106.3 105.418 106.462 105.399C107.411 105.287 108.414 105.301 109.37 105.282C110.955 105.251 112.575 105.234 114.155 105.399C114.334 105.418 115.149 105.508 115.23 105.618C115.256 105.654 115.309 105.801 115.242 105.811C114.17 105.542 113.059 105.496 111.953 105.458C110.328 105.401 108.378 105.401 106.758 105.639C106.574 105.666 106.152 105.699 106.1 105.892C105.99 106.29 106.081 107.069 106.095 107.498C106.121 108.371 106.174 109.243 106.241 110.113C106.307 110.983 106.426 111.864 106.476 112.742H106.474Z" fill="#FCF7ED"/>
<path d="M111.458 109.5C111.067 109.893 110.288 109.6 110.207 109.083C110.083 108.27 111.16 107.984 111.537 108.664C111.704 108.966 111.709 109.247 111.456 109.502L111.458 109.5Z" fill="#FCF7ED"/>
<path d="M196.855 114.17L202.258 114.199C202.161 113.605 202.053 113.012 202.053 112.407C201.784 112.743 201.603 113.224 201.479 113.639C201.443 113.76 201.493 113.932 201.319 113.934C201.25 113.682 201.355 113.381 201.453 113.141C201.605 112.762 201.856 112.438 202.027 112.071C201.975 111.256 201.958 110.445 201.939 109.63C201.92 108.815 201.844 107.874 201.908 107.075C201.927 106.847 201.939 106.78 202.173 106.723C202.63 106.608 203.29 106.592 203.774 106.561C205.28 106.468 206.815 106.484 208.326 106.534C209.179 106.563 210.128 106.565 210.967 106.713C211.155 106.747 211.513 106.801 211.608 106.983C211.732 107.218 211.734 107.85 211.748 108.134C211.834 109.661 211.815 111.213 211.777 112.743C211.765 113.238 211.791 113.734 211.72 114.227H214.921C214.851 112.983 214.613 111.751 214.253 110.564C213.662 108.61 212.533 106.225 210.664 105.226C210.519 105.15 210.342 105.1 210.202 105.014C210.171 104.995 210.121 104.993 210.178 104.947C210.481 104.966 210.74 105.064 211.005 105.207C213.424 106.518 215.023 111.287 215.128 113.889C215.133 113.989 215.13 114.087 215.099 114.182L215.14 114.227H216.653L216.637 114.463L196.86 114.404V114.168L196.855 114.17ZM202.642 114.201C202.592 113.324 202.475 112.45 202.406 111.573C202.337 110.696 202.287 109.83 202.261 108.958C202.246 108.527 202.156 107.75 202.265 107.352C202.318 107.159 202.74 107.126 202.923 107.099C204.544 106.863 206.491 106.863 208.119 106.918C209.222 106.956 210.333 107.002 211.408 107.271C211.472 107.261 211.422 107.114 211.396 107.078C211.315 106.968 210.5 106.878 210.321 106.859C208.741 106.694 207.12 106.713 205.535 106.742C204.58 106.761 203.576 106.747 202.628 106.859C202.468 106.878 202.306 106.909 202.149 106.954C202.115 106.999 202.115 107.054 202.111 107.106C202.058 107.838 202.125 108.61 202.142 109.34C202.175 110.674 202.239 112.002 202.318 113.334C202.335 113.62 202.37 113.91 202.375 114.201H202.64H202.642ZM207.623 110.96C207.876 110.705 207.871 110.424 207.704 110.121C207.328 109.442 206.248 109.728 206.374 110.541C206.453 111.058 207.232 111.351 207.625 110.958L207.623 110.96Z" fill="black"/>
<path d="M205.11 101.456C205.393 102.597 205.765 103.884 206.666 104.702C207.796 105.726 209.035 105.076 209.609 103.855C209.7 103.662 209.871 103.074 209.988 102.971C210.019 102.943 210.057 102.919 210.103 102.924C210.115 103.231 209.988 103.565 209.864 103.844C209.702 104.213 209.478 104.561 209.192 104.847C209.442 104.876 209.65 105.078 209.898 105.009C209.764 105.436 209.299 105.822 208.925 106.048C207.767 106.751 206.766 106.334 206.258 105.133V105.1C206.301 105.061 206.521 104.942 206.535 104.921C206.587 104.84 206.411 104.749 206.344 104.668C205.61 103.822 205.083 102.571 205.021 101.453H205.11V101.456Z" fill="black"/>
<path d="M208.281 97.6955L208.031 97.4619C207.58 96.8089 206.841 96.4228 206.038 96.4967C204.734 96.6159 204.437 98.1841 203.567 98.9014C203.269 99.1469 203.104 99.135 203.03 99.5997C202.952 100.098 203.252 100.627 203.679 100.875C203.917 101.013 204.203 101.02 204.403 101.192C203.457 101.325 202.556 100.227 202.849 99.328C202.957 99.0015 203.14 99.0039 203.374 98.8252C204.153 98.2293 204.456 97.0067 205.314 96.5348C206.362 95.9557 207.983 96.4919 208.281 97.6955Z" fill="black"/>
<path d="M208.221 99.0172C208.221 99.0172 208.257 99.2055 208.272 99.246C208.429 99.7131 208.808 100.218 209.146 100.573C209.287 100.721 209.875 101.267 210.057 101.25C210.355 101.036 210.65 100.8 211.019 101.022C211.599 101.374 211.332 102.385 210.643 102.566C210.545 102.592 210.147 102.642 210.104 102.554C210.09 102.494 210.147 102.504 210.185 102.49C210.393 102.42 210.595 102.432 210.805 102.316C211.36 102.006 211.253 100.981 210.571 101.143C210.304 101.205 210.278 101.486 209.926 101.41C209.761 101.374 209.153 100.936 209.003 100.805C208.882 100.697 208.481 100.197 208.429 100.175C208.15 100.056 207.881 100.478 207.733 100.328C207.585 100.178 207.871 100.032 207.981 99.9872C208.052 99.9562 208.272 99.9157 208.283 99.8775C208.236 99.6559 208.088 99.4295 208.09 99.2007C208.09 99.1316 208.129 98.9528 208.226 99.0148L208.221 99.0172Z" fill="black"/>
<path d="M208.819 97.4981L208.633 97.6935C208.533 97.2526 209.37 96.9857 209.706 96.9595C211.372 96.8331 212.013 98.623 211.634 100.003C211.591 100.163 211.434 100.668 211.219 100.499C211.481 99.9052 211.622 99.3117 211.498 98.6611C211.243 97.3074 209.985 96.6568 208.819 97.4981Z" fill="black"/>
<path d="M207.897 98.987C207.887 99.2706 207.742 99.578 207.599 99.8187C207.296 100.326 206.857 100.767 206.312 100.998C205.854 101.191 205.251 101.356 204.755 101.277C204.739 101.256 204.865 101.161 204.901 101.144C205.106 101.065 205.485 101.056 205.723 100.998C206.45 100.824 207.248 100.176 207.577 99.5065C207.599 99.4636 207.78 98.8654 207.894 98.987H207.897Z" fill="black"/>
<path d="M204.725 99.4003C204.756 99.2812 204.825 99.1739 204.863 99.0548C204.965 98.7283 204.994 98.3612 205.154 98.0538C205.583 97.2316 206.81 97.0528 207.456 97.713C207.42 97.7607 207.418 97.7535 207.368 97.744C207.239 97.7225 207.032 97.5557 206.865 97.5128C206.41 97.3912 205.904 97.489 205.549 97.8012C205.17 98.1348 205.149 98.6687 204.968 99.1001C204.951 99.1358 204.787 99.4647 204.727 99.4027L204.725 99.4003Z" fill="black"/>
<path d="M213.888 112.612L213.859 112.743C213.397 113.046 212.787 113.351 212.42 113.77C212.358 113.842 212.191 114.168 212.112 114.051C212.091 114.011 212.091 113.963 212.098 113.92C212.136 113.694 212.939 113.091 213.156 112.95C213.254 112.888 213.824 112.545 213.888 112.61V112.612Z" fill="black"/>
<path d="M206.135 105.301C206.13 105.399 206.039 105.472 205.973 105.534C205.739 105.747 205.406 105.94 205.153 106.154C205.081 106.214 204.893 106.473 204.814 106.388C204.843 106.29 204.867 106.218 204.934 106.14C205.041 106.006 205.82 105.375 205.961 105.318C206.018 105.294 206.075 105.299 206.135 105.301Z" fill="black"/>
<path d="M207.573 98.2833C207.404 98.2428 207.345 98.0593 207.202 97.9664C206.875 97.7495 206.432 97.9282 206.136 98.126C206.108 98.1451 205.862 98.4097 205.869 98.2714C205.876 98.1451 206.212 97.9068 206.329 97.8496C206.835 97.6065 207.402 97.7185 207.573 98.2857V98.2833Z" fill="black"/>
<path d="M209.627 100.074C209.532 100.167 209.236 99.7736 209.191 99.7021C208.988 99.3684 208.872 98.9061 208.893 98.5176C209.012 98.6582 208.996 98.9037 209.048 99.0824C209.1 99.2612 209.236 99.5209 209.339 99.6735C209.382 99.7378 209.67 100.033 209.627 100.076V100.074Z" fill="black"/>
<path d="M208.213 104.001C208.197 104.03 207.865 104.213 207.811 104.23C207.734 104.254 207.434 104.297 207.401 104.197C207.334 104.006 207.565 104.094 207.641 104.09C207.832 104.08 207.989 103.913 208.149 103.832C208.225 103.827 208.244 103.954 208.216 104.004L208.213 104.001Z" fill="black"/>
<path d="M210.101 105.711C210.125 105.832 209.994 105.935 209.906 105.999C209.829 106.056 209.195 106.395 209.162 106.357L209.167 106.245C209.429 106.147 209.665 105.999 209.894 105.842C209.963 105.794 209.999 105.694 210.101 105.711Z" fill="black"/>
<path d="M206.22 105.78C206.241 105.794 206.406 106.018 206.449 106.063C206.508 106.125 206.632 106.168 206.637 106.271C206.553 106.345 206.322 106.071 206.27 106.006C206.234 105.963 206.146 105.861 206.136 105.816C206.124 105.754 206.184 105.756 206.22 105.777V105.78Z" fill="black"/>
<path d="M202.64 114.202H202.376C202.371 113.912 202.335 113.623 202.318 113.335C202.24 112.003 202.178 110.675 202.142 109.341C202.123 108.611 202.056 107.839 202.111 107.107C202.116 107.055 202.116 107 202.149 106.955C202.304 106.91 202.466 106.879 202.628 106.86C203.577 106.748 204.58 106.762 205.536 106.743C207.121 106.712 208.741 106.695 210.321 106.86C210.5 106.879 211.315 106.969 211.396 107.079C211.422 107.115 211.475 107.262 211.408 107.272C210.336 107.003 209.225 106.957 208.119 106.919C206.494 106.862 204.544 106.862 202.924 107.1C202.74 107.126 202.318 107.16 202.266 107.353C202.156 107.751 202.247 108.53 202.261 108.959C202.287 109.832 202.34 110.704 202.407 111.574C202.473 112.444 202.592 113.325 202.642 114.202H202.64Z" fill="#FCF7ED"/>
<path d="M207.622 110.961C207.232 111.354 206.452 111.061 206.371 110.544C206.247 109.731 207.325 109.445 207.701 110.124C207.868 110.427 207.873 110.708 207.62 110.963L207.622 110.961Z" fill="#FCF7ED"/>
<path d="M101.711 200.471L107.114 200.5C107.016 199.906 106.909 199.313 106.909 198.707C106.64 199.043 106.458 199.525 106.334 199.94C106.299 200.061 106.349 200.233 106.175 200.235C106.106 199.982 106.211 199.682 106.308 199.441C106.461 199.063 106.711 198.738 106.883 198.371C106.83 197.556 106.813 196.746 106.794 195.931C106.775 195.116 106.699 194.175 106.763 193.376C106.783 193.147 106.794 193.081 107.028 193.024C107.486 192.909 108.146 192.892 108.63 192.861C110.136 192.769 111.671 192.785 113.182 192.835C114.035 192.864 114.983 192.866 115.822 193.014C116.01 193.047 116.368 193.102 116.463 193.283C116.587 193.519 116.59 194.151 116.604 194.434C116.69 195.962 116.671 197.513 116.633 199.044C116.621 199.539 116.647 200.035 116.575 200.528H119.776C119.707 199.284 119.469 198.052 119.109 196.865C118.518 194.911 117.388 192.525 115.52 191.527C115.374 191.451 115.198 191.401 115.057 191.315C115.026 191.296 114.976 191.293 115.033 191.248C115.336 191.267 115.596 191.365 115.86 191.508C118.279 192.819 119.879 197.587 119.983 200.19C119.988 200.29 119.986 200.388 119.955 200.483L119.995 200.528H121.509L121.492 200.764L101.716 200.705V200.469L101.711 200.471ZM107.495 200.502C107.445 199.625 107.328 198.75 107.259 197.873C107.19 196.996 107.14 196.131 107.114 195.259C107.099 194.828 107.009 194.051 107.119 193.653C107.171 193.46 107.593 193.426 107.776 193.4C109.397 193.164 111.344 193.164 112.972 193.219C114.075 193.257 115.186 193.302 116.261 193.572C116.325 193.562 116.275 193.414 116.249 193.379C116.168 193.269 115.353 193.178 115.174 193.159C113.594 192.995 111.973 193.014 110.388 193.043C109.433 193.062 108.429 193.047 107.481 193.159C107.321 193.178 107.159 193.209 107.002 193.255C106.968 193.3 106.968 193.355 106.964 193.407C106.911 194.139 106.978 194.911 106.995 195.64C107.028 196.975 107.092 198.302 107.171 199.635C107.188 199.921 107.223 200.211 107.228 200.502H107.493H107.495ZM112.476 197.261C112.729 197.006 112.724 196.725 112.557 196.422C112.181 195.743 111.101 196.029 111.227 196.841C111.306 197.359 112.085 197.652 112.479 197.258L112.476 197.261Z" fill="black"/>
<path d="M109.963 187.758C110.247 188.9 110.619 190.187 111.519 191.004C112.649 192.029 113.888 191.378 114.463 190.158C114.553 189.965 114.725 189.376 114.842 189.274C114.873 189.245 114.911 189.222 114.956 189.226C114.968 189.534 114.842 189.867 114.718 190.146C114.556 190.516 114.332 190.864 114.046 191.15C114.296 191.178 114.503 191.381 114.751 191.312C114.618 191.738 114.153 192.124 113.779 192.351C112.621 193.054 111.62 192.637 111.112 191.436V191.402C111.155 191.364 111.374 191.245 111.388 191.224C111.441 191.142 111.264 191.052 111.198 190.971C110.464 190.125 109.937 188.874 109.875 187.756H109.963V187.758Z" fill="black"/>
<path d="M113.134 183.996L112.884 183.763C112.434 183.11 111.695 182.724 110.892 182.797C109.588 182.917 109.29 184.485 108.42 185.202C108.122 185.448 107.958 185.436 107.884 185.901C107.805 186.399 108.106 186.928 108.532 187.176C108.771 187.314 109.056 187.321 109.257 187.493C108.311 187.626 107.41 186.527 107.703 185.629C107.81 185.302 107.994 185.305 108.227 185.126C109.006 184.53 109.309 183.308 110.167 182.836C111.216 182.256 112.836 182.793 113.134 183.996Z" fill="black"/>
<path d="M113.077 185.32C113.077 185.32 113.113 185.508 113.127 185.549C113.284 186.016 113.663 186.521 114.002 186.876C114.142 187.024 114.731 187.57 114.912 187.553C115.21 187.339 115.506 187.103 115.875 187.324C116.454 187.677 116.187 188.687 115.498 188.869C115.401 188.895 115.003 188.945 114.96 188.857C114.945 188.797 115.003 188.807 115.041 188.792C115.248 188.723 115.451 188.735 115.66 188.618C116.216 188.309 116.108 187.284 115.427 187.446C115.16 187.508 115.134 187.789 114.781 187.713C114.617 187.677 114.009 187.238 113.859 187.107C113.737 187 113.337 186.5 113.284 186.478C113.005 186.359 112.736 186.781 112.588 186.631C112.441 186.481 112.727 186.335 112.836 186.29C112.908 186.259 113.127 186.218 113.139 186.18C113.091 185.959 112.943 185.732 112.946 185.503C112.946 185.434 112.984 185.256 113.082 185.318L113.077 185.32Z" fill="black"/>
<path d="M113.675 183.801L113.489 183.996C113.389 183.555 114.225 183.288 114.561 183.262C116.227 183.136 116.868 184.926 116.489 186.306C116.446 186.465 116.289 186.971 116.075 186.801C116.337 186.208 116.477 185.614 116.353 184.964C116.098 183.61 114.84 182.96 113.675 183.801Z" fill="black"/>
<path d="M112.754 185.292C112.744 185.575 112.599 185.883 112.456 186.123C112.153 186.631 111.715 187.072 111.169 187.303C110.712 187.496 110.109 187.661 109.613 187.582C109.596 187.561 109.722 187.465 109.758 187.449C109.963 187.37 110.342 187.36 110.58 187.303C111.307 187.129 112.106 186.481 112.435 185.811C112.456 185.768 112.637 185.17 112.752 185.292H112.754Z" fill="black"/>
<path d="M109.582 185.699C109.613 185.58 109.682 185.473 109.72 185.354C109.823 185.027 109.851 184.66 110.011 184.353C110.44 183.53 111.667 183.352 112.313 184.012C112.278 184.059 112.275 184.052 112.225 184.043C112.096 184.021 111.889 183.855 111.722 183.812C111.267 183.69 110.762 183.788 110.407 184.1C110.028 184.434 110.006 184.968 109.825 185.399C109.808 185.435 109.644 185.764 109.584 185.702L109.582 185.699Z" fill="black"/>
<path d="M118.743 198.917L118.715 199.048C118.252 199.35 117.642 199.655 117.275 200.075C117.213 200.146 117.046 200.473 116.968 200.356C116.946 200.316 116.946 200.268 116.953 200.225C116.992 199.999 117.795 199.396 118.012 199.255C118.109 199.193 118.679 198.85 118.743 198.914V198.917Z" fill="black"/>
<path d="M110.99 191.604C110.985 191.701 110.895 191.775 110.828 191.837C110.595 192.049 110.261 192.242 110.008 192.457C109.937 192.516 109.749 192.776 109.67 192.69C109.699 192.593 109.722 192.521 109.789 192.443C109.896 192.309 110.676 191.678 110.816 191.62C110.873 191.596 110.931 191.601 110.99 191.604Z" fill="black"/>
<path d="M112.429 184.586C112.26 184.546 112.2 184.362 112.057 184.269C111.731 184.052 111.287 184.231 110.992 184.429C110.963 184.448 110.718 184.712 110.725 184.574C110.732 184.448 111.068 184.21 111.185 184.152C111.69 183.909 112.257 184.021 112.429 184.588V184.586Z" fill="black"/>
<path d="M114.487 186.377C114.391 186.47 114.096 186.076 114.05 186.005C113.848 185.671 113.731 185.209 113.753 184.82C113.872 184.961 113.855 185.206 113.907 185.385C113.96 185.564 114.096 185.824 114.198 185.976C114.241 186.041 114.529 186.336 114.487 186.379V186.377Z" fill="black"/>
<path d="M113.069 190.304C113.052 190.333 112.721 190.516 112.666 190.533C112.59 190.557 112.289 190.6 112.256 190.5C112.189 190.309 112.421 190.397 112.497 190.392C112.687 190.383 112.845 190.216 113.004 190.135C113.081 190.13 113.1 190.256 113.071 190.306L113.069 190.304Z" fill="black"/>
<path d="M114.957 192.014C114.98 192.135 114.849 192.238 114.761 192.302C114.685 192.359 114.051 192.698 114.018 192.659L114.022 192.547C114.285 192.45 114.52 192.302 114.749 192.145C114.818 192.097 114.854 191.997 114.957 192.014Z" fill="black"/>
<path d="M111.075 192.079C111.097 192.093 111.261 192.317 111.304 192.362C111.364 192.424 111.488 192.467 111.492 192.57C111.409 192.643 111.178 192.369 111.125 192.305C111.089 192.262 111.001 192.16 110.992 192.114C110.98 192.052 111.039 192.055 111.075 192.076V192.079Z" fill="black"/>
<path d="M107.498 200.503H107.233C107.228 200.212 107.192 199.924 107.176 199.636C107.097 198.303 107.035 196.976 106.999 195.641C106.98 194.912 106.914 194.14 106.968 193.408C106.973 193.356 106.973 193.301 107.007 193.256C107.161 193.21 107.324 193.179 107.486 193.16C108.434 193.048 109.438 193.063 110.393 193.044C111.978 193.013 113.599 192.996 115.179 193.16C115.358 193.179 116.173 193.27 116.254 193.38C116.28 193.415 116.332 193.563 116.266 193.573C115.193 193.303 114.083 193.258 112.977 193.22C111.351 193.163 109.402 193.163 107.781 193.401C107.598 193.427 107.176 193.461 107.123 193.654C107.014 194.052 107.104 194.831 107.119 195.26C107.145 196.132 107.197 197.005 107.264 197.874C107.331 198.744 107.45 199.626 107.5 200.503H107.498Z" fill="#FCF7ED"/>
<path d="M112.478 197.262C112.087 197.655 111.308 197.362 111.227 196.845C111.103 196.032 112.18 195.746 112.557 196.425C112.723 196.728 112.728 197.009 112.476 197.264L112.478 197.262Z" fill="#FCF7ED"/>
<path d="M22.6582 171.664L28.061 171.693C27.9633 171.1 27.8561 170.506 27.8561 169.901C27.5868 170.237 27.4057 170.718 27.2817 171.133C27.246 171.254 27.296 171.426 27.122 171.428C27.0529 171.176 27.1578 170.876 27.2555 170.635C27.408 170.256 27.6583 169.932 27.8299 169.565C27.7774 168.75 27.7608 167.939 27.7417 167.124C27.7226 166.309 27.6464 165.368 27.7107 164.57C27.7298 164.341 27.7417 164.274 27.9753 164.217C28.4328 164.103 29.093 164.086 29.5768 164.055C31.083 163.962 32.6178 163.979 34.1288 164.029C34.982 164.057 35.9306 164.06 36.7695 164.207C36.9578 164.241 37.3152 164.296 37.4106 164.477C37.5345 164.713 37.5369 165.344 37.5512 165.628C37.637 167.155 37.6179 168.707 37.5798 170.237C37.5679 170.733 37.5941 171.228 37.5226 171.722H40.7233C40.6542 170.478 40.4159 169.245 40.056 168.059C39.4649 166.104 38.3353 163.719 36.4668 162.72C36.3214 162.644 36.1451 162.594 36.0044 162.508C35.9735 162.489 35.9234 162.487 35.9806 162.441C36.2833 162.46 36.5431 162.558 36.8076 162.701C39.2266 164.012 40.8258 168.781 40.9306 171.383C40.9354 171.483 40.933 171.581 40.902 171.676L40.9426 171.722H42.4559L42.4392 171.958L22.663 171.898V171.662L22.6582 171.664ZM28.4448 171.695C28.3947 170.818 28.2779 169.944 28.2088 169.067C28.1397 168.19 28.0896 167.325 28.0634 166.452C28.0491 166.021 27.9586 165.244 28.0682 164.846C28.1206 164.653 28.5425 164.62 28.726 164.593C30.3466 164.358 32.2937 164.358 33.9215 164.412C35.0249 164.45 36.1355 164.496 37.2104 164.765C37.2747 164.755 37.2247 164.608 37.1985 164.572C37.1174 164.462 36.3024 164.372 36.1236 164.353C34.5435 164.188 32.9229 164.207 31.338 164.236C30.3823 164.255 29.379 164.241 28.4305 164.353C28.2708 164.372 28.1087 164.403 27.9514 164.448C27.9181 164.493 27.9181 164.548 27.9133 164.601C27.8609 165.332 27.9276 166.104 27.9443 166.834C27.9776 168.168 28.042 169.496 28.1206 170.828C28.1373 171.114 28.1731 171.405 28.1778 171.695H28.4424H28.4448ZM33.4258 168.454C33.6784 168.199 33.6736 167.918 33.5068 167.615C33.1302 166.936 32.0506 167.222 32.1769 168.035C32.2556 168.552 33.0349 168.845 33.4281 168.452L33.4258 168.454Z" fill="black"/>
<path d="M30.9104 158.952C31.1941 160.093 31.5658 161.38 32.4667 162.198C33.5964 163.222 34.8357 162.572 35.4101 161.352C35.5006 161.159 35.6722 160.57 35.789 160.467C35.82 160.439 35.8581 160.415 35.9034 160.42C35.9153 160.727 35.789 161.061 35.6651 161.34C35.503 161.709 35.279 162.057 34.993 162.343C35.2432 162.372 35.4506 162.574 35.6984 162.505C35.565 162.932 35.1002 163.318 34.7261 163.544C33.5678 164.247 32.5668 163.83 32.0592 162.629V162.596C32.1021 162.557 32.3213 162.438 32.3356 162.417C32.3881 162.336 32.2117 162.245 32.145 162.164C31.4109 161.318 30.8842 160.067 30.8223 158.949H30.9104V158.952Z" fill="black"/>
<path d="M34.0835 155.19L33.8333 154.956C33.3828 154.303 32.644 153.917 31.8408 153.991C30.5372 154.11 30.2393 155.678 29.3694 156.396C29.0715 156.641 28.907 156.629 28.8331 157.094C28.7545 157.592 29.0548 158.121 29.4814 158.369C29.7197 158.507 30.0057 158.514 30.2059 158.686C29.2598 158.819 28.3589 157.721 28.652 156.822C28.7593 156.496 28.9428 156.498 29.1763 156.319C29.9557 155.723 30.2583 154.501 31.1163 154.029C32.165 153.45 33.7856 153.986 34.0835 155.19Z" fill="black"/>
<path d="M34.0242 156.513C34.0242 156.513 34.06 156.702 34.0743 156.742C34.2316 157.209 34.6105 157.714 34.9489 158.07C35.0895 158.217 35.6782 158.763 35.8593 158.746C36.1572 158.532 36.4528 158.296 36.8222 158.518C37.4013 158.87 37.1344 159.881 36.4456 160.062C36.3479 160.088 35.9499 160.138 35.907 160.05C35.8927 159.99 35.9499 160 35.988 159.986C36.1954 159.917 36.3979 159.929 36.6077 159.812C37.163 159.502 37.0557 158.477 36.3741 158.639C36.1072 158.701 36.081 158.982 35.7283 158.906C35.5638 158.87 34.9561 158.432 34.8059 158.301C34.6844 158.193 34.284 157.693 34.2315 157.672C33.9527 157.552 33.6834 157.974 33.5356 157.824C33.3879 157.674 33.6739 157.529 33.7835 157.483C33.855 157.452 34.0743 157.412 34.0862 157.374C34.0385 157.152 33.8907 156.926 33.8931 156.697C33.8931 156.628 33.9313 156.449 34.029 156.511L34.0242 156.513Z" fill="black"/>
<path d="M34.6219 154.994L34.436 155.19C34.3359 154.749 35.1724 154.482 35.5085 154.456C37.1744 154.329 37.8155 156.119 37.4365 157.499C37.3936 157.659 37.2363 158.164 37.0218 157.995C37.284 157.401 37.4246 156.808 37.3007 156.157C37.0457 154.804 35.7873 154.153 34.6219 154.994Z" fill="black"/>
<path d="M33.6993 156.483C33.6898 156.767 33.5444 157.074 33.4014 157.315C33.0987 157.822 32.6602 158.263 32.1144 158.495C31.6568 158.688 31.0539 158.852 30.5582 158.773C30.5415 158.752 30.6678 158.657 30.7035 158.64C30.9085 158.561 31.2874 158.552 31.5258 158.495C32.2527 158.321 33.0511 157.672 33.38 157.003C33.4014 156.96 33.5825 156.362 33.6969 156.483H33.6993Z" fill="black"/>
<path d="M30.5293 156.894C30.5603 156.775 30.6294 156.668 30.6675 156.549C30.77 156.222 30.7986 155.855 30.9583 155.548C31.3873 154.726 32.6147 154.547 33.2605 155.207C33.2248 155.255 33.2224 155.248 33.1724 155.238C33.0437 155.217 32.8363 155.05 32.6695 155.007C32.2143 154.885 31.709 154.983 31.3539 155.295C30.975 155.629 30.9535 156.163 30.7724 156.594C30.7557 156.63 30.5913 156.959 30.5317 156.897L30.5293 156.894Z" fill="black"/>
<path d="M39.6906 170.11L39.662 170.241C39.1996 170.544 38.5895 170.849 38.2225 171.268C38.1605 171.34 37.9937 171.666 37.9151 171.549C37.8936 171.509 37.8936 171.461 37.9008 171.418C37.9389 171.192 38.7421 170.589 38.9589 170.448C39.0567 170.386 39.6263 170.043 39.6906 170.108V170.11Z" fill="black"/>
<path d="M31.9375 162.797C31.9328 162.895 31.8422 162.969 31.7755 163.031C31.5419 163.243 31.2082 163.436 30.9556 163.65C30.8841 163.71 30.6958 163.97 30.6172 163.884C30.6458 163.786 30.6696 163.715 30.7364 163.636C30.8436 163.502 31.6229 162.871 31.7635 162.814C31.8207 162.79 31.8779 162.795 31.9375 162.797Z" fill="black"/>
<path d="M33.3761 155.779C33.2069 155.739 33.1473 155.555 33.0043 155.462C32.6778 155.246 32.2345 155.424 31.939 155.622C31.9104 155.641 31.6649 155.906 31.672 155.768C31.6792 155.641 32.0152 155.403 32.132 155.346C32.6373 155.103 33.2045 155.215 33.3761 155.782V155.779Z" fill="black"/>
<path d="M35.4319 157.57C35.3366 157.663 35.041 157.27 34.9957 157.198C34.7932 156.864 34.6764 156.402 34.6978 156.014C34.817 156.154 34.8003 156.4 34.8527 156.579C34.9052 156.757 35.041 157.017 35.1435 157.17C35.1864 157.234 35.4748 157.529 35.4319 157.572V157.57Z" fill="black"/>
<path d="M34.0161 161.499C33.9994 161.528 33.6681 161.712 33.6133 161.728C33.537 161.752 33.2367 161.795 33.2034 161.695C33.1366 161.504 33.3678 161.592 33.4441 161.588C33.6347 161.578 33.792 161.411 33.9517 161.33C34.028 161.325 34.047 161.452 34.0184 161.502L34.0161 161.499Z" fill="black"/>
<path d="M35.9039 163.209C35.9277 163.33 35.7966 163.433 35.7084 163.497C35.6322 163.554 34.9982 163.893 34.9648 163.855L34.9696 163.743C35.2318 163.645 35.4677 163.497 35.6965 163.34C35.7656 163.292 35.8014 163.192 35.9039 163.209Z" fill="black"/>
<path d="M32.0225 163.272C32.0439 163.286 32.2084 163.51 32.2513 163.556C32.3108 163.618 32.4348 163.66 32.4395 163.763C32.3561 163.837 32.1249 163.563 32.0725 163.498C32.0368 163.455 31.9486 163.353 31.939 163.308C31.9271 163.246 31.9867 163.248 32.0225 163.27V163.272Z" fill="black"/>
<path d="M28.4428 171.697H28.1783C28.1735 171.406 28.1378 171.117 28.1211 170.829C28.0424 169.497 27.9805 168.169 27.9447 166.835C27.9257 166.105 27.8589 165.333 27.9137 164.602C27.9185 164.549 27.9185 164.494 27.9519 164.449C28.1068 164.404 28.2689 164.373 28.4309 164.354C29.3795 164.242 30.3828 164.256 31.3385 164.237C32.9234 164.206 34.544 164.189 36.1241 164.354C36.3029 164.373 37.118 164.463 37.199 164.573C37.2252 164.609 37.2776 164.756 37.2109 164.766C36.1384 164.497 35.0278 164.451 33.922 164.413C32.2966 164.356 30.3471 164.356 28.7264 164.594C28.5429 164.621 28.1211 164.654 28.0687 164.847C27.959 165.245 28.0496 166.024 28.0639 166.453C28.0901 167.326 28.1425 168.198 28.2093 169.068C28.276 169.938 28.3952 170.82 28.4452 171.697H28.4428Z" fill="#FCF7ED"/>
<path d="M33.4252 168.455C33.0343 168.848 32.255 168.555 32.1739 168.038C32.05 167.225 33.1272 166.939 33.5038 167.619C33.6706 167.921 33.6754 168.203 33.4228 168.458L33.4252 168.455Z" fill="#FCF7ED"/>
<path d="M19.0488 47.7503L24.4517 47.7789C24.354 47.1855 24.2467 46.5921 24.2467 45.9868C23.9774 46.3228 23.7963 46.8042 23.6723 47.2189C23.6366 47.3404 23.6866 47.512 23.5127 47.5144C23.4436 47.2618 23.5484 46.9615 23.6461 46.7208C23.7987 46.3419 24.0489 46.0177 24.2205 45.6507C24.1681 44.8357 24.1514 44.0254 24.1323 43.2103C24.1133 42.3953 24.037 41.4539 24.1013 40.6555C24.1204 40.4268 24.1323 40.36 24.3659 40.3028C24.8235 40.1884 25.4836 40.1718 25.9674 40.1408C27.4736 40.0478 29.0085 40.0645 30.5194 40.1146C31.3727 40.1432 32.3212 40.1455 33.1601 40.2933C33.3484 40.3267 33.7059 40.3815 33.8012 40.5626C33.9251 40.7985 33.9275 41.4301 33.9418 41.7137C34.0276 43.2413 34.0085 44.7928 33.9704 46.3228C33.9585 46.8185 33.9847 47.3142 33.9132 47.8075H37.1139C37.0448 46.5635 36.8065 45.3314 36.4466 44.1445C35.8556 42.1903 34.7259 39.8047 32.8574 38.8062C32.712 38.7299 32.5357 38.6799 32.3951 38.5941C32.3641 38.575 32.314 38.5726 32.3712 38.5273C32.6739 38.5464 32.9337 38.6441 33.1982 38.7871C35.6172 40.0979 37.2164 44.8667 37.3213 47.4691C37.326 47.5692 37.3237 47.6669 37.2927 47.7622L37.3332 47.8075H38.8466L38.8299 48.0435L19.0536 47.9839V47.7479L19.0488 47.7503ZM24.833 47.7813C24.7829 46.9043 24.6662 46.0297 24.5971 45.1526C24.5279 44.2756 24.4779 43.4105 24.4517 42.5383C24.4374 42.1069 24.3468 41.33 24.4564 40.932C24.5089 40.739 24.9307 40.7056 25.1142 40.6794C26.7348 40.4434 28.682 40.4434 30.3097 40.4983C31.4132 40.5364 32.5238 40.5817 33.5986 40.851C33.663 40.8414 33.6129 40.6937 33.5867 40.6579C33.5057 40.5483 32.6906 40.4577 32.5119 40.4387C30.9318 40.2742 29.3111 40.2933 27.7263 40.3219C26.7706 40.341 25.7672 40.3267 24.8187 40.4387C24.659 40.4577 24.497 40.4887 24.3397 40.534C24.3063 40.5793 24.3063 40.6341 24.3015 40.6865C24.2491 41.4182 24.3158 42.1903 24.3325 42.9196C24.3659 44.2542 24.4302 45.5816 24.5089 46.9138C24.5256 47.1998 24.5613 47.4906 24.5661 47.7813H24.8306H24.833ZM29.8164 44.5402C30.069 44.2852 30.0642 44.0039 29.8974 43.7013C29.5209 43.0221 28.4412 43.308 28.5676 44.1207C28.6462 44.6379 29.4255 44.931 29.8188 44.5378L29.8164 44.5402Z" fill="black"/>
<path d="M27.2991 35.0375C27.5827 36.1791 27.9545 37.4661 28.8554 38.2836C29.9851 39.3084 31.2244 38.6577 31.7987 37.4375C31.8893 37.2445 32.0609 36.6558 32.1777 36.5533C32.2087 36.5247 32.2468 36.5009 32.2921 36.5056C32.304 36.8131 32.1777 37.1467 32.0538 37.4256C31.8917 37.795 31.6677 38.143 31.3817 38.4289C31.6319 38.4575 31.8393 38.6601 32.0871 38.591C31.9537 39.0176 31.4889 39.4037 31.1147 39.6301C29.9565 40.3332 28.9555 39.9161 28.4479 38.7149V38.6816C28.4908 38.6434 28.71 38.5243 28.7243 38.5028C28.7767 38.4218 28.6004 38.3312 28.5337 38.2502C27.7996 37.4041 27.2729 36.1529 27.2109 35.0352H27.2991V35.0375Z" fill="black"/>
<path d="M30.4702 31.2775L30.22 31.044C29.7695 30.3909 29.0307 30.0049 28.2276 30.0787C26.9239 30.1979 26.626 31.7661 25.7561 32.4835C25.4582 32.7289 25.2937 32.717 25.2199 33.1818C25.1412 33.6799 25.4415 34.209 25.8681 34.4568C26.1064 34.595 26.3924 34.6022 26.5926 34.7738C25.6465 34.9073 24.7456 33.8086 25.0387 32.9101C25.146 32.5836 25.3295 32.5859 25.5631 32.4072C26.3424 31.8114 26.6451 30.5888 27.503 30.1169C28.5517 29.5377 30.1723 30.074 30.4702 31.2775Z" fill="black"/>
<path d="M30.4129 32.5973C30.4129 32.5973 30.4486 32.7855 30.4629 32.8261C30.6202 33.2932 30.9992 33.7984 31.3376 34.1535C31.4782 34.3013 32.0669 34.8471 32.248 34.8304C32.5459 34.6159 32.8414 34.3799 33.2108 34.6016C33.79 34.9543 33.5231 35.9648 32.8343 36.146C32.7366 36.1722 32.3386 36.2222 32.2957 36.134C32.2814 36.0745 32.3386 36.084 32.3767 36.0697C32.584 36.0006 32.7866 36.0125 32.9963 35.8957C33.5517 35.5859 33.4444 34.5611 32.7628 34.7231C32.4959 34.7851 32.4696 35.0663 32.1169 34.9901C31.9525 34.9543 31.3447 34.5158 31.1946 34.3847C31.073 34.2775 30.6727 33.777 30.6202 33.7555C30.3414 33.6364 30.0721 34.0582 29.9243 33.9081C29.7765 33.7579 30.0625 33.6125 30.1722 33.5672C30.2437 33.5363 30.4629 33.4957 30.4748 33.4576C30.4272 33.236 30.2794 33.0096 30.2818 32.7808C30.2818 32.7117 30.3199 32.5329 30.4176 32.5949L30.4129 32.5973Z" fill="black"/>
<path d="M31.0106 31.0801L30.8247 31.2755C30.7246 30.8346 31.5611 30.5677 31.8971 30.5415C33.563 30.4152 34.2041 32.205 33.8252 33.5849C33.7823 33.7446 33.625 34.2499 33.4105 34.0807C33.6727 33.4872 33.8133 32.8938 33.6894 32.2431C33.4344 30.8894 32.176 30.2388 31.0106 31.0801Z" fill="black"/>
<path d="M30.0899 32.571C30.0804 32.8546 29.935 33.162 29.792 33.4027C29.4893 33.9104 29.0508 34.3513 28.5051 34.5824C28.0475 34.7755 27.4445 34.9399 26.9488 34.8613C26.9321 34.8398 27.0584 34.7445 27.0942 34.7278C27.2991 34.6492 27.6781 34.6396 27.9164 34.5824C28.6433 34.4085 29.4417 33.7602 29.7706 33.0905C29.792 33.0476 29.9732 32.4494 30.0876 32.571H30.0899Z" fill="black"/>
<path d="M26.918 32.9804C26.949 32.8613 27.0181 32.754 27.0562 32.6348C27.1587 32.3083 27.1873 31.9413 27.347 31.6339C27.7759 30.8116 29.0033 30.6329 29.6492 31.2931C29.6135 31.3407 29.6111 31.3336 29.561 31.324C29.4323 31.3026 29.225 31.1358 29.0582 31.0929C28.6029 30.9713 28.0977 31.069 27.7426 31.3812C27.3636 31.7149 27.3422 32.2488 27.1611 32.6801C27.1444 32.7159 26.9799 33.0448 26.9204 32.9828L26.918 32.9804Z" fill="black"/>
<path d="M36.0812 46.1959L36.0526 46.327C35.5903 46.6297 34.9802 46.9347 34.6131 47.3542C34.5512 47.4257 34.3843 47.7522 34.3057 47.6354C34.2842 47.5949 34.2842 47.5472 34.2914 47.5043C34.3295 47.2779 35.1327 46.675 35.3496 46.5344C35.4473 46.4724 36.0169 46.1292 36.0812 46.1935V46.1959Z" fill="black"/>
<path d="M28.3301 38.8829C28.3253 38.9806 28.2348 39.0545 28.168 39.1165C27.9345 39.3286 27.6008 39.5216 27.3482 39.7361C27.2767 39.7957 27.0884 40.0555 27.0098 39.9697C27.0384 39.872 27.0622 39.8005 27.1289 39.7218C27.2362 39.5884 28.0155 38.9568 28.1561 38.8996C28.2133 38.8758 28.2705 38.8805 28.3301 38.8829Z" fill="black"/>
<path d="M29.7667 31.8634C29.5975 31.8229 29.5379 31.6394 29.3949 31.5464C29.0684 31.3296 28.6251 31.5083 28.3296 31.7061C28.301 31.7252 28.0555 31.9897 28.0627 31.8515C28.0698 31.7252 28.4058 31.4869 28.5226 31.4297C29.0279 31.1866 29.5951 31.2986 29.7667 31.8658V31.8634Z" fill="black"/>
<path d="M31.8225 33.6539C31.7272 33.7469 31.4317 33.3536 31.3864 33.2821C31.1838 32.9485 31.067 32.4861 31.0885 32.0977C31.2076 32.2383 31.1909 32.4837 31.2434 32.6625C31.2958 32.8412 31.4316 33.101 31.5341 33.2535C31.577 33.3179 31.8654 33.6134 31.8225 33.6563V33.6539Z" fill="black"/>
<path d="M30.4067 37.5854C30.39 37.614 30.0587 37.7975 30.0039 37.8142C29.9276 37.838 29.6273 37.8809 29.594 37.7808C29.5272 37.5901 29.7584 37.6783 29.8347 37.6735C30.0253 37.664 30.1826 37.4972 30.3423 37.4161C30.4186 37.4114 30.4377 37.5377 30.4091 37.5877L30.4067 37.5854Z" fill="black"/>
<path d="M32.2925 39.2929C32.3164 39.4144 32.1853 39.5169 32.0971 39.5812C32.0208 39.6384 31.3869 39.9769 31.3535 39.9387L31.3583 39.8267C31.6204 39.729 31.8564 39.5812 32.0852 39.4239C32.1543 39.3763 32.19 39.2762 32.2925 39.2929Z" fill="black"/>
<path d="M28.4111 39.3598C28.4326 39.3741 28.597 39.5982 28.6399 39.6435C28.6995 39.7054 28.8234 39.7483 28.8282 39.8508C28.7448 39.9247 28.5136 39.6506 28.4612 39.5863C28.4254 39.5434 28.3373 39.4409 28.3277 39.3956C28.3158 39.3336 28.3754 39.336 28.4111 39.3575V39.3598Z" fill="black"/>
<path d="M24.8335 47.7825H24.5689C24.5642 47.4918 24.5284 47.2034 24.5117 46.915C24.4331 45.5828 24.3711 44.2553 24.3354 42.9206C24.3163 42.1913 24.2496 41.4192 24.3044 40.6875C24.3091 40.6351 24.3091 40.5803 24.3425 40.535C24.4974 40.4897 24.6595 40.4587 24.8215 40.4396C25.7701 40.3276 26.7735 40.3419 27.7291 40.3229C29.314 40.2919 30.9347 40.2752 32.5148 40.4396C32.6935 40.4587 33.5086 40.5493 33.5896 40.6589C33.6158 40.6947 33.6683 40.8424 33.6015 40.8519C32.5291 40.5826 31.4185 40.5374 30.3126 40.4992C28.6872 40.442 26.7377 40.442 25.1171 40.6804C24.9336 40.7066 24.5117 40.7399 24.4593 40.933C24.3497 41.331 24.4402 42.1103 24.4545 42.5393C24.4807 43.4116 24.5332 44.2839 24.5999 45.1538C24.6666 46.0237 24.7858 46.9055 24.8358 47.7825H24.8335Z" fill="#FCF7ED"/>
<path d="M29.8158 44.5411C29.4249 44.9343 28.6456 44.6412 28.5646 44.124C28.4406 43.3113 29.5179 43.0253 29.8944 43.7045C30.0613 44.0072 30.066 44.2885 29.8134 44.5435L29.8158 44.5411Z" fill="#FCF7ED"/>
<path d="M62.8623 80.9543L61.8984 81.0059L64.7727 134.771L65.7365 134.72L62.8623 80.9543Z" fill="black"/>
</svg>
