<svg width="1219" height="813" viewBox="0 0 1219 813" fill="none" xmlns="http://www.w3.org/2000/svg">
<path d="M1219 0H0V812.667H1219V0Z" fill="#031C51"/>
<g style="mix-blend-mode:lighten" opacity="0.3">
<path d="M451.599 568.899H375.192V541.041H451.599V568.899ZM801.371 541.041H724.964V568.899H801.371V541.041ZM713.928 541.041H637.521V568.899H713.928V541.041ZM976.24 286.221H899.833V314.079H976.24V286.221ZM626.485 541.041H550.078V568.899H626.485V541.041ZM495.32 583.511H418.913V611.369H495.32V583.511ZM582.763 583.511H506.356V611.369H582.763V583.511ZM539.042 541.041H462.635V568.899H539.042V541.041ZM670.206 583.511H593.799V611.369H670.206V583.511ZM856.128 441.489H932.535V413.631H856.128V441.489ZM976.24 371.161H899.833V399.019H976.24V371.161ZM856.128 356.549H932.535V328.691H856.128V356.549ZM976.24 456.101H899.833V483.959H976.24V456.101ZM856.128 526.429H932.535V498.571H856.128V526.429ZM845.076 583.511H768.669V611.369H845.076V583.511ZM888.797 541.041H812.39V568.899H888.797V541.041ZM932.519 583.511H856.112V611.369H932.519V583.511ZM976.24 541.041H899.833V568.899H976.24V541.041ZM757.649 583.511H681.242V611.369H757.649V583.511ZM156.585 271.609H232.992V243.751H156.585V271.609ZM244.028 271.609H320.435V243.751H244.028V271.609ZM200.306 229.139H276.713V201.281H200.306V229.139ZM331.471 271.609H407.878V243.751H331.471V271.609ZM287.749 229.139H364.156V201.281H287.749V229.139ZM506.356 271.609H582.763V243.751H506.356V271.609ZM407.878 583.511H331.471V611.369H407.878V583.511ZM418.913 271.609H495.32V243.751H418.913V271.609ZM375.192 229.139H451.599V201.281H375.192V229.139ZM462.635 229.139H539.042V201.281H462.635V229.139ZM156.585 526.429H232.992V498.571H156.585V526.429ZM276.713 456.101H200.306V483.959H276.713V456.101ZM276.713 286.221H200.306V314.079H276.713V286.221ZM364.156 541.041H287.749V568.899H364.156V541.041ZM320.435 583.511H244.028V611.369H320.435V583.511ZM156.585 356.549H232.992V328.691H156.585V356.549ZM156.585 441.489H232.992V413.631H156.585V441.489ZM276.713 371.161H200.306V399.019H276.713V371.161ZM69.1417 526.429H145.549V498.571H69.1417V526.429ZM69.1417 356.549H145.549V328.691H69.1417V356.549ZM189.27 371.161H112.863V399.019H189.27V371.161ZM550.078 229.139H626.485V201.281H550.078V229.139ZM189.27 456.101H112.863V483.959H189.27V456.101ZM112.863 144.2H189.27V116.341H112.863V144.2ZM189.27 201.281H112.863V229.139H189.27V201.281ZM69.1417 186.669H145.549V158.811H69.1417V186.669ZM69.1417 271.609H145.549V243.751H69.1417V271.609ZM189.27 286.221H112.863V314.079H189.27V286.221ZM69.1417 441.489H145.549V413.631H69.1417V441.489ZM364.156 625.981H287.749V653.839H364.156V625.981ZM320.435 668.451H244.028V696.309H320.435V668.451ZM407.878 668.451H331.471V696.309H407.878V668.451ZM451.599 625.981H375.192V653.839H451.599V625.981ZM276.713 625.981H200.306V653.839H276.713V625.981ZM69.1417 611.369H145.549V583.511H69.1417V611.369ZM232.992 668.451H156.585V696.309H232.992V668.451ZM189.27 541.041H112.863V568.899H189.27V541.041ZM976.24 201.281H899.833V229.139H976.24V201.281ZM637.521 144.2H713.928V116.341H637.521V144.2ZM681.242 186.669H757.649V158.811H681.242V186.669ZM724.964 144.2H801.371V116.341H724.964V144.2ZM593.799 186.669H670.206V158.811H593.799V186.669ZM156.585 186.669H232.992V158.811H156.585V186.669ZM768.685 186.669H845.092V158.811H768.685V186.669ZM550.078 144.2H626.485V116.341H550.078V144.2ZM812.407 144.2H888.814V116.341H812.407V144.2ZM856.128 271.609H932.535V243.751H856.128V271.609ZM331.471 186.669H407.878V158.811H331.471V186.669ZM244.028 186.669H320.435V158.811H244.028V186.669ZM287.749 144.2H364.156V116.341H287.749V144.2ZM200.306 144.2H276.713V116.341H200.306V144.2ZM418.913 186.669H495.32V158.811H418.913V186.669ZM375.192 144.2H451.599V116.341H375.192V144.2ZM462.635 144.2H539.042V116.341H462.635V144.2ZM506.356 186.669H582.763V158.811H506.356V186.669ZM58.1057 328.691H0V356.549H58.1057V328.691ZM276.713 541.041H200.306V568.899H276.713V541.041ZM856.128 186.669H932.535V158.811H856.128V186.669ZM58.1057 73.8713H0V101.73H58.1057V73.8713ZM156.585 611.369H232.992V583.511H156.585V611.369ZM1063.68 31.4014H987.276V59.2596H1063.68V31.4014ZM768.685 271.609H845.092V243.751H768.685V271.609ZM943.571 101.73H1019.98V73.8713H943.571V101.73ZM189.27 625.981H112.863V653.839H189.27V625.981ZM69.1417 696.309H145.549V668.451H69.1417V696.309ZM539.042 371.161H462.635V399.019H539.042V371.161ZM331.471 441.489H407.878V413.631H331.471V441.489ZM451.599 371.161H375.192V399.019H451.599V371.161ZM801.371 286.221H724.964V314.079H801.371V286.221ZM495.32 413.631H418.913V441.489H495.32V413.631ZM888.797 201.281H812.39V229.139H888.797V201.281ZM681.242 356.549H757.649V328.691H681.242V356.549ZM364.156 456.101H287.749V483.959H364.156V456.101ZM244.028 526.429H320.435V498.571H244.028V526.429ZM976.24 116.341H899.833V144.2H976.24V116.341ZM1162.18 738.779H1219V710.921H1162.18V738.779ZM1162.18 483.959H1219V456.101H1162.18V483.959ZM1162.18 653.839H1219V625.981H1162.18V653.839ZM1162.18 399.019H1219V371.161H1162.18V399.019ZM1162.18 568.899H1219V541.041H1162.18V568.899ZM1162.18 144.2H1219V116.341H1162.18V144.2ZM1162.18 314.079H1219V286.221H1162.18V314.079ZM1162.18 59.2596H1219V31.4014H1162.18V59.2596ZM1162.18 229.139H1219V201.281H1162.18V229.139ZM101.827 710.921H25.4204V738.779H101.827V710.921ZM495.32 668.451H418.913V696.309H495.32V668.451ZM58.1057 413.631H0V441.489H58.1057V413.631ZM58.1057 498.571H0V526.429H58.1057V498.571ZM58.1057 243.751H0V271.609H58.1057V243.751ZM58.1057 158.811H0V186.669H58.1057V158.811ZM58.1057 583.511H0V611.369H58.1057V583.511ZM58.1057 753.391H0V781.249H58.1057V753.391ZM58.1057 668.451H0V696.309H58.1057V668.451ZM451.599 456.101H375.192V483.959H451.599V456.101ZM757.649 498.571H681.242V526.429H757.649V498.571ZM713.928 456.101H637.521V483.959H713.928V456.101ZM670.206 498.571H593.799V526.429H670.206V498.571ZM801.371 456.101H724.964V483.959H801.371V456.101ZM582.763 498.571H506.356V526.429H582.763V498.571ZM495.32 498.571H418.913V526.429H495.32V498.571ZM539.042 456.101H462.635V483.959H539.042V456.101ZM626.485 456.101H550.078V483.959H626.485V456.101ZM845.076 498.571H768.669V526.429H845.076V498.571ZM681.242 271.609H757.649V243.751H681.242V271.609ZM888.797 286.221H812.39V314.079H888.797V286.221ZM724.964 229.139H801.371V201.281H724.964V229.139ZM888.797 456.101H812.39V483.959H888.797V456.101ZM637.521 229.139H713.928V201.281H637.521V229.139ZM593.799 271.609H670.206V243.751H593.799V271.609ZM768.685 441.489H845.092V413.631H768.685V441.489ZM888.797 371.161H812.39V399.019H888.797V371.161ZM768.685 356.549H845.092V328.691H768.685V356.549ZM593.799 356.549H670.206V328.691H593.799V356.549ZM637.521 314.079H713.928V286.221H637.521V314.079ZM582.763 413.631H506.356V441.489H582.763V413.631ZM550.078 314.079H626.485V286.221H550.078V314.079ZM506.356 356.549H582.763V328.691H506.356V356.549ZM801.371 371.161H724.964V399.019H801.371V371.161ZM670.206 413.631H593.799V441.489H670.206V413.631ZM407.878 498.571H331.471V526.429H407.878V498.571ZM713.928 371.161H637.521V399.019H713.928V371.161ZM757.649 413.631H681.242V441.489H757.649V413.631ZM626.485 371.161H550.078V399.019H626.485V371.161ZM364.156 371.161H287.749V399.019H364.156V371.161ZM287.749 314.079H364.156V286.221H287.749V314.079ZM244.028 356.549H320.435V328.691H244.028V356.549ZM244.028 441.489H320.435V413.631H244.028V441.489ZM462.635 314.079H539.042V286.221H462.635V314.079ZM331.471 356.549H407.878V328.691H331.471V356.549ZM418.913 356.549H495.32V328.691H418.913V356.549ZM375.192 314.079H451.599V286.221H375.192V314.079ZM1063.68 456.101H987.276V483.959H1063.68V456.101ZM69.1417 16.7896H145.549V0H69.1417V16.7896ZM244.028 16.7896H320.435V0H244.028V16.7896ZM418.913 16.7896H495.32V0H418.913V16.7896ZM156.585 16.7896H232.992V0H156.585V16.7896ZM331.471 16.7896H407.878V0H331.471V16.7896ZM681.242 16.7896H757.649V0H681.242V16.7896ZM506.356 16.7896H582.763V0H506.356V16.7896ZM856.128 16.7896H932.535V0H856.128V16.7896ZM593.799 16.7896H670.206V0H593.799V16.7896ZM768.685 16.7896H845.092V0H768.685V16.7896ZM14.3844 286.221H0V314.079H14.3844V286.221ZM1151.13 710.921H1074.72V738.779H1151.13V710.921ZM14.3844 625.981H0V653.839H14.3844V625.981ZM14.3844 541.041H0V568.899H14.3844V541.041ZM14.3844 31.4014H0V59.2596H14.3844V31.4014ZM0 16.7896H58.1057V0H0V16.7896ZM14.3844 201.281H0V229.139H14.3844V201.281ZM14.3844 116.341H0V144.2H14.3844V116.341ZM14.3844 371.161H0V399.019H14.3844V371.161ZM1031.01 441.489H1107.42V413.631H1031.01V441.489ZM1031.01 356.549H1107.42V328.691H1031.01V356.549ZM1151.13 456.101H1074.72V483.959H1151.13V456.101ZM1151.13 371.161H1074.72V399.019H1151.13V371.161ZM1031.01 526.429H1107.42V498.571H1031.01V526.429ZM1031.01 696.309H1107.42V668.451H1031.01V696.309ZM1151.13 625.981H1074.72V653.839H1151.13V625.981ZM1031.01 611.369H1107.42V583.511H1031.01V611.369ZM1151.13 541.041H1074.72V568.899H1151.13V541.041ZM943.571 16.7896H1019.98V0H943.571V16.7896ZM1031.01 101.73H1107.42V73.8713H1031.01V101.73ZM1151.13 31.4014H1074.72V59.2596H1151.13V31.4014ZM1151.13 116.341H1074.72V144.2H1151.13V116.341ZM1031.01 0V16.7896H1107.42V0H1031.01ZM1031.01 271.609H1107.42V243.751H1031.01V271.609ZM1151.13 286.221H1074.72V314.079H1151.13V286.221ZM1151.13 201.281H1074.72V229.139H1151.13V201.281ZM1031.01 186.669H1107.42V158.811H1031.01V186.669ZM14.3844 456.101H0V483.959H14.3844V456.101ZM1118.46 101.73H1194.86V73.8713H1118.46V101.73ZM1118.46 0V16.7896H1194.86V0H1118.46ZM1118.46 611.369H1194.86V583.511H1118.46V611.369ZM1205.9 753.391V781.249H1219V753.391H1205.9ZM1118.46 526.429H1194.86V498.571H1118.46V526.429ZM1205.9 668.451V696.309H1219V668.451H1205.9ZM1118.46 441.489H1194.86V413.631H1118.46V441.489ZM1118.46 356.549H1194.86V328.691H1118.46V356.549ZM1118.46 271.609H1194.86V243.751H1118.46V271.609ZM1118.46 186.669H1194.86V158.811H1118.46V186.669ZM1205.9 73.8713V101.73H1219V73.8713H1205.9ZM1205.9 583.511V611.369H1219V583.511H1205.9ZM1205.9 158.811V186.669H1219V158.811H1205.9ZM1205.9 16.7896H1219V0H1205.9V16.7896ZM1205.9 243.751V271.609H1219V243.751H1205.9ZM14.3844 710.921H0V738.779H14.3844V710.921ZM1205.9 328.691V356.549H1219V328.691H1205.9ZM1205.9 413.631V441.489H1219V413.631H1205.9ZM1205.9 498.571V526.429H1219V498.571H1205.9ZM276.713 795.861H200.306V812.65H276.713V795.861ZM364.156 795.861H287.749V812.65H364.156V795.861ZM451.599 795.861H375.192V812.65H451.599V795.861ZM539.042 795.861H462.635V812.65H539.042V795.861ZM14.3844 795.861H0V812.65H14.3844V795.861ZM626.485 795.861H550.078V812.65H626.485V795.861ZM101.827 795.861H25.4204V812.65H101.827V795.861ZM189.27 795.861H112.863V812.65H189.27V795.861ZM976.24 795.861H899.833V812.65H976.24V795.861ZM1063.68 795.861H987.276V812.65H1063.68V795.861ZM1118.46 781.249H1194.86V753.391H1118.46V781.249ZM1151.13 795.861H1074.72V812.65H1151.13V795.861ZM1162.18 812.667H1219V795.877H1162.18V812.667ZM1118.46 696.309H1194.86V668.451H1118.46V696.309ZM713.928 795.861H637.521V812.65H713.928V795.861ZM801.371 795.861H724.964V812.65H801.371V795.861ZM888.797 795.861H812.39V812.65H888.797V795.861ZM670.206 753.391H593.799V781.249H670.206V753.391ZM899.85 59.2596H976.257V31.4014H899.85V59.2596ZM1063.68 286.221H987.276V314.079H1063.68V286.221ZM856.128 101.73H932.535V73.8713H856.128V101.73ZM1107.4 753.391H1031V781.249H1107.4V753.391ZM943.571 186.669H1019.98V158.811H943.571V186.669ZM943.571 271.609H1019.98V243.751H943.571V271.609ZM1063.68 201.281H987.276V229.139H1063.68V201.281ZM1063.68 116.341H987.276V144.2H1063.68V116.341ZM724.964 59.2596H801.371V31.4014H724.964V59.2596ZM812.407 59.2596H888.814V31.4014H812.407V59.2596ZM506.356 101.73H582.763V73.8713H506.356V101.73ZM681.242 101.73H757.649V73.8713H681.242V101.73ZM462.635 59.2596H539.042V31.4014H462.635V59.2596ZM375.192 59.2596H451.599V31.4014H375.192V59.2596ZM418.913 101.73H495.32V73.8713H418.913V101.73ZM550.078 59.2596H626.485V31.4014H550.078V59.2596ZM637.521 59.2596H713.928V31.4014H637.521V59.2596ZM331.471 101.73H407.878V73.8713H331.471V101.73ZM593.799 101.73H670.206V73.8713H593.799V101.73ZM757.649 668.451H681.242V696.309H757.649V668.451ZM801.371 625.981H724.964V653.839H801.371V625.981ZM943.571 356.549H1019.98V328.691H943.571V356.549ZM888.797 625.981H812.39V653.839H888.797V625.981ZM713.928 625.981H637.521V653.839H713.928V625.981ZM582.763 668.451H506.356V696.309H582.763V668.451ZM626.485 625.981H550.078V653.839H626.485V625.981ZM932.519 668.451H856.112V696.309H932.519V668.451ZM670.206 668.451H593.799V696.309H670.206V668.451ZM845.076 668.451H768.669V696.309H845.076V668.451ZM943.571 441.489H1019.98V413.631H943.571V441.489ZM976.24 625.981H899.833V653.839H976.24V625.981ZM1063.68 541.041H987.276V568.899H1063.68V541.041ZM1063.68 371.161H987.276V399.019H1063.68V371.161ZM943.571 526.429H1019.98V498.571H943.571V526.429ZM1019.96 668.451H943.555V696.309H1019.96V668.451ZM1063.68 625.981H987.276V653.839H1063.68V625.981ZM943.571 611.369H1019.98V583.511H943.571V611.369ZM768.685 101.73H845.092V73.8713H768.685V101.73ZM539.042 710.921H462.635V738.779H539.042V710.921ZM626.485 710.921H550.078V738.779H626.485V710.921ZM582.763 753.391H506.356V781.249H582.763V753.391ZM539.042 625.981H462.635V653.839H539.042V625.981ZM451.599 710.921H375.192V738.779H451.599V710.921ZM407.878 753.391H331.471V781.249H407.878V753.391ZM495.32 753.391H418.913V781.249H495.32V753.391ZM364.156 710.921H287.749V738.779H364.156V710.921ZM713.928 710.921H637.521V738.779H713.928V710.921ZM1063.68 710.921H987.276V738.779H1063.68V710.921ZM1019.96 753.391H943.555V781.249H1019.96V753.391ZM932.519 753.391H856.112V781.249H932.519V753.391ZM757.649 753.391H681.242V781.249H757.649V753.391ZM320.435 753.391H244.028V781.249H320.435V753.391ZM976.24 710.921H899.833V738.779H976.24V710.921ZM888.797 710.921H812.39V738.779H888.797V710.921ZM801.371 710.921H724.964V738.779H801.371V710.921ZM845.076 753.391H768.669V781.249H845.076V753.391ZM112.863 59.2596H189.27V31.4014H112.863V59.2596ZM287.749 59.2596H364.156V31.4014H287.749V59.2596ZM69.1417 101.73H145.549V73.8713H69.1417V101.73ZM101.827 201.281H25.4204V229.139H101.827V201.281ZM101.827 116.341H25.4204V144.2H101.827V116.341ZM25.4204 59.2596H101.827V31.4014H25.4204V59.2596ZM244.028 101.73H320.435V73.8713H244.028V101.73ZM200.306 59.2596H276.713V31.4014H200.306V59.2596ZM156.585 101.73H232.992V73.8713H156.585V101.73ZM232.992 753.391H156.585V781.249H232.992V753.391ZM189.27 710.921H112.863V738.779H189.27V710.921ZM145.549 753.391H69.1417V781.249H145.549V753.391ZM101.827 286.221H25.4204V314.079H101.827V286.221ZM101.827 625.981H25.4204V653.839H101.827V625.981ZM276.713 710.921H200.306V738.779H276.713V710.921ZM101.827 371.161H25.4204V399.019H101.827V371.161ZM101.827 456.101H25.4204V483.959H101.827V456.101ZM101.827 541.041H25.4204V568.899H101.827V541.041Z" fill="#C8DEF5"/>
</g>
</svg>
