<svg width="127" height="142" viewBox="0 0 127 142" fill="none" xmlns="http://www.w3.org/2000/svg">
<path d="M41 94.5908L43.6966 96.552C44.4575 97.1053 44.7288 98.1108 44.3211 98.9587C41.9305 103.931 33.712 119.63 27.5 114.5C21.3169 109.394 34.2803 97.8229 38.338 94.4434C39.0224 93.8733 39.996 93.8606 40.7163 94.3845L41 94.5908ZM41 94.5908C49.6682 86.4847 53.7949 81.5797 60.5 72.5M42.5 87.5C45.9509 78.778 49.0605 74.0351 56.5 69.3193M56.5 69.3193C57.7117 68.5511 59.5548 68.5385 60.5 67C61.4452 65.4615 62.0868 64.1389 61 63C57.1647 58.981 49.5 50 46.5 50C43.873 50 41.117 52.4049 42 55C43.3308 61.8779 48.5736 63.8691 56.5 69.3193ZM61.5 63C61.5 63 63.5698 60.1019 63.5 58C63.4677 57.0274 63.1661 56.5244 62.7532 56M51.5 46C53.8206 45.8225 56.4195 46.4757 58.5 48.5C59.9409 49.9019 60.3643 51.0928 61 53C61.5542 54.6627 62.2398 55.348 62.7532 56M77.5 46C72.1889 47.3693 68.1777 49.4509 62.7532 56M48.5 94.5908C56.4787 90.2272 60.6791 87.2304 63.5 82.1843M65 79C64.5401 80.1547 64.0459 81.2078 63.5 82.1843M63.5 82.1843C67.9106 90.5883 71.4608 94.2342 79.5 99M69 77L87 96C87.2154 96.1308 87.428 96.2606 87.6378 96.3894M72 72.5C80.2532 77.5516 84.148 80.8685 87 89.5M87.6378 96.3894C95.5878 100.881 105.049 108.38 100.5 114.5C99.3121 116.098 97.4387 115.955 95.5 115.5C90.667 114.367 86.7362 109.495 84 104.5C82.968 102.616 82.9203 100.857 84 99C84.879 97.4884 87.6378 96.3894 87.6378 96.3894ZM66.5 64.5C72.4326 57.7364 75.779 54.0244 82 48.5C82 48.5 82.1037 43.8157 83 41C85.1793 34.1535 95.5 27.5 95.5 27.5C95.5 27.5 100.619 26.7909 102 29C103.035 30.6558 102.347 32.0784 102 34C101.201 38.4237 98.9121 40.5734 95.5 43.5C92.0527 46.4569 85 48.5 85 48.5L86 55L75.5 68L69 69.3193M45.0001 42C43.6343 43.5587 42.4025 47.0497 39.5001 47C37.0635 46.9583 26.682 35.4527 25.5001 30C24.8688 27.0871 29.1518 25.122 32.0001 26C35.9894 27.2297 46.366 40.4413 45.0001 42Z" stroke="#1B1F35" stroke-width="4"/>
</svg>
