<svg width="127" height="142" viewBox="0 0 127 142" fill="none" xmlns="http://www.w3.org/2000/svg">
<path d="M63.7786 52.4001V70.3516L82.1381 87.4872M62.9626 40.1604L63.7786 45.4643M33.9953 73.2075L36.4433 71.9836M92.3378 71.9836H96.4177M64.594 97.6869V101.767M64.594 32.0005C46.1372 32.0899 30.4469 46.3022 25.0191 65.8636C18.8666 88.0368 41.6418 111.16 64.594 109.518C86.48 107.953 104.863 86.946 102.945 65.8636C101.135 45.966 84.5737 31.9037 64.594 32.0005ZM60.5147 71.9836C61.3224 73.7526 62.6537 74.9691 64.594 74.8395C66.8536 74.6885 68.88 72.5315 68.2665 70.3516C67.9002 69.0502 67.018 68.5274 65.8185 67.9037C63.9808 66.9481 61.7775 66.2619 60.5147 67.9037C59.5432 69.1666 59.8529 70.5342 60.5147 71.9836Z" stroke="#1B1F35" stroke-width="4"/>
</svg>
