<svg width="899" height="559" viewBox="0 0 899 559" fill="none" xmlns="http://www.w3.org/2000/svg">
<circle cx="74.6021" cy="45.3208" r="5.5044" fill="#D9D9D9"/>
<circle cx="47.0825" cy="58.5298" r="5.5044" fill="#D9D9D9"/>
<circle cx="33.3169" cy="71.7407" r="5.5044" fill="#D9D9D9"/>
<circle cx="468.715" cy="84.9517" r="5.5044" fill="#D9D9D9"/>
<circle cx="468.715" cy="98.1626" r="5.5044" fill="#D9D9D9"/>
<circle cx="468.715" cy="111.374" r="5.5044" fill="#D9D9D9"/>
<circle cx="468.715" cy="137.793" r="5.5044" fill="#D9D9D9"/>
<circle cx="468.715" cy="151.004" r="5.5044" fill="#D9D9D9"/>
<circle cx="468.715" cy="164.215" r="5.5044" fill="#D9D9D9"/>
<circle cx="468.715" cy="190.637" r="5.5044" fill="#D9D9D9"/>
<circle cx="454.958" cy="190.637" r="5.5044" fill="#D9D9D9"/>
<circle cx="468.715" cy="203.846" r="5.5044" fill="#D9D9D9"/>
<circle cx="454.958" cy="203.846" r="5.5044" fill="#D9D9D9"/>
<circle cx="441.192" cy="203.846" r="5.5044" fill="#D9D9D9"/>
<circle cx="427.434" cy="203.846" r="5.5044" fill="#D9D9D9"/>
<circle cx="413.672" cy="203.846" r="5.5044" fill="#D9D9D9"/>
<circle cx="468.715" cy="217.057" r="5.5044" fill="#D9D9D9"/>
<circle cx="454.958" cy="217.057" r="5.5044" fill="#D9D9D9"/>
<circle cx="441.192" cy="217.057" r="5.5044" fill="#D9D9D9"/>
<circle cx="427.434" cy="217.057" r="5.5044" fill="#D9D9D9"/>
<circle cx="413.672" cy="217.057" r="5.5044" fill="#D9D9D9"/>
<circle cx="468.715" cy="230.268" r="5.5044" fill="#D9D9D9"/>
<circle cx="454.958" cy="230.268" r="5.5044" fill="#D9D9D9"/>
<circle cx="441.192" cy="230.268" r="5.5044" fill="#D9D9D9"/>
<circle cx="427.434" cy="230.268" r="5.5044" fill="#D9D9D9"/>
<circle cx="413.672" cy="230.268" r="5.5044" fill="#D9D9D9"/>
<circle cx="399.911" cy="230.268" r="5.5044" fill="#D9D9D9"/>
<circle cx="468.715" cy="243.479" r="5.5044" fill="#D9D9D9"/>
<circle cx="454.958" cy="243.479" r="5.5044" fill="#D9D9D9"/>
<circle cx="441.192" cy="243.479" r="5.5044" fill="#D9D9D9"/>
<circle cx="427.434" cy="243.479" r="5.5044" fill="#D9D9D9"/>
<circle cx="413.672" cy="243.479" r="5.5044" fill="#D9D9D9"/>
<circle cx="399.911" cy="243.479" r="5.5044" fill="#D9D9D9"/>
<circle cx="468.715" cy="256.69" r="5.5044" fill="#D9D9D9"/>
<circle cx="454.958" cy="256.69" r="5.5044" fill="#D9D9D9"/>
<circle cx="441.192" cy="256.69" r="5.5044" fill="#D9D9D9"/>
<circle cx="427.434" cy="256.69" r="5.5044" fill="#D9D9D9"/>
<circle cx="413.672" cy="256.69" r="5.5044" fill="#D9D9D9"/>
<circle cx="399.911" cy="256.69" r="5.5044" fill="#D9D9D9"/>
<circle cx="468.715" cy="269.899" r="5.5044" fill="#D9D9D9"/>
<circle cx="454.958" cy="269.899" r="5.5044" fill="#D9D9D9"/>
<circle cx="441.192" cy="269.899" r="5.5044" fill="#D9D9D9"/>
<circle cx="427.434" cy="269.899" r="5.5044" fill="#D9D9D9"/>
<circle cx="413.672" cy="269.899" r="5.5044" fill="#D9D9D9"/>
<circle cx="399.911" cy="269.899" r="5.5044" fill="#D9D9D9"/>
<circle cx="468.715" cy="283.11" r="5.5044" fill="#D9D9D9"/>
<circle cx="454.958" cy="283.11" r="5.5044" fill="#D9D9D9"/>
<circle cx="441.192" cy="283.11" r="5.5044" fill="#D9D9D9"/>
<circle cx="427.434" cy="283.11" r="5.5044" fill="#D9D9D9"/>
<circle cx="413.672" cy="283.11" r="5.5044" fill="#D9D9D9"/>
<circle cx="399.911" cy="283.11" r="5.5044" fill="#D9D9D9"/>
<circle cx="468.715" cy="296.321" r="5.5044" fill="#D9D9D9"/>
<circle cx="441.192" cy="296.321" r="5.5044" fill="#D9D9D9"/>
<circle cx="427.434" cy="296.321" r="5.5044" fill="#D9D9D9"/>
<circle cx="413.672" cy="296.321" r="5.5044" fill="#D9D9D9"/>
<circle cx="102.122" cy="58.5298" r="5.5044" fill="#D9D9D9"/>
<circle cx="88.3638" cy="71.7407" r="5.5044" fill="#D9D9D9"/>
<circle cx="523.762" cy="84.9517" r="5.5044" fill="#D9D9D9"/>
<circle cx="523.762" cy="98.1626" r="5.5044" fill="#D9D9D9"/>
<circle cx="523.762" cy="111.374" r="5.5044" fill="#D9D9D9"/>
<circle cx="523.762" cy="124.583" r="5.5044" fill="#D9D9D9"/>
<circle cx="523.762" cy="137.793" r="5.5044" fill="#D9D9D9"/>
<circle cx="523.762" cy="151.004" r="5.5044" fill="#D9D9D9"/>
<circle cx="523.762" cy="177.426" r="5.5044" fill="#D9D9D9"/>
<circle cx="523.762" cy="190.637" r="5.5044" fill="#D9D9D9"/>
<circle cx="523.762" cy="217.057" r="5.5044" fill="#D9D9D9"/>
<circle cx="523.762" cy="230.268" r="5.5044" fill="#D9D9D9"/>
<circle cx="523.762" cy="243.479" r="5.5044" fill="#D9D9D9"/>
<circle cx="523.762" cy="256.69" r="5.5044" fill="#D9D9D9"/>
<circle cx="523.762" cy="269.899" r="5.5044" fill="#D9D9D9"/>
<circle cx="523.762" cy="283.11" r="5.5044" fill="#D9D9D9"/>
<circle cx="523.762" cy="296.321" r="5.5044" fill="#D9D9D9"/>
<circle cx="523.762" cy="322.741" r="5.5044" fill="#D9D9D9"/>
<circle cx="523.762" cy="335.952" r="5.5044" fill="#D9D9D9"/>
<circle cx="523.762" cy="349.163" r="5.5044" fill="#D9D9D9"/>
<circle cx="523.762" cy="362.374" r="5.5044" fill="#D9D9D9"/>
<circle cx="523.762" cy="375.584" r="5.5044" fill="#D9D9D9"/>
<circle cx="523.762" cy="388.795" r="5.5044" fill="#D9D9D9"/>
<circle cx="523.762" cy="402.004" r="5.5044" fill="#D9D9D9"/>
<circle cx="523.762" cy="415.215" r="5.5044" fill="#D9D9D9"/>
<circle cx="225.973" cy="18.8989" r="5.5044" fill="#D9D9D9"/>
<circle cx="225.973" cy="32.1099" r="5.5044" fill="#D9D9D9"/>
<circle cx="74.6021" cy="84.9517" r="5.5044" fill="#D9D9D9"/>
<circle cx="88.3638" cy="45.3208" r="5.5044" fill="#D9D9D9"/>
<circle cx="60.8403" cy="58.5298" r="5.5044" fill="#D9D9D9"/>
<circle cx="47.0825" cy="71.7407" r="5.5044" fill="#D9D9D9"/>
<circle cx="482.477" cy="84.9517" r="5.5044" fill="#D9D9D9"/>
<circle cx="482.477" cy="71.7407" r="5.5044" fill="#D9D9D9"/>
<circle cx="482.477" cy="111.374" r="5.5044" fill="#D9D9D9"/>
<circle cx="441.192" cy="111.374" r="5.5044" fill="#D9D9D9"/>
<circle cx="482.477" cy="124.583" r="5.5044" fill="#D9D9D9"/>
<circle cx="441.192" cy="124.583" r="5.5044" fill="#D9D9D9"/>
<circle cx="427.434" cy="124.583" r="5.5044" fill="#D9D9D9"/>
<circle cx="482.477" cy="137.793" r="5.5044" fill="#D9D9D9"/>
<circle cx="454.958" cy="137.793" r="5.5044" fill="#D9D9D9"/>
<circle cx="441.192" cy="137.793" r="5.5044" fill="#D9D9D9"/>
<circle cx="427.434" cy="137.793" r="5.5044" fill="#D9D9D9"/>
<circle cx="413.672" cy="137.793" r="5.5044" fill="#D9D9D9"/>
<circle cx="482.477" cy="151.004" r="5.5044" fill="#D9D9D9"/>
<circle cx="454.958" cy="151.004" r="5.5044" fill="#D9D9D9"/>
<circle cx="441.192" cy="151.004" r="5.5044" fill="#D9D9D9"/>
<circle cx="482.477" cy="164.215" r="5.5044" fill="#D9D9D9"/>
<circle cx="454.958" cy="164.215" r="5.5044" fill="#D9D9D9"/>
<circle cx="441.192" cy="164.215" r="5.5044" fill="#D9D9D9"/>
<circle cx="427.434" cy="164.215" r="5.5044" fill="#D9D9D9"/>
<circle cx="413.672" cy="164.215" r="5.5044" fill="#D9D9D9"/>
<circle cx="482.477" cy="177.426" r="5.5044" fill="#D9D9D9"/>
<circle cx="441.192" cy="177.426" r="5.5044" fill="#D9D9D9"/>
<circle cx="427.434" cy="177.426" r="5.5044" fill="#D9D9D9"/>
<circle cx="482.477" cy="203.846" r="5.5044" fill="#D9D9D9"/>
<circle cx="482.477" cy="217.057" r="5.5044" fill="#D9D9D9"/>
<circle cx="482.477" cy="230.268" r="5.5044" fill="#D9D9D9"/>
<circle cx="482.477" cy="243.479" r="5.5044" fill="#D9D9D9"/>
<circle cx="482.477" cy="256.69" r="5.5044" fill="#D9D9D9"/>
<circle cx="482.477" cy="269.899" r="5.5044" fill="#D9D9D9"/>
<circle cx="482.477" cy="283.11" r="5.5044" fill="#D9D9D9"/>
<circle cx="482.477" cy="296.321" r="5.5044" fill="#D9D9D9"/>
<circle cx="482.477" cy="309.532" r="5.5044" fill="#D9D9D9"/>
<circle cx="482.477" cy="322.741" r="5.5044" fill="#D9D9D9"/>
<circle cx="482.477" cy="335.952" r="5.5044" fill="#D9D9D9"/>
<circle cx="482.477" cy="349.163" r="5.5044" fill="#D9D9D9"/>
<circle cx="482.477" cy="362.374" r="5.5044" fill="#D9D9D9"/>
<circle cx="482.477" cy="375.584" r="5.5044" fill="#D9D9D9"/>
<circle cx="184.692" cy="32.1099" r="5.5044" fill="#D9D9D9"/>
<circle cx="33.3169" cy="84.9517" r="5.5044" fill="#D9D9D9"/>
<circle cx="5.79737" cy="98.1626" r="5.5044" fill="#D9D9D9"/>
<circle cx="115.887" cy="58.5298" r="5.5044" fill="#D9D9D9"/>
<circle cx="102.122" cy="71.7407" r="5.5044" fill="#D9D9D9"/>
<circle cx="537.52" cy="84.9517" r="5.5044" fill="#D9D9D9"/>
<circle cx="537.52" cy="98.1626" r="5.5044" fill="#D9D9D9"/>
<circle cx="537.52" cy="111.374" r="5.5044" fill="#D9D9D9"/>
<circle cx="537.52" cy="124.583" r="5.5044" fill="#D9D9D9"/>
<circle cx="537.52" cy="137.793" r="5.5044" fill="#D9D9D9"/>
<circle cx="537.52" cy="151.004" r="5.5044" fill="#D9D9D9"/>
<circle cx="537.52" cy="177.426" r="5.5044" fill="#D9D9D9"/>
<circle cx="537.52" cy="190.637" r="5.5044" fill="#D9D9D9"/>
<circle cx="537.52" cy="203.846" r="5.5044" fill="#D9D9D9"/>
<circle cx="537.52" cy="230.268" r="5.5044" fill="#D9D9D9"/>
<circle cx="537.52" cy="243.479" r="5.5044" fill="#D9D9D9"/>
<circle cx="537.52" cy="256.69" r="5.5044" fill="#D9D9D9"/>
<circle cx="537.52" cy="269.899" r="5.5044" fill="#D9D9D9"/>
<circle cx="537.52" cy="283.11" r="5.5044" fill="#D9D9D9"/>
<circle cx="537.52" cy="296.321" r="5.5044" fill="#D9D9D9"/>
<circle cx="537.52" cy="309.532" r="5.5044" fill="#D9D9D9"/>
<circle cx="537.52" cy="322.741" r="5.5044" fill="#D9D9D9"/>
<circle cx="537.52" cy="335.952" r="5.5044" fill="#D9D9D9"/>
<circle cx="537.52" cy="349.163" r="5.5044" fill="#D9D9D9"/>
<circle cx="537.52" cy="362.374" r="5.5044" fill="#D9D9D9"/>
<circle cx="537.52" cy="375.584" r="5.5044" fill="#D9D9D9"/>
<circle cx="537.52" cy="388.795" r="5.5044" fill="#D9D9D9"/>
<circle cx="537.52" cy="402.004" r="5.5044" fill="#D9D9D9"/>
<circle cx="239.735" cy="18.8989" r="5.5044" fill="#D9D9D9"/>
<circle cx="239.735" cy="32.1099" r="5.5044" fill="#D9D9D9"/>
<circle cx="88.3638" cy="84.9517" r="5.5044" fill="#D9D9D9"/>
<circle cx="88.3638" cy="98.1626" r="5.5044" fill="#D9D9D9"/>
<circle cx="88.3638" cy="111.374" r="5.5044" fill="#D9D9D9"/>
<circle cx="88.3638" cy="124.583" r="5.5044" fill="#D9D9D9"/>
<circle cx="88.3638" cy="137.793" r="5.5044" fill="#D9D9D9"/>
<circle cx="74.6021" cy="138.895" r="5.5044" fill="#D9D9D9"/>
<circle cx="88.3638" cy="151.004" r="5.5044" fill="#D9D9D9"/>
<circle cx="74.6021" cy="152.106" r="5.5044" fill="#D9D9D9"/>
<circle cx="88.3638" cy="164.215" r="5.5044" fill="#D9D9D9"/>
<circle cx="74.6021" cy="165.315" r="5.5044" fill="#D9D9D9"/>
<circle cx="60.8403" cy="166.417" r="5.5044" fill="#D9D9D9"/>
<circle cx="88.3638" cy="177.426" r="5.5044" fill="#D9D9D9"/>
<circle cx="74.6021" cy="178.526" r="5.5044" fill="#D9D9D9"/>
<circle cx="60.8403" cy="179.627" r="5.5044" fill="#D9D9D9"/>
<circle cx="47.0825" cy="180.729" r="5.5044" fill="#D9D9D9"/>
<circle cx="88.3638" cy="190.637" r="5.5044" fill="#D9D9D9"/>
<circle cx="74.6021" cy="191.737" r="5.5044" fill="#D9D9D9"/>
<circle cx="60.8403" cy="192.838" r="5.5044" fill="#D9D9D9"/>
<circle cx="47.0825" cy="193.938" r="5.5044" fill="#D9D9D9"/>
<circle cx="88.3638" cy="203.846" r="5.5044" fill="#D9D9D9"/>
<circle cx="74.6021" cy="204.948" r="5.5044" fill="#D9D9D9"/>
<circle cx="60.8403" cy="206.049" r="5.5044" fill="#D9D9D9"/>
<circle cx="47.0825" cy="207.149" r="5.5044" fill="#D9D9D9"/>
<circle cx="88.3638" cy="217.057" r="5.5044" fill="#D9D9D9"/>
<circle cx="74.6021" cy="218.159" r="5.5044" fill="#D9D9D9"/>
<circle cx="60.8403" cy="219.258" r="5.5044" fill="#D9D9D9"/>
<circle cx="47.0825" cy="220.36" r="5.5044" fill="#D9D9D9"/>
<circle cx="88.3638" cy="230.268" r="5.5044" fill="#D9D9D9"/>
<circle cx="74.6021" cy="231.368" r="5.5044" fill="#D9D9D9"/>
<circle cx="60.8403" cy="232.469" r="5.5044" fill="#D9D9D9"/>
<circle cx="88.3638" cy="243.479" r="5.5044" fill="#D9D9D9"/>
<circle cx="74.6021" cy="244.579" r="5.5044" fill="#D9D9D9"/>
<circle cx="88.3638" cy="256.69" r="5.5044" fill="#D9D9D9"/>
<circle cx="88.3638" cy="269.899" r="5.5044" fill="#D9D9D9"/>
<circle cx="170.926" cy="367.877" r="5.5044" fill="#D9D9D9"/>
<circle cx="170.926" cy="354.667" r="5.5044" fill="#D9D9D9"/>
<circle cx="170.926" cy="315.036" r="5.5044" fill="#D9D9D9"/>
<circle cx="170.926" cy="381.088" r="5.5044" fill="#D9D9D9"/>
<circle cx="170.926" cy="394.299" r="5.5044" fill="#D9D9D9"/>
<circle cx="157.168" cy="58.5298" r="5.5044" fill="#D9D9D9"/>
<circle cx="143.407" cy="71.7407" r="5.5044" fill="#D9D9D9"/>
<circle cx="578.805" cy="84.9517" r="5.5044" fill="#D9D9D9"/>
<circle cx="578.805" cy="71.7407" r="5.5044" fill="#D9D9D9"/>
<circle cx="578.805" cy="58.5298" r="5.5044" fill="#D9D9D9"/>
<circle cx="578.805" cy="98.1626" r="5.5044" fill="#D9D9D9"/>
<circle cx="578.805" cy="111.374" r="5.5044" fill="#D9D9D9"/>
<circle cx="578.805" cy="124.583" r="5.5044" fill="#D9D9D9"/>
<circle cx="578.805" cy="137.793" r="5.5044" fill="#D9D9D9"/>
<circle cx="578.805" cy="151.004" r="5.5044" fill="#D9D9D9"/>
<circle cx="578.805" cy="164.215" r="5.5044" fill="#D9D9D9"/>
<circle cx="578.805" cy="177.426" r="5.5044" fill="#D9D9D9"/>
<circle cx="578.805" cy="190.637" r="5.5044" fill="#D9D9D9"/>
<circle cx="578.805" cy="203.846" r="5.5044" fill="#D9D9D9"/>
<circle cx="578.805" cy="217.057" r="5.5044" fill="#D9D9D9"/>
<circle cx="578.805" cy="230.268" r="5.5044" fill="#D9D9D9"/>
<circle cx="578.805" cy="243.479" r="5.5044" fill="#D9D9D9"/>
<circle cx="578.805" cy="256.69" r="5.5044" fill="#D9D9D9"/>
<circle cx="578.805" cy="283.11" r="5.5044" fill="#D9D9D9"/>
<circle cx="578.805" cy="296.321" r="5.5044" fill="#D9D9D9"/>
<circle cx="578.805" cy="362.374" r="5.5044" fill="#D9D9D9"/>
<circle cx="578.805" cy="375.584" r="5.5044" fill="#D9D9D9"/>
<circle cx="578.805" cy="388.795" r="5.5044" fill="#D9D9D9"/>
<circle cx="281.02" cy="18.8989" r="5.5044" fill="#D9D9D9"/>
<circle cx="281.02" cy="5.68799" r="5.5044" fill="#D9D9D9"/>
<circle cx="281.02" cy="32.1099" r="5.5044" fill="#D9D9D9"/>
<circle cx="211.661" cy="71.7407" r="5.5044" fill="#D9D9D9"/>
<circle cx="647.059" cy="84.9517" r="5.5044" fill="#D9D9D9"/>
<circle cx="647.059" cy="71.7407" r="5.5044" fill="#D9D9D9"/>
<circle cx="647.059" cy="58.5298" r="5.5044" fill="#D9D9D9"/>
<circle cx="647.059" cy="98.1626" r="5.5044" fill="#D9D9D9"/>
<circle cx="647.059" cy="111.374" r="5.5044" fill="#D9D9D9"/>
<circle cx="647.059" cy="124.583" r="5.5044" fill="#D9D9D9"/>
<circle cx="647.059" cy="137.793" r="5.5044" fill="#D9D9D9"/>
<circle cx="647.059" cy="151.004" r="5.5044" fill="#D9D9D9"/>
<circle cx="647.059" cy="164.215" r="5.5044" fill="#D9D9D9"/>
<circle cx="647.059" cy="177.426" r="5.5044" fill="#D9D9D9"/>
<circle cx="647.059" cy="190.637" r="5.5044" fill="#D9D9D9"/>
<circle cx="647.059" cy="203.846" r="5.5044" fill="#D9D9D9"/>
<circle cx="647.059" cy="217.057" r="5.5044" fill="#D9D9D9"/>
<circle cx="647.059" cy="230.268" r="5.5044" fill="#D9D9D9"/>
<circle cx="349.27" cy="18.8989" r="5.5044" fill="#D9D9D9"/>
<circle cx="349.27" cy="32.1099" r="5.5044" fill="#D9D9D9"/>
<circle cx="129.645" cy="84.9517" r="5.5044" fill="#D9D9D9"/>
<circle cx="129.645" cy="98.1626" r="5.5044" fill="#D9D9D9"/>
<circle cx="129.645" cy="111.374" r="5.5044" fill="#D9D9D9"/>
<circle cx="129.645" cy="124.583" r="5.5044" fill="#D9D9D9"/>
<circle cx="129.645" cy="137.793" r="5.5044" fill="#D9D9D9"/>
<circle cx="129.645" cy="151.004" r="5.5044" fill="#D9D9D9"/>
<circle cx="129.645" cy="164.215" r="5.5044" fill="#D9D9D9"/>
<circle cx="129.645" cy="177.426" r="5.5044" fill="#D9D9D9"/>
<circle cx="129.645" cy="190.637" r="5.5044" fill="#D9D9D9"/>
<circle cx="129.645" cy="203.846" r="5.5044" fill="#D9D9D9"/>
<circle cx="129.645" cy="217.057" r="5.5044" fill="#D9D9D9"/>
<circle cx="129.645" cy="230.268" r="5.5044" fill="#D9D9D9"/>
<circle cx="129.645" cy="243.479" r="5.5044" fill="#D9D9D9"/>
<circle cx="129.645" cy="256.69" r="5.5044" fill="#D9D9D9"/>
<circle cx="129.645" cy="269.899" r="5.5044" fill="#D9D9D9"/>
<circle cx="212.211" cy="367.877" r="5.5044" fill="#D9D9D9"/>
<circle cx="212.211" cy="354.667" r="5.5044" fill="#D9D9D9"/>
<circle cx="212.211" cy="341.456" r="5.5044" fill="#D9D9D9"/>
<circle cx="212.211" cy="328.247" r="5.5044" fill="#D9D9D9"/>
<circle cx="212.211" cy="315.036" r="5.5044" fill="#D9D9D9"/>
<circle cx="212.211" cy="301.825" r="5.5044" fill="#D9D9D9"/>
<circle cx="212.211" cy="381.088" r="5.5044" fill="#D9D9D9"/>
<circle cx="212.211" cy="394.299" r="5.5044" fill="#D9D9D9"/>
<circle cx="212.211" cy="407.51" r="5.5044" fill="#D9D9D9"/>
<circle cx="212.211" cy="420.719" r="5.5044" fill="#D9D9D9"/>
<circle cx="212.211" cy="433.93" r="5.5044" fill="#D9D9D9"/>
<circle cx="212.211" cy="447.141" r="5.5044" fill="#D9D9D9"/>
<circle cx="129.645" cy="283.11" r="5.5044" fill="#D9D9D9"/>
<circle cx="170.926" cy="84.9517" r="5.5044" fill="#D9D9D9"/>
<circle cx="170.926" cy="98.1626" r="5.5044" fill="#D9D9D9"/>
<circle cx="170.926" cy="111.374" r="5.5044" fill="#D9D9D9"/>
<circle cx="170.926" cy="124.583" r="5.5044" fill="#D9D9D9"/>
<circle cx="170.926" cy="137.793" r="5.5044" fill="#D9D9D9"/>
<circle cx="170.926" cy="151.004" r="5.5044" fill="#D9D9D9"/>
<circle cx="170.926" cy="164.215" r="5.5044" fill="#D9D9D9"/>
<circle cx="170.926" cy="177.426" r="5.5044" fill="#D9D9D9"/>
<circle cx="170.926" cy="190.637" r="5.5044" fill="#D9D9D9"/>
<circle cx="170.926" cy="203.846" r="5.5044" fill="#D9D9D9"/>
<circle cx="170.926" cy="217.057" r="5.5044" fill="#D9D9D9"/>
<circle cx="170.926" cy="230.268" r="5.5044" fill="#D9D9D9"/>
<circle cx="170.926" cy="243.479" r="5.5044" fill="#D9D9D9"/>
<circle cx="170.926" cy="256.69" r="5.5044" fill="#D9D9D9"/>
<circle cx="170.926" cy="269.899" r="5.5044" fill="#D9D9D9"/>
<circle cx="253.497" cy="367.877" r="5.5044" fill="#D9D9D9"/>
<circle cx="253.497" cy="354.667" r="5.5044" fill="#D9D9D9"/>
<circle cx="253.497" cy="341.456" r="5.5044" fill="#D9D9D9"/>
<circle cx="253.497" cy="328.247" r="5.5044" fill="#D9D9D9"/>
<circle cx="253.497" cy="407.51" r="5.5044" fill="#D9D9D9"/>
<circle cx="253.497" cy="420.719" r="5.5044" fill="#D9D9D9"/>
<circle cx="253.497" cy="433.93" r="5.5044" fill="#D9D9D9"/>
<circle cx="253.497" cy="447.141" r="5.5044" fill="#D9D9D9"/>
<circle cx="253.497" cy="460.352" r="5.5044" fill="#D9D9D9"/>
<circle cx="253.497" cy="473.563" r="5.5044" fill="#D9D9D9"/>
<circle cx="253.497" cy="486.772" r="5.5044" fill="#D9D9D9"/>
<circle cx="253.497" cy="499.983" r="5.5044" fill="#D9D9D9"/>
<circle cx="253.497" cy="513.194" r="5.5044" fill="#D9D9D9"/>
<circle cx="253.497" cy="526.405" r="5.5044" fill="#D9D9D9"/>
<circle cx="253.497" cy="539.616" r="5.5044" fill="#D9D9D9"/>
<circle cx="253.497" cy="552.827" r="5.5044" fill="#D9D9D9"/>
<circle cx="102.122" cy="45.3208" r="5.5044" fill="#D9D9D9"/>
<circle cx="74.6021" cy="58.5298" r="5.5044" fill="#D9D9D9"/>
<circle cx="60.8403" cy="71.7407" r="5.5044" fill="#D9D9D9"/>
<circle cx="496.239" cy="84.9517" r="5.5044" fill="#D9D9D9"/>
<circle cx="496.239" cy="71.7407" r="5.5044" fill="#D9D9D9"/>
<circle cx="496.239" cy="98.1626" r="5.5044" fill="#D9D9D9"/>
<circle cx="496.239" cy="124.583" r="5.5044" fill="#D9D9D9"/>
<circle cx="496.239" cy="137.793" r="5.5044" fill="#D9D9D9"/>
<circle cx="496.239" cy="151.004" r="5.5044" fill="#D9D9D9"/>
<circle cx="496.239" cy="164.215" r="5.5044" fill="#D9D9D9"/>
<circle cx="496.239" cy="177.426" r="5.5044" fill="#D9D9D9"/>
<circle cx="496.239" cy="217.057" r="5.5044" fill="#D9D9D9"/>
<circle cx="496.239" cy="230.268" r="5.5044" fill="#D9D9D9"/>
<circle cx="496.239" cy="243.479" r="5.5044" fill="#D9D9D9"/>
<circle cx="496.239" cy="256.69" r="5.5044" fill="#D9D9D9"/>
<circle cx="496.239" cy="269.899" r="5.5044" fill="#D9D9D9"/>
<circle cx="496.239" cy="283.11" r="5.5044" fill="#D9D9D9"/>
<circle cx="496.239" cy="296.321" r="5.5044" fill="#D9D9D9"/>
<circle cx="496.239" cy="309.532" r="5.5044" fill="#D9D9D9"/>
<circle cx="496.239" cy="322.741" r="5.5044" fill="#D9D9D9"/>
<circle cx="496.239" cy="335.952" r="5.5044" fill="#D9D9D9"/>
<circle cx="496.239" cy="349.163" r="5.5044" fill="#D9D9D9"/>
<circle cx="496.239" cy="362.374" r="5.5044" fill="#D9D9D9"/>
<circle cx="496.239" cy="375.584" r="5.5044" fill="#D9D9D9"/>
<circle cx="496.239" cy="388.795" r="5.5044" fill="#D9D9D9"/>
<circle cx="496.239" cy="402.004" r="5.5044" fill="#D9D9D9"/>
<circle cx="496.239" cy="415.215" r="5.5044" fill="#D9D9D9"/>
<circle cx="496.239" cy="428.426" r="5.5044" fill="#D9D9D9"/>
<circle cx="198.45" cy="32.1099" r="5.5044" fill="#D9D9D9"/>
<circle cx="47.0825" cy="84.9517" r="5.5044" fill="#D9D9D9"/>
<circle cx="19.5591" cy="98.1626" r="5.5044" fill="#D9D9D9"/>
<circle cx="129.645" cy="58.5298" r="5.5044" fill="#D9D9D9"/>
<circle cx="115.887" cy="71.7407" r="5.5044" fill="#D9D9D9"/>
<circle cx="551.286" cy="84.9517" r="5.5044" fill="#D9D9D9"/>
<circle cx="551.286" cy="71.7407" r="5.5044" fill="#D9D9D9"/>
<circle cx="551.286" cy="58.5298" r="5.5044" fill="#D9D9D9"/>
<circle cx="551.286" cy="98.1626" r="5.5044" fill="#D9D9D9"/>
<circle cx="551.286" cy="111.374" r="5.5044" fill="#D9D9D9"/>
<circle cx="551.286" cy="124.583" r="5.5044" fill="#D9D9D9"/>
<circle cx="551.286" cy="137.793" r="5.5044" fill="#D9D9D9"/>
<circle cx="551.286" cy="151.004" r="5.5044" fill="#D9D9D9"/>
<circle cx="551.286" cy="164.215" r="5.5044" fill="#D9D9D9"/>
<circle cx="551.286" cy="177.426" r="5.5044" fill="#D9D9D9"/>
<circle cx="551.286" cy="190.637" r="5.5044" fill="#D9D9D9"/>
<circle cx="551.286" cy="203.846" r="5.5044" fill="#D9D9D9"/>
<circle cx="551.286" cy="217.057" r="5.5044" fill="#D9D9D9"/>
<circle cx="551.286" cy="256.69" r="5.5044" fill="#D9D9D9"/>
<circle cx="551.286" cy="269.899" r="5.5044" fill="#D9D9D9"/>
<circle cx="551.286" cy="283.11" r="5.5044" fill="#D9D9D9"/>
<circle cx="551.286" cy="296.321" r="5.5044" fill="#D9D9D9"/>
<circle cx="551.286" cy="309.532" r="5.5044" fill="#D9D9D9"/>
<circle cx="551.286" cy="322.741" r="5.5044" fill="#D9D9D9"/>
<circle cx="551.286" cy="335.952" r="5.5044" fill="#D9D9D9"/>
<circle cx="551.286" cy="349.163" r="5.5044" fill="#D9D9D9"/>
<circle cx="551.286" cy="362.374" r="5.5044" fill="#D9D9D9"/>
<circle cx="253.497" cy="18.8989" r="5.5044" fill="#D9D9D9"/>
<circle cx="253.497" cy="32.1099" r="5.5044" fill="#D9D9D9"/>
<circle cx="184.137" cy="71.7407" r="5.5044" fill="#D9D9D9"/>
<circle cx="619.536" cy="84.9517" r="5.5044" fill="#D9D9D9"/>
<circle cx="619.536" cy="71.7407" r="5.5044" fill="#D9D9D9"/>
<circle cx="619.536" cy="58.5298" r="5.5044" fill="#D9D9D9"/>
<circle cx="619.536" cy="98.1626" r="5.5044" fill="#D9D9D9"/>
<circle cx="619.536" cy="111.374" r="5.5044" fill="#D9D9D9"/>
<circle cx="619.536" cy="124.583" r="5.5044" fill="#D9D9D9"/>
<circle cx="619.536" cy="137.793" r="5.5044" fill="#D9D9D9"/>
<circle cx="619.536" cy="151.004" r="5.5044" fill="#D9D9D9"/>
<circle cx="619.536" cy="164.215" r="5.5044" fill="#D9D9D9"/>
<circle cx="619.536" cy="177.426" r="5.5044" fill="#D9D9D9"/>
<circle cx="619.536" cy="190.637" r="5.5044" fill="#D9D9D9"/>
<circle cx="619.536" cy="203.846" r="5.5044" fill="#D9D9D9"/>
<circle cx="619.536" cy="217.057" r="5.5044" fill="#D9D9D9"/>
<circle cx="321.75" cy="18.8989" r="5.5044" fill="#D9D9D9"/>
<circle cx="321.75" cy="5.68799" r="5.5044" fill="#D9D9D9"/>
<circle cx="321.75" cy="32.1099" r="5.5044" fill="#D9D9D9"/>
<circle cx="102.122" cy="84.9517" r="5.5044" fill="#D9D9D9"/>
<circle cx="102.122" cy="98.1626" r="5.5044" fill="#D9D9D9"/>
<circle cx="102.122" cy="111.374" r="5.5044" fill="#D9D9D9"/>
<circle cx="102.122" cy="124.583" r="5.5044" fill="#D9D9D9"/>
<circle cx="102.122" cy="137.793" r="5.5044" fill="#D9D9D9"/>
<circle cx="102.122" cy="151.004" r="5.5044" fill="#D9D9D9"/>
<circle cx="102.122" cy="164.215" r="5.5044" fill="#D9D9D9"/>
<circle cx="102.122" cy="190.637" r="5.5044" fill="#D9D9D9"/>
<circle cx="102.122" cy="203.846" r="5.5044" fill="#D9D9D9"/>
<circle cx="102.122" cy="217.057" r="5.5044" fill="#D9D9D9"/>
<circle cx="102.122" cy="230.268" r="5.5044" fill="#D9D9D9"/>
<circle cx="102.122" cy="243.479" r="5.5044" fill="#D9D9D9"/>
<circle cx="102.122" cy="256.69" r="5.5044" fill="#D9D9D9"/>
<circle cx="102.122" cy="269.899" r="5.5044" fill="#D9D9D9"/>
<circle cx="184.692" cy="367.877" r="5.5044" fill="#D9D9D9"/>
<circle cx="184.692" cy="354.667" r="5.5044" fill="#D9D9D9"/>
<circle cx="184.692" cy="341.456" r="5.5044" fill="#D9D9D9"/>
<circle cx="184.692" cy="315.036" r="5.5044" fill="#D9D9D9"/>
<circle cx="184.692" cy="301.825" r="5.5044" fill="#D9D9D9"/>
<circle cx="184.692" cy="381.088" r="5.5044" fill="#D9D9D9"/>
<circle cx="184.692" cy="394.299" r="5.5044" fill="#D9D9D9"/>
<circle cx="184.692" cy="407.51" r="5.5044" fill="#D9D9D9"/>
<circle cx="170.926" cy="58.5298" r="5.5044" fill="#D9D9D9"/>
<circle cx="157.168" cy="71.7407" r="5.5044" fill="#D9D9D9"/>
<circle cx="592.567" cy="84.9517" r="5.5044" fill="#D9D9D9"/>
<circle cx="592.567" cy="71.7407" r="5.5044" fill="#D9D9D9"/>
<circle cx="592.567" cy="58.5298" r="5.5044" fill="#D9D9D9"/>
<circle cx="592.567" cy="98.1626" r="5.5044" fill="#D9D9D9"/>
<circle cx="592.567" cy="111.374" r="5.5044" fill="#D9D9D9"/>
<circle cx="592.567" cy="124.583" r="5.5044" fill="#D9D9D9"/>
<circle cx="592.567" cy="137.793" r="5.5044" fill="#D9D9D9"/>
<circle cx="592.567" cy="151.004" r="5.5044" fill="#D9D9D9"/>
<circle cx="592.567" cy="164.215" r="5.5044" fill="#D9D9D9"/>
<circle cx="592.567" cy="177.426" r="5.5044" fill="#D9D9D9"/>
<circle cx="592.567" cy="190.637" r="5.5044" fill="#D9D9D9"/>
<circle cx="592.567" cy="203.846" r="5.5044" fill="#D9D9D9"/>
<circle cx="592.567" cy="217.057" r="5.5044" fill="#D9D9D9"/>
<circle cx="592.567" cy="230.268" r="5.5044" fill="#D9D9D9"/>
<circle cx="592.567" cy="243.479" r="5.5044" fill="#D9D9D9"/>
<circle cx="592.567" cy="256.69" r="5.5044" fill="#D9D9D9"/>
<circle cx="592.567" cy="283.11" r="5.5044" fill="#D9D9D9"/>
<circle cx="592.567" cy="349.163" r="5.5044" fill="#D9D9D9"/>
<circle cx="592.567" cy="362.374" r="5.5044" fill="#D9D9D9"/>
<circle cx="294.778" cy="18.8989" r="5.5044" fill="#D9D9D9"/>
<circle cx="294.778" cy="5.68799" r="5.5044" fill="#D9D9D9"/>
<circle cx="225.422" cy="71.7407" r="5.5044" fill="#D9D9D9"/>
<circle cx="660.821" cy="84.9517" r="5.5044" fill="#D9D9D9"/>
<circle cx="660.821" cy="71.7407" r="5.5044" fill="#D9D9D9"/>
<circle cx="660.821" cy="58.5298" r="5.5044" fill="#D9D9D9"/>
<circle cx="660.821" cy="98.1626" r="5.5044" fill="#D9D9D9"/>
<circle cx="660.821" cy="111.374" r="5.5044" fill="#D9D9D9"/>
<circle cx="660.821" cy="124.583" r="5.5044" fill="#D9D9D9"/>
<circle cx="660.821" cy="137.793" r="5.5044" fill="#D9D9D9"/>
<circle cx="660.821" cy="151.004" r="5.5044" fill="#D9D9D9"/>
<circle cx="660.821" cy="164.215" r="5.5044" fill="#D9D9D9"/>
<circle cx="660.821" cy="177.426" r="5.5044" fill="#D9D9D9"/>
<circle cx="660.821" cy="190.637" r="5.5044" fill="#D9D9D9"/>
<circle cx="660.821" cy="203.846" r="5.5044" fill="#D9D9D9"/>
<circle cx="660.821" cy="217.057" r="5.5044" fill="#D9D9D9"/>
<circle cx="660.821" cy="230.268" r="5.5044" fill="#D9D9D9"/>
<circle cx="660.821" cy="243.479" r="5.5044" fill="#D9D9D9"/>
<circle cx="660.821" cy="256.69" r="5.5044" fill="#D9D9D9"/>
<circle cx="660.821" cy="269.899" r="5.5044" fill="#D9D9D9"/>
<circle cx="363.032" cy="18.8989" r="5.5044" fill="#D9D9D9"/>
<circle cx="363.032" cy="32.1099" r="5.5044" fill="#D9D9D9"/>
<circle cx="143.407" cy="84.9517" r="5.5044" fill="#D9D9D9"/>
<circle cx="143.407" cy="98.1626" r="5.5044" fill="#D9D9D9"/>
<circle cx="143.407" cy="111.374" r="5.5044" fill="#D9D9D9"/>
<circle cx="143.407" cy="124.583" r="5.5044" fill="#D9D9D9"/>
<circle cx="143.407" cy="137.793" r="5.5044" fill="#D9D9D9"/>
<circle cx="143.407" cy="151.004" r="5.5044" fill="#D9D9D9"/>
<circle cx="143.407" cy="164.215" r="5.5044" fill="#D9D9D9"/>
<circle cx="143.407" cy="177.426" r="5.5044" fill="#D9D9D9"/>
<circle cx="143.407" cy="203.846" r="5.5044" fill="#D9D9D9"/>
<circle cx="143.407" cy="217.057" r="5.5044" fill="#D9D9D9"/>
<circle cx="143.407" cy="230.268" r="5.5044" fill="#D9D9D9"/>
<circle cx="143.407" cy="243.479" r="5.5044" fill="#D9D9D9"/>
<circle cx="143.407" cy="256.69" r="5.5044" fill="#D9D9D9"/>
<circle cx="143.407" cy="269.899" r="5.5044" fill="#D9D9D9"/>
<circle cx="225.973" cy="367.877" r="5.5044" fill="#D9D9D9"/>
<circle cx="225.973" cy="354.667" r="5.5044" fill="#D9D9D9"/>
<circle cx="225.973" cy="341.456" r="5.5044" fill="#D9D9D9"/>
<circle cx="225.973" cy="328.247" r="5.5044" fill="#D9D9D9"/>
<circle cx="225.973" cy="315.036" r="5.5044" fill="#D9D9D9"/>
<circle cx="225.973" cy="301.825" r="5.5044" fill="#D9D9D9"/>
<circle cx="225.973" cy="381.088" r="5.5044" fill="#D9D9D9"/>
<circle cx="225.973" cy="394.299" r="5.5044" fill="#D9D9D9"/>
<circle cx="225.973" cy="407.51" r="5.5044" fill="#D9D9D9"/>
<circle cx="225.973" cy="420.719" r="5.5044" fill="#D9D9D9"/>
<circle cx="225.973" cy="433.93" r="5.5044" fill="#D9D9D9"/>
<circle cx="225.973" cy="447.141" r="5.5044" fill="#D9D9D9"/>
<circle cx="225.973" cy="460.352" r="5.5044" fill="#D9D9D9"/>
<circle cx="225.973" cy="473.563" r="5.5044" fill="#D9D9D9"/>
<circle cx="225.973" cy="486.772" r="5.5044" fill="#D9D9D9"/>
<circle cx="225.973" cy="499.983" r="5.5044" fill="#D9D9D9"/>
<circle cx="143.407" cy="283.11" r="5.5044" fill="#D9D9D9"/>
<circle cx="143.407" cy="296.321" r="5.5044" fill="#D9D9D9"/>
<circle cx="184.692" cy="84.9517" r="5.5044" fill="#D9D9D9"/>
<circle cx="184.692" cy="98.1626" r="5.5044" fill="#D9D9D9"/>
<circle cx="184.692" cy="111.374" r="5.5044" fill="#D9D9D9"/>
<circle cx="197.903" cy="111.374" r="5.5044" fill="#D9D9D9"/>
<circle cx="184.692" cy="124.583" r="5.5044" fill="#D9D9D9"/>
<circle cx="197.903" cy="124.583" r="5.5044" fill="#D9D9D9"/>
<circle cx="211.11" cy="124.583" r="5.5044" fill="#D9D9D9"/>
<circle cx="224.325" cy="124.583" r="5.5044" fill="#D9D9D9"/>
<circle cx="184.692" cy="137.793" r="5.5044" fill="#D9D9D9"/>
<circle cx="197.903" cy="137.793" r="5.5044" fill="#D9D9D9"/>
<circle cx="211.11" cy="137.793" r="5.5044" fill="#D9D9D9"/>
<circle cx="224.325" cy="137.793" r="5.5044" fill="#D9D9D9"/>
<circle cx="184.692" cy="151.004" r="5.5044" fill="#D9D9D9"/>
<circle cx="197.903" cy="151.004" r="5.5044" fill="#D9D9D9"/>
<circle cx="211.11" cy="151.004" r="5.5044" fill="#D9D9D9"/>
<circle cx="224.325" cy="151.004" r="5.5044" fill="#D9D9D9"/>
<circle cx="184.692" cy="164.215" r="5.5044" fill="#D9D9D9"/>
<circle cx="197.903" cy="164.215" r="5.5044" fill="#D9D9D9"/>
<circle cx="211.11" cy="164.215" r="5.5044" fill="#D9D9D9"/>
<circle cx="224.325" cy="164.215" r="5.5044" fill="#D9D9D9"/>
<circle cx="184.692" cy="177.426" r="5.5044" fill="#D9D9D9"/>
<circle cx="197.903" cy="177.426" r="5.5044" fill="#D9D9D9"/>
<circle cx="211.11" cy="177.426" r="5.5044" fill="#D9D9D9"/>
<circle cx="224.325" cy="177.426" r="5.5044" fill="#D9D9D9"/>
<circle cx="184.692" cy="190.637" r="5.5044" fill="#D9D9D9"/>
<circle cx="197.903" cy="190.637" r="5.5044" fill="#D9D9D9"/>
<circle cx="184.692" cy="203.846" r="5.5044" fill="#D9D9D9"/>
<circle cx="197.903" cy="203.846" r="5.5044" fill="#D9D9D9"/>
<circle cx="184.692" cy="256.69" r="5.5044" fill="#D9D9D9"/>
<circle cx="198.45" cy="257.79" r="5.5044" fill="#D9D9D9"/>
<circle cx="184.692" cy="269.899" r="5.5044" fill="#D9D9D9"/>
<circle cx="267.254" cy="367.877" r="5.5044" fill="#D9D9D9"/>
<circle cx="267.254" cy="354.667" r="5.5044" fill="#D9D9D9"/>
<circle cx="267.254" cy="341.456" r="5.5044" fill="#D9D9D9"/>
<circle cx="267.254" cy="328.247" r="5.5044" fill="#D9D9D9"/>
<circle cx="267.254" cy="381.088" r="5.5044" fill="#D9D9D9"/>
<circle cx="267.254" cy="394.299" r="5.5044" fill="#D9D9D9"/>
<circle cx="267.254" cy="407.51" r="5.5044" fill="#D9D9D9"/>
<circle cx="267.254" cy="420.719" r="5.5044" fill="#D9D9D9"/>
<circle cx="267.254" cy="433.93" r="5.5044" fill="#D9D9D9"/>
<circle cx="267.254" cy="447.141" r="5.5044" fill="#D9D9D9"/>
<circle cx="267.254" cy="460.352" r="5.5044" fill="#D9D9D9"/>
<circle cx="267.254" cy="473.563" r="5.5044" fill="#D9D9D9"/>
<circle cx="267.254" cy="486.772" r="5.5044" fill="#D9D9D9"/>
<circle cx="267.254" cy="526.405" r="5.5044" fill="#D9D9D9"/>
<circle cx="267.254" cy="539.616" r="5.5044" fill="#D9D9D9"/>
<circle cx="267.254" cy="552.827" r="5.5044" fill="#D9D9D9"/>
<circle cx="198.45" cy="271" r="5.5044" fill="#D9D9D9"/>
<circle cx="281.02" cy="367.877" r="5.5044" fill="#D9D9D9"/>
<circle cx="281.02" cy="354.667" r="5.5044" fill="#D9D9D9"/>
<circle cx="281.02" cy="341.456" r="5.5044" fill="#D9D9D9"/>
<circle cx="281.02" cy="381.088" r="5.5044" fill="#D9D9D9"/>
<circle cx="281.02" cy="394.299" r="5.5044" fill="#D9D9D9"/>
<circle cx="281.02" cy="407.51" r="5.5044" fill="#D9D9D9"/>
<circle cx="281.02" cy="420.719" r="5.5044" fill="#D9D9D9"/>
<circle cx="281.02" cy="433.93" r="5.5044" fill="#D9D9D9"/>
<circle cx="281.02" cy="447.141" r="5.5044" fill="#D9D9D9"/>
<circle cx="281.02" cy="460.352" r="5.5044" fill="#D9D9D9"/>
<circle cx="281.02" cy="473.563" r="5.5044" fill="#D9D9D9"/>
<circle cx="281.02" cy="552.827" r="5.5044" fill="#D9D9D9"/>
<circle cx="212.211" cy="271" r="5.5044" fill="#D9D9D9"/>
<circle cx="294.778" cy="367.877" r="5.5044" fill="#D9D9D9"/>
<circle cx="294.778" cy="354.667" r="5.5044" fill="#D9D9D9"/>
<circle cx="294.778" cy="381.088" r="5.5044" fill="#D9D9D9"/>
<circle cx="294.778" cy="394.299" r="5.5044" fill="#D9D9D9"/>
<circle cx="294.778" cy="407.51" r="5.5044" fill="#D9D9D9"/>
<circle cx="294.778" cy="420.719" r="5.5044" fill="#D9D9D9"/>
<circle cx="294.778" cy="433.93" r="5.5044" fill="#D9D9D9"/>
<circle cx="294.778" cy="447.141" r="5.5044" fill="#D9D9D9"/>
<circle cx="308.54" cy="367.877" r="5.5044" fill="#D9D9D9"/>
<circle cx="308.54" cy="354.667" r="5.5044" fill="#D9D9D9"/>
<circle cx="308.54" cy="381.088" r="5.5044" fill="#D9D9D9"/>
<circle cx="308.54" cy="394.299" r="5.5044" fill="#D9D9D9"/>
<circle cx="308.54" cy="407.51" r="5.5044" fill="#D9D9D9"/>
<circle cx="308.54" cy="420.719" r="5.5044" fill="#D9D9D9"/>
<circle cx="322.301" cy="367.877" r="5.5044" fill="#D9D9D9"/>
<circle cx="322.301" cy="381.088" r="5.5044" fill="#D9D9D9"/>
<circle cx="322.301" cy="394.299" r="5.5044" fill="#D9D9D9"/>
<circle cx="115.887" cy="45.3208" r="5.5044" fill="#D9D9D9"/>
<circle cx="88.3638" cy="58.5298" r="5.5044" fill="#D9D9D9"/>
<circle cx="74.6021" cy="71.7407" r="5.5044" fill="#D9D9D9"/>
<circle cx="510" cy="84.9517" r="5.5044" fill="#D9D9D9"/>
<circle cx="510" cy="71.7407" r="5.5044" fill="#D9D9D9"/>
<circle cx="510" cy="98.1626" r="5.5044" fill="#D9D9D9"/>
<circle cx="510" cy="111.374" r="5.5044" fill="#D9D9D9"/>
<circle cx="510" cy="124.583" r="5.5044" fill="#D9D9D9"/>
<circle cx="510" cy="137.793" r="5.5044" fill="#D9D9D9"/>
<circle cx="510" cy="151.004" r="5.5044" fill="#D9D9D9"/>
<circle cx="510" cy="164.215" r="5.5044" fill="#D9D9D9"/>
<circle cx="510" cy="217.057" r="5.5044" fill="#D9D9D9"/>
<circle cx="510" cy="230.268" r="5.5044" fill="#D9D9D9"/>
<circle cx="510" cy="243.479" r="5.5044" fill="#D9D9D9"/>
<circle cx="510" cy="256.69" r="5.5044" fill="#D9D9D9"/>
<circle cx="510" cy="269.899" r="5.5044" fill="#D9D9D9"/>
<circle cx="510" cy="283.11" r="5.5044" fill="#D9D9D9"/>
<circle cx="510" cy="296.321" r="5.5044" fill="#D9D9D9"/>
<circle cx="510" cy="309.532" r="5.5044" fill="#D9D9D9"/>
<circle cx="510" cy="322.741" r="5.5044" fill="#D9D9D9"/>
<circle cx="510" cy="335.952" r="5.5044" fill="#D9D9D9"/>
<circle cx="510" cy="349.163" r="5.5044" fill="#D9D9D9"/>
<circle cx="510" cy="362.374" r="5.5044" fill="#D9D9D9"/>
<circle cx="510" cy="375.584" r="5.5044" fill="#D9D9D9"/>
<circle cx="510" cy="388.795" r="5.5044" fill="#D9D9D9"/>
<circle cx="510" cy="402.004" r="5.5044" fill="#D9D9D9"/>
<circle cx="510" cy="415.215" r="5.5044" fill="#D9D9D9"/>
<circle cx="510" cy="428.426" r="5.5044" fill="#D9D9D9"/>
<circle cx="212.211" cy="18.8989" r="5.5044" fill="#D9D9D9"/>
<circle cx="212.211" cy="32.1099" r="5.5044" fill="#D9D9D9"/>
<circle cx="60.8403" cy="84.9517" r="5.5044" fill="#D9D9D9"/>
<circle cx="33.3169" cy="98.1626" r="5.5044" fill="#D9D9D9"/>
<circle cx="143.407" cy="58.5298" r="5.5044" fill="#D9D9D9"/>
<circle cx="129.645" cy="71.7407" r="5.5044" fill="#D9D9D9"/>
<circle cx="565.043" cy="84.9517" r="5.5044" fill="#D9D9D9"/>
<circle cx="565.043" cy="71.7407" r="5.5044" fill="#D9D9D9"/>
<circle cx="565.043" cy="58.5298" r="5.5044" fill="#D9D9D9"/>
<circle cx="565.043" cy="98.1626" r="5.5044" fill="#D9D9D9"/>
<circle cx="565.043" cy="111.374" r="5.5044" fill="#D9D9D9"/>
<circle cx="565.043" cy="124.583" r="5.5044" fill="#D9D9D9"/>
<circle cx="565.043" cy="137.793" r="5.5044" fill="#D9D9D9"/>
<circle cx="565.043" cy="151.004" r="5.5044" fill="#D9D9D9"/>
<circle cx="565.043" cy="164.215" r="5.5044" fill="#D9D9D9"/>
<circle cx="565.043" cy="177.426" r="5.5044" fill="#D9D9D9"/>
<circle cx="565.043" cy="190.637" r="5.5044" fill="#D9D9D9"/>
<circle cx="565.043" cy="203.846" r="5.5044" fill="#D9D9D9"/>
<circle cx="565.043" cy="217.057" r="5.5044" fill="#D9D9D9"/>
<circle cx="565.043" cy="230.268" r="5.5044" fill="#D9D9D9"/>
<circle cx="565.043" cy="243.479" r="5.5044" fill="#D9D9D9"/>
<circle cx="565.043" cy="269.899" r="5.5044" fill="#D9D9D9"/>
<circle cx="565.043" cy="283.11" r="5.5044" fill="#D9D9D9"/>
<circle cx="565.043" cy="296.321" r="5.5044" fill="#D9D9D9"/>
<circle cx="565.043" cy="309.532" r="5.5044" fill="#D9D9D9"/>
<circle cx="565.043" cy="349.163" r="5.5044" fill="#D9D9D9"/>
<circle cx="565.043" cy="362.374" r="5.5044" fill="#D9D9D9"/>
<circle cx="565.043" cy="388.795" r="5.5044" fill="#D9D9D9"/>
<circle cx="267.254" cy="18.8989" r="5.5044" fill="#D9D9D9"/>
<circle cx="267.254" cy="5.68799" r="5.5044" fill="#D9D9D9"/>
<circle cx="267.254" cy="32.1099" r="5.5044" fill="#D9D9D9"/>
<circle cx="197.903" cy="71.7407" r="5.5044" fill="#D9D9D9"/>
<circle cx="633.301" cy="84.9517" r="5.5044" fill="#D9D9D9"/>
<circle cx="633.301" cy="71.7407" r="5.5044" fill="#D9D9D9"/>
<circle cx="633.301" cy="58.5298" r="5.5044" fill="#D9D9D9"/>
<circle cx="633.301" cy="98.1626" r="5.5044" fill="#D9D9D9"/>
<circle cx="633.301" cy="111.374" r="5.5044" fill="#D9D9D9"/>
<circle cx="633.301" cy="124.583" r="5.5044" fill="#D9D9D9"/>
<circle cx="633.301" cy="137.793" r="5.5044" fill="#D9D9D9"/>
<circle cx="633.301" cy="151.004" r="5.5044" fill="#D9D9D9"/>
<circle cx="633.301" cy="164.215" r="5.5044" fill="#D9D9D9"/>
<circle cx="633.301" cy="177.426" r="5.5044" fill="#D9D9D9"/>
<circle cx="633.301" cy="190.637" r="5.5044" fill="#D9D9D9"/>
<circle cx="633.301" cy="203.846" r="5.5044" fill="#D9D9D9"/>
<circle cx="633.301" cy="217.057" r="5.5044" fill="#D9D9D9"/>
<circle cx="335.512" cy="18.8989" r="5.5044" fill="#D9D9D9"/>
<circle cx="335.512" cy="5.68799" r="5.5044" fill="#D9D9D9"/>
<circle cx="335.512" cy="32.1099" r="5.5044" fill="#D9D9D9"/>
<circle cx="115.887" cy="84.9517" r="5.5044" fill="#D9D9D9"/>
<circle cx="115.887" cy="98.1626" r="5.5044" fill="#D9D9D9"/>
<circle cx="115.887" cy="111.374" r="5.5044" fill="#D9D9D9"/>
<circle cx="115.887" cy="124.583" r="5.5044" fill="#D9D9D9"/>
<circle cx="115.887" cy="137.793" r="5.5044" fill="#D9D9D9"/>
<circle cx="115.887" cy="151.004" r="5.5044" fill="#D9D9D9"/>
<circle cx="115.887" cy="164.215" r="5.5044" fill="#D9D9D9"/>
<circle cx="115.887" cy="177.426" r="5.5044" fill="#D9D9D9"/>
<circle cx="102.125" cy="177.426" r="5.5044" fill="#D9D9D9"/>
<circle cx="115.887" cy="190.637" r="5.5044" fill="#D9D9D9"/>
<circle cx="115.887" cy="203.846" r="5.5044" fill="#D9D9D9"/>
<circle cx="115.887" cy="217.057" r="5.5044" fill="#D9D9D9"/>
<circle cx="115.887" cy="230.268" r="5.5044" fill="#D9D9D9"/>
<circle cx="115.887" cy="243.479" r="5.5044" fill="#D9D9D9"/>
<circle cx="115.887" cy="256.69" r="5.5044" fill="#D9D9D9"/>
<circle cx="115.887" cy="269.899" r="5.5044" fill="#D9D9D9"/>
<circle cx="198.45" cy="367.877" r="5.5044" fill="#D9D9D9"/>
<circle cx="198.45" cy="354.667" r="5.5044" fill="#D9D9D9"/>
<circle cx="198.45" cy="341.456" r="5.5044" fill="#D9D9D9"/>
<circle cx="198.45" cy="328.247" r="5.5044" fill="#D9D9D9"/>
<circle cx="198.45" cy="315.036" r="5.5044" fill="#D9D9D9"/>
<circle cx="198.45" cy="301.825" r="5.5044" fill="#D9D9D9"/>
<circle cx="198.45" cy="381.088" r="5.5044" fill="#D9D9D9"/>
<circle cx="198.45" cy="394.299" r="5.5044" fill="#D9D9D9"/>
<circle cx="198.45" cy="407.51" r="5.5044" fill="#D9D9D9"/>
<circle cx="115.887" cy="283.11" r="5.5044" fill="#D9D9D9"/>
<circle cx="184.692" cy="58.5298" r="5.5044" fill="#D9D9D9"/>
<circle cx="170.926" cy="71.7407" r="5.5044" fill="#D9D9D9"/>
<circle cx="606.329" cy="84.9517" r="5.5044" fill="#D9D9D9"/>
<circle cx="606.329" cy="71.7407" r="5.5044" fill="#D9D9D9"/>
<circle cx="606.329" cy="58.5298" r="5.5044" fill="#D9D9D9"/>
<circle cx="606.329" cy="98.1626" r="5.5044" fill="#D9D9D9"/>
<circle cx="606.329" cy="111.374" r="5.5044" fill="#D9D9D9"/>
<circle cx="606.329" cy="124.583" r="5.5044" fill="#D9D9D9"/>
<circle cx="606.329" cy="137.793" r="5.5044" fill="#D9D9D9"/>
<circle cx="606.329" cy="151.004" r="5.5044" fill="#D9D9D9"/>
<circle cx="606.329" cy="164.215" r="5.5044" fill="#D9D9D9"/>
<circle cx="606.329" cy="177.426" r="5.5044" fill="#D9D9D9"/>
<circle cx="606.329" cy="190.637" r="5.5044" fill="#D9D9D9"/>
<circle cx="606.329" cy="203.846" r="5.5044" fill="#D9D9D9"/>
<circle cx="606.329" cy="217.057" r="5.5044" fill="#D9D9D9"/>
<circle cx="606.329" cy="230.268" r="5.5044" fill="#D9D9D9"/>
<circle cx="606.329" cy="243.479" r="5.5044" fill="#D9D9D9"/>
<circle cx="308.54" cy="18.8989" r="5.5044" fill="#D9D9D9"/>
<circle cx="308.54" cy="5.68799" r="5.5044" fill="#D9D9D9"/>
<circle cx="239.184" cy="71.7407" r="5.5044" fill="#D9D9D9"/>
<circle cx="674.583" cy="84.9517" r="5.5044" fill="#D9D9D9"/>
<circle cx="674.583" cy="71.7407" r="5.5044" fill="#D9D9D9"/>
<circle cx="674.583" cy="58.5298" r="5.5044" fill="#D9D9D9"/>
<circle cx="674.583" cy="98.1626" r="5.5044" fill="#D9D9D9"/>
<circle cx="674.583" cy="111.374" r="5.5044" fill="#D9D9D9"/>
<circle cx="674.583" cy="124.583" r="5.5044" fill="#D9D9D9"/>
<circle cx="674.583" cy="137.793" r="5.5044" fill="#D9D9D9"/>
<circle cx="674.583" cy="151.004" r="5.5044" fill="#D9D9D9"/>
<circle cx="674.583" cy="164.215" r="5.5044" fill="#D9D9D9"/>
<circle cx="674.583" cy="177.426" r="5.5044" fill="#D9D9D9"/>
<circle cx="674.583" cy="190.637" r="5.5044" fill="#D9D9D9"/>
<circle cx="674.583" cy="203.846" r="5.5044" fill="#D9D9D9"/>
<circle cx="674.583" cy="217.057" r="5.5044" fill="#D9D9D9"/>
<circle cx="674.583" cy="230.268" r="5.5044" fill="#D9D9D9"/>
<circle cx="674.583" cy="243.479" r="5.5044" fill="#D9D9D9"/>
<circle cx="674.583" cy="256.69" r="5.5044" fill="#D9D9D9"/>
<circle cx="674.583" cy="269.899" r="5.5044" fill="#D9D9D9"/>
<circle cx="674.583" cy="283.11" r="5.5044" fill="#D9D9D9"/>
<circle cx="376.793" cy="32.1099" r="5.5044" fill="#D9D9D9"/>
<circle cx="239.184" cy="84.9517" r="5.5044" fill="#D9D9D9"/>
<circle cx="239.184" cy="98.1626" r="5.5044" fill="#D9D9D9"/>
<circle cx="251.844" cy="98.7134" r="5.5044" fill="#D9D9D9"/>
<circle cx="157.168" cy="84.9517" r="5.5044" fill="#D9D9D9"/>
<circle cx="157.168" cy="98.1626" r="5.5044" fill="#D9D9D9"/>
<circle cx="157.168" cy="111.374" r="5.5044" fill="#D9D9D9"/>
<circle cx="157.168" cy="124.583" r="5.5044" fill="#D9D9D9"/>
<circle cx="157.168" cy="137.793" r="5.5044" fill="#D9D9D9"/>
<circle cx="157.168" cy="151.004" r="5.5044" fill="#D9D9D9"/>
<circle cx="157.168" cy="164.215" r="5.5044" fill="#D9D9D9"/>
<circle cx="157.168" cy="177.426" r="5.5044" fill="#D9D9D9"/>
<circle cx="157.168" cy="190.637" r="5.5044" fill="#D9D9D9"/>
<circle cx="157.168" cy="203.846" r="5.5044" fill="#D9D9D9"/>
<circle cx="157.168" cy="217.057" r="5.5044" fill="#D9D9D9"/>
<circle cx="157.168" cy="230.268" r="5.5044" fill="#D9D9D9"/>
<circle cx="157.168" cy="243.479" r="5.5044" fill="#D9D9D9"/>
<circle cx="157.168" cy="256.69" r="5.5044" fill="#D9D9D9"/>
<circle cx="157.168" cy="269.899" r="5.5044" fill="#D9D9D9"/>
<circle cx="239.735" cy="367.877" r="5.5044" fill="#D9D9D9"/>
<circle cx="239.735" cy="354.667" r="5.5044" fill="#D9D9D9"/>
<circle cx="239.735" cy="341.456" r="5.5044" fill="#D9D9D9"/>
<circle cx="239.735" cy="328.247" r="5.5044" fill="#D9D9D9"/>
<circle cx="239.735" cy="315.036" r="5.5044" fill="#D9D9D9"/>
<circle cx="239.735" cy="381.088" r="5.5044" fill="#D9D9D9"/>
<circle cx="239.735" cy="394.299" r="5.5044" fill="#D9D9D9"/>
<circle cx="239.735" cy="407.51" r="5.5044" fill="#D9D9D9"/>
<circle cx="239.735" cy="420.719" r="5.5044" fill="#D9D9D9"/>
<circle cx="239.735" cy="433.93" r="5.5044" fill="#D9D9D9"/>
<circle cx="239.735" cy="447.141" r="5.5044" fill="#D9D9D9"/>
<circle cx="239.735" cy="460.352" r="5.5044" fill="#D9D9D9"/>
<circle cx="239.735" cy="473.563" r="5.5044" fill="#D9D9D9"/>
<circle cx="239.735" cy="486.772" r="5.5044" fill="#D9D9D9"/>
<circle cx="239.735" cy="499.983" r="5.5044" fill="#D9D9D9"/>
<circle cx="239.735" cy="513.194" r="5.5044" fill="#D9D9D9"/>
<circle cx="239.735" cy="526.405" r="5.5044" fill="#D9D9D9"/>
<circle cx="239.735" cy="539.616" r="5.5044" fill="#D9D9D9"/>
<circle cx="157.168" cy="283.11" r="5.5044" fill="#D9D9D9"/>
<circle cx="157.168" cy="296.321" r="5.5044" fill="#D9D9D9"/>
<circle cx="157.168" cy="309.532" r="5.5044" fill="#D9D9D9"/>
<circle cx="198.45" cy="84.9517" r="5.5044" fill="#D9D9D9"/>
<circle cx="170.926" cy="45.3208" r="5.5044" fill="#D9D9D9"/>
<circle cx="184.692" cy="45.3208" r="5.5044" fill="#D9D9D9"/>
<circle cx="212.211" cy="45.3208" r="5.5044" fill="#D9D9D9"/>
<circle cx="212.211" cy="58.5298" r="5.5044" fill="#D9D9D9"/>
<circle cx="225.973" cy="45.3208" r="5.5044" fill="#D9D9D9"/>
<circle cx="225.973" cy="58.5298" r="5.5044" fill="#D9D9D9"/>
<circle cx="251.844" cy="45.3208" r="5.5044" fill="#D9D9D9"/>
<circle cx="251.844" cy="58.5298" r="5.5044" fill="#D9D9D9"/>
<circle cx="251.844" cy="71.7407" r="5.5044" fill="#D9D9D9"/>
<circle cx="687.239" cy="84.9517" r="5.5044" fill="#D9D9D9"/>
<circle cx="687.239" cy="71.7407" r="5.5044" fill="#D9D9D9"/>
<circle cx="687.239" cy="58.5298" r="5.5044" fill="#D9D9D9"/>
<circle cx="687.239" cy="98.1626" r="5.5044" fill="#D9D9D9"/>
<circle cx="687.239" cy="111.374" r="5.5044" fill="#D9D9D9"/>
<circle cx="687.239" cy="124.583" r="5.5044" fill="#D9D9D9"/>
<circle cx="687.239" cy="137.793" r="5.5044" fill="#D9D9D9"/>
<circle cx="687.239" cy="151.004" r="5.5044" fill="#D9D9D9"/>
<circle cx="687.239" cy="164.215" r="5.5044" fill="#D9D9D9"/>
<circle cx="687.239" cy="177.426" r="5.5044" fill="#D9D9D9"/>
<circle cx="687.239" cy="190.637" r="5.5044" fill="#D9D9D9"/>
<circle cx="687.239" cy="203.846" r="5.5044" fill="#D9D9D9"/>
<circle cx="687.239" cy="217.057" r="5.5044" fill="#D9D9D9"/>
<circle cx="687.239" cy="230.268" r="5.5044" fill="#D9D9D9"/>
<circle cx="687.239" cy="243.479" r="5.5044" fill="#D9D9D9"/>
<circle cx="687.239" cy="283.11" r="5.5044" fill="#D9D9D9"/>
<circle cx="389.454" cy="18.8989" r="5.5044" fill="#D9D9D9"/>
<circle cx="389.454" cy="5.68799" r="5.5044" fill="#D9D9D9"/>
<circle cx="389.454" cy="32.1099" r="5.5044" fill="#D9D9D9"/>
<circle cx="251.844" cy="84.9517" r="5.5044" fill="#D9D9D9"/>
<circle cx="238.083" cy="112.473" r="5.5044" fill="#D9D9D9"/>
<circle cx="238.083" cy="125.684" r="5.5044" fill="#D9D9D9"/>
<circle cx="238.083" cy="138.895" r="5.5044" fill="#D9D9D9"/>
<circle cx="238.083" cy="152.106" r="5.5044" fill="#D9D9D9"/>
<circle cx="238.083" cy="165.315" r="5.5044" fill="#D9D9D9"/>
<circle cx="265.606" cy="45.3208" r="5.5044" fill="#D9D9D9"/>
<circle cx="265.606" cy="58.5298" r="5.5044" fill="#D9D9D9"/>
<circle cx="265.606" cy="71.7407" r="5.5044" fill="#D9D9D9"/>
<circle cx="701.004" cy="84.9517" r="5.5044" fill="#D9D9D9"/>
<circle cx="701.004" cy="71.7407" r="5.5044" fill="#D9D9D9"/>
<circle cx="701.004" cy="58.5298" r="5.5044" fill="#D9D9D9"/>
<circle cx="701.004" cy="98.1626" r="5.5044" fill="#D9D9D9"/>
<circle cx="701.004" cy="111.374" r="5.5044" fill="#D9D9D9"/>
<circle cx="701.004" cy="124.583" r="5.5044" fill="#D9D9D9"/>
<circle cx="701.004" cy="137.793" r="5.5044" fill="#D9D9D9"/>
<circle cx="701.004" cy="151.004" r="5.5044" fill="#D9D9D9"/>
<circle cx="701.004" cy="164.215" r="5.5044" fill="#D9D9D9"/>
<circle cx="701.004" cy="177.426" r="5.5044" fill="#D9D9D9"/>
<circle cx="701.004" cy="190.637" r="5.5044" fill="#D9D9D9"/>
<circle cx="701.004" cy="203.846" r="5.5044" fill="#D9D9D9"/>
<circle cx="701.004" cy="217.057" r="5.5044" fill="#D9D9D9"/>
<circle cx="701.004" cy="230.268" r="5.5044" fill="#D9D9D9"/>
<circle cx="403.215" cy="18.8989" r="5.5044" fill="#D9D9D9"/>
<circle cx="403.215" cy="5.68799" r="5.5044" fill="#D9D9D9"/>
<circle cx="403.215" cy="32.1099" r="5.5044" fill="#D9D9D9"/>
<circle cx="265.606" cy="84.9517" r="5.5044" fill="#D9D9D9"/>
<circle cx="251.844" cy="112.473" r="5.5044" fill="#D9D9D9"/>
<circle cx="251.844" cy="125.684" r="5.5044" fill="#D9D9D9"/>
<circle cx="251.844" cy="138.895" r="5.5044" fill="#D9D9D9"/>
<circle cx="251.844" cy="152.106" r="5.5044" fill="#D9D9D9"/>
<circle cx="251.844" cy="165.315" r="5.5044" fill="#D9D9D9"/>
<circle cx="279.364" cy="45.3208" r="5.5044" fill="#D9D9D9"/>
<circle cx="279.364" cy="58.5298" r="5.5044" fill="#D9D9D9"/>
<circle cx="279.364" cy="71.7407" r="5.5044" fill="#D9D9D9"/>
<circle cx="714.762" cy="84.9517" r="5.5044" fill="#D9D9D9"/>
<circle cx="714.762" cy="71.7407" r="5.5044" fill="#D9D9D9"/>
<circle cx="714.762" cy="58.5298" r="5.5044" fill="#D9D9D9"/>
<circle cx="714.762" cy="98.1626" r="5.5044" fill="#D9D9D9"/>
<circle cx="714.762" cy="111.374" r="5.5044" fill="#D9D9D9"/>
<circle cx="714.762" cy="124.583" r="5.5044" fill="#D9D9D9"/>
<circle cx="714.762" cy="137.793" r="5.5044" fill="#D9D9D9"/>
<circle cx="714.762" cy="151.004" r="5.5044" fill="#D9D9D9"/>
<circle cx="714.762" cy="164.215" r="5.5044" fill="#D9D9D9"/>
<circle cx="714.762" cy="177.426" r="5.5044" fill="#D9D9D9"/>
<circle cx="714.762" cy="190.637" r="5.5044" fill="#D9D9D9"/>
<circle cx="714.762" cy="203.846" r="5.5044" fill="#D9D9D9"/>
<circle cx="714.762" cy="217.057" r="5.5044" fill="#D9D9D9"/>
<circle cx="714.762" cy="230.268" r="5.5044" fill="#D9D9D9"/>
<circle cx="714.762" cy="243.479" r="5.5044" fill="#D9D9D9"/>
<circle cx="416.973" cy="18.8989" r="5.5044" fill="#D9D9D9"/>
<circle cx="416.973" cy="5.68799" r="5.5044" fill="#D9D9D9"/>
<circle cx="292.575" cy="71.7407" r="5.5044" fill="#D9D9D9"/>
<circle cx="727.973" cy="84.9517" r="5.5044" fill="#D9D9D9"/>
<circle cx="727.973" cy="71.7407" r="5.5044" fill="#D9D9D9"/>
<circle cx="727.973" cy="58.5298" r="5.5044" fill="#D9D9D9"/>
<circle cx="727.973" cy="98.1626" r="5.5044" fill="#D9D9D9"/>
<circle cx="727.973" cy="111.374" r="5.5044" fill="#D9D9D9"/>
<circle cx="727.973" cy="124.583" r="5.5044" fill="#D9D9D9"/>
<circle cx="727.973" cy="137.793" r="5.5044" fill="#D9D9D9"/>
<circle cx="727.973" cy="151.004" r="5.5044" fill="#D9D9D9"/>
<circle cx="727.973" cy="164.215" r="5.5044" fill="#D9D9D9"/>
<circle cx="727.973" cy="177.426" r="5.5044" fill="#D9D9D9"/>
<circle cx="727.973" cy="190.637" r="5.5044" fill="#D9D9D9"/>
<circle cx="727.973" cy="203.846" r="5.5044" fill="#D9D9D9"/>
<circle cx="727.973" cy="217.057" r="5.5044" fill="#D9D9D9"/>
<circle cx="727.973" cy="230.268" r="5.5044" fill="#D9D9D9"/>
<circle cx="727.973" cy="243.479" r="5.5044" fill="#D9D9D9"/>
<circle cx="727.973" cy="256.69" r="5.5044" fill="#D9D9D9"/>
<circle cx="727.973" cy="269.899" r="5.5044" fill="#D9D9D9"/>
<circle cx="727.973" cy="283.11" r="5.5044" fill="#D9D9D9"/>
<circle cx="727.973" cy="296.321" r="5.5044" fill="#D9D9D9"/>
<circle cx="741.739" cy="84.9517" r="5.5044" fill="#D9D9D9"/>
<circle cx="741.739" cy="71.7407" r="5.5044" fill="#D9D9D9"/>
<circle cx="741.739" cy="58.5298" r="5.5044" fill="#D9D9D9"/>
<circle cx="741.739" cy="98.1626" r="5.5044" fill="#D9D9D9"/>
<circle cx="741.739" cy="111.374" r="5.5044" fill="#D9D9D9"/>
<circle cx="741.739" cy="124.583" r="5.5044" fill="#D9D9D9"/>
<circle cx="741.739" cy="137.793" r="5.5044" fill="#D9D9D9"/>
<circle cx="741.739" cy="151.004" r="5.5044" fill="#D9D9D9"/>
<circle cx="741.739" cy="164.215" r="5.5044" fill="#D9D9D9"/>
<circle cx="741.739" cy="177.426" r="5.5044" fill="#D9D9D9"/>
<circle cx="741.739" cy="190.637" r="5.5044" fill="#D9D9D9"/>
<circle cx="741.739" cy="203.846" r="5.5044" fill="#D9D9D9"/>
<circle cx="741.739" cy="217.057" r="5.5044" fill="#D9D9D9"/>
<circle cx="741.739" cy="230.268" r="5.5044" fill="#D9D9D9"/>
<circle cx="741.739" cy="243.479" r="5.5044" fill="#D9D9D9"/>
<circle cx="741.739" cy="256.69" r="5.5044" fill="#D9D9D9"/>
<circle cx="741.739" cy="269.899" r="5.5044" fill="#D9D9D9"/>
<circle cx="741.739" cy="283.11" r="5.5044" fill="#D9D9D9"/>
<circle cx="741.739" cy="296.321" r="5.5044" fill="#D9D9D9"/>
<circle cx="741.739" cy="309.532" r="5.5044" fill="#D9D9D9"/>
<circle cx="755.497" cy="84.9517" r="5.5044" fill="#D9D9D9"/>
<circle cx="755.497" cy="71.7407" r="5.5044" fill="#D9D9D9"/>
<circle cx="755.497" cy="58.5298" r="5.5044" fill="#D9D9D9"/>
<circle cx="755.497" cy="98.1626" r="5.5044" fill="#D9D9D9"/>
<circle cx="755.497" cy="111.374" r="5.5044" fill="#D9D9D9"/>
<circle cx="755.497" cy="124.583" r="5.5044" fill="#D9D9D9"/>
<circle cx="755.497" cy="137.793" r="5.5044" fill="#D9D9D9"/>
<circle cx="755.497" cy="151.004" r="5.5044" fill="#D9D9D9"/>
<circle cx="755.497" cy="164.215" r="5.5044" fill="#D9D9D9"/>
<circle cx="755.497" cy="177.426" r="5.5044" fill="#D9D9D9"/>
<circle cx="755.497" cy="190.637" r="5.5044" fill="#D9D9D9"/>
<circle cx="755.497" cy="203.846" r="5.5044" fill="#D9D9D9"/>
<circle cx="755.497" cy="217.057" r="5.5044" fill="#D9D9D9"/>
<circle cx="755.497" cy="230.268" r="5.5044" fill="#D9D9D9"/>
<circle cx="755.497" cy="243.479" r="5.5044" fill="#D9D9D9"/>
<circle cx="755.497" cy="256.69" r="5.5044" fill="#D9D9D9"/>
<circle cx="755.497" cy="269.899" r="5.5044" fill="#D9D9D9"/>
<circle cx="755.497" cy="296.321" r="5.5044" fill="#D9D9D9"/>
<circle cx="755.497" cy="309.532" r="5.5044" fill="#D9D9D9"/>
<circle cx="755.497" cy="322.741" r="5.5044" fill="#D9D9D9"/>
<circle cx="769.258" cy="84.9517" r="5.5044" fill="#D9D9D9"/>
<circle cx="769.258" cy="71.7407" r="5.5044" fill="#D9D9D9"/>
<circle cx="769.258" cy="58.5298" r="5.5044" fill="#D9D9D9"/>
<circle cx="769.258" cy="98.1626" r="5.5044" fill="#D9D9D9"/>
<circle cx="769.258" cy="111.374" r="5.5044" fill="#D9D9D9"/>
<circle cx="769.258" cy="124.583" r="5.5044" fill="#D9D9D9"/>
<circle cx="769.258" cy="137.793" r="5.5044" fill="#D9D9D9"/>
<circle cx="769.258" cy="151.004" r="5.5044" fill="#D9D9D9"/>
<circle cx="769.258" cy="177.426" r="5.5044" fill="#D9D9D9"/>
<circle cx="769.258" cy="190.637" r="5.5044" fill="#D9D9D9"/>
<circle cx="769.258" cy="203.846" r="5.5044" fill="#D9D9D9"/>
<circle cx="769.258" cy="217.057" r="5.5044" fill="#D9D9D9"/>
<circle cx="769.258" cy="230.268" r="5.5044" fill="#D9D9D9"/>
<circle cx="769.258" cy="296.321" r="5.5044" fill="#D9D9D9"/>
<circle cx="769.258" cy="309.532" r="5.5044" fill="#D9D9D9"/>
<circle cx="769.258" cy="335.952" r="5.5044" fill="#D9D9D9"/>
<circle cx="891.836" cy="388.958" r="5.5044" fill="#D9D9D9"/>
<circle cx="891.836" cy="455.995" r="5.5044" fill="#D9D9D9"/>
<circle cx="891.836" cy="402.075" r="5.5044" fill="#D9D9D9"/>
<circle cx="810.227" cy="429.094" r="5.5044" fill="#D9D9D9"/>
<circle cx="797.114" cy="429.094" r="5.5044" fill="#D9D9D9"/>
<circle cx="783.02" cy="84.9517" r="5.5044" fill="#D9D9D9"/>
<circle cx="783.02" cy="71.7407" r="5.5044" fill="#D9D9D9"/>
<circle cx="783.02" cy="58.5298" r="5.5044" fill="#D9D9D9"/>
<circle cx="783.02" cy="111.374" r="5.5044" fill="#D9D9D9"/>
<circle cx="783.02" cy="124.583" r="5.5044" fill="#D9D9D9"/>
<circle cx="783.02" cy="137.793" r="5.5044" fill="#D9D9D9"/>
<circle cx="783.02" cy="151.004" r="5.5044" fill="#D9D9D9"/>
<circle cx="783.02" cy="164.215" r="5.5044" fill="#D9D9D9"/>
<circle cx="783.02" cy="203.846" r="5.5044" fill="#D9D9D9"/>
<circle cx="783.02" cy="217.057" r="5.5044" fill="#D9D9D9"/>
<circle cx="783.02" cy="296.321" r="5.5044" fill="#D9D9D9"/>
<circle cx="783.02" cy="309.532" r="5.5044" fill="#D9D9D9"/>
<circle cx="783.02" cy="335.952" r="5.5044" fill="#D9D9D9"/>
<circle cx="783.02" cy="375.584" r="5.5044" fill="#D9D9D9"/>
<circle cx="783.02" cy="388.795" r="5.5044" fill="#D9D9D9"/>
<circle cx="783.02" cy="402.004" r="5.5044" fill="#D9D9D9"/>
<circle cx="783.02" cy="415.215" r="5.5044" fill="#D9D9D9"/>
<circle cx="783.02" cy="429.094" r="5.5044" fill="#D9D9D9"/>
<circle cx="796.778" cy="84.9517" r="5.5044" fill="#D9D9D9"/>
<circle cx="796.778" cy="71.7407" r="5.5044" fill="#D9D9D9"/>
<circle cx="796.778" cy="58.5298" r="5.5044" fill="#D9D9D9"/>
<circle cx="796.778" cy="124.583" r="5.5044" fill="#D9D9D9"/>
<circle cx="796.778" cy="137.793" r="5.5044" fill="#D9D9D9"/>
<circle cx="796.778" cy="177.426" r="5.5044" fill="#D9D9D9"/>
<circle cx="796.778" cy="217.057" r="5.5044" fill="#D9D9D9"/>
<circle cx="796.778" cy="230.268" r="5.5044" fill="#D9D9D9"/>
<circle cx="796.778" cy="243.479" r="5.5044" fill="#D9D9D9"/>
<circle cx="796.778" cy="256.69" r="5.5044" fill="#D9D9D9"/>
<circle cx="796.778" cy="283.11" r="5.5044" fill="#D9D9D9"/>
<circle cx="796.778" cy="296.321" r="5.5044" fill="#D9D9D9"/>
<circle cx="796.778" cy="309.532" r="5.5044" fill="#D9D9D9"/>
<circle cx="838.059" cy="309.532" r="5.5044" fill="#D9D9D9"/>
<circle cx="838.059" cy="322.741" r="5.5044" fill="#D9D9D9"/>
<circle cx="838.059" cy="349.713" r="5.5044" fill="#D9D9D9"/>
<circle cx="838.059" cy="362.374" r="5.5044" fill="#D9D9D9"/>
<circle cx="838.059" cy="375.584" r="5.5044" fill="#D9D9D9"/>
<circle cx="838.059" cy="388.795" r="5.5044" fill="#D9D9D9"/>
<circle cx="838.059" cy="402.004" r="5.5044" fill="#D9D9D9"/>
<circle cx="838.059" cy="415.215" r="5.5044" fill="#D9D9D9"/>
<circle cx="838.059" cy="429.094" r="5.5044" fill="#D9D9D9"/>
<circle cx="838.059" cy="441.637" r="5.5044" fill="#D9D9D9"/>
<circle cx="837.918" cy="455.995" r="5.5044" fill="#D9D9D9"/>
<circle cx="824.301" cy="362.374" r="5.5044" fill="#D9D9D9"/>
<circle cx="824.301" cy="375.584" r="5.5044" fill="#D9D9D9"/>
<circle cx="824.301" cy="388.795" r="5.5044" fill="#D9D9D9"/>
<circle cx="824.301" cy="415.215" r="5.5044" fill="#D9D9D9"/>
<circle cx="824.301" cy="441.637" r="5.5044" fill="#D9D9D9"/>
<path d="M829.231 429.094C829.231 432.134 826.767 434.599 823.727 434.599C820.687 434.599 818.223 432.134 818.223 429.094C818.223 426.054 820.687 423.59 823.727 423.59C826.767 423.59 829.231 426.054 829.231 429.094Z" fill="#D9D9D9"/>
<circle cx="824.801" cy="455.995" r="5.5044" fill="#D9D9D9"/>
<circle cx="891.836" cy="415.19" r="5.5044" fill="#D9D9D9"/>
<circle cx="796.778" cy="322.741" r="5.5044" fill="#D9D9D9"/>
<circle cx="796.778" cy="375.584" r="5.5044" fill="#D9D9D9"/>
<circle cx="796.778" cy="388.795" r="5.5044" fill="#D9D9D9"/>
<circle cx="796.778" cy="402.004" r="5.5044" fill="#D9D9D9"/>
<circle cx="796.778" cy="415.215" r="5.5044" fill="#D9D9D9"/>
<circle cx="810.54" cy="84.9517" r="5.5044" fill="#D9D9D9"/>
<circle cx="810.54" cy="71.7407" r="5.5044" fill="#D9D9D9"/>
<circle cx="824.301" cy="71.7407" r="5.5044" fill="#D9D9D9"/>
<circle cx="810.54" cy="58.5298" r="5.5044" fill="#D9D9D9"/>
<circle cx="824.301" cy="58.5298" r="5.5044" fill="#D9D9D9"/>
<circle cx="838.059" cy="58.5298" r="5.5044" fill="#D9D9D9"/>
<circle cx="810.54" cy="98.1626" r="5.5044" fill="#D9D9D9"/>
<circle cx="824.301" cy="98.1626" r="5.5044" fill="#D9D9D9"/>
<circle cx="824.301" cy="111.374" r="5.5044" fill="#D9D9D9"/>
<circle cx="810.54" cy="137.793" r="5.5044" fill="#D9D9D9"/>
<circle cx="824.301" cy="151.004" r="5.5044" fill="#D9D9D9"/>
<circle cx="824.301" cy="164.215" r="5.5044" fill="#D9D9D9"/>
<circle cx="810.54" cy="177.426" r="5.5044" fill="#D9D9D9"/>
<circle cx="824.301" cy="177.426" r="5.5044" fill="#D9D9D9"/>
<circle cx="810.54" cy="190.637" r="5.5044" fill="#D9D9D9"/>
<circle cx="810.54" cy="256.69" r="5.5044" fill="#D9D9D9"/>
<circle cx="810.54" cy="269.899" r="5.5044" fill="#D9D9D9"/>
<circle cx="824.301" cy="269.899" r="5.5044" fill="#D9D9D9"/>
<circle cx="810.54" cy="283.11" r="5.5044" fill="#D9D9D9"/>
<circle cx="824.301" cy="283.11" r="5.5044" fill="#D9D9D9"/>
<circle cx="824.301" cy="296.321" r="5.5044" fill="#D9D9D9"/>
<circle cx="810.54" cy="309.532" r="5.5044" fill="#D9D9D9"/>
<circle cx="851.825" cy="309.532" r="5.5044" fill="#D9D9D9"/>
<circle cx="851.825" cy="322.741" r="5.5044" fill="#D9D9D9"/>
<circle cx="851.825" cy="349.713" r="5.5044" fill="#D9D9D9"/>
<circle cx="851.825" cy="362.374" r="5.5044" fill="#D9D9D9"/>
<circle cx="851.825" cy="375.584" r="5.5044" fill="#D9D9D9"/>
<circle cx="851.825" cy="388.795" r="5.5044" fill="#D9D9D9"/>
<circle cx="851.825" cy="415.215" r="5.5044" fill="#D9D9D9"/>
<circle cx="851.825" cy="429.094" r="5.5044" fill="#D9D9D9"/>
<circle cx="851.825" cy="441.637" r="5.5044" fill="#D9D9D9"/>
<circle cx="824.301" cy="309.532" r="5.5044" fill="#D9D9D9"/>
<circle cx="865.583" cy="309.532" r="5.5044" fill="#D9D9D9"/>
<circle cx="865.583" cy="322.741" r="5.5044" fill="#D9D9D9"/>
<circle cx="865.583" cy="349.713" r="5.5044" fill="#D9D9D9"/>
<circle cx="865.583" cy="362.374" r="5.5044" fill="#D9D9D9"/>
<circle cx="865.583" cy="375.584" r="5.5044" fill="#D9D9D9"/>
<circle cx="865.583" cy="388.795" r="5.5044" fill="#D9D9D9"/>
<circle cx="879.348" cy="388.795" r="5.5044" fill="#D9D9D9"/>
<circle cx="865.586" cy="402.004" r="5.5044" fill="#D9D9D9"/>
<circle cx="851.825" cy="402.004" r="5.5044" fill="#D9D9D9"/>
<circle cx="824.301" cy="402.004" r="5.5044" fill="#D9D9D9"/>
<circle cx="879.348" cy="402.004" r="5.5044" fill="#D9D9D9"/>
<circle cx="865.583" cy="415.215" r="5.5044" fill="#D9D9D9"/>
<circle cx="879.348" cy="415.215" r="5.5044" fill="#D9D9D9"/>
<circle cx="865.606" cy="455.995" r="5.5044" fill="#D9D9D9"/>
<circle cx="878.356" cy="442.973" r="5.5044" fill="#D9D9D9"/>
<circle cx="878.719" cy="455.995" r="5.5044" fill="#D9D9D9"/>
<circle cx="892.122" cy="442.973" r="5.5044" fill="#D9D9D9"/>
<circle cx="892.122" cy="429.094" r="5.5044" fill="#D9D9D9"/>
<circle cx="851.032" cy="455.995" r="5.5044" fill="#D9D9D9"/>
<circle cx="878.719" cy="429.094" r="5.5044" fill="#D9D9D9"/>
<circle cx="865.606" cy="442.879" r="5.5044" fill="#D9D9D9"/>
<circle cx="865.583" cy="429.094" r="5.5044" fill="#D9D9D9"/>
<circle cx="865.583" cy="335.952" r="5.5044" fill="#D9D9D9"/>
<circle cx="879.348" cy="322.741" r="5.5044" fill="#D9D9D9"/>
<circle cx="879.348" cy="335.952" r="5.5044" fill="#D9D9D9"/>
<circle cx="893.106" cy="335.952" r="5.5044" fill="#D9D9D9"/>
<circle cx="893.106" cy="349.713" r="5.5044" fill="#D9D9D9"/>
<circle cx="810.54" cy="322.741" r="5.5044" fill="#D9D9D9"/>
<circle cx="810.54" cy="335.952" r="5.5044" fill="#D9D9D9"/>
<circle cx="824.301" cy="335.952" r="5.5044" fill="#D9D9D9"/>
<circle cx="810.54" cy="362.374" r="5.5044" fill="#D9D9D9"/>
<circle cx="810.54" cy="375.584" r="5.5044" fill="#D9D9D9"/>
<circle cx="810.54" cy="388.795" r="5.5044" fill="#D9D9D9"/>
<circle cx="810.54" cy="402.004" r="5.5044" fill="#D9D9D9"/>
<circle cx="810.54" cy="415.215" r="5.5044" fill="#D9D9D9"/>
<circle cx="279.364" cy="84.9517" r="5.5044" fill="#D9D9D9"/>
<circle cx="265.606" cy="112.473" r="5.5044" fill="#D9D9D9"/>
<circle cx="265.606" cy="125.684" r="5.5044" fill="#D9D9D9"/>
<circle cx="279.364" cy="125.684" r="5.5044" fill="#D9D9D9"/>
<circle cx="265.606" cy="138.895" r="5.5044" fill="#D9D9D9"/>
<circle cx="332.758" cy="45.3208" r="5.5044" fill="#D9D9D9"/>
<circle cx="332.758" cy="58.5298" r="5.5044" fill="#D9D9D9"/>
<circle cx="332.758" cy="71.7407" r="5.5044" fill="#D9D9D9"/>
<circle cx="320.098" cy="71.7407" r="5.5044" fill="#D9D9D9"/>
<circle cx="332.758" cy="84.9517" r="5.5044" fill="#D9D9D9"/>
<circle cx="320.098" cy="84.9517" r="5.5044" fill="#D9D9D9"/>
<circle cx="332.758" cy="98.1626" r="5.5044" fill="#D9D9D9"/>
<circle cx="320.098" cy="98.1626" r="5.5044" fill="#D9D9D9"/>
<circle cx="346.52" cy="45.3208" r="5.5044" fill="#D9D9D9"/>
<circle cx="346.52" cy="58.5298" r="5.5044" fill="#D9D9D9"/>
<circle cx="346.52" cy="71.7407" r="5.5044" fill="#D9D9D9"/>
<circle cx="360.278" cy="45.3208" r="5.5044" fill="#D9D9D9"/>
<circle cx="360.278" cy="58.5298" r="5.5044" fill="#D9D9D9"/>
<circle cx="360.278" cy="71.7407" r="5.5044" fill="#D9D9D9"/>
<circle cx="374.043" cy="45.3208" r="5.5044" fill="#D9D9D9"/>
<circle cx="374.043" cy="58.5298" r="5.5044" fill="#D9D9D9"/>
<circle cx="374.043" cy="71.7407" r="5.5044" fill="#D9D9D9"/>
<circle cx="468.715" cy="45.3208" r="5.5044" fill="#D9D9D9"/>
<circle cx="618.438" cy="45.3208" r="5.5044" fill="#D9D9D9"/>
<circle cx="604.125" cy="31.5591" r="5.5044" fill="#D9D9D9"/>
<circle cx="387.801" cy="45.3208" r="5.5044" fill="#D9D9D9"/>
<circle cx="387.801" cy="58.5298" r="5.5044" fill="#D9D9D9"/>
<circle cx="387.801" cy="71.7407" r="5.5044" fill="#D9D9D9"/>
<circle cx="482.477" cy="45.3208" r="5.5044" fill="#D9D9D9"/>
<circle cx="482.477" cy="32.1099" r="5.5044" fill="#D9D9D9"/>
<circle cx="632.2" cy="45.3208" r="5.5044" fill="#D9D9D9"/>
<circle cx="701.004" cy="45.3208" r="5.5044" fill="#D9D9D9"/>
<circle cx="780.817" cy="45.3208" r="5.5044" fill="#D9D9D9"/>
<circle cx="617.887" cy="31.5591" r="5.5044" fill="#D9D9D9"/>
<circle cx="401.563" cy="45.3208" r="5.5044" fill="#D9D9D9"/>
<circle cx="401.563" cy="58.5298" r="5.5044" fill="#D9D9D9"/>
<circle cx="415.325" cy="58.5298" r="5.5044" fill="#D9D9D9"/>
<circle cx="401.563" cy="71.7407" r="5.5044" fill="#D9D9D9"/>
<circle cx="496.239" cy="45.3208" r="5.5044" fill="#D9D9D9"/>
<circle cx="645.958" cy="45.3208" r="5.5044" fill="#D9D9D9"/>
<circle cx="714.762" cy="45.3208" r="5.5044" fill="#D9D9D9"/>
<circle cx="714.762" cy="31.5591" r="5.5044" fill="#D9D9D9"/>
<circle cx="794.575" cy="45.3208" r="5.5044" fill="#D9D9D9"/>
<circle cx="631.645" cy="31.5591" r="5.5044" fill="#D9D9D9"/>
<circle cx="253.497" cy="381.088" r="5.5044" fill="#D9D9D9"/>
<circle cx="253.258" cy="394.299" r="24.2192" fill="#D6F8C4"/>
<circle cx="482.078" cy="98.1621" r="40.2539" fill="#031C51"/>
<circle cx="143.407" cy="190.637" r="48.9888" fill="#C4DEF8"/>
<circle cx="522.99" cy="309.531" r="33.1772" fill="#F9D483"/>
<circle cx="810.541" cy="296.322" r="27.521" fill="#FF9999"/>
<circle cx="665.224" cy="451.544" r="27.521" fill="#D9D9D9"/>
<path d="M241.466 397.696C242.179 398.148 242.673 398.538 242.949 398.865C243.226 399.183 243.364 399.535 243.364 399.921C243.364 400.809 242.929 401.601 242.057 402.296C241.185 402.992 239.79 403.658 237.871 404.295L237.683 403.692C238.78 403.289 239.614 402.933 240.184 402.623C240.754 402.322 241.152 402.007 241.378 401.68C241.613 401.362 241.73 400.972 241.73 400.511C241.73 400.277 241.68 400.072 241.579 399.896C241.487 399.711 241.32 399.523 241.077 399.33C240.842 399.129 240.498 398.886 240.046 398.601V398.287C240.507 397.733 240.813 397.323 240.963 397.055C241.123 396.778 241.202 396.506 241.202 396.238C241.202 395.802 241.072 395.446 240.813 395.169C240.561 394.884 240.234 394.742 239.832 394.742C239.329 394.742 238.692 395.056 237.921 395.684L237.544 395.207L239.354 393.774C239.53 393.707 239.706 393.673 239.882 393.673C240.41 393.673 240.901 393.757 241.353 393.925C241.806 394.092 242.166 394.319 242.434 394.603C242.702 394.88 242.836 395.186 242.836 395.521C242.811 395.823 242.694 396.137 242.484 396.464C242.283 396.791 241.944 397.201 241.466 397.696ZM245.345 404.308L244.867 403.931C245.295 403.419 245.601 402.975 245.785 402.598C245.969 402.229 246.078 401.815 246.112 401.354L245.131 400.775V400.386L247.281 399.33L247.759 401.241L245.345 404.308ZM254.686 394.893C255.223 395.203 255.662 395.492 256.006 395.76C256.358 396.02 256.647 396.321 256.873 396.665C257.108 397 257.225 397.377 257.225 397.796C257.225 398.249 257.037 398.739 256.66 399.267C256.283 399.787 255.822 400.227 255.277 400.587C254.741 400.939 254.25 401.115 253.806 401.115C253.035 401.115 252.344 400.985 251.732 400.725C251.12 400.457 250.643 400.097 250.299 399.644C249.956 399.183 249.784 398.676 249.784 398.123C249.784 397.704 249.964 397.285 250.324 396.866C250.693 396.439 251.305 395.902 252.16 395.257C251.623 394.888 251.204 394.511 250.903 394.126C250.601 393.74 250.45 393.309 250.45 392.831C250.45 392.429 250.626 391.997 250.978 391.536C251.33 391.075 251.757 390.686 252.26 390.367C252.771 390.049 253.241 389.89 253.668 389.89C254.213 389.89 254.699 389.994 255.126 390.204C255.562 390.405 255.897 390.682 256.132 391.033C256.375 391.377 256.496 391.754 256.496 392.165C256.463 392.534 256.32 392.915 256.069 393.309C255.818 393.703 255.352 394.226 254.674 394.88L254.686 394.893ZM253.366 390.757C252.998 390.757 252.688 390.899 252.436 391.184C252.185 391.461 252.059 391.813 252.059 392.24C252.059 392.684 252.235 393.078 252.587 393.422C252.939 393.765 253.454 394.143 254.133 394.553C254.502 394.101 254.736 393.761 254.837 393.535C254.938 393.3 254.988 393.041 254.988 392.756C254.988 392.186 254.833 391.712 254.523 391.335C254.221 390.958 253.836 390.77 253.366 390.77V390.757ZM253.857 400.222C254.2 400.222 254.506 400.139 254.774 399.971C255.042 399.795 255.248 399.565 255.39 399.28C255.533 398.995 255.604 398.689 255.604 398.362C255.604 398.044 255.495 397.746 255.277 397.469C255.067 397.185 254.804 396.933 254.485 396.715C254.167 396.489 253.739 396.217 253.203 395.898L252.688 395.584C252.168 396.02 251.824 396.372 251.657 396.64C251.498 396.9 251.418 397.189 251.418 397.507C251.418 397.976 251.531 398.421 251.757 398.84C251.984 399.259 252.285 399.594 252.662 399.845C253.039 400.097 253.442 400.222 253.869 400.222H253.857ZM262.158 389.877C262.678 389.877 263.143 389.986 263.554 390.204C263.973 390.422 264.295 390.719 264.521 391.096C264.756 391.465 264.873 391.876 264.873 392.328C264.873 392.814 264.693 393.271 264.333 393.698C263.981 394.117 263.537 394.453 263 394.704C262.464 394.955 261.945 395.081 261.442 395.081C260.922 395.081 260.457 394.976 260.046 394.767C259.636 394.549 259.313 394.256 259.079 393.887C258.844 393.51 258.727 393.091 258.727 392.63C258.727 392.144 258.903 391.691 259.255 391.272C259.615 390.845 260.063 390.506 260.6 390.254C261.136 390.003 261.655 389.877 262.158 389.877ZM261.567 390.744C260.545 390.744 260.034 391.235 260.034 392.215C260.034 392.785 260.201 393.263 260.537 393.648C260.88 394.025 261.375 394.214 262.02 394.214C263.051 394.214 263.566 393.724 263.566 392.743C263.566 392.173 263.394 391.7 263.051 391.323C262.707 390.937 262.213 390.744 261.567 390.744ZM260.122 402.636L259.682 402.309L269.927 389.198L270.367 389.512L260.122 402.636ZM268.293 397.231C268.812 397.231 269.277 397.34 269.688 397.557C270.107 397.775 270.429 398.073 270.656 398.45C270.89 398.819 271.008 399.229 271.008 399.682C271.008 400.168 270.828 400.62 270.467 401.039C270.115 401.467 269.671 401.806 269.135 402.058C268.598 402.309 268.079 402.435 267.576 402.435C267.056 402.435 266.591 402.326 266.181 402.108C265.77 401.898 265.447 401.605 265.213 401.228C264.978 400.859 264.861 400.444 264.861 399.984C264.861 399.497 265.037 399.045 265.389 398.626C265.749 398.199 266.197 397.859 266.734 397.608C267.27 397.356 267.79 397.231 268.293 397.231ZM267.702 398.098C266.679 398.098 266.168 398.588 266.168 399.569C266.168 400.139 266.336 400.612 266.671 400.989C267.015 401.375 267.509 401.567 268.154 401.567C269.185 401.567 269.7 401.077 269.7 400.097C269.7 399.527 269.529 399.053 269.185 398.676C268.841 398.291 268.347 398.098 267.702 398.098Z" fill="#1B1F35"/>
<path d="M116.043 193.483C117.146 194.184 117.912 194.787 118.34 195.293C118.768 195.786 118.982 196.331 118.982 196.928C118.982 198.303 118.307 199.529 116.958 200.606C115.609 201.683 113.449 202.714 110.478 203.7L110.186 202.766C111.885 202.143 113.176 201.592 114.058 201.112C114.941 200.645 115.557 200.158 115.907 199.652C116.27 199.159 116.452 198.556 116.452 197.842C116.452 197.479 116.374 197.161 116.219 196.889C116.076 196.604 115.816 196.312 115.44 196.013C115.077 195.702 114.545 195.326 113.844 194.885V194.398C114.558 193.542 115.031 192.906 115.265 192.491C115.511 192.063 115.635 191.641 115.635 191.226C115.635 190.552 115.434 190 115.031 189.572C114.642 189.131 114.136 188.91 113.514 188.91C112.735 188.91 111.749 189.397 110.556 190.37L109.972 189.63L112.774 187.412C113.047 187.308 113.319 187.256 113.591 187.256C114.409 187.256 115.168 187.386 115.868 187.646C116.569 187.905 117.127 188.255 117.542 188.696C117.957 189.124 118.165 189.598 118.165 190.117C118.126 190.584 117.944 191.07 117.62 191.576C117.308 192.082 116.783 192.718 116.043 193.483ZM128.334 187.256C129.346 187.256 130.247 187.496 131.039 187.976C131.843 188.456 132.466 189.111 132.907 189.942C133.361 190.759 133.588 191.667 133.588 192.666C133.588 193.743 133.244 194.748 132.556 195.682C131.869 196.617 131 197.362 129.949 197.92C128.911 198.478 127.912 198.757 126.952 198.757C125.953 198.757 125.051 198.524 124.247 198.057C123.443 197.577 122.814 196.921 122.359 196.091C121.918 195.261 121.698 194.346 121.698 193.347C121.698 192.27 122.042 191.265 122.729 190.331C123.417 189.397 124.28 188.651 125.317 188.093C126.368 187.535 127.374 187.256 128.334 187.256ZM127.205 188.891C125.22 188.891 124.228 190.065 124.228 192.413C124.228 193.269 124.37 194.054 124.656 194.768C124.941 195.481 125.369 196.052 125.94 196.48C126.524 196.908 127.237 197.122 128.081 197.122C130.066 197.122 131.058 195.942 131.058 193.581C131.058 192.725 130.915 191.94 130.63 191.226C130.345 190.513 129.91 189.948 129.326 189.533C128.755 189.105 128.048 188.891 127.205 188.891ZM136.662 203.719L135.923 203.136C136.584 202.344 137.058 201.657 137.343 201.073C137.629 200.502 137.797 199.86 137.849 199.146L136.331 198.251V197.648L139.659 196.013L140.398 198.971L136.662 203.719ZM151.123 189.144C151.953 189.624 152.634 190.072 153.166 190.487C153.711 190.889 154.159 191.356 154.509 191.888C154.872 192.407 155.054 192.99 155.054 193.639C155.054 194.34 154.762 195.099 154.178 195.916C153.594 196.72 152.881 197.401 152.038 197.959C151.207 198.504 150.448 198.777 149.761 198.777C148.567 198.777 147.497 198.575 146.55 198.173C145.603 197.758 144.863 197.2 144.331 196.5C143.8 195.786 143.534 195.001 143.534 194.145C143.534 193.496 143.813 192.848 144.37 192.199C144.941 191.537 145.888 190.707 147.212 189.708C146.381 189.137 145.733 188.554 145.266 187.957C144.799 187.36 144.565 186.692 144.565 185.953C144.565 185.33 144.837 184.662 145.382 183.948C145.927 183.235 146.589 182.631 147.367 182.138C148.159 181.645 148.885 181.399 149.547 181.399C150.39 181.399 151.142 181.561 151.804 181.885C152.479 182.197 152.998 182.625 153.361 183.17C153.737 183.702 153.925 184.285 153.925 184.921C153.873 185.492 153.653 186.082 153.264 186.692C152.874 187.302 152.154 188.113 151.104 189.124L151.123 189.144ZM149.08 182.742C148.509 182.742 148.029 182.962 147.64 183.403C147.25 183.831 147.056 184.376 147.056 185.038C147.056 185.725 147.328 186.335 147.873 186.867C148.418 187.399 149.216 187.983 150.267 188.619C150.838 187.918 151.201 187.393 151.357 187.042C151.512 186.679 151.59 186.277 151.59 185.836C151.59 184.954 151.35 184.221 150.87 183.637C150.403 183.053 149.806 182.761 149.08 182.761V182.742ZM149.839 197.395C150.371 197.395 150.844 197.265 151.259 197.006C151.674 196.733 151.992 196.377 152.213 195.935C152.433 195.494 152.544 195.021 152.544 194.515C152.544 194.022 152.375 193.561 152.038 193.133C151.713 192.692 151.305 192.303 150.812 191.966C150.319 191.615 149.657 191.194 148.827 190.701L148.029 190.214C147.225 190.889 146.693 191.434 146.433 191.849C146.187 192.251 146.063 192.699 146.063 193.192C146.063 193.918 146.239 194.606 146.589 195.254C146.939 195.903 147.406 196.422 147.99 196.811C148.574 197.2 149.196 197.395 149.858 197.395H149.839ZM162.69 181.379C163.495 181.379 164.215 181.548 164.85 181.885C165.499 182.223 165.999 182.683 166.349 183.267C166.712 183.838 166.894 184.474 166.894 185.174C166.894 185.927 166.615 186.634 166.057 187.295C165.512 187.944 164.824 188.463 163.994 188.852C163.164 189.241 162.36 189.436 161.581 189.436C160.777 189.436 160.057 189.274 159.421 188.949C158.785 188.612 158.286 188.158 157.923 187.587C157.559 187.003 157.378 186.355 157.378 185.641C157.378 184.889 157.65 184.188 158.195 183.539C158.753 182.878 159.447 182.352 160.277 181.963C161.108 181.574 161.912 181.379 162.69 181.379ZM161.776 182.722C160.193 182.722 159.402 183.481 159.402 184.999C159.402 185.881 159.661 186.621 160.18 187.217C160.712 187.801 161.477 188.093 162.476 188.093C164.072 188.093 164.87 187.334 164.87 185.816C164.87 184.934 164.604 184.201 164.072 183.617C163.54 183.021 162.775 182.722 161.776 182.722ZM159.538 201.131L158.857 200.625L174.717 180.329L175.398 180.815L159.538 201.131ZM172.187 192.763C172.991 192.763 173.711 192.932 174.347 193.269C174.995 193.607 175.495 194.067 175.845 194.651C176.208 195.222 176.39 195.858 176.39 196.558C176.39 197.311 176.111 198.011 175.553 198.66C175.008 199.321 174.321 199.847 173.491 200.236C172.66 200.625 171.856 200.82 171.078 200.82C170.273 200.82 169.553 200.651 168.918 200.314C168.282 199.99 167.782 199.535 167.419 198.952C167.056 198.381 166.874 197.739 166.874 197.025C166.874 196.273 167.147 195.572 167.692 194.924C168.249 194.262 168.943 193.736 169.774 193.347C170.604 192.958 171.408 192.763 172.187 192.763ZM171.272 194.106C169.689 194.106 168.898 194.865 168.898 196.383C168.898 197.265 169.158 197.998 169.676 198.582C170.208 199.179 170.974 199.477 171.973 199.477C173.568 199.477 174.366 198.718 174.366 197.2C174.366 196.318 174.1 195.585 173.568 195.001C173.037 194.405 172.271 194.106 171.272 194.106Z" fill="#031C51"/>
<path d="M463.626 104.022L462.688 103.715H455.198V103.186C456.642 101.98 457.74 101.019 458.491 100.302C459.253 99.5857 459.782 98.9999 460.077 98.5449C460.373 98.0899 460.521 97.669 460.521 97.2823C460.521 96.6908 460.316 96.2073 459.907 95.832C459.497 95.4452 458.968 95.2518 458.32 95.2518C457.615 95.2518 456.75 95.6784 455.726 96.5315L455.215 95.8832L457.672 93.938C457.967 93.847 458.343 93.8015 458.798 93.8015C459.583 93.8015 460.271 93.9096 460.862 94.1257C461.465 94.3305 461.926 94.6205 462.244 94.9959C462.574 95.3713 462.739 95.8092 462.739 96.3097C462.739 97.4131 461.277 99.1933 458.354 101.65H462.569L463.115 100.268L463.626 100.439V104.022ZM474.493 89.3482C472.297 90.8156 470.71 92.2375 469.732 93.6138C468.754 94.9902 468.265 96.395 468.265 97.8283C468.265 98.67 468.384 99.4435 468.623 100.149C468.862 100.843 469.22 101.4 469.698 101.821C470.187 102.242 470.779 102.452 471.473 102.452C472.872 102.452 473.571 101.531 473.571 99.6881C473.571 98.653 473.236 97.7771 472.565 97.0605C471.905 96.3325 471.052 95.7978 470.005 95.4566L470.534 94.6888C471.524 94.6888 472.417 94.8708 473.213 95.2348C474.021 95.5988 474.652 96.105 475.107 96.7533C475.562 97.3903 475.789 98.1013 475.789 98.8862C475.789 99.6824 475.528 100.473 475.004 101.258C474.493 102.031 473.821 102.663 472.991 103.152C472.172 103.641 471.336 103.885 470.483 103.885C469.63 103.885 468.862 103.658 468.179 103.203C467.508 102.737 466.985 102.105 466.61 101.309C466.234 100.501 466.047 99.6085 466.047 98.6302C466.047 97.3562 466.268 96.1903 466.712 95.1324C467.167 94.0632 467.98 92.9939 469.152 91.9247C470.324 90.8554 471.967 89.7634 474.083 88.6486L474.493 89.3482ZM478.493 108.236L477.844 107.725C478.425 107.031 478.84 106.428 479.09 105.916C479.34 105.415 479.488 104.852 479.534 104.227L478.203 103.442V102.913L481.12 101.48L481.769 104.073L478.493 108.236ZM489.807 93.8015C490.66 93.8015 491.422 94.012 492.094 94.4328C492.776 94.8537 493.305 95.4282 493.68 96.1562C494.056 96.8728 494.243 97.669 494.243 98.5449C494.243 99.7848 494.016 100.922 493.561 101.957C493.117 102.993 492.31 104.028 491.138 105.063C489.966 106.098 488.323 107.15 486.207 108.219L485.798 107.52C487.993 106.098 489.58 104.727 490.558 103.408C491.536 102.077 492.025 100.723 492.025 99.3468C492.025 98.5961 491.906 97.9079 491.667 97.2823C491.428 96.6567 491.064 96.1618 490.575 95.7978C490.097 95.4225 489.511 95.2348 488.818 95.2348C487.418 95.2348 486.719 96.1562 486.719 97.9989C486.719 99.034 487.032 99.9156 487.657 100.644C488.294 101.36 489.113 101.889 490.114 102.23L489.585 102.998C488.63 102.998 487.765 102.816 486.992 102.452C486.218 102.088 485.61 101.588 485.166 100.951C484.723 100.302 484.501 99.5857 484.501 98.8008C484.501 98.0046 484.757 97.2197 485.269 96.4462C485.792 95.6613 486.463 95.0243 487.282 94.5352C488.112 94.0461 488.954 93.8015 489.807 93.8015ZM501.298 88.6486C502.003 88.6486 502.634 88.7965 503.192 89.0923C503.761 89.388 504.199 89.7918 504.506 90.3037C504.824 90.8042 504.983 91.3616 504.983 91.9758C504.983 92.6356 504.739 93.2555 504.25 93.8357C503.772 94.4044 503.169 94.8594 502.441 95.2007C501.713 95.5419 501.008 95.7125 500.325 95.7125C499.62 95.7125 498.989 95.5703 498.431 95.286C497.874 94.9902 497.436 94.5921 497.118 94.0916C496.799 93.5797 496.64 93.011 496.64 92.3853C496.64 91.7256 496.879 91.1113 497.356 90.5426C497.846 89.9625 498.454 89.5018 499.182 89.1605C499.91 88.8193 500.615 88.6486 501.298 88.6486ZM500.496 89.826C499.108 89.826 498.414 90.4914 498.414 91.8223C498.414 92.5958 498.642 93.2442 499.097 93.7674C499.563 94.2793 500.234 94.5352 501.11 94.5352C502.509 94.5352 503.209 93.8698 503.209 92.5389C503.209 91.7654 502.976 91.1227 502.509 90.6108C502.043 90.0876 501.372 89.826 500.496 89.826ZM498.534 105.967L497.937 105.523L511.843 87.7273L512.44 88.1538L498.534 105.967ZM509.624 98.6302C510.33 98.6302 510.961 98.7781 511.518 99.0738C512.087 99.3696 512.525 99.7734 512.832 100.285C513.151 100.786 513.31 101.343 513.31 101.957C513.31 102.617 513.065 103.231 512.576 103.8C512.098 104.38 511.496 104.841 510.768 105.182C510.04 105.523 509.334 105.694 508.652 105.694C507.947 105.694 507.315 105.546 506.758 105.25C506.201 104.966 505.763 104.568 505.444 104.056C505.126 103.556 504.966 102.993 504.966 102.367C504.966 101.707 505.205 101.093 505.683 100.524C506.172 99.944 506.781 99.4833 507.509 99.1421C508.237 98.8008 508.942 98.6302 509.624 98.6302ZM508.822 99.8075C507.435 99.8075 506.741 100.473 506.741 101.804C506.741 102.577 506.968 103.22 507.423 103.732C507.89 104.255 508.561 104.517 509.437 104.517C510.836 104.517 511.535 103.851 511.535 102.52C511.535 101.747 511.302 101.104 510.836 100.592C510.369 100.069 509.698 99.8075 508.822 99.8075Z" fill="white"/>
<path d="M511.602 317.498L510.774 317.227H504.158V316.759C505.434 315.695 506.404 314.846 507.067 314.213C507.74 313.58 508.207 313.063 508.468 312.661C508.729 312.259 508.86 311.887 508.86 311.546C508.86 311.023 508.679 310.596 508.317 310.265C507.956 309.923 507.489 309.752 506.916 309.752C506.293 309.752 505.53 310.129 504.625 310.883L504.173 310.31L506.343 308.592C506.605 308.512 506.936 308.472 507.338 308.472C508.031 308.472 508.639 308.567 509.161 308.758C509.694 308.939 510.101 309.195 510.382 309.526C510.673 309.858 510.819 310.245 510.819 310.687C510.819 311.661 509.528 313.233 506.946 315.403H510.668L511.15 314.183L511.602 314.333V317.498ZM517.492 313.294C518.346 313.836 518.939 314.303 519.27 314.695C519.602 315.077 519.767 315.499 519.767 315.961C519.767 317.026 519.245 317.975 518.2 318.809C517.155 319.643 515.483 320.441 513.182 321.205L512.956 320.481C514.272 319.999 515.272 319.572 515.955 319.201C516.638 318.839 517.115 318.462 517.386 318.07C517.668 317.689 517.808 317.222 517.808 316.669C517.808 316.388 517.748 316.142 517.628 315.931C517.517 315.71 517.316 315.484 517.025 315.253C516.744 315.011 516.332 314.72 515.789 314.379V314.002C516.342 313.339 516.708 312.847 516.889 312.525C517.08 312.194 517.176 311.867 517.176 311.546C517.176 311.023 517.02 310.596 516.708 310.265C516.407 309.923 516.015 309.752 515.533 309.752C514.93 309.752 514.167 310.129 513.243 310.883L512.79 310.31L514.96 308.592C515.171 308.512 515.382 308.472 515.593 308.472C516.226 308.472 516.814 308.572 517.356 308.773C517.899 308.974 518.331 309.245 518.652 309.587C518.974 309.918 519.134 310.285 519.134 310.687C519.104 311.048 518.964 311.425 518.713 311.817C518.471 312.209 518.065 312.701 517.492 313.294ZM522.142 321.22L521.569 320.768C522.082 320.155 522.448 319.623 522.669 319.17C522.89 318.728 523.021 318.231 523.061 317.679L521.886 316.985V316.518L524.462 315.253L525.035 317.543L522.142 321.22ZM532.33 317.227H527.749V316.759L529.211 315.614V309.767L527.598 309.225L527.9 308.622H532.481V309.089L531.019 310.235V316.081L532.632 316.624L532.33 317.227ZM538.706 303.921C539.329 303.921 539.887 304.051 540.379 304.313C540.881 304.574 541.268 304.93 541.539 305.382C541.821 305.824 541.961 306.317 541.961 306.859C541.961 307.442 541.745 307.989 541.313 308.502C540.891 309.004 540.359 309.406 539.716 309.707C539.073 310.009 538.45 310.159 537.847 310.159C537.225 310.159 536.667 310.034 536.175 309.783C535.683 309.521 535.296 309.17 535.015 308.728C534.733 308.276 534.593 307.773 534.593 307.221C534.593 306.638 534.804 306.096 535.225 305.593C535.657 305.081 536.195 304.674 536.838 304.373C537.481 304.071 538.104 303.921 538.706 303.921ZM537.998 304.96C536.773 304.96 536.16 305.548 536.16 306.724C536.16 307.407 536.361 307.979 536.763 308.441C537.174 308.893 537.767 309.119 538.541 309.119C539.776 309.119 540.394 308.532 540.394 307.356C540.394 306.673 540.188 306.106 539.776 305.654C539.364 305.192 538.772 304.96 537.998 304.96ZM536.265 319.216L535.738 318.824L548.019 303.107L548.546 303.484L536.265 319.216ZM546.06 312.736C546.683 312.736 547.24 312.867 547.733 313.128C548.235 313.389 548.622 313.746 548.893 314.198C549.174 314.64 549.315 315.132 549.315 315.674C549.315 316.257 549.099 316.8 548.667 317.302C548.245 317.814 547.713 318.221 547.07 318.522C546.427 318.824 545.804 318.975 545.201 318.975C544.578 318.975 544.021 318.844 543.528 318.583C543.036 318.332 542.649 317.98 542.368 317.528C542.087 317.086 541.946 316.589 541.946 316.036C541.946 315.453 542.157 314.911 542.579 314.409C543.011 313.896 543.549 313.489 544.191 313.188C544.834 312.887 545.457 312.736 546.06 312.736ZM545.352 313.776C544.126 313.776 543.513 314.363 543.513 315.539C543.513 316.222 543.714 316.79 544.116 317.242C544.528 317.704 545.121 317.935 545.894 317.935C547.13 317.935 547.748 317.347 547.748 316.172C547.748 315.489 547.542 314.921 547.13 314.469C546.718 314.007 546.125 313.776 545.352 313.776Z" fill="#1B1F35"/>
<path d="M799.71 292.114L793.695 304.069L792.975 303.739L798.24 293.359H792.69L792.24 294.424L791.79 294.274V291.274L792.615 291.544H799.71V292.114ZM801.933 304.084L801.363 303.634C801.873 303.024 802.238 302.494 802.458 302.044C802.678 301.604 802.808 301.109 802.848 300.559L801.678 299.869V299.404L804.243 298.144L804.813 300.424L801.933 304.084ZM815.134 292.114L809.119 304.069L808.399 303.739L813.664 293.359H808.114L807.664 294.424L807.214 294.274V291.274L808.039 291.544H815.134V292.114ZM820.882 286.864C821.502 286.864 822.057 286.994 822.547 287.254C823.047 287.514 823.432 287.869 823.702 288.319C823.982 288.759 824.122 289.249 824.122 289.789C824.122 290.369 823.907 290.914 823.477 291.424C823.057 291.924 822.527 292.324 821.887 292.624C821.247 292.924 820.627 293.074 820.027 293.074C819.407 293.074 818.852 292.949 818.362 292.699C817.872 292.439 817.487 292.089 817.207 291.649C816.927 291.199 816.787 290.699 816.787 290.149C816.787 289.569 816.997 289.029 817.417 288.529C817.847 288.019 818.382 287.614 819.022 287.314C819.662 287.014 820.282 286.864 820.882 286.864ZM820.177 287.899C818.957 287.899 818.347 288.484 818.347 289.654C818.347 290.334 818.547 290.904 818.947 291.364C819.357 291.814 819.947 292.039 820.717 292.039C821.947 292.039 822.562 291.454 822.562 290.284C822.562 289.604 822.357 289.039 821.947 288.589C821.537 288.129 820.947 287.899 820.177 287.899ZM818.452 302.089L817.927 301.699L830.152 286.054L830.677 286.429L818.452 302.089ZM828.202 295.639C828.822 295.639 829.377 295.769 829.867 296.029C830.367 296.289 830.752 296.644 831.022 297.094C831.302 297.534 831.442 298.024 831.442 298.564C831.442 299.144 831.227 299.684 830.797 300.184C830.377 300.694 829.847 301.099 829.207 301.399C828.567 301.699 827.947 301.849 827.347 301.849C826.727 301.849 826.172 301.719 825.682 301.459C825.192 301.209 824.807 300.859 824.527 300.409C824.247 299.969 824.107 299.474 824.107 298.924C824.107 298.344 824.317 297.804 824.737 297.304C825.167 296.794 825.702 296.389 826.342 296.089C826.982 295.789 827.602 295.639 828.202 295.639ZM827.497 296.674C826.277 296.674 825.667 297.259 825.667 298.429C825.667 299.109 825.867 299.674 826.267 300.124C826.677 300.584 827.267 300.814 828.037 300.814C829.267 300.814 829.882 300.229 829.882 299.059C829.882 298.379 829.677 297.814 829.267 297.364C828.857 296.904 828.267 296.674 827.497 296.674Z" fill="black"/>
<path d="M654.393 447.339L648.378 459.294L647.658 458.964L652.923 448.584H647.373L646.923 449.649L646.473 449.499V446.499L647.298 446.769H654.393V447.339ZM656.616 459.309L656.046 458.859C656.556 458.249 656.921 457.719 657.141 457.269C657.361 456.829 657.491 456.334 657.531 455.784L656.361 455.094V454.629L658.926 453.369L659.496 455.649L656.616 459.309ZM669.818 447.339L663.803 459.294L663.083 458.964L668.348 448.584H662.798L662.348 449.649L661.898 449.499V446.499L662.723 446.769H669.818V447.339ZM675.566 442.089C676.186 442.089 676.741 442.219 677.231 442.479C677.731 442.739 678.116 443.094 678.386 443.544C678.666 443.984 678.806 444.474 678.806 445.014C678.806 445.594 678.591 446.139 678.161 446.649C677.741 447.149 677.211 447.549 676.571 447.849C675.931 448.149 675.311 448.299 674.711 448.299C674.091 448.299 673.536 448.174 673.046 447.924C672.556 447.664 672.171 447.314 671.891 446.874C671.611 446.424 671.471 445.924 671.471 445.374C671.471 444.794 671.681 444.254 672.101 443.754C672.531 443.244 673.066 442.839 673.706 442.539C674.346 442.239 674.966 442.089 675.566 442.089ZM674.861 443.124C673.641 443.124 673.031 443.709 673.031 444.879C673.031 445.559 673.231 446.129 673.631 446.589C674.041 447.039 674.631 447.264 675.401 447.264C676.631 447.264 677.246 446.679 677.246 445.509C677.246 444.829 677.041 444.264 676.631 443.814C676.221 443.354 675.631 443.124 674.861 443.124ZM673.136 457.314L672.611 456.924L684.836 441.279L685.361 441.654L673.136 457.314ZM682.886 450.864C683.506 450.864 684.061 450.994 684.551 451.254C685.051 451.514 685.436 451.869 685.706 452.319C685.986 452.759 686.126 453.249 686.126 453.789C686.126 454.369 685.911 454.909 685.481 455.409C685.061 455.919 684.531 456.324 683.891 456.624C683.251 456.924 682.631 457.074 682.031 457.074C681.411 457.074 680.856 456.944 680.366 456.684C679.876 456.434 679.491 456.084 679.211 455.634C678.931 455.194 678.791 454.699 678.791 454.149C678.791 453.569 679.001 453.029 679.421 452.529C679.851 452.019 680.386 451.614 681.026 451.314C681.666 451.014 682.286 450.864 682.886 450.864ZM682.181 451.899C680.961 451.899 680.351 452.484 680.351 453.654C680.351 454.334 680.551 454.899 680.951 455.349C681.361 455.809 681.951 456.039 682.721 456.039C683.951 456.039 684.566 455.454 684.566 454.284C684.566 453.604 684.361 453.039 683.951 452.589C683.541 452.129 682.951 451.899 682.181 451.899Z" fill="black"/>
</svg>
