<svg width="1291" height="369" viewBox="0 0 1291 369" fill="none" xmlns="http://www.w3.org/2000/svg">
<path d="M24.9611 222.201L187.014 244.374C267.656 255.408 347.533 241.158 414.634 203.766L472.427 171.561C554.98 125.559 661.764 131.162 747.876 186.015V186.015C808.385 224.558 880.324 239.434 947.616 227.32L1266.16 169.97" stroke="#334A59" stroke-width="6.87249" stroke-linecap="round" stroke-dasharray="20.62 20.62"/>
<g opacity="0.5">
<path d="M1041.98 99.6445H1027.76V98.9097L1029.99 97.1555V82.7901L1027.52 81.9604L1028 81.0122H1041.75L1043.03 80.5855V86.0377L1042.32 86.2748L1039.49 82.0789H1032.95V89.5935H1036.67L1038.4 86.5592H1039.14V93.7656L1038.19 94.2397L1036.7 90.6602H1032.95V98.5778H1039.4L1042.55 93.9079L1043.26 94.1449V100.071L1041.98 99.6445ZM1059.44 99.6445H1055.91L1052.19 94.6664L1049.56 97.1318L1051.76 98.72L1051.29 99.6682H1046.1V98.9334L1051.52 93.7656L1048.09 89.309L1046 88.0052L1046.48 87.057H1050.01L1053.68 91.964L1056.22 89.5935L1054.01 88.0052L1054.49 87.057H1059.68V87.7919L1054.35 92.8648L1057.81 97.3688L1059.92 98.6963L1059.44 99.6445ZM1068.93 99.9053C1068.07 99.9053 1067.28 99.6445 1066.56 99.123V103.722L1069.88 104.741L1069.4 105.689H1061.6V104.955L1063.71 103.295V90.5654L1061.6 89.3327V88.5979L1065.66 86.6066L1066.44 89.6883L1069.83 87.0096C1070.33 86.8832 1070.91 86.82 1071.56 86.82C1072.41 86.82 1073.18 87.0965 1073.86 87.6497C1074.55 88.187 1075.09 88.9218 1075.47 89.8543C1075.87 90.7867 1076.06 91.8139 1076.06 92.9359C1076.06 94.1528 1075.69 95.2986 1074.95 96.3732C1074.21 97.432 1073.27 98.2854 1072.15 98.9334C1071.05 99.5655 1069.97 99.8816 1068.93 99.8816V99.9053ZM1070.35 89.0957C1069.75 89.0957 1069.16 89.2142 1068.6 89.4513C1068.03 89.6883 1067.35 90.1545 1066.56 90.8499V94.8561C1066.56 95.7253 1066.88 96.4522 1067.53 97.037C1068.18 97.6217 1069.1 97.914 1070.3 97.914C1072.09 97.914 1072.98 96.6419 1072.98 94.0975C1072.98 92.691 1072.75 91.5057 1072.29 90.5417C1071.84 89.5777 1071.19 89.0957 1070.35 89.0957ZM1087.12 99.6919C1086.49 99.8184 1085.73 99.8816 1084.84 99.8816C1083.8 99.8816 1082.86 99.6129 1082.02 99.0756C1081.2 98.5225 1080.55 97.7797 1080.08 96.8473C1079.62 95.9149 1079.39 94.8877 1079.39 93.7656C1079.39 92.5488 1079.76 91.4109 1080.5 90.3521C1081.25 89.2774 1082.17 88.424 1083.28 87.7919C1084.4 87.144 1085.48 86.82 1086.53 86.82C1088.03 86.82 1089.19 87.4126 1090.01 88.5979C1090.85 89.7831 1091.27 91.3477 1091.27 93.2915H1082.5C1082.59 94.6348 1082.95 95.7332 1083.59 96.5866C1084.23 97.4399 1085.11 97.8666 1086.22 97.8666C1087.24 97.8666 1088.71 97.0686 1090.6 95.4724L1091.31 96.3732L1087.12 99.6919ZM1085.15 88.8112C1083.44 88.8112 1082.55 89.9807 1082.47 92.3196H1088.02C1087.88 91.4662 1087.73 90.8183 1087.57 90.3758C1087.43 89.9175 1087.17 89.5461 1086.79 89.2616C1086.42 88.9614 1085.88 88.8112 1085.15 88.8112ZM1102.82 86.8437C1103.35 86.8437 1103.8 86.9859 1104.2 87.2704C1104.59 87.5548 1104.9 87.9499 1105.12 88.4556L1103.56 90.4232H1102.66C1102.6 90.0281 1102.48 89.7515 1102.3 89.5935C1102.15 89.4197 1101.92 89.3327 1101.64 89.3327C1101.29 89.3327 1100.92 89.4276 1100.53 89.6172C1100.15 89.791 1099.71 90.1308 1099.22 90.6365V97.7007L1102.54 98.72L1102.07 99.6682H1094.27V98.9334L1096.38 97.274V90.5654L1094.27 89.3327V88.5979L1098.32 86.6066L1099.06 89.5224L1101.52 87.0096C1101.85 86.8832 1102.29 86.82 1102.82 86.82V86.8437ZM1113.17 99.6445H1106.56V98.9097L1108.67 97.2503V90.3284L1106.56 88.8586V88.1238L1110.61 86.6066H1111.51V97.8666L1113.65 98.6963L1113.17 99.6445ZM1110 79.4951C1110.47 79.4951 1110.86 79.6689 1111.16 80.0166C1111.47 80.3642 1111.63 80.7988 1111.63 81.3204C1111.63 81.6838 1111.52 82.0315 1111.3 82.3634C1111.08 82.6795 1110.8 82.9323 1110.47 83.122C1110.14 83.3116 1109.82 83.4064 1109.5 83.4064C1109.02 83.4064 1108.63 83.2326 1108.31 82.8849C1108.01 82.5372 1107.86 82.1026 1107.86 81.5811C1107.86 81.2176 1107.97 80.8779 1108.2 80.5618C1108.42 80.2299 1108.69 79.9692 1109.02 79.7795C1109.36 79.5899 1109.68 79.4951 1110 79.4951ZM1123.86 99.6919C1123.22 99.8184 1122.47 99.8816 1121.58 99.8816C1120.54 99.8816 1119.6 99.6129 1118.76 99.0756C1117.94 98.5225 1117.29 97.7797 1116.82 96.8473C1116.36 95.9149 1116.13 94.8877 1116.13 93.7656C1116.13 92.5488 1116.5 91.4109 1117.24 90.3521C1117.99 89.2774 1118.91 88.424 1120.02 87.7919C1121.14 87.144 1122.22 86.82 1123.26 86.82C1124.77 86.82 1125.93 87.4126 1126.75 88.5979C1127.59 89.7831 1128.01 91.3477 1128.01 93.2915H1119.23C1119.33 94.6348 1119.69 95.7332 1120.32 96.5866C1120.97 97.4399 1121.85 97.8666 1122.96 97.8666C1123.98 97.8666 1125.44 97.0686 1127.34 95.4724L1128.05 96.3732L1123.86 99.6919ZM1121.89 88.8112C1120.18 88.8112 1119.29 89.9807 1119.21 92.3196H1124.76C1124.62 91.4662 1124.47 90.8183 1124.31 90.3758C1124.16 89.9175 1123.9 89.5461 1123.52 89.2616C1123.16 88.9614 1122.62 88.8112 1121.89 88.8112ZM1145.68 99.6682H1141.18V91.6796C1141.18 90.8104 1141.04 90.2019 1140.77 89.8543C1140.5 89.5066 1140.02 89.3327 1139.33 89.3327C1138.8 89.3327 1138.28 89.4276 1137.76 89.6172C1137.26 89.8068 1136.66 90.1703 1135.96 90.7076V97.8903L1138.09 98.72L1137.62 99.6682H1131.01V98.9334L1133.12 97.274V90.5654L1131.01 89.3327V88.5979L1135.06 86.6066L1135.84 89.6883L1139.21 87.0096C1139.54 86.8832 1139.97 86.82 1140.51 86.82C1141.59 86.82 1142.44 87.1519 1143.07 87.8156C1143.7 88.4635 1144.02 89.3485 1144.02 90.4706V97.8666L1146.15 98.72L1145.68 99.6682ZM1155.06 86.82C1155.71 86.82 1156.46 86.9148 1157.31 87.1044C1158.18 87.2783 1158.81 87.4758 1159.19 87.6971V91.3477H1158.28C1157.67 90.5575 1156.96 89.9412 1156.15 89.4987C1155.36 89.0404 1154.54 88.8112 1153.69 88.8112C1152.96 88.8112 1152.41 89.1352 1152.03 89.7831C1151.66 90.4311 1151.48 91.3793 1151.48 92.6278C1151.48 94.1133 1151.81 95.3618 1152.45 96.3732C1153.1 97.3688 1154.03 97.8666 1155.23 97.8666C1156.13 97.8666 1157.41 97.2187 1159.07 95.9228L1159.78 96.8236L1156.13 99.6919C1155.5 99.8184 1154.74 99.8816 1153.85 99.8816C1152.81 99.8816 1151.87 99.6129 1151.03 99.0756C1150.21 98.5225 1149.56 97.7797 1149.09 96.8473C1148.63 95.9149 1148.4 94.8877 1148.4 93.7656C1148.4 92.5488 1148.74 91.403 1149.42 90.3284C1150.11 89.2537 1150.98 88.4003 1152.03 87.7682C1153.07 87.1361 1154.08 86.82 1155.06 86.82ZM1170.67 99.6919C1170.03 99.8184 1169.27 99.8816 1168.39 99.8816C1167.35 99.8816 1166.41 99.6129 1165.57 99.0756C1164.75 98.5225 1164.1 97.7797 1163.62 96.8473C1163.17 95.9149 1162.94 94.8877 1162.94 93.7656C1162.94 92.5488 1163.31 91.4109 1164.05 90.3521C1164.79 89.2774 1165.72 88.424 1166.83 87.7919C1167.95 87.144 1169.03 86.82 1170.07 86.82C1171.57 86.82 1172.74 87.4126 1173.56 88.5979C1174.39 89.7831 1174.81 91.3477 1174.81 93.2915H1166.04C1166.14 94.6348 1166.5 95.7332 1167.13 96.5866C1167.78 97.4399 1168.66 97.8666 1169.76 97.8666C1170.79 97.8666 1172.25 97.0686 1174.15 95.4724L1174.86 96.3732L1170.67 99.6919ZM1168.7 88.8112C1166.99 88.8112 1166.1 89.9807 1166.02 92.3196H1171.57C1171.42 91.4662 1171.27 90.8183 1171.12 90.3758C1170.97 89.9175 1170.71 89.5461 1170.33 89.2616C1169.97 88.9614 1169.42 88.8112 1168.7 88.8112ZM1192.13 99.6445H1187.63V97.9378L1185.42 99.6919C1184.92 99.8184 1184.31 99.8816 1183.6 99.8816C1182.56 99.8816 1181.62 99.6129 1180.78 99.0756C1179.96 98.5225 1179.31 97.7797 1178.83 96.8473C1178.38 95.9149 1178.15 94.8877 1178.15 93.7656C1178.15 92.5488 1178.52 91.4109 1179.26 90.3521C1180 89.2774 1180.93 88.424 1182.03 87.7919C1183.16 87.144 1184.24 86.82 1185.28 86.82C1186.15 86.82 1186.94 87.0649 1187.65 87.5548V82.6716L1185.54 81.2018V80.467L1189.6 78.9498H1190.5V97.8666L1192.61 98.6963L1192.13 99.6445ZM1184.81 97.8666C1185.28 97.8666 1185.73 97.8034 1186.16 97.677C1186.6 97.5348 1187.09 97.274 1187.63 96.8947V91.4899C1187.53 90.6997 1187.16 90.0597 1186.51 89.5698C1185.88 89.0641 1185.01 88.8112 1183.91 88.8112C1182.12 88.8112 1181.23 90.0834 1181.23 92.6278C1181.23 94.1133 1181.54 95.3618 1182.15 96.3732C1182.77 97.3688 1183.65 97.8666 1184.81 97.8666Z" fill="black"/>
<path d="M1060.84 113.021C1061.68 113.021 1062.65 113.139 1063.74 113.376C1064.84 113.613 1065.65 113.866 1066.15 114.135V118.733H1065.25C1063.8 116.252 1061.87 115.012 1059.47 115.012C1058.43 115.012 1057.47 115.32 1056.6 115.936C1055.75 116.537 1055.08 117.382 1054.59 118.473C1054.1 119.547 1053.85 120.756 1053.85 122.1C1053.85 123.648 1054.09 125.063 1054.56 126.343C1055.05 127.623 1055.79 128.65 1056.77 129.425C1057.76 130.199 1058.99 130.586 1060.44 130.586C1061.78 130.586 1063.71 129.575 1066.23 127.552L1066.94 128.69L1062.57 132.08C1061.99 132.285 1061.42 132.419 1060.87 132.483C1060.33 132.562 1059.75 132.601 1059.11 132.601C1057.45 132.601 1055.98 132.198 1054.7 131.392C1053.42 130.586 1052.43 129.48 1051.72 128.073C1051.01 126.651 1050.65 125.039 1050.65 123.237C1050.65 121.388 1051.19 119.682 1052.26 118.117C1053.34 116.537 1054.67 115.296 1056.27 114.395C1057.87 113.479 1059.39 113.021 1060.84 113.021ZM1077.23 119.302C1078.28 119.302 1079.21 119.579 1080.03 120.132C1080.87 120.669 1081.51 121.404 1081.97 122.337C1082.45 123.269 1082.68 124.296 1082.68 125.418C1082.68 126.635 1082.31 127.781 1081.57 128.856C1080.83 129.914 1079.89 130.768 1078.77 131.416C1077.67 132.048 1076.59 132.364 1075.55 132.364C1074.51 132.364 1073.57 132.095 1072.73 131.558C1071.91 131.005 1071.26 130.262 1070.78 129.33C1070.33 128.397 1070.1 127.37 1070.1 126.248C1070.1 125.031 1070.47 123.893 1071.21 122.834C1071.95 121.76 1072.88 120.906 1073.98 120.274C1075.11 119.626 1076.19 119.302 1077.23 119.302ZM1075.86 121.294C1074.07 121.294 1073.18 122.566 1073.18 125.11C1073.18 126.612 1073.5 127.868 1074.15 128.879C1074.8 129.875 1075.72 130.373 1076.92 130.373C1078.71 130.373 1079.6 129.093 1079.6 126.533C1079.6 125.047 1079.28 123.806 1078.63 122.811C1077.98 121.799 1077.06 121.294 1075.86 121.294ZM1100.32 132.151H1095.81V124.162C1095.81 123.293 1095.68 122.684 1095.41 122.337C1095.14 121.989 1094.66 121.815 1093.97 121.815C1093.44 121.815 1092.92 121.91 1092.4 122.1C1091.9 122.289 1091.29 122.653 1090.6 123.19V130.373L1092.73 131.202L1092.26 132.151H1085.65V131.416L1087.75 129.756V123.048L1085.65 121.815V121.08L1089.7 119.089L1090.48 122.171L1093.85 119.492C1094.18 119.366 1094.61 119.302 1095.15 119.302C1096.23 119.302 1097.08 119.634 1097.71 120.298C1098.34 120.946 1098.66 121.831 1098.66 122.953V130.349L1100.79 131.202L1100.32 132.151ZM1109.44 132.174C1109.08 132.301 1108.63 132.364 1108.11 132.364C1106.8 132.364 1105.84 132.024 1105.22 131.345C1104.62 130.649 1104.32 129.583 1104.32 128.144V121.223H1101.76V120.251L1106.26 115.012H1107.16V120.251H1111.43V121.223H1107.16V128.429C1107.16 129.709 1107.78 130.349 1109.01 130.349C1109.34 130.349 1109.66 130.278 1109.96 130.136C1110.28 129.993 1110.66 129.741 1111.12 129.377L1111.83 130.278L1109.44 132.174ZM1120.11 132.127H1113.49V131.392L1115.6 129.733V122.811L1113.49 121.341V120.606L1117.55 119.089H1118.45V130.349L1120.58 131.179L1120.11 132.127ZM1116.93 111.977C1117.41 111.977 1117.79 112.151 1118.09 112.499C1118.41 112.847 1118.57 113.281 1118.57 113.803C1118.57 114.166 1118.46 114.514 1118.24 114.846C1118.01 115.162 1117.74 115.415 1117.41 115.604C1117.07 115.794 1116.75 115.889 1116.43 115.889C1115.96 115.889 1115.56 115.715 1115.25 115.367C1114.95 115.02 1114.8 114.585 1114.8 114.064C1114.8 113.7 1114.91 113.36 1115.13 113.044C1115.35 112.712 1115.63 112.452 1115.96 112.262C1116.29 112.072 1116.62 111.977 1116.93 111.977ZM1131.95 119.302C1132.81 119.302 1133.57 119.579 1134.25 120.132C1134.95 120.669 1135.48 121.404 1135.86 122.337C1136.26 123.269 1136.46 124.296 1136.46 125.418C1136.46 126.635 1136.09 127.781 1135.34 128.856C1134.6 129.914 1133.67 130.768 1132.55 131.416C1131.44 132.048 1130.36 132.364 1129.32 132.364C1128.67 132.364 1128.07 132.222 1127.5 131.937C1126.94 131.653 1126.45 131.25 1126.03 130.728L1125.01 132.127H1124.11V115.154L1122 113.684V112.949L1126.05 111.432H1126.95V122.005L1130.13 119.492C1130.63 119.366 1131.24 119.302 1131.95 119.302ZM1130.7 130.373C1132.48 130.373 1133.38 129.101 1133.38 126.556C1133.38 125.086 1133.15 123.846 1132.69 122.834C1132.23 121.823 1131.58 121.317 1130.74 121.317C1130.14 121.317 1129.56 121.436 1128.99 121.673C1128.42 121.91 1127.74 122.376 1126.95 123.072V127.315C1126.95 128.184 1127.27 128.911 1127.92 129.496C1128.57 130.08 1129.5 130.373 1130.7 130.373ZM1152.92 132.127H1148.42V129.662L1145.41 132.174C1145.07 132.301 1144.64 132.364 1144.1 132.364C1143.03 132.364 1142.17 132.04 1141.54 131.392C1140.91 130.728 1140.59 129.835 1140.59 128.713V123.048L1138.48 121.815V121.08L1142.54 119.089H1143.44V127.528C1143.44 128.397 1143.57 129.006 1143.84 129.353C1144.11 129.701 1144.59 129.875 1145.29 129.875C1145.78 129.875 1146.26 129.788 1146.73 129.614C1147.21 129.425 1147.77 129.061 1148.42 128.524V123.048L1146.31 121.815V121.08L1150.36 119.089H1151.26V130.349L1153.4 131.179L1152.92 132.127ZM1162.29 132.174C1161.93 132.301 1161.48 132.364 1160.96 132.364C1159.65 132.364 1158.69 132.024 1158.07 131.345C1157.47 130.649 1157.17 129.583 1157.17 128.144V121.223H1154.61V120.251L1159.11 115.012H1160.01V120.251H1164.28V121.223H1160.01V128.429C1160.01 129.709 1160.63 130.349 1161.86 130.349C1162.2 130.349 1162.51 130.278 1162.81 130.136C1163.13 129.993 1163.51 129.741 1163.97 129.377L1164.68 130.278L1162.29 132.174ZM1173.6 119.302C1174.65 119.302 1175.58 119.579 1176.4 120.132C1177.24 120.669 1177.89 121.404 1178.35 122.337C1178.82 123.269 1179.06 124.296 1179.06 125.418C1179.06 126.635 1178.68 127.781 1177.94 128.856C1177.2 129.914 1176.27 130.768 1175.15 131.416C1174.04 132.048 1172.96 132.364 1171.92 132.364C1170.88 132.364 1169.94 132.095 1169.1 131.558C1168.28 131.005 1167.63 130.262 1167.16 129.33C1166.7 128.397 1166.47 127.37 1166.47 126.248C1166.47 125.031 1166.84 123.893 1167.58 122.834C1168.33 121.76 1169.25 120.906 1170.36 120.274C1171.48 119.626 1172.56 119.302 1173.6 119.302ZM1172.23 121.294C1170.44 121.294 1169.55 122.566 1169.55 125.11C1169.55 126.612 1169.87 127.868 1170.52 128.879C1171.17 129.875 1172.09 130.373 1173.3 130.373C1175.08 130.373 1175.97 129.093 1175.97 126.533C1175.97 125.047 1175.65 123.806 1175 122.811C1174.35 121.799 1173.43 121.294 1172.23 121.294ZM1190.57 119.326C1191.1 119.326 1191.55 119.468 1191.95 119.753C1192.34 120.037 1192.65 120.432 1192.87 120.938L1191.31 122.906H1190.41C1190.35 122.511 1190.23 122.234 1190.05 122.076C1189.9 121.902 1189.67 121.815 1189.39 121.815C1189.04 121.815 1188.67 121.91 1188.28 122.1C1187.9 122.273 1187.46 122.613 1186.97 123.119V130.183L1190.29 131.202L1189.82 132.151H1182.02V131.416L1184.13 129.756V123.048L1182.02 121.815V121.08L1186.07 119.089L1186.81 122.005L1189.27 119.492C1189.6 119.366 1190.04 119.302 1190.57 119.302V119.326Z" fill="black"/>
</g>
<path d="M24.9572 222.201L187.01 244.374C267.652 255.408 347.529 241.158 414.63 203.766L472.423 171.561C554.976 125.559 661.76 131.162 747.872 186.015V186.015C808.381 224.558 880.32 239.434 947.612 227.32L1266.16 169.97" stroke="#EBD7B5" stroke-width="48.1074" stroke-linecap="round"/>
<path d="M24.9572 222.201L187.01 244.374C267.652 255.408 347.529 241.158 414.63 203.766L472.423 171.561C554.976 125.559 661.76 131.162 747.872 186.015V186.015C808.381 224.558 880.32 239.434 947.612 227.32L1266.16 169.97" stroke="url(#paint0_linear_2024_103)" stroke-width="6.87249" stroke-linecap="round"/>
<g opacity="0.5">
<path d="M558.814 228.567H551.607V227.832L553.836 226.078V212.969L547.506 228.567H546.203L539.921 212.803V226.362L542.41 227.618L541.936 228.567H536.389V227.832L538.617 226.078V212.186L536.151 210.859L536.626 209.911H541.77L547.696 224.798L553.599 209.911H559.051V210.645L556.799 212.4V226.741L559.288 227.618L558.814 228.567ZM569.864 228.59C569.232 228.717 568.474 228.78 567.589 228.78C566.546 228.78 565.605 228.511 564.768 227.974C563.946 227.421 563.298 226.678 562.824 225.746C562.366 224.813 562.137 223.786 562.137 222.664C562.137 221.447 562.508 220.309 563.251 219.251C563.993 218.176 564.918 217.322 566.024 216.69C567.146 216.042 568.229 215.718 569.272 215.718C570.773 215.718 571.935 216.311 572.756 217.496C573.594 218.682 574.013 220.246 574.013 222.19H565.242C565.337 223.533 565.7 224.632 566.332 225.485C566.98 226.338 567.857 226.765 568.964 226.765C569.991 226.765 571.453 225.967 573.349 224.371L574.06 225.272L569.864 228.59ZM567.897 217.71C566.19 217.71 565.297 218.879 565.218 221.218H570.765C570.623 220.365 570.473 219.717 570.315 219.274C570.173 218.816 569.912 218.445 569.533 218.16C569.169 217.86 568.624 217.71 567.897 217.71ZM591.331 228.543H586.827V226.836L584.623 228.59C584.117 228.717 583.509 228.78 582.798 228.78C581.754 228.78 580.814 228.511 579.977 227.974C579.155 227.421 578.507 226.678 578.033 225.746C577.574 224.813 577.345 223.786 577.345 222.664C577.345 221.447 577.717 220.309 578.459 219.251C579.202 218.176 580.127 217.322 581.233 216.69C582.355 216.042 583.438 215.718 584.481 215.718C585.35 215.718 586.14 215.963 586.851 216.453V211.57L584.741 210.1V209.365L588.795 207.848H589.696V226.765L591.806 227.595L591.331 228.543ZM584.006 226.765C584.481 226.765 584.931 226.702 585.358 226.575C585.8 226.433 586.29 226.172 586.827 225.793V220.388C586.733 219.598 586.361 218.958 585.713 218.468C585.081 217.963 584.212 217.71 583.106 217.71C581.32 217.71 580.427 218.982 580.427 221.526C580.427 223.012 580.735 224.26 581.351 225.272C581.968 226.267 582.853 226.765 584.006 226.765ZM600.341 228.543H593.727V227.808L595.837 226.149V219.227L593.727 217.757V217.022L597.781 215.505H598.682V226.765L600.815 227.595L600.341 228.543ZM597.165 208.393C597.639 208.393 598.026 208.567 598.326 208.915C598.642 209.263 598.8 209.697 598.8 210.219C598.8 210.582 598.69 210.93 598.469 211.262C598.247 211.578 597.971 211.831 597.639 212.02C597.307 212.21 596.983 212.305 596.667 212.305C596.193 212.305 595.798 212.131 595.482 211.783C595.181 211.436 595.031 211.001 595.031 210.48C595.031 210.116 595.142 209.776 595.363 209.46C595.584 209.128 595.861 208.868 596.193 208.678C596.525 208.488 596.849 208.393 597.165 208.393ZM616.903 228.543H612.399V226.078L609.389 228.59C609.057 228.717 608.622 228.78 608.085 228.78C607.01 228.78 606.157 228.456 605.525 227.808C604.893 227.144 604.577 226.251 604.577 225.129V219.464L602.467 218.231V217.496L606.521 215.505H607.421V223.944C607.421 224.813 607.556 225.422 607.824 225.769C608.093 226.117 608.575 226.291 609.27 226.291C609.76 226.291 610.242 226.204 610.716 226.03C611.19 225.841 611.752 225.477 612.399 224.94V219.464L610.29 218.231V217.496L614.343 215.505H615.244V226.765L617.378 227.595L616.903 228.543ZM641.799 228.543H637.295V220.554C637.295 219.685 637.161 219.077 636.892 218.729C636.624 218.381 636.142 218.207 635.446 218.207C634.956 218.207 634.474 218.302 634 218.492C633.526 218.666 632.965 219.021 632.317 219.559V226.765L634.451 227.595L633.976 228.543H629.472V220.554C629.472 219.685 629.338 219.077 629.069 218.729C628.801 218.381 628.319 218.207 627.623 218.207C627.134 218.207 626.652 218.302 626.177 218.492C625.703 218.666 625.142 219.021 624.494 219.559V226.765L626.628 227.595L626.154 228.543H619.54V227.808L621.65 226.149V219.44L619.54 218.207V217.473L623.594 215.481L624.352 218.516L627.505 215.884C627.837 215.758 628.271 215.695 628.809 215.695C629.725 215.695 630.484 215.948 631.084 216.453C631.685 216.943 632.064 217.623 632.222 218.492L635.304 215.908C635.636 215.782 636.07 215.718 636.608 215.718C637.682 215.718 638.536 216.05 639.168 216.714C639.8 217.362 640.116 218.247 640.116 219.369V226.765L642.273 227.595L641.799 228.543Z" fill="black"/>
<path d="M508.317 255.119H494.094V254.384L496.322 252.63V238.265L493.857 237.435L494.331 236.487H508.08L509.36 236.06V241.512L508.649 241.749L505.828 237.554H499.286V245.068H503.007L504.738 242.034H505.473V249.24L504.524 249.714L503.031 246.135H499.286V254.052H505.733L508.886 249.382L509.597 249.62V255.546L508.317 255.119ZM525.775 255.119H522.243L518.521 250.141L515.89 252.606L518.095 254.195L517.62 255.143H512.429V254.408L517.857 249.24L514.42 244.784L512.334 243.48L512.808 242.532H516.34L520.015 247.439L522.551 245.068L520.347 243.48L520.821 242.532H526.012V243.267L520.678 248.339L524.139 252.843L526.249 254.171L525.775 255.119ZM535.261 255.38C534.408 255.38 533.617 255.119 532.891 254.598V259.196L536.209 260.216L535.735 261.164H527.936V260.429L530.046 258.77V246.04L527.936 244.807V244.072L531.99 242.081L532.772 245.163L536.162 242.484C536.668 242.358 537.244 242.295 537.892 242.295C538.746 242.295 539.512 242.571 540.192 243.124C540.887 243.662 541.424 244.396 541.804 245.329C542.199 246.261 542.396 247.289 542.396 248.411C542.396 249.627 542.025 250.773 541.282 251.848C540.539 252.907 539.607 253.76 538.485 254.408C537.379 255.04 536.304 255.356 535.261 255.356V255.38ZM536.683 244.57C536.083 244.57 535.498 244.689 534.929 244.926C534.36 245.163 533.681 245.629 532.891 246.324V250.331C532.891 251.2 533.215 251.927 533.862 252.512C534.51 253.096 535.435 253.389 536.636 253.389C538.422 253.389 539.315 252.116 539.315 249.572C539.315 248.166 539.086 246.98 538.627 246.016C538.169 245.052 537.521 244.57 536.683 244.57ZM553.451 255.167C552.819 255.293 552.061 255.356 551.176 255.356C550.133 255.356 549.192 255.088 548.355 254.55C547.533 253.997 546.885 253.254 546.411 252.322C545.953 251.39 545.723 250.362 545.723 249.24C545.723 248.023 546.095 246.886 546.838 245.827C547.58 244.752 548.505 243.899 549.611 243.267C550.733 242.619 551.816 242.295 552.859 242.295C554.36 242.295 555.522 242.887 556.343 244.072C557.181 245.258 557.6 246.822 557.6 248.766H548.829C548.924 250.109 549.287 251.208 549.919 252.061C550.567 252.915 551.444 253.341 552.551 253.341C553.578 253.341 555.04 252.543 556.936 250.947L557.647 251.848L553.451 255.167ZM551.484 244.286C549.777 244.286 548.884 245.455 548.805 247.794H554.352C554.21 246.941 554.06 246.293 553.902 245.85C553.759 245.392 553.499 245.021 553.119 244.736C552.756 244.436 552.211 244.286 551.484 244.286ZM569.158 242.318C569.679 242.318 570.138 242.461 570.533 242.745C570.928 243.029 571.236 243.425 571.457 243.93L569.893 245.898H568.992C568.929 245.503 568.81 245.226 568.636 245.068C568.478 244.894 568.257 244.807 567.973 244.807C567.625 244.807 567.254 244.902 566.859 245.092C566.479 245.266 566.045 245.605 565.555 246.111V253.175L568.873 254.195L568.399 255.143H560.6V254.408L562.71 252.749V246.04L560.6 244.807V244.072L564.654 242.081L565.389 244.997L567.854 242.484C568.186 242.358 568.621 242.295 569.158 242.295V242.318ZM579.507 255.119H572.893V254.384L575.003 252.725V245.803L572.893 244.333V243.598L576.946 242.081H577.847V253.341L579.981 254.171L579.507 255.119ZM576.33 234.97C576.804 234.97 577.191 235.144 577.492 235.491C577.808 235.839 577.966 236.273 577.966 236.795C577.966 237.158 577.855 237.506 577.634 237.838C577.413 238.154 577.136 238.407 576.804 238.597C576.472 238.786 576.148 238.881 575.832 238.881C575.358 238.881 574.963 238.707 574.647 238.36C574.347 238.012 574.197 237.577 574.197 237.056C574.197 236.692 574.307 236.352 574.528 236.036C574.75 235.705 575.026 235.444 575.358 235.254C575.69 235.064 576.014 234.97 576.33 234.97ZM590.19 255.167C589.558 255.293 588.799 255.356 587.914 255.356C586.871 255.356 585.931 255.088 585.093 254.55C584.271 253.997 583.623 253.254 583.149 252.322C582.691 251.39 582.462 250.362 582.462 249.24C582.462 248.023 582.833 246.886 583.576 245.827C584.319 244.752 585.243 243.899 586.35 243.267C587.472 242.619 588.554 242.295 589.597 242.295C591.099 242.295 592.26 242.887 593.082 244.072C593.919 245.258 594.338 246.822 594.338 248.766H585.567C585.662 250.109 586.026 251.208 586.658 252.061C587.306 252.915 588.183 253.341 589.289 253.341C590.316 253.341 591.778 252.543 593.675 250.947L594.386 251.848L590.19 255.167ZM588.222 244.286C586.516 244.286 585.623 245.455 585.544 247.794H591.091C590.948 246.941 590.798 246.293 590.64 245.85C590.498 245.392 590.237 245.021 589.858 244.736C589.494 244.436 588.949 244.286 588.222 244.286ZM612.012 255.143H607.508V247.154C607.508 246.285 607.374 245.677 607.105 245.329C606.837 244.981 606.355 244.807 605.659 244.807C605.138 244.807 604.616 244.902 604.095 245.092C603.589 245.281 602.989 245.645 602.293 246.182V253.365L604.427 254.195L603.953 255.143H597.339V254.408L599.449 252.749V246.04L597.339 244.807V244.072L601.392 242.081L602.175 245.163L605.541 242.484C605.873 242.358 606.307 242.295 606.845 242.295C607.919 242.295 608.773 242.626 609.405 243.29C610.037 243.938 610.353 244.823 610.353 245.945V253.341L612.487 254.195L612.012 255.143ZM621.394 242.295C622.042 242.295 622.792 242.389 623.646 242.579C624.515 242.753 625.139 242.95 625.518 243.172V246.822H624.618C624.001 246.032 623.29 245.416 622.484 244.973C621.694 244.515 620.872 244.286 620.019 244.286C619.292 244.286 618.739 244.61 618.359 245.258C617.996 245.906 617.814 246.854 617.814 248.102C617.814 249.588 618.138 250.836 618.786 251.848C619.434 252.843 620.359 253.341 621.56 253.341C622.46 253.341 623.741 252.693 625.4 251.397L626.111 252.298L622.46 255.167C621.828 255.293 621.07 255.356 620.185 255.356C619.142 255.356 618.201 255.088 617.364 254.55C616.542 253.997 615.894 253.254 615.42 252.322C614.962 251.39 614.733 250.362 614.733 249.24C614.733 248.023 615.072 246.878 615.752 245.803C616.447 244.728 617.316 243.875 618.359 243.243C619.403 242.611 620.414 242.295 621.394 242.295ZM636.998 255.167C636.366 255.293 635.608 255.356 634.723 255.356C633.68 255.356 632.739 255.088 631.902 254.55C631.08 253.997 630.432 253.254 629.958 252.322C629.5 251.39 629.271 250.362 629.271 249.24C629.271 248.023 629.642 246.886 630.385 245.827C631.127 244.752 632.052 243.899 633.158 243.267C634.28 242.619 635.363 242.295 636.406 242.295C637.907 242.295 639.069 242.887 639.891 244.072C640.728 245.258 641.147 246.822 641.147 248.766H632.376C632.471 250.109 632.834 251.208 633.466 252.061C634.114 252.915 634.991 253.341 636.098 253.341C637.125 253.341 638.587 252.543 640.483 250.947L641.194 251.848L636.998 255.167ZM635.031 244.286C633.324 244.286 632.431 245.455 632.352 247.794H637.899C637.757 246.941 637.607 246.293 637.449 245.85C637.307 245.392 637.046 245.021 636.667 244.736C636.303 244.436 635.758 244.286 635.031 244.286Z" fill="black"/>
</g>
<path d="M78.3347 268.084V283.492H76.296L65.1782 270.81V280.695L68.5444 281.951L67.7858 283.492H60.9113V282.165L63.1396 280.292V267.847L60.5083 266.401L61.2906 264.86H65.4627L76.296 277.187V267.633L72.9299 266.401L73.7121 264.86H80.5867V266.187L78.3347 268.084ZM90.1971 270.478C91.8565 270.478 93.1366 271.11 94.0374 272.374C94.954 273.639 95.3965 275.393 95.3649 277.637H86.831C86.989 278.601 87.3288 279.375 87.8503 279.96C88.3718 280.529 89.0514 280.813 89.8889 280.813C90.9952 280.813 92.5834 280.26 94.6537 279.154L95.3649 280.505L91.7617 283.374C90.8292 283.611 89.7467 283.729 88.514 283.729C87.3604 283.729 86.3173 283.461 85.3849 282.923C84.4683 282.37 83.7493 281.619 83.2278 280.671C82.722 279.723 82.4692 278.672 82.4692 277.518C82.4692 276.27 82.8722 275.108 83.6782 274.034C84.4841 272.943 85.4877 272.082 86.6887 271.45C87.9056 270.802 89.0751 270.478 90.1971 270.478ZM88.8933 273.228C88.198 273.228 87.6764 273.465 87.3288 273.939C86.9811 274.397 86.7914 275.108 86.7598 276.072H91.2875C91.1611 275.093 90.9241 274.374 90.5764 273.915C90.2445 273.457 89.6756 273.228 88.8696 273.228H88.8933ZM118.789 272.043L113.265 283.492H110.279L108.193 278.396L105.49 283.492H102.503L98.9712 274.911L96.6718 273.583V272.256L101.911 270.265L102.811 273.844L105.395 280.126L107.315 276.286L106.77 274.935L104.447 273.583V272.256L109.686 270.265L110.587 273.844L113.147 280.008L115.612 274.626L112.08 272.256L112.862 270.715H118.789V272.043Z" fill="black"/>
<path d="M71.9342 290.964C72.8508 290.964 73.9176 291.082 75.1344 291.319C76.3671 291.557 77.2679 291.809 77.8368 292.078V297.127H75.5848C74.368 294.836 72.6928 293.69 70.5593 293.69C69.6901 293.69 68.8921 293.967 68.1651 294.52C67.4381 295.073 66.8613 295.831 66.4346 296.795C66.0237 297.759 65.8183 298.842 65.8183 300.043C65.8183 301.402 66.0237 302.651 66.4346 303.788C66.8613 304.91 67.5014 305.811 68.3547 306.491C69.2081 307.155 70.267 307.486 71.5312 307.486C72.9694 307.486 75.0159 306.696 77.6709 305.116L78.6191 306.633L74.2574 310.023C73.562 310.228 72.8904 310.363 72.2424 310.426C71.6103 310.505 70.9307 310.544 70.2038 310.544C68.4338 310.544 66.8613 310.141 65.4864 309.335C64.1115 308.529 63.0448 307.423 62.2862 306.017C61.5276 304.594 61.1483 302.982 61.1483 301.181C61.1483 299.332 61.7173 297.625 62.8551 296.061C63.993 294.48 65.4074 293.24 67.0984 292.339C68.7893 291.422 70.4013 290.964 71.9342 290.964ZM88.7155 297.056C89.885 297.056 90.928 297.333 91.8446 297.886C92.7612 298.423 93.4724 299.166 93.9781 300.114C94.4996 301.062 94.7604 302.113 94.7604 303.267C94.7604 304.515 94.3574 305.685 93.5514 306.775C92.7454 307.85 91.734 308.711 90.5171 309.359C89.3161 309.991 88.1545 310.307 87.0325 310.307C85.8788 310.307 84.8358 310.039 83.9034 309.501C82.9868 308.948 82.2677 308.198 81.7462 307.249C81.2405 306.301 80.9876 305.25 80.9876 304.097C80.9876 302.848 81.3906 301.687 82.1966 300.612C83.0026 299.521 84.0061 298.66 85.2071 298.028C86.424 297.38 87.5935 297.056 88.7155 297.056ZM87.3406 299.806C86.6769 299.806 86.1712 300.075 85.8235 300.612C85.4916 301.133 85.3257 301.916 85.3257 302.959C85.3257 304.286 85.5943 305.392 86.1317 306.277C86.669 307.147 87.4275 307.581 88.4074 307.581C89.0553 307.581 89.5452 307.313 89.8771 306.775C90.2248 306.222 90.3986 305.424 90.3986 304.381C90.3986 303.054 90.1299 301.963 89.5926 301.11C89.0553 300.241 88.3046 299.806 87.3406 299.806ZM112.688 310.07H107.307V302.485C107.307 301.742 107.189 301.22 106.952 300.92C106.73 300.604 106.335 300.446 105.766 300.446C104.929 300.446 104.099 300.715 103.277 301.252V307.818L105.411 308.529L104.629 310.07H97.1377V308.743L99.2475 306.965V301.584L97.1377 300.256V298.929L102.068 296.843L102.993 299.593L105.932 297.246C106.359 297.119 106.841 297.056 107.378 297.056C108.579 297.056 109.536 297.388 110.247 298.052C110.974 298.7 111.337 299.585 111.337 300.707V307.818L113.471 308.529L112.688 310.07ZM122.766 310.118C122.229 310.244 121.589 310.307 120.846 310.307C119.329 310.307 118.215 309.968 117.504 309.288C116.809 308.593 116.461 307.526 116.461 306.088V299.569H113.901V298.313L118.997 292.765H120.491V298.004H124.758V299.569H120.491V305.922C120.491 307.012 121.107 307.558 122.34 307.558C122.656 307.558 122.964 307.51 123.264 307.415C123.58 307.305 123.975 307.123 124.45 306.87L125.161 308.221L122.766 310.118ZM134.315 300.422C133.746 300.422 133.177 300.675 132.608 301.181V307.581L136.211 308.529L135.453 310.07H126.468V308.743L128.578 306.965V301.584L126.468 300.256V298.929L131.399 296.843L132.3 299.474L134.457 297.246C134.789 297.119 135.176 297.056 135.619 297.056C136.44 297.056 137.144 297.246 137.728 297.625C138.329 298.004 138.748 298.526 138.985 299.19L136.709 302.034H135.216C135.2 301.465 135.121 301.062 134.979 300.825C134.836 300.572 134.615 300.446 134.315 300.446V300.422ZM147.456 310.07H139.965V308.743L142.074 306.965V301.465L139.965 300.067V298.739L144.611 296.843H146.104V307.818L148.238 308.529L147.456 310.07ZM144.066 289.707C144.745 289.707 145.298 289.929 145.725 290.371C146.168 290.798 146.389 291.335 146.389 291.983C146.389 292.441 146.231 292.868 145.915 293.263C145.599 293.658 145.204 293.974 144.729 294.211C144.255 294.449 143.797 294.567 143.354 294.567C142.691 294.567 142.138 294.354 141.695 293.927C141.268 293.485 141.055 292.939 141.055 292.291C141.055 291.833 141.213 291.406 141.529 291.011C141.845 290.616 142.232 290.3 142.691 290.063C143.165 289.826 143.623 289.707 144.066 289.707ZM159.479 297.056C160.443 297.056 161.312 297.333 162.086 297.886C162.877 298.423 163.485 299.166 163.912 300.114C164.354 301.062 164.576 302.113 164.576 303.267C164.576 304.515 164.173 305.685 163.367 306.775C162.561 307.85 161.549 308.711 160.332 309.359C159.131 309.991 157.97 310.307 156.848 310.307C156.215 310.307 155.623 310.189 155.07 309.952C154.532 309.699 154.05 309.351 153.624 308.909L152.533 310.07H151.04V293.998L148.93 292.6V291.272L153.576 289.376H155.07V299.356L157.701 297.246C158.207 297.119 158.799 297.056 159.479 297.056ZM158.199 307.581C158.878 307.581 159.392 307.313 159.74 306.775C160.103 306.238 160.285 305.448 160.285 304.405C160.285 303.156 160.087 302.129 159.692 301.323C159.297 300.517 158.728 300.114 157.985 300.114C157.464 300.114 156.966 300.177 156.492 300.304C156.034 300.43 155.56 300.659 155.07 300.991V304.974C155.07 305.716 155.338 306.341 155.876 306.846C156.429 307.336 157.211 307.581 158.223 307.581H158.199ZM181.635 310.07H176.23V308.032L173.67 310.141C173.243 310.268 172.761 310.331 172.224 310.331C171.007 310.331 170.043 310.007 169.332 309.359C168.621 308.695 168.265 307.803 168.265 306.68V301.584L166.156 300.375V299.047L170.802 296.985H172.295V304.903C172.295 305.661 172.406 306.191 172.627 306.491C172.848 306.791 173.243 306.941 173.812 306.941C174.634 306.941 175.44 306.673 176.23 306.135V301.584L174.121 300.375V299.047L178.767 296.985H180.26V307.818L182.394 308.529L181.635 310.07ZM191.776 310.118C191.238 310.244 190.598 310.307 189.856 310.307C188.338 310.307 187.224 309.968 186.513 309.288C185.818 308.593 185.47 307.526 185.47 306.088V299.569H182.91V298.313L188.007 292.765H189.5V298.004H193.767V299.569H189.5V305.922C189.5 307.012 190.116 307.558 191.349 307.558C191.665 307.558 191.973 307.51 192.273 307.415C192.59 307.305 192.985 307.123 193.459 306.87L194.17 308.221L191.776 310.118ZM203.168 297.056C204.337 297.056 205.38 297.333 206.297 297.886C207.213 298.423 207.924 299.166 208.43 300.114C208.952 301.062 209.212 302.113 209.212 303.267C209.212 304.515 208.809 305.685 208.003 306.775C207.197 307.85 206.186 308.711 204.969 309.359C203.768 309.991 202.606 310.307 201.484 310.307C200.331 310.307 199.288 310.039 198.355 309.501C197.439 308.948 196.72 308.198 196.198 307.249C195.692 306.301 195.44 305.25 195.44 304.097C195.44 302.848 195.843 301.687 196.649 300.612C197.455 299.521 198.458 298.66 199.659 298.028C200.876 297.38 202.045 297.056 203.168 297.056ZM201.793 299.806C201.129 299.806 200.623 300.075 200.275 300.612C199.944 301.133 199.778 301.916 199.778 302.959C199.778 304.286 200.046 305.392 200.584 306.277C201.121 307.147 201.88 307.581 202.859 307.581C203.507 307.581 203.997 307.313 204.329 306.775C204.677 306.222 204.851 305.424 204.851 304.381C204.851 303.054 204.582 301.963 204.045 301.11C203.507 300.241 202.757 299.806 201.793 299.806ZM219.436 300.422C218.867 300.422 218.298 300.675 217.729 301.181V307.581L221.333 308.529L220.574 310.07H211.59V308.743L213.699 306.965V301.584L211.59 300.256V298.929L216.52 296.843L217.421 299.474L219.578 297.246C219.91 297.119 220.297 297.056 220.74 297.056C221.562 297.056 222.265 297.246 222.85 297.625C223.45 298.004 223.869 298.526 224.106 299.19L221.83 302.034H220.337C220.321 301.465 220.242 301.062 220.1 300.825C219.958 300.572 219.736 300.446 219.436 300.446V300.422Z" fill="black"/>
<path d="M124.348 211.185C123.227 212.48 122.319 213.13 120.697 214.289C120.697 214.289 122.746 214.259 124.166 214.106C125.714 213.94 126.68 213.803 127.999 213.011C128.912 212.463 130.008 210.82 130.008 210.82C130.008 210.82 129.636 210.943 129.277 211.003C128.182 211.185 126.612 213.241 126.539 213.194C126.157 212.942 127.99 210.748 127.634 211.003C127.634 211.003 126.843 211.074 126.356 211.185C125.127 211.467 124.531 213.376 124.348 213.376C123.455 213.376 125.261 211.368 125.261 211.368C125.261 211.368 125.284 211.253 125.261 211.185C125.229 211.09 125.165 211.055 125.079 211.003C124.827 210.852 124.348 211.185 124.348 211.185Z" fill="#C4DEF8"/>
<path d="M115.039 225.789C113.373 223.688 112.533 218.859 112.666 218.852L114.674 217.756C115.461 218.055 117.96 215.931 117.96 215.931L119.786 214.835C119.786 214.835 121.008 214.892 121.793 214.836C124.349 214.653 126.136 214.769 128.365 213.375C129.826 212.463 131.651 209.542 135.85 208.264C139.223 207.237 140.232 208.811 140.232 208.811C140.232 208.811 136.789 209.878 134.938 211.184C130.316 214.446 129.278 216.661 125.81 218.852C122.976 220.641 119.785 222.137 118.142 223.05C116.499 223.963 115.039 225.789 115.039 225.789Z" fill="#C4DEF8"/>
<path d="M59.9963 123.149C58.1264 121.703 55.999 119.501 55.8161 117.008C55.4671 112.313 61.1598 100.67 63.5698 96.2984C67.0768 89.9159 69.7362 87.0738 76.0937 83.4587C76.6505 83.1429 80.5481 81.0403 80.7642 81.1899L83.3487 90.0738C84.0468 90.5226 86.166 88.0627 86.7061 87.5973C87.3959 86.9989 87.9029 86.4338 88.8669 86.7247C88.7173 86.3341 88.5843 85.877 88.1189 85.7773C87.3461 85.7025 85.3183 88.071 84.6119 88.6112C84.3543 88.8106 84.0884 89.06 83.7393 89.0184L81.4622 80.442C82.0938 79.0292 82.9747 77.5915 84.4789 77.0098L84.4125 78.6303C84.2213 78.514 83.7975 78.4225 83.7393 78.6968C83.5399 79.6691 88.9084 84.7801 89.806 85.8521C90.8198 87.0571 91.7007 88.3868 92.5816 89.6916C92.4819 90.5641 91.9501 91.3287 91.842 92.2096C91.5927 94.3537 92.216 96.6557 92.3656 98.8081C92.8975 106.587 92.5567 114.64 92.5235 122.426C92.5069 125.435 92.9141 128.917 92.6398 131.859C92.457 133.779 91.5179 136.887 90.986 138.84C90.8448 139.347 89.9805 142.588 89.7893 142.704C88.0109 142.829 86.2241 142.372 84.5953 141.674C80.0328 139.696 73.5091 132.598 68.4397 136.928L67.4259 137.934C68.5062 133.986 69.8442 130.097 70.2597 125.992C72.4288 126.391 74.3651 127.853 76.6505 127.596C77.0328 127.554 78.03 127.155 78.2627 127.222C78.4206 127.271 78.6118 127.712 78.8195 127.886C80.091 128.959 85.3432 129.083 86.8059 128.319C87.9777 127.704 88.0691 125.485 88.2851 124.271C88.925 120.723 89.3489 117.124 89.8392 113.551C90.5788 113.061 90.8863 112.271 90.6038 111.382C90.5456 111.199 90.263 111.199 90.1716 111C89.9888 110.567 90.1051 110.036 89.7893 109.495C89.0081 108.149 85.6175 108.241 84.213 108.191C83.0163 108.149 81.7947 108.066 80.573 108.191C80.0328 108.249 78.9691 108.349 78.5203 108.565C77.7807 108.93 77.7973 109.645 77.5231 110.268C77.0328 111.39 76.1186 112.412 77.9469 112.994L77.8804 114.806C76.0937 115.446 75.0715 116.867 73.8914 118.246L72.0465 117.714C72.3457 116.584 72.1046 115.487 70.9163 115.13C71.257 113.692 71.0908 112.005 71.365 110.592C71.8387 108.083 74.4815 104.933 75.4455 102.398C75.6366 101.9 75.8444 101.393 75.7862 100.853C75.7862 100.728 75.5452 100.769 75.4621 100.803C74.6393 101.118 70.3262 111.083 69.2375 112.387C66.9854 110.202 64.3344 110.019 61.6168 111.515C60.6528 112.047 59.2068 113.119 59.0572 114.282C59.373 114.573 60.7359 113.135 61.0933 112.878C63.1293 111.398 66.5948 110.567 68.4397 112.795C69.5118 114.083 68.0907 113.393 67.4923 113.343C64.8413 113.102 62.772 115.255 61.5171 117.349C61.0933 118.055 60.0046 120.365 60.0046 121.097V123.191L59.9963 123.149ZM75.9109 98.2596V95.5587C75.9109 94.8607 75.1961 92.7082 74.897 91.9852C74.282 90.506 73.1185 88.4284 71.4647 88.1292L71.1905 88.5364C73.3928 89.8162 74.3983 92.1348 74.9053 94.5365C75.0382 95.1598 75.3042 98.3843 75.5784 98.4508L75.9109 98.2513V98.2596Z" fill="#C4DEF8"/>
<path d="M99.5139 88.0717C98.8906 87.6063 97.8518 85.6367 96.9377 85.8445C96.5305 85.9359 94.7354 88.0301 94.4529 88.4706C94.3365 88.6451 94.1786 88.7282 94.2534 89.0108C95.0928 89.0274 96.7382 86.634 97.2701 86.742C98.0347 87.2406 99.0984 89.4263 99.9128 89.6341C100.619 89.8169 100.212 87.6229 100.154 87.2323C99.9793 86.1104 99.6801 84.8057 99.115 83.8167C99.0818 83.7253 99.2231 83.7253 99.3145 83.7503C99.7965 83.8998 101.126 84.6478 101.633 84.9386C109.503 89.4512 108.049 96.3157 110.708 103.92C110.982 104.709 112.902 108.914 112.462 109.38C110.816 108.889 108.905 108.715 107.342 109.587C107.085 109.737 105.83 110.709 106.121 110.992C106.96 110.942 107.6 110.277 108.456 110.02C109.669 109.654 110.716 109.712 111.921 110.045L109.894 110.917C106.112 112.962 104.326 118.687 106.794 122.319C105.738 122.253 103.619 120.931 103.353 119.892C103.046 118.721 103.436 115.895 103.578 114.574C104.184 108.831 105.655 103.18 106.121 97.421C106.22 96.2242 106.387 94.3876 106.254 93.2408C106.22 92.925 106.146 92.3267 105.714 92.3682C105.423 94.155 105.489 96.0165 105.306 97.8282C104.334 107.485 101.749 116.693 101.932 126.574C101.982 129.125 102.389 131.702 102.481 134.253C102.522 135.292 102.639 137.469 102.448 138.408C102.132 139.971 99.3062 141.475 97.9266 141.982C97.1787 142.256 96.3476 142.588 95.5498 142.555C94.9432 142.406 93.5221 133.372 93.439 132.225C92.6079 120.798 93.7548 108.84 93.0318 97.2797C92.8489 94.396 92.209 92.9749 93.1647 89.9914C93.6467 88.4789 94.9349 86.393 95.1592 84.9719C95.2756 84.2073 95.0429 83.6754 95.0512 82.9774C95.0595 82.2793 95.2756 81.3402 95.3338 80.6172C98.2009 81.656 99.0818 85.3375 99.5139 88.0384V88.0717ZM93.7465 94.7866C94.5276 95.3683 95.2174 93.8807 94.5193 93.54L94.054 93.4652C93.5221 93.5483 93.4639 94.4043 93.7465 94.7866ZM94.4861 104.152C93.9127 104.319 93.921 105.831 94.7271 105.756C95.3421 105.698 95.2756 104.568 94.9432 104.186C94.8019 104.094 94.644 104.103 94.4944 104.144L94.4861 104.152ZM95.1842 117.466C95.5498 116.793 95.5997 115.837 94.6191 115.879C94.1703 116.02 94.1952 117.042 94.3781 117.408L95.1842 117.466ZM95.1759 126.682L94.3697 126.74C93.7465 128.909 95.9155 128.718 95.1759 126.682Z" fill="#C4DEF8"/>
<path d="M78.3396 124.231C80.7911 124.231 83.1596 124.879 85.6195 124.505C85.9353 124.838 84.8217 125.32 84.5724 125.419C82.5862 126.184 80.4421 125.951 78.4144 126.275C77.7495 126.383 77.0099 126.716 76.3617 126.782C74.8076 126.949 70.5111 125.237 68.7576 124.705C67.7686 124.406 66.7631 124.14 65.7492 123.94L65.5414 123.741C65.1093 121.838 66.4473 119.511 67.885 118.297C69.6801 116.793 69.9543 117.682 71.6579 118.43C72.223 118.68 72.9294 118.779 73.3782 118.97C73.586 119.062 73.5029 119.419 73.9516 119.378C74.3339 119.336 75.9378 117.018 76.5196 116.536C78.672 114.749 82.1458 114.923 84.7137 115.63C85.0627 115.729 87.6888 116.477 86.7165 117.15C86.3841 117.375 81.4061 116.968 80.3175 117.092C79.9269 117.134 78.165 117.5 77.9407 117.682L77.8742 118.297C78.0819 118.638 80.492 118.638 81.0986 118.713C82.5779 118.904 85.5863 119.61 86.8079 120.425C87.0739 120.599 87.398 120.749 87.1985 121.131C86.7581 121.414 86.2096 121.43 85.7026 121.397C83.5336 121.264 80.8659 120.333 78.6886 120.982C77.9157 121.206 78.1401 121.489 78.8216 121.538C80.9823 121.696 84.0073 121.871 86.0766 122.378C87.2151 122.652 87.4063 123.25 86.1099 123.425L78.8299 123.566C78.4808 123.624 78.3063 123.882 78.3562 124.239L78.3396 124.231Z" fill="white"/>
<path d="M45.9688 198.576C44.6973 200.546 45.2625 204.726 47.847 205.258C48.2127 205.333 49.1102 205.216 49.185 205.532C48.9108 207.46 49.4011 209.696 49.8831 211.582C50.2238 212.928 50.6892 214.416 51.3873 215.613C51.5202 215.845 52.1269 216.527 52.0355 216.651C51.7529 216.635 51.0382 217.117 51.0881 217.391C51.138 217.665 51.3374 217.516 51.4538 217.499C52.1851 217.374 53.0909 216.884 53.8887 216.693C55.717 216.253 56.3652 216.186 58.0523 217.034C59.4484 217.74 60.8861 218.563 61.0607 220.291C58.3514 220.665 55.3846 220.857 52.692 220.233C47.5561 219.045 47.5728 215.82 45.3871 212.023C43.7832 209.238 40.8912 206.828 40.5587 203.363C40.4258 201.925 40.7665 201.693 41.7721 200.795C42.9355 199.765 44.4314 198.884 45.9522 198.576H45.9688Z" fill="#C4DEF8"/>
<path d="M118.537 113.169C118.238 114.109 118.03 114.898 119.077 115.413C122.044 115.28 125.044 115.097 127.903 116.003L128.119 115.671C127.994 115.073 124.845 114.848 124.637 113.751C124.579 113.444 124.67 113.161 124.986 113.07C125.925 112.787 128.044 113.759 129.017 113.843C129.274 113.868 129.44 113.884 129.607 113.643C129.166 113.186 128.584 112.895 127.986 112.704C126.972 112.372 123.839 112.355 124.205 110.834C124.313 110.385 127.961 110.693 128.576 110.759C129.424 110.859 130.246 111.358 131.086 111.009C131.136 110.768 131.011 110.743 130.861 110.626C129.715 109.746 125.21 109.953 124.811 109.122C124.354 108.158 125.418 107.967 126.158 107.901C127.379 107.793 130.271 107.793 131.269 108.466C131.967 108.931 132.673 110.585 132.158 111.333C131.884 111.723 131.377 111.233 131.244 111.782C131.177 112.064 131.402 112.546 131.368 112.962C131.302 113.751 130.512 114.3 129.74 114.241C129.848 114.948 129.947 115.006 129.523 115.579C128.584 116.843 126.191 117.491 124.678 117.483C124.196 117.483 123.075 117.117 122.684 117.233C122.501 117.283 122.26 117.632 122.002 117.782C119.642 119.103 116.185 120.74 113.576 121.364C112.354 121.654 111.664 122.153 111.191 120.724C110.019 117.233 112.869 113.169 116.584 113.169H118.537Z" fill="white"/>
<path d="M61.0779 220.972C61.3604 222.85 59.7399 223.083 58.3105 223.266C54.7951 223.706 50.2992 223.208 47.5235 220.831C45.2797 218.911 44.6314 215.811 43.0857 213.393C42.2962 212.163 41.1244 211.074 40.2518 209.886C38.6978 207.783 36.9526 204.958 39.7615 203.021C40.0524 207.16 43.3184 209.77 45.1301 213.102C46.0691 214.814 46.5512 216.825 47.8559 218.329C50.8726 221.811 56.906 221.762 61.0695 220.964L61.0779 220.972Z" fill="white"/>
<path d="M71.1894 117.349C69.7849 116.344 69.1118 116.269 67.7572 117.349C65.5299 119.128 64.0507 121.953 64.8651 124.829C65.0313 125.402 65.3887 126.216 66.0701 126.25L65.7294 124.637L68.6297 125.51C68.8791 125.676 68.156 126.291 68.0231 126.391C66.0286 127.837 63.0119 126.782 61.624 124.97C59.2472 121.87 62.3803 116.078 65.4385 114.49C67.5826 113.377 68.6713 114.715 70.2918 115.754C71.0065 116.219 71.6465 116.028 71.1977 117.341L71.1894 117.349Z" fill="#C4DEF8"/>
<path d="M116.244 112.495C112.404 112.312 109.944 116.202 110.169 119.717C110.269 121.196 111.016 122.875 112.67 123.016C113.044 123.05 113.709 123.133 113.684 122.617L112.878 122.21C114.05 122.268 115.238 121.57 116.319 121.396C116.684 121.338 116.344 121.845 116.252 122.011C114.931 124.396 111.523 125.003 109.246 123.615C103.113 119.867 108.124 108.864 114.839 111.415C115.33 111.606 116.161 111.897 116.252 112.495H116.244Z" fill="#C4DEF8"/>
<path d="M53.9212 207.477H51.827C51.586 207.477 50.9877 207.867 50.6802 207.884C50.2065 208.549 52.5916 208.175 52.7578 208.175C54.1955 208.175 54.4697 208.374 54.3201 209.903C53.8631 209.87 51.345 209.978 51.4863 210.643C51.5943 211.166 53.8298 210.36 54.4531 210.917C54.5695 211.017 54.8437 212.421 54.8603 212.671C54.8853 213.045 54.5861 212.696 54.2537 212.72C53.4808 212.779 52.4171 212.878 51.8935 213.477C51.8852 213.967 54.7274 213.327 55.1096 213.568L56.0737 215.372L55.8825 215.571C55.1429 215.504 53.0736 216.427 52.5666 216.178C51.5361 215.671 50.4475 210.842 50.2065 209.629C49.7909 207.535 48.8851 204.684 51.8436 204.385C54.8022 204.086 54.129 205.158 53.9212 207.468V207.477Z" fill="#C4DEF8"/>
<path d="M53.5236 202.49L53.0249 203.57C52.3102 203.521 51.6454 203.587 50.9556 203.77C49.601 204.111 49.1024 205.158 47.5816 204.318C45.4042 203.113 45.7948 198.917 47.7727 197.637C49.2603 199.714 51.0553 201.601 53.5236 202.49Z" fill="white"/>
<path d="M93.4224 61.7946C96.3892 61.5619 96.9543 65.7005 94.9349 67.3626C91.8517 69.8973 88.9431 64.4207 91.3614 62.5674C91.86 62.1852 92.8074 61.8361 93.4224 61.7946ZM92.9404 65.9166C93.1149 66.0911 93.6551 66.1243 93.8878 66.0579C95.0679 65.7088 94.5692 62.5425 93.0401 63.3154C92.475 63.5979 92.5415 65.526 92.9404 65.9166Z" fill="white"/>
<path d="M89.1268 113.576L87.9799 120.457C87.4896 119.609 86.0436 119.202 85.1128 118.87C83.9411 118.454 82.7028 118.014 81.4396 118.022C81.4064 117.789 81.7471 117.897 81.9133 117.889C83.1682 117.839 86.7417 118.438 87.4398 117.482C88.4786 116.061 86.027 115.18 85.0547 114.881C83.0269 114.266 80.916 114.241 78.8301 114.523C78.4478 114.324 78.6556 112.895 78.8135 112.895C82.1377 114.033 85.6779 113.734 89.1268 113.576Z" fill="white"/>
<path d="M119.722 114.632C119.589 114.707 119.365 114.632 119.207 114.657L119.415 113.452C121.351 109.372 122.731 104.685 124.717 100.671C124.941 100.205 125.157 99.69 125.656 99.449C128.241 99.1498 130.908 99.2745 133.518 99.341C133.767 99.5155 133.717 100.247 133.31 100.23H126.421L125.947 100.43L119.731 114.649L119.722 114.632Z" fill="white"/>
<path d="M89.265 110.742C89.2982 111.049 89.1985 111.44 89.2899 111.731C89.3896 112.038 90.0545 112.096 89.7968 112.487C89.722 112.603 87.6361 112.869 87.3037 112.894C85.143 113.093 82.6332 112.985 80.4891 112.562C79.8492 112.429 79.093 112.071 78.5029 111.98C78.2453 111.938 77.8131 112.254 77.6552 111.88C77.4641 111.415 77.9794 111.614 78.1289 111.415C78.2785 111.215 78.2453 110.285 78.6608 110.235C78.8021 110.218 80.8963 110.983 81.4199 111.074C84.0128 111.523 86.697 111.315 89.2484 110.733L89.265 110.742Z" fill="white"/>
<path d="M101.94 61.2285L102.489 66.5472C101.691 67.5943 100.586 66.7965 99.9458 65.9904C98.1507 63.7383 98.7906 61.1454 101.94 61.2285ZM100.818 62.7327C99.9707 62.8075 99.9624 64.5028 100.594 64.7937C101.882 65.3754 101.974 62.633 100.818 62.7327Z" fill="white"/>
<path d="M82.0437 126.799C82.5839 126.749 83.5063 126.524 84.0548 126.383C84.7031 126.217 86.0078 125.901 86.2322 125.186C86.5147 124.256 85.9247 124.156 87.4372 123.965C87.3125 124.663 87.1463 126.998 86.6976 127.405C85.7169 128.295 80.2902 128.195 79.3428 127.214C79.2181 127.081 79.1018 127.015 79.1433 126.807C80.0824 126.749 81.1129 126.89 82.0437 126.807V126.799Z" fill="white"/>
<path d="M88.8596 110.062C85.8097 110.793 81.9869 110.843 79.0117 109.721C78.3801 109.48 78.9785 109.223 79.3774 109.156C81.1309 108.832 86.7405 108.799 88.3112 109.464C88.5605 109.572 88.8846 109.746 88.8513 110.07L88.8596 110.062Z" fill="white"/>
<path d="M71.4556 141.905C70.5498 141.631 67.7408 140.094 67.6826 139.13C67.6245 138.166 70.1425 136.661 70.9902 136.379C71.0484 137.035 70.8905 137.667 70.9237 138.332C70.9487 138.864 71.5719 141.764 71.4639 141.905H71.4556Z" fill="white"/>
<path d="M103.153 66.3481L102.613 61.3535C104.591 61.9934 104.683 65.168 103.153 66.3481Z" fill="white"/>
<path d="M121.095 107.368C120.82 107.974 120.604 108.623 120.322 109.229C120.23 109.42 120.405 109.595 120.014 109.52C119.898 108.672 120.197 107.642 121.095 107.359V107.368Z" fill="white"/>
<path d="M75.9118 98.2608L75.5793 98.4603C75.2968 98.3938 75.0392 95.1693 74.9062 94.546C74.3992 92.136 73.3937 89.8174 71.1914 88.5459L71.4657 88.1387C73.1277 88.4378 74.2912 90.5155 74.8979 91.9947C75.1971 92.7177 75.9118 94.8702 75.9118 95.5682V98.2691V98.2608Z" fill="black"/>
<path d="M95.1835 117.466L94.3774 117.407C94.1946 117.05 94.1696 116.028 94.6184 115.878C95.599 115.837 95.5492 116.792 95.1835 117.466Z" fill="black"/>
<path d="M95.1741 126.682C95.9137 128.718 93.7447 128.909 94.368 126.74L95.1741 126.682Z" fill="black"/>
<path d="M94.4836 104.152C94.6415 104.11 94.7994 104.094 94.9324 104.193C95.2648 104.567 95.3313 105.706 94.7163 105.764C93.9102 105.839 93.9019 104.318 94.4753 104.16L94.4836 104.152Z" fill="black"/>
<path d="M93.7454 94.7862C93.4628 94.4039 93.521 93.5479 94.0529 93.4648L94.5183 93.5397C95.208 93.8887 94.5182 95.368 93.7454 94.7862Z" fill="black"/>
<path d="M72.6708 170.918C72.7207 171.741 71.5738 172.181 70.9173 172.464C69.7954 172.937 68.4824 173.345 67.2773 173.079L67.4519 172.78L72.6791 170.926L72.6708 170.918Z" fill="black"/>
<path d="M99.5117 71.6157C99.977 72.0229 97.7 72.6379 97.5255 72.6628C96.6113 72.7792 95.2899 72.5382 94.434 72.1808C93.952 71.9814 93.4533 71.8318 93.578 71.2168C94.5004 71.2833 95.2899 71.7653 96.2124 71.8899C97.3842 72.0395 98.3731 71.7736 99.5117 71.624V71.6157Z" fill="black"/>
<path d="M84.5438 70.2613C83.8042 70.1865 82.8984 69.8042 83.131 68.9233L81.3027 67.0285C82.5078 66.854 83.0562 67.2779 83.6463 68.2585C83.7793 68.4829 84.6186 70.1865 84.5355 70.2696L84.5438 70.2613Z" fill="black"/>
<path d="M94.9256 60.1397C93.7455 60.0483 92.4324 59.7989 91.3272 60.3807C90.8618 60.63 90.6956 61.2201 90.0723 61.0788C90.3299 59.0676 94.1693 57.954 94.9256 60.1314V60.1397Z" fill="black"/>
<path d="M92.9394 65.9156C92.5489 65.525 92.4741 63.597 93.0392 63.3144C94.5766 62.5416 95.0669 65.7079 93.8868 66.0569C93.6458 66.1234 93.114 66.0901 92.9394 65.9156Z" fill="black"/>
<path d="M100.819 62.7316C101.983 62.6236 101.883 65.3743 100.595 64.7926C99.9548 64.5017 99.9632 62.8064 100.819 62.7316Z" fill="black"/>
<path d="M140.028 207.634C136.828 205.905 134.111 208.324 131.418 209.504C129.59 210.302 127.121 210.676 124.994 210.551C125.858 209.471 126.457 208.34 126.856 207.069C126.49 206.321 126 205.415 125.426 204.426C124.404 201.758 113.675 176.653 110.243 167.843C107.376 160.472 101.118 154.937 97.9018 147.724C98.683 145.347 98.4171 145.089 98.5916 142.596C100.287 142.039 102.88 140.444 103.262 138.566C103.503 137.369 103.354 135.283 103.295 134.003C103.196 131.535 102.888 129.058 102.747 126.59L102.888 120.848C103.653 121.787 104.841 122.693 106.013 123.05C106.487 123.191 107.243 123.191 107.6 123.349C107.999 123.532 108.78 124.454 109.536 124.787C112.237 125.992 115.57 124.953 117.024 122.377C117.282 121.911 117.448 121.172 117.739 120.798C118.096 120.341 120.922 119.327 121.686 118.945C122.035 118.77 122.866 118.089 123.083 118.047C123.299 118.006 123.589 118.163 123.855 118.163C126.116 118.163 128.725 118.014 130.188 115.986C130.446 115.637 130.545 115.172 130.745 114.922C131.202 114.349 131.917 114.216 132.124 113.202C132.183 112.911 132.091 112.413 132.183 112.246C132.207 112.205 132.548 112.064 132.698 111.889C133.363 111.083 132.955 110.426 133.105 109.595C133.18 109.196 133.803 108.407 133.969 107.9C134.534 106.163 133.87 105.249 132.291 104.601C132.814 103.662 133.304 102.689 133.703 101.692C134.077 100.761 135.116 98.7834 133.437 98.5923C131.642 98.3845 128.759 98.3347 126.955 98.451C124.952 98.584 124.786 98.7003 123.947 100.429C123.083 102.216 122.451 104.243 121.62 106.063C120.872 106.62 120.016 106.87 119.534 107.759C118.902 108.922 119.434 109.604 119.592 110.775C118.703 111.216 118.636 112.787 117.448 112.429C116.974 112.288 116.866 111.781 116.575 111.54C115.62 110.734 114.498 110.426 113.334 110.061C113.226 107.027 111.639 104.302 110.783 101.418C108.556 93.9467 109.786 88.6862 102.04 84.2567C101.143 83.7498 99.3395 83.1431 98.6664 82.6694C98.5667 82.603 98.1013 81.7553 97.8935 81.5143C97.2869 80.8079 96.5472 80.301 95.7245 79.8688L96.14 78.5391C102.016 78.4228 103.295 71.9489 103.287 67.2369C105.622 65.6995 105.456 61.403 102.614 60.6052L102.506 60.4473C102.522 59.5996 102.082 58.5608 102.074 57.763C102.065 56.8987 102.365 55.8017 102.215 54.8709L104.309 56.4915C104.691 56.6494 104.45 55.7103 104.417 55.569C103.935 53.8155 102.306 52.7517 100.736 52.1035C101.558 51.7794 103.844 49.6353 103.553 48.7461C103.32 48.0314 102.132 49.0037 101.808 49.1284C101.401 49.2863 100.362 49.6852 99.9878 49.735C98.8243 49.8929 97.345 49.6187 96.14 49.735C96.6469 49.2281 98.2675 47.9067 98.3007 47.2419C98.309 47.0258 98.3174 47.0092 98.093 47.0341C96.7134 47.6574 95.417 48.4303 93.9294 48.8043C89.6329 49.9013 82.8017 48.6048 81.4139 54.2975C80.0925 54.2975 79.1617 55.1036 78.4886 56.159C76.5772 59.1841 77.5578 62.9238 79.7933 65.4668C78.1478 68.766 80.6327 73.0459 84.3973 72.9379C84.6134 74.118 84.8378 75.2316 84.5303 76.4283C83.4748 76.3618 82.7435 77.118 82.1202 77.8577C81.605 78.4726 80.9485 79.902 80.4914 80.276C79.7102 80.9242 77.4165 81.7636 76.3611 82.3453C68.3664 86.7665 65.3331 90.6392 61.3191 98.7336C59.4908 102.423 57.4298 106.953 56.1833 110.867C54.3882 116.501 54.33 118.87 58.6432 123.05C59.6238 124.006 59.923 124.288 60.8039 125.344C63.0394 128.011 66.6877 128.809 69.4385 126.358C69.0562 128.502 68.6407 130.646 68.0839 132.757C67.6268 134.46 66.3054 137.444 66.6378 139.081C66.9952 140.834 70.2612 142.297 71.7986 142.821C72.638 145.305 72.9954 145.679 74.2669 147.94C72.1975 153.45 69.6379 159.683 67.5187 165.184C67.1282 166.19 66.7708 170.112 65.8899 170.594C64.4189 171.4 64.0782 171.201 62.7569 172.589C56.5656 179.112 51.0142 186.667 44.8312 193.249C44.4406 193.656 44.3824 193.639 44.5154 194.08L45.5625 197.695C45.5126 197.72 45.4545 197.745 45.388 197.769C42.5707 198.908 40.5513 200.537 38.6066 202.864C35.0664 207.094 40.6178 210.833 42.6455 214.208C43.8755 216.252 44.4821 218.629 46.0944 220.474C49.0363 223.839 53.9561 224.363 58.1695 224.047C60.8371 223.848 62.2582 222.992 61.8676 220.083C61.4438 216.867 57.9949 216.975 56.7733 215.188C55.9423 213.967 55.4104 211.881 55.078 209.978C55.078 209.978 56.1251 210.327 56.4409 210.26C63.081 208.797 71.4828 194.877 74.8652 190.115C77.4498 186.484 79.4941 184.223 81.0648 180.849C83.076 176.545 84.256 171.026 86.3336 166.946C86.4084 166.805 86.2672 166.688 86.6162 166.755C88.2118 169.73 90.1232 171.999 91.4363 175.107C93.0818 179.029 94.4031 183.318 96.0735 187.34C98.9656 194.312 102.04 201.243 105.182 208.116C106.628 211.889 108.082 215.446 109.495 218.463C109.694 218.886 109.935 219.427 110.16 219.817C110.226 219.925 110.118 220.041 110.392 219.992C110.916 219.734 111.406 219.485 111.897 219.235C112.254 221.911 114.107 226.574 115.512 228.211C116.351 229.191 117.124 228.975 118.296 228.726C122.044 227.903 129.881 222.385 133.363 220.05C136.205 218.147 146.385 211.033 140.028 207.601V207.634ZM103.154 66.3477L102.614 61.3531C104.592 61.993 104.683 65.1676 103.154 66.3477ZM124.803 211.116C125.002 211.116 125.202 211.033 125.144 211.324C124.711 211.739 124.238 212.346 124.038 212.919C123.789 213.601 123.972 213.842 124.529 213.277C125.376 212.412 125.9 211.083 127.437 211.133C127.321 211.689 126.631 211.964 126.432 212.487C126.382 212.612 126.207 213.302 126.556 213.152C127.537 212.188 128.551 211.025 129.997 210.858C129.257 211.864 128.385 212.894 127.213 213.401C125.659 214.075 122.742 214.324 120.781 214.266C122.326 213.21 123.548 212.205 124.487 211.166C124.595 211.149 124.703 211.124 124.803 211.124V211.116ZM133.238 107.709C133.18 107.908 132.764 109.014 132.498 108.706C130.977 106.961 130.429 107.418 128.543 106.728C127.238 106.255 127.412 105.432 128.75 105.241C130.562 104.983 133.994 105.05 133.238 107.709ZM121.096 107.368C120.822 107.975 120.606 108.623 120.323 109.23C120.232 109.421 120.407 109.595 120.016 109.521C119.9 108.673 120.199 107.642 121.096 107.36V107.368ZM119.418 113.443C121.354 109.363 122.734 104.676 124.72 100.662C124.944 100.196 125.16 99.681 125.659 99.44C128.243 99.1408 130.911 99.2655 133.52 99.3319C133.77 99.5065 133.72 100.238 133.313 100.221H126.423L125.95 100.421L119.733 114.64C119.6 114.715 119.376 114.64 119.218 114.665L119.426 113.46L119.418 113.443ZM116.575 113.169H118.528C118.229 114.108 118.021 114.897 119.069 115.413C122.035 115.28 125.036 115.097 127.894 116.003L128.11 115.67C127.986 115.072 124.836 114.848 124.628 113.751C124.57 113.443 124.662 113.161 124.977 113.069C125.916 112.787 128.036 113.759 129.008 113.842C129.266 113.867 129.432 113.884 129.598 113.643C129.158 113.186 128.576 112.895 127.977 112.703C126.964 112.371 123.83 112.354 124.196 110.834C124.304 110.385 127.952 110.692 128.567 110.759C129.415 110.859 130.238 111.357 131.077 111.008C131.127 110.767 131.002 110.742 130.853 110.626C129.706 109.745 125.202 109.953 124.803 109.122C124.346 108.158 125.409 107.967 126.149 107.9C127.371 107.792 130.263 107.792 131.26 108.465C131.958 108.931 132.665 110.584 132.149 111.332C131.875 111.723 131.368 111.233 131.235 111.781C131.169 112.064 131.393 112.546 131.36 112.961C131.293 113.751 130.504 114.299 129.731 114.241C129.839 114.947 129.939 115.005 129.515 115.579C128.576 116.842 126.182 117.49 124.67 117.482C124.188 117.482 123.066 117.116 122.675 117.233C122.493 117.283 122.252 117.632 121.994 117.781C119.634 119.103 116.177 120.74 113.567 121.363C112.345 121.654 111.656 122.152 111.182 120.723C110.01 117.233 112.861 113.169 116.575 113.169ZM114.83 111.415C115.321 111.606 116.152 111.897 116.243 112.496C112.404 112.313 109.944 116.202 110.168 119.718C110.268 121.197 111.016 122.876 112.67 123.017C113.044 123.05 113.708 123.133 113.683 122.618L112.877 122.211C114.049 122.269 115.237 121.571 116.318 121.396C116.683 121.338 116.343 121.845 116.251 122.011C114.93 124.396 111.523 125.003 109.246 123.615C103.112 119.867 108.124 108.864 114.839 111.415H114.83ZM99.5141 88.0712C98.8908 87.6059 97.852 85.6363 96.9378 85.844C96.5306 85.9355 94.7355 88.0297 94.453 88.4702C94.3366 88.6447 94.1787 88.7278 94.2535 89.0103C95.0929 89.027 96.7384 86.6335 97.2702 86.7416C98.0348 87.2402 99.0985 89.4259 99.913 89.6336C100.619 89.8164 100.212 87.6225 100.154 87.2319C99.9795 86.11 99.6803 84.8052 99.1152 83.8163C99.0819 83.7249 99.2232 83.7249 99.3146 83.7498C99.7966 83.8994 101.126 84.6473 101.633 84.9382C109.503 89.4508 108.049 96.3152 110.708 103.919C110.983 104.709 112.902 108.914 112.462 109.379C110.816 108.889 108.905 108.714 107.343 109.587C107.085 109.737 105.83 110.709 106.121 110.992C106.96 110.942 107.6 110.277 108.456 110.019C109.669 109.654 110.717 109.712 111.922 110.044L109.894 110.917C106.113 112.961 104.326 118.687 106.794 122.319C105.739 122.252 103.619 120.931 103.354 119.892C103.046 118.72 103.437 115.895 103.578 114.573C104.185 108.831 105.655 103.18 106.121 97.4205C106.221 96.2238 106.387 94.3872 106.254 93.2404C106.221 92.9246 106.146 92.3262 105.714 92.3678C105.423 94.1545 105.489 96.016 105.306 97.8277C104.334 107.484 101.75 116.693 101.932 126.574C101.982 129.125 102.389 131.701 102.481 134.253C102.522 135.291 102.639 137.469 102.448 138.408C102.132 139.97 99.3063 141.474 97.9268 141.981C97.1788 142.256 96.3478 142.588 95.55 142.555C94.9433 142.405 93.5222 133.372 93.4391 132.225C92.6081 120.798 93.7549 108.839 93.0319 97.2793C92.8491 94.3955 92.2092 92.9744 93.1649 89.991C93.6469 88.4785 94.935 86.3925 95.1594 84.9715C95.2757 84.2069 95.043 83.675 95.0513 82.9769C95.0513 82.2788 95.2757 81.3398 95.3339 80.6168C98.201 81.6556 99.0819 85.3371 99.5141 88.038V88.0712ZM102.489 66.5471C101.691 67.5943 100.586 66.7964 99.9462 65.9903C98.1511 63.7382 98.791 61.1453 101.941 61.2284L102.489 66.5471ZM86.2256 62.4334C86.317 62.0595 86.5747 61.7354 86.6661 61.3946C87.0567 59.9237 87.0317 58.5525 86.8406 57.0483C88.6107 57.6051 90.5304 57.7713 92.3671 57.4472C92.6413 57.123 91.1371 54.9125 91.295 54.7546C93.0319 55.3529 95.0264 56.1009 96.8879 56.1092C97.0874 56.1092 97.2868 56.1923 97.2287 55.9014L95.8824 54.3474C96.9461 54.6715 98.4337 55.0371 99.3229 55.6937C99.7468 56.0095 101.932 58.1369 101.417 58.6605C100.894 58.5026 98.9406 58.9514 99.1235 59.6744C99.4393 60.065 99.9462 59.558 100.42 59.4832C100.802 59.4251 101.209 59.4916 101.6 59.4666L101.824 60.5553C100.096 60.4057 98.5584 61.3946 98.1511 63.09L96.7301 63.2977C96.2647 62.7492 96.1566 62.101 95.525 61.6523C93.5388 60.2561 90.1066 61.5775 89.7908 64.0374L85.7685 65.0014C86.0179 64.1869 86.0345 63.2229 86.2339 62.4334H86.2256ZM94.935 67.3699C91.8518 69.9046 88.9431 64.428 91.3615 62.5747C91.8601 62.1924 92.8075 61.8434 93.4225 61.8019C96.3893 61.5692 96.9544 65.7078 94.935 67.3699ZM83.6743 72.1401C81.1479 71.8077 78.8792 68.0181 80.7573 65.874C82.328 64.0872 83.9319 66.5471 85.4777 66.8879C85.4777 66.5139 85.4527 65.7576 85.8433 65.5665C86.0677 65.4585 89.6578 64.7188 89.7991 64.8684C89.9071 69.2979 95.4669 70.3201 96.7217 65.6496C97.0126 64.5776 96.5472 63.9958 98.0847 63.788C98.3423 64.4446 98.5085 65.0928 98.8658 65.7161C99.0902 66.1233 100.254 67.3782 100.27 67.4945C100.328 67.8934 99.9047 68.5416 99.5805 68.7826C99.1484 69.0984 97.0708 69.3062 97.9517 70.0126C98.6747 70.5943 101.176 68.8408 101.01 67.7189L102.481 67.7023C102.431 68.4253 102.547 69.2148 102.481 69.9295C102.273 72.1401 100.885 76.1208 98.7578 77.1347C95.4253 78.722 91.9183 76.9685 89.0844 75.2399C88.7271 75.0238 88.5941 74.5917 88.0539 74.7246C87.8046 74.9656 89.3005 76.3286 89.5332 76.5446C90.946 77.8577 92.5748 79.0295 94.3948 79.6611C94.2286 80.8744 94.2868 82.0711 94.2535 83.2844C94.2369 83.916 94.3533 84.88 94.32 85.2623C94.2203 86.2596 93.2563 87.8635 92.9737 88.8857C91.9682 87.7139 91.2202 86.3427 90.2063 85.1792C89.126 83.9326 87.7132 82.844 86.6328 81.6057C86.1674 81.0655 85.0622 79.7774 85.0788 79.1126C85.1037 77.6915 85.5857 76.4449 85.486 74.7911C85.4611 74.3424 85.1702 73.7191 85.2201 73.3118C85.2616 72.9877 86.342 71.9739 85.3115 72.0237C84.763 72.0487 84.3308 72.2232 83.6826 72.1401H83.6743ZM68.0174 126.391C66.0229 127.837 63.0062 126.781 61.6183 124.97C59.2415 121.87 62.3746 116.078 65.4328 114.49C67.5769 113.377 68.6656 114.715 70.2861 115.753C71.0008 116.219 71.6407 116.028 71.192 117.341C69.7875 116.335 69.1144 116.26 67.7598 117.341C65.5325 119.119 64.0533 121.945 64.8677 124.82C65.0339 125.394 65.3913 126.208 66.0727 126.241L65.732 124.629L68.6323 125.502C68.8817 125.668 68.1587 126.283 68.0257 126.383L68.0174 126.391ZM68.7653 124.704C67.7764 124.405 66.7708 124.139 65.7569 123.939L65.5492 123.74C65.117 121.837 66.455 119.51 67.8927 118.296C69.6878 116.792 69.962 117.681 71.6657 118.429C72.2308 118.679 72.9372 118.778 73.3859 118.97C73.5937 119.061 73.5106 119.418 73.9594 119.377C74.3416 119.335 75.9456 117.017 76.5273 116.535C78.6797 114.748 82.1535 114.922 84.7214 115.629C85.0705 115.728 87.6966 116.476 86.7242 117.15C86.3918 117.374 81.4139 116.967 80.3252 117.091C79.9346 117.133 78.1728 117.499 77.9484 117.681L77.8819 118.296C78.0897 118.637 80.4997 118.637 81.1064 118.712C82.5856 118.903 85.594 119.609 86.8157 120.424C87.0816 120.598 87.4057 120.748 87.2062 121.13C86.7658 121.413 86.2173 121.429 85.7104 121.396C83.5413 121.263 80.8737 120.332 78.6963 120.981C77.9235 121.205 78.1478 121.488 78.8293 121.538C80.99 121.695 84.015 121.87 86.0843 122.377C87.2229 122.651 87.414 123.249 86.1176 123.424L78.8376 123.565C78.4886 123.623 78.314 123.881 78.3639 124.238C80.8155 124.238 83.184 124.887 85.6439 124.513C85.9597 124.845 84.8461 125.327 84.5968 125.427C82.6106 126.191 80.4665 125.959 78.4387 126.283C77.7739 126.391 77.0342 126.723 76.386 126.79C74.832 126.956 70.5354 125.244 68.7819 124.712L68.7653 124.704ZM81.4388 111.083C84.0317 111.532 86.7159 111.324 89.2672 110.742C89.3005 111.05 89.2008 111.44 89.2922 111.731C89.3919 112.039 90.0567 112.097 89.7991 112.487C89.7243 112.604 87.6384 112.87 87.306 112.895C85.1453 113.094 82.6355 112.986 80.4914 112.562C79.8515 112.429 79.0952 112.072 78.5052 111.98C78.2476 111.939 77.8154 112.255 77.6575 111.881C77.4664 111.415 77.9816 111.615 78.1312 111.415C78.2808 111.216 78.2476 110.285 78.6631 110.235C78.8044 110.219 80.8986 110.983 81.4222 111.075L81.4388 111.083ZM79.3861 109.155C81.1396 108.831 86.7492 108.798 88.3199 109.462C88.5692 109.57 88.8933 109.745 88.86 110.069C85.8101 110.8 81.9873 110.85 79.0121 109.728C78.3805 109.487 78.9789 109.23 79.3778 109.163L79.3861 109.155ZM85.0538 114.881C83.0261 114.266 80.9152 114.241 78.8293 114.523C78.447 114.324 78.6548 112.895 78.8127 112.895C82.1369 114.033 85.6771 113.734 89.126 113.576L87.9791 120.457C87.4888 119.609 86.0428 119.202 85.112 118.87C83.9402 118.454 82.702 118.014 81.4388 118.022C81.4055 117.789 81.7463 117.898 81.9125 117.889C83.1674 117.839 86.7409 118.438 87.4389 117.482C88.4778 116.061 86.0262 115.18 85.0538 114.881ZM87.4389 123.956C87.3143 124.654 87.1481 126.989 86.6993 127.396C85.7187 128.286 80.2919 128.186 79.3445 127.205C79.2199 127.072 79.1035 127.006 79.1451 126.798C80.0842 126.74 81.1147 126.881 82.0454 126.798C82.5856 126.748 83.5081 126.524 84.0566 126.383C84.7048 126.216 86.0095 125.9 86.2339 125.186C86.5165 124.255 85.9264 124.155 87.4389 123.964V123.956ZM70.2446 125.984C72.4136 126.382 74.35 127.845 76.6353 127.588C77.0176 127.546 78.0149 127.147 78.2476 127.214C78.4055 127.263 78.5966 127.704 78.8044 127.878C80.0759 128.95 85.3281 129.075 86.7907 128.311C87.9625 127.696 88.0539 125.477 88.27 124.263C88.9099 120.715 89.3337 117.116 89.824 113.543C90.5637 113.053 90.8712 112.263 90.5886 111.374C90.5304 111.191 90.2479 111.191 90.1565 110.992C89.9736 110.559 90.09 110.028 89.7742 109.487C88.993 108.141 85.6023 108.232 84.1979 108.183C83.0012 108.141 81.7795 108.058 80.5579 108.183C80.0177 108.241 78.954 108.34 78.5052 108.557C77.7656 108.922 77.7822 109.637 77.5079 110.26C77.0176 111.382 76.1035 112.404 77.9318 112.986L77.8653 114.798C76.0785 115.438 75.0564 116.859 73.8763 118.238L72.0313 117.706C72.3305 116.576 72.0895 115.479 70.9011 115.122C71.2418 113.684 71.0756 111.997 71.3499 110.584C71.8236 108.075 74.4663 104.925 75.4303 102.39C75.6215 101.892 75.8292 101.385 75.771 100.844C75.771 100.72 75.53 100.761 75.4469 100.795C74.6242 101.11 70.3111 111.075 69.2224 112.379C66.9703 110.194 64.3192 110.011 61.6017 111.507C60.6377 112.039 59.1917 113.111 59.0421 114.274C59.3579 114.565 60.7208 113.127 61.0781 112.87C63.1142 111.39 66.5797 110.559 68.4246 112.787C69.4966 114.075 68.0755 113.385 67.4772 113.335C64.8262 113.094 62.7568 115.246 61.502 117.341C61.0781 118.047 59.9895 120.357 59.9895 121.089V123.183C58.1196 121.737 55.9921 119.535 55.8093 117.042C55.4603 112.346 61.1529 100.703 63.563 96.3318C67.07 89.9494 69.7293 87.1072 76.0868 83.4922C76.6436 83.1764 80.5413 81.0738 80.7573 81.2234L83.3419 90.1073C84.04 90.5561 86.1591 88.0962 86.6993 87.6308C87.3891 87.0324 87.896 86.4673 88.86 86.7582C88.7105 86.3676 88.5775 85.9105 88.1121 85.8108C87.3392 85.736 85.3115 88.1045 84.6051 88.6447C84.3474 88.8441 84.0815 89.0934 83.7325 89.0519L81.4554 80.4755C82.087 79.0627 82.9679 77.625 84.4721 77.0433L84.4056 78.6638C84.2145 78.5474 83.7907 78.456 83.7325 78.7303C83.533 79.7026 88.9016 84.8135 89.7991 85.8856C90.813 87.0906 91.6939 88.4203 92.5748 89.725C92.4751 90.5976 91.9432 91.3622 91.8352 92.2431C91.5859 94.3872 92.2092 96.6892 92.3587 98.8416C92.8906 106.62 92.5499 114.673 92.5166 122.46C92.5 125.468 92.9072 128.95 92.633 131.892C92.4502 133.812 91.5111 136.92 90.9792 138.873C90.8379 139.38 89.9736 142.621 89.7825 142.738C88.0041 142.862 86.2173 142.405 84.5885 141.707C80.026 139.729 73.5023 132.632 68.4329 136.962L67.419 137.967C68.4994 134.02 69.8374 130.131 70.2529 126.025L70.2446 125.984ZM71.4579 141.906C70.5521 141.632 67.7431 140.095 67.685 139.131C67.6268 138.192 70.1449 136.663 70.9925 136.38C71.0507 137.037 70.8928 137.668 70.926 138.333C70.951 138.865 71.5743 141.765 71.4662 141.906H71.4579ZM46.2855 199.947C46.942 201.634 47.8312 203.204 48.9282 204.609C48.5543 204.675 48.1304 204.626 47.5736 204.318C46.1941 203.562 45.8534 201.609 46.2772 199.947H46.2855ZM58.3108 223.258C54.7954 223.698 50.2995 223.199 47.5238 220.823C45.2799 218.903 44.6317 215.803 43.086 213.385C42.2965 212.155 41.1247 211.066 40.2521 209.878C38.698 207.775 36.9528 204.95 39.7618 203.013C40.0526 207.152 43.3187 209.761 45.1303 213.094C46.0694 214.806 46.5514 216.817 47.8562 218.321C50.8729 221.803 56.9063 221.753 61.0698 220.956C61.3524 222.834 59.7318 223.067 58.3024 223.249L58.3108 223.258ZM58.0614 217.033C59.4576 217.739 60.8953 218.562 61.0698 220.291C58.3606 220.665 55.3938 220.856 52.7012 220.233C47.5653 219.044 47.5819 215.82 45.3963 212.022C43.7924 209.238 40.9003 206.828 40.5679 203.362C40.4349 201.925 40.7757 201.692 41.7812 200.794C42.9031 199.797 44.3408 198.941 45.8201 198.609L45.8534 198.725C45.8534 198.725 45.8534 198.742 45.8617 198.758C44.7314 200.794 45.3298 204.734 47.8396 205.257C48.2052 205.332 49.1027 205.216 49.1775 205.531C48.9033 207.459 49.3936 209.695 49.8756 211.581C50.2164 212.928 50.6817 214.415 51.3798 215.612C51.5128 215.845 52.1194 216.526 52.028 216.651C51.7455 216.634 51.0308 217.116 51.0806 217.39C51.1305 217.648 51.33 217.515 51.4463 217.498C52.1776 217.374 53.0835 216.884 53.8813 216.692C55.7096 216.252 56.3578 216.185 58.0448 217.033H58.0614ZM55.1195 213.568L56.0835 215.371L55.8924 215.57C55.1528 215.504 53.0835 216.426 52.5765 216.177C51.546 215.67 50.4574 210.842 50.2163 209.628C49.967 208.365 49.5432 206.828 49.9006 205.739C50.4823 206.362 51.1056 206.944 51.7621 207.484C51.4879 207.534 50.9726 207.858 50.69 207.875C50.2579 208.473 52.161 208.232 52.6596 208.174C53.2081 208.565 53.7732 208.93 54.3633 209.263C54.3633 209.446 54.3633 209.645 54.33 209.894C53.873 209.861 51.3549 209.969 51.4962 210.634C51.6042 211.158 53.8397 210.351 54.463 210.908C54.5793 211.008 54.8536 212.413 54.8702 212.662C54.8951 213.036 54.596 212.687 54.2635 212.712C53.4907 212.77 52.4269 212.87 51.9034 213.468C51.8951 213.958 54.7372 213.318 55.1195 213.559V213.568ZM85.4278 165.658C83.2671 169.672 81.6299 174.11 78.9872 177.841C77.2004 180.367 74.8984 182.245 72.8042 184.473C68.3415 189.218 63.9951 194.105 59.9064 199.191C58.7263 196.548 55.2026 191.919 55.2026 191.919L47.6817 192.791C48.5293 191.819 49.8258 190.514 50.208 190.082C53.1832 186.717 56.15 183.342 59.1086 179.96C61.0615 177.733 63.1391 174.841 65.1752 172.805C66.1891 171.791 67.1365 171.733 68.1753 171.085C69.1476 170.47 70.71 165.699 71.1837 164.378C72.7128 160.14 73.8846 155.004 75.5965 150.982C75.663 150.824 75.663 150.657 75.8375 150.549C78.6215 155.004 81.9042 159.275 84.5968 163.78C84.8959 164.287 85.5691 165.134 85.4278 165.658ZM94.1538 180.525C92.7992 176.935 92.1177 174.442 90.1315 171.06C86.0927 164.195 81.3972 157.73 77.1256 151.015C74.4414 146.801 71.5078 142.272 71.7903 137.037C71.9399 136.82 73.4691 137.02 73.7848 137.078C78.9373 137.959 82.7768 143.228 88.378 143.527C89.9736 143.61 90.2978 143.61 90.8878 142.114L92.9072 134.618C93.4142 136.945 93.6053 139.472 94.3533 141.732C95.1594 144.167 95.7411 143.352 97.8935 142.979L96.8879 146.652L93.4142 142.796L92.9654 142.305L92.633 142.513C92.525 143.02 94.935 148.206 95.3422 149.095C97.7522 154.389 100.528 159.516 102.988 164.785C105.664 170.494 107.575 176.303 109.744 182.154L95.3921 181.29C95.5998 181.863 95.8076 182.445 96.0486 183.068C97.8104 187.73 99.8299 193.531 101.941 199.382C99.1567 193.074 96.4558 186.625 94.1455 180.509L94.1538 180.525ZM115.096 225.427C114.947 225.526 115.005 225.634 114.83 225.427C114.257 224.729 113.01 220.914 112.802 219.9C112.728 219.526 112.686 219.194 112.678 218.878C113.393 218.512 114.066 218.163 114.722 217.814C115.969 217.731 117.373 216.792 118.105 215.944C118.695 215.595 119.268 215.255 119.792 214.922L121.844 215.039C123.041 214.814 124.271 214.806 125.468 214.606C129.407 213.958 130.005 211.382 133.105 209.57C134.958 208.482 138.374 206.994 140.119 208.831C133.57 210.127 129.93 216.626 124.346 219.692C121.445 221.288 118.836 222.136 116.185 224.346C115.828 224.646 115.445 225.194 115.105 225.427H115.096ZM136.911 213.111C133.371 215.504 130.479 218.903 126.939 221.346C125.06 222.643 122.991 223.582 121.055 224.77C119.409 225.784 117.93 227.047 116.243 227.978L115.437 226.424C115.437 225.859 117.722 224.122 118.271 223.74C120.822 221.961 123.847 221.072 126.39 219.318C130.587 216.426 134.227 211.307 139.263 209.803C140.767 209.354 141.199 209.321 141.316 211.116C139.762 211.241 138.183 212.246 136.903 213.111H136.911Z" fill="black"/>
<path d="M84.5962 163.772C81.9036 159.268 77.7234 153.525 74.9394 149.062C74.7649 149.171 74.7649 149.337 74.6984 149.495C72.9865 153.525 70.6346 158.869 69.1055 163.107C68.6318 164.429 67.4766 170.57 66.496 171.185C65.4572 171.841 64.5098 171.9 63.4959 172.905C61.4599 174.941 59.3822 177.825 57.4293 180.061C54.4708 183.443 51.4956 186.809 48.5288 190.183C47.9637 190.823 45.2461 193.615 45.1132 194.163C45.0217 194.529 45.2461 195.551 45.3625 196.008C48.1465 206.862 55.9999 210.236 56.7478 209.604C61.9419 208.009 70.1859 196.64 77.042 185.811C78.6792 183.227 79.9673 182.778 81.0144 179.869C82.5269 175.648 83.6737 170.445 85.8345 166.44C85.9757 165.916 84.8954 164.271 84.5962 163.772ZM70.9172 172.465C69.7952 172.938 68.4822 173.346 67.2772 173.08L67.4517 172.781L72.679 170.927C72.7289 171.75 71.582 172.191 70.9255 172.473L70.9172 172.465Z" fill="white"/>
<path d="M97.8916 142.988L96.8861 146.661L93.4123 142.805L92.9635 142.315L92.6311 142.522C92.5231 143.038 96.5121 146.927 97.2684 148.257C100.36 153.7 106.501 161.312 108.969 166.581C111.986 173.03 122.424 200.305 125.806 207.294C123.77 211.898 119.549 213.992 110.931 219.403C110.665 219.461 110.765 219.344 110.698 219.228C110.465 218.837 110.224 218.297 110.033 217.873C105.438 208.059 97.9831 190.64 94.1519 180.526C92.7973 176.936 92.1159 174.443 90.1297 171.061C86.0908 164.196 81.3954 157.731 77.1238 151.016C74.4395 146.802 71.5059 142.273 71.7885 137.037C71.938 136.821 73.4672 137.021 73.783 137.079C78.9355 137.96 82.7749 143.229 88.3762 143.528C89.9718 143.611 90.2959 143.611 90.8859 142.115L92.9054 134.619C93.4123 136.946 93.6034 139.472 94.3514 141.733C95.1575 144.168 95.7392 143.353 97.8916 142.979V142.988Z" fill="white"/>
<defs>
<linearGradient id="paint0_linear_2024_103" x1="255.721" y1="257.978" x2="391.551" y2="242.435" gradientUnits="userSpaceOnUse">
<stop stop-color="#334A59"/>
<stop offset="1" stop-color="#EBD7B5"/>
</linearGradient>
</defs>
</svg>
