<svg width="345" height="171" viewBox="0 0 345 171" fill="none" xmlns="http://www.w3.org/2000/svg">
<path d="M257.932 4.2164C257.886 4.617 258.641 4.69917 258.908 4.73513C264.362 5.45929 267.849 5.76745 272.395 9.30093C273.571 10.2151 276.508 12.2387 273.668 12.9782L265.862 12.4235C269.349 15.1353 272.199 19.2954 272.667 23.7995C272.759 24.7086 273.016 28.617 271.532 28.2318C270.982 28.088 266.078 24.1796 265.867 24.4466C266.201 26.275 266.232 28.1959 266.149 30.0653C266.083 31.601 265.251 35.345 265.584 36.5622C265.641 36.7728 266.37 37.0501 266.684 37.4405C270.936 42.6791 269.585 49.2478 264.27 53.0689C264.403 57.0287 263.52 60.896 262.087 64.5579L259.031 70.1098C261.317 70.4899 263.807 72.0563 265.682 73.4379C272.251 78.2759 275.204 85.4712 278.989 92.4098L337.122 85.6869C339.567 85.877 340.651 86.5087 340.548 89.1177L327.949 139.013L341.477 137.636C342.181 137.744 345.067 137.174 344.631 138.602C344.379 139.429 329.377 140.23 327.451 140.98C326.45 144.169 326.316 150.322 322.819 151.796L246.767 165.997C245.344 166.248 243.921 166.474 242.468 166.367C238.025 166.028 229.243 162.925 224.503 161.631C217.944 159.839 207.472 157.625 201.591 155.006C199.09 153.892 198.998 151.77 199.943 149.408C197.442 149.161 194.935 149.218 192.424 149.13C190.185 149.048 188.053 148.34 185.809 149.357C181.808 151.175 179.148 152.428 174.397 151.344L154.603 153.979L153.992 154.734L153.109 165.339C152.939 166.176 151.927 167.337 151.26 167.866C146.478 171.667 130.881 172.175 127.183 166.767C125.899 164.887 126.191 160.712 125.817 158.421C125.395 157.99 115.591 159.993 113.917 160.06C111.919 160.137 110.753 159.192 112.9 158.498C114.769 157.898 125.092 156.963 125.534 156.5L123.351 133.466L122.057 132.485L34.6033 148.298C32.8879 148.139 33.2679 144.78 32.6414 143.63C23.4635 138.515 13.9313 134.016 4.73811 128.936C3.81365 128.423 0.536957 126.805 0.203125 126.091L15.1742 36.1873C16.186 35.0882 23.0886 35.0214 23.4892 34.5181C24.0131 28.2677 32.4616 27.5282 35.1323 32.8182L39.1177 32.3662C39.0355 27.143 45.517 25.1554 49.2405 28.3962C49.713 28.807 50.4064 29.9164 50.6067 30.0345C51.449 30.5429 53.4468 29.8393 54.4432 29.7726C55.6553 23.7584 63.6621 22.3101 66.6614 27.7131L70.2617 27.3998C70.9961 22.7929 75.8239 20.5228 79.8812 22.9162C81.1498 23.666 81.6223 24.6778 82.7162 25.5098L85.8388 24.9295C86.9841 18.7715 95.0321 17.7392 98.1136 23.0856L100.805 22.5258C101.498 17.4464 108.19 15.2226 111.883 18.8177C113.27 20.1633 112.725 21.4268 115.658 20.2866C116.351 13.8976 125.524 12.4595 128.189 18.4377C130.742 18.5712 135.482 15.7516 135.816 19.773L152.359 117.463C154.675 118.505 155.343 119.522 155.841 121.977C155.98 122.66 155.774 123.508 155.954 124.052C156.057 124.36 157.248 125.038 157.669 125.618C158.845 127.246 158.933 129.445 158.147 131.258C157.633 132.449 156.051 133.235 155.913 133.944C155.646 135.32 155.784 137.842 155.63 139.403C155.219 143.64 154.798 147.898 154.264 152.114L170.401 149.927L166.837 146.799C157.187 142.664 158.943 131.001 160.412 122.583C162.456 110.889 167.474 88.0083 175.46 79.3852C181.104 73.2889 191.777 69.9454 199.609 67.7113C201.766 67.095 207.236 66.2579 208.766 65.4515C208.992 65.3334 209.68 63.8645 210.071 63.4023C211.324 61.918 212.772 61.0758 214.405 60.0794L214.154 56.9825C205.551 57.6193 200.205 48.9808 203.769 41.241C204.046 40.635 205.094 39.4435 205.089 39.1148C205.084 38.4163 202.952 34.4154 202.552 33.1725C199.819 24.6932 202.408 15.0839 211.704 12.6752L209.228 10.9187L208.997 9.69127C211.016 8.99279 213.065 9.46016 214.991 10.2151C214.636 8.1916 216.958 3.57443 219.223 3.9134C220.743 4.13938 218.74 6.79462 218.822 7.75503C222.602 4.39102 227.733 3.37414 232.633 2.83487C237.882 2.25452 243.053 2.59859 248.22 2.2853C251.553 2.07986 254.943 0.955108 258.107 0.682906C264.013 0.174454 260.931 2.73725 257.937 4.20611L257.932 4.2164ZM125.822 18.9769C124.271 15.3356 118.678 16.5631 117.62 20.0709L125.822 18.9769ZM263.674 35.1139V29.7828C263.674 28.807 263.001 25.8128 262.657 24.7856C262.426 24.0974 261.887 22.8494 261.394 22.3564C260.521 21.4833 252.324 18.2219 251.641 18.715C252.591 19.624 255.374 24.1128 252.873 24.2053C251.599 24.2515 245.205 21.7965 243.567 21.1802C241.805 20.5177 240.146 19.6343 238.38 18.9872C238.811 20.1839 240.963 24.688 238.426 24.6521C237.055 24.6316 232.124 22.5156 230.589 21.8531C229.186 21.247 227.861 20.4509 226.48 19.8089C226.911 27.0711 223.439 33.4139 221.549 40.1727L228.39 42.4993C230.44 31.5701 244.974 32.207 246.756 43.0129L251.641 43.8706C251.553 37.6254 257.501 32.2892 263.674 35.119V35.1139ZM110.779 21.1648C111.272 20.6923 109.161 19.5779 108.791 19.4649C106.372 18.7458 103.665 19.7935 102.849 22.2588L110.779 21.1648ZM134.029 19.8038L128.544 20.4663C128.241 22.7313 127.758 24.7959 125.565 25.9669C124.373 26.6037 121.179 27.6463 121.852 25.2632C124.255 24.4518 126.366 23.9382 126.371 20.8977L113.675 22.7775C113.573 24.9551 112.925 26.8708 110.974 28.0572C110.121 28.5759 107.481 29.6339 106.804 28.5605C105.982 27.2611 108.637 26.9941 109.336 26.6962C110.81 26.0593 111.621 24.7034 111.606 23.0908L98.4782 25.0064C98.9713 28.0828 96.4598 31.2414 93.3886 31.5496C91.6013 31.7293 91.1391 30.2348 92.5976 29.6493C93.0958 29.449 93.7532 29.4747 94.349 29.2128C95.7768 28.5811 96.4958 27.0608 96.5626 25.5509L83.0603 27.446C82.6597 30.055 82.1718 32.3559 79.6141 33.6245C78.6229 34.1124 75.49 35.1396 76.0909 33.1212C76.4556 31.8988 79.9891 32.5202 80.6311 29.1768C80.6824 28.9046 80.8519 27.749 80.554 27.7336L67.2726 29.7674C66.8309 32.1145 66.5587 34.2305 64.376 35.6223C63.4104 36.2335 59.9899 37.3788 60.1697 35.5401C60.2878 34.3538 61.6951 34.6722 62.5682 34.3641C64.299 33.7529 64.9461 31.8834 65.1001 30.1989L51.3103 32.3559C51.11 34.5284 51.0124 36.4646 49.0556 37.8102C48.1312 38.4419 44.382 39.9981 44.5771 38.0054C44.685 36.9115 46.1641 37.0758 47.0681 36.6444C48.5626 35.9305 49.3535 34.2819 49.2354 32.6641L35.5585 34.5746C35.7332 36.557 35.2453 38.8528 33.6275 40.1624C32.5695 41.0201 28.281 42.5455 29.0257 40.2189C29.226 39.5924 30.9362 39.4126 31.6501 39.0069C33.0574 38.2005 33.5607 36.6855 33.3707 35.1242L17.5059 37.3121L35.2658 146.018L120.429 130.765L120.824 130.42C120.275 128.366 120.711 124.73 123.321 124.499L123.351 122.886L41.3056 137.529C40.4736 136.902 40.4941 135.89 40.2938 134.966C35.6099 113.436 33.7456 90.5146 29.303 68.8515C29.2055 67.6702 28.9743 66.4685 30.4483 66.2425C62.3422 61.6048 94.0871 55.791 125.996 51.2971C127.332 51.107 132.375 50.1517 133.202 50.5626L144.737 115.86L145.127 116.292L150.428 116.872L134.013 19.8089L134.029 19.8038ZM95.7357 23.6249C95.8589 23.1113 95.5611 23.0959 95.2786 22.8545C92.839 20.7231 88.8895 21.6887 87.8059 24.7189L95.7357 23.6249ZM80.1483 25.8128C78.325 23.2192 73.2765 23.6147 72.4907 26.9068L80.1483 25.8128ZM64.2835 28.2729C64.9101 27.672 62.0957 26.4856 61.618 26.4188C59.7794 26.1517 57.0419 27.2765 56.9033 29.3668L64.2835 28.2729ZM48.4188 30.733C48.5421 30.2194 48.2442 30.204 47.9617 29.9626C45.5941 27.8928 42.0143 28.8943 41.0334 31.8269L48.4137 30.733H48.4188ZM32.5541 33.1982C32.6465 32.6538 32.2048 32.4124 31.8299 32.1505C29.6112 30.5994 26.0315 31.488 25.446 34.2922L32.5541 33.1982ZM263.643 37.0604C251.142 31.5393 248.754 55.7858 262.554 52.0366L263.643 37.0604ZM235.704 36.5417C227.805 37.8719 227.964 52.6375 237.507 52.504C248.045 52.355 247.265 34.5952 235.704 36.5417ZM218.35 46.2382C217.831 45.7965 217.05 42.9102 216.501 41.9395C212.746 35.3091 205.063 38.0619 204.586 45.3548C204.17 51.6668 209.244 55.9193 215.35 55.3852L215.669 55.6112C216.783 59.2526 216.398 63.1353 216.978 66.8845C218.509 76.7813 225.853 82.0148 232.663 88.409C233.141 88.4963 235.596 85.0398 235.997 84.4132C236.418 83.7507 238.852 79.3544 238.78 79.0051C233.639 77.0946 227.219 75.2354 225.109 69.5654L229.947 73.3403C238.195 77.8496 245.75 79.1797 253.531 72.9602C259.38 68.2814 262.369 61.1323 262.58 53.7058C260.587 54.3632 258.821 54.507 256.838 53.7058C258.405 58.1278 252.154 61.1836 248.903 58.4873C248.677 57.5269 251.04 58.1432 251.754 58.0559C253.002 57.907 255.482 56.8182 255.698 55.4212C255.862 54.3837 254.368 53.2333 253.87 52.4321C252.627 50.4342 251.42 48.2207 251.343 45.7966L246.715 44.9543C245.668 57.8453 228.324 57.0595 227.959 44.1017L220.461 41.9497C220.64 43.1412 220.368 47.9588 218.35 46.2382ZM264.496 50.4239C268.116 47.6711 267.932 42.4736 265.584 38.9401C265.179 39.0634 265.071 40.3525 265.045 40.7172C264.809 43.9374 264.742 47.1987 264.496 50.4188V50.4239ZM28.6919 119.563L15.8778 40.8558L2.20098 124.247L28.6919 119.563ZM132.108 52.3397L118.714 54.2502L121.451 70.9264L134.84 68.7282L132.108 52.3397ZM117.06 54.8151L102.854 56.7154L105.586 73.3968L119.813 71.2038L117.06 54.8151ZM103.922 73.6433L101.205 56.9876L86.4654 59.4734L88.8998 76.1291L103.922 73.6433ZM87.2255 76.3653L84.5343 59.8329L69.4759 61.9078L72.2133 78.8614L87.2255 76.3704V76.3653ZM214.714 62.18C214.236 61.651 211.437 64.7685 211.108 65.2718C207.683 70.4693 208.746 77.0176 209.881 82.7389C210.564 86.1748 211.591 89.5337 212.808 92.8053C213.342 93.2058 216.028 89.4618 216.491 88.9739C219.526 85.764 222.248 83.2782 226.613 86.2416C227.065 86.5498 228.277 87.5615 228.39 88.1522C225.956 88.5733 224.605 86.2211 222.094 86.9144C221.406 87.1044 220.348 87.9416 219.772 88.4193C217.944 89.9446 215.391 94.0533 213.779 95.0034C211.509 96.3336 210.25 91.6035 209.727 90.0062C207.523 83.2833 205.782 74.501 207.883 67.6548C198.248 70.3974 184.895 72.8523 177.514 80.0837C169.425 88.0083 164.346 111.618 162.338 122.881C161.115 129.722 159.431 138.299 165.08 143.666C164.998 142.428 164.485 141.273 164.387 139.983C163.406 127.529 175.172 115.393 187.632 119.481C189.003 119.928 189.933 120.693 191.196 121.243C191.535 115.167 194.314 109.43 194.75 103.334C195.372 94.649 192.177 84.0023 182.994 81.3214C183.77 80.1042 186.718 81.2855 187.827 81.8196C195.115 85.3531 197.19 96.2977 196.661 103.601C196.358 107.787 192.229 120.457 192.901 122.953C193.163 123.918 194.904 125.547 194.884 126.985C200.313 128.387 205.633 130.595 211.098 131.828C212.115 132.054 213.265 132.413 214.292 132.465C218.36 132.665 222.181 129.373 226.074 128.366C226.968 121.736 228.046 115.131 228.899 108.495C229.505 103.791 229.556 95.4605 230.922 91.3826C231.2 90.5506 231.76 90.0525 231.939 89.2564L230.856 89.4053C225.602 84.1359 218.899 79.4674 216.347 72.1693C215.248 69.021 214.631 65.5183 214.708 62.1851L214.714 62.18ZM67.8376 62.4573L50.8789 64.9174L53.6163 81.871L70.575 79.1335L67.8376 62.4573ZM49.2251 65.4772L31.3009 68.1787L33.9253 85.1477L51.9677 82.1278L49.2251 65.4772ZM137.547 85.1117L135.138 70.495L121.718 72.575L124.183 87.3356L137.547 85.1117ZM277.079 92.8001C273.427 86.2056 270.592 79.3852 264.311 74.8092C263.237 74.0285 258.708 71.137 257.67 71.6044C255.58 73.5098 253.525 75.636 250.839 76.694C251.676 79.5752 252.58 82.5284 252.734 85.5637C252.791 86.6576 253.027 92.5844 250.947 91.1824C249.201 90.0114 246.777 85.954 244.394 85.954C242.011 85.954 239.104 91.3621 236.325 91.4391C235.914 91.018 238.118 88.45 238.503 88.0135C239.484 86.9093 242.54 84.0178 243.916 83.8329C245.39 83.6326 247.624 85.3377 248.759 86.2519C249.16 86.5754 250.706 88.4603 251.091 88.1573C250.665 84.6392 250.475 81.1109 249.175 77.7674C246.315 78.9384 243.254 79.2979 240.162 79.1438C239.761 82.1072 237.876 84.9012 236.161 87.315C234.641 89.4515 232.838 90.453 232.34 93.3394C231.395 98.8348 231.251 105.28 230.542 110.956C229.839 116.584 228.781 122.172 228.118 127.806C236.3 125.249 243.254 124.817 249.18 131.766C250.66 133.497 251.42 135.32 252.724 137.102L263.997 88.7736C264.403 88.5476 264.819 88.2754 264.994 88.8814C265.256 89.811 265.117 92.1787 265.004 93.1853C264.383 98.7321 262.333 105.799 261.075 111.402C260.099 115.758 258.985 120.087 257.937 124.427C257.757 125.254 258.338 125.675 258.887 126.163C259.514 126.286 259.226 125.891 259.329 125.521C261.994 115.696 263.869 105.655 266.565 95.8354C268.214 92.9491 274.12 93.2469 277.073 92.8053L277.079 92.8001ZM120.059 72.8678L105.859 75.0351L108.324 90.073L122.545 87.8851L120.064 72.8678H120.059ZM104.215 75.3022L89.1772 77.7674L91.6372 92.8053L106.675 90.3349L104.215 75.3022ZM89.9938 93.3497L87.5439 78.1526L72.4855 80.4997L74.9508 95.5376L89.9938 93.3497ZM70.8369 80.7822L53.8885 83.5093L56.6157 98.7012L73.3124 96.0819L70.8369 80.7822ZM52.2347 83.7867L34.3105 86.7809L36.6576 102.101L54.6897 99.0711L52.2347 83.7867ZM138.132 86.786L124.456 88.979L127.172 104.448L140.587 102.368L138.132 86.7912V86.786ZM338.586 87.9108C338.252 87.5205 335.35 87.8183 334.657 87.88C316.188 89.5132 296.795 92.1222 278.347 94.4744C276.467 94.7158 269.955 95.2705 268.861 96.2001L252.467 162.792L321.884 150.024C322.228 149.942 322.511 149.778 322.778 149.552C323.969 148.545 325.145 142.757 325.633 140.923C329.829 125.208 334.498 108.305 337.887 92.4765C338.057 91.6959 338.94 88.3217 338.586 87.9108ZM125.277 105.106L122.812 89.2461L108.591 91.7113L111.354 107.268L125.277 105.106ZM109.685 107.838L106.958 92.0965L92.1919 94.4591L94.6417 110.303L109.685 107.838ZM93.0034 110.57L90.2762 94.834L75.3411 97.4378L77.9604 113.308L93.0034 110.57ZM76.3221 113.585L73.6052 97.8436L56.6259 100.463L59.3634 116.317L76.3221 113.585ZM57.7199 116.867L55.003 100.848L37.2226 103.755L39.6775 119.866L57.725 116.867H57.7199ZM143.053 116.045L140.88 104.13L127.475 106.215L129.109 117.144C133.654 116.158 138.399 116.004 143.053 116.045ZM125.827 106.749L111.606 108.937L114.061 122.763L123.372 121.109C124.317 119.378 125.339 117.904 127.47 117.684L125.832 106.749H125.827ZM109.936 109.512L94.9191 111.947L97.107 125.891L112.129 123.138L109.936 109.512ZM93.2756 112.214L78.3507 114.941L80.6824 128.782L95.4481 126.137L93.2807 112.214H93.2756ZM76.5788 115.234L59.9078 117.961L62.0956 132.177L79.0543 129.167L76.5788 115.234ZM153.72 121.51C153.787 120.128 152.734 119.527 151.609 119.111C147.285 117.519 130.167 117.298 126.443 119.805C126.022 120.087 125.544 120.534 125.549 121.094C130.922 121.849 136.664 122.547 142.113 122.337C144.778 122.234 147.644 121.689 150.31 121.51C151.439 121.433 152.595 121.561 153.725 121.51H153.72ZM57.9613 118.536L39.9394 121.515L42.4047 135.731L60.4316 132.423L57.9613 118.531V118.536ZM192.83 126.707C192.008 124.211 189.347 122.044 186.872 121.32C177.951 118.7 167.469 126.317 166.38 135.397C164.947 147.343 173.745 152.459 184.355 148.304L180.555 147.051C178.038 145.273 177.576 142.017 177.787 139.136C178.316 131.848 185.013 124.175 192.835 126.707H192.83ZM29.2722 121.237C20.9521 122.778 12.5806 124.098 4.26046 125.624L3.56713 126.158L32.5592 141.196L29.2774 121.237H29.2722ZM153.992 121.787C145.194 124.725 134.132 125.059 125.411 121.792C124.81 121.828 124.486 125.274 126.176 126.219C130.449 128.602 149.072 128.921 152.991 126.117C153.365 125.85 153.761 125.613 153.941 125.151L153.997 121.792L153.992 121.787ZM123.875 126.199C122.555 125.434 122.139 128.869 122.478 129.917C123.444 132.881 130.881 133.81 133.618 134.087C138.887 134.622 150.428 134.611 155.004 131.956C157.171 130.698 157.525 127.524 155.492 126.178C155.127 126.594 154.947 126.974 154.475 127.324C149.729 130.795 128.723 130.842 124.296 126.99C124.06 126.784 123.942 126.235 123.875 126.199ZM257.65 127.529L257.11 127.693L254.378 138.186C255.431 138.201 255.985 138.458 256.427 137.369C257.413 134.95 257.593 131.545 258.461 129.013C258.292 128.772 257.716 127.585 257.65 127.529ZM236.325 130.539C240.634 130.559 244.461 134.129 246.777 137.446C247.64 138.684 249.663 143.24 250.131 143.661C250.87 144.328 252.01 143.907 252.185 142.962C252.74 139.927 247.948 132.896 245.626 130.939C239.181 125.516 229.628 128.972 222.659 131.771C221.108 132.393 219.613 133.471 217.985 133.939C211.509 135.803 199.177 129.609 192.075 128.423C184.16 127.098 178.778 134.765 179.774 142.084C180.344 146.254 183.421 146.183 186.985 146.634C191.962 147.261 205.299 148.001 209.763 146.768C210.369 146.599 210.399 146.105 210.492 146.105C211.036 146.105 212.983 147.251 213.748 147.497C217.112 148.576 219.207 148.576 222.582 147.559C223.66 147.235 226.315 145.828 227.091 145.895C229.736 146.121 233.793 151.498 235.858 151.508C236.31 151.508 237.111 151.282 237.404 150.877C238.179 149.855 235.95 147.143 235.221 146.265C233.044 143.651 230.203 141.689 227.296 139.968C230.553 138.489 234.872 142.813 236.859 145.171C238.226 146.788 240.67 151.745 242.981 151.519C245.293 151.293 243.269 147.42 242.755 146.388C240.347 141.555 236.423 137.205 231.405 135.048C232.674 133.81 234.62 134.704 235.961 135.407C238.801 136.902 241.323 140.184 242.997 142.865C243.67 143.933 246.099 149.377 246.433 149.541C246.874 149.762 247.424 149.731 247.896 149.634C249.273 149.161 248.436 145.633 248.148 144.549C247.136 140.728 244.106 136.619 241.097 134.103C239.571 132.829 237.635 131.992 236.32 130.544L236.325 130.539ZM154.269 134.365C144.901 136.691 134.558 137.025 125.282 134.093L125.544 139.65C130.572 142.449 137.537 142.623 143.207 142.305C145.097 142.197 152.713 141.149 153.745 139.716L154.269 134.365ZM255.739 139.835L253.823 140.107C254.532 143.039 254.208 145.967 250.541 145.849V146.665C251.466 146.665 253.469 146.645 254.116 146.003C254.511 145.612 255.965 140.061 255.739 139.835ZM230.034 149.947L227.163 147.569C223.172 149.916 218.689 151.01 214.185 149.526C213.537 149.315 211.894 148.35 211.591 148.334C210.661 148.278 207.919 149.028 206.65 149.125C205.613 149.202 204.544 149.074 203.507 149.13L250.382 162.268L251.368 158.699L246.376 159.176L221.739 152.433C221.282 151.827 221.216 151.108 222.027 150.825L230.039 149.947H230.034ZM248.087 163.891L202.208 150.815C200.79 150.589 201.078 153.131 202.259 153.244C211.396 155.874 220.517 158.622 229.7 161.082C233.372 162.068 240.999 164.656 244.389 164.435C245.58 164.358 246.854 163.824 248.087 163.891ZM152.081 157.882C144.588 161.626 135.236 161.169 127.465 158.432C128.323 160.876 127.347 164.913 129.514 166.634C133.71 169.962 145.641 169.561 149.981 166.587C152.364 164.954 151.224 160.471 152.076 157.887L152.081 157.882Z" fill="black"/>
<path d="M287.747 48.2371C287.737 46.7682 288.595 45.4072 289.242 44.1335C290.587 41.4885 292.549 38.1656 294.193 35.685C294.629 35.0276 295.867 33.0041 296.34 32.6343C297.413 31.8023 298.271 33.3687 297.711 34.2777C294.876 38.0988 292.75 43.2244 289.771 46.8452C289.262 47.4615 288.62 48.3552 287.742 48.232L287.747 48.2371Z" fill="black"/>
<path d="M308.72 45.8168C309.66 45.5446 310.04 46.1096 309.901 46.993C309.752 47.9277 302.536 54.3322 301.273 55.3388C300.564 55.9037 298.433 57.8759 297.585 57.3983C297.154 57.1055 297.452 56.9566 297.637 56.633C297.924 56.1246 298.546 55.3953 298.946 54.933C301.72 51.7128 305.644 48.8059 308.72 45.822V45.8168Z" fill="black"/>
<path d="M317.482 60.5988C319.49 60.1879 319.736 61.2356 318.19 62.4015C316.203 63.896 311.108 66.4126 308.715 67.4192C308.088 67.6812 305.515 68.996 305.248 68.051C305.001 67.1933 307.749 65.6576 308.448 65.2365C309.958 64.3223 316.146 60.8658 317.482 60.5936V60.5988Z" fill="black"/>
<path d="M134.029 19.8039L150.443 116.867L145.143 116.287L144.753 115.855L133.218 50.5576C132.386 50.1467 127.347 51.102 126.012 51.292C94.0975 55.7859 62.3578 61.5997 30.4639 66.2374C28.9899 66.4634 29.221 67.6653 29.3186 68.8465C33.7611 90.5097 35.6255 113.431 40.3094 134.961C40.5097 135.89 40.4892 136.897 41.3212 137.524L123.367 122.881L123.336 124.494C120.727 124.725 120.291 128.361 120.84 130.415L120.445 130.76L35.2814 146.013L17.5215 37.307L33.3862 35.1191C33.5763 36.6805 33.0729 38.2006 31.6657 39.0018C30.9518 39.4127 29.2416 39.5925 29.0413 40.214C28.2966 42.5405 32.585 41.0151 33.643 40.1574C35.2608 38.8478 35.7487 36.552 35.5741 34.5696L49.251 32.659C49.364 34.2768 48.573 35.9306 47.0836 36.6393C46.1797 37.0708 44.7057 36.9064 44.5927 38.0004C44.3924 39.9931 48.1468 38.4421 49.0712 37.8052C51.028 36.4596 51.1256 34.5234 51.3259 32.3509L65.1157 30.1939C64.9616 31.8784 64.3145 33.7479 62.5837 34.359C61.7106 34.6672 60.3034 34.3539 60.1853 35.5351C60.0055 37.3738 63.426 36.2285 64.3916 35.6173C66.5743 34.2306 66.8465 32.1095 67.2882 29.7624L80.5696 27.7286C80.8675 27.7389 80.698 28.8996 80.6466 29.1718C80.0046 32.5153 76.466 31.8938 76.1065 33.1161C75.5056 35.1345 78.6436 34.1125 79.6297 33.6194C82.1874 32.3509 82.6753 30.05 83.0759 27.441L96.5781 25.5459C96.5114 27.0507 95.7924 28.576 94.3646 29.2077C93.7688 29.4697 93.1114 29.444 92.6133 29.6443C91.1547 30.2298 91.6169 31.7243 93.4042 31.5446C96.4806 31.2364 98.992 28.0778 98.4938 25.0014L111.621 23.0857C111.637 24.6984 110.825 26.0543 109.351 26.6911C108.658 26.9942 106.002 27.2561 106.819 28.5555C107.497 29.634 110.137 28.5709 110.989 28.0522C112.941 26.8658 113.588 24.9501 113.691 22.7725L126.387 20.8927C126.382 23.9332 124.271 24.4467 121.867 25.2582C121.194 27.6413 124.389 26.5987 125.58 25.9619C127.768 24.7909 128.251 22.7262 128.559 20.4613L134.044 19.7988L134.029 19.8039ZM124.538 43.5112C126.32 45.6015 131.482 43.9837 130.691 40.5015C130.115 37.9644 126.109 38.4472 125.848 37.6819C125.426 36.4493 126.721 36.321 127.589 36.4853C127.984 36.5623 128.272 36.9424 128.482 36.9783C129.345 37.1273 130.737 34.9394 127.851 34.585C123.978 34.1074 122.417 38.555 125.396 39.7774C126.058 40.0496 130.244 40.4245 128.564 42.0885C127.116 43.5214 125.159 41.3336 124.877 41.4003C124.235 41.9396 123.952 42.823 124.543 43.5112H124.538ZM121.965 37.271L121.949 36.1103C121.857 35.7765 121.636 35.6687 121.313 35.6482C120.768 35.6122 116.552 36.3466 115.915 36.5521C114.872 36.891 114.359 37.5638 115.334 38.365L117.892 38.1133C118.498 38.7348 117.779 48.0667 120.84 44.7797L119.808 37.569L121.97 37.271H121.965ZM113.229 37.5895C112.166 37.5741 111.431 37.1941 111.426 38.4729C111.426 39.4641 112.186 45.355 112.494 46.1151C112.843 46.9728 113.783 47.1884 114.199 46.3205C114.918 44.8311 113.27 39.4743 113.229 37.5895ZM108.802 38.175C106.193 37.1735 106.234 41.6263 105.854 43.3109L103.28 38.9197C102.217 38.3137 101.355 38.6526 101.195 39.8853C101.067 40.8405 101.36 47.9332 101.781 48.2105L102.859 48.1129C103.779 47.4966 102.813 43.881 103.126 42.7716C104.133 43.2339 104.724 46.5773 105.71 46.603C107.358 46.6441 107.276 44.1223 107.584 42.9924C107.661 42.71 107.651 42.1656 108.047 42.2272C108.237 43.0284 109.228 48.9347 110.666 46.8906C111.21 46.1151 109.13 39.5052 108.807 38.1853L108.802 38.175ZM92.7314 48.9193C92.9368 47.6764 92.5824 45.9867 92.7314 44.6822L94.5084 47.6918C96.7476 48.8063 96.7271 45.2266 96.9736 43.8656C98.0881 44.7849 97.8827 49.3506 99.6802 48.76C99.9986 48.6419 100.091 48.4262 100.127 48.1027C100.189 47.5326 98.4784 40.9894 98.1343 40.2396C97.667 39.2278 96.573 39.2227 95.9259 40.0906L95.1966 44.677C93.5942 43.1671 93.5891 39.7004 90.5897 41.1641C90.6257 42.484 90.5178 49.1812 91.545 49.5664C92.1613 49.7975 92.6338 49.5458 92.7365 48.9141L92.7314 48.9193ZM84.1801 41.7393C79.9892 42.5148 80.5439 50.0697 84.4061 50.6758C91.3858 51.7748 90.5229 40.5632 84.1801 41.7393ZM79.0288 44.9338C79.188 44.8208 79.4757 43.583 79.2086 43.3057C75.6905 41.4773 72.0184 44.2302 72.5165 48.077C72.799 50.2751 74.9766 52.4168 77.2569 52.3192C78.5152 52.2627 81.643 50.3521 79.9841 49.0836C78.7926 48.1745 79.0802 49.6229 78.2328 50.0081C74.4065 51.744 72.9017 44.6359 77.0053 44.6565C77.5394 44.6565 78.7464 45.129 79.0288 44.9287V44.9338ZM62.101 54.2503C65.3058 54.7485 63.5904 52.0675 63.7496 50.3213C63.8985 48.7035 65.7885 46.2435 65.8861 44.7643C65.9323 44.0351 64.9616 44.0351 64.4737 44.184C63.539 44.4716 62.6865 47.5428 62.368 48.5084C61.4795 47.8253 60.3034 45.5142 59.3584 45.0828C58.3107 44.6051 57.679 45.8737 58.1361 46.8649C58.4493 47.5377 60.4061 48.9295 61.0019 49.741C61.988 51.0866 61.9315 52.6428 62.101 54.2503ZM55.5322 53.7059L54.6642 46.5054L54.2636 46.0842H52.9745C52.502 46.2435 52.5174 46.5465 52.5379 46.9625C52.579 47.7996 53.7705 55.0053 54.0171 55.3545C54.4485 55.9606 58.624 55.1594 59.1992 54.7742C61.5463 53.1975 56.3231 53.3926 55.5322 53.7059ZM47.9156 46.9111C47.5202 47.5377 48.9582 56.2482 49.5078 56.582C50.386 57.0186 51.0331 56.4793 51.0691 55.5394C51.105 54.5996 50.0727 48.2362 49.7183 47.3528C49.5797 47.0138 49.4205 46.7519 49.0507 46.6338L47.9156 46.9111ZM43.1444 48.3183C42.7849 48.0205 42.2302 47.8869 41.7783 48.0051C41.3366 48.2054 41.0284 48.5546 40.8333 48.9963C40.5457 49.6486 39.4106 55.9862 39.3849 56.8645C39.3695 57.2805 39.3182 57.8917 39.8369 58.0612C41.3469 58.5542 41.1568 56.6231 41.578 56.2995C41.7064 56.1968 44.5825 55.4007 44.7468 55.4315C45.2296 55.5086 45.9743 58.0047 47.3096 56.9672C47.4483 56.5101 47.2583 56.1197 47.1196 55.7037C46.8525 54.9231 43.5296 48.6368 43.1547 48.3286L43.1444 48.3183ZM31.9379 49.1196C30.9672 49.2736 29.5857 49.6896 29.524 50.8298C29.4932 51.4358 30.7258 58.3436 30.9672 58.9856C31.3781 60.0744 34.1258 59.0729 34.9321 58.6774C36.2161 58.0457 37.875 56.5306 38.178 55.0875C39.1384 50.5576 36.1904 48.4519 31.9379 49.1247V49.1196Z" fill="white"/>
<path d="M338.585 87.9108C338.94 88.3268 338.051 91.6959 337.887 92.4765C334.497 108.305 329.823 125.213 325.633 140.923C325.145 142.757 323.969 148.54 322.777 149.552C322.51 149.778 322.227 149.947 321.883 150.024L252.467 162.792L268.861 96.2C269.954 95.2704 276.472 94.7106 278.347 94.4744C296.8 92.1221 316.188 89.5131 334.656 87.8799C335.355 87.8183 338.251 87.5153 338.585 87.9108ZM298.618 117.211C291.52 118.243 290.349 131.258 299.85 129.65C306.137 128.587 308.453 115.778 298.618 117.211Z" fill="white"/>
<path d="M214.713 62.1805C214.631 65.5137 215.252 69.0164 216.351 72.1647C218.904 79.4628 225.606 84.1313 230.86 89.4007L231.944 89.2518C231.764 90.0478 231.21 90.546 230.927 91.378C229.556 95.4559 229.504 103.786 228.904 108.491C228.051 115.126 226.972 121.731 226.079 128.361C222.181 129.368 218.36 132.66 214.297 132.46C213.27 132.409 212.114 132.054 211.103 131.823C205.633 130.591 200.317 128.382 194.889 126.98C194.909 125.547 193.168 123.914 192.906 122.948C192.233 120.452 196.363 107.782 196.666 103.596C197.189 96.2879 195.115 85.3434 187.832 81.815C186.723 81.2758 183.769 80.0996 182.999 81.3168C192.187 83.9977 195.377 94.6444 194.755 103.329C194.319 109.425 191.54 115.162 191.201 121.238C189.938 120.683 189.003 119.923 187.637 119.476C175.172 115.393 163.406 127.53 164.392 139.979C164.494 141.268 165.003 142.418 165.085 143.661C159.436 138.294 161.12 129.717 162.342 122.876C164.351 111.613 169.43 88.0038 177.519 80.0791C184.899 72.8529 198.253 70.3979 207.888 67.6502C205.787 74.4964 207.528 83.2787 209.731 90.0016C210.255 91.5989 211.519 96.3341 213.784 94.9988C215.396 94.0538 217.949 89.94 219.777 88.4146C220.352 87.937 221.41 87.0998 222.099 86.9098C224.615 86.2164 225.961 88.5687 228.395 88.1475C228.282 87.5569 227.075 86.5452 226.618 86.237C222.253 83.2736 219.531 85.7542 216.495 88.9693C216.033 89.4572 213.347 93.2012 212.813 92.8006C211.596 89.5291 210.568 86.1702 209.885 82.7343C208.75 77.0129 207.687 70.4647 211.113 65.2672C211.442 64.769 214.241 61.6464 214.718 62.1753L214.713 62.1805Z" fill="#C4DEF8"/>
<path d="M277.078 92.8005C274.12 93.2422 268.214 92.9443 266.57 95.8307C263.874 105.645 261.999 115.691 259.334 125.516C259.236 125.886 259.519 126.281 258.892 126.158C258.343 125.675 257.762 125.249 257.942 124.422C258.99 120.082 260.104 115.753 261.08 111.398C262.338 105.794 264.388 98.7273 265.009 93.1805C265.122 92.1739 265.261 89.8012 264.999 88.8767C264.829 88.2707 264.408 88.5377 264.002 88.7688L252.729 137.097C251.425 135.315 250.659 133.492 249.185 131.761C243.258 124.813 236.299 125.249 228.123 127.802C228.786 122.167 229.844 116.58 230.547 110.951C231.256 105.276 231.4 98.83 232.345 93.3347C232.838 90.4483 234.646 89.4519 236.166 87.3103C237.881 84.8964 239.766 82.1076 240.167 79.1391C243.259 79.288 246.314 78.9285 249.18 77.7627C250.48 81.101 250.67 84.6345 251.096 88.1526C250.711 88.4556 249.165 86.5758 248.764 86.2471C247.629 85.3329 245.395 83.6278 243.921 83.8281C242.545 84.013 239.494 86.9045 238.508 88.0087C238.117 88.4453 235.914 91.0133 236.33 91.4344C239.109 91.3574 242.118 85.9544 244.399 85.9492C246.679 85.9441 249.206 90.0066 250.952 91.1776C253.037 92.5797 252.796 86.6529 252.739 85.5589C252.59 82.5287 251.681 79.5756 250.844 76.6892C253.53 75.6312 255.585 73.505 257.675 71.5996C258.712 71.1323 263.242 74.0238 264.316 74.8044C270.597 79.3805 273.432 86.206 277.083 92.7954L277.078 92.8005ZM234.759 96.9863C232.602 98.7222 235.945 101.629 237.434 99.5234C238.78 97.618 236.572 95.5277 234.759 96.9863ZM232.833 117.35C234.445 118.968 237.563 116.236 235.529 114.52C233.495 112.805 231.518 116.03 232.833 117.35Z" fill="#C4DEF8"/>
<path d="M218.351 46.2381C220.364 47.9586 220.641 43.1411 220.461 41.9496L227.96 44.1015C228.33 57.0594 245.668 57.8452 246.716 44.9541L251.344 45.7964C251.421 48.2205 252.627 50.4289 253.87 52.4319C254.369 53.2331 255.863 54.3836 255.699 55.421C255.478 56.818 253.002 57.9068 251.754 58.0557C251.04 58.143 248.683 57.5267 248.904 58.4871C252.155 61.1835 258.4 58.1276 256.839 53.7056C258.816 54.5068 260.588 54.363 262.581 53.7056C262.37 61.1321 259.386 68.2812 253.531 72.96C245.751 79.1796 238.201 77.8494 229.947 73.3401L225.109 69.5652C227.22 75.2404 233.64 77.0944 238.781 79.005C238.853 79.3542 236.419 83.7505 235.997 84.4131C235.597 85.0396 233.142 88.4961 232.664 88.4088C225.854 82.0146 218.515 76.7811 216.979 66.8843C216.399 63.1351 216.784 59.2473 215.67 55.6111L215.351 55.385C209.24 55.9243 204.17 51.6666 204.586 45.3546C205.064 38.0617 212.747 35.3089 216.502 41.9393C217.051 42.91 217.832 45.7964 218.351 46.2381ZM209.435 41.436C208.947 41.6003 208.716 42.2321 208.895 42.6943C209.25 43.5828 209.64 42.9819 210.138 43.1051C211.725 43.5057 212.362 45.4009 212.722 46.8133C212.901 47.5323 212.948 50.3211 213.754 50.1465C215.1 48.9704 214.381 45.7142 213.672 44.2196C213.055 42.9151 210.975 40.9173 209.435 41.4309V41.436ZM233.075 59.7557C232.084 62.5753 234.395 66.8176 236.619 68.5843C241.139 72.164 245.725 71.3011 249.448 67.2438C249.808 66.8535 249.9 66.2012 250.275 65.8828C250.681 65.5336 251.759 65.4822 251.903 65.0508C252.391 63.5614 248.329 64.1828 247.399 64.1006C243.866 63.7873 239.937 62.5239 236.675 61.1475C235.484 60.6442 234.518 59.4219 233.07 59.766L233.075 59.7557Z" fill="#FCF7ED"/>
<path d="M236.325 130.539C237.64 131.987 239.581 132.824 241.101 134.098C244.111 136.619 247.141 140.723 248.153 144.544C248.44 145.628 249.278 149.156 247.901 149.629C247.429 149.731 246.879 149.762 246.437 149.536C246.104 149.367 243.669 143.928 243.002 142.859C241.322 140.184 238.805 136.897 235.965 135.402C234.62 134.699 232.673 133.805 231.41 135.043C236.428 137.2 240.351 141.55 242.76 146.383C243.274 147.415 245.308 151.287 242.986 151.513C240.665 151.739 238.23 146.788 236.864 145.165C234.877 142.808 230.552 138.479 227.301 139.963C230.208 141.683 233.048 143.645 235.226 146.259C235.955 147.138 238.179 149.849 237.409 150.871C237.116 151.277 236.315 151.503 235.863 151.503C233.798 151.493 229.741 146.116 227.096 145.89C226.32 145.823 223.665 147.225 222.586 147.554C219.212 148.571 217.112 148.571 213.753 147.492C212.987 147.245 211.041 146.105 210.496 146.1C210.404 146.1 210.373 146.593 209.767 146.763C205.304 147.995 191.971 147.256 186.99 146.629C183.42 146.177 180.349 146.254 179.779 142.079C178.782 134.76 184.165 127.092 192.079 128.417C199.182 129.604 211.508 135.803 217.99 133.933C219.613 133.466 221.112 132.393 222.663 131.766C229.633 128.967 239.186 125.51 245.631 130.934C247.953 132.891 252.744 139.922 252.19 142.957C252.015 143.902 250.875 144.323 250.135 143.656C249.668 143.234 247.644 138.679 246.782 137.441C244.465 134.118 240.634 130.554 236.33 130.533L236.325 130.539Z" fill="#FCF7ED"/>
<path d="M28.6913 119.563L2.19531 124.247L15.8722 40.8555L28.6913 119.563Z" fill="white"/>
<path d="M263.673 35.1127C257.495 32.2828 251.553 37.6139 251.64 43.8643L246.756 43.0066C244.979 32.2007 230.439 31.5689 228.39 42.493L221.549 40.1664C223.439 33.4076 226.911 27.0596 226.479 19.8026C227.861 20.4446 229.191 21.2356 230.588 21.8467C232.124 22.5144 237.054 24.6304 238.425 24.6458C240.962 24.6817 238.805 20.1775 238.379 18.9809C240.146 19.6331 241.805 20.5114 243.566 21.1739C245.205 21.7902 251.599 24.2503 252.873 24.199C255.374 24.1065 252.59 19.6177 251.64 18.7087C252.323 18.2156 260.52 21.4769 261.393 22.35C261.886 22.8431 262.425 24.0911 262.656 24.7793C263.001 25.8065 263.673 28.8007 263.673 29.7765V35.1076V35.1127ZM253.278 29.643L262.4 30.4185L262.867 29.7817C261.295 26.5974 253.838 25.2415 253.283 29.643H253.278ZM236.263 27.8044C234.733 27.9892 228.354 30.1874 229.879 32.3907C230.449 33.2124 232.884 31.5792 233.741 31.2967C235.462 30.7318 241.019 30.2695 241.779 29.7662C242.668 29.1756 242.103 28.4207 241.307 28.0714C240.105 27.5527 237.588 27.64 236.263 27.7992V27.8044Z" fill="#FCF7ED"/>
<path d="M192.829 126.707C185.002 124.175 178.31 131.848 177.781 139.136C177.57 142.017 178.033 145.273 180.549 147.05L184.35 148.304C173.739 152.453 164.941 147.338 166.374 135.397C167.463 126.317 177.951 118.7 186.866 121.32C189.342 122.049 192.002 124.211 192.824 126.707H192.829Z" fill="#C4DEF8"/>
<path d="M57.72 116.867L39.6725 119.866L37.2227 103.755L55.0031 100.848L57.72 116.867Z" fill="white"/>
<path d="M49.225 65.4785L51.9676 82.1291L33.9252 85.149L31.3008 68.18L49.225 65.4785ZM44.4949 70.1317C43.5345 70.296 41.3055 75.9968 40.3553 76.9367L38.111 75.0621C34.6494 75.4781 40.0421 79.5817 40.8484 79.3762C41.4082 79.2324 45.0444 72.6533 45.2961 71.7545C45.522 70.9534 45.3885 70.3217 44.5 70.1317H44.4949Z" fill="white"/>
<path d="M52.2355 83.7871L54.6904 99.0715L36.6584 102.102L34.3164 86.7813L52.2355 83.7871Z" fill="white"/>
<path d="M76.3211 113.585L59.3624 116.318L56.625 100.463L73.6042 97.8438L76.3211 113.585Z" fill="white"/>
<path d="M29.2727 121.238L32.5546 141.196L3.5625 126.158L4.25585 125.624C12.5811 124.099 20.9526 122.784 29.2676 121.238H29.2727Z" fill="white"/>
<path d="M67.8376 62.457L70.575 79.1332L53.6163 81.8707L50.8789 64.9171L67.8376 62.457ZM56.6516 72.0509C56.1432 72.7802 59.122 75.7179 59.7589 76.139C60.0156 76.3085 60.1954 76.4934 60.5344 76.365C60.9709 76.1544 61.2328 75.7693 61.4999 75.3944C62.0905 74.5623 64.9461 69.6832 65.1772 68.9334C65.3467 68.3838 65.0539 67.6391 64.4222 67.634C63.3437 67.6288 60.8631 72.8007 60.4471 73.9357C59.8616 74.362 57.6788 70.5769 56.6465 72.0509H56.6516Z" fill="white"/>
<path d="M70.8371 80.7812L73.3126 96.081L56.6158 98.7054L53.8887 83.5084L70.8371 80.7812Z" fill="white"/>
<path d="M57.9613 118.535L60.4368 132.428L42.4047 135.73L39.9395 121.514L57.9613 118.535Z" fill="white"/>
<path d="M93.0021 110.569L77.9591 113.312L75.3398 97.4418L90.275 94.8379L93.0021 110.569Z" fill="white"/>
<path d="M76.5793 115.234L79.0548 129.168L62.0961 132.178L59.9082 117.961L76.5793 115.234Z" fill="white"/>
<path d="M109.685 107.837L94.6471 110.302L92.1973 94.4583L106.963 92.0957L109.685 107.837Z" fill="white"/>
<path d="M87.2262 76.3656L72.214 78.8566L69.4766 61.903L84.535 59.8281L87.2262 76.3605V76.3656ZM78.4284 73.0376C79.055 71.7742 82.8196 66.0682 82.5731 65.113C82.3779 64.358 81.4432 64.1988 80.9501 64.8408L77.545 70.9268C76.6257 70.1821 74.936 67.9274 74.2529 69.8174C74.1091 70.521 76.9082 73.2379 77.5913 73.3252L78.4233 73.0376H78.4284Z" fill="white"/>
<path d="M89.9946 93.3494L74.9515 95.5373L72.4863 80.4994L87.5447 78.1523L89.9946 93.3494Z" fill="white"/>
<path d="M103.922 73.644L88.8992 76.1297L86.4648 59.4741L101.205 56.9883L103.922 73.644ZM95.1445 70.6087C95.5245 70.3827 99.3405 63.3311 99.3046 62.8689C99.2429 62.1139 98.5239 62.0112 97.9179 62.3142C97.0756 62.7405 95.2421 67.1266 94.636 68.2C94.256 68.277 94.2868 68.2564 94.0711 68.0253C93.5472 67.4706 93.0901 66.1815 92.0475 66.2637C89.5926 66.4589 94.0249 71.266 95.1393 70.6087H95.1445Z" fill="white"/>
<path d="M104.215 75.3027L106.67 90.3355L91.6371 92.8058L89.1719 77.768L104.215 75.3027Z" fill="white"/>
<path d="M125.276 105.106L111.353 107.269L108.59 91.712L122.811 89.252L125.276 105.106Z" fill="white"/>
<path d="M120.06 72.8672L122.546 87.8794L108.319 90.0673L105.859 75.0345L120.06 72.8672Z" fill="white"/>
<path d="M138.132 86.7852L140.587 102.362L127.172 104.442L124.455 88.9782L138.132 86.7852Z" fill="white"/>
<path d="M117.059 54.8145L119.812 71.2031L105.586 73.3961L102.854 56.7147L117.059 54.8145ZM110.778 65.4611L108.133 63.5865C105.391 64.1309 109.797 67.572 110.388 67.6593C110.722 67.7107 111.025 67.6696 111.333 67.5155C112.35 67.007 114.584 61.4449 115.657 60.3304L115.159 59.0208C114.871 58.8307 114.63 58.8616 114.337 59.0208C113.747 59.3341 111.251 64.4442 110.778 65.4611Z" fill="white"/>
<path d="M93.2757 112.215L95.4431 126.138L80.6825 128.783L78.3457 114.942L93.2757 112.215Z" fill="white"/>
<path d="M109.937 109.512L112.13 123.132L97.1071 125.89L94.9141 111.946L109.937 109.512Z" fill="white"/>
<path d="M137.548 85.1128L124.184 87.3367L121.719 72.5761L135.144 70.4961L137.548 85.1128Z" fill="white"/>
<path d="M132.107 52.3398L134.84 68.7284L121.45 70.9266L118.713 54.2504L132.107 52.3398ZM129.555 57.0186C128.918 57.2292 126.648 62.3189 125.687 62.9968C125.461 62.9968 123.171 59.756 122.575 61.5382C122.118 62.9043 124.922 64.3629 125.739 65.4312C125.975 65.5185 126.16 65.4517 126.37 65.3387C126.73 65.1436 130.556 58.9138 130.685 58.4207C130.792 58.015 130.834 57.6298 130.623 57.2446C130.402 56.9261 129.894 56.9056 129.555 57.0186Z" fill="white"/>
<path d="M152.082 157.882C151.229 160.465 152.369 164.949 149.986 166.582C145.641 169.556 133.711 169.957 129.52 166.629C127.353 164.908 128.323 160.876 127.471 158.427C135.236 161.169 144.594 161.626 152.087 157.877L152.082 157.882Z" fill="white"/>
<path d="M125.826 106.75L127.464 117.684C125.333 117.9 124.311 119.379 123.366 121.11L114.055 122.764L111.6 108.938L125.821 106.75H125.826Z" fill="white"/>
<path d="M235.705 36.5417C247.266 34.5952 248.046 52.3499 237.507 52.504C227.96 52.6426 227.806 37.8719 235.705 36.5417ZM237.343 44.1992C236.105 44.456 233.64 46.6953 234.826 47.9639C235.628 48.1898 236.804 45.8222 239.141 46.3769C239.932 46.5669 240.651 47.7533 241.678 46.8853C242.053 44.7077 239.141 43.8243 237.343 44.1992Z" fill="#FCF7ED"/>
<path d="M154.27 134.364L153.746 139.716C152.714 141.149 145.097 142.196 143.207 142.304C137.537 142.622 130.573 142.448 125.545 139.649L125.283 134.092C134.559 137.024 144.902 136.696 154.27 134.364Z" fill="white"/>
<path d="M143.054 116.044C138.401 115.998 133.655 116.157 129.11 117.143L127.477 106.214L140.881 104.129L143.054 116.044Z" fill="white"/>
<path d="M123.875 126.199C123.941 126.24 124.06 126.784 124.296 126.99C128.723 130.842 149.729 130.795 154.474 127.324C154.952 126.974 155.127 126.594 155.491 126.178C157.525 127.529 157.171 130.698 155.003 131.956C150.432 134.611 138.887 134.622 133.617 134.087C130.88 133.81 123.443 132.881 122.478 129.917C122.139 128.869 122.555 125.439 123.875 126.199Z" fill="white"/>
<path d="M230.034 149.948L222.022 150.826C221.21 151.109 221.277 151.833 221.734 152.434L246.371 159.177L251.363 158.7L250.377 162.269L203.502 149.132C204.539 149.075 205.603 149.204 206.645 149.127C207.914 149.029 210.656 148.284 211.586 148.336C211.889 148.351 213.532 149.316 214.179 149.527C218.684 151.006 223.172 149.912 227.158 147.57L230.029 149.948H230.034Z" fill="white"/>
<path d="M263.643 37.0621L262.555 52.0383C248.755 55.7824 251.143 31.541 263.643 37.0621ZM261.486 46.8665C261.055 42.5523 255 42.4085 254.923 47.0052C255.061 48.0118 257.203 45.4541 257.393 45.3668C259.278 44.4937 259.786 47.149 261.486 46.8665Z" fill="#FCF7ED"/>
<path d="M153.993 121.786L153.936 125.145C153.762 125.608 153.361 125.844 152.986 126.111C149.067 128.92 130.45 128.597 126.172 126.214C124.482 125.274 124.806 121.822 125.406 121.786C134.127 125.053 145.19 124.719 153.988 121.781L153.993 121.786Z" fill="white"/>
<path d="M248.086 163.891C246.853 163.824 245.585 164.358 244.388 164.435C240.998 164.656 233.371 162.068 229.699 161.082C220.516 158.622 211.395 155.869 202.258 153.244C201.077 153.131 200.789 150.589 202.207 150.815L248.086 163.891Z" fill="white"/>
<path d="M153.72 121.51C152.59 121.566 151.435 121.438 150.305 121.51C147.639 121.695 144.774 122.234 142.108 122.337C136.664 122.547 130.922 121.844 125.545 121.094C125.545 120.529 126.023 120.087 126.439 119.805C130.162 117.298 147.28 117.519 151.604 119.111C152.729 119.527 153.782 120.128 153.715 121.51H153.72Z" fill="white"/>
<path d="M264.496 50.424C264.743 47.2038 264.809 43.9426 265.046 40.7224C265.071 40.3577 265.179 39.0686 265.585 38.9453C267.932 42.4788 268.117 47.6712 264.496 50.4291V50.424Z" fill="#FCF7ED"/>
<path d="M257.65 127.529C257.717 127.586 258.287 128.772 258.462 129.014C257.594 131.546 257.414 134.951 256.428 137.37C255.986 138.458 255.427 138.202 254.379 138.186L257.111 127.694L257.65 127.529Z" fill="white"/>
<path d="M125.821 18.9767L117.619 20.0707C118.682 16.5629 124.27 15.3354 125.821 18.9767Z" fill="white"/>
<path d="M110.779 21.1646L102.85 22.2586C103.666 19.7934 106.373 18.7457 108.792 19.4647C109.167 19.5777 111.272 20.6921 110.779 21.1646Z" fill="white"/>
<path d="M95.7345 23.6257L87.8047 24.7196C88.8935 21.6895 92.8378 20.7239 95.2774 22.8553C95.5547 23.0967 95.8526 23.1121 95.7345 23.6257Z" fill="white"/>
<path d="M64.2826 28.2738L56.9023 29.3677C57.041 27.2774 59.7785 26.1526 61.6171 26.4197C62.0947 26.4864 64.9092 27.6729 64.2826 28.2738Z" fill="white"/>
<path d="M48.4193 30.734L41.0391 31.8279C42.02 28.8953 45.5997 27.8938 47.9674 29.9636C48.2447 30.205 48.5426 30.2255 48.4245 30.734H48.4193Z" fill="white"/>
<path d="M80.1478 25.8124L72.4902 26.9063C73.276 23.6091 78.3195 23.2188 80.1478 25.8124Z" fill="white"/>
<path d="M32.5534 33.198L25.4453 34.2919C26.0257 31.4877 29.6054 30.5941 31.8292 32.1503C32.2041 32.4122 32.651 32.6536 32.5534 33.198Z" fill="white"/>
<path d="M255.739 139.834C255.965 140.06 254.511 145.612 254.116 146.002C253.468 146.644 251.46 146.665 250.541 146.665V145.848C254.213 145.961 254.532 143.039 253.823 140.106L255.739 139.834Z" fill="white"/>
<path d="M108.802 38.1749C109.126 39.4999 111.206 46.1047 110.661 46.8802C109.223 48.9243 108.232 43.018 108.042 42.2168C107.652 42.15 107.662 42.6996 107.58 42.982C107.272 44.1119 107.354 46.6337 105.705 46.5926C104.719 46.5669 104.128 43.2286 103.122 42.7612C102.808 43.8706 103.779 47.4863 102.855 48.1026L101.776 48.2001C101.355 47.9228 101.062 40.8301 101.191 39.8749C101.355 38.6474 102.213 38.3033 103.276 38.9093L105.849 43.3005C106.229 41.6159 106.188 37.1631 108.797 38.1646L108.802 38.1749Z" fill="black"/>
<path d="M92.7308 48.9199C92.6281 49.5516 92.1556 49.8033 91.5393 49.5722C90.5069 49.187 90.6199 42.4847 90.584 41.1699C93.5885 39.7113 93.5885 43.1729 95.1909 44.6828L95.9202 40.0964C96.5673 39.2285 97.6612 39.2336 98.1286 40.2454C98.4727 40.9901 100.183 47.5384 100.121 48.1085C100.085 48.432 99.9929 48.6426 99.6745 48.7658C97.8769 49.3564 98.0824 44.7907 96.9679 43.8714C96.7265 45.2324 96.7419 48.8121 94.5027 47.6976L92.7256 44.688C92.5767 45.9925 92.9311 47.6822 92.7256 48.9251L92.7308 48.9199Z" fill="black"/>
<path d="M31.9379 49.1192C36.1904 48.4516 39.1384 50.5573 38.178 55.082C37.8698 56.52 36.2161 58.0351 34.9321 58.672C34.1258 59.0674 31.3781 60.0689 30.9672 58.9801C30.7258 58.3381 29.4932 51.4355 29.524 50.8243C29.5856 49.6841 30.9672 49.2682 31.9379 49.1141V49.1192ZM32.5593 57.2596C37.6952 56.9206 37.839 49.4736 32.0457 50.999L32.5593 57.2596Z" fill="black"/>
<path d="M84.1796 41.7389C90.5276 40.5628 91.3853 51.7745 84.4056 50.6754C80.5434 50.0694 79.9887 42.5145 84.1796 41.7389ZM84.4467 43.6392C82.1458 44.3223 83.0189 49.7201 86.2494 48.7289C88.0212 48.1845 87.6977 42.6736 84.4467 43.6392Z" fill="black"/>
<path d="M43.1453 48.3175C43.5202 48.6308 46.8431 54.912 47.1102 55.6926C47.254 56.1087 47.444 56.5042 47.3002 56.9561C45.97 57.9936 45.2202 55.5027 44.7374 55.4205C44.5731 55.3948 41.7021 56.1908 41.5686 56.2884C41.1526 56.612 41.3426 58.5482 39.8275 58.0501C39.3139 57.8806 39.3601 57.2745 39.3755 56.8534C39.4064 55.9751 40.5414 49.6323 40.8239 48.9852C41.019 48.5435 41.3272 48.1994 41.7689 47.994C42.2208 47.8758 42.7755 48.0094 43.135 48.3072L43.1453 48.3175ZM41.8562 54.2495C42.2568 54.2649 44.0338 53.926 44.0389 53.5664L42.6728 51.245C42.2722 51.1628 42.3954 51.5583 42.3184 51.8407C42.2157 52.2157 41.7689 54.1622 41.8562 54.2495Z" fill="black"/>
<path d="M124.537 43.5107C123.947 42.8225 124.234 41.9392 124.871 41.3999C125.154 41.3331 127.116 43.5261 128.559 42.0881C130.233 40.424 126.052 40.0491 125.39 39.7769C122.411 38.5546 123.972 34.1069 127.845 34.5846C130.731 34.9389 129.339 37.1268 128.477 36.9779C128.266 36.9419 127.978 36.5568 127.583 36.4849C126.71 36.3205 125.416 36.4489 125.842 37.6815C126.104 38.4468 130.11 37.9588 130.685 40.5011C131.476 43.9832 126.32 45.5959 124.532 43.5107H124.537Z" fill="black"/>
<path d="M79.0297 44.9341C78.7472 45.1293 77.5352 44.6619 77.0062 44.6619C72.9026 44.6414 74.4126 51.7494 78.2337 50.0135C79.0811 49.6283 78.7935 48.1748 79.985 49.089C81.6439 50.3576 78.5161 52.2682 77.2578 52.3247C74.9775 52.4222 72.7999 50.2806 72.5174 48.0824C72.0244 44.2356 75.6914 41.4828 79.2095 43.3112C79.4714 43.5885 79.1889 44.8314 79.0297 44.9393V44.9341Z" fill="black"/>
<path d="M62.1001 54.2501C61.9306 52.6425 61.9871 51.0915 61.001 49.7408C60.4053 48.9293 58.4485 47.5375 58.1352 46.8647C57.6781 45.8786 58.3098 44.6049 59.3576 45.0825C60.3026 45.5139 61.4787 47.8199 62.3672 48.5081C62.6856 47.5426 63.5382 44.4662 64.4729 44.1838C64.9608 44.0348 65.9315 44.0348 65.8853 44.7641C65.7877 46.2432 63.8977 48.7033 63.7487 50.3211C63.5895 52.0673 65.3049 54.7483 62.1001 54.2501Z" fill="black"/>
<path d="M121.965 37.2726L119.803 37.5705L120.835 44.7813C117.774 48.0682 118.493 38.7363 117.887 38.1149L115.329 38.3666C114.354 37.5654 114.872 36.8926 115.91 36.5536C116.547 36.3482 120.763 35.6138 121.308 35.6497C121.636 35.6703 121.852 35.7781 121.944 36.1119L121.96 37.2726H121.965Z" fill="black"/>
<path d="M55.5314 53.7056C56.3223 53.3923 61.5455 53.1921 59.1984 54.7739C58.6232 55.1591 54.4477 55.9603 54.0163 55.3543C53.7698 55.005 52.5782 47.7993 52.5371 46.9622C52.5166 46.5462 52.5012 46.2432 52.9737 46.084H54.2628L54.6634 46.5L55.5314 53.7005V53.7056Z" fill="black"/>
<path d="M47.9152 46.9101L49.0502 46.6328C49.42 46.7509 49.5844 47.0128 49.7179 47.3518C50.0723 48.2352 51.1046 54.5575 51.0686 55.5384C51.0327 56.5194 50.3856 57.0176 49.5073 56.581C48.9526 56.2472 47.5146 47.5367 47.9152 46.9101Z" fill="black"/>
<path d="M113.228 37.5902C113.27 39.475 114.913 44.8369 114.199 46.3212C113.783 47.184 112.843 46.9735 112.494 46.1158C112.186 45.3557 111.426 39.4699 111.426 38.4736C111.426 37.1948 112.165 37.5696 113.228 37.5902Z" fill="black"/>
<path d="M298.618 117.211C308.453 115.778 306.137 128.592 299.851 129.65C290.349 131.258 291.526 118.244 298.618 117.211ZM298.885 118.844C294.879 119.584 292.938 127.093 297.473 127.786C304.134 128.803 306.558 117.427 298.885 118.844Z" fill="black"/>
<path d="M232.833 117.351C231.519 116.031 233.424 112.749 235.53 114.521C237.635 116.293 234.451 118.968 232.833 117.351Z" fill="black"/>
<path d="M234.76 96.9868C236.573 95.5283 238.781 97.6186 237.435 99.524C235.946 101.63 232.603 98.7228 234.76 96.9868Z" fill="black"/>
<path d="M233.075 59.7555C234.523 59.4114 235.494 60.6337 236.68 61.1371C239.936 62.5135 243.87 63.7769 247.404 64.0902C248.334 64.1724 252.396 63.556 251.908 65.0403C251.764 65.4769 250.691 65.5231 250.28 65.8723C249.91 66.1907 249.813 66.843 249.453 67.2333C245.724 71.2907 241.143 72.1586 236.624 68.5738C234.4 66.8122 232.089 62.5648 233.08 59.7452L233.075 59.7555Z" fill="black"/>
<path d="M209.434 41.4361C210.975 40.9225 213.055 42.9204 213.671 44.2249C214.38 45.7195 215.099 48.9756 213.753 50.1517C212.947 50.3212 212.901 47.5376 212.721 46.8186C212.362 45.4062 211.725 43.511 210.138 43.1104C209.64 42.982 209.249 43.5881 208.895 42.6996C208.71 42.2373 208.946 41.6056 209.434 41.4412V41.4361Z" fill="black"/>
<path d="M236.264 27.8063C237.594 27.6471 240.111 27.5546 241.308 28.0785C242.104 28.4226 242.669 29.1827 241.78 29.7733C241.02 30.2766 235.458 30.7388 233.743 31.3038C232.885 31.5863 230.45 33.2195 229.88 32.3977C228.355 30.1893 234.734 27.9963 236.264 27.8114V27.8063Z" fill="black"/>
<path d="M253.279 29.644C253.833 25.2426 261.291 26.5933 262.862 29.7827L262.395 30.4195L253.273 29.644H253.279Z" fill="black"/>
<path d="M44.4942 70.1309C45.3827 70.3158 45.5163 70.9474 45.2903 71.7538C45.0386 72.6474 41.4024 79.2265 40.8426 79.3754C40.0363 79.586 34.6436 75.4773 38.1052 75.0613L40.3496 76.9359C41.2997 75.996 43.5287 70.2952 44.4891 70.1309H44.4942Z" fill="black"/>
<path d="M56.6505 72.0517C57.6777 70.5777 59.8604 74.3679 60.4511 73.9365C60.8671 72.8015 63.3477 67.6296 64.4263 67.6348C65.0528 67.6348 65.3456 68.3795 65.1812 68.9342C64.9501 69.6891 62.0997 74.5631 61.5039 75.3951C61.2369 75.7752 60.9749 76.1603 60.5384 76.3658C60.1994 76.4942 60.0145 76.3093 59.7629 76.1398C59.1312 75.7135 56.1472 72.7758 56.6557 72.0517H56.6505Z" fill="black"/>
<path d="M78.4276 73.0384L77.5956 73.326C76.9126 73.2336 74.1135 70.5167 74.2573 69.8182C74.9455 67.9282 76.6301 70.1829 77.5494 70.9276L80.9545 64.8416C81.4475 64.1996 82.3823 64.3588 82.5774 65.1138C82.824 66.0742 79.0594 71.775 78.4328 73.0384H78.4276Z" fill="black"/>
<path d="M95.146 70.6094C94.0315 71.2616 89.5992 66.4596 92.0542 66.2644C93.0968 66.1823 93.5487 67.4662 94.0777 68.026C94.2934 68.2571 94.2626 68.2777 94.6427 68.2007C95.2487 67.1273 97.0822 62.7412 97.9245 62.3149C98.5254 62.0119 99.2496 62.1147 99.3112 62.8696C99.3471 63.3319 95.5312 70.3885 95.1511 70.6094H95.146Z" fill="black"/>
<path d="M110.779 65.4603C111.251 64.4485 113.747 59.3384 114.338 59.02C114.63 58.8659 114.872 58.8351 115.159 59.02L115.658 60.3296C114.584 61.4441 112.35 67.0062 111.333 67.5147C111.03 67.6687 110.722 67.7047 110.388 67.6585C109.798 67.5712 105.391 64.1352 108.134 63.5857L110.779 65.4603Z" fill="black"/>
<path d="M129.555 57.0176C129.899 56.9046 130.402 56.9251 130.623 57.2436C130.834 57.6287 130.793 58.014 130.685 58.4197C130.557 58.9127 126.73 65.1426 126.371 65.3377C126.16 65.4507 125.975 65.5175 125.739 65.4302C124.923 64.3568 122.118 62.9033 122.575 61.5371C123.171 59.755 125.462 62.9958 125.688 62.9958C126.648 62.3178 128.918 57.2282 129.555 57.0176Z" fill="black"/>
<path d="M237.343 44.1986C239.14 43.8237 242.052 44.7122 241.677 46.8847C240.65 47.7527 239.931 46.5612 239.14 46.3763C236.803 45.8216 235.627 48.1841 234.826 47.9632C233.64 46.6947 236.105 44.4554 237.343 44.1986Z" fill="black"/>
<path d="M261.486 46.864C259.786 47.1465 259.272 44.4912 257.392 45.3643C257.202 45.4516 255.061 48.0042 254.922 47.0027C254.999 42.4061 261.054 42.555 261.486 46.864Z" fill="black"/>
<path d="M32.5585 57.2605L32.0449 50.9999C37.8382 49.4694 37.6944 56.9215 32.5585 57.2605Z" fill="white"/>
<path d="M84.4471 43.6386C87.6982 42.6731 88.0217 48.1839 86.2498 48.7283C83.0194 49.7195 82.1463 44.3217 84.4471 43.6386Z" fill="white"/>
<path d="M41.855 54.2499C41.7677 54.1626 42.2145 52.216 42.3172 51.8411C42.3943 51.5586 42.2659 51.1632 42.6716 51.2454L44.0377 53.5668C44.0377 53.9263 42.2556 54.2653 41.855 54.2499Z" fill="white"/>
<path d="M298.886 118.845C306.559 117.428 304.135 128.804 297.474 127.787C292.939 127.093 294.88 119.585 298.886 118.845Z" fill="white"/>
</svg>
