<svg width="178" height="988" viewBox="0 0 178 988" fill="none" xmlns="http://www.w3.org/2000/svg">
<path d="M30.4375 178.059L112.14 178.059C122.115 178.059 131.556 181.345 139.115 187.447V187.447C165.326 208.609 159.052 252.932 127.356 270.516L93.3958 289.356C64.3227 305.485 47.4126 338.822 51.9728 371.019L77.5231 551.411C82.5704 587.047 81.5818 623.866 74.6004 660.258L58.3945 744.736C49.0617 793.386 48.6301 842.622 57.1227 889.804L114.116 1206.44" stroke="#EBD7B5" stroke-width="44.0583" stroke-linecap="round"/>
<path d="M30.437 178.059L117.815 178.059C146.492 178.059 165.451 205.731 156.778 234.928V234.928C152.841 248.185 143.682 259.514 131.68 265.973L111.308 276.937C65.8742 301.389 43.5579 356.81 60.3801 403.413L79.1605 455.442C85.1607 472.064 88.2294 489.905 88.2294 508.166L88.2294 555.261C88.2294 581.343 85.6558 607.594 80.5486 633.603L58.9006 743.853C49.2357 793.075 48.6867 842.937 57.2837 890.698L114.116 1206.44" stroke="url(#paint0_linear_2024_103)" stroke-width="6.29404" stroke-linecap="round"/>
<g opacity="0.5">
<path d="M65.5694 555.531H58.9695V554.858L61.0103 553.252V541.246L55.2137 555.531H54.0196L48.2665 541.094V553.512L50.546 554.663L50.1118 555.531H45.0317V554.858L47.0724 553.252V540.53L44.8146 539.314L45.2488 538.446H49.9599L55.3874 552.08L60.7932 538.446H65.7865V539.119L63.724 540.725V553.86L66.0036 554.663L65.5694 555.531ZM75.69 555.553C75.111 555.669 74.4163 555.727 73.6058 555.727C72.6506 555.727 71.7894 555.481 71.0223 554.989C70.2697 554.482 69.6763 553.802 69.2421 552.948C68.8224 552.094 68.6125 551.153 68.6125 550.126C68.6125 549.011 68.9526 547.969 69.6329 546.999C70.3131 546.015 71.1598 545.234 72.1729 544.655C73.2005 544.061 74.192 543.765 75.1472 543.765C76.5222 543.765 77.586 544.307 78.3386 545.393C79.1057 546.478 79.4892 547.911 79.4892 549.691H71.4565C71.5433 550.922 71.8762 551.928 72.4552 552.709C73.0486 553.491 73.8518 553.882 74.865 553.882C75.8057 553.882 77.1445 553.151 78.8813 551.689L79.5326 552.514L75.69 555.553ZM73.888 545.588C72.3249 545.588 71.5072 546.659 71.4348 548.801H76.5149C76.3847 548.02 76.2472 547.426 76.1025 547.021C75.9722 546.601 75.7334 546.261 75.386 546.001C75.0531 545.726 74.5538 545.588 73.888 545.588ZM95.3501 555.51H91.2252V553.947L89.2061 555.553C88.743 555.669 88.1858 555.727 87.5345 555.727C86.5792 555.727 85.7181 555.481 84.951 554.989C84.1984 554.482 83.605 553.802 83.1708 552.948C82.751 552.094 82.5412 551.153 82.5412 550.126C82.5412 549.011 82.8813 547.969 83.5615 546.999C84.2418 546.015 85.0885 545.234 86.1016 544.655C87.1292 544.061 88.1206 543.765 89.0759 543.765C89.8719 543.765 90.5956 543.989 91.2469 544.438V539.965L89.3147 538.619V537.946L93.0271 536.557H93.8521V553.882L95.7843 554.641L95.3501 555.51ZM88.6417 553.882C89.0759 553.882 89.4884 553.824 89.8792 553.708C90.2844 553.578 90.7331 553.339 91.2252 552.991V548.042C91.1383 547.318 90.7982 546.732 90.2048 546.283C89.6259 545.82 88.8298 545.588 87.8167 545.588C86.1812 545.588 85.3635 546.753 85.3635 549.084C85.3635 550.444 85.6457 551.587 86.2102 552.514C86.7746 553.426 87.5851 553.882 88.6417 553.882ZM103.602 555.51H97.5445V554.837L99.4767 553.317V546.978L97.5445 545.632V544.959L101.257 543.569H102.082V553.882L104.036 554.641L103.602 555.51ZM100.692 537.056C101.127 537.056 101.481 537.215 101.756 537.534C102.046 537.852 102.19 538.25 102.19 538.728C102.19 539.061 102.089 539.379 101.886 539.683C101.684 539.973 101.431 540.204 101.127 540.378C100.823 540.552 100.526 540.638 100.237 540.638C99.8023 540.638 99.4405 540.479 99.151 540.161C98.876 539.842 98.7385 539.444 98.7385 538.967C98.7385 538.634 98.8398 538.323 99.0425 538.033C99.2451 537.729 99.4984 537.49 99.8023 537.317C100.106 537.143 100.403 537.056 100.692 537.056ZM118.77 555.51H114.645V553.252L111.888 555.553C111.584 555.669 111.186 555.727 110.694 555.727C109.709 555.727 108.928 555.43 108.349 554.837C107.77 554.229 107.481 553.411 107.481 552.384V547.195L105.548 546.066V545.393L109.261 543.569H110.086V551.298C110.086 552.094 110.209 552.651 110.455 552.97C110.701 553.288 111.142 553.447 111.779 553.447C112.228 553.447 112.669 553.368 113.103 553.209C113.538 553.035 114.051 552.702 114.645 552.21V547.195L112.713 546.066V545.393L116.425 543.569H117.25V553.882L119.204 554.641L118.77 555.51ZM141.57 555.51H137.445V548.193C137.445 547.397 137.322 546.84 137.076 546.522C136.83 546.203 136.389 546.044 135.752 546.044C135.303 546.044 134.862 546.131 134.427 546.305C133.993 546.464 133.479 546.79 132.886 547.282V553.882L134.84 554.641L134.406 555.51H130.281V548.193C130.281 547.397 130.158 546.84 129.912 546.522C129.666 546.203 129.224 546.044 128.587 546.044C128.139 546.044 127.697 546.131 127.263 546.305C126.829 546.464 126.315 546.79 125.722 547.282V553.882L127.676 554.641L127.241 555.51H121.184V554.837L123.117 553.317V547.173L121.184 546.044V545.371L124.897 543.548L125.591 546.326L128.479 543.917C128.783 543.801 129.181 543.743 129.673 543.743C130.512 543.743 131.207 543.975 131.757 544.438C132.307 544.886 132.654 545.509 132.799 546.305L135.621 543.938C135.925 543.823 136.323 543.765 136.816 543.765C137.8 543.765 138.581 544.069 139.16 544.676C139.739 545.27 140.029 546.08 140.029 547.108V553.882L142.004 554.641L141.57 555.51Z" fill="black"/>
<path d="M19.3231 579.018H6.29712V578.345L8.33786 576.738L8.33786 563.582L6.08002 562.822L6.51422 561.954H19.106L20.2784 561.563V566.556L19.6271 566.773L17.0436 562.93H11.0516V569.813H14.4601L16.0449 567.034H16.7179V573.633L15.8495 574.068L14.4818 570.789H11.0516V578.041H16.9567L19.8442 573.764L20.4955 573.981V579.408L19.3231 579.018ZM35.3115 579.018H32.0767L28.6683 574.458L26.2585 576.716L28.2775 578.171L27.8433 579.039H23.0888V578.366L28.0604 573.633L24.9124 569.552L23.002 568.358L23.4362 567.49H26.671L30.036 571.984L32.359 569.813L30.3399 568.358L30.7741 567.49H35.5286V568.163L30.6439 572.809L33.8135 576.933L35.7457 578.149L35.3115 579.018ZM43.9991 579.256C43.2175 579.256 42.4939 579.018 41.8281 578.54V582.752L44.8675 583.685L44.4333 584.554H37.2907V583.881L39.2229 582.361V570.703L37.2907 569.574V568.901L41.0031 567.077L41.7196 569.899L44.8241 567.446C45.2872 567.33 45.8155 567.272 46.4089 567.272C47.1905 567.272 47.8924 567.526 48.5148 568.032C49.1516 568.524 49.6437 569.197 49.9911 570.051C50.3529 570.905 50.5338 571.846 50.5338 572.874C50.5338 573.988 50.1937 575.037 49.5135 576.022C48.8332 576.991 47.9793 577.773 46.9517 578.366C45.9385 578.945 44.9544 579.235 43.9991 579.235V579.256ZM45.3017 569.357C44.7517 569.357 44.2162 569.465 43.6952 569.682C43.1741 569.899 42.5518 570.326 41.8281 570.963V574.632C41.8281 575.428 42.1248 576.094 42.7182 576.629C43.3116 577.165 44.1583 577.433 45.2583 577.433C46.8938 577.433 47.7115 576.268 47.7115 573.937C47.7115 572.649 47.5017 571.564 47.0819 570.681C46.6622 569.798 46.0688 569.357 45.3017 569.357ZM60.6583 579.061C60.0794 579.177 59.3847 579.235 58.5742 579.235C57.6189 579.235 56.7578 578.989 55.9907 578.497C55.2381 577.99 54.6446 577.31 54.2104 576.456C53.7907 575.602 53.5809 574.661 53.5809 573.633C53.5809 572.519 53.921 571.477 54.6012 570.507C55.2815 569.523 56.1282 568.742 57.1413 568.163C58.1689 567.569 59.1603 567.272 60.1156 567.272C61.4905 567.272 62.5543 567.815 63.3069 568.901C64.074 569.986 64.4576 571.419 64.4576 573.199H56.4249C56.5117 574.43 56.8446 575.435 57.4235 576.217C58.0169 576.999 58.8202 577.389 59.8333 577.389C60.7741 577.389 62.1129 576.658 63.8497 575.197L64.501 576.022L60.6583 579.061ZM58.8564 569.096C57.2933 569.096 56.4755 570.167 56.4032 572.309H61.4833C61.353 571.528 61.2155 570.934 61.0708 570.529C60.9406 570.109 60.7017 569.769 60.3544 569.509C60.0215 569.234 59.5222 569.096 58.8564 569.096ZM75.0429 567.294C75.5205 567.294 75.9402 567.424 76.3021 567.685C76.6639 567.945 76.9461 568.307 77.1488 568.77L75.7159 570.572H74.8909C74.833 570.211 74.7245 569.957 74.5653 569.813C74.4205 569.653 74.2179 569.574 73.9574 569.574C73.639 569.574 73.2989 569.661 72.937 569.834C72.5897 569.993 72.1917 570.305 71.743 570.768V577.237L74.7824 578.171L74.3482 579.039H67.2056V578.366L69.1378 576.847V570.703L67.2056 569.574V568.901L70.918 567.077L71.591 569.747L73.8489 567.446C74.1528 567.33 74.5508 567.272 75.0429 567.272V567.294ZM84.5205 579.018H78.4634V578.345L80.3956 576.825V570.486L78.4634 569.14V568.467L82.1758 567.077H83.0008V577.389L84.9547 578.149L84.5205 579.018ZM81.6114 560.564C82.0456 560.564 82.4002 560.723 82.6752 561.042C82.9646 561.36 83.1094 561.758 83.1094 562.236C83.1094 562.569 83.008 562.887 82.8054 563.191C82.6028 563.48 82.3495 563.712 82.0456 563.886C81.7416 564.059 81.4449 564.146 81.1555 564.146C80.7213 564.146 80.3594 563.987 80.07 563.669C79.795 563.35 79.6575 562.952 79.6575 562.475C79.6575 562.142 79.7588 561.83 79.9614 561.541C80.164 561.237 80.4173 560.998 80.7213 560.825C81.0252 560.651 81.3219 560.564 81.6114 560.564ZM94.3046 579.061C93.7257 579.177 93.0309 579.235 92.2204 579.235C91.2652 579.235 90.404 578.989 89.6369 578.497C88.8843 577.99 88.2909 577.31 87.8567 576.456C87.437 575.602 87.2271 574.661 87.2271 573.633C87.2271 572.519 87.5673 571.477 88.2475 570.507C88.9278 569.523 89.7744 568.742 90.7876 568.163C91.8152 567.569 92.8066 567.272 93.7619 567.272C95.1368 567.272 96.2006 567.815 96.9532 568.901C97.7203 569.986 98.1039 571.419 98.1039 573.199H90.0711C90.158 574.43 90.4909 575.435 91.0698 576.217C91.6632 576.999 92.4665 577.389 93.4796 577.389C94.4204 577.389 95.7592 576.658 97.496 575.197L98.1473 576.022L94.3046 579.061ZM92.5027 569.096C90.9395 569.096 90.1218 570.167 90.0494 572.309H95.1296C94.9993 571.528 94.8618 570.934 94.7171 570.529C94.5868 570.109 94.348 569.769 94.0007 569.509C93.6678 569.234 93.1684 569.096 92.5027 569.096ZM114.29 579.039H110.165V571.723C110.165 570.927 110.042 570.37 109.796 570.051C109.55 569.733 109.109 569.574 108.472 569.574C107.994 569.574 107.517 569.661 107.039 569.834C106.576 570.008 106.026 570.341 105.389 570.833V577.411L107.343 578.171L106.909 579.039H100.852V578.366L102.784 576.847V570.703L100.852 569.574V568.901L104.564 567.077L105.281 569.899L108.364 567.446C108.667 567.33 109.065 567.272 109.558 567.272C110.542 567.272 111.323 567.576 111.902 568.184C112.481 568.778 112.771 569.588 112.771 570.616V577.389L114.725 578.171L114.29 579.039ZM122.882 567.272C123.476 567.272 124.163 567.359 124.945 567.533C125.741 567.692 126.312 567.873 126.66 568.076V571.419H125.835C125.27 570.695 124.619 570.131 123.881 569.726C123.157 569.306 122.404 569.096 121.623 569.096C120.957 569.096 120.451 569.393 120.103 569.986C119.77 570.58 119.604 571.448 119.604 572.591C119.604 573.952 119.901 575.095 120.494 576.022C121.087 576.933 121.934 577.389 123.034 577.389C123.859 577.389 125.031 576.796 126.551 575.609L127.202 576.434L123.859 579.061C123.28 579.177 122.585 579.235 121.775 579.235C120.82 579.235 119.958 578.989 119.191 578.497C118.439 577.99 117.845 577.31 117.411 576.456C116.991 575.602 116.782 574.661 116.782 573.633C116.782 572.519 117.093 571.47 117.715 570.486C118.352 569.501 119.148 568.72 120.103 568.141C121.058 567.562 121.985 567.272 122.882 567.272ZM137.173 579.061C136.594 579.177 135.9 579.235 135.089 579.235C134.134 579.235 133.273 578.989 132.506 578.497C131.753 577.99 131.16 577.31 130.726 576.456C130.306 575.602 130.096 574.661 130.096 573.633C130.096 572.519 130.436 571.477 131.116 570.507C131.797 569.523 132.643 568.742 133.656 568.163C134.684 567.569 135.675 567.272 136.631 567.272C138.006 567.272 139.069 567.815 139.822 568.901C140.589 569.986 140.973 571.419 140.973 573.199H132.94C133.027 574.43 133.36 575.435 133.939 576.217C134.532 576.999 135.335 577.389 136.348 577.389C137.289 577.389 138.628 576.658 140.365 575.197L141.016 576.022L137.173 579.061ZM135.371 569.096C133.808 569.096 132.991 570.167 132.918 572.309H137.998C137.868 571.528 137.731 570.934 137.586 570.529C137.456 570.109 137.217 569.769 136.869 569.509C136.537 569.234 136.037 569.096 135.371 569.096Z" fill="black"/>
</g>
<path d="M32.2892 210.698L32.1796 221.168L30.6116 221.151L23.0719 212.643L23.0054 218.997L25.5117 219.889L24.9112 221.075L19.8967 221.023L19.9077 219.978L21.4569 218.671L21.5434 210.406L19.725 209.341L20.3253 208.171L23.3144 208.203L30.6606 216.464L30.7249 210.322L28.2513 209.43L28.8516 208.261L33.8661 208.313L33.855 209.375L32.2892 210.698ZM40.4121 212.22C41.5882 212.233 42.4927 212.689 43.1259 213.588C43.77 214.477 44.0727 215.727 44.0341 217.339L38.2029 217.278C38.3166 217.856 38.535 218.321 38.858 218.673C39.1812 219.014 39.6041 219.187 40.1268 219.193C40.8999 219.201 42.0304 218.881 43.5183 218.232L43.9977 219.25L41.6258 221.12C40.9379 221.298 40.1147 221.382 39.1565 221.372C38.3398 221.363 37.6067 221.17 36.9572 220.793C36.3079 220.405 35.8015 219.883 35.4381 219.225C35.0856 218.568 34.9136 217.837 34.922 217.031C34.9311 216.16 35.2227 215.357 35.7967 214.623C36.3708 213.877 37.0848 213.291 37.9387 212.864C38.7927 212.427 39.6172 212.212 40.4121 212.22ZM39.5087 214.253C39.0623 214.248 38.7231 214.397 38.4912 214.7C38.2704 214.991 38.1458 215.448 38.1175 216.068L41.025 216.098C40.9661 215.477 40.8239 215.018 40.5983 214.722C40.3728 214.414 40.0096 214.258 39.5087 214.253ZM60.4579 213.623L56.5215 221.374L54.2184 221.35L52.8976 218.003L51.066 221.317L48.7629 221.293L46.4551 215.486L44.8316 214.521L44.8425 213.476L48.7117 212.144L49.3066 214.617L50.9943 218.8L52.2607 216.428L51.9106 215.543L50.2871 214.578L50.298 213.533L54.1672 212.201L54.7621 214.674L56.4179 218.792L58.0708 215.378L55.6213 213.736L56.2218 212.549L60.4688 212.577L60.4579 213.623Z" fill="black"/>
<path d="M27.558 225.858C28.2114 225.865 28.9728 225.954 29.8422 226.127C30.7117 226.299 31.3468 226.48 31.7478 226.669L31.7105 230.23L29.8975 230.211C29.0967 228.678 27.994 227.904 26.5893 227.89C26.0231 227.884 25.5039 228.063 25.0318 228.429C24.5598 228.783 24.1843 229.28 23.9053 229.92C23.6264 230.559 23.4828 231.277 23.4744 232.072C23.465 232.975 23.5924 233.804 23.8568 234.559C24.1213 235.302 24.5288 235.9 25.0795 236.352C25.6412 236.793 26.3358 237.019 27.1634 237.027C28.1761 237.038 29.6187 236.552 31.4913 235.57L32.1818 236.704L29.152 239.008C28.6496 239.145 28.1695 239.232 27.7117 239.271C27.2538 239.321 26.758 239.343 26.2244 239.337C24.9831 239.324 23.8807 239.035 22.9174 238.469C21.9649 237.904 21.227 237.134 20.7036 236.159C20.1803 235.174 19.9251 234.06 19.9381 232.819C19.9514 231.545 20.3612 230.373 21.1674 229.303C21.9737 228.222 22.9736 227.378 24.167 226.77C25.3606 226.151 26.4909 225.847 27.558 225.858ZM39.1572 230.145C39.9847 230.153 40.7232 230.352 41.3726 230.74C42.0221 231.117 42.523 231.639 42.8754 232.307C43.2388 232.965 43.4163 233.691 43.408 234.486C43.399 235.346 43.1074 236.149 42.5333 236.894C41.9592 237.64 41.2397 238.231 40.3748 238.668C39.5209 239.095 38.6964 239.304 37.9015 239.296C37.0848 239.287 36.3517 239.095 35.7023 238.717C35.0529 238.33 34.5465 237.807 34.1831 237.15C33.8306 236.493 33.6586 235.761 33.667 234.955C33.6762 234.084 33.9677 233.281 34.5417 232.547C35.1158 231.801 35.8298 231.215 36.6837 230.789C37.5378 230.351 38.3622 230.136 39.1572 230.145ZM38.1884 232.177C37.7964 232.172 37.4897 232.344 37.2683 232.69C37.0578 233.025 36.9491 233.53 36.942 234.206C36.9328 235.088 37.0939 235.819 37.4254 236.4C37.768 236.969 38.2496 237.258 38.8703 237.264C39.2732 237.268 39.5799 237.097 39.7904 236.751C40.0119 236.405 40.1261 235.894 40.1332 235.219C40.1424 234.337 39.9758 233.611 39.6332 233.041C39.3016 232.471 38.82 232.183 38.1884 232.177ZM55.7906 239.304L51.8868 239.263L51.9405 234.134C51.9457 233.644 51.8731 233.295 51.7228 233.086C51.5834 232.878 51.334 232.772 50.9747 232.768C50.4629 232.762 49.9441 232.904 49.4184 233.193L49.3725 237.57L50.8376 238.059L50.2371 239.245L44.8796 239.189L44.8906 238.144L46.3573 236.918L46.3932 233.488L44.9492 232.541L44.9602 231.496L48.5687 230.096L49.2029 231.933L51.1465 230.401C51.4414 230.317 51.7849 230.277 52.1769 230.281C53.0371 230.29 53.7208 230.526 54.2278 230.989C54.7349 231.44 54.9844 232.053 54.9763 232.826L54.9259 237.645L56.3911 238.117L55.7906 239.304ZM62.9272 239.427C62.5125 239.51 62.033 239.549 61.4885 239.543C60.3887 239.531 59.5908 239.289 59.0948 238.815C58.5989 238.331 58.3561 237.593 58.3665 236.602L58.4125 232.209L56.6484 232.19L56.6584 231.243L60.3413 227.41L61.4847 227.422L61.4469 231.032L64.387 231.062L64.3744 232.271L61.4343 232.24L61.3903 236.438C61.383 237.135 61.8041 237.488 62.6534 237.497C62.8821 237.499 63.1002 237.474 63.3076 237.422C63.526 237.37 63.7938 237.269 64.1112 237.12L64.5906 238.138L62.9272 239.427ZM70.9649 232.993C70.6055 232.99 70.2611 233.117 69.9317 233.375L69.8873 237.622L72.4287 238.285L71.8282 239.471L65.3926 239.404L65.4036 238.359L66.8703 237.133L66.9062 233.702L65.4622 232.756L65.4732 231.711L69.0817 230.311L69.6839 232.082L71.1368 230.61C71.3664 230.526 71.6228 230.485 71.9059 230.488C72.5484 230.494 73.0859 230.642 73.5185 230.929C73.9621 231.206 74.2685 231.591 74.4375 232.082L72.7164 234.204L71.5567 234.192C71.5504 233.756 71.4991 233.451 71.403 233.276C71.3178 233.09 71.1718 232.996 70.9649 232.993ZM80.2887 239.576L74.9312 239.52L74.9421 238.475L76.4088 237.249L76.4452 233.77L75.0016 232.791L75.0124 231.762L78.3427 230.408L79.5024 230.42L79.4241 237.901L80.8892 238.39L80.2887 239.576ZM78.035 225.471C78.5468 225.477 78.9589 225.644 79.2712 225.974C79.5946 226.294 79.7538 226.687 79.7489 227.156C79.7454 227.493 79.6223 227.808 79.3797 228.099C79.148 228.38 78.8516 228.606 78.4905 228.776C78.1402 228.947 77.8017 229.03 77.475 229.027C76.9741 229.021 76.5566 228.859 76.2223 228.54C75.899 228.21 75.7399 227.811 75.7448 227.342C75.7483 227.005 75.8659 226.696 76.0975 226.415C76.3402 226.123 76.6421 225.892 77.0032 225.722C77.3644 225.552 77.7083 225.468 78.035 225.471ZM88.6656 230.663C89.3625 230.67 89.9866 230.868 90.538 231.254C91.0894 231.63 91.5142 232.152 91.8121 232.82C92.121 233.476 92.2714 234.202 92.263 234.997C92.254 235.857 91.9625 236.66 91.3884 237.406C90.8143 238.151 90.0947 238.742 89.2298 239.18C88.3759 239.607 87.5515 239.816 86.7566 239.807C86.3319 239.803 85.9298 239.717 85.5504 239.55C85.1819 239.383 84.8522 239.15 84.5612 238.853L83.7855 239.613L82.6422 239.601L82.756 228.723L81.3124 227.744L81.3234 226.698L84.6535 225.361L85.8132 225.373L85.7424 232.135L87.4718 230.781C87.8212 230.698 88.2191 230.658 88.6656 230.663ZM87.7253 237.776C88.6073 237.785 89.0555 237.103 89.0699 235.731C89.0783 234.926 88.9546 234.265 88.6986 233.751C88.4536 233.226 88.0807 232.96 87.5797 232.955C86.9155 232.948 86.2986 233.105 85.7289 233.426L85.7012 236.072C85.6962 236.551 85.8662 236.956 86.2112 237.286C86.5673 237.606 87.072 237.769 87.7253 237.776ZM104.078 239.825L100.191 239.785L100.205 238.462L98.5079 239.816C98.213 239.9 97.8695 239.94 97.4775 239.936C96.6173 239.927 95.9336 239.697 95.4265 239.245C94.9195 238.782 94.67 238.164 94.6781 237.391L94.7135 234.01L93.2685 233.162L93.2793 232.133L96.6264 230.73L97.7698 230.742L97.7141 236.067C97.7089 236.557 97.7761 236.906 97.9155 237.114C98.0657 237.323 98.326 237.429 98.6962 237.433C99.1971 237.438 99.7105 237.297 100.236 237.008L100.267 234.068L98.822 233.22L98.8328 232.191L102.164 230.788L103.323 230.8L103.246 238.15L104.695 238.639L104.078 239.825ZM111.259 239.933C110.844 240.016 110.365 240.055 109.82 240.049C108.72 240.037 107.922 239.795 107.426 239.321C106.93 238.837 106.688 238.099 106.698 237.108L106.744 232.715L104.98 232.696L104.99 231.749L108.673 227.916L109.816 227.928L109.779 231.538L112.719 231.568L112.706 232.777L109.766 232.746L109.722 236.944C109.715 237.641 110.136 237.994 110.985 238.003C111.214 238.005 111.432 237.98 111.639 237.928C111.858 237.876 112.125 237.775 112.443 237.626L112.922 238.644L111.259 239.933ZM119.215 230.983C120.043 230.992 120.781 231.19 121.431 231.578C122.08 231.955 122.581 232.477 122.934 233.145C123.297 233.803 123.474 234.529 123.466 235.324C123.457 236.184 123.166 236.987 122.592 237.732C122.017 238.478 121.298 239.069 120.433 239.507C119.579 239.933 118.755 240.142 117.96 240.134C117.143 240.126 116.41 239.933 115.76 239.556C115.111 239.168 114.605 238.645 114.241 237.988C113.889 237.331 113.717 236.599 113.725 235.793C113.734 234.922 114.026 234.119 114.6 233.385C115.174 232.64 115.888 232.053 116.742 231.627C117.596 231.189 118.42 230.975 119.215 230.983ZM118.247 233.015C117.855 233.011 117.548 233.182 117.326 233.528C117.116 233.863 117.007 234.368 117 235.044C116.991 235.926 117.152 236.657 117.484 237.238C117.826 237.808 118.308 238.096 118.928 238.102C119.331 238.106 119.638 237.935 119.849 237.589C120.07 237.243 120.184 236.732 120.191 236.057C120.201 235.175 120.034 234.449 119.691 233.879C119.36 233.31 118.878 233.021 118.247 233.015ZM130.51 233.617C130.151 233.613 129.806 233.74 129.477 233.998L129.432 238.245L131.974 238.909L131.373 240.095L124.938 240.027L124.949 238.982L126.415 237.756L126.451 234.326L125.007 233.38L125.018 232.334L128.627 230.934L129.229 232.705L130.682 231.234C130.912 231.149 131.168 231.108 131.451 231.111C132.094 231.118 132.631 231.265 133.064 231.553C133.507 231.83 133.814 232.214 133.983 232.706L132.262 234.828L131.102 234.816C131.096 234.38 131.044 234.074 130.948 233.899C130.863 233.713 130.717 233.619 130.51 233.617Z" fill="black"/>
<path d="M122.348 168.185C121.227 169.48 120.319 170.13 118.697 171.289C118.697 171.289 120.746 171.259 122.166 171.106C123.714 170.94 124.68 170.803 125.999 170.011C126.912 169.463 128.008 167.82 128.008 167.82C128.008 167.82 127.636 167.943 127.277 168.003C126.182 168.185 124.612 170.241 124.539 170.194C124.157 169.942 125.99 167.748 125.634 168.003C125.634 168.003 124.843 168.074 124.356 168.185C123.127 168.467 122.531 170.376 122.348 170.376C121.455 170.376 123.261 168.368 123.261 168.368C123.261 168.368 123.284 168.253 123.261 168.185C123.229 168.09 123.165 168.055 123.079 168.003C122.827 167.852 122.348 168.185 122.348 168.185Z" fill="#C4DEF8"/>
<path d="M113.039 182.789C111.373 180.688 110.533 175.859 110.666 175.852L112.674 174.756C113.461 175.055 115.96 172.931 115.96 172.931L117.786 171.835C117.786 171.835 119.008 171.892 119.793 171.836C122.349 171.653 124.136 171.769 126.365 170.375C127.826 169.463 129.651 166.542 133.85 165.264C137.223 164.237 138.232 165.811 138.232 165.811C138.232 165.811 134.789 166.878 132.938 168.184C128.316 171.446 127.278 173.661 123.81 175.852C120.976 177.641 117.785 179.137 116.142 180.05C114.499 180.963 113.039 182.789 113.039 182.789Z" fill="#C4DEF8"/>
<path d="M57.9963 80.1495C56.1264 78.7035 53.999 76.5012 53.8161 74.0081C53.4671 69.3126 59.1598 57.6697 61.5698 53.2984C65.0768 46.9159 67.7362 44.0738 74.0937 40.4587C74.6505 40.1429 78.5481 38.0403 78.7642 38.1899L81.3487 47.0738C82.0468 47.5226 84.166 45.0627 84.7061 44.5973C85.3959 43.9989 85.9029 43.4338 86.8669 43.7247C86.7173 43.3341 86.5843 42.877 86.1189 42.7773C85.3461 42.7025 83.3183 45.071 82.6119 45.6112C82.3543 45.8106 82.0884 46.06 81.7393 46.0184L79.4622 37.442C80.0938 36.0292 80.9747 34.5915 82.4789 34.0098L82.4125 35.6303C82.2213 35.514 81.7975 35.4225 81.7393 35.6968C81.5399 36.6691 86.9084 41.7801 87.806 42.8521C88.8198 44.0571 89.7007 45.3868 90.5816 46.6916C90.4819 47.5641 89.9501 48.3287 89.842 49.2096C89.5927 51.3537 90.216 53.6557 90.3656 55.8081C90.8975 63.5867 90.5567 71.6396 90.5235 79.4265C90.5069 82.4349 90.9141 85.917 90.6398 88.8589C90.457 90.7786 89.5179 93.8867 88.986 95.8397C88.8448 96.3466 87.9805 99.5877 87.7893 99.704C86.0109 99.8287 84.2241 99.3716 82.5953 98.6735C78.0328 96.6956 71.5091 89.5985 66.4397 93.9283L65.4259 94.9338C66.5062 90.9863 67.8442 87.097 68.2597 82.9917C70.4288 83.3906 72.3651 84.8532 74.6505 84.5956C75.0328 84.554 76.03 84.1551 76.2627 84.2216C76.4206 84.2715 76.6118 84.7119 76.8195 84.8865C78.091 85.9585 83.3432 86.0832 84.8059 85.3186C85.9777 84.7036 86.0691 82.4847 86.2851 81.2714C86.925 77.7228 87.3489 74.1244 87.8392 70.5509C88.5788 70.0606 88.8863 69.2711 88.6038 68.3819C88.5456 68.1991 88.263 68.199 88.1716 67.9996C87.9888 67.5674 88.1051 67.0356 87.7893 66.4954C87.0081 65.1491 83.6175 65.2405 82.213 65.1906C81.0163 65.1491 79.7947 65.066 78.573 65.1906C78.0328 65.2488 76.9691 65.3485 76.5203 65.5646C75.7807 65.9303 75.7973 66.645 75.5231 67.2683C75.0328 68.3902 74.1186 69.4124 75.9469 69.9941L75.8804 71.8058C74.0937 72.4457 73.0715 73.8668 71.8914 75.2463L70.0465 74.7145C70.3457 73.5842 70.1046 72.4872 68.9163 72.1299C69.257 70.6922 69.0908 69.0052 69.365 67.5924C69.8387 65.0826 72.4815 61.9329 73.4455 59.3982C73.6366 58.8996 73.8444 58.3927 73.7862 57.8525C73.7862 57.7278 73.5452 57.7694 73.4621 57.8026C72.6393 58.1184 68.3262 68.0827 67.2375 69.3874C64.9854 67.2018 62.3344 67.0189 59.6168 68.5148C58.6528 69.0467 57.2068 70.1188 57.0572 71.2822C57.373 71.5731 58.7359 70.1354 59.0933 69.8778C61.1293 68.3985 64.5948 67.5674 66.4397 69.7946C67.5118 71.0828 66.0907 70.393 65.4923 70.3431C62.8413 70.1021 60.772 72.2546 59.5171 74.3488C59.0933 75.0552 58.0046 77.3655 58.0046 78.0968V80.1911L57.9963 80.1495ZM73.9109 55.2596V52.5587C73.9109 51.8607 73.1961 49.7082 72.897 48.9852C72.282 47.506 71.1185 45.4284 69.4647 45.1292L69.1905 45.5364C71.3928 46.8162 72.3983 49.1348 72.9053 51.5365C73.0382 52.1598 73.3042 55.3843 73.5784 55.4508L73.9109 55.2513V55.2596Z" fill="#C4DEF8"/>
<path d="M97.5139 45.0717C96.8906 44.6063 95.8518 42.6367 94.9377 42.8445C94.5305 42.9359 92.7354 45.0301 92.4529 45.4706C92.3365 45.6451 92.1786 45.7282 92.2534 46.0108C93.0928 46.0274 94.7382 43.634 95.2701 43.742C96.0347 44.2406 97.0984 46.4263 97.9128 46.6341C98.6192 46.8169 98.212 44.6229 98.1538 44.2323C97.9793 43.1104 97.6801 41.8057 97.115 40.8167C97.0818 40.7253 97.2231 40.7253 97.3145 40.7503C97.7965 40.8998 99.1262 41.6478 99.6331 41.9386C107.503 46.4512 106.049 53.3157 108.708 60.9198C108.982 61.7092 110.902 65.9143 110.462 66.3797C108.816 65.8894 106.905 65.7149 105.342 66.5875C105.085 66.7371 103.83 67.7094 104.121 67.992C104.96 67.9421 105.6 67.2773 106.456 67.0196C107.669 66.654 108.716 66.7121 109.921 67.0446L107.894 67.9172C104.112 69.9615 102.326 75.6874 104.794 79.3191C103.738 79.2526 101.619 77.9313 101.353 76.8925C101.046 75.7207 101.436 72.8951 101.578 71.5738C102.184 65.8312 103.655 60.1801 104.121 54.421C104.22 53.2242 104.387 51.3876 104.254 50.2408C104.22 49.925 104.146 49.3267 103.714 49.3682C103.423 51.155 103.489 53.0165 103.306 54.8282C102.334 64.4849 99.7494 73.693 99.9323 83.5741C99.9821 86.1254 100.389 88.7016 100.481 91.253C100.522 92.2918 100.639 94.4691 100.448 95.4082C100.132 96.9706 97.3062 98.4748 95.9266 98.9817C95.1787 99.2559 94.3476 99.5884 93.5498 99.5551C92.9432 99.4055 91.5221 90.3721 91.439 89.2252C90.6079 77.7983 91.7548 65.8396 91.0318 54.2797C90.8489 51.396 90.209 49.9749 91.1647 46.9914C91.6467 45.4789 92.9349 43.393 93.1592 41.9719C93.2756 41.2073 93.0429 40.6754 93.0512 39.9774C93.0595 39.2793 93.2756 38.3402 93.3338 37.6172C96.2009 38.656 97.0818 42.3375 97.5139 45.0384V45.0717ZM91.7465 51.7866C92.5276 52.3683 93.2174 50.8807 92.5193 50.54L92.054 50.4652C91.5221 50.5483 91.4639 51.4043 91.7465 51.7866ZM92.4861 61.1524C91.9127 61.3187 91.921 62.8312 92.7271 62.7564C93.3421 62.6982 93.2756 61.568 92.9432 61.1857C92.8019 61.0943 92.644 61.1026 92.4944 61.1441L92.4861 61.1524ZM93.1842 74.4658C93.5498 73.7927 93.5997 72.837 92.6191 72.8785C92.1703 73.0198 92.1952 74.042 92.3781 74.4076L93.1842 74.4658ZM93.1759 83.6821L92.3697 83.7403C91.7465 85.9093 93.9155 85.7182 93.1759 83.6821Z" fill="#C4DEF8"/>
<path d="M76.3396 81.231C78.7911 81.231 81.1596 81.8792 83.6195 81.5052C83.9353 81.8377 82.8217 82.3197 82.5724 82.4194C80.5862 83.184 78.4421 82.9513 76.4144 83.2754C75.7495 83.3834 75.0099 83.7159 74.3617 83.7823C72.8076 83.9485 68.5111 82.2366 66.7576 81.7047C65.7686 81.4055 64.7631 81.1396 63.7492 80.9401L63.5414 80.7407C63.1093 78.8376 64.4473 76.5107 65.885 75.2973C67.6801 73.7931 67.9543 74.6824 69.6579 75.4303C70.223 75.6796 70.9294 75.7793 71.3782 75.9705C71.586 76.0619 71.5029 76.4193 71.9516 76.3777C72.3339 76.3362 73.9378 74.0175 74.5196 73.5355C76.672 71.7488 80.1458 71.9233 82.7137 72.6297C83.0627 72.7294 85.6888 73.4773 84.7165 74.1505C84.3841 74.3749 79.4061 73.9677 78.3175 74.0923C77.9269 74.1339 76.165 74.4995 75.9407 74.6824L75.8742 75.2973C76.0819 75.6381 78.492 75.6381 79.0986 75.7129C80.5779 75.904 83.5863 76.6104 84.8079 77.4248C85.0739 77.5993 85.398 77.7489 85.1985 78.1312C84.7581 78.4138 84.2096 78.4304 83.7026 78.3971C81.5336 78.2642 78.8659 77.3334 76.6886 77.9816C75.9157 78.206 76.1401 78.4886 76.8216 78.5384C78.9823 78.6963 82.0073 78.8708 84.0766 79.3778C85.2151 79.652 85.4063 80.2504 84.1099 80.4249L76.8299 80.5662C76.4808 80.6243 76.3063 80.882 76.3562 81.2393L76.3396 81.231Z" fill="white"/>
<path d="M43.9688 155.576C42.6973 157.546 43.2625 161.726 45.847 162.258C46.2127 162.333 47.1102 162.216 47.185 162.532C46.9108 164.46 47.4011 166.696 47.8831 168.582C48.2238 169.928 48.6892 171.416 49.3873 172.613C49.5202 172.845 50.1269 173.527 50.0355 173.651C49.7529 173.635 49.0382 174.117 49.0881 174.391C49.138 174.665 49.3374 174.516 49.4538 174.499C50.1851 174.374 51.0909 173.884 51.8887 173.693C53.717 173.253 54.3652 173.186 56.0523 174.034C57.4484 174.74 58.8861 175.563 59.0607 177.291C56.3514 177.665 53.3846 177.857 50.692 177.233C45.5561 176.045 45.5728 172.82 43.3871 169.023C41.7832 166.238 38.8912 163.828 38.5587 160.363C38.4258 158.925 38.7665 158.693 39.7721 157.795C40.9355 156.765 42.4314 155.884 43.9522 155.576H43.9688Z" fill="#C4DEF8"/>
<path d="M116.537 70.1695C116.238 71.1085 116.03 71.898 117.077 72.4133C120.044 72.2803 123.044 72.0975 125.903 73.0033L126.119 72.6709C125.994 72.0725 122.845 71.8482 122.637 70.7512C122.579 70.4437 122.67 70.1611 122.986 70.0697C123.925 69.7872 126.044 70.7595 127.017 70.8426C127.274 70.8675 127.44 70.8842 127.607 70.6432C127.166 70.1861 126.584 69.8952 125.986 69.7041C124.972 69.3717 121.839 69.355 122.205 67.8342C122.313 67.3855 125.961 67.6929 126.576 67.7594C127.424 67.8592 128.246 68.3578 129.086 68.0087C129.136 67.7677 129.011 67.7428 128.861 67.6265C127.715 66.7455 123.21 66.9533 122.811 66.1223C122.354 65.1582 123.418 64.9671 124.158 64.9006C125.379 64.7926 128.271 64.7926 129.269 65.4657C129.967 65.9311 130.673 67.5849 130.158 68.3328C129.884 68.7234 129.377 68.2331 129.244 68.7816C129.177 69.0642 129.402 69.5462 129.368 69.9617C129.302 70.7512 128.512 71.2997 127.74 71.2415C127.848 71.9479 127.947 72.0061 127.523 72.5795C126.584 73.8427 124.191 74.4909 122.678 74.4826C122.196 74.4826 121.075 74.1169 120.684 74.2333C120.501 74.2831 120.26 74.6322 120.002 74.7818C117.642 76.1031 114.185 77.7403 111.576 78.3636C110.354 78.6544 109.664 79.1531 109.191 77.7237C108.019 74.2333 110.869 70.1695 114.584 70.1695H116.537Z" fill="white"/>
<path d="M59.0779 177.972C59.3604 179.85 57.7399 180.083 56.3105 180.266C52.7951 180.706 48.2992 180.208 45.5235 177.831C43.2797 175.911 42.6314 172.811 41.0857 170.393C40.2962 169.163 39.1244 168.074 38.2518 166.886C36.6978 164.783 34.9526 161.958 37.7615 160.021C38.0524 164.16 41.3184 166.77 43.1301 170.102C44.0691 171.814 44.5512 173.825 45.8559 175.329C48.8726 178.811 54.906 178.762 59.0695 177.964L59.0779 177.972Z" fill="white"/>
<path d="M69.1894 74.3492C67.7849 73.3436 67.1118 73.2688 65.7572 74.3492C63.5299 76.1276 62.0507 78.9532 62.8651 81.8286C63.0313 82.402 63.3887 83.2164 64.0701 83.2497L63.7294 81.6374L66.6297 82.51C66.8791 82.6763 66.156 83.2912 66.0231 83.391C64.0286 84.837 61.0119 83.7815 59.624 81.9698C57.2472 78.87 60.3803 73.0777 63.4385 71.4904C65.5826 70.3768 66.6713 71.7147 68.2918 72.7535C69.0065 73.2189 69.6465 73.0278 69.1977 74.3408L69.1894 74.3492Z" fill="#C4DEF8"/>
<path d="M114.244 69.4953C110.404 69.3124 107.944 73.2017 108.169 76.7171C108.269 78.1963 109.016 79.875 110.67 80.0163C111.044 80.0496 111.709 80.1327 111.684 79.6174L110.878 79.2102C112.05 79.2684 113.238 78.5703 114.319 78.3958C114.684 78.3376 114.344 78.8445 114.252 79.0107C112.931 81.3958 109.523 82.0025 107.246 80.6147C101.113 76.8666 106.124 65.8636 112.839 68.4149C113.33 68.606 114.161 68.8969 114.252 69.4953H114.244Z" fill="#C4DEF8"/>
<path d="M51.9212 164.477H49.827C49.586 164.477 48.9877 164.867 48.6802 164.884C48.2065 165.549 50.5916 165.175 50.7578 165.175C52.1955 165.175 52.4697 165.374 52.3201 166.903C51.8631 166.87 49.345 166.978 49.4863 167.643C49.5943 168.166 51.8298 167.36 52.4531 167.917C52.5695 168.017 52.8437 169.421 52.8603 169.671C52.8853 170.045 52.5861 169.696 52.2537 169.72C51.4808 169.779 50.4171 169.878 49.8935 170.477C49.8852 170.967 52.7274 170.327 53.1096 170.568L54.0737 172.372L53.8825 172.571C53.1429 172.504 51.0736 173.427 50.5666 173.178C49.5361 172.671 48.4475 167.842 48.2065 166.629C47.7909 164.535 46.8851 161.684 49.8436 161.385C52.8022 161.086 52.129 162.158 51.9212 164.468V164.477Z" fill="#C4DEF8"/>
<path d="M51.5236 159.49L51.0249 160.57C50.3102 160.521 49.6454 160.587 48.9556 160.77C47.601 161.111 47.1024 162.158 45.5816 161.318C43.4042 160.113 43.7948 155.917 45.7727 154.637C47.2603 156.714 49.0553 158.601 51.5236 159.49Z" fill="white"/>
<path d="M91.4224 18.7946C94.3892 18.5619 94.9543 22.7005 92.9349 24.3626C89.8517 26.8973 86.9431 21.4207 89.3614 19.5674C89.86 19.1852 90.8074 18.8361 91.4224 18.7946ZM90.9404 22.9166C91.1149 23.0911 91.6551 23.1243 91.8878 23.0579C93.0679 22.7088 92.5692 19.5425 91.0401 20.3154C90.475 20.5979 90.5415 22.526 90.9404 22.9166Z" fill="white"/>
<path d="M87.1268 70.576L85.9799 77.4571C85.4896 76.6094 84.0436 76.2022 83.1128 75.8698C81.9411 75.4542 80.7028 75.0138 79.4396 75.0221C79.4064 74.7894 79.7471 74.8974 79.9133 74.8891C81.1682 74.8393 84.7417 75.4376 85.4398 74.4819C86.4786 73.0608 84.027 72.1799 83.0547 71.8807C81.0269 71.2658 78.916 71.2408 76.8301 71.5234C76.4478 71.324 76.6556 69.8945 76.8135 69.8945C80.1377 71.0331 83.6779 70.7339 87.1268 70.576Z" fill="white"/>
<path d="M117.722 71.6322C117.589 71.707 117.365 71.6322 117.207 71.6572L117.415 70.4522C119.351 66.3717 120.731 61.6846 122.717 57.6707C122.941 57.2053 123.157 56.69 123.656 56.449C126.241 56.1498 128.908 56.2745 131.518 56.341C131.767 56.5155 131.717 57.2468 131.31 57.2302H124.421L123.947 57.4297L117.731 71.6489L117.722 71.6322Z" fill="white"/>
<path d="M87.265 67.7416C87.2982 68.0491 87.1985 68.4396 87.2899 68.7305C87.3896 69.038 88.0545 69.0962 87.7968 69.4868C87.722 69.6031 85.6361 69.869 85.3037 69.894C83.143 70.0934 80.6332 69.9854 78.4891 69.5616C77.8492 69.4286 77.093 69.0713 76.5029 68.9798C76.2453 68.9383 75.8131 69.2541 75.6552 68.8801C75.4641 68.4147 75.9794 68.6142 76.1289 68.4147C76.2785 68.2153 76.2453 67.2845 76.6608 67.2346C76.8021 67.218 78.8963 67.9826 79.4199 68.074C82.0128 68.5227 84.697 68.315 87.2484 67.7333L87.265 67.7416Z" fill="white"/>
<path d="M99.9403 18.2285L100.489 23.5472C99.691 24.5943 98.5857 23.7965 97.9458 22.9904C96.1507 20.7383 96.7906 18.1454 99.9403 18.2285ZM98.8184 19.7327C97.9707 19.8075 97.9624 21.5028 98.594 21.7937C99.8821 22.3754 99.9736 19.633 98.8184 19.7327Z" fill="white"/>
<path d="M80.0437 83.7987C80.5839 83.7489 81.5063 83.5245 82.0548 83.3832C82.7031 83.217 84.0078 82.9012 84.2322 82.1865C84.5147 81.2557 83.9247 81.156 85.4372 80.9648C85.3125 81.6629 85.1463 83.9982 84.6976 84.4054C83.7169 85.2946 78.2902 85.1949 77.3428 84.2142C77.2181 84.0813 77.1018 84.0148 77.1433 83.807C78.0824 83.7489 79.1129 83.8901 80.0437 83.807V83.7987Z" fill="white"/>
<path d="M86.8596 67.0619C83.8097 67.7932 79.9869 67.8431 77.0117 66.7212C76.3801 66.4802 76.9785 66.2225 77.3774 66.156C79.1309 65.8319 84.7405 65.7987 86.3112 66.4635C86.5605 66.5715 86.8846 66.7461 86.8513 67.0702L86.8596 67.0619Z" fill="white"/>
<path d="M69.4556 98.9054C68.5498 98.6311 65.7408 97.0937 65.6826 96.1297C65.6245 95.1657 68.1425 93.6615 68.9902 93.3789C69.0484 94.0354 68.8905 94.667 68.9237 95.3319C68.9487 95.8637 69.5719 98.7641 69.4639 98.9054H69.4556Z" fill="white"/>
<path d="M101.153 23.3481L100.613 18.3535C102.591 18.9934 102.683 22.168 101.153 23.3481Z" fill="white"/>
<path d="M119.095 64.3677C118.82 64.9744 118.604 65.6226 118.322 66.2292C118.23 66.4204 118.405 66.5949 118.014 66.5201C117.898 65.6724 118.197 64.6419 119.095 64.3594V64.3677Z" fill="white"/>
<path d="M73.9118 55.2608L73.5793 55.4603C73.2968 55.3938 73.0392 52.1693 72.9062 51.546C72.3992 49.136 71.3937 46.8174 69.1914 45.5459L69.4657 45.1387C71.1277 45.4378 72.2912 47.5155 72.8979 48.9947C73.1971 49.7177 73.9118 51.8702 73.9118 52.5682V55.2691V55.2608Z" fill="black"/>
<path d="M93.1835 74.4656L92.3774 74.4074C92.1946 74.0501 92.1696 73.0279 92.6184 72.8783C93.599 72.8367 93.5492 73.7924 93.1835 74.4656Z" fill="black"/>
<path d="M93.1741 83.6816C93.9137 85.7177 91.7447 85.9089 92.368 83.7398L93.1741 83.6816Z" fill="black"/>
<path d="M92.4836 61.1518C92.6415 61.1102 92.7994 61.0936 92.9324 61.1933C93.2648 61.5673 93.3313 62.7058 92.7163 62.764C91.9102 62.8388 91.9019 61.318 92.4753 61.1601L92.4836 61.1518Z" fill="black"/>
<path d="M91.7454 51.7862C91.4628 51.4039 91.521 50.5479 92.0529 50.4648L92.5183 50.5397C93.208 50.8887 92.5182 52.368 91.7454 51.7862Z" fill="black"/>
<path d="M70.6708 127.918C70.7207 128.741 69.5738 129.181 68.9173 129.464C67.7954 129.937 66.4824 130.345 65.2773 130.079L65.4519 129.78L70.6791 127.926L70.6708 127.918Z" fill="black"/>
<path d="M97.5117 28.6157C97.977 29.0229 95.7 29.6379 95.5255 29.6628C94.6113 29.7792 93.2899 29.5382 92.434 29.1808C91.952 28.9814 91.4533 28.8318 91.578 28.2168C92.5004 28.2833 93.2899 28.7653 94.2124 28.8899C95.3842 29.0395 96.3731 28.7736 97.5117 28.624V28.6157Z" fill="black"/>
<path d="M82.5438 27.2613C81.8042 27.1865 80.8984 26.8042 81.131 25.9233L79.3027 24.0285C80.5078 23.854 81.0562 24.2779 81.6463 25.2585C81.7793 25.4829 82.6186 27.1865 82.5355 27.2696L82.5438 27.2613Z" fill="black"/>
<path d="M92.9256 17.1397C91.7455 17.0483 90.4324 16.7989 89.3272 17.3807C88.8618 17.63 88.6956 18.2201 88.0723 18.0788C88.3299 16.0676 92.1693 14.954 92.9256 17.1314V17.1397Z" fill="black"/>
<path d="M90.9394 22.9156C90.5489 22.525 90.4741 20.597 91.0392 20.3144C92.5766 19.5416 93.0669 22.7079 91.8868 23.0569C91.6458 23.1234 91.114 23.0901 90.9394 22.9156Z" fill="black"/>
<path d="M98.8191 19.7316C99.9826 19.6236 99.8829 22.3743 98.5947 21.7926C97.9548 21.5017 97.9632 19.8064 98.8191 19.7316Z" fill="black"/>
<path d="M138.028 164.634C134.828 162.905 132.111 165.324 129.418 166.504C127.59 167.302 125.121 167.676 122.994 167.551C123.858 166.471 124.457 165.34 124.856 164.069C124.49 163.321 124 162.415 123.426 161.426C122.404 158.758 111.675 133.653 108.243 124.843C105.376 117.472 99.118 111.937 95.9018 104.724C96.683 102.347 96.4171 102.089 96.5916 99.5962C98.2869 99.0394 100.88 97.4438 101.262 95.5657C101.503 94.3689 101.354 92.283 101.295 91.0032C101.196 88.535 100.888 86.0585 100.747 83.5903L100.888 77.8477C101.653 78.7868 102.841 79.6927 104.013 80.05C104.487 80.1913 105.243 80.1913 105.6 80.3492C105.999 80.532 106.78 81.4545 107.536 81.7869C110.237 82.9919 113.57 81.9531 115.024 79.3769C115.282 78.9115 115.448 78.1718 115.739 77.7979C116.096 77.3408 118.922 76.3269 119.686 75.9446C120.035 75.7701 120.866 75.0887 121.083 75.0471C121.299 75.0056 121.589 75.1634 121.855 75.1634C124.116 75.1634 126.725 75.0139 128.188 72.9861C128.446 72.6371 128.545 72.1717 128.745 71.9224C129.202 71.3489 129.917 71.216 130.124 70.2021C130.183 69.9112 130.091 69.4126 130.183 69.2464C130.207 69.2048 130.548 69.0636 130.698 68.889C131.363 68.0829 130.955 67.4264 131.105 66.5954C131.18 66.1964 131.803 65.407 131.969 64.9C132.534 63.1632 131.87 62.249 130.291 61.6008C130.814 60.6617 131.304 59.6894 131.703 58.6921C132.077 57.7613 133.116 55.7834 131.437 55.5923C129.642 55.3845 126.759 55.3347 124.955 55.451C122.952 55.584 122.786 55.7003 121.947 57.4289C121.083 59.2157 120.451 61.2434 119.62 63.0634C118.872 63.6202 118.016 63.8695 117.534 64.7587C116.902 65.9222 117.434 66.6037 117.592 67.7755C116.703 68.2159 116.636 69.7866 115.448 69.4292C114.974 69.2879 114.866 68.781 114.575 68.54C113.62 67.7339 112.498 67.4264 111.334 67.0607C111.226 64.0274 109.639 61.3016 108.783 58.4179C106.556 50.9467 107.786 45.6862 100.04 41.2567C99.1429 40.7498 97.3395 40.1431 96.6664 39.6694C96.5667 39.603 96.1013 38.7553 95.8935 38.5143C95.2869 37.8079 94.5472 37.301 93.7245 36.8688L94.14 35.5391C100.016 35.4228 101.295 28.9489 101.287 24.2369C103.622 22.6995 103.456 18.403 100.614 17.6052L100.506 17.4473C100.522 16.5996 100.082 15.5608 100.074 14.763C100.065 13.8987 100.365 12.8017 100.215 11.8709L102.309 13.4915C102.691 13.6494 102.45 12.7103 102.417 12.569C101.935 10.8155 100.306 9.75175 98.7357 9.10353C99.5584 8.77942 101.844 6.63532 101.553 5.74609C101.32 5.03139 100.132 6.00374 99.8078 6.12839C99.4005 6.28629 98.3617 6.68518 97.9878 6.73504C96.8243 6.89294 95.345 6.6187 94.14 6.73504C94.6469 6.2281 96.2675 4.90674 96.3007 4.2419C96.309 4.02583 96.3174 4.00921 96.093 4.03414C94.7134 4.65743 93.417 5.4303 91.9294 5.80427C87.6329 6.90126 80.8017 5.60484 79.4139 11.2975C78.0925 11.2975 77.1617 12.1036 76.4886 13.159C74.5772 16.1841 75.5578 19.9238 77.7933 22.4668C76.1478 25.766 78.6327 30.0459 82.3973 29.9379C82.6134 31.118 82.8378 32.2316 82.5303 33.4283C81.4748 33.3618 80.7435 34.118 80.1202 34.8577C79.605 35.4726 78.9485 36.902 78.4914 37.276C77.7102 37.9242 75.4165 38.7636 74.3611 39.3453C66.3664 43.7665 63.3331 47.6392 59.3191 55.7336C57.4908 59.4234 55.4298 63.9526 54.1833 67.8669C52.3882 73.5014 52.33 75.8698 56.6432 80.05C57.6238 81.0057 57.923 81.2883 58.8039 82.3437C61.0394 85.0114 64.6877 85.8092 67.4385 83.3576C67.0562 85.5017 66.6407 87.6458 66.0839 89.7567C65.6268 91.4603 64.3054 94.4437 64.6378 96.0809C64.9952 97.8344 68.2612 99.2971 69.7986 99.8206C70.638 102.305 70.9954 102.679 72.2669 104.94C70.1975 110.45 67.6379 116.683 65.5187 122.184C65.1282 123.19 64.7708 127.112 63.8899 127.594C62.4189 128.4 62.0782 128.201 60.7569 129.589C54.5656 136.112 49.0142 143.667 42.8312 150.249C42.4406 150.656 42.3824 150.639 42.5154 151.08L43.5625 154.695C43.5126 154.72 43.4545 154.745 43.388 154.769C40.5707 155.908 38.5513 157.537 36.6066 159.864C33.0664 164.094 38.6178 167.833 40.6455 171.208C41.8755 173.252 42.4821 175.629 44.0944 177.474C47.0363 180.839 51.9561 181.363 56.1695 181.047C58.8371 180.848 60.2582 179.992 59.8676 177.083C59.4438 173.867 55.9949 173.975 54.7733 172.188C53.9423 170.967 53.4104 168.881 53.078 166.978C53.078 166.978 54.1251 167.327 54.4409 167.26C61.081 165.797 69.4828 151.877 72.8652 147.115C75.4498 143.484 77.4941 141.223 79.0648 137.849C81.076 133.545 82.256 128.026 84.3336 123.946C84.4084 123.805 84.2672 123.688 84.6162 123.755C86.2118 126.73 88.1232 128.999 89.4363 132.107C91.0818 136.029 92.4031 140.318 94.0735 144.34C96.9656 151.312 100.04 158.243 103.182 165.116C104.628 168.889 106.082 172.446 107.495 175.463C107.694 175.886 107.935 176.427 108.16 176.817C108.226 176.925 108.118 177.041 108.392 176.992C108.916 176.734 109.406 176.485 109.897 176.235C110.254 178.911 112.107 183.574 113.512 185.211C114.351 186.191 115.124 185.975 116.296 185.726C120.044 184.903 127.881 179.385 131.363 177.05C134.205 175.147 144.385 168.033 138.028 164.601V164.634ZM101.154 23.3477L100.614 18.3531C102.592 18.993 102.683 22.1676 101.154 23.3477ZM122.803 168.116C123.002 168.116 123.202 168.033 123.144 168.324C122.711 168.739 122.238 169.346 122.038 169.919C121.789 170.601 121.972 170.842 122.529 170.277C123.376 169.412 123.9 168.083 125.437 168.133C125.321 168.689 124.631 168.964 124.432 169.487C124.382 169.612 124.207 170.302 124.556 170.152C125.537 169.188 126.551 168.025 127.997 167.858C127.257 168.864 126.385 169.894 125.213 170.401C123.659 171.075 120.742 171.324 118.781 171.266C120.326 170.21 121.548 169.205 122.487 168.166C122.595 168.149 122.703 168.124 122.803 168.124V168.116ZM131.238 64.7089C131.18 64.9083 130.764 66.0136 130.498 65.7062C128.977 63.961 128.429 64.418 126.543 63.7283C125.238 63.2546 125.412 62.4318 126.75 62.2407C128.562 61.983 131.994 62.0495 131.238 64.7089ZM119.096 64.3682C118.822 64.9748 118.606 65.623 118.323 66.2297C118.232 66.4208 118.407 66.5954 118.016 66.5206C117.9 65.6729 118.199 64.6424 119.096 64.3598V64.3682ZM117.418 70.4431C119.354 66.3627 120.734 61.6756 122.72 57.6616C122.944 57.1962 123.16 56.681 123.659 56.44C126.243 56.1408 128.911 56.2655 131.52 56.3319C131.77 56.5065 131.72 57.2378 131.313 57.2211H124.423L123.95 57.4206L117.733 71.6398C117.6 71.7146 117.376 71.6398 117.218 71.6647L117.426 70.4597L117.418 70.4431ZM114.575 70.1689H116.528C116.229 71.108 116.021 71.8974 117.069 72.4127C120.035 72.2797 123.036 72.0969 125.894 73.0027L126.11 72.6703C125.986 72.072 122.836 71.8476 122.628 70.7506C122.57 70.4431 122.662 70.1606 122.977 70.0691C123.916 69.7866 126.036 70.7589 127.008 70.842C127.266 70.867 127.432 70.8836 127.598 70.6426C127.158 70.1855 126.576 69.8946 125.977 69.7035C124.964 69.3711 121.83 69.3544 122.196 67.8336C122.304 67.3849 125.952 67.6924 126.567 67.7588C127.415 67.8586 128.238 68.3572 129.077 68.0081C129.127 67.7671 129.002 67.7422 128.853 67.6259C127.706 66.745 123.202 66.9527 122.803 66.1217C122.346 65.1577 123.409 64.9665 124.149 64.9C125.371 64.792 128.263 64.792 129.26 65.4651C129.958 65.9305 130.665 67.5843 130.149 68.3322C129.875 68.7228 129.368 68.2325 129.235 68.781C129.169 69.0636 129.393 69.5456 129.36 69.9611C129.293 70.7506 128.504 71.2991 127.731 71.2409C127.839 71.9473 127.939 72.0055 127.515 72.5789C126.576 73.8421 124.182 74.4903 122.67 74.482C122.188 74.482 121.066 74.1163 120.675 74.2327C120.493 74.2825 120.252 74.6316 119.994 74.7812C117.634 76.1025 114.177 77.7397 111.567 78.363C110.345 78.6538 109.656 79.1525 109.182 77.7231C108.01 74.2327 110.861 70.1689 114.575 70.1689ZM112.83 68.4153C113.321 68.6065 114.152 68.8974 114.243 69.4957C110.404 69.3129 107.944 73.2022 108.168 76.7175C108.268 78.1968 109.016 79.8755 110.67 80.0168C111.044 80.05 111.708 80.1331 111.683 79.6179L110.877 79.2107C112.049 79.2688 113.237 78.5707 114.318 78.3962C114.683 78.3381 114.343 78.845 114.251 79.0112C112.93 81.3963 109.523 82.003 107.246 80.6151C101.112 76.8671 106.124 65.864 112.839 68.4153H112.83ZM97.5141 45.0712C96.8908 44.6059 95.852 42.6363 94.9378 42.844C94.5306 42.9355 92.7355 45.0297 92.453 45.4702C92.3366 45.6447 92.1787 45.7278 92.2535 46.0103C93.0929 46.027 94.7384 43.6335 95.2702 43.7416C96.0348 44.2402 97.0985 46.4259 97.913 46.6336C98.6193 46.8164 98.2121 44.6225 98.154 44.2319C97.9795 43.11 97.6803 41.8052 97.1152 40.8163C97.0819 40.7249 97.2232 40.7249 97.3146 40.7498C97.7966 40.8994 99.1263 41.6473 99.6332 41.9382C107.503 46.4508 106.049 53.3152 108.708 60.9193C108.983 61.7088 110.902 65.9139 110.462 66.3793C108.816 65.889 106.905 65.7145 105.343 66.5871C105.085 66.7366 103.83 67.709 104.121 67.9915C104.96 67.9417 105.6 67.2768 106.456 67.0192C107.669 66.6535 108.717 66.7117 109.922 67.0441L107.894 67.9167C104.113 69.9611 102.326 75.687 104.794 79.3187C103.739 79.2522 101.619 77.9308 101.354 76.892C101.046 75.7203 101.437 72.8947 101.578 71.5733C102.185 65.8308 103.655 60.1797 104.121 54.4205C104.221 53.2238 104.387 51.3872 104.254 50.2404C104.221 49.9246 104.146 49.3262 103.714 49.3678C103.423 51.1545 103.489 53.016 103.306 54.8277C102.334 64.4845 99.7496 73.6925 99.9324 83.5737C99.9823 86.125 100.389 88.7012 100.481 91.2525C100.522 92.2913 100.639 94.4687 100.448 95.4078C100.132 96.9701 97.3063 98.4743 95.9268 98.9813C95.1788 99.2555 94.3478 99.5879 93.55 99.5547C92.9433 99.4051 91.5222 90.3716 91.4391 89.2248C90.6081 77.7979 91.7549 65.8391 91.0319 54.2793C90.8491 51.3955 90.2092 49.9744 91.1649 46.991C91.6469 45.4785 92.935 43.3925 93.1594 41.9715C93.2757 41.2069 93.043 40.675 93.0513 39.9769C93.0513 39.2788 93.2757 38.3398 93.3339 37.6168C96.201 38.6556 97.0819 42.3371 97.5141 45.038V45.0712ZM100.489 23.5471C99.6914 24.5943 98.5861 23.7964 97.9462 22.9903C96.1511 20.7382 96.791 18.1453 99.9407 18.2284L100.489 23.5471ZM84.2256 19.4334C84.317 19.0595 84.5747 18.7354 84.6661 18.3946C85.0567 16.9237 85.0317 15.5525 84.8406 14.0483C86.6107 14.6051 88.5304 14.7713 90.3671 14.4472C90.6413 14.123 89.1371 11.9125 89.295 11.7546C91.0319 12.3529 93.0264 13.1009 94.8879 13.1092C95.0874 13.1092 95.2868 13.1923 95.2287 12.9014L93.8824 11.3474C94.9461 11.6715 96.4337 12.0371 97.3229 12.6937C97.7468 13.0095 99.9324 15.1369 99.4172 15.6605C98.8936 15.5026 96.9406 15.9514 97.1235 16.6744C97.4393 17.065 97.9462 16.558 98.4199 16.4832C98.8022 16.4251 99.2094 16.4916 99.6 16.4666L99.8244 17.5553C98.0958 17.4057 96.5584 18.3946 96.1511 20.09L94.7301 20.2977C94.2647 19.7492 94.1566 19.101 93.525 18.6523C91.5388 17.2561 88.1066 18.5775 87.7908 21.0374L83.7685 22.0014C84.0179 21.1869 84.0345 20.2229 84.2339 19.4334H84.2256ZM92.935 24.3699C89.8518 26.9046 86.9431 21.428 89.3615 19.5747C89.8601 19.1924 90.8075 18.8434 91.4225 18.8019C94.3893 18.5692 94.9544 22.7078 92.935 24.3699ZM81.6743 29.1401C79.1479 28.8077 76.8792 25.0181 78.7573 22.874C80.328 21.0872 81.9319 23.5471 83.4777 23.8879C83.4777 23.5139 83.4527 22.7576 83.8433 22.5665C84.0677 22.4585 87.6578 21.7188 87.7991 21.8684C87.9071 26.2979 93.4669 27.3201 94.7217 22.6496C95.0126 21.5776 94.5472 20.9958 96.0847 20.788C96.3423 21.4446 96.5085 22.0928 96.8658 22.7161C97.0902 23.1233 98.2537 24.3782 98.2703 24.4945C98.3285 24.8934 97.9047 25.5416 97.5805 25.7826C97.1484 26.0984 95.0708 26.3062 95.9517 27.0126C96.6747 27.5943 99.1762 25.8408 99.0099 24.7189L100.481 24.7023C100.431 25.4253 100.547 26.2148 100.481 26.9295C100.273 29.1401 98.8853 33.1208 96.7578 34.1347C93.4253 35.722 89.9183 33.9685 87.0844 32.2399C86.7271 32.0238 86.5941 31.5917 86.0539 31.7246C85.8046 31.9656 87.3005 33.3286 87.5332 33.5446C88.946 34.8577 90.5748 36.0295 92.3948 36.6611C92.2286 37.8744 92.2868 39.0711 92.2535 40.2844C92.2369 40.916 92.3533 41.88 92.32 42.2623C92.2203 43.2596 91.2563 44.8635 90.9737 45.8857C89.9682 44.7139 89.2202 43.3427 88.2063 42.1792C87.126 40.9326 85.7132 39.844 84.6328 38.6057C84.1674 38.0655 83.0622 36.7774 83.0788 36.1126C83.1037 34.6915 83.5857 33.4449 83.486 31.7911C83.4611 31.3424 83.1702 30.7191 83.2201 30.3118C83.2616 29.9877 84.342 28.9739 83.3115 29.0237C82.763 29.0487 82.3308 29.2232 81.6826 29.1401H81.6743ZM66.0174 83.3908C64.0229 84.8369 61.0062 83.7814 59.6183 81.9697C57.2415 78.8699 60.3746 73.0775 63.4328 71.4902C65.5769 70.3766 66.6656 71.7146 68.2861 72.7534C69.0008 73.2188 69.6407 73.0277 69.192 74.3407C67.7875 73.3352 67.1144 73.2604 65.7598 74.3407C63.5325 76.1192 62.0533 78.9447 62.8677 81.8201C63.0339 82.3936 63.3913 83.208 64.0727 83.2412L63.732 81.629L66.6323 82.5016C66.8817 82.6678 66.1587 83.2828 66.0257 83.3825L66.0174 83.3908ZM66.7653 81.7038C65.7764 81.4046 64.7708 81.1387 63.7569 80.9392L63.5492 80.7398C63.117 78.8367 64.455 76.5097 65.8927 75.2964C67.6878 73.7922 67.962 74.6814 69.6657 75.4294C70.2308 75.6787 70.9372 75.7784 71.3859 75.9696C71.5937 76.061 71.5106 76.4183 71.9594 76.3768C72.3416 76.3352 73.9456 74.0166 74.5273 73.5346C76.6797 71.7478 80.1535 71.9224 82.7214 72.6288C83.0705 72.7285 85.6966 73.4764 84.7242 74.1496C84.3918 74.3739 79.4139 73.9668 78.3252 74.0914C77.9346 74.133 76.1728 74.4986 75.9484 74.6814L75.8819 75.2964C76.0897 75.6371 78.4997 75.6371 79.1064 75.7119C80.5856 75.9031 83.594 76.6095 84.8157 77.4239C85.0816 77.5984 85.4057 77.748 85.2062 78.1303C84.7658 78.4128 84.2173 78.4295 83.7104 78.3962C81.5413 78.2633 78.8737 77.3325 76.6963 77.9807C75.9235 78.2051 76.1478 78.4877 76.8293 78.5375C78.99 78.6954 82.015 78.8699 84.0843 79.3769C85.2229 79.6511 85.414 80.2495 84.1176 80.424L76.8376 80.5653C76.4886 80.6234 76.314 80.8811 76.3639 81.2384C78.8155 81.2384 81.184 81.8866 83.6439 81.5127C83.9597 81.8451 82.8461 82.3271 82.5968 82.4268C80.6106 83.1914 78.4665 82.9587 76.4387 83.2828C75.7739 83.3908 75.0342 83.7232 74.386 83.7897C72.832 83.9559 68.5354 82.244 66.7819 81.7121L66.7653 81.7038ZM79.4388 68.0829C82.0317 68.5317 84.7159 68.3239 87.2672 67.7422C87.3005 68.0497 87.2008 68.4403 87.2922 68.7312C87.3919 69.0386 88.0567 69.0968 87.7991 69.4874C87.7243 69.6038 85.6384 69.8697 85.306 69.8946C83.1453 70.0941 80.6355 69.986 78.4914 69.5622C77.8515 69.4292 77.0952 69.0719 76.5052 68.9805C76.2476 68.9389 75.8154 69.2547 75.6575 68.8807C75.4664 68.4153 75.9816 68.6148 76.1312 68.4153C76.2808 68.2159 76.2476 67.2851 76.6631 67.2353C76.8044 67.2187 78.8986 67.9832 79.4222 68.0746L79.4388 68.0829ZM77.3861 66.1549C79.1396 65.8308 84.7492 65.7975 86.3199 66.4624C86.5692 66.5704 86.8933 66.7449 86.86 67.0691C83.8101 67.8004 79.9873 67.8502 77.0121 66.7283C76.3805 66.4873 76.9789 66.2297 77.3778 66.1632L77.3861 66.1549ZM83.0538 71.8808C81.0261 71.2659 78.9152 71.2409 76.8293 71.5235C76.447 71.324 76.6548 69.8946 76.8127 69.8946C80.1369 71.0331 83.6771 70.734 87.126 70.5761L85.9791 77.4571C85.4888 76.6095 84.0428 76.2023 83.112 75.8698C81.9402 75.4543 80.702 75.0139 79.4388 75.0222C79.4055 74.7895 79.7463 74.8975 79.9125 74.8892C81.1674 74.8393 84.7409 75.4377 85.4389 74.482C86.4778 73.0609 84.0262 72.18 83.0538 71.8808ZM85.4389 80.9558C85.3143 81.6539 85.1481 83.9892 84.6993 84.3964C83.7187 85.2856 78.2919 85.1859 77.3445 84.2052C77.2199 84.0723 77.1035 84.0058 77.1451 83.798C78.0842 83.7399 79.1147 83.8811 80.0454 83.798C80.5856 83.7482 81.5081 83.5238 82.0566 83.3825C82.7048 83.2163 84.0095 82.9005 84.2339 82.1858C84.5165 81.255 83.9264 81.1553 85.4389 80.9642V80.9558ZM68.2446 82.9836C70.4136 83.3825 72.35 84.8452 74.6353 84.5875C75.0176 84.546 76.0149 84.1471 76.2476 84.2136C76.4055 84.2634 76.5966 84.7039 76.8044 84.8784C78.0759 85.9504 83.3281 86.0751 84.7907 85.3105C85.9625 84.6956 86.0539 82.4767 86.27 81.2634C86.9099 77.7148 87.3337 74.1163 87.824 70.5428C88.5637 70.0525 88.8712 69.263 88.5886 68.3738C88.5304 68.191 88.2479 68.191 88.1565 67.9915C87.9736 67.5594 88.09 67.0275 87.7742 66.4873C86.993 65.141 83.6023 65.2325 82.1979 65.1826C81.0012 65.141 79.7795 65.0579 78.5579 65.1826C78.0177 65.2408 76.954 65.3405 76.5052 65.5565C75.7656 65.9222 75.7822 66.6369 75.5079 67.2602C75.0176 68.3821 74.1035 69.4043 75.9318 69.986L75.8653 71.7977C74.0785 72.4376 73.0564 73.8587 71.8763 75.2383L70.0313 74.7064C70.3305 73.5762 70.0895 72.4792 68.9011 72.1218C69.2418 70.6841 69.0756 68.9971 69.3499 67.5843C69.8236 65.0745 72.4663 61.9249 73.4303 59.3902C73.6215 58.8916 73.8292 58.3846 73.771 57.8444C73.771 57.7198 73.53 57.7613 73.4469 57.7946C72.6242 58.1104 68.3111 68.0746 67.2224 69.3794C64.9703 67.1937 62.3192 67.0109 59.6017 68.5068C58.6377 69.0386 57.1917 70.1107 57.0421 71.2742C57.3579 71.565 58.7208 70.1273 59.0781 69.8697C61.1142 68.3904 64.5797 67.5594 66.4246 69.7866C67.4966 71.0747 66.0755 70.3849 65.4772 70.3351C62.8262 70.0941 60.7568 72.2465 59.502 74.3407C59.0781 75.0471 57.9895 77.3574 57.9895 78.0887V80.183C56.1196 78.737 53.9921 76.5347 53.8093 74.0415C53.4603 69.3461 59.1529 57.7032 61.563 53.3318C65.07 46.9494 67.7293 44.1072 74.0868 40.4922C74.6436 40.1764 78.5413 38.0738 78.7573 38.2234L81.3419 47.1073C82.04 47.5561 84.1591 45.0962 84.6993 44.6308C85.3891 44.0324 85.896 43.4673 86.86 43.7582C86.7105 43.3676 86.5775 42.9105 86.1121 42.8108C85.3392 42.736 83.3115 45.1045 82.6051 45.6447C82.3474 45.8441 82.0815 46.0934 81.7325 46.0519L79.4554 37.4755C80.087 36.0627 80.9679 34.625 82.4721 34.0433L82.4056 35.6638C82.2145 35.5474 81.7907 35.456 81.7325 35.7303C81.533 36.7026 86.9016 41.8135 87.7991 42.8856C88.813 44.0906 89.6939 45.4203 90.5748 46.725C90.4751 47.5976 89.9432 48.3622 89.8352 49.2431C89.5859 51.3872 90.2092 53.6892 90.3587 55.8416C90.8906 63.6202 90.5499 71.6731 90.5166 79.46C90.5 82.4684 90.9072 85.9504 90.633 88.8924C90.4502 90.8121 89.5111 93.9202 88.9792 95.8731C88.8379 96.3801 87.9736 99.6212 87.7825 99.7375C86.0041 99.8622 84.2173 99.4051 82.5885 98.707C78.026 96.7291 71.5023 89.632 66.4329 93.9617L65.419 94.9673C66.4994 91.0198 67.8374 87.1305 68.2529 83.0252L68.2446 82.9836ZM69.4579 98.9065C68.5521 98.6322 65.7431 97.0948 65.685 96.1308C65.6268 95.1917 68.1449 93.6626 68.9925 93.38C69.0507 94.0365 68.8928 94.6681 68.926 95.333C68.951 95.8648 69.5743 98.7652 69.4662 98.9065H69.4579ZM44.2855 156.947C44.942 158.634 45.8312 160.204 46.9282 161.609C46.5543 161.675 46.1304 161.626 45.5736 161.318C44.1941 160.562 43.8534 158.609 44.2772 156.947H44.2855ZM56.3108 180.258C52.7954 180.698 48.2995 180.199 45.5238 177.823C43.2799 175.903 42.6317 172.803 41.086 170.385C40.2965 169.155 39.1247 168.066 38.2521 166.878C36.698 164.775 34.9528 161.95 37.7618 160.013C38.0526 164.152 41.3187 166.761 43.1303 170.094C44.0694 171.806 44.5514 173.817 45.8562 175.321C48.8729 178.803 54.9063 178.753 59.0698 177.956C59.3524 179.834 57.7318 180.067 56.3024 180.249L56.3108 180.258ZM56.0614 174.033C57.4576 174.739 58.8953 175.562 59.0698 177.291C56.3606 177.665 53.3938 177.856 50.7012 177.233C45.5653 176.044 45.5819 172.82 43.3963 169.022C41.7924 166.238 38.9003 163.828 38.5679 160.362C38.4349 158.925 38.7757 158.692 39.7812 157.794C40.9031 156.797 42.3408 155.941 43.8201 155.609L43.8534 155.725C43.8534 155.725 43.8534 155.742 43.8617 155.758C42.7314 157.794 43.3298 161.734 45.8396 162.257C46.2052 162.332 47.1027 162.216 47.1775 162.531C46.9033 164.459 47.3936 166.695 47.8756 168.581C48.2164 169.928 48.6817 171.415 49.3798 172.612C49.5128 172.845 50.1194 173.526 50.028 173.651C49.7455 173.634 49.0308 174.116 49.0806 174.39C49.1305 174.648 49.33 174.515 49.4463 174.498C50.1776 174.374 51.0835 173.884 51.8813 173.692C53.7096 173.252 54.3578 173.185 56.0448 174.033H56.0614ZM53.1195 170.568L54.0835 172.371L53.8924 172.57C53.1528 172.504 51.0835 173.426 50.5765 173.177C49.546 172.67 48.4574 167.842 48.2163 166.628C47.967 165.365 47.5432 163.828 47.9006 162.739C48.4823 163.362 49.1056 163.944 49.7621 164.484C49.4879 164.534 48.9726 164.858 48.69 164.875C48.2579 165.473 50.161 165.232 50.6596 165.174C51.2081 165.565 51.7732 165.93 52.3633 166.263C52.3633 166.446 52.3633 166.645 52.33 166.894C51.873 166.861 49.3549 166.969 49.4962 167.634C49.6042 168.158 51.8397 167.351 52.463 167.908C52.5793 168.008 52.8536 169.413 52.8702 169.662C52.8951 170.036 52.596 169.687 52.2635 169.712C51.4907 169.77 50.4269 169.87 49.9034 170.468C49.8951 170.958 52.7372 170.318 53.1195 170.559V170.568ZM83.4278 122.658C81.2671 126.672 79.6299 131.11 76.9872 134.841C75.2004 137.367 72.8984 139.245 70.8042 141.473C66.3415 146.218 61.9951 151.105 57.9064 156.191C56.7263 153.548 53.2026 148.919 53.2026 148.919L45.6817 149.791C46.5293 148.819 47.8258 147.514 48.208 147.082C51.1832 143.717 54.15 140.342 57.1086 136.96C59.0615 134.733 61.1391 131.841 63.1752 129.805C64.1891 128.791 65.1365 128.733 66.1753 128.085C67.1476 127.47 68.71 122.699 69.1837 121.378C70.7128 117.14 71.8846 112.004 73.5965 107.982C73.663 107.824 73.663 107.657 73.8375 107.549C76.6215 112.004 79.9042 116.275 82.5968 120.78C82.8959 121.287 83.5691 122.134 83.4278 122.658ZM92.1538 137.525C90.7992 133.935 90.1177 131.442 88.1315 128.06C84.0927 121.195 79.3972 114.73 75.1256 108.015C72.4414 103.801 69.5078 99.2721 69.7903 94.0365C69.9399 93.8205 71.4691 94.0199 71.7848 94.0781C76.9373 94.959 80.7768 100.228 86.378 100.527C87.9736 100.61 88.2978 100.61 88.8878 99.1142L90.9072 91.6182C91.4142 93.9451 91.6053 96.4715 92.3533 98.7319C93.1594 101.167 93.7411 100.352 95.8935 99.9785L94.8879 103.652L91.4142 99.7957L90.9654 99.3054L90.633 99.5131C90.525 100.02 92.935 105.206 93.3422 106.095C95.7522 111.389 98.5279 116.516 100.988 121.785C103.664 127.494 105.575 133.303 107.744 139.154L93.3921 138.29C93.5998 138.863 93.8076 139.445 94.0486 140.068C95.8104 144.73 97.8299 150.531 99.9407 156.382C97.1567 150.074 94.4558 143.625 92.1455 137.509L92.1538 137.525ZM113.096 182.427C112.947 182.526 113.005 182.634 112.83 182.427C112.257 181.729 111.01 177.914 110.802 176.9C110.728 176.526 110.686 176.194 110.678 175.878C111.393 175.512 112.066 175.163 112.722 174.814C113.969 174.731 115.373 173.792 116.105 172.944C116.695 172.595 117.268 172.255 117.792 171.922L119.844 172.039C121.041 171.814 122.271 171.806 123.468 171.606C127.407 170.958 128.005 168.382 131.105 166.57C132.958 165.482 136.374 163.994 138.119 165.831C131.57 167.127 127.93 173.626 122.346 176.692C119.445 178.288 116.836 179.136 114.185 181.346C113.828 181.646 113.445 182.194 113.105 182.427H113.096ZM134.911 170.111C131.371 172.504 128.479 175.903 124.939 178.346C123.06 179.643 120.991 180.582 119.055 181.77C117.409 182.784 115.93 184.047 114.243 184.978L113.437 183.424C113.437 182.859 115.722 181.122 116.271 180.74C118.822 178.961 121.847 178.072 124.39 176.318C128.587 173.426 132.227 168.307 137.263 166.803C138.767 166.354 139.199 166.321 139.316 168.116C137.762 168.241 136.183 169.246 134.903 170.111H134.911Z" fill="black"/>
<path d="M82.5962 120.772C79.9036 116.268 75.7234 110.525 72.9394 106.062C72.7649 106.171 72.7649 106.337 72.6984 106.495C70.9865 110.525 68.6346 115.869 67.1055 120.107C66.6318 121.429 65.4766 127.57 64.496 128.185C63.4572 128.841 62.5098 128.9 61.4959 129.905C59.4599 131.941 57.3822 134.825 55.4293 137.061C52.4708 140.443 49.4956 143.809 46.5288 147.183C45.9637 147.823 43.2461 150.615 43.1132 151.163C43.0217 151.529 43.2461 152.551 43.3625 153.008C46.1465 163.862 53.9999 167.236 54.7478 166.604C59.9419 165.009 68.1859 153.64 75.042 142.811C76.6792 140.227 77.9673 139.778 79.0144 136.869C80.5269 132.648 81.6737 127.445 83.8345 123.44C83.9757 122.916 82.8954 121.271 82.5962 120.772ZM68.9172 129.465C67.7952 129.938 66.4822 130.346 65.2772 130.08L65.4517 129.781L70.679 127.927C70.7289 128.75 69.582 129.191 68.9255 129.473L68.9172 129.465Z" fill="white"/>
<path d="M95.8916 99.9878L94.8861 103.661L91.4123 99.805L90.9635 99.3146L90.6311 99.5224C90.5231 100.038 94.5121 103.927 95.2684 105.257C98.3598 110.7 104.501 118.312 106.969 123.581C109.986 130.03 120.424 157.305 123.806 164.294C121.77 168.898 117.549 170.992 108.931 176.403C108.665 176.461 108.765 176.344 108.698 176.228C108.465 175.837 108.224 175.297 108.033 174.873C103.438 165.059 95.9831 147.64 92.1519 137.526C90.7973 133.936 90.1159 131.443 88.1297 128.061C84.0908 121.196 79.3954 114.731 75.1238 108.016C72.4395 103.802 69.5059 99.2731 69.7885 94.0375C69.938 93.8214 71.4672 94.0209 71.783 94.079C76.9355 94.9599 80.7749 100.229 86.3762 100.528C87.9718 100.611 88.2959 100.611 88.8859 99.1152L90.9054 91.6191C91.4123 93.9461 91.6034 96.4725 92.3514 98.7329C93.1575 101.168 93.7392 100.353 95.8916 99.9795V99.9878Z" fill="white"/>
<defs>
<linearGradient id="paint0_linear_2024_103" x1="33.548" y1="281.044" x2="47.7791" y2="405.442" gradientUnits="userSpaceOnUse">
<stop stop-color="#334A59"/>
<stop offset="1" stop-color="#EBD7B5"/>
</linearGradient>
</defs>
</svg>
