<svg width="260" height="251" viewBox="0 0 260 251" fill="none" xmlns="http://www.w3.org/2000/svg">
<path d="M46.988 24.7695L47.6987 25.6461C47.6987 30.8821 46.8221 36.189 47.2723 41.496C47.3907 43.0123 49.2624 49.6934 48.8123 50.2147L31.3513 51.3282L34.9999 62.2265C34.9051 63.4584 29.2191 63.9323 27.916 64.0744C23.0355 64.6193 16.9466 64.9747 12.0187 65.1643C10.2655 65.2353 6.54589 65.6618 5.64559 64.0507C3.01579 59.336 2.82626 47.5138 2.73149 42.0173C2.7078 40.3825 1.71273 38.9373 2.66041 37.3263C3.41855 36.3075 19.8844 35.2177 22.3484 35.4072V27.7073C22.3484 27.2335 23.1776 25.2434 23.6751 24.7932H47.0354L46.988 24.7695ZM46.1825 26.3569H24.4096L23.9595 34.5306L24.6465 35.194L29.1243 35.4546L31.2565 49.5039L47.2249 49.1959C44.7136 41.733 45.6849 34.0568 46.1588 26.3569H46.1825ZM28.1292 36.9709C20.145 36.7813 12.2083 37.0656 4.29516 38.0844C3.15794 39.0321 5.14806 60.4969 7.39879 63.2689L32.8913 61.9185C30.1667 53.8869 28.3661 45.4763 28.1055 36.9709H28.1292Z" fill="black"/>
<path d="M46.1837 26.3555C45.7099 34.0316 44.7148 41.7315 47.2498 49.1945L31.2815 49.5025L29.1492 35.4532L24.6714 35.1925L23.9844 34.5292L24.4345 26.3555H46.2074H46.1837Z" fill="black"/>
<path d="M51.9404 91.3186C29.1488 93.3325 24.1972 108.637 25.3581 129.344C25.6187 133.869 28.2959 144.697 27.6325 148.203C27.3482 149.719 25.6661 150.43 24.8843 151.757C23.8418 153.486 23.3917 155.5 22.2071 157.087C20.9751 151.472 20.0985 145.431 19.6483 139.65C18.5585 125.98 18.8428 110.556 28.2011 99.6108C37.5594 88.6652 52.0826 89.7787 64.971 88.9258C76.5326 77.1035 93.2828 74.7106 108.114 69.1667C109.085 68.8113 112.307 69.2852 112.26 67.0344C112.26 66.2763 107.19 65.7077 106.005 65.3049C97.5711 62.4619 94.5385 51.7768 98.6372 44.2428C99.1347 43.3425 100.58 42.4896 100.722 41.7789C100.864 41.0207 98.803 36.1165 98.6135 34.3633C97.7606 27.1373 98.732 18.6082 105.579 14.5805C107.616 13.3723 110.839 13.2301 112.284 12.1166C113.918 10.8609 114.677 7.21235 117.804 5.05639C128.323 -2.16965 150.38 2.47397 163.482 2.11859C165.211 2.07121 167.652 0.460162 167.747 3.23212C166.823 3.2795 163.671 4.51147 164.88 5.81453C167.628 7.92311 178.029 10.7188 179.379 13.6802C181.109 17.5183 173.456 14.3436 172.343 17.2577C174.712 18.1343 181.677 30.7384 178.266 31.307L173.741 28.9852C173.29 29.0089 170.945 36.1639 170.637 37.3011C170.353 38.3435 169.571 41.6367 169.689 42.4422C169.808 43.2477 171.916 44.6219 172.556 45.5933C175.754 50.4027 175.778 55.9703 172.295 60.7087C170.779 62.7936 166.965 64.4994 166.325 65.5892C165.401 67.1766 164.951 71.0858 164.169 73.147C162.676 77.0324 160.402 80.1361 159.194 83.832C171.632 89.5181 177.531 103.022 183.004 114.774L249.815 106.15C252.398 105.96 254.412 107.666 253.961 110.296L239.201 165.64C244.769 167.014 252.564 167.63 257.776 169.644C258.652 169.999 259.434 170.118 259.221 171.35L239.012 167.299C237.448 167.654 236.098 184.523 232.094 185.091C202.218 191.417 172.248 197.743 142.278 203.263L95.3677 189.664C93.4013 189.356 91.8613 184.949 90.2739 184.712C88.6866 184.475 84.351 185.92 81.1526 185.565C76.5089 185.044 75.1585 182.438 72.9551 181.751C72.0548 181.466 62.8861 180.116 62.507 180.495L59.356 203.358C55.7074 208.38 34.0056 208.286 31.4943 202.078L29.9069 184.499L0.742188 188.503V186.797L29.3383 183.362L27.6325 165.451C22.9652 165 23.8418 159.314 25.1449 156.021C25.7135 154.576 27.822 155.05 28.13 154.695C28.438 154.339 27.9642 151.686 28.2959 150.572C29.2909 147.16 40.6631 147.113 43.6246 147.326C43.8141 141.285 45.3541 134.935 46.7519 129.012C49.9029 115.698 54.3096 102.335 62.4833 91.2713C59.048 91.4845 55.3047 90.9633 51.9167 91.2713L51.9404 91.3186ZM152.276 26.6871C150.38 28.5825 139.529 19.9349 137.113 19.2715C135.976 18.9635 136.165 19.8638 136.307 20.6457C136.71 22.9438 138.985 24.7207 138.558 27.2557C132.73 26.0237 127.186 23.7967 121.997 20.9774C124.414 29.7907 119.794 36.8746 117.449 44.9536C119.415 45.1905 122.045 47.8203 123.893 47.228C124.296 47.0858 127.328 42.2053 129.579 40.8786C136.568 36.7799 146.139 40.5232 146.59 48.9812L151.968 49.5972C154.432 42.9398 160.923 40.073 167.723 42.1579C167.723 36.5429 161.042 36.4245 156.848 36.1402C157.938 32.539 164.406 32.9892 166.538 35.0267C167.486 35.927 167.249 37.3248 168.268 37.5617C168.126 36.0217 168.528 34.1738 168.268 32.7049C167.628 29.3169 155.427 21.2854 151.873 20.5035C148.106 19.6743 153.46 25.5025 152.276 26.6871ZM133.251 41.1392C129.839 41.7315 126.12 45.4274 125.528 48.8627C123.656 59.9979 136.971 64.7363 143.107 56.1598C148.675 48.3889 142.775 39.5281 133.251 41.1392ZM114.534 51.303C111.407 34.6002 92.9037 42.7502 100.13 57.9841C102.428 62.841 108.872 65.4234 113.942 63.8834C114.369 64.3336 112.213 74.1657 112.189 76.1558C112.118 84.0689 116.904 92.7876 121.476 98.9474L129.081 107.334C132.114 104.586 134.815 101.293 136.118 97.3127C128.039 93.3798 122.14 86.6513 119.107 78.1696C119.889 77.3641 124.461 83.3108 125.433 84.1163C143.107 98.8527 161.421 85.3483 164.264 65.5892C161.255 65.8735 158.625 65.1628 156.28 63.2911C155.332 67.0344 150.807 67.0818 147.703 67.8637C147.395 66.3474 148.082 66.8686 148.817 66.4421C150.688 65.3286 153.223 64.8074 154.479 62.9357C154.621 62.1539 152.11 58.0315 151.826 56.5863C151.518 54.9516 152.299 51.303 150.759 50.8055C145.926 49.2181 146.684 53.6722 144.742 56.6337C139.34 64.8785 126.759 63.7413 124.082 54.0513C123.68 52.6298 123.964 49.9763 123.135 49.2892L116.264 46.7305C115.98 47.0622 116.904 51.8716 114.558 51.303H114.534ZM164.832 63.836L167.675 44.2191C167.462 43.5084 166.941 43.4136 166.278 43.2715C149.504 40.1441 148.722 65.2102 164.832 63.836ZM166.562 62.7225C173.788 60.6376 175.399 49.6683 169.713 45.001L166.562 62.7225ZM111.099 70.7304C109.749 70.5408 106.692 71.1568 105.911 72.2704C104.963 73.6445 102.215 83.3819 102.025 85.3957C101.101 94.1617 102.76 103.046 105.389 111.338C106.266 111.978 111.715 104.894 113.113 103.899C118.136 100.298 122.637 104.326 124.817 109.04C123.514 110.225 119.605 103.946 115.98 104.444C113.658 104.776 106.858 113.565 106.195 113.636C103.233 113.944 101.528 104.681 101.077 102.193C99.3006 92.29 99.8929 82.908 103.66 73.5734C83.9008 76.9614 66.3451 84.6375 57.2474 103.496C50.898 116.693 47.5811 132.945 45.3304 147.35C49.5002 147.492 61.9621 146.592 64.1654 150.596C64.9947 152.088 63.7864 153.605 64.1654 155.026C64.3076 155.547 65.6107 155.453 66.2266 155.927C68.9512 158.011 68.4063 165 64.1891 165.451L63.0756 178.813L72.2207 179.95C68.0983 169.881 73.0736 156.827 82.503 151.638C77.812 150.619 73.3105 152.87 68.7854 153.628C67.0085 152.065 76.3905 149.672 76.7932 149.34L73.9502 147.042L65.3737 144.768C67.6955 142.896 74.7794 144.768 76.8169 146.45C78.2148 147.634 79.731 151.259 82.4319 149.53C83.1664 149.056 86.4122 134.485 86.8149 132.471C88.8287 122.118 90.5819 109.656 83.6402 100.724C81.9344 98.521 79.2335 97.0047 77.6461 95.2989C76.9354 94.5408 76.6037 94.1143 76.8169 93.0008C90.345 99.2791 91.6954 113.684 89.8949 126.951C88.9472 133.846 85.7251 141.309 84.967 147.776C84.8722 148.629 84.6116 149.435 85.0854 150.24C85.8672 151.354 91.3401 150.525 93.0933 150.809C97.0024 151.425 100.296 155.097 101.196 158.817C104.679 158.106 116.904 160.262 118.444 157.23L127.612 108.827C117.97 98.521 108.28 85.7747 111.147 70.7067L111.099 70.7304ZM180.848 115.342C176.133 103.52 169.547 90.9159 157.583 85.1351L148.224 91.1054C146.945 95.678 153.816 110.414 150.001 112.807C146.613 114.916 145.595 104.562 142.278 104.491C138.961 104.42 136.355 110.012 133.393 110.77C132.138 109.396 139.79 102.691 142.254 102.714C145.097 102.738 147.111 107.216 148.106 109.514C148.461 110.343 147.751 111.078 149.385 110.77C149.527 104.349 145.808 98.4262 146.542 91.8873L137.35 92.1479L136.947 92.7165C139.956 101.506 131.095 105.392 128.489 112.452L120.789 156.519C128.726 152.752 139.529 150.146 147.656 154.221C150.333 142.683 152.844 130.576 156.517 119.346C157.085 117.617 161.397 106.079 162.013 105.7C163.269 104.894 163.861 105.652 163.553 106.932C162.89 109.751 159.691 115.413 158.507 119.038C157.654 121.644 153.91 133.846 154.005 135.67C154.124 137.778 158.341 140.977 159.952 142.209L166.254 118.778C168.505 115.342 176.986 115.863 180.801 115.319L180.848 115.342ZM251.758 108.472L168.291 119.062L149.03 196.416C148.295 198.051 143.391 197.624 143.699 201.131L232.733 182.675L251.758 108.472ZM159.62 144.033C156.469 143.014 155.166 140.219 152.868 138.205C152.75 140.74 152.181 143.322 151.541 145.763C150.902 148.203 149.172 152.467 148.935 154.647C148.698 156.685 154.124 160.404 155.427 162.205L159.62 144.009V144.033ZM61.3698 151.378C60.8486 150.098 58.2425 149.861 57.0105 149.743C54.4044 149.459 50.5426 149.151 47.9602 149.08C42.4163 148.914 37.0856 149.293 31.6364 150.264C33.129 152.136 37.5357 152.396 39.9049 152.562C46.7993 153.036 54.5939 152.586 61.3698 151.378ZM62.507 153.083C52.1063 155.832 40.284 155.405 29.9306 152.515C29.2673 158.13 30.7835 157.917 35.4272 158.722C39.1468 159.362 60.8723 160.002 62.4359 157.585L62.507 153.083ZM99.111 158.817C96.9551 151.33 86.2463 150.928 80.7972 155.097C74.4477 159.954 70.7281 171.137 73.8317 178.671C76.9828 186.276 89.042 183.409 95.0834 181.135L89.6343 180.021C78.7834 174.193 86.8623 155.595 99.0873 158.817H99.111ZM153.413 171.397C153.65 169.692 154.74 167.749 154.55 166.019C154.384 164.385 148.84 157.727 147.419 156.519C142.349 152.254 130.645 154.552 124.84 156.827C122.092 157.893 118.609 160.665 115.909 161.044C109.109 162.015 100.817 160.357 93.9225 160.783C88.3312 161.684 84.351 171.231 87.6441 175.686C90.9373 180.14 98.2818 176.349 102.167 176.562C105.389 176.728 109.393 179.002 113.089 178.837C114.416 178.789 120.529 177.178 121.595 176.538C122.566 175.97 121.216 174.643 122.827 174.785C126.38 175.141 133.085 185.21 135.597 181.277C137.326 178.529 133.962 173.411 131.64 171.705C130.219 170.663 126.712 169.857 126.523 169.668C126.167 169.289 126.641 167.204 127.849 167.464C135.857 169.857 137.231 178.363 143.936 181.68C144.931 181.016 144.86 180.187 144.836 179.145C144.623 172.843 137.421 166.73 132.232 163.958L132.801 162.537C134.104 161.66 139.672 166.446 140.832 167.678C144.623 171.634 146.116 177.51 151.091 179.997C151.21 178.173 152.963 174.998 152.37 173.316C151.778 171.634 146.329 165.143 144.836 163.674C143.344 162.205 137.587 158.604 137.373 157.419C137.208 156.566 137.397 156.4 138.25 156.542C140.477 156.945 143.865 160.831 145.974 161.968L153.366 171.421L153.413 171.397ZM64.2365 157.68C63.9048 160.546 58.3846 160.831 55.8733 161.044C46.8466 161.802 34.5032 161.944 26.519 157.68C26.7559 159.457 25.7135 162.229 27.4667 163.295C31.3758 165.664 48.1023 166.019 53.1013 165.664C55.5416 165.498 65.1368 164.219 65.8476 161.849C66.2977 160.381 66.2977 157.443 64.2602 157.68H64.2365ZM62.507 166.256C51.7746 167.915 40.6394 167.986 29.9306 166.256C28.4143 171.8 37.6305 173.34 41.6581 173.672C44.975 173.932 60.6827 173.103 61.8436 169.857C62.199 168.862 61.7489 167.346 62.5307 166.256H62.507ZM129.413 182.248L123.419 177.699C118.728 179.689 114.369 181.064 109.18 180.471C104.3 179.926 99.2769 175.946 96.2443 182.533L141.259 195.847L147.443 195.445L147.656 193.146L121.381 185.115C121.216 183.907 121.334 184.191 122.116 183.836C124.059 182.959 127.233 182.556 129.389 182.248H129.413ZM139.885 182.082L137.989 179.974L137.421 182.793C139.695 183.836 141.709 184.262 144.268 183.978L139.885 182.082ZM150.546 183.978C151.494 182.935 148.224 180.282 147.395 179.974C146.258 179.571 146.234 182.793 144.836 183.125C145.713 183.764 146.732 182.651 147.94 182.817C149.03 182.959 149.409 184.191 150.546 183.978ZM142.562 197.695L92.809 183.978C93.1644 186.015 95.5099 187.626 97.2157 188.432C109.133 193.928 127.565 195.61 140.098 201.012L141.946 201.154L142.515 197.719L142.562 197.695ZM59.0717 190.848C50.9691 193.644 40.5446 195.776 32.7737 191.417C32.3235 192.033 33.058 200.562 33.6266 201.699C35.0955 204.708 45.9464 205.324 48.9789 205.064C60.0904 204.116 58.4557 200.586 59.048 190.848H59.0717Z" fill="black"/>
<path d="M194.471 197.293C215.486 195.232 234.013 207.291 251.521 217.099C253.512 219.019 251.095 223.662 253.227 225.107C253.796 225.486 259.269 226.292 255.928 227.879L214.633 236.906C212.738 240.128 206.507 241.526 203.403 239.441L158.294 250.884C155.593 250.671 153.437 248.989 151.186 247.686C139.53 240.91 128.679 232.239 117.425 224.799C117.259 224.017 118.349 223.354 118.847 222.88C130.456 211.721 147.775 204.258 163.98 205.704C166.041 205.893 171.087 207.694 172.438 207.338C173.006 207.196 177.01 203.619 178.266 202.837C183.147 199.781 188.714 197.862 194.448 197.293H194.471ZM247.754 216.578C228.54 207.433 209.942 194 187.482 200.586C182.223 202.126 178.479 205.111 174.002 208.002L206.957 228.495C207.905 228.59 213.449 223.875 214.988 222.975C223.826 217.834 236.264 217.644 246.333 217.147C246.973 217.123 247.897 217.526 247.754 216.578ZM200.3 226.861C196.082 223.733 191.581 220.795 187.103 218.047C173.978 210.016 166.61 205.633 150.333 208.049C139.553 209.66 129.532 216.886 121.405 223.71L160.639 246.738C170.353 244.298 179.048 239.725 188.856 237.427C200.608 234.679 212.927 232.807 224.773 230.462C233.539 228.708 242.376 227.216 251.19 225.723L250.076 219.113C241.002 219.398 230.175 219.232 221.456 222.004C215.984 223.733 211.956 227.595 207.36 230.746C200.205 228.401 192.766 227.003 185.326 228.164C176.892 229.467 169.855 233.589 162.274 237.119C153.863 233.305 146.448 227.666 138.369 223.33C136.213 222.17 133.867 221.577 131.948 220.606C131.119 220.179 130.314 220.061 130.551 218.853C131.783 217.81 140.762 222.738 142.562 223.71C149.22 227.24 155.332 231.86 162.321 234.868C174.57 229.49 186.487 223.449 200.3 226.861Z" fill="black"/>
<path d="M89.8257 201.25C99.6815 203.003 110.035 205.799 119.701 208.855C122.9 209.874 131.002 211.224 124.653 214.375C112.333 220.512 97.0754 224.373 84.4002 230.178L47.6777 216.863C47.6777 215.915 54.0982 213.641 55.3776 213.143C66.6787 208.737 78.5009 205.633 89.8494 201.274L89.8257 201.25ZM124.25 212.006L91.413 202.885C78.2877 206.794 65.5888 212.03 52.4872 215.986C51.6817 216.223 51.4684 215.631 51.6343 217.147L84.495 228.046L124.226 212.006H124.25Z" fill="black"/>
<path d="M226.028 60.4504C226.336 61.6349 225.626 62.014 225.199 62.7485C223.588 65.5204 220.319 69.8087 218.257 72.3911C217.736 73.0308 214.206 77.8402 213.448 77.011C213.14 75.8264 213.827 75.4473 214.277 74.7129C216.101 71.6092 221.314 64.5491 223.754 61.8956C224.394 61.2085 224.891 60.2608 226.028 60.4504Z" fill="black"/>
<path d="M195.725 68.4572C195.109 67.7464 200.937 54.2184 201.719 54.171C202.596 54.1236 202.525 55.6873 202.312 56.4691C201.932 57.8906 198.402 65.6852 197.549 67.1541C197.076 67.936 196.839 68.6941 195.725 68.4572Z" fill="black"/>
<path d="M238.04 80.469C238.277 81.5351 237.495 81.8431 236.856 82.4117C235.718 83.4068 231.217 86.1551 229.772 86.7711C228.706 87.2449 228.729 87.7424 227.758 86.4394L235.576 81.1087L238.04 80.4453V80.469Z" fill="black"/>
<path d="M251.758 108.473L232.734 182.676L143.7 201.132C143.392 197.649 148.272 198.052 149.03 196.417L168.292 119.063L251.758 108.473ZM199.944 148.725C191.581 156.852 199.47 166.139 207.17 157.941C214.87 149.744 208.118 140.765 199.944 148.725Z" fill="black"/>
<path d="M111.099 70.7329C108.233 85.7773 117.923 98.5472 127.565 108.853L118.396 157.256C116.856 160.312 104.631 158.156 101.149 158.843C100.248 155.124 96.9553 151.451 93.0461 150.835C91.2929 150.551 85.8201 151.38 85.0382 150.267C84.5644 149.461 84.825 148.656 84.9198 147.803C85.7016 141.335 88.9237 133.872 89.8477 126.978C91.6483 113.71 90.3215 99.3054 76.7697 93.027C76.5802 94.1405 76.9119 94.567 77.599 95.3251C79.1863 97.0547 81.8872 98.5709 83.593 100.751C90.5348 109.682 88.7815 122.144 86.7677 132.498C86.365 134.512 83.1192 149.082 82.3847 149.556C79.6839 151.285 78.1676 147.637 76.7697 146.476C74.7322 144.77 67.6484 142.898 65.3266 144.794L73.903 147.068L76.7461 149.366C76.367 149.698 66.9613 152.091 68.7382 153.655C73.2633 152.873 77.7648 150.622 82.4558 151.665C73.0264 156.853 68.0511 169.907 72.1735 179.976L63.0284 178.839L64.142 165.477C68.3591 165.003 68.904 158.014 66.1795 155.953C65.5635 155.479 64.2604 155.574 64.1183 155.052C63.7392 153.655 64.9475 152.138 64.1183 150.622C61.9149 146.642 49.453 147.542 45.2832 147.376C47.5339 132.972 50.8508 116.719 57.2002 103.523C66.2742 84.6638 83.8536 76.9876 103.613 73.5996C99.822 82.9343 99.2534 92.3163 101.03 102.219C101.48 104.731 103.186 113.994 106.148 113.663C106.811 113.592 113.634 104.802 115.932 104.47C119.557 103.949 123.467 110.251 124.77 109.066C122.566 104.352 118.065 100.324 113.066 103.925C111.692 104.92 106.219 112.004 105.342 111.365C102.712 103.072 101.054 94.1879 101.978 85.4219C102.191 83.4318 104.916 73.6707 105.863 72.2966C106.645 71.1831 109.702 70.5671 111.052 70.7566L111.099 70.7329Z" fill="#C4DEF8"/>
<path d="M180.85 115.344C177.035 115.889 168.53 115.344 166.303 118.803L160.001 142.234C158.39 140.978 154.149 137.804 154.054 135.695C153.959 133.894 157.703 121.669 158.555 119.063C159.764 115.438 162.938 109.776 163.602 106.957C163.91 105.654 163.317 104.919 162.062 105.725C161.446 106.128 157.134 117.642 156.565 119.371C152.869 130.625 150.382 142.731 147.705 154.246C139.578 150.171 128.798 152.777 120.838 156.544L128.538 112.477C131.144 105.393 140.005 101.531 136.996 92.7416L137.399 92.173L146.591 91.9123C145.88 98.4513 149.576 104.351 149.434 110.795C147.799 111.103 148.51 110.368 148.155 109.539C147.183 107.241 145.146 102.787 142.303 102.74C139.839 102.716 132.186 109.421 133.442 110.795C136.38 110.06 139.104 104.445 142.326 104.516C145.549 104.588 146.662 114.941 150.05 112.832C153.888 110.439 146.994 95.703 148.273 91.1305L157.631 85.1602C169.596 90.9647 176.182 103.545 180.897 115.367L180.85 115.344ZM129.13 123.92C127.851 124.299 127.685 127.948 129.675 127.948C132.66 127.948 131.76 123.138 129.13 123.92ZM126.334 148.56C124.131 149.27 125.813 153.44 128.301 151.687C129.699 150.692 128.798 147.778 126.334 148.56Z" fill="#C4DEF8"/>
<path d="M99.11 158.817C86.8849 155.595 78.7823 174.193 89.6569 180.021L95.106 181.134C89.0409 183.409 76.9817 186.299 73.8544 178.671C70.7508 171.136 74.4704 159.954 80.8198 155.097C86.269 150.927 96.9777 151.33 99.1337 158.817H99.11Z" fill="#C4DEF8"/>
<path d="M142.563 197.696L141.994 201.132L140.146 200.99C127.613 195.588 109.157 193.906 97.2641 188.409C95.5583 187.627 93.2128 185.993 92.8574 183.955L142.61 197.673L142.563 197.696Z" fill="black"/>
<path d="M129.129 123.919C131.759 123.114 132.683 127.923 129.674 127.947C127.684 127.947 127.826 124.322 129.129 123.919Z" fill="black"/>
<path d="M126.335 148.557C128.799 147.776 129.723 150.69 128.302 151.685C125.814 153.438 124.132 149.268 126.335 148.557Z" fill="black"/>
<path d="M150.002 73.5989C149.599 87.7667 132.114 83.9997 129.674 72.4854C127.897 64.0984 133.631 69.6424 136.853 71.0165C141.141 72.8408 145.406 73.2435 150.002 73.5989ZM147.704 74.7361C143.723 74.9257 139.53 74.1675 135.881 72.5565C134.412 71.8931 133.346 70.3057 131.688 70.1636C129.579 72.2722 145.903 80.4222 147.704 74.7361Z" fill="black"/>
<path d="M109.96 57.0144C110.481 53.2237 107.449 50.1911 103.658 50.7123V49.0065C105.862 48.7222 108.823 49.4567 110.221 51.3046C111.216 52.6077 112.945 57.0381 109.96 57.0144Z" fill="black"/>
<path d="M141.829 31.4274C146.094 34.9575 135.101 34.0098 133.703 34.1283C131.807 34.2941 130.244 35.5024 128.277 35.2655C128.751 30.4323 139.507 29.461 141.829 31.4037V31.4274Z" fill="black"/>
<path d="M135.528 49.1238C141.238 47.4417 141.143 55.876 137.092 56.4683C132.756 57.0843 132.046 50.1662 135.528 49.1238Z" fill="black"/>
<path d="M158.959 51.9661C164.456 50.284 165.451 58.9552 160.357 59.5712C155.855 60.1161 155.95 52.8901 158.959 51.9661Z" fill="black"/>
<path d="M224.277 210.325V211.983C214.421 208.429 205.418 213.381 196.297 216.556C196.131 215.158 197.552 214.518 198.547 213.95C205.347 210.088 216.766 207.695 224.277 210.301V210.325Z" fill="black"/>
<path d="M212.88 206.841C205.583 206.391 199.447 208.333 192.695 210.394C191.652 210.702 191.486 211.247 190.586 209.992C194.14 207.386 199.21 206.343 203.498 205.775C204.943 205.585 210.392 204.945 211.411 205.111C212.382 205.277 213.022 205.751 212.856 206.841H212.88Z" fill="black"/>
<path d="M103.638 215.49L103.685 217.149C96.0088 215.49 88.6406 212.197 80.8223 210.846V209.141L103.638 215.49Z" fill="black"/>
<path d="M89.3735 207.408C89.2076 206.769 89.6104 205.939 90.2027 205.845C91.0793 205.726 103.826 209.493 105.816 210.133C106.906 210.488 112.189 212.004 112.236 212.857C112.284 213.947 110.601 213.402 110.08 213.331C103.683 212.384 96.0783 208.237 89.3972 207.432L89.3735 207.408Z" fill="black"/>
</svg>
