<svg width="375" height="308" viewBox="0 0 375 308" fill="none" xmlns="http://www.w3.org/2000/svg">
<path d="M135.554 87.7697C135.594 87.8623 136.269 87.655 136.366 88.4754C137.164 94.9504 135.656 106.008 133.697 112.302C132.621 115.76 130.253 118.477 129.463 121.763C131.752 123.033 134.108 124.216 136.459 125.362C144.989 129.526 153.488 134.651 162.654 137.483C174.272 141.078 186.335 141.669 198.425 142.008C198.266 139.437 197.843 136.896 197.966 134.281C198.16 130.276 199.378 128.243 198.112 124.044C196.802 119.703 194.208 115.372 192.911 110.745C190.331 101.518 189.577 91.735 192.704 82.5518L193.573 82.9973C192.942 80.3818 195.095 76.9943 196.475 74.6655C205.755 58.9677 231.757 56.0654 242.656 71.1325C251.014 82.6842 249.955 97.5659 263.196 105.642C270.43 110.053 275.454 111.429 281.205 118.464C289.074 128.088 288.426 137.805 292.894 148.611C297.097 158.769 306.333 169.796 307.207 181.048C307.286 182.049 305.932 181.207 306.32 182.53L307.67 182.772C308.093 187.69 308.256 192.586 307.639 197.504L306.77 197.063L306.342 198.629L307.639 198.382C306.77 207.812 303.894 216.841 299.351 225.102L294.874 232.292H319.53L319.336 233.641C318.529 234.74 315.296 233.641 314.043 233.597C308.243 233.412 300.833 233.081 295.156 233.333C294.579 233.359 294.001 233.575 293.45 233.729C285.422 241.17 280.478 248.541 268.873 250.115C267.717 250.274 265.984 251.566 266.24 249.908C265.516 249.718 266.041 250.671 265.521 250.795C262.019 251.637 252.289 249.639 248.769 248.223C246.793 247.429 245.593 246.088 243.785 245.502C243.542 247.853 243.886 250.27 242.462 252.33C241.932 253.093 235.563 258.685 234.954 258.95C234.412 259.188 233.697 258.659 233.653 258.707C233.587 258.787 233.843 259.47 233.358 260.057C232.745 260.803 226.662 265.279 225.427 266.122C221.546 268.773 209.91 275.239 205.892 270.833C204.071 268.834 205.169 263.423 206.783 264.878C207.542 265.562 205.464 266.77 205.46 266.894C205.306 270.572 208.905 271.344 211.856 271.04C218.392 270.369 235.149 257.728 239.771 252.713C243.591 248.567 241.628 244.862 241.557 240.01C241.421 230.545 241.562 221.035 241.826 211.583C241.143 210.216 236.93 210.101 235.418 209.598C230.107 207.83 224.686 205.042 219.79 202.334C219.076 202.819 219.199 203.031 219.217 203.741C219.318 207.781 220.911 213.092 220.439 217.088C220.386 217.555 219.257 216.237 219.565 217.516C219.737 218.217 220.359 219.192 220.875 219.734L219.998 220.171C220.43 220.524 220.774 220.93 220.867 221.503C221.555 225.724 222.066 232.98 222.216 237.329C222.274 238.996 222.441 241.986 222.172 243.486C221.674 246.274 216.562 251.218 214.722 253.653C212.063 257.177 209.43 260.772 206.995 264.446L205.905 264.212L212.949 253.423C210.89 253.243 209.562 254.927 207.961 255.699C202.805 258.187 190.366 263.7 185.082 261.244C182.392 259.991 182.533 257.199 183.79 254.866C183.984 254.5 185.779 252.149 185.947 252.087C186.331 251.95 187.698 251.8 187.402 252.749C183.618 255.845 182.462 260.278 188.973 260.472C194.936 260.648 213.54 252.131 217.576 247.694C219.689 245.369 220.977 243.19 220.902 239.966C220.708 231.771 219.795 223.466 219.111 215.324C218.904 212.889 217.686 207.865 218.216 205.699C218.304 205.342 219.733 205.47 219.107 204.535C219.08 204.495 218.494 204.65 218.247 204.213C217.823 203.459 218.017 202.096 217.695 201.319C217.373 200.543 208.318 195.039 207.335 194.902C206.893 194.84 200.449 197.438 199.938 198.382C200.105 200.53 200.233 202.766 200.471 204.897C201.534 214.331 204.132 224.93 204.573 234.259C204.692 236.76 204.723 238.299 203.255 240.416C201.34 243.168 194.446 247.778 191.381 249.683C189.445 250.887 188.796 250.168 190.261 248.563C194.071 244.395 205.182 241.466 202.708 233.699L163.62 232.711C163.876 231.74 164.806 231.864 165.578 231.806C168.167 231.621 171.665 231.934 174.43 231.917C175.965 231.908 177.558 231.828 179.238 231.815C186.556 231.767 193.921 231.652 201.217 232.115L202.315 231.767C202.968 230.708 201.552 225.349 201.684 223.655C201.72 223.214 202.527 222.839 202.359 222.592C202.333 222.553 201.596 222.703 201.486 222.292C201.212 221.256 200.868 218.385 200.657 217.026C199.677 210.886 199.258 204.107 198.853 197.914C192.814 198.532 185.643 195.806 184.421 189.225C183.375 183.593 184.306 176.831 185.673 171.304C186.123 169.492 187.001 167.855 187.385 166.029L160.973 162.24L161.423 161.367C158.887 161.985 155.61 160.975 152.963 160.353C148.072 159.21 143.176 157.27 138.298 156.035L137.694 156.136C136.785 156.714 136.86 168.508 136.781 170.409C136.688 172.553 136.688 175.093 135.903 177.03L136.781 177.493C135.828 179.239 137.164 186.416 136.639 187.258C136.6 187.32 135.188 187.377 135.898 188.211C135.951 188.273 136.525 188.14 136.639 188.312C137.067 188.943 136.247 197.888 136.758 198.355C149.347 194.126 165.843 188.167 173.667 203.062C176.446 208.355 175.789 215.676 173.248 220.969C170.514 226.664 165.208 229.455 160.987 233.813C160.797 234.867 161.467 234.347 162.089 234.453C166.099 235.137 171.083 236.235 173.05 240.235C178.585 251.483 159.844 253.639 152.809 254.323L151.953 253.401C151.548 253.335 151.87 254.036 151.653 254.178C150.26 255.069 139.528 253.512 137.05 254.363C136.189 254.658 135.144 257.278 134.368 257.843C132.088 259.501 119.733 257.159 116.302 257.402L116.059 256.052C115.336 255.863 115.852 256.815 115.344 256.943C113.858 257.318 113.13 256.374 112.314 256.282C109.968 256.017 107.229 256.193 104.842 255.611C101.896 256.661 101.398 259.568 99.1041 261.332C98.0676 261.764 98.4249 260.088 98.6807 259.585C99.2452 258.465 103.246 256.18 102.417 255.179L85.0559 251.725C83.8386 252.008 81.942 258.919 81.7523 260.273C81.5318 261.826 82.4713 265.394 80.8393 265.31V265.738C82.1184 265.941 82.5374 267.63 83.6974 268.389C88.9727 271.829 93.5069 264.843 96.9164 261.786C98.0367 261.31 97.5383 263.153 97.1546 263.789C95.7828 266.029 90.7017 270.096 87.9891 270.475C85.2765 270.855 80.6232 270.237 81.7126 266.629L80.4688 266.347C79.2911 261.588 81.7479 257.199 82.1537 252.537C73.2881 254.407 61.71 253.154 55.2791 246.159C51.5344 242.083 50.8066 238.109 50.6214 232.662L28.8633 232.715V231.396C31.5671 231.798 34.262 231.405 37.0319 231.374C38.5007 231.357 39.9077 231.396 41.3986 231.374C43.2378 231.348 49.7172 231.784 50.7096 230.999C51.2698 230.554 52.0505 227.36 51.7505 227.012L45.5755 225.856C45.5491 223.836 45.8843 221.834 46.1577 219.845C46.5371 217.11 48.469 209.969 48.2749 207.834C48.1029 205.946 46.3518 204.553 45.7123 202.881C42.7747 195.197 44.0979 174.912 45.2138 166.497C45.6417 163.259 46.5988 160.079 46.8987 156.815L48.2396 156.529L47.3266 155.461C48.1426 151.562 49.0512 147.504 50.8066 143.905C51.4638 142.56 51.6226 141.435 53.1002 142.696L50.4406 149.489L49.5672 149.044C50.4758 152.171 48.6013 155.589 48.0014 158.712C47.0267 163.762 47.0134 170.969 46.0386 175.177C45.8358 176.046 45.6285 174.529 45.6285 177.427C45.6285 185.428 44.5566 193.535 46.9032 201.262L46.0122 201.703L46.4885 203.207L47.3575 202.334C47.4192 202.943 47.6662 203.591 48.0411 204.072C51.6535 208.721 56.867 211.252 62.1775 213.718C65.5517 215.284 69.8742 217.128 73.3543 218.393C75.4273 219.148 87.0364 223.161 88.2758 222.098C89.1094 216.047 90.7767 212.126 94.4949 207.402C95.2844 206.396 98.169 204.658 96.6694 203.445C93.8465 202.466 91.3236 200.803 88.6198 199.608C81.8185 196.6 76.1948 194.986 69.2567 192.988C68.5025 192.771 67.9467 191.585 66.8617 191.387C64.3652 190.928 61.8776 194.073 59.262 193.517C58.0976 192.533 64.6122 190.156 65.243 190.032C66.2707 189.83 68.5819 190.451 68.9171 189.283L70.4829 148.161C71.3606 149.374 72.1237 151.84 70.7123 152.784C72.1016 153.097 72.1193 155.571 70.7078 155.863L71.6032 156.365C71.9076 161.204 70.9284 166.016 70.6946 170.819C70.4344 176.086 71.0739 183.297 69.3934 188.017C70.7564 188.29 69.7022 189.38 70.2579 190.566L88.6154 198.316L89.5858 197.637C89.4799 185.93 90.0356 174.163 89.674 162.452C89.3873 153.3 88.2978 143.623 87.4818 134.713C86.9746 129.191 86.0219 123.744 86.1366 118.204C88.117 119.483 85.9822 116.298 86.1277 115.566C83.274 116.232 81.8758 119.417 80.7687 121.873C78.5369 126.827 77.9194 131.983 76.4374 137.143C75.939 137.254 75.3347 137.002 75.2597 136.504C74.898 134.188 78.5766 124.291 79.5249 121.507C77.4827 121.132 74.6775 122.985 72.7897 124.021C65.2385 128.163 57.1228 134.471 53.5413 142.432C51.6579 141.536 52.3416 140.623 53.1884 139.208C58.6666 130.051 69.764 123.986 78.8765 119.086L79.0926 119.964H79.966C80.0101 119.011 81.6288 116.792 82.3742 115.99C84.3679 113.85 87.0761 114.155 85.6646 110.556C86.8952 110.185 87.0981 109.201 85.6955 109.62L85.1971 104.394C84.9721 103.706 83.2078 103.401 82.3874 102.801C78.1002 99.6743 77.1607 90.6279 80.0409 86.3539C80.9672 84.9777 83.2211 84.2059 83.4196 83.5663C83.6666 82.79 83.4107 81.7182 83.6886 80.7523C85.1618 75.5829 86.3747 72.1778 90.3179 68.4419C91.3721 67.4451 93.304 66.1086 94.4817 65.1162C105.703 55.664 123.253 59.347 130.628 71.7367C133.517 76.5885 135.021 80.739 135.863 86.3406C135.942 86.8699 135.462 87.483 135.572 87.7433L135.554 87.7697ZM116.509 131.008H109.681C108.402 131.008 103.616 129.314 102.452 128.547C101.702 128.053 99.1217 125.142 99.7745 124.405C101.252 124.613 101.945 126.165 103.149 126.972C110.453 131.855 119.371 129.65 125.335 123.761C133.649 115.548 135.991 97.9938 134.518 86.7994C133.878 81.9564 129.895 82.7635 126.173 81.4315L126.424 79.9142L133.684 81.2374C132.418 79.676 132.202 77.5809 131.364 75.8519C127.725 68.3449 119.896 61.7508 111.242 61.8346L111 60.5379C110.179 62.536 108.045 61.2657 106.263 61.5215C101.468 62.2184 91.2486 67.8773 89.7445 72.7556C89.5108 73.5054 89.6519 74.3082 89.6343 75.0712L88.7477 73.7524C87.8612 73.1482 86.3086 77.1619 86.0704 77.9338C85.8102 78.7807 86.1233 79.3717 85.9998 80.0245C85.7572 81.2815 84.6413 82.6268 85.3029 84.2588C87.4774 84.3558 90.1062 88.2593 89.6299 90.2486C89.1138 92.4142 87.7024 88.2681 87.5259 87.9726C85.4397 84.4837 80.8393 85.8952 80.0409 89.4767C78.8986 94.5931 80.7422 101.633 86.5644 102.585L86.9349 103.093C86.732 107.084 87.5965 111.027 87.8082 114.984C88.1302 120.956 87.2569 127.59 89.1623 133.452C90.7061 138.202 102.218 142.996 106.915 142.352C109.438 142.004 116.394 139.261 116.923 136.499C117.078 135.692 116.937 131.286 116.496 131.004L116.509 131.008ZM248.531 121.834C247.834 120.722 245.95 118.027 245.042 116.761C235.638 103.692 219.005 101.447 207.683 113.612C197.141 124.939 195.875 146.009 208.865 156.039C214.564 154.389 220.271 153.979 225.441 157.358C232.555 152.59 239.339 146.754 248.579 148.567C251.923 139.966 251.9 131.573 248.403 123.064C248.222 122.623 248.623 121.984 248.531 121.834ZM197.988 142.904C193.445 143.689 188.695 143.274 184.116 142.899C173.557 142.026 163.24 139.821 153.51 135.631C145.717 132.274 137.372 126.028 129.595 123.426C126.812 122.495 127.514 123.889 126.173 125.054C125.692 125.473 124.902 125.499 124.554 125.839C123.222 127.122 126.953 131.793 127.514 133.443L126.645 133.65V134.532C128.418 133.994 130.46 139.375 130.2 140.443L124.841 143.182L127.902 149.26C126.164 158.69 125.582 168.358 123.87 177.784C123.676 178.842 123.738 180.907 122.238 180.77C122.212 179.835 122.199 178.904 122.291 177.965C122.896 172.001 127.139 153.437 125.987 149.048C125.591 147.526 122.393 143.248 122.697 142.286C123.57 141.188 128.48 140.174 128.347 138.793C126.949 134.995 124.192 131.427 123.553 127.484L118.013 131.207L121.118 204.57C121.616 205.232 121.661 204.8 122.124 204.676C123.116 204.411 124.298 203.825 125.304 203.437C126.724 202.89 134.694 199.679 134.937 198.977C134.805 195.471 135.44 191.986 135.453 188.511C135.475 181.326 134.809 173.819 135.171 166.532C135.276 164.402 136.467 148.708 137.244 148.214L138.527 148.188L137.61 154.063C138.532 155.241 156.81 159.682 159.65 160.313C165.578 161.636 171.669 162.726 177.527 163.793L188.249 164.018C190.208 157.494 196.431 154.358 201.468 150.534C201.684 149.807 199.232 143.698 197.6 143.711L197.984 142.899L197.988 142.904ZM254.366 135.855L252.597 135.414C254.176 137.36 253.061 136.327 252.584 137.02C251.826 138.131 252.337 140.015 252.112 141.312C251.742 143.451 250.992 145.559 250.833 147.742L249.519 147.301V148.625L250.392 148.179C249.832 149.119 250.511 150.517 251.552 150.724C252.355 150.883 258.239 148.77 260.29 148.607C262.941 148.395 267.885 148.219 269.936 150.005C270.867 150.817 272.913 155.585 272.904 156.776C272.891 159.1 271.497 158.835 270.897 160.092C270.386 161.16 270.686 162.823 269.799 163.837C268.119 165.765 260.581 163.886 257.321 164.569C256.686 164.702 249.51 167.802 249.197 168.116C248.809 168.508 247.04 172.429 246.669 173.294C245.725 175.512 241.496 189.181 240.428 189.543L233.225 186.94C235.356 185.432 236.992 187.417 239.268 187.73L240.049 187.395L246.872 168.438L239.145 167.736C236.653 170.175 233.759 172.204 231.232 174.582C230.112 175.636 223.879 181.652 223.61 182.389C223.487 182.724 223.517 183.068 223.535 183.412C226.856 182.786 230.217 185.481 233.658 185.617C233.671 186.985 232.983 186.954 231.889 186.755C230.089 186.429 222.851 183.271 222.08 183.474C221.334 184.373 220.121 184.665 219.252 185.309C218.467 185.891 216.897 187.77 216.019 188.449C213.664 190.275 211.075 191.62 209.002 193.764C219.098 199.948 229.37 207.596 241.421 209.338C254.384 211.213 258.578 202.572 263.24 192.079C264.14 190.054 267.876 178.97 268.877 178.366C269.098 178.234 269.737 178.613 269.764 178.565C269.702 177.943 269.393 177.449 269.513 176.783C269.623 176.17 272.168 169.558 272.459 169.143C272.993 168.385 273.235 168.318 274.17 168.438L264.008 194.205C265.239 196.609 266.187 199.092 267.241 201.571C267.589 202.391 268.692 203.401 268.811 203.992C269.032 205.122 267.581 206.18 269.341 205.673C269.94 206.709 273.416 213.453 273.279 213.974C273.16 214.419 272.49 214.807 271.978 214.675C270.104 210.339 268.105 206.048 266.121 201.756C265.596 200.618 265.75 200.746 265.027 199.396C264.484 198.382 263.884 197.306 263.598 196.181L262.694 196.454C261.317 198.572 259.421 203.485 257.639 205.007C257.03 205.527 256.73 205.029 256.117 204.989C256.885 206.736 256.038 207.217 254.754 208.253C251.556 210.825 247.587 211.261 243.617 211.217C242.506 211.526 243.419 214.785 243.388 215.778C243.26 219.584 242.933 223.43 242.885 227.21C242.845 230.161 243.48 233.121 242.457 236.032L243.339 235.816C243.291 239.009 242.413 239.838 244.12 242.749C246.661 247.094 254.256 248.457 259.037 248.973C264.533 249.564 270.276 249.418 275.286 246.825L276.376 247.707L275.93 246.397C286.957 241.894 292.078 229.345 293.132 218.001C293.353 215.637 292.356 210.101 294.424 209.387V208.509L293.555 208.954C293.238 198.205 292.126 187.298 289.828 176.778C287.711 167.079 284.028 158.297 277.686 150.605C271.105 142.63 263.951 139.366 253.912 137.157L254.362 135.842L254.366 135.855ZM72.6883 251.681C75.392 251.562 78.1311 251.769 80.8349 251.681C80.9804 250.248 78.1046 250.093 76.9755 249.613C76.3889 249.366 76.4241 248.695 76.3712 248.677C76.0889 248.576 72.9926 249.405 72.0311 247.495L72.6927 246.829C78.5854 248.448 84.4605 250.212 90.4238 251.566C93.3172 252.224 98.0279 252.4 100.498 253.366C101.018 253.569 101.173 253.75 101.098 254.323L102.165 253.41C112.314 255.174 122.582 257.243 132.939 256.886C137.733 252.96 142.148 239.516 135.753 235.736L127.077 232.75C128.184 232.618 127.633 231.762 128.916 231.939C133.693 232.592 137.305 236.023 141.853 236.283C144.239 236.42 155.112 234.929 157.348 234.171C158.477 233.787 166.24 227.59 167.439 226.425C169.067 224.842 171.246 222.094 172.005 219.977L172.874 220.85C173.037 219.712 173.751 219.8 172.406 219.293C177.337 208.54 170.99 195.387 158.552 194.875C153.131 194.65 146.259 196.798 141.072 198.523C133.927 200.9 127.139 204.323 120.174 207.146L119.371 206.758L118.458 204.579C115.19 205.933 111.653 206.171 108.137 206.317C108.583 204.248 109.782 205.232 111.388 204.949C114.63 204.385 118.692 204.275 120.02 200.808L119.146 200.601C118.829 190.566 118.908 180.51 118.644 170.497C118.538 166.603 117.828 162.39 117.797 158.54C117.788 157.64 117.62 154.835 118.697 155.232L118.71 154.579C118.71 154.147 117.898 154.544 117.823 154.094C117.598 152.665 117.973 149.683 117.823 147.972C117.572 145.233 117.312 142.432 116.826 139.719L116.187 139.508L116.249 140.284C107.48 146.291 97.7853 143.623 89.8636 137.611L90.909 198.183C91.7823 200.552 96.3695 201.165 98.1734 202.409C98.9409 202.938 99.0556 203.992 100.176 204.367C102.2 205.051 105.941 204.804 108.133 205.002L106.633 206.29L106.373 207.195C113.435 209.55 120.042 214.164 123.557 220.855L126.19 219.536C126.473 221.084 124.836 221.322 124.832 222.826C124.827 224.33 127.575 230.752 127.324 231.899C126.834 234.113 123.526 234.144 122.11 234.528C121.766 234.62 121.811 235.251 121.167 235.472C119.808 235.935 118.745 235.039 117.563 234.982C116.46 234.929 115.662 235.569 114.193 235.3C111.167 234.744 106.814 228.415 104.459 226.297C101.662 223.783 99.9024 224.635 96.5988 223.81C95.6417 223.572 91.919 222.42 91.3809 221.948C91.1957 221.785 90.587 220.255 91.6059 220.427C93.6701 220.78 96.2724 221.865 98.4249 222.42C99.7172 222.756 100.904 222.495 102.297 222.95C105.888 224.119 109.646 230.818 113.002 232.944C114.083 233.628 115.658 234.223 116.474 232.909C116.888 231.634 113.88 227.991 112.971 226.809C111.807 225.301 108.04 221.918 107.48 220.85C107.246 220.405 107.202 220.021 107.26 219.531C107.599 219.527 107.961 219.478 108.292 219.593C111.097 220.563 117.607 230.413 118.789 233.531C121.744 233.853 122.018 232.98 121.114 230.549C119.318 225.724 116.147 221.6 112.548 217.988C113.668 216.382 115.83 218.949 116.729 219.964C119.932 223.594 121.696 228.132 123.54 232.539C126.795 232.481 124.673 226.09 123.879 224.264C121.912 219.717 117.1 214.468 112.835 211.967C110.453 210.569 100.105 205.735 97.8823 206.396C97.2869 206.573 96.9076 207.234 96.4621 207.636L95.5711 207.195C95.6064 209.537 93.401 211.319 92.2057 213.506C91.3545 215.063 90.9134 217.807 89.6431 218.213C89.5637 219.033 90.4679 218.16 90.5429 219.293C90.6046 220.206 89.7754 223.572 88.9197 223.872C79.8645 223.347 71.6076 218.83 63.0905 216.065C54.3485 222.266 47.6486 234.515 55.5438 244.152C57.2772 246.265 61.0219 248.779 63.5669 249.785C65.0312 250.362 67.907 250.565 69.0979 251.218C69.5831 251.483 69.3802 252.109 69.3802 252.559C70.5491 253.018 70.0683 251.752 70.5446 251.655C70.8181 251.597 72.0046 251.712 72.6794 251.681H72.6883ZM269.993 154.791C268.291 154.319 261.361 154.791 258.984 154.791C258.909 154.791 258.292 154.2 258.323 153.913L268.917 153.273L269.266 151.319C266.76 150.142 263.942 149.762 261.167 149.93C258.393 150.098 255.703 151.615 253.034 150.83L253.48 151.703L244.23 154.345C244.019 152.493 249.969 151.941 249.069 150.384L240.08 149.493C238.893 151.249 236.331 151.505 234.399 152.665C229.781 155.435 225.502 159.153 221.105 162.271C219.045 159.934 225.718 159.153 222.521 157.336C219.323 155.518 213.585 155.81 210.228 157.12C204.543 159.343 201.327 167.979 201.512 173.722C202.187 173.885 202.469 173.448 202.959 173.192C206.267 171.468 211.031 168.124 214.158 165.893C215.406 165.002 218.957 161.645 219.795 161.398C220.765 161.111 220.553 162.17 220.245 162.734L208.093 171.75C205.261 171.402 206.876 171.71 206.536 172.412C205.932 173.655 194.94 179.998 193.366 179.91C192.7 179.875 191.963 179.438 192.713 178.803C193.935 177.775 199.241 176.289 199.973 175.054C200.785 173.682 200.088 171.128 200.282 169.673C200.767 165.959 202.884 162.082 205.032 159.091C205.434 158.531 206.324 158.43 206.62 157.45C207.118 155.805 205.517 155.629 204.798 154.817C204.119 154.05 203.281 152.122 202.17 152.131C198.694 154.517 194.711 156.67 192.069 160.101C191.451 160.904 190.362 163.572 189.978 163.93C189.877 164.022 189.167 163.511 188.739 164.261C188.06 165.451 190.08 163.934 189.608 165.125C185.625 175.182 179.812 196.966 197.318 196.657C206.986 196.49 221.356 181.484 228.365 175.256C231.629 172.359 235.078 169.628 238.39 166.783C240.649 165.738 243.264 167.202 245.699 167.083C250.546 166.854 254.291 163.233 259.037 162.765C261.71 162.501 263.704 163.202 266.028 163.189C269.133 163.171 270.029 161.376 267.232 159.74C265.781 159.881 263.21 158.937 262.063 158.932C261.317 158.932 260.197 159.59 258.993 159.647C258.362 159.678 257.215 159.995 257.445 158.976C261.353 157.106 266.143 158.425 270.333 158.24C272.384 157.671 271.202 155.122 269.993 154.782V154.791ZM50.2244 208.972C49.6996 209.003 48.9762 211.777 48.8174 212.395C48.3852 214.097 46.8635 221.931 46.9473 223.25C46.987 223.902 47.428 224.974 48.094 225.186L52.3901 225.623L60.6029 215.337C60.6029 214.097 55.9319 212.624 54.7146 211.958C53.1532 211.102 51.9005 209.687 50.2244 208.968V208.972ZM138.095 253C142.819 252.779 147.649 253.348 152.372 253.004C155.411 252.784 159.91 252.237 162.852 251.558C175.767 248.576 175.357 237.977 162.411 235.948C157.096 235.114 153.091 236.61 147.993 237.139C146.012 237.346 142.25 236.826 140.583 237.285C138.73 237.792 140.208 239.909 140.291 241.338C140.543 245.802 139.317 248.863 138.099 253.004L138.095 253Z" fill="black"/>
<path d="M254.366 135.856L253.916 137.17C263.959 139.375 271.113 142.644 277.69 150.618C284.032 158.306 287.715 167.092 289.832 176.792C292.13 187.311 293.242 198.214 293.559 208.968L294.433 208.522V209.4C292.36 210.115 293.352 215.65 293.136 218.014C292.086 229.354 286.961 241.903 275.934 246.41L276.38 247.72L275.29 246.838C270.28 249.432 264.537 249.582 259.041 248.986C254.26 248.47 246.669 247.103 244.124 242.763C242.417 239.847 243.299 239.022 243.343 235.829L242.461 236.045C243.48 233.134 242.849 230.175 242.889 227.224C242.938 223.444 243.264 219.598 243.392 215.791C243.423 214.799 242.514 211.544 243.621 211.23C247.595 211.275 251.565 210.838 254.758 208.266C256.042 207.234 256.889 206.754 256.121 205.003C256.734 205.038 257.034 205.541 257.643 205.02C259.425 203.498 261.322 198.585 262.698 196.468L263.602 196.194C263.893 197.319 264.488 198.395 265.031 199.41C265.754 200.759 265.6 200.632 266.125 201.769C268.11 206.061 270.103 210.353 271.982 214.688C272.494 214.821 273.164 214.433 273.283 213.987C273.42 213.467 269.94 206.718 269.345 205.686C267.589 206.189 269.036 205.135 268.815 204.006C268.701 203.415 267.598 202.405 267.245 201.584C266.191 199.105 265.238 196.622 264.012 194.218L274.174 168.451C273.244 168.336 273.001 168.398 272.463 169.157C272.172 169.571 269.627 176.183 269.517 176.796C269.398 177.462 269.706 177.956 269.768 178.578C269.742 178.626 269.098 178.247 268.881 178.379C267.885 178.984 264.144 190.068 263.245 192.092C258.582 202.585 254.388 211.222 241.425 209.352C229.37 207.609 219.102 199.961 209.006 193.777C211.079 191.634 213.668 190.288 216.023 188.462C216.901 187.783 218.471 185.904 219.256 185.322C220.125 184.678 221.338 184.387 222.084 183.487C222.856 183.284 230.094 186.442 231.893 186.769C232.987 186.967 233.675 186.998 233.662 185.631C230.221 185.494 226.86 182.799 223.539 183.425C223.522 183.081 223.491 182.737 223.614 182.402C223.879 181.665 230.116 175.649 231.236 174.595C233.763 172.218 236.657 170.189 239.149 167.75L246.876 168.451L240.053 187.408L239.272 187.743C236.996 187.426 235.36 185.445 233.23 186.954L240.432 189.556C241.5 189.194 245.73 175.526 246.673 173.307C247.044 172.438 248.813 168.521 249.201 168.129C249.514 167.816 256.69 164.715 257.325 164.583C260.585 163.899 268.123 165.774 269.803 163.85C270.69 162.836 270.39 161.173 270.902 160.106C271.501 158.849 272.895 159.113 272.908 156.789C272.917 155.598 270.871 150.83 269.94 150.018C267.893 148.232 262.949 148.409 260.294 148.62C258.247 148.783 252.359 150.896 251.556 150.737C250.515 150.53 249.836 149.132 250.396 148.192L249.523 148.638V147.315L250.837 147.756C250.996 145.572 251.746 143.46 252.116 141.325C252.341 140.033 251.83 138.145 252.588 137.033C253.06 136.341 254.181 137.368 252.601 135.428L254.37 135.869L254.366 135.856Z" fill="#FCF7ED"/>
<path d="M116.509 131.007C116.95 131.289 117.091 135.695 116.936 136.503C116.407 139.268 109.451 142.012 106.928 142.356C102.231 143.004 90.7191 138.205 89.1753 133.455C87.2699 127.593 88.1432 120.959 87.8212 114.987C87.6095 111.031 86.7406 107.087 86.9479 103.096L86.5774 102.588C80.7508 101.636 78.9116 94.5962 80.0539 89.4798C80.8567 85.8939 85.4527 84.4824 87.5389 87.9757C87.7154 88.2713 89.1268 92.4173 89.6429 90.2517C90.1192 88.2624 87.4904 84.3589 85.3159 84.2619C84.6587 82.6255 85.7746 81.2847 86.0128 80.0276C86.1363 79.3748 85.8232 78.7838 86.0834 77.9369C86.3172 77.165 87.8742 73.1513 88.7607 73.7556L89.6473 75.0744C89.6649 74.3113 89.5238 73.5086 89.7575 72.7587C91.2616 67.8805 101.481 62.2171 106.276 61.5246C108.058 61.2644 110.192 62.5347 111.013 60.541L111.255 61.8378C119.905 61.7584 127.738 68.348 131.377 75.8551C132.215 77.5797 132.431 79.6748 133.697 81.2406L126.437 79.9173L126.186 81.4346C129.904 82.7667 133.891 81.9595 134.531 86.8025C136.004 97.9969 133.666 115.556 125.348 123.764C119.384 129.653 110.466 131.862 103.162 126.975C101.958 126.168 101.265 124.616 99.7875 124.408C99.1347 125.145 101.715 128.056 102.465 128.55C103.629 129.317 108.415 131.011 109.694 131.011H116.522L116.509 131.007ZM118.71 80.354C118.833 79.7497 118.555 79.2954 117.977 79.1146C116.535 78.6603 107.255 79.5733 107.273 81.02C108.499 82.9519 109.35 81.0906 111.035 80.826C112.129 80.6539 118.282 80.9318 118.714 80.354H118.71ZM115.146 89.2196C114.092 87.5347 110.955 91.619 113.227 93.1275C115.15 93.5906 115.723 90.1458 115.146 89.2196ZM128.841 106.783H120.253L119.596 107.877L120.037 108.336C120.514 108.336 121.162 108.543 121.577 108.543H130.826C131.633 108.543 131.461 106.955 131.289 106.329C131.135 105.777 128.246 99.0158 128.007 98.6718C127.703 98.2395 127.077 98.4115 126.644 98.4071L126.856 97.6044C127.341 98.0675 127.774 98.1116 127.518 97.3177C127.147 96.1532 124.157 89.2813 123.57 88.9285C123.244 88.7344 123.107 88.6373 122.679 88.7211C121.66 89.8238 129.547 103.947 128.841 106.774V106.783ZM131.88 89.2196L130.592 88.9196C128.62 89.8415 129.626 94.9844 131.854 92.3997L131.88 89.2196ZM124.329 117.695C124.801 117.351 124.951 116.187 124.201 116.037C123.451 115.887 121.651 116.707 120.628 116.747C116.967 116.892 115.318 114.828 112.111 114.272C110.585 115.746 117.872 118.383 118.696 118.48C119.521 118.577 123.786 118.097 124.329 117.695Z" fill="#FCF7ED"/>
<path d="M197.988 142.902L197.605 143.714C199.232 143.701 201.685 149.809 201.473 150.537C196.436 154.361 190.212 157.493 188.254 164.021L177.532 163.796C171.674 162.724 165.583 161.639 159.655 160.316C156.814 159.681 138.536 155.243 137.614 154.066L138.532 148.191L137.248 148.217C136.468 148.711 135.277 164.404 135.175 166.535C134.814 173.826 135.484 181.328 135.458 188.513C135.444 191.989 134.809 195.474 134.942 198.98C134.699 199.681 126.729 202.892 125.309 203.439C124.303 203.828 123.121 204.414 122.128 204.679C121.665 204.802 121.621 205.23 121.123 204.573L118.018 131.209L123.557 127.487C124.197 131.434 126.954 134.998 128.352 138.796C128.484 140.181 123.575 141.195 122.702 142.289C122.402 143.251 125.595 147.529 125.992 149.051C127.139 153.439 122.9 172.004 122.296 177.967C122.199 178.903 122.217 179.838 122.243 180.773C123.743 180.905 123.681 178.841 123.875 177.787C125.586 168.356 126.173 158.693 127.906 149.262L124.845 143.184L130.204 140.445C130.46 139.378 128.422 133.997 126.645 134.535V133.653L127.518 133.446C126.958 131.792 123.227 127.125 124.559 125.841C124.912 125.502 125.697 125.471 126.177 125.056C127.518 123.896 126.821 122.498 129.6 123.429C137.372 126.031 145.721 132.277 153.515 135.633C163.245 139.823 173.562 142.033 184.121 142.902C188.699 143.281 193.45 143.696 197.993 142.907L197.988 142.902Z" fill="#FCF7ED"/>
<path d="M248.532 121.832C248.629 121.982 248.223 122.622 248.404 123.063C251.902 131.571 251.924 139.969 248.58 148.566C239.335 146.753 232.556 152.588 225.442 157.356C220.272 153.978 214.565 154.388 208.866 156.038C195.872 146.008 197.142 124.938 207.684 113.611C219.006 101.446 235.639 103.691 245.043 116.76C245.952 118.026 247.839 120.717 248.532 121.832ZM223.316 147.745C221.569 148.125 223.779 152.862 225.062 152.584C226.606 152.253 224.52 147.485 223.316 147.745ZM211.199 153.03C211.61 152.055 210.547 147.913 209.228 148.187C207.737 148.495 209.801 154.414 211.199 153.03Z" fill="#FCF7ED"/>
<path d="M72.6895 251.68C72.0147 251.71 70.8238 251.596 70.5547 251.653C70.0784 251.75 70.5547 253.016 69.3903 252.557C69.3903 252.107 69.5932 251.481 69.108 251.216C67.9127 250.564 65.0369 250.361 63.577 249.783C61.032 248.782 57.2873 246.268 55.5539 244.15C47.6542 234.513 54.3585 222.264 63.1006 216.063C71.6177 218.828 79.879 223.345 88.9298 223.87C89.7899 223.57 90.6147 220.205 90.553 219.292C90.478 218.158 89.5738 219.027 89.6532 218.211C90.9235 217.805 91.3645 215.062 92.2158 213.505C93.4111 211.317 95.6209 209.531 95.5812 207.193L96.4722 207.634C96.9176 207.233 97.2926 206.571 97.8924 206.395C100.115 205.733 110.467 210.567 112.845 211.965C117.106 214.466 121.918 219.719 123.889 224.263C124.683 226.089 126.805 232.48 123.55 232.537C121.706 228.131 119.942 223.588 116.739 219.962C115.844 218.948 113.683 216.381 112.558 217.986C116.157 221.598 119.329 225.722 121.124 230.548C122.028 232.978 121.754 233.847 118.799 233.529C117.617 230.411 111.107 220.562 108.302 219.592C107.967 219.477 107.609 219.525 107.27 219.53C107.212 220.019 107.252 220.403 107.49 220.849C108.05 221.916 111.817 225.299 112.982 226.807C113.895 227.99 116.903 231.628 116.484 232.908C115.668 234.218 114.093 233.626 113.012 232.943C109.656 230.817 105.898 224.117 102.308 222.948C100.914 222.494 99.7273 222.754 98.4349 222.419C96.2825 221.863 93.6802 220.774 91.616 220.425C90.5971 220.253 91.2058 221.784 91.391 221.947C91.9291 222.419 95.6518 223.57 96.6089 223.808C99.9169 224.633 101.677 223.782 104.469 226.296C106.824 228.413 111.178 234.742 114.203 235.298C115.672 235.567 116.47 234.932 117.573 234.981C118.755 235.034 119.818 235.933 121.177 235.47C121.821 235.25 121.772 234.623 122.121 234.526C123.532 234.143 126.844 234.116 127.334 231.897C127.585 230.751 124.838 224.346 124.842 222.825C124.846 221.303 126.483 221.082 126.2 219.534L123.567 220.853C120.056 214.162 113.445 209.548 106.383 207.193L106.643 206.289L108.143 205.001C105.955 204.802 102.215 205.049 100.186 204.366C99.0657 203.991 98.951 202.941 98.1835 202.407C96.3795 201.164 91.7924 200.55 90.9191 198.182L89.8737 137.609C97.7954 143.621 107.49 146.29 116.259 140.282L116.197 139.506L116.836 139.718C117.322 142.43 117.582 145.231 117.833 147.97C117.988 149.677 117.613 152.663 117.833 154.092C117.904 154.547 118.72 154.15 118.72 154.577L118.707 155.23C117.626 154.833 117.798 157.638 117.807 158.538C117.838 162.389 118.552 166.605 118.654 170.496C118.923 180.513 118.839 190.569 119.157 200.599L120.03 200.806C118.698 204.273 114.64 204.383 111.398 204.948C109.788 205.23 108.593 204.247 108.147 206.315C111.663 206.174 115.2 205.932 118.468 204.577L119.381 206.756L120.184 207.144C127.149 204.322 133.941 200.899 141.082 198.522C146.269 196.797 153.137 194.649 158.562 194.874C171 195.385 177.343 208.543 172.416 219.292C173.761 219.799 173.047 219.715 172.884 220.849L172.015 219.975C171.256 222.092 169.077 224.84 167.45 226.424C166.254 227.588 158.491 233.785 157.358 234.169C155.122 234.928 144.249 236.414 141.863 236.282C137.32 236.026 133.703 232.594 128.926 231.937C127.643 231.761 128.194 232.621 127.087 232.749L135.763 235.735C142.154 239.515 137.743 252.959 132.949 256.884C122.592 257.242 112.324 255.173 102.175 253.409L101.108 254.322C101.183 253.748 101.028 253.567 100.508 253.364C98.0336 252.399 93.3273 252.222 90.4339 251.565C84.4706 250.211 78.5955 248.447 72.7028 246.828L72.0412 247.494C73.0027 249.408 76.099 248.574 76.3813 248.676C76.4342 248.694 76.3989 249.364 76.9856 249.611C78.1147 250.092 80.9905 250.246 80.845 251.68C78.1412 251.768 75.4021 251.56 72.6984 251.68H72.6895ZM137.655 211.158C138.295 211.718 144.664 207.819 144.69 207.418C144.739 206.73 143.592 206.809 142.961 206.999C142.33 207.189 136.751 210.369 137.651 211.158H137.655ZM134.127 213.364C133.571 212.79 126.805 218.105 127.524 218.643C129.257 219.19 129.323 217.823 129.875 217.483C131.432 216.517 134.193 215.697 134.127 213.364Z" fill="#FCF7ED"/>
<path d="M269.994 154.79C271.202 155.126 272.384 157.675 270.333 158.248C266.143 158.429 261.353 157.11 257.445 158.985C257.216 160.004 258.362 159.686 258.993 159.655C260.197 159.598 261.318 158.941 262.063 158.941C263.205 158.945 265.781 159.894 267.232 159.748C270.029 161.384 269.133 163.18 266.028 163.197C263.708 163.21 261.715 162.509 259.037 162.774C254.291 163.241 250.547 166.863 245.699 167.092C243.265 167.207 240.653 165.742 238.391 166.792C235.078 169.637 231.629 172.367 228.365 175.265C221.356 181.493 206.986 196.498 197.318 196.666C179.812 196.97 185.625 175.19 189.608 165.134C190.08 163.943 188.06 165.46 188.739 164.269C189.167 163.519 189.877 164.031 189.979 163.938C190.362 163.581 191.452 160.912 192.069 160.11C194.711 156.678 198.694 154.526 202.17 152.14C203.281 152.131 204.115 154.054 204.799 154.826C205.518 155.637 207.119 155.814 206.62 157.459C206.325 158.438 205.434 158.54 205.032 159.1C202.884 162.09 200.767 165.967 200.282 169.681C200.092 171.137 200.789 173.69 199.973 175.062C199.241 176.297 193.935 177.784 192.713 178.811C191.959 179.446 192.696 179.883 193.366 179.918C194.941 180.007 205.937 173.664 206.536 172.42C206.876 171.714 205.262 171.41 208.093 171.758L220.245 162.743C220.554 162.178 220.765 161.124 219.795 161.406C218.957 161.654 215.406 165.01 214.158 165.901C211.031 168.128 206.267 171.472 202.959 173.201C202.47 173.457 202.187 173.893 201.513 173.73C201.332 167.992 204.547 159.351 210.228 157.128C213.585 155.818 219.314 155.523 222.521 157.344C225.728 159.166 219.045 159.942 221.105 162.28C225.503 159.161 229.781 155.443 234.399 152.673C236.331 151.513 238.894 151.257 240.08 149.502L249.069 150.393C249.969 151.95 244.019 152.501 244.23 154.354L253.48 151.712L253.034 150.838C255.703 151.628 258.411 150.102 261.168 149.939C263.924 149.775 266.765 150.155 269.266 151.328L268.917 153.282L258.323 153.921C258.292 154.204 258.909 154.799 258.984 154.799C261.366 154.799 268.291 154.327 269.994 154.799V154.79Z" fill="#FCF7ED"/>
<path d="M50.2239 208.971C51.8999 209.694 53.1482 211.11 54.714 211.961C55.9313 212.627 60.6067 214.1 60.6023 215.34L52.3895 225.626L48.0935 225.189C47.4275 224.977 46.9864 223.91 46.9467 223.253C46.8629 221.934 48.3846 214.1 48.8168 212.398C48.9756 211.78 49.699 209.006 50.2239 208.975V208.971Z" fill="#FCF7ED"/>
<path d="M138.096 252.999C139.314 248.862 140.54 245.801 140.288 241.333C140.209 239.904 138.731 237.787 140.579 237.279C142.251 236.821 146.013 237.341 147.989 237.134C153.088 236.605 157.093 235.109 162.408 235.943C175.354 237.972 175.764 248.571 162.849 251.552C159.907 252.232 155.408 252.779 152.369 252.999C147.645 253.343 142.816 252.774 138.092 252.995L138.096 252.999Z" fill="#FCF7ED"/>
<path d="M128.843 106.784C129.548 103.957 121.662 89.834 122.681 88.7313C123.104 88.6431 123.245 88.7446 123.572 88.9386C124.158 89.2915 127.144 96.1634 127.519 97.3278C127.775 98.1262 127.343 98.0777 126.858 97.6145L126.646 98.4173C127.078 98.4173 127.705 98.2497 128.009 98.6819C128.247 99.0216 131.136 105.783 131.29 106.339C131.467 106.965 131.635 108.553 130.827 108.553H121.578C121.168 108.553 120.515 108.346 120.039 108.346L119.598 107.887L120.255 106.793H128.843V106.784Z" fill="black"/>
<path d="M124.33 117.696C123.783 118.098 119.531 118.578 118.697 118.481C117.864 118.384 110.586 115.747 112.112 114.273C115.319 114.834 116.968 116.893 120.629 116.748C121.652 116.708 123.47 115.892 124.202 116.038C124.934 116.183 124.802 117.348 124.33 117.696Z" fill="black"/>
<path d="M118.711 80.3548C118.279 80.9326 112.13 80.6547 111.032 80.8268C109.347 81.0914 108.496 82.9527 107.27 81.0208C107.252 79.5741 116.532 78.6611 117.974 79.1154C118.552 79.2962 118.83 79.755 118.707 80.3548H118.711Z" fill="black"/>
<path d="M115.147 89.2203C115.725 90.1466 115.147 93.5869 113.228 93.1282C110.957 91.6242 114.097 87.5354 115.147 89.2203Z" fill="black"/>
<path d="M131.882 89.2198L131.855 92.4C129.628 94.9847 128.622 89.8418 130.594 88.9199L131.882 89.2198Z" fill="black"/>
<path d="M223.315 147.747C224.519 147.486 226.609 152.254 225.061 152.585C223.773 152.859 221.568 148.122 223.315 147.747Z" fill="black"/>
<path d="M211.198 153.03C209.8 154.415 207.731 148.496 209.227 148.187C210.55 147.913 211.608 152.055 211.198 153.03Z" fill="black"/>
<path d="M83.9093 141.566C83.8696 141.628 83.2566 141.526 83.1948 141.663C83.0537 141.981 83.3624 142.466 83.0051 143.035C82.3259 144.115 79.2031 147.45 79.181 148.301C81.5717 157.824 85.5016 167.192 87.7599 176.715C87.9849 177.672 89.2419 180.733 88.0995 181.21C87.385 181.505 86.9483 179.494 86.8028 178.995C86.3088 177.258 86.0309 175.851 85.6119 174.444C83.0007 165.693 80.1779 157.03 77.4256 148.328L81.7084 141.826L75.0879 139.564L75.1144 137.618C76.4508 137.398 77.2668 138.514 78.4003 138.95C79.3663 139.325 84.7165 140.41 83.9049 141.57L83.9093 141.566Z" fill="black"/>
<path d="M134.125 213.365C134.191 215.694 131.434 216.515 129.873 217.485C129.322 217.829 129.251 219.192 127.522 218.645C126.803 218.111 133.569 212.792 134.125 213.365Z" fill="black"/>
<path d="M137.654 211.159C136.755 210.37 142.347 207.185 142.965 207C143.582 206.815 144.738 206.731 144.694 207.419C144.667 207.82 138.298 211.719 137.659 211.159H137.654Z" fill="black"/>
</svg>
