<svg width="128" height="142" viewBox="0 0 128 142" fill="none" xmlns="http://www.w3.org/2000/svg">
<path d="M57.5 116.5C62.277 91.3924 70.636 78.0123 39.5 48.5M72.5 112C69.4859 99.0755 67.4555 89.4697 70.881 78.5M87.5 52C78.3032 62.5514 73.2677 70.8568 70.881 78.5M57.5 78.5C33.9924 69.7259 22.2029 62.4802 17.5 29C53.4135 32.4269 61.1208 49.193 68.3054 75M68.3054 75C68.892 77.1072 69.4751 79.2746 70.0699 81.5L68.3054 75ZM68.3054 75C73.0912 46.3281 93.5 25.9999 111.5 26C110.964 55.6197 100.48 66.1715 70.881 78.5" stroke="#1B1F35" stroke-width="4"/>
</svg>
