<svg width="128" height="142" viewBox="0 0 128 142" fill="none" xmlns="http://www.w3.org/2000/svg">
<path d="M51.5028 65.4941L38.4786 29.6776C38.0043 28.3733 38.9703 26.9941 40.3582 26.9941H51.5028M51.5028 65.4941C51.5028 65.4941 37.1415 76.9803 37.5028 87.9941C37.8628 98.9692 44.3371 107.504 56.0028 112.494C69.7458 118.373 85.3301 106.201 88.0028 91.4941C90.1734 79.5505 74.5028 63.9941 74.5028 63.9941M51.5028 65.4941C55.652 63.0469 58.0392 61.7974 63.5028 61.9941M74.5028 63.9941L90.2002 29.8291C90.809 28.5042 89.841 26.9941 88.3829 26.9941H78.0028M74.5028 63.9941C70.5138 62.7906 68.3055 61.559 63.5028 61.9941M51.5028 26.9941L63.5028 55.4941M51.5028 26.9941H78.0028M63.5028 55.4941V61.9941M63.5028 55.4941L78.0028 26.9941M60.1339 82.1945L63.0091 75.6227C63.189 75.2114 63.7777 75.2272 63.9353 75.6475L66.3966 82.2111C66.4619 82.3851 66.6183 82.5086 66.8028 82.5316L73.5419 83.374C73.9448 83.4244 74.1228 83.9087 73.8484 84.208L69.1675 89.3145C69.0635 89.4279 69.0176 89.5828 69.0429 89.7345L70.3414 97.5256C70.4086 97.9287 69.9901 98.2378 69.6246 98.055L62.7139 94.5997C62.5802 94.5328 62.4237 94.5293 62.2872 94.59L54.6117 98.0013C54.2038 98.1826 53.7808 97.7792 53.9426 97.3632L56.8994 89.76C56.9635 89.5952 56.9358 89.4089 56.8266 89.2699L52.1384 83.3031C51.8806 82.975 52.1143 82.4941 52.5315 82.4941H59.6758C59.8744 82.4941 60.0542 82.3765 60.1339 82.1945Z" stroke="#1B1F35" stroke-width="4"/>
</svg>
