<svg width="398" height="253" viewBox="0 0 398 253" fill="none" xmlns="http://www.w3.org/2000/svg">
<path d="M35.1365 93.3803C34.8313 95.7619 32.905 96.4323 32.5097 93.9507C32.3096 92.6998 32.2495 90.1081 32.1895 88.6971C31.0687 62.3744 33.0651 35.2661 32.1895 8.86334C32.6498 3.03942 35.6068 1.15321 41.1405 0.792969H387.234C389.08 1.22826 391.011 0.86798 392.812 1.37832C395.549 2.15885 397.015 4.65054 397.065 7.39739V229.547C396.725 233.47 394.433 235.706 390.461 235.856L185.273 235.841C184.302 236.026 184.302 237.677 183.877 238.553C183.256 239.839 182.19 240.935 180.795 241.34C162.262 245.288 143.389 247.994 125.092 252.878L79.6414 248.144C78.1204 247.779 76.5444 246.488 76.2342 244.947C72.7218 248.49 69.5897 250.601 64.3561 250.226C59.4428 249.871 56.8161 250.461 52.0228 250.816C44.0475 251.412 35.952 251.652 27.9416 251.417C26.2255 251.367 23.7288 250.756 22.0927 250.801C19.1657 250.886 17.1143 253.038 12.7214 252.547C0.478146 251.177 -0.307384 236.547 1.58889 227.105C3.16495 219.27 5.95183 210.124 8.2884 202.404C13.562 184.967 15.9836 178.998 32.985 171.048C35.6068 169.822 42.6665 167.61 44.0775 165.704C45.7836 163.402 45.9688 160.601 49.5412 159.66L49.231 153.11C41.4808 155.392 33.6705 148.623 33.4153 140.897C33.3803 139.897 33.9056 139.036 33.6154 137.765C33.4453 137.02 32.4597 136.009 32.0594 135.213C28.0517 127.293 26.2805 117.507 32.5097 110.127C34.0357 108.32 37.1328 107.34 37.6332 106.739C37.9033 106.414 38.2386 104.888 38.6138 104.198C45.4384 91.479 61.2691 92.2496 73.6074 89.883C78.3456 88.9724 82.8586 87.2612 87.5518 86.1904C90.5288 86.1904 85.9807 90.9836 85.3353 91.7792C88.8627 92.1044 92.5651 92.2495 95.9674 93.3303C97.4084 93.7906 101.516 95.4417 100.866 97.453C100.22 98.8239 95.377 99.1392 95.0268 99.8547L97.3634 102.206C98.2239 103.537 100.936 106.969 100.16 108.511C99.4698 109.886 95.287 108.175 94.0612 107.855C93.6709 107.755 93.4958 107.305 93.5558 108.065C94.9267 110.657 96.2776 114.154 96.9381 117.011C97.3033 118.602 97.6436 119.968 96.783 121.419C103.122 123.951 104.198 133.772 99.4698 138.361C100.906 149.193 96.7329 161.561 87.2916 167.54L82.4033 169.837C89.0578 172.479 96.4478 174.57 100.846 180.599C106.379 188.194 108.931 198.656 113.674 206.802C114.385 207.857 115.826 207.142 116.912 207.592C117.402 207.512 120.394 201.413 120.814 200.457C121.405 199.117 123.151 195.259 123.216 194.033C123.311 192.292 122.02 191.736 121.199 190.471C118.232 185.898 115.396 178.988 118.152 173.734C119.233 171.678 121.134 170.727 123.471 170.978C124.812 162.552 138.286 166.815 142.134 170.717C146.196 174.835 143.84 188.049 142.364 193.237C141.523 196.184 140.172 198.966 139.272 201.883C136.275 211.6 134.178 221.702 129.665 230.863L134.388 229.802L147.907 191.151C149.233 189.27 150.534 188.719 152.741 188.354C167.245 185.943 182.986 185.993 197.601 183.611C199.912 183.251 201.719 184.447 201.744 186.863L185.728 233.505L385.482 233.52C387.869 232.819 391.962 234 393.503 231.563C393.723 231.213 394.423 228.977 394.423 228.666V51.5822H35.1365V93.3952V93.3803ZM394.408 48.9254V9.46372C394.093 6.10646 393.913 4.23026 390.121 3.76995L39.3093 3.94512C37.1829 4.2153 35.1415 6.45681 35.1415 8.57824V48.9254H394.413H394.408ZM89.6282 108.596C89.0828 108.02 85.6455 105.073 85.0351 105.558C85.3453 106.749 86.406 109.076 85.6405 110.127L84.94 110.492C80.8873 108.616 76.8195 106.759 72.4116 105.849C73.2171 108.05 76.9496 110.397 73.002 111.573C67.148 113.314 60.2584 111.758 54.5095 110.252C56.4959 117.081 54.8948 124.256 51.8677 130.495L63.0252 128.889C64.5163 125.672 66.9879 122.4 70.7955 121.985C75.9139 121.424 78.971 124.156 80.9073 128.594L84.7499 128.014C85.7556 124.791 87.7369 121.589 91.2493 120.719C92.2399 120.474 94.7566 120.764 94.9918 120.043C95.4521 118.632 93.4858 118.002 92.425 117.947C91.0491 117.872 86.2809 120.058 86.6462 117.847C87.0114 115.635 91.6295 114.334 93.5458 115.24C94.1762 114.64 90.2886 109.291 89.6282 108.596ZM92.0048 122.645C88.7226 123.21 87.0664 126.813 86.5061 129.75C88.3973 132.582 90.0084 138.926 94.2413 138.696C103.077 138.215 102.187 120.884 92.0048 122.645ZM70.5753 124.111C62.1597 125.542 63.1503 141.898 73.6624 140.112C82.0981 138.676 80.8272 122.37 70.5753 124.111ZM97.3634 145.61C97.5335 143.784 97.2383 141.743 97.3634 139.887C95.5121 140.522 93.7409 140.537 91.7996 140.487C91.7296 143.509 88.9977 145.57 86.0658 145.485C84.925 145.455 83.0738 145.1 83.5691 143.704C86.9814 144.159 90.5538 143.169 89.5781 139.016L84.4797 130.395L81.2225 130.495C82.7085 145.816 62.3948 146.191 62.7301 131.081L51.8878 132.562C51.5675 133.868 52.6683 139.321 50.8421 139.306C49.221 138.541 48.7056 136.604 47.4748 135.329C45.5035 133.282 43.2069 132.346 40.43 133.292C31.7842 136.239 36.3473 152.3 47.2897 151.004C48.2953 150.884 50.4418 149.728 51.1423 150.444C51.4475 150.839 51.5275 151.284 51.5825 151.765C52.0529 155.837 51.2874 161.416 51.8878 165.249C52.7533 170.747 62.3448 176.146 65.9672 179.929C67.5383 181.57 68.9693 183.651 70.5103 185.357L75.939 171.868C72.2665 172.033 68.7441 170.127 65.8622 168.001C64.6764 167.125 60.2134 163.202 59.723 162.102C59.5579 161.736 59.3528 161.376 59.633 160.996C60.3434 160.01 63.1253 162.357 64.0009 162.817C72.4866 167.285 81.5577 170.417 89.443 162.917C93.4357 159.12 96.863 151.049 97.3634 145.6V145.61ZM63.3155 180.674C63.4105 180.259 63.2554 180.194 63.0303 179.934C61.9795 178.738 59.2527 177.407 57.8918 176.266C53.9692 172.984 48.9758 167.61 49.3761 162.192C47.6999 163.267 47.4948 164.743 46.6392 166.204C46.2239 166.92 45.1682 167.95 44.9781 168.356C44.2776 169.872 46.5542 175.756 47.1696 177.597C48.5155 181.64 50.1266 185.597 51.8777 189.475C56.2957 187.399 58.0319 181.29 63.3205 180.669L63.3155 180.674ZM136.695 173.339H132.147C130.811 173.339 128.895 174.75 127.594 175.105L128.479 178.913C130.256 177.087 132.322 176.711 134.799 176.846C136.22 176.926 138.206 177.102 138.161 178.913H133.613C132.857 178.913 128.609 180.534 128.464 181.174C128.87 183.106 128.704 186.138 130.226 187.579C132.147 189.405 133.358 186.383 131.737 185.167L131.842 184.482C133.263 183.226 134.899 183.206 136.695 183.311L136.66 184.452L134.774 185.057C134.704 187.739 134.133 189.685 131.396 190.546C131.456 191.772 131.311 193.017 131.486 194.238C131.661 195.459 132.477 196.44 132.587 197.25C132.667 197.856 132.357 197.771 131.902 197.64C130.165 197.145 129.41 194.764 129.345 193.152C129.305 192.237 129.735 190.451 129.61 189.98C129.515 189.615 127.864 188.129 127.389 187.188C126.798 186.018 126.398 184.632 126.423 183.311C123.666 184.367 121.274 182.185 121.425 179.358C121.48 178.362 121.945 176.937 123.196 177.147C122.856 179.278 123.371 182.06 126.133 181.55C126.168 179.238 126.288 175.18 124.061 173.784C121.47 172.158 119.643 174.96 119.378 177.292C118.848 181.935 121.079 186.368 123.661 190.03C125.057 192.012 125.988 191.601 125.472 194.829C124.787 199.122 119.828 207.547 117.332 211.34C113.014 217.904 108.201 221.547 112.624 230.408C113.359 231.879 114.15 233.6 115.956 233.465C119.293 233.214 123.331 231.658 126.743 231.248C131.526 222.787 133.503 213.146 136.32 203.92C138.381 197.18 141.458 190.616 141.968 183.456C142.164 180.724 142.389 174.565 140.628 172.479C138.761 170.262 131.206 167.9 128.389 168.421C126.013 168.861 123.956 172.183 126.853 173.629C128.584 171.378 131.777 170.953 134.458 171.313C135.624 171.468 137.015 171.943 136.685 173.339H136.695ZM42.7666 169.817C33.8306 173.289 22.4729 177.287 17.2895 185.868C12.106 194.448 6.32208 216.463 4.11059 226.975C3.60024 229.402 3.0949 231.888 3.14994 234.37L4.56089 231.238C9.45919 222.212 22.0126 218.87 31.0287 223.518C34.6161 212.766 38.2486 199.952 32.1495 189.39C30.6835 186.848 28.492 184.051 25.6351 183.046L25.455 182.145C29.8879 182.52 33.8506 187.779 35.4867 191.626C40.0648 202.389 36.6225 214.032 33.0801 224.534C34.446 226.43 36.2422 227.951 36.3623 230.508C40.8703 231.468 45.4084 232.599 49.9965 233.159C52.3231 233.445 60.9088 234.4 62.595 233.8C62.9252 233.685 65.3618 232.189 65.5019 232.009C65.9572 231.413 66.3675 227.861 66.5076 226.85C67.6334 218.715 67.9936 210.149 68.3188 201.958C68.5089 197.195 67.5333 192.352 69.7148 187.914C69.0593 186.963 65.657 182.23 64.7664 182.27C63.5006 182.325 61.5393 183.416 60.5336 184.201C58.5673 185.737 53.729 193.032 50.9871 191.682C49.5912 190.996 44.6229 176.822 43.8674 174.44C43.392 172.944 42.9267 171.388 42.7716 169.812L42.7666 169.817ZM80.3019 169.857L78.8959 170.282L73.5874 183.896L77.4149 180.249C79.9266 178.638 82.2182 183.526 84.4447 184.487C84.0244 179.393 82.6235 174.39 80.3019 169.857ZM111.453 207.667C107.47 200.292 104.943 192.032 100.746 184.777C98.7243 181.284 96.9631 179.183 93.4507 177.102C90.5688 175.395 87.2766 174.235 84.1545 173.044C84.7999 175.576 85.6705 178.027 86.1158 180.619C86.2959 181.67 86.9514 186.233 86.6562 186.833C86.5311 187.088 85.9357 187.509 85.6555 187.574C83.9794 187.939 79.1711 182.04 78.4707 182.165C76.7395 183.681 75.4036 185.572 73.8876 187.284C71.7962 189.65 70.6754 189.625 70.3502 193.428C69.7798 200.067 70.2251 207.442 69.7698 214.267C69.4146 219.605 68.8292 224.984 68.0136 230.262C71.4409 228.346 74.8983 224.829 78.3005 223.093C83.1388 220.626 88.4023 222.987 92.9554 224.979C93.5608 217.189 95.272 209.458 95.8874 201.648C96.1826 197.876 95.8874 193.838 96.4778 190.06C97.0932 189.99 97.2883 190.04 97.6236 190.531C99.2947 192.982 97.4684 207.337 97.0231 210.999C96.773 213.056 94.6115 225.289 95.0768 226.09C97.1632 226.945 97.6936 230.082 100 230.257C96.868 221.446 101.881 209.619 111.448 207.662L111.453 207.667ZM199.217 185.953L153.316 190.686C149.443 190.661 148.928 194.849 147.842 197.831C142.444 212.666 137.305 227.756 132.287 242.726C132.002 243.571 130.241 248.435 130.531 248.745L179.013 239.263L181.17 238.488L199.007 187.949L199.217 185.953ZM115.561 209.729C102.682 208.603 96.3527 227.2 105.794 235.211L112.038 234.075C109.161 229.602 107.635 224.764 109.386 219.54C110.617 215.863 113.454 212.881 115.561 209.724V209.729ZM33.6655 229.972C34.3309 229.107 30.6935 226.055 29.948 225.624C23.0934 221.682 12.126 224.414 7.2577 230.423C0.102886 239.249 5.27137 251.942 17.2294 249.926C14.4475 244.352 15.4032 238.488 19.586 233.945C23.2485 229.967 28.427 228.066 33.6655 229.977V229.972ZM100.27 239.038C101.776 237.983 97.4584 231.698 96.5979 230.588C93.9661 227.18 92.1499 226.235 87.967 225.129C85.1451 224.383 82.3232 223.593 79.6565 225.029C75.4886 227.275 70.8856 231.458 66.7578 234.14C63.5806 236.206 63.3905 236.567 59.3578 236.422C53.9291 236.221 47.5048 235.231 42.1312 234.28C37.7833 233.51 30.2182 230.908 26.2705 232.109C20.7568 233.78 16.4639 241.42 18.5553 246.994C19.0556 248.325 20.2414 248.25 21.5323 248.42C31.389 249.711 45.0031 249.39 54.9198 248.42C57.0312 248.215 59.8431 247.379 61.7544 247.304C64.3812 247.199 65.2818 248.38 68.544 247.364C75.4136 245.223 75.7188 236.702 84.5197 239.153C87.2716 239.919 88.5725 242.591 91.5995 242.311C92.8954 240.659 91.4294 239.264 90.1735 238.193C87.2065 235.651 82.9137 234.145 79.1761 233.194L79.3062 232.304C79.8216 231.608 82.4083 232.329 83.2339 232.519C86.0658 233.169 88.9927 234.72 91.2142 236.572C91.9748 237.207 94.9468 240.719 95.2319 240.79C96.4328 241.095 97.1933 239.404 97.0331 238.408C96.828 237.112 92.2499 232.324 91.0141 231.483C89.1829 230.237 81.8079 228.621 81.5227 228.201C81.1575 227.661 81.958 226.895 82.5834 226.825C83.6591 226.71 88.0921 228.011 89.3029 228.491C93.0905 229.997 95.9975 233.345 98.0088 236.807C98.3741 237.437 99.0195 239.914 100.275 239.033L100.27 239.038ZM133.468 232.319L102.847 238.238C101.981 238.628 102.502 240.654 99.815 241.105C99.3797 241.18 98.8544 240.86 98.5191 240.985C98.1189 241.13 97.5835 242.211 96.788 242.456L94.1312 242.876L128.469 247.279L129.645 243.466C129.36 243.191 121.86 246.303 122.32 243.641C122.52 242.496 129.015 241.69 130.23 241.265L130.521 240.239L115.661 244.022C113.699 244.512 112.834 242.821 114.895 242.08C119.859 240.299 126.093 239.789 131.201 238.133L131.987 236.722L107.73 242.571C103.277 241.585 107.905 240.544 109.677 240.089C117.192 238.133 124.917 236.632 132.547 235.221L133.458 232.319H133.468ZM77.9903 243.176C77.8602 245.202 79.2712 245.943 81.1074 246.073C95.5271 246.719 110.492 249.921 124.822 250.521C125.863 250.566 126.983 250.331 127.319 249.195L126.808 248.515L77.9953 243.181L77.9903 243.176Z" fill="black"/>
<path d="M373.714 156.029C376.281 155.779 378.637 154.648 378.867 151.791L378.857 69.6108C378.602 67.4744 377.071 66.6838 375.155 66.2685L117.246 66.3136C114.454 66.8739 113.784 68.8052 113.514 71.3819V120.385C112.433 123.942 111.312 121.09 111.152 118.924C109.946 102.948 112.073 85.4615 111.167 69.3256C111.397 66.5187 113.369 64.3322 116.075 63.6718L375.74 63.6367C379.023 64.1871 381.199 66.2135 381.509 69.6058L381.494 152.361C381.569 154.868 378.537 158.381 376.066 158.381H132.146C131.376 158.381 131.376 156.034 132.146 156.034H373.714V156.029Z" fill="black"/>
<path d="M149.547 82.7604C176.576 80.0185 179.277 121.061 152.684 122.577C126.812 124.048 124.085 85.3471 149.547 82.7604ZM161.555 94.1781L148.937 106.822C147.921 107.297 145.264 103.845 144.329 103.064C143.873 102.684 142.558 101.543 142.112 101.458C140.146 101.073 138.7 102.944 139.39 104.75L147.386 112.621C147.996 113.046 148.927 113.036 149.597 112.746C150.268 112.455 155.166 107.162 156.197 106.141C156.652 105.696 157.237 105.436 157.683 104.985C158.919 102.539 163.612 99.7419 164.587 97.5154C165.563 95.2889 163.692 93.5276 161.545 94.1781H161.555Z" fill="black"/>
<path d="M302.536 134.169C302.31 134.9 299.914 134.579 299.198 134.569L298.428 133.143C298.348 133.964 296.817 134.614 296.091 134.77C283.913 137.391 286.565 113.49 298.718 121.401V114.211C299.549 113.495 301.735 113.51 302.536 114.211V134.164V134.169ZM294.83 122.937C290.583 123.637 290.983 132.548 295.901 131.963C300.119 131.462 299.904 122.101 294.83 122.937Z" fill="black"/>
<path d="M270.54 93.8213C276.459 89.2983 281.738 93.9364 281.117 100.731C280.587 106.51 274.793 109.082 270.39 105.269L270.07 106.765L266.853 106.46L266.768 86.6765L267.003 86.3213C267.398 86.0461 270.14 85.9811 270.545 86.6315V93.8213H270.54ZM273.967 95.0872C269.234 95.1672 269.409 103.378 273.322 103.803C279.171 104.443 278.345 95.0121 273.967 95.0872Z" fill="black"/>
<path d="M202.74 101.157C201.559 106.581 195.375 108.312 190.597 106.401C183.066 103.389 182.866 91.0104 189.911 87.3079C193.619 85.3616 199.588 86.017 201.914 89.8046C203.835 92.9317 202.129 92.6666 199.347 93.1219C198.597 92.9968 198.172 89.9047 194.674 89.6995C189.771 89.4193 188.15 94.1575 188.725 98.2953C189.531 104.099 196.43 105.79 199.487 100.722L202.74 101.157Z" fill="black"/>
<path d="M249.7 133.14V139.744C248.85 140.605 247.308 140.034 246.178 140.184V120.671C246.893 119.886 248.239 120.281 249.225 120.266L249.705 121.407H250.14C253.553 118.125 259.202 120.391 260.142 124.909C261.618 132.029 256.265 138.098 249.705 133.14H249.7ZM252.257 122.933C248.93 123.688 248.544 131.248 252.482 131.684C258.541 132.349 257.761 121.687 252.257 122.933Z" fill="black"/>
<path d="M276.118 128.444C275.887 130.375 278.204 132.111 280 131.911C281.591 131.731 282.537 130.07 283.052 129.97C283.438 129.895 285.974 130.836 286.074 131.261C283.833 136.079 276.068 136.284 273.426 131.571C268.628 123.025 279.555 115.81 284.748 122.305C285.879 123.716 287.065 126.858 285.949 128.439H276.118V128.444ZM282.282 125.802C282.097 121.464 276.673 121.894 276.118 125.802H282.282Z" fill="black"/>
<path d="M233.555 128.444C233.595 131.046 236.237 132.447 238.553 131.531C240.374 130.811 239.779 129.07 242.761 130.836C244.592 131.922 241.36 133.938 240.219 134.368C233.795 136.78 228.316 131.591 230.057 125.087C231.799 118.583 241.35 117.892 243.341 124.682C243.677 125.817 244.062 127.519 243.101 128.444H233.56H233.555ZM239.719 125.802C239.314 121.409 234.25 121.79 233.555 125.802H239.719Z" fill="black"/>
<path d="M197.455 134.607H194.223L194.073 133.432C191.066 136.073 184.832 135.428 184.807 130.65C184.782 125.872 190.435 125.992 193.918 125.501C193.883 121.849 189.735 122.364 188.179 124.871L185.417 123.895C184.992 123.64 185.252 123.55 185.352 123.27C186.673 119.577 193.643 118.782 196.144 121.694C196.47 122.074 197.455 123.85 197.455 124.195V134.612V134.607ZM193.933 128.148C192.617 128.228 189.16 128.298 188.709 129.824C187.544 133.752 195.244 132.366 193.933 128.148Z" fill="black"/>
<path d="M210.59 92.1354C221.227 90.5994 222.478 105.629 213.372 106.945C202.73 108.481 201.679 93.4213 210.59 92.1354ZM211.471 95.0523C206.717 95.7578 207.603 104.414 212.241 104.083C217.4 103.718 216.689 94.2818 211.471 95.0523Z" fill="black"/>
<path d="M323.891 92.135C335.629 90.544 335.334 108.511 323.891 106.945C315.676 105.824 315.605 93.2558 323.891 92.135ZM324.471 95.0569C320.119 95.9025 320.239 104.073 325.172 103.923C330.791 103.753 329.655 94.0462 324.471 95.0569Z" fill="black"/>
<path d="M225.341 106.73H221.818V92.3507L224.775 92.4758L225.196 93.8166C228.343 90.6595 234.187 91.7002 234.737 96.6035C234.957 98.5749 234.987 103.763 234.752 105.715C234.712 106.03 234.762 106.39 234.462 106.6C233.686 106.74 231.23 107.066 230.96 106.245C230.534 104.124 231.675 96.8587 230.199 95.5628C228.348 93.9417 225.341 96.2433 225.341 98.0695V106.725V106.73Z" fill="black"/>
<path d="M348.032 106.732C347.236 106.586 344.845 107.147 344.55 106.251C344.089 103.689 346.221 92.9772 340.767 95.2187C340.027 95.524 338.636 97.3552 338.636 98.0756V106.732C337.395 107.222 336.364 106.977 335.113 106.732V92.3518L338.16 92.3869L338.781 93.5225C340.707 91.5862 344.825 91.4913 346.721 93.5126C347.036 93.8479 348.027 95.709 348.027 96.0192V106.732H348.032Z" fill="black"/>
<path d="M296.662 106.731C295.176 106.786 293.324 107.381 293.289 105.265C291.183 107.737 286.855 107.737 284.924 105.115C284.574 104.634 283.748 102.953 283.748 102.478V92.7965L284.233 92.4012C284.499 92.3161 284.784 92.3612 285.054 92.3412C285.784 92.2761 286.82 92.1961 287.27 92.7965V101.893C287.27 103.008 288.922 104.119 290.032 104.074C291.143 104.029 293.139 102.778 293.139 101.597V92.7965L293.625 92.4012C293.89 92.3161 294.175 92.3612 294.445 92.3412C295.176 92.2761 296.211 92.1961 296.662 92.7965V106.736V106.731Z" fill="black"/>
<path d="M213.306 129.914C213.146 132.336 210.795 134.547 208.438 134.878C196.63 136.514 196.48 118.352 208.143 119.963C209.844 120.198 212.471 122.049 212.881 123.745C213.291 125.441 210.004 125.541 209.334 124.931C208.909 124.546 209.069 123.635 208.038 123.295C202.344 121.419 201.594 131.25 206.407 131.685C209.369 131.956 209.309 129.604 210.274 129.369L213.306 129.914Z" fill="black"/>
<path d="M227.951 124.603C227.046 124.843 225.885 125.494 224.944 125.179C224.294 124.958 224.429 123.688 223.273 123.337C217.714 121.646 217.144 130.277 220.721 131.448C222.993 132.193 224.339 131.383 225.234 129.301L228.442 130.202C224.944 139.168 212.516 134.685 215.083 125.089C216.809 118.634 226.801 117.744 227.951 124.603Z" fill="black"/>
<path d="M267.283 116.447C267.573 117.678 267.904 119.019 267.313 120.225L270.646 120.27C271.376 120.51 271.301 122.721 270.851 123.037L267.308 123.167L267.729 131.107L270.64 131.422C271.421 131.677 271.171 133.634 270.991 134.334C262.045 137.126 263.861 128.991 263.786 123.167L261.479 123.127C260.539 120.89 261.409 119.89 263.786 120.235L264.061 116.547L267.278 116.452L267.283 116.447Z" fill="black"/>
<path d="M304.884 92.3536C306.08 92.5087 308.381 91.7381 308.696 93.3892C309.237 96.2161 306.74 95.0953 304.884 95.2855C305.214 97.3018 304.418 100.914 304.944 102.711C305.419 104.337 308.321 102.565 308.696 104.542C309.367 108.089 303.593 107.364 302.112 105.547C300.536 103.616 301.787 98.2725 301.326 95.7708L300.886 95.3305L298.725 95.2905L298.855 92.6288L301.371 92.3536L301.647 88.666L304.764 88.8111L304.889 92.3536H304.884Z" fill="black"/>
<path d="M242.951 102.772C243.296 104.013 245.898 103.138 246.343 103.783V106.46C244.667 107.436 241.41 107.07 240.174 105.549C238.598 103.613 239.849 98.2743 239.389 95.7726L238.948 95.3324L236.767 95.1672C235.751 92.7306 237.142 92.0402 239.429 92.3554C239.294 90.9344 238.553 88.7979 240.439 88.5328C243.897 88.0474 242.826 89.7787 242.946 92.3604L245.988 92.4004C246.839 92.6805 246.358 94.5718 246.474 95.2973H242.951V102.777V102.772Z" fill="black"/>
<path d="M252.638 106.731H249.115V92.3511H252.347V93.8171C253.763 92.6013 255.605 91.4105 257.501 92.3311V95.0079C257.216 95.4082 255.054 95.1229 253.954 96.1586C253.523 96.5639 252.638 98.4752 252.638 98.9505V106.726V106.731Z" fill="black"/>
<path d="M315.155 106.731C313.949 107.136 312.844 107.141 311.633 106.731V92.3511C312.764 92.5012 314.305 91.9308 315.155 92.7913V106.731Z" fill="black"/>
<path d="M263.495 106.73C262.254 107.22 261.223 106.975 259.973 106.73V92.7906L260.458 92.3953C260.723 92.3103 261.008 92.3553 261.279 92.3353C262.009 92.2703 263.045 92.1902 263.495 92.7906V106.73Z" fill="black"/>
<path d="M260.049 86.8562C261.96 85.095 265.202 87.6367 263.211 89.8682C261.22 92.0997 257.982 88.7575 260.049 86.8562Z" fill="black"/>
<path d="M313.293 86.2772C316.01 86.1271 316.375 90.4951 313.533 90.6102C310.521 90.7353 310.606 86.4223 313.293 86.2772Z" fill="black"/>
<path d="M394.409 48.9269H35.1367V8.57978C35.1367 6.45835 37.1781 4.21183 39.3045 3.94665L390.116 3.77148C393.908 4.23179 394.088 6.108 394.404 9.46526V48.9269H394.409ZM221.737 13.488C219.536 14.1534 218.58 16.1248 218.325 18.2963C217.82 22.6442 217.9 32.3207 218.285 36.7587C218.5 39.2754 219.511 41.7721 222.283 42.1523C273.047 42.0272 323.901 42.5326 374.61 41.8971C376.091 41.2967 377.077 40.0559 377.357 38.4848C376.777 31.8403 378.238 23.5648 377.357 17.1154C377.097 15.2192 375.951 13.7282 373.98 13.448L221.732 13.488H221.737ZM61.1142 15.4743C59.1679 15.1991 56.6712 15.6795 54.6549 15.4743L54.2146 15.9147V33.5215C54.6649 34.1219 55.7056 34.0418 56.4311 33.9768C56.7012 33.9517 56.9814 34.0018 57.2516 33.9168L57.7369 33.5215V28.2379C57.7369 28.1729 57.1916 27.7376 57.9171 27.5425C58.5625 27.3674 59.3881 27.4374 59.9584 27.7776C60.9891 28.3981 63.2707 33.4965 63.9611 33.8968C64.3314 34.1119 67.6836 34.0969 67.7087 33.5215L63.3057 26.777C68.4141 24.0601 66.9732 16.3049 61.1092 15.4743H61.1142ZM126.348 15.5344C123.891 15.7395 124.067 19.7423 126.543 19.5822C129.265 19.4071 128.96 15.3193 126.348 15.5344ZM135.815 21.0531L135.689 17.806L132.587 17.5308V21.0531L130.221 21.1782C129.775 21.4884 129.695 23.7049 130.426 23.9451L132.587 23.985C132.893 24.2903 132.122 31.0698 132.918 32.6058C133.883 34.4821 137.326 34.4671 139.007 33.6316C139.042 32.9511 139.332 31.3151 138.566 31.0699L136.3 30.9898L135.86 30.5495L135.815 23.985L138.771 23.86C139.217 23.5498 139.297 21.3332 138.566 21.0931L135.82 21.0531H135.815ZM86.2111 32.4958C89.4833 35.723 94.887 34.202 95.7625 29.5739C96.7582 24.3304 93.3709 19.337 87.7621 21.2783C87.1617 21.4884 86.6864 22.0888 86.3562 22.2188C85.5857 22.524 86.066 21.1982 85.9209 21.0481C84.9553 21.1582 83.6844 20.6878 82.9839 21.4934V38.8051C83.4442 39.6707 86.2111 39.2704 86.2111 38.5098V32.4958ZM103.768 20.828C95.3473 21.3734 95.5474 34.4271 104.248 34.267C113.514 34.0969 112.749 20.2426 103.768 20.828ZM146.327 20.833C138.131 21.4985 138.586 34.3671 147.102 34.262C156.003 34.1569 155.698 20.0725 146.327 20.833ZM155.483 21.4934V33.5215C155.853 34.0769 156.493 33.9818 157.099 33.9818C157.479 33.9818 157.854 34.0018 158.225 33.9168L158.71 33.5215V27.3573C158.71 27.2522 159.26 25.5761 159.36 25.366C160.461 23.1645 162.903 23.9401 163.278 23.4147C163.508 23.0845 163.508 21.3633 163.278 21.0281C162.578 20.0224 159.365 21.4634 158.855 22.5091L158.23 21.0832C157.599 21.0332 155.688 20.8079 155.483 21.4834V21.4934ZM71.8264 28.388H80.4873C81.1427 27.8877 80.9676 26.962 80.8925 26.2215C80.2671 19.8873 71.221 19.0567 69.0446 24.8707C66.723 31.0798 72.4919 36.3184 78.4909 33.4365C79.4716 32.9662 81.4429 31.5852 79.9669 30.6696C77.3652 29.0635 77.7004 30.7247 76.2494 31.19C74.0679 31.8904 72.1116 30.5895 71.8314 28.388H71.8264ZM121.05 24.1953C121.445 23.855 121.89 22.8143 122.305 22.374C120.374 20.6778 116.051 20.4377 114.085 22.0738C111.883 23.9101 112.339 26.2566 114.585 27.7576C115.776 28.5531 119.233 29.0485 119.098 30.5796L118.498 31.4751C116.797 32.1155 115.441 30.7196 113.94 30.2443L112.339 32.4958C114.93 33.9768 118.423 35.1876 121.155 33.2463C123.291 31.7253 123.171 28.6282 120.955 27.2623C120.234 26.817 113.72 25.2009 116.522 23.9201C118.433 23.0445 120.184 24.9408 121.055 24.2003L121.05 24.1953ZM124.952 21.0531V33.5215C125.322 34.0769 125.963 33.9818 126.568 33.9818C126.949 33.9818 127.324 34.0018 127.694 33.9168L128.179 33.5215V21.4934C127.404 20.6578 125.998 21.1832 124.952 21.0531ZM168.061 21.0931C167.421 21.0581 164.649 20.8079 164.594 21.4884C165.835 24.3253 166.83 27.2673 167.961 30.1442C168.251 30.8847 169.742 33.5565 169.792 33.8617C169.882 34.4221 169.072 36.0332 168.567 36.3284C167.506 36.9489 164.594 36.0432 165.505 38.76C166.04 40.3561 170.208 38.8601 171.288 37.284C172.199 35.9531 177.017 23.2746 177.187 21.7586C177.212 21.5234 177.217 21.2833 177.207 21.0481L174.115 21.3334L171.043 30.1392L168.061 21.0882V21.0931Z" fill="#C4DEF8"/>
<path d="M42.7664 169.818C42.9215 171.389 43.3868 172.95 43.8621 174.446C44.6176 176.828 49.591 190.998 50.9819 191.688C53.7238 193.039 58.562 185.744 60.5284 184.208C61.534 183.423 63.4953 182.332 64.7612 182.277C65.6518 182.237 69.0541 186.97 69.7095 187.921C67.5281 192.359 68.5037 197.202 68.3136 201.965C67.9884 210.156 67.6281 218.721 66.5024 226.857C66.3623 227.867 65.952 231.42 65.4967 232.015C65.3616 232.195 62.92 233.686 62.5897 233.807C60.9036 234.407 52.3178 233.451 49.9913 233.166C45.4032 232.601 40.8651 231.475 36.3571 230.514C36.237 227.958 34.4408 226.442 33.0749 224.54C36.6123 214.033 40.0596 202.39 35.4815 191.633C33.8454 187.781 29.8827 182.527 25.4497 182.152L25.6299 183.052C28.4818 184.053 30.6733 186.855 32.1442 189.397C38.2433 199.959 34.6109 212.772 31.0235 223.525C22.0074 218.876 9.45396 222.219 4.55567 231.245L3.14471 234.377C3.08967 231.895 3.60002 229.408 4.10536 226.982C6.31685 216.47 11.9657 194.675 17.2842 185.874C22.6028 177.073 33.8254 173.301 42.7614 169.823L42.7664 169.818Z" fill="#C4DEF8"/>
<path d="M199.217 185.953L199.007 187.95L181.17 238.488L179.014 239.264L130.531 248.745C130.236 248.435 132.002 243.572 132.287 242.726C137.306 227.756 142.444 212.666 147.843 197.831C148.929 194.844 149.444 190.661 153.317 190.686L199.217 185.953ZM168.322 209.204C164.109 209.889 159.956 216.534 162.813 220.146C167.061 225.52 176.047 214.638 171.629 210.159C170.723 209.239 169.567 208.999 168.322 209.204Z" fill="white"/>
<path d="M97.3628 145.611C96.8574 151.055 93.4351 159.131 89.4424 162.928C81.5571 170.428 72.486 167.296 64.0003 162.828C63.1247 162.368 60.3428 160.021 59.6324 161.007C59.3572 161.387 59.5623 161.747 59.7224 162.113C60.2128 163.213 64.6708 167.136 65.8616 168.012C68.7385 170.133 72.2659 172.044 75.9384 171.879L70.5097 185.368C68.9737 183.662 67.5427 181.581 65.9666 179.94C62.3442 176.157 52.7527 170.758 51.8872 165.26C51.2868 161.427 52.0523 155.843 51.5819 151.776C51.5269 151.295 51.4469 150.85 51.1416 150.455C50.4362 149.739 48.2947 150.9 47.2891 151.015C36.3517 152.311 31.7836 136.25 40.4294 133.303C43.2063 132.357 45.5029 133.293 47.4742 135.34C48.705 136.615 49.2204 138.552 50.8415 139.317C52.6677 139.332 51.5669 133.884 51.8872 132.573L62.7295 131.092C62.3942 146.202 82.7079 145.827 81.2219 130.506L84.4791 130.406L89.5775 139.027C90.5532 143.175 86.9808 144.17 83.5685 143.715C83.0732 145.111 84.9244 145.466 86.0652 145.496C89.0022 145.576 91.729 143.515 91.799 140.498C93.7403 140.548 95.5115 140.533 97.3628 139.898C97.2377 141.749 97.5329 143.79 97.3628 145.621V145.611ZM45.698 142.825C46.3084 146.197 50.0659 147.293 47.9145 142.815C46.6887 140.258 43.4215 136.896 40.3544 137.311C39.5188 137.421 38.3581 137.961 39.2537 138.862C40.8747 139.292 42.721 139.552 43.8868 140.918C42.9361 142.354 41.8754 144.195 42.761 145.927C44.1369 146.927 44.3371 142.624 45.703 142.83L45.698 142.825ZM89.6676 149.939C88.8921 149.309 88.0865 149.874 87.251 149.879C81.9374 149.919 76.0134 148.293 71.3853 148.453C67.6878 148.583 68.7485 151.035 70.0594 153.247C73.6468 159.311 81.8523 161.842 86.9458 156.028C87.7013 155.168 90.5832 150.815 89.6676 149.939Z" fill="#FCF7ED"/>
<path d="M111.454 207.669C101.887 209.625 96.874 221.453 100.006 230.264C97.6995 230.089 97.1692 226.952 95.0828 226.097C94.6174 225.296 96.7789 213.058 97.0291 211.006C97.4744 207.344 99.3006 192.989 97.6295 190.538C97.2942 190.047 97.1041 189.997 96.4837 190.067C95.8883 193.85 96.1885 197.882 95.8933 201.655C95.2779 209.465 93.5667 217.195 92.9613 224.986C88.4033 222.994 83.1447 220.628 78.3065 223.099C74.8992 224.836 71.4418 228.358 68.0195 230.269C68.8351 224.991 69.4155 219.617 69.7757 214.273C70.231 207.449 69.7857 200.074 70.3561 193.435C70.6813 189.627 71.8021 189.657 73.8935 187.29C75.4095 185.579 76.7454 183.688 78.4766 182.172C79.177 182.052 83.9853 187.946 85.6614 187.58C85.9466 187.52 86.537 187.1 86.6621 186.84C86.9573 186.24 86.3018 181.677 86.1217 180.626C85.6764 178.039 84.8058 175.582 84.1604 173.051C87.2775 174.242 90.5747 175.397 93.4567 177.108C96.964 179.19 98.7252 181.286 100.752 184.784C104.949 192.039 107.476 200.299 111.459 207.674L111.454 207.669ZM75.2744 194.84C72.9779 192.769 70.9715 198.593 74.604 197.993C75.9449 197.772 76.175 195.651 75.2744 194.84ZM72.7777 216.695C74.589 218.501 77.1257 214.764 74.7541 213.688C72.7727 212.793 71.7571 215.674 72.7777 216.695Z" fill="#C4DEF8"/>
<path d="M100.27 239.039C99.0146 239.919 98.3742 237.443 98.004 236.812C95.9926 233.355 93.0857 230.008 89.2981 228.497C88.0873 228.016 83.6543 226.711 82.5786 226.831C81.9532 226.901 81.1526 227.666 81.5179 228.207C81.7981 228.622 89.178 230.243 91.0093 231.489C92.2401 232.329 96.8182 237.113 97.0283 238.413C97.1884 239.409 96.4229 241.095 95.2271 240.795C94.9469 240.725 91.9749 237.208 91.2094 236.577C88.9879 234.726 86.0609 233.175 83.229 232.524C82.4035 232.334 79.8167 231.619 79.3014 232.309L79.1713 233.2C82.9138 234.151 87.2017 235.657 90.1687 238.198C91.4195 239.269 92.8905 240.665 91.5947 242.316C88.5676 242.596 87.2667 239.924 84.5149 239.159C75.714 236.707 75.4088 245.233 68.5391 247.369C65.2819 248.385 64.3763 247.204 61.7496 247.309C59.8383 247.384 57.0314 248.22 54.915 248.425C44.9983 249.391 31.3841 249.716 21.5275 248.425C20.2366 248.255 19.0508 248.33 18.5505 246.999C16.4591 241.42 20.757 233.785 26.2657 232.114C30.2133 230.918 37.7734 233.515 42.1263 234.286C47.5 235.236 53.9293 236.232 59.3529 236.427C63.3857 236.572 63.5758 236.212 66.7529 234.146C70.8807 231.464 75.4838 227.281 79.6516 225.034C82.3184 223.598 85.1403 224.389 87.9622 225.134C92.145 226.235 93.9613 227.186 96.593 230.593C97.4536 231.704 101.772 237.988 100.265 239.044L100.27 239.039Z" fill="#FCF7ED"/>
<path d="M136.695 173.341C137.025 171.94 135.634 171.47 134.468 171.314C131.786 170.954 128.594 171.379 126.863 173.631C123.966 172.19 126.023 168.863 128.399 168.422C131.216 167.902 138.771 170.264 140.637 172.48C142.399 174.572 142.173 180.726 141.978 183.458C141.468 190.617 138.386 197.187 136.329 203.921C133.508 213.148 131.531 222.789 126.753 231.25C123.341 231.655 119.303 233.216 115.966 233.466C114.16 233.601 113.369 231.885 112.634 230.409C108.211 221.553 113.024 217.906 117.342 211.341C119.838 207.549 124.792 199.123 125.482 194.83C125.998 191.603 125.067 192.013 123.671 190.032C121.089 186.37 118.858 181.932 119.388 177.293C119.653 174.962 121.479 172.16 124.071 173.786C126.298 175.182 126.178 179.24 126.143 181.551C123.381 182.067 122.865 179.28 123.206 177.148C121.955 176.938 121.49 178.364 121.434 179.36C121.284 182.187 123.681 184.363 126.433 183.313C126.408 184.628 126.808 186.019 127.398 187.19C127.874 188.131 129.525 189.617 129.62 189.982C129.745 190.457 129.32 192.238 129.355 193.154C129.42 194.765 130.175 197.147 131.912 197.642C132.367 197.772 132.677 197.857 132.597 197.252C132.487 196.441 131.661 195.406 131.496 194.24C131.321 193.019 131.466 191.773 131.406 190.547C134.143 189.687 134.713 187.74 134.783 185.059L136.67 184.453L136.705 183.313C134.904 183.202 133.267 183.227 131.851 184.483L131.746 185.169C133.367 186.385 132.157 189.407 130.235 187.58C128.719 186.139 128.884 183.107 128.474 181.176C128.619 180.536 132.867 178.915 133.623 178.915H138.171C138.221 177.108 136.229 176.928 134.808 176.848C132.332 176.713 130.265 177.088 128.489 178.915L127.604 175.107C128.899 174.752 130.821 173.341 132.157 173.341H136.705H136.695Z" fill="#FCF7ED"/>
<path d="M89.6276 108.596C90.2881 109.291 94.1757 114.64 93.5452 115.24C91.634 114.335 86.9958 115.73 86.6456 117.847C86.2954 119.963 91.0486 117.872 92.4245 117.947C93.4852 118.007 95.4515 118.637 94.9912 120.043C94.7561 120.764 92.2444 120.474 91.2487 120.719C87.7363 121.584 85.755 124.787 84.7493 128.014L80.9067 128.594C78.9704 124.156 75.9134 121.424 70.7949 121.985C66.9874 122.4 64.5157 125.667 63.0247 128.889L51.8672 130.495C54.8942 124.256 56.4953 117.086 54.509 110.252C60.2578 111.758 67.1475 113.319 73.0014 111.573C76.9491 110.397 73.2216 108.05 72.411 105.849C76.819 106.764 80.8867 108.616 84.9395 110.492L85.6399 110.127C86.4054 109.076 85.3447 106.749 85.0345 105.559C85.6449 105.068 89.0822 108.02 89.6276 108.596ZM69.414 115.911C67.5678 116.146 65.7415 117.031 64.2205 118.057C63.3599 118.637 59.5724 121.619 62.0541 122.245C62.6495 122.395 65.3913 120.539 66.3419 120.178C67.7479 119.643 69.8893 119.088 71.3753 119.043C72.6462 119.003 74.9177 119.763 75.8133 119.083C76.769 118.117 75.7733 117.076 74.7776 116.546C73.2366 115.72 71.1202 115.695 69.414 115.911Z" fill="#FCF7ED"/>
<path d="M33.6661 229.773C28.4326 227.862 23.2491 229.768 19.5867 233.741C15.3988 238.284 14.4432 244.148 17.2301 249.722C5.27203 251.738 0.103549 239.039 7.25837 230.218C12.1266 224.209 23.094 221.477 29.9486 225.42C30.6941 225.85 34.3316 228.903 33.6661 229.768V229.773Z" fill="#C4DEF8"/>
<path d="M63.3146 180.675C58.0261 181.295 56.2899 187.399 51.8719 189.481C50.1258 185.603 48.5147 181.645 47.1638 177.603C46.5484 175.761 44.2718 169.872 44.9723 168.361C45.1624 167.956 46.2181 166.92 46.6334 166.21C47.489 164.749 47.6941 163.268 49.3703 162.197C48.97 167.616 53.9683 172.995 57.886 176.272C59.2469 177.413 61.9737 178.744 63.0244 179.939C63.2496 180.194 63.4047 180.265 63.3096 180.68L63.3146 180.675Z" fill="#C4DEF8"/>
<path d="M133.467 232.32L132.556 235.222C124.926 236.633 117.206 238.139 109.686 240.091C107.92 240.551 103.287 241.587 107.74 242.572L131.996 236.723L131.211 238.134C126.107 239.79 119.868 240.301 114.905 242.082C112.843 242.822 113.704 244.513 115.67 244.023L130.53 240.241L130.24 241.266C129.024 241.692 122.525 242.497 122.33 243.643C121.869 246.305 129.364 243.193 129.655 243.468L128.479 247.28L94.1406 242.877L96.7974 242.457C97.5879 242.212 98.1283 241.131 98.5286 240.986C98.8638 240.866 99.3892 241.181 99.8245 241.106C102.511 240.656 101.991 238.629 102.857 238.239L133.477 232.32H133.467Z" fill="white"/>
<path d="M115.56 209.729C113.454 212.887 110.617 215.869 109.386 219.546C107.635 224.77 109.166 229.603 112.038 234.081L105.794 235.217C96.3524 227.206 102.682 208.609 115.56 209.734V209.729Z" fill="#C4DEF8"/>
<path d="M70.5762 124.112C80.8281 122.371 82.0989 138.677 73.6633 140.113C63.1512 141.904 62.1605 125.543 70.5762 124.112ZM73.7884 128.815C70.1509 129.271 70.6963 136.586 74.0285 136.401C77.0055 136.236 77.2107 129.196 73.7884 128.815Z" fill="#FCF7ED"/>
<path d="M92.0046 122.647C102.186 120.886 103.077 138.218 94.2411 138.698C90.0082 138.928 88.3971 132.584 86.5059 129.752C87.0662 126.815 88.7223 123.212 92.0046 122.647ZM92.59 127.61C89.748 128.116 89.7931 135.636 93.6807 134.895C96.6027 134.34 96.0323 126.995 92.59 127.61Z" fill="#FCF7ED"/>
<path d="M77.9899 243.177L126.803 248.51L127.313 249.191C126.983 250.327 125.857 250.562 124.816 250.517C110.492 249.916 95.5267 246.714 81.102 246.069C79.2657 245.939 77.8548 245.198 77.9849 243.172L77.9899 243.177Z" fill="white"/>
<path d="M80.3024 169.857C82.624 174.39 84.0249 179.394 84.4452 184.487C82.2187 183.522 79.9322 178.633 77.4155 180.249L73.5879 183.897L78.8965 170.283L80.3024 169.857Z" fill="#C4DEF8"/>
<path d="M161.556 94.1766C163.703 93.5262 165.549 95.3475 164.598 97.514C163.648 99.6804 158.925 102.542 157.694 104.984C157.248 105.434 156.663 105.689 156.208 106.14C155.172 107.155 150.289 112.449 149.608 112.744C148.928 113.039 148.007 113.044 147.397 112.619L139.401 104.749C138.711 102.943 140.157 101.071 142.123 101.457C142.569 101.542 143.884 102.682 144.34 103.063C145.275 103.843 147.932 107.295 148.948 106.82L161.566 94.1766H161.556Z" fill="#FCF7ED"/>
<path d="M221.736 13.4872L373.984 13.4473C375.955 13.7275 377.101 15.2184 377.361 17.1147C378.241 23.564 376.78 31.8395 377.361 38.484C377.081 40.0551 376.09 41.2959 374.614 41.8964C323.905 42.5318 273.051 42.0264 222.286 42.1515C219.51 41.7763 218.504 39.2746 218.289 36.7579C217.904 32.3149 217.828 22.6384 218.329 18.2955C218.579 16.124 219.54 14.1577 221.741 13.4872H221.736ZM222.902 15.8339C221.956 16.1441 221.106 16.9796 220.951 17.9902C221.421 24.0243 220.265 31.1441 220.936 37.0481C221.226 39.5948 222.457 39.4297 224.643 39.8L371.082 39.8501C373.964 39.5599 374.674 39.3797 374.999 36.4277C375.45 32.2899 375.45 23.0186 375.029 18.8608C374.879 17.3648 374.464 16.119 372.818 15.7938L222.907 15.8388L222.902 15.8339Z" fill="black"/>
<path d="M61.1134 15.4723C66.9723 16.3029 68.4183 24.0581 63.3099 26.775L67.7128 33.5195C67.6878 34.0949 64.3356 34.1149 63.9653 33.8947C63.2798 33.4945 60.9983 28.391 59.9626 27.7756C59.3922 27.4354 58.5667 27.3604 57.9212 27.5405C57.1958 27.7356 57.7411 28.1759 57.7411 28.2359V33.5195L57.2558 33.9148C56.9906 33.9998 56.7054 33.9547 56.4352 33.9748C55.7047 34.0398 54.6691 34.1199 54.2188 33.5195V15.9127L54.659 15.4723C56.6754 15.6774 59.1721 15.1971 61.1184 15.4723H61.1134ZM57.7361 18.4093V23.838C57.7361 23.9281 57.3308 24.2533 57.4459 24.5685C64.8309 25.8744 65.2362 17.3686 57.7361 18.4093Z" fill="black"/>
<path d="M86.2116 32.4955V38.5095C86.2116 39.2701 83.4447 39.6704 82.9844 38.8048V21.4931C83.6848 20.6875 84.9557 21.1629 85.9214 21.0478C86.0664 21.1979 85.5811 22.5288 86.3566 22.2185C86.6919 22.0885 87.1622 21.4831 87.7626 21.278C93.3764 19.3367 96.7637 24.3251 95.763 29.5736C94.8824 34.2017 89.4838 35.7227 86.2116 32.4955ZM87.1822 24.37C85.6162 25.821 85.8013 30.6342 88.1929 31.2446C94.0818 32.7557 93.8817 23.0292 88.7332 23.7047C88.348 23.7547 87.4624 24.1098 87.1822 24.37Z" fill="black"/>
<path d="M71.8259 28.3873C72.1061 30.5888 74.0674 31.8897 76.2439 31.1893C77.6949 30.724 77.3597 29.0628 79.9614 30.6689C81.4374 31.5795 79.4711 32.9605 78.4854 33.4358C72.4864 36.3177 66.7125 31.0791 69.0391 24.8699C71.2155 19.051 80.2616 19.8866 80.887 26.2208C80.9621 26.9663 81.1372 27.887 80.4818 28.3873H71.8209H71.8259ZM77.4047 26.0408C76.9894 22.4033 72.6815 22.6985 71.8259 26.0408H77.4047Z" fill="black"/>
<path d="M146.327 20.8325C155.698 20.0719 156.003 34.1564 147.102 34.2614C138.587 34.3615 138.131 21.4929 146.327 20.8325ZM146.307 23.7594C142.419 24.4348 143.06 31.8198 147.383 31.3145C151.706 30.8092 151.22 22.9088 146.307 23.7594Z" fill="black"/>
<path d="M103.767 20.8286C112.748 20.2432 113.513 34.0975 104.247 34.2676C95.5464 34.4277 95.3463 21.379 103.767 20.8286ZM103.452 23.7605C99.8093 24.3909 100.205 30.8003 103.402 31.3056C108.98 32.1862 108.96 22.8048 103.452 23.7605Z" fill="black"/>
<path d="M168.061 21.094L171.043 30.1451L174.115 21.3393L177.207 21.054C177.217 21.2892 177.212 21.5243 177.187 21.7645C177.012 23.2805 172.199 35.959 171.288 37.2899C170.208 38.866 166.04 40.362 165.504 38.7659C164.594 36.0491 167.506 36.9498 168.566 36.3343C169.072 36.0391 169.887 34.428 169.792 33.8676C169.742 33.5574 168.251 30.8906 167.961 30.1501C166.83 27.2682 165.835 24.3312 164.594 21.4943C164.654 20.8138 167.426 21.064 168.061 21.099V21.094Z" fill="black"/>
<path d="M121.05 24.1951C120.179 24.9356 118.423 23.0393 116.517 23.9149C113.715 25.1957 120.234 26.8168 120.95 27.2571C123.166 28.623 123.291 31.7201 121.15 33.2411C118.418 35.1824 114.926 33.9716 112.334 32.4906L113.935 30.2391C115.436 30.7144 116.792 32.1104 118.493 31.47L119.094 30.5744C119.229 29.0433 115.771 28.5479 114.58 27.7524C112.334 26.2514 111.879 23.9049 114.08 22.0686C116.046 20.4325 120.369 20.6726 122.301 22.3688C121.885 22.8091 121.445 23.8548 121.045 24.1901L121.05 24.1951Z" fill="black"/>
<path d="M135.815 21.0536L138.562 21.0936C139.293 21.3337 139.218 23.5453 138.767 23.8605L135.81 23.9855L135.855 30.55L136.296 30.9903L138.562 31.0704C139.328 31.3156 139.037 32.9516 139.002 33.6321C137.321 34.4676 133.879 34.4826 132.913 32.6063C132.123 31.0703 132.888 24.2908 132.583 23.9855L130.422 23.9456C129.691 23.7104 129.771 21.4889 130.217 21.1787L132.583 21.0536V17.5312L135.68 17.8065L135.805 21.0536H135.815Z" fill="black"/>
<path d="M155.482 21.4931C155.693 20.8177 157.599 21.0428 158.229 21.0928L158.855 22.5189C159.365 21.4731 162.577 20.0322 163.278 21.0379C163.508 21.3681 163.508 23.0943 163.278 23.4245C162.907 23.9498 160.461 23.1743 159.36 25.3758C159.255 25.5809 158.71 27.262 158.71 27.3671V33.5313L158.224 33.9266C157.854 34.0116 157.474 33.9915 157.099 33.9915C156.498 33.9915 155.858 34.0916 155.482 33.5313V21.5032V21.4931Z" fill="black"/>
<path d="M124.951 21.0532C126.002 21.1832 127.408 20.6578 128.178 21.4934V33.5215L127.693 33.9168C127.323 34.0019 126.943 33.9818 126.567 33.9818C125.967 33.9818 125.326 34.0819 124.951 33.5215V21.0532Z" fill="black"/>
<path d="M126.349 15.5336C128.966 15.3184 129.266 19.4062 126.544 19.5814C124.067 19.7415 123.892 15.7337 126.349 15.5336Z" fill="black"/>
<path d="M168.321 209.206C169.567 209.006 170.718 209.246 171.628 210.162C176.051 214.64 167.065 225.522 162.813 220.149C159.956 216.531 164.108 209.892 168.321 209.206ZM168.316 211.538C165.329 212.178 162.007 219.028 166.19 218.843C167.751 218.773 169.787 216.671 170.223 215.22C170.708 213.589 170.558 211.058 168.316 211.538Z" fill="black"/>
<path d="M89.6685 149.938C90.5891 150.814 87.7022 155.167 86.9466 156.028C81.8482 161.842 73.6427 159.31 70.0603 153.246C68.7494 151.034 67.6887 148.583 71.3862 148.453C76.0143 148.292 81.9383 149.919 87.2518 149.879C88.0874 149.874 88.8929 149.308 89.6685 149.938ZM82.979 156.033L71.8265 151.925C74.2281 155.612 77.9256 158.259 82.3936 156.468C82.6738 156.358 83.064 156.433 82.979 156.033Z" fill="black"/>
<path d="M45.6984 142.824C44.3325 142.624 44.1324 146.922 42.7565 145.922C41.8709 144.185 42.9316 142.349 43.8822 140.913C42.7164 139.547 40.8652 139.287 39.2491 138.857C38.3585 137.956 39.5143 137.421 40.3498 137.306C43.4219 136.895 46.6891 140.258 47.9099 142.809C50.0614 147.287 46.3038 146.192 45.6934 142.819L45.6984 142.824Z" fill="black"/>
<path d="M72.7775 216.695C71.7568 215.679 72.7725 212.792 74.7538 213.688C77.1254 214.758 74.5887 218.501 72.7775 216.695Z" fill="black"/>
<path d="M75.2731 194.84C76.1687 195.651 75.9386 197.772 74.6027 197.992C70.9702 198.593 72.9816 192.769 75.2731 194.84Z" fill="black"/>
<path d="M69.4152 115.911C71.1213 115.696 73.2377 115.721 74.7788 116.547C75.7695 117.077 76.7651 118.118 75.8145 119.083C74.9189 119.764 72.6523 119.003 71.3765 119.043C69.8855 119.088 67.744 119.644 66.3431 120.179C65.3925 120.544 62.6456 122.396 62.0552 122.246C59.5735 121.62 63.3611 118.638 64.2217 118.058C65.7427 117.032 67.5689 116.146 69.4152 115.911Z" fill="black"/>
<path d="M73.7868 128.816C77.2091 129.197 77.009 136.236 74.027 136.402C70.6897 136.587 70.1444 129.267 73.7868 128.816Z" fill="black"/>
<path d="M92.5898 127.609C96.0371 126.993 96.6075 134.338 93.6805 134.894C89.7879 135.634 89.7478 128.114 92.5898 127.609Z" fill="black"/>
<path d="M222.903 15.8341L372.814 15.7891C374.46 16.1143 374.88 17.3651 375.025 18.8561C375.441 23.0089 375.441 32.2852 374.995 36.423C374.675 39.3699 373.96 39.5551 371.078 39.8453L224.639 39.7952C222.453 39.425 221.222 39.5901 220.932 37.0434C220.261 31.1394 221.417 24.0246 220.947 17.9855C221.107 16.9748 221.952 16.1393 222.898 15.8291L222.903 15.8341ZM293.731 33.9613V22.0783L293.245 21.683L291.384 21.638V33.521L291.869 33.9163L293.731 33.9613ZM298.134 21.638L296.092 21.653C296.067 22.3885 295.822 23.089 295.772 23.8295C295.667 25.4206 296.077 26.8865 296.077 28.2424C296.077 29.3331 295.322 32.8406 295.912 33.6911L298.134 33.9663V21.643V21.638ZM232.97 22.6637C233 26.4262 232.945 30.1988 232.97 33.9613H235.026V26.6263C236.937 27.8722 238.834 32.6454 240.435 33.6911C241.135 34.1464 241.906 33.9413 242.656 33.9613V21.9332H240.31V29.2681C238.869 28.1223 236.407 22.9339 235.191 22.2034C234.621 21.8632 233.795 21.788 233.15 21.9682C232.424 22.1633 232.97 22.5986 232.97 22.6637ZM360.906 22.8538L358.89 22.8138V25.1654C356.433 24.7651 356.423 27.3218 358.89 26.9266C358.895 30.8792 357.799 35.3622 363.543 33.636C364.263 31.0943 361.616 32.3151 361.201 31.7448C360.656 30.1387 361.611 28.6477 360.941 26.9266L363.263 26.9015L363.097 25.1503L361.231 25.1654L360.896 22.8588L360.906 22.8538ZM252.638 30.1487C253.514 23.3691 243.947 23.3392 244.102 29.7085C244.212 34.3316 250.236 35.5073 252.633 32.055C250.757 30.2888 250.617 31.6848 249.426 32.0801C248.095 32.5204 246.439 31.6197 246.479 30.1487H252.643H252.638ZM271.126 25.1604V37.1885L273.347 36.9133L273.182 33.0807C273.977 33.1358 274.233 33.7962 275.103 33.9413C282.978 35.2322 280.497 20.8775 273.182 26.036L273.162 25.1804L271.126 25.1554V25.1604ZM304.588 25.1604V33.521C305.158 34.2064 306.409 34.1764 306.935 33.521V28.8279C306.935 27.6321 308.721 26.6013 309.872 26.9216V24.8701C309.311 24.8351 308.756 24.9252 308.235 25.1403C307.245 25.5506 306.79 26.9516 306.484 25.1403L304.588 25.1604ZM312.513 30.1487H318.532C319.543 30.1487 318.592 27.502 318.227 26.9366C315.15 22.2034 308.185 26.6214 310.992 31.8249C312.518 34.6568 317.086 34.8669 318.673 32.055C316.656 30.0687 316.591 31.8348 315.54 32.1501C313.914 32.6454 312.989 31.5346 312.518 30.1537L312.513 30.1487ZM328.659 37.1885V25.1604L326.618 25.1854L326.598 26.041C324.732 24.2648 321.569 24.765 320.469 27.1016C318.497 31.2944 321.91 35.7274 326.303 33.3759V37.1935H328.654L328.659 37.1885ZM348.322 30.1487C348.583 26.3061 345.471 23.7144 341.848 25.5857C337.65 27.7522 339.842 35.4373 345.981 33.8262C346.841 33.6011 348.648 32.4803 347.542 31.6597C345.926 30.4639 346.146 31.8599 344.875 32.145C343.309 32.4953 342.208 31.6497 341.858 30.1487H348.317H348.322ZM350.469 25.8409C350.224 26.061 349.859 26.7565 349.803 27.0867C349.238 30.6641 354.432 29.9086 354.176 31.4346C353.861 33.3109 350.839 31.1795 350.274 31.3446C349.879 31.4597 349.358 32.3902 349.618 32.7905C350.599 34.3115 355.632 34.6318 356.408 32.2152C357.534 28.7028 351.535 28.6477 351.845 27.3618C352.195 25.9158 355.272 27.9972 355.818 26.6263C356.768 24.8001 351.965 24.49 350.469 25.8359V25.8409ZM255.53 25.1954L253.218 25.3105L255.615 33.9213C258.432 34.7568 258.407 31.7148 259.062 29.6634C259.182 29.2881 258.847 28.8428 259.533 28.9729C260.413 31.0242 259.938 34.7969 263.175 33.9313L265.552 25.1604L263.345 25.4456C262.75 26.9866 262.865 29.2381 261.739 30.4389L260.228 25.2004H258.547L256.891 30.7391L255.53 25.2004V25.1954ZM283.454 25.1604H281.397V31.7648C281.397 31.8498 282.118 33.0557 282.293 33.2158C283.399 34.2465 286.116 34.3716 287.121 33.0857C287.076 34.4066 288.587 34.2114 289.323 33.526V25.1654L287.101 25.4406C286.281 26.6164 288.487 33.3909 284.535 32.1551C284.194 32.05 283.449 31.1043 283.449 30.8892V25.1654L283.454 25.1604ZM332.767 25.1604L330.901 25.2004L330.46 25.6407C330.455 29.163 329.36 34.6268 334.653 33.9363C335.249 33.8562 336.059 33.3408 336.419 33.3558C336.58 33.3658 336.555 33.8963 336.78 33.9563C337.27 34.0814 338.476 34.0413 338.606 33.4959L338.346 25.1554H336.289V30.8792C336.289 32.3452 332.767 32.6954 332.767 31.1744V25.1604Z" fill="#C4DEF8"/>
<path d="M57.7371 18.4108C65.2371 17.3701 64.8319 25.8758 57.4469 24.57C57.3368 24.2547 57.7371 23.9295 57.7371 23.8395V18.4108Z" fill="#C4DEF8"/>
<path d="M87.1808 24.3709C87.461 24.1107 88.3416 23.7556 88.7319 23.7055C93.8803 23.0301 94.0805 32.7615 88.1915 31.2455C85.7999 30.6301 85.6148 25.8169 87.1808 24.3709Z" fill="#C4DEF8"/>
<path d="M77.4049 26.0404H71.8262C72.6817 22.6982 76.9896 22.403 77.4049 26.0404Z" fill="#C4DEF8"/>
<path d="M146.307 23.7598C151.22 22.9043 151.515 30.8297 147.383 31.315C143.25 31.8003 142.419 24.4353 146.307 23.7598Z" fill="#C4DEF8"/>
<path d="M103.453 23.7592C108.957 22.8086 108.977 32.1849 103.403 31.3043C100.206 30.799 99.8104 24.3896 103.453 23.7592Z" fill="#C4DEF8"/>
<path d="M168.317 211.538C170.554 211.058 170.709 213.59 170.223 215.221C169.788 216.672 167.752 218.778 166.191 218.843C162.008 219.028 165.33 212.179 168.317 211.538Z" fill="white"/>
<path d="M82.9787 156.034C83.0637 156.429 82.6785 156.354 82.3933 156.469C77.9253 158.26 74.2278 155.618 71.8262 151.926L82.9787 156.034Z" fill="white"/>
<path d="M232.97 22.6632C232.97 22.5932 232.425 22.1628 233.15 21.9677C233.796 21.7926 234.621 21.8627 235.192 22.2029C236.402 22.9284 238.864 28.1219 240.31 29.2676V21.9327H242.657V33.9609C241.901 33.9358 241.131 34.146 240.435 33.6907C238.834 32.645 236.938 27.8717 235.027 26.6258V33.9609H232.97C232.945 30.1983 233 26.4307 232.97 22.6632Z" fill="black"/>
<path d="M255.53 25.1952L256.891 30.7339L258.547 25.2002H260.228L261.74 30.4387C262.865 29.2329 262.75 26.9814 263.346 25.4454L265.552 25.1602L263.175 33.9311C259.938 34.8017 260.419 31.024 259.533 28.9727C258.853 28.8426 259.183 29.2879 259.063 29.6632C258.407 31.7146 258.432 34.7566 255.615 33.9211L253.219 25.3103L255.53 25.1952Z" fill="black"/>
<path d="M271.125 25.1607L273.161 25.1857L273.181 26.0413C280.496 20.8778 282.973 35.2325 275.103 33.9466C274.227 33.8015 273.972 33.1411 273.181 33.0861L273.346 36.9186L271.125 37.1938V25.1657V25.1607ZM274.562 26.9768C272.966 27.4672 272.626 32.8308 275.903 32.1504C278.805 31.55 278.24 25.8511 274.562 26.9768Z" fill="black"/>
<path d="M328.66 37.1871H326.308V33.3745C321.915 35.7261 318.503 31.2931 320.474 27.1002C321.575 24.7637 324.737 24.2684 326.603 26.0396L326.623 25.184L328.665 25.159V37.1871H328.66ZM323.581 26.9802C321.445 27.6206 321.62 33.2094 325.223 32.1387C327.349 31.5032 327.129 25.9245 323.581 26.9802Z" fill="black"/>
<path d="M252.638 30.1486H246.474C246.439 31.6146 248.09 32.5153 249.421 32.08C250.612 31.6897 250.757 30.2887 252.628 32.0549C250.232 35.5072 244.208 34.3315 244.098 29.7084C243.942 23.3391 253.509 23.369 252.633 30.1486H252.638ZM250.287 28.6776C249.952 26.196 247.515 25.9558 246.479 28.2473C246.399 28.8427 246.504 28.6276 246.909 28.6827C247.95 28.8228 249.216 28.5826 250.287 28.6827V28.6776Z" fill="black"/>
<path d="M312.513 30.1491C312.978 31.53 313.904 32.6408 315.535 32.1454C316.586 31.8252 316.651 30.0641 318.667 32.0504C317.081 34.8623 312.513 34.6522 310.987 31.8203C308.18 26.6218 315.145 22.1988 318.222 26.932C318.592 27.5023 319.538 30.1441 318.527 30.1441H312.508L312.513 30.1491ZM316.626 28.6781C316.19 27.0871 315.075 25.9613 313.544 27.2122C313.108 27.5674 312.198 28.528 313.243 28.6781C314.289 28.8282 315.56 28.5731 316.626 28.6781Z" fill="black"/>
<path d="M348.322 30.1499H341.863C342.213 31.6509 343.314 32.5014 344.88 32.1462C346.146 31.861 345.931 30.4601 347.547 31.6609C348.653 32.4814 346.846 33.6022 345.986 33.8274C339.842 35.4385 337.655 27.7483 341.853 25.5869C345.476 23.7156 348.588 26.3073 348.327 30.1499H348.322ZM345.976 28.6789C346.311 28.3537 345.085 25.757 343.054 27.0829C342.549 27.4131 341.508 28.5288 342.594 28.6789C343.624 28.824 344.905 28.5738 345.976 28.6789Z" fill="black"/>
<path d="M332.767 25.1613V31.1753C332.767 32.6963 336.289 32.3511 336.289 30.8801V25.1562H338.346L338.606 33.4968C338.476 34.0422 337.27 34.0823 336.78 33.9572C336.555 33.9022 336.58 33.3667 336.419 33.3567C336.059 33.3367 335.249 33.8571 334.653 33.9372C329.36 34.6277 330.455 29.1589 330.46 25.6416L330.901 25.2013L332.767 25.1613Z" fill="black"/>
<path d="M283.454 25.1613V30.8851C283.454 31.1052 284.199 32.0459 284.539 32.1509C288.492 33.3868 286.286 26.6123 287.106 25.4365L289.328 25.1613V33.5219C288.592 34.2123 287.081 34.4025 287.126 33.0816C286.116 34.3675 283.404 34.2424 282.298 33.2117C282.123 33.0466 281.402 31.8457 281.402 31.7607V25.1562H283.459L283.454 25.1613Z" fill="black"/>
<path d="M350.469 25.8418C351.965 24.4958 356.769 24.806 355.818 26.6322C355.273 28.0031 352.196 25.9217 351.845 27.3677C351.535 28.6535 357.534 28.7087 356.408 32.221C355.633 34.6377 350.599 34.3224 349.619 32.7964C349.359 32.3911 349.879 31.4654 350.274 31.3503C350.84 31.1852 353.862 33.3168 354.177 31.4405C354.432 29.9145 349.244 30.67 349.804 27.0926C349.854 26.7624 350.224 26.0668 350.469 25.8466V25.8418Z" fill="black"/>
<path d="M360.905 22.8535L361.24 25.1602L363.107 25.1451L363.272 26.8963L360.95 26.9213C361.621 28.6375 360.665 30.1335 361.21 31.7395C361.621 32.3099 364.273 31.0891 363.552 33.6308C357.808 35.357 358.904 30.874 358.899 26.9213C356.432 27.3166 356.437 24.7599 358.899 25.1602V22.8086L360.91 22.8485L360.905 22.8535Z" fill="black"/>
<path d="M293.73 33.962L291.864 33.917L291.379 33.5217V21.6387L293.245 21.6837L293.73 22.079V33.962Z" fill="black"/>
<path d="M298.133 21.6378V33.9612L295.911 33.686C295.321 32.8404 296.076 29.333 296.076 28.2372C296.076 26.8813 295.666 25.4154 295.771 23.8244C295.821 23.0839 296.066 22.3883 296.091 21.6478L298.133 21.6328V21.6378Z" fill="black"/>
<path d="M304.588 25.1609L306.484 25.1408C306.789 26.9521 307.25 25.5461 308.235 25.1408C308.756 24.9257 309.311 24.8356 309.871 24.8706V26.9221C308.721 26.6018 306.939 27.6326 306.939 28.8284V33.5215C306.414 34.1769 305.158 34.2069 304.593 33.5215V25.1609H304.588Z" fill="black"/>
<path d="M274.563 26.9769C278.246 25.8511 278.806 31.55 275.904 32.1504C272.627 32.8309 272.967 27.4622 274.563 26.9769Z" fill="#C4DEF8"/>
<path d="M323.582 26.9813C327.124 25.9206 327.349 31.5043 325.223 32.1398C321.625 33.2155 321.45 27.6217 323.582 26.9813Z" fill="#C4DEF8"/>
<path d="M250.288 28.6791C249.217 28.584 247.946 28.8192 246.91 28.6791C246.505 28.624 246.4 28.8391 246.48 28.2437C247.516 25.9572 249.952 26.1924 250.288 28.6741V28.6791Z" fill="#C4DEF8"/>
<path d="M316.626 28.6784C315.56 28.5783 314.275 28.8285 313.244 28.6784C312.213 28.5283 313.104 27.5677 313.544 27.2124C315.075 25.9616 316.191 27.0823 316.626 28.6784Z" fill="#C4DEF8"/>
<path d="M345.976 28.6794C344.91 28.5793 343.624 28.8295 342.593 28.6794C341.508 28.5243 342.548 27.4136 343.054 27.0833C345.08 25.7524 346.306 28.3542 345.976 28.6794Z" fill="#C4DEF8"/>
</svg>
