<svg width="327" height="195" viewBox="0 0 327 195" fill="none" xmlns="http://www.w3.org/2000/svg">
<path d="M189.288 107.043L192.338 110.905L197.925 114.119L202.651 115.645L207.796 115.414L210.636 114.373L210.939 110.743L212.382 104.152L214.268 101.447L218.854 99.0651L222.649 94.7871L227.258 90.5786L228.771 85.4219L233.543 85.1213L234.149 89.0524L237.291 94.1628L241.808 95.6889L246.534 95.3884L251.05 93.9546L257.545 90.6479L262.364 85.8844L266.368 82.832L270.186 83.5026L281.104 88.8211L301.707 100.268L312.765 172.992V181.271L300.38 194.914L279.917 185.526H275.307L265.507 186.844L247.116 185.687L219.739 183.537L213.267 182.242L215.036 177.918L215.874 170.171L214.57 163.373L215.478 162.147L222.649 161.87L220.46 149.267L218.179 138.33L216.549 141.151L213.011 148.134L208.331 154.123L202.907 160.459L194.62 158.216L183.981 155.95L174.25 157.499L173.342 149.267L175.46 137.983L179.162 128.247L184.679 114.581L189.288 107.043Z" fill="#0F172A"/>
<path d="M268.509 82.3843C270.7 82.8424 272.867 83.5753 274.896 84.5143C277.087 85.545 281.767 89.1179 283.335 89.4615C288.247 90.5608 297.723 89.2096 303.372 89.576C326.43 91.0189 327.376 100.089 325.854 120.633C324.908 133.344 322.949 146.926 321.15 159.592C320.758 162.271 318.36 179.953 317.622 180.732C316.054 182.358 311.051 181.602 310.728 178.831C304.249 151.621 310.359 112.273 285.526 93.4925C281.721 90.6295 271.045 84.0105 266.572 83.5066C265.027 83.3463 261.799 87.9498 260.254 89.347C252 96.7677 234.153 102.035 232.331 86.5298L229.841 86.6214C228.781 89.9424 226.959 92.0954 224.561 94.4773C223.108 95.9203 220.595 98.7374 219.165 99.8825C216.583 101.921 214 101.6 212.617 105.173C212.225 106.204 211.095 111.586 211.187 112.457C211.303 113.579 212.825 114.266 213.147 115.64C214.139 119.9 211.28 133.253 209.896 137.879C209.435 139.437 208.997 141.292 207.821 142.483C207.775 135.795 210.98 128.878 211.626 122.145C211.856 119.877 211.626 117.541 211.695 115.274C206.737 118.251 199.682 115.755 195.001 113.121C193.387 112.205 191.012 110.922 190.435 109.158C190.113 108.929 189.144 109.365 188.821 109.617C186.746 111.128 178.353 132.039 177.223 135.703C175.24 142.139 173.788 148.575 175.01 155.332C179.644 154.187 183.772 154.164 188.475 155.057C191.012 155.538 201.065 159.271 202.379 158.699C207.06 154.255 217.182 141.887 217.413 135.589C217.551 132.245 216.422 128.466 216.837 124.779C216.929 124 216.952 123.198 217.874 122.992L223.016 160.256L257.557 157.53L258.594 156.523C261.223 146.125 262.86 135.406 265.673 125.053C266.388 122.442 267.08 118.663 269.039 116.854L260.277 157.416L265.465 157.141L265.396 158.905L215.338 162.546C217.459 168.249 217.92 174.8 214.807 180.251L216.099 181.029C233.876 181.739 253.107 186.091 270.861 184.625C284.742 183.48 288.777 167.402 292.443 156.271C294.357 150.453 295.786 141.956 298.115 136.757C298.392 136.162 298.853 135.497 299.522 135.337C297.562 147.041 293.827 160.37 288.915 171.25C286.84 175.876 284.304 181.075 279.877 183.847C279.761 184.694 280.545 184.854 281.076 185.221C285.664 188.29 293.665 190.099 298.323 193.237C298.992 193.672 299.729 193.809 299.522 194.863C299.153 195.184 295.602 193.855 294.887 193.58C290.668 191.909 280.983 186.297 277.432 185.725C275.288 185.381 269.016 187.236 265.65 187.19C258.041 187.099 249.071 186.274 241.393 185.633C234.13 185.015 220.088 184.236 213.632 182.404C211.072 181.671 212.732 181.144 212.202 179.976H207.037C207.337 184.419 205.308 185.198 201.457 185.999C192.787 187.832 176.947 189.733 168 190.237C164.98 190.42 161.636 190.58 159.008 188.931C147.917 179.838 131.799 172.578 121.308 163.233C114.575 157.233 122.092 156.729 127.257 155.904C132.422 155.08 148.977 152.721 153.428 153.385C157.878 154.049 163.389 157.324 167.7 158.676L173.396 156.294C170.767 142.964 177.339 130.321 182.204 118.366L144.781 122.42L145.104 131.604C145.703 132.222 159.031 133.551 161.821 134.764C167.032 137.032 163.02 139.414 159.561 140.284C153.474 141.842 144.366 142.758 138.048 143.033C134.267 143.193 122.277 143.399 119.463 141.429C114.483 137.925 128.364 133.596 129.447 131.924C130.67 130.046 129.724 126.267 130.024 124.023L105.998 126.588C97.2357 126.954 98.135 125.489 97.4894 117.358H92.3244L95.9905 150.98C96.152 153.545 94.9991 155.859 92.0938 155.355L42.727 140.467L41.1822 158.95C44.6869 158.744 48.2148 158.126 51.7657 158.447C56.1467 158.836 76.0917 166.119 79.8962 168.501C81.4411 169.486 82.1098 170.929 81.0261 172.601C79.5734 174.479 73.3017 173.7 70.9037 173.838C60.0204 174.456 44.8945 176.036 34.2648 174.8C30.5295 174.364 14.7349 166.921 14.389 163.21C14.1584 160.806 21.2833 159.615 23.0126 159.363L27.7856 135.635L11.0456 130.23L9.89273 127.641C8.14034 102.333 1.59191 75.4904 0.369848 50.3424C0.300675 48.6934 -0.0452105 46.0824 1.10768 44.9372C2.26057 43.792 8.37091 43.4943 10.4231 43.4027C30.3911 42.5324 50.4284 42.624 70.3964 42.4178C74.6391 42.372 82.7554 39.7381 83.8391 45.4411L91.8171 115.8H96.9821C95.5525 99.9742 93.9615 84.125 92.3244 68.3216C91.6557 61.817 89.9033 54.0986 89.7419 47.7773C89.6727 44.9601 89.9955 42.7385 93.1083 42.3949C101.271 41.5246 111.14 42.1659 119.486 41.914C134.059 41.4559 148.793 40.5169 163.365 40.3336C167.746 40.2878 177.661 39.6465 181.374 40.4711C182.826 40.7917 184.348 42.4178 184.717 43.815L190.574 97.5464L191.542 101.967C192.603 97.3174 196.407 93.4925 197.998 89.1179C199.981 83.6898 200.027 77.2081 201.618 71.6655C203.209 66.1229 206.437 64.1532 204.224 57.786C203.647 56.1141 201.249 54.7628 200.212 53.045C197.168 47.9376 198.805 42.8759 203.325 39.532C195.854 19.0105 209.596 4.21493 229.564 1.42071C246.558 -0.961241 260.923 5.52044 267.91 21.1864C272.475 31.4013 280.43 57.6944 279.346 68.3445C278.632 75.353 273.766 78.6969 268.509 82.453V82.3843ZM247.849 41.3185C246.166 33.0961 237.566 28.1948 232.354 22.0567C229.472 18.6441 227.443 14.6589 224.838 11.0402C216.191 16.6515 207.913 22.8354 205.976 33.6229C208.582 32.6152 213.77 32.4778 213.724 36.1881L205.515 35.2033L205.469 38.2265C208.997 36.5775 214.439 38.8678 216.537 41.8453C217.275 42.8759 217.897 45.6014 218.727 45.8763C222.186 47.0214 222.232 42.9904 224.054 41.0207C227.443 37.3562 234.13 37.2646 238.211 39.8527C239.341 40.5627 240.148 42.143 241.416 42.3491L247.849 41.3185ZM214.6 54.4879C220.572 48.556 213.839 36.4859 205.469 40.5398C204.109 41.6849 205.308 53.2283 205.7 55.7018C208.052 57.5112 212.686 56.366 214.577 54.4879H214.6ZM229.103 40.4024C218.358 42.2346 223.5 63.2371 236.228 56.2057C245.889 50.8692 240.356 38.4785 229.103 40.4024ZM189.398 106.96C189.813 106.479 189.075 97.5464 188.937 95.989C187.784 82.0637 186.1 67.2452 184.279 53.3886C183.679 48.8079 184.463 42.4636 178.86 41.8224C173.972 41.2727 168.623 42.2804 163.896 42.3491C143.397 42.7156 122.876 43.0133 102.424 43.8837C100.187 43.9753 92.9239 43.1966 91.8402 44.6624L98.5039 115.228L189.375 106.96H189.398ZM203.924 41.8224C202.794 40.5169 200.396 46.2885 200.35 47.2505C200.281 48.8079 201.595 53.5031 203.163 54.1444C204.823 54.8315 203.394 50.2737 203.417 49.7928C203.463 47.3879 204.431 44.4792 203.924 41.8453V41.8224ZM94.3074 153.156L81.4872 44.1127L2.39895 45.6472C1.33829 46.3572 2.28363 53.755 2.44504 55.427C4.42801 77.2998 7.54081 101.371 10.7689 123.13C10.9764 124.527 11.207 127.779 11.991 128.581L28.777 133.711C29.8608 128.351 31.0137 122.946 32.5355 117.678C34.7721 109.914 35.0488 105.059 44.8253 109.8L43.2804 138.773L92.1169 153.683L94.3074 153.133V153.156ZM248.311 43.4256L242.385 44.3646C243.261 50.0676 242.615 54.6941 237.174 57.6486C229.588 61.7712 221.61 56.2744 221.517 48.0063H218.428C218.912 55.198 210.127 60.5574 222.555 61.8628C222.739 62.9393 222.232 63.9929 221.171 64.3135C216.56 65.6877 212.11 61.2674 214.3 56.7325C211.349 57.9235 209.227 58.4044 206.046 57.7631C207.613 68.5735 211.971 77.1623 222.809 80.8727C230.648 83.5524 236.067 82.5905 243.238 78.8114C242.408 82.705 237.75 84.4227 234.43 85.7969C234.43 89.2095 235.513 92.3015 238.765 93.7902C246.881 97.4777 257.234 90.8586 262.353 84.7205C257.557 84.1479 251.446 89.2096 247.457 84.606C249.556 71.0242 250.455 57.076 248.357 43.4485L248.311 43.4256ZM207.014 76.2233C204.777 75.1239 207.59 72.1694 207.521 70.3829C207.498 69.4439 206.484 66.4435 205.469 65.9626C205.1 68.3216 203.763 70.2913 203.14 72.6275C201.78 77.7807 201.572 83.6898 199.797 88.8202C198.16 93.5612 189.813 104.624 191.888 108.952C193.225 111.769 206.553 116.808 209.112 113.968C210.726 112.182 210.058 104.83 212.986 101.371C214.277 99.8367 216.214 99.8367 217.897 98.5313C219.58 97.2258 219.88 95.5538 220.964 94.3857C221.932 93.355 223.546 92.9657 224.861 91.5915C231.271 84.8579 221.725 83.5524 217.021 80.8956C213.77 79.0633 210.934 76.7272 208.835 73.6123C207.821 73.3604 207.06 75.3759 207.037 76.1775L207.014 76.2233ZM186.354 109.09L99.0342 116.785L100.279 124.55L105.513 125.03L183.126 116.167L186.354 109.09ZM52.8033 159.912C49.2755 159.431 44.8253 160.256 41.1822 159.912C41.2283 160.829 40.698 169.349 39.107 167.608L43.2343 111.38L42.727 110.349L37.0317 109.846C35.9941 110.372 34.5415 115.709 34.0804 117.175C29.6994 131.718 27.2091 147.751 24.0271 162.638L23.3354 163.485L22.5514 160.92C20.361 161.401 17.3865 161.47 15.8417 163.233C15.8417 164.745 27.3244 170.7 29.2843 171.433C38.4613 174.96 51.6735 172.532 61.5422 172.189C66.4536 172.005 72.3794 172.761 77.0832 172.212C78.213 172.074 79.1584 171.845 79.8962 170.929C79.8732 169.898 63.0871 163.348 60.9196 162.592C58.7522 161.836 54.671 160.141 52.7802 159.89L52.8033 159.912ZM131.592 127.825V136.803H130.047C129.701 136.482 130.762 133.825 129.332 134.283L120.478 138.841C119.809 139.574 120.478 139.964 121.101 140.307C125.412 142.666 142.775 141.017 148.332 140.33C152.989 139.757 158.477 139.299 162.605 137.055C162.605 135.955 146.372 133.115 145.15 133.825C144.85 134.009 144.666 135.223 144.274 135.245C142.429 133.734 143.812 125.58 142.129 125.03C140.976 124.664 131.845 127.115 131.615 127.802L131.592 127.825ZM220.987 160.416L217.367 140.399C214.415 147.751 209.274 154.118 203.924 159.89C206.507 160.004 210.011 161.997 212.456 161.974C213.701 161.974 214.462 161.126 215.568 160.966C217.321 160.714 219.212 161.012 220.964 160.416H220.987ZM166.732 160.416C166.939 160.073 166.132 159.66 165.833 159.523C162.881 157.92 154.696 154.736 151.491 154.736C144.32 154.736 130.946 156.591 123.729 158.011C117.757 159.179 122.207 161.63 124.928 163.714C131.315 168.57 138.947 173.494 145.68 178.006C149.6 180.617 159.884 188.358 163.85 188.702C170.836 189.275 193.64 186.16 200.95 184.442C203.486 183.846 205.515 182.976 204.939 179.976C200.442 180.159 194.701 175.784 190.689 175.51C186.124 175.189 180.221 177.182 175.217 176.93C173.857 176.861 173.142 176.128 172.658 176.082C171.92 176.013 170.859 176.884 169.614 176.861C167.193 176.815 164.08 174.868 162.305 173.311C161.498 172.12 163.135 170.975 163.135 170.013C163.135 169.692 159.33 169.051 161.844 165.134C162.651 163.875 165.464 161.287 166.732 160.485V160.416ZM213.678 178.327C215.038 175.83 215.545 165.959 213.747 164.264C196.822 159.798 175.586 147.888 163.181 166.898L164.334 168.043C169.637 164.631 174.641 159.981 181.189 159.386C182.457 160.462 176.093 162.523 175.563 162.775C173.027 164.104 170.583 165.615 168.323 167.379C167.378 168.112 163.366 171.135 163.85 172.212C165.233 175.212 169.96 169.326 171.643 168.112C174.918 165.73 180.82 162.409 184.809 163.737C178.284 166.028 173.465 168.387 168.323 173.036C167.747 173.563 167.032 173.792 167.239 174.777C171.367 176.059 172.958 172.189 176.186 170.585C179.414 168.982 184.187 167.814 187.899 168.112V169.646C184.187 170.333 178.814 171.295 175.494 172.99C174.687 173.403 173.742 173.632 173.949 174.777C179.298 175.097 185.57 172.578 190.758 173.219C192.995 173.494 196.523 175.487 199.174 176.151C200.881 176.586 213.078 178.693 213.678 178.304V178.327Z" fill="black"/>
<path d="M220.987 160.416C219.235 161.011 217.321 160.714 215.592 160.966C214.485 161.126 213.747 161.973 212.479 161.973C210.035 162.019 206.53 160.027 203.947 159.889C209.297 154.095 214.416 147.75 217.39 140.398L221.01 160.416H220.987Z" fill="white"/>
<path d="M78.8819 46.4492L89.9958 150.133C88.9351 150.316 88.889 147.453 88.7737 146.743C84.4849 117.267 81.3491 85.156 78.3746 55.4273C78.1671 53.3889 77.6137 48.9686 77.8443 47.205C77.9365 46.495 78.0979 45.7163 78.8588 46.4492H78.8819Z" fill="black"/>
<path d="M120.752 79.3153L166.084 75.834L167.767 76.9792C167.144 77.9182 166.406 77.712 165.484 77.7808C151.903 78.7656 137.008 80.4605 123.611 80.8727C122.32 80.9185 120.66 81.033 120.775 79.2924L120.752 79.3153Z" fill="black"/>
<path d="M157.946 88.5464C158.107 90.058 156.17 90.3557 155.063 90.5389C145.61 92.1422 131.314 93.1041 121.514 93.6538C119.716 93.7683 117.894 93.608 116.096 93.6538V92.1193C130 91.0886 143.996 89.1189 157.946 88.5234V88.5464Z" fill="black"/>
<path d="M139.338 69.0298L107.311 69.8085C107.311 68.6404 108.21 68.6175 109.109 68.503C116.049 67.6784 123.843 68.2281 130.853 68.0449C131.498 68.0449 141.229 66.3958 139.361 69.0526L139.338 69.0298Z" fill="black"/>
<path d="M147.085 62.3669L127.463 63.3975V61.3591C133.112 62.2065 139.937 60.191 145.31 60.8094C146.278 60.924 147.27 61.0385 147.085 62.3669Z" fill="black"/>
<path d="M162.581 82.3849C162.765 83.8737 161.336 83.9424 160.298 84.1714C157.716 84.744 149.507 85.5227 146.833 85.5227C144.158 85.5227 143.604 83.8278 145.818 83.4385C149.438 82.7972 157.232 81.9727 160.806 81.9727C161.428 81.9727 161.981 82.362 162.604 82.4078L162.581 82.3849Z" fill="black"/>
<path d="M119.715 51.5781L118.424 53.1127L103.459 53.6394C101.938 53.6852 96.7035 54.9449 100.347 52.1049L119.715 51.601V51.5781Z" fill="black"/>
<path d="M118.564 62.0008C119.948 61.9321 121.723 61.2679 122.784 62.6192C122.784 64.0621 110.771 64.566 109.087 64.4286C108.165 64.3598 107.404 64.566 106.805 63.6269C106.805 62.3214 117.088 62.0695 118.564 61.9779V62.0008Z" fill="black"/>
<path d="M122.806 98.3026C122.876 99.1042 122.968 99.9745 121.953 100.272C120.547 100.685 114.321 101.165 112.638 101.188C111.877 101.188 111.162 100.868 110.401 100.868C110.125 99.608 110.886 99.7455 111.831 99.4935C113.122 99.15 122.391 97.9361 122.806 98.3026Z" fill="black"/>
<path d="M114.552 86.4836C114.875 86.0255 124.467 85.0865 125.666 85.1781C126.427 85.2468 126.981 85.6591 127.442 86.2317C126.819 87.2165 126.012 86.8959 125.113 87.0104C121.885 87.4226 118.495 87.1707 115.29 87.8578L114.529 86.4836H114.552Z" fill="black"/>
<path d="M116.097 57.2358C116.235 57.9229 115.912 58.4726 115.244 58.6787C114.39 58.9306 106.412 59.4345 105.513 59.2742C104.798 59.1368 104.153 58.839 104.222 57.9916C104.222 57.8771 106.435 57.2129 106.551 57.2129H116.12L116.097 57.2358Z" fill="black"/>
<path d="M117.135 75.1923C116.997 74.4823 117.319 73.9555 117.988 73.7494C118.726 73.5203 123.891 73.1539 125.113 73.131C126.404 73.0852 128.087 72.7874 129.01 73.9326C129.01 74.2303 126.981 75.2152 126.704 75.2152H117.135V75.1923Z" fill="black"/>
<path d="M121.629 56.3198C122.643 56.0907 128.362 55.6327 127.97 57.4878C127.716 58.7475 119.715 58.6101 119.715 57.4878C120.222 56.8923 120.868 56.4801 121.629 56.3198Z" fill="black"/>
<path d="M231.316 69.0305L231.086 70.588L230.463 70.9773C227.281 71.1148 224.422 72.2141 221.263 71.046C219.465 70.3818 218.635 68.5954 220.502 68.687C221.678 68.7557 223.269 69.4428 224.883 69.4428C226.843 69.4428 229.172 68.5725 231.293 69.0076L231.316 69.0305Z" fill="black"/>
<path d="M131.593 159.912C140.355 163.851 148.679 169.005 156.864 174.066C158.455 175.051 169.246 181.51 169.293 182.243C169.385 183.594 166.41 182.083 166.041 181.899C157.279 177.639 143.652 168.753 135.259 163.21C134.752 162.867 130.809 160.668 131.593 159.912Z" fill="black"/>
<path d="M124.35 160.416C128.477 161.012 132.143 163.76 135.671 165.844C145.056 171.364 154.14 177.571 163.087 183.777L161.173 184.144L124.35 160.416Z" fill="black"/>
<path d="M164.656 185.564C164.748 184.808 166.57 184.419 167.216 184.259C168.392 183.961 169.937 183.755 171.182 183.571C179.436 182.312 192.049 180.205 200.073 179.907C201.134 179.861 202.148 179.655 202.886 180.686L164.656 185.564Z" fill="black"/>
<path d="M161.567 172.21C160.667 172.393 160.068 171.935 159.307 171.638C153.727 169.416 145.426 164.606 140.031 161.514C138.578 160.69 136.595 159.751 135.719 158.354C139.8 159.247 143.72 161.491 147.432 163.392C151.144 165.293 157.093 168.225 160.344 170.584C160.99 171.042 161.774 171.111 161.544 172.21H161.567Z" fill="black"/>
<path d="M238.535 37.1957C233.9 36.2109 230.096 35.959 225.369 36.6919C224.908 36.6919 225.023 35.6383 225.115 35.4322C226.314 32.638 238.005 32.7067 238.535 37.2187V37.1957Z" fill="black"/>
<path d="M230.648 45.4853C234.061 44.5234 234.084 51.5089 232.539 52.0357C228.504 53.5015 228.181 46.1724 230.648 45.4853Z" fill="black"/>
<path d="M209.456 45.463C212.385 44.7301 212.292 51.5782 210.84 52.0363C207.312 53.1815 207.127 46.0356 209.456 45.463Z" fill="black"/>
</svg>
