<svg width="256" height="296" viewBox="0 0 256 296" fill="none" xmlns="http://www.w3.org/2000/svg">
<path d="M179.1 31.3193C209.134 27.546 233.778 55.0096 225.646 84.4543C213.087 129.918 139.372 120.685 144.094 67.7071C145.638 50.4254 161.869 33.4847 179.1 31.3193ZM184.177 47.9283V33.6505C184.177 32.7567 181.989 32.7844 181.214 32.8581C175.948 33.3787 169.904 42.736 167.162 46.8318C167.162 48.4121 179.054 48.1402 180.629 48.1771C182.025 48.2094 183.292 49.2875 184.177 47.9283ZM185.822 48.2001C189.853 48.2001 194.179 48.2001 198.174 47.6427C199.146 47.5091 203.348 47.0483 203.384 46.2789C199.095 39.7367 194.727 32.3375 185.822 32.8212V48.2001ZM173.737 34.4752C173.212 33.9777 166.573 37.4791 165.545 38.0873C164.518 38.6954 156.902 43.6897 157.814 44.9014C160.316 45.6017 162.772 47.3801 165.499 46.2789L173.737 34.4799V34.4752ZM207.641 39.5662C207.19 38.8751 198.445 34.5351 197.911 35.0235C197.851 36.0601 198.759 36.9032 199.335 37.7095C200.238 38.9765 205.633 46.5738 206.14 46.8272C206.849 47.1819 207.582 47.1359 208.337 47.099C208.655 46.7949 208.199 40.4093 207.641 39.557V39.5662ZM214.382 45.9979C214.916 45.27 210.539 40.7318 209.443 41.6164L210.521 46.8825L214.382 45.9979ZM146.006 71.8167H159.459C159.376 63.9476 161.344 56.4378 163.891 49.0847L155.967 46.09C149.434 52.5309 146.209 61.6716 145.407 70.6972L146.002 71.8167H146.006ZM224.771 66.2835C225.527 62.5654 218.989 48.1449 215.723 47.6427L211.115 48.2278C210.936 50.278 211.065 58.2116 210.042 59.5108C207.932 62.1922 200.966 56.5392 200.385 62.9571C199.892 68.4028 205.108 65.3021 206.881 65.3805C212.903 65.6523 210.12 71.4205 211.355 73.4707C211.852 74.3 216.34 75.825 217.335 75.0832C219.275 73.632 217.533 71.7614 217.63 69.8863C217.805 66.3756 222.339 66.993 224.776 66.2788L224.771 66.2835ZM185.822 50.3978V72.365H208.614C212 64.6801 204.214 69.034 200.786 67.555C197.192 66.007 197.119 59.4464 200.496 57.6541C203.32 56.1568 205.808 58.6769 208.83 58.0227C209.351 57.5804 209.977 51.0152 208.89 50.1121C205.9 46.6844 190.493 50.7848 185.817 50.3932L185.822 50.3978ZM184.177 50.3978L166.14 49.3888C162.624 56.0554 161.896 63.1183 161.136 70.4945L161.339 71.2915L183.55 72.2821C183.495 71.6831 184.177 70.734 184.177 70.4438V50.3978ZM225.365 78.6815C225.716 75.5854 225.112 71.9642 225.365 68.7944C225.365 67.4214 220.33 68.6746 219.56 69.6145C221.353 78.7644 216.851 78.1701 209.991 75.6592L209.438 82.2475C208.508 86.8731 208.793 87.2463 207.254 91.5817L205.011 97.2992C207.222 98.0133 212.875 100.911 214.677 99.8654C219.261 97.1933 224.785 83.8784 225.365 78.6815ZM159.187 73.4661H146.006C145.103 74.3645 145.619 77.221 145.799 78.617C146.729 85.9793 150.742 95.4932 156.884 99.718L163.859 97.0735C162.131 91.8074 160.542 86.4354 160.021 80.8699C159.888 79.4601 160.597 73.8946 159.192 73.4615L159.187 73.4661ZM184.177 74.0144C183.477 74.3138 182.551 73.4661 182.256 73.4661H161.661C161.016 78.6492 162.007 84.9427 163.468 90.0613C164.039 92.07 164.79 94.0005 165.578 95.9217C166.117 96.258 174.585 94.4934 176.225 94.346C178.805 94.111 182.196 95.1154 184.182 93.5167V74.019L184.177 74.0144ZM208.342 74.0144H185.826V93.5121C187.024 94.9265 189.176 94.1709 190.977 94.4059C193.548 94.7376 201.611 97.1702 203.168 96.0276C206.19 93.8069 209.051 78.0825 208.342 74.019V74.0144ZM184.177 95.9816C178.238 95.7143 172.318 96.3363 166.596 97.912C168.148 103.054 177.699 113.3 183.251 111.927C183.583 111.844 184.177 110.72 184.177 110.536V95.9816ZM185.822 95.9816V111.909C193.847 112.545 198.579 104.625 201.753 98.4603C196.478 97.502 191.267 95.6038 185.822 95.9816ZM172.092 109.706L164.96 98.967L158.367 100.93C157.506 102.105 163.417 106.035 164.453 106.643C165.49 107.251 171.484 110.264 172.097 109.706H172.092ZM212.184 101.478L203.394 99.5245L195.713 110.808C198.892 110.324 202.03 109.061 204.863 107.61C205.665 107.2 213.364 102.717 212.184 101.483V101.478Z" fill="black"/>
<path d="M241.836 30.0805C242.09 31.2461 241.242 31.329 240.56 31.822C237.966 33.6972 233.304 35.9731 230.318 37.5027C229.848 37.7423 225.269 40.479 225.375 38.59C226.974 37.1664 241.076 29.3894 241.836 30.0805Z" fill="black"/>
<path d="M255.571 56.9948C255.331 57.9531 254.313 58.2296 253.498 58.483C248.609 60.0172 242.007 60.1462 236.902 61.3763V59.7315L255.571 56.9902V56.9948Z" fill="black"/>
<path d="M236.899 111.903C235.599 113.106 225.703 103.896 225.92 102.854C225.998 102.467 227.076 101.592 227.573 102.288C230.107 105.057 233.406 107.075 235.802 109.986C236.313 110.604 237.133 110.871 236.899 111.908V111.903Z" fill="black"/>
<path d="M247.883 89.9366C247.058 90.6369 233.661 86.1356 233.619 85.2695C234.379 84.1684 234.757 84.4816 235.831 84.6844C237.319 84.97 240.138 85.9652 241.714 86.495C242.225 86.6655 249.39 88.6558 247.878 89.932L247.883 89.9366Z" fill="black"/>
<path d="M183.076 0.423259C183.749 -0.470541 184.071 0.432468 184.177 1.23873C184.942 7.24193 183.362 14.3601 184.679 20.4877L183.081 21.8468V0.427856L183.076 0.423259Z" fill="black"/>
<path d="M151.766 10.3099C153.637 16.1012 158.391 21.0263 160.008 26.7853C159.091 26.4444 158.469 25.523 157.917 24.7674C156.659 23.0535 150.9 12.7103 150.683 11.1254C150.536 10.0519 150.881 10.2639 151.771 10.3145L151.766 10.3099Z" fill="black"/>
<path d="M213.831 15.8024C214.342 16.3507 209.855 23.1555 209.122 23.994C208.574 24.6206 208.275 25.3486 207.247 25.132C206.837 24.7174 212.642 14.5354 213.831 15.8024Z" fill="black"/>
<path d="M184.177 50.3977V70.4436C184.177 70.7339 183.496 71.683 183.551 72.2819L161.339 71.2914L161.137 70.4943C161.897 63.1182 162.625 56.0553 166.14 49.3887L184.177 50.3977Z" fill="white"/>
<path d="M184.178 74.0138V93.5115C182.192 95.1102 178.801 94.1105 176.221 94.3408C174.581 94.4883 166.113 96.2528 165.574 95.9165C164.786 93.9953 164.035 92.0649 163.464 90.0561C162.003 84.9375 161.013 78.6441 161.658 73.4609H182.252C182.547 73.4609 183.473 74.3087 184.173 74.0092L184.178 74.0138Z" fill="white"/>
<path d="M208.344 74.0144C209.053 78.0779 206.192 93.8023 203.17 96.023C201.612 97.1656 193.55 94.7376 190.979 94.4013C189.182 94.1663 187.031 94.9219 185.828 93.5075V74.0098H208.344V74.0144Z" fill="white"/>
<path d="M185.822 50.3973C190.499 50.7935 205.901 46.6931 208.895 50.1162C209.983 51.0192 209.356 57.5799 208.835 58.0268C205.813 58.6764 203.325 56.1563 200.501 57.6582C197.124 59.4504 197.193 66.0111 200.791 67.5591C204.389 69.1072 212 64.6796 208.619 72.3691H185.827V50.4019L185.822 50.3973Z" fill="white"/>
<path d="M224.773 66.2827C222.34 66.9968 217.802 66.3794 217.627 69.8901C217.535 71.7653 219.276 73.6358 217.332 75.0871C216.337 75.8288 211.85 74.3038 211.352 73.4745C210.117 71.4243 212.9 65.6561 206.878 65.3843C205.105 65.3059 199.889 68.4066 200.382 62.9609C200.967 56.543 207.929 62.1961 210.039 59.5147C211.062 58.2154 210.933 50.2772 211.113 48.2316L215.72 47.6465C218.986 48.1487 225.524 62.5693 224.768 66.2873L224.773 66.2827Z" fill="white"/>
<path d="M159.188 73.4668C160.593 73.8999 159.888 79.4654 160.017 80.8752C160.538 86.4361 162.128 91.8081 163.855 97.0788L156.88 99.7233C150.743 95.4939 146.726 85.98 145.795 78.6223C145.62 77.2263 145.104 74.3652 146.002 73.4714H159.183L159.188 73.4668Z" fill="white"/>
<path d="M146.006 71.8165L145.412 70.697C146.214 61.6761 149.439 52.5307 155.972 46.0898L163.896 49.0845C161.344 56.4376 159.381 63.9474 159.464 71.8165H146.011H146.006Z" fill="white"/>
<path d="M225.366 78.6822C224.781 83.8792 219.257 97.194 214.678 99.8662C212.876 100.917 207.223 98.0141 205.012 97.3L207.255 91.5824C208.979 84.7085 207.956 88.1685 209.439 82.2482L209.992 75.6599C216.852 78.1708 221.354 78.7651 219.561 69.6152C220.335 68.6753 225.366 67.4222 225.366 68.7951C225.113 71.9649 225.717 75.5816 225.366 78.6822Z" fill="white"/>
<path d="M184.179 95.9819V110.536C184.179 110.725 183.584 111.845 183.253 111.927C177.701 113.3 168.15 103.054 166.598 97.9123C172.32 96.3366 178.24 95.7147 184.179 95.9819Z" fill="white"/>
<path d="M185.822 48.2002V32.8213C194.728 32.3376 199.096 39.7414 203.385 46.279C203.344 47.0438 199.146 47.5092 198.174 47.6428C194.184 48.1956 189.854 48.2002 185.822 48.2002Z" fill="white"/>
<path d="M184.179 47.9294C183.294 49.2885 182.027 48.2058 180.631 48.1782C179.051 48.1413 167.164 48.4131 167.164 46.8329C169.905 42.737 175.95 33.3798 181.216 32.8592C181.99 32.7808 184.179 32.7578 184.179 33.6516V47.9294Z" fill="white"/>
<path d="M185.822 95.9826C191.268 95.6049 196.479 97.503 201.754 98.4613C198.58 104.626 193.848 112.546 185.822 111.91V95.9826Z" fill="white"/>
<path d="M212.186 101.478C213.365 102.712 205.666 107.195 204.865 107.605C202.027 109.061 198.894 110.319 195.715 110.803L203.395 99.5195L212.186 101.473V101.478Z" fill="white"/>
<path d="M173.739 34.4749L165.501 46.274C162.769 47.3751 160.313 45.6013 157.816 44.8964C156.904 43.6847 164.497 38.7043 165.547 38.0824C166.597 37.4604 173.209 33.9727 173.739 34.4703V34.4749Z" fill="white"/>
<path d="M172.093 109.706C171.485 110.268 165.523 107.274 164.449 106.642C163.376 106.011 157.502 102.104 158.363 100.929L164.956 98.9668L172.088 109.706H172.093Z" fill="white"/>
<path d="M207.642 39.5659C208.204 40.4182 208.655 46.7992 208.338 47.1079C207.582 47.1447 206.849 47.1908 206.14 46.8361C205.633 46.5827 200.238 38.9808 199.335 37.7184C198.759 36.9121 197.847 36.069 197.911 35.0324C198.446 34.544 207.19 38.884 207.642 39.5751V39.5659Z" fill="white"/>
<path d="M214.382 45.9973L210.521 46.8818L209.443 41.6158C210.544 40.7312 214.921 45.2693 214.382 45.9973Z" fill="white"/>
<path d="M0.433037 154.743C6.0262 144.676 13.8953 137.047 23.8745 131.361C28.2929 128.846 34.8397 126.726 38.7052 124.16C40.3638 123.054 41.3359 121.497 43.3677 120.345C45.2382 119.286 47.2239 118.816 49.1728 118.005L50.8498 105.584C43.294 107.749 36.6043 98.2999 37.4013 91.4996C37.5672 90.099 38.9954 87.4223 38.9724 86.7174C38.9586 86.2198 37.0604 83.2711 36.6642 82.2668C33.4714 74.112 33.3516 63.3956 38.9954 56.2222C42.2988 52.0204 57.5118 43.5385 62.8101 41.903C72.7479 38.8392 82.4507 41.023 92.4576 38.5074C95.1159 37.8394 101.405 34.2458 99.0735 39.6224C98.1751 41.691 96.2954 42.4466 94.6137 43.6168C94.2451 43.8702 93.8259 43.5431 94.0562 44.5567L108.035 47.9522C108.878 49.0994 102.566 51.4168 102.11 52.4028C101.755 53.1676 104.575 53.9554 104.874 54.7156C105.874 56.0748 106.998 57.6735 107.496 59.2998C107.777 60.2213 108.827 64.294 107.03 64.0176L103.381 61.5159C105.501 67.0814 102.027 72.7667 102.17 78.4059C112.034 80.387 109.951 93.6281 103.367 98.1524C102.736 98.5901 101.396 98.779 101.326 98.862C101.115 99.1154 100.903 102.746 100.728 103.561C99.009 111.486 95.1159 120.087 87.3712 123.681C84.4963 125.017 81.4647 125.188 78.3871 125.708C82.2249 129.085 87.1639 130.666 91.4808 133.375C104.307 141.423 108.652 149.551 111.988 164.142C114.535 175.286 115.411 186.86 118.212 197.968C121.23 197.392 124.616 197.724 127.099 195.637C125.206 194.323 124.819 192.218 125.887 190.177C126.21 189.564 127.095 189.127 127.311 188.638C127.707 187.749 127.445 186.634 127.707 185.643C128.034 184.413 129.587 183.423 128.154 183.151C125.846 182.709 118.129 182.441 116.908 181.253C115.314 179.709 116.203 175.388 116.724 173.388C116.876 172.808 117.59 172.315 117.668 171.845C117.889 170.5 116.304 167.694 119.032 166.795C122.607 165.616 124.072 170.43 127.035 166.325C128.283 164.598 129.453 161.695 126.694 160.857C124.616 160.225 120.534 162.907 119.267 160.253C118.327 158.286 120.446 150.808 120.953 148.38C122.211 146.906 131.577 149.961 133.881 149.228C130.891 142.501 135.291 138.705 141.815 141.082C146.27 142.709 144.68 146.27 143.547 149.38C143.39 149.813 142.943 149.79 143.611 150.306C145.883 150.988 152.881 150.043 153.918 152.324C154.314 153.195 152.775 164.358 152.135 165.164C150.214 167.592 144.961 161.221 143.538 165.869C140.866 174.609 152.13 167.565 151.587 173.904C151.485 175.065 150.241 177.341 150.453 178.184C150.578 178.664 154.766 181.672 155.692 183.989C159.926 194.558 144.924 206.703 137.055 211.536C136.585 213.231 137.023 214.876 136.655 216.645C135.503 222.128 125.021 228.039 119.898 229.338C120.188 230.094 122.414 229.817 123.091 229.776C129.969 229.361 140.179 228.127 146.809 228.901C151.278 229.421 149.757 233.254 149.011 236.208C146.21 247.279 141.741 257.991 139.387 269.172H156.332V270.444L138.599 270.928C137.922 271.365 135.097 283.929 133.964 285.998C133.185 287.417 132.038 288.071 130.513 288.481L61.6445 295.023L21.0826 286.864C18.6454 286.546 17.8529 282.33 19.7327 281.073C20.3178 280.681 22.3265 280.349 23.142 280.243C30.7854 279.253 38.7006 279.202 46.39 278.493C52.0154 277.972 57.65 277.23 63.2801 276.742L65.2427 270.444L0.423828 270.868V269.172H10.592C9.00707 266.896 6.28421 265.657 5.92484 262.616C5.54705 259.4 9.1591 243.625 8.46802 242.907L0.423828 240.778V238.235C3.50605 239.949 7.02597 241.022 10.5873 241.197L6.97989 238.244C1.50191 231.236 7.86909 216.291 16.9499 215.558C13.453 210.684 6.38096 207.749 0.423828 208.145V206.45C3.7917 206.201 7.049 206.721 10.1727 207.929C8.34363 204.206 4.91586 200.912 0.423828 201.363V199.244C4.51043 199.364 7.61569 200.999 10.1589 204.128C10.9513 205.104 13.3931 210.034 14.1902 209.836C14.9872 209.638 20.5205 198.986 21.2623 197.41C27.5649 184.026 31.4672 168.196 23.8008 154.457C21.7783 150.836 20.069 150.177 17.5719 147.551C17.2632 147.224 16.4938 146.648 17.1664 146.261C28.1685 151.103 30.4536 165.353 29.6566 176.139C28.6707 189.44 20.2579 199.479 19.1199 212.642C18.5809 218.871 21.23 214.95 23.2848 213.84C24.5979 213.13 26.0123 212.743 27.5142 212.771C27.33 211.499 28.4034 209.808 28.3528 208.758C28.2652 206.989 25.1185 205.717 26.9061 201.778C27.5096 200.446 28.3942 200.511 29.0116 199.654C29.6704 198.746 29.8593 197.576 30.6978 196.678C33.9183 193.232 44.0449 194.079 48.4587 194.632C52.8724 195.185 57.9771 196.415 61.8518 198.815L63.9757 165.551L66.4821 147.717C62.9668 141.202 49.4676 131.923 48.325 124.842C48.0348 123.045 48.6199 121.327 48.5093 119.571C46.367 121.147 42.5246 122.022 41.1516 124.501C37.9864 130.205 44.4043 142.501 47.035 147.961L55.8164 141.668C56.747 141.35 59.7095 143.732 58.8848 144.57C57.7652 144.833 56.9636 143.589 55.9085 143.888C53.8905 144.46 49.2004 150.117 47.2285 150.076C46.1136 149.901 45.6436 148.823 45.1046 147.975C42.2481 143.492 39.4562 135.932 38.6683 130.679C38.4932 129.523 38.6867 128.417 38.5531 127.394C38.4794 126.832 38.7697 126.634 37.9173 126.763C35.2544 127.173 25.9248 132.398 23.1696 134.052C12.8495 140.262 5.63919 148.067 0.423828 158.972V154.734L0.433037 154.743ZM56.3554 86.0907H65.04C66.4867 85.6392 66.5742 84.2248 67.3667 83.3356C71.0202 79.2214 76.5811 76.8303 81.3588 80.7833C83.455 82.5156 83.4919 84.3999 84.9432 86.4685C86.6064 85.2246 88.5691 85.4089 90.2369 86.51C91.4117 82.2115 95.5812 78.6547 99.9857 78.0327C99.5711 74.6649 92.3838 77.1436 91.5177 75.9134C91.7664 73.8448 95.0468 73.2044 96.7699 73.3979C97.5716 73.49 100.138 75.0242 99.9719 73.6144C99.1518 66.7865 95.1481 60.7787 89.6195 56.8395C87.8411 61.2579 81.5845 62.2392 77.544 60.6589C76.9082 61.4237 80.6078 63.9761 81.1653 64.4783C82.0775 67.8923 76.6548 67.1597 74.4802 66.8971C71.7297 66.5654 68.735 65.3859 66.3392 64.0545C64.4687 66.5516 62.2342 69.1869 58.894 69.5601C59.6726 75.167 57.9265 80.7187 56.3554 86.0861V86.0907ZM100.414 80.1567C96.7422 79.8526 92.3101 83.9945 91.9277 87.5651C91.5776 90.85 95.4154 97.5627 98.9722 97.512L99.8337 96.9131L100.414 80.1567ZM74.8902 80.6727C63.0866 82.405 66.1964 101.769 77.3459 97.9774C85.7264 95.1255 83.8467 79.3596 74.8902 80.6727ZM104.082 95.2683C107.832 91.3246 108.845 81.7784 102.11 80.5805L101.686 96.6827C101.935 96.9638 103.824 95.5402 104.082 95.2683ZM55.9684 87.8185C55.6137 88.9979 54.6001 92.868 52.8309 92.4072C50.7669 91.8682 51.3382 85.9986 46.7954 85.2753C38.6453 83.9761 37.7607 94.2087 41.428 99.5392C44.2062 103.575 47.8781 105.248 52.536 103.045C52.8539 103.4 52.2504 111.306 52.1122 112.578C51.7851 115.651 50.0159 121.244 50.0666 123.612C50.1956 129.689 63.8329 139.769 66.9059 145.151L67.7813 145.418C70.4305 140.64 73.5265 135.734 73.227 130.025C70.154 127.86 67.3206 125.584 64.8327 122.737C63.492 121.202 58.0278 113.863 58.4701 112.172C59.0921 109.781 62.2573 115.125 62.8977 115.77C79.1703 132.227 98.1198 120.663 99.4513 99.8387L95.7886 98.8389C96.2078 102.147 89.9236 105.561 87.9056 103.474C87.1546 102.695 87.6522 102.801 88.3157 102.608C90.2046 102.046 92.4622 102.41 93.5771 100.235C95.3186 96.844 92.5912 94.9965 91.0109 92.3151C89.403 89.5922 89.9236 86.7864 85.2565 88.7353C83.8052 104.257 64.2706 104.008 65.2427 87.7908C62.1789 88.5095 59.0506 88.2607 55.9638 87.8231L55.9684 87.8185ZM83.4689 147.113V140.12C83.4689 139.29 82.6903 135.853 82.4138 134.821C81.4002 131.039 79.3178 127.556 75.4247 126.349C75.4615 131.334 74.4387 136.696 72.2641 141.198C69.2925 147.348 68.1407 147.394 67.0119 155.01C65.0999 167.915 64.031 183.796 63.5473 196.885C63.469 199 64.6254 202.322 65.3717 204.418C66.2793 206.97 67.9748 207.574 66.0444 210.826C65.4731 211.785 64.266 212.398 63.8099 213.254C62.1144 216.433 63.5381 226.841 63.5841 230.794C63.6993 241.441 63.5058 251.974 64.008 262.579C64.0587 263.694 63.6026 268.08 63.7592 268.325C64.2291 269.076 65.7633 268.937 66.0398 268.034C68.6843 259.142 70.8128 250.062 73.5265 241.197C74.1715 239.092 75.2911 234.25 76.5074 232.738C79.3132 229.255 91.9323 232.31 92.393 230.32C91.3702 206.551 97.5669 183.395 99.1564 159.829C99.6817 159.143 99.9212 159.838 100.004 160.456C100.308 162.824 100.147 167.288 99.9996 169.781C99.1933 183.607 95.549 197.82 94.4985 211.743C94.0655 217.456 93.3606 220.23 97.6591 224.685C105.625 232.941 118.507 229.242 127.085 223.999C129.559 222.487 131.872 220.575 133.895 218.521C132.25 218.516 130.601 219.751 128.905 219.917C126.187 220.179 122.451 217.184 120.838 215.061C116.903 209.877 117.608 204.809 121.188 199.668C116.466 199.668 112.315 202.409 108.689 205.164L108.251 203.888L112.715 200.092C109.039 199.52 106.086 202.188 102.552 202.63C102.464 201.571 103.805 201.05 104.542 200.598C105.279 200.147 109.039 198.396 109.541 198.396H116.53C110.785 179.608 113.278 153.743 97.2398 139.926C94.6874 137.728 89.6149 134.162 86.6064 132.762C86.1503 132.55 83.3906 131.205 83.6808 132.287C84.8649 136.683 85.708 142.386 85.1827 146.911C85.0722 147.846 84.8142 149.159 83.6808 149.265C81.9854 149.417 77.7191 143.709 76.277 143.059C76.0697 142.967 73.2777 144.676 73.743 143.096C74.3005 142.253 75.1943 140.479 76.406 140.801L83.4781 147.113H83.4689ZM150.826 164.068L152.347 153.024C151.845 152.338 143.989 152.352 142.363 151.564C139.916 150.38 144.69 146.579 142.736 143.557C141.69 141.939 136.383 141.377 135.189 143.123C132.789 146.63 139.691 151.49 130.711 150.923C129.154 150.827 122.861 149.094 122.211 150.062C121.893 150.532 120.575 158.899 120.939 159.433C123.072 160.414 124.515 158.332 127.131 159.175C132.734 160.976 128.873 170.596 123.971 169.993C122.262 169.781 120.898 167.661 119.106 168.781C120.193 172.706 117.774 175.95 118.396 179.778L131.577 181.769C132.241 181.635 132.255 179.534 133.024 178.677C133.849 177.761 135.001 177.89 135.572 177.41C136.198 176.885 136.139 175.554 136.825 174.849C139.073 172.531 146.62 176.553 149.135 177.627L149.808 172.946C149.089 171.969 144.777 173.379 142.566 171.278C140.801 169.606 141.188 165.22 142.98 163.63C146.145 160.824 150.085 164.713 150.831 164.068H150.826ZM123.856 199.387C121.819 201.193 119.797 205.998 119.926 208.716C120.018 210.624 122.46 214.803 124.151 215.572C125.183 216.042 130.301 213.172 131.623 212.453C140.87 207.399 165.675 189.91 148.993 179.677C147.366 178.677 138.949 174.641 137.737 176.401C137.438 176.839 137.756 177.83 138.092 178.295C138.875 179.378 145.763 182.838 147.643 184.418C148.168 184.86 150.66 187.049 149.979 187.795C145.86 186.067 140.603 180.571 136.424 179.497C134.3 178.954 133.402 180.741 134.199 182.598C134.872 184.165 137.668 184.837 139.101 185.759C142.017 187.634 145.371 189.767 147.021 192.877C146.353 193.407 138.617 187.261 137.138 186.45C135.107 185.339 130.439 182.455 129.417 185.653C128.394 188.85 132.08 188.749 134.176 189.836C135.825 190.688 143.229 195.669 143.197 197.332C143.183 198.083 142.639 197.806 142.137 197.558C140.608 196.802 138.857 194.664 137.235 193.554C135.517 192.375 127.597 187.795 127.09 191.849C126.565 196.033 136.613 197.009 136.848 201.354C131.342 198.903 128.592 194.029 125.196 202.202C123.823 202.874 125.279 199.198 124.984 198.815C124.63 198.949 124.123 199.147 123.86 199.382L123.856 199.387ZM40.6033 195.95C38.203 195.996 32.6743 196.411 31.4488 198.7C29.5967 202.17 33.5681 203.842 36.2173 204.763C42.3449 206.897 55.2082 208.615 61.1285 205.924C66.823 203.335 59.8477 199.58 56.8945 198.488C52.6881 196.931 45.077 195.858 40.6033 195.95ZM28.8227 201.783C27.3806 206.155 29.6428 207.514 33.2594 208.997C40.0689 211.789 52.2872 213.006 59.5298 211.951C61.7136 211.633 64.4549 211.412 64.8143 208.744C65.3533 204.727 62.7226 207.505 60.8244 208.164C54.6139 210.315 36.4522 208.564 31.1493 204.33C30.1726 203.547 29.7948 202.451 28.8227 201.787V201.783ZM61.861 213.655C51.1493 214.849 40.1242 213.858 30.0943 209.836C29.7902 211.706 28.8964 214.844 30.7762 216.143C34.4711 218.7 45.6943 218.037 49.3847 222.11C51.352 224.28 50.0159 225.768 50.0712 227.864C50.0988 228.956 50.9327 229.79 50.836 231.19C50.6747 233.489 48.3988 234.784 48.3066 235.148C47.9887 236.35 48.6383 237.802 47.9887 239.4C47.5556 240.474 45.9708 241.22 45.5745 242.073C44.994 243.312 45.639 244.229 44.2246 245.385C41.8243 247.352 35.0378 247.859 32.0017 247.56C30.2187 247.385 28.4679 246.39 26.7034 246.5C31.2553 251.071 48.2513 252.95 52.5683 248.647C53.135 248.085 53.4575 247.509 53.6095 246.726L61.861 213.665V213.655ZM42.5845 242.893C40.3407 242.985 38.0556 242.893 35.8072 242.893C34.0749 242.893 28.4541 240.99 26.5882 240.253C25.7727 239.93 24.2017 239.387 23.7363 238.659C28.984 239.437 40.8521 243.082 45.3303 239.705C46.3163 238.963 47.1778 237.47 45.9938 236.489C45.6482 236.203 38.4702 236.645 37.065 236.553C34.66 236.392 26.7587 235.056 25.0264 233.761C24.5242 233.388 24.022 233.029 24.1648 232.301C30.2417 233.54 36.6872 235.457 42.9622 234.789C46.4269 234.42 49.2465 233.416 48.7305 229.334C42.7964 230.168 31.6515 229.343 26.2795 226.579C25.6207 226.242 24.8467 226.053 25.0125 225.095C31.2138 225.984 38.9217 228.652 45.1553 228.081C49.9468 227.643 49.7763 224.072 45.8878 222.22C42.1882 220.46 30.3523 219.166 28.6292 217.023C28.1685 216.452 27.6156 214.517 27.2885 214.462C25.4134 214.71 23.5613 215.696 22.4601 217.249C21.6493 218.396 21.5387 219.649 20.8568 220.732C18.0649 225.141 14.7753 228.191 15.7889 234.102C16.2957 237.06 22.0363 242.068 24.7223 243.39C28.537 245.265 33.2825 245.818 37.4981 245.427C38.954 245.293 42.8885 244.69 43.2295 243.105C43.5013 241.838 42.6582 242.888 42.5891 242.888L42.5845 242.893ZM17.8022 240.769C13.301 236.655 12.3657 232.176 14.7615 226.5C16.222 223.04 19.8478 220.76 19.917 217.042C18.2952 217.783 16.6136 217.267 14.9089 217.751C10.85 218.908 7.15958 226.058 6.791 229.969C6.07228 237.631 10.8361 240.432 17.7976 240.769H17.8022ZM17.1664 268.744C31.9879 268.56 46.8231 268.882 61.6491 268.744L61.2252 222.971C58.8341 230.518 58.0785 239.921 55.3879 247.228C54.0794 250.785 51.5224 251.849 47.9841 252.531C38.2398 254.415 28.7858 250.67 20.0644 246.827L9.33418 248.831C9.69354 252.642 6.91999 259.46 7.83222 262.823C8.41734 264.984 13.536 268.735 15.5816 269.108C16.5122 269.278 16.9269 268.744 17.1618 268.744H17.1664ZM94.0562 223.823V230.605H102.953L98.5068 228.062L94.0562 223.823ZM147.012 236.111C147.071 234.305 149.311 231.181 146.403 231.006L80.2853 233.135C79.3408 233.148 77.4334 233.863 78.1752 234.835C81.1653 232.563 86.6064 233.72 90.481 233.582C108.933 232.923 127.431 231.752 145.984 231.425C148.338 231.467 146.979 233.264 146.703 234.733C146.62 235.171 146.265 236.212 147.016 236.106L147.012 236.111ZM135.996 272.554L138.115 264.081L135.673 271.172L135.996 272.554ZM49.5736 287.394C46.0998 287.315 21.7737 281.672 20.7647 282.731C20.691 283.74 20.6357 284.639 21.7875 284.887C28.0763 285.942 35.1023 288.38 41.3681 289.039C41.8381 289.089 42.8977 289.421 42.7964 288.67L22.1376 284.57L21.1931 283.16C22.2758 282.358 44.2615 287.385 47.7261 287.767C48.196 287.818 49.6473 288.182 49.5782 287.398L49.5736 287.394ZM130.066 286.122L62.7042 292.052C62.4738 290.577 63.234 289.269 63.4505 287.919C63.5242 287.468 63.8974 286.445 63.1372 286.546L61.8656 292.899L121.81 287.389L130.071 286.122H130.066Z" fill="black"/>
<path d="M0.433594 158.981C5.64896 148.076 12.8592 140.266 23.1794 134.061C25.9345 132.402 35.2641 127.182 37.9271 126.772C38.7794 126.638 38.4892 126.841 38.5629 127.403C38.6965 128.421 38.503 129.532 38.6781 130.688C39.4659 135.94 42.2579 143.501 45.1144 147.984C45.6534 148.827 46.1233 149.909 47.2383 150.084C49.2148 150.131 53.9049 144.473 55.9183 143.897C56.9733 143.598 57.775 144.841 58.8945 144.579C59.7192 143.74 56.7568 141.358 55.8261 141.676L47.0448 147.97C44.4141 142.51 37.9962 130.214 41.1614 124.51C42.5343 122.036 46.3767 121.16 48.5191 119.58C48.6297 121.335 48.0446 123.054 48.3348 124.851C49.4728 131.932 62.9719 141.211 66.4919 147.726L63.9855 165.56L61.8616 198.824C57.9869 196.419 53.0065 195.208 48.4684 194.641C43.9303 194.074 33.928 193.24 30.7076 196.686C29.8691 197.585 29.6756 198.75 29.0214 199.663C28.3994 200.524 27.5194 200.46 26.9159 201.787C25.1237 205.726 28.2704 206.997 28.3625 208.767C28.4178 209.822 27.3397 211.508 27.524 212.779C26.0221 212.752 24.6123 213.139 23.2946 213.848C21.2398 214.959 18.5952 218.879 19.1297 212.65C20.2631 199.483 28.6758 189.444 29.6664 176.147C30.468 165.362 28.1782 151.112 17.1762 146.27C16.5036 146.657 17.273 147.233 17.5816 147.56C20.0788 150.186 21.788 150.845 23.8106 154.466C31.477 168.205 27.5747 184.03 21.272 197.419C20.5303 198.99 15.0108 209.642 14.2 209.845C13.3891 210.047 10.9657 205.113 10.1686 204.136C7.62546 201.008 4.52019 199.372 0.433594 199.253V158.995V158.981Z" fill="#C4DEF8"/>
<path d="M0.433594 208.139C6.39072 207.743 13.4628 210.678 16.9597 215.552C7.87885 216.285 1.51169 231.231 6.98967 238.238L10.5971 241.191C7.03112 241.016 3.51582 239.943 0.433594 238.229V208.139Z" fill="#C4DEF8"/>
<path d="M0.433594 201.358C4.92563 200.906 8.34879 204.201 10.1825 207.923C7.05877 206.716 3.80147 206.196 0.433594 206.444V201.358Z" fill="#C4DEF8"/>
<path d="M125.408 134.397C123.768 134.733 123.381 132.904 122.796 131.72C121.911 129.928 116.668 117.397 117.364 116.604C118.198 116.438 118.373 116.991 118.719 117.576C120.594 120.778 123.847 128.836 125.003 132.476C125.206 133.107 125.51 133.701 125.408 134.397Z" fill="black"/>
<path d="M143.201 114.479C142.689 120.049 142.597 126.596 141.491 132.056C141.339 132.802 141.091 133.258 140.238 133.129C140.39 127.799 140.492 121.68 141.574 116.451C141.86 115.078 141.602 114.129 143.201 114.479Z" fill="black"/>
<path d="M156.336 136.94C155.774 136.327 158.409 133.134 158.888 132.503C159.732 131.397 165.601 124.514 166.283 124.652C166.582 124.712 167.26 125.546 166.721 125.929C163.657 129.08 161.21 133.3 157.815 136.092C157.336 136.484 157.133 137.12 156.331 136.935L156.336 136.94Z" fill="black"/>
<path d="M113.968 144.145C113.369 144.785 106.274 138.754 105.491 138.008C104.929 137.473 101.814 134.76 102.533 133.977C103.795 134.087 104.896 135.188 105.878 135.925C107.628 137.243 110.305 139.45 111.858 140.961C112.752 141.832 114.152 142.758 113.968 144.145Z" fill="black"/>
<path d="M175.82 142.455C175.788 142.953 176.041 143.363 175.557 143.755C175.101 144.123 172.065 145.22 171.148 145.616C169.135 146.491 165.868 147.998 163.869 148.514C161.869 149.03 161.754 147.952 163.523 146.888C164.809 146.118 175.248 141.87 175.82 142.451V142.455Z" fill="black"/>
<path d="M83.4684 147.112L76.3963 140.8C75.1846 140.478 74.2908 142.252 73.7333 143.095C73.268 144.675 76.06 142.966 76.2673 143.058C77.7094 143.708 81.971 149.416 83.6711 149.264C84.8045 149.163 85.0671 147.85 85.1731 146.91C85.6983 142.385 84.8552 136.677 83.6711 132.286C83.3762 131.199 86.1359 132.544 86.5967 132.761C89.6052 134.162 94.6777 137.727 97.2301 139.925C113.263 153.742 110.771 179.607 116.521 198.395H109.531C109.029 198.395 105.247 200.164 104.533 200.598C103.818 201.031 102.455 201.57 102.542 202.629C106.076 202.187 109.029 199.524 112.706 200.091L108.241 203.887L108.679 205.163C112.31 202.408 116.456 199.667 121.178 199.667C117.594 204.809 116.889 209.876 120.828 215.06C122.441 217.184 126.177 220.178 128.896 219.916C130.591 219.754 132.24 218.515 133.885 218.52C131.863 220.574 129.55 222.486 127.076 223.998C118.497 229.236 105.615 232.94 97.6494 224.684C93.3554 220.233 94.0604 217.46 94.4888 211.742C95.5393 197.819 99.1836 183.606 99.9898 169.78C100.137 167.283 100.299 162.818 99.9945 160.455C99.9161 159.838 99.6719 159.142 99.1467 159.828C97.5572 183.39 91.3605 206.545 92.3833 230.319C91.918 232.309 79.2988 229.25 76.4977 232.737C75.2814 234.249 74.1618 239.095 73.5168 241.196C70.8032 250.065 68.6746 259.141 66.0301 268.033C65.7537 268.936 64.2194 269.07 63.7495 268.324C63.5975 268.079 64.0536 263.693 63.9983 262.578C63.4961 251.973 63.6896 241.44 63.5744 230.793C63.533 226.84 62.1047 216.437 63.8002 213.254C64.2563 212.401 65.4634 211.784 66.0347 210.826C67.9697 207.577 66.2697 206.969 65.362 204.417C64.6157 202.316 63.4592 198.999 63.5376 196.884C64.0213 183.795 65.0902 167.914 67.0022 155.009C68.131 147.389 69.2828 147.347 72.2544 141.197C74.429 136.695 75.4518 131.333 75.415 126.348C79.3081 127.555 81.3905 131.038 82.4041 134.82C82.6805 135.852 83.4592 139.294 83.4592 140.119V147.112H83.4684ZM71.9227 165.656L72.2406 162.371C69.7988 159.579 67.0529 165.067 70.3194 166.011L71.9227 165.656ZM70.2319 189.397C70.9091 188.347 71.1763 186.099 69.914 185.458L68.518 185.315C66.136 185.974 67.5551 190.982 70.2319 189.397ZM69.8541 215.401C68.9557 215.166 67.6011 215.285 67.1542 216.188C65.9702 221.966 72.1439 220.538 69.8541 215.401ZM67.6656 241.256C65.7122 241.804 66.1453 246.103 68.7622 245.37C70.7479 244.818 70.0982 240.57 67.6656 241.256Z" fill="#C4DEF8"/>
<path d="M55.9694 87.8169C59.0609 88.2546 62.1846 88.5034 65.2484 87.7847C64.2762 104.002 83.8108 104.251 85.2621 88.7292C89.9292 86.7803 89.4086 89.5861 91.0165 92.309C92.5968 94.9904 95.3243 96.8379 93.5827 100.229C92.4678 102.399 90.2102 102.039 88.3213 102.602C87.6578 102.8 87.1603 102.694 87.9113 103.468C89.9292 105.559 96.2135 102.145 95.7942 98.8328L99.4569 99.8326C98.1254 120.657 79.176 132.221 62.9033 115.764C62.2629 115.119 59.1023 109.775 58.4758 112.166C58.0335 113.857 63.4976 121.196 64.8383 122.73C67.3262 125.578 70.1596 127.854 73.2327 130.019C73.5321 135.727 70.4361 140.639 67.7869 145.412L66.9116 145.145C63.8386 139.763 50.2012 129.678 50.0722 123.606C50.0215 121.238 51.7907 115.645 52.1178 112.572C52.256 111.3 52.8596 103.399 52.5417 103.039C47.8838 105.241 44.2072 103.569 41.4337 99.5331C37.7663 94.2025 38.6509 83.9699 46.8011 85.2692C51.3438 85.9925 50.7679 91.8667 52.8365 92.4011C54.6057 92.8618 55.6193 88.9918 55.974 87.8123L55.9694 87.8169ZM42.3735 91.5949C44.0137 91.1434 46.9623 92.3873 47.2756 94.115C47.4092 94.8614 45.0089 97.2387 48.2892 97.787C50.8969 98.2246 48.902 93.6543 48.0634 92.4702C46.7135 90.5675 43.8617 89.024 42.3735 91.5902V91.5949ZM74.1495 106.43C72.1684 108.103 78.7521 110.968 80.0698 111.309C81.7099 111.738 90.5558 112.811 90.6618 110.452C90.6986 109.581 89.3764 110.097 89.0677 110.111C86.1329 110.24 83.8062 110.411 80.9175 109.609C79.6183 109.25 74.4352 106.181 74.1495 106.425V106.43Z" fill="#FCF7ED"/>
<path d="M17.1671 268.743C16.9322 268.743 16.5175 269.278 15.5869 269.107C13.5413 268.734 8.42264 264.984 7.83752 262.823C6.92529 259.46 9.69884 252.641 9.33948 248.831L20.0697 246.827C28.7957 250.669 38.2451 254.415 47.9894 252.531C51.5323 251.844 54.0847 250.784 55.3932 247.228C58.0838 239.925 58.8394 230.517 61.2305 222.971L61.6544 268.743C46.8284 268.882 31.9931 268.559 17.1717 268.743H17.1671Z" fill="#C4DEF8"/>
<path d="M150.826 164.067C150.08 164.712 146.14 160.819 142.975 163.629C141.183 165.219 140.796 169.609 142.561 171.277C144.772 173.374 149.084 171.968 149.803 172.945L149.131 177.626C146.615 176.553 139.064 172.526 136.82 174.848C136.134 175.553 136.193 176.884 135.567 177.409C134.996 177.889 133.844 177.76 133.019 178.676C132.25 179.533 132.236 181.639 131.572 181.768L118.391 179.778C117.769 175.944 120.183 172.706 119.101 168.78C120.893 167.661 122.257 169.78 123.966 169.992C128.873 170.595 132.733 160.976 127.126 159.174C124.51 158.331 123.068 160.413 120.934 159.432C120.57 158.902 121.888 150.531 122.206 150.061C122.856 149.098 129.149 150.826 130.706 150.923C139.686 151.489 132.784 146.629 135.185 143.123C136.382 141.376 141.685 141.939 142.731 143.556C144.685 146.578 139.912 150.379 142.358 151.563C143.989 152.351 151.844 152.337 152.342 153.023L150.821 164.067H150.826Z" fill="white"/>
<path d="M56.3555 86.0903C57.9219 80.7229 59.6727 75.1712 58.894 69.5643C62.2343 69.1911 64.4688 66.5557 66.3393 64.0586C68.7305 65.3901 71.7297 66.5696 74.4802 66.9013C76.6549 67.1639 82.0776 67.8919 81.1653 64.4825C80.6078 63.9803 76.9083 61.4279 77.5441 60.6631C81.5846 62.2434 87.8412 61.2621 89.6195 56.8438C95.1528 60.7829 99.1519 66.7907 99.972 73.6186C100.142 75.0284 97.5762 73.4942 96.77 73.4021C95.0469 73.2086 91.7711 73.8444 91.5177 75.9176C92.3885 77.1478 99.5757 74.6691 99.9858 78.0369C95.5813 78.6589 91.4072 82.2157 90.2369 86.5142C88.5691 85.4131 86.6018 85.2242 84.9432 86.4727C83.492 84.4041 83.4505 82.5197 81.3588 80.7874C76.5811 76.8344 71.0202 79.2256 67.3667 83.3398C66.5743 84.229 66.4821 85.6434 65.0401 86.095H56.3555V86.0903ZM78.765 75.8808C78.9262 75.6366 78.8663 74.8165 78.7419 74.5078C77.5809 71.6191 66.1919 74.3189 65.2797 77.7697L66.3024 78.7649C68.4402 77.9218 70.9281 76.816 73.1948 76.4521C74.2868 76.277 78.3411 76.5166 78.765 75.8808Z" fill="#FCF7ED"/>
<path d="M123.856 199.386C124.124 199.151 124.63 198.948 124.981 198.819C125.271 199.202 123.82 202.878 125.193 202.206C128.593 194.032 131.343 198.907 136.844 201.358C136.609 197.013 126.561 196.037 127.086 191.853C127.593 187.803 135.513 192.383 137.231 193.558C138.853 194.668 140.604 196.806 142.133 197.562C142.635 197.81 143.174 198.087 143.193 197.336C143.225 195.673 135.821 190.692 134.172 189.84C132.076 188.753 128.353 188.974 129.413 185.657C130.472 182.339 135.103 185.343 137.134 186.454C138.613 187.26 146.349 193.406 147.017 192.881C145.368 189.775 142.013 187.638 139.097 185.763C137.664 184.841 134.868 184.168 134.195 182.602C133.398 180.745 134.301 178.953 136.42 179.501C140.599 180.575 145.856 186.067 149.975 187.799C150.657 187.048 148.164 184.859 147.639 184.422C145.759 182.842 138.871 179.382 138.088 178.299C137.747 177.829 137.434 176.838 137.733 176.405C138.95 174.645 147.362 178.686 148.989 179.681C165.672 189.914 140.866 207.403 131.62 212.457C130.302 213.175 125.179 216.046 124.147 215.576C122.456 214.806 120.009 210.628 119.922 208.72C119.793 206.002 121.815 201.197 123.852 199.391L123.856 199.386Z" fill="#FCF7ED"/>
<path d="M42.5837 242.891C42.6528 242.891 43.5005 241.841 43.2241 243.108C42.8831 244.693 38.944 245.292 37.4927 245.43C33.2725 245.822 28.527 245.269 24.7169 243.394C22.0309 242.071 16.2903 237.063 15.7835 234.105C14.7699 228.19 18.0595 225.144 20.8514 220.735C21.5379 219.653 21.6439 218.404 22.4548 217.252C23.5513 215.7 25.4034 214.714 27.2831 214.465C27.6102 214.516 28.1631 216.451 28.6238 217.026C30.3423 219.164 42.1828 220.459 45.8824 222.223C49.7709 224.076 49.9414 227.646 45.1499 228.084C38.9163 228.655 31.2084 225.983 25.0071 225.098C24.8459 226.057 25.6153 226.241 26.2741 226.582C31.6507 229.346 42.7956 230.171 48.7251 229.337C49.2411 233.419 46.4215 234.423 42.9569 234.792C36.6818 235.46 30.2317 233.543 24.1594 232.304C24.0166 233.032 24.5234 233.391 25.021 233.764C26.7533 235.059 34.6546 236.395 37.0596 236.556C38.4694 236.649 45.6475 236.206 45.9884 236.492C47.1771 237.473 46.3109 238.966 45.325 239.708C40.8467 243.089 28.9832 239.441 23.7309 238.662C24.1963 239.39 25.7673 239.929 26.5828 240.256C28.4487 240.998 34.0695 242.896 35.8019 242.896C38.0502 242.896 40.3353 242.988 42.5791 242.896L42.5837 242.891Z" fill="#FCF7ED"/>
<path d="M61.8608 213.655L53.6093 246.716C53.4526 247.504 53.1301 248.075 52.568 248.637C48.2511 252.945 31.2551 251.061 26.7031 246.49C28.4677 246.38 30.2184 247.375 32.0014 247.55C35.0376 247.85 41.824 247.343 44.2244 245.375C45.6388 244.219 44.9938 243.302 45.5743 242.063C45.9705 241.215 47.5554 240.464 47.9884 239.391C48.6335 237.792 47.9884 236.345 48.3063 235.138C48.4031 234.779 50.6745 233.48 50.8357 231.181C50.9325 229.78 50.0986 228.946 50.0709 227.854C50.0156 225.758 51.3517 224.27 49.3844 222.1C45.6941 218.027 34.4709 218.69 30.7759 216.133C28.8962 214.834 29.7853 211.697 30.094 209.826C40.1239 213.844 51.149 214.834 61.8608 213.646V213.655Z" fill="white"/>
<path d="M74.8899 80.6713C83.8463 79.3582 85.7215 95.1241 77.3455 97.976C66.2007 101.768 63.0908 82.4036 74.8899 80.6713ZM75.2907 87.8585C73.3557 88.4344 73.7934 93.12 76.0325 92.8896C78.8751 92.0695 78.548 86.891 75.2907 87.8585Z" fill="#FCF7ED"/>
<path d="M17.8029 240.768C10.8414 240.432 6.0775 237.631 6.79623 229.969C7.1648 226.057 10.8552 218.907 14.9141 217.751C16.6142 217.267 18.2958 217.783 19.9222 217.041C19.8577 220.759 16.2272 223.04 14.7667 226.5C12.371 232.176 13.3062 236.654 17.8075 240.768H17.8029Z" fill="#C4DEF8"/>
<path d="M40.6029 195.949C45.0765 195.857 52.683 196.935 56.894 198.487C59.8472 199.579 66.8272 203.339 61.1281 205.923C55.2032 208.614 42.3444 206.896 36.2168 204.762C33.5723 203.841 29.6009 202.169 31.4484 198.699C32.6693 196.41 38.2025 195.995 40.6029 195.949ZM35.4705 197.635C33.4525 198.087 32.9641 199.51 34.526 200.943C37.5069 203.684 49.1078 205.361 53.1714 205.163C55.6731 205.039 63.04 203.486 58.1932 200.574C54.337 198.257 39.7506 196.672 35.4705 197.635Z" fill="white"/>
<path d="M28.8226 201.782C29.7947 202.445 30.1725 203.542 31.1492 204.325C36.4521 208.564 54.6138 210.31 60.8243 208.158C62.7224 207.499 65.3532 204.721 64.8141 208.739C64.4548 211.406 61.7135 211.628 59.5296 211.945C52.2871 213.001 40.0734 211.784 33.2593 208.992C29.6472 207.513 27.3805 206.15 28.8226 201.777V201.782Z" fill="white"/>
<path d="M100.415 80.1564L99.8346 96.9129L98.973 97.5118C95.4116 97.5625 91.5784 90.8498 91.9286 87.5648C92.3064 83.9942 96.7431 79.8524 100.415 80.1564ZM94.9601 91.9647C98.2082 92.7986 99.4844 88.4402 97.167 86.5697C93.7622 86.026 93.7162 89.6888 94.9601 91.9647Z" fill="#FCF7ED"/>
<path d="M104.081 95.2679C103.823 95.5397 101.939 96.9633 101.686 96.6823L102.109 80.5801C108.845 81.778 107.832 91.3241 104.081 95.2679Z" fill="#FCF7ED"/>
<path d="M147.011 236.11C146.255 236.216 146.615 235.179 146.698 234.737C146.974 233.267 148.333 231.47 145.979 231.429C127.426 231.756 108.932 232.931 90.4757 233.585C86.601 233.723 81.1599 232.562 78.1698 234.838C77.4327 233.866 79.3355 233.148 80.2799 233.138L146.398 231.01C149.305 231.185 147.066 234.304 147.006 236.115L147.011 236.11Z" fill="white"/>
<path d="M130.067 286.121L121.806 287.388L61.8613 292.898L63.1329 286.545C63.8931 286.444 63.5199 287.466 63.4462 287.918C63.2297 289.268 62.4695 290.576 62.6998 292.051L130.062 286.121H130.067Z" fill="white"/>
<path d="M49.5742 287.393C49.6433 288.177 48.192 287.813 47.7221 287.762C44.2574 287.379 22.2764 282.353 21.1891 283.155L22.1336 284.564L42.7923 288.665C42.8937 289.416 41.834 289.084 41.3641 289.033C35.1029 288.375 28.0769 285.937 21.7834 284.882C20.627 284.634 20.6869 283.74 20.7606 282.726C21.7696 281.667 46.0957 287.31 49.5696 287.389L49.5742 287.393Z" fill="white"/>
<path d="M135.996 272.553L135.674 271.175L138.116 264.08L135.996 272.553Z" fill="white"/>
<path d="M69.8543 215.401C72.144 220.538 65.9704 221.967 67.1544 216.189C67.6013 215.286 68.9605 215.166 69.8543 215.401Z" fill="black"/>
<path d="M71.9232 165.657L70.3199 166.012C67.0534 165.068 69.7947 159.585 72.2411 162.372L71.9232 165.657Z" fill="black"/>
<path d="M70.2321 189.396C67.5553 190.981 66.1362 185.973 68.5182 185.314L69.9142 185.457C71.1766 186.098 70.9093 188.346 70.2321 189.396Z" fill="black"/>
<path d="M67.6666 241.256C70.0992 240.57 70.7489 244.818 68.7631 245.371C66.1462 246.099 65.7132 241.805 67.6666 241.256Z" fill="black"/>
<path d="M74.1481 106.431C74.4337 106.192 79.6169 109.256 80.9161 109.615C83.8048 110.417 86.1315 110.246 89.0663 110.117C89.3749 110.103 90.6972 109.587 90.6603 110.458C90.5544 112.817 81.7085 111.743 80.0684 111.315C78.7507 110.969 72.167 108.108 74.1481 106.436V106.431Z" fill="black"/>
<path d="M42.373 91.5952C43.8658 89.029 46.713 90.5724 48.063 92.4752C48.9015 93.6592 50.8964 98.2296 48.2887 97.7919C45.0084 97.2436 47.4087 94.8663 47.2751 94.1199C46.9618 92.3876 44.0086 91.1483 42.373 91.5998V91.5952Z" fill="black"/>
<path d="M78.7646 75.8798C78.3453 76.5202 74.2864 76.276 73.1945 76.4511C70.9231 76.8151 68.4398 77.9208 66.3021 78.7639L65.2793 77.7688C66.1915 74.318 77.5805 71.6181 78.7416 74.5069C78.866 74.8156 78.9258 75.6356 78.7646 75.8798Z" fill="black"/>
<path d="M75.2919 87.8582C78.5492 86.8907 78.8763 92.0692 76.0337 92.8893C73.7945 93.1151 73.3615 88.4341 75.2919 87.8582Z" fill="black"/>
<path d="M35.4714 197.634C39.7515 196.671 54.338 198.256 58.1942 200.574C63.0364 203.49 55.6741 205.043 53.1724 205.162C49.1088 205.361 37.5124 203.684 34.527 200.942C32.9651 199.509 33.4535 198.086 35.4714 197.634ZM46.3998 199.238C43.101 198.92 39.3691 199.473 36.0197 199.238C35.8216 200.224 36.1257 199.919 36.5634 200.191C37.9547 201.071 44.8471 203.052 46.3998 203.052H56.144C56.2039 203.052 57.0931 202.619 57.1991 202.417C56.683 201.338 47.9432 199.385 46.3998 199.238Z" fill="black"/>
<path d="M94.9591 91.9642C93.7151 89.6882 93.7612 86.0301 97.1659 86.5691C99.4834 88.4351 98.2072 92.7981 94.9591 91.9642Z" fill="black"/>
<path d="M46.399 199.238C47.947 199.386 56.6823 201.339 57.1983 202.417C57.0877 202.615 56.2032 203.053 56.1433 203.053H46.399C44.8464 203.053 37.954 201.072 36.5626 200.192C36.1249 199.915 35.8255 200.219 36.019 199.238C39.3684 199.473 43.1003 198.92 46.399 199.238Z" fill="white"/>
<path d="M204.454 48.2004C206.633 50.9555 208.158 58.1243 208.158 58.1243L209.983 58.0276C209.983 58.0276 209.665 56.1708 209.49 55.5673C208.84 53.319 206.136 46.832 206.136 46.832C206.136 46.832 204.04 47.6844 204.45 48.2004H204.454Z" fill="black"/>
<path d="M77.8435 234.88L63.1373 286.541L62.1145 291.636C61.9901 292.263 62.5015 292.834 63.1373 292.779L129.223 286.914C130.711 286.78 131.974 285.757 132.407 284.325L147.007 236.101L147.251 232.954C147.56 231.973 146.809 230.982 145.781 231.014L80.2761 233.125C79.1566 233.069 78.1476 233.793 77.8389 234.871L77.8435 234.88Z" fill="white"/>
</svg>
