<svg width="39" height="39" viewBox="0 0 39 39" fill="none" xmlns="http://www.w3.org/2000/svg">
<path fill-rule="evenodd" clip-rule="evenodd" d="M6.88688 5.50992C5.0332 7.36202 5.0332 10.345 5.0332 16.3093V22.6358C5.0332 28.6002 5.0332 31.5831 6.88688 33.4352C8.74055 35.2873 11.7219 35.2889 17.6863 35.2889H20.8495C26.8139 35.2889 29.7968 35.2889 31.6489 33.4352C33.501 31.5816 33.5026 28.6002 33.5026 22.6358V16.3093C33.5026 10.345 33.5026 7.36202 31.6489 5.50992C29.7952 3.65783 26.8139 3.65625 20.8495 3.65625H17.6863C11.7219 3.65625 8.73897 3.65625 6.88688 5.50992ZM12.9414 15.1231C12.6268 15.1231 12.325 15.2481 12.1026 15.4705C11.8801 15.693 11.7551 15.9947 11.7551 16.3093C11.7551 16.6239 11.8801 16.9256 12.1026 17.1481C12.325 17.3706 12.6268 17.4955 12.9414 17.4955H25.5944C25.909 17.4955 26.2108 17.3706 26.4332 17.1481C26.6557 16.9256 26.7807 16.6239 26.7807 16.3093C26.7807 15.9947 26.6557 15.693 26.4332 15.4705C26.2108 15.2481 25.909 15.1231 25.5944 15.1231H12.9414ZM12.9414 21.4496C12.6268 21.4496 12.325 21.5746 12.1026 21.7971C11.8801 22.0195 11.7551 22.3212 11.7551 22.6358C11.7551 22.9504 11.8801 23.2522 12.1026 23.4746C12.325 23.6971 12.6268 23.8221 12.9414 23.8221H20.8495C21.1641 23.8221 21.4659 23.6971 21.6883 23.4746C21.9108 23.2522 22.0358 22.9504 22.0358 22.6358C22.0358 22.3212 21.9108 22.0195 21.6883 21.7971C21.4659 21.5746 21.1641 21.4496 20.8495 21.4496H12.9414Z" fill="white"/>
</svg>
