<svg width="257" height="237" viewBox="0 0 257 237" fill="none" xmlns="http://www.w3.org/2000/svg">
<path d="M170.913 32.7925C171.766 32.5845 172.296 31.9497 173.24 31.795C175.29 31.4563 177.286 32.3498 177.038 34.6622C181.202 34.1394 181.831 37.4973 181.601 40.8899C181.767 41.37 183.422 41.5967 184.086 42.4022C187.249 46.2481 183.339 54.0415 182.113 58.1008C185.128 58.9516 183.64 62.8056 182.902 64.9206C179.775 73.8582 170.764 80.606 163.993 86.7724C174.426 91.3838 187.564 97.4302 188.499 110.483C189.086 118.66 188.089 128.379 187.423 136.613C186.492 148.124 184.944 159.598 184.227 171.133C190.283 171.461 196.728 170.347 202.744 170.856C203.535 170.923 205.476 171.019 204.871 172.203C204.266 173.387 200.206 172.467 199.017 172.451C194.004 172.387 188.995 173 183.958 172.728C183.305 186.189 173.381 197.775 159.097 195.615C148.177 193.964 142.76 184.658 140.809 174.606L71.8543 174.862L77.0013 177.572L90.2086 183.007C90.8936 183.378 90.8029 183.834 90.4938 184.453C92.7514 184.389 95.0357 184.544 97.296 184.466C107.353 184.117 115.226 182.677 124.843 186.989C125.48 187.275 126.714 188.304 127.173 188.4C128.055 188.582 132.373 187.709 133.757 187.643C134.588 187.603 138.541 187.528 138.965 187.781L152.281 235.214C152.111 236.112 151.57 236.104 150.826 236.176C143.107 236.947 132.997 236.083 124.971 236.15C124.278 236.155 123.625 236.435 122.866 236.44C101.697 236.6 80.5117 236.406 59.3454 236.294L58.8789 235.558L63.6048 205.246C53.5534 201.57 43.5846 197.514 33.8664 193.03C29.7376 191.126 24.8838 188.987 20.9923 186.725C14.4833 182.938 15.131 179.703 16.469 172.728C12.2523 172.864 8.03022 172.883 3.81083 172.982C2.89658 173.003 1.44391 173.723 0.734902 172.883C0.105857 172.136 0.849516 171.371 1.67847 171.381L17.1434 170.867C22.5143 154.592 30.4253 139.293 38.435 124.211C42.8463 115.903 47.2656 107.347 52.2046 99.3452C57.3303 91.0451 61.9575 85.5481 71.4492 82.3583C79.4322 79.6778 88.1268 77.9495 96.3071 75.9225C96.6616 73.154 96.7602 70.4256 97.2373 67.6598C98.2928 61.5441 100.596 55.2603 102.741 49.446C103.384 47.7044 105.268 44.1358 105.554 42.6742C105.636 42.2528 104.754 41.2046 104.634 40.3645C103.981 35.7957 107.382 26.1141 109.824 22.1507C111.457 19.497 113.531 17.4619 116.73 19.3903L116.999 19.2249C119.03 16.3444 120.624 13.1812 122.991 10.5408C130.545 2.12067 143.195 -1.71731 154.075 1.80062C165.854 5.60927 174.335 20.7185 170.916 32.7872L170.913 32.7925ZM141.561 2.4834C124.222 4.30771 114.371 25.8607 108.478 39.9991C104.789 48.8459 97.2213 67.1877 98.2395 76.3519C98.3622 77.4508 99.1085 81.4034 99.503 82.2836C100.001 83.3958 102.278 85.6762 103.275 86.5056C111.119 93.0481 126.155 89.3355 133.495 83.4331C135.932 81.4728 136.217 78.5016 138.291 75.9705C142.824 70.4336 149.112 67.5211 153.71 61.5521C159.937 53.4654 170.476 36.2358 169.847 26.0021C168.919 10.9302 156.442 0.917805 141.564 2.4834H141.561ZM106.737 39.9911C108.795 33.3473 112.316 27.2023 115.786 21.1986C114.184 19.865 113.049 20.7905 111.956 22.1561C109.72 24.9459 106.297 34.7155 106.209 38.2575C106.204 38.5268 106.358 39.9057 106.737 39.9884V39.9911ZM175.135 33.9021C173.32 32.9846 172.067 34.3955 171.073 35.753C167.568 40.5459 164.966 47.307 161.808 52.5986C155.866 62.5496 149.12 69.2627 140.284 76.632C133.911 84.628 134.929 96.2513 136.033 105.824L154.672 101.823L152.942 93.8349C151.956 94.6857 150.184 94.6777 150.805 93.0214C154.097 91.2184 157.378 89.3781 160.456 87.2231C166.797 82.7877 180.335 70.663 181.772 62.9817C181.948 62.0428 181.889 60.912 181.703 59.9811C180.25 61.5094 179.394 63.5364 178.216 65.286C177.241 66.7343 174.567 70.9537 173.485 71.8792C172.709 72.5433 171.283 72.978 171.438 71.5858C171.483 71.191 174.49 67.8918 175.02 67.153C178.355 62.5042 184.126 51.0996 183.438 45.448C183.283 44.1785 182.601 43.0876 181.202 43.1676C179.386 49.3367 176.969 55.3137 173.89 60.96C173.035 62.5309 170.486 67.161 169.466 68.2572C168.714 69.0627 167.832 69.4254 167.453 68.1159C171.633 61.8081 175.716 54.5376 178.112 47.3257C178.877 45.0186 180.703 39.4523 179.552 37.348C178.835 36.0384 177.257 36.2651 176.574 37.524C175.759 39.0309 175.079 42.5142 174.386 44.3945C171.851 51.281 168.423 57.9221 164.574 64.1579C164.18 64.798 163.186 66.6303 162.256 65.8701C162.05 65.7021 161.864 65.4594 161.866 65.182C161.866 64.8273 164.652 60.9626 165.11 60.1598C168.551 54.1455 171.995 46.5842 173.922 39.9271C174.226 38.8816 175.583 34.5955 175.143 33.8967L175.135 33.9021ZM96.6189 77.5735L92.8687 78.547C89.0278 87.0391 83.5609 94.643 79.051 102.772L86.5142 110.774C86.6555 112.235 82.3935 113.809 81.218 114.401C81.4872 130.412 84.5898 146.292 84.3712 162.334C84.8963 162.228 84.827 161.788 84.899 161.398C89.8114 135.303 92.8953 108.856 97.6558 82.7317L96.6163 77.5735H96.6189ZM91.0268 78.9097C84.9283 80.4833 78.6432 81.8942 72.6566 83.8412C58.1059 88.5673 52.1433 102.639 45.1812 115.247C36.1933 131.527 23.3699 154.288 18.4654 171.933C16.7116 178.244 15.824 181.575 21.8799 185.306C26.8616 188.376 33.5092 191.158 38.9201 193.569C48.1745 197.695 57.6955 201.648 67.3257 204.718C67.6935 202.707 68.5945 200.578 69.4101 198.671C72.0569 192.489 75.3434 185.8 79.5708 180.594L40.3701 162.868L39.9489 161.977C40.2315 161.3 40.8925 161.132 41.5642 161.321L53.7426 166.602C56.8558 153.65 60.5448 140.854 63.682 127.905C64.9508 122.674 65.8864 115.825 67.507 110.942C67.9414 109.632 69.2288 109.8 69.1782 110.99C65.2227 129.94 59.9318 148.543 55.1553 167.282L68.056 173.203L82.2149 173.24C82.772 170.912 83.3637 168.89 83.3157 166.458C83.0438 152.749 81.0981 139.088 80.1118 125.422C79.8293 121.501 79.5041 117.468 79.7147 113.566L84.3686 110.635L77.4331 103.85L77.1772 102.794L91.0242 78.915L91.0268 78.9097ZM134.431 85.0387C125.563 90.8024 113.425 94.619 103.626 88.8207L99.0205 84.5053C98.7406 87.4391 97.6105 90.7597 97.6851 93.6935C97.9437 103.634 104.269 112.646 114.136 114.814C120.912 116.303 126.512 114.772 132.837 112.486C132.483 110.107 131.347 106.693 134.452 105.928C133.343 99.0118 133.303 91.9492 134.431 85.0361V85.0387ZM135.247 119.167C135.822 126.843 136.497 134.551 137.366 142.206C138.208 149.636 139.106 157.462 140.338 164.82C142.683 178.847 146.532 195.417 164.401 194.06C174.621 193.284 180.469 184.554 182.022 175.182C184.03 163.068 184.829 148.473 185.826 136.077C186.466 128.118 187.532 118.364 186.89 110.494C185.874 98.0889 172.504 92.5067 162.679 88.0952L154.656 92.9467L156.309 101.524C158.503 101.828 163.666 99.6465 164.724 102.298C166.31 117.951 168.402 133.586 171.976 148.879C174.285 150.973 176.324 153.746 177.537 156.64C177.846 157.376 179.301 160.881 178.211 161.246C176.644 161.769 176.873 159.451 176.596 158.651C175.751 156.235 174.098 153.162 172.254 151.407C172.227 153.125 174.311 160.828 173.717 161.804C173.493 162.169 172.48 162.649 172.307 161.878C170.049 145.889 165.819 130.225 164.526 114.092L135.252 119.167H135.247ZM132.832 113.825C121.309 120.082 104.215 117.396 98.7033 104.41L96.6216 98.6357L84.1047 173.264L140.29 172.998C136.422 153.498 135.055 133.575 132.832 113.828V113.825ZM163.188 102.631C162.405 101.81 143.421 105.629 140.82 106.224C139.868 106.442 134.769 107.536 134.428 107.821C133.61 108.507 134.729 116.06 134.988 117.532L164.228 112.462L163.188 102.628V102.631ZM88.8972 184.194L80.9515 181.031C75.6366 188.419 71.4891 196.86 68.6584 205.512L78.2434 208.446C80.517 199.845 84.8937 192.054 88.8972 184.194ZM109.176 190.625C116.501 190.974 124.11 193.401 129.993 197.829C131.152 198.701 134.146 201.872 135.161 202C135.681 202.067 136.267 201.832 136.518 201.336C137.062 199.773 135.129 197.482 134.156 196.324C123.596 183.775 111.809 185.437 97.0294 186.066C94.6119 186.171 92.165 185.917 89.7501 186.112C86.9807 191.499 83.9688 196.826 81.9777 202.568C85.664 204.502 89.1637 205.945 93.3245 206.545C100.809 207.625 105.953 207.865 113.267 210.572C115.552 211.417 121.421 214.626 123.412 214.095C124.476 213.813 125.24 212.94 124.867 211.836C119.811 207.9 114.078 205.211 107.814 203.771C106.94 203.571 103.365 203.237 103 202.992C102.606 202.731 102.619 201.947 103 201.634C104.349 200.709 113.896 203.798 115.791 204.582C119.662 206.182 126.68 211.767 129.846 212.127C132.584 212.439 131.395 209.735 130.31 208.441C126.984 204.47 118.614 200.413 113.664 198.983C112.193 198.557 106.884 197.772 106.215 197.378C105.719 197.087 105.724 196.391 105.975 195.946C115.688 196.671 125.001 201.098 132.037 207.78C136.867 209.286 136.001 206.23 133.903 203.512C131.805 200.794 126.539 197.223 123.348 195.687C118.969 193.58 114.16 192.87 109.41 192.046L108.925 191.478L109.181 190.622L109.176 190.625ZM138.149 189.267L129.375 189.523C129.201 190.147 129.537 189.974 129.716 190.131C132.291 192.428 134.452 193.967 136.515 196.9C138.227 199.335 140.02 202.525 135.766 203.384C135.604 203.56 136.923 205.416 137.038 205.974C137.582 208.636 135.34 210.543 132.84 209.783C133.767 214.402 129.519 214.117 126.451 212.711C126.053 216.41 122.41 216.072 119.654 215.117C114.829 213.442 110.94 211.167 105.681 209.913C98.5514 208.212 91.1148 208.836 84.4592 205.56L78.6592 210.201L64.9401 205.782L60.6781 235.101L150.413 234.568L138.152 189.27L138.149 189.267ZM82.5054 204.451L81.1993 204.198L80.3811 206.846C80.7995 206.577 82.7853 204.84 82.5081 204.451H82.5054Z" fill="black"/>
<path d="M254.39 149.935C257.055 149.857 256.463 153.645 256.402 155.549C256.096 165.247 254.718 175.632 253.998 185.394C253.489 192.297 253.545 199.946 252.665 206.715C252.513 207.891 252.207 208.587 251.311 209.355C249.363 211.03 243.917 213.743 241.393 215.154C235.745 218.309 229.932 221.347 224.177 224.31C219.011 226.969 212.198 230.922 206.956 232.927C205.7 233.408 204.687 233.933 203.41 233.09C202.646 232.583 202.749 231.85 201.998 231.306C198.733 228.929 190.246 225.374 186.186 223.411C180.656 220.736 174.626 218.397 169.221 215.607C167.683 214.812 165.271 213.61 167.091 211.684L204.807 192.398L206.484 191.942L208.933 170.672L210.077 169.149C222.978 163.526 235.78 157.6 248.758 152.162C249.946 151.663 253.398 149.969 254.392 149.94L254.39 149.935ZM211.204 170.41C210.66 171.178 210.269 171.944 210.082 172.885C209.213 177.243 208.952 183.442 208.464 188.056C207.366 198.434 206.564 208.851 205.532 219.237C205.375 220.829 203.944 230.852 204.319 231.383C204.637 231.834 205.775 231.669 206.26 231.423C221.021 224.067 235.732 216.591 249.986 208.294L251.053 206.696C251.863 194.62 252.599 182.538 253.468 170.466C253.825 165.516 254.624 160.489 254.792 155.536C254.816 154.829 254.966 152.09 254.547 151.786L253.457 151.794L211.204 170.413V170.41ZM206.329 193.521L168.256 213.111L202.598 229.77C202.707 228.671 203.549 225.334 202.869 224.569L185.906 216.493C185.197 216.095 184.622 215.618 184.75 214.724L185.467 213.818L205.266 203.25L206.326 193.521H206.329ZM205.263 205.248L186.893 214.975L197.477 220.125C198.733 220.243 202.414 217.285 203.24 217.522C203.512 217.6 203.664 217.901 203.688 218.181C203.805 219.493 200.932 220.315 200.017 220.912C199.761 221.08 199.54 220.883 199.674 221.507L203.4 223.11L204.463 213.796L199.039 211.409C198.522 211.022 199.084 209.761 199.759 209.828L204.463 212.183L205.266 205.256L205.263 205.248Z" fill="black"/>
<path d="M23.5854 200.773C27.5143 201.374 31.5391 201.814 35.4227 202.667C38.8291 203.417 40.423 204.057 38.5172 207.727C35.7852 212.989 31.1233 220.217 27.7622 225.215C26.1949 227.543 25.4112 229.725 22.2234 229.469C19.374 229.24 12.4465 227.554 9.53319 226.714C8.17115 226.322 6.88374 225.436 7.19826 223.839L22.6125 201.139L23.5854 200.776V200.773ZM23.8466 202.35L8.87749 223.649L8.77088 224.255L9.29597 224.823L22.7431 227.911L24.1878 227.498L37.7683 205.641L36.5022 204.521L23.8466 202.35Z" fill="black"/>
<path d="M91.0264 78.9096L77.1794 102.788L77.4353 103.845L84.3708 110.63L79.7169 113.561C79.5064 117.463 79.8315 121.493 80.1141 125.416C81.1003 139.082 83.0461 152.743 83.3179 166.452C83.3659 168.885 82.7742 170.907 82.2171 173.235L68.0583 173.198L55.1575 167.277C59.9313 148.54 65.2249 129.934 69.1804 110.984C69.2337 109.795 67.9463 109.627 67.5092 110.936C65.8886 115.82 64.953 122.669 63.6843 127.899C60.5444 140.848 56.8581 153.645 53.7448 166.596L41.5664 161.316C40.8947 161.126 40.2337 161.294 39.9512 161.972L40.3723 162.863L79.573 180.588C75.3483 185.794 72.0591 192.484 69.4123 198.666C68.5967 200.57 67.6958 202.701 67.3279 204.712C57.6977 201.642 48.1767 197.687 38.9223 193.564C33.5114 191.153 26.8638 188.368 21.8821 185.301C15.8262 181.57 16.7138 178.238 18.4677 171.928C23.3721 154.282 36.1955 131.524 45.1834 115.241C52.1429 102.634 58.1055 88.5619 72.6588 83.8358C78.6481 81.8915 84.9332 80.4779 91.0291 78.9043L91.0264 78.9096Z" fill="#FCF7ED"/>
<path d="M135.248 119.167L164.522 114.091C165.815 130.225 170.045 145.889 172.303 161.878C172.476 162.649 173.489 162.169 173.713 161.803C174.307 160.827 172.223 153.124 172.249 151.407C174.096 153.162 175.749 156.234 176.591 158.651C176.871 159.451 176.642 161.769 178.207 161.246C179.297 160.883 177.841 157.376 177.532 156.64C176.319 153.746 174.28 150.975 171.972 148.878C168.398 133.585 166.305 117.95 164.719 102.297C163.661 99.646 158.498 101.83 156.305 101.524L154.652 92.9462L162.675 88.0947C172.502 92.5061 185.87 98.0884 186.885 110.493C187.53 118.364 186.464 128.115 185.822 136.076C184.825 148.473 184.025 163.067 182.018 175.181C180.467 184.554 174.616 193.286 164.397 194.059C146.525 195.414 142.676 178.846 140.333 164.82C139.102 157.461 138.206 149.636 137.361 142.205C136.492 134.551 135.818 126.84 135.242 119.167H135.248Z" fill="#FCF7ED"/>
<path d="M141.562 2.48312C156.441 0.917519 168.917 10.9299 169.845 26.0018C170.477 36.2382 159.938 53.4651 153.708 61.5518C149.111 67.5208 142.823 70.436 138.289 75.9703C136.215 78.5014 135.93 81.4725 133.494 83.4328C126.153 89.3378 111.117 93.0505 103.273 86.5054C102.276 85.6759 100.002 83.3955 99.5013 82.2833C99.1068 81.4032 98.3605 77.4505 98.2379 76.3516C97.2197 67.1874 104.79 48.8456 108.476 39.9988C114.372 25.8577 124.223 4.30743 141.559 2.48312H141.562ZM147.938 5.15824C145.989 3.50729 145.792 7.57998 148.14 7.22526C149.278 7.05456 148.479 5.61698 147.938 5.15824ZM151.915 5.9077C151.608 6.00905 151.467 6.23309 151.456 6.54781C153.474 10.7565 154.783 4.9502 151.915 5.9077ZM158.066 9.27894C158.973 8.30277 157.816 6.5318 156.803 7.06256C155.369 7.81202 157.115 10.3084 158.066 9.27894ZM160.327 11.9407C161.054 12.6528 162.63 12.3408 161.99 10.9459C161.201 9.22293 159.282 10.9192 160.327 11.9407ZM158.866 10.7352C158.373 10.3591 157.861 10.5138 157.453 10.9379C156.867 11.9087 158.072 13.3703 159.077 12.5542L158.866 10.7352ZM162.291 13.8931C160.993 14.7172 162.664 16.9176 163.741 16.1548C164.498 15.6187 163.523 13.4903 162.291 13.8931ZM131.942 21.697C129.917 19.4647 124.386 19.0086 121.654 19.8727C120.334 20.2888 117.714 21.721 118.708 23.3533C119.271 23.7507 121.449 22.5985 122.387 22.4732C126.014 21.9824 129.117 23.7934 132.571 24.0041C132.665 23.0999 132.561 22.3798 131.942 21.6997V21.697ZM136.538 26.1591C135.389 25.3777 134.347 28.4609 133.744 29.309C130.86 33.371 126.99 37.4117 123.943 41.6204C122.259 43.9461 116.6 51.4834 116.12 53.7771C115.457 56.9644 118.748 58.7033 121.315 59.6501C123.192 60.3436 130.197 61.4851 131.113 59.4421C132.009 57.4498 129.218 58.5806 128.685 58.626C125.764 58.8793 117.586 58.3486 118.199 54.0039C118.554 51.4994 127.454 39.8068 129.533 37.0863C131.02 35.1393 136.466 29.4344 136.786 27.53C136.839 27.218 136.711 26.2765 136.538 26.1565V26.1591ZM145.011 26.4392C144.395 26.6019 143.132 28.3942 143.604 29.0796C143.734 29.269 146.083 30.0105 146.65 30.2985C148.623 31.3067 150.582 32.8376 152.003 34.5366C152.578 35.2247 154.431 38.3825 154.671 38.5292C154.988 38.7213 155.454 38.7639 155.758 38.5452C157.032 33.2803 151.835 28.2128 147.159 26.8579C146.594 26.6952 145.536 26.3005 145.014 26.4392H145.011ZM121.049 30.7039C117.864 31.2827 118.668 37.8331 122.323 34.934C124.114 33.5124 123.189 30.3145 121.049 30.7039ZM144.214 40.5722C142.082 41.0177 141.847 45.053 144.145 45.077C146.938 45.1063 147.162 39.9561 144.214 40.5722ZM106.677 50.9633C104.915 51.1367 103.782 53.4571 106.589 53.0384C108.478 52.7556 107.972 50.838 106.677 50.9633ZM109.859 54.1585C109.089 54.2866 107.913 55.2227 108.06 56.1109C108.388 58.1166 111.509 54.972 110.475 54.2466C110.291 54.0492 110.086 54.1212 109.862 54.1585H109.859ZM113.58 57.7725C113.807 57.5191 113.975 57.127 113.809 56.7883C112.807 55.2707 110.352 57.4044 110.757 58.7433C111.064 59.7622 113.236 58.1566 113.58 57.7725ZM104.264 57.095C103.63 57.2764 102.407 58.962 103.449 59.4261C105.296 60.0022 106.338 56.5056 104.264 57.095ZM151.907 57.8712C151.222 58.1059 151.011 59.9249 151.739 60.3889C153.093 61.2184 153.815 58.786 152.813 57.9779C152.546 57.8152 152.197 57.7725 151.907 57.8738V57.8712ZM107.234 59.7568L106.378 59.5008C105.666 59.6341 104.152 62.7573 106.335 62.3946C107.375 62.2212 107.378 60.6076 107.234 59.7595V59.7568ZM115.84 59.5008L114.721 61.1811C115.147 63.1601 117.264 61.3064 117.354 60.3356C117.413 59.6955 116.35 59.2021 115.843 59.4981L115.84 59.5008ZM146.322 61.0851C145.931 61.1917 145.16 62.4586 145.128 62.832C144.966 64.803 148.02 62.656 147.09 61.3091C146.866 61.013 146.669 60.9917 146.322 61.0851ZM136.972 61.3171C136.013 61.6051 136.73 65.1044 138.262 64.4936C139.39 64.1229 138.18 60.957 136.972 61.3171ZM119.697 61.6105C118.119 62.1119 119.218 67.3608 121.03 62.2426L120.588 61.7145L119.7 61.6078L119.697 61.6105ZM111.709 61.8799C109.87 62.3626 111.712 65.7205 112.463 66.6487C116.16 71.2308 122.144 72.6577 127.787 71.5855C129.368 71.2841 135.853 69.3425 136.268 67.7955C136.42 67.2248 135.853 66.7313 135.365 66.7393C135.173 66.7393 132.777 68.3556 132.036 68.6437C126.14 70.9294 117.4 71.2681 113.545 65.3018C112.938 64.3603 112.842 61.5838 111.712 61.8799H111.709ZM132.987 62.1226C131.806 62.5013 132.769 65.5631 134.027 65.3124C134.96 65.1284 134.349 61.6852 132.987 62.1226ZM150.057 62.1412C149.164 62.3813 148.903 63.7122 149.492 64.5016C150.582 65.9632 151.805 63.4161 150.814 62.3786C150.617 62.1039 150.371 62.0586 150.057 62.1439V62.1412ZM125.05 62.9787C123.743 61.9332 122.16 64.8404 123.392 65.8459C124.335 66.1339 125.695 63.4961 125.05 62.9787ZM141.823 65.2511C142.506 64.5256 141.749 62.5333 140.986 62.6613C139.686 63.4615 140.093 66.1392 141.823 65.2511ZM130.138 62.952C128.635 61.9785 127.547 65.0564 129.018 65.5418C131.017 66.2033 130.671 63.2961 130.138 62.952ZM103.15 63.7148C99.3493 66.7367 102.988 68.7904 103.801 64.1362L103.15 63.7148ZM107.506 65.8805C106.837 64.8164 103.558 67.4381 104.869 68.6623C105.597 69.1878 108.228 67.0274 107.506 65.8805ZM144.193 66.1446C143.412 66.406 143.518 67.6088 144.006 68.1262C145.296 68.6357 145.549 67.6702 145.312 66.5527L144.683 66.0939C144.518 66.0859 144.353 66.0939 144.195 66.1446H144.193ZM140.789 68.5477C138.971 67.4088 138.913 71.0147 139.518 71.4175C140.906 72.343 141.581 69.0437 140.789 68.5477ZM107.57 69.6145C107.33 69.7639 105.57 73.8579 107.407 73.8579C107.951 73.8579 109.134 70.8814 109.129 70.5053C109.118 69.8252 108.076 69.3024 107.57 69.6145ZM102.129 71.2174C100.453 71.7029 101.053 76.1809 102.449 74.2126C102.993 73.4472 103.953 70.6894 102.129 71.2174ZM111.605 72.5857C110.384 73.7592 111.12 76.477 112.599 74.5113C113.596 73.1858 112.645 71.5855 111.605 72.5857ZM136.831 75.4422C136.868 74.258 136.82 72.2496 135.213 72.8897C134.493 74.3673 135.042 75.7569 136.831 75.4422ZM117.794 73.8446C117.237 73.9806 115.952 77.3038 117.522 77.3225C118.906 77.3385 118.831 73.5938 117.794 73.8446ZM130.146 74.4046L129.181 74.2953C128.035 74.698 128.075 77.8959 128.981 78.1066C130.162 78.3813 130.396 75.0501 130.149 74.4046H130.146ZM103.449 76.8077C102.353 77.1038 101.948 80.5684 103.417 80.4457C104.307 80.371 104.614 77.7439 104.216 77.0344C104.006 76.7304 103.79 76.717 103.449 76.8077ZM122.512 79.9043C122.691 80.107 123.338 80.2883 123.605 80.2136C124.626 79.7629 124.514 77.0638 123.626 76.7944C122.509 76.4583 122.059 79.3842 122.515 79.9043H122.512ZM108.255 77.8666C107.402 78.0879 107.063 79.8456 107.314 80.5977L107.943 81.0564C109.188 81.2005 109.806 78.7227 109.025 78.0826C108.804 77.8719 108.558 77.7866 108.255 77.8666ZM112.93 81.2378C114.932 82.5207 114.721 78.32 113.263 78.1013C112.775 78.0026 112.839 78.2773 112.733 78.6294C112.485 79.4588 112.474 80.4617 112.93 81.2378ZM132.521 81.7846C134.789 77.3411 130.186 77.0824 131.484 81.7232L132.521 81.7846ZM118.061 80.2403C117.123 80.9284 116.859 83.6035 118.322 83.6089C119.82 83.6142 119.484 80.4937 118.061 80.2403ZM126.609 80.5204C125.609 80.8164 126.468 83.8863 127.88 83.4168C128.92 83.0701 128.027 80.1016 126.609 80.5204ZM104.078 85.5719C105.832 86.3773 106.719 83.0194 105.507 82.6567C104.027 82.6941 103.985 84.4624 104.078 85.5719ZM121.281 83.7236C120.38 83.9929 120.476 86.3613 121.107 86.7827C122.651 87.8149 122.827 84.8571 122.056 83.9689C121.867 83.6996 121.587 83.6329 121.281 83.7236ZM110.366 83.9956C109.721 84.2143 109.459 86.3373 109.801 86.9054L110.6 87.3375C111.898 87.3375 111.709 84.8651 111.285 84.0836C111.051 83.9183 110.632 83.9023 110.363 83.9929L110.366 83.9956ZM114.369 85.0678C113.545 85.3345 113.18 88.1643 114.332 88.255C116.307 88.263 116.184 84.481 114.369 85.0678Z" fill="#FCF7ED"/>
<path d="M132.832 113.825C135.055 133.572 136.423 153.495 140.29 172.995L84.1055 173.261L96.6224 98.6328L98.7041 104.407C104.216 117.396 121.31 120.079 132.832 113.822V113.825Z" fill="#FCF7ED"/>
<path d="M138.15 189.267L150.411 234.566L60.6758 235.099L64.9378 205.779L78.6569 210.199L84.4569 205.558C91.1125 208.833 98.5491 208.209 105.679 209.911C110.938 211.164 114.827 213.439 119.651 215.114C122.407 216.072 126.051 216.408 126.448 212.709C129.516 214.114 133.765 214.4 132.837 209.78C135.34 210.543 137.582 208.636 137.035 205.971C136.921 205.414 135.604 203.558 135.764 203.382C140.018 202.526 138.224 199.333 136.513 196.898C134.453 193.964 132.288 192.425 129.713 190.129C129.538 189.971 129.199 190.145 129.372 189.521L138.147 189.265L138.15 189.267Z" fill="#FCF7ED"/>
<path d="M175.135 33.9019C175.575 34.598 174.216 38.8867 173.915 39.9322C171.987 46.5894 168.544 54.1506 165.103 60.165C164.644 60.9678 161.861 64.8324 161.859 65.1872C161.859 65.4646 162.043 65.7073 162.248 65.8753C163.181 66.6328 164.172 64.8031 164.567 64.163C168.416 57.9273 171.844 51.2862 174.378 44.3997C175.071 42.5167 175.751 39.0361 176.567 37.5292C177.249 36.2703 178.827 36.0436 179.544 37.3531C180.695 39.4575 178.872 45.0264 178.105 47.3308C175.708 54.5427 171.625 61.8133 167.446 68.121C167.824 69.4332 168.706 69.0705 169.458 68.2624C170.479 67.1662 173.027 62.5361 173.883 60.9651C176.961 55.3215 179.379 49.3445 181.194 43.1728C182.596 43.0901 183.276 44.1836 183.43 45.4532C184.121 51.1075 178.35 62.5121 175.013 67.1582C174.482 67.897 171.476 71.1935 171.43 71.5909C171.276 72.9832 172.699 72.5511 173.477 71.8843C174.557 70.9588 177.233 66.7421 178.209 65.2912C179.387 63.5416 180.242 61.5146 181.695 59.9863C181.884 60.9198 181.94 62.0506 181.764 62.9868C180.328 70.6681 166.79 82.7955 160.449 87.2282C157.37 89.3833 154.089 91.2236 150.797 93.0266C150.179 94.6828 151.951 94.6908 152.935 93.84L154.665 101.828L136.025 105.829C134.922 96.2564 133.904 84.6305 140.277 76.6371C149.113 69.2679 155.859 62.5547 161.8 52.6037C164.959 47.3121 167.56 40.5483 171.065 35.7582C172.059 34.4006 173.315 32.9871 175.127 33.9072L175.135 33.9019Z" fill="#FCF7ED"/>
<path d="M109.176 190.624L108.92 191.48L109.405 192.048C114.155 192.873 118.964 193.579 123.343 195.689C126.534 197.225 131.75 200.733 133.898 203.514C136.047 206.296 136.862 209.286 132.032 207.782C124.996 201.101 115.683 196.671 105.97 195.948C105.719 196.396 105.714 197.089 106.21 197.38C106.881 197.775 112.188 198.559 113.659 198.986C118.609 200.415 126.979 204.472 130.305 208.443C131.39 209.737 132.581 212.441 129.841 212.129C126.672 211.769 119.657 206.184 115.786 204.584C113.891 203.8 104.344 200.711 102.995 201.637C102.617 201.949 102.603 202.733 102.995 202.994C103.36 203.237 106.935 203.57 107.809 203.773C114.073 205.213 119.806 207.899 124.862 211.838C125.235 212.943 124.471 213.815 123.407 214.098C121.416 214.628 115.544 211.42 113.262 210.574C105.948 207.867 100.804 207.627 93.3195 206.547C89.1587 205.947 85.659 204.504 81.9727 202.57C83.9637 196.828 86.9757 191.502 89.7451 186.114C92.16 185.919 94.6069 186.173 97.0244 186.069C111.804 185.439 123.591 183.778 134.151 196.327C135.124 197.484 137.057 199.775 136.513 201.338C136.262 201.834 135.676 202.069 135.156 202.002C134.141 201.871 131.147 198.703 129.988 197.831C124.105 193.403 116.495 190.976 109.171 190.627L109.176 190.624Z" fill="#FCF7ED"/>
<path d="M134.431 85.0386C133.301 91.9517 133.344 99.0143 134.453 105.93C131.35 106.696 132.483 110.109 132.837 112.489C126.512 114.774 120.912 116.305 114.137 114.817C104.269 112.649 97.944 103.636 97.6854 93.696C97.6081 90.7622 98.7409 87.4416 99.0208 84.5078L103.627 88.8232C113.425 94.6215 125.563 90.8049 134.431 85.0412V85.0386Z" fill="#FCF7ED"/>
<path d="M96.618 77.5732L97.6575 82.7314C92.8971 108.856 89.8131 135.303 84.9007 161.398C84.8288 161.788 84.9007 162.225 84.373 162.334C84.5915 146.289 81.4863 130.412 81.2197 114.401C82.3952 113.809 86.6572 112.235 86.516 110.774L79.0527 102.772C83.5627 94.6428 89.0295 87.0415 92.8704 78.5467L96.6207 77.5732H96.618Z" fill="#FCF7ED"/>
<path d="M163.189 102.631L164.229 112.465L134.989 117.535C134.727 116.063 133.608 108.507 134.429 107.824C134.773 107.539 139.869 106.445 140.821 106.226C143.422 105.629 162.405 101.812 163.189 102.634V102.631Z" fill="#FCF7ED"/>
<path d="M88.8969 184.194C84.8934 192.054 80.5168 199.845 78.2431 208.447L68.6582 205.513C71.4889 196.861 75.6337 188.419 80.9512 181.031L88.8969 184.194Z" fill="#FCF7ED"/>
<path d="M106.737 39.9909C106.358 39.9082 106.204 38.5293 106.209 38.2599C106.297 34.718 109.72 24.9483 111.956 22.1585C113.051 20.793 114.184 19.8675 115.786 21.201C112.316 27.2047 108.795 33.3498 106.737 39.9936V39.9909Z" fill="#FCF7ED"/>
<path d="M82.5059 204.451C82.7831 204.84 80.7974 206.576 80.3789 206.846L81.1972 204.197L82.5033 204.451H82.5059Z" fill="#FCF7ED"/>
<path d="M211.203 170.41L253.456 151.791L254.546 151.783C254.965 152.085 254.815 154.826 254.791 155.533C254.621 160.486 253.821 165.514 253.467 170.464C252.598 182.538 251.865 194.617 251.052 206.694L249.986 208.291C235.731 216.589 221.02 224.065 206.259 231.421C205.774 231.666 204.636 231.831 204.319 231.381C203.943 230.85 205.374 220.827 205.531 219.235C206.565 208.849 207.365 198.431 208.463 188.053C208.951 183.439 209.212 177.238 210.081 172.883C210.268 171.944 210.66 171.178 211.203 170.408V170.41Z" fill="#FCF7ED"/>
<path d="M206.328 193.521L205.268 203.251L185.469 213.818L184.752 214.725C184.624 215.616 185.199 216.096 185.908 216.493L202.871 224.569C203.551 225.335 202.709 228.671 202.599 229.77L168.258 213.111L206.331 193.521H206.328Z" fill="#FCF7ED"/>
<path d="M205.262 205.248L204.459 212.175L199.755 209.82C199.08 209.756 198.518 211.015 199.035 211.401L204.459 213.788L203.396 223.102L199.669 221.499C199.536 220.875 199.757 221.072 200.013 220.904C200.928 220.307 203.801 219.488 203.684 218.173C203.66 217.896 203.51 217.594 203.236 217.514C202.41 217.277 198.729 220.235 197.473 220.117L186.889 214.967L205.259 205.24L205.262 205.248ZM194.904 213.53L194.661 214.402C194.738 214.831 199.28 217.218 199.931 217.389C200.922 217.645 201.314 217.018 200.874 216.167C200.746 215.919 196.468 213.791 195.946 213.634C195.602 213.532 195.261 213.418 194.901 213.53H194.904Z" fill="#FCF7ED"/>
<path d="M23.8472 202.35L36.5001 204.518L37.7689 205.641L24.1858 227.498L22.7411 227.911L9.29658 224.823L8.77148 224.255L8.87544 223.649L23.8472 202.35Z" fill="#FCF7ED"/>
<path d="M136.537 26.1592C136.713 26.2792 136.838 27.218 136.785 27.5328C136.465 29.4397 131.02 35.1447 129.532 37.089C127.453 39.8095 118.553 51.5048 118.199 54.0066C117.583 58.3513 125.763 58.8847 128.685 58.6287C129.218 58.5834 132.006 57.4525 131.113 59.4448C130.196 61.4878 123.191 60.3463 121.315 59.6529C118.748 58.706 115.456 56.9644 116.12 53.7799C116.599 51.4861 122.258 43.9489 123.943 41.6231C126.989 37.4144 130.86 33.3711 133.744 29.3117C134.346 28.4636 135.388 25.3804 136.537 26.1619V26.1592Z" fill="black"/>
<path d="M145.009 26.4392C145.532 26.3005 146.59 26.6952 147.155 26.8579C151.83 28.2128 157.028 33.2803 155.754 38.5452C155.45 38.7613 154.983 38.7213 154.666 38.5292C154.426 38.3825 152.571 35.2247 151.998 34.5365C150.577 32.8376 148.618 31.304 146.646 30.2985C146.081 30.0104 143.733 29.269 143.599 29.0796C143.128 28.3942 144.391 26.6019 145.007 26.4392H145.009Z" fill="black"/>
<path d="M111.708 61.8804C112.838 61.5843 112.934 64.3581 113.541 65.3023C117.396 71.2687 126.138 70.9299 132.032 68.6442C132.773 68.3562 135.169 66.7426 135.361 66.7399C135.849 66.7346 136.416 67.228 136.264 67.7961C135.849 69.3457 129.366 71.2873 127.783 71.586C122.14 72.6582 116.156 71.2313 112.459 66.6492C111.71 65.721 109.866 62.3631 111.705 61.8804H111.708Z" fill="black"/>
<path d="M131.942 21.6968C132.561 22.3769 132.665 23.0971 132.571 24.0012C129.117 23.7905 126.014 21.9795 122.387 22.4703C121.448 22.5957 119.271 23.7505 118.708 23.3504C117.714 21.7182 120.334 20.2859 121.654 19.8699C124.386 19.0057 129.917 19.4645 131.942 21.6942V21.6968Z" fill="black"/>
<path d="M121.048 30.7045C123.189 30.3151 124.111 33.513 122.322 34.9345C118.671 37.8337 117.863 31.2833 121.048 30.7045Z" fill="black"/>
<path d="M144.212 40.5727C147.16 39.9566 146.937 45.1068 144.143 45.0774C141.846 45.0534 142.077 41.0181 144.212 40.5727Z" fill="black"/>
<path d="M107.568 69.615C108.074 69.3029 109.117 69.8257 109.127 70.5058C109.133 70.8792 107.949 73.8557 107.405 73.8584C105.566 73.8584 107.325 69.7643 107.568 69.615Z" fill="black"/>
<path d="M107.505 65.8804C108.225 67.0273 105.597 69.1877 104.869 68.6622C103.558 67.438 106.836 64.8163 107.505 65.8804Z" fill="black"/>
<path d="M130.144 74.4052C130.395 75.0507 130.157 78.3819 128.977 78.1072C128.07 77.8965 128.033 74.6986 129.176 74.2959L130.141 74.4052H130.144Z" fill="black"/>
<path d="M113.578 57.7731C113.235 58.1572 111.062 59.7628 110.756 58.7439C110.351 57.405 112.805 55.2713 113.808 56.7889C113.973 57.1277 113.808 57.5171 113.578 57.7731Z" fill="black"/>
<path d="M114.367 85.0677C116.185 84.4809 116.305 88.2629 114.33 88.2549C113.179 88.1616 113.541 85.3344 114.367 85.0677Z" fill="black"/>
<path d="M132.52 81.785L131.483 81.7236C130.185 77.0829 134.788 77.3416 132.52 81.785Z" fill="black"/>
<path d="M103.448 76.8079C103.789 76.7172 104.005 76.7305 104.216 77.0346C104.613 77.7467 104.306 80.3738 103.416 80.4458C101.95 80.5685 102.353 77.1039 103.448 76.8079Z" fill="black"/>
<path d="M122.512 79.9042C122.056 79.3868 122.507 76.4583 123.623 76.7944C124.511 77.0611 124.623 79.7629 123.602 80.2136C123.336 80.2883 122.688 80.1069 122.509 79.9042H122.512Z" fill="black"/>
<path d="M110.365 83.9961C110.632 83.9054 111.053 83.9187 111.287 84.0868C111.711 84.8656 111.9 87.338 110.602 87.3406L109.803 86.9086C109.461 86.3378 109.723 84.2148 110.368 83.9987L110.365 83.9961Z" fill="black"/>
<path d="M102.129 71.2181C103.952 70.69 102.993 73.4478 102.449 74.2132C101.052 76.1816 100.453 71.7035 102.129 71.2181Z" fill="black"/>
<path d="M108.253 77.8665C108.557 77.7865 108.802 77.8719 109.023 78.0826C109.804 78.7227 109.186 81.2031 107.941 81.0564L107.312 80.5977C107.064 79.8455 107.4 78.0879 108.253 77.8665Z" fill="black"/>
<path d="M136.972 61.317C138.179 60.9542 139.389 64.1228 138.262 64.4935C136.729 65.1043 136.012 61.605 136.972 61.317Z" fill="black"/>
<path d="M118.059 80.2402C119.485 80.4936 119.818 83.6141 118.32 83.6088C116.857 83.6035 117.121 80.9284 118.059 80.2402Z" fill="black"/>
<path d="M130.136 62.9518C130.669 63.2959 131.016 66.203 129.017 65.5416C127.548 65.0562 128.633 61.9783 130.136 62.9518Z" fill="black"/>
<path d="M112.93 81.2379C112.477 80.4618 112.487 79.4616 112.732 78.6294C112.839 78.2747 112.775 78 113.263 78.1014C114.721 78.3201 114.931 82.5208 112.93 81.2379Z" fill="black"/>
<path d="M121.28 83.7237C121.586 83.633 121.866 83.6997 122.056 83.9691C122.826 84.8572 122.647 87.8177 121.107 86.7829C120.475 86.3588 120.382 83.9904 121.28 83.7237Z" fill="black"/>
<path d="M125.049 62.9792C125.692 63.4939 124.335 66.1344 123.392 65.8463C122.16 64.8435 123.743 61.9336 125.049 62.9792Z" fill="black"/>
<path d="M140.788 68.5475C141.577 69.0436 140.902 72.3402 139.516 71.4174C138.911 71.0146 138.97 67.4087 140.788 68.5475Z" fill="black"/>
<path d="M106.676 50.9632C107.968 50.8351 108.477 52.7528 106.588 53.0382C103.784 53.4596 104.916 51.1365 106.676 50.9632Z" fill="black"/>
<path d="M132.986 62.1224C134.348 61.6849 134.959 65.1282 134.026 65.3122C132.77 65.5603 131.806 62.5011 132.986 62.1224Z" fill="black"/>
<path d="M126.607 80.5208C128.025 80.1021 128.918 83.0706 127.878 83.4173C126.466 83.8894 125.607 80.8169 126.607 80.5208Z" fill="black"/>
<path d="M107.232 59.7568C107.376 60.6049 107.374 62.2185 106.334 62.3919C104.154 62.7546 105.665 59.6314 106.377 59.498L107.232 59.7541V59.7568Z" fill="black"/>
<path d="M117.792 73.8451C118.829 73.5943 118.904 77.339 117.521 77.323C115.951 77.307 117.235 73.9811 117.792 73.8451Z" fill="black"/>
<path d="M104.076 85.5724C103.983 84.4602 104.026 82.6946 105.505 82.6572C106.718 83.02 105.83 86.3779 104.076 85.5724Z" fill="black"/>
<path d="M109.857 54.1584C110.081 54.121 110.286 54.0463 110.47 54.2464C111.505 54.9745 108.386 58.1164 108.055 56.1107C107.909 55.2225 109.084 54.2864 109.855 54.1584H109.857Z" fill="black"/>
<path d="M103.15 63.7148L103.8 64.1362C102.987 68.7904 99.3463 66.7367 103.15 63.7148Z" fill="black"/>
<path d="M115.839 59.5015C116.345 59.2028 117.409 59.6962 117.35 60.339C117.262 61.3071 115.143 63.1634 114.717 61.1844L115.836 59.5042L115.839 59.5015Z" fill="black"/>
<path d="M150.057 62.1414C150.371 62.0561 150.616 62.1014 150.814 62.3761C151.805 63.4136 150.582 65.9607 149.492 64.4992C148.903 63.7097 149.164 62.3788 150.057 62.1388V62.1414Z" fill="black"/>
<path d="M151.906 57.8718C152.197 57.7731 152.546 57.8131 152.813 57.9758C153.815 58.7839 153.092 61.2163 151.738 60.3869C151.011 59.9254 151.221 58.1038 151.906 57.8691V57.8718Z" fill="black"/>
<path d="M136.829 75.4421C135.044 75.7568 134.494 74.3672 135.211 72.8896C136.816 72.2495 136.864 74.2579 136.829 75.4421Z" fill="black"/>
<path d="M119.696 61.6104L120.583 61.717L121.026 62.2451C119.213 67.3633 118.118 62.1144 119.693 61.613L119.696 61.6104Z" fill="black"/>
<path d="M111.604 72.5863C112.643 71.5861 113.595 73.1891 112.598 74.512C111.116 76.4776 110.383 73.7598 111.604 72.5863Z" fill="black"/>
<path d="M104.263 57.0955C106.337 56.5061 105.295 60.0027 103.447 59.4266C102.403 58.9599 103.629 57.2742 104.263 57.0955Z" fill="black"/>
<path d="M158.065 9.27939C157.111 10.3062 155.365 7.80981 156.802 7.06301C157.817 6.53226 158.971 8.30322 158.065 9.27939Z" fill="black"/>
<path d="M147.938 5.15835C148.479 5.61443 149.278 7.05201 148.14 7.22537C145.792 7.5801 145.989 3.51007 147.938 5.15835Z" fill="black"/>
<path d="M162.29 13.8931C163.522 13.4904 164.495 15.6188 163.74 16.1549C162.663 16.9177 160.995 14.7173 162.29 13.8931Z" fill="black"/>
<path d="M141.822 65.2509C140.092 66.1391 139.687 63.4613 140.985 62.6612C141.747 62.5331 142.504 64.5255 141.822 65.2509Z" fill="black"/>
<path d="M151.914 5.90837C154.782 4.95088 153.473 10.7572 151.455 6.54848C151.466 6.23376 151.607 6.00972 151.914 5.90837Z" fill="black"/>
<path d="M146.322 61.0853C146.668 60.992 146.865 61.0133 147.089 61.3094C148.02 62.6589 144.962 64.8033 145.128 62.8323C145.16 62.4589 145.93 61.192 146.322 61.0853Z" fill="black"/>
<path d="M158.866 10.735L159.076 12.554C158.071 13.3701 156.867 11.9086 157.453 10.9377C157.861 10.5163 158.373 10.359 158.866 10.735Z" fill="black"/>
<path d="M160.327 11.9412C159.284 10.9197 161.201 9.22606 161.99 10.9464C162.63 12.3413 161.052 12.6533 160.327 11.9412Z" fill="black"/>
<path d="M144.191 66.1445C144.349 66.0911 144.516 66.0858 144.679 66.0938L145.308 66.5525C145.545 67.6727 145.292 68.6382 144.002 68.1261C143.517 67.6087 143.41 66.4059 144.189 66.1445H144.191Z" fill="black"/>
<path d="M194.904 213.53C195.264 213.418 195.605 213.53 195.949 213.634C196.474 213.791 200.749 215.92 200.877 216.168C201.314 217.019 200.923 217.648 199.934 217.389C199.283 217.221 194.741 214.832 194.664 214.402L194.907 213.53H194.904Z" fill="black"/>
</svg>
