<svg width="398" height="448" viewBox="0 0 398 448" fill="none" xmlns="http://www.w3.org/2000/svg">
<path d="M205.079 200.583C205.363 201.965 204.476 202.461 203.448 201.646C197.032 196.541 190.722 191.259 184.128 186.402C181.93 184.772 175.478 179.419 173.103 179.525C171.366 179.596 168.672 181.936 167.289 183.07C166.084 184.063 164.879 186.367 163.212 185.587C156.654 179.49 150.521 172.79 143.786 166.94C142.19 165.558 136.27 160.276 134.64 160.169C132.371 160.028 128.79 163.502 127.089 165.026C118.864 172.258 111.455 180.518 103.195 187.75C102.345 188.494 101.281 188.99 101.068 187.572C107.981 181.298 114.398 174.42 121.275 168.146C123.65 165.983 129.748 159.921 132.335 159C134.321 158.291 135.526 158.61 137.334 159.46C147.118 166.444 154.953 175.803 163.886 183.85C167.36 181.581 170.232 177.115 174.946 178.213C176.329 178.533 179.165 180.73 180.477 181.617C186.007 185.41 191.183 189.877 196.536 193.953C198.095 194.237 209.9 181.617 213.587 181.617C216.21 181.617 223.513 187.998 225.817 189.912C229.611 193.032 233.935 196.683 237.48 200.015C237.906 200.441 239.501 201.823 239.43 202.355L237.87 202.745C232.376 198.172 227.377 192.961 221.741 188.565C220.181 187.324 215.324 183.46 213.587 183.496C210.751 183.496 201.357 193.28 198.237 194.981L205.185 200.653L205.079 200.583Z" fill="#4A5775"/>
<path d="M119.147 195.583C119.998 195.406 120.884 195.441 121.699 195.583C128.612 200.475 134.426 206.998 140.878 212.564C141.622 212.705 146.656 205.509 149.031 205.225C151.229 204.942 153.64 207.281 155.377 208.558C162.29 213.769 168.493 220.221 176.257 224.191C177.569 224.262 186.041 215.506 188.31 214.23C191.571 212.351 193.38 213.095 196.57 214.761C201.391 217.314 208.552 222.809 213.054 226.283C214.153 227.098 217.344 228.941 214.366 229.261C209.261 226.07 204.653 222.029 199.619 218.732C197.279 217.207 193.876 214.584 190.969 214.903C187.637 215.258 180.263 224.687 176.541 226.105C173.74 226.389 157.61 212.209 154.207 209.692C153.25 208.983 150.946 207.104 149.989 206.891C147.72 206.431 143.82 212.953 142.048 214.123C141.693 214.371 141.445 214.62 140.949 214.442L121.026 197.001C119.572 196.788 117.871 198.419 116.772 199.341C115.566 200.333 108.831 207.494 108.228 207.494L107.307 206.466L107.626 205.722C110.674 204.055 116.275 196.186 119.182 195.512L119.147 195.583Z" fill="#4A5775"/>
<path d="M397.822 165.946C395.766 164.067 389.917 156.836 387.187 157.013C384.883 157.155 378.147 166.336 375.489 167.506L374.531 167.293C366.13 158.112 358.154 148.434 349.468 139.501C347.873 137.87 340.889 130.496 339.259 130.248C337.344 129.964 335.005 133.155 333.693 134.254L314.514 155.843L313.345 156.198L312.777 155.24L335.111 130.532C336.564 129.326 337.734 128.298 339.755 128.617C341.953 128.936 349.291 136.842 351.241 138.898C359.536 147.441 367.193 156.658 375.134 165.521C376.02 165.734 383.429 157.013 385.06 156.02C386.336 155.24 387.542 155.24 388.924 155.595C390.448 155.985 397.574 162.472 397.822 163.784C397.964 164.457 397.787 165.237 397.822 165.911V165.946Z" fill="#4A5775"/>
<path d="M54.0261 7.37813C58.422 6.38552 63.4913 7.16544 65.4411 11.6676C66.0083 12.9084 67.32 18.474 65.7602 19.0058H21.7666C20.5613 11.8448 27.6159 8.51254 33.7487 8.93794C34.7768 -1.30714 52.1474 -3.93046 53.9908 7.37813H54.0261ZM64.484 17.1269C65.0157 9.75328 59.0247 7.30723 52.8209 9.93054C51.4029 7.87443 52.5019 5.96013 50.3394 3.86857C46.1917 -0.101841 38.0382 2.30876 35.9466 7.37813C35.4858 8.54798 35.5213 9.64694 34.9895 10.7104C30.0265 10.6395 24.2836 11.4903 23.291 17.2687L64.484 17.0915V17.1269Z" fill="#4A5775"/>
<path d="M343.829 71.5079C348.225 69.5226 352.656 71.2597 354.89 75.3719C355.918 77.2862 357.194 80.4767 355.599 82.3201L315.611 82.391L314.335 81.7529C313.59 77.2153 317.348 74.4148 321.673 75.0174C322.169 67.2893 329.791 62.149 337.2 64.7369C340.036 65.7295 343.333 68.4946 343.829 71.5433V71.5079ZM316.214 80.4413H354.677C353.862 76.5063 351.309 72.146 346.701 72.6423C344.787 72.855 344.467 74.4857 342.66 74.1666C340.107 61.9718 323.339 64.1342 323.41 76.5418C320.539 77.3217 316.497 76.1164 316.214 80.4058V80.4413Z" fill="#4A5775"/>
<path d="M384.918 205.653L384.422 207.531L383.465 206.929C374.567 200.087 366.484 190.87 357.586 184.241C352.978 180.802 352.056 180.589 347.519 184.241C342.981 187.892 339.046 192.784 334.331 196.294C333.551 196.932 332.665 196.755 332.559 195.691L348.511 181.334C352.942 178.533 355.14 180.306 358.756 183.071C365.669 188.353 372.511 195.337 379.14 201.15C380.948 202.746 382.933 204.27 384.883 205.688L384.918 205.653Z" fill="#4A5775"/>
<path d="M374.104 125.924L373.891 127.129C371.41 127.555 369.992 128.76 368.113 130.213C365.915 128.441 364.355 126.987 361.307 126.704C362.087 123.088 367.9 127.944 368.432 127.838C369.885 126.42 372.119 125.463 374.104 125.924Z" fill="#4A5775"/>
<path d="M176.364 15.1771C176.719 17.0206 174.946 16.6306 173.918 17.1978C173.103 17.6587 171.933 19.0058 171.082 19.0767C169.912 19.183 169.203 17.8005 168.388 17.1269C167.963 16.7724 164.418 15.0353 167.218 14.7872C168.601 14.6454 169.948 16.4534 171.118 17.056C172.571 15.5671 174.237 14.8935 176.364 15.1771Z" fill="#4A5775"/>
<path d="M332.59 21.2136C334.898 21.0239 340.116 22.3204 341.16 24.5972C342.456 27.4432 336.922 25.704 335.942 25.6407C333.349 25.4194 331.547 25.6407 329.301 26.9688C328.511 27.4116 327.91 28.3602 327.151 28.6132C323.514 29.7832 325.349 25.2296 326.803 23.7434C328.037 22.4469 330.851 21.3717 332.622 21.2136H332.59Z" fill="white"/>
<path d="M304.906 303.848C295.157 303.742 286.188 299.807 277.361 296.12C277.184 295.517 277.503 295.482 277.751 295.163C280.41 291.299 285.054 287.293 288.032 283.287C297.213 270.809 297.816 255.459 298.738 240.357C299.092 234.437 299.695 226.673 299.553 220.93C299.482 218.378 297.461 216.96 297.178 220.15C296.292 230.537 296.681 241.42 295.618 252.02C294.165 266.767 292.959 273.751 283.565 285.449C277.007 293.638 269.314 301.508 261.94 308.917C261.16 309.13 257.651 306.011 256.765 305.266C255.453 304.203 247.725 297.432 247.512 296.616C247.299 295.801 247.618 295.446 247.902 294.808C252.723 284.74 262.259 275.098 266.903 264.818C266.301 263.683 266.584 260.351 268.428 260.883C270.413 261.45 274.064 264.924 276.191 265.633C276.404 265.704 276.581 265.81 276.794 265.81C277.716 265.846 278.035 264.569 277.68 263.931C277.361 263.364 270.661 260.174 269.598 259.394C268.676 258.366 269.598 256.77 269.598 255.53C270.058 241.491 268.995 227.559 268.818 213.557C268.995 212.529 266.939 212.245 266.868 212.812C266.939 217.456 266.762 222.136 266.868 226.78C267.01 235.217 268.144 244.824 267.648 253.19C267.577 254.324 267.364 257.621 267.081 258.472C266.513 260.315 263.252 261.592 264.741 265.066L247.228 291.866C246.768 292.327 246.236 292.469 245.633 292.61C241.45 293.461 236.523 293.426 232.269 294.206C229.929 283.252 234.963 273.148 236.487 262.478C237.692 254.147 237.551 245.639 238.472 237.273C240.493 219.229 246.484 200.795 255.949 185.374H256.516C257.013 185.87 257.332 186.366 258.076 186.544C264.386 187.749 273.32 182.148 279.134 180.021C282.005 179.525 288.351 185.197 290.3 187.324C306.997 205.545 307.494 245.639 307.175 269.107C307.033 280.735 306.856 292.398 304.8 303.848H304.906Z" fill="#2A3553"/>
<path d="M235.033 254.961C234.714 262.228 233.154 269.389 231.134 276.337L202.773 272.828L203.943 254.961H235.033Z" fill="#2A3553"/>
<path d="M64.484 17.1285L23.291 17.3058C24.2482 11.4919 30.0265 10.6766 34.9896 10.7475C35.4859 9.68398 35.4504 8.58504 35.9467 7.41518C38.0382 2.34581 46.1918 -0.0647997 50.3395 3.90561C52.5019 5.99717 51.403 7.91149 52.821 9.9676C59.0247 7.34429 65.0512 9.75489 64.484 17.164V17.1285Z" fill="#C8DEF5"/>
<path d="M316.215 80.4425C316.498 76.153 320.54 77.3583 323.411 76.5784C323.34 64.1355 340.073 61.973 342.661 74.2033C344.469 74.4869 344.788 72.8916 346.702 72.6789C351.31 72.1826 353.863 76.5076 354.678 80.478H316.215V80.4425Z" fill="#C8DEF5"/>
<path d="M237.375 160.913L237.446 159.424C237.623 159.105 243.827 158.184 244.607 158.184C246.131 158.184 246.663 159.46 244.961 160.133C244.075 160.488 237.694 161.232 237.375 160.913Z" fill="#4A5775"/>
<path d="M246.981 134.182C248.222 135.458 247.513 140.563 244.996 139.145C243.613 138.365 244.464 131.594 246.981 134.182Z" fill="#4A5775"/>
<path d="M232.731 134.538L233.688 134.184C237.02 137.87 231.986 140.955 232.731 134.538Z" fill="#4A5775"/>
<path d="M375.275 267.76V261.166C382.542 259.5 383.499 251.382 383.074 245.036C382.755 240.534 378.962 225.255 375.842 222.348C372.439 219.157 369.957 225.964 369.071 228.339C366.838 234.401 364.569 244.469 365.243 250.85C365.739 255.6 368.61 260.776 373.751 261.201V267.795H347.34C348.049 265.314 348.439 262.69 348.829 260.138C350.637 248.865 353.721 234.791 354.359 223.695C354.501 220.965 354.927 217.137 352.268 215.648C348.12 213.308 344.859 217.385 343.334 220.859L332.558 267.795H309.621V251.275C307.423 225.858 306.927 194.591 283.601 178.815C286.331 179.418 290.301 176.546 292.393 176.475C293.492 176.44 294.023 177.539 295.087 177.645C299.128 178.035 304.906 175.306 307.069 171.796C312.599 162.756 306.218 151.838 303.843 142.833C300.227 129.256 300.936 113.055 288.245 104.051C269.421 90.6862 229.15 100.47 232.73 128.441C226.774 130.426 226.562 139.891 230.78 143.649C227.448 146.556 228.901 150.668 233.12 151.235C231.667 159.495 234.006 169.669 242.55 173.072C246.343 174.561 250.101 174.455 254.071 174.738C254.638 175.412 254.922 176.263 255.241 177.078C257.545 183.14 255.17 182.892 252.369 187.43C248.789 193.173 245.847 200.227 243.578 206.644C238.331 221.497 235.708 236.918 235.424 252.693H203.767C203.058 252.693 202.491 254.04 202.314 254.147C199.761 255.636 182.639 246.95 178.562 246.029C171.898 244.504 166.97 245.568 161.121 248.865C156.016 251.772 148.43 257.763 149.954 264.321C148.501 263.576 146.444 264.25 145.168 263.931C144.743 263.825 144.707 263.009 144.353 262.726C143.573 262.123 139.319 262.194 138.255 262.548C135.774 263.328 136.341 266.554 136.341 268.575H122.338C122.445 267.37 121.984 265.739 120.566 265.491H79.4082C76.9622 265.349 75.296 263.541 75.7569 261.059L89.5115 217.279L94.9709 251.842C95.7508 253.757 103.621 253.26 104.472 252.445C104.826 252.091 104.968 251.63 105.039 251.133L87.9517 143.117H81.4289C79.7982 144.287 78.5929 145.811 78.4511 147.903L84.6904 188.245L68.7378 203.099C67.8516 203.524 65.5118 201.22 64.6965 200.546C58.6345 195.654 52.3953 188.316 46.1915 184.062C42.2211 181.368 40.7676 181.687 37.1163 184.629C31.7633 188.954 27.332 194.697 21.7664 198.845C20.8801 199.057 15.7753 192.003 12.3367 192.464C8.93347 192.924 2.97781 200.83 0 202.886V204.836C0.779903 204.836 1.06351 204.304 1.55981 203.878C3.40322 202.212 10.4933 194.591 12.2658 194.342C15.4563 193.917 18.9304 199.802 20.9865 200.759C21.4119 200.972 21.8018 201.078 22.2627 200.901C27.6865 196.505 32.3305 190.726 37.6835 186.366C42.6111 182.36 43.1428 183.743 47.5741 187.359C54.5223 193.031 60.6552 200.227 68.2415 205.155L85.0803 190.088L87.7745 208.522L71.2902 260.811C70.8294 263.683 70.9712 265.668 73.0628 267.83H47.8222V262.194C55.1604 259.5 53.6361 250.708 52.2181 244.575C50.7292 238.052 46.8296 227.985 42.5756 239.86C40.4841 245.71 37.3999 260.138 45.8725 261.981V267.795H23.3262V258.472C37.9671 256.061 34.2803 238.832 31.1961 228.623C29.849 224.156 26.3395 212.918 19.8521 215.931C15.3854 218.023 12.833 228.197 11.8404 232.806C9.71337 242.696 8.29532 256.451 21.3764 258.472V267.795H0V269.745H20.5965V280.061C20.5965 280.451 21.9436 281.798 22.3336 281.798H33.0041V444.053C32.6496 444.62 32.2242 444.585 31.657 444.656C28.0056 445.081 22.6881 444.656 18.7886 444.656C17.3351 444.656 13.3292 443.84 16.1652 446.499C42.6819 446.641 69.2341 446.57 95.7508 446.605C108.655 446.605 122.055 446.534 134.994 446.676C138.433 446.676 149.245 448.023 151.372 445.684C154.031 442.777 152.825 430.617 151.514 426.931C151.266 426.186 150.379 425.761 150.379 425.087L152.648 415.87C152.967 415.551 160.412 419.663 161.121 416.402L168.743 391.374L175.372 410.021C176.683 411.793 180.654 409.312 182.533 409.276L184.057 418.316C179.342 422.606 173.812 425.867 167.892 428.207C162.255 430.44 156.76 430.298 155.874 437.92C155.413 441.784 155.413 444.514 159.632 445.613C169.487 448.165 197.422 444.195 207.773 441.252C211.318 440.26 212.878 439.976 213.268 435.864C213.693 431.645 211.07 420.691 208.447 417.395C208.092 416.934 207.348 416.792 207.064 416.366C206.639 415.728 202.81 405.448 203.2 404.987C204.335 404.845 207.1 404.278 207.419 403.144L189.977 343.197H209.794V351.954C209.794 352.237 210.786 354.222 211.141 354.506C211.354 354.683 213.729 355.64 213.871 355.64H266.904V419.167L222.024 429.448C217.416 431.362 219.543 434.694 218.656 437.743C218.195 439.267 216.565 439.196 217.274 442.387C217.557 443.628 218.763 443.521 218.727 444.62H198.414C197.493 445.01 198.166 446.57 198.733 446.57H340.144C340.888 446.57 340.888 444.62 340.144 444.62H326.744C327.276 442.777 328.268 441.997 327.807 439.87C327.595 438.806 326.531 437.991 326.354 437.034C325.857 434.233 327.063 431.645 323.518 429.767C319.937 427.888 307.778 426.009 303.063 424.981L276.653 419.167V355.64H316.463C331.033 355.64 334.295 341.531 336.741 330.081C340.959 310.122 343.512 289.81 347.34 269.78H397.857V267.83H375.31L375.275 267.76ZM21.3764 245.426V256.486C7.33817 254.678 12.6912 233.408 16.0235 224.51C21.9436 208.735 27.5448 222.171 29.8845 230.643C32.3305 239.47 35.6983 254.147 23.3262 256.451V245.391C23.3262 244.646 21.3764 244.646 21.3764 245.391V245.426ZM266.904 444.585H227.661C227.413 443.521 228.228 444.018 228.547 443.344C229.646 441.04 229.008 439.055 227.661 437.034L228.299 436.538L266.868 430.263V444.656L266.904 444.585ZM235.212 123.194C236.133 118.408 240.033 113.232 244.358 111.176C246.556 116.175 250.81 120.996 254.851 124.577C258.006 127.377 262.154 129.54 265.096 132.234C265.486 132.588 265.947 132.588 265.734 133.333L252.582 133.687C251.873 127.306 245.067 123.619 240.884 129.646C239.785 131.206 239.855 132.695 239.253 134.219C238.473 136.204 238.118 132.872 237.977 132.553C237.764 131.986 237.268 130.922 236.949 130.461C236.31 129.61 234.892 129.043 234.715 128.37C234.644 128.086 235.105 123.832 235.212 123.194ZM246.095 144.606C239.82 144.889 239.607 129.965 245.031 128.724C252.369 127.023 252.476 144.322 246.095 144.606ZM232.978 130.638C235.141 130.213 236.63 134.077 236.559 135.814C236.452 138.118 233.581 140.671 231.737 141.876C229.185 139.536 229.15 131.418 232.978 130.674V130.638ZM255.914 172.647C255.028 171.761 249.675 172.292 248.044 172.151C238.508 171.3 234.963 163.997 234.609 155.276C234.432 150.455 234.892 152.299 237.48 151.519C238.048 151.341 238.296 150.774 238.118 150.207C237.835 149.321 232.836 149.746 231.525 148.257C228.937 145.35 238.863 139.997 238.118 136.771H239.288C237.87 146.946 250.81 150.951 252.44 139.643C252.653 138.26 252.015 136.559 253.078 135.602H265.699C266.053 141.096 266.266 146.626 266.089 152.121C265.805 160.629 262.366 172.186 271.477 177.397L276.156 179.134C272.753 180.127 269.705 182.006 266.372 183.14C263.643 184.062 260.168 185.444 257.545 183.778C259.495 180.162 256.836 176.192 255.879 172.611L255.914 172.647ZM236.523 262.477C237.729 254.147 237.587 245.639 238.508 237.272C240.529 219.228 246.52 200.794 255.985 185.373H256.552C257.049 185.87 257.368 186.366 258.112 186.543C264.422 187.749 273.356 182.148 279.17 180.021C282.041 179.524 288.387 185.196 290.336 187.323C307.033 205.545 307.53 245.639 307.211 269.107C307.069 280.734 306.892 292.397 304.836 303.848C295.087 303.741 286.118 299.806 277.291 296.12C277.149 295.517 277.433 295.482 277.681 295.163C280.34 291.298 284.984 287.293 287.961 283.287C297.143 270.808 297.746 255.458 298.667 240.357C299.022 234.436 299.624 226.673 299.483 220.93C299.412 218.378 297.391 216.96 297.107 220.15C296.221 230.537 296.611 241.42 295.548 252.02C294.094 266.767 292.889 273.751 283.495 285.449C276.936 293.638 269.244 301.508 261.87 308.917C261.09 309.13 257.581 306.01 256.694 305.266C255.418 304.202 247.655 297.431 247.442 296.616C247.229 295.836 247.548 295.446 247.832 294.808C252.653 284.74 262.189 275.098 266.833 264.817C266.23 263.683 266.514 260.35 268.357 260.882C270.343 261.449 273.994 264.924 276.121 265.633C276.334 265.703 276.511 265.81 276.724 265.81C277.645 265.845 277.964 264.569 277.61 263.931C277.291 263.364 270.591 260.173 269.527 259.393C268.606 258.365 269.527 256.77 269.527 255.529C269.988 241.491 268.925 227.559 268.747 213.556C268.925 212.528 266.869 212.245 266.798 212.812C266.869 217.456 266.691 222.135 266.798 226.779C266.939 235.216 268.074 244.823 267.578 253.19C267.507 254.324 267.294 257.621 267.01 258.472C266.443 260.315 263.182 261.591 264.671 265.065L247.158 291.866C246.697 292.326 246.166 292.468 245.563 292.61C241.38 293.461 236.452 293.425 232.198 294.205C229.859 283.251 234.892 273.148 236.417 262.477H236.523ZM259.495 310.335L254.603 315.582C249.994 312.001 246.237 305.656 246.697 299.665L259.495 310.335ZM203.945 254.962H235.034C234.715 262.229 233.155 269.39 231.135 276.338L202.775 272.829L203.945 254.962ZM171.898 247.163C182.178 246.738 191.36 255.777 201.64 256.132L201.25 268.575C196.216 269.426 191.892 268.894 186.929 267.937C181.505 266.873 174.025 263.506 168.849 263.966C167.395 264.108 165.658 264.994 164.489 265.065C163.248 265.136 161.794 264.356 160.447 264.675C161.901 262.513 168.353 258.472 170.728 258.472H176.932L177.499 257.514C177.215 256.167 172.997 256.451 171.862 256.557C167.644 256.947 163.46 259.464 160.199 262.017C158.001 263.718 158.533 264.64 154.952 263.931C157.788 258.082 164.878 252.87 171.472 252.268C173.954 252.055 176.258 252.693 178.669 252.481C179.98 251.63 177.641 250.566 176.825 250.424C169.097 249.042 161.014 252.8 155.945 258.472C154.492 260.102 153.924 262.938 151.478 262.371C152.577 254.678 164.63 247.482 171.862 247.199L171.898 247.163ZM43.32 258.436C41.0158 255.104 42.5047 246.596 43.5327 242.732C43.8518 241.562 45.4116 236.528 46.4397 236.28C47.5032 236.032 49.063 240.286 49.3466 241.137C50.6937 244.93 52.218 253.012 50.9773 256.77C49.9138 260.031 45.4116 261.414 43.32 258.401V258.436ZM41.1576 444.585V281.762H190.154C190.544 281.762 191.892 280.415 191.892 280.025V270.879C194.905 271.411 197.776 271.056 200.825 270.879C200.754 273.467 200.364 274.353 203.058 275.062C207.986 276.338 215.608 276.835 220.854 277.437C224.116 277.827 227.413 278.146 230.709 278.253C229.256 283.57 229.114 289.171 230.319 294.56C217.309 296.013 204.264 297.396 191.324 299.275C184.092 300.303 176.435 301.295 169.31 302.891C156.725 305.727 151.159 308.704 146.976 321.36C137.972 348.586 132.654 378.151 123.969 405.59C122.906 408.78 127.869 409.064 130.102 409.56C128.897 411.439 128.046 419.273 126.592 420.23C126.096 420.55 125.316 420.443 124.784 420.762C113.83 426.789 107.733 427.498 96.4952 431.326C91.9576 432.886 87.4555 436.857 89.0862 442.245C89.4761 443.521 90.6459 443.663 91.2486 444.549H41.1222L41.1576 444.585ZM147.402 444.939C146.657 444.939 145.913 444.585 145.133 444.585C131.272 444.585 115.213 445.613 101.6 444.585C99.9339 444.443 92.0639 443.167 91.2486 442.103C90.6105 441.288 90.8941 438.416 91.4967 438.346C95.5735 439.764 100.324 440.827 104.649 441.111C115.745 441.784 127.762 441.111 138.823 440.685C142.793 440.543 146.799 440.969 150.698 439.941C150.379 442.564 150.628 444.868 147.366 444.939H147.402ZM150.698 437.956C145.523 439.125 140.241 438.594 134.994 438.771C125.564 439.055 115.745 439.728 106.244 439.196C101.813 438.948 96.4598 438.133 92.4893 436.254C92.4893 433.879 108.725 430.476 111.42 429.554C116.773 427.746 121.7 425.052 126.663 422.464C129.854 431.149 142.403 430.511 149.6 427.533C150.45 430.936 151.053 434.446 150.734 437.991L150.698 437.956ZM148.004 425.761C143.325 428.1 133.682 428.384 129.96 424.343C127.585 421.755 129.18 420.94 129.925 418.174C130.244 416.934 131.52 410.659 132.3 410.446L150.557 415.445L148.004 425.761ZM209.12 438.7C205.965 440.047 198.414 441.146 194.727 441.784C185.581 443.309 174.131 444.833 164.914 444.23C161.227 443.982 157.009 444.018 157.718 439.196L169.168 440.366C183.454 440.26 197.599 437.778 211.318 434.127C210.716 436.219 211.425 437.707 209.085 438.7H209.12ZM210.893 432.106C196.004 435.864 180.406 438.984 164.914 437.991C164.028 437.92 158.143 437.211 158.108 436.644C160.731 430.83 168.494 430.653 173.918 427.959C177.676 426.08 181.505 423.137 184.766 420.55C191.218 426.576 201.109 425.3 206.851 418.99C207.56 418.99 211.495 431.291 210.893 432.142V432.106ZM205.327 417.784C200.187 422.535 191.962 424.165 186.432 419.167L184.518 408.851L201.215 405.767L205.363 417.784H205.327ZM205.114 402.222L176.754 408.461L169.948 387.049L182.604 343.233H187.957L205.079 402.257L205.114 402.222ZM317.385 436.431C314.797 438.948 314.655 442.139 317.385 444.585H276.582V430.582L317.385 436.431ZM217.345 337.703C214.686 337.915 212.027 338.305 210.68 340.822L182.816 341.141C182.143 340.999 176.542 331.357 175.017 329.939C174.45 329.407 174.166 329.017 173.245 329.195C173.138 330.01 173.245 330.648 173.528 331.428C174.131 332.988 177.215 336.958 178.35 338.66C179.059 339.723 180.973 341.496 180.937 342.524L159.065 415.126L126.415 406.192L150.947 317.567C154.917 307.038 167.36 305.408 177.073 303.671C199.691 299.629 222.769 297.963 245.528 295.021C244.889 295.872 245.563 296.722 245.457 297.467C245.279 298.637 244.429 299.842 244.429 301.402C244.429 306.613 249.604 315.015 253.752 318.134C254.709 318.843 256.765 320.545 257.226 318.56L256.056 317C257.829 315.865 259.353 312.71 260.913 311.753C261.551 311.363 262.331 311.363 262.898 311.009C267.719 307.712 271.442 301.792 275.767 297.821C284.558 301.402 293.421 305.549 303.099 305.939C302.425 313.845 301.68 321.147 297.426 328.06C293.527 334.37 288.529 336.852 281.12 337.419C260.488 338.943 238.225 336.214 217.38 337.809L217.345 337.703ZM320.505 331.712C319.051 337.029 314.549 337.135 309.834 337.348C303.453 337.667 296.93 337.242 290.585 337.135C301.645 331.534 304.729 317.532 304.942 306.081C307.92 305.408 307.672 300.551 308.026 297.821C309.196 288.604 309.515 278.997 309.621 269.709H332.168L320.54 331.712H320.505ZM373.715 250.673V259.216C371.872 259.5 369.638 257.266 368.717 255.848C365.101 250.141 367.866 238.336 369.709 232.097C370.56 229.296 371.659 225.042 374.247 223.447C376.268 223.943 380.132 238.336 380.557 240.853C381.656 246.95 382.613 256.876 375.24 259.216V251.24C375.24 250.814 374.141 250.495 373.68 250.673H373.715Z" fill="#4A5775"/>
</svg>
