<svg width="121" height="91" viewBox="0 0 121 91" fill="none" xmlns="http://www.w3.org/2000/svg">
<circle cx="19.5762" cy="24.0176" r="6.50585" fill="#535D77"/>
<circle cx="26.082" cy="38.1152" r="6.50585" fill="#535D77"/>
<circle cx="21.7441" cy="79.3144" r="6.50585" fill="#91C2FF"/>
<circle cx="16.3242" cy="64.1387" r="6.50585" fill="#91C2FF"/>
<circle cx="11.9863" cy="47.873" r="6.50585" fill="#91C2FF"/>
<circle cx="6.56445" cy="32.6934" r="6.50585" fill="#535D77"/>
<circle cx="28.2519" cy="53.2949" r="6.50585" fill="#535D77"/>
<circle cx="34.9707" cy="20.7637" r="6.50585" fill="#535D77"/>
<circle cx="39.2266" cy="30.1641" r="5" fill="#535D77"/>
<circle cx="39.0937" cy="83.6543" r="6.50585" fill="#535D77"/>
<circle cx="54.2734" cy="81.4863" r="6.50585" fill="#535D77"/>
<circle cx="69.4531" cy="80.4004" r="6.50585" fill="white" fill-opacity="0.2"/>
<circle cx="44.5156" cy="6.66991" r="6.50585" fill="white" fill-opacity="0.2"/>
<circle cx="51.0215" cy="20.7637" r="6.50585" fill="white" fill-opacity="0.2"/>
<circle cx="57.5273" cy="34.8613" r="6.50585" fill="white" fill-opacity="0.2"/>
<circle cx="60.7793" cy="7.75585" r="6.50585" fill="white" fill-opacity="0.2"/>
<circle cx="79.2129" cy="53.2949" r="6.50585" fill="white" fill-opacity="0.2"/>
<circle cx="95.4785" cy="47.873" r="6.50585" fill="white" fill-opacity="0.2"/>
<circle cx="95.4785" cy="64.1387" r="6.50585" fill="white" fill-opacity="0.2"/>
<circle cx="82.4668" cy="71.7285" r="6.50585" fill="white" fill-opacity="0.2"/>
<circle cx="67.2871" cy="65.2207" r="6.50585" fill="white" fill-opacity="0.2"/>
<circle cx="51.0215" cy="66.3066" r="6.50585" fill="#535D77"/>
<circle cx="34.7559" cy="68.4785" r="6.50585" fill="#535D77"/>
<circle cx="61.8652" cy="50.041" r="6.50585" fill="white" fill-opacity="0.2"/>
<circle cx="45.5996" cy="51.123" r="6.50585" fill="#535D77"/>
<path d="M71.8276 25.4683C73.1287 25.9888 74.0656 26.5093 74.6381 27.0297C75.2236 27.5372 75.5164 28.1292 75.5164 28.8058C75.5164 30.1981 74.7877 31.4342 73.3304 32.5142C71.8861 33.5941 69.57 34.6221 66.3822 35.5979L65.9723 34.1732C67.5857 33.6007 68.8023 33.0997 69.6221 32.6703C70.4548 32.2539 71.0403 31.818 71.3786 31.3626C71.717 30.9072 71.8861 30.3607 71.8861 29.7232C71.8861 29.1637 71.6844 28.6692 71.2811 28.2398C70.8777 27.8104 70.2076 27.3746 69.2708 26.9322V25.9563C69.9343 25.3838 70.3963 24.8893 70.6565 24.4729C70.9297 24.0566 71.0664 23.6012 71.0664 23.1067C71.0664 22.5472 70.9102 22.0918 70.5979 21.7405C70.2857 21.3892 69.8823 21.2135 69.3879 21.2135C68.7633 21.2135 67.7744 21.6104 66.4212 22.4041L65.8357 21.2916L68.5681 19.1056C68.9455 19.0015 69.2968 18.9495 69.6221 18.9495C70.5459 18.9495 71.3917 19.0861 72.1594 19.3593C72.9401 19.6326 73.5581 20.0034 74.0135 20.4718C74.4689 20.9403 74.6966 21.4477 74.6966 21.9942C74.6446 22.5667 74.3844 23.1262 73.9159 23.6727C73.4605 24.2192 72.7644 24.8243 71.8276 25.4879V25.4683Z" fill="#91C2FF"/>
<path d="M77.9867 33.2363L76.5229 32.924L81.656 11.9817L83.1589 12.294L77.9867 33.2363ZM95.1518 30.7966L93.5904 30.4453H84.1634V29.3523C85.7899 28.0642 87.026 27.0428 87.8717 26.2881C88.7305 25.5334 89.3291 24.9153 89.6674 24.4339C90.0057 23.9525 90.1748 23.5036 90.1748 23.0872C90.1748 22.5797 89.9926 22.1634 89.6283 21.8381C89.264 21.5128 88.7956 21.3501 88.2231 21.3501C87.3252 21.3501 86.1347 21.747 84.6513 22.5407L84.0658 21.4282L86.7788 19.2422C87.3383 19.0471 88.0019 18.9495 88.7695 18.9495C89.7975 18.9495 90.6953 19.0796 91.463 19.3398C92.2307 19.587 92.8227 19.9384 93.2391 20.3938C93.6685 20.8492 93.8831 21.3762 93.8831 21.9747C93.8831 22.4952 93.5123 23.1913 92.7706 24.0631C92.042 24.9349 90.91 25.9498 89.3746 27.1078H93.3757L94.0783 25.4098L95.1518 25.7221V30.7966ZM108.157 14.4995C105.632 16.0999 103.83 17.6353 102.75 19.1056C101.683 20.5629 101.15 22.1048 101.15 23.7313C101.15 24.59 101.267 25.3838 101.501 26.1124C101.748 26.8411 102.106 27.4266 102.575 27.869C103.056 28.2984 103.629 28.5131 104.292 28.5131C104.93 28.5131 105.411 28.2854 105.737 27.83C106.075 27.3746 106.244 26.7044 106.244 25.8197C106.244 24.6356 105.932 23.6532 105.307 22.8725C104.683 22.0788 103.882 21.4868 102.907 21.0964L103.746 19.7302C104.839 19.7302 105.847 19.9579 106.771 20.4133C107.708 20.8557 108.449 21.4607 108.996 22.2284C109.555 22.9961 109.835 23.8354 109.835 24.7462C109.835 25.7221 109.503 26.6654 108.84 27.5762C108.189 28.4871 107.343 29.2287 106.303 29.8012C105.262 30.3607 104.195 30.6405 103.102 30.6405C102.048 30.6405 101.098 30.3803 100.252 29.8598C99.4194 29.3263 98.7623 28.5911 98.2808 27.6543C97.8124 26.7175 97.5782 25.657 97.5782 24.4729C97.5782 23.1457 97.8645 21.8771 98.437 20.667C99.0095 19.4439 100.018 18.2078 101.462 16.9587C102.92 15.6965 104.917 14.4474 107.454 13.2113L108.157 14.4995Z" fill="white"/>
</svg>
