<svg width="122" height="91" viewBox="0 0 122 91" fill="none" xmlns="http://www.w3.org/2000/svg">
<circle cx="20.2441" cy="24.0176" r="6.50585" fill="white"/>
<circle cx="26.748" cy="38.1152" r="6.50585" fill="white"/>
<circle cx="22.4101" cy="79.3144" r="6.50585" fill="white"/>
<circle cx="16.9922" cy="64.1387" r="6.50585" fill="white"/>
<circle cx="12.6523" cy="47.873" r="6.50585" fill="white"/>
<circle cx="7.23046" cy="32.6934" r="6.50585" fill="white"/>
<circle cx="28.918" cy="53.2949" r="6.50585" fill="white"/>
<circle cx="35.6387" cy="20.7637" r="6.50585" fill="#535D77"/>
<circle cx="40.918" cy="33.1641" r="6" fill="#535D77"/>
<circle cx="39.7617" cy="83.6543" r="6.50585" fill="#535D77"/>
<circle cx="54.9414" cy="81.4863" r="6.50585" fill="#535D77"/>
<circle cx="70.1211" cy="80.4004" r="6.50585" fill="white" fill-opacity="0.2"/>
<circle cx="45.1836" cy="6.66991" r="6.50585" fill="white" fill-opacity="0.2"/>
<circle cx="51.6875" cy="20.7637" r="6.50585" fill="white" fill-opacity="0.2"/>
<circle cx="58.1934" cy="34.8613" r="6.50585" fill="white" fill-opacity="0.2"/>
<circle cx="61.4453" cy="7.75585" r="6.50585" fill="white" fill-opacity="0.2"/>
<circle cx="67.9531" cy="21.8496" r="6.50585" fill="white" fill-opacity="0.2"/>
<circle cx="73.375" cy="38.1152" r="6.50585" fill="white" fill-opacity="0.2"/>
<circle cx="79.8809" cy="53.2949" r="6.50585" fill="white" fill-opacity="0.2"/>
<circle cx="96.1445" cy="47.873" r="6.50585" fill="white" fill-opacity="0.2"/>
<circle cx="96.1445" cy="64.1387" r="6.50585" fill="white" fill-opacity="0.2"/>
<circle cx="83.1328" cy="71.7285" r="6.50585" fill="white" fill-opacity="0.2"/>
<circle cx="67.9531" cy="65.2207" r="6.50585" fill="white" fill-opacity="0.2"/>
<circle cx="51.6875" cy="66.3066" r="6.50585" fill="#535D77"/>
<circle cx="35.4238" cy="68.4785" r="6.50585" fill="#535D77"/>
<circle cx="62.5312" cy="50.041" r="6.50585" fill="white" fill-opacity="0.2"/>
<circle cx="46.2656" cy="51.123" r="6.50585" fill="#535D77"/>
<path d="M77.4273 20.3743L69.2494 35.5979L67.9027 34.9929L74.6558 22.4822H68.176L67.4733 24.1216L66.3999 23.8093V18.7933L67.9613 19.1446H77.4273V20.3743Z" fill="white"/>
<path d="M79.6172 33.2363L78.1534 32.924L83.2865 11.9817L84.7894 12.294L79.6172 33.2363ZM96.7823 30.7966L95.2209 30.4453H85.7939V29.3523C87.4204 28.0642 88.6565 27.0428 89.5022 26.2881C90.361 25.5334 90.9596 24.9153 91.2979 24.4339C91.6362 23.9525 91.8053 23.5036 91.8053 23.0872C91.8053 22.5797 91.6232 22.1634 91.2588 21.8381C90.8945 21.5128 90.4261 21.3501 89.8536 21.3501C88.9558 21.3501 87.7652 21.747 86.2818 22.5407L85.6963 21.4282L88.4093 19.2422C88.9688 19.0471 89.6324 18.9495 90.4001 18.9495C91.428 18.9495 92.3258 19.0796 93.0935 19.3398C93.8612 19.587 94.4532 19.9384 94.8696 20.3938C95.299 20.8492 95.5137 21.3762 95.5137 21.9747C95.5137 22.4952 95.1428 23.1913 94.4012 24.0631C93.6725 24.9349 92.5405 25.9498 91.0051 27.1078H95.0062L95.7088 25.4098L96.7823 25.7221V30.7966ZM109.787 14.4995C107.263 16.0999 105.461 17.6353 104.381 19.1056C103.314 20.5629 102.78 22.1048 102.78 23.7313C102.78 24.59 102.898 25.3838 103.132 26.1124C103.379 26.8411 103.737 27.4266 104.205 27.869C104.687 28.2984 105.259 28.5131 105.923 28.5131C106.56 28.5131 107.042 28.2854 107.367 27.83C107.705 27.3746 107.875 26.7044 107.875 25.8197C107.875 24.6356 107.562 23.6532 106.938 22.8725C106.313 22.0788 105.513 21.4868 104.537 21.0964L105.376 19.7302C106.469 19.7302 107.478 19.9579 108.401 20.4133C109.338 20.8557 110.08 21.4607 110.626 22.2284C111.186 22.9961 111.466 23.8354 111.466 24.7462C111.466 25.7221 111.134 26.6654 110.47 27.5762C109.82 28.4871 108.974 29.2287 107.933 29.8012C106.892 30.3607 105.825 30.6405 104.732 30.6405C103.678 30.6405 102.728 30.3803 101.883 29.8598C101.05 29.3263 100.393 28.5911 99.9114 27.6543C99.4429 26.7175 99.2087 25.657 99.2087 24.4729C99.2087 23.1457 99.495 21.8771 100.067 20.667C100.64 19.4439 101.648 18.2078 103.093 16.9587C104.55 15.6965 106.547 14.4474 109.085 13.2113L109.787 14.4995Z" fill="#C5C5C5"/>
</svg>
