<svg width="662" height="618" viewBox="0 0 662 618" fill="none" xmlns="http://www.w3.org/2000/svg">
<path d="M660.895 592.604L658.98 591.726L607.145 591.661C604.548 590.849 605.976 583.99 605.424 581.259C605.002 579.276 603.055 577.521 602.86 575.376C602.633 572.775 606.398 567.802 607.534 564.356C611.267 552.914 608.832 536.693 609.319 524.308C612.727 438.004 615.811 351.342 620.485 265.038C621.459 247.062 631.164 209.68 604.223 206.95C566.832 203.179 522.818 210.655 485.427 206.982C477.961 206.234 481.662 202.789 481.37 197.133C480.753 186.406 477.864 173.696 468.646 167.097C462.219 162.514 456.766 160.856 450.08 165.894L448.003 164.496L448.847 102.344C450.567 96.9809 452.709 93.7628 451.443 87.7167C450.924 85.2787 448.1 82.5807 448.165 80.2402C448.295 76.3395 451.605 73.4139 450.664 67.1077C449.755 60.964 444.173 57.1608 443.491 54.7878C442.258 50.432 443.751 47.1163 440.375 42.1104C437.941 38.5347 432.098 36.1617 430.281 33.6588C429.112 32.0334 429.404 29.823 428.366 28.1327C425.347 23.1917 419.634 19.4535 413.889 18.4783C410.806 17.9582 406.359 18.9009 404.054 18.1208C402.237 17.5031 397.758 9.9942 390.519 8.4664C384.223 7.16615 377.763 10.7093 374.453 9.76665C371.726 8.9865 367.799 2.25771 360.853 1.02247C352.089 -0.53783 349.07 5.37831 345.5 5.37831C342.481 5.37831 338.035 0.567383 332.517 0.567383C331.121 0.567383 324.597 1.41255 323.428 1.77011C321.351 2.42024 318.722 6.9061 315.736 7.16615C312.23 7.49122 307.199 3.13538 300.221 4.56565C294.93 5.67087 287.27 14.3825 285.16 14.5776C282.564 14.8376 277.565 11.782 274.06 11.782C268.834 11.782 261.271 14.7726 257.344 18.2833C255.753 19.7136 254.228 23.4518 252.216 24.297C249.229 25.5647 245.14 24.297 241.764 24.9796C237.642 25.8247 228.976 31.6109 227.418 35.7066C226.703 37.5595 226.801 42.0454 226.022 43.1506C225.762 43.5407 219.693 46.3037 217.972 47.6365C213.428 51.1471 210.345 55.4705 210.377 61.5166C210.377 64.5722 212.519 66.7826 212.325 68.8955C212.097 71.171 207.391 76.4695 206.807 80.1752C205.476 88.4643 209.89 90.5122 210.28 94.2179C210.442 95.6807 208.267 98.6713 207.91 100.817C205.963 111.934 213.915 132.218 210.442 145.253L212.325 167.975C209.306 168.235 207.91 165.764 204.697 166.284C198.725 167.26 190.48 174.866 188.046 180.36C187.397 181.855 184.703 189.591 184.508 190.762C183.761 195.41 185.06 201.684 184.508 206.56C181.035 209.713 175.485 207.112 171.103 206.982C143.027 206.169 114.593 207.112 86.6793 207.99C78.3052 208.25 62.0112 206.072 55.6169 210.33C41.6275 219.692 42.9907 230.289 43.4452 245.632C46.1392 331.481 51.2026 417.2 54.6431 503.017C55.3248 520.017 54.2212 538.188 55.4871 555.124C55.8766 560.488 61.1997 573.458 61.1024 574.563C60.9725 575.798 59.6092 576.936 59.3171 578.431C58.603 582.332 58.2136 586.298 58.1812 590.296L56.7854 591.694C50.1315 591.531 2.38564 590.361 0.795196 592.766C0.275867 593.547 1.24968 596.472 2.19097 596.472H57.4021C58.8952 604.111 57.8565 613.245 66.2307 616.886C243.679 617.439 420.673 617.146 598.316 616.496C607.437 613.863 603.12 598.91 607.21 597.512C625.289 596.992 643.465 598.455 661.35 595.529L660.928 592.701L660.895 592.604ZM443.296 187.901C443.296 187.446 446.12 180.262 446.639 179.189C451.833 168.56 462.025 164.561 469.652 175.419C473.547 180.945 475.722 196.84 475.787 203.764C475.787 204.804 475.3 206.982 474.359 206.982H454.884L453.618 204.804C456.052 201.684 457.513 193.232 460.953 191.672C462.414 191.022 466.114 191.444 466.439 189.721L464.913 186.503C456.864 185.333 453.034 188.519 450.015 195.605C448.457 199.311 447.84 210.038 443.264 205.584V187.933L443.296 187.901ZM231.15 160.303C238.096 139.954 245.659 139.694 244.815 114.437C244.328 99.4839 238.745 94.738 257.539 90.9998C307.199 81.1179 353.615 80.8578 403.86 87.9767C421.582 90.4797 416.259 95.5832 417.33 109.788C417.752 115.412 418.044 125.034 419.407 130.007C421.095 136.249 428.885 146.228 431.611 153.087C436.058 164.301 436.09 178.604 435.928 190.664C435.863 195.475 433.429 199.376 436.675 204.414C436.545 204.999 434.695 206.885 434.5 206.885H299.507L226.281 206.787C227.872 190.436 225.697 176.199 231.15 160.238V160.303ZM204.405 173.046C218.751 172.688 222.192 195.54 220.536 206.365C220.277 208.12 217.842 207.697 217.161 206.722C216.09 205.227 215.57 199.863 214.629 197.653C212.065 191.639 203.821 182.602 198.432 190.664C199.569 193.199 201.776 191.932 202.977 192.549C205.378 193.785 211.578 204.674 210.052 206.95C209.403 207.925 197.621 206.722 195.187 207.892L190.48 206.007C191 196.093 190.188 173.403 204.437 173.046H204.405ZM598.024 610.092L592.246 611.295H68.9248C67.0098 611.393 64.5429 609.572 64.0561 607.817C63.3744 605.379 62.8226 595.139 62.8875 592.181C63.3744 573.75 69.3792 579.439 82.8168 579.731C232.286 582.982 382.47 578.009 531.842 578.724C551.219 580.674 575.271 576.253 594.096 578.724C597.277 579.146 599.517 581.714 600.036 584.867C600.523 588.053 599.517 608.662 598.024 610.157V610.092ZM589.487 573.165C472.638 573.328 355.367 572.743 238.745 573.133C188.241 573.295 134.101 576.708 83.758 574.108C80.2201 573.913 74.3128 573.523 71.0345 572.905C66.7825 572.157 63.342 568.159 62.2384 564.063C60.8103 558.83 60.4856 547.94 60.1286 542.024C58.0837 508.705 57.8889 474.866 56.4608 441.612C53.8317 379.525 52.2737 317.666 50.0017 255.709C49.6446 245.6 44.1267 220.147 56.688 215.076C58.7329 214.264 67.0746 213.613 69.8985 213.451C110.146 211.11 152.342 215.759 192.655 212.736L199.731 213.483C250.106 212.768 300.708 214.719 350.953 212.476C432.033 216.181 517.236 207.697 597.797 212.476C601.627 212.703 610.747 213.223 613.019 215.824C615.714 218.912 617.661 228.404 617.726 232.5C617.953 249.923 614.805 267.964 613.961 285.452C610.326 363.142 608.118 440.865 604.678 518.75C604.158 530.777 604.808 544.137 603.834 556.002C603.055 565.429 599.647 572.19 589.455 573.198L589.487 573.165Z" fill="black"/>
<path d="M454.919 206.951L453.653 204.773C456.087 201.652 457.548 193.201 460.988 191.641C462.449 190.99 466.149 191.413 466.474 189.69L464.948 186.472C456.899 185.302 453.069 188.487 450.05 195.574C448.492 199.28 447.875 210.007 443.299 205.553V187.902C443.299 187.447 446.123 180.263 446.642 179.191C451.835 168.561 462.027 164.563 469.655 175.42C473.55 180.946 475.724 196.842 475.789 203.765C475.789 204.806 475.302 206.984 474.361 206.984H454.886L454.919 206.951Z" fill="#FCF7ED"/>
<path d="M217.128 206.722C216.057 205.226 215.537 199.863 214.596 197.652C212.032 191.639 203.787 182.602 198.399 190.664C199.535 193.199 201.743 191.931 202.944 192.549C205.345 193.784 211.545 204.674 210.019 206.949C209.37 207.924 197.588 206.722 195.154 207.892L190.447 206.007C190.967 196.092 190.155 173.403 204.404 173.045C218.653 172.688 222.191 195.539 220.536 206.364C220.276 208.119 217.842 207.697 217.16 206.722H217.128Z" fill="#FCF7ED"/>
<path d="M347.324 406.376C338.268 416.42 320.773 414.697 313.762 403.19C299.513 379.851 324.7 345.817 346.739 367.368C357.191 377.608 357.029 395.649 347.356 406.376H347.324ZM327.102 367.011C312.399 370.066 309.705 404.165 326.972 406.668C344.24 409.171 350.375 395.454 347.713 380.338C346.123 371.302 335.963 365.19 327.102 367.011Z" fill="black"/>
<path d="M315.029 149.577C317.658 152.178 317.658 162.807 317.074 166.448C315.386 177.273 296.755 171.194 289.744 170.706C272.833 169.536 258.227 169.374 242.939 177.728C239.953 178.443 241.089 170.544 241.446 168.788C246.218 146.262 267.64 142.588 286.985 143.726C291.789 144.019 312.14 146.782 314.996 149.61L315.029 149.577Z" fill="black"/>
<path d="M347.093 149.609C349.787 147.171 363.549 144.408 367.801 143.855C375.721 142.815 390.295 141.84 397.89 143.238C410.776 145.578 421.26 162.091 424.7 173.859C423.889 175.321 423.24 175.289 421.747 175.159C416.456 174.704 409.964 170.38 404.511 169.113C396.592 167.227 381.564 167.195 373.222 167.877C366.99 168.365 348.132 174.834 344.724 167.682C342.224 162.481 342.646 153.672 347.093 149.609Z" fill="black"/>
<path d="M322.721 151.624C323.662 144.928 327.07 149.739 327.168 154.419C327.168 155.72 326.486 164.724 326.291 165.439C325.642 167.552 323.857 167.357 322.721 165.602C323.143 161.213 322.137 155.882 322.721 151.656V151.624Z" fill="black"/>
<path d="M280.665 202.326C285.63 202.326 289.656 197.014 289.656 190.461C289.656 183.909 285.63 178.597 280.665 178.597C275.699 178.597 271.674 183.909 271.674 190.461C271.674 197.014 275.699 202.326 280.665 202.326Z" fill="black"/>
<path d="M381.54 202.326C386.505 202.326 390.531 197.014 390.531 190.461C390.531 183.909 386.505 178.597 381.54 178.597C376.574 178.597 372.549 183.909 372.549 190.461C372.549 197.014 376.574 202.326 381.54 202.326Z" fill="black"/>
</svg>
