<svg width="129" height="130" viewBox="0 0 129 130" fill="none" xmlns="http://www.w3.org/2000/svg">
<path d="M53.9385 55.3984C51.2479 57.1689 49.3101 58.8767 48.1251 60.5218C46.9541 62.1529 46.3685 63.8397 46.3685 65.5824C46.3685 66.5722 46.508 67.4853 46.7868 68.3218C47.0656 69.1443 47.4769 69.8065 48.0206 70.3084C48.5782 70.7963 49.2613 71.0403 50.0699 71.0403C51.6592 71.0403 52.4538 69.9738 52.4538 67.8408C52.4538 66.5722 52.0704 65.5057 51.3037 64.6414C50.5509 63.777 49.582 63.1357 48.397 62.7175L49.1498 61.5674C50.3348 61.5674 51.4222 61.7974 52.412 62.2574C53.4018 62.7175 54.1825 63.3518 54.7541 64.1604C55.3257 64.955 55.6115 65.8333 55.6115 66.7952C55.6115 67.799 55.2769 68.7818 54.6077 69.7438C53.9525 70.7057 53.0951 71.4934 52.0356 72.1068C50.99 72.7063 49.9235 73.006 48.8361 73.006C47.7487 73.006 46.7728 72.7272 45.9085 72.1695C45.0581 71.5979 44.3889 70.8172 43.901 69.8274C43.427 68.8376 43.19 67.7293 43.19 66.5025C43.19 64.9969 43.4758 63.5958 44.0474 62.2993C44.6329 60.9888 45.6645 59.6714 47.1423 58.347C48.634 57.0226 50.6972 55.6842 53.3321 54.3319L53.9385 55.3984ZM65.1292 60.5845C66.2026 60.5845 67.1646 60.8494 68.015 61.3791C68.8793 61.9089 69.5485 62.6338 70.0225 63.554C70.5104 64.4741 70.7544 65.4987 70.7544 66.628C70.7544 68.0918 70.4686 69.451 69.897 70.7057C69.3254 71.9465 68.3008 73.2012 66.823 74.4698C65.3592 75.7384 63.3099 77.021 60.675 78.3175L60.0686 77.251C62.7453 75.5502 64.6691 73.9191 65.8402 72.3577C67.0112 70.7963 67.5967 69.1861 67.5967 67.5272C67.5967 66.6349 67.4573 65.8124 67.1785 65.0596C66.8997 64.2928 66.4815 63.6864 65.9238 63.2403C65.3801 62.7802 64.704 62.5502 63.8954 62.5502C62.3061 62.5502 61.5115 63.6097 61.5115 65.7288C61.5115 66.9974 61.8739 68.0709 62.5989 68.9491C63.3238 69.8135 64.2579 70.4548 65.401 70.873L64.6482 72.0231C63.4911 72.0231 62.4246 71.7931 61.4487 71.3331C60.4868 70.873 59.727 70.2457 59.1694 69.451C58.6117 68.6424 58.3329 67.7572 58.3329 66.7952C58.3329 65.7776 58.6605 64.7877 59.3158 63.8258C59.9849 62.8639 60.8493 62.0832 61.9088 61.4837C62.9683 60.8842 64.0418 60.5845 65.1292 60.5845ZM79.4356 54.3319C80.3418 54.3319 81.1504 54.5132 81.8614 54.8756C82.5724 55.2381 83.1231 55.733 83.5134 56.3604C83.9177 56.9738 84.1198 57.6639 84.1198 58.4306C84.1198 59.2531 83.8131 60.0199 83.1997 60.7309C82.5863 61.4279 81.8196 61.9856 80.8995 62.4038C79.9793 62.822 79.0941 63.0312 78.2437 63.0312C77.3375 63.0312 76.5289 62.8569 75.8179 62.5084C75.1069 62.1459 74.5493 61.651 74.145 61.0236C73.7407 60.3963 73.5386 59.6992 73.5386 58.9325C73.5386 58.1239 73.8453 57.3641 74.4587 56.6531C75.0721 55.9421 75.8389 55.3775 76.759 54.9593C77.693 54.5411 78.5852 54.3319 79.4356 54.3319ZM78.4528 55.9212C76.8635 55.9212 76.0689 56.6949 76.0689 58.2424C76.0689 59.1486 76.3338 59.9084 76.8635 60.5218C77.4072 61.1352 78.1879 61.4419 79.2056 61.4419C80.7949 61.4419 81.5895 60.6682 81.5895 59.1207C81.5895 58.2006 81.3177 57.4408 80.774 56.8413C80.2442 56.2279 79.4705 55.9212 78.4528 55.9212ZM75.6297 75.3272L74.7933 74.658L92.7354 53.6419L93.5719 54.311L75.6297 75.3272ZM89.7242 66.5861C90.6303 66.5861 91.4389 66.7674 92.1499 67.1298C92.8609 67.4923 93.4116 67.9872 93.8019 68.6146C94.2062 69.228 94.4083 69.918 94.4083 70.6848C94.4083 71.5073 94.1016 72.2671 93.4882 72.9642C92.8748 73.6752 92.1081 74.2398 91.188 74.658C90.2679 75.0762 89.3826 75.2854 88.5322 75.2854C87.626 75.2854 86.8174 75.1041 86.1064 74.7417C85.3955 74.3931 84.8378 73.9052 84.4335 73.2778C84.0292 72.6505 83.8271 71.9534 83.8271 71.1867C83.8271 70.3781 84.1338 69.6183 84.7472 68.9073C85.3606 68.1963 86.1274 67.6317 87.0475 67.2135C87.9815 66.7952 88.8737 66.5861 89.7242 66.5861ZM88.7413 68.1754C87.152 68.1754 86.3574 68.9491 86.3574 70.4966C86.3574 71.4028 86.6223 72.1626 87.152 72.776C87.6957 73.3894 88.4764 73.6961 89.4941 73.6961C91.0834 73.6961 91.878 72.9223 91.878 71.3749C91.878 70.4548 91.6062 69.695 91.0625 69.0955C90.5327 68.4821 89.759 68.1754 88.7413 68.1754Z" fill="white"/>
<path d="M104.01 104.615C107.359 107.965 107.389 113.449 103.624 116.323C94.1746 123.536 82.8603 128.023 70.9188 129.199C56.1176 130.657 41.2688 126.938 28.9025 118.675C16.5362 110.412 7.41751 98.1168 3.10015 83.8844C-1.2172 69.652 -0.466101 54.3629 5.22549 40.6221C10.9171 26.8814 21.197 15.5393 34.3137 8.52828C47.4303 1.51727 62.5722 -0.728814 77.1592 2.17273C91.7463 5.07427 104.876 12.9439 114.311 24.4408C121.923 33.7163 126.751 44.8897 128.332 56.6715C128.962 61.3662 125.063 65.2232 120.327 65.2232C115.59 65.2232 111.829 61.352 110.972 56.6933C109.536 48.8903 106.143 41.5275 101.051 35.323C94.1337 26.8939 84.5074 21.1242 73.8127 18.9968C63.118 16.8695 52.0165 18.5163 42.3999 23.6565C32.7832 28.7967 25.2463 37.1124 21.0735 47.1866C16.9006 57.2608 16.3499 68.4702 19.5152 78.9049C22.6806 89.3396 29.3661 98.354 38.4326 104.412C47.4992 110.47 58.3858 113.197 69.2375 112.128C77.2253 111.342 84.8303 108.534 91.3633 104.032C95.2637 101.344 100.66 101.266 104.01 104.615Z" fill="white"/>
</svg>
