<svg width="124" height="103" viewBox="0 0 124 103" fill="none" xmlns="http://www.w3.org/2000/svg">
<circle cx="22.8215" cy="27.3469" r="7.34694" fill="#F9D483"/>
<circle cx="30.1692" cy="43.2649" r="7.34694" fill="#F9D483"/>
<circle cx="25.2708" cy="89.7962" r="7.34694" fill="#F9D483"/>
<circle cx="19.1477" cy="72.6516" r="7.34694" fill="#F9D483"/>
<circle cx="14.2512" cy="54.2844" r="7.34694" fill="#F9D483"/>
<circle cx="8.12819" cy="37.1438" r="7.34694" fill="#F9D483"/>
<circle cx="32.6184" cy="60.4094" r="7.34694" fill="#F9D483"/>
<circle cx="40.2083" cy="23.6751" r="7.34694" fill="#F9D483"/>
<circle cx="44.6172" cy="33.4062" r="6" fill="#F9D483"/>
<circle cx="44.8626" cy="94.6946" r="7.34694" fill="#F9D483"/>
<circle cx="62.0051" cy="92.2454" r="7.34694" fill="#F9D483"/>
<circle cx="79.1477" cy="91.0188" r="7.34694" fill="white" fill-opacity="0.2"/>
<circle cx="50.9856" cy="7.75319" r="7.34694" fill="white" fill-opacity="0.2"/>
<circle cx="58.3313" cy="23.6751" r="7.34694" fill="white" fill-opacity="0.2"/>
<circle cx="65.679" cy="39.593" r="7.34694" fill="white" fill-opacity="0.2"/>
<circle cx="69.3528" cy="8.97975" r="7.34694" fill="white" fill-opacity="0.2"/>
<circle cx="76.6985" cy="24.8977" r="7.34694" fill="white" fill-opacity="0.2"/>
<circle cx="82.8215" cy="43.2649" r="7.34694" fill="white" fill-opacity="0.2"/>
<circle cx="90.1692" cy="60.4094" r="7.34694" fill="white" fill-opacity="0.2"/>
<circle cx="108.536" cy="54.2844" r="7.34694" fill="white" fill-opacity="0.2"/>
<circle cx="108.536" cy="72.6516" r="7.34694" fill="white" fill-opacity="0.2"/>
<circle cx="93.843" cy="81.2258" r="7.34694" fill="white" fill-opacity="0.2"/>
<circle cx="76.6985" cy="73.8782" r="7.34694" fill="white" fill-opacity="0.2"/>
<circle cx="58.3313" cy="75.1008" r="7.34694" fill="#F9D483"/>
<circle cx="39.9641" cy="77.5501" r="7.34694" fill="#F9D483"/>
<circle cx="70.5774" cy="56.7337" r="7.34694" fill="white" fill-opacity="0.2"/>
<circle cx="52.2102" cy="57.9602" r="7.34694" fill="#F9D483"/>
<path d="M63.1987 40.5508H56.1236V39.6471L58.2616 37.972V29.7508L55.8371 29.0014L56.3881 27.8994H63.4852V28.803L61.3473 30.4781V38.6994L63.7497 39.4487L63.1987 40.5508ZM77.1951 39.3165V43.9671L74.1094 45.2675V39.3165H65.9543V38.4128L74.1094 28.5606L77.1951 27.2602V37.5312H80.5674L79.7959 39.3165H77.1951ZM74.1094 31.0512L68.8417 37.5312H74.1094V31.0512ZM82.5733 43.6585L81.2288 43.394L87.0255 19.7442L88.392 20.0087L82.5733 43.6585ZM101.208 40.9475L99.7754 40.5508H89.7028V39.6471C91.5689 38.1336 92.9869 36.9287 93.9567 36.0324C94.9265 35.1361 95.6024 34.4014 95.9844 33.8283C96.3665 33.2553 96.5575 32.7263 96.5575 32.2414C96.5575 31.5508 96.315 30.9851 95.8301 30.5442C95.3452 30.1034 94.7207 29.883 93.9567 29.883C93.0016 29.883 91.7967 30.39 90.342 31.4038L89.6807 30.412L92.8105 27.9214C93.266 27.7598 93.8538 27.6789 94.5738 27.6789C95.6465 27.6789 96.5869 27.8185 97.395 28.0977C98.2179 28.3622 98.8497 28.7442 99.2905 29.2438C99.7314 29.7434 99.9518 30.3238 99.9518 30.9851C99.9518 31.6022 99.5109 32.4545 98.6293 33.5418C97.7624 34.6145 96.3811 35.9149 94.4856 37.443H99.5771L100.326 35.5916L101.208 35.8781V40.9475ZM115.496 22.2128C112.66 24.0789 110.617 25.8789 109.368 27.6128C108.134 29.332 107.517 31.11 107.517 32.9467C107.517 33.99 107.664 34.9524 107.958 35.834C108.252 36.701 108.685 37.3989 109.258 37.9279C109.846 38.4422 110.566 38.6994 111.418 38.6994C113.093 38.6994 113.931 37.5753 113.931 35.3271C113.931 33.99 113.527 32.8659 112.719 31.9549C111.925 31.0438 110.904 30.3679 109.655 29.9271L110.448 28.7149C111.697 28.7149 112.843 28.9573 113.887 29.4422C114.93 29.9271 115.753 30.5957 116.355 31.4479C116.958 32.2855 117.259 33.2112 117.259 34.2251C117.259 35.283 116.906 36.3189 116.201 37.3328C115.51 38.3467 114.607 39.1769 113.49 39.8234C112.388 40.4553 111.264 40.7712 110.118 40.7712C108.972 40.7712 107.943 40.4773 107.032 39.8896C106.136 39.2871 105.43 38.4643 104.916 37.421C104.417 36.3777 104.167 35.2096 104.167 33.9165C104.167 32.3296 104.468 30.8528 105.07 29.4863C105.688 28.1051 106.775 26.7165 108.332 25.3206C109.905 23.9247 112.079 22.514 114.857 21.0887L115.496 22.2128Z" fill="white"/>
</svg>
