<svg width="268" height="218" viewBox="0 0 268 218" fill="none" xmlns="http://www.w3.org/2000/svg">
<path d="M30.8078 114.343C30.8078 114.343 31.3519 113.973 30.9384 113.908L6.95412 114.191C4.77769 113.952 2.90596 112.624 2.60126 110.361C1.68716 103.592 2.03541 95.5391 1.73071 88.6399C1.27366 78.3671 0.490135 67.8985 0.294256 57.604C0.207199 53.2947 -0.641565 48.1365 5.23479 48.1148C18.4022 49.3118 31.5913 50.6394 44.7587 51.7929C53.1162 52.5329 62.2136 52.6417 70.4405 53.7735C71.1588 53.8823 72.0076 53.9694 72.5735 54.4699C73.1829 55.1011 71.7247 55.6452 71.2894 55.4929L5.64832 49.8124L8.1947 112.776L62.2137 111.601L62.5401 111.362C66.3489 101.938 71.6376 92.5792 73.0958 82.3717C74.1405 74.9937 73.4876 67.4414 73.9881 60.1069C74.6411 50.0953 81.388 42.8043 88.0696 36.0356C87.5255 34.8821 87.3514 33.3368 86.8943 32.2051C86.6549 31.5957 86.0238 31.1386 85.6973 30.2898C85.1532 28.8316 85.0443 27.2864 85.7843 25.8717C86.0455 25.3493 86.8726 24.7617 86.9161 24.4788C87.0249 23.9347 85.7844 22.5853 86.3067 20.4741C86.8726 18.1889 88.5702 17.9495 89.0708 17.0354C89.3319 16.5566 89.2013 15.7513 89.3972 15.1201C90.2243 12.6825 92.2048 11.1373 94.8383 11.0937C94.9253 7.95967 99.4306 5.8703 102.195 6.87145C102.608 4.78208 104.523 3.43271 106.569 3.1933C107.766 3.06272 109.899 3.60682 110.465 3.498C110.574 3.498 111.357 2.23566 111.967 1.82214C113.055 1.14745 114.535 0.82099 115.797 0.995104C116.516 1.10393 118.278 2.06155 118.648 1.99626C119.693 1.82214 121.108 0.342178 123.175 0.385707C125.091 0.429235 126.832 1.99626 127.441 2.06155C128.203 2.14861 129.835 1.21274 131.642 1.49567C132.991 1.71332 134.188 3.25859 134.819 3.41094C135.255 3.51976 136.691 3.08448 137.583 3.17153C139.977 3.38918 140.13 4.56444 141.523 5.71795C142.916 6.87146 144.722 6.93675 145.897 8.67789C146.855 10.0926 146.463 11.8337 146.811 12.4431C147.094 12.9437 148.291 13.3354 148.857 15.0548C149.597 17.253 148.857 18.1236 149.01 19.6906C149.075 20.3435 150.011 21.6059 150.141 22.8029C150.315 24.457 149.815 26.2199 149.88 27.5911C149.902 28.3528 150.577 29.2887 150.751 30.1157C151.186 32.0527 151.621 34.338 150.99 36.2315C157.476 33.9462 161.502 39.1261 162.003 45.1331C162.503 51.14 161.285 60.1069 154.995 62.9362C155.952 68.5514 157.236 74.1449 159.544 79.3683C168.249 81.3488 176.672 84.4611 184.79 88.1393C194.497 92.5574 203.681 97.7373 208.208 107.967C211.299 108.032 214.411 107.814 217.502 107.945C221.223 108.097 226.077 108.097 229.298 109.991C230.691 110.818 231.279 111.775 232.454 112.755C240.746 112.885 249.016 113.647 257.309 114.169C259.986 114.322 263.511 114.104 266.08 114.431C266.689 114.518 266.972 114.648 267.342 115.149L266.646 115.845L249.278 114.996L249.038 126.379C249.517 127.794 256.786 127.293 257.178 129.252C257.374 130.275 256.939 132.647 256.155 133.322C255.48 133.888 253.195 134.149 252.238 134.214C245.882 134.65 239.027 133.888 232.65 133.953L230.909 150.015L250.975 151.582L250.801 152.562L230.909 151.56L223.9 208.866L240.354 211.303L240.528 212.435L219.7 210.237C216.631 215.547 209.601 215.177 204.269 214.699C201.483 214.437 198.632 213.937 195.89 213.48C185.944 211.826 176.258 208.235 166.225 207.712C163.744 208.518 161.154 209.715 158.542 209.889C151.447 210.411 144.091 205.71 138.236 202.271C137.257 209.127 127.811 210.563 122.131 211.303C102.26 213.893 82.6068 219.117 62.3007 216.962C59.8631 216.701 52.2239 215.939 53.3121 212.217C54.6615 207.582 65.3477 204.883 69.5482 203.882C77.5792 201.966 85.8279 201.205 94.0548 200.857C93.4454 197.853 94.2072 194.741 93.3148 191.803L65.9571 188.124C58.8402 190.932 50.7439 192.847 45.3028 185.948C40.1229 184.969 34.7906 184.773 29.6107 183.859C28.9796 183.75 27.5431 183.619 27.3037 183.053L27.4996 182.226L44.4105 184.163C40.0576 174.326 41.9728 164.205 44.911 154.303C49.0898 140.156 55.8367 126.923 61.626 113.429L42.9958 113.582V129.121C44.2364 129.927 51.4839 129.861 51.745 130.667C51.8974 131.864 50.7657 131.711 49.9169 131.646C48.2628 131.537 44.6934 131.211 43.2134 130.732C40.7105 129.905 41.6464 125.596 41.6029 123.31C41.6029 122.636 41.2981 122.026 41.2981 121.352C41.2981 119.132 41.7552 116.933 41.6029 114.692L32.2878 114.975V128.664C32.2878 129.426 31.3955 130.688 30.6119 130.928C28.3049 131.646 22.9291 131.32 21.188 132.495C20.1215 133.213 20.2957 134.149 20.7962 135.215C21.0356 135.39 24.4744 135.803 25.1056 135.847C32.8319 136.325 41.037 135.477 48.8286 135.847C49.5033 135.847 49.8733 136.717 49.2639 137.131C41.9728 136.957 34.3553 137.979 27.0861 137.566C25.3014 137.457 19.7298 137.109 19.1857 135.302C17.1834 128.838 27.0426 130.841 30.2854 129.448C30.5684 129.317 30.9166 128.556 30.9166 128.36C30.9166 123.659 30.8078 118.936 30.9166 114.235L30.8078 114.343ZM104.197 83.6994C104.676 78.8459 108.484 76.6913 112.729 75.4289C119.824 73.3396 129.4 71.0761 135.777 75.9513C136.299 76.343 137.736 78.1059 138.149 78.0189C148.161 71.1414 146.942 55.5146 143.895 45.2201C142.785 41.4331 142.067 40.3667 139.477 37.5156C138.323 36.2315 133.579 32.2704 133.143 31.4216C132.164 29.5498 132.229 22.9117 130.532 21.8888C129.335 21.1924 122 21.9323 120.172 22.15C112.424 23.0423 103.849 25.1752 96.7536 28.3746C95.2736 29.0275 90.1155 31.5521 89.6367 32.8362C89.5278 33.0974 89.2014 34.1856 89.9196 33.968C91.0296 33.6415 92.9884 31.8133 94.5989 31.291C97.2106 30.4422 100.345 30.4204 100.802 33.685C105.329 32.2268 108.484 35.6874 106.46 39.9967C109.507 41.8249 109.703 44.2407 107.309 46.8307C107.657 47.7448 108.506 47.9407 108.68 49.0724C109.616 54.8182 100.279 65.9832 97.9723 71.3808C98.1247 74.2319 98.9735 77.2136 100.366 79.6947C101.193 81.1747 102.478 83.1553 104.175 83.6341L104.197 83.6994ZM99.0823 32.9233C97.82 32.3139 96.1442 32.7927 94.8819 33.3151C90.0502 35.3391 80.9092 46.3301 78.4716 51.053C74.3146 59.1057 76.1863 69.8355 75.4028 78.7589C74.0316 94.6686 63.933 112.298 57.5779 126.989C51.5056 141.026 40.7323 163.64 44.4975 178.853C49.0245 197.091 67.1976 186.34 76.121 178.287C81.0615 173.825 85.7844 168.449 89.7454 163.117C88.5919 156.283 85.1314 149.928 80.7786 144.683C79.7121 150.82 78.7109 157.263 76.4692 163.095C75.9469 164.488 73.0958 170.931 71.594 170.931C71.1805 170.952 70.8976 170.626 70.8759 170.234C70.8759 169.886 73.6834 164.902 74.1187 163.857C80.1257 149.536 81.6927 126.553 84.805 110.731C86.6332 101.437 87.6996 99.522 92.2048 91.578C96.1224 84.6787 96.0136 77.6271 96.5577 69.9661C99.1912 65.3303 102.543 60.7816 104.915 56.0152C105.916 54.0129 108.158 49.8777 106.286 48.1148C105.481 47.9842 100.366 54.4264 99.5612 55.4711C97.733 57.8652 95.9047 61.391 94.033 63.4804C93.7283 63.8286 93.4454 64.2856 92.9013 64.1986C92.1613 63.3715 96.9712 56.1893 97.7547 55.0793C98.9953 53.3164 100.541 51.3141 101.933 49.66C103.326 48.006 107.092 45.1984 107.157 43.1743C107.179 42.0861 105.895 40.2361 104.741 40.6061C104.153 40.7802 97.0365 47.6795 96.1442 48.6806C93.1842 51.9235 91.2689 55.8846 88.6572 58.9969C88.3743 59.3451 88.0479 59.7804 87.5255 59.6934C86.9596 59.0404 89.1143 55.5581 89.5496 54.8182C92.4878 49.8341 98.0377 43.4572 102.63 39.9532C103.544 39.2567 104.197 38.8867 105.329 38.6473C105.96 36.3403 104.436 34.8168 102.064 35.165C99.4959 35.5568 91.3778 43.7184 89.4843 46.0254C87.199 48.833 85.4144 52.4023 83.2597 55.0576C82.5198 55.9717 81.9538 55.8629 82.1932 54.557C82.3456 53.6647 83.9997 51.0747 84.5655 50.1389C87.0684 45.9819 90.4419 41.9772 93.9895 38.6691C95.0995 37.6244 100.062 34.5339 99.0388 32.9233H99.0823ZM152.971 37.755C151.774 37.9726 150.381 39.1479 149.706 40.1273C145.832 45.786 149.205 55.1882 151.338 60.9775C158.978 62.5445 160.893 51.2488 160.349 45.7642C159.957 41.8902 157.65 36.8844 152.971 37.755ZM4.5601 49.8342C2.60132 49.6165 1.79604 51.4229 1.77428 53.1206C1.70898 56.4505 2.23133 60.4551 2.31838 63.8068C2.64485 76.5389 2.99304 89.2493 3.71126 101.938C3.86361 104.397 3.60245 108.01 4.0595 110.339C4.34244 111.754 5.71357 112.624 7.10649 112.515L4.5601 49.8342ZM153.319 63.0886H151.621C156.431 80.6088 142.894 99.5002 124.938 100.915L124.808 101.481C137.257 109.708 152.492 100.654 157.193 88.0087C157.672 86.7028 158.738 83.7211 158.695 82.437C158.651 80.9571 155.735 74.7107 155.104 72.469C154.255 69.4655 153.537 66.1791 153.341 63.0886H153.319ZM88.3961 104.593C91.7695 98.2379 96.9712 93.4933 103.043 89.7716C100.998 86.3546 99.1694 82.72 97.9941 78.9112L96.7753 85.4623C95.426 92.2963 89.5496 96.932 88.222 103.744C88.1567 104.027 87.8519 104.68 88.3743 104.593H88.3961ZM124.198 79.5642C120.955 79.8471 112.772 81.7188 110.334 83.7647C107.353 86.2458 110.052 91.0992 113.251 91.7957C117.016 92.601 118.431 90.2939 121.717 89.7934C125.004 89.2928 128.159 90.4245 130.902 88.2481C132.316 87.1164 133.601 84.5046 133.035 82.72C131.859 78.9547 127.419 79.2812 124.22 79.5642H124.198ZM188.882 170.669C187.184 170.495 184.137 170.604 182.592 170.038C182.222 169.908 181.982 169.734 181.874 169.342C180.568 156.37 177.913 143.442 177.02 130.427C176.933 129.034 176.694 126.64 176.715 125.356C176.803 122.744 178.043 122.353 178.391 125.356C178.87 129.557 179.001 133.801 179.588 138.001L183.767 168.275C194.823 170.104 206.315 167.709 216.522 163.444C217.763 162.921 224.771 159.831 224.945 158.895C220.527 145.771 216.936 132.343 211.582 119.545C205.096 104.071 201.157 97.9767 185.682 90.6857C177.76 86.964 169.207 83.6776 160.654 81.6971C159.544 97.7156 140.609 112.951 125.287 103.94C124.351 103.396 122.131 101.394 121.5 101.241C120.281 100.915 118.126 101.067 116.624 100.763C112.554 99.9355 108.876 97.0191 106.199 93.9721C105.72 93.428 104.893 91.5563 104.132 91.6216C103.74 91.6651 101.759 92.9274 101.259 93.2539C94.9689 97.2585 90.1155 104.419 86.7638 110.948L81.388 141.679C87.8084 150.276 92.8142 159.874 92.6619 170.909L93.2277 170.495C93.3583 165.751 93.1189 160.658 94.0112 156.044L95.4695 153.824C95.9265 145.836 96.1877 137.805 96.8841 129.84C96.9712 128.773 98.0812 116.977 98.7123 116.999C99.6482 117.02 99.4523 118.522 99.4306 119.132C99.2347 123.158 98.56 127.228 98.2988 131.254C97.7982 138.632 97.6459 146.054 96.8841 153.41C105.416 150.516 115.427 149.993 124.394 150.864C129.313 151.343 140.63 152.583 140.064 159.33C140.979 159.047 141.261 158.199 142.241 157.698C144.504 156.523 146.637 157.176 148.901 158.003C159.478 161.877 164.897 165.903 169.577 176.285C170.143 177.547 170.883 181.312 172.167 181.573C174.604 182.074 178.87 182.4 181.417 182.509C184.877 182.64 188.272 182.096 191.733 182.204L188.903 170.626L188.882 170.669ZM233.194 126.901H239.266L239.68 126.205L239.963 115.04L233.041 114.191C233.868 118.348 233.411 122.701 233.172 126.901H233.194ZM239.549 128.316C237.634 128.643 234.935 128.077 232.911 128.316L232.628 132.56C238.591 132.212 244.62 133.17 250.562 132.843C251.563 132.8 254.871 132.582 255.328 131.973C255.611 131.603 255.959 130.079 255.742 129.753C254.175 129.013 248.429 128.991 247.732 127.467L247.863 116.172L241.377 115.606L241.029 126.989C240.964 127.663 240.158 128.207 239.527 128.316H239.549ZM96.1224 156.37C95.4041 157.11 95.23 159.504 95.1647 160.636C94.5771 170.299 95.1648 181.421 95.4695 191.128C95.5783 194.458 95.2954 197.984 95.7524 201.292C96.253 204.948 98.9517 206.123 102.173 207.277C109.594 209.932 118.823 210.237 126.505 208.626C129.161 208.06 134.362 206.515 135.69 203.991C136.452 202.511 136.539 199.659 136.669 197.897C137.387 188.016 137.496 177.612 137.779 167.666C137.866 164.597 138.497 161.137 138.084 158.068C137.779 155.783 134.362 154.89 132.491 154.346C123.937 151.865 108.267 151.713 99.8223 154.542C98.8212 154.869 96.8188 155.609 96.1224 156.349V156.37ZM209.775 183.097C209.536 184.751 206.859 183.684 205.706 183.641C198.48 183.423 191.82 184.403 184.812 184.512C180.655 184.577 176.063 183.402 172.254 183.51C171.775 183.51 171.514 184.033 171.013 183.902C169.794 183.619 167.836 177.22 167.205 175.828C163.113 166.817 157.694 163.596 148.792 160.07C146.354 159.113 142.763 157.872 141.719 161.18C141.719 161.441 141.849 161.594 142.023 161.768C142.916 162.617 149.205 164.227 151.251 165.511C153.036 166.621 154.211 168.645 155.299 169.364C156.322 170.038 159.217 170.452 160.654 171.083C161.589 171.496 164.179 173.02 161.502 172.802C156.584 172.389 150.794 169.799 145.549 169.538C143.177 169.429 142.393 169.864 141.218 171.975C139.324 175.414 141.262 176.85 144.33 177.786C147.399 178.722 151.6 179.201 154.298 180.507C154.69 180.703 155.017 180.855 155.256 181.225C154.647 181.943 153.471 181.66 152.666 181.573C149.031 181.182 144.504 179.528 141.044 178.309C139.694 178.57 139.412 183.162 139.89 184.185C141.022 186.688 150.99 189.039 153.689 190.083L153.863 191.237C153.188 191.955 144.33 188.799 142.937 188.19C141.74 187.667 140.674 186.906 139.455 186.449C139.586 188.298 138.824 190.388 139.172 192.238C139.433 193.587 143.851 195.785 145.179 196.395C147.007 197.222 149.358 197.766 151.012 198.745C151.208 198.854 152.035 198.963 151.578 199.442C150.86 200.204 147.334 198.941 146.354 198.615C143.59 197.635 141.327 196.068 138.737 194.937L138.345 199.551C144.156 204.252 152.927 209.236 160.61 207.516C162.438 207.103 164.44 205.928 166.138 205.71C171.492 204.992 183.745 209.105 189.687 210.346C195.999 211.652 207.011 213.98 213.127 212.609C222.965 210.389 222.486 193.457 221.855 185.774C221.267 178.657 219.831 171.562 219.025 164.445C210.211 168.384 200.547 171.039 190.797 170.648L193.648 181.922C199.024 181.726 204.53 181.334 209.71 183.075L209.775 183.097ZM140.064 163.052V169.407L140.761 169.821C143.329 166.23 148.27 168.362 151.904 168.689C148.944 165.337 143.83 165.141 140.043 163.052H140.064ZM93.4889 190.431L93.206 173.216C90.246 174.979 86.6549 175.458 83.6079 173.629C78.8633 178.635 73.727 183.336 67.8071 186.927L93.4889 190.453V190.431Z" fill="black"/>
<path d="M267.622 39.6934L267.796 40.5204L266.294 41.2822C247.468 45.3303 228.272 47.855 209.446 51.9031C208.075 52.2078 205.724 52.3166 205.049 53.7096L201.872 94.2999C201.785 95.0181 201.11 95.3011 200.588 94.7352C200.305 94.3435 200.435 92.4064 200.457 91.7753C200.914 79.5655 202.83 67.0511 203.287 54.776C203.548 53.0131 203.961 51.6419 205.877 51.1631L267.622 39.6934Z" fill="black"/>
<path d="M190.23 53.5798C191.775 53.4927 194.996 53.0792 196.063 54.3633C196.759 55.1903 196.542 59.6303 196.498 60.9796C196.215 68.2707 195.41 75.997 194.801 83.288C194.692 84.5286 195.171 90.7532 193.146 88.9032C193.756 81.0246 194.082 73.1024 194.518 65.2019C194.605 63.5478 195.649 56.1697 194.801 55.2992C194.126 54.6245 192.211 54.951 191.275 54.8857L164.156 57.4321L163.177 56.9968C162.829 55.8868 164.831 55.8868 165.615 55.7562C172.927 54.5809 182.721 53.9498 190.208 53.5363L190.23 53.5798Z" fill="black"/>
<path d="M21.9746 61.4355C25.914 61.762 29.8533 62.2408 33.7926 62.5455C43.2383 63.242 53.2064 63.4596 62.5868 64.5261C64.1756 64.7002 67.2878 65.3531 64.3279 66.4849C51.0299 64.8961 37.5143 64.7437 24.2164 63.3943C22.8887 63.2637 20.4076 63.1114 21.9964 61.4355H21.9746Z" fill="black"/>
<path d="M214.016 72.4264C213.82 70.8594 216.475 70.7723 217.629 70.5329C226.726 68.7482 236.346 68.0083 245.487 66.2018C247.772 66.0277 247.446 67.7471 245.378 67.8124C235.846 68.8353 225.834 71.5776 216.366 72.3829C215.583 72.4482 214.799 72.4264 213.994 72.4264H214.016Z" fill="black"/>
<path d="M55.0295 94.5184C55.9001 95.1931 54.7466 95.8895 53.8325 95.8895C51.2643 95.8895 47.9997 95.3889 45.3662 95.2801C38.5322 94.9972 31.5676 94.9972 24.7554 94.4313C23.9284 94.366 21.7955 94.3007 22.0784 93.169C22.2743 92.5161 25.1689 92.7119 25.8871 92.7337C29.8265 92.8643 33.7876 93.4084 37.7269 93.6043C42.885 93.8437 48.4349 93.6696 53.5495 94.1701C53.8977 94.2137 54.8119 94.3443 55.0295 94.5184Z" fill="black"/>
<path d="M20.4449 68.9652C20.2491 68.6387 19.8791 68.0511 20.3579 67.7464C28.9548 67.7246 37.5734 68.9217 46.1921 69.3134C46.7362 69.3569 47.0626 69.7922 46.8885 70.2928C46.6709 70.9457 43.0363 70.7499 42.231 70.7281C35.8758 70.5105 28.563 69.901 22.2078 69.2916C21.6202 69.2264 21.0108 69.0523 20.4449 68.9434V68.9652Z" fill="black"/>
<path d="M228.344 95.0833C231.021 95.018 233.719 94.9092 236.396 95.0398L236.853 95.4098L236.57 96.2586C235.765 96.3457 234.96 96.6068 234.155 96.6721C226.755 97.2815 218.484 96.5633 210.997 96.9768C209.953 97.0421 209.67 96.128 210.584 95.6927C211.498 95.2575 215.786 95.6057 217.222 95.5621C220.878 95.4316 224.644 95.1486 228.3 95.0616L228.344 95.0833Z" fill="black"/>
<path d="M15.0039 157.676V156.544L17.6809 156.261C25.0155 155.5 33.1771 154.869 40.5334 154.542C41.0122 154.542 42.2092 154.433 42.3833 154.977C42.7533 156.131 40.0111 156.174 39.1405 156.24C34.0912 156.653 28.9766 156.762 23.9055 157.089C20.9455 157.284 17.9856 157.872 15.0039 157.654V157.676Z" fill="black"/>
<path d="M253.781 89.9032C253.433 90.4474 242.529 90.4473 240.962 90.4909C240.287 90.4909 239.678 90.7738 239.003 90.7956C236.892 90.8391 232.648 91.1003 230.798 90.7956C229.797 90.6215 229.797 89.555 230.798 89.3809C232.582 89.0544 235.586 89.468 237.588 89.3809C242.093 89.2068 246.62 88.7497 251.104 88.5103C252.388 88.445 254.194 88.1403 253.781 89.9032Z" fill="black"/>
<path d="M209.78 62.8071C209.671 62.0671 210.063 61.5448 210.781 61.4142C217.114 60.8918 224.579 58.2148 230.804 57.9972C231.37 57.9972 231.936 57.8448 232.349 58.4107C231.87 59.6513 230.434 59.586 229.259 59.8254C224.057 60.9136 217.658 62.1106 212.413 62.7418C211.521 62.8506 210.628 63.09 209.78 62.7853V62.8071Z" fill="black"/>
<path d="M51.6539 80.6538L51.6975 81.742L28.9756 81.1761C27.9962 81.0238 27.9526 79.9573 28.9756 79.7614C30.1508 79.5438 32.7408 79.7179 34.0684 79.7614C39.183 79.9138 45.4293 79.8703 50.4351 80.3273C50.8704 80.3708 51.2839 80.4579 51.6539 80.6538Z" fill="black"/>
<path d="M212.954 82.0897L232.237 79.478C233.195 79.3256 233.674 80.5444 232.738 80.8491L213.585 83.4173L212.736 82.8732L212.954 82.0897Z" fill="black"/>
<path d="M40.4051 99.2408L40.2745 100.394C39.7522 101.178 34.6158 100.394 33.484 100.373C30.3064 100.307 26.0407 100.786 23.0372 100.09C22.0578 99.8502 22.2972 99.502 22.6454 98.7402L40.3833 99.2626L40.4051 99.2408Z" fill="black"/>
<path d="M223.839 89.4474C224.622 89.4256 226.755 89.1427 227.299 89.4909L227.539 90.2962L226.581 91.0362C223.012 91.1232 219.421 90.9491 215.851 91.0362C214.807 91.0579 210.323 92.0373 210.084 90.6009C209.997 90.1003 210.671 89.7303 211.063 89.6432C213.849 89.0991 219.442 89.7303 222.642 89.6432C223.099 89.6432 223.491 89.4474 223.839 89.4256V89.4474Z" fill="black"/>
<path d="M213.715 78.0632L213.758 76.975L227.992 74.668C230.626 75.7344 227.644 76.2568 226.425 76.5179C224.924 76.8444 214.15 78.542 213.715 78.0632Z" fill="black"/>
<path d="M25.6498 87.7051L39.8618 88.3798C41.9077 90.1427 36.6189 89.6856 35.4872 89.6639C34.8778 89.6639 34.3337 89.4027 33.8114 89.3809C31.265 89.2939 28.4356 89.5333 25.9109 89.098C25.0186 88.9456 24.9097 87.9663 25.6715 87.7268L25.6498 87.7051Z" fill="black"/>
<path d="M252.346 54.1439C253.956 53.9915 256.002 54.6227 253.956 55.4715C253.02 55.8632 242.748 57.5609 241.812 57.4738C240.071 57.2997 240.985 56.1897 242.16 55.8197C244.402 55.145 249.886 54.3833 252.324 54.1439H252.346Z" fill="black"/>
<path d="M225.812 64.2852C226.422 64.2852 226.683 64.4157 226.944 64.9816L226.509 65.8739C223.005 65.9828 219.261 67.3974 215.822 67.6151C215.191 67.6586 214.429 67.7892 213.994 67.2016L214.756 66.2657C218.26 65.9175 222.33 64.3722 225.79 64.2852H225.812Z" fill="black"/>
<path d="M20.5782 73.0371L30.938 73.8641C32.0915 75.0177 30.9815 75.2571 29.828 75.2788C27.6951 75.2788 23.2116 74.9959 21.1005 74.6694C20.5999 74.5824 20.1429 74.3865 19.8164 73.973L20.5782 73.0371Z" fill="black"/>
<path d="M247.822 60.6513C248.475 60.586 250.586 60.2377 250.129 61.5436C250.064 61.7395 249.825 61.8265 249.65 61.9136C249.041 62.2401 241.728 63.4806 240.967 63.4153C239.944 63.3065 239.487 62.61 240.466 62.0442C241.184 61.6306 246.669 60.7818 247.844 60.673L247.822 60.6513Z" fill="black"/>
<path d="M59.3172 70.4462L59.1865 71.295L58.8384 71.5126C57.7284 71.5779 56.5966 71.5997 55.4866 71.5779C54.6814 71.5562 51.112 71.2297 50.7203 70.9685C50.4591 70.7944 50.2415 70.6421 50.2632 70.2938L50.742 69.6191L59.2954 70.4244L59.3172 70.4462Z" fill="black"/>
<path d="M43.4755 76.039C42.1914 75.9084 35.0745 76.1696 35.0527 74.8202C35.4227 74.3196 35.6839 74.1673 36.3151 74.102C37.1421 73.9932 40.9291 74.3196 41.9303 74.4284C42.322 74.472 43.4756 74.6896 43.6714 74.9508L43.4538 76.0608L43.4755 76.039Z" fill="black"/>
<path d="M14.0924 60.6287C14.9195 60.4546 18.0318 60.5852 17.8142 61.804C17.5748 63.1534 14.2666 63.1099 13.309 62.4134C12.6343 61.5646 13.1349 60.8464 14.0707 60.6287H14.0924Z" fill="black"/>
<path d="M20.9028 88.4671C20.424 89.3376 15.8535 89.4029 15.8535 88.0753C15.8535 86.3777 21.8386 86.7912 20.9028 88.4671Z" fill="black"/>
<path d="M58.2074 94.7351C59.4044 94.3651 60.7103 94.3433 61.9509 94.5174C62.5167 94.6045 63.8879 94.7568 63.5832 95.7144C63.322 96.5632 57.0974 96.4109 58.2292 94.7351H58.2074Z" fill="black"/>
<path d="M44.233 100.938C43.9283 100.851 43.7106 100.286 43.8194 99.9591C44.2983 99.132 48.9994 99.6109 49.1735 99.8067C49.3476 100.003 49.0429 100.938 48.76 100.938H44.233Z" fill="black"/>
<path d="M188.883 170.669L191.712 182.248C188.273 182.139 184.856 182.683 181.396 182.552C178.849 182.444 174.584 182.117 172.146 181.617C170.862 181.355 170.122 177.59 169.556 176.328C164.899 165.946 159.479 161.898 148.88 158.046C146.638 157.219 144.484 156.566 142.22 157.741C141.241 158.242 140.98 159.091 140.044 159.373C140.61 152.627 129.292 151.386 124.373 150.907C115.407 150.037 105.395 150.537 96.8634 153.454C97.6252 146.097 97.7775 138.676 98.2781 131.297C98.561 127.271 99.2139 123.179 99.4098 119.175C99.4316 118.565 99.6492 117.064 98.6916 117.042C98.0387 117.042 96.9505 128.816 96.8634 129.883C96.1452 137.849 95.9057 145.88 95.4487 153.867L93.9905 156.087C93.0982 160.701 93.3158 165.794 93.207 170.538L92.6411 170.952C92.7717 159.918 87.7877 150.319 81.3672 141.723L86.743 110.991C90.0947 104.462 94.9481 97.3017 101.238 93.2971C101.76 92.9706 103.719 91.6865 104.111 91.6647C104.873 91.5994 105.7 93.4712 106.179 94.0153C108.856 97.0623 112.534 100 116.604 100.806C118.105 101.11 120.26 100.958 121.479 101.285C122.11 101.459 124.33 103.439 125.266 103.983C140.588 112.994 159.523 97.7587 160.633 81.7402C169.186 83.7208 177.739 87.0072 185.662 90.7289C201.158 98.0199 205.097 104.114 211.561 119.588C216.915 132.364 220.506 145.814 224.924 158.938C224.75 159.874 217.742 162.965 216.502 163.487C206.294 167.753 194.803 170.147 183.746 168.319L179.568 138.044C178.98 133.866 178.849 129.6 178.371 125.399C178.022 122.374 176.782 122.766 176.695 125.399C176.651 126.683 176.891 129.056 176.999 130.47C177.892 143.485 180.547 156.413 181.853 169.385C181.962 169.777 182.201 169.951 182.571 170.081C184.095 170.647 187.142 170.538 188.861 170.713L188.883 170.669Z" fill="#F9D483"/>
<path d="M96.1208 156.37C96.8173 155.63 98.8196 154.912 99.8208 154.564C108.265 151.735 123.936 151.887 132.489 154.368C134.361 154.912 137.778 155.805 138.082 158.09C138.496 161.18 137.865 164.619 137.778 167.688C137.473 177.612 137.364 188.037 136.668 197.918C136.537 199.66 136.472 202.532 135.688 204.012C134.361 206.559 129.159 208.104 126.504 208.648C118.821 210.259 109.593 209.954 102.171 207.299C98.9502 206.145 96.2297 204.948 95.7509 201.314C95.2938 197.984 95.5768 194.48 95.4679 191.15C95.1632 181.443 94.5756 170.321 95.1632 160.658C95.2285 159.526 95.4026 157.132 96.1208 156.392V156.37ZM135.253 160.223C135.862 159.374 132.358 157.981 131.88 157.829C124.414 155.369 107.83 155.282 100.474 158.046C97.7532 159.069 97.6008 159.679 100.365 160.854C107.329 163.814 125.329 163.618 132.576 161.354C133.512 161.05 134.361 160.571 135.275 160.244L135.253 160.223Z" fill="white"/>
<path d="M152.972 37.7557C157.651 36.9069 159.958 41.8909 160.35 45.7649C160.894 51.2495 159 62.5669 151.339 60.9781C149.185 55.1888 145.811 45.7867 149.707 40.128C150.382 39.1486 151.775 37.9733 152.972 37.7557ZM152.471 49.269C153.276 49.356 153.951 51.4454 154.299 51.5325C155.496 51.8154 154.8 49.639 154.299 49.0078C153.472 47.9849 152.645 48.4855 152.754 46.6137C152.928 43.7191 156.062 42.7179 156.149 42.3697C156.454 41.0203 154.103 42.0215 153.472 42.522C151.165 44.3067 150.121 51.3148 152.34 53.5348C153.407 52.3595 152.253 50.6836 152.493 49.3125L152.471 49.269ZM154.452 58.3011C154.647 57.2782 155.061 56.2118 153.603 56.0377C152.95 58.0617 153.146 60.6517 155.823 59.3894L155.866 57.7353L154.452 58.3011Z" fill="white"/>
<path d="M4.5628 49.8343L7.10919 112.515C5.73804 112.624 4.34514 111.732 4.0622 110.339C3.60515 108.01 3.84455 104.397 3.71396 101.938C2.97398 89.2494 2.64755 76.5391 2.32108 63.807C2.23403 60.4553 1.68992 56.4506 1.77698 53.1207C1.82051 51.4231 2.60402 49.6167 4.5628 49.8343Z" fill="white"/>
<path d="M239.546 128.318C240.155 128.209 240.96 127.665 241.048 126.99L241.396 115.607L247.881 116.173L247.751 127.469C248.447 129.014 254.193 129.036 255.76 129.754C255.978 130.081 255.63 131.604 255.347 131.974C254.89 132.584 251.581 132.801 250.58 132.845C244.639 133.149 238.61 132.192 232.646 132.562L232.929 128.318C234.932 128.078 237.652 128.644 239.568 128.318H239.546Z" fill="white"/>
<path d="M88.3937 104.594C87.8714 104.659 88.1761 104.028 88.2414 103.745C89.569 96.9329 95.4236 92.2971 96.7947 85.4632L98.0136 78.9121C99.1889 82.7426 101.017 86.3555 103.063 89.7725C96.9906 93.4942 91.789 98.2388 88.4155 104.594H88.3937Z" fill="white"/>
<path d="M233.195 126.902C233.413 122.701 233.891 118.348 233.064 114.191L239.985 115.04L239.703 126.205L239.289 126.902H233.217H233.195Z" fill="white"/>
<path d="M140.064 163.053C143.851 165.164 148.966 165.36 151.926 168.69C148.27 168.363 143.351 166.23 140.783 169.821L140.086 169.408V163.053H140.064Z" fill="white"/>
<path d="M135.251 160.225C134.337 160.573 133.488 161.052 132.553 161.335C125.305 163.599 107.306 163.794 100.341 160.834C97.5773 159.659 97.7297 159.05 100.45 158.027C107.807 155.263 124.413 155.35 131.856 157.809C132.357 157.983 135.861 159.355 135.229 160.203L135.251 160.225Z" fill="black"/>
<path d="M126.438 36.6464C131.335 36.1676 134.077 39.1493 136.929 42.6098C135.666 44.3945 133.533 42.4575 131.923 42.0222C128.31 41.021 120.562 44.438 116.405 44.9822C115.056 45.1563 112.966 45.2868 111.965 44.1986C111.464 43.6545 110.093 40.3028 110.681 39.8458C111.007 39.5846 112.923 39.1058 113.488 38.9752C117.08 38.1917 122.869 37.0164 126.438 36.6682V36.6464Z" fill="black"/>
<path d="M122.564 65.6371C127.396 67.0953 124.284 70.534 121.346 72.1881C117.493 74.3428 110.529 76.5627 107.329 72.2752C104.435 68.4229 107.83 65.7894 108.809 62.1983L109.441 57.7366C110.855 57.4755 110.79 61.5454 110.681 62.3724C110.42 64.1789 108.809 66.0941 108.222 67.8353C107.046 71.3828 110.79 73.3634 113.924 72.9716C115.643 72.754 123.196 69.9246 123.653 68.2705C123.957 67.1388 122.543 66.7688 122.564 65.6588V65.6371Z" fill="black"/>
<path d="M129.117 50.7494C130.118 49.77 130.967 51.0106 130.597 52.3817C129.552 56.4081 125.461 57.9534 121.783 56.3863C120.498 55.8422 119.563 54.1228 121.021 53.8399C121.891 53.6876 123.502 55.8205 126.222 54.5146C128.334 53.4917 128.181 51.6635 129.095 50.7711L129.117 50.7494Z" fill="black"/>
<path d="M152.471 49.2681C152.253 50.6393 153.407 52.3369 152.318 53.4904C150.098 51.2704 151.143 44.2841 153.45 42.4777C154.081 41.9771 156.454 40.9759 156.127 42.3253C156.04 42.6735 152.884 43.6747 152.732 46.5694C152.623 48.4411 153.472 47.9623 154.277 48.9634C154.8 49.5946 155.496 51.771 154.277 51.4881C153.929 51.401 153.254 49.3334 152.449 49.2246L152.471 49.2681Z" fill="black"/>
<path d="M154.448 58.3006L155.863 57.7347L155.82 59.3888C153.143 60.6511 152.947 58.0612 153.6 56.0371C155.058 56.2112 154.644 57.2777 154.448 58.3006Z" fill="black"/>
<path d="M122.781 82.9398C123.761 82.8527 129.115 82.5698 129.332 83.571C129.594 84.7027 125.785 84.2021 124.958 84.2674C121.301 84.6374 117.427 85.7474 113.923 86.7921C112.552 86.8574 113.053 85.878 113.815 85.2686C115.294 84.0715 120.779 83.1139 122.781 82.9398Z" fill="black"/>
</svg>
