<svg width="355" height="299" viewBox="0 0 355 299" fill="none" xmlns="http://www.w3.org/2000/svg">
<g style="mix-blend-mode:multiply" opacity="0.3">
<path d="M354.804 268.087L327.205 295.686L0.675781 298.14V38.314L38.2537 0.736328L354.804 268.087Z" fill="black"/>
</g>
<path d="M342.662 0.734375H38.2539V259.211H342.662V0.734375Z" fill="#02122D"/>
<path d="M354.788 246.209H26.1289V268.07H354.788V246.209Z" fill="#02122D"/>
<path d="M354.788 246.209H26.1289V252.759H354.788V246.209Z" fill="#4A5775"/>
<path d="M329.657 13.7383H51.2539V246.21H329.657V13.7383Z" fill="#FBF7EE"/>
<path d="M211.658 13.7422H51.2539V246.214H211.658V13.7422Z" fill="#FBF7EE"/>
<path d="M177.774 226.708C177.676 226.805 178.066 227.862 177.481 228.252C177.01 228.561 175.125 228.886 174.393 229.048C166.299 230.82 142.211 233.323 135.109 230.787C133.223 230.121 131.127 228.073 129.29 228.203L81.1641 245.627C83.5858 242.295 89.7294 242.213 92.8176 240.1C93.3377 239.743 93.5327 239.645 93.5814 238.946C93.7115 237.012 91.2735 228.593 90.7859 225.798C88.4779 212.779 83.7321 192.153 83.6346 179.606C83.4558 155.339 105.902 159.484 122.74 157.956C127.632 157.517 127.974 155.209 131.501 152.771C136.052 149.634 142.147 147.717 147.396 146.01C142.764 142.369 138.051 142.808 135.921 136.323C133.191 128.034 138.506 122.605 141.301 115.242C147.25 99.5904 148.615 83.142 168.802 78.9812C189.216 74.7716 208.899 83.9222 207.68 106.921C207.583 108.757 206.461 111.894 206.656 113.357C206.77 114.186 208.054 115.307 208.558 116.478C210.037 119.94 210.248 123.467 208.086 126.75C207.404 127.79 205.226 129.236 205.177 129.431C204.917 130.39 205.08 135.006 205.193 136.29C205.551 140.5 208.379 143.962 204.429 147.001C200.48 150.041 197.099 148.432 193.101 149.114C190.452 149.569 187.477 152.072 184.275 151.487L188.729 153.763C199.179 161.044 199.911 183.766 201.211 195.323L250.02 193.323C250.231 191.097 249.792 181.166 248.037 180.109L217.936 177.85C214.506 177.281 214.587 173.413 214.669 170.666C214.815 166.05 215.839 160.882 216.148 156.217C217.026 142.987 217.237 129.025 218.651 115.876C218.992 112.642 219.382 109.895 222.601 108.367C241.617 108.757 261.706 107.083 280.657 108.123C282.657 108.237 289.19 108.725 290.361 109.879C291.173 110.675 290.913 115.844 290.848 117.355C289.889 135.283 287.143 157.273 284.314 175.071C283.746 178.679 284.055 183.116 279.634 183.831L262.486 181.865L263.787 192.852L297.333 192.576C296.765 193.405 295.968 193.291 295.123 193.356C285.273 194.039 274.432 193.145 264.469 193.827C265.834 195.729 276.139 198.98 273.49 202.084C272.368 203.4 257.253 205.725 254.782 205.79C250.231 205.92 237.391 203.27 232.873 201.759C232.028 201.483 231.182 201.336 230.613 200.54L234.612 198.069L246.038 194.315L201.211 196.802L202.008 200.345C208.054 201.483 215.888 206.326 221.886 206.31C227.428 206.293 234.579 206.05 239.634 208.927C242.137 210.357 243.827 212.827 246.542 213.981C249.5 215.233 264.16 217.411 264.892 219.556C265.331 220.84 264.68 222.823 263.9 223.88C261.413 227.212 247.208 231.632 242.722 233.583C237.017 236.053 225.559 242.425 220.179 243.4C218.797 243.644 217.513 243.839 216.148 243.4L186.925 234.769C185.316 233.55 183.609 230.349 185.006 228.642C185.868 227.602 187.282 227.667 187.786 226.675H177.823L177.774 226.708ZM204.673 109.651H196.953C196.79 109.651 195.604 108.188 195.214 107.912C197.765 105.149 201.211 107.993 204.169 108.156C201.91 99.8505 195.766 91.9838 188.013 88.1968C184.503 93.0078 180.44 97.6725 176.035 101.687C171.907 105.474 165.308 108.448 165.031 114.625L170.053 116.998C172.849 110.821 181.35 108.822 186.21 113.877C188.485 116.25 187.656 119.647 191.882 118.639C193.654 112.495 198.676 110.188 204.624 112.626V109.635L204.673 109.651ZM289.759 110.724C289.532 110.383 285.436 109.7 284.607 109.651C265.184 108.188 243.941 110.789 224.324 109.651C222.422 109.732 220.894 111.049 220.65 112.951L216.668 168.391L278.577 174.437L286.818 110.659L279.357 180.89C276.935 181.231 279.373 175.9 278.869 175.412L216.116 169.935C215.303 176.631 217.952 176.29 223.348 176.908C241.861 179.037 260.747 178.825 279.13 182.304C282.624 182.239 282.332 179.183 282.77 176.582C285.924 157.989 288.833 134.177 289.825 115.389C289.906 113.845 289.873 112.268 289.759 110.724ZM185.072 114.803C181.252 110.968 173.792 112.187 171.695 117.274C166.283 130.407 186.99 132.942 187.282 120.866C187.331 118.997 186.404 116.136 185.088 114.803H185.072ZM203.178 128.586C202.707 124.897 207.29 115.031 202.609 113.471C197.278 111.699 193.426 115.762 193.214 120.882C192.954 127.481 197.359 128.993 203.178 128.586ZM205.161 127.091C209.565 125.336 208.314 119.094 206.64 115.632L205.161 127.091ZM188.729 120.118C188.956 134.324 167.014 133.235 169.582 118.623L164.332 116.136C162.479 126.685 162.317 137.477 162.268 148.188L161.878 148.789C160.561 149.732 154.239 147.359 152.386 147.018C155.312 156.477 176.132 165.546 176.799 150.333C174.15 148.627 170.46 147.31 169.306 144.027C171.89 145.002 173.288 146.92 175.937 148.09C189.785 154.267 201.52 143.799 202.674 130.065L195.197 129.074C196.14 134.031 189.785 138.16 187.233 133.072C198.123 135.575 191.833 126.262 191.492 120.573L188.712 120.102L188.729 120.118ZM178.278 151C175.905 167.513 154.142 157.273 150.387 146.741C149.461 146.156 140.603 149.553 138.945 150.268C121.96 157.664 118.644 172.292 115.67 189.244C114.792 194.25 110.014 231.129 111.541 232.689L128.965 227.212L124.056 219.426C121.196 210.568 120.058 200.67 120.009 191.357C120.757 191.324 120.855 193.096 120.936 193.648C122.691 205.611 122.041 225.554 136.442 229.942C141.935 231.616 154.418 230.283 160.578 229.698C165.812 229.194 171.013 228.041 176.262 227.715C176.539 226.188 175.238 227.033 174.312 225.928C171.354 222.336 172.996 214.696 174.767 210.779L150.615 210.292L148.128 209.3L145.901 179.898C146.633 179.817 146.795 181.198 146.844 181.686C147.819 190.252 148.144 198.947 148.875 207.561L149.363 208.569C156.271 210.081 163.536 208.927 170.574 209.268C172.28 209.349 175.466 209.56 177.01 209.804C177.595 209.902 178.196 210.113 178.278 210.779L176.295 211.283L183.739 210.779C185.137 197.728 185.949 184.579 185.754 171.446C186.372 170.634 186.648 171.446 186.746 172.178C187.282 176.436 186.924 184.108 186.762 188.642C186.583 193.681 186.161 199.012 185.738 204.067C185.559 206.196 185.104 208.666 184.747 210.796C192.792 210.584 201 209.252 208.818 211.755C210.703 209.382 212.345 207.171 215.612 206.814C215.563 206.131 214.88 206.017 214.393 205.806C212.263 204.831 201.488 202.019 200.789 201.223C197.408 184.66 200.854 153.877 178.261 151.032L178.278 151ZM124.983 158.476C111.086 160.719 87.2753 156.152 85.2111 175.721C84.1384 185.896 88.803 207.951 90.7859 218.841C91.7449 224.075 92.6228 229.536 93.858 234.688C94.0368 235.452 94.6868 239.076 95.3532 239.125C97.5149 237.776 109.9 234.542 110.469 232.851C110.42 222.401 111.265 211.966 112.614 201.613C113.963 191.259 115.832 178.273 119.636 168.781C121.082 165.156 123.374 161.971 124.983 158.444V158.476ZM250.979 197.826H261.934L260.942 181.393L249.988 180.646C251.385 186.286 250.946 192.056 250.995 197.826H250.979ZM249.988 194.835L232.564 199.825C232.564 200.345 233.035 200.507 233.441 200.686C236.253 201.905 245.583 203.742 248.882 204.164C256.846 205.172 265.184 203.287 272.888 201.304C273.522 200.491 265.054 195.615 264.16 195.339C262.763 194.916 263.835 197.435 263.201 198.346C259.284 199.256 254.929 199.483 250.784 199.24L250.036 198.492L249.971 194.835H249.988ZM225.591 210.276C229.232 210.926 233.149 214.274 235.538 217.004C237.033 218.727 239.683 224.237 241.78 224.253C245.128 224.286 242.917 219.719 242.121 217.898C237.586 207.659 227.574 206.131 217.432 207.821C215.531 208.146 208.753 210.487 211.158 213.006C211.922 213.803 215.904 216.013 217.367 217.248C219.009 218.63 222.292 223.197 224.242 222.644C225.006 222.433 228.224 218.288 228.094 222.206H226.095C226.517 223.327 227.607 223.587 228.696 223.587C229.151 223.587 230.938 223.359 230.581 222.466C230.321 221.832 225.445 218.207 224.632 217.947C222.536 217.297 221.967 218.337 220.13 218.727C220.553 216.208 222.909 215.753 225.087 216.517C229.021 217.882 232.922 225.879 236.53 220.922C234.124 216.663 230.678 213.965 226.583 211.511C225.949 211.137 225.315 211.608 225.608 210.276H225.591ZM245.014 222.238C251.613 221.669 245.355 215.655 243.031 213.51C241.617 212.21 239.374 210.194 237.554 209.788C241.048 213.347 244.266 217.086 245.03 222.238H245.014ZM222.601 225.716L222.357 223.733C217.14 219.849 213.174 214.42 206.656 212.551C201.715 211.137 196.563 212.031 191.476 211.755L175.629 212.844C173.321 214.908 173.028 224.14 175.807 225.472C181.22 225.976 187.477 224.432 192.873 225.342C195.961 225.863 205.242 233.095 206.965 230.722C207.55 227.667 202.902 225.391 200.659 224.01C200.155 223.701 195.766 222.076 196.725 221.23C201.666 220.206 208.233 229.926 210.524 230.608C211.939 231.031 214.035 230.218 213.596 228.561C213.06 226.48 204.039 220.645 202.203 218.76C207.452 220.093 213.125 224.627 215.205 229.65C216.538 230.023 217.952 229.389 218.147 227.943C218.7 223.782 210.346 218.419 207.176 216.501C206.542 216.127 205.908 216.598 206.201 215.265C208.249 215.509 209.988 216.907 211.613 218.061C213.499 219.394 220.845 227.52 222.617 225.732L222.601 225.716ZM263.429 220.239C263.217 219.377 262.275 219.134 261.56 218.89C257.431 217.46 251.84 216.842 247.501 215.769C248.574 217.947 250.199 218.484 249.272 221.279C248.573 223.408 246.623 222.888 245.16 223.636C244.217 224.123 243.535 225.212 242.56 225.521C242.121 225.667 237.082 226.691 236.79 226.691C235.067 226.659 232.808 224.237 231.605 223.977C230.484 223.733 226.989 226.415 225.347 223.262C224.21 223.945 224.193 225.472 223.381 226.269C221.56 228.057 216.294 227.342 220.439 231.763C221.95 232.006 231.312 227.39 233.913 226.838C234.969 226.61 235.213 226.529 235.051 227.732C232.125 228.041 221.609 233.713 219.61 232.478L218.602 230.218C217.335 231.047 215.725 230.446 214.474 230.82C213.759 231.031 213.434 232.039 212.361 232.218C210.459 232.559 209.435 231.21 208.395 231.226C207.534 231.242 206.916 232.266 206.168 232.51C202.69 233.615 196.335 226.822 191.947 226.708C190.143 226.659 186.973 228.301 185.738 229.715L216.489 237.061L219.805 237.142L263.413 220.239H263.429ZM263.916 221.23L218.732 238.54C208.704 236.346 198.773 233.615 188.745 231.421C188.225 231.307 185.348 230.235 185.754 231.421C186.063 232.299 187.217 233.632 188.111 234.038L218.212 242.522C226.892 240.198 234.937 235.696 243.161 232.088C247.939 230.007 253.092 228.561 257.773 226.285C260.048 225.18 263.153 223.961 263.9 221.214L263.916 221.23ZM234.547 223.733C235.213 225.407 237.407 225.895 238.529 224.465L237.294 222.254L234.563 223.75L234.547 223.733Z" fill="black"/>
<path d="M117.019 109.656V117.376L115.849 118.059L108.21 111.248C100.652 110.55 92.8991 113.654 86.8204 107.478C80.7416 101.301 84.0248 89.5665 91.6313 86.4946C95.971 84.7392 111.574 84.5929 116.028 85.9745C126.137 89.1114 128.055 106.502 117.019 109.639V109.656ZM116.158 108.778C116.499 108.485 118.059 108.274 118.872 107.77C126.511 102.992 123.634 87.8437 113.785 86.7384C109.803 86.2833 98.7991 86.2508 94.8983 86.7871C85 88.1524 81.2456 102.878 89.7786 108.258C94.8659 111.46 102.456 110.029 108.177 109.737L115.28 116.141L115.572 110.452C115.686 109.932 115.735 109.152 116.141 108.794L116.158 108.778Z" fill="black"/>
<path d="M170.885 50.4582C170.218 51.6447 168.333 58.6662 166.35 57.3334L163.343 50.6207C153.998 50.897 147.594 45.566 149.024 35.814C149.577 31.9944 152.762 27.6223 156.37 26.2245C159.621 24.9567 175.403 25.0868 179.548 25.4443C188.243 26.2245 191.982 35.6351 189.267 43.1767C186.358 51.2871 177.987 50.2795 170.901 50.4582H170.885ZM166.838 55.8544L170.316 49.613C176.492 48.0202 183.351 50.9783 187.154 44.542C191.153 37.7806 188.016 27.411 179.531 26.452C175.111 25.9482 165.147 26.0457 160.661 26.517C148.195 27.8335 146.082 44.9483 156.874 48.6053C159.524 49.4993 161.669 49.2392 164.351 49.5968L166.821 55.8381L166.838 55.8544Z" fill="black"/>
<path d="M258.944 93.2189C257.985 92.325 261.674 87.189 261.804 86.4088C261.934 85.5636 260.602 82.9631 260.423 81.5165C258.863 67.7337 268.013 64.288 280.057 65.8646C285.339 66.5634 290.361 71.3907 291.19 76.6568C293.173 89.3181 282.056 95.5757 270.776 93.1052C269.346 92.7963 266.583 91.2848 265.673 91.2685C264.015 91.2685 261.333 94.1941 258.96 93.2189H258.944ZM286.656 70.4805C282.755 66.5147 275.522 66.1733 270.289 66.9535C264.096 67.8637 261.187 73.6337 261.43 79.5011C261.512 81.5653 263.235 85.0273 263.235 86.0025C263.235 87.3677 260.147 90.277 260.439 92.2274L265.673 89.7732C271.053 92.9589 279.894 93.5765 285.095 89.7407C291.272 85.1898 292.117 76.0391 286.656 70.4967V70.4805Z" fill="black"/>
<path d="M268.241 34.1056C269.168 35.0645 269.753 36.8361 269.899 38.1689C270.192 40.7044 270.224 54.4872 269.525 56.2263C269.102 57.2665 267.445 58.6319 266.421 59.1032C263.82 60.2572 252.069 60.1596 248.721 59.8671C243.91 59.4445 242.398 57.2665 242.008 52.6343C241.781 49.9363 241.667 37.4049 242.398 35.552C242.853 34.4306 244.836 32.9678 245.99 32.6753C248.493 32.0251 261.74 32.0739 264.698 32.4314C265.836 32.5615 267.494 33.3092 268.258 34.1056H268.241ZM246.868 33.5529C245.113 33.9105 243.341 35.357 243.049 37.2099C242.561 40.3956 242.756 53.0081 243.747 55.885C245.015 59.542 249.16 58.323 251.711 58.3392C255.645 58.3555 260.96 58.8106 264.682 58.3718C266.242 58.193 267.932 57.2178 268.534 55.7388C269.233 54.0159 269.184 41.1595 268.908 38.689C268.631 36.2185 267.136 33.878 264.649 33.4879C262 33.0654 249.387 33.0653 246.868 33.5692V33.5529Z" fill="black"/>
<path d="M114.908 43.5342C126.431 41.8764 136.069 46.3298 133.826 59.4788C133.566 60.9741 131.746 63.4446 132.022 64.4685C132.478 66.2402 140.442 70.3034 130.218 69.2957C128.707 69.1495 127.163 68.3044 125.781 68.3531C122.742 68.4506 120.223 69.7997 116.322 69.2633C102.653 67.3942 101.19 45.5009 114.908 43.5342ZM133.453 68.3043L130.462 64.0785C136.947 51.9372 130.218 43.1929 116.825 44.4607C101.824 45.891 103.839 66.6627 117.313 68.2555C121.035 68.6943 123.392 67.2316 126.204 67.2966C128.398 67.3454 130.95 68.9544 133.453 68.3043Z" fill="black"/>
<path d="M209.012 44.9948C211.678 44.3934 225.737 44.5073 228.842 44.8811C231.491 45.1899 233.263 47.4816 233.571 50.1146C233.88 52.7477 233.913 66.9206 233.295 68.7897C232.775 70.3175 230.516 72.0891 228.858 72.3167C225.315 72.8043 214.035 72.7392 210.394 72.3167C203.389 71.4877 205.226 60.1917 205.193 55.1044C205.193 53.9179 204.64 52.8452 204.657 51.6587C204.705 49.2045 206.444 45.5962 209.012 45.0111V44.9948ZM209.5 46.0026C207.647 46.4252 206.363 48.3105 206.152 50.1146C205.697 53.9504 205.941 64.2225 206.77 67.9608C207.176 69.8137 209.094 71.0977 210.882 71.309C214.604 71.7478 224.6 71.7478 228.338 71.309C230.369 71.0652 231.816 69.7975 232.32 67.8308C232.97 65.3116 232.888 53.5929 232.547 50.6348C232.19 47.5141 230.889 46.2463 227.818 45.905C224.746 45.5637 212.117 45.4175 209.5 46.0026Z" fill="black"/>
<path d="M178.277 151.002C200.869 153.847 197.424 184.63 200.804 201.193C201.487 201.989 212.279 204.801 214.408 205.776C214.896 206.004 215.578 206.101 215.627 206.784C212.36 207.141 210.702 209.352 208.833 211.725C201.015 209.238 192.791 210.554 184.762 210.766C185.12 208.637 185.575 206.166 185.754 204.037C186.16 198.982 186.599 193.667 186.777 188.612C186.94 184.078 187.297 176.406 186.761 172.148C186.664 171.416 186.388 170.604 185.77 171.416C185.965 184.549 185.152 197.698 183.754 210.749L176.31 211.253L178.293 210.749C178.212 210.083 177.61 209.872 177.025 209.774C175.481 209.53 172.296 209.319 170.589 209.238C163.551 208.88 156.302 210.051 149.378 208.539L148.891 207.531C148.159 198.933 147.834 190.238 146.859 181.656C146.81 181.168 146.632 179.787 145.917 179.868L148.143 209.27L150.63 210.262L174.783 210.749C173.011 214.667 171.386 222.306 174.327 225.898C175.238 227.003 176.554 226.158 176.278 227.685C171.028 228.027 165.811 229.181 160.593 229.668C154.45 230.254 141.951 231.586 136.457 229.912C122.04 225.524 122.707 205.597 120.951 193.618C120.87 193.066 120.772 191.294 120.025 191.327C120.074 200.64 121.211 210.538 124.072 219.396L128.98 227.182L111.557 232.659C110.029 231.099 114.808 194.22 115.685 189.214C118.66 172.262 121.975 157.634 138.96 150.238C140.618 149.523 149.46 146.11 150.403 146.711C154.157 157.243 175.92 167.483 178.293 150.97L178.277 151.002Z" fill="#4A5775"/>
<path d="M289.76 110.724C289.873 112.252 289.906 113.845 289.825 115.389C288.85 134.178 285.94 157.989 282.771 176.583C282.332 179.183 282.624 182.239 279.13 182.304C260.747 178.826 241.861 179.037 223.348 176.908C217.969 176.29 215.319 176.632 216.116 169.935L278.87 175.413C279.39 175.917 276.936 181.231 279.357 180.89L286.818 110.659L278.577 174.437L216.669 168.391L220.65 112.951C220.894 111.049 222.422 109.733 224.324 109.652C243.942 110.789 265.184 108.173 284.607 109.652C285.436 109.717 289.532 110.383 289.76 110.724ZM279.861 114.138H226.079C226.16 116.559 228.273 115.145 229.801 115.113C233.637 115.015 237.147 115.584 240.756 115.665C253.775 115.942 266.859 115.405 279.878 115.633V114.138H279.861ZM227.818 121.614C231.28 122.037 235.474 121.305 239.017 121.614C239.082 120.444 239.179 120.736 238.285 120.623C235.034 120.2 230.402 120.395 227.07 120.363C225.916 121.045 227.558 121.582 227.818 121.614ZM243.503 125.596H235.782L235.278 126.588C236.091 127.725 245.437 127.27 243.503 125.596ZM225.575 131.577H236.286L236.79 130.586C235.994 129.416 234.189 130.44 233.214 130.407C231.215 130.31 225.965 128.879 225.575 131.594V131.577ZM263.429 132.065C262.909 130.667 261.966 130.667 260.715 130.537C256.326 130.098 247.208 130.163 242.755 130.57C241.975 130.635 241.276 130.96 240.512 131.074C240.366 131.269 241.162 132.065 241.26 132.065H263.413H263.429ZM253.222 136.047H235.538C235.506 136.372 236.205 137.038 236.286 137.038H251.223C251.678 137.038 253.027 137.981 253.954 137.526L253.206 136.031L253.222 136.047ZM271.897 141.037L234.547 140.289C234.547 141.411 235.425 141.443 236.27 141.557C240.089 142.028 245.225 141.394 249.256 141.508C255.985 141.703 263.397 142.808 270.174 142.045C270.922 141.963 271.719 141.947 271.897 141.037ZM242.023 147.018L241.276 145.523H226.827L226.095 146.27L226.827 147.018H242.007H242.023ZM238.529 151.992C238.562 151.666 237.863 151 237.782 151H227.07C227.038 151.325 227.737 151.992 227.818 151.992H238.529ZM234.043 155.486H225.088C224.73 156.738 226.16 156.721 226.957 156.835C227.753 156.949 236.189 157.355 234.043 155.486Z" fill="white"/>
<path d="M124.985 158.48C123.376 162.007 121.084 165.193 119.637 168.818C115.834 178.31 113.933 191.426 112.616 201.649C111.3 211.873 110.422 222.421 110.471 232.888C109.902 234.579 97.5166 237.813 95.3549 239.162C94.6885 239.113 94.0547 235.489 93.8597 234.725C92.6244 229.556 91.7465 224.111 90.7876 218.878C88.8047 207.988 84.1401 185.932 85.2128 175.758C87.277 156.189 111.088 160.756 124.985 158.513V158.48Z" fill="white"/>
<path d="M188.728 120.12L191.508 120.591C191.849 126.28 198.139 135.577 187.249 133.09C189.801 138.194 196.156 134.049 195.213 129.092L202.69 130.083C201.536 143.801 189.818 154.268 175.953 148.108C173.304 146.922 171.906 145.02 169.322 144.045C170.476 147.328 174.166 148.645 176.815 150.351C176.132 165.564 155.328 156.495 152.402 147.036C154.255 147.377 160.578 149.75 161.894 148.807L162.284 148.206C162.333 137.479 162.512 126.703 164.348 116.154L169.598 118.641C167.03 133.236 188.972 134.342 188.745 120.136L188.728 120.12Z" fill="white"/>
<path d="M222.604 225.717C220.832 227.521 213.469 219.378 211.6 218.045C209.959 216.891 208.219 215.509 206.188 215.249C205.911 216.582 206.546 216.111 207.163 216.485C210.349 218.386 218.703 223.766 218.134 227.927C217.939 229.374 216.525 230.007 215.192 229.634C213.112 224.611 207.439 220.077 202.19 218.744C204.042 220.629 213.047 226.48 213.583 228.545C214.022 230.219 211.925 231.015 210.511 230.593C208.22 229.91 201.653 220.19 196.712 221.214C195.753 222.06 200.142 223.685 200.646 223.994C202.872 225.375 207.537 227.651 206.952 230.706C205.229 233.079 195.948 225.847 192.86 225.326C187.48 224.416 181.223 225.96 175.794 225.456C173.015 224.124 173.308 214.876 175.616 212.828L191.463 211.739C196.566 212.015 201.702 211.105 206.643 212.535C213.161 214.404 217.127 219.849 222.344 223.717L222.588 225.7L222.604 225.717Z" fill="white"/>
<path d="M204.676 109.651V112.642C198.711 110.204 193.688 112.512 191.917 118.655C187.691 119.663 188.52 116.266 186.244 113.893C181.384 108.838 172.884 110.837 170.088 117.014L165.066 114.641C165.343 108.465 171.925 105.49 176.07 101.703C180.458 97.6723 184.538 93.0076 188.048 88.2129C195.785 91.9999 201.929 99.8503 204.204 108.172C201.246 108.009 197.817 105.165 195.249 107.928C195.622 108.221 196.809 109.667 196.988 109.667H204.708L204.676 109.651ZM185.253 106.173C182.197 105.978 178.426 106.855 175.777 108.416C175.143 108.79 174.526 108.318 174.802 109.651C176.964 109.505 183.335 109.261 184.765 107.912C185.383 107.327 185.334 106.969 185.253 106.173Z" fill="white"/>
<path d="M263.428 220.241L219.821 237.145L216.505 237.063L185.754 229.717C186.989 228.303 190.158 226.661 191.962 226.71C196.351 226.824 202.706 233.618 206.184 232.512C206.932 232.269 207.55 231.261 208.411 231.228C209.451 231.212 210.475 232.561 212.377 232.22C213.433 232.025 213.775 231.017 214.49 230.822C215.741 230.465 217.35 231.066 218.618 230.221L219.626 232.48C221.625 233.715 232.141 228.043 235.066 227.734C235.229 226.531 234.985 226.612 233.929 226.84C231.328 227.393 221.982 232.009 220.455 231.765C216.31 227.344 221.576 228.059 223.396 226.271C224.209 225.475 224.225 223.947 225.363 223.264C227.005 226.401 230.499 223.736 231.621 223.979C232.807 224.24 235.066 226.678 236.805 226.694C237.098 226.694 242.137 225.67 242.575 225.523C243.551 225.215 244.233 224.126 245.176 223.638C246.655 222.89 248.589 223.411 249.288 221.281C250.214 218.502 248.589 217.949 247.517 215.771C251.856 216.844 257.447 217.462 261.576 218.892C262.307 219.136 263.233 219.38 263.445 220.241H263.428Z" fill="white"/>
<path d="M225.592 210.278C225.316 211.611 225.95 211.14 226.567 211.514C230.663 213.968 234.109 216.682 236.515 220.924C232.89 225.882 229.006 217.885 225.072 216.52C222.894 215.756 220.537 216.211 220.115 218.73C221.951 218.356 222.52 217.3 224.617 217.95C225.43 218.21 230.322 221.834 230.566 222.468C230.923 223.362 229.135 223.59 228.68 223.59C227.608 223.59 226.502 223.346 226.08 222.225H228.079C228.209 218.291 224.991 222.436 224.227 222.647C222.26 223.2 218.993 218.633 217.352 217.251C215.889 216.016 211.907 213.805 211.143 213.009C208.737 210.49 215.515 208.149 217.417 207.824C227.559 206.134 237.555 207.645 242.106 217.901C242.918 219.722 245.129 224.289 241.764 224.256C239.668 224.24 237.018 218.714 235.523 217.007C233.134 214.26 229.217 210.912 225.576 210.278H225.592Z" fill="white"/>
<path d="M263.915 221.23C263.151 223.961 260.063 225.18 257.788 226.302C253.107 228.577 247.955 230.024 243.176 232.104C234.952 235.696 226.907 240.214 218.227 242.539L188.126 234.054C187.232 233.648 186.062 232.315 185.77 231.438C185.363 230.251 188.24 231.324 188.76 231.438C198.805 233.615 208.719 236.346 218.747 238.556L263.932 221.247L263.915 221.23Z" fill="white"/>
<path d="M249.99 194.836L250.054 198.493L250.802 199.241C254.931 199.484 259.303 199.257 263.22 198.347C263.854 197.437 262.765 194.917 264.179 195.34C265.073 195.6 273.541 200.492 272.907 201.305C265.186 203.288 256.848 205.173 248.9 204.165C245.601 203.743 236.272 201.906 233.46 200.687C233.053 200.508 232.582 200.346 232.582 199.826L250.006 194.836H249.99Z" fill="white"/>
<path d="M185.072 114.806C186.388 116.123 187.315 119 187.266 120.869C186.974 132.945 166.267 130.409 171.679 117.277C173.776 112.189 181.236 110.987 185.056 114.806H185.072ZM179.14 120.186C176.572 120.885 175.986 126.297 179.042 126.606C183.3 127.029 183.17 119.097 179.14 120.186Z" fill="white"/>
<path d="M250.98 197.826C250.948 192.056 251.37 186.286 249.973 180.646L260.927 181.394L261.919 197.826H250.964H250.98Z" fill="white"/>
<path d="M203.179 128.59C197.36 128.996 192.939 127.485 193.215 120.886C193.427 115.766 197.279 111.687 202.61 113.474C207.291 115.035 202.708 124.901 203.179 128.59ZM201.554 120.236C198.888 117.522 195.783 123.99 198.01 125.632C201.163 127.956 203.536 122.251 201.554 120.236Z" fill="white"/>
<path d="M245.016 222.241C244.252 217.089 241.034 213.35 237.539 209.791C239.359 210.197 241.603 212.213 243.017 213.513C245.341 215.659 251.598 221.672 244.999 222.241H245.016Z" fill="white"/>
<path d="M205.16 127.091L206.639 115.633C208.297 119.095 209.565 125.32 205.16 127.091Z" fill="white"/>
<path d="M234.548 223.734L237.278 222.238L238.513 224.449C237.392 225.879 235.198 225.391 234.531 223.717L234.548 223.734Z" fill="white"/>
<path d="M116.16 108.774C115.754 109.115 115.705 109.912 115.591 110.432L115.298 116.121L108.196 109.717C102.475 110.009 94.8681 111.456 89.797 108.238C81.264 102.858 85.0184 88.116 94.9167 86.767C98.8175 86.2306 109.821 86.2795 113.803 86.7183C123.653 87.8235 126.513 102.955 118.89 107.75C118.078 108.254 116.517 108.465 116.176 108.758L116.16 108.774ZM109.675 100.062C111.349 101.98 114.47 99.2008 112.535 96.9416C110.975 95.105 108.115 98.2906 109.675 100.062ZM97.4848 97.3317C94.7868 94.6824 92.1375 100.777 95.8758 100.745C97.7449 100.729 98.6713 98.5019 97.4848 97.3317ZM102.41 96.7628C100.004 97.5755 102.832 103.215 105.026 99.3471C106.05 97.543 104.246 96.1452 102.41 96.7628Z" fill="white"/>
<path d="M166.837 55.8526L164.367 49.6113C161.685 49.2537 159.54 49.5138 156.89 48.6199C146.082 44.9629 148.195 27.8318 160.677 26.5316C165.163 26.0602 175.11 25.9627 179.547 26.4666C188.032 27.4255 191.168 37.7789 187.17 44.5566C183.172 51.3342 176.492 48.0348 170.332 49.6276L166.853 55.8688L166.837 55.8526ZM159.474 37.0475C157.475 39.3067 161.717 42.151 163.099 39.4042C164.383 36.8687 160.856 35.471 159.474 37.0475ZM168.674 36.4949C166.317 37.145 167.211 41.1108 169.958 40.3469C172.315 39.6968 171.421 35.731 168.674 36.4949ZM175.858 36.4949C174.574 37.2913 175.403 41.6147 178.28 40.1681C180.896 38.8516 178.507 34.837 175.858 36.4949Z" fill="white"/>
<path d="M286.654 70.4825C292.115 76.0249 291.27 85.1755 285.094 89.7264C279.893 93.5622 271.051 92.9446 265.671 89.7589L260.438 92.2132C260.145 90.2628 263.233 87.3534 263.233 85.9882C263.233 85.013 261.51 81.551 261.429 79.4868C261.185 73.6194 264.078 67.8494 270.287 66.9392C275.521 66.1753 282.753 66.5167 286.654 70.4662V70.4825ZM280.982 77.894C278.917 80.0882 282.38 82.2824 283.615 80.2832C284.85 78.2841 282.152 76.6588 280.982 77.894ZM268.207 77.8127C266.289 78.4303 267.768 82.0549 269.929 80.5433C271.148 79.6819 270.368 77.13 268.207 77.8127ZM274.692 77.8127C272.774 78.4303 274.253 82.0549 276.415 80.5433C277.634 79.6819 276.853 77.13 274.692 77.8127Z" fill="white"/>
<path d="M246.869 33.5528C249.388 33.0489 262.017 33.0489 264.65 33.4715C267.153 33.8616 268.632 36.2671 268.908 38.6726C269.184 41.0781 269.233 53.9995 268.534 55.7223C267.933 57.2014 266.242 58.1766 264.682 58.3554C260.96 58.7942 255.629 58.3553 251.712 58.3228C249.144 58.3228 245 59.5418 243.748 55.8686C242.757 52.9917 242.562 40.3792 243.049 37.1935C243.342 35.3406 245.113 33.8941 246.869 33.5365V33.5528ZM249.241 39.4202L248.494 40.1679V52.1303L249.241 52.878H262.196C264.309 51.1714 262.976 49.4648 262.943 47.6444C262.911 45.0601 263.545 41.4681 262.196 39.4365H249.241V39.4202Z" fill="white"/>
<path d="M133.453 68.3064C130.967 68.9565 128.399 67.3475 126.204 67.2987C123.393 67.2337 121.036 68.6964 117.314 68.2576C103.84 66.6648 101.824 45.9093 116.826 44.4628C130.219 43.1788 136.948 51.9393 130.463 64.0806L133.453 68.3064ZM119.833 54.3936C117.899 54.7186 118.5 58.0993 120.207 57.8067C122.141 57.4816 121.54 54.101 119.833 54.3936ZM125.831 54.4261C123.555 55.0112 124.693 58.4244 126.676 57.823C128.415 57.3029 127.911 53.8897 125.831 54.4261ZM113.348 54.9137C111.674 55.4338 113.007 58.018 114.226 57.823C115.916 57.5467 116.144 54.036 113.348 54.9137Z" fill="white"/>
<path d="M209.501 46.004C212.118 45.4189 224.796 45.5488 227.819 45.9064C230.842 46.2639 232.191 47.5155 232.548 50.6361C232.906 53.7568 232.971 65.3129 232.321 67.8322C231.817 69.7989 230.371 71.0828 228.339 71.3103C224.601 71.7492 214.605 71.7492 210.883 71.3103C209.095 71.099 207.177 69.815 206.771 67.9622C205.958 64.2239 205.714 53.9518 206.153 50.116C206.364 48.3119 207.648 46.4103 209.501 46.004ZM227.575 65.3129C225.999 61.5421 223.625 57.3 221.301 53.9031C220.749 53.1067 219.936 51.3513 218.863 51.3676L211.143 65.3129H227.575Z" fill="white"/>
<path d="M279.861 114.139V115.634C266.842 115.406 253.774 115.943 240.739 115.666C237.131 115.585 233.62 115.016 229.785 115.114C228.257 115.146 226.144 116.56 226.062 114.139H279.845H279.861Z" fill="black"/>
<path d="M271.897 141.037C271.702 141.947 270.922 141.963 270.174 142.044C263.396 142.808 256.001 141.703 249.256 141.508C245.209 141.394 240.089 142.012 236.269 141.557C235.424 141.459 234.547 141.411 234.547 140.289L271.897 141.037Z" fill="black"/>
<path d="M263.43 132.064H241.277C241.18 132.064 240.383 131.268 240.53 131.073C241.294 130.959 241.976 130.634 242.772 130.569C247.226 130.179 256.344 130.097 260.732 130.536C261.984 130.666 262.926 130.666 263.447 132.064H263.43Z" fill="black"/>
<path d="M242.026 147.021H226.829L226.098 146.273L226.829 145.525H241.278L242.026 147.021Z" fill="black"/>
<path d="M253.223 136.049L253.971 137.544C253.028 137.983 251.679 137.057 251.24 137.057H236.303C236.222 137.057 235.523 136.39 235.556 136.065H253.24L253.223 136.049Z" fill="black"/>
<path d="M225.578 131.577C225.952 128.863 231.202 130.31 233.217 130.391C234.209 130.44 235.996 129.416 236.793 130.57L236.289 131.561H225.578V131.577Z" fill="black"/>
<path d="M227.818 121.617C227.558 121.585 225.917 121.032 227.071 120.366C230.403 120.382 235.035 120.203 238.285 120.626C239.196 120.74 239.098 120.447 239.017 121.617C235.458 121.308 231.28 122.04 227.818 121.617Z" fill="black"/>
<path d="M234.042 155.486C236.188 157.355 227.72 156.949 226.956 156.835C226.192 156.722 224.713 156.738 225.087 155.486H234.042Z" fill="black"/>
<path d="M243.502 125.598C245.436 127.272 236.09 127.743 235.277 126.589L235.781 125.598H243.502Z" fill="black"/>
<path d="M238.53 151.991H227.819C227.738 151.991 227.039 151.325 227.071 151H237.783C237.864 151 238.563 151.666 238.53 151.991Z" fill="black"/>
<path d="M185.253 106.175C185.318 106.972 185.383 107.329 184.765 107.914C183.351 109.263 176.964 109.507 174.802 109.654C174.526 108.321 175.143 108.792 175.777 108.418C178.41 106.858 182.197 105.98 185.253 106.175Z" fill="black"/>
<path d="M179.142 120.184C183.173 119.078 183.303 127.026 179.044 126.604C175.989 126.295 176.574 120.883 179.142 120.184Z" fill="black"/>
<path d="M201.551 120.235C203.534 122.251 201.161 127.956 198.008 125.631C195.781 123.99 198.886 117.537 201.551 120.235Z" fill="black"/>
<path d="M97.483 97.3295C98.6695 98.4835 97.7431 100.71 95.8739 100.743C92.1519 100.775 94.7849 94.6965 97.483 97.3295Z" fill="black"/>
<path d="M109.674 100.065C108.114 98.2774 110.974 95.108 112.535 96.9446C114.453 99.2038 111.332 101.983 109.674 100.065Z" fill="black"/>
<path d="M102.407 96.7655C104.244 96.1479 106.064 97.5456 105.023 99.3498C102.829 103.202 99.9852 97.5782 102.407 96.7655Z" fill="black"/>
<path d="M159.472 37.0479C160.869 35.4713 164.38 36.8852 163.096 39.4045C161.715 42.1351 157.472 39.2908 159.472 37.0479Z" fill="black"/>
<path d="M175.857 36.4965C178.507 34.8387 180.879 38.8533 178.279 40.1698C175.402 41.6163 174.589 37.2929 175.857 36.4965Z" fill="black"/>
<path d="M168.671 36.498C171.417 35.7341 172.295 39.6837 169.955 40.35C167.208 41.1139 166.33 37.1644 168.671 36.498Z" fill="black"/>
<path d="M280.985 77.8938C282.155 76.6585 284.804 78.3326 283.618 80.283C282.431 82.2334 278.92 80.088 280.985 77.8938Z" fill="black"/>
<path d="M268.208 77.8119C270.353 77.1293 271.149 79.6812 269.93 80.5426C267.769 82.0541 266.306 78.4296 268.208 77.8119Z" fill="black"/>
<path d="M274.692 77.8119C276.837 77.1293 277.634 79.6812 276.415 80.5426C274.253 82.0541 272.79 78.4296 274.692 77.8119Z" fill="black"/>
<path d="M249.24 39.4245H262.194C263.543 41.4724 262.909 45.0482 262.942 47.6325C262.974 49.4529 264.307 51.1594 262.194 52.866H249.24L248.492 52.1183V40.1559L249.24 39.4082V39.4245ZM261.934 40.416H249.484V51.1269C251.125 52.801 253.694 51.452 255.693 51.3545C257.692 51.2569 259.87 51.4683 261.934 51.3707V40.416Z" fill="black"/>
<path d="M125.831 54.4242C127.895 53.8878 128.399 57.301 126.676 57.8211C124.709 58.4062 123.555 55.0093 125.831 54.4242Z" fill="black"/>
<path d="M119.834 54.3929C121.524 54.1004 122.142 57.481 120.208 57.8061C118.517 58.0986 117.9 54.718 119.834 54.3929Z" fill="black"/>
<path d="M113.346 54.91C116.142 54.0323 115.93 57.543 114.224 57.8193C113.005 58.0144 111.672 55.4301 113.346 54.91Z" fill="black"/>
<path d="M227.573 65.3125H211.141L218.861 51.3672C219.95 51.3672 220.746 53.1063 221.299 53.9027C223.623 57.2996 225.996 61.5417 227.573 65.3125ZM226.077 64.321L219.592 52.8625L212.62 64.321H226.061H226.077Z" fill="black"/>
<path d="M261.934 40.4121V51.3668C259.87 51.4644 257.757 51.2531 255.693 51.3506C253.629 51.4481 251.142 52.7971 249.484 51.123V40.4121H261.934Z" fill="white"/>
<path d="M226.078 64.3199H212.637L219.593 52.8613L226.078 64.3199Z" fill="white"/>
<path d="M190.42 140.695C192.354 142.369 183.008 142.841 182.195 141.687L182.699 140.695H190.42Z" fill="black"/>
</svg>
