<svg width="355" height="299" viewBox="0 0 355 299" fill="none" xmlns="http://www.w3.org/2000/svg">
<g style="mix-blend-mode:multiply" opacity="0.3">
<path d="M354.76 268.087L327.178 295.686L0.648438 298.14V38.314L38.2259 0.736328L354.76 268.087Z" fill="black"/>
</g>
<path d="M342.635 0.734375H38.2266V259.211H342.635V0.734375Z" fill="#02122D"/>
<path d="M354.76 246.209H26.1016V268.07H354.76V246.209Z" fill="#02122D"/>
<path d="M354.76 246.209H26.1016V252.759H354.76V246.209Z" fill="#4A5775"/>
<path d="M329.63 13.7383H51.2266V246.21H329.63V13.7383Z" fill="#FBF7EE"/>
<path d="M211.631 13.7422H51.2266V246.214H211.631V13.7422Z" fill="#FBF7EE"/>
<path d="M270.095 245.446L296.523 245.511L297.304 246.486L269.868 246.437C264.455 250.468 258.344 252.646 251.534 249.997C249.99 249.396 248.072 247.429 246.999 247.039C243.927 245.917 237.67 247.965 234.159 246.893L232.94 249.217L216.394 248.875L216.329 246.86C212.234 246.893 208.105 247.315 203.993 247.331C188.617 247.396 173.079 246.763 157.736 246.925C153.559 246.974 149.544 248.42 146.196 248.404C143.953 248.404 142.588 247.201 140.637 247.039C136.005 246.649 129.016 247.153 124.027 247.153C114.551 247.136 105.108 247.396 95.6321 247.656C95.8271 244.796 99.9393 246.454 101.857 246.454C111.073 246.421 120.321 246.502 129.52 246.47C132.755 246.47 136.135 246.324 139.321 245.852C132.836 239.627 126.936 232.33 121.962 224.837C118.923 220.253 114.616 210.371 111.788 207.056C110.731 205.82 106.749 204.097 105.075 202.781C96.5586 196.117 92.9991 182.042 87.1316 172.989C86.1889 169.153 87.9441 169.657 88.6105 167.511C88.9681 166.39 88.5131 164.196 89.9434 163.285C92.6415 161.546 94.6893 164.017 96.7535 165.301C97.2573 165.61 98.119 165.382 98.5903 165.658C101.305 167.219 108.098 179.197 112.682 182.611C119.199 187.47 115.104 182.091 114.795 178.759C114.242 172.972 119.281 169.267 121.979 175.768C123.003 178.238 123.181 180.92 124.449 183.553C125.798 186.365 128.431 188.478 129.374 191.322C130.317 194.167 129.601 196.003 130.853 198.62C131.747 200.489 139.549 209.916 141.125 210.583C142.702 211.249 144.473 208.779 145.026 207.413C145.026 207.153 140.8 205.43 142.117 203.772C150.39 192.753 155.656 178.369 167.065 170.128C172.527 166.179 178.947 163.87 184.57 160.213C181.888 156.914 178.605 153.517 177.126 149.421C173.079 138.174 178.622 120.978 180.621 109.389C181.336 105.294 180.133 103.961 182.799 99.7673C198.759 74.7372 234.728 88.0325 236.825 116.069C236.922 117.451 235.98 118.751 236.581 120.507C237.589 123.416 248.446 129.787 249.567 135.785C251.16 144.285 241.603 142.14 237.052 143.017C235.72 143.277 234.289 144.448 232.843 144.935C231.721 145.309 230.145 145 229.299 145.521C228.129 146.252 227.609 155.289 228.422 156.394C239.572 160.604 250.494 164.813 258.734 173.769C265.951 169.689 274.419 167.089 279.912 160.571C281.456 158.734 284.561 152.786 286.739 152.379C287.86 152.168 292.752 156.784 293.045 157.954C293.484 159.726 292.541 161.042 292.769 162.359C292.948 163.399 294.02 163.708 294.28 164.456C295.158 166.959 290.428 177.962 288.819 180.546C284.544 187.405 277.588 191.062 271.444 195.938C271.461 198.929 271.477 201.952 271.656 204.926C272.241 214.158 274.175 223.748 273.671 233.012C273.427 237.547 271.672 241.35 270.095 245.479V245.446ZM234.858 117.874C236.402 98.7922 215.647 83.124 197.736 89.3653C191.478 91.5432 183.465 98.7596 182.132 105.44C182.002 106.106 182.262 106.431 182.88 106.122C183.628 105.765 185.497 102.157 186.732 100.97C194.225 93.8186 211.583 93.2498 212.867 106.009C221.026 108.284 227.853 113.388 234.858 117.857V117.874ZM211.258 105.131C208.235 93.6236 190.665 96.1266 185.594 104.79C190.064 104.773 194.387 103.522 198.906 103.538C202.953 103.538 207.276 104.53 211.258 105.131ZM216.15 143.196C221.449 140.141 223.676 133.932 224.83 128.211C225.399 125.334 226.731 115.419 225.187 113.404C223.806 111.616 211.99 107.098 209.308 106.464C202.108 104.757 193.249 104.773 186.082 106.691C185.074 106.951 183.449 107.244 182.718 107.927C181.71 108.869 180.653 115.436 180.263 117.305C179.353 121.791 177.077 131.754 177.142 135.817C177.191 138.109 178.54 140.027 179.873 141.75L189.722 135.59C186.147 130.405 189.625 128.942 192.063 124.911C192.843 123.627 193.266 122.148 193.981 120.848C194.339 120.182 193.851 119.58 195.2 119.808C195.818 126.098 184.603 131.348 193.087 135.915C198.142 138.629 204.643 134.354 210.364 135.606C213.42 136.289 215.435 140.45 216.167 143.213L216.15 143.196ZM237.735 141.928C241.083 142.156 248.95 141.603 248.592 136.809C248.364 133.688 240.465 125.318 237.816 123.302C237.231 122.863 236.955 122.116 236.028 122.36C235.394 125.236 237.979 125.773 239.149 127.609C242.091 132.225 239.718 137.54 237.719 141.928H237.735ZM233.542 127.089C232.469 127.333 230.909 128.471 230.226 129.365C228.796 131.201 226.097 139.929 226.715 141.977C227.69 145.114 233.493 143.164 235.427 141.522C239.848 137.784 240.986 125.366 233.525 127.105L233.542 127.089ZM208.967 139.442C206.805 139.799 205.326 141.733 203.31 142.676C199.913 144.253 197.102 144.757 193.428 143.879C192.486 143.651 188.438 141.311 188.975 142.92C191.218 149.714 206.772 145.488 208.967 139.458V139.442ZM191.722 163.708C191.575 174.451 203.912 176.19 212.201 173.801C219.141 171.802 226.195 164.586 226.683 157.174C226.796 155.516 226.423 153.826 226.52 152.152C226.553 151.534 227.999 142.416 226.228 143.863C221.937 158.409 206.577 167.479 191.722 163.708ZM278.628 174.191C278.352 173.931 281.31 169.852 281.716 169.055C283.326 165.983 283.927 162.619 285.552 159.515C286.235 158.214 288.754 155.419 288.478 154.476C287.876 152.379 284.967 155.516 284.301 156.41C281.603 160.035 277.572 172.436 273.314 173.866C272.68 174.078 272.306 173.785 272.55 173.151C272.81 172.501 276.353 168.86 277.279 167.349C277.767 166.552 279.116 165.073 278.515 164.131C272.907 169.673 260.587 172.16 255.906 178.06C250.591 184.756 250.266 202.017 248.495 211.005C247.796 214.516 245.943 224.122 244.675 226.885C244.496 227.275 244.317 227.779 243.814 227.779L244.968 218.173L240.969 219.619C241.798 229.827 242.367 248.453 255.89 249.477C259.856 249.769 262.798 249.607 265.853 247.088C274.744 239.757 271.672 225.406 271.005 215.491C270.583 209.217 270.339 202.911 269.851 196.637C268.324 196.686 267.43 198.23 266.064 198.685C265.349 198.929 264.715 199.108 264.878 198.068C274.63 191.404 285.243 186.414 290.136 174.939C290.948 173.021 294.638 164.163 291.501 163.724C287.909 163.204 285.845 171.802 284.154 174.224C283.472 175.199 278.726 180.075 277.8 179.23C277.588 178.352 278.206 177.978 278.726 177.426C280.319 175.768 282.107 174.777 283.504 172.647C285.032 170.307 285.65 166.682 287.129 164.846C288.185 163.529 291.046 162.749 291.322 162.326C292.265 160.912 291.924 156.004 289.421 156.735C286.983 157.45 283.488 168.682 281.651 171.412C281.294 171.932 279.311 174.809 278.612 174.175L278.628 174.191ZM253.143 170.242C246.625 164.456 236.11 161.27 227.999 158.377C226.341 166.227 218.816 174.11 210.868 175.475C204.497 176.564 194.777 175.947 191.478 169.445C189.934 166.406 191.234 161.351 186.878 161.416C185.172 161.449 174.883 166.894 172.754 168.145C157.996 176.824 152.86 190.591 143.433 204.016C143.335 204.813 144.457 205.414 144.977 205.837C150.422 210.274 159.28 212.696 164.481 218.01C165.294 211.281 165.814 204.455 167.033 197.791C167.569 194.801 168.057 190.331 169.959 188.137L162.953 245.755L216.979 245.869C219.239 241.626 217.386 236.718 216.801 232.265L231.347 231.241L233.574 245.283L245.943 245.804C240.791 238.62 240.514 228.9 239.49 220.383L237.004 220.968L234.257 200.44C235.525 199.969 235.655 201.903 235.785 202.7C236.678 208.047 237.117 213.557 237.93 218.921L246.089 215.589C248.966 205.755 248.641 194.622 251.16 184.854C252.233 180.709 253.972 178.173 256.898 175.15C257.028 174.354 253.858 170.924 253.094 170.258L253.143 170.242ZM105.368 182.887C104.181 183.082 103.596 181.717 103.093 180.904C101.402 178.125 100.411 174.321 98.8502 171.38C97.3387 168.535 94.2668 162.603 90.3498 164.781C89.1145 166.65 93.0314 168.389 94.2667 170.047C96.3146 172.81 98.1188 177.816 100.02 181.099C101.321 183.342 104.555 189.128 106.148 190.688C108.83 193.322 118.484 190.997 120.402 195.207C121.329 197.222 118.257 194.703 118.045 194.606C114.421 192.997 111.999 193.744 108.537 193.338C103.889 192.785 98.8501 180.351 96.2658 176.662C94.5104 176.548 91.9749 177.491 92.1699 179.555C96.4933 186.154 98.9153 196.215 105.027 201.286C107.822 203.61 111.902 205.154 114.811 207.478L113.868 208.453C118.338 216.645 123.165 224.625 128.854 232.037C132.56 236.864 139.679 246.665 146.115 246.893C152.373 247.104 161.523 238.23 162.953 232.395C163.49 230.2 164.465 222.301 163.961 220.416C163.051 216.97 149.902 210.469 146.359 208.681C145.579 209.77 142.685 211.021 143.189 212.452C145.058 213.882 147.025 215.329 148.618 217.084C149.154 217.669 150.731 219.164 150.227 220.042C145.79 216.32 140.719 212.63 136.721 208.453C135.046 206.714 129.667 200.441 128.968 198.523C128.155 196.296 128.74 194.297 128.122 192.135C127.424 189.713 124.189 186.869 122.954 184.122C121.946 181.895 120.841 174.907 119.167 174.078C116.062 172.534 116.128 178.921 116.42 180.709C116.583 181.749 118.858 186.008 116.42 185.959C110.536 185.861 102.881 172.338 98.8502 168.551L105.4 182.903L105.368 182.887ZM95.5345 175.183C94.9006 172.436 93.4216 169.754 90.7724 168.503C85.9614 169.494 89.4881 174.516 90.5771 177.377L95.5182 175.183H95.5345ZM217.857 247.819C220.181 247.413 231.234 248.859 232.209 247.348C232.729 245.495 230.697 233.028 229.917 232.525L218.328 233.223C217.841 233.744 219.629 240.911 219.547 242.374C219.466 244.162 217.629 245.917 217.841 247.835L217.857 247.819ZM153.413 246.096L160.694 245.836C162.368 243.349 161.929 240.034 162.645 237.206C159.979 240.798 156.745 243.203 153.413 246.096Z" fill="black"/>
<path d="M129.844 84.2133C128.755 85.3835 126.333 86.2775 124.757 86.5213C119.019 87.4152 112.664 87.1877 106.862 88.2116C105.74 89.3494 102.376 96.7447 101.027 96.4846C98.8004 94.7293 100.231 90.8609 99.2391 88.9918C98.3452 87.3014 94.1519 87.5289 93.258 82.3766C92.4291 77.5169 91.1123 65.4895 91.4049 60.8248C91.7137 55.8025 94.9481 54.3072 99.4828 53.7708C107.154 52.8606 115.817 53.1857 123.587 52.373C129.535 52.7144 130.218 56.8915 130.722 61.93C131.145 66.1234 131.973 74.0712 131.762 78.0045C131.665 79.9224 131.128 82.7831 129.812 84.1971L129.844 84.2133ZM101.206 94.4691L106.813 86.8301C113.818 85.9362 121.197 86.0825 127.959 84.1646C129.291 83.3031 130.234 81.1902 130.364 79.5974C130.657 76.1842 130.202 70.0892 129.909 66.4972C129.714 64.1242 129.405 59.687 128.95 57.6066C128.43 55.2173 126.041 53.4457 123.603 53.4295C122.66 53.4295 121.701 53.9821 120.661 54.0308C113.639 54.3071 102.75 53.8358 96.2646 55.5912C94.0379 56.1925 92.9165 58.0942 92.689 60.2721C94.0705 65.8633 92.6892 81.5965 96.1186 85.5623C97.2726 86.8951 98.898 86.9439 100.214 87.9516L101.206 94.4691Z" fill="black"/>
<path d="M241.344 72.2839L246.252 47.5625L280.563 53.8851L281.311 54.6165L277.605 71.9262C274.874 75.3557 268.828 77.94 264.44 77.4849C257.126 76.7373 248.739 73.4378 241.344 72.2839ZM279.88 54.8928L246.464 48.5052L242.27 70.9836L266.553 76.4447L267.886 70.3822L276.207 71.6174L279.88 54.8765V54.8928ZM274.988 72.6739L268.438 71.91L267.561 75.9571C267.983 76.2497 271.315 74.8519 272.03 74.5431C272.843 74.1855 274.615 73.4866 274.988 72.6902V72.6739Z" fill="black"/>
<path d="M81.4764 143.864C81.005 143.409 80.7776 142.417 80.7613 141.767C80.7126 138.955 81.1838 134.664 81.4113 131.674C81.6551 128.358 81.2327 119.89 85.231 119.451C92.0249 120.231 99.6636 119.711 106.376 120.491C110.342 120.947 109.53 126.456 109.513 129.675C109.513 133.283 109.334 139.231 108.928 142.726C108.717 144.595 107.205 146.107 105.32 146.172C102.167 146.285 97.0796 145.782 93.7152 145.57C91.4235 145.424 82.6466 145.05 81.4601 143.864H81.4764ZM84.8893 120.816C83.459 121.304 83.4103 123.726 83.2477 125.124C82.9714 127.367 81.8826 142.141 82.5327 142.986C85.6696 143.782 105.661 145.44 107.043 144.368C107.498 142.889 107.725 140.824 107.823 139.264C108.067 135.331 108.327 130.568 108.376 126.668C108.376 125.497 108.554 123.531 107.79 122.621L84.8893 120.816Z" fill="black"/>
<path d="M157.263 47.7909C159.685 47.1895 172.492 49.1074 175.597 49.7738C180.895 50.8953 181.968 52.7482 181.936 58.1443C181.92 61.1186 180.522 73.455 179.238 75.5516C178.376 76.9657 176.068 78.6885 174.362 78.786C172.167 78.8998 156.629 76.673 154.695 75.8766C151.526 74.5764 150.551 72.0571 150.599 68.8227C150.648 65.9134 152.614 52.0493 153.931 50.0664C154.5 49.2212 156.272 48.051 157.247 47.8072L157.263 47.7909ZM158.32 48.7336C156.678 48.9937 154.809 50.7328 154.273 52.2931C153.444 54.7149 151.607 67.2949 151.688 69.8142C151.753 71.667 153.248 73.8125 154.874 74.6415C156.499 75.4704 169.323 77.2419 171.793 77.3395C174.833 77.4695 177.921 77.1932 178.831 73.6987C179.676 70.4643 180.83 61.0211 180.895 57.6404C180.96 54.4548 179.969 52.098 176.767 51.1391C174.979 50.6027 159.734 48.5223 158.336 48.7336H158.32Z" fill="black"/>
<path d="M264.586 95.2843C266.032 94.9105 268.389 94.9756 269.933 95.0568C272.745 95.1869 285.358 96.7797 287.21 97.9012C288.234 98.5188 289.324 99.9328 289.551 101.119C290.12 104.012 288.234 119.827 286.918 122.427C285.813 124.605 283.05 125.808 280.725 125.776C277.881 125.727 266.163 124.118 263.578 123.273C261.677 122.655 259.613 120.64 259.125 118.673C258.524 116.186 260.181 103.151 260.913 100.16C261.384 98.2424 262.473 95.8532 264.57 95.3006L264.586 95.2843ZM263.465 97.3811C262.944 97.8849 262.31 99.5102 262.132 100.258C261.416 103.2 259.937 113.959 260.035 116.771C260.165 120.51 262.879 122.037 266.114 122.639C268.99 123.175 280.287 124.638 282.611 124.167C284.22 123.841 285.748 122.362 286.284 120.786C287.194 118.088 288.592 107.1 288.657 104.029C288.722 100.957 287.763 98.8926 284.594 98.0962C281.424 97.2998 271.835 96.0645 268.552 96.032C266.91 96.0157 264.7 96.162 263.481 97.3648L263.465 97.3811Z" fill="black"/>
<path d="M152.958 97.3118C153.673 97.9782 154.405 99.4248 154.73 100.367C155.786 103.439 157.932 112.232 158.241 115.386C158.614 119.173 157.753 121.172 154.145 122.618C150.927 123.919 139.988 126.665 136.803 126.405C134.982 126.259 133.178 125.024 132.317 123.398C131.406 121.676 127.863 107.714 127.863 105.812C127.863 104.057 129.212 101.733 130.643 100.725C132.382 99.4898 143.84 96.4016 146.424 95.9953C148.83 95.6052 151.073 95.5402 152.958 97.3118ZM147.985 96.938C145.482 97.1818 135.275 99.8799 132.853 100.855C129.472 102.22 128.92 104.252 129.407 107.747C129.749 110.185 132.934 122.635 134.234 123.951C135.356 125.105 137.144 125.43 138.704 125.284C141.63 125.024 150.829 122.732 153.625 121.643C155.754 120.814 157.347 118.88 157.216 116.507C157.086 114.134 154.177 101.879 153.267 99.8636C152.357 97.8482 150.244 96.7105 148.001 96.9218L147.985 96.938Z" fill="black"/>
<path d="M124.889 148.106C126.059 146.92 142.02 145.831 143.613 146.773C144.881 147.521 145.319 150.089 145.498 151.536C145.774 153.665 146.229 163.303 145.498 164.636C145.173 165.237 143.84 166.164 143.158 166.342C140.362 167.058 131.049 167.789 128.237 167.448C123.654 166.895 124.889 161.158 124.58 157.793C124.369 155.306 122.808 150.187 124.873 148.09L124.889 148.106ZM127.034 165.887C128.692 167.334 132.739 165.855 134.673 165.725C139.582 165.383 145.319 167.301 144.848 160.589C144.637 157.631 144.377 152.218 143.889 149.602C143.125 145.571 136.624 147.895 133.585 148.187C131.732 148.366 126.726 147.814 125.75 149.146C125.117 150.008 125.507 160.979 125.767 162.799C125.88 163.579 126.498 165.416 127.018 165.887H127.034Z" fill="black"/>
<path d="M217.743 50.6826C218.328 51.2352 220.961 57.4603 221.075 58.3705C221.189 59.2157 220.978 59.8496 220.49 60.516C219.352 62.0763 210.721 65.5707 208.82 64.7093C206.821 63.8153 204.773 55.8187 205.975 53.7871C206.918 52.1942 216.605 49.5937 217.759 50.6826H217.743ZM216.898 51.5928C215.337 51.5603 206.87 53.3807 206.967 54.7135C212.688 58.8094 215.11 59.0531 216.898 51.5928ZM207.016 56.4688C207.081 58.5817 207.959 63.6528 210.624 63.7828C210.998 63.7991 216.703 61.4749 217.434 61.0685C221.254 58.9556 219.189 56.8102 217.727 53.5758C214.882 60.3534 212.835 59.6707 207.016 56.4688Z" fill="black"/>
<path d="M269.689 149.342C269.836 151.422 269.689 153.584 269.397 155.632C269.266 156.461 269.754 156.493 268.438 156.428C268.243 154.461 268.308 152.527 268.714 150.593C268.893 149.748 268.162 149.147 269.689 149.342Z" fill="black"/>
<path d="M253.144 170.243C253.908 170.925 257.061 174.355 256.947 175.135C254.005 178.158 252.282 180.71 251.21 184.838C248.69 194.606 249.016 205.756 246.139 215.573L237.98 218.905C237.167 213.541 236.712 208.032 235.834 202.684C235.704 201.888 235.558 199.954 234.306 200.425L237.053 220.953L239.54 220.368C240.548 228.885 240.84 238.604 245.992 245.788L233.623 245.268L231.397 231.225L216.85 232.249C217.435 236.702 219.272 241.611 217.029 245.853L163.003 245.739L170.008 188.121C168.106 190.315 167.619 194.801 167.082 197.776C165.88 204.456 165.343 211.266 164.531 217.995C159.346 212.664 150.471 210.242 145.027 205.821C144.506 205.398 143.385 204.797 143.483 204.001C152.926 190.575 158.046 176.809 172.804 168.13C174.933 166.878 185.205 161.417 186.928 161.401C191.284 161.336 189.983 166.39 191.527 169.43C194.827 175.915 204.563 176.549 210.918 175.46C218.882 174.095 226.391 166.212 228.049 158.361C236.159 161.254 246.675 164.44 253.193 170.226L253.144 170.243Z" fill="#C7C7C7"/>
<path d="M278.627 174.191C279.326 174.825 281.309 171.948 281.667 171.428C283.503 168.697 286.998 157.466 289.436 156.751C291.939 156.02 292.28 160.928 291.337 162.342C291.061 162.765 288.184 163.545 287.144 164.861C285.665 166.698 285.064 170.323 283.52 172.663C282.122 174.792 280.334 175.784 278.741 177.442C278.221 177.978 277.603 178.368 277.815 179.246C278.741 180.091 283.487 175.215 284.17 174.24C285.86 171.818 287.94 163.22 291.516 163.74C294.653 164.195 290.963 173.053 290.151 174.955C285.258 186.43 274.645 191.419 264.893 198.083C264.73 199.107 265.364 198.945 266.079 198.701C267.445 198.246 268.339 196.685 269.867 196.653C270.354 202.927 270.598 209.217 271.021 215.507C271.687 225.421 274.759 239.789 265.868 247.103C262.813 249.623 259.854 249.785 255.905 249.493C242.382 248.469 241.813 229.842 240.984 219.635L244.983 218.189L243.829 227.794C244.333 227.794 244.511 227.291 244.69 226.9C245.974 224.137 247.827 214.532 248.51 211.021C250.281 202.033 250.606 184.772 255.921 178.075C260.602 172.175 272.922 169.689 278.53 164.146C279.131 165.089 277.782 166.584 277.294 167.364C276.368 168.876 272.825 172.517 272.564 173.167C272.304 173.817 272.695 174.093 273.329 173.882C277.587 172.452 281.634 160.05 284.316 156.426C284.982 155.532 287.875 152.395 288.493 154.492C288.769 155.435 286.266 158.23 285.567 159.53C283.942 162.635 283.324 165.999 281.732 169.071C281.325 169.851 278.351 173.947 278.644 174.207L278.627 174.191ZM273.783 179.896C266.876 180.595 258.099 180.302 257.01 189.046L259.871 185.162C263.138 181.537 268.453 182.399 272.743 181.099C273.637 180.822 274.044 181.196 273.783 179.912V179.896Z" fill="white"/>
<path d="M105.366 182.888L98.8157 168.536C102.847 172.339 110.502 185.846 116.386 185.943C118.824 185.992 116.548 181.734 116.386 180.694C116.093 178.906 116.028 172.518 119.132 174.062C120.806 174.891 121.912 181.88 122.92 184.107C124.155 186.87 127.389 189.698 128.088 192.12C128.722 194.298 128.121 196.281 128.933 198.507C129.632 200.425 135.028 206.683 136.686 208.438C140.684 212.615 145.756 216.305 150.193 220.027C150.697 219.149 149.12 217.654 148.584 217.069C146.991 215.313 145.024 213.883 143.155 212.436C142.651 211.022 145.544 209.755 146.324 208.666C149.867 210.453 163 216.955 163.927 220.401C164.431 222.286 163.455 230.185 162.919 232.379C161.488 238.214 152.338 247.089 146.081 246.877C139.644 246.666 132.509 236.849 128.819 232.022C123.131 224.61 118.303 216.63 113.834 208.438L114.777 207.463C111.884 205.139 107.804 203.611 104.992 201.27C98.8808 196.183 96.4755 186.139 92.1358 179.54C91.9408 177.475 94.4759 176.533 96.2313 176.647C98.8156 180.336 103.854 192.786 108.503 193.322C111.965 193.729 114.37 192.981 118.011 194.59C118.222 194.688 121.278 197.207 120.368 195.192C118.45 190.982 108.795 193.306 106.113 190.673C104.521 189.113 101.286 183.327 99.9859 181.084C98.0843 177.801 96.2801 172.795 94.2322 170.032C93.0132 168.39 89.08 166.634 90.3153 164.765C94.2323 162.587 97.3042 168.52 98.8157 171.364C100.376 174.306 101.368 178.126 103.058 180.889C103.546 181.701 104.147 183.067 105.333 182.872L105.366 182.888Z" fill="white"/>
<path d="M216.151 143.197C215.42 140.434 213.405 136.257 210.349 135.59C204.628 134.323 198.127 138.614 193.072 135.899C184.587 131.348 195.802 126.082 195.185 119.792C193.836 119.565 194.34 120.166 193.966 120.832C193.251 122.149 192.828 123.612 192.048 124.896C189.61 128.927 186.131 130.389 189.707 135.574L179.858 141.734C178.525 140.028 177.16 138.093 177.127 135.802C177.046 131.738 179.338 121.775 180.248 117.289C180.622 115.42 181.695 108.854 182.702 107.911C183.434 107.212 185.059 106.936 186.066 106.676C193.25 104.774 202.109 104.741 209.293 106.448C211.974 107.082 223.791 111.6 225.172 113.388C226.732 115.404 225.4 125.318 224.815 128.195C223.661 133.932 221.45 140.141 216.135 143.181L216.151 143.197ZM181.873 113.226L192.682 112.836C193.186 112.819 193.689 111.519 193.137 110.772C191.918 109.097 181.386 109.081 181.873 113.226ZM214.494 111.584C212.641 110.707 202.287 107.667 202.401 111.227C202.499 114.185 211.601 112.169 213.844 113.47L214.494 111.584ZM185.937 119.662C183.255 120.54 185.075 129.967 187.757 124.782C188.683 122.978 188.375 118.866 185.937 119.662ZM206.139 121.466C202.921 123.872 206.546 130.958 208.919 126.033C210.024 123.742 208.838 121.092 206.139 121.466Z" fill="white"/>
<path d="M234.86 117.874C227.855 113.405 221.028 108.301 212.869 106.026C211.585 93.2667 194.227 93.8193 186.734 100.987C185.483 102.173 183.629 105.782 182.882 106.139C182.264 106.432 182.004 106.123 182.134 105.457C183.467 98.7765 191.496 91.56 197.738 89.3821C215.649 83.1246 236.404 98.8091 234.86 117.891V117.874Z" fill="white"/>
<path d="M191.724 163.711C206.596 167.482 221.939 158.413 226.23 143.866C228.002 142.419 226.555 151.554 226.523 152.155C226.441 153.813 226.799 155.52 226.685 157.177C226.181 164.589 219.143 171.805 212.203 173.805C203.898 176.194 191.578 174.471 191.724 163.711Z" fill="white"/>
<path d="M217.857 247.82C217.645 245.902 219.482 244.163 219.563 242.359C219.628 240.896 217.857 233.729 218.344 233.209L229.933 232.51C230.713 233.03 232.729 245.48 232.225 247.333C231.25 248.861 220.197 247.398 217.873 247.804L217.857 247.82Z" fill="white"/>
<path d="M233.542 127.094C241.002 125.355 239.864 137.772 235.443 141.51C233.493 143.152 227.69 145.102 226.731 141.966C226.097 139.934 228.812 131.206 230.242 129.353C230.925 128.475 232.501 127.337 233.557 127.077L233.542 127.094ZM236.889 132.392C235.037 130.019 229.267 134.359 230.518 137.155C232.355 135.09 233.72 132.604 236.889 132.392Z" fill="white"/>
<path d="M211.257 105.132C207.259 104.547 202.952 103.555 198.905 103.539C194.403 103.539 190.063 104.774 185.594 104.79C190.649 96.1274 208.234 93.608 211.257 105.132Z" fill="white"/>
<path d="M237.734 141.931C239.733 137.543 242.09 132.228 239.165 127.612C237.995 125.775 235.41 125.255 236.044 122.362C236.987 122.102 237.247 122.85 237.832 123.305C240.481 125.32 248.38 133.691 248.608 136.811C248.949 141.606 241.099 142.142 237.751 141.931H237.734Z" fill="white"/>
<path d="M95.5341 175.184L90.593 177.378C89.5041 174.518 85.9773 169.479 90.7883 168.504C93.4376 169.755 94.9165 172.437 95.5504 175.184H95.5341Z" fill="white"/>
<path d="M208.966 139.444C206.772 145.49 191.217 149.7 188.975 142.906C188.438 141.297 192.485 143.637 193.428 143.865C197.101 144.759 199.913 144.239 203.31 142.662C205.325 141.719 206.805 139.785 208.966 139.428V139.444Z" fill="white"/>
<path d="M153.41 246.098C156.742 243.221 159.976 240.815 162.642 237.207C161.927 240.035 162.366 243.335 160.692 245.838L153.41 246.098Z" fill="white"/>
<path d="M101.208 94.4733L100.217 87.9558C98.9004 86.948 97.2913 86.8992 96.121 85.5665C92.6753 81.6007 94.0567 65.8674 92.6914 60.2763C92.919 58.1146 94.0404 56.1967 96.2671 55.5953C102.768 53.84 113.642 54.295 120.663 54.035C121.704 54.0025 122.663 53.4336 123.605 53.4336C126.043 53.4336 128.433 55.2215 128.953 57.6107C129.408 59.6911 129.717 64.1284 129.912 66.5013C130.204 70.0933 130.659 76.1883 130.367 79.6015C130.236 81.1943 129.31 83.291 127.961 84.1687C121.2 86.0703 113.821 85.9403 106.815 86.8343L101.208 94.4733ZM119.558 71.101C121.769 72.385 124.613 68.5655 121.866 67.2977C118.892 65.9325 118.258 70.3533 119.558 71.101ZM111.675 67.9966C109.416 68.858 110.765 73.3764 113.983 71.6211C116.145 70.4346 114.471 66.9401 111.675 67.9966ZM102.671 68.8418C100.802 69.4757 100.916 72.6938 102.817 73.1977C106.897 74.2704 106.93 67.4115 102.671 68.8418Z" fill="white"/>
<path d="M279.88 54.8908L276.207 71.6317L267.885 70.3965L266.552 76.459L242.27 70.9978L246.463 48.5195L279.88 54.9071V54.8908ZM272.501 59.1654C272.322 58.3203 271.493 58.304 270.843 58.0765C266.747 56.6787 256.849 54.6632 252.493 54.2569C251.713 54.1756 251.274 53.7043 250.705 54.6632L272.501 59.1654ZM260.034 62.1236C258.311 60.4982 254.557 60.1569 252.168 59.8643C251.827 59.8156 250.331 59.133 250.412 60.2057C250.461 60.8396 258.815 62.2861 260.034 62.1236Z" fill="white"/>
<path d="M274.986 72.6747C274.613 73.4711 272.841 74.17 272.028 74.5276C271.313 74.8364 267.981 76.2342 267.559 75.9416L268.436 71.8945L274.986 72.6584V72.6747Z" fill="white"/>
<path d="M84.8886 120.818L107.79 122.622C108.554 123.533 108.391 125.499 108.375 126.67C108.326 130.57 108.066 135.333 107.822 139.266C107.725 140.826 107.481 142.89 107.042 144.369C105.661 145.426 85.6688 143.768 82.5319 142.988C81.8818 142.143 82.9707 127.368 83.247 125.126C83.4258 123.744 83.4583 121.322 84.8886 120.818ZM103.369 126.605L89.2448 125.597C89.196 126.848 89.1472 126.458 90.0412 126.556C93.5844 126.946 98.5252 127.433 102.02 127.32C102.67 127.303 103.141 127.726 103.369 126.605ZM102.589 133.155C100.833 131.659 97.0298 131.659 94.6731 131.497C93.7304 131.432 87.9444 130.717 87.9769 131.919C89.2772 132.83 91.6827 132.83 93.2918 132.976C96.2824 133.252 99.5818 133.252 102.605 133.155H102.589ZM97.2575 138.892C96.7699 137.787 94.9169 137.706 93.8767 137.559C92.3327 137.364 88.7735 136.893 87.6682 137.982C90.6263 139.022 94.1044 138.843 97.2575 138.892Z" fill="white"/>
<path d="M158.322 48.7338C159.72 48.5225 174.965 50.6029 176.753 51.1392C179.955 52.0982 180.947 54.4549 180.882 57.6406C180.817 61.0375 179.663 70.4644 178.817 73.6989C177.907 77.1933 174.836 77.4534 171.78 77.3396C169.31 77.2421 156.518 75.4868 154.86 74.6416C153.202 73.7964 151.739 71.6834 151.674 69.8143C151.593 67.295 153.43 54.715 154.259 52.2932C154.795 50.7329 156.664 48.9776 158.306 48.7338H158.322ZM167.781 56.8604L166.237 57.218C165.408 59.6234 166.887 65.4421 163.734 66.4661C163.182 66.6449 158.907 66.5799 160.63 67.9289C165.815 72.041 169.358 60.5662 167.781 56.8604ZM174.169 66.7099C173.828 66.3849 170.626 69.2129 170.252 69.603C169.878 69.9931 168.318 71.4071 168.838 71.9272C169.667 71.6834 175.063 67.5389 174.186 66.7099H174.169Z" fill="white"/>
<path d="M263.462 97.3814C264.681 96.1786 266.891 96.0161 268.533 96.0486C271.832 96.0974 281.422 97.3164 284.575 98.1128C287.728 98.9092 288.72 100.908 288.639 104.045C288.557 107.182 287.176 118.104 286.266 120.802C285.729 122.379 284.218 123.858 282.592 124.183C280.268 124.654 268.988 123.192 266.095 122.655C262.844 122.038 260.13 120.51 260.016 116.788C259.919 113.96 261.398 103.216 262.113 100.274C262.292 99.5268 262.942 97.9015 263.446 97.3976L263.462 97.3814ZM269.378 102.631C267.395 103.281 265.916 113.748 266.697 115.228C267.477 116.707 278.513 118.121 279.602 117.552C280.252 117.21 280.723 116.056 280.918 115.341C281.26 114.041 282.235 107.458 282.154 106.337C282.056 104.809 281.065 104.224 279.732 103.818C278.594 103.46 270.142 102.371 269.362 102.615L269.378 102.631Z" fill="white"/>
<path d="M147.985 96.9403C150.228 96.729 152.325 97.8017 153.252 99.8821C154.178 101.963 157.071 114.266 157.201 116.526C157.331 118.899 155.754 120.833 153.609 121.662C150.83 122.751 141.614 125.042 138.689 125.302C137.128 125.432 135.34 125.124 134.219 123.97C132.919 122.637 129.733 110.203 129.392 107.765C128.904 104.271 129.457 102.239 132.837 100.874C135.259 99.8984 145.466 97.2004 147.969 96.9566L147.985 96.9403Z" fill="white"/>
<path d="M127.033 165.888C126.496 165.417 125.895 163.58 125.781 162.8C125.521 160.98 125.131 150.025 125.765 149.147C126.74 147.815 131.746 148.367 133.599 148.189C136.638 147.88 143.14 145.572 143.903 149.603C144.407 152.219 144.651 157.648 144.863 160.59C145.334 167.302 139.596 165.385 134.688 165.726C132.754 165.856 128.707 167.335 127.049 165.888H127.033ZM129.796 162.378C132.673 161.923 135.305 157.225 136.053 154.609L129.796 162.378Z" fill="white"/>
<path d="M207.016 56.4692C212.834 59.6549 214.882 60.3538 217.726 53.5762C219.189 56.8106 221.253 58.956 217.434 61.0689C216.702 61.4753 210.998 63.7995 210.624 63.7832C207.958 63.6532 207.081 58.5821 207.016 56.4692Z" fill="white"/>
<path d="M216.896 51.5922C215.092 59.0525 212.687 58.8088 206.965 54.7129C206.884 53.3802 215.352 51.5597 216.896 51.5922Z" fill="white"/>
<path d="M273.785 179.895C274.045 181.179 273.623 180.805 272.745 181.082C268.454 182.382 263.139 181.52 259.872 185.145L257.012 189.03C258.101 180.285 266.877 180.578 273.785 179.879V179.895Z" fill="black"/>
<path d="M214.492 111.587L213.842 113.472C211.599 112.188 202.497 114.187 202.399 111.229C202.286 107.67 212.639 110.709 214.492 111.587Z" fill="black"/>
<path d="M181.872 113.226C181.384 109.081 191.916 109.113 193.135 110.771C193.688 111.519 193.168 112.819 192.68 112.835L181.872 113.226Z" fill="black"/>
<path d="M206.139 121.467C208.837 121.094 210.023 123.727 208.918 126.035C206.545 130.959 202.921 123.873 206.139 121.467Z" fill="black"/>
<path d="M185.935 119.66C188.373 118.863 188.682 122.975 187.755 124.78C185.09 129.964 183.253 120.537 185.935 119.66Z" fill="black"/>
<path d="M236.891 132.389C233.722 132.601 232.373 135.088 230.52 137.152C229.268 134.356 235.038 130.016 236.891 132.389Z" fill="black"/>
<path d="M102.671 68.8401C106.929 67.4098 106.913 74.2524 102.817 73.196C100.915 72.6921 100.802 69.474 102.671 68.8401Z" fill="black"/>
<path d="M111.672 67.9926C114.467 66.9361 116.141 70.4468 113.98 71.617C110.762 73.3724 109.396 68.854 111.672 67.9926Z" fill="black"/>
<path d="M119.556 71.1003C118.272 70.3526 118.906 65.9318 121.864 67.2971C124.611 68.5648 121.767 72.368 119.556 71.1003Z" fill="black"/>
<path d="M272.499 59.1661L250.703 54.6639C251.272 53.705 251.711 54.1763 252.491 54.2576C256.847 54.6639 266.729 56.6957 270.841 58.0772C271.491 58.2885 272.32 58.321 272.499 59.1661Z" fill="black"/>
<path d="M260.035 62.1274C258.816 62.3062 250.462 60.8434 250.413 60.2095C250.332 59.1368 251.828 59.8194 252.169 59.8681C254.542 60.1607 258.312 60.502 260.035 62.1274Z" fill="black"/>
<path d="M102.589 133.154C99.5822 133.252 96.2828 133.252 93.2759 132.976C91.6669 132.829 89.2613 132.813 87.9611 131.919C87.9286 130.716 93.7308 131.432 94.6572 131.497C97.014 131.659 100.817 131.659 102.573 133.154H102.589Z" fill="black"/>
<path d="M103.368 126.603C103.125 127.741 102.669 127.302 102.019 127.319C98.5248 127.432 93.6003 126.945 90.0408 126.555C89.1631 126.457 89.2119 126.847 89.2444 125.596L103.368 126.603Z" fill="black"/>
<path d="M97.2573 138.89C94.1041 138.842 90.6261 139.02 87.668 137.98C88.7732 136.891 92.3324 137.362 93.8765 137.557C94.9167 137.688 96.7534 137.785 97.2573 138.89Z" fill="black"/>
<path d="M167.779 56.8594C169.372 60.5651 165.813 72.04 160.628 67.9279C158.905 66.5626 163.196 66.6438 163.732 66.4651C166.869 65.4411 165.407 59.6224 166.236 57.2169L167.779 56.8594Z" fill="black"/>
<path d="M174.168 66.7077C175.062 67.5367 169.65 71.6812 168.821 71.925C168.301 71.4049 169.845 70.0071 170.235 69.6008C170.625 69.1944 173.811 66.3827 174.152 66.7077H174.168Z" fill="black"/>
<path d="M269.381 102.631C270.145 102.387 278.597 103.476 279.751 103.834C281.084 104.24 282.059 104.825 282.173 106.353C282.254 107.474 281.263 114.057 280.937 115.357C280.759 116.072 280.271 117.226 279.621 117.568C278.532 118.137 267.463 116.658 266.716 115.244C265.968 113.829 267.415 103.281 269.397 102.647L269.381 102.631ZM280.645 105.215L269.138 104.126L267.659 114.723L279.556 116.251L280.645 105.215Z" fill="black"/>
<path d="M129.797 162.379L136.054 154.609C135.307 157.226 132.674 161.923 129.797 162.379Z" fill="black"/>
<path d="M280.643 105.216L279.537 116.252L267.656 114.724L269.135 104.127L280.643 105.216Z" fill="white"/>
</svg>
