<svg width="355" height="298" viewBox="0 0 355 298" fill="none" xmlns="http://www.w3.org/2000/svg">
<g style="mix-blend-mode:multiply" opacity="0.3">
<path d="M354.76 267.496L327.178 295.078L0.648438 297.548V37.7222L38.2259 0.144531L354.76 267.496Z" fill="black"/>
</g>
<path d="M342.635 0.144531H38.2266V258.621H342.635V0.144531Z" fill="#02122D"/>
<path d="M354.76 245.619H26.1016V267.48H354.76V245.619Z" fill="#02122D"/>
<path d="M354.76 245.619H26.1016V252.169H354.76V245.619Z" fill="#4A5775"/>
<path d="M329.63 13.1465H51.2266V245.618H329.63V13.1465Z" fill="#FBF7EE"/>
<path d="M211.631 13.1465H51.2266V245.618H211.631V13.1465Z" fill="#FBF7EE"/>
<g clip-path="url(#clip0_0_1)">
<path d="M320.363 294.484C320.782 294.561 321.729 295.196 322.164 295.473C322.991 296.921 319.344 298.27 318.416 298.649C307.308 303.159 291.938 305.688 280.107 308.423C261.242 312.784 232.537 321.158 213.892 318.846C212.591 318.686 206.226 318.012 207.598 315.54C208.5 313.916 216.416 313.454 218.292 313.177C218.587 313.133 219.405 313.034 219.355 312.543C214.818 310.255 212.761 304.768 210.078 300.397C207.17 295.655 202.677 291.424 204.088 284.85C205.133 279.982 211.981 274.301 215.05 270.753C213.928 268.128 214.282 266.564 215.327 264.047C220.653 254.988 225.717 245.684 231.191 236.738C233.406 233.119 237.068 229.136 237.961 224.953C238.253 223.583 238.941 219.948 238.976 218.7C239.024 217.1 235.654 212.587 234.701 210.871C230.337 203.003 226.634 194.495 225.601 185.156L222.49 186.502L208.926 215.724C215.601 221.521 220.352 224.122 216.434 234.528C210.2 251.088 201.079 269.636 193.725 285.907C191.543 290.739 189.049 297.079 186.456 301.476C183.883 305.834 182.145 306.659 177.319 306.18L175.03 309.364C177.542 309.218 180.105 308.307 182.657 307.904C184.392 307.63 189.084 306.871 190.513 307.341C190.888 307.464 191.689 307.925 191.094 308.357L147.063 317.217L147.367 316.058C154.083 313.606 161.487 312.817 168.245 310.764C168.549 310.672 169.147 310.681 169.076 310.201C166.304 309.171 165.134 305.56 165.182 302.536L145.149 296.474C141.636 305.331 131.961 301.663 133.104 292.002C133.226 290.966 134.366 288.624 134.229 288.034C133.104 285.678 128.966 280.971 128.636 278.579C128.263 275.874 130.073 272.776 131.139 270.401C138.799 253.334 147.373 235.424 155.64 218.694C158.668 212.569 161.529 204.07 168.942 204.532C174.521 204.877 181.246 208.035 186.825 208.524C187.343 208.568 187.87 208.723 188.274 208.223L200.781 181.155C199.173 177.139 202.076 171.61 206.274 173.961C207.057 172.075 207.414 170.01 208.238 168.14C209.272 165.801 211.379 163.766 212.067 161.407C213.427 156.721 212.74 148.168 213.115 142.856C213.692 134.64 214.862 125.313 217.789 117.773C214.925 114.159 212.752 113.278 215.038 108.243C218.956 99.6245 226.922 84.0709 232.457 76.9987C239.438 68.0735 249.122 65.7677 259.083 63.4589L260.736 54.2507C259.211 50.2737 256.708 45.531 256.279 41.1786C256.118 39.5491 256.541 38.1281 256.505 36.8501C256.484 36.15 255.856 35.2831 255.722 34.446C255.189 31.0588 256.341 30.3051 256.773 27.761C257.109 25.774 256.481 24.35 258.175 22.649C258.652 22.1694 259.432 22.0472 259.83 21.4991C260.393 20.7245 260.539 19.2112 261.45 18.3055C262.739 17.0275 263.805 17.6591 264.871 17.1348C265.481 16.8339 266.21 15.258 267.032 14.8856C267.854 14.5132 269.512 14.4983 270.36 14.6532C271.075 14.7843 271.941 15.6572 272.408 15.5648C273.567 15.3354 274.632 13.5897 276.925 13.6016C278.732 13.6076 279.327 14.8618 280.208 14.9601C281.134 15.0643 282.563 14.1527 284.064 14.2928C285.772 14.4507 286.457 15.7704 287.344 15.961C289.389 16.4049 290.857 15.1746 292.858 17.1199C293.23 17.4833 293.459 18.2936 293.733 18.4753C294.444 18.946 295.686 18.4038 296.987 19.5001C297.886 20.2598 297.862 21.1058 298.273 21.5646C298.514 21.8357 299.136 21.9281 299.535 22.3153C301.67 24.3887 301.143 28.047 299.517 30.326C299.074 30.9486 298.249 31.0827 298.184 31.8453C298.118 32.6079 298.943 35.6883 299.083 36.868C299.196 37.8272 298.934 38.9682 299.092 39.8679C299.229 40.6424 299.913 40.842 299.967 41.5332C300.077 42.9482 298.764 42.7337 298.487 43.2938C298.175 43.9253 298.088 46.1537 298.181 46.9133C298.404 48.7633 300.056 49.0135 301.018 50.0741C303.563 52.8714 302.396 57.2744 298.821 57.7958C298.344 64.4152 296.636 72.5778 290.161 74.6423C295.695 78.3273 299.675 82.3431 302.411 88.9625C306.713 99.3773 308.576 111.69 312.149 122.483C312.369 124.431 312.176 125.149 310.991 126.472C310.151 127.41 308.026 128.131 308.431 129.644L322.339 160.513C328.936 166.626 335.531 180.488 329.859 189.467C328.008 192.395 327.171 191.603 324.9 192.589C323.462 193.214 322.533 194.456 320.651 194.436C318.704 194.415 318.463 192.833 317.618 192.565C317.016 192.371 316.308 192.592 315.662 192.422C313.102 191.757 312.756 188.46 314.257 186.315C315.59 184.408 318.139 184.775 316.04 181.632C315.48 180.798 314.614 180.154 314.01 179.234C312.14 176.377 311.896 173.618 311.652 170.183C304.986 163.165 298.639 155.833 293.435 147.364L294.918 172.912C294.474 174.884 292.81 175.939 291.08 176.15L288.44 192.928C291.849 203.936 295.579 214.845 298.568 226.014C301.557 237.182 303.385 250.182 306.808 260.553C307.841 263.681 310.5 266.165 309.797 270.068C315.525 267.759 322.241 263.791 327.787 268.739C334.804 275.001 326.477 283.667 322.134 288.448L314.852 294.475C316.54 294.692 318.746 294.177 320.357 294.475L320.363 294.484ZM296.049 32.1045C291.977 31.2346 287.758 30.5703 283.62 31.3597C283.953 33.2097 284.189 34.9137 283.474 36.7101C282.721 38.5988 280.83 39.2274 280.048 40.5471C278.66 42.8856 278.973 51.3163 279.604 54.0958C280.455 57.8583 283.096 59.9824 286.326 60.9655C287.731 59.7202 289.074 58.4511 290.667 57.4979C291.235 57.1582 293.313 56.5148 293.403 56.3896C293.587 56.1335 293.23 55.338 293.608 55.058C295.341 53.5834 298.856 57.5425 300.128 54.4265C301.399 51.3104 296.874 50.6848 296.252 48.4326C295.728 46.5379 296.707 44.3335 296.71 42.3971C295.436 43.0197 284.96 43.2223 288.523 40.0436C290.14 38.6018 295.219 39.6891 297.308 39.7159L296.049 32.1075V32.1045ZM274.993 67.1291C271.837 60.1701 276.16 53.7532 275.213 46.3235C274.963 44.3573 274.082 42.5252 272.322 41.8847C266.088 39.6206 264.373 50.1962 268.601 53.7562C270.435 55.3023 271.265 54.1673 272.013 54.5784C273.245 55.2546 272.51 56.5565 271.25 56.7531C268.672 57.1582 266.791 54.8912 265.18 53.0889C265.403 54.6827 263.823 56.2735 262.501 55.4274L261.012 63.7866C265.805 63.9177 270.396 65.7945 274.996 67.1291H274.993ZM296.415 61.7877C293.977 60.7271 291.283 62.1571 289.869 64.4539C291.616 65.3983 293.432 65.157 295.335 65.0825L296.415 61.7877ZM288.336 136.395C285.525 136.002 282.456 137.557 281.328 133.738C279.86 128.777 279.026 118.27 278.568 112.768C278.282 109.36 277.63 103.575 277.958 100.381C278.205 97.9592 279.506 99.3952 279.723 101.439C280.795 111.535 280.941 121.714 282.816 131.73C283.367 134.661 284.531 134.187 287.058 134.009C292.754 133.607 304.56 129.615 309.011 125.578C309.824 124.842 310.711 124.249 310.342 122.882C305.153 109.11 304.54 89.2962 293.414 79.6977C286.204 73.4775 267.467 64.9544 258.494 65.7945C247.86 66.7895 237.616 72.4973 231.322 82.066C225.452 90.9883 221.153 101.775 215.848 111.171C215.627 112.78 219.563 116.575 220.757 117.555C223.15 119.519 226.196 121.339 229.185 121.628C229.372 117.43 233.77 87.4075 235.469 86.2337C235.83 85.9865 236.761 86.1801 236.901 86.7282C232.832 102.389 231.921 118.798 228.741 134.67C226.738 144.668 223.802 154.362 221.448 164.249C221.51 164.964 222.21 165.491 222.728 165.825C225.836 167.815 232.766 170.222 236.392 171.533C252.656 177.416 269.369 179.993 286.252 175.563C288.473 174.979 290.601 173.999 292.819 173.415C292.757 163.591 291.051 153.748 291.875 143.896L288.339 136.392L288.336 136.395ZM228.25 126.353C226.517 126.403 219.664 118.801 219.066 119.292C216.157 128.682 215.124 138.942 214.586 148.868C214.38 152.66 214.889 156.337 214.219 160.159C213.419 164.72 210.584 166.82 209.108 171.131C208.569 172.703 206.428 179.695 207.464 180.812C208.384 181.072 208.003 179.68 208.259 178.867C208.765 177.261 210.114 174.318 211.802 174.127C212.772 174.017 213.472 174.783 214.163 174.762C214.276 174.759 216.226 174.119 216.321 174.047C216.75 173.722 217.783 169.099 218.914 169.096C221.2 169.087 217.378 174.914 217.878 175.459C219.286 175.382 221.028 175.337 222.052 176.618C222.382 177.029 222.597 178.027 222.68 178.084C223.011 178.31 224.687 178.036 225.312 178.468L225.86 169.495C220.203 167.088 218.849 167.112 220.406 160.081C221.573 154.811 223.427 149.488 224.696 144.173C226.098 138.301 227.327 132.346 228.256 126.353H228.25ZM328.844 179.305C329.064 180.181 328.844 183.431 328.844 184.655C328.844 185.481 327.305 188.966 326.76 189.833C327.329 190.42 328.776 187.554 328.957 187.122C332.664 178.256 326.873 167.493 320.86 161.863L306.835 130.812C306.484 130.404 306.335 130.8 306.076 130.985C301.247 134.476 297.026 137.336 291.054 137.849C295.573 149.387 303.111 157.692 310.833 166.442C311.333 167.008 312.009 167.326 312.491 167.922C314.313 170.177 313.319 172.543 314.206 175.355C315.287 178.772 320.446 182.055 318.085 185.609C317.43 186.592 313.721 188.06 315.444 190.012C317.124 191.912 320.678 188.582 321.649 186.937C322.199 186.002 323.039 182.648 323.215 182.513C323.676 182.156 324.578 182.499 324.688 183.324C324.959 185.341 321.789 191.123 319.618 191.513L319.764 192.178C323.575 193.235 326.662 187.164 327.019 183.616C327.123 182.588 326.608 178.206 328.049 178.501C328.195 178.531 328.805 179.189 328.835 179.305H328.844ZM288.973 176.797C268.604 183.446 247.089 178.492 227.69 170.442C227.652 172.337 227.187 174.44 227.098 176.299C226.41 190.432 232.186 203.846 239.444 214.911L245.24 190.518C243.079 190.018 232.725 182.305 233.043 180.315C233.138 179.725 233.725 179.832 234.154 180.062C235.106 180.571 236.455 182.326 237.407 183.094C240.039 185.215 242.882 187.015 245.69 188.826C246.511 187.745 246.16 186.121 247.916 186.493C246.547 193.908 244.323 201.204 242.766 208.619C241.59 214.222 240.95 220.166 239.747 225.62C238.691 230.422 234.433 235.076 231.909 239.211C227.595 246.277 222.555 254.484 218.64 261.744C217.461 263.931 215.928 266.397 216.089 269.07C217.711 268.137 218.771 267.881 220.623 268.155C225.592 268.894 232.841 277.158 235.672 281.665C236.702 283.304 237.449 285.008 238.25 286.783C247.654 275.332 256.782 263.508 264.823 250.787C275.246 234.298 281.149 215.849 285.68 196.324C286.278 193.747 289.774 178.066 288.973 176.791V176.797ZM212.814 176.129C211.204 174.509 207.274 183.929 211.921 183.482C211.138 180.824 212.213 178.629 212.814 176.129ZM216.086 184.149C215.416 182.719 215.315 180.958 215.562 179.383C215.669 178.706 216.982 176.335 215.931 176.126C213.862 175.712 211.665 185.475 216.086 184.149ZM219.953 185.156C220.048 183.929 219.81 182.528 219.974 181.331C220.182 179.814 222.841 177.095 218.941 177.482C216.265 177.747 216.723 185.555 219.953 185.156ZM205.669 180.473C203.541 180.982 203.698 182.162 202.85 183.824C199.674 190.053 196.527 196.798 193.615 203.203C193.237 204.031 190.778 209.221 191.091 209.56C196.042 210.752 201.793 210.779 206.119 213.844L219.057 186.83C218.185 187.241 217.229 185.993 216.827 185.954C216.345 185.904 215.717 186.628 214.815 186.443C214.151 186.309 213.558 185.329 212.927 185.248C212.115 185.147 211.347 185.767 210.117 185.338C209.013 184.953 208.84 183.699 208.209 183.136C207.363 182.382 205.559 182.442 205.666 180.473H205.669ZM287.493 196.524C285.293 206.405 282.379 216.206 279.086 225.692C276.606 232.838 273.927 239.896 269.952 246.167L286.945 282.559C288.999 285.809 294.51 283.479 297.213 282.171C302.655 279.538 310.336 273.461 307.276 265.733C306.353 263.401 305.409 262.194 304.599 259.379C299.285 240.909 296.567 221.396 289.878 203.373L287.496 196.527L287.493 196.524ZM131.684 280.673C132.398 281.394 137.12 282.556 138.433 282.952C147.852 285.809 157.429 288.046 166.879 290.769C171.085 291.299 173.8 289.658 175.97 285.678L204.743 223.729C206.801 218.614 206.729 215.316 201.51 213.737C190.76 210.481 178.388 209.137 167.447 206.557C162.729 206.963 160.07 213.928 158.022 218.03C148.412 237.277 139.743 257.246 130.469 276.681C130.13 277.739 131.008 279.988 131.684 280.673ZM167.364 294.231C168.257 293.203 169.287 294.335 170.135 294.469C171.883 294.746 172.553 294.317 174.348 295.416C174.917 295.765 175.402 296.623 175.836 296.769C177.908 297.472 180.132 293.036 181.028 291.365L211.177 224.277C211.921 220.437 210.308 219.391 207.899 217.252C208.03 221.256 206.446 224.205 204.931 227.622C195.875 248.052 185.848 268.042 176.506 288.29C171.389 295.92 162.874 291.701 156.039 289.911C148.552 287.948 141.085 285.728 133.676 283.452L135.501 286.765C137.811 285.928 140.231 285.544 142.276 287.328C143.214 288.147 143.512 289.369 144.61 289.72L166.843 296.164C167.12 296.167 166.953 294.704 167.364 294.234V294.231ZM177.706 304.181C180.76 304.345 182.288 304.461 184.253 301.672C195.431 278.066 205.988 253.963 216.059 229.761C216.455 226.407 215.467 224.375 213.258 222.269L212.472 226.064C201.641 247.478 193.583 270.857 182.621 292.151C181.415 294.496 179.623 298.041 177.111 298.5C177.533 300.427 177.902 302.152 177.703 304.181H177.706ZM269.038 248.347C268.589 248.228 268.562 248.419 268.315 248.699C266.993 250.197 265.091 254.055 263.805 256.001C257.005 266.281 248.741 277.834 240.786 286.971C238.72 289.342 236.282 290.787 236.014 286.125C235.458 285.219 235.743 289.196 235.794 289.551C236.08 291.46 237.86 298.526 238.851 299.822C239.703 300.936 241.367 300.835 242.555 301.345C244.749 302.283 245.442 303.641 246.729 305.7C261.736 303.594 276.576 300.058 291.342 296.474L288.994 286.348C286.883 285.526 286.356 285.353 285.162 283.214C280.92 275.609 276.814 265.805 273.049 257.711C271.623 254.648 270.241 251.523 269.035 248.341L269.038 248.347ZM326.439 270.121C322.833 267.378 319.303 268.611 315.456 269.746C316.284 270.1 319.728 274.45 317.433 274.378C316.71 274.354 314.793 270.5 312.643 271.083C311.408 271.42 313.56 272.725 313.834 273.071C314.316 273.678 315.111 275.43 314.111 275.758C312.896 276.157 309.351 269.356 308.6 274.223C309.324 274.623 311.226 276.416 310.565 277.444L309.401 277.727L308.175 276.431C305.439 283.503 297.85 288.597 291.066 286.128C291.673 288.38 291.622 292.601 293.531 293.888C299.648 298.017 312.095 288.261 316.918 283.92C320.934 280.304 324.894 275.737 326.445 270.124L326.439 270.121ZM234.832 294.821L233.448 297.129C231.031 296.277 234.395 293.429 234.526 291.964C234.612 290.989 233.71 288.585 233.627 287.278C233.579 286.548 234.097 285.737 233.805 285.127C233.686 284.876 231.361 282.824 230.807 282.118C227.929 278.46 225.026 271.387 219.792 271.066C216.407 270.857 212.353 276.464 210.135 278.939C211.96 279.455 213.847 279.928 215.55 280.873C225.407 286.345 226.443 305.271 236.446 308.879C239.101 309.835 243.138 309.576 245.213 307.312C245.276 306.895 243.591 304.407 243.138 304.032C240.891 302.149 236.83 303.332 236.607 298.833C235.913 299.259 235.892 300.895 235.13 301.348C234.713 301.595 234.383 301.64 234.07 301.184C233.365 300.043 235.273 298.291 235.413 296.959C235.469 296.417 235.443 294.949 234.829 294.821H234.832ZM323.087 284.671C324.98 282.52 329.395 276.458 328.788 273.33C328.671 272.728 328.186 271.986 327.656 271.751C325.165 280.128 317.388 286.661 310.851 291.15C305.698 294.686 299.639 298.541 293.441 296.161C293.447 299.468 297.165 300.314 299.538 300.314C305.465 300.314 318.838 289.494 323.087 284.674V284.671ZM246.133 309.528C241.156 312.212 235.883 312.036 231.555 308.027C223.365 300.445 222.085 281.787 209.352 280.789C207.813 280.667 205.684 284.778 205.976 285.121C209.563 283.75 213.326 287.388 215.648 290.131C223.344 299.229 228.521 321.248 243.457 313.702C245.097 312.874 246.169 311.694 246.136 309.528H246.133ZM228.581 313.204C221.707 306.549 219.188 295.538 212.061 289.142C207.985 285.484 203.535 285.398 207.107 292.369C210.564 296.772 213.07 303.049 216.375 307.365C219.37 311.28 224.02 313.243 228.581 313.204ZM166.104 297.829L144.089 291.806V293.995C144.988 293.823 145.361 294.454 146.099 294.734C152.33 297.082 159.177 298.497 165.506 300.505L166.104 297.832V297.829ZM142.005 296.495C141.306 296.34 140.255 295.705 139.773 295.154C139.243 294.546 139.269 293.763 138.737 293.483C137.98 295.425 141.181 299.149 142.005 296.495ZM175.628 303.513C174.797 308.107 170.561 307.055 171.159 302.509C170.04 303.242 170.761 305.843 171.451 306.695C173.002 308.616 175.342 306.454 175.863 304.61C175.947 304.318 176.14 303.415 175.628 303.51V303.513Z" fill="black"/>
<path d="M75.3709 190.957C73.7216 190.93 72.0396 191.946 70.4468 191.267L48.7323 179.065C47.7023 177.495 48.8187 177.128 50.2834 177.81C55.7373 180.346 61.7241 184.472 67.1364 187.436C67.6306 187.707 71.0274 189.607 71.203 189.464C70.292 187.942 72.0068 183.986 70.9113 182.768L49.5064 170.253C47.744 168.912 48.5775 167.84 50.6912 168.772C57.6307 171.834 64.6773 177.766 71.5841 181.201L73.1381 181.457L186.34 163.276L182.973 161.441L170.052 157.553L169.737 156.829C169.761 155.855 173.256 153.942 174.14 153.311C173.062 152.241 165.843 150.004 165.545 149.098C165.435 148.762 165.462 148.398 165.652 148.094C166.078 147.406 178.844 143.289 180.689 143.039L180.544 142.142L181.166 141.627L206.864 147.811C206.914 148.136 206.875 148.404 206.721 148.699C206.34 149.423 199.558 153.582 198.331 154.297C196.804 155.188 191.639 158.259 190.278 158.456C189.624 158.551 189.329 158.497 188.707 158.387C184.961 157.723 180.356 155.143 176.593 154.103L172.657 156.433C178.635 157.818 184.351 159.808 189.76 162.713L208.581 159.906C209.224 160.07 209.32 161.244 208.733 161.494L190.508 164.473C191.32 165.954 191.407 167.843 191.401 169.532L206.724 167.125C207.905 167.113 208.23 167.387 208.033 168.611L191.133 171.346C189.403 176.991 186.53 180.921 187.266 187.203C187.605 190.105 189.653 193.102 189.638 196.164C189.632 197.594 188.308 201.911 186.524 201.351C185.241 200.946 187.275 198.58 187.543 197.669C188.516 194.389 186.149 191.168 185.518 188.058C184.33 182.199 187.105 177.218 189.016 171.912L169.978 174.885V203.01C169.978 203.064 169.353 203.701 169.192 203.728C168.885 203.82 168.192 203.085 168.192 203.01V175.183L83.7006 189.173L83.5607 236.799C83.2689 237.239 76.6748 238.848 75.6567 238.434L55.3354 227.51L54.5614 226.557L55.2818 225.856L75.3679 236.489V190.954L75.3709 190.957ZM203.598 148.398L183.812 143.909L168.487 148.845C175.497 151.634 182.455 154.675 189.743 156.725C192.002 155.807 194.134 154.601 196.247 153.4C198.361 152.2 201.419 150.499 203.22 149.081C203.461 148.89 203.767 149.089 203.595 148.401L203.598 148.398ZM189.573 169.785C189.716 168.149 189.68 166.296 188.727 164.905L187.995 164.75L73.0071 183.232L72.6975 189.47L189.576 169.785H189.573ZM81.9174 189.765L77.1571 190.361V236.79L81.9174 235.896V189.765Z" fill="black"/>
<path d="M137.585 131.394L173.101 127.569C176.391 127.22 179.457 128.674 182.467 129.803C189.737 132.529 201.032 136.759 207.665 140.31C209.26 141.165 210.38 142.517 207.757 142.309C196.784 137.921 186.102 132.636 174.81 129.127L137.547 133.226L138.139 136.947L160.321 147.492C161.923 151.029 158.285 152.232 155.459 152.777C142.849 155.208 129.515 155.992 116.868 158.515L113.832 158.288L91.1555 146.447C88.3719 144.379 88.8244 139.958 88.4612 136.792L48.4826 140.617C47.9378 140.474 47.7533 139.437 48.1671 139.142L88.1576 135.004L85.0198 107.326C85.4098 106.176 86.0558 105.664 87.196 105.324L131.971 101.15C133.935 101.573 134.504 103.036 134.835 104.832C135.623 109.137 135.594 114.592 136.061 119.081C136.487 123.183 136.966 127.318 137.585 131.394ZM136.356 136.491C135.409 128.721 134.489 120.916 133.679 113.129C133.397 110.418 133.551 107.174 133.066 104.517C132.7 102.521 131.307 102.795 129.663 102.866C125.385 103.051 120.604 103.954 116.273 104.35C108.262 105.08 100.164 105.494 92.1766 106.435C91.1019 106.563 87.2168 106.825 86.806 107.624L90.5422 142.145L136.359 136.488L136.356 136.491ZM92.0277 143.929L114.799 155.828C128.675 153.337 142.822 152.068 156.686 149.539C157.121 149.459 158.972 149.253 158.96 148.845L136.505 138.263C121.843 140.11 107.145 141.624 92.4683 143.34C92.0486 143.387 91.6139 143.506 92.0277 143.932V143.929Z" fill="black"/>
<path d="M83.6985 149.288C86.0742 149.777 88.6017 149.917 90.9505 150.519C91.5847 150.683 93.9484 151.162 93.7936 152.077C93.618 153.102 85.9789 156.277 84.5856 156.87C81.8617 158.029 75.5801 160.877 73.008 161.356C70.4358 161.836 68.4739 160.162 66.0209 159.715L57.8221 162.977C60.0519 163.475 62.2698 164.157 64.5532 164.431C65.7231 164.571 66.911 164.371 68.081 164.476C74.3327 165.033 66.9437 167.8 65.8541 169.826L90.6796 173.407C91.3971 173.293 95.5382 168.673 96.3539 167.749C97.8186 166.093 99.4678 164.13 100.787 162.363C101.022 162.048 102.618 159.87 102.448 159.712C96.985 160.561 91.4626 160.689 85.9402 160.904C84.6154 160.954 78.2029 161.723 77.6045 160.904C77.3157 160.507 77.4676 160.439 77.7414 160.141C78.7685 159.024 88.8279 159.256 90.9922 159.113C95.5411 158.809 100.078 158.157 104.636 157.972C106.729 158.669 101.367 163.764 101.855 164.175C104.963 164.082 107.938 165.11 110.766 166.275C111.412 167.216 107.747 169.31 107.006 169.772C105.458 170.737 100.01 173.803 98.4676 173.69C97.3095 173.603 95.5798 172.602 94.2521 172.62C93.615 172.724 93.0166 175.033 90.9922 175.2C85.4579 174.509 79.8879 173.943 74.3833 173.052C72.6745 172.775 63.8446 171.402 63.1569 170.589C62.8503 170.323 62.8295 170.186 63.014 169.829C63.6362 168.622 66.128 167.309 67.045 166.26C64.1275 166.337 60.948 165.798 58.1823 164.854C56.3306 164.222 52.5825 162.917 56.1282 161.44L63.7702 158.523C62.0435 158.19 50.2336 151.943 50.0699 151.18C50.0044 150.882 50.0848 150.456 50.2336 150.182C50.8588 149.029 65.1635 145.27 67.3367 144.06C68.6138 143.485 70.153 145.457 71.311 145.359C71.9213 145.308 73.8207 144.015 74.6989 143.709C79.4294 142.043 85.5115 142.898 83.7044 149.294L83.6985 149.288ZM81.9004 148.681C83.5615 143.006 75.979 144.707 72.9931 146.318L77.3276 147.781L81.9033 148.684L81.9004 148.681ZM90.242 152.27C82.5702 150.918 74.6513 149.693 67.7833 145.833L53.0559 150.93C58.9831 154.567 65.226 157.749 71.9422 159.721L82.7964 155.681L90.242 152.27ZM107.798 166.85L100.572 165.712L95.5977 171.309C96.6158 171.035 97.6132 171.852 98.4467 171.893C99.7328 171.956 106.071 168.441 107.408 167.514C107.667 167.332 107.958 167.565 107.798 166.853V166.85Z" fill="black"/>
<path d="M110.771 222.797C114.766 223.512 119.428 223.173 123.331 224.072C124.798 224.412 126.454 225.023 124.322 226.086C122.56 226.965 118.225 228.037 116.126 228.6C113.096 229.417 109.877 230.355 106.755 230.54C103.56 227.477 100.309 224.978 96.189 223.247C94.9149 222.711 91.0358 222.294 91.4168 220.59C91.5478 220.003 101.923 218.391 103.173 218.32C106.284 218.141 114.057 217.763 110.774 222.794L110.771 222.797ZM109.877 220.721C109.181 220.581 108.704 220.196 107.951 220.113C105.585 219.848 99.2256 220.313 96.966 221.045C96.6356 221.153 96.2456 221.141 96.192 221.609C99.1958 222.267 102.378 224.346 104.796 226.25C105.918 227.135 106.749 228.809 108.222 228.77L119.99 225.776L107.799 224.138L107.219 222.991L109.874 220.724L109.877 220.721Z" fill="black"/>
<path d="M120.214 244.01C120.407 244.206 120.523 244.584 120.449 244.853C120.33 245.323 119.955 245.514 119.618 245.791C117.008 247.948 110.312 251.532 107.1 253.206C106.168 253.691 103.7 255.115 102.858 255.229C101.399 255.425 97.7819 254.338 96.1892 253.9C91.9201 252.726 87.8297 250.924 83.6797 249.428L83.9833 248.24C89.2854 247.108 94.3911 245.532 99.3627 243.387C100.586 242.86 104.043 240.73 104.977 240.667C106.216 240.584 111.313 242.294 113.081 242.651C114.605 242.958 119.383 243.163 120.208 244.007L120.214 244.01ZM117.612 245.124C113.197 244.799 108.931 243.595 104.686 242.443C99.6068 245.69 93.7302 246.875 88.1631 248.847C87.8773 248.949 87.4814 248.88 87.5677 249.282L102.554 253.662L108.294 250.826L117.615 245.124H117.612Z" fill="black"/>
<path d="M174.735 139.771C174.631 141.222 177.432 139.795 178.013 140.203C179.632 141.341 176.161 142.184 175.193 142.157C174.318 142.133 171.124 141.409 171.463 140.215C171.791 139.628 173.437 139.872 173.246 139.026C172.779 138.496 171.85 137.727 171.621 137.078C171.406 136.464 171.57 135.624 171.412 135.353C171.281 135.123 169.061 134.498 168.605 134.447C163.562 133.881 159.067 138.019 154.098 137.647C152.973 137.563 148.465 136.81 147.682 136.327C146.998 135.904 147.126 135.725 147.403 135.04C148.105 134.596 153.36 135.841 154.661 135.898C160.266 136.145 164.884 130.339 171.677 133.458C172.13 133.667 172.55 134.31 172.85 134.37C173.214 134.441 173.782 133.902 174.309 133.834C177.721 133.393 178.373 135.63 180.909 136.13C184.154 136.771 186.982 135.856 189.781 136.187C190.855 136.312 191.311 136.985 190.332 137.662C189.965 137.915 186.339 138.272 185.598 138.281C184.16 138.299 182.308 138.123 180.865 137.965C180.287 137.903 179.501 137.37 179.096 137.45C178.539 137.56 176.479 140.387 174.741 139.777L174.735 139.771ZM173.547 136.199C174.098 138.064 176.405 138.397 177.399 136.619C176.732 134.9 174.845 135.821 173.547 136.199Z" fill="black"/>
<path d="M174.678 90.1523C176.374 90.0451 178.929 89.8544 180.557 90.0481C182.495 90.2775 181.468 94.3647 181.584 96.164C181.641 97.022 181.843 98.4579 182.01 99.3099C182.227 100.412 183.957 104.196 183.079 104.812C178.911 105.512 174.639 105.804 170.42 105.846C170.161 105.843 169.989 105.745 169.825 105.548C169.435 105.086 168.563 99.7866 168.494 98.8452C168.39 97.451 168.268 92.6369 168.625 91.5436C168.738 91.201 168.914 90.8435 169.286 90.7154C170.245 90.3936 173.472 90.2328 174.678 90.1553V90.1523ZM180.093 91.8534L170.275 92.1453C170.275 96.0777 170.057 100.201 171.456 103.913L181.284 103.454C180.307 99.718 179.176 95.6904 180.096 91.8504L180.093 91.8534Z" fill="black"/>
<path d="M149.794 98.0523C147.892 93.5599 147.445 88.6356 147.195 83.8155L148.425 83.2405L159.562 82.1621C160.863 84.739 160.595 87.6376 161.64 90.5183C162.101 91.7904 164.191 94.7307 163.587 95.7257C163.033 96.6373 150.803 98.675 149.794 98.0494V98.0523ZM158.672 84.1104L149.193 85.0488C148.964 88.8918 149.976 92.6334 150.967 96.2858C151.56 96.8011 161.637 94.966 161.643 94.3822C159.52 91.5223 158.844 87.6197 158.675 84.1134L158.672 84.1104Z" fill="black"/>
<path d="M163.704 160.027C163.812 160.427 163.752 160.817 163.573 161.189C163.225 161.904 156.613 167.028 155.821 167.147C151.344 166.251 146.155 165.577 141.82 164.213C141.24 164.031 140.609 163.978 140.23 163.406L144.238 157.024L144.839 156.727L163.707 160.027H163.704ZM160.751 161.198L145.479 158.496L142.904 162.682L155.226 165.363C155.955 165.402 161.025 161.469 160.754 161.201L160.751 161.198Z" fill="black"/>
<path d="M155.039 106.224C156.894 106.114 160.716 105.833 162.38 106.143C162.854 106.233 163.226 106.453 163.369 106.939C163.806 108.416 162.383 115.968 161.904 117.854C161.69 118.703 161.362 120.714 160.543 120.958C159.186 121.363 153.756 120.616 152.017 120.377C151.207 120.267 148.224 119.999 147.992 119.337L150.186 107.022C150.582 106.343 154.036 106.28 155.039 106.221V106.224ZM161.648 107.922L151.529 108.22C151.702 111.681 150.779 115.074 149.746 118.337L159.847 119.215L161.648 107.919V107.922Z" fill="black"/>
<path d="M116.149 163.005L127.851 161.193C129.617 162.525 134.478 164.318 135.755 165.808C137.033 167.297 134.431 167.837 133.377 168.185C131.707 168.736 126.074 170.309 124.627 170.11C123.94 170.017 121.493 168.712 120.793 168.275C119.787 167.646 115.339 164.208 116.149 163.002V163.005ZM133.377 166.55L127.253 162.981L118.798 164.175C119.903 165.623 123.169 168.161 124.934 168.325C127.146 168.528 131.001 166.66 133.377 166.55Z" fill="black"/>
<path d="M146.169 215.36C146.217 215.839 146.235 216.045 145.872 216.4C144.847 217.403 139.584 216.572 138.128 216.111C135.729 215.354 134.252 212.187 132.311 212.104C130.346 212.02 123.856 215.184 122.353 214.6C122.127 214.511 121.707 214.022 121.772 213.727C121.99 213.4 122.326 213.277 122.666 213.126C123.728 212.652 129.471 210.954 130.683 210.73C135.738 209.804 135.232 213.146 138.346 214.404C140.543 215.291 143.817 215.315 146.166 215.36H146.169Z" fill="black"/>
<path d="M162.184 137.457C164.321 137.376 169.34 138.714 167.608 141.72C166.033 144.448 158.7 143.17 157.024 141.267C154.821 138.767 160.499 137.522 162.187 137.457H162.184ZM165.723 140.141C164.187 138.657 160.397 139.292 158.662 140.212C158.662 140.656 165.11 142.435 165.973 140.963C166.134 140.772 165.848 140.26 165.72 140.141H165.723Z" fill="black"/>
<path d="M247.245 39.1288C247.843 39.0126 249.531 38.8249 249.876 39.3611C251.511 41.9023 241.478 49.0996 241.966 43.928C242.166 41.8337 245.539 39.4624 247.245 39.1317V39.1288Z" fill="black"/>
<path d="M295.077 193.178C294.663 193.035 294.553 192.186 294.613 191.718C294.648 191.53 295.312 191.17 295.375 191.17H309.656C310.245 191.17 310.245 193.175 309.656 193.175H295.077V193.178Z" fill="black"/>
<path d="M248.438 50.8183C251.221 50.1779 249.56 53.7497 248.643 55.0724C245.633 59.4159 242.01 55.9721 246.16 52.284C246.666 51.8342 247.842 50.9554 248.438 50.8183Z" fill="black"/>
<path d="M87.8599 164.767L86.812 166.245L82.5102 169.23C82.3018 168.112 83.0997 167.502 83.8558 166.858C84.4423 166.358 87.3062 164.106 87.8629 164.77L87.8599 164.767Z" fill="black"/>
<path d="M91.3906 167.41C89.7115 168.184 88.6606 170.341 86.672 170.422C85.886 169.638 90.2831 166.882 90.6939 166.26L91.4263 166.707L91.3906 167.413V167.41Z" fill="black"/>
<path d="M79.1131 162.408L79.8187 162.828C79.8604 163.49 76.931 165.608 76.2701 165.825C75.6776 166.019 75.4603 166.049 75.0703 165.509L79.1131 162.408Z" fill="black"/>
<path d="M79.5343 167.144C78.8347 166.441 81.8564 164.603 82.3119 164.416C82.6661 164.27 83.0025 164.121 83.1008 164.621C83.1186 165.521 79.8856 167.499 79.5343 167.144Z" fill="black"/>
<path d="M288.336 136.395L291.872 143.899C291.048 153.751 292.754 163.594 292.816 173.419C290.598 174.003 288.47 174.983 286.249 175.567C269.366 179.997 252.653 177.417 236.389 171.536C232.763 170.225 225.833 167.818 222.725 165.828C222.204 165.495 221.507 164.967 221.445 164.252C223.799 154.365 226.735 144.671 228.738 134.673C231.918 118.801 232.829 102.392 236.898 86.7316C236.758 86.1835 235.827 85.9868 235.466 86.2371C233.767 87.4108 229.369 117.437 229.182 121.631C226.193 121.342 223.147 119.525 220.754 117.559C219.56 116.579 215.625 112.786 215.845 111.175C221.15 101.779 225.449 90.9916 231.319 82.0694C237.613 72.5007 247.857 66.7928 258.491 65.7978C267.464 64.9578 286.201 73.4838 293.411 79.7011C304.54 89.2966 305.15 109.113 310.339 122.885C310.708 124.256 309.821 124.845 309.008 125.581C304.558 129.615 292.751 133.61 287.056 134.012C284.528 134.191 283.364 134.664 282.813 131.733C280.938 121.715 280.792 111.538 279.72 101.442C279.503 99.3985 278.205 97.9596 277.955 100.385C277.627 103.578 278.282 109.36 278.565 112.771C279.023 118.274 279.857 128.781 281.325 133.741C282.453 137.56 285.522 136.005 288.333 136.398L288.336 136.395ZM258.631 68.1394C258.473 69.1701 258.97 69.477 259.747 69.7242C261.614 70.3171 271.64 72.6467 273.06 72.5126C274.4 72.3875 274.415 71.5087 273.284 70.892C268.375 70.177 263.608 68.0768 258.628 68.1394H258.631ZM256.993 162.754C258.598 162.936 260.417 162.62 262.051 162.754C263.415 160.975 260.753 161.55 259.708 161.375C250.274 159.802 242.424 155.116 235.865 147.376C233.859 146.873 237.02 150.921 237.312 151.27C241.486 156.254 250.926 162.063 256.993 162.754ZM270.235 169.439C273.052 168.906 275.978 167.163 278.36 165.366C279.583 164.443 285.466 159.125 285.109 157.576C285.022 157.198 284.617 156.995 284.212 157.231C283.346 157.734 280.345 161.529 278.961 162.697C276.308 164.937 273.311 166.65 270.286 168.158L270.235 169.439Z" fill="#F9D483"/>
<path d="M288.977 176.798C289.778 178.073 286.283 193.754 285.684 196.331C281.153 215.853 275.25 234.302 264.827 250.794C256.786 263.515 247.659 275.341 238.254 286.79C237.451 285.011 236.706 283.307 235.676 281.672C232.842 277.165 225.596 268.901 220.627 268.162C218.776 267.888 217.716 268.144 216.093 269.076C215.936 266.404 217.466 263.938 218.645 261.751C222.559 254.488 227.6 246.284 231.913 239.218C234.438 235.083 238.695 230.429 239.752 225.627C240.955 220.169 241.595 214.229 242.771 208.626C244.328 201.211 246.551 193.915 247.921 186.5C246.164 186.128 246.513 187.752 245.694 188.833C242.887 187.022 240.044 185.222 237.412 183.101C236.459 182.333 235.111 180.578 234.158 180.069C233.729 179.839 233.143 179.732 233.048 180.322C232.726 182.312 243.083 190.025 245.244 190.525L239.448 214.917C232.187 203.853 226.412 190.439 227.102 176.306C227.192 174.447 227.659 172.344 227.695 170.449C247.093 178.499 268.611 183.453 288.977 176.804V176.798ZM243.464 225.943C245.742 226.75 248.358 226.792 250.749 226.613C252.062 226.515 256.501 225.797 257.531 225.207C258.394 224.713 258.317 223.75 257.215 223.816C254.89 223.959 252.235 224.745 249.859 224.942C248.144 225.082 245.756 224.629 244.211 224.948C243.702 225.052 243.378 225.302 243.467 225.946L243.464 225.943Z" fill="black"/>
<path d="M287.497 196.524L289.878 203.37C296.568 221.394 299.286 240.906 304.6 259.376C305.41 262.192 306.353 263.398 307.276 265.731C310.337 273.458 302.656 279.539 297.214 282.169C294.511 283.477 289 285.806 286.946 282.556L269.953 246.164C273.93 239.893 276.607 232.836 279.087 225.689C282.379 216.201 285.297 206.4 287.494 196.521L287.497 196.524ZM294.13 273.849C293.96 274.06 293.942 274.391 293.749 274.593C293.969 276.038 297.431 273.455 298 273.026C300.066 271.456 302.075 269.219 302.965 266.577C302.638 266.178 302.59 265.924 302.066 266.228C301.212 266.723 298.938 269.925 297.91 270.92C296.973 271.826 294.692 273.148 294.13 273.852V273.849Z" fill="black"/>
<path d="M219.955 185.155C216.722 185.557 216.267 177.746 218.943 177.481C222.843 177.093 220.185 179.813 219.976 181.33C219.813 182.527 220.054 183.927 219.955 185.155Z" fill="white"/>
<path d="M296.418 61.7879L295.337 65.0828C293.438 65.1572 291.619 65.3985 289.871 64.4542C291.285 62.1573 293.979 60.7274 296.418 61.7879Z" fill="white"/>
<path d="M216.168 184.127C211.744 185.464 213.941 175.604 216.013 176.021C217.067 176.232 215.751 178.627 215.644 179.313C215.397 180.906 215.498 182.682 216.168 184.127Z" fill="white"/>
<path d="M212.89 176.022C212.289 178.548 211.214 180.765 211.997 183.449C207.347 183.901 211.279 174.383 212.89 176.022Z" fill="white"/>
<path d="M189.566 169.785L72.6875 189.47L72.9971 183.232L187.985 164.75L188.717 164.905C189.67 166.296 189.706 168.146 189.563 169.785H189.566Z" fill="white"/>
<path d="M81.9126 189.764V235.894L77.1523 236.788V190.359L81.9126 189.764Z" fill="white"/>
<path d="M203.593 148.397C203.762 149.085 203.456 148.888 203.217 149.076C201.416 150.494 198.308 152.222 196.245 153.396C194.182 154.569 192 155.806 189.74 156.72C182.453 154.671 175.495 151.629 168.484 148.841L183.81 143.904L203.596 148.394L203.593 148.397ZM193.477 148.403C190.589 147.992 187.451 147.19 184.545 147.047C184.045 147.023 183.786 146.699 183.361 147.36C183.247 147.899 183.938 148.075 184.301 148.2C185.325 148.552 193.182 149.755 193.474 149.287V148.403H193.477ZM188.419 151.966C188.526 151.799 188.466 151.066 188.121 150.929C187.725 150.655 181.024 149.526 180.235 149.567C179.696 149.594 179.258 149.514 178.907 150.035C178.916 150.592 188.13 152.415 188.422 151.966H188.419Z" fill="white"/>
<path d="M92.0303 143.929C91.6165 143.506 92.0512 143.387 92.4709 143.336C107.148 141.62 121.845 140.11 136.507 138.26L158.963 148.841C158.975 149.249 157.123 149.458 156.689 149.535C142.825 152.065 128.681 153.334 114.802 155.824L92.0303 143.926V143.929ZM131.539 140.151C121.256 140.95 110.667 143.113 100.434 144.453C99.4164 144.763 99.7706 145.779 100.568 145.967C100.717 146.002 102.998 145.755 103.48 145.713C107.264 145.389 111.057 144.465 114.831 143.974C121.536 143.101 128.267 142.395 134.968 141.501C136.778 139.532 132.75 140.059 131.539 140.151ZM142.009 141.855C141.943 141.754 140.425 141.459 140.092 141.543C128.761 143.688 116.555 144.215 105.302 146.348C102.393 146.899 103.278 148.228 106.159 148.097C115.48 147.668 128.835 145.252 138.243 143.589C138.996 143.455 142.863 143.178 142.009 141.858V141.855ZM146.471 144.534C146.32 144.295 144.125 144.131 143.649 144.236C134.111 145.937 124.394 146.601 114.837 148.15C113.739 148.329 110.536 148.675 109.797 149.062C109.291 149.327 109.196 149.431 109.288 150.033L110.312 150.498C121.53 148.826 133.366 148.082 144.495 145.973C145.036 145.868 147.165 145.606 146.474 144.537L146.471 144.534ZM132.72 149.074C130.354 149.339 128.002 150.435 125.543 150.227L125.18 150.459C124.578 152.193 125.983 152.044 127.293 151.981C129.434 151.877 131.717 151.004 133.831 150.784C135.453 150.617 138.433 151.514 139.032 149.744C138.776 148.633 133.759 148.958 132.72 149.074Z" fill="white"/>
<path d="M136.354 136.49L90.537 142.147L86.8008 107.626C87.2116 106.825 91.0966 106.562 92.1714 106.437C100.156 105.496 108.256 105.082 116.267 104.352C120.599 103.959 125.38 103.056 129.658 102.868C131.302 102.797 132.695 102.52 133.061 104.519C133.546 107.176 133.394 110.42 133.674 113.131C134.484 120.921 135.404 128.724 136.351 136.493L136.354 136.49ZM92.3351 139.451L133.978 134.566L131.462 105.225L89.3878 108.856L92.3351 139.451Z" fill="white"/>
<path d="M90.2369 152.27L82.7914 155.681L71.9371 159.72C65.2209 157.748 58.981 154.567 53.0508 150.929L67.7782 145.832C74.6462 149.696 82.5651 150.917 90.2369 152.27ZM68.2218 148.993C65.9413 149.642 63.5032 150.277 61.3061 151.159C60.9995 151.281 60.2433 151.29 60.4934 151.814C60.8595 152.356 61.19 152.267 61.7467 152.204C62.4791 152.124 69.5346 150.351 68.2247 148.993H68.2218ZM71.1958 151.373C70.9428 151.123 65.8788 152.702 65.6794 153.149L65.8431 154.048C66.0426 154.206 70.3176 152.812 70.7165 152.526C71.2286 152.16 71.2762 152.011 71.1958 151.373ZM77.7334 152.869C77.397 152.6 72.0056 154.486 71.2792 154.873C70.4129 155.335 70.9338 156.187 71.8656 156.083C72.3956 156.023 78.0132 153.941 78.0251 153.607L77.7334 152.869Z" fill="white"/>
<path d="M107.79 166.85C107.95 167.562 107.662 167.333 107.4 167.511C106.063 168.441 99.7249 171.956 98.4389 171.891C97.6053 171.849 96.608 171.033 95.5898 171.307L100.564 165.709L107.79 166.847V166.85Z" fill="white"/>
<path d="M81.8946 148.681L77.3189 147.778L72.9844 146.316C75.9703 144.707 83.5529 143.003 81.8917 148.678L81.8946 148.681Z" fill="white"/>
<path d="M109.878 220.72L107.222 222.987L107.803 224.134L119.994 225.772L108.226 228.766C106.752 228.805 105.918 227.131 104.799 226.246C102.382 224.342 99.2021 222.266 96.1953 221.605C96.2489 221.137 96.6389 221.149 96.9693 221.041C99.2289 220.312 105.591 219.847 107.955 220.109C108.708 220.192 109.181 220.577 109.881 220.717L109.878 220.72Z" fill="white"/>
<path d="M117.61 245.124L108.289 250.826L102.549 253.662L87.5628 249.283C87.4765 248.881 87.8724 248.95 88.1582 248.848C93.7253 246.873 99.602 245.691 104.681 242.443C108.929 243.596 113.192 244.8 117.607 245.124H117.61Z" fill="white"/>
<path d="M173.543 136.198C174.841 135.82 176.731 134.9 177.395 136.618C176.401 138.397 174.091 138.063 173.543 136.198Z" fill="white"/>
<path d="M180.087 91.8516C179.167 95.6886 180.301 99.7162 181.275 103.455L171.448 103.914C170.051 100.202 170.266 96.0758 170.266 92.1465L180.084 91.8545L180.087 91.8516Z" fill="white"/>
<path d="M158.67 84.1084C158.84 87.6178 159.513 91.5203 161.638 94.3772C161.635 94.9611 151.555 96.7962 150.963 96.2808C149.971 92.6285 148.962 88.8868 149.188 85.0439L158.667 84.1055L158.67 84.1084Z" fill="white"/>
<path d="M160.753 161.199C161.024 161.467 155.954 165.4 155.224 165.361L142.902 162.68L145.477 158.494L160.75 161.196L160.753 161.199Z" fill="white"/>
<path d="M161.644 107.922L159.843 119.218L149.742 118.34C150.775 115.078 151.695 111.681 151.525 108.223L161.644 107.925V107.922Z" fill="white"/>
<path d="M133.379 166.549C131.004 166.66 127.151 168.527 124.936 168.325C123.171 168.161 119.905 165.623 118.801 164.175L127.256 162.98L133.379 166.549Z" fill="white"/>
<path d="M165.723 140.138C165.848 140.261 166.133 140.77 165.976 140.961C165.112 142.432 158.664 140.654 158.664 140.21C160.4 139.289 164.189 138.655 165.726 140.138H165.723Z" fill="white"/>
<path d="M256.99 162.753C250.923 162.062 241.486 156.253 237.309 151.269C237.017 150.92 233.855 146.872 235.862 147.375C242.42 155.115 250.271 159.801 259.705 161.374C260.75 161.55 263.412 160.975 262.048 162.753C260.414 162.619 258.595 162.935 256.99 162.753Z" fill="black"/>
<path d="M270.238 169.438L270.289 168.157C273.314 166.649 276.311 164.936 278.964 162.696C280.348 161.528 283.349 157.733 284.215 157.23C284.623 156.994 285.025 157.197 285.112 157.575C285.469 159.121 279.586 164.439 278.363 165.365C275.981 167.162 273.055 168.904 270.238 169.438Z" fill="black"/>
<path d="M258.632 68.14C263.612 68.0775 268.379 70.1777 273.288 70.8927C274.419 71.5093 274.401 72.3882 273.064 72.5133C271.641 72.6473 261.618 70.3147 259.751 69.7249C258.974 69.4776 258.477 69.1738 258.635 68.14H258.632Z" fill="black"/>
<path d="M243.456 225.942C243.367 225.299 243.691 225.048 244.2 224.944C245.748 224.628 248.133 225.081 249.848 224.938C252.224 224.742 254.882 223.955 257.204 223.812C258.306 223.744 258.383 224.706 257.52 225.203C256.49 225.793 252.054 226.511 250.738 226.609C248.347 226.788 245.731 226.746 243.453 225.939L243.456 225.942Z" fill="black"/>
<path d="M177.386 222.827L177.178 224.507C167.609 241.473 158.976 258.969 149.494 275.979C148.613 277.564 145.627 283.406 144.686 284.273C143.677 285.199 142.662 284.243 143.43 283.007L175.665 223.295C176.183 222.612 176.609 222.484 177.386 222.83V222.827Z" fill="black"/>
<path d="M191.286 225.811C193.42 225.093 192.078 227.663 191.649 228.56C182.316 248.198 170.429 267.261 161.105 286.991C160.667 288.457 158.723 288.576 159.083 287.081C159.408 285.74 161.879 281.501 162.677 279.931C171.399 262.837 180.366 244.537 189.854 227.952C190.107 227.512 190.967 225.912 191.283 225.808L191.286 225.811Z" fill="black"/>
<path d="M292.775 45.4859C293.46 46.2902 293.502 49.0756 292.085 49.3973C287.795 50.3715 291.063 43.478 292.775 45.4859Z" fill="black"/>
<path d="M281.84 49.0801L282.745 49.2261C283.237 49.6312 283.213 54.7671 282.582 54.7552C281.179 53.3788 281.376 50.945 281.843 49.0801H281.84Z" fill="black"/>
<path d="M270.834 47.7448L272.018 47.2383C271.587 46.2642 269.348 45.442 269.336 44.5691C269.297 41.7926 274.829 46.2761 273.191 48.8798C272.459 50.0416 270.569 49.1479 270.837 47.7418L270.834 47.7448Z" fill="black"/>
<path d="M193.475 148.403V149.288C193.181 149.756 185.324 148.552 184.3 148.201C183.937 148.076 183.249 147.9 183.359 147.361C183.782 146.699 184.044 147.024 184.544 147.048C187.45 147.191 190.588 147.989 193.475 148.403Z" fill="black"/>
<path d="M188.421 151.968C188.132 152.417 178.915 150.591 178.906 150.037C179.258 149.516 179.698 149.596 180.234 149.569C181.023 149.528 187.727 150.657 188.12 150.931C188.463 151.068 188.525 151.801 188.418 151.968H188.421Z" fill="black"/>
<path d="M142.006 141.856C142.857 143.176 138.993 143.456 138.24 143.587C128.832 145.249 115.474 147.665 106.156 148.094C103.274 148.228 102.39 146.896 105.299 146.345C116.555 144.212 128.758 143.685 140.089 141.54C140.422 141.457 141.94 141.752 142.006 141.853V141.856Z" fill="black"/>
<path d="M146.47 144.534C147.161 145.607 145.035 145.869 144.49 145.97C133.362 148.079 121.526 148.821 110.308 150.495L109.284 150.03C109.195 149.429 109.287 149.321 109.793 149.059C110.531 148.672 113.735 148.326 114.833 148.148C124.389 146.599 134.11 145.937 143.645 144.233C144.121 144.129 146.312 144.293 146.467 144.531L146.47 144.534Z" fill="black"/>
<path d="M131.535 140.151C132.749 140.055 136.774 139.528 134.964 141.5C128.26 142.394 121.532 143.1 114.828 143.973C111.056 144.464 107.26 145.388 103.476 145.712C102.994 145.754 100.714 145.998 100.565 145.966C99.7669 145.778 99.4126 144.762 100.431 144.452C110.663 143.112 121.252 140.949 131.535 140.151Z" fill="black"/>
<path d="M132.72 149.074C133.762 148.958 138.779 148.633 139.032 149.745C138.433 151.511 135.456 150.615 133.831 150.784C131.717 151.002 129.434 151.878 127.293 151.982C125.983 152.047 124.575 152.193 125.179 150.46L125.543 150.227C128.002 150.436 130.354 149.342 132.72 149.074Z" fill="black"/>
<path d="M92.3379 139.451L89.3906 108.856L131.465 105.225L133.981 134.565L92.3379 139.451ZM129.81 106.729L91.1322 110.301L93.8115 137.684L132.489 133.216L129.81 106.729Z" fill="black"/>
<path d="M68.2255 148.994C69.5354 150.356 62.4798 152.125 61.7475 152.206C61.1907 152.268 60.8603 152.357 60.4941 151.815C60.247 151.291 61.0032 151.282 61.3069 151.16C63.5039 150.278 65.9421 149.644 68.2225 148.994H68.2255Z" fill="black"/>
<path d="M77.7352 152.868L78.0269 153.607C78.018 153.94 72.3973 156.026 71.8674 156.082C70.9386 156.186 70.4146 155.334 71.2809 154.873C72.0073 154.485 77.3958 152.6 77.7352 152.868Z" fill="black"/>
<path d="M71.1961 151.374C71.2765 152.012 71.2289 152.161 70.7168 152.527C70.3179 152.813 66.0429 154.207 65.8434 154.05L65.6797 153.15C65.8821 152.703 70.9461 151.124 71.1961 151.374Z" fill="black"/>
<path d="M129.81 106.729L132.487 133.215L93.8092 137.684L91.1328 110.3L129.81 106.729Z" fill="white"/>
</g>
<defs>
<clipPath id="clip0_0_1">
<rect width="277.463" height="231.559" fill="white" transform="translate(51.2266 13.6016)"/>
</clipPath>
</defs>
</svg>
