<svg width="355" height="298" viewBox="0 0 355 298" fill="none" xmlns="http://www.w3.org/2000/svg">
<g style="mix-blend-mode:multiply" opacity="0.3">
<path d="M354.804 267.496L327.205 295.078L0.675781 297.548V37.7222L38.2537 0.144531L354.804 267.496Z" fill="black"/>
</g>
<path d="M342.662 0.144531H38.2539V258.621H342.662V0.144531Z" fill="#02122D"/>
<path d="M354.788 245.619H26.1289V267.48H354.788V245.619Z" fill="#02122D"/>
<path d="M354.788 245.619H26.1289V252.169H354.788V245.619Z" fill="#4A5775"/>
<path d="M329.657 13.1465H51.2539V245.618H329.657V13.1465Z" fill="#FBF7EE"/>
<path d="M211.658 13.1465H51.2539V245.618H211.658V13.1465Z" fill="#FBF7EE"/>
<path d="M164.233 244.367C163.794 244.188 162.624 244.643 161.958 244.123C161.242 243.57 161.567 242.14 161.161 241.539C160.365 240.401 156.171 241.246 154.676 240.986V243.245C153.652 243.196 152.596 243.31 151.556 243.262C142.909 242.904 132.978 240.905 124.575 240.954C112.726 241.019 99.4308 244.757 87.4846 245.488C86.2656 245.553 85.0466 245.488 83.8439 245.488C83.7139 244.009 83.7789 244.562 84.6891 244.383C90.5891 243.278 96.9929 243.083 102.958 242.107C101.723 235.086 100.536 228.032 99.6588 220.946C98.2935 209.975 95.0913 189.739 98.212 179.711C100.585 172.104 106.664 168.139 114.092 166.351C117.732 165.473 124.656 165.522 127.273 164.352C129.484 163.36 134.766 157.785 138.374 155.77C147.703 150.552 158.008 149.87 166.622 145.79C168.134 145.075 176.066 139.159 174.359 137.501C160.869 138.785 155.213 117.835 169.857 115.559C169.857 113.576 168.492 112.13 168.215 110.163C167.435 104.621 169.272 94.6411 176.033 94.186C175.984 92.4306 173.92 90.5452 175.708 89.0824C177.496 87.6196 178.26 89.8626 179.089 89.6838C179.479 89.6025 182.762 84.8078 184.29 83.6051C193.359 76.3561 203.42 81.2321 213.432 80.1431C217.073 79.753 226.727 75.1208 221.575 83.5075C227.458 83.4588 234.659 85.4254 237.243 91.1791C242.298 102.41 231.733 94.836 231.132 95.3236C235.309 99.2407 237.942 106.668 235.179 112.016C234.106 114.08 230.238 116.274 230.01 117.526C228.873 123.539 232.497 123.735 233.261 127.782C233.83 130.837 233.212 134.364 231.392 136.9C230.286 138.428 228.613 138.996 227.637 140.459C225.882 143.108 224.663 148.342 222.599 151.723C221.217 153.998 219.494 156.127 217.674 158.062L217.918 158.891C226.158 163.734 231.213 174.217 231.717 183.628L304.272 176.005L304.548 181.418L291.87 224.131C292.52 224.749 307.262 222.62 309.587 222.457C310.399 222.392 311.813 221.953 311.537 223.286C310.887 224.31 310.009 224.05 309.034 224.164C306.108 224.505 292.602 225.09 291.302 226.098C289.026 230.275 288.831 241.344 283.906 242.888C271.391 245.179 258.73 246.821 246.215 249.048C233.7 251.274 218.373 255.484 206.069 256.703C200.949 257.207 170.54 246.821 164.249 244.383C176.602 246.025 190.937 253.81 202.9 255.5C204.639 255.744 206.8 255.923 207.922 254.249L206.849 252.071C195.716 248.528 183.363 246.74 172.311 243.326C171.401 243.05 170.718 243.782 171.011 242.14L207.191 250.511L208.67 246.659C203.176 245.813 197.683 244.984 192.27 243.635C191.636 243.473 189.605 243.505 190.125 242.433C190.677 241.279 198.203 238.759 199.113 239.897L198.836 241.019L209.791 239.328C210.067 241.067 209.336 240.222 208.393 240.433C204.85 241.197 200.12 240.612 197.439 243.262L210.344 241.555L212.619 231.462C209.629 231.949 206.703 230.145 203.842 231.397C202.217 232.112 201.957 234.03 200.803 234.533C199.503 235.102 197.91 234.485 196.87 235.102C196.301 235.444 196.09 236.711 195.521 237.118C194.529 237.849 193.278 237.41 192.4 237.93C191.847 238.239 191.506 239.54 190.693 240.157C186.614 243.245 183.656 237.589 180.877 235.541C175.952 238.922 171.775 239.848 165.777 239.409L162.608 242.969L164.282 244.367H164.233ZM206.947 97.5829V105.742C206.947 106.408 205.273 107.4 204.151 106.88C203.03 106.36 194.513 96.7215 192.904 98.1518C191.847 104.507 188.954 110.797 185.005 115.852C183.964 117.184 180.779 119.249 181.055 120.906L187.557 124.547C192.595 115.575 208.702 115.462 210.652 126.855C215.317 127.879 214.992 125.132 217.658 123.198C220.876 120.858 224.517 121.085 228.304 121.183C226.467 118.68 218.812 118.322 218.178 114.73C217.999 113.722 218.227 113.885 219.039 113.869C222.436 113.787 225.606 115.38 228.304 117.266C229.702 109.058 223.411 104.198 217.641 99.8258C218.178 101.191 214.196 111.756 212.587 109.952C213.481 105.011 210.181 100.866 206.963 97.5829H206.947ZM210.344 128.545C210.084 139.419 194.204 144.425 188.71 134.673C186.89 131.439 187.784 127.603 186.988 126.286C186.484 125.457 182.616 123.328 181.494 122.792C180.486 122.304 179.267 122.499 178.308 122.044C176.894 121.378 175.35 118.403 173.644 117.721C169.385 115.982 163.875 118.55 163.144 123.231C161.99 130.528 167.045 136.38 174.554 135.356L175.204 135.843C176.163 144.457 178.016 151.853 185.021 157.509C201.29 170.642 220.112 159.768 225.492 141.727C225.801 140.671 225.329 140.979 224.679 140.914C222.729 140.671 220.599 141.418 218.763 140.362C219.673 145.449 213.318 147.659 209.45 146.018L209.206 144.295C223.346 145.546 213.497 136.054 214.261 128.545L210.344 128.578V128.545ZM195.569 120.224C184.956 122.012 187.313 140.752 200.803 137.842C207.256 136.445 211.416 127.473 206.703 122.321C204.232 119.622 198.95 119.671 195.569 120.24V120.224ZM228.239 123.54C218.308 120.451 212.847 128.659 218.08 137.355C219.608 139.89 222.956 139.403 225.524 138.931C227.654 137.891 228.71 126.156 228.255 123.54H228.239ZM228.32 136.949C232.335 135.795 232.66 128.578 230.287 125.717L228.32 136.949ZM146.241 213.437C154.026 214.022 161.486 216.216 168.914 218.361L183.266 211.958C183.818 200.125 185.07 188.358 186.728 176.655C180.177 166.188 168.573 159.264 172.669 144.831C164.526 147.302 164.249 157.135 164.818 164.222C164.948 165.766 166.606 175.761 167.906 175.745C170.475 173.47 173.27 170.625 176.114 168.789C176.65 168.447 177.756 167.326 178.292 168.171C175.415 170.577 170.881 176.298 167.614 177.744C165.972 178.476 165.549 175.778 165.208 174.526C163.664 169.114 162.624 161.393 163.128 155.819C163.339 153.413 164.461 151.154 164.509 148.765C151.279 151.95 135.774 155.802 127.566 167.488C119.358 179.175 111.637 213.843 113.084 228.341C113.766 235.2 116.643 237.768 123.08 239.149C131.905 241.051 141.235 240.417 150.174 241.555C147.85 233.867 148.955 225.399 154.302 219.255L158.609 216.817C146.062 215.046 133.335 211.6 120.95 216.248C120.755 214.769 122.397 214.363 123.453 213.973C129.548 211.698 138.211 212.185 144.567 212.884L147.947 191.511C149.166 191.803 148.727 192.291 148.711 193.071C148.614 195.997 145.233 212.445 146.257 213.437H146.241ZM175.464 145.953C174.31 144.734 173.839 148.553 173.79 149.057C172.815 159.102 178.634 163.588 184.452 170.43C185.07 171.162 187.004 174.835 187.833 174.071L193.424 164.287C193.262 163.588 187.995 161.54 186.76 160.808C181.283 157.541 176.992 152.227 175.464 145.953ZM203.582 173.795V165.083H195.423C194.708 165.083 188.093 175.485 187.979 177.305L184.469 212.315C193.489 211.698 205.045 219.889 203.582 229.755C207.597 228.975 214.407 233.136 213.48 226.358C213.285 224.911 212.067 221.401 211.53 219.824C211.286 219.093 211.368 218.118 210.327 217.939L209.759 228.065L212.847 226.391C214.602 228.26 209.336 229.885 208.621 229.202C208.101 211.161 213.741 193.754 217.625 176.347C218.698 176.493 218.194 179.191 218.113 179.922C216.91 190.666 212.441 202.319 210.978 213.177L214.521 223.579C218.584 213.16 219.884 199.719 224.484 189.69C226.516 185.253 229.88 185.855 229.36 180.621C228.889 175.794 225.459 169.358 222.404 165.652C221.737 164.839 217.17 160.24 216.65 160.11C215.22 159.736 208.166 165.31 205.305 164.595C205.273 168.805 205.435 172.852 204.119 176.915C203.468 177.029 203.03 176.899 202.445 176.623C201.275 176.086 196.025 172.186 194.48 171.081C192.107 169.39 192.855 168.496 195.293 169.699C197.731 170.902 200.186 172.852 202.429 174.38L203.55 173.811L203.582 173.795ZM126.558 166.205C111.735 167.472 99.74 170.089 98.4235 187.269C97.5458 198.679 100.91 222.652 103.023 234.436C103.283 235.866 103.949 241.116 104.973 241.49L119.227 239.865L115.554 237.638C110.629 233.217 111.442 223.189 111.93 217.094C113.295 200.304 117.927 180.654 126.541 166.205H126.558ZM303.085 177.452C299.818 177.419 296.503 177.712 293.252 178.021C277.665 179.483 261.087 181.629 245.532 183.709C241.68 184.229 231.115 185.123 228.596 187.009C225.199 189.544 222.079 202.661 220.73 207.26C216.894 220.263 212.961 234.615 210.149 247.845C209.482 251.014 207.597 254.314 212.229 253.891C219.657 253.209 229.002 250.38 236.658 249.048C252.602 246.268 268.775 244.383 284.524 240.693L303.102 177.452H303.085ZM201.892 226.927C197.39 211.324 182.746 211.99 170.604 218.963C162.982 223.335 161.437 228.26 163.144 237.02C167.402 237.248 171.84 238.613 175.87 236.598C177.154 235.964 178.975 233.737 180.259 233.705C183.233 233.607 186.354 241.376 189.865 238.776C191.588 237.492 188.792 234.046 187.833 232.843C185.103 229.365 183.184 228.455 179.414 226.618C178.601 226.228 178 226.732 178.292 225.237C181.462 224.944 184.858 227.285 187.085 229.365C188.467 230.665 192.335 237.297 194.611 235.671C197.244 233.77 190.319 226.569 188.678 225.253L183.347 221.303C187.931 221.612 191.376 225.432 194.318 228.601C195.553 229.934 198.072 235.33 200.641 232.404C203.582 229.056 193.538 220.101 190.596 218.833C188.629 217.988 186.581 217.646 184.469 217.354C185.265 215.306 188.727 216.769 190.385 217.354C195.927 219.239 198.138 222.88 201.876 226.943L201.892 226.927ZM152.14 239.296C155.456 239.865 160.17 238.873 163.664 239.296C163.437 238.239 161.827 238.223 161.502 237.248C160.397 233.867 161.047 228.162 162.445 224.863C163.437 222.506 164.964 221.238 165.923 219.06C153.051 215.127 149.134 228.601 150.857 238.629C150.906 238.711 152.01 239.279 152.157 239.312L152.14 239.296ZM209.759 242.124C206.784 242.79 203.599 242.676 200.641 243.408C200.072 243.554 198.95 243.57 199.08 244.367C202.12 244.448 205.452 243.977 208.393 243.262C209.352 243.034 210.035 243.814 209.759 242.124Z" fill="black"/>
<path d="M149.33 72.278C150.971 72.2129 153.214 70.2788 153.978 73.8058C154.97 78.373 153.978 86.1908 154.693 91.1481L154.417 92.5622C153.361 94.0575 135.124 93.9599 131.874 94.8213L130.996 94.4638L130.492 90.8555L100.7 91.4244L99.5621 75.4148C99.4646 64.3301 99.5132 53.2616 100.163 42.2418C100.261 40.5352 99.4807 33.9363 101.025 33.5625L141.739 34.0502L141.17 72.2942C143.868 72.213 146.615 72.408 149.33 72.2942V72.278ZM140.618 35.1717H102.114C100.488 37.3659 101.447 41.1203 101.301 43.9159C101.22 45.2486 100.732 46.4839 100.7 47.8004C100.212 61.6645 100.879 75.5774 101.919 89.3765L102.699 90.1566C102.926 90.1729 103.122 89.7178 103.268 89.7178H130.541L129.549 74.3259C129.631 73.9358 130.671 72.8469 130.817 72.8469H140.098L140.667 35.1717H140.618ZM152.418 73.3994L131.061 74.5372L132.182 93.0822C139.204 92.1233 146.404 93.2285 153.296 91.4244L152.418 73.4157V73.3994Z" fill="black"/>
<path d="M305.343 93.6512L263.41 94.2201L265.978 43.0221L306.205 40.1777C307.538 58.0239 307.066 75.8376 305.327 93.635L305.343 93.6512ZM264.857 93.6512L303.962 91.9934C304.125 86.8898 305.132 81.5749 305.36 76.5202C305.75 67.5483 306.367 51.8152 305.36 43.2984C305.295 42.6971 305.376 41.9981 304.807 41.608L267.62 44.9562L264.857 93.6512Z" fill="black"/>
<path d="M307.863 128.516C308.643 128.467 311.894 126.614 311.52 129.068C305.847 129.654 298.143 130.905 293.251 127.378C291.902 126.403 289.724 122.908 288.781 122.876L277.794 129.068C276.981 128.256 281.24 125.444 281.874 125.005C283.824 123.672 286.132 122.193 288.473 121.754C289.025 121.007 286.018 118.374 285.287 117.919C277.323 112.864 270.854 120.032 262.613 118.943C263.962 117.285 267.278 117.659 269.473 117.09C275.145 115.627 277.859 113.075 284.003 115.822C286.376 116.879 289.448 120.747 290.553 121.072C292.13 121.543 296.908 121.267 298.891 121.202C301.134 121.137 303.962 119.56 305.896 121.462C305.961 121.624 304.579 122.307 304.498 122.307H291.284C291.284 125.135 296.534 128.5 298.875 128.5C301.833 128.5 304.937 128.662 307.863 128.5V128.516Z" fill="black"/>
<path d="M169.857 45.279C169.142 48.1884 172.653 62.9952 171.011 64.1654L151.54 63.9216C149.394 61.9874 149.996 47.7008 149.605 44.1738L169.841 45.2953L169.857 45.279ZM152.71 62.7188H170.426L168.671 47.0507C168.118 46.1568 153.181 46.1729 150.759 45.8479C151.523 48.4484 150.759 62.085 152.726 62.7188H152.71Z" fill="black"/>
<path d="M317.697 111.089C317.827 112.065 316.413 111.626 315.747 111.642C310.416 111.853 304.272 111.414 298.875 111.073C294.081 110.764 289.01 110.52 284.247 109.952C283.402 109.854 282.541 109.496 283.419 108.83L317.713 111.089H317.697Z" fill="black"/>
<path d="M305.897 137.52C307.799 138.983 301.704 138.674 301.119 138.641C295.885 138.349 289.514 137.585 284.231 136.967C283.386 136.87 282.508 136.528 283.402 135.846L305.881 137.536L305.897 137.52Z" fill="black"/>
<path d="M271.878 133.587C273.455 133.701 275.762 134.676 277.778 134.156C278.688 134.855 277.778 135.18 276.949 135.277C274.039 135.651 268.741 135.098 265.669 134.741C264.824 134.643 263.93 134.627 263.719 133.603C266.417 133.733 269.18 133.408 271.878 133.603V133.587Z" fill="black"/>
<path d="M277.795 107.711H268.238V108.832H277.795V107.711Z" fill="black"/>
<path d="M303.086 177.454L284.508 240.695C268.759 244.385 252.586 246.27 236.642 249.05C228.986 250.382 219.657 253.21 212.213 253.893C207.597 254.316 209.466 251.032 210.133 247.847C212.928 234.6 216.878 220.265 220.714 207.262C222.063 202.663 225.183 189.546 228.58 187.011C231.099 185.125 241.681 184.231 245.516 183.711C261.071 181.631 277.649 179.485 293.236 178.022C296.487 177.714 299.802 177.421 303.069 177.454H303.086ZM214.261 246.612L228.32 193.756L225.362 201.752C221.152 216.007 216.975 230.309 213.107 244.661L214.261 246.612ZM258.519 207.945C251.888 209.326 250.051 222.069 256.195 222.979C265.8 224.393 271.473 205.263 258.519 207.945Z" fill="#4A5775"/>
<path d="M146.24 213.437C145.216 212.446 148.597 195.998 148.694 193.072C148.711 192.308 149.149 191.82 147.93 191.512L144.55 212.885C138.195 212.186 129.532 211.714 123.437 213.974C122.38 214.364 120.738 214.77 120.933 216.249C133.318 211.601 146.045 215.046 158.592 216.818L154.285 219.256C148.938 225.4 147.833 233.868 150.157 241.556C141.218 240.418 131.888 241.036 123.063 239.15C116.626 237.769 113.75 235.201 113.067 228.342C111.621 213.827 119.097 179.517 127.549 167.489C136 155.462 151.262 151.967 164.492 148.765C164.444 151.138 163.322 153.414 163.111 155.819C162.607 161.394 163.647 169.115 165.191 174.527C165.549 175.778 165.955 178.476 167.597 177.745C170.864 176.298 175.398 170.577 178.275 168.172C177.723 167.343 176.617 168.448 176.097 168.789C173.237 170.626 170.441 173.487 167.89 175.746C166.606 175.746 164.931 165.766 164.801 164.222C164.249 157.136 164.509 147.286 172.652 144.832C168.556 159.265 180.161 166.189 186.711 176.656C185.053 188.375 183.818 200.142 183.249 211.958L168.897 218.362C161.453 216.217 154.009 214.023 146.224 213.437H146.24ZM150.173 183.629C149.946 177.127 148.353 168.822 142.03 165.636C141.331 166.351 140.876 166.205 141.77 167.018C142.843 167.993 144.078 168.546 145.102 169.862C148.142 173.796 147.589 178.103 148.873 182.426C149.165 183.401 148.678 183.889 150.157 183.645L150.173 183.629Z" fill="#C8DEF5"/>
<path d="M203.581 173.794L202.46 174.363C200.217 172.819 197.73 170.885 195.325 169.682C192.919 168.479 192.155 169.373 194.512 171.064C196.056 172.153 201.306 176.07 202.476 176.606C203.061 176.866 203.5 177.012 204.15 176.899C205.467 172.852 205.304 168.788 205.336 164.579C208.197 165.31 215.268 159.735 216.682 160.093C217.202 160.223 221.769 164.822 222.435 165.635C225.491 169.341 228.92 175.777 229.392 180.604C229.912 185.838 226.547 185.22 224.516 189.674C219.932 199.702 218.616 213.144 214.552 223.562L211.009 213.16C212.472 202.303 216.942 190.649 218.144 179.906C218.226 179.158 218.729 176.476 217.657 176.33C213.788 193.737 208.148 211.161 208.652 229.186C209.367 229.868 214.634 228.243 212.878 226.374L209.79 228.048L210.359 217.922C211.383 218.101 211.302 219.076 211.562 219.807C212.098 221.384 213.301 224.895 213.512 226.341C214.438 233.119 207.629 228.958 203.614 229.738C205.077 219.872 193.521 211.681 184.5 212.298L188.011 177.289C188.141 175.468 194.74 165.066 195.455 165.066H203.614V173.778L203.581 173.794Z" fill="#C8DEF5"/>
<path d="M210.345 128.546L214.262 128.514C213.498 136.023 223.347 145.515 209.207 144.263L209.451 145.986C213.319 147.628 219.674 145.417 218.764 140.33C220.584 141.386 222.73 140.655 224.68 140.882C225.33 140.964 225.802 140.655 225.493 141.695C220.129 159.72 201.291 170.594 185.022 157.477C178.017 151.821 176.164 144.426 175.205 135.811L174.555 135.324C167.029 136.348 161.991 130.496 163.145 123.199C163.876 118.518 169.386 115.95 173.644 117.689C175.351 118.388 176.895 121.346 178.309 122.012C179.268 122.467 180.504 122.272 181.495 122.76C182.616 123.312 186.485 125.425 186.989 126.254C187.785 127.571 186.891 131.407 188.711 134.641C194.205 144.393 210.085 139.387 210.345 128.514V128.546ZM175.465 130.773C175.871 126.742 171.759 121.655 167.598 121.785L172.084 125.442L175.449 130.789L175.465 130.773ZM206.948 152.699C205.29 149.984 201.356 149.464 198.48 150.131C197.179 150.439 194.075 151.756 195.44 153.267C197.44 153.121 199.049 151.577 201.08 151.528C203.421 151.48 204.591 153.723 206.948 152.682V152.699Z" fill="white"/>
<path d="M126.558 166.205C117.944 180.654 113.312 200.305 111.947 217.094C111.459 223.189 110.646 233.217 115.571 237.638L119.244 239.865L104.99 241.49C103.966 241.133 103.3 235.867 103.04 234.437C100.911 222.653 97.5627 198.679 98.4404 187.269C99.7569 170.09 111.752 167.473 126.575 166.205H126.558Z" fill="white"/>
<path d="M206.948 97.584C210.166 100.867 213.466 105.012 212.572 109.953C214.181 111.773 218.163 101.192 217.627 99.827C223.397 104.183 229.687 109.043 228.289 117.267C225.591 115.381 222.422 113.789 219.025 113.87C218.212 113.886 217.984 113.74 218.163 114.731C218.797 118.323 226.452 118.681 228.289 121.184C224.502 121.086 220.877 120.859 217.643 123.199C214.977 125.133 215.302 127.88 210.638 126.856C208.671 115.463 192.58 115.576 187.542 124.548L181.04 120.908C180.764 119.25 183.95 117.169 184.99 115.853C188.94 110.798 191.816 104.508 192.889 98.1529C194.498 96.7389 202.999 106.377 204.136 106.881C205.274 107.385 206.932 106.41 206.932 105.743V97.584H206.948ZM193.458 116.714C195.392 116.909 207.517 116.324 206.948 113.626C205.567 111.139 190.646 113.919 193.458 116.714Z" fill="white"/>
<path d="M201.891 226.927C198.153 222.88 195.926 219.239 190.4 217.338C188.726 216.769 185.264 215.306 184.484 217.338C186.58 217.63 188.628 217.972 190.611 218.817C193.553 220.068 203.598 229.04 200.656 232.388C198.088 235.33 195.569 229.918 194.333 228.585C191.392 225.416 187.946 221.596 183.362 221.287L188.693 225.237C190.335 226.553 197.259 233.77 194.626 235.655C192.35 237.297 188.482 230.649 187.1 229.349C184.874 227.269 181.477 224.928 178.307 225.221C178.031 226.716 178.616 226.196 179.429 226.602C183.2 228.439 185.117 229.365 187.848 232.827C188.791 234.03 191.602 237.476 189.88 238.76C186.369 241.344 183.248 233.575 180.274 233.689C178.99 233.737 177.17 235.948 175.886 236.582C171.855 238.597 167.401 237.232 163.159 237.004C161.453 228.244 162.997 223.319 170.62 218.947C182.777 211.974 197.405 211.308 201.907 226.911L201.891 226.927Z" fill="white"/>
<path d="M195.568 120.226C198.949 119.657 204.231 119.608 206.702 122.306C211.415 127.458 207.255 136.446 200.802 137.828C187.296 140.737 184.955 121.997 195.568 120.209V120.226ZM198.916 128.596C196.999 129.149 195.958 133.391 197.616 134.756L199.323 135.292C203.597 134.317 202.98 127.442 198.9 128.596H198.916Z" fill="white"/>
<path d="M152.141 239.297C151.994 239.264 150.889 238.696 150.841 238.614C149.118 228.602 153.035 215.112 165.907 219.045C164.964 221.223 163.437 222.491 162.429 224.848C161.031 228.147 160.381 233.868 161.486 237.233C161.811 238.224 163.421 238.224 163.648 239.281C160.154 238.858 155.44 239.85 152.124 239.281L152.141 239.297Z" fill="#C8DEF5"/>
<path d="M175.465 145.956C176.993 152.229 181.284 157.544 186.761 160.811C187.997 161.543 193.263 163.574 193.425 164.289L187.834 174.074C187.005 174.838 185.071 171.165 184.454 170.433C178.635 163.574 172.816 159.088 173.791 149.06C173.84 148.556 174.311 144.737 175.465 145.956Z" fill="white"/>
<path d="M228.239 123.539C228.694 126.156 227.638 137.891 225.509 138.931C222.941 139.418 219.593 139.89 218.065 137.354C212.847 128.659 218.309 120.451 228.223 123.539H228.239ZM222.616 136.883C227.378 129.179 216.505 126.237 219.008 135.323C219.446 136.883 221.185 137.11 222.616 136.883Z" fill="white"/>
<path d="M228.32 136.952L230.287 125.721C232.66 128.581 232.351 135.814 228.32 136.952Z" fill="white"/>
<path d="M209.759 242.125C210.036 243.815 209.353 243.035 208.394 243.263C205.452 243.978 202.12 244.449 199.081 244.368C198.951 243.572 200.072 243.555 200.641 243.409C203.599 242.678 206.785 242.791 209.759 242.125Z" fill="white"/>
<path d="M140.618 35.1719L140.049 72.8471H130.769C130.622 72.8471 129.582 73.9198 129.501 74.3261L130.492 89.7181H103.219C103.073 89.7181 102.878 90.1731 102.65 90.1568L101.87 89.3767C100.83 75.5776 100.163 61.6647 100.651 47.8006C100.7 46.4679 101.188 45.2489 101.253 43.9161C101.415 41.1205 100.456 37.3661 102.065 35.1719H140.569H140.618ZM133.873 43.6073H109.135L109.655 48.9872L119.245 49.2309L119.911 61.7786C126.104 69.3851 133.58 69.5314 131.516 57.4714L131.077 56.7888C127.518 56.6588 124.414 59.178 120.35 58.2353V49.2472H131.305C132.882 48.1257 131.419 44.7938 133.824 44.745V43.6235L133.873 43.6073ZM119.814 64.4116C118.335 64.883 110.94 63.6964 110.517 64.3791C108.16 68.2149 113.573 68.9137 113.67 69.2551C114.19 71.1405 111.931 76.504 113.605 77.658C117.034 77.7718 120.431 78.8445 123.763 77.9019C123.78 77.0567 121.764 77.0729 121.065 76.9591C118.822 76.5691 116.482 76.2766 114.207 76.2115L115.019 68.865C117.847 67.8248 120.497 68.54 119.846 64.4116H119.814Z" fill="white"/>
<path d="M152.416 73.3971L153.293 91.4059C146.402 93.21 139.201 92.1048 132.18 93.0637L131.059 74.5186L152.416 73.3809V73.3971ZM145.102 84.0919C142.485 84.0106 140.03 83.9943 137.479 84.6444C136.536 84.8882 135.837 84.0756 136.114 85.7822C138.795 85.7334 141.607 85.5547 144.273 85.2133C145.037 85.1158 146.061 84.8233 145.102 84.0919Z" fill="white"/>
<path d="M264.859 93.6506L267.622 44.9556L304.81 41.6074C305.379 42.0138 305.298 42.6965 305.363 43.2978C306.37 51.8146 305.736 67.5477 305.363 76.5195C305.151 81.5743 304.144 86.8892 303.965 91.9928L264.859 93.6506ZM274.416 70.3109C274.855 64.5897 274.091 58.3646 274.416 52.5947L279.926 55.5203L280.625 60.4451L294.652 59.9087C295.562 59.2098 294.652 58.8847 293.823 58.7872C289.597 58.2508 285.387 59.6974 281.162 59.356V55.4228L298.032 54.3013L297.496 47.7999C295.611 46.4997 277.439 50.1729 273.815 50.0429L272.726 76.227C273.783 75.9995 273.75 75.1219 273.864 74.2767C274.01 73.1227 274.335 71.2697 274.416 70.327V70.3109ZM299.154 65.5324L287.078 66.0849L285.68 67.7753C289.841 67.239 294.197 67.4015 298.325 66.6376C299.252 66.4588 299.3 67.0114 299.17 65.5324H299.154ZM295.22 75.1055C294.392 74.813 293.839 74.7804 292.978 74.7967C289.451 74.8942 283.339 75.6419 279.829 76.2758C279.227 76.3896 277.732 76.4708 277.813 77.3322C282.852 77.1534 288.784 77.1047 293.693 76.0645C294.229 75.9507 295.383 75.8695 295.237 75.0893L295.22 75.1055ZM294.652 80.1604C293.888 79.5753 279.179 81.1355 277.228 82.127C277.976 83.3297 278.528 82.6309 279.341 82.5984C283.794 82.4846 289.353 81.8345 293.823 81.2819C294.587 81.1843 295.611 80.8918 294.652 80.1604Z" fill="white"/>
<path d="M152.709 62.7186C150.726 62.0685 151.506 48.4482 150.742 45.8477C153.164 46.1727 168.101 46.1566 168.653 47.0505L170.408 62.7186H152.693H152.709ZM164.216 51.4713C161.437 51.065 160.055 53.1779 158.284 54.8195L155.504 52.024C154.545 52.6254 156.951 56.5424 157.211 56.5424C159.373 55.3884 160.852 54.0394 163.078 52.8367C163.81 52.4303 164.525 53.0154 164.216 51.4713Z" fill="white"/>
<path d="M214.259 246.612L213.105 244.661C216.974 230.31 221.151 216.023 225.361 201.753L228.319 193.756L214.259 246.612Z" fill="black"/>
<path d="M258.516 207.943C271.453 205.245 265.797 224.375 256.191 222.977C250.048 222.083 251.884 209.324 258.516 207.943ZM260.157 209.113C253.851 209.487 252.535 220.133 255.672 221.205C262.709 223.611 269.032 208.577 260.157 209.113Z" fill="black"/>
<path d="M150.172 183.628C148.693 183.872 149.181 183.384 148.888 182.409C147.604 178.085 148.157 173.795 145.118 169.845C144.094 168.512 142.859 167.976 141.786 167.001C140.908 166.204 141.347 166.351 142.046 165.619C148.368 168.821 149.961 177.11 150.189 183.612L150.172 183.628Z" fill="black"/>
<path d="M206.945 152.698C204.589 153.738 203.419 151.495 201.078 151.544C199.03 151.593 197.437 153.137 195.438 153.283C194.089 151.772 197.193 150.439 198.477 150.146C201.354 149.48 205.304 150 206.945 152.714V152.698Z" fill="black"/>
<path d="M175.464 130.774L172.099 125.427L167.613 121.77C171.774 121.64 175.886 126.744 175.48 130.758L175.464 130.774Z" fill="black"/>
<path d="M193.457 116.714C190.646 113.934 205.566 111.139 206.947 113.626C207.516 116.307 195.408 116.892 193.457 116.714Z" fill="black"/>
<path d="M198.919 128.597C202.999 127.443 203.6 134.318 199.342 135.293L197.635 134.757C195.961 133.392 197.001 129.133 198.936 128.597H198.919Z" fill="black"/>
<path d="M222.616 136.885C221.17 137.096 219.431 136.885 219.008 135.324C216.505 126.239 227.395 129.181 222.616 136.885Z" fill="black"/>
<path d="M133.869 43.6041V44.7255C131.464 44.7906 132.927 48.1063 131.334 49.2278H120.379V58.2159C124.426 59.1748 127.53 56.6393 131.106 56.7693L131.545 57.4519C133.609 69.4957 126.133 69.3494 119.94 61.7591L119.274 49.2115L109.684 48.9677L109.164 43.5879H133.902L133.869 43.6041ZM131.057 44.7255H110.253C110.269 45.8145 109.879 47.5862 111.179 48.025L130.814 47.5699L131.057 44.7255ZM130.489 58.2159C128.75 57.9883 127.286 58.9798 125.677 59.3048C124.393 59.5486 120.818 58.6709 121.013 60.6701C124.995 66.9764 132.098 68.2441 130.505 58.2321L130.489 58.2159Z" fill="black"/>
<path d="M119.814 64.412C120.48 68.5404 117.815 67.8414 114.987 68.8654L114.174 76.2119C116.449 76.277 118.79 76.5532 121.033 76.9595C121.732 77.0896 123.747 77.0733 123.731 77.9023C120.399 78.8612 117.002 77.7884 113.572 77.6584C111.915 76.4882 114.174 71.1409 113.638 69.2555C113.54 68.9304 108.128 68.2153 110.484 64.3795C110.907 63.6968 118.302 64.8834 119.781 64.412H119.814Z" fill="black"/>
<path d="M145.104 84.0925C146.047 84.8077 145.039 85.1165 144.275 85.214C141.609 85.5553 138.814 85.7341 136.116 85.7828C135.839 84.0762 136.538 84.8889 137.481 84.6451C140.032 83.995 142.487 84.0113 145.104 84.0925Z" fill="black"/>
<path d="M274.413 70.3135C274.331 71.2724 274.023 73.1091 273.86 74.263C273.747 75.1082 273.779 75.9859 272.723 76.2135L273.812 50.0293C277.452 50.1593 295.607 46.4698 297.493 47.7863L298.029 54.2876L281.158 55.4091V59.3425C285.384 59.6838 289.594 58.2372 293.819 58.7736C294.648 58.8711 295.559 59.1962 294.648 59.8951L280.622 60.4314L279.923 55.5066L274.413 52.5811C274.088 58.351 274.852 64.5761 274.413 70.2972V70.3135ZM296.842 52.5485C297.021 51.5083 297.232 49.0703 295.997 48.7128L276.119 51.7684C277.192 52.7436 278.232 53.5562 279.744 53.7675C281.694 54.0276 296.127 53.41 296.842 52.5648V52.5485Z" fill="black"/>
<path d="M294.65 80.1625C295.593 80.8776 294.585 81.1864 293.821 81.284C289.351 81.8528 283.793 82.4867 279.339 82.6005C278.527 82.6167 277.974 83.3156 277.227 82.1291C279.177 81.1539 293.886 79.5936 294.65 80.1625Z" fill="black"/>
<path d="M295.22 75.1073C295.366 75.8712 294.212 75.9525 293.676 76.0825C288.783 77.1227 282.835 77.1877 277.796 77.3502C277.715 76.4888 279.21 76.3914 279.812 76.2938C283.322 75.66 289.45 74.9122 292.961 74.8147C293.822 74.7822 294.374 74.8147 295.203 75.1235L295.22 75.1073Z" fill="black"/>
<path d="M299.151 65.5312C299.281 66.994 299.232 66.4577 298.305 66.6365C294.177 67.4004 289.821 67.2379 285.66 67.7742L287.058 66.0838L299.134 65.5312H299.151Z" fill="black"/>
<path d="M164.218 51.4727C164.527 53.0167 163.827 52.4317 163.08 52.838C160.837 54.0407 159.374 55.3897 157.213 56.5437C156.953 56.5437 154.547 52.6429 155.506 52.0253L158.285 54.8208C160.073 53.163 161.439 51.0501 164.218 51.4727Z" fill="black"/>
<path d="M260.163 209.116C269.037 208.579 262.714 223.614 255.677 221.208C252.524 220.135 253.84 209.489 260.163 209.116Z" fill="white"/>
<path d="M131.059 44.7285L130.815 47.5728L111.181 48.028C109.88 47.6054 110.287 45.8175 110.254 44.7285H131.059Z" fill="white"/>
<path d="M130.492 58.2174C132.085 68.2457 124.982 66.9617 121 60.6554C120.805 58.6562 124.381 59.5339 125.665 59.2901C127.29 58.9812 128.737 57.9736 130.476 58.2011L130.492 58.2174Z" fill="white"/>
<path d="M296.844 52.5454C296.129 53.3906 281.696 54.0245 279.746 53.7482C278.234 53.5369 277.194 52.7242 276.121 51.749L295.999 48.6934C297.234 49.0509 297.023 51.489 296.844 52.5292V52.5454Z" fill="white"/>
</svg>
