<svg width="137" height="236" viewBox="0 0 137 236" fill="none" xmlns="http://www.w3.org/2000/svg">
<path d="M74.7317 222.566C74.7317 222.566 74.2787 224.379 74.2786 226.418C90.8839 229.066 101.244 230.314 111.893 227.325C111.893 222.566 98.5243 219.62 98.0711 218.261C97.5579 216.721 92.679 217.738 92.4063 218.261C92.0221 218.439 84.4389 221.482 79.4903 222.566C76.404 223.242 74.7317 222.566 74.7317 222.566Z" fill="#F9D483"/>
<path d="M25.5601 211.012C27.1831 206.733 28.2787 206.707 28.2787 206.707C29.9897 208.507 31.5929 210.236 34.3968 211.692C38.8925 214.027 44.6381 215.661 45.0471 215.771C45.5909 215.544 45.4234 218.785 46.4064 220.076C48.0209 222.198 53.3365 223.66 52.2978 226.874C44.5941 228.458 33.6408 226.518 32.1305 222.568C32.5755 222.015 24.5884 213.574 25.5601 211.012Z" fill="#F9D483"/>
<path d="M81.7331 44.0303C82.1044 46.0418 81.8259 47.1765 79.9073 48.012C75.3376 50.0029 66.8481 46.2275 64.3621 42.091C63.6194 40.8635 64.3827 40.8532 64.6819 39.6566C65.1564 37.7586 65.0532 34.86 65.0945 32.8382C65.0945 32.4565 64.8882 31.9201 64.9913 31.4869L65.6825 31.1465C66.6108 36.0153 70.2006 39.6876 74.368 42.091C75.4717 42.7203 78.4941 44.0303 79.6803 44.0303H81.7434H81.7331Z" fill="#FCF7ED"/>
<path d="M87.6132 34.0234C88.1186 35.612 86.8395 39.7278 84.7043 39.243C84.1576 39.1192 83.9925 38.4693 84.1369 37.9845C84.271 37.541 86.5507 36.9427 86.1071 35.6429C85.8905 35.6429 85.9627 35.9524 85.8183 36.1071C84.5702 37.4997 79.6188 37.149 78.1025 36.0143C77.9581 36.169 78.5667 36.6642 78.6801 36.7467C79.526 37.3243 80.6813 37.5513 81.5684 38.0464C81.7335 39.9547 78.8864 39.6762 77.6899 39.243C76.1013 38.6756 74.915 36.9839 75.2761 35.2613C75.6371 33.5386 76.3901 34.4154 77.5351 34.5186C78.773 34.632 80.2584 34.4979 81.5375 34.5186C83.0641 34.5289 84.7352 34.7146 86.2722 34.5186C86.7467 34.4567 87.149 34.1679 87.5926 34.0338L87.6132 34.0234Z" fill="#FCF7ED"/>
<path d="M87.3648 33.7771C86.5396 34.0247 85.6525 33.8597 84.8066 33.9009C83.4759 33.9731 83.1149 33.9731 81.8151 33.9009C79.9481 33.7874 77.9882 34.3032 76.1211 33.9009C76.3893 33.4161 76.8225 33.2304 77.3074 33.0241C79.3704 32.1576 81.8667 32.302 84.0536 32.2711C85.3636 32.2505 86.9522 32.2711 87.3751 33.7771H87.3648Z" fill="#FCF7ED"/>
<path d="M79.4862 18.025L79.3624 17.5299C79.7441 17.7259 80.1155 18.5408 80.1051 18.9534C80.0329 20.6761 76.8042 19.9127 75.6799 19.8921C74.1738 19.8715 73.0288 19.954 71.5847 20.4388C70.9451 20.6451 70.3881 21.0474 69.7383 21.1506C69.4804 20.8824 71.43 18.4273 71.8013 18.1488C72.8947 17.3339 77.4232 17.3442 78.7435 17.7053C79.0427 17.7878 79.1974 18.0044 79.4862 18.025Z" fill="black"/>
<path d="M78.9914 27.8972C78.0321 30.0634 80.0849 29.3516 81.2711 29.5476C82.1067 29.692 82.2614 30.1356 83.3961 29.9809C84.8505 29.7849 86.6764 28.9699 85.5932 27.2267C85.0775 26.4014 84.0356 26.1539 83.427 25.3905C82.4677 24.194 82.2201 22.2856 83.3651 21.1406C83.035 22.2237 83.1073 23.3687 83.5199 24.4209C84.0666 25.8238 85.6758 25.8857 86.3669 27.1957C87.5428 29.4135 84.7887 30.5276 83.0351 30.6307C82.2614 30.672 81.8179 30.2387 81.168 30.1562C80.3943 30.0531 79.3319 30.3522 78.6717 29.7745C78.0115 29.1969 78.0837 28.1241 78.9914 27.8972Z" fill="black"/>
<path d="M76.1117 22.3371L76.1735 22.626C76.4005 24.3693 74.2962 24.2145 74.5437 22.5538L74.6159 22.2753C74.8119 21.6254 75.7506 21.3159 76.1117 22.3475V22.3371Z" fill="black"/>
<path d="M86.8381 22.1819V22.5223C87.0754 24.0593 85.1258 24.2863 85.3733 22.5945L85.4765 22.0891C85.6312 21.5836 86.704 21.3258 86.8278 22.1819H86.8381Z" fill="black"/>
<path d="M64.6104 27.021L63.4861 25.1436C63.1353 26.1545 63.0941 27.3305 63.4861 28.331C63.2075 28.5477 62.929 27.9494 62.8362 27.7328C62.3926 26.66 62.6196 25.4634 62.929 24.4009C62.568 23.9161 61.5571 23.617 61.0104 23.8542C60.8144 23.9367 60.9382 24.174 60.7422 24.143L60.8041 23.6376C62.9084 22.3275 64.6826 25.1333 64.6207 27.0107L64.6104 27.021Z" fill="black"/>
<path d="M63.6408 30.1248C62.7434 29.2274 64.9508 28.3196 64.8683 29.7122C64.827 30.3724 63.9709 30.4446 63.6408 30.1248Z" fill="black"/>
<path d="M59.9391 28.6406C60.8469 30.0848 62.6211 31.9622 64.4882 31.6527C64.1581 34.4172 64.6326 37.2745 63.9827 40.0184C63.9311 40.0184 63.8899 40.0184 63.8486 40.0184V42.2671C65.8601 45.434 69.4498 47.6208 72.988 48.6007C75.4843 49.2919 79.1153 49.7251 81.2815 48.0128C81.7354 47.6517 82.4884 46.8059 82.4884 46.2179C82.4884 45.7022 82.3852 44.4849 82.4884 44.093C82.4884 44.062 82.5709 43.9898 82.6431 43.9382L82.6225 43.8867L83.1486 43.6804L83.1176 43.6597C83.262 43.6288 83.3961 43.5772 83.5405 43.5256H83.5715C84.6546 43.113 85.7377 42.2671 86.4392 41.4213C88.1412 39.3789 90.4931 32.0137 90.5137 29.3524C90.524 27.444 89.8226 25.6079 89.7504 23.7305C89.6575 21.2755 90.1217 19.821 89.575 17.1597C89.4203 16.3963 88.7807 14.9419 88.7601 14.3333C88.7498 14.0238 89.2965 13.374 89.3687 12.8376C89.5131 11.7854 89.018 11.249 89.018 10.7229C89.018 10.5063 89.2965 10.1349 89.379 9.8358C89.6472 8.85584 89.5028 8.13377 88.8839 7.33949C88.7601 7.18476 88.4713 7.1435 88.3991 6.94751C88.1618 6.2667 88.6157 5.74062 87.9349 4.79161C87.1922 3.76008 86.5217 4.1108 85.8821 3.71882C85.7583 3.64661 85.4179 2.89359 85.191 2.65634C84.1182 1.50102 83.2723 2.21278 82.3336 1.893C82.0448 1.78985 81.6425 0.871788 80.5285 0.696428C79.5691 0.541698 78.4241 1.06778 78.0837 1.00589C77.7124 0.943998 77.1141 0.345709 76.3095 0.283817C75.1439 0.201295 74.5662 0.933683 73.9164 1.00589C73.6378 1.03684 72.792 0.665485 72.3278 0.6758C71.2653 0.696431 70.667 1.54228 70.0584 1.65575C69.5942 1.73827 69.2332 1.52166 68.8206 1.52166C67.851 1.52166 66.9226 2.06837 66.3243 2.79044C66.2211 2.92454 66.1592 3.234 66.118 3.26494C65.9323 3.38873 64.4882 3.21337 63.5907 3.80134C62.7036 4.38931 62.8171 5.22485 62.456 5.53431C62.2497 5.70967 61.7237 5.78188 61.3936 5.97787C60.5477 6.46269 60.0319 7.40138 59.8875 8.36071C59.8566 8.58764 60.0113 8.81458 59.9494 9.04152C59.8875 9.2994 59.5368 9.50571 59.3924 9.74296C58.8973 10.6198 58.7116 11.249 58.9282 12.2908C59.0417 12.8582 59.5471 13.1573 59.5987 13.374C59.7122 13.8588 59.2377 14.6221 59.5265 15.5608C59.7844 16.386 60.3311 16.6026 60.589 17.1287C60.8262 17.6239 60.7643 18.5419 60.9913 19.2331C61.1873 19.821 61.5483 20.3265 61.8681 20.8526C57.8864 21.4818 58.2474 25.9586 59.9391 28.6612V28.6406ZM79.9096 48.0128C75.3399 50.0036 66.8504 46.2282 64.3644 42.0918C63.6217 40.8643 64.385 40.854 64.6841 39.6574C65.1587 37.7594 65.0555 34.8608 65.0968 32.839C65.0968 32.4573 64.8905 31.9209 64.9936 31.4876L65.6847 31.1472C66.6131 36.0161 70.2028 39.6883 74.3702 42.0918C75.474 42.721 78.4964 44.0311 79.6826 44.0311H81.7457C82.117 46.0426 81.8385 47.1772 79.9199 48.0128H79.9096ZM84.7062 39.2551C84.1595 39.1313 83.9944 38.4814 84.1388 37.9966C84.2729 37.5531 86.5526 36.9548 86.1091 35.655C85.8924 35.655 85.9646 35.9645 85.8202 36.1192C84.5721 37.5118 79.6207 37.1611 78.1044 36.0264C77.96 36.1811 78.5686 36.6763 78.682 36.7588C79.5279 37.3364 80.6832 37.5634 81.5703 38.0585C81.7354 39.9668 78.8883 39.6883 77.6918 39.2551C76.1032 38.6877 74.9169 36.996 75.278 35.2734C75.639 33.5507 76.392 34.4275 77.537 34.5307C78.7749 34.6441 80.2603 34.51 81.5394 34.5307C83.066 34.541 84.7371 34.7267 86.2741 34.5307C86.7486 34.4688 87.1509 34.1799 87.5945 34.0458C88.0999 35.6344 86.8208 39.7502 84.6855 39.2654L84.7062 39.2551ZM76.1135 33.9014C76.3817 33.4166 76.815 33.2309 77.2998 33.0246C79.3628 32.1581 81.8591 32.3026 84.046 32.2716C85.356 32.251 86.9446 32.2716 87.3675 33.7776C86.5423 34.0252 85.6552 33.8602 84.8093 33.9014C83.4787 33.9736 83.1176 33.9736 81.8076 33.9014C79.9405 33.788 77.9806 34.3037 76.1135 33.9014ZM64.4882 22.5958C64.6326 22.7506 64.9214 23.4623 65.1174 23.2767C65.7982 20.8732 67.5312 18.9442 69.4292 17.3969L69.1197 12.1464C74.0195 10.8983 79.3525 10.1349 84.407 10.9086C85.5211 11.084 86.6042 11.1046 87.1303 12.1774C87.9555 13.8485 88.4197 15.9837 88.9767 17.7683C87.9555 17.4898 84.6546 17.3969 83.9944 18.2222C83.6127 18.6967 83.1589 20.2852 84.046 20.3987C84.5308 20.4606 86.1606 19.9242 86.9136 19.8932C87.7698 19.8623 88.4094 20.0583 89.214 20.2852C89.2759 21.6365 89.0077 22.9878 89.1005 24.3391C89.183 25.577 89.6472 26.8561 89.7297 28.0836C89.8845 30.2808 89.2037 32.2922 88.7292 34.3966L88.2546 33.0556C87.7286 31.859 85.5005 30.879 84.242 30.8481C83.262 30.8172 82.6741 30.8687 81.6528 30.7862C80.3119 30.6727 78.4241 31.271 77.1657 31.7662C75.5978 32.3851 74.4424 33.2206 73.9164 34.8917L73.6894 34.9949C70.667 34.1593 68.2945 32.4057 67.1289 29.4143C66.3965 27.5162 66.3965 25.381 65.2824 23.6274C64.9627 23.5758 65.1793 23.7615 65.2102 23.9575C65.4269 25.5357 66.0355 28.0526 65.8498 29.569C65.6332 31.3535 64.0343 31.1679 62.8068 30.4767C60.3311 29.0945 58.3712 25.2778 59.9082 22.6165C60.8881 20.9144 63.2606 21.2136 64.4675 22.5649L64.4882 22.5958Z" fill="black"/>
<path d="M82.0428 44.6812C82.3007 44.6089 82.3213 44.7534 82.4657 44.8462C83.425 45.4961 84.3844 46.476 85.3746 47.1775C90.8624 51.1385 93.6681 51.283 96.3707 58.153C98.1037 62.5576 99.486 67.1376 101.229 71.5525C102.797 75.5136 104.592 79.3819 106.212 83.3223C106.263 84.2507 103.54 85.7155 102.725 86.0765C101.828 86.4685 99.8883 87.1493 98.9599 87.2112C98.733 87.2215 98.6401 87.1287 98.5267 86.943C97.2063 80.1349 96.2882 73.2339 94.8338 66.4568C94.4521 64.6619 94.0498 62.0831 93.4206 60.4326C93.3071 60.1541 93.2658 59.8344 92.8635 59.8962C92.812 60.5977 92.977 61.2785 93.0802 61.9593C94.4624 70.748 96.2676 79.9286 97.9799 88.676C100.301 100.559 103.705 112.556 103.86 124.738C103.88 126.1 101.931 126.822 100.796 127.276C94.0085 130.009 84.4669 128.607 77.8135 125.925C70.3452 122.923 63.991 117.435 57.9462 112.329C55.6356 106.604 53.4797 100.683 52.7885 94.5041C54.2843 94.0399 54.4699 93.8749 54.996 92.4514C56.5536 88.2737 57.8121 81.806 58.8024 77.3188C60.133 71.2844 61.4018 65.1055 60.7416 58.8853C60.4219 58.8338 60.2878 59.0194 60.2362 59.3083C60.0299 60.4636 60.3084 62.4132 60.2362 63.7129C60.1227 65.9204 59.7823 69.4895 59.1325 71.5732C59.0499 71.8311 59.019 72.1715 58.7095 72.2437C57.7089 66.7869 55.6149 60.6286 51.2722 56.9357C51.1071 56.8016 50.2097 56.0589 50.0859 56.1827C50.1375 56.812 50.8802 57.0286 51.2722 57.4412C55.6975 62.0728 57.9256 69.211 58.3176 75.493L54.1295 92.1832L53.6241 92.111C50.1478 90.574 46.6716 88.9545 43.1437 87.5413C40.0182 86.2931 36.9752 85.045 33.5195 85.7567C36.0674 78.8248 38.3368 71.7795 40.9569 64.8785C42.432 60.9897 44.0721 56.224 46.5684 52.9025C50.5914 47.5488 57.5336 44.8256 63.0523 41.3184C64.1973 42.2674 65.1566 43.5877 66.3119 44.5986C69.4787 47.3631 74.6776 50.3649 78.9998 49.3334C81.6405 48.7041 81.9809 47.1775 82.0325 44.6812H82.0428ZM60.917 107.068C62.4953 108.409 64.6512 109.193 66.4976 110.194C73.4811 113.969 81.9499 119.539 90.2434 118.735C90.4807 118.714 91.5122 118.539 91.5122 118.312C91.3059 118.002 91.0687 118.075 90.7592 118.054C89.5626 117.961 88.2732 118.147 87.056 118.044C79.8043 117.404 72.4702 112.267 66.054 109.131C64.4552 108.347 62.65 107.409 60.917 107.078V107.068Z" fill="#F9D483"/>
<path d="M112.039 226.612C109.708 220.867 103.818 221.63 99.7329 218.803C98.5157 217.958 99.1862 218.02 99.2893 217.06C99.3925 216.08 99.0521 214.523 99.1037 213.326C99.3203 208.292 100.971 202.619 101.765 197.554C103.354 187.373 104.406 176.284 104.86 165.989C105.159 159.336 104.56 153.312 104.344 146.72C104.313 145.905 104.375 145.08 104.344 144.265C105.313 144.265 105.85 144.616 106.768 144.069C108.336 143.141 110.739 137.684 111.224 135.848C112.462 131.195 109.46 122.871 108.48 117.889C107.211 111.421 106.345 104.861 104.963 98.4134C104.168 94.6896 103.003 91.0277 102.332 87.3141C103.663 86.7262 105.293 85.8287 106.366 84.8385C106.768 84.4671 107.407 84.0339 107.139 83.3943C105.396 79.1754 103.508 75.0183 101.837 70.7581C100.053 66.209 98.6704 61.2886 96.8033 56.853C93.9563 50.0758 89.1597 49.2403 83.8267 45.1554C83.1459 44.6397 82.7229 44.258 82.465 43.9589L81.3097 43.897C81.1963 44.8254 80.9074 46.5996 80.794 46.909C80.0513 48.9412 76.6885 48.8277 74.9452 48.446C70.8809 47.5589 66.8167 44.2271 64.1657 41.1222L62.8763 40.3691C62.8556 40.3795 62.8247 40.3898 62.8041 40.4001C54.5415 45.1348 47.1454 48.0437 42.9471 57.2244C38.759 66.3844 36.0977 76.8132 32.3739 86.2104C31.9716 88.6551 35.0146 91.1721 37.0364 92.0282C37.1189 93.9056 36.7269 95.783 36.9023 97.6604C37.3355 102.498 41.472 108.182 43.9064 112.267C43.6795 117.383 42.4622 122.964 43.7413 128.008C44.1436 129.586 44.9173 131.598 46.5058 132.268L46.5471 132.485C44.3912 143.326 43.4112 154.642 40.2341 165.246C39.4502 167.846 39.5327 167.103 37.9957 168.929C34.0965 173.571 33.2919 184.66 31.1567 190.663C29.8157 194.449 25.6792 199.462 26.6385 203.465C26.8449 204.352 27.3503 205.218 27.7526 206.023C25.6895 209.53 22.0276 213.202 24.0907 217.514C25.0809 219.577 29.2174 225.663 30.7337 227.437C34.4369 231.76 42.2456 232.513 47.6405 232.172C51.1684 231.945 53.2108 231.337 52.9632 227.355C52.6744 222.61 50.7248 223.136 47.9087 220.743C46.1758 219.268 45.8869 216.544 45.6909 214.419C49.4973 214.997 48.7855 209.282 50.8795 207.859C51.8904 207.168 53.2211 207.096 54.232 206.136C56.8418 203.661 61.2567 192.953 62.9691 189.178C66.2494 181.947 69.2924 174.592 72.3148 167.248C72.4695 167.248 72.4076 167.98 72.3973 168.176C72.16 171.466 71.8299 174.314 72.0672 177.645C72.552 184.495 75.5332 192.417 73.6661 199.039C72.7068 202.443 71.2936 205.002 71.3761 208.767C71.438 211.211 72.5314 213.47 72.7274 215.864C72.8512 217.411 72.5314 219.268 72.748 220.753C72.8718 221.64 73.6248 222.104 73.7383 222.806C74.2953 226.148 72.2116 230.934 76.7504 232.131C80.2472 233.049 85.6628 233.266 89.3763 233.534C95.1426 233.946 103.168 234.658 108.728 233.462C113.04 232.523 113.669 230.697 112.018 226.612H112.039ZM104.189 143.594L104.014 138.808C104.849 138.251 105.427 138.076 105.901 137.116C106.211 136.477 106.201 135.6 106.716 135.146C106.696 138.035 104.313 140.706 105.025 143.594H104.179H104.189ZM108.46 121.644C110.213 129.524 112.627 133.032 108.326 140.892C107.975 141.521 106.654 143.986 105.726 143.399C104.818 142.831 107.304 137.189 107.387 135.899C107.511 134.177 106.634 133.444 106.716 131.505C106.747 130.793 107.15 129.215 107.057 128.637C107.005 128.348 106.861 128.152 106.541 128.204C105.788 129.834 106.304 136.487 104.674 137.251C103.859 137.632 103.756 136.848 103.684 136.219C103.364 133.537 103.498 130.504 103.312 127.781L104.684 125.605C104.591 121.066 104.323 116.579 103.632 112.102C102.487 104.634 100.517 97.32 99.1037 89.9136C99.114 89.305 100.899 89.4597 101.394 89.1812L101.724 89.3359C105.056 99.8473 106.066 110.936 108.449 121.664L108.46 121.644ZM33.5395 85.7668C36.0874 78.835 38.3567 71.7896 40.9768 64.8886C42.4519 60.9998 44.0921 56.2341 46.5884 52.9126C50.6113 47.5589 57.5536 44.8357 63.0722 41.3285C64.2172 42.2775 65.1766 43.5978 66.3319 44.6087C69.4987 47.3732 74.6976 50.375 79.0197 49.3435C81.6604 48.7142 82.0009 47.1876 82.0524 44.6913C82.3103 44.6191 82.3309 44.7635 82.4753 44.8563C83.4347 45.5062 84.394 46.4861 85.3843 47.1876C90.872 51.1486 93.6778 51.2931 96.3804 58.1631C98.1134 62.5677 99.4956 67.1477 101.239 71.5627C102.807 75.5237 104.602 79.392 106.221 83.3324C106.273 84.2608 103.55 85.7256 102.735 86.0866C101.837 86.4786 99.8979 87.1594 98.9695 87.2213C98.7426 87.2316 98.6498 87.1388 98.5363 86.9531C97.2159 80.145 96.2979 73.244 94.8434 66.4669C94.4617 64.672 94.0595 62.0932 93.4302 60.4427C93.3168 60.1642 93.2755 59.8445 92.8732 59.9064C92.8216 60.6078 92.9867 61.2886 93.0898 61.9694C94.4721 70.7581 96.2773 79.9387 97.9896 88.6861C100.311 100.569 103.715 112.566 103.869 124.748C103.89 126.11 101.94 126.832 100.806 127.286C94.0182 130.02 84.4765 128.617 77.8231 125.935C70.3549 122.933 64.0006 117.445 57.9558 112.339C55.6452 106.614 53.4893 100.693 52.7982 94.5142C54.2939 94.05 54.4693 93.885 55.0057 92.4615C56.5633 88.2838 57.8218 81.8161 58.812 77.3289C60.1427 71.2945 61.4115 65.1156 60.7513 58.8954C60.4315 58.8439 60.2974 59.0295 60.2458 59.3184C60.0395 60.4737 60.3181 62.4233 60.2458 63.723C60.1324 65.9305 59.792 69.4996 59.1421 71.5833C59.0596 71.8412 59.0286 72.1816 58.7192 72.2538C57.7186 66.797 55.6246 60.6387 51.2818 56.9459C51.1168 56.8118 50.2194 56.069 50.0956 56.1928C50.1472 56.8221 50.8899 57.0387 51.2818 57.4513C55.7071 62.0829 57.9352 69.2211 58.3272 75.5031L54.1392 92.1933L53.6337 92.1211C50.1575 90.5841 46.6812 88.9646 43.1534 87.5514C40.0278 86.3032 36.9848 85.0551 33.5292 85.7668H33.5395ZM38.1814 99.4553C37.2427 95.8655 38.0989 91.9045 38.6043 88.2941C41.3069 88.9955 44.0405 89.6041 46.7122 90.4087C47.3517 90.6047 50.3844 91.4712 50.5701 91.791C52.5609 100.384 55.4802 108.687 58.8739 116.806C58.9358 117.064 58.8739 117.301 58.8017 117.548C58.5335 118.528 56.9965 121.21 56.4292 122.283C56.2745 122.582 54.8613 125.305 54.6549 125.151C52.9013 122.572 50.7351 120.199 48.8371 117.693C45.3196 113.03 39.6255 105.015 38.1711 99.445L38.1814 99.4553ZM44.6697 128.142C43.5144 123.696 44.4325 118.374 44.6903 113.835L51.0755 122.056C49.3838 124.996 47.3723 127.781 46.8772 131.237C45.5362 131.237 44.9482 129.215 44.6594 128.132L44.6697 128.142ZM49.0022 231.172C44.9173 231.76 36.8404 231.068 33.3848 228.706C31.0638 227.118 27.4328 221.403 25.8649 218.814C24.6271 216.771 23.8018 215.554 24.7199 213.13C24.7818 212.965 25.1428 211.975 25.4213 212.233C26.36 215.059 28.2787 217.39 29.8879 219.856C32.116 223.27 32.5492 225.343 36.9126 226.684C41.6783 228.149 47.2176 227.881 52.1277 227.448C52.3753 230.181 51.5088 230.811 49.0022 231.161V231.172ZM46.2376 220.072C47.4961 222.053 50.4979 222.558 51.5397 224.745C51.7976 225.292 52.334 226.571 51.5397 226.767C48.0428 227.613 38.3052 226.86 35.1177 225.116C32.5595 223.714 31.8684 221.455 30.4036 219.185C29.1967 217.318 26.0506 213.202 25.9371 211.139C25.8546 209.571 27.505 208.148 28.2271 206.827C28.5881 206.827 29.8054 208.591 30.1664 208.952C31.4661 210.242 33.0547 210.964 34.3854 211.995C36.0152 213.264 36.2112 217.174 38.1092 219.092C39.1407 220.134 41.3172 221.032 42.7614 221.032H45.3815C45.4743 220.629 45.2267 220.65 44.9173 220.578C41.9568 219.897 39.904 220.567 37.9751 217.535C37.6037 216.947 35.9223 213.295 36.2524 212.913L44.8657 215.874C45.5775 217.143 45.4434 218.793 46.248 220.072H46.2376ZM73.7589 221.279C73.109 220.475 73.5423 216.648 73.4185 215.358C73.2535 213.553 72.4179 211.758 72.2632 209.922C71.8196 204.867 73.7589 202.639 74.7182 198.224C76.1418 191.715 73.2328 183.886 72.9027 177.15C72.4179 167.093 78.0913 150.207 82.4031 140.985C83.2077 139.272 84.7138 137.055 85.2914 135.414C85.3843 135.146 85.4668 134.909 85.4255 134.62C83.9814 136.456 82.7023 138.777 81.6192 140.871C77.0186 149.804 74.1096 159.459 70.5096 168.815C66.8683 178.275 62.7628 187.94 58.3581 197.069C57.1822 199.514 54.9438 205.063 52.5094 206.105C47.3517 208.302 42.2766 203.63 37.9854 201.608C37.7481 201.494 37.5418 201.35 37.253 201.412C38.9654 203.557 41.833 204.991 44.3499 206.054C45.0927 206.363 49.1775 207.684 49.3426 208.003C49.4457 208.21 49.3838 208.323 49.3426 208.509C49.2188 209.159 48.3523 211.263 48.0325 211.944C47.3827 213.326 47.2692 213.666 45.6084 213.574C41.9981 213.367 34.3853 210.613 31.4352 208.478C27.1234 205.352 26.4735 202.351 28.7016 197.523C29.9394 194.851 31.4145 192.613 32.3842 189.704C34.21 184.227 34.5813 177.718 36.8713 172.55C38.7487 168.31 41.6473 168.372 44.8348 165.803C46.6709 164.318 48.5586 161.801 49.8171 159.8C50.3328 158.975 51.7048 156.819 51.942 156.004C52.0452 155.663 51.6429 155.674 51.4675 155.798C51.2612 155.932 49.291 159.284 48.8681 159.872C46.6193 163.049 44.319 165.845 40.6158 167.423C41.7402 162.585 42.9677 157.768 43.9167 152.889C45.2371 146.081 45.9798 139.004 47.4652 132.258C48.0016 129.793 48.7133 126.12 51.2612 124.893C52.6538 124.222 54.2114 124.934 53.9741 126.585C53.8813 127.193 53.0561 127.977 54.3145 127.606L60.6585 116.032C64.6918 119.9 69.2408 123.16 74.3159 125.522C80.1647 128.256 86.5602 130.618 93.1105 130.236C96.2979 130.05 99.279 128.761 102.487 128.71C102.797 132.846 102.92 136.993 103.168 141.139C103.673 149.846 104.478 158.603 104.014 167.351C103.457 177.883 102.281 189.529 100.579 199.926C99.8979 204.084 98.6807 208.272 98.4331 212.491C98.3919 213.244 98.5879 217.225 98.2475 217.462C97.4016 217.401 96.7002 217.029 95.8234 216.967C89.4898 216.493 84.3424 221.238 78.4008 221.702C77.5343 221.774 75.1412 221.836 74.3881 221.671C74.1612 221.62 73.9033 221.465 73.7589 221.289V221.279ZM74.7801 222.888C79.9481 223.879 84.4765 221.32 89.2319 219.835C92.1821 220.949 95.6377 223.27 98.918 222.434C99.7226 222.228 100.909 221.764 101.136 220.856C100.29 221.073 99.671 221.64 98.7839 221.795C96.0194 222.28 92.605 220.567 90.1603 219.412C90.0365 219.134 90.5419 219.051 90.7173 218.969C91.8726 218.463 94.4102 217.751 95.6377 217.803C97.4222 217.875 98.8973 219.443 100.517 220.206C104.354 222.012 109.594 222.414 111.296 227.025C111.255 227.561 109.305 227.767 108.748 227.881C100.084 229.531 87.3339 228.572 78.6277 226.901C78.0707 226.798 74.9761 226.179 74.7698 226.024C74.2644 225.643 74.8936 223.549 74.7698 222.888H74.7801ZM111.441 231.584C109.471 233.379 100.795 233.286 98.0102 233.204C93.1105 233.059 87.5195 232.688 82.6404 232.182C81.0828 232.017 77.1423 231.646 75.9354 230.945C74.5738 230.14 74.6048 228.366 74.6048 226.942C77.4621 227.406 80.2885 228.067 83.1665 228.438C91.068 229.48 100.434 230.161 108.274 228.747C109.367 228.551 110.471 228.325 111.523 227.963C112.111 228.861 112.266 230.821 111.441 231.574V231.584Z" fill="black"/>
</svg>
