<svg width="114" height="196" viewBox="0 0 114 196" fill="none" xmlns="http://www.w3.org/2000/svg">
<path d="M65.147 39.9812C65.0749 40.2787 65.5345 40.495 65.7419 40.6212C69.4465 43.0099 74.8999 43.5327 78.0096 47.2283C81.6963 51.6 83.4449 64.7871 85.0494 70.7723C85.9598 74.1614 87.5281 77.8571 87.7986 81.3364C88.2583 87.2314 85.8696 93.6673 82.85 98.5978C80.5064 123.665 77.8564 148.723 75.1973 173.773L75.008 174.169C73.6109 174.953 71.9253 175.008 70.402 175.422C70.402 175.72 71.5738 176.522 71.8802 176.729C73.052 177.504 74.6294 178.243 75.9094 178.847C78.2169 179.929 83.8055 181.606 85.2567 183.255C86.7079 184.905 86.4014 186.933 84.1931 187.465C81.0472 188.222 76.4412 187.428 73.2413 187.077C69.2843 186.653 64.7143 186.428 60.8654 185.698C60.1263 185.563 58.3956 185.175 58.1433 184.319C57.7196 182.849 58.8914 178.721 59.4232 177.18C59.5765 176.747 60.4688 175.035 60.2885 174.782C59.1348 174.44 57.981 174.043 57.0075 173.304C56.8543 173.043 56.9084 169.067 56.9264 168.4C57.3771 154.745 58.4678 141.08 59.1348 127.442L58.9815 126.189C54.9344 142.242 50.7971 158.269 46.9482 174.368C46.2451 175.792 41.4408 176.333 39.9625 176.233C39.8453 177.009 40.0977 177.757 40.1157 178.496C40.1878 181.065 40.3591 184.805 40.1157 187.293C39.7912 190.682 33.3644 191.115 30.8316 190.71C26.4959 190.015 25.5855 187.356 27.2531 183.499C28.497 180.614 30.2727 177.757 31.769 174.99C30.9487 174.602 28.1635 173.998 28.1364 172.952C29.9031 159.396 32.3999 145.938 34.2388 132.39C35.726 121.403 36.6544 110.334 38.1778 99.3549C38.1327 99.1116 36.2308 97.9037 35.8702 97.5882C32.7425 94.8751 27.2711 86.2399 26.55 82.1747C25.7207 77.4875 27.7308 71.0607 29.0378 66.4547C30.3448 61.8487 33.4636 51.3656 36.384 47.8953C39.6741 43.9834 45.7403 41.82 50.3554 39.9181C46.7318 39.2962 44.2801 37.5205 43.7753 33.6987C43.3246 33.96 43.4418 35.0417 43.5049 35.5104C43.6221 36.4388 44.1719 37.1149 44.5144 37.9441C42.8199 37.863 41.3506 36.3126 40.927 34.7352C40.0346 31.4272 42.1528 26.3524 43.0091 23.0534C45.0192 15.3106 45.4248 8.20769 54.3214 5.39539C60.4869 3.44842 70.4651 6.82858 72.0966 13.652C72.4932 15.3196 71.9433 16.924 72.1687 18.1138C72.3309 18.9792 73.4126 19.6282 73.4216 21.2146C73.4306 22.801 72.2228 23.2156 72.0425 23.9998C71.7721 25.2167 72.2498 28.1552 72.5202 29.4622C72.998 31.8328 74.7737 35.2761 73.016 37.4123C72.0695 38.5661 69.0139 39.9993 67.5536 39.9993H65.138L65.147 39.9812ZM70.5642 16.8609C69.4646 13.661 67.8781 10.2899 64.8585 8.52317C64.3267 11.3265 62.3797 13.8143 59.928 15.2294C57.7467 16.4823 54.5107 16.8249 53.8888 19.7904L56.9534 20.3763C57.4312 15.7162 63.9031 15.2475 64.7323 19.9256L65.4985 19.9527C66.1926 17.573 68.2026 16.6536 70.5733 16.8699L70.5642 16.8609ZM59.9911 17.4829C57.0887 18.0147 56.6199 24.3153 60.4868 24.2432C65.0208 24.153 65.4084 16.5004 59.9911 17.4829ZM63.6867 35.5915H60.8384C60.4057 35.5915 56.7912 34.1043 57.4041 33.5454C58.4768 33.5454 59.5404 34.564 60.5589 34.6992C62.1995 34.9245 64.8405 34.7983 66.3278 34.0592C69.9513 32.2655 70.6003 28.4076 71.0059 24.757C70.3299 24.6668 69.5277 25.0635 68.9598 24.5407C69.3744 23.9998 70.7986 24.1711 71.078 23.5852C71.3575 22.9993 71.4296 18.898 71.2313 18.3121C70.9338 17.3927 69.2392 17.546 68.4821 17.7803C67.3103 18.1409 66.0934 19.4389 66.3188 20.7278C66.4089 21.2596 67.2652 22.7739 67.4905 23.5131C67.6708 24.108 68.1936 25.433 67.6258 25.8567C67.3193 26.082 65.0658 26.74 64.8495 26.5237C64.6873 25.5502 66.9677 25.7395 67.0489 24.9913C67.0759 24.775 65.9221 21.4039 65.7419 21.0343C65.6788 20.8991 65.6698 20.7458 65.4985 20.6918C64.7323 20.4304 64.498 22.2782 64.1014 22.9272C62.569 25.433 58.4137 25.9017 57.2419 22.81C57.0436 22.2782 57.0436 21.6923 56.8182 21.1875L53.6003 20.5385C53.2668 22.179 53.2398 23.9097 53.2938 25.5863C53.384 28.2003 53.7085 31.1658 54.2223 33.7347C54.4025 34.6541 55.3129 37.3312 55.2048 38.0162C55.0425 39.0258 52.1852 39.2781 51.6083 39.7018C51.2567 39.9542 50.8511 40.8826 50.2472 41.0989C50.148 42.1896 53.8978 43.7129 54.7992 43.9924C57.2419 44.7495 63.7048 45.2993 65.3002 42.8566C66.2827 41.3513 64.5881 41.4865 63.9031 40.7384C62.9206 39.6658 63.3081 36.9166 63.6867 35.6096V35.5915ZM72.1687 22.5666C72.9078 21.8546 72.9078 20.5025 72.1687 19.7904V22.5666ZM82.85 96.759C84.5807 93.3247 86.131 89.3857 86.6358 85.5459C87.3749 79.9483 85.2747 75.6938 83.8866 70.4838C82.3272 64.5979 81.4709 58.153 79.56 52.4202C77.7753 47.0661 75.2334 45.9574 70.3659 43.758C69.7169 43.4605 67.4635 42.3969 66.9407 42.3429C66.8235 42.3338 66.7154 42.2887 66.6072 42.3789C65.3273 46.0385 59.3511 45.9574 56.2233 45.3264C53.9789 44.8757 50.6348 43.5867 49.4991 41.5046L49.2827 41.4415C43.4779 43.8662 37.7631 45.9664 35.095 52.1318C32.2918 58.6037 29.9392 66.4547 28.3618 73.3412C26.55 81.2373 27.4514 84.2118 31.8321 90.8009C33.6528 93.5411 35.7801 96.3804 38.5293 98.2192C39.9174 95.0734 42.0266 92.1439 44.3612 89.6381C43.2255 87.3576 42.4683 84.7166 41.3416 82.4631C40.4492 80.6874 39.3135 80.0925 37.6099 79.1731C36.8527 78.7675 34.1396 77.812 34.0044 77.0729C33.9864 76.9557 34.0044 76.8295 34.0044 76.7124C36.2939 77.4064 38.304 78.7585 40.4402 79.786C40.2149 79.2723 40.3861 78.5602 40.4582 77.9833C41.3596 70.8894 44.1629 64.048 41.6751 56.819C41.3146 55.7644 40.4492 54.7278 40.6566 53.592C41.4317 53.5199 42.2159 55.7013 42.4503 56.3412C44.1629 60.9923 43.568 66.3916 42.7297 71.1869C42.3061 73.6026 41.0982 77.3884 41.1793 79.6959C41.2154 80.8226 42.0267 81.706 42.4683 82.6705C42.91 83.6349 44.3432 87.4838 44.9922 87.9075C45.8665 88.4843 47.3538 88.9621 48.3453 89.5299C52.2753 91.7563 55.2769 95.452 59.1618 97.5882C60.2435 98.1831 61.5234 98.4806 62.3797 99.3459C61.1268 99.8687 59.3601 98.8412 58.2424 98.2192C54.1141 95.9207 49.9588 90.6927 45.6321 89.3226C45.533 89.2956 45.3888 89.2956 45.4158 89.3947C49.0394 98.1741 59.7297 104.574 69.1401 101.428C72.6194 100.265 79.0101 95.2537 79.9386 91.6031C80.6867 88.6736 79.2355 85.6991 78.6586 82.9228C77.8744 79.1641 77.8384 75.2251 77.4417 71.4032C77.0361 67.4913 76.6215 63.6153 76.27 59.6944C76.1618 58.5226 75.4948 55.2596 75.9094 54.3582C76.2609 53.601 76.6305 54.4123 76.6936 54.881C77.1713 58.3423 77.3606 61.9117 77.7302 65.4001C78.3612 71.3582 78.893 77.3343 79.7763 83.2563C80.0377 83.9234 81.3267 83.5448 82.0298 83.6349C82.5706 83.707 83.6252 84.1126 83.7243 84.7166C83.7784 85.023 83.5801 84.9599 83.3548 84.9419C82.3813 84.8518 81.3357 84.2208 80.209 84.5003C80.6507 85.8072 80.894 87.1773 81.0653 88.5384C81.1824 89.4849 81.0833 90.8459 81.2636 91.7113C81.3537 92.162 81.8405 92.9191 82.0027 93.4599C82.3092 94.4695 82.3993 95.479 82.6427 96.4796C82.6787 96.6328 82.6247 96.8401 82.832 96.795L82.85 96.759ZM44.9561 90.4764C44.7848 90.3412 44.4063 90.7919 44.2981 90.909C43.9286 91.3057 39.8273 96.8401 40.1338 97.0564C40.9811 97.0023 41.7562 97.453 42.4323 97.9218L42.6215 97.8767C43.4959 96.777 44.208 95.5601 45.0463 94.4334C45.3437 94.0458 46.0197 93.6042 46.1099 93.1444C46.2361 92.4955 45.0282 91.2426 44.9561 90.4764ZM57.999 172.835C58.5309 173.033 59.0447 173.331 59.5945 173.511C63.2631 174.701 70.1045 174.872 73.7551 173.637C73.9354 173.574 74.1247 173.556 74.1878 173.34C75.9996 158.9 77.1263 144.388 78.6045 129.912C79.596 120.276 81.3267 110.108 81.8225 100.491C81.9486 97.9848 81.5611 94.9743 80.5785 92.6667C79.0823 96.0198 75.4587 99.2288 72.3039 101.068C63.3893 106.259 52.4015 101.608 46.6417 93.9827L46.2992 94.2261C44.5866 96.9753 42.9641 100.337 39.9895 101.888C39.5749 100.977 41.9996 99.1116 41.8824 98.6068C41.4858 98.1651 40.1968 97.7054 39.6921 98.0029L39.4397 98.4806C37.6279 110.162 36.6995 121.97 35.1401 133.688L29.173 172.763C29.2812 173.088 32.2467 173.989 32.7875 174.133C36.9429 175.269 42.0447 175.945 45.9927 173.935C47.9667 166.372 49.6523 158.729 51.5542 151.139C54.4837 139.466 57.296 126.937 60.8294 115.499C61.5054 113.317 62.3978 110.947 63.5065 108.964C64.1555 107.81 64.9847 106.35 66.1655 105.692C66.2016 106.052 66.1655 106.341 66.0574 106.674C65.796 107.449 64.534 109.153 64.0653 110.099C59.8559 118.554 60.2615 126.595 59.7297 135.762C59.0897 146.749 58.3686 157.809 57.972 168.833C57.9269 170.167 57.999 171.51 57.999 172.844V172.835ZM69.5186 175.512C69.3564 175.368 65.832 175.539 65.2101 175.503C63.9391 175.431 62.5871 175.044 61.3341 175.134C60.9826 175.35 59.6125 179.812 59.5855 180.425C59.5855 180.596 59.5584 180.74 59.7207 180.848C61.9741 181.488 64.2726 182.02 66.5711 182.489C72.4211 183.67 78.4783 184.544 84.4454 183.994C84.5085 183.913 83.3818 183.03 83.2286 182.94C81.2275 181.822 77.9645 180.966 75.7111 179.92C74.1697 179.208 70.5552 177.504 69.6809 176.143C69.5637 175.954 69.5367 175.548 69.5006 175.521L69.5186 175.512ZM39.0972 176.233L32.6703 175.269L28.3077 183.949C28.2085 184.769 29.9662 185.779 30.6693 186.058C33.2923 187.095 37.3485 186.752 38.962 184.202L39.1062 176.233H39.0972ZM85.0403 184.86C78.8569 185.536 72.5292 184.688 66.454 183.471C64.8585 183.156 63.2451 182.795 61.6586 182.417C61.0367 182.264 60.0271 181.849 59.5043 181.786C59.2069 181.75 59.1618 182.498 59.1438 182.732C59.0627 183.94 59.0807 184.211 60.2795 184.517C67.6348 184.968 75.7291 187.185 83.0663 186.608C84.2652 186.518 85.2116 186.284 85.0403 184.851V184.86ZM39.2504 185.301C36.4201 188.267 30.498 188.267 27.9111 185.013C27.235 185.851 27.4243 187.654 28.1454 188.438C29.6327 190.07 34.8517 189.934 36.8077 189.222C38.7637 188.51 39.2144 187.383 39.2504 185.301Z" fill="black"/>
<path d="M57.9979 172.836C57.9979 171.511 57.9168 170.159 57.9709 168.825C58.3675 157.81 59.0976 146.75 59.7285 135.753C60.2604 126.586 59.8547 118.546 64.0642 110.091C64.5329 109.153 65.7948 107.441 66.0562 106.666C66.1734 106.323 66.2004 106.035 66.1644 105.683C64.9836 106.332 64.1543 107.792 63.5053 108.955C62.3966 110.938 61.4953 113.318 60.8282 115.49C57.2858 126.929 54.4735 139.458 51.5531 151.131C49.6511 158.72 47.9656 166.355 45.9916 173.926C42.0345 175.945 36.9327 175.26 32.7864 174.125C32.2456 173.98 29.28 173.079 29.1719 172.755L35.139 133.68C36.7074 121.962 37.6268 110.154 39.4385 98.4721L39.6909 97.9944C40.1957 97.6969 41.4756 98.1566 41.8813 98.5983C41.9984 99.1031 39.5828 100.969 39.9884 101.879C42.9629 100.338 44.5854 96.9758 46.298 94.2176L46.6405 93.9742C52.4094 101.6 63.3971 106.251 72.3027 101.059C75.4666 99.2202 79.0811 96.0113 80.5774 92.6582C81.5599 94.9657 81.9475 97.9763 81.8213 100.482C81.3346 110.091 79.5949 120.258 78.6034 129.903C77.1161 144.379 75.9894 158.9 74.1866 173.331C74.1145 173.548 73.9342 173.566 73.754 173.629C70.1034 174.864 63.262 174.693 59.5933 173.503C59.0435 173.322 58.5387 173.025 57.9979 172.827V172.836Z" fill="white"/>
<path d="M82.849 96.7598C82.6416 96.8049 82.6957 96.5976 82.6597 96.4443C82.4163 95.4528 82.3171 94.4343 82.0197 93.4247C81.8574 92.8839 81.3707 92.1267 81.2806 91.676C81.1093 90.8107 81.1995 89.4496 81.0823 88.5032C80.911 87.1331 80.6586 85.763 80.226 84.465C81.3527 84.1856 82.3983 84.8166 83.3718 84.9067C83.5971 84.9247 83.7954 84.9969 83.7413 84.6814C83.6422 84.0774 82.5876 83.6718 82.0468 83.5997C81.3437 83.5096 80.0547 83.8882 79.7933 83.2211C78.91 77.2991 78.3781 71.3229 77.7472 65.3648C77.3776 61.8675 77.1883 58.3071 76.7106 54.8458C76.6475 54.3771 76.2689 53.5658 75.9264 54.323C75.5118 55.2243 76.1878 58.4873 76.2869 59.6591C76.6385 63.5711 77.0531 67.456 77.4587 71.368C77.8553 75.1808 77.8914 79.1289 78.6756 82.8876C79.2525 85.6639 80.7037 88.6474 79.9556 91.5679C79.0271 95.2275 72.6273 100.23 69.157 101.393C59.7377 104.539 49.0563 98.1389 45.4328 89.3595C45.3967 89.2604 45.55 89.2604 45.6491 89.2874C49.9848 90.6575 54.1311 95.8855 58.2594 98.184C59.3771 98.8059 61.1438 99.8335 62.3967 99.3107C61.5404 98.4544 60.2514 98.1479 59.1788 97.553C55.2848 95.4168 52.2923 91.7301 48.3623 89.4947C47.3708 88.9269 45.8835 88.4491 45.0091 87.8722C44.3602 87.4486 42.936 83.6177 42.4853 82.6352C42.0346 81.6527 41.2414 80.7874 41.1963 79.6607C41.1152 77.3532 42.3321 73.5674 42.7467 71.1517C43.576 66.3564 44.1709 60.9571 42.4673 56.306C42.2329 55.666 41.4487 53.4937 40.6735 53.5568C40.4662 54.6926 41.3315 55.7291 41.6921 56.7837C44.1799 64.0128 41.3766 70.8542 40.4752 77.9481C40.4031 78.534 40.2319 79.2461 40.4572 79.7508C38.3209 78.7233 36.3109 77.3802 34.0214 76.6771C34.0214 76.7943 34.0033 76.9205 34.0214 77.0377C34.1566 77.7768 36.8697 78.7323 37.6269 79.1379C39.3215 80.0573 40.4662 80.6522 41.3586 82.4279C42.4943 84.6814 43.2425 87.3224 44.3782 89.6029C42.0436 92.1087 39.9434 95.0472 38.5463 98.184C35.7881 96.3452 33.6698 93.5059 31.8491 90.7657C27.4684 84.1676 26.567 81.193 28.3788 73.306C29.9562 66.4195 32.3088 58.5685 35.112 52.0966C37.9153 45.6247 43.5039 43.84 49.2997 41.4062L49.516 41.4694C50.6428 43.5425 53.9959 44.8315 56.2403 45.2912C59.3771 45.9221 65.3442 46.0033 66.6242 42.3437C66.7323 42.2536 66.8405 42.2896 66.9577 42.3076C67.4805 42.3617 69.7339 43.4253 70.3829 43.7228C75.2504 45.9222 77.7832 47.0218 79.577 52.385C81.4879 58.1088 82.3442 64.5626 83.9036 70.4486C85.2827 75.6676 87.3919 79.9221 86.6528 85.5106C86.148 89.3505 84.5976 93.2895 82.867 96.7238L82.849 96.7598Z" fill="#0F172A"/>
<path d="M69.518 175.514C69.518 175.514 69.5811 175.947 69.6983 176.136C70.5726 177.497 74.1781 179.201 75.7285 179.913C77.9819 180.949 81.2359 181.815 83.246 182.932C83.3992 183.014 84.5169 183.906 84.4628 183.987C78.4867 184.537 72.4384 183.663 66.5885 182.482C64.29 182.013 61.9915 181.49 59.7381 180.841C59.5668 180.733 59.5938 180.589 59.6028 180.418C59.6299 179.805 61 175.343 61.3515 175.127C62.5954 175.036 63.9565 175.433 65.2275 175.496C65.8494 175.532 69.3738 175.361 69.536 175.505L69.518 175.514Z" fill="#0F172A"/>
<path d="M39.0974 176.234L38.9532 184.202C37.3397 186.753 33.2836 187.096 30.6606 186.059C29.9575 185.78 28.1998 184.77 28.2989 183.95L32.6616 175.27L39.0884 176.234H39.0974Z" fill="#0F172A"/>
<path d="M85.0399 184.861C85.2202 186.303 84.2647 186.528 83.0659 186.619C75.7287 187.195 67.6343 184.978 60.2791 184.527C59.0803 184.221 59.0622 183.941 59.1434 182.743C59.1614 182.508 59.2065 181.76 59.5039 181.796C60.0267 181.85 61.0362 182.274 61.6582 182.427C63.2446 182.815 64.8581 183.166 66.4535 183.482C72.5288 184.69 78.8565 185.537 85.0399 184.87V184.861Z" fill="white"/>
<path d="M59.9918 17.4831C65.4181 16.4916 65.0215 24.1533 60.4876 24.2434C56.6207 24.3245 57.0894 18.0149 59.9918 17.4831ZM62.0379 20.1241C61.2447 19.2858 59.7394 20.4666 60.5416 21.395C61.416 22.4046 62.8582 20.9985 62.0379 20.1241Z" fill="white"/>
<path d="M39.2493 185.302C39.2133 187.384 38.8437 188.484 36.8066 189.223C34.7695 189.962 29.6316 190.07 28.1443 188.439C27.4323 187.655 27.2339 185.852 27.91 185.014C30.4969 188.268 36.41 188.277 39.2493 185.302Z" fill="white"/>
<path d="M44.9559 90.4762C45.028 91.2424 46.2358 92.5043 46.1096 93.1443C46.0195 93.604 45.3435 94.0457 45.046 94.4333C44.2077 95.551 43.4956 96.7768 42.6213 97.8765L42.432 97.9216C41.756 97.4529 40.9898 97.0112 40.1335 97.0563C39.8271 96.8399 43.9283 91.3055 44.2979 90.9089C44.4061 90.7917 44.7846 90.341 44.9559 90.4762Z" fill="white"/>
<path d="M72.168 22.5673V19.791C72.9071 20.5031 72.9071 21.8552 72.168 22.5673Z" fill="white"/>
<path d="M62.4616 29.472C63.0024 29.3007 65.9319 29.5441 66.5268 29.7514C67.3831 30.0488 66.5809 30.4004 66.0761 30.4184C65.4181 30.4454 63.7505 30.2652 63.0385 30.166C62.5878 30.1029 61.7675 29.6883 62.4616 29.472Z" fill="black"/>
<path d="M68.9147 20.1061C70.2758 19.8266 70.5823 21.8908 69.1671 21.9809C68.1125 22.0531 67.779 20.3404 68.9147 20.1061Z" fill="black"/>
<path d="M62.0369 20.124C62.8662 20.9983 61.424 22.4044 60.5406 21.3949C59.7294 20.4665 61.2437 19.2857 62.0369 20.124Z" fill="black"/>
</svg>
