<svg width="105" height="181" viewBox="0 0 105 181" fill="none" xmlns="http://www.w3.org/2000/svg">
<path d="M85.1314 159.986C84.0657 161.215 83.2032 161.833 81.6621 162.935C81.6621 162.935 83.6092 162.906 84.958 162.761C86.429 162.603 87.3468 162.473 88.6008 161.72C89.4681 161.2 90.5089 159.639 90.5089 159.639C90.5089 159.639 90.1558 159.755 89.815 159.812C88.7742 159.986 87.282 161.939 87.213 161.894C86.85 161.655 88.5918 159.57 88.2538 159.812C88.2538 159.812 87.5018 159.88 87.0396 159.986C85.8714 160.253 85.3049 162.067 85.1314 162.067C84.2826 162.067 85.9988 160.159 85.9988 160.159C85.9988 160.159 86.0202 160.05 85.9988 159.986C85.9685 159.895 85.9075 159.861 85.8253 159.812C85.5858 159.668 85.1314 159.986 85.1314 159.986Z" fill="#C4DEF8"/>
<path d="M76.2853 173.864C74.7023 171.868 73.904 167.279 74.0306 167.272L75.9387 166.231C76.6862 166.515 79.0611 164.496 79.0611 164.496L80.7958 163.456C80.7958 163.456 81.9574 163.509 82.7036 163.456C85.1321 163.283 86.8298 163.392 88.9484 162.068C90.3358 161.201 92.0705 158.426 96.0605 157.211C99.2652 156.236 100.224 157.731 100.224 157.731C100.224 157.731 96.9524 158.745 95.1935 159.986C90.8022 163.086 89.8157 165.19 86.5199 167.272C83.8272 168.973 80.7955 170.394 79.2343 171.262C77.6731 172.129 76.2853 173.864 76.2853 173.864Z" fill="#C4DEF8"/>
<path d="M23.9827 76.3348C22.206 74.9608 20.1844 72.8682 20.0107 70.4992C19.679 66.0375 25.0883 54.9742 27.3783 50.8205C30.7108 44.7558 33.2377 42.0551 39.2787 38.6201C39.8078 38.32 43.5114 36.3221 43.7167 36.4642L46.1726 44.9058C46.8359 45.3323 48.8495 42.9948 49.3628 42.5526C50.0183 41.984 50.5 41.4471 51.416 41.7235C51.2738 41.3523 51.1475 40.918 50.7053 40.8232C49.9709 40.7522 48.0441 43.0027 47.3729 43.516C47.1281 43.7055 46.8754 43.9425 46.5437 43.903L44.38 35.7535C44.9801 34.4111 45.8172 33.045 47.2465 32.4922L47.1833 34.0321C47.0017 33.9215 46.599 33.8346 46.5437 34.0952C46.3542 35.0191 51.4555 39.8756 52.3083 40.8943C53.2717 42.0393 54.1088 43.3028 54.9458 44.5426C54.8511 45.3718 54.3457 46.0983 54.243 46.9353C54.0061 48.9727 54.5984 51.1601 54.7405 53.2053C55.2459 60.5967 54.9221 68.2486 54.8905 75.6478C54.8747 78.5064 55.2617 81.8152 55.0011 84.6106C54.8274 86.4348 53.935 89.3881 53.4296 91.2439C53.2954 91.7256 52.4741 94.8053 52.2925 94.9158C50.6026 95.0343 48.9048 94.6 47.3571 93.9366C43.0218 92.0572 36.8228 85.3134 32.0058 89.4276L31.0424 90.3831C32.069 86.6322 33.3404 82.9365 33.7352 79.0355C35.7962 79.4146 37.6362 80.8044 39.8078 80.5596C40.171 80.5201 41.1186 80.1411 41.3398 80.2042C41.4898 80.2516 41.6714 80.6701 41.8688 80.836C43.077 81.8546 48.0678 81.9731 49.4576 81.2466C50.571 80.6622 50.6579 78.5538 50.8632 77.4009C51.4713 74.029 51.874 70.6097 52.3399 67.2141C53.0427 66.7482 53.3349 65.998 53.0664 65.1531C53.0111 64.9793 52.7426 64.9793 52.6558 64.7898C52.482 64.3792 52.5926 63.8738 52.2925 63.3605C51.5502 62.0812 48.3284 62.1681 46.9938 62.1207C45.8567 62.0812 44.6959 62.0023 43.535 62.1207C43.0218 62.176 42.011 62.2708 41.5846 62.4761C40.8817 62.8235 40.8975 63.5026 40.6369 64.0949C40.171 65.161 39.3024 66.1322 41.0397 66.685L40.9765 68.4065C39.2787 69.0146 38.3074 70.3649 37.1861 71.6758L35.433 71.1704C35.7173 70.0964 35.4883 69.054 34.359 68.7145C34.6828 67.3484 34.5249 65.7453 34.7855 64.4029C35.2356 62.0181 37.7467 59.0252 38.6628 56.6167C38.8444 56.1429 39.0418 55.6612 38.9865 55.1479C38.9865 55.0295 38.7575 55.0689 38.6785 55.1005C37.8968 55.4006 33.7984 64.8688 32.7639 66.1086C30.6239 64.0317 28.1048 63.858 25.5226 65.2794C24.6066 65.7848 23.2325 66.8035 23.0904 67.909C23.3905 68.1854 24.6855 66.8193 25.0251 66.5745C26.9598 65.1689 30.2527 64.3792 32.0058 66.4955C33.0245 67.7195 31.6742 67.0641 31.1056 67.0167C28.5865 66.7877 26.6202 68.8329 25.4278 70.8229C25.0251 71.4941 23.9906 73.6894 23.9906 74.3843V76.3743L23.9827 76.3348ZM39.105 52.6841V50.1177C39.105 49.4544 38.4259 47.4091 38.1416 46.7221C37.5572 45.3165 36.4517 43.3423 34.8802 43.058L34.6196 43.4449C36.7123 44.661 37.6678 46.8642 38.1495 49.1464C38.2758 49.7386 38.5285 52.8026 38.7891 52.8657L39.105 52.6762V52.6841Z" fill="#C4DEF8"/>
<path d="M61.5336 43.0013C60.9414 42.5591 59.9543 40.6876 59.0857 40.885C58.6987 40.9719 56.993 42.9619 56.7245 43.3804C56.614 43.5462 56.4639 43.6252 56.535 43.8937C57.3326 43.9095 58.8961 41.6352 59.4015 41.7379C60.128 42.2117 61.1388 44.2885 61.9127 44.4859C62.5839 44.6597 62.197 42.5749 62.1417 42.2038C61.9759 41.1377 61.6916 39.8979 61.1546 38.9582C61.123 38.8714 61.2573 38.8714 61.3441 38.8951C61.8021 39.0372 63.0656 39.7479 63.5473 40.0243C71.0255 44.3122 69.6436 50.8349 72.1705 58.0604C72.4311 58.8106 74.2553 62.8063 73.8368 63.2486C72.2732 62.7827 70.457 62.6168 68.9724 63.446C68.7276 63.5881 67.5352 64.512 67.8115 64.7805C68.6091 64.7332 69.2172 64.1014 70.0305 63.8566C71.1835 63.5091 72.1784 63.5644 73.3235 63.8803L71.3967 64.7094C67.8037 66.652 66.1059 72.0929 68.4512 75.5438C67.4483 75.4806 65.4346 74.225 65.1819 73.2379C64.8898 72.1245 65.2609 69.4396 65.3951 68.184C65.9716 62.7274 67.3693 57.3576 67.8115 51.8852C67.9063 50.748 68.0642 49.0029 67.9379 47.9131C67.9063 47.613 67.8352 47.0445 67.4246 47.084C67.1482 48.7818 67.2114 50.5506 67.0377 52.2721C66.1138 61.4481 63.6579 70.1977 63.8316 79.5869C63.879 82.0112 64.2659 84.4592 64.3528 86.8835C64.3923 87.8706 64.5028 89.9395 64.3212 90.8318C64.0211 92.3164 61.3362 93.7457 60.0254 94.2274C59.3147 94.488 58.525 94.8039 57.7669 94.7723C57.1904 94.6302 55.8401 86.0464 55.7611 84.9567C54.9715 74.0987 56.0612 62.7353 55.3742 51.7509C55.2005 49.0108 54.5924 47.6604 55.5005 44.8255C55.9586 43.3883 57.1826 41.4062 57.3958 40.0559C57.5063 39.3294 57.2852 38.824 57.2931 38.1606C57.301 37.4973 57.5063 36.605 57.5616 35.918C60.286 36.9051 61.123 40.4033 61.5336 42.9697V43.0013ZM56.0533 49.3819C56.7956 49.9347 57.451 48.5212 56.7877 48.1974L56.3455 48.1263C55.8401 48.2053 55.7848 49.0187 56.0533 49.3819ZM56.7561 58.2815C56.2112 58.4394 56.2192 59.8766 56.9851 59.8056C57.5695 59.7503 57.5063 58.6764 57.1904 58.3131C57.0562 58.2262 56.9062 58.2341 56.764 58.2736L56.7561 58.2815ZM57.4195 70.9321C57.7669 70.2924 57.8143 69.3843 56.8825 69.4238C56.456 69.558 56.4797 70.5294 56.6535 70.8768L57.4195 70.9321ZM57.4116 79.6895L56.6456 79.7448C56.0533 81.8059 58.1144 81.6242 57.4116 79.6895Z" fill="#C4DEF8"/>
<path d="M41.4131 77.3598C43.7427 77.3598 45.9932 77.9757 48.3307 77.6204C48.6308 77.9362 47.5726 78.3943 47.3357 78.489C45.4484 79.2155 43.411 78.9944 41.4842 79.3024C40.8525 79.405 40.1497 79.7209 39.5337 79.7841C38.057 79.942 33.9744 78.3153 32.3082 77.8099C31.3685 77.5256 30.413 77.2729 29.4496 77.0834L29.2522 76.8939C28.8416 75.0855 30.1129 72.8744 31.4791 71.7215C33.1847 70.2922 33.4453 71.1372 35.0642 71.8479C35.6011 72.0848 36.2724 72.1795 36.6988 72.3612C36.8962 72.448 36.8172 72.7876 37.2437 72.7481C37.6069 72.7086 39.131 70.5054 39.6838 70.0474C41.729 68.3496 45.0298 68.5155 47.4699 69.1867C47.8016 69.2814 50.297 69.9921 49.373 70.6318C49.0572 70.845 44.327 70.4581 43.2926 70.5765C42.9214 70.616 41.2473 70.9634 41.0341 71.1372L40.9709 71.7215C41.1683 72.0453 43.4584 72.0453 44.0349 72.1164C45.4405 72.298 48.2991 72.9692 49.4599 73.7431C49.7126 73.9089 50.0206 74.0511 49.8311 74.4143C49.4125 74.6828 48.8913 74.6986 48.4096 74.667C46.3486 74.5407 43.8137 73.6562 41.7448 74.2722C41.0104 74.4854 41.2236 74.7539 41.8712 74.8013C43.9243 74.9513 46.7987 75.1171 48.765 75.5988C49.8468 75.8594 50.0285 76.428 48.7966 76.5938L41.879 76.728C41.5474 76.7833 41.3816 77.0281 41.4289 77.3677L41.4131 77.3598Z" fill="#FCF7ED"/>
<path d="M10.6532 148.004C9.44501 149.875 9.98199 153.847 12.4379 154.353C12.7853 154.424 13.6382 154.313 13.7092 154.613C13.4487 156.446 13.9146 158.57 14.3726 160.362C14.6963 161.642 15.1386 163.055 15.8019 164.192C15.9282 164.413 16.5047 165.061 16.4178 165.179C16.1493 165.163 15.4702 165.622 15.5176 165.882C15.565 166.143 15.7545 166.001 15.8651 165.985C16.56 165.866 17.4207 165.4 18.1788 165.219C19.9161 164.8 20.532 164.737 22.1351 165.543C23.4617 166.214 24.8278 166.996 24.9937 168.638C22.4193 168.993 19.6002 169.175 17.0417 168.583C12.1615 167.454 12.1773 164.39 10.1004 160.781C8.57638 158.135 5.82831 155.845 5.51245 152.552C5.3861 151.186 5.70986 150.965 6.66537 150.112C7.77091 149.133 9.19232 148.296 10.6374 148.004H10.6532Z" fill="#C4DEF8"/>
<path d="M79.6072 66.8498C79.3229 67.7422 79.1255 68.4923 80.1205 68.9819C82.9396 68.8556 85.7903 68.6819 88.5068 69.5426L88.7121 69.2267C88.5937 68.6582 85.6008 68.4449 85.4034 67.4026C85.3481 67.1104 85.435 66.8419 85.7351 66.7551C86.6274 66.4866 88.6411 67.4105 89.565 67.4895C89.8098 67.5131 89.9677 67.5289 90.1257 67.2999C89.7071 66.8656 89.1544 66.5892 88.5858 66.4076C87.6224 66.0917 84.6453 66.0759 84.9928 64.6308C85.0954 64.2044 88.5621 64.4966 89.1465 64.5598C89.9519 64.6545 90.7337 65.1283 91.5313 64.7967C91.5787 64.5677 91.4602 64.544 91.3181 64.4334C90.2283 63.5964 85.9483 63.7938 85.5692 63.0041C85.1349 62.0881 86.1457 61.9065 86.8485 61.8433C88.0093 61.7406 90.7574 61.7406 91.705 62.3803C92.3683 62.8225 93.0395 64.3939 92.5499 65.1046C92.2894 65.4758 91.8077 65.0099 91.6813 65.5311C91.6181 65.7995 91.8313 66.2576 91.7998 66.6524C91.7366 67.4026 90.9864 67.9238 90.252 67.8685C90.3547 68.5397 90.4494 68.595 90.0467 69.1399C89.1544 70.3402 86.8801 70.9561 85.4429 70.9482C84.9849 70.9482 83.9188 70.6008 83.5477 70.7113C83.3739 70.7587 83.1449 71.0904 82.9001 71.2325C80.6575 72.4881 77.3724 74.0437 74.8929 74.636C73.732 74.9124 73.0766 75.3862 72.6265 74.0279C71.5131 70.7113 74.2216 66.8498 77.7515 66.8498H79.6072Z" fill="#FCF7ED"/>
<path d="M25.0088 169.285C25.2773 171.07 23.7375 171.291 22.3792 171.465C19.0389 171.883 14.7668 171.41 12.1293 169.151C9.99715 167.327 9.38121 164.382 7.91242 162.084C7.16223 160.915 6.04879 159.88 5.21963 158.751C3.74295 156.753 2.08463 154.068 4.75373 152.229C5.03011 156.161 8.13353 158.641 9.85502 161.807C10.7473 163.434 11.2054 165.345 12.4451 166.774C15.3117 170.083 21.0447 170.036 25.0009 169.278L25.0088 169.285Z" fill="white"/>
<path d="M34.6188 70.8226C33.2842 69.8671 32.6446 69.7961 31.3574 70.8226C29.2411 72.5125 27.8355 75.1974 28.6093 77.9297C28.7673 78.4746 29.1068 79.2484 29.7544 79.28L29.4306 77.7481L32.1866 78.5772C32.4235 78.7352 31.7365 79.3195 31.6101 79.4143C29.7149 80.7883 26.8484 79.7854 25.5296 78.0639C23.2712 75.1184 26.2482 69.6144 29.1542 68.1062C31.1916 67.048 32.226 68.3194 33.7659 69.3065C34.445 69.7487 35.0531 69.5671 34.6267 70.8147L34.6188 70.8226Z" fill="#C4DEF8"/>
<path d="M77.4292 66.2097C73.7809 66.0359 71.4435 69.7316 71.6567 73.0719C71.7515 74.4776 72.4622 76.0727 74.0336 76.2069C74.389 76.2385 75.0207 76.3175 74.997 75.8279L74.231 75.441C75.3445 75.4962 76.4737 74.8329 77.5003 74.6671C77.8477 74.6118 77.524 75.0935 77.4371 75.2514C76.1815 77.5178 72.9439 78.0943 70.7802 76.7755C64.9524 73.2141 69.7141 62.7588 76.0946 65.1831C76.5606 65.3647 77.3502 65.6411 77.4371 66.2097H77.4292Z" fill="#C4DEF8"/>
<path d="M18.2094 156.463H16.2194C15.9904 156.463 15.4218 156.834 15.1297 156.85C14.6795 157.481 16.9459 157.126 17.1038 157.126C18.47 157.126 18.7306 157.316 18.5884 158.769C18.1541 158.737 15.7614 158.84 15.8956 159.471C15.9983 159.969 18.1225 159.203 18.7148 159.732C18.8253 159.827 19.0859 161.161 19.1017 161.398C19.1254 161.754 18.8411 161.422 18.5252 161.446C17.7909 161.501 16.7801 161.596 16.2826 162.164C16.2747 162.63 18.9754 162.022 19.3386 162.251L20.2546 163.965L20.073 164.154C19.3702 164.091 17.4039 164.968 16.9222 164.731C15.943 164.249 14.9086 159.661 14.6795 158.508C14.2847 156.518 13.424 153.809 16.2352 153.525C19.0464 153.241 18.4068 154.26 18.2094 156.455V156.463Z" fill="#C4DEF8"/>
<path d="M17.8323 151.723L17.3585 152.75C16.6793 152.702 16.0476 152.765 15.3922 152.939C14.105 153.263 13.6312 154.258 12.1861 153.46C10.1172 152.315 10.4883 148.327 12.3677 147.111C13.7812 149.086 15.4869 150.878 17.8323 151.723Z" fill="white"/>
<path d="M55.7439 18.0324C58.563 17.8113 59.1 21.7439 57.1811 23.3232C54.2514 25.7317 51.4876 20.5278 53.7855 18.7668C54.2593 18.4035 55.1595 18.0719 55.7439 18.0324ZM55.2859 21.9492C55.4517 22.115 55.965 22.1466 56.1861 22.0834C57.3074 21.7518 56.8337 18.7431 55.3807 19.4775C54.8437 19.746 54.9068 21.578 55.2859 21.9492Z" fill="#FCF7ED"/>
<path d="M51.662 67.2374L50.5722 73.7759C50.1063 72.9704 48.7323 72.5835 47.8478 72.2676C46.7344 71.8728 45.5578 71.4542 44.3575 71.4621C44.3259 71.241 44.6497 71.3437 44.8076 71.3358C46 71.2884 49.3956 71.857 50.0589 70.9489C51.046 69.5985 48.7165 68.7615 47.7926 68.4772C45.8658 67.8928 43.86 67.8691 41.8779 68.1376C41.5147 67.9481 41.7121 66.5898 41.8621 66.5898C45.0208 67.6717 48.3848 67.3874 51.662 67.2374Z" fill="black"/>
<path d="M80.7357 68.2399C80.6094 68.3109 80.3961 68.2399 80.2461 68.2636L80.4435 67.1185C82.2835 63.2413 83.5943 58.7875 85.4816 54.9734C85.6948 54.5312 85.9002 54.0416 86.374 53.8126C88.8298 53.5283 91.3647 53.6467 93.8443 53.7099C94.0812 53.8757 94.0338 54.5706 93.6468 54.5548H87.1005L86.6503 54.7444L80.7436 68.2557L80.7357 68.2399Z" fill="white"/>
<path d="M51.7923 64.5444C51.8239 64.8366 51.7291 65.2078 51.816 65.4842C51.9108 65.7763 52.5425 65.8316 52.2977 66.2028C52.2266 66.3133 50.2446 66.566 49.9287 66.5897C47.8755 66.7792 45.4907 66.6766 43.4534 66.2738C42.8453 66.1475 42.1267 65.8079 41.566 65.7211C41.3213 65.6816 40.9106 65.9816 40.7606 65.6263C40.579 65.1841 41.0686 65.3736 41.2107 65.1841C41.3528 64.9946 41.3213 64.1101 41.7161 64.0628C41.8503 64.047 43.8403 64.7734 44.3378 64.8603C46.8016 65.2867 49.3522 65.0893 51.7765 64.5366L51.7923 64.5444Z" fill="white"/>
<path d="M63.8387 17.496L64.3599 22.5499C63.6018 23.5449 62.5515 22.7868 61.9435 22.0208C60.2378 19.8808 60.8458 17.417 63.8387 17.496ZM62.7726 18.9253C61.9672 18.9964 61.9593 20.6073 62.5594 20.8837C63.7834 21.4364 63.8703 18.8305 62.7726 18.9253Z" fill="#FCF7ED"/>
<path d="M44.9321 79.8002C45.4454 79.7528 46.3219 79.5396 46.8431 79.4054C47.459 79.2474 48.6988 78.9474 48.912 78.2682C49.1805 77.3838 48.6198 77.289 50.0571 77.1074C49.9386 77.7707 49.7807 79.9897 49.3542 80.3767C48.4224 81.2216 43.2659 81.1269 42.3656 80.195C42.2472 80.0687 42.1366 80.0055 42.1761 79.8081C43.0685 79.7528 44.0476 79.8871 44.9321 79.8081V79.8002Z" fill="black"/>
<path d="M51.4084 63.8962C48.5103 64.5911 44.8778 64.6385 42.0508 63.5725C41.4506 63.3435 42.0192 63.0987 42.3982 63.0355C44.0644 62.7275 49.3947 62.6959 50.8872 63.3277C51.1241 63.4303 51.4321 63.5962 51.4005 63.9041L51.4084 63.8962Z" fill="white"/>
<path d="M34.8712 94.1576C34.0105 93.897 31.3414 92.4361 31.2861 91.5201C31.2308 90.604 33.6235 89.1747 34.429 88.9062C34.4843 89.5301 34.3342 90.1302 34.3658 90.762C34.3895 91.2674 34.9818 94.0233 34.8791 94.1576H34.8712Z" fill="#C4DEF8"/>
<path d="M64.9899 22.3592L64.4766 17.6133C66.356 18.2213 66.4429 21.2379 64.9899 22.3592Z" fill="#FCF7ED"/>
<path d="M82.0376 61.338C81.777 61.9144 81.5717 62.5304 81.3032 63.1068C81.2164 63.2885 81.3822 63.4543 81.011 63.3832C80.9005 62.5778 81.1848 61.5986 82.0376 61.3301V61.338Z" fill="#FCF7ED"/>
<path d="M39.1064 52.6827L38.7906 52.8722C38.5221 52.809 38.2773 49.7451 38.1509 49.1528C37.6692 46.8628 36.7137 44.6596 34.6211 43.4514L34.8817 43.0645C36.461 43.3487 37.5666 45.3229 38.143 46.7285C38.4273 47.4155 39.1064 49.4608 39.1064 50.1241V52.6906V52.6827Z" fill="black"/>
<path d="M57.4165 70.9334L56.6505 70.8781C56.4768 70.5385 56.4531 69.5672 56.8795 69.4251C57.8114 69.3856 57.764 70.2937 57.4165 70.9334Z" fill="black"/>
<path d="M57.4076 79.6914C58.1104 81.6261 56.0493 81.8077 56.6416 79.7467L57.4076 79.6914Z" fill="black"/>
<path d="M56.7542 58.283C56.9043 58.2435 57.0543 58.2277 57.1807 58.3224C57.4965 58.6778 57.5597 59.7596 56.9753 59.8149C56.2094 59.886 56.2015 58.4409 56.7463 58.2909L56.7542 58.283Z" fill="black"/>
<path d="M56.0515 49.3826C55.783 49.0193 55.8383 48.2059 56.3437 48.127L56.7859 48.198C57.4413 48.5297 56.7859 49.9353 56.0515 49.3826Z" fill="black"/>
<path d="M36.0254 121.725C36.0727 122.506 34.983 122.925 34.3591 123.193C33.2931 123.644 32.0454 124.03 30.9004 123.778L31.0662 123.493L36.0333 121.733L36.0254 121.725Z" fill="black"/>
<path d="M61.5297 27.3654C61.972 27.7523 59.8083 28.3367 59.6424 28.3604C58.7738 28.4709 57.5182 28.2419 56.7048 27.9024C56.2468 27.7128 55.773 27.5707 55.8915 26.9863C56.768 27.0495 57.5182 27.5075 58.3947 27.626C59.5082 27.7681 60.4479 27.5154 61.5297 27.3733V27.3654Z" fill="black"/>
<path d="M47.3082 26.0789C46.6054 26.0079 45.7447 25.6446 45.9658 24.8076L44.2285 23.0071C45.3735 22.8413 45.8947 23.244 46.4554 24.1758C46.5817 24.389 47.3793 26.0079 47.3003 26.0868L47.3082 26.0789Z" fill="black"/>
<path d="M57.1722 16.461C56.0509 16.3741 54.8032 16.1372 53.753 16.69C53.3107 16.9269 53.1528 17.4876 52.5605 17.3533C52.8053 15.4423 56.4536 14.3841 57.1722 16.4531V16.461Z" fill="black"/>
<path d="M55.2854 21.9481C54.9143 21.5769 54.8432 19.7449 55.3802 19.4764C56.8411 18.742 57.307 21.7507 56.1856 22.0823C55.9566 22.1455 55.4512 22.1139 55.2854 21.9481Z" fill="black"/>
<path d="M62.7718 18.9248C63.8773 18.8222 63.7826 21.436 62.5586 20.8832C61.9505 20.6068 61.9584 18.9959 62.7718 18.9248Z" fill="black"/>
<path d="M100.028 156.613C96.9881 154.97 94.4058 157.268 91.8473 158.389C90.11 159.147 87.7647 159.503 85.7431 159.384C86.5644 158.358 87.133 157.284 87.512 156.076C87.1646 155.365 86.6986 154.504 86.1538 153.564C85.1825 151.03 74.9878 127.174 71.7264 118.803C69.0021 111.799 63.0558 106.539 59.9998 99.6851C60.7421 97.4266 60.4894 97.1818 60.6552 94.8128C62.2662 94.2837 64.7299 92.7676 65.0932 90.9829C65.3222 89.8458 65.1801 87.8637 65.1248 86.6476C65.03 84.3023 64.7378 81.949 64.6036 79.6037L64.7378 74.1471C65.4643 75.0394 66.5936 75.9001 67.707 76.2397C68.1571 76.3739 68.8757 76.374 69.2153 76.524C69.5943 76.6977 70.3366 77.5742 71.0552 77.8901C73.6217 79.0351 76.7882 78.0481 78.1702 75.6001C78.415 75.1579 78.5729 74.455 78.8493 74.0997C79.1889 73.6654 81.8737 72.702 82.6002 72.3387C82.9319 72.1729 83.7216 71.5254 83.9269 71.4859C84.1322 71.4464 84.4086 71.5964 84.6613 71.5964C86.8092 71.5964 89.2888 71.4543 90.6786 69.5275C90.9234 69.1958 91.0182 68.7536 91.2077 68.5167C91.642 67.9718 92.3211 67.8455 92.5185 66.8821C92.5738 66.6057 92.4869 66.1319 92.5738 65.974C92.5975 65.9345 92.9213 65.8002 93.0634 65.6344C93.6952 64.8684 93.3082 64.2446 93.4503 63.4549C93.5214 63.0759 94.1137 62.3257 94.2716 61.844C94.8086 60.1936 94.1768 59.3249 92.6765 58.709C93.174 57.8166 93.6399 56.8927 94.0189 55.9451C94.3743 55.0607 95.3614 53.1813 93.7662 52.9996C92.0605 52.8022 89.3204 52.7548 87.6068 52.8654C85.7037 52.9917 85.5457 53.1023 84.7482 54.7448C83.9269 56.4426 83.3267 58.3694 82.5371 60.0988C81.8264 60.6279 81.013 60.8648 80.555 61.7097C79.9548 62.8153 80.4602 63.4628 80.6103 64.5762C79.7653 64.9948 79.7021 66.4872 78.5729 66.1477C78.1228 66.0134 78.0201 65.5317 77.7437 65.3027C76.8356 64.5367 75.7696 64.2446 74.664 63.8971C74.5614 61.0148 73.0531 58.4247 72.2397 55.6845C70.1234 48.5854 71.2921 43.5867 63.9324 39.3778C63.0795 38.8961 61.3659 38.3196 60.7263 37.8695C60.6315 37.8063 60.1893 37.0009 59.9919 36.7719C59.4154 36.1006 58.7126 35.6189 57.9309 35.2083L58.3257 33.9448C63.9087 33.8343 65.1248 27.6827 65.1169 23.2053C67.3359 21.7444 67.1779 17.6618 64.4772 16.9037L64.3746 16.7536C64.3904 15.9482 63.9718 14.9611 63.964 14.203C63.9561 13.3817 64.2403 12.3394 64.0982 11.4549L66.0882 12.9948C66.4514 13.1448 66.2224 12.2525 66.1908 12.1183C65.7328 10.4521 64.1851 9.44127 62.6926 8.82532C63.4744 8.51735 65.646 6.47999 65.3696 5.63504C65.1485 4.95592 64.0192 5.87985 63.7113 5.99831C63.3243 6.14834 62.3372 6.52737 61.9819 6.57475C60.8763 6.72479 59.4707 6.4642 58.3257 6.57475C58.8074 6.09305 60.3473 4.83747 60.3788 4.20573C60.3867 4.00042 60.3946 3.98462 60.1814 4.00831C58.8706 4.60057 57.6387 5.33497 56.2252 5.69032C52.1425 6.73269 45.6514 5.50081 44.3327 10.9101C43.0771 10.9101 42.1927 11.676 41.553 12.6789C39.7368 15.5533 40.6686 19.1069 42.7928 21.5233C41.2293 24.6583 43.5904 28.7251 47.1676 28.6224C47.3729 29.7438 47.5861 30.8019 47.294 31.939C46.2911 31.8759 45.5962 32.5945 45.0039 33.2973C44.5143 33.8816 43.8905 35.2399 43.4561 35.5952C42.7138 36.2112 40.5344 37.0088 39.5315 37.5615C31.9348 41.7626 29.0525 45.4425 25.2384 53.1339C23.5011 56.64 21.5427 60.9437 20.3582 64.6631C18.6525 70.0171 18.5972 72.2676 22.6956 76.2397C23.6274 77.1478 23.9117 77.4163 24.7488 78.4192C26.873 80.9541 30.3397 81.7122 32.9535 79.3826C32.5902 81.42 32.1954 83.4573 31.6663 85.4631C31.232 87.0819 29.9764 89.9168 30.2923 91.4725C30.6319 93.1387 33.7353 94.5285 35.1962 95.026C35.9937 97.3871 36.3333 97.7425 37.5415 99.8904C35.5752 105.126 33.143 111.049 31.1293 116.276C30.7582 117.232 30.4186 120.959 29.5816 121.417C28.1839 122.183 27.8601 121.993 26.6045 123.312C20.7215 129.511 15.4464 136.689 9.57127 142.943C9.20013 143.33 9.14485 143.315 9.27119 143.733L10.2662 147.168C10.2188 147.192 10.1635 147.216 10.1004 147.239C7.42336 148.321 5.50446 149.869 3.65662 152.08C0.292616 156.099 5.56763 159.653 7.49443 162.859C8.66315 164.802 9.23961 167.06 10.7716 168.813C13.567 172.011 18.2419 172.509 22.2455 172.209C24.7804 172.019 26.1307 171.206 25.7596 168.442C25.3568 165.386 22.0797 165.489 20.9189 163.791C20.1292 162.63 19.6238 160.648 19.3079 158.84C19.3079 158.84 20.3029 159.171 20.603 159.108C26.9125 157.718 34.8961 144.491 38.1101 139.966C40.5659 136.515 42.5085 134.368 44.001 131.161C45.912 127.071 47.0334 121.828 49.0075 117.95C49.0786 117.816 48.9444 117.705 49.276 117.769C50.7922 120.596 52.6085 122.751 53.8561 125.705C55.4197 129.432 56.6753 133.507 58.2625 137.329C61.0106 143.954 63.9324 150.54 66.9173 157.071C68.2914 160.656 69.6733 164.036 71.0157 166.902C71.2053 167.305 71.4343 167.818 71.6475 168.189C71.7106 168.292 71.608 168.402 71.8686 168.355C72.3661 168.11 72.832 167.873 73.2979 167.636C73.6375 170.179 75.3984 174.609 76.733 176.165C77.5305 177.097 78.2649 176.891 79.3784 176.655C82.9398 175.873 90.3864 170.629 93.6951 168.41C96.3958 166.602 106.069 159.842 100.028 156.581V156.613ZM64.9905 22.3603L64.4772 17.6144C66.3567 18.2224 66.4435 21.239 64.9905 22.3603ZM85.5615 159.921C85.751 159.921 85.9406 159.842 85.8853 160.119C85.4746 160.514 85.0245 161.09 84.835 161.635C84.5981 162.282 84.7718 162.511 85.3009 161.975C86.1064 161.153 86.6039 159.89 88.0648 159.937C87.9542 160.466 87.2988 160.727 87.1093 161.224C87.0619 161.343 86.8961 161.998 87.2277 161.856C88.1595 160.94 89.1229 159.834 90.497 159.677C89.7942 160.632 88.965 161.611 87.8516 162.093C86.3749 162.733 83.6031 162.969 81.7395 162.914C83.2083 161.911 84.3691 160.956 85.2614 159.969C85.3641 159.953 85.4668 159.929 85.5615 159.929V159.921ZM93.5767 61.6623C93.5214 61.8519 93.1266 62.9021 92.8739 62.61C91.4288 60.9517 90.9076 61.386 89.115 60.7305C87.8753 60.2804 88.0411 59.4986 89.3125 59.317C91.034 59.0722 94.2953 59.1354 93.5767 61.6623ZM82.0396 61.3386C81.779 61.915 81.5737 62.531 81.3052 63.1074C81.2183 63.2891 81.3841 63.4549 81.013 63.3838C80.9024 62.5784 81.1867 61.5992 82.0396 61.3307V61.3386ZM80.4444 67.1111C82.2844 63.2338 83.5952 58.78 85.4825 54.9659C85.6958 54.5237 85.9011 54.0341 86.3749 53.8051C88.8308 53.5208 91.3656 53.6393 93.8452 53.7025C94.0821 53.8683 94.0347 54.5632 93.6478 54.5474H87.1014L86.6513 54.7369L80.7445 68.2482C80.6182 68.3193 80.405 68.2482 80.2549 68.2719L80.4523 67.1269L80.4444 67.1111ZM77.7437 66.8505H79.5995C79.3152 67.7428 79.1178 68.493 80.1128 68.9826C82.9319 68.8563 85.7826 68.6825 88.4991 69.5433L88.7044 69.2274C88.586 68.6588 85.5931 68.4456 85.3957 67.4033C85.3404 67.1111 85.4273 66.8426 85.7273 66.7557C86.6197 66.4873 88.6333 67.4112 89.5573 67.4901C89.8021 67.5138 89.96 67.5296 90.1179 67.3006C89.6994 66.8663 89.1466 66.5899 88.5781 66.4083C87.6147 66.0924 84.6376 66.0766 84.985 64.6315C85.0877 64.2051 88.5544 64.4973 89.1387 64.5605C89.9442 64.6552 90.726 65.129 91.5235 64.7973C91.5709 64.5683 91.4525 64.5447 91.3103 64.4341C90.2206 63.597 85.9406 63.7945 85.5615 63.0048C85.1272 62.0888 86.138 61.9072 86.8408 61.844C88.0016 61.7413 90.7497 61.7413 91.6973 62.381C92.3606 62.8232 93.0318 64.3946 92.5422 65.1053C92.2816 65.4765 91.7999 65.0106 91.6736 65.5317C91.6104 65.8002 91.8236 66.2582 91.792 66.6531C91.7289 67.4033 90.9787 67.9244 90.2443 67.8692C90.3469 68.5404 90.4417 68.5957 90.039 69.1405C89.1466 70.3409 86.8724 70.9568 85.4352 70.9489C84.9772 70.9489 83.9111 70.6014 83.54 70.712C83.3662 70.7594 83.1372 71.091 82.8924 71.2332C80.6497 72.4888 77.3647 74.0444 74.8851 74.6367C73.7243 74.9131 73.0689 75.3869 72.6188 74.0286C71.5053 70.712 74.2139 66.8505 77.7437 66.8505ZM76.0854 65.1843C76.5513 65.3659 77.341 65.6423 77.4279 66.2109C73.7796 66.0371 71.4422 69.7328 71.6554 73.0731C71.7501 74.4788 72.4608 76.0739 74.0323 76.2081C74.3876 76.2397 75.0194 76.3187 74.9957 75.8291L74.2297 75.4421C75.3431 75.4974 76.4724 74.8341 77.499 74.6683C77.8464 74.613 77.5226 75.0947 77.4358 75.2526C76.1802 77.519 72.9425 78.0955 70.7788 76.7767C64.951 73.2153 69.7128 62.76 76.0933 65.1843H76.0854ZM61.5318 43.0024C60.9395 42.5602 59.9524 40.6886 59.0838 40.8861C58.6968 40.9729 56.9911 42.9629 56.7227 43.3814C56.6121 43.5473 56.4621 43.6262 56.5331 43.8947C57.3307 43.9105 58.8943 41.6362 59.3996 41.7389C60.1261 42.2127 61.1369 44.2895 61.9108 44.487C62.582 44.6607 62.1951 42.5759 62.1398 42.2048C61.974 41.1387 61.6897 39.899 61.1527 38.9592C61.1211 38.8724 61.2554 38.8724 61.3422 38.8961C61.8003 39.0382 63.0637 39.7489 63.5454 40.0253C71.0236 44.3132 69.6417 50.8359 72.1687 58.0614C72.4292 58.8116 74.2534 62.8074 73.8349 63.2496C72.2713 62.7837 70.4551 62.6179 68.9705 63.447C68.7257 63.5892 67.5333 64.5131 67.8097 64.7816C68.6072 64.7342 69.2153 64.1024 70.0286 63.8576C71.1816 63.5102 72.1766 63.5655 73.3216 63.8813L71.3948 64.7105C67.8018 66.6531 66.104 72.0939 68.4493 75.5448C67.4464 75.4816 65.4328 74.226 65.1801 73.239C64.8879 72.1255 65.259 69.4406 65.3933 68.1851C65.9697 62.7284 67.3674 57.3586 67.8097 51.8862C67.9044 50.7491 68.0624 49.0039 67.936 47.9141C67.9044 47.6141 67.8334 47.0455 67.4227 47.085C67.1463 48.7828 67.2095 50.5516 67.0358 52.2731C66.1119 61.4491 63.656 70.1987 63.8297 79.5879C63.8771 82.0122 64.264 84.4602 64.3509 86.8845C64.3904 87.8716 64.5009 89.9405 64.3193 90.8329C64.0192 92.3175 61.3343 93.7468 60.0235 94.2285C59.3128 94.4891 58.5231 94.8049 57.765 94.7733C57.1886 94.6312 55.8382 86.0475 55.7593 84.9577C54.9696 74.0997 56.0593 62.7363 55.3723 51.752C55.1986 49.0118 54.5905 47.6614 55.4987 44.8265C55.9567 43.3893 57.1807 41.4072 57.3939 40.0569C57.5044 39.3304 57.2833 38.825 57.2912 38.1617C57.2912 37.4983 57.5044 36.606 57.5597 35.919C60.2841 36.9061 61.1211 40.4043 61.5318 42.9708V43.0024ZM64.3588 22.5498C63.6007 23.5448 62.5504 22.7867 61.9424 22.0208C60.2367 19.8807 60.8447 17.417 63.8376 17.4959L64.3588 22.5498ZM48.9049 18.641C48.9918 18.2856 49.2365 17.9776 49.3234 17.6539C49.6946 16.2561 49.6709 14.9532 49.4892 13.5239C51.1712 14.053 52.9954 14.2109 54.7406 13.9029C55.0012 13.5949 53.5719 11.4944 53.7219 11.3444C55.3723 11.9129 57.2675 12.6237 59.0364 12.6316C59.2259 12.6316 59.4154 12.7105 59.3602 12.4341L58.0809 10.9575C59.0917 11.2654 60.5052 11.6129 61.3501 12.2367C61.7529 12.5368 63.8297 14.5584 63.3401 15.0559C62.8426 14.9058 60.9869 15.3322 61.1606 16.0193C61.4607 16.3904 61.9424 15.9087 62.3925 15.8376C62.7557 15.7823 63.1427 15.8455 63.5138 15.8218L63.7271 16.8563C62.0845 16.7142 60.6236 17.6539 60.2367 19.2648L58.8864 19.4622C58.4441 18.941 58.3415 18.3251 57.7413 17.8987C55.854 16.572 52.5927 17.8276 52.2926 20.165L48.4706 21.081C48.7075 20.3072 48.7233 19.3911 48.9128 18.641H48.9049ZM57.1807 23.3316C54.251 25.7401 51.4871 20.5362 53.7851 18.7752C54.2589 18.412 55.1591 18.0803 55.7435 18.0408C58.5626 17.8197 59.0996 21.7523 57.1807 23.3316ZM46.4806 27.8644C44.08 27.5485 41.9242 23.9476 43.7088 21.9102C45.2013 20.2124 46.7254 22.5498 48.1942 22.8736C48.1942 22.5183 48.1705 21.7997 48.5416 21.618C48.7548 21.5154 52.1662 20.8126 52.3005 20.9547C52.4031 25.1637 57.6861 26.135 58.8785 21.697C59.1548 20.6783 58.7126 20.1255 60.1735 19.9281C60.4183 20.552 60.5763 21.1679 60.9158 21.7602C61.129 22.1471 62.2346 23.3395 62.2504 23.4501C62.3056 23.8291 61.9029 24.4451 61.5949 24.6741C61.1843 24.9741 59.2101 25.1716 60.0472 25.8428C60.7342 26.3956 63.1111 24.7293 62.9532 23.6633L64.3509 23.6475C64.3035 24.3345 64.4141 25.0847 64.3509 25.7638C64.1535 27.8643 62.8347 31.6469 60.8132 32.6103C57.6466 34.1185 54.3141 32.4523 51.6214 30.8098C51.2818 30.6045 51.1555 30.1939 50.6422 30.3202C50.4053 30.5492 51.8267 31.8443 52.0478 32.0496C53.3902 33.2973 54.938 34.4107 56.6674 35.0109C56.5094 36.1638 56.5647 37.3009 56.5331 38.4538C56.5173 39.054 56.6279 39.97 56.5963 40.3333C56.5015 41.2809 55.5855 42.805 55.317 43.7763C54.3615 42.6628 53.6508 41.3599 52.6874 40.2543C51.6608 39.0698 50.3184 38.0353 49.2918 36.8587C48.8496 36.3454 47.7993 35.1214 47.8151 34.4897C47.8388 33.1394 48.2968 31.9549 48.2021 30.3834C48.1784 29.957 47.902 29.3647 47.9494 28.9778C47.9889 28.6698 49.0154 27.7064 48.0362 27.7538C47.5151 27.7775 47.1044 27.9433 46.4885 27.8644H46.4806ZM31.6032 79.4142C29.7079 80.7882 26.8414 79.7853 25.5227 78.0639C23.2642 75.1184 26.2413 69.6144 29.1473 68.1061C31.1846 67.0479 32.2191 68.3193 33.759 69.3064C34.4381 69.7486 35.0461 69.567 34.6197 70.8147C33.2852 69.8591 32.6455 69.7881 31.3584 70.8147C29.242 72.5046 27.8364 75.1894 28.6103 77.9217C28.7682 78.4666 29.1078 79.2405 29.7553 79.272L29.4315 77.7401L32.1875 78.5693C32.4244 78.7272 31.7374 79.3115 31.611 79.4063L31.6032 79.4142ZM32.3139 77.8112C31.3741 77.5269 30.4186 77.2742 29.4552 77.0847L29.2578 76.8951C28.8472 75.0868 30.1186 72.8757 31.4847 71.7228C33.1904 70.2935 33.451 71.1384 35.0698 71.8491C35.6068 72.086 36.278 72.1808 36.7044 72.3624C36.9019 72.4493 36.8229 72.7888 37.2493 72.7494C37.6126 72.7099 39.1366 70.5067 39.6894 70.0487C41.7346 68.3509 45.0355 68.5167 47.4756 69.1879C47.8072 69.2827 50.3026 69.9934 49.3787 70.633C49.0628 70.8462 44.3327 70.4593 43.2982 70.5778C42.9271 70.6172 41.253 70.9647 41.0397 71.1384L40.9766 71.7228C41.174 72.0465 43.464 72.0465 44.0405 72.1176C45.4461 72.2992 48.3047 72.9705 49.4656 73.7443C49.7183 73.9102 50.0262 74.0523 49.8367 74.4156C49.4182 74.684 48.897 74.6999 48.4153 74.6683C46.3542 74.5419 43.8194 73.6575 41.7504 74.2734C41.016 74.4866 41.2293 74.7551 41.8768 74.8025C43.9299 74.9526 46.8044 75.1184 48.7706 75.6001C49.8525 75.8607 50.0341 76.4292 48.8022 76.5951L41.8847 76.7293C41.553 76.7846 41.3872 77.0294 41.4346 77.369C43.7641 77.369 46.0147 77.9849 48.3521 77.6295C48.6522 77.9454 47.594 78.4034 47.3571 78.4982C45.4698 79.2247 43.4324 79.0036 41.5056 79.3115C40.8739 79.4142 40.1711 79.7301 39.5552 79.7932C38.0785 79.9512 33.9959 78.3244 32.3297 77.819L32.3139 77.8112ZM44.3564 64.8684C46.8201 65.2948 49.3708 65.0974 51.7951 64.5446C51.8267 64.8368 51.7319 65.208 51.8188 65.4844C51.9135 65.7765 52.5453 65.8318 52.3005 66.203C52.2294 66.3135 50.2473 66.5662 49.9315 66.5899C47.8783 66.7794 45.4935 66.6768 43.4561 66.274C42.8481 66.1477 42.1295 65.8081 41.5688 65.7213C41.324 65.6818 40.9134 65.9818 40.7634 65.6265C40.5817 65.1843 41.0713 65.3738 41.2135 65.1843C41.3556 64.9948 41.324 64.1103 41.7189 64.063C41.8531 64.0472 43.8431 64.7736 44.3406 64.8605L44.3564 64.8684ZM42.4059 63.0364C44.0721 62.7284 49.4024 62.6968 50.8949 63.3285C51.1318 63.4312 51.4397 63.597 51.4082 63.905C48.5101 64.5999 44.8776 64.6473 42.0505 63.5812C41.4504 63.3522 42.0189 63.1075 42.398 63.0443L42.4059 63.0364ZM47.7915 68.4772C45.8646 67.8929 43.8589 67.8692 41.8768 68.1377C41.5135 67.9482 41.711 66.5899 41.861 66.5899C45.0197 67.6717 48.3837 67.3875 51.6608 67.2374L50.5711 73.7759C50.1052 72.9705 48.7312 72.5835 47.8467 72.2677C46.7333 71.8728 45.5567 71.4543 44.3564 71.4622C44.3248 71.2411 44.6486 71.3437 44.8065 71.3358C45.9989 71.2885 49.3945 71.857 50.0578 70.9489C51.0449 69.5986 48.7154 68.7615 47.7915 68.4772ZM50.0578 77.1004C49.9394 77.7638 49.7814 79.9828 49.355 80.3697C48.4232 81.2147 43.2666 81.1199 42.3664 80.1881C42.2479 80.0617 42.1374 79.9986 42.1769 79.8011C43.0692 79.7459 44.0484 79.8801 44.9328 79.8011C45.4461 79.7538 46.3227 79.5405 46.8438 79.4063C47.4598 79.2484 48.6996 78.9483 48.9128 78.2692C49.1813 77.3847 48.6206 77.29 50.0578 77.1083V77.1004ZM33.7195 79.0272C35.7805 79.4063 37.6205 80.7961 39.7921 80.5513C40.1553 80.5118 41.1029 80.1328 41.324 80.196C41.4741 80.2434 41.6557 80.6619 41.8531 80.8277C43.0613 81.8464 48.052 81.9649 49.4419 81.2383C50.5553 80.654 50.6422 78.5456 50.8475 77.3926C51.4555 74.0207 51.8583 70.6014 52.3242 67.2058C53.027 66.7399 53.3192 65.9898 53.0507 65.1448C52.9954 64.9711 52.7269 64.9711 52.64 64.7816C52.4663 64.3709 52.5769 63.8655 52.2768 63.3523C51.5345 62.073 48.3126 62.1598 46.9781 62.1125C45.841 62.073 44.6801 61.994 43.5193 62.1125C43.006 62.1677 41.9952 62.2625 41.5688 62.4678C40.866 62.8153 40.8818 63.4944 40.6212 64.0866C40.1553 65.1527 39.2867 66.124 41.0239 66.6768L40.9608 68.3983C39.263 69.0063 38.2917 70.3567 37.1703 71.6675L35.4173 71.1621C35.7016 70.0882 35.4725 69.0458 34.3433 68.7062C34.6671 67.3401 34.5091 65.7371 34.7697 64.3946C35.2198 62.0098 37.731 59.0169 38.647 56.6084C38.8287 56.1346 39.0261 55.6529 38.9708 55.1396C38.9708 55.0212 38.7418 55.0607 38.6628 55.0923C37.8811 55.3923 33.7826 64.8605 32.7482 66.1003C30.6082 64.0235 28.0891 63.8497 25.5069 65.2712C24.5909 65.7765 23.2168 66.7952 23.0747 67.9008C23.3748 68.1771 24.6698 66.811 25.0094 66.5662C26.9441 65.1606 30.237 64.3709 31.9901 66.4872C33.0088 67.7112 31.6584 67.0558 31.0899 67.0084C28.5708 66.7794 26.6045 68.8247 25.4121 70.8147C25.0094 71.4859 23.9749 73.6812 23.9749 74.3761V76.3661C22.1981 74.992 20.1766 72.8994 20.0029 70.5304C19.6712 66.0687 25.0805 55.0054 27.3705 50.8517C30.7029 44.787 33.2299 42.0863 39.2709 38.6513C39.8 38.3512 43.5035 36.3533 43.7088 36.4955L46.1647 44.9371C46.8281 45.3635 48.8417 43.0261 49.355 42.5838C50.0104 42.0153 50.4921 41.4783 51.4082 41.7547C51.266 41.3836 51.1397 40.9492 50.6974 40.8545C49.963 40.7834 48.0362 43.034 47.365 43.5472C47.1202 43.7368 46.8675 43.9737 46.5359 43.9342L44.3722 35.7848C44.9723 34.4423 45.8094 33.0762 47.2387 32.5234L47.1755 34.0633C46.9939 33.9527 46.5911 33.8659 46.5359 34.1265C46.3464 35.0504 51.4476 39.9068 52.3005 40.9255C53.2639 42.0706 54.1009 43.334 54.938 44.5738C54.8432 45.403 54.3378 46.1295 54.2352 46.9665C53.9983 49.0039 54.5905 51.1913 54.7327 53.2365C55.2381 60.6279 54.9143 68.2798 54.8827 75.679C54.8669 78.5377 55.2539 81.8464 54.9933 84.6418C54.8195 86.466 53.9272 89.4194 53.4218 91.2751C53.2876 91.7568 52.4663 94.8365 52.2847 94.9471C50.5948 95.0655 48.897 94.6312 47.3492 93.9679C43.0139 92.0885 36.815 85.3447 31.998 89.4588L31.0346 90.4143C32.0612 86.6634 33.3325 82.9677 33.7274 79.0667L33.7195 79.0272ZM34.8724 94.1574C34.0117 93.8968 31.3426 92.4359 31.2873 91.5199C31.232 90.6275 33.6247 89.1746 34.4302 88.9061C34.4855 89.5299 34.3354 90.1301 34.367 90.7618C34.3907 91.2672 34.9829 94.0231 34.8803 94.1574H34.8724ZM10.9532 149.308C11.577 150.911 12.422 152.404 13.4644 153.738C13.109 153.801 12.7063 153.754 12.1772 153.462C10.8663 152.743 10.5426 150.887 10.9453 149.308H10.9532ZM22.3798 171.458C19.0395 171.877 14.7673 171.403 12.1298 169.145C9.99769 167.321 9.38175 164.375 7.91296 162.077C7.16277 160.908 6.04933 159.874 5.22017 158.745C3.74348 156.747 2.08517 154.062 4.75427 152.222C5.03065 156.155 8.13407 158.634 9.85556 161.801C10.7479 163.428 11.2059 165.339 12.4457 166.768C15.3122 170.077 21.0452 170.029 25.0015 169.271C25.27 171.056 23.7301 171.277 22.3719 171.451L22.3798 171.458ZM22.1429 165.544C23.4695 166.215 24.8357 166.997 25.0015 168.639C22.4271 168.995 19.608 169.176 17.0495 168.584C12.1693 167.455 12.1851 164.391 10.1083 160.782C8.58418 158.137 5.83612 155.847 5.52025 152.554C5.3939 151.188 5.71767 150.966 6.67317 150.114C7.73923 149.166 9.10536 148.353 10.511 148.037L10.5426 148.147C10.5426 148.147 10.5426 148.163 10.5505 148.179C9.47651 150.114 10.0451 153.857 12.4299 154.354C12.7773 154.425 13.6302 154.315 13.7013 154.615C13.4407 156.447 13.9066 158.571 14.3646 160.364C14.6884 161.643 15.1306 163.056 15.7939 164.193C15.9202 164.415 16.4967 165.062 16.4098 165.181C16.1413 165.165 15.4622 165.623 15.5096 165.883C15.557 166.128 15.7465 166.002 15.8571 165.986C16.552 165.868 17.4127 165.402 18.1708 165.22C19.9081 164.802 20.524 164.738 22.1271 165.544H22.1429ZM19.3474 162.251L20.2634 163.964L20.0818 164.154C19.379 164.091 17.4127 164.967 16.931 164.73C15.9518 164.249 14.9174 159.661 14.6884 158.508C14.4514 157.308 14.0487 155.847 14.3883 154.812C14.941 155.404 15.5333 155.957 16.1571 156.47C15.8966 156.518 15.407 156.826 15.1385 156.842C14.7278 157.41 16.5362 157.181 17.01 157.126C17.5312 157.497 18.0682 157.845 18.6288 158.16C18.6288 158.334 18.6288 158.524 18.5972 158.761C18.1629 158.729 15.7702 158.832 15.9044 159.463C16.0071 159.961 18.1313 159.195 18.7236 159.724C18.8341 159.819 19.0947 161.153 19.1105 161.39C19.1342 161.746 18.8499 161.414 18.5341 161.438C17.7997 161.493 16.7889 161.588 16.2914 162.156C16.2835 162.622 18.9842 162.014 19.3474 162.243V162.251ZM48.1468 116.726C46.0937 120.54 44.538 124.757 42.0268 128.303C40.329 130.703 38.1416 132.488 36.1517 134.604C31.9111 139.113 27.7811 143.757 23.8959 148.59C22.7746 146.078 19.4264 141.68 19.4264 141.68L12.2799 142.509C13.0853 141.585 14.3172 140.345 14.6805 139.935C17.5075 136.737 20.3266 133.53 23.1379 130.317C24.9936 128.2 26.9678 125.452 28.9025 123.517C29.8659 122.554 30.7661 122.499 31.7532 121.883C32.6771 121.298 34.1617 116.766 34.6118 115.51C36.0648 111.483 37.1782 106.603 38.805 102.781C38.8681 102.631 38.8681 102.473 39.034 102.37C41.6794 106.603 44.7986 110.662 47.3571 114.942C47.6414 115.423 48.281 116.229 48.1468 116.726ZM56.4384 130.853C55.1512 127.442 54.5037 125.073 52.6164 121.859C48.7785 115.336 44.3169 109.193 40.258 102.812C37.7073 98.8086 34.9198 94.5049 35.1883 89.5299C35.3304 89.3246 36.7834 89.5141 37.0835 89.5694C41.9795 90.4064 45.6277 95.413 50.9501 95.6973C52.4663 95.7762 52.7743 95.7762 53.335 94.3548L55.2539 87.232C55.7356 89.443 55.9172 91.8437 56.6279 93.9916C57.3939 96.3053 57.9466 95.5314 59.9919 95.1761L59.0364 98.6664L55.7356 95.0023L55.3091 94.5364L54.9933 94.7339C54.8906 95.2156 57.1807 100.143 57.5676 100.988C59.8576 106.018 62.4952 110.891 64.8326 115.897C67.3753 121.322 69.1916 126.842 71.2526 132.401L57.615 131.58C57.8124 132.125 58.0098 132.678 58.2388 133.27C59.9129 137.7 61.8318 143.212 63.8376 148.771C61.1922 142.778 58.6258 136.65 56.4305 130.838L56.4384 130.853ZM76.3381 173.52C76.196 173.614 76.2513 173.717 76.0854 173.52C75.5406 172.856 74.356 169.232 74.1586 168.268C74.0876 167.913 74.0481 167.597 74.0402 167.297C74.7193 166.949 75.3589 166.618 75.9828 166.286C77.1673 166.207 78.5018 165.315 79.1968 164.509C79.7574 164.178 80.3023 163.854 80.7998 163.538L82.7503 163.649C83.8874 163.435 85.0561 163.428 86.1932 163.238C89.9363 162.622 90.5049 160.174 93.4503 158.453C95.2113 157.418 98.4569 156.005 100.115 157.75C93.8926 158.982 90.4338 165.157 85.1272 168.071C82.3712 169.587 79.8917 170.392 77.3726 172.493C77.033 172.777 76.6698 173.298 76.346 173.52H76.3381ZM97.067 161.817C93.703 164.091 90.955 167.321 87.591 169.642C85.8063 170.874 83.84 171.766 82.0001 172.896C80.4365 173.859 79.0309 175.059 77.4279 175.944L76.6619 174.467C76.6619 173.93 78.8335 172.28 79.3547 171.916C81.779 170.227 84.6534 169.382 87.0698 167.715C91.0576 164.967 94.5164 160.103 99.3018 158.674C100.731 158.247 101.142 158.216 101.252 159.921C99.7756 160.04 98.2752 160.995 97.0592 161.817H97.067Z" fill="black"/>
<path d="M47.358 114.934C44.7994 110.654 40.8274 105.198 38.182 100.957C38.0162 101.06 38.0161 101.218 37.953 101.368C36.3262 105.198 34.0915 110.275 32.6385 114.302C32.1884 115.558 31.0907 121.394 30.1589 121.978C29.1718 122.602 28.2716 122.657 27.3082 123.613C25.3735 125.547 23.3993 128.288 21.5436 130.412C18.7323 133.626 15.9053 136.824 13.0862 140.03C12.5492 140.638 9.96696 143.291 9.84062 143.813C9.75375 144.16 9.96697 145.131 10.0775 145.566C12.7229 155.879 20.1853 159.085 20.896 158.485C25.8315 156.969 33.6651 146.166 40.1799 135.876C41.7355 133.42 42.9595 132.994 43.9545 130.23C45.3917 126.219 46.4814 121.275 48.5346 117.469C48.6688 116.972 47.6423 115.408 47.358 114.934ZM34.36 123.194C33.2939 123.644 32.0462 124.031 30.9012 123.779L31.067 123.494L36.0341 121.733C36.0815 122.515 34.9917 122.934 34.3679 123.202L34.36 123.194Z" fill="white"/>
<path d="M59.9915 95.1844L59.036 98.6748L55.7352 95.0107L55.3088 94.5448L54.9929 94.7422C54.8902 95.2318 58.6807 98.9275 59.3993 100.191C62.3369 105.363 68.1725 112.597 70.5179 117.603C73.3844 123.731 83.3027 149.648 86.5166 156.289C84.5819 160.664 80.5704 162.654 72.3815 167.795C72.1288 167.85 72.2236 167.74 72.1604 167.629C71.9393 167.258 71.7103 166.745 71.5287 166.342C67.1618 157.016 60.0784 140.464 56.438 130.854C55.1508 127.443 54.5033 125.074 52.616 121.86C48.7782 115.337 44.3165 109.193 40.2576 102.813C37.707 98.809 34.9194 94.5053 35.1879 89.5304C35.33 89.3251 36.783 89.5146 37.0831 89.5698C41.9791 90.4069 45.6274 95.4134 50.9498 95.6977C52.466 95.7767 52.7739 95.7767 53.3346 94.3553L55.2535 87.2324C55.7352 89.4435 55.9168 91.8441 56.6275 93.992C57.3935 96.3058 57.9463 95.5319 59.9915 95.1765V95.1844Z" fill="white"/>
</svg>
