<svg width="249" height="193" viewBox="0 0 249 193" fill="none" xmlns="http://www.w3.org/2000/svg">
<path d="M244.736 168.114H196.271L201.778 149.238C202.153 148.556 201.403 146.922 200.695 146.922H182.687C184.702 143.048 188.719 141.283 191.436 138.076C192.897 136.353 193.746 134.462 195.547 132.925C197.337 131.393 201.746 129.445 202.354 127.174C202.761 125.652 201.435 125.441 201.422 124.81C201.412 124.313 202.117 123.621 202.034 122.766C201.922 121.609 200.913 121.433 200.698 121C200.467 120.533 200.717 119.93 200.288 119.354C199.244 117.957 196.745 119.623 196.482 119.354C196.293 115.746 191.558 118.325 189.757 119.319C186.253 121.247 181.441 125.639 179.233 128.959C178.483 130.086 177.99 131.387 177.221 132.502C175.36 135.193 168.254 139.089 165.134 140.787C164.579 141.088 161.376 142.786 161.1 142.59C160.123 140.156 158.931 137.81 157.9 135.398C155.087 128.811 151.822 116.637 146.68 112.049C143.223 108.967 138.165 107.545 133.827 106.087C132.952 105.953 132.027 105.767 131.242 106.071C130.588 106.324 130.184 106.879 129.835 107.465C129.854 107.641 129.854 107.82 129.835 107.997C129.809 108.234 129.771 108.471 129.726 108.708C129.717 108.753 129.71 108.801 129.701 108.849C129.701 108.862 129.688 108.98 129.688 109.006C129.681 109.224 129.608 109.429 129.489 109.595C128.679 111.409 127.477 112.626 125.494 113.241C123.351 113.907 120.788 113.84 118.635 113.267C116.508 112.703 114.198 111.723 112.436 110.383C111.568 109.727 110.895 108.919 110.344 107.984C109.863 107.17 109.78 106.5 109.796 105.712C109.341 104.899 108.886 104.078 108.902 103.156L108.796 103.608C100.553 107.449 90.6665 109.515 84.7236 116.884C84.525 114.212 84.9895 111.178 84.7236 108.551C84.5026 106.369 83.4678 104.069 82.2536 102.278C91.3009 100.926 100.476 100.103 109.626 100.016L109.367 101.141C109.581 100.468 109.777 99.7919 109.729 99.1287C109.722 99.1063 109.713 99.0903 109.706 99.0679C109.665 98.8917 109.636 98.7218 109.613 98.5488V98.5681C102.517 98.7987 95.1998 98.9813 88.142 99.8399C80.6902 100.747 75.6411 101.637 75.0388 110.403C74.4109 119.565 75.0613 130.371 75.2503 139.627C75.3784 145.916 72.1203 153.608 71.9505 160.602C71.8864 163.206 72.1363 166.16 74.0168 168.121H58.9914L55.6595 150.568C55.5026 150.148 53.6925 150.039 53.1351 150.004C42.5948 149.369 29.5557 149.754 18.9578 150.218C16.9811 150.305 13.4891 149.331 14.1491 152.355L17.2086 168.118H2.90402C2.51637 168.118 2.51637 169.146 2.90402 169.146H17.3111L19.9381 181.333C20.2297 182.461 21.2292 182.63 22.2544 182.72C30.6129 183.463 39.3975 183.55 47.7785 183.95C53.6156 184.229 59.6642 185.402 65.3188 183.809C69.8809 182.525 74.2731 180.583 78.8 179.183C79.681 178.844 79.5721 176.761 78.8577 176.335L60.4363 175.515L59.1932 169.146H75.5546C75.6572 169.146 77.0123 169.854 77.4032 169.972C83.6504 171.869 90.6153 173.541 97.0227 174.842C99.7747 175.4 103.408 176.521 106.028 175.332C106.467 175.134 106.855 174.579 107.07 174.538C107.364 174.48 109.998 175.713 110.84 175.845C115.092 176.505 117.712 173.628 121.759 174.499C120.89 176.277 121.518 176.969 123.12 177.764C125.561 178.978 137.082 182.851 139.584 183.114C143.88 183.563 149.317 183.072 153.767 183.13C162.039 183.239 170.368 183.476 178.669 183.354C181.998 183.306 186.852 183.489 189.978 183.14C190.914 183.034 191.676 182.65 192.231 181.893L196.049 169.149H244.724C245.111 169.149 245.111 168.121 244.724 168.121L244.736 168.114ZM76.0768 177.373L61.878 182.72L60.8463 176.752L76.0768 177.37V177.373ZM60.6381 183.543L21.2196 181.288L15.3632 151.449L54.4453 151.471L60.6381 183.543ZM198.526 120.055C199.58 119.857 199.596 120.776 199.051 121.417L190.712 126.553C190.731 125.822 190.475 125.55 189.889 125.213L189.985 124.903C192.375 123.214 195.591 120.603 198.526 120.055ZM175.988 135.613C176.097 135.35 177.804 133.748 178.24 133.12C179.009 132.005 179.502 130.701 180.252 129.577C182.344 126.45 186.608 122.554 189.882 120.687C190.757 120.19 194.432 118.284 195.217 118.758C195.54 119.357 195.197 119.783 194.726 120.18C193.544 121.18 191.343 122.32 189.908 123.387C188.985 124.073 185.339 126.802 185.058 127.591C184.897 128.036 184.862 128.625 185.464 128.619C186.195 128.613 188.703 124.566 189.648 126.825C189.008 128.645 187.13 129.868 186.416 131.621C185.884 132.925 186.044 134.395 185.464 135.609C184.92 136.75 183.401 137.032 184.125 138.486C185.407 138.227 186.602 136.407 186.945 135.238C187.274 134.116 187.143 132.915 187.643 131.819C188.168 130.666 189.508 129.574 190.26 128.468C190.459 128.177 190.67 127.408 190.718 127.373C190.815 127.305 191.269 127.648 191.724 127.478C192.602 127.155 194.649 125.428 195.665 124.816C197.168 123.913 198.741 123.134 200.25 122.244C201.387 122.993 200.583 124.134 199.766 124.803C198.673 125.7 192.34 128.571 192.346 129.737L192.977 130.371L200.323 125.963L201.105 126.351C201.454 127.065 200.323 127.972 199.855 128.398C198.231 129.878 195.937 130.81 194.3 132.306C192.663 133.803 191.721 135.885 190.286 137.551C188.197 139.976 185.275 141.632 182.869 143.731C182.187 143.987 180.178 142.6 179.589 142.084C178.628 141.245 175.53 136.683 175.981 135.606L175.988 135.613ZM103.036 174.49C99.5697 174.105 96.1481 173.298 92.7425 172.539C88.2445 171.539 83.1026 170.44 78.7519 169.037C76.8201 168.415 74.7953 167.871 73.9143 165.849C72.0722 161.63 74.1482 152.128 75.1478 147.537C77.0604 138.749 81.8883 120.18 88.7411 114.423C93.9888 110.012 102.12 108.035 108.287 105.155C108.828 105.075 108.55 106.36 108.643 106.856C109.998 113.991 127.567 119.37 130.726 108.865C131.059 107.756 130.55 106.814 132.161 106.686C136.361 108.368 141.583 109.438 145.12 112.363C150.682 116.964 153.953 129.183 156.865 136.01C157.89 138.416 158.954 140.841 160.248 143.116C160.238 143.436 156.753 144.609 156.746 145.583C156.737 146.938 158.992 145.182 159.425 144.961C160.892 144.215 162.446 143.612 163.891 142.84C167.601 140.857 171.08 138.451 174.764 136.43C176.148 140.313 178.4 143.478 182.273 145.176C182.306 145.313 181.232 147.165 180.742 146.931L150.727 146.963C148.824 147.393 148.292 152.109 147.901 153.813C147.827 154.13 148.039 154.172 147.494 154.121C147.004 151.75 145.367 149.872 144.236 147.803C145.056 141.754 145.271 135.6 145.219 129.542C145.21 128.564 145.421 124.659 145.024 124.182C143.489 122.333 144.204 127.949 144.207 128.289C144.313 134.616 143.742 141.331 143.166 147.636C142.544 154.457 141.426 161.239 141.314 168.108H134.625C131.097 164.734 126.148 162.908 121.249 163.171C118.106 163.341 114.352 164.763 111.254 164.106C110.337 163.914 109.488 163.062 108.588 162.658C105.026 161.06 100.56 160.143 96.8049 158.596C95.5234 158.067 94.2482 157.491 93.0437 156.802C94.1682 150.68 96.3467 144.782 97.5834 138.688C98.4708 134.318 98.9065 129.856 97.5834 125.515C97.3943 124.899 96.3339 122.016 95.7316 122.013C94.4854 122.513 96.0584 124.646 96.3916 125.678C99.4447 135.203 93.5115 146.746 91.916 156.168C89.9553 155.661 88.1004 154.71 86.0532 154.527C84.9639 154.431 80.9914 154.156 82.3818 155.982C82.795 155.991 83.1827 155.78 83.5896 155.761C88.9782 155.504 93.348 158.567 98.2497 160.441C101.364 161.633 104.564 162.655 107.768 163.581C104.337 166.202 100.941 169.847 103.036 174.48V174.49ZM143.992 169.143C143.65 169.674 143.73 171.036 143.172 171.305C142.512 171.626 138.754 171.725 137.908 171.622C137.114 171.526 136.358 169.787 135.759 169.143H143.992ZM120.817 173.074C117.488 172.689 114.973 174.996 111.577 174.695C110.017 174.557 108.953 173.637 107.617 173.304C106.794 173.099 103.526 173.064 103.465 171.936C103.372 170.229 104.929 167.733 106.115 166.564C106.403 166.279 108.319 164.786 108.585 164.702C109.363 164.462 110.414 165.301 111.395 165.42C115.428 165.901 119.519 164.148 123.521 164.408C127.817 164.686 132.667 167.361 135.342 170.697C136.146 171.699 137.774 174.352 135.198 173.612C133.42 170.895 130.604 168.415 127.599 167.121C126.814 166.782 124.655 165.776 124.008 166.56C123.165 167.589 125.177 167.583 125.869 167.823C128.259 168.653 130.928 170.306 132.568 172.234C133.295 173.086 135.112 175.079 133.135 175.492C131.95 175.739 130.505 173.519 129.582 172.75C128.028 171.456 123.399 168.97 121.438 168.938C120.833 168.928 119.945 169.377 120.41 169.989C120.548 170.171 124.008 171.052 124.78 171.382C125.875 171.853 127.263 172.583 128.208 173.304C128.829 173.778 131.517 176.008 129.675 176.354C128.105 176.649 123.219 173.365 120.813 173.086L120.817 173.074ZM138.274 181.544C134.891 180.692 130.476 179.074 127.125 177.879C126.468 177.645 122.588 176.338 122.592 175.829C122.761 175.675 122.912 175.406 123.146 175.342C123.931 175.134 128.134 178.052 130.085 177.773C131.165 177.62 131.158 176.79 131.469 176.566C131.604 176.47 133.334 177.238 134.631 176.14C134.942 175.877 135.166 175.319 135.349 175.21C135.701 175.005 136.3 175.159 136.867 174.874C137.582 174.512 137.928 173.612 137.819 172.843L142.964 172.638L140.584 181.906C139.795 181.916 139.03 181.733 138.274 181.541V181.544ZM191 181.467L141.939 181.9L150.175 149.091L150.999 148.062L199.058 147.947L200.499 148.357L191 181.471V181.467Z" fill="black"/>
<path d="M125.675 1.97729C125.79 1.43906 126.979 0.468366 127.52 0.324199L244.536 0.218451C245.898 0.109525 247.288 1.19883 247.317 2.58283L247.211 68.9477C247.154 69.502 246.003 70.5881 245.558 70.5881H142.245C141.646 70.5881 141.646 69.1464 142.245 69.1464H245.148C245.206 69.1464 245.648 68.6498 245.76 68.5248L245.878 2.98971C245.968 2.21762 245.427 1.8043 244.722 1.67616L127.783 1.8171L127.267 2.33293L127.011 54.7456C126.713 55.3543 125.672 55.2006 125.672 54.8482V1.97408L125.675 1.97729Z" fill="black"/>
<path d="M2.70673 70.5923C1.80328 70.4321 0.803761 69.4004 0.746094 68.4361L0.842221 1.863C1.28754 1.07809 1.98275 0.347626 2.93105 0.248311L115.083 0.222656C116.589 0.254693 117.8 1.23824 117.864 2.79204L117.755 56.4094L117.621 56.7778C117.006 56.9028 116.352 56.8804 116.403 56.0955L116.423 3.20213C116.445 2.4877 116.24 2.05522 115.583 1.78611L3.33472 1.68036C2.6299 1.80851 2.08844 2.22182 2.17814 2.99392V68.0293C2.03398 68.4362 2.86692 69.1506 3.11681 69.1506H101.698C102.201 69.1506 102.201 70.5923 101.698 70.5923H2.70673Z" fill="black"/>
<path d="M2.49852 75.7383H102.108C102.528 75.7383 102.528 77.18 102.108 77.18H2.9086C2.85093 77.18 2.40877 77.6766 2.29664 77.8015V143.836C2.41197 143.961 2.85414 144.458 2.9086 144.458H70.414C70.917 144.458 70.917 145.9 70.414 145.9H2.49852C2.20698 145.9 0.909499 144.919 0.842221 144.471L0.746094 77.8976C0.810168 76.9076 1.73603 76.2445 2.49852 75.7415V75.7383Z" fill="black"/>
<path d="M245.766 75.7376C246.359 75.8657 247.496 77.1632 247.32 77.8873L247.15 144.396C246.9 145.127 246.304 145.447 245.67 145.8L191.947 145.79L191.572 145.348L191.876 144.643L245.244 144.345C245.679 144.057 245.936 143.676 245.878 143.128L245.759 77.7976C245.644 77.6727 245.202 77.176 245.147 77.176H142.449C141.85 77.176 141.85 75.7344 142.449 75.7344H245.763L245.766 75.7376Z" fill="black"/>
<path d="M2.91171 192.598C2.11719 191.611 2.72591 191.425 3.72547 191.355C66.342 191.406 129.096 191.323 191.623 191.358C209.119 191.368 226.701 191.432 244.116 191.589C245.019 191.598 246.516 191.307 247.413 191.345C247.768 191.361 248.037 191.47 248.239 191.771V192.396L248.028 192.598H2.91171Z" fill="black"/>
<path d="M242.369 5.7832V65.6542H143.169V64.8308H241.546V6.91412L241.235 6.6065H131.646V56.4979L130.617 56.8055V6.09395L130.925 5.7832H242.369Z" fill="black"/>
<path d="M112.504 5.7832C112.437 5.98504 112.709 6.22848 112.709 6.29896V57.9396C112.709 58.3272 111.681 58.3272 111.681 57.9396V6.6065H6.51275V64.8308H103.345L103.653 65.1416L103.345 65.6542H5.79192L5.48438 65.3466V6.29896C5.48438 6.23168 5.75666 5.98504 5.68938 5.7832H112.501H112.504Z" fill="black"/>
<path d="M6.51487 81.9099V140.134H71.137L71.0472 140.97L70.4257 141.172H6.8128C6.17846 141.172 5.44163 141.006 5.47367 140.25L5.59216 81.2981C5.63701 81.2019 5.9638 80.8848 6.00225 80.8848H102.114C102.501 80.8848 102.501 81.9131 102.114 81.9131H6.51808L6.51487 81.9099Z" fill="black"/>
<path d="M142.141 81.9091L142.173 81.1178L143.265 80.8711H241.248C241.856 80.8711 242.622 81.0313 242.587 81.7938L242.385 140.816C242.318 140.922 241.936 141.162 241.856 141.162H192.256C191.869 141.162 191.869 140.133 192.256 140.133H241.238L241.545 139.826V81.9091H142.141Z" fill="black"/>
<path d="M160.249 32.9433C160.3 31.9757 159.896 29.9029 161.178 29.6562L177.549 29.7428L177.815 32.6485L178.074 32.9144L193.644 32.9945C197.348 33.7858 197.117 37.9987 198.626 40.5648C200.225 43.2848 203.054 42.5191 205.732 42.6153C205.203 42.0642 205.235 41.3979 206.04 41.2601L208.987 42.8587C209.468 43.6148 207.097 44.813 206.565 44.9924C205.29 45.4217 205.072 44.6752 205.94 43.8518H200.693C200.484 43.8518 199.337 44.342 199.081 44.5022C196.79 45.915 197.233 49.1925 194.974 50.4804C194.75 50.6085 193.648 51.0538 193.491 51.0538H177.748C177.623 51.8259 178.09 53.8763 177.337 54.2448L161.226 54.3024C159.82 53.9756 160.342 52.1078 160.255 51.0538H143.276L142.968 50.0254H160.153L160.412 49.7243C160.172 48.9618 160.05 47.219 160.755 46.716L177.193 46.5655C178.126 46.8442 177.837 49.0131 177.847 49.8268L178.26 50.0222C182.752 49.7627 187.612 50.365 192.059 50.0286C192.706 49.9806 193.705 49.8332 194.295 49.5897C196.188 48.8016 196.15 45.0693 198.335 43.5475C198.645 43.3297 199.536 43.2912 199.353 42.926C199.248 42.7114 198.658 42.4903 198.421 42.2116C196.653 40.126 196.284 33.9748 193.077 33.9748H177.744C178.145 34.6893 178.036 37.1786 177.19 37.4317L160.867 37.3707C159.964 36.9414 160.201 34.7854 160.457 33.9748H143.272L142.965 32.9465H160.252L160.249 32.9433ZM176.713 30.6814H161.482V36.4417H176.402L176.71 36.1341V30.6814H176.713ZM176.713 53.1074V47.8597L176.405 47.5522H161.486V53.1074H176.716H176.713Z" fill="black"/>
<path d="M225.041 171.246L225.701 171.278L246.064 183.036C247.476 184.916 245.471 184.92 244.08 185.153C237.183 186.323 228.988 187.643 222.068 188.248C221.039 188.338 219.956 188.62 219.04 188.034L201.721 175.1C201.144 173.851 202.948 173.626 203.807 173.485C210.685 172.345 218.114 172.348 225.044 171.246H225.041ZM244.628 183.545L225.752 172.685C218.31 172.89 210.896 174.357 203.47 174.696C203.332 175.174 203.595 175.046 203.73 175.167C205.975 177.224 209.765 179.688 212.341 181.565C214.882 183.417 217.387 185.387 220.081 186.992C226.082 186.454 232.131 185.615 238.118 184.747C240.041 184.468 242.193 184.247 244.068 183.901C244.257 183.866 244.686 183.817 244.631 183.545H244.628Z" fill="black"/>
<path d="M180.363 102.953C180.59 103.181 180.799 103.885 180.837 104.228C181.398 109.28 180.398 115.335 180.84 120.497C180.875 121.243 180.504 121.861 179.812 122.143H160.445L159.52 121.217V103.709C159.859 102.982 160.538 102.421 161.371 102.476C167.013 102.883 173.324 101.97 178.886 102.476C179.322 102.514 180.059 102.652 180.363 102.956V102.953ZM179.597 121V104.026L179.29 103.719H160.974L160.666 104.026V120.692C160.666 120.859 161.32 121.298 161.583 121.217C167.071 120.868 173.049 121.644 178.479 121.217C178.876 121.185 179.226 121.096 179.6 121.003L179.597 121Z" fill="black"/>
<path d="M19.5819 53.7227H85.6456C86.1711 53.7227 86.2127 54.828 84.6269 54.9657L19.8318 54.9144C19.2807 54.6774 19.0212 54.1199 19.5851 53.7227H19.5819Z" fill="black"/>
<path d="M210.822 102.528L227.911 102.64C228.568 103.024 229.051 103.633 229.003 104.428C228.625 109.598 229.474 115.4 229.003 120.494C228.923 121.35 228.616 122.138 227.667 122.244C222.474 121.769 216.256 122.839 211.188 122.237C210.444 122.147 209.691 121.715 209.637 120.904C210.114 115.57 209.038 109.23 209.643 104.018C209.733 103.255 210.069 102.749 210.822 102.521V102.528ZM210.983 103.716L210.675 104.024V120.69C210.675 120.725 211.152 121.206 211.191 121.206H227.45L227.757 120.898V104.027L227.45 103.72H210.986L210.983 103.716Z" fill="black"/>
<path d="M29.9771 113.796C33.2545 114.67 35.3754 117.169 35.9232 120.504C35.9873 120.895 36.1763 122.625 36.1474 122.933C36.0513 123.993 35.0902 124.214 34.2028 124.297C30.7075 124.621 23.48 124.621 19.9847 124.297C18.6456 124.172 17.976 123.807 18.0304 122.343C18.1842 118.294 20.1417 114.856 24.2104 113.792C19.7508 110.044 23.4703 102.33 29.1569 105.043C32.5977 106.683 32.4535 111.326 29.9739 113.792L29.9771 113.796ZM26.0076 105.822C25.29 105.969 24.0951 107.039 23.7587 107.686C22.615 109.897 23.9925 113.142 26.5779 113.386C32.2549 113.921 31.832 104.62 26.0076 105.822ZM34.914 123.058C35.0742 119.162 33.4211 115.779 29.4036 114.885C23.6305 113.6 18.7994 116.919 19.2735 123.058H34.9172H34.914Z" fill="black"/>
<path d="M50.7641 128.61C54.0351 129.302 55.6241 132.416 55.8836 135.53C56.0694 137.766 56.0598 138.112 53.7564 138.288C50.2739 138.554 44.6867 138.526 41.185 138.288C38.8335 138.131 38.6797 137.891 38.8302 135.504C39.0417 132.224 41.1273 129.209 44.3823 128.402C40.5699 124.516 44.1773 117.823 49.5275 120.072C52.1449 121.171 52.8113 124.535 51.6868 126.963C51.5138 127.335 50.6103 128.434 50.7609 128.607L50.7641 128.61ZM47.0093 120.847C43.0399 121.373 42.9054 127.643 46.9709 128.184C52.5806 128.93 52.2186 120.159 47.0093 120.847ZM54.8777 137.049C54.6438 134.402 54.2529 131.465 51.6515 130.09C49.4602 128.934 44.8308 128.924 42.7484 130.375C40.666 131.827 39.8106 134.55 40.0605 137.049H54.8777Z" fill="black"/>
<path d="M58.2722 124.909C57.1253 124.56 58.269 120.158 58.6086 119.277C59.323 117.425 61.0658 115.352 63.1098 115.032C63.2828 114.852 62.2448 113.795 62.075 113.497C59.5152 109.038 63.9172 103.793 68.5273 106.43C71.6349 108.208 71.385 112.818 68.8733 115.032C71.6349 115.846 73.2111 118.002 73.7525 120.754C73.996 121.99 74.6432 124.909 72.6825 124.909H58.2754H58.2722ZM63.5936 107.903C60.3898 110.899 64.3497 116.557 68.0403 114.096C72.3141 111.248 67.595 104.162 63.5936 107.903ZM72.785 123.675C73.0605 120.129 71.6156 116.736 67.8961 115.91C62.1967 114.641 58.8201 118.389 58.9963 123.884L72.7882 123.679L72.785 123.675Z" fill="black"/>
<path d="M19.7878 44.8782H78.0313C78.0666 44.8782 78.5087 45.3107 78.5279 45.4196C78.592 45.6311 78.0826 46.1116 78.0313 46.1116H19.5828L19.2656 45.5958L19.7878 44.875V44.8782Z" fill="black"/>
<path d="M77.002 36.2363C78.2066 36.5631 76.7617 37.8446 75.775 37.4794L20.2162 37.4473L19.2935 36.9316C19.1493 36.7073 19.4345 36.2363 19.5787 36.2363H76.9988H77.002Z" fill="black"/>
<path d="M85.2374 27.5932C85.4648 27.5996 85.641 27.3113 85.9454 27.9264C85.9999 28.1379 85.5001 28.6217 85.4424 28.6217H19.5837C19.1961 28.6217 19.1961 27.5932 19.5837 27.5932H85.2342H85.2374Z" fill="black"/>
<path d="M46.5949 101.301C59.9704 99.4911 60.1946 117.592 47.5624 116.685C46.7519 116.628 45.5217 116.077 45.102 116.074C44.6278 116.074 42.8145 116.951 41.9591 117.041C38.1531 117.442 41.3184 114.02 41.2864 113.075C41.2768 112.786 40.5463 111.819 40.3733 111.322C38.8035 106.744 41.847 101.942 46.5949 101.301ZM41.501 115.856C41.8534 116.205 44.7367 114.696 45.102 114.696C45.3775 114.696 45.7203 115.061 46.031 115.135C55.2737 117.352 59.4386 106.417 51.66 103.127C46.2841 100.856 39.5531 104.492 41.4914 110.823C41.7188 111.566 42.6768 112.549 42.7056 112.694C42.7985 113.187 41.2127 115.561 41.5042 115.852L41.501 115.856Z" fill="black"/>
<path d="M211.086 37.7766C211.188 37.2159 211.727 37.1102 212.214 37.0557C217.103 36.5271 222.882 37.4594 227.867 37.0461C228.274 36.902 228.988 37.7318 228.988 37.9817V48.8871L228.681 49.1947H211.393L211.086 48.8871V37.7766ZM227.758 48.1663V38.0841C227.607 38.0297 227.511 38.2892 227.45 38.2892H212.118V48.1663H227.758Z" fill="black"/>
<path d="M38.8248 95.9L37.5146 95.8711L37.207 95.5636L37.2679 88.4801C39.6194 87.3428 39.9558 90.38 40.9874 91.7864L43.0282 88.4769C43.4671 88.1598 44.4314 88.131 44.7934 88.5955V95.9H43.1467V91.3731C42.224 92.1035 42.0862 93.7887 40.9841 94.2661C40.3338 94.2661 39.52 91.5205 38.8248 91.1681V95.9Z" fill="black"/>
<path d="M46.4414 88.2859L48.2516 88.3307L50.35 91.7843C50.6928 91.2076 51.8108 88.6254 52.2017 88.3883C52.5925 88.1513 53.3743 88.3467 53.8516 88.2891V95.9011L52.5445 95.869L52.2049 95.5935V91.89C52.2049 91.8356 52.394 91.6722 52.4164 91.4832L52.0031 91.3774C51.9294 91.8035 50.6639 94.1294 50.5197 94.2127C50.3275 94.3217 50.0809 94.264 49.8694 94.2672L48.0914 91.1724V95.9042H46.4446V88.2923L46.4414 88.2859Z" fill="black"/>
<path d="M65.3779 20.8025L64.8365 20.0272C62.4369 20.8826 60.0436 19.63 59.8194 16.9965C59.3164 11.0985 67.4122 11.3483 67.0245 16.7882C66.9637 17.6372 66.2717 18.4414 66.2332 18.8867C66.1788 19.521 67.7134 20.0272 65.3779 20.8025ZM65.1664 17.7206C65.5445 16.548 65.4932 14.6129 63.9938 14.2669C60.553 13.4724 60.5403 19.4025 63.933 18.7457L62.7412 17.2015C62.7572 17.0061 63.4492 16.532 63.6606 16.516C64.3014 16.4583 64.814 18.0986 65.1664 17.7206Z" fill="black"/>
<path d="M67.4311 93.017V88.2852H69.0779V95.8972L67.2677 95.8523L64.346 91.1653V95.8972H62.6992V88.5927C65.2045 87.0838 65.8196 91.8573 67.4343 93.017H67.4311Z" fill="black"/>
<path d="M208.824 12.7812L210.634 12.8261L213.555 17.5131V12.7812H215.202V20.1883C214.673 20.1178 213.796 20.3516 213.35 20.0857C212.604 19.6372 211.399 16.331 210.467 15.6646V20.1915H208.82V12.7845L208.824 12.7812Z" fill="black"/>
<path d="M166.633 20.1883V12.7812H170.234C170.506 12.7812 171.839 13.5246 172.095 13.8001C173.184 14.9598 173.357 17.276 172.569 18.6152C172.297 19.0733 170.907 20.1883 170.439 20.1883H166.633ZM168.276 18.7466C172.464 19.477 172.464 13.4925 168.276 14.2197V18.7466Z" fill="black"/>
<path d="M34.8445 89.1808C36.8628 91.071 35.9946 95.364 33.1177 95.8478C27.9181 96.7224 27.1972 88.7516 31.724 88.2871C32.8614 88.1717 33.9923 88.3831 34.8445 89.1808ZM31.7689 89.7703C29.9108 90.1868 29.8211 93.8487 31.8234 94.3645C34.9438 95.1686 35.2706 88.9822 31.7689 89.7703Z" fill="black"/>
<path d="M50.8647 12.7819C52.9183 13.1952 53.4501 16.3765 51.3805 17.2031L53.024 20.1857C50.8839 20.6279 50.8807 19.1734 49.9965 17.7733C49.7466 17.3761 49.1411 17.3953 49.1123 17.6356V20.1922H47.4688V12.7851C48.4747 12.9229 49.9292 12.5961 50.8647 12.7851V12.7819ZM50.9159 15.819C51.2331 15.5019 51.2876 14.701 50.8808 14.4094L49.1123 14.2236V16.0786C49.5961 16.0657 50.5667 16.1715 50.9159 15.8223V15.819Z" fill="black"/>
<path d="M57.1428 88.2852V93.7379C57.1428 94.667 59.8179 94.5997 59.8179 93.3278V88.2884L61.1282 88.3171L61.4358 88.6247C61.5287 91.4055 62.1886 96.429 57.8828 95.8844C57.1107 95.785 55.4961 94.6701 55.4961 93.9461V88.2884H57.1428V88.2852Z" fill="black"/>
<path d="M190.503 88.2852V93.5328C190.503 93.725 191.496 94.4459 191.842 94.4459C194.078 94.4459 192.832 89.9767 193.213 88.6215C193.348 88.1409 194.402 88.4998 194.828 88.2884V93.741C194.828 93.8019 194.325 94.6253 194.21 94.7695C192.986 96.3265 190.701 96.3265 189.478 94.7695C189.362 94.6253 188.859 93.8019 188.859 93.741V88.2884H190.506L190.503 88.2852Z" fill="black"/>
<path d="M27.5061 12.7812V18.029C27.5061 18.6345 28.983 18.942 29.6269 18.5543C29.675 18.5255 30.1812 17.8687 30.1812 17.8239V12.7845H31.8279V18.0322C31.8279 18.0931 31.3249 18.9068 31.2096 19.0606C30.2324 20.3645 28.5185 20.7682 27.1025 19.8743C26.7885 19.6757 25.8594 18.5063 25.8594 18.2372V12.7845H27.5061V12.7812Z" fill="black"/>
<path d="M69.6982 12.7806V18.0283C69.6982 18.3518 70.6145 18.794 71.0342 18.7684C71.4218 18.7459 72.3734 18.0346 72.3734 17.82V12.7806H74.02V17.82C74.02 17.9065 73.6004 18.7811 73.4979 18.9413C72.5944 20.3349 70.7106 20.7578 69.2978 19.8672C68.9838 19.6686 68.0547 18.4992 68.0547 18.2301V12.7773H69.7014L69.6982 12.7806Z" fill="black"/>
<path d="M201.002 88.2852V89.9318L198.01 89.7781C197.574 89.8549 197.536 91.2101 198.048 91.3414L200.8 91.3703V92.812H197.712L197.763 94.1575L198.023 94.4587H201.214L201.008 95.9004H196.273V88.2884H201.008L201.002 88.2852Z" fill="black"/>
<path d="M80.194 12.7812V14.2197H76.9006V15.6614H79.7807V17.0998H76.9006V18.7466H80.194V20.1883H75.2539V12.7812H80.194Z" fill="black"/>
<path d="M58.9949 12.7812V14.2197H55.7014V15.6614H58.5848V17.0998H55.7014V18.7466H58.9949V20.1883H54.0547V12.7812H58.9949Z" fill="black"/>
<path d="M221.373 12.7812V14.2197H218.39L218.14 14.5241L218.082 15.6614H221.168V17.0998H218.082V18.7466H221.373V20.1883H216.641V12.7812H221.373Z" fill="black"/>
<path d="M86.1632 14.4266C85.6538 14.3337 85.106 14.9296 84.6607 14.8142C84.4973 14.7726 82.9627 13.1162 82.6936 14.5611C82.4245 16.006 86.6309 15.5158 86.3266 18.1813C86.0222 20.8468 82.2515 20.8788 80.9027 18.9598C80.5952 18.3703 81.7581 18.0788 82.1618 17.9186L82.4181 17.9603C82.6263 18.8253 84.2827 19.1841 84.5261 18.2294C84.6255 17.0055 81.8126 17.1722 81.1687 15.6087C79.9128 12.5556 85.3591 11.3126 86.1568 14.4234L86.1632 14.4266Z" fill="black"/>
<path d="M198.323 12.7812V14.2229H195.029V15.6646H198.118V17.1063H195.029V18.753H198.323V20.1947H193.383C193.328 20.0441 193.588 19.948 193.588 19.8871V12.7877H198.323V12.7812Z" fill="black"/>
<path d="M181.448 89.9315L179.917 90.5658C179.305 88.7365 176.985 90.0981 178.584 91.0496C179.743 91.7416 181.672 91.4757 181.672 93.5356C181.672 96.4222 176.924 96.7458 176.098 94.0515L177.437 93.4844C177.898 94.4904 180.237 94.8556 179.968 93.5613C179.763 92.5778 176.408 92.834 176.312 90.4281C176.207 87.7433 180.73 87.4934 181.445 89.9283L181.448 89.9315Z" fill="black"/>
<path d="M161.142 14.6971C159.219 16.7988 162.42 20.9444 164.262 17.5164L165.803 18.4391C164.483 19.9961 163.221 20.8964 161.135 20.0217C157.089 18.327 159.207 10.9616 163.951 12.8839C165.214 13.3965 166.437 14.71 164.429 15.2258L164.16 15.1617C163.762 14.0052 161.879 13.8898 161.138 14.6971H161.142Z" fill="black"/>
<path d="M182.504 94.0731L183.805 93.4196C184.083 94.8548 186.707 94.6049 186.086 93.4291C185.522 92.3623 182.363 92.8493 182.677 90.0332C182.85 88.4698 184.522 88.0821 185.861 88.3C186.371 88.3833 187.883 89.4854 187.527 89.9403C186.105 91.1962 185.784 89.6007 185.054 89.5943C184.622 89.5911 184.272 90.014 184.317 90.4433C184.439 91.6383 187.992 91.0424 187.838 93.7303C187.675 96.6041 182.984 96.6136 182.504 94.0699V94.0731Z" fill="black"/>
<path d="M227.271 19.499C226.284 20.5274 224.66 20.4793 223.49 19.8194C222.206 19.0921 222.014 18.4546 223.574 17.9581C224.009 17.9196 224.205 18.6629 224.782 18.7526C225.602 18.8807 226.675 18.4899 225.903 17.6152C225.198 16.8175 222.875 17.0866 222.619 15.1324C222.228 12.1593 226.457 11.855 227.751 14.12C226.422 15.3086 226.178 14.5269 224.99 14.0079C222.581 15.5296 227.12 15.7251 227.652 16.9008C227.966 17.6024 227.822 18.9287 227.274 19.5022L227.271 19.499Z" fill="black"/>
<path d="M146.827 12.6254C148.362 12.4588 149.576 13.2597 150.367 14.5316L148.849 15.2268C147.727 13.4167 145.328 14.0446 145.212 16.1751C145.078 18.6868 147.173 19.6767 148.858 17.7545L150.168 18.4466C148.826 20.9807 145.113 20.939 143.956 18.2735C142.915 15.8708 144.043 12.9297 146.83 12.6254H146.827Z" fill="black"/>
<path d="M207.174 89.9302C206.735 89.9302 206.22 90.3531 205.826 90.3338C205.653 90.3242 203.673 88.6872 203.714 90.273C203.75 91.6922 207.524 90.7952 207.181 93.9476C206.889 96.6131 202.535 96.4594 201.824 94.0502L203.163 93.4831C203.433 93.5055 203.942 94.5435 204.797 94.4634C207.171 92.8872 203.244 92.8103 202.433 91.6858C200.264 88.6711 206.114 86.6111 207.171 89.9302H207.174Z" fill="black"/>
<path d="M28.1216 90.3406C26.1834 91.5164 26.2314 89.4308 24.5335 89.7351C21.1439 90.3406 23.9856 97.251 26.5966 93.2143L28.0255 93.839C26.0552 97.8693 20.6922 95.6139 21.381 91.3178C21.9352 87.8642 26.8465 86.9703 28.1216 90.3406Z" fill="black"/>
<path d="M95.3707 12.6196C96.7515 12.4209 97.6582 13.1258 98.5039 14.1189C98.5039 14.3016 97.3602 14.7949 97.1295 14.7981C96.8316 14.8013 95.3932 13.1258 95.0312 14.5674C94.698 15.9002 98.1996 15.5189 98.4975 17.4219C98.8724 19.8439 96.3863 20.93 94.3808 19.892C93.0833 19.2193 92.6475 18.4664 94.3295 17.957C94.7171 17.9218 95.9698 19.7383 96.8412 18.1973C97.0719 17.2938 94.6115 16.935 93.9932 16.3712C92.6252 15.1185 93.5766 12.8791 95.3739 12.6196H95.3707Z" fill="black"/>
<path d="M190.4 12.7809C190.932 12.8738 191.864 13.6683 192.101 14.1649C193.133 16.3338 190.698 18.0285 188.651 17.5127V20.1911H187.004V12.7841C188.036 12.909 189.426 12.6111 190.4 12.7841V12.7809ZM188.654 16.2762L190.422 15.8853C191.399 14.4308 189.913 14.0623 188.651 14.2193V16.2762H188.654Z" fill="black"/>
<path d="M180.32 12.7824C182.735 13.1828 183.072 16.6172 180.778 17.3573C179.993 17.6104 179.333 17.3477 178.66 17.7161L178.776 20.1926H177.129V12.7856C178.109 12.8977 179.384 12.6318 180.32 12.7856V12.7824ZM178.571 16.0726C181.448 16.5435 181.454 13.7595 178.571 14.224C178.878 14.8327 178.878 15.4607 178.571 16.0726Z" fill="black"/>
<path d="M22.6681 12.7816C24.5327 13.1148 25.3241 15.5753 23.908 16.9016C23.0975 17.6577 21.9377 17.5327 20.9189 17.5135V20.1918H19.4805V12.7848C20.4512 12.9033 21.7519 12.6214 22.6714 12.7848L22.6681 12.7816ZM20.9189 16.0718C22.1716 16.2128 23.5012 16.0526 22.7899 14.5085L20.9189 14.2201V16.075V16.0718Z" fill="black"/>
<path d="M185.464 111.123H204.603L204.91 111.437L204.5 112.257C204.337 112.318 204.234 112.152 204.193 112.152H185.464C185.15 112.152 184.987 111.306 185.464 111.123Z" fill="black"/>
<path d="M81.839 92.9175C81.7268 92.3792 79.1478 88.4867 79.3689 88.2881C81.5122 87.7499 81.6339 89.7746 82.5566 91.1682C82.8193 91.1682 83.6907 88.759 83.995 88.4899C84.3314 88.1888 85.9526 88.0766 85.7443 88.5924C85.3823 89.2332 83.2774 92.5074 83.2774 92.9175V95.9001H81.8357C81.714 95.0159 82.0055 93.7376 81.8357 92.9175H81.839Z" fill="black"/>
<path d="M92.5408 12.7812L92.544 14.2229L90.484 14.2197V20.1883H88.8373V14.2197L86.7773 14.2229L86.7806 12.7812H92.5408Z" fill="black"/>
<path d="M75.2515 90.0362C75.0945 89.5268 73.6624 89.78 73.1914 89.7287V88.287C74.3223 88.3287 75.4661 88.239 76.597 88.2774C77.3723 88.3062 78.0419 88.6939 78.7467 88.287V89.7287C78.6057 89.8761 76.9686 89.4371 76.6899 90.0362V95.899H75.2482V90.0362H75.2515Z" fill="black"/>
<path d="M40.4749 12.7812V18.7466H43.355V20.1883H38.8281V12.7812H40.4749Z" fill="black"/>
<path d="M199.767 13.0888C199.757 13.0311 199.456 12.8581 199.562 12.7812H201.413L201.208 18.7466H204.297V20.1883H199.562C199.507 20.0377 199.767 19.9416 199.767 19.8807C199.767 17.8912 200.02 14.9373 199.767 13.092V13.0888Z" fill="black"/>
<path d="M33.2695 12.7812H34.9162C35.0187 12.8581 34.7112 13.0471 34.7112 13.0888V18.7466H37.7995V20.1883H33.2727V12.7812H33.2695Z" fill="black"/>
<path d="M97.0494 49.7966C96.4279 50.2516 95.092 48.8035 94.7012 48.3774C94.1565 48.7779 93.3139 50.258 92.5322 49.7165C91.6416 49.1014 93.8522 48.0058 93.7593 47.4739C91.081 45.1545 92.654 44.1421 94.7012 46.7211C95.0568 46.7211 96.4119 44.2702 97.184 45.0648L97.4468 45.5581L95.8449 47.4739C95.7584 47.9609 97.9497 49.1335 97.0463 49.7934L97.0494 49.7966Z" fill="black"/>
<path d="M174.862 88.2852H173.215V95.8972H174.862V88.2852Z" fill="black"/>
<path d="M72.1662 88.2852H70.5195V95.8972H72.1662V88.2852Z" fill="black"/>
<path d="M158.397 12.3703L155.825 20.3956C155.44 20.8698 154.771 20.3668 154.277 20.3924L156.956 12.1621L158.397 12.3703Z" fill="black"/>
<path d="M153.049 12.7812H151.402V20.1883H153.049V12.7812Z" fill="black"/>
<path d="M207.178 12.7812H205.531V20.1883H207.178V12.7812Z" fill="black"/>
<path d="M185.154 12.7812V19.8807C185.154 19.9256 185.462 20.1146 185.36 20.1883H183.508C183.847 17.8592 183.851 15.1232 183.508 12.7845H185.154V12.7812Z" fill="black"/>
<path d="M93.961 30.4568L97.2608 26.8526C97.6805 26.7853 98.0649 27.4196 97.7958 27.7913C96.9949 28.4064 94.5761 31.6934 93.8361 31.8888C93.442 31.9914 91.2538 30.1332 91.1321 29.7103C91.052 29.4348 91.0424 29.1016 91.2987 28.9222C92.0612 28.4 93.0608 30.649 93.9578 30.4536L93.961 30.4568Z" fill="black"/>
<path d="M97.6835 36.0345C97.7733 36.1017 97.8373 36.547 97.7091 36.7489C97.4656 37.1301 94.3261 40.1288 94.0762 40.1545C93.2816 40.2314 91.9809 38.0944 91.0903 37.7933L90.9141 36.8707C91.5516 35.9768 93.3233 38.5429 93.8807 38.905C94.0761 38.905 96.2803 36.5086 96.7512 36.2235C96.9819 36.0857 97.4913 35.8903 97.6835 36.0312V36.0345Z" fill="black"/>
<path d="M97.0021 54.5735C97.3609 54.5959 97.7934 54.974 97.5916 55.3648C97.4794 55.5859 94.2757 58.7671 94.0354 58.8344C93.667 58.9369 93.5389 58.844 93.2473 58.6678C92.8212 58.4115 90.6459 56.3195 91.2962 55.871C92.1292 55.3007 93.2537 57.2005 93.8752 57.6234L97.0021 54.5703V54.5735Z" fill="black"/>
<path d="M134.626 168.115C131.099 164.741 126.149 162.915 121.251 163.178C118.108 163.348 114.353 164.77 111.255 164.113C110.339 163.921 109.49 163.069 108.589 162.665C105.027 161.066 100.561 160.15 96.8062 158.603C95.5247 158.074 94.2496 157.497 93.045 156.809C94.1695 150.686 96.3481 144.788 97.5847 138.695C98.4721 134.325 98.9078 129.862 97.5847 125.521C97.3957 124.906 96.3353 122.023 95.733 122.02C94.4867 122.519 96.0598 124.653 96.3929 125.685C99.4461 135.209 93.5128 146.752 91.9174 156.174C89.9567 155.668 88.1017 154.717 86.0546 154.534C84.9653 154.438 80.9927 154.162 82.3831 155.989C82.7964 155.998 83.184 155.787 83.5908 155.767C88.9795 155.511 93.3494 158.574 98.251 160.448C101.365 161.64 104.566 162.662 107.769 163.588C104.338 166.208 100.942 169.854 103.037 174.487C99.571 174.102 96.1494 173.295 92.7439 172.536C88.2459 171.536 83.1039 170.437 78.7533 169.034C76.8214 168.413 74.7967 167.868 73.9156 165.846C72.0735 161.624 74.1495 152.125 75.1491 147.534C77.0617 138.746 81.8897 120.177 88.7424 114.42C93.9901 110.009 102.121 108.032 108.288 105.152C108.83 105.072 108.551 106.357 108.644 106.853C109.999 113.988 127.568 119.367 130.727 108.862C131.06 107.753 130.551 106.812 132.162 106.683C136.362 108.365 141.584 109.435 145.121 112.36C150.683 116.961 153.954 129.18 156.866 136.007C157.891 138.413 158.955 140.838 160.249 143.113C160.24 143.433 156.754 144.606 156.748 145.58C156.738 146.935 158.993 145.179 159.426 144.958C160.893 144.212 162.447 143.609 163.892 142.837C167.602 140.854 171.081 138.448 174.765 136.427C176.149 140.31 178.402 143.475 182.275 145.173C182.307 145.311 181.234 147.162 180.743 146.928L150.728 146.96C148.825 147.39 148.293 152.106 147.902 153.81C147.829 154.127 148.04 154.169 147.495 154.118C147.005 151.747 145.368 149.869 144.237 147.8C145.057 141.751 145.272 135.597 145.221 129.539C145.211 128.562 145.423 124.656 145.025 124.179C143.491 122.33 144.205 127.946 144.208 128.286C144.314 134.613 143.744 141.328 143.167 147.633C142.546 154.454 141.428 161.236 141.315 168.105H134.626V168.115Z" fill="#F9D483"/>
<path d="M141.934 181.9L150.17 149.091L150.994 148.063L199.053 147.947L200.494 148.357L190.995 181.471L141.934 181.903V181.9Z" fill="white"/>
<path d="M54.4454 151.47L60.6382 183.542L21.2197 181.287L15.3633 151.447L54.4454 151.47ZM40.0607 164.204H46.3368C46.4874 164.204 47.1506 163.685 47.2243 163.445C47.4742 162.625 46.6315 157.038 46.1286 156.387C46.0036 156.224 45.8883 156.077 45.6801 156.013C44.7125 155.724 41.8196 156.022 40.5669 155.984C36.1554 155.84 30.5682 155.356 26.1599 155.759C25.1122 155.856 24.59 156.16 24.6189 157.3C24.6445 158.313 25.2083 161.843 25.4999 162.814C26.1791 165.063 31.337 163.862 33.1663 164.201C33.4002 164.246 33.586 164.269 33.6501 164.541L34.2973 169.138C34.0538 169.385 30.6226 169.273 29.8569 169.744C28.7804 170.404 29.7511 171.72 29.5301 172.489C29.4148 172.886 28.7292 173.159 28.5786 173.812C28.1429 175.696 29.4981 176.907 31.3242 176.766C33.1503 176.625 33.8648 174.383 32.532 173.066C31.7215 172.265 30.4881 172.794 30.8052 171C31.8593 170.686 34.749 170.929 35.4218 170.163C36.2035 169.276 34.9316 165.486 34.9156 164.204H38.6191C39.2566 166.143 39.4713 173.06 40.4997 174.36C41.5281 175.661 45.6672 174.303 47.2499 174.709C47.9098 176.388 46.843 176.141 46.5386 176.75C45.2251 179.38 50.1172 180.294 50.0755 177.51C50.0563 176.138 49.0728 176.196 48.8069 175.722C48.4961 175.164 48.8485 173.998 47.9963 173.447C47.4709 173.108 44.8887 173.229 44.0622 173.245C43.3029 173.261 41.9926 173.825 41.5152 173.136L40.0607 164.201V164.204Z" fill="white"/>
<path d="M195.213 118.757C195.537 119.356 195.194 119.782 194.723 120.18C193.541 121.179 191.34 122.32 189.905 123.387C188.982 124.072 185.336 126.802 185.054 127.59C184.894 128.035 184.859 128.625 185.461 128.618C186.192 128.612 188.7 124.566 189.645 126.824C189.005 128.647 187.127 129.868 186.413 131.62C185.881 132.924 186.041 134.395 185.461 135.609C184.917 136.749 183.398 137.031 184.122 138.486C185.404 138.226 186.599 136.407 186.941 135.237C187.284 134.068 187.14 132.915 187.64 131.819C188.165 130.666 189.504 129.573 190.257 128.468C190.456 128.176 190.667 127.407 190.715 127.372C190.811 127.305 191.266 127.648 191.721 127.478C192.599 127.154 194.646 125.427 195.662 124.816C197.164 123.912 198.737 123.134 200.246 122.243C201.384 122.993 200.58 124.133 199.763 124.803C198.67 125.7 192.336 128.57 192.343 129.736L192.974 130.371L200.32 125.962L201.102 126.35C201.451 127.065 200.32 127.971 199.852 128.397C198.228 129.877 195.934 130.81 194.297 132.306C192.66 133.802 191.718 135.884 190.283 137.55C188.194 139.976 185.272 141.632 182.866 143.73C182.184 143.987 180.175 142.599 179.586 142.084C178.625 141.244 175.527 136.682 175.978 135.606C176.087 135.343 177.795 133.741 178.231 133.113C178.999 131.998 179.493 130.694 180.242 129.57C182.334 126.443 186.599 122.547 189.873 120.68C190.747 120.183 194.422 118.277 195.207 118.751L195.213 118.757Z" fill="#FCF7ED"/>
<path d="M135.201 173.605C133.423 170.888 130.607 168.408 127.602 167.114C126.817 166.774 124.658 165.768 124.01 166.553C123.168 167.582 125.18 167.575 125.872 167.815C128.262 168.645 130.93 170.298 132.571 172.227C133.298 173.079 135.114 175.072 133.138 175.485C131.952 175.732 130.507 173.512 129.585 172.743C128.031 171.448 123.402 168.962 121.441 168.93C120.835 168.921 119.948 169.369 120.413 169.981C120.55 170.164 124.01 171.045 124.782 171.375C125.878 171.846 127.265 172.576 128.21 173.297C128.832 173.771 131.52 175.998 129.678 176.347C128.108 176.642 123.222 173.358 120.816 173.079C117.488 172.695 114.973 175.001 111.577 174.7C110.017 174.562 108.953 173.643 107.617 173.31C106.794 173.105 103.526 173.07 103.465 171.942C103.372 170.234 104.929 167.739 106.114 166.569C106.403 166.284 108.319 164.791 108.584 164.708C109.363 164.468 110.414 165.307 111.394 165.425C115.428 165.906 119.519 164.154 123.52 164.413C127.816 164.692 132.667 167.367 135.342 170.702C136.146 171.705 137.773 174.357 135.198 173.617L135.201 173.605Z" fill="#FCF7ED"/>
<path d="M108.905 102.96C108.959 102.361 109.168 101.752 109.363 101.14L109.623 100.016C100.476 100.102 91.2973 100.929 82.25 102.277C83.461 104.068 84.499 106.369 84.7201 108.55C84.986 111.177 84.5214 114.211 84.7201 116.883C90.6629 109.511 100.55 107.448 108.793 103.607L108.899 103.155C108.899 103.091 108.898 103.024 108.908 102.957L108.905 102.96Z" fill="white"/>
<path d="M142.962 172.64L140.582 181.908C139.794 181.918 139.028 181.735 138.272 181.543C134.889 180.691 130.474 179.073 127.123 177.878C126.466 177.644 122.587 176.337 122.59 175.828C122.76 175.674 122.91 175.405 123.144 175.341C123.929 175.132 128.132 178.051 130.083 177.772C131.163 177.619 131.157 176.789 131.467 176.564C131.602 176.468 133.332 177.237 134.629 176.138C134.94 175.876 135.164 175.318 135.347 175.209C135.699 175.004 136.298 175.158 136.866 174.873C137.58 174.511 137.926 173.611 137.817 172.842L142.962 172.637V172.64Z" fill="white"/>
<path d="M76.0742 177.372L61.8754 182.722L60.8438 176.754L76.0742 177.372Z" fill="white"/>
<path d="M190.71 126.556C190.729 125.825 190.473 125.553 189.887 125.217L189.983 124.906C192.373 123.218 195.589 120.607 198.524 120.059C199.578 119.86 199.594 120.78 199.049 121.42L190.71 126.556Z" fill="#FCF7ED"/>
<path d="M176.716 30.6797V36.1292L176.408 36.44H161.488V30.6797H176.716Z" fill="white"/>
<path d="M176.716 53.106H161.488V47.5508H176.408L176.716 47.8583V53.106Z" fill="white"/>
<path d="M244.63 183.546C244.684 183.818 244.255 183.87 244.066 183.902C242.192 184.248 240.042 184.469 238.117 184.747C232.132 185.612 226.083 186.455 220.08 186.993C217.382 185.388 214.88 183.418 212.34 181.566C209.764 179.689 205.977 177.225 203.728 175.168C203.593 175.047 203.331 175.175 203.469 174.697C210.895 174.358 218.308 172.891 225.75 172.686L244.627 183.546H244.63ZM224.421 175.377C221.092 175.534 216.806 176.081 213.48 176.575C211.353 176.892 211.215 177.869 213.451 177.779C216.607 177.654 221.371 177.027 224.543 176.524C225.02 176.447 226.135 176.347 225.904 175.623C225.744 175.12 224.789 175.357 224.424 175.373L224.421 175.377ZM230.831 179.006L230.751 178.183L229.925 177.985L215.96 179.676C215.268 179.894 215.623 180.788 216.325 180.679L230.831 179.01V179.006ZM220.381 183.719L235.49 181.915C235.73 181.582 235.615 180.871 235.115 180.913C233.34 181.457 220.73 182.284 220.227 182.921L220.381 183.722V183.719Z" fill="white"/>
<path d="M179.598 121.001C179.22 121.097 178.871 121.187 178.477 121.215C173.05 121.642 167.068 120.866 161.58 121.215C161.318 121.296 160.664 120.857 160.664 120.69V104.024L160.972 103.717H179.287L179.595 104.024V120.998L179.598 121.001ZM176.032 109.624C176.619 108.92 176.048 107.991 175.276 108.34L168.789 115.029L165.454 111.97L164.864 112.136L164.592 112.831C164.656 113.078 167.888 116.323 168.161 116.484C168.456 116.66 168.584 116.753 168.949 116.65C169.554 116.48 174.511 110.989 175.369 110.086C175.568 109.877 175.907 109.769 176.029 109.624H176.032Z" fill="white"/>
<path d="M210.983 103.716H227.446L227.754 104.024V120.894L227.446 121.202H211.188C211.152 121.202 210.672 120.725 210.672 120.686V104.02L210.979 103.713L210.983 103.716ZM215.756 108.265L215.221 108.797C215.058 109.435 217.903 111.632 218.277 112.459L215.292 115.653C215.871 118.668 218.063 113.958 219.389 113.606C219.828 113.683 221.789 116.287 222.404 116.573C222.686 116.704 222.952 116.758 223.237 116.589C224.429 115.73 220.78 113.167 220.347 112.459C220.834 111.764 223.378 109.781 223.442 109.156C223.48 108.765 223.157 108.233 222.747 108.272C222.003 108.339 220.197 110.806 219.421 111.277C218.473 111.059 216.512 108.07 215.753 108.262L215.756 108.265Z" fill="white"/>
<path d="M34.9137 123.056H19.2701C18.7991 116.915 23.6271 113.599 29.4002 114.883C33.4208 115.777 35.0707 119.164 34.9105 123.056H34.9137Z" fill="white"/>
<path d="M26.0065 105.82C31.8308 104.621 32.2505 113.922 26.5768 113.384C23.9914 113.14 22.6138 109.895 23.7576 107.684C24.0939 107.037 25.2889 105.967 26.0065 105.82Z" fill="white"/>
<path d="M54.8762 137.046H40.059C39.8091 134.547 40.6293 131.849 42.7469 130.373C44.8646 128.896 49.4587 128.931 51.6501 130.087C54.2547 131.462 54.6423 134.4 54.8762 137.046Z" fill="white"/>
<path d="M47.0092 120.847C52.2216 120.158 52.5805 128.93 46.9708 128.184C42.9053 127.642 43.0398 121.373 47.0092 120.847Z" fill="white"/>
<path d="M72.7868 123.675L58.9948 123.88C58.8186 118.386 62.1985 114.637 67.8947 115.906C71.6142 116.736 73.0623 120.125 72.7836 123.672L72.7868 123.675Z" fill="white"/>
<path d="M63.5948 107.903C67.5962 104.164 72.3153 111.248 68.0416 114.096C64.3509 116.556 60.3911 110.898 63.5948 107.903Z" fill="white"/>
<path d="M41.5018 115.853C41.2103 115.562 42.7993 113.188 42.7032 112.695C42.6776 112.554 41.7165 111.567 41.489 110.824C39.5508 104.493 46.2818 100.854 51.6576 103.128C59.4362 106.415 55.2746 117.353 46.0287 115.136C45.7179 115.062 45.3783 114.697 45.0996 114.697C44.7344 114.697 41.851 116.206 41.4986 115.857L41.5018 115.853ZM47.7043 110.683C48.9954 111.336 48.6621 110.491 49.1107 109.984C49.4663 109.581 50.0333 109.417 50.4402 108.844C51.8114 106.909 50.8182 104.878 48.3962 104.932C46.1056 104.983 45.5641 107.457 47.1724 107.421C47.7138 107.409 47.6017 106.784 47.8836 106.495C48.6237 105.749 49.854 106.409 49.697 107.466C49.4855 108.898 47.2269 108.85 47.7011 110.68L47.7043 110.683ZM48.0118 111.557C47.1692 111.839 47.7587 113.915 48.9248 113.089C49.399 112.752 49.2933 111.128 48.0118 111.557Z" fill="white"/>
<path d="M227.758 48.1658H212.117V38.2888H227.45C227.514 38.2888 227.607 38.0292 227.758 38.0837V48.1658Z" fill="white"/>
<path d="M40.0602 164.205L41.5147 173.14C41.9953 173.829 43.3024 173.265 44.0616 173.249C44.8882 173.233 47.4704 173.108 47.9958 173.45C48.848 174.002 48.4956 175.171 48.8064 175.725C49.0723 176.199 50.0526 176.142 50.075 177.513C50.1167 180.297 45.2246 179.384 46.5381 176.754C46.8425 176.145 47.9093 176.388 47.2493 174.713C45.6635 174.306 41.5083 175.639 40.4991 174.364C39.49 173.088 39.2561 166.146 38.6185 164.208H34.915C34.9342 165.489 36.2029 169.279 35.4212 170.167C34.7485 170.932 31.8587 170.686 30.8047 171.003C30.4907 172.8 31.7241 172.268 32.5315 173.069C33.8642 174.389 33.1049 176.632 31.3237 176.77C29.5424 176.907 28.1456 175.7 28.5781 173.816C28.7286 173.162 29.4142 172.89 29.5296 172.493C29.7506 171.724 28.7799 170.407 29.8563 169.747C30.622 169.276 34.05 169.388 34.2967 169.141L33.6496 164.544C33.5855 164.272 33.3997 164.249 33.1658 164.205C31.3333 163.865 26.1785 165.066 25.4993 162.817C25.2078 161.847 24.6407 158.316 24.6183 157.304C24.5895 156.163 25.1117 155.859 26.1593 155.763C30.5676 155.362 36.1549 155.846 40.5664 155.987C41.8191 156.029 44.712 155.728 45.6795 156.016C45.8878 156.077 46.0031 156.224 46.128 156.391C46.6278 157.041 47.4704 162.628 47.2237 163.448C47.1501 163.686 46.4901 164.208 46.3363 164.208H40.0602V164.205ZM45.2054 157.208H25.8581C26.3899 158.707 26.1946 161.01 26.72 162.414C26.7808 162.574 26.8289 162.696 27.0147 162.734C33.3677 162.705 39.695 162.827 46.0256 162.968L45.2022 157.208H45.2054Z" fill="black"/>
<path d="M220.38 183.719L220.227 182.918C220.73 182.281 233.339 181.458 235.114 180.91C235.617 180.871 235.729 181.583 235.489 181.913L220.38 183.716V183.719Z" fill="black"/>
<path d="M230.833 179.008L216.326 180.677C215.628 180.786 215.272 179.895 215.961 179.674L229.926 177.982L230.753 178.181L230.833 179.004V179.008Z" fill="black"/>
<path d="M224.419 175.376C224.785 175.36 225.739 175.123 225.9 175.626C226.13 176.35 225.015 176.45 224.538 176.527C221.366 177.029 216.602 177.657 213.447 177.782C211.21 177.872 211.348 176.892 213.476 176.578C216.801 176.081 221.088 175.537 224.416 175.38L224.419 175.376Z" fill="black"/>
<path d="M176.031 109.624C175.909 109.768 175.57 109.877 175.371 110.086C174.512 110.992 169.556 116.48 168.951 116.65C168.582 116.753 168.454 116.66 168.163 116.483C167.89 116.32 164.658 113.078 164.594 112.831L164.866 112.136L165.456 111.969L168.791 115.029L175.278 108.34C176.047 107.99 176.62 108.919 176.034 109.624H176.031Z" fill="black"/>
<path d="M215.753 108.265C216.509 108.073 218.473 111.062 219.422 111.279C220.197 110.809 222.004 108.342 222.747 108.274C223.157 108.236 223.481 108.768 223.442 109.159C223.381 109.783 220.835 111.766 220.348 112.462C220.78 113.17 224.432 115.733 223.237 116.591C222.952 116.764 222.686 116.707 222.404 116.575C221.789 116.29 219.829 113.685 219.39 113.609C218.063 113.961 215.872 118.674 215.292 115.656L218.278 112.462C217.903 111.635 215.058 109.437 215.222 108.8L215.757 108.268L215.753 108.265Z" fill="black"/>
<path d="M47.7032 110.684C47.2258 108.855 49.4877 108.903 49.6991 107.471C49.8529 106.414 48.6226 105.754 47.8857 106.5C47.6006 106.788 47.716 107.413 47.1745 107.426C45.5663 107.461 46.1077 104.988 48.3984 104.937C50.8172 104.882 51.8103 106.913 50.4423 108.848C50.0354 109.422 49.4684 109.585 49.1128 109.989C48.6643 110.495 48.9975 111.341 47.7064 110.687L47.7032 110.684Z" fill="black"/>
<path d="M48.0104 111.558C49.2919 111.129 49.3975 112.753 48.9234 113.089C47.7572 113.916 47.1678 111.84 48.0104 111.558Z" fill="black"/>
<path d="M45.2034 157.209L46.0267 162.969C39.6962 162.831 33.3689 162.707 27.0159 162.735C26.8269 162.697 26.7789 162.575 26.7212 162.415C26.1926 161.009 26.3912 158.708 25.8594 157.209H45.2066H45.2034Z" fill="white"/>
<path d="M137.844 78.2844C136.652 77.9544 132.788 77.8551 132.01 78.8162C131.564 79.3673 131.029 81.2254 132.071 81.3599C132.641 81.4336 134.55 80.7993 135.422 80.7672C136.431 80.7288 137.174 80.9627 138.119 81.2254C138.186 82.8113 137.876 84.3842 137.981 85.9733C138.081 87.4245 138.619 88.9239 138.718 90.3592C138.894 92.935 138.106 95.2833 137.549 97.7469L136.995 96.1803C136.376 94.7771 133.765 93.6366 132.301 93.5917C131.157 93.5565 130.465 93.6173 129.267 93.518C127.697 93.3899 125.493 94.0883 124.013 94.6714C122.181 95.389 120.819 96.3725 120.21 98.3364L119.951 98.4614C116.408 97.4875 113.63 95.4275 112.275 91.9354C111.413 89.7184 111.423 87.21 110.115 85.166C109.737 85.1115 109.994 85.3198 110.026 85.5472C110.276 87.3894 110.996 90.34 110.779 92.1212C110.522 94.2165 108.651 93.989 107.219 93.1848C104.323 91.5605 102.029 87.101 103.82 83.9902C104.967 81.9911 107.745 82.3499 109.161 83.9261C109.324 84.1087 109.667 84.9449 109.894 84.7271C110.686 81.9078 112.72 79.6588 114.947 77.8487L114.588 71.7072C120.326 70.2495 126.573 69.3493 132.484 70.2559C133.785 70.4545 135.056 70.4897 135.678 71.7456C136.649 73.7063 137.184 76.1987 137.844 78.2844ZM126.724 78.5791C126.387 78.5567 126.208 78.3004 125.855 78.2043C124.311 77.7846 119.006 77.775 117.727 78.7265C117.298 79.0469 115.004 81.9206 115.312 82.2378C116.078 82.1128 116.731 81.6483 117.474 81.4016C119.16 80.841 120.499 80.7416 122.267 80.7672C123.578 80.7865 127.364 81.6803 127.448 79.662C127.467 79.1782 127.031 78.2267 126.579 77.9928L126.724 78.5759V78.5791ZM126.14 90.1445C125.077 90.4072 125.045 91.6951 125.769 92.3423C126.531 93.0247 127.784 92.6658 128.687 92.7908C129.44 92.8933 129.962 93.4027 130.872 93.3514C132.923 93.2393 136.149 91.929 134.778 89.334C133.964 87.793 132.08 87.7321 131.443 86.0854C130.962 84.8488 130.882 83.5032 131.26 82.241C129.921 83.5865 130.212 85.8163 131.33 87.2196C132.042 88.1134 133.269 88.3921 133.871 89.3628C135.14 91.41 133 92.3679 131.298 92.5922C129.975 92.7684 129.799 92.2462 128.812 92.0796C127.416 91.8425 125.019 92.6722 126.14 90.1445ZM109.311 89.1161C109.388 86.912 107.306 83.6346 104.849 85.1628L104.778 85.749C105.012 85.7843 104.871 85.5088 105.098 85.4063C105.736 85.1211 106.928 85.4736 107.347 86.047C106.985 87.2965 106.713 88.6933 107.239 89.9491C107.347 90.2086 107.671 90.8974 108.001 90.6507C107.54 89.4782 107.588 88.1038 108.001 86.9216L109.315 89.1161H109.311ZM108.18 92.7427C108.568 93.1272 109.58 93.0375 109.622 92.2654C109.712 90.6283 107.126 91.6983 108.18 92.7427Z" fill="#FCF7ED"/>
<path d="M129.36 109.024C129.796 111.379 129.473 112.705 127.217 113.685C121.867 116.018 111.929 111.597 109.017 106.756C108.149 105.314 109.039 105.301 109.392 103.905C109.949 101.684 109.824 98.2852 109.869 95.9241C109.879 95.482 109.622 94.8445 109.747 94.3383L110.555 93.9442C111.644 99.6468 115.844 103.946 120.723 106.756C122.011 107.496 125.548 109.021 126.945 109.021H129.36V109.024Z" fill="#FCF7ED"/>
<path d="M136.235 97.3154C136.821 99.18 135.325 103.998 132.83 103.431C132.192 103.287 131.99 102.525 132.166 101.954C132.327 101.435 134.999 100.737 134.48 99.2184C134.226 99.2152 134.313 99.5772 134.146 99.763C132.689 101.387 126.89 100.987 125.118 99.6574C124.945 99.84 125.66 100.417 125.801 100.513C126.787 101.195 128.143 101.458 129.184 102.028C129.376 104.264 126.047 103.934 124.638 103.431C122.773 102.762 121.396 100.791 121.815 98.7731C122.235 96.758 123.119 97.7768 124.458 97.9017C125.91 98.0331 127.649 97.8825 129.145 97.8985C130.936 97.9145 132.891 98.126 134.688 97.8921C135.248 97.8184 135.713 97.482 136.235 97.3186V97.3154Z" fill="#FCF7ED"/>
<path d="M135.944 97.0199C134.979 97.3083 133.945 97.1128 132.945 97.1705C131.388 97.2602 130.962 97.257 129.437 97.1641C127.252 97.0295 124.952 97.6382 122.773 97.1673C123.084 96.5938 123.597 96.3792 124.16 96.1421C126.573 95.1297 129.498 95.2963 132.058 95.2611C133.595 95.2387 135.457 95.2707 135.94 97.0231L135.944 97.0199Z" fill="#FCF7ED"/>
<path d="M126.724 78.58L126.579 77.9969C127.031 78.2307 127.467 79.1854 127.448 79.666C127.364 81.6843 123.577 80.7905 122.267 80.7713C120.499 80.7456 119.16 80.845 117.474 81.4057C116.731 81.6524 116.074 82.1168 115.312 82.2418C115.004 81.9246 117.298 79.0509 117.727 78.7305C119.006 77.779 124.311 77.7886 125.855 78.2083C126.208 78.3044 126.387 78.5575 126.724 78.5832V78.58Z" fill="black"/>
<path d="M126.141 90.1451C125.019 92.676 127.416 91.8463 128.813 92.0802C129.796 92.2468 129.972 92.769 131.299 92.5928C133 92.3653 135.14 91.4106 133.871 89.3634C133.269 88.3927 132.042 88.1108 131.331 87.2202C130.213 85.8169 129.921 83.5871 131.26 82.2416C130.879 83.5038 130.962 84.8526 131.443 86.086C132.08 87.7327 133.964 87.7969 134.778 89.3346C136.149 91.9297 132.926 93.2399 130.873 93.352C129.963 93.4033 129.444 92.8939 128.688 92.7914C127.787 92.6664 126.532 93.0253 125.769 92.3429C125.042 91.6957 125.077 90.4078 126.141 90.1451Z" fill="black"/>
<path d="M109.311 89.1181L107.997 86.9236C107.581 88.1058 107.536 89.4801 107.997 90.6527C107.667 90.8994 107.344 90.2106 107.235 89.9511C106.713 88.6952 106.985 87.2984 107.344 86.049C106.924 85.4755 105.736 85.1263 105.095 85.4083C104.867 85.5108 105.011 85.7862 104.774 85.751L104.845 85.1648C107.302 83.6366 109.385 86.9139 109.308 89.1181H109.311Z" fill="black"/>
<path d="M108.181 92.7436C107.127 91.696 109.712 90.6292 109.622 92.2663C109.581 93.0384 108.568 93.1281 108.181 92.7436Z" fill="black"/>
<path d="M103.839 91.0102C104.903 92.7017 106.979 94.8995 109.167 94.5375C108.783 97.7796 109.334 101.115 108.578 104.334C108.52 104.325 108.469 104.331 108.414 104.325V106.958C110.772 110.665 114.972 113.221 119.118 114.368C122.046 115.179 126.288 115.692 128.822 113.686C129.35 113.27 130.238 112.273 130.238 111.588C130.238 110.989 130.123 109.556 130.238 109.098C130.247 109.066 130.337 108.977 130.417 108.922L130.392 108.858L131.007 108.611L130.968 108.586C131.132 108.544 131.295 108.49 131.458 108.429L131.49 108.416C132.756 107.942 134.021 106.939 134.845 105.952C136.834 103.565 139.593 94.9411 139.609 91.8303C139.622 89.6005 138.801 87.4509 138.715 85.2467C138.6 82.3762 139.154 80.6718 138.507 77.5514C138.321 76.6575 137.581 74.9499 137.552 74.2483C137.536 73.8831 138.183 73.127 138.27 72.4959C138.439 71.2625 137.856 70.6346 137.853 70.0194C137.853 69.7631 138.18 69.3275 138.273 68.9879C138.584 67.8377 138.42 66.9983 137.696 66.0692C137.552 65.8866 137.216 65.8418 137.135 65.6079C136.857 64.807 137.392 64.1918 136.591 63.0802C135.723 61.8691 134.938 62.2825 134.188 61.8243C134.047 61.7378 133.647 60.86 133.384 60.5781C132.122 59.2261 131.138 60.0527 130.039 59.6778C129.7 59.5625 129.235 58.4828 127.931 58.2746C126.803 58.0952 125.464 58.7071 125.064 58.6431C124.628 58.5726 123.933 57.8677 122.988 57.8004C121.626 57.7043 120.95 58.5662 120.188 58.6398C119.861 58.6719 118.868 58.2426 118.323 58.2522C117.08 58.2778 116.382 59.2709 115.667 59.4023C115.12 59.5016 114.697 59.2517 114.213 59.2517C113.082 59.2517 111.99 59.8893 111.291 60.7351C111.163 60.8889 111.099 61.2541 111.044 61.2893C110.827 61.4303 109.138 61.2317 108.091 61.9237C107.053 62.6125 107.19 63.5863 106.758 63.958C106.521 64.163 105.896 64.2527 105.515 64.4706C104.522 65.0441 103.916 66.1429 103.756 67.261C103.718 67.5301 103.9 67.7928 103.833 68.0523C103.756 68.3567 103.343 68.5938 103.186 68.8757C102.606 69.9041 102.385 70.641 102.641 71.8616C102.779 72.5215 103.372 72.8803 103.432 73.127C103.57 73.6941 103.006 74.5879 103.349 75.6932C103.65 76.6639 104.294 76.9106 104.592 77.5225C104.874 78.1024 104.8 79.182 105.06 79.9829C105.284 80.6749 105.717 81.2677 106.091 81.8796C101.427 82.6165 101.853 87.8609 103.833 91.0166L103.839 91.0102ZM127.217 113.686C121.867 116.018 111.929 111.597 109.02 106.756C108.151 105.315 109.042 105.302 109.394 103.905C109.952 101.682 109.827 98.2858 109.872 95.9246C109.881 95.4825 109.625 94.845 109.75 94.3388L110.557 93.9448C111.647 99.6474 115.847 103.947 120.726 106.756C122.014 107.496 125.551 109.021 126.948 109.021H129.363C129.799 111.376 129.475 112.703 127.22 113.683L127.217 113.686ZM132.83 103.431C132.192 103.287 131.993 102.524 132.166 101.954C132.327 101.435 134.999 100.737 134.48 99.2181C134.226 99.2148 134.313 99.5769 134.146 99.7627C132.689 101.387 126.89 100.987 125.118 99.657C124.945 99.8396 125.66 100.416 125.801 100.512C126.787 101.195 128.143 101.457 129.184 102.028C129.376 104.264 126.047 103.934 124.638 103.431C122.773 102.761 121.396 100.791 121.815 98.7728C122.235 96.7576 123.119 97.7764 124.458 97.9014C125.91 98.0327 127.649 97.8821 129.145 97.8982C130.936 97.9142 132.891 98.1256 134.688 97.8918C135.248 97.8181 135.713 97.4817 136.235 97.3183C136.821 99.1828 135.325 104.001 132.83 103.434V103.431ZM122.776 97.1677C123.087 96.5942 123.6 96.3796 124.164 96.1425C126.576 95.1302 129.501 95.2968 132.061 95.2615C133.599 95.2391 135.46 95.2711 135.944 97.0236C134.979 97.3119 133.945 97.1165 132.945 97.1741C131.388 97.2638 130.962 97.2606 129.437 97.1677C127.249 97.0332 124.952 97.6419 122.773 97.1709L122.776 97.1677ZM109.164 83.9267C109.327 84.1093 109.67 84.9455 109.897 84.7277C110.689 81.9084 112.723 79.6594 114.95 77.8493L114.591 71.7078C120.332 70.2501 126.576 69.3499 132.487 70.2565C133.788 70.4551 135.059 70.4904 135.681 71.7462C136.652 73.7069 137.187 76.1993 137.847 78.285C136.655 77.955 132.791 77.8557 132.013 78.8168C131.567 79.3679 131.032 81.226 132.074 81.3606C132.644 81.4342 134.553 80.7999 135.425 80.7678C136.434 80.7294 137.177 80.9633 138.122 81.226C138.189 82.8119 137.879 84.3848 137.984 85.9739C138.084 87.4252 138.622 88.9246 138.721 90.3598C138.897 92.9356 138.109 95.2839 137.552 97.7475L136.998 96.1809C136.379 94.7777 133.768 93.6372 132.304 93.5923C131.16 93.5571 130.469 93.6179 129.27 93.5186C127.7 93.3905 125.496 94.0889 124.016 94.672C122.184 95.3896 120.822 96.3732 120.213 98.337L119.954 98.462C116.411 97.4881 113.633 95.4281 112.278 91.936C111.416 89.719 111.426 87.2106 110.119 85.1666C109.74 85.1121 109.997 85.3204 110.029 85.5478C110.279 87.39 111 90.3406 110.782 92.1219C110.525 94.2171 108.654 93.9896 107.222 93.1854C104.326 91.5612 102.032 87.1016 103.823 83.9908C104.973 81.9917 107.748 82.3505 109.164 83.9267Z" fill="black"/>
<path d="M125.139 86.3246C125.732 85.8568 125.636 83.5886 123.826 84.2807C122.374 84.8349 123.71 87.4555 125.139 86.3246Z" fill="black"/>
<path d="M135.064 84.2025C133.514 83.8693 133.347 86.5476 134.731 86.6533C136.166 86.6693 136.157 84.4396 135.064 84.2025Z" fill="black"/>
</svg>
