<svg width="260" height="184" viewBox="0 0 260 184" fill="none" xmlns="http://www.w3.org/2000/svg">
<path d="M40.9634 88.0627C41.1506 88.175 41.4909 88.0661 41.7257 88.0968C41.661 86.9124 42.2259 85.2244 43.1074 84.4076C43.4273 84.1115 43.9582 84.0162 44.1249 83.7848C45.0949 82.4371 45.1629 79.2619 45.7483 77.7066C48.4233 70.6039 58.4936 73.2006 59.0279 80.2352C59.2729 83.4411 58.4323 87.1405 57.2309 90.0775C59.4737 90.5812 59.2083 93.3718 60.3382 94.8386C60.5185 94.9033 60.6512 94.8284 60.8078 94.757C61.9104 94.2533 63.7346 88.6753 65.181 87.702C62.3869 86.5108 62.7545 83.4819 61.805 81.2357C61.4443 80.3849 60.7159 79.6362 60.3518 78.714C57.7891 72.2239 64.9122 67.2143 70.8203 69.44C74.6387 70.8796 77.1435 75.8518 75.7175 79.7451C77.1367 80.0174 78.6716 81.1847 79.1923 82.5358C79.3488 82.9374 79.4203 83.9073 79.5394 84.0775C79.5972 84.1592 80.9007 84.7547 81.2683 85.0338C85.5734 88.3043 85.6245 97.1631 85.2603 102.105C84.8962 107.046 83.6301 108.353 79.1038 109.462C75.2411 110.409 71.1606 110.773 67.2536 111.528C66.151 111.998 66.7806 114.288 64.6944 114.533C57.0608 114.493 49.4137 114.819 41.8516 113.713C39.8573 113.42 39.7518 112.059 42.0252 112.148C43.4749 112.206 45.1357 112.675 46.5923 112.75C46.7999 112.76 48.7024 112.845 48.0932 112.345L38.0536 109.759C37.5669 109.725 37.8391 109.779 37.8493 109.959C37.8902 110.65 38.2101 111.457 37.5533 112.039C36.5697 112.903 34.9362 112.246 33.7824 112.144C33.9764 113.526 33.6974 114.115 32.2782 114.316C31.8392 114.377 29.736 114.55 29.3072 114.544C27.8744 114.52 25.9209 113.614 24.335 113.536C22.5006 113.448 20.3429 113.798 18.3656 113.74C11.3787 113.533 7.94138 113.138 6.00492 105.824C5.69862 104.671 4.38161 100.287 6.56651 100.927C7.02595 103.711 7.60112 108.22 9.64989 110.33C11.9505 112.699 18.4167 112.185 21.5579 112.342C22.3747 112.182 22.1467 110.072 22.8444 109.456L13.3492 106.927C12.8285 106.209 13.3152 105.481 13.2641 104.746C13.1756 103.507 11.0929 97.6361 12.0968 96.9249C12.529 96.6186 13.1076 96.9282 13.2131 97.4251L14.9964 105.777L18.8557 106.964C19.1926 106.719 20.8194 100.056 21.3061 98.977C21.6022 98.3202 22.1671 98.1738 22.4972 98.8749C23.1302 100.223 21.2209 102.908 21.1529 104.368C21.1291 104.848 22.1228 105.981 22.5108 105.947L27.2312 103.878C26.4994 100.304 25.1551 96.8738 23.7938 93.5045L21.9799 93.0791C21.6294 93.1812 21.2142 94.757 20.1184 95.0054C17.3923 95.6248 15.2619 93.525 14.9147 90.9521C14.8365 90.3633 14.9692 89.7303 14.8943 89.179C14.8569 88.9033 15.0032 88.8352 14.6016 88.8897C14.1183 88.951 13.3118 89.3083 12.8353 89.5125C5.82797 92.5108 3.74515 100.716 2.43148 107.533C2.15241 108.976 2.08096 111.314 1.68278 112.549C1.50581 113.101 0.808203 113.438 0.471279 112.947C-0.086857 112.137 1.60455 103.97 1.98912 102.52C3.95281 95.0769 8.00611 88.2567 16.2863 87.0996C13.128 81.457 14.9624 72.976 22.9975 75.1269C23.6713 75.3073 24.6345 75.8756 25.1858 75.9369C25.88 76.0151 26.5471 75.6714 27.4728 75.8212C28.5754 76.0015 29.2731 76.5971 28.8273 77.7304C31.7677 79.0032 30.4132 77.3866 30.386 75.8722C30.3656 74.824 30.5153 72.3941 30.6888 71.3867C32.1522 62.7526 48.1511 66.5847 45.5578 74.5245C45.1698 75.7157 43.2538 78.3328 43.0122 79.3401C42.8794 79.8915 43.3286 80.4156 42.9747 81.2834C42.5731 82.2772 41.5215 82.2329 41.0451 82.7332C40.4903 83.3186 40.184 84.8977 39.1528 85.4082C39.8811 85.5953 40.8307 87.9742 40.9702 88.0559L40.9634 88.0627ZM43.3184 74.5858C42.3553 74.3407 41.3921 74.0072 40.5481 73.4797C40.1023 73.2007 39.8777 72.5234 39.2549 72.5881C37.4818 73.5512 36.2872 74.5892 35.0416 76.1615C34.1432 75.9811 34.2045 74.7253 33.3673 74.4905C31.9447 74.0957 31.4206 76.1138 32.0128 77.2437C32.268 77.7338 33.0133 77.8733 32.5811 78.5982C32.4279 78.8569 32.1114 78.8637 31.9889 79.0475C31.4818 79.7996 31.4512 80.7321 30.1988 80.7491C31.0462 81.8347 30.631 83.0599 30.808 84.2102C31.0564 85.8097 34.7013 86.4938 34.6809 84.3293C34.1908 84.0911 32.1625 81.5557 33.2822 81.3413C33.8471 81.2358 35.0621 82.8489 35.576 83.2165C36.6718 83.9992 38.8567 84.9215 38.9146 82.8761C38.7683 82.335 37.6587 82.073 37.7506 81.6442C37.9412 80.7729 39.4898 82.2466 39.9356 81.7395C39.3366 81.0282 39.3672 79.7043 40.5312 80.2522C40.817 80.3849 41.2458 81.3379 41.6338 80.7559C41.8823 79.9732 41.3751 79.3538 41.5691 78.5064C41.678 78.0299 42.3008 77.482 42.5595 76.9102C42.699 76.6073 43.3899 74.6879 43.3184 74.5892V74.5858ZM68.9382 76.7843C66.573 77.3356 64.1124 77.972 62.0023 76.3725C61.6858 78.1694 62.5945 79.3844 63.1969 80.9431V79.7519C65.7017 79.7315 62.8226 83.4411 65.78 83.5295C65.6609 84.5709 64.759 84.3497 63.9899 84.1251C64.8713 86.749 66.9915 87.2596 69.2241 85.677C69.6733 85.3571 71.4396 83.2335 71.1095 85.1665C70.9972 85.8268 69.8946 86.7593 69.9524 86.9941C71.9705 89.6044 75.1799 84.8398 73.6416 83.5126C73.3217 83.2369 72.8145 83.2675 72.4674 83.0906C72.2087 82.9578 72.2122 82.6141 71.9876 82.5358C71.6132 82.4099 71.0312 82.6583 70.7896 82.0389C70.742 81.4263 74.1487 80.2216 72.447 78.5506C71.2321 77.356 70.371 79.2278 70.0545 79.1564L68.9382 76.7877V76.7843ZM57.2343 83.727C57.1357 81.9845 57.9797 80.0684 56.7375 78.5676C55.6008 78.9998 55.645 80.2012 55.0461 81.0452C53.7971 82.7979 51.0949 83.0769 49.2027 82.3486L48.3858 83.3424C47.8209 83.3458 47.6576 82.1921 46.7012 82.6345C45.6292 83.128 45.3059 84.8466 46.4222 85.4932C47.079 85.8744 48.0592 85.5885 48.1068 86.6061C48.1681 87.8619 47.3649 87.7836 46.9191 88.42C45.5033 90.4348 47.9095 93.1064 50.1556 92.8511C50.4483 92.8171 51.3467 92.6061 51.4658 92.2726C50.792 92.3747 47.4091 90.7139 48.4777 89.9788C49.0631 89.5772 50.4687 90.6968 51.1562 90.8908C54.8793 91.9424 57.2718 87.9879 56.9451 84.7071L55.9513 84.5233C55.4953 83.6453 56.5639 83.6657 57.2309 83.727H57.2343ZM29.3378 83.8665C29.7666 83.2811 29.4093 81.5284 28.8035 81.2426C28.5414 81.1166 26.268 81.1711 25.7235 81.1439C24.5494 81.0792 24.2396 80.4224 23.0315 81.4366C22.2828 82.0628 22.3406 82.7196 21.8472 83.4309C21.3809 84.1013 20.4723 84.7309 19.7576 85.1121C19.3628 85.0951 19.7507 83.4615 18.3486 83.3288C16.9396 83.196 16.7559 84.9147 17.3821 85.9051C17.6612 86.3475 18.3316 86.5415 18.2431 87.1609C18.0389 88.5664 16.225 88.0423 16.1569 89.6214C16.0888 91.2005 17.2255 93.6441 19.0599 93.7802C19.6997 93.8278 20.7377 92.9839 20.6254 92.4019C20.5982 92.2521 18.2363 90.0911 19.3696 89.8869C19.5601 89.8528 21.9357 91.5375 22.6504 91.7689C23.8143 92.1467 25.7542 92.5619 25.8256 90.8806C25.2641 90.8602 23.6816 90.2817 23.8415 89.5976C24.6651 88.7672 25.1041 90.2 26.2816 89.846C27.7212 89.4104 26.1148 88.2431 27.0235 87.787C27.5987 87.4978 28.167 88.8284 28.8307 88.0049C29.4058 87.2868 27.4592 86.0106 28.7184 84.3225C28.9056 84.0707 29.2391 84.006 29.3446 83.8631L29.3378 83.8665ZM73.5327 108.966C75.9796 108.581 81.9251 108.125 83.055 105.664C84.1849 103.204 83.9875 96.4892 83.6472 93.787C83.0516 89.0633 81.1117 84.5301 75.5474 84.9453C74.9075 88.107 71.1674 91.0882 68.8668 87.5284C68.3155 88.0627 67.1379 87.9334 66.6615 88.2805C66.4403 88.4405 65.324 89.9549 65.1027 90.2987C63.7108 92.4529 63.1152 95.2266 60.7125 96.6424L60.8997 99.8346C62.1283 100.995 65.671 97.9322 66.076 97.0371C66.5729 95.9379 65.1708 93.0655 66.3041 92.8784C67.1277 92.7422 67.5905 95.2198 67.7164 95.8018C67.9376 96.8398 67.9444 98.5856 68.2099 99.4841C68.3869 100.09 69.6086 100.522 69.7516 101.526C69.9592 102.955 68.683 104.351 68.8634 105.784L76.6262 102.016C77.0175 101.438 76.5105 93.3956 76.7351 91.7927C76.7862 91.4354 76.8951 91.0678 77.1027 90.7683C77.6064 90.4178 78.1747 91.0882 78.1168 91.5681L78.1339 101.686C78.3211 102.234 80.1826 101.778 79.8661 103.061C79.6177 104.072 78.5116 103.252 77.9841 103.207C77.3681 103.156 72.7635 105.137 72.4368 105.583C72.641 106.097 73.0221 106.406 73.2331 106.981C73.4645 107.618 73.5769 108.285 73.5361 108.966H73.5327ZM39.3025 88.8557C39.9253 87.7939 37.1414 85.0338 35.9639 85.1189C35.467 87.6679 30.9442 87.4399 29.9946 85.3163C29.1302 85.6634 30.1988 86.3475 30.3485 87.052C30.9203 89.7405 28.5074 88.9169 27.5273 90.7003C26.8466 91.9425 27.0236 92.8647 25.2096 93.3854C26.0775 95.5976 26.9589 97.7961 27.6634 100.069C28.0888 101.441 28.2828 103.183 28.6946 104.402C29.0417 105.43 30.8045 105.998 31.7847 106.182C30.9917 104.238 31.8086 102.074 32.4314 100.172C33.568 96.7036 35.4977 91.8948 38.2509 89.4955C38.4857 89.2913 39.2685 88.9101 39.2991 88.8557H39.3025ZM55.8391 97.1393V100.022H59.2185C58.9803 98.0786 58.8305 92.2692 56.826 91.3707C56.1657 91.0746 55.4306 91.9322 54.8452 92.1739C54.2599 92.4155 53.3445 92.5312 52.8714 92.7831C52.2861 93.0962 51.9559 93.9367 51.0745 94.1648C47.5963 95.0734 44.5708 91.9459 45.3025 88.4949C42.5391 89.1926 39.8675 89.4377 37.9515 91.7791C36.1545 93.9776 32.6049 102.363 32.9963 105.072C33.2413 106.767 35.0621 107.233 36.454 107.774C37.0326 107.999 40.9055 109.309 41.1165 109.153C41.3649 107.781 41.9673 106.944 42.9169 105.984C41.1199 105.259 38.3905 104.157 36.876 102.979C36.5153 102.7 36.26 102.016 36.8556 102.003C37.4954 101.985 38.1999 102.418 38.6457 102.013C39.1766 101.529 40.1772 97.9322 40.7728 96.9861C41.1063 96.4552 41.6917 96.2884 41.8822 96.9861C42.3349 98.6231 39.4625 102.397 39.9593 103.18C41.6814 103.803 43.2912 104.95 44.969 105.624C47.205 106.522 48.7194 106.11 51.0472 105.967C51.3127 105.739 51.9831 101.819 52.4119 101.073C52.8816 100.257 54.134 100.185 54.3484 99.8312C54.7602 99.154 53.8379 96.7036 55.3354 96.833C55.5192 96.85 55.788 96.9895 55.8357 97.146L55.8391 97.1393ZM66.9745 100.022L66.7737 98.2317C66.0658 98.5142 65.9229 99.4807 65.1878 99.627L65.2865 100.022H66.978H66.9745ZM50.0739 113.138H64.4867C64.9802 113.138 65.2287 112.219 65.3852 111.848C66.6513 108.85 67.1992 105.147 68.329 102.05C68.3937 101.788 68.295 101.553 68.084 101.393C67.0358 100.607 56.9519 101.863 54.9405 101.404L53.7937 101.795L50.0739 113.135V113.138ZM22.6435 107.968C24.4337 108.891 25.8495 108.186 27.5239 108.162C28.0173 108.156 29.5556 108.322 30.0525 108.414C31.5023 108.687 31.9957 110.089 33.0677 110.569C33.6361 110.824 36.3111 111.545 36.5425 110.827C36.8318 109.462 34.2453 108.023 33.2345 107.819C32.4347 107.655 31.8596 107.822 30.9373 107.529C29.1335 106.954 27.8676 105.198 25.9107 105.777C25.4547 105.913 22.2181 107.393 22.6435 107.968ZM21.449 107.574C21.9016 106.199 19.9005 105.487 20.2783 107.356L21.449 107.574ZM67.3727 110.157L71.9467 109.265C72.7737 107.928 72.1543 106.403 70.4527 106.573C70.1124 106.607 68.6319 107.278 68.3698 107.475C67.7675 107.931 67.6007 109.428 67.3761 110.157H67.3727ZM50.4721 107.373H43.8119C43.1755 107.373 42.2634 109.112 42.5254 109.752L48.9679 111.355L49.4784 110.259L47.4976 109.745L47.4874 109.163L49.8833 109.071L50.4687 107.373H50.4721ZM31.7881 111.348C30.3893 109.449 28.3168 109.388 26.1251 109.565C24.0797 109.731 23.5523 109.925 23.4399 112.144C25.55 112.331 27.5953 112.672 29.6032 113.335L28.3066 112.148L28.4053 111.641C28.7932 111.389 29.3174 111.62 29.7121 111.736C30.631 112.008 30.9815 112.631 31.7881 112.934L29.593 110.854L30.0627 110.381L31.7881 111.345V111.348Z" fill="black"/>
<path d="M63.3927 10.9913L63.4165 12.162C67.7829 12.6113 72.1935 13.9658 75.6376 16.7428C76.0358 16.8347 76.434 15.8104 76.4884 15.487L75.2088 14.1598C75.5491 13.2 76.6994 12.1586 77.7579 12.4207C78.316 12.5568 81.7737 15.4836 81.835 16.0826C81.7533 16.9198 81.008 18.3015 80.0448 18.111C79.4152 17.9884 78.7652 17.0968 78.0029 17.7434L77.7613 18.2471C89.4583 29.1376 87.2223 48.4749 73.143 56.2038C62.3785 62.1119 48.8675 58.8753 42.0474 48.7302C33.1921 35.5561 39.7195 16.7769 55.3235 12.9516C56.7835 12.5942 58.2571 12.4343 59.7376 12.1961L59.6286 11.0866C58.3728 10.5727 56.4909 11.2261 55.9395 9.60959C55.5652 8.51374 55.7013 6.12464 55.8442 4.92669C55.977 3.81382 56.6269 3.17063 57.733 3.0379C59.4414 2.8337 63.5493 2.87114 65.2985 3.0379C66.2617 3.12638 66.8606 3.30332 67.2792 4.23581C67.7556 5.29763 67.7625 8.70433 67.2179 9.74232C66.4726 11.1649 64.7642 10.7939 63.3995 10.9947L63.3927 10.9913ZM65.1828 6.21995H58.7234C58.138 6.21995 57.3246 8.21083 59.1181 8.40482C61.0206 8.60902 63.0932 8.21425 64.999 8.11896L65.1862 6.21995H65.1828ZM46.5635 50.864C58.2231 62.5168 78.7925 56.8368 82.5395 40.7631C86.3579 24.3832 71.6082 10.9471 55.5549 15.1773C39.8284 19.3225 35.2749 39.5788 46.5635 50.864Z" fill="black"/>
<path d="M222.981 0.91454C243.636 0.145401 258.457 19.7074 251.303 39.3647C243.54 60.693 214.361 64.4332 201.074 46.144C187.713 27.7493 200.23 1.76195 222.978 0.91454H222.981ZM221.987 2.70466C201.629 4.2021 190.596 27.3988 201.905 44.3233C214.282 62.8473 243.857 58.8654 250.201 37.2649C255.673 18.6286 241.165 1.29231 221.987 2.70466Z" fill="black"/>
<path d="M244.889 99.6218V103.794H249.759C250.45 103.794 251.219 105.407 249.173 105.591C243.875 106.068 237.854 105.227 232.477 105.571C231.967 105.509 231.545 105.207 231.439 104.689C231.425 104.383 232.052 103.794 232.266 103.794H237.732V99.6218H225.109C225.02 99.6218 223.925 99.1079 223.748 98.9922C222.693 98.3082 222.152 97.1749 222.029 95.9429C221.212 87.8125 222.642 78.3718 222.019 70.1019C222.114 68.3253 223.472 66.7122 225.3 66.6237C235.312 67.2295 246.223 65.8444 256.13 66.6237C258.022 66.7735 259.428 67.9646 259.608 69.9045C260.394 78.2697 259.002 87.8499 259.601 96.3445C259.659 97.6173 257.923 99.6218 256.719 99.6218H244.889ZM225.351 68.0667C224.391 68.4615 223.744 69.0196 223.615 70.1087L223.714 96.45C224.173 97.8623 225.558 98.1414 226.892 98.2401C236.064 98.9242 246.073 97.7058 255.337 98.2401C257.185 98.0802 258.049 97.4744 258.219 95.5583C258.927 87.5845 257.668 78.5862 258.219 70.5035C258.25 69.4518 257.532 68.5364 256.589 68.1586L225.354 68.0701L225.351 68.0667ZM243.102 99.6218H239.624L239.324 99.9213V103.696C240.437 104.243 241.894 103.791 243.102 103.794V99.6218Z" fill="black"/>
<path d="M37.8739 121.499C38.6907 121.23 40.6374 124.01 40.508 124.524C39.9737 126.668 36.4207 121.975 37.8739 121.499Z" fill="black"/>
<path d="M45.0535 129.382C44.3898 130.056 41.9938 128.031 41.919 127.534C41.8339 126.972 42.181 126.435 42.7902 126.493C42.9978 126.513 45.1385 128.272 45.2134 128.443C45.3427 128.735 45.2781 129.154 45.0535 129.379V129.382Z" fill="black"/>
<path d="M50.4099 132.073C50.6243 132.325 50.7366 132.689 50.5801 133.005C50.0492 134.071 46.7139 132.138 47.1155 130.95C47.4286 130.024 50.0866 131.692 50.4099 132.073Z" fill="black"/>
<path d="M65.3257 138.21C65.8124 138.07 68.3852 138.618 68.5418 139.105L68.4669 139.768C68.1266 140.452 65.6491 139.901 65.1896 139.663C64.5702 139.339 64.6757 138.397 65.3257 138.21Z" fill="black"/>
<path d="M80.2573 139.016C80.9107 138.985 81.5029 139.278 81.2647 140.033C81.0707 140.643 77.9124 141.027 77.5959 140.578C76.9663 139.006 79.1581 139.07 80.2573 139.019V139.016Z" fill="black"/>
<path d="M52.8863 134.033C53.4377 133.682 57.0077 134.979 56.1501 136.201C55.5886 137.001 51.5386 134.89 52.8863 134.033Z" fill="black"/>
<path d="M74.6736 139.619C75.2045 140.129 74.6022 140.847 74.0236 140.956C73.2783 141.099 70.1915 140.739 71.3452 139.466C71.6413 139.136 74.3673 139.323 74.677 139.619H74.6736Z" fill="black"/>
<path d="M18.6007 67.847C20.2989 67.3058 19.6489 71.3251 18.7607 71.417C17.3449 71.5633 18.0255 68.0307 18.6007 67.847Z" fill="black"/>
<path d="M59.5165 136.465C59.867 136.451 62.1574 137.19 62.2119 137.68L62.1166 138.388C61.7422 138.919 58.4989 138.102 58.7133 137.163C58.8358 136.833 59.1489 136.479 59.5165 136.465Z" fill="black"/>
<path d="M23.0183 55.9215C23.7092 56.3979 22.358 60.0088 21.2349 59.1954C20.5849 58.7258 21.6876 55.2783 23.0183 55.9215Z" fill="black"/>
<path d="M29.1468 45.5996C29.6879 45.4499 30.2631 45.8209 30.1712 46.4198C30.0895 46.9541 28.4083 49.0369 27.6018 48.4652C26.7952 47.8934 28.6125 45.746 29.1502 45.5996H29.1468Z" fill="black"/>
<path d="M20.8004 61.9163C21.2632 62.3859 20.6608 65.3978 19.5956 65.2242C18.4147 64.9282 19.5446 60.6469 20.8004 61.9163Z" fill="black"/>
<path d="M26.1763 50.7871C26.7412 51.3248 25.1792 53.5438 24.6891 53.6833C22.6539 54.2687 24.8592 49.5381 26.1763 50.7871Z" fill="black"/>
<path d="M33.518 41.4234C33.6235 41.4064 33.7255 41.386 33.8276 41.4234L34.2701 41.7944C34.818 42.8868 31.7347 45.1466 31.7619 43.2817C31.7687 42.7337 32.987 41.4983 33.518 41.42V41.4234Z" fill="black"/>
<path d="M244.045 111.993C244.365 112.266 244.331 113.083 243.96 113.348C243.681 113.549 242.806 113.695 242.371 113.896C240.611 114.696 238.855 115.533 237.133 116.411C235.962 117.01 233.155 118.266 232.294 118.926C231.432 119.586 231.895 120.716 232.964 120.41C236.088 118.824 239.355 116.84 242.568 115.485C243.402 115.135 247.68 113.423 246.291 115.829C245.301 117.544 236.323 120.457 234.652 122.67C232.671 120.032 232.419 124.749 234.216 125.035C234.815 124.783 234.737 124.245 234.778 123.691C236.697 123.422 243.381 118.677 244.766 118.936C245.992 119.164 244.96 120.682 244.283 121.169C242.452 122.482 239.124 123.803 237.007 125.021C236.388 125.379 233.757 126.767 233.638 127.23C233.508 127.74 233.73 128.203 234.267 128.244C235.234 128.319 241.278 123.697 243.048 123.697L243.497 123.973C243.793 125.144 240.315 127.54 239.389 128.196C235.932 130.654 230.075 134.159 226.052 135.33C224.313 135.837 222.111 135.857 220.583 136.422C219.239 136.919 218.452 138.396 217.074 138.876C213.647 136.916 212.194 131.379 213.296 127.747C213.715 126.365 214.433 126.682 214.889 126.107C215.471 125.372 216.295 121.37 216.894 120.015C218.003 117.514 219.987 115.604 221.274 113.263C221.754 112.392 223.033 108.692 223.428 108.447C223.727 108.26 224.115 108.563 224.309 108.771C225.953 110.527 222.914 115.298 222.649 117.418C222.325 120.001 223.925 121.713 223.292 124.419C223.118 125.164 222.444 126.114 222.312 126.832C222.179 127.55 222.703 127.625 223.203 127.111C224.606 125.668 225.143 123.156 224.759 121.233C224.633 120.597 223.969 119.719 224.51 119.28L240.815 112.324C241.561 112.153 243.443 111.463 244.052 111.983L244.045 111.993Z" fill="#FCF7ED"/>
<path d="M162.806 116.895C163.245 117.548 168.214 116.503 169.245 116.5C169.956 116.5 171.522 116.623 172.213 116.731C174.554 117.102 177.072 120.271 175.408 122.476C174.288 119.713 171.954 119.338 169.248 119.498C168.479 119.543 164.81 119.951 164.596 120.621C164.473 121.159 164.729 121.574 165.277 121.676C167.812 122.156 172.703 119.634 174.016 123.079C174.52 124.396 174.411 125.059 173.717 126.254C171.46 123.892 168.374 124.869 165.512 125.103C164.957 125.311 164.783 125.917 165.154 126.373C166.022 127.438 172.073 125.066 172.686 127.789C173.07 129.504 171.212 131.866 169.449 132.029C168.874 132.084 167.911 131.958 167.56 131.427C168.329 131.539 171.814 130.164 170.137 129.327C169.922 129.218 166.788 129.633 166.417 129.783C165.569 130.123 163.708 134.194 162.785 135.293C160.393 138.138 157.248 138.747 153.893 139.717C153.341 139.877 152.055 140.565 151.718 140.422C149.2 138.682 148.094 133.843 149.315 131.165C149.734 130.246 151.082 129.681 151.837 128.918C155.632 125.083 157.738 117.354 162.333 114.57C166.1 112.287 175.17 108.863 178.403 113.332C180.544 116.289 174.244 114.254 173.203 114.159C169.932 113.866 166.57 115.445 163.333 115.772C162.911 115.833 162.612 116.605 162.809 116.902L162.806 116.895Z" fill="#FCF7ED"/>
<path d="M147.684 131.025C146.639 135.16 147.803 140.047 151.655 142.253C150.753 142.943 148.007 145.594 147.003 145.53C144.89 145.394 142.487 141.225 142.017 139.373C141.701 138.121 141.153 133.322 142.123 132.519C142.344 132.335 147.469 130.831 147.684 131.025Z" fill="#F9D483"/>
<path d="M73.5305 108.967C73.5714 108.289 73.459 107.619 73.2276 106.983C73.0166 106.407 72.6389 106.098 72.4313 105.584C72.7614 105.138 77.3626 103.157 77.9786 103.208C78.5061 103.253 79.6121 104.073 79.8606 103.062C80.1771 101.779 78.3155 102.235 78.1284 101.687L78.1113 91.5692C78.1692 91.0893 77.6008 90.4223 77.0972 90.7694C76.8896 91.0689 76.7806 91.4364 76.7296 91.7938C76.5016 93.3967 77.0086 101.439 76.6206 102.017L68.8578 105.785C68.6775 104.352 69.9537 102.96 69.7461 101.527C69.5997 100.52 68.3813 100.088 68.2044 99.4852C67.9389 98.5867 67.9355 96.8443 67.7109 95.8029C67.585 95.2209 67.1222 92.7433 66.2986 92.8795C65.1687 93.0632 66.5708 95.939 66.0705 97.0382C65.6655 97.9333 62.1227 100.996 60.8941 99.8357L60.707 96.6434C63.1063 95.2277 63.7019 92.454 65.0972 90.2997C65.3184 89.956 66.4347 88.4416 66.6559 88.2816C67.1324 87.9345 68.3099 88.0638 68.8613 87.5295C71.1619 91.0859 74.902 88.1081 75.5418 84.9464C81.1062 84.5312 83.0461 89.0644 83.6416 93.7881C83.982 96.4903 84.1385 103.287 83.0495 105.666C81.9604 108.044 75.9741 108.582 73.5271 108.967H73.5305Z" fill="white"/>
<path d="M55.838 97.1394C55.7904 96.9829 55.5215 96.8433 55.3377 96.8263C53.8403 96.697 54.7625 99.1473 54.3508 99.8246C54.1363 100.178 52.884 100.25 52.4143 101.067C51.9855 101.812 51.3116 105.733 51.0496 105.961C48.7218 106.104 47.2073 106.515 44.9713 105.617C43.2935 104.943 41.6804 103.796 39.9617 103.173C39.4682 102.394 42.3372 98.6198 41.8846 96.9794C41.6906 96.2818 41.1087 96.4485 40.7751 96.9794C40.1796 97.9255 39.179 101.523 38.6481 102.006C38.2023 102.411 37.4978 101.979 36.858 101.996C36.2658 102.009 36.5211 102.694 36.8784 102.973C38.3929 104.15 41.1223 105.253 42.9192 105.978C41.9697 106.937 41.3673 107.775 41.1189 109.146C40.9079 109.299 37.035 107.992 36.4564 107.768C35.0645 107.223 33.2437 106.757 32.9986 105.066C32.6073 102.357 36.1569 93.971 37.9538 91.7724C39.8699 89.431 42.5415 89.186 45.3049 88.4883C44.5698 91.9392 47.5987 95.0668 51.0768 94.1581C51.9583 93.9267 52.2884 93.0861 52.8738 92.7764C53.3468 92.5211 54.252 92.4088 54.8476 92.1672C55.4432 91.9256 56.1681 91.0679 56.8283 91.364C58.8329 92.2625 58.986 98.0719 59.2208 100.015H55.8414V97.1326L55.838 97.1394Z" fill="white"/>
<path d="M50.0742 113.137L53.794 101.797L54.9408 101.406C56.9522 101.865 67.0361 100.606 68.0843 101.396C68.2953 101.556 68.394 101.791 68.3293 102.053C67.1994 105.146 66.6549 108.849 65.3855 111.851C65.229 112.222 64.9839 113.14 64.487 113.14H50.0742V113.137ZM58.8716 108.519C59.8518 109.499 61.8189 108.063 60.8251 106.664C59.7292 105.119 57.7349 107.386 58.8716 108.519Z" fill="white"/>
<path d="M39.3004 88.8538C39.2698 88.9082 38.487 89.2894 38.2522 89.4936C35.499 91.8929 33.5694 96.7017 32.4327 100.17C31.8099 102.072 30.993 104.233 31.786 106.18C30.8059 105.996 29.043 105.428 28.6959 104.4C28.2841 103.178 28.0901 101.439 27.6647 100.068C26.9602 97.7942 26.0788 95.5957 25.2109 93.3836C27.0249 92.8629 26.8444 91.9372 27.5285 90.6984C28.5086 88.9185 30.9216 89.7387 30.3498 87.0501C30.2001 86.349 29.1314 85.6615 29.9959 85.3144C30.9454 87.438 35.4683 87.6627 35.9652 85.117C37.1428 85.0353 39.9266 87.7954 39.3038 88.8538H39.3004Z" fill="white"/>
<path d="M66.9737 100.021H65.2823L65.1836 99.6258C65.9187 99.4795 66.0616 98.5129 66.7695 98.2305L66.9703 100.021H66.9737Z" fill="white"/>
<path d="M46.5635 50.8644C35.2749 39.5825 39.8284 19.3229 55.5549 15.1777C71.6082 10.9474 86.3579 24.3836 82.5395 40.7635C78.7925 56.8372 58.2197 62.5172 46.5635 50.8644ZM75.0523 48.8769C84.8843 38.9734 80.4464 21.2628 66.9286 17.6893C51.5697 13.6326 38.1507 28.5355 44.5352 43.2547C49.8171 55.4316 65.7001 58.2971 75.0523 48.8769Z" fill="white"/>
<path d="M65.1837 6.2207L64.9965 8.11971C63.0907 8.215 61.0181 8.60977 59.1157 8.40558C57.3221 8.21159 58.1356 6.2207 58.7209 6.2207H65.1803H65.1837Z" fill="white"/>
<path d="M221.989 2.7038C241.167 1.29144 255.675 18.6277 250.203 37.264C243.859 58.8646 214.284 62.8464 201.907 44.3224C190.598 27.3979 201.631 4.20124 221.989 2.7038ZM224.964 6.66521C223.123 5.49789 223.453 9.86087 223.803 10.3135C225.209 12.1172 225.645 7.41053 224.964 6.66521ZM212.617 9.23129C211.13 9.50696 213.464 13.4343 214.492 12.6924C215.251 12.1445 213.349 9.09516 212.617 9.23129ZM236.082 9.22448C235.514 9.37762 234.047 11.634 234.146 12.2738C234.432 14.1218 236.705 10.9125 236.855 10.1944C236.957 9.70433 236.623 9.07473 236.082 9.22107V9.22448ZM204.071 17.7701C202.492 18.2942 205.923 20.3226 206.508 20.4349C207.093 20.5472 207.42 19.9788 207.328 19.4411C207.223 18.8217 204.718 17.5557 204.068 17.7701H204.071ZM243.849 17.7769C243.188 17.8858 240.333 19.4173 241.5 20.2409C242.164 20.6867 244.747 19.0736 244.87 18.5971C245.023 17.9947 244.39 17.685 243.849 17.7735V17.7769ZM234.905 20.1728L224.106 27.8812C222.214 27.5579 215.462 22.1875 214.189 22.3134C213.104 22.4189 213.049 23.6135 213.9 24.3895C215.908 26.2238 219.924 27.7451 221.741 29.4705C222.524 30.2124 222.639 31.989 224.47 31.8188C226.594 31.6214 226.141 29.6747 226.992 28.7695C228.354 27.3197 231.035 25.6487 232.662 24.3044C233.302 23.7735 236.099 21.6022 236.157 21.0202C236.195 20.3157 235.528 19.9652 234.908 20.1762L234.905 20.1728ZM201.097 28.7184C200.382 28.9294 200.334 29.8619 201.114 30.2226C201.988 30.6276 205.286 30.8693 204.711 29.2017C204.49 28.5618 201.665 28.5517 201.097 28.7184ZM244.594 30.2669C245.145 30.4234 247.204 30.2669 247.973 30.2669C248.076 30.2669 248.477 29.7836 248.477 29.5692C248.487 28.2079 243.44 28.2964 244.189 29.8653C244.226 29.9402 244.543 30.2499 244.594 30.2635V30.2669ZM203.993 40.2521C203.779 40.4733 203.639 41.1438 203.826 41.4058C204.432 42.2498 208.669 39.7926 206.92 38.901C206.518 38.6968 204.289 39.9492 203.993 40.2521ZM241.851 38.8329L241.303 39.5204C241.198 40.6639 245.349 42.614 244.87 40.7422C244.764 40.3372 242.208 38.7478 241.851 38.8329ZM213.822 46.1874C213.332 46.3133 211.732 49.0461 211.984 49.5396C212.852 51.2446 214.941 47.29 214.584 46.5651C214.451 46.2997 214.131 46.1091 213.825 46.1874H213.822ZM236.692 49.6894C237.321 49.0734 235.494 46.7557 235.014 46.1908C232.761 45.796 235.432 49.7983 235.885 49.914C236.144 49.948 236.508 49.8697 236.692 49.6894ZM224.964 48.9951C224.79 48.8215 224.409 48.7398 224.157 48.7739C223.286 48.9815 223.415 52.8918 224.151 53.096L224.879 52.9293C225.376 52.6026 225.359 49.3899 224.964 48.9917V48.9951Z" fill="white"/>
<path d="M225.352 68.0679L256.588 68.1563C257.53 68.5341 258.248 69.4496 258.218 70.5012C257.666 78.584 258.926 87.5822 258.218 95.5561C258.048 97.4721 257.183 98.0779 255.335 98.2379C246.075 97.7035 236.066 98.9219 226.891 98.2379C225.557 98.1392 224.171 97.8601 223.712 96.4477L223.613 70.1064C223.743 69.0208 224.389 68.4626 225.349 68.0645L225.352 68.0679ZM230.93 74.4388C230.11 74.5375 229.266 74.9935 229.178 75.8648C229.617 80.7689 228.626 86.5919 229.184 91.3803C229.344 92.762 230.478 92.9696 231.665 93.0717C236.345 93.4733 244.659 93.4188 249.373 93.0717C250.795 92.9662 251.857 92.8199 252.051 91.1795C251.697 86.4557 252.504 81.1024 252.058 76.4603C251.911 74.9459 251.251 74.5069 249.771 74.3741C243.791 73.85 236.995 74.7383 230.93 74.4354V74.4388Z" fill="white"/>
<path d="M243.102 99.623V103.795C241.894 103.795 240.437 104.245 239.324 103.697V99.9225L239.624 99.623H243.102Z" fill="white"/>
<path d="M58.8701 108.52C57.7334 107.386 59.7311 105.12 60.8236 106.665C61.8139 108.063 59.8468 109.5 58.8701 108.52Z" fill="black"/>
<path d="M54.2479 89.291L54.1594 89.8967C53.4447 90.3664 52.5565 90.0125 52.0664 89.3897C52.6348 88.7056 53.523 89.4339 54.2513 89.291H54.2479Z" fill="black"/>
<path d="M67.5049 84.1523L67.9643 84.6186C67.4504 85.3026 66.2763 85.6736 65.582 85.0202L67.5015 84.1558L67.5049 84.1523Z" fill="black"/>
<path d="M75.0518 48.8757C65.6996 58.296 49.82 55.4304 44.5347 43.2535C38.1501 28.5378 51.5658 13.6315 66.9281 17.6882C80.4459 21.2582 84.8838 38.9722 75.0518 48.8757ZM60.8091 18.7398C58.1273 19.0427 55.6803 19.771 53.2538 20.9281C53.4206 21.8844 54.8567 22.674 54.3462 23.7052C53.652 25.1107 52.2532 22.4698 51.9469 21.9048C50.8409 21.8266 47.0497 26.3393 46.8897 27.6768C47.7099 28.0681 49.8642 28.514 49.4524 29.7392C48.8126 30.9405 46.3044 28.7114 45.8994 29.0687C45.3617 30.9507 44.6674 32.8463 44.7048 34.8338C45.5523 34.8883 48.2681 34.4357 47.8563 35.8854C47.5942 36.8145 45.4604 36.2939 44.7048 36.4232C44.3679 36.7669 45.6713 42.2053 46.1954 42.7907C46.6617 43.3114 48.1966 42.0556 48.7854 41.9909C51.1881 43.1685 47.0327 44.2677 47.0939 44.4685C48.04 45.9285 49.0644 47.3851 50.3678 48.549C50.5925 48.7498 51.8857 49.8627 52.0593 49.7334C52.4813 48.9813 53.1551 47.0584 54.1965 47.477L54.5198 47.7969C54.9248 48.7634 53.686 49.4781 53.3355 50.3187C53.1585 50.9722 56.7558 52.0986 57.3888 52.2586C58.5085 52.5479 59.6451 52.8099 60.8125 52.7112V49.4339C60.8125 49.2875 61.4421 48.8213 61.6973 48.9268C61.9049 48.9132 62.4052 49.3352 62.4052 49.4339V52.7112C63.5828 52.7487 64.8419 52.5104 65.9854 52.2177C66.6014 52.0612 70.0524 50.9483 69.8822 50.3187C67.1868 47.0516 69.7563 46.1838 71.155 49.7334C71.6791 50.0975 76.1612 45.5609 76.134 44.4821C75.29 43.6789 72.9384 43.553 74.1329 42.0726C74.8272 41.637 76.6853 43.2638 76.9202 43.0902C78.1317 41.0925 78.5673 38.7204 78.7069 36.4232H75.8243C75.4806 36.4232 75.3581 35.3648 75.8073 35.0142C76.345 34.5922 77.982 34.953 78.7103 34.8338C78.9145 34.6228 77.8833 29.7426 77.3217 29.1538C76.9031 28.8918 74.3507 30.8861 73.9627 29.7392C73.5475 28.514 75.7018 28.0681 76.522 27.6768C76.5833 26.5639 72.4075 22.1226 71.8493 22.1635L70.0592 24.117C67.7382 23.7766 70.767 21.5203 70.3518 20.9315C67.8232 19.7438 65.2402 18.8623 62.4087 18.7364V22.0137C62.4087 22.0988 62.1772 22.4561 62.0683 22.5276L61.0711 22.4596C61.0064 22.3983 60.8159 22.0614 60.8159 22.0171V18.7398H60.8091Z" fill="black"/>
<path d="M234.904 20.1742C235.524 19.9632 236.191 20.3137 236.153 21.0182C236.095 21.6002 233.301 23.7715 232.658 24.3024C231.028 25.6467 228.35 27.3177 226.988 28.7675C226.137 29.6727 226.59 31.6194 224.466 31.8168C222.635 31.9869 222.52 30.2104 221.737 29.4685C219.92 27.7465 215.904 26.2218 213.896 24.3874C213.045 23.6115 213.1 22.4203 214.185 22.3114C215.458 22.1855 222.21 27.5593 224.102 27.8792L234.901 20.1708L234.904 20.1742Z" fill="black"/>
<path d="M201.095 28.718C201.663 28.5512 204.488 28.5614 204.709 29.2012C205.281 30.8654 201.986 30.6272 201.112 30.2222C200.332 29.8614 200.38 28.929 201.095 28.718Z" fill="black"/>
<path d="M224.963 48.9971C225.354 49.3953 225.371 52.608 224.878 52.9347L224.149 53.1014C223.414 52.8972 223.288 48.9869 224.156 48.7793C224.408 48.7452 224.789 48.8235 224.963 49.0005V48.9971Z" fill="black"/>
<path d="M244.594 30.2689C244.543 30.2553 244.227 29.9456 244.189 29.8707C243.44 28.3018 248.484 28.2134 248.477 29.5747C248.477 29.7891 248.076 30.2723 247.974 30.2723C247.204 30.2723 245.145 30.4289 244.594 30.2723V30.2689Z" fill="black"/>
<path d="M224.965 6.66636C225.642 7.41168 225.207 12.1184 223.805 10.3147C223.454 9.86543 223.124 5.49904 224.965 6.66636Z" fill="black"/>
<path d="M203.993 40.2524C204.289 39.9495 206.515 38.6971 206.92 38.9013C208.669 39.7929 204.432 42.2535 203.826 41.4061C203.639 41.1441 203.778 40.4736 203.993 40.2524Z" fill="black"/>
<path d="M236.691 49.69C236.507 49.867 236.143 49.9487 235.884 49.9146C235.432 49.7989 232.76 45.7967 235.013 46.1914C235.493 46.7564 237.32 49.074 236.691 49.69Z" fill="black"/>
<path d="M213.821 46.1877C214.131 46.1094 214.451 46.3 214.58 46.5654C214.937 47.2903 212.851 51.2415 211.98 49.5399C211.728 49.0464 213.327 46.3136 213.818 46.1877H213.821Z" fill="black"/>
<path d="M204.072 17.7703C204.722 17.5559 207.226 18.8219 207.332 19.4413C207.424 19.979 207.087 20.544 206.512 20.435C205.937 20.3261 202.496 18.2944 204.075 17.7703H204.072Z" fill="black"/>
<path d="M243.848 17.7786C244.389 17.6901 245.022 17.9998 244.869 18.6022C244.747 19.0786 242.164 20.6918 241.5 20.2459C240.333 19.4189 243.188 17.8909 243.848 17.782V17.7786Z" fill="black"/>
<path d="M241.851 38.8334C242.208 38.7483 244.764 40.3342 244.869 40.7426C245.353 42.6144 241.201 40.6643 241.303 39.5208L241.851 38.8334Z" fill="black"/>
<path d="M236.082 9.22466C236.623 9.07832 236.96 9.70792 236.854 10.198C236.705 10.9161 234.431 14.1254 234.145 12.2774C234.047 11.6342 235.513 9.38122 236.082 9.22807V9.22466Z" fill="black"/>
<path d="M212.615 9.23293C213.347 9.0968 215.246 12.1495 214.49 12.6941C213.462 13.436 211.128 9.5086 212.615 9.23293Z" fill="black"/>
<path d="M230.928 74.4395C236.993 74.7424 243.789 73.8542 249.768 74.3783C251.252 74.5076 251.909 74.9466 252.055 76.4645C252.501 81.11 251.698 86.4633 252.049 91.1836C251.851 92.824 250.793 92.9703 249.37 93.0758C244.653 93.423 236.339 93.474 231.663 93.0758C230.475 92.9737 229.342 92.7661 229.182 91.3844C228.627 86.596 229.614 80.773 229.175 75.8689C229.264 74.9977 230.111 74.5382 230.928 74.4429V74.4395ZM235.094 77.7917C234.413 78.1048 234.396 78.8672 234.743 79.4628C235.175 80.2081 240.117 83.4038 240.117 83.8224C238.919 85.3709 235.645 86.7968 234.665 88.3079C234.004 89.3254 234.842 90.2715 236.094 89.533C236.935 89.0395 241.958 85.0135 242.281 84.3941C242.88 83.254 242.2 82.8558 241.407 82.1377C240.542 81.355 236.897 78.4384 236.016 77.9892C235.699 77.8258 235.475 77.6862 235.094 77.7883V77.7917ZM241.852 88.5393C241.019 88.7197 240.787 89.5569 241.522 89.9755C242.257 90.3941 246.26 90.4213 247.165 90.2715C248.431 90.0639 248.809 88.7298 247.362 88.5086C246.488 88.3725 242.666 88.3623 241.852 88.5393Z" fill="black"/>
<path d="M60.8113 18.7397V22.0171C60.8113 22.0613 61.0019 22.4017 61.0666 22.4595L62.0638 22.5276C62.1727 22.4595 62.4041 22.0988 62.4041 22.0137V18.7363C65.2357 18.8622 67.8187 19.7437 70.3473 20.9315C70.7625 21.5202 67.7336 23.7766 70.0547 24.1169L71.8448 22.1634C72.4029 22.1226 76.5821 26.5639 76.5175 27.6767C75.6973 28.0681 73.543 28.5139 73.9582 29.7391C74.3462 30.886 76.8986 28.8917 77.3172 29.1538C77.8787 29.7425 78.91 34.6228 78.7058 34.8338C77.9775 34.9529 76.3405 34.5922 75.8028 35.0142C75.3569 35.3681 75.4761 36.4232 75.8198 36.4232H78.7024C78.5628 38.7204 78.1272 41.0924 76.9156 43.0901C76.6808 43.2637 74.8226 41.6404 74.1284 42.0726C72.9338 43.553 75.2855 43.6789 76.1295 44.4821C76.1567 45.5643 71.6746 50.0975 71.1505 49.7333C69.7484 46.1871 67.1823 47.055 69.8777 50.3187C70.0479 50.9517 66.597 52.0611 65.981 52.2177C64.8375 52.5104 63.5783 52.7486 62.4007 52.7112V49.4338C62.4007 49.3352 61.9004 48.9166 61.6928 48.9268C61.4376 48.8213 60.8079 49.2875 60.8079 49.4338V52.7112C59.6406 52.8065 58.5074 52.5444 57.3843 52.2585C56.7513 52.0952 53.154 50.9687 53.331 50.3187C53.6815 49.4781 54.9237 48.7634 54.5153 47.7969L54.192 47.477C53.1506 47.0584 52.4801 48.9812 52.0547 49.7333C51.8812 49.8593 50.5879 48.7464 50.3633 48.549C49.0599 47.3851 48.0355 45.9285 47.0894 44.4685C47.0282 44.2677 51.1835 43.1684 48.7808 41.9909C48.1921 42.0556 46.6572 43.308 46.1909 42.7907C45.6668 42.2053 44.36 36.7669 44.7003 36.4232C45.4558 36.2972 47.5897 36.8145 47.8517 35.8854C48.2601 34.4356 45.5477 34.8883 44.7003 34.8338C44.6629 32.8463 45.3571 30.9507 45.8949 29.0687C46.2999 28.7079 48.808 30.9405 49.4479 29.7391C49.8631 28.5139 47.7088 28.0647 46.8852 27.6767C47.0451 26.3392 50.8364 21.8265 51.9425 21.9048C52.2454 22.4663 53.6475 25.1107 54.3417 23.7051C54.8522 22.6739 53.416 21.8844 53.2493 20.9281C55.6758 19.7709 58.1193 19.0426 60.8045 18.7397H60.8113ZM63.922 37.747C65.0042 36.5967 64.5754 35.215 64.4699 33.8367C65.205 32.5843 69.762 27.8027 69.779 26.7885C69.7824 26.4924 69.7212 26.2576 69.4557 26.0942C69.1154 26.0126 68.9792 26.2133 68.758 26.3835C67.3865 27.4147 63.34 32.3801 62.4007 32.7578C62.0468 32.9008 61.0972 32.5877 60.1648 33.0947C56.4075 35.1401 60.7706 41.1027 63.9254 37.747H63.922Z" fill="white"/>
<path d="M235.094 77.7901C235.475 77.6846 235.7 77.8276 236.016 77.9909C236.894 78.4435 240.543 81.3601 241.407 82.1395C242.2 82.8576 242.877 83.2557 242.282 84.3958C241.955 85.0152 236.935 89.0413 236.095 89.5348C234.842 90.2699 234.005 89.3272 234.665 88.3096C235.645 86.7986 238.919 85.3726 240.117 83.8241C240.117 83.4055 235.176 80.2098 234.743 79.4645C234.4 78.8689 234.413 78.1066 235.094 77.7935V77.7901Z" fill="white"/>
<path d="M241.855 88.5391C242.669 88.3621 246.49 88.3723 247.365 88.5085C248.811 88.7297 248.434 90.0638 247.168 90.2714C246.262 90.4211 242.226 90.3735 241.525 89.9753C240.824 89.5771 241.021 88.7195 241.855 88.5391Z" fill="white"/>
<path d="M63.9224 37.7475C60.771 41.1032 56.4046 35.1406 60.1618 33.0953C61.0943 32.5882 62.0438 32.9013 62.3978 32.7583C63.3371 32.3806 67.3835 27.4152 68.7551 26.384C68.9763 26.2173 69.1124 26.0131 69.4528 26.0948C69.7216 26.2581 69.7829 26.4929 69.776 26.789C69.7624 27.8066 65.202 32.5848 64.4669 33.8372C64.5724 35.2121 65.0013 36.5972 63.919 37.7475H63.9224ZM61.3495 34.4736C59.8998 34.9058 60.2707 37.1077 61.8294 36.9239C63.7352 36.6959 62.9389 34.0005 61.3495 34.4736Z" fill="black"/>
<path d="M61.3481 34.4743C62.9408 33.9978 63.7338 36.6966 61.8279 36.9246C60.2692 37.1084 59.8983 34.9099 61.3481 34.4743Z" fill="white"/>
<path d="M177.926 110.919C182.293 114.053 180.029 117.902 174.918 116.119C176.997 117.718 178.103 120.9 176.868 123.334C176.599 123.865 176.024 124.29 175.826 124.675C175.544 125.219 175.541 125.944 175.159 126.591C174.911 127.013 174.339 127.39 174.227 127.646C173.788 128.629 174.05 129.796 173.168 131.161C172.787 131.753 171.613 132.618 171.535 133.121C171.497 133.36 171.759 135.728 171.845 135.984C172.09 136.715 175.86 141.568 176.63 142.528C179.008 145.506 184.107 151.091 187.646 152.384C194.323 154.821 204.359 148.777 209.89 145.217C212.16 143.757 214.409 142.212 216.461 140.462C212.078 137.743 210.659 132.066 211.891 127.247C208.95 128.33 206.034 129.456 203.049 130.429C199.251 131.668 192.37 132.89 189.535 135.398C188.946 135.919 187.962 137.607 187.231 137.093C186.465 136.555 188.398 134.503 188.83 134.098C190.307 132.703 192.138 132.039 193.996 131.318C189.906 124.994 185.652 118.695 182.037 112.076C181.656 111.375 180.183 108.655 179.638 107.209C179.104 108.206 178.573 109.207 178.052 110.207L177.926 110.915V110.919Z" fill="#F9D483"/>
<path d="M175.887 109.935C176.755 108.346 177.626 106.763 178.504 105.181C177.592 103.952 175.489 100.447 174.961 99.6811C168.706 90.625 160.17 89.165 150.352 85.7277L149.872 85.7141C150.124 93.4599 142.041 94.2121 136.154 92.9699C131.226 91.9285 124.412 88.3992 123.534 82.9336C114.961 88.5524 100.831 90.7373 95.6988 100.416C89.4232 112.246 89.92 135.766 92.2853 148.749C95.2904 165.225 104.547 165.102 118.569 160.447C128.098 157.281 137.348 152.337 145.696 146.823C145.802 146.391 144.532 145.819 144.209 145.53C140.581 142.29 139.839 137.461 140.527 132.815C136.198 134.04 131.855 135.273 127.492 136.375C122.445 137.651 113.777 138.843 109.734 141.674C108.267 142.702 107.11 144.189 105.837 145.346C103.843 144.917 106.742 142.134 107.525 141.456C109.05 140.139 110.758 139.305 112.623 138.594C112.913 138.485 113.202 138.781 113.093 138.179C110.704 137.913 108.618 138.206 106.399 139.135C105.783 139.394 103.693 140.738 103.441 140.765C102.669 140.84 102.625 140.235 102.982 139.693C103.288 139.224 105.082 138.267 105.67 138.009C108.23 136.879 110.833 136.634 113.603 136.811C114.002 136.464 114.437 132.169 114.495 131.328C114.723 128.003 114.733 123.929 114.689 120.581C114.607 114.475 113.426 107.383 109.598 102.424C109.179 101.883 107.324 100.246 107.222 100.018C106.919 99.3442 107.552 98.8609 108.267 99.1774C108.597 99.3238 109.809 100.392 110.115 100.712C114.155 104.905 115.822 112.552 116.081 118.198C116.377 124.593 115.982 131.236 115.278 137.583C115.639 137.944 124.048 135.654 125.26 135.341C131.93 133.622 138.92 131.757 145.492 129.732C146.83 129.32 148.81 128.878 150.001 128.275C152.254 127.142 156.348 118.705 158.333 116.136C161.331 112.249 165.476 111.715 169.747 109.86V105.688L170.241 105.392C171.078 106.055 170.448 109.326 170.935 109.677C172.613 109.323 174.236 109.724 175.887 109.939V109.935Z" fill="#F9D483"/>
<path d="M170.971 180.783C170.971 180.783 170.971 180.776 170.967 180.776L170.144 134.104C170.011 133.301 168.966 133.699 168.303 133.559C167.608 133.413 166.972 133.028 166.295 132.838C164.75 134.924 163.678 136.83 161.462 138.338C159.321 139.791 155.928 140.24 154.567 141.183C154.193 141.441 153.413 142.707 152.855 143.249C148.839 147.135 141.532 151.498 136.557 154.18C127.409 159.111 117.315 163.362 106.918 164.696C106.564 164.934 106.768 167.442 106.731 168.086C106.516 171.819 106.435 176.366 105.917 179.994C105.887 180.215 105.825 180.402 105.754 180.562L106.183 181.729C106.394 181.74 106.608 181.821 106.799 182.008C109.123 184.241 113.377 183.918 116.321 183.754C119.364 183.584 122.379 183.111 125.421 182.944C130.377 182.672 135.325 182.304 140.273 181.974C150.265 181.311 160.288 180.766 170.3 181.307C170.508 181.317 170.688 181.379 170.838 181.481L170.974 180.79L170.971 180.783Z" fill="#F9D483"/>
<path d="M247.417 113.793C246.999 113.341 245.774 113.181 245.716 113.113C245.614 112.987 245.678 111.67 245.028 111.02C243.48 109.471 239.498 111.333 237.691 111.997C233.117 113.678 228.764 115.955 224.224 117.707C224.636 114.957 227.937 109.767 225.116 107.576C222.036 105.183 221.233 110.251 220.28 112.078C219.089 114.372 217.135 116.268 215.968 118.5C214.872 120.6 214.566 122.863 213.636 125.011C207.807 127.287 201.953 129.547 195.885 131.15C192.928 126.879 190.045 122.54 187.363 118.088C185.165 114.44 183.269 110.571 180.88 107.069C180.329 106.929 180.026 107.201 180.002 107.742C179.965 108.518 181.571 111.207 182.047 112.078C185.662 118.698 189.912 124.997 194.006 131.32C192.148 132.042 190.314 132.705 188.84 134.101C188.412 134.509 186.475 136.558 187.241 137.096C187.972 137.61 188.956 135.922 189.545 135.401C192.38 132.893 199.261 131.667 203.059 130.432C206.044 129.459 208.96 128.332 211.901 127.25C210.665 132.066 212.085 137.746 216.471 140.465C214.416 142.214 212.166 143.756 209.9 145.219C204.369 148.779 194.33 154.823 187.656 152.387C184.117 151.097 179.018 145.509 176.64 142.531C175.874 141.571 172.1 136.718 171.855 135.986C171.769 135.731 171.507 133.362 171.545 133.124C171.623 132.62 172.797 131.759 173.178 131.164C174.057 129.799 173.798 128.632 174.237 127.648C174.349 127.396 174.921 127.015 175.169 126.593C175.554 125.947 175.557 125.222 175.836 124.677C176.034 124.293 176.609 123.867 176.878 123.336C178.113 120.9 177.004 117.721 174.928 116.121C180.039 117.905 182.303 114.056 177.936 110.921L178.062 110.213C185.09 96.6818 193.479 83.8107 200.609 70.3541C201.317 69.02 200.524 68.1182 199.179 68.7274C198.628 68.9758 197.447 71.7869 197.025 72.5322C189.98 84.9984 182.759 97.3693 175.894 109.934C174.244 109.72 172.62 109.318 170.942 109.672C170.456 109.322 171.085 106.051 170.248 105.387L169.755 105.683V109.856C165.484 111.711 161.342 112.245 158.34 116.132C156.356 118.701 152.262 127.138 150.009 128.271C148.821 128.87 146.837 129.312 145.5 129.728C138.925 131.753 131.938 133.618 125.267 135.336C124.056 135.649 115.646 137.943 115.285 137.579C115.99 131.232 116.385 124.589 116.089 118.194C115.827 112.548 114.162 104.901 110.123 100.708C109.813 100.388 108.601 99.316 108.275 99.173C107.56 98.8599 106.93 99.3398 107.23 100.014C107.332 100.242 109.187 101.879 109.605 102.42C113.434 107.378 114.615 114.471 114.697 120.576C114.741 123.925 114.731 128.002 114.503 131.324C114.445 132.161 114.009 136.459 113.611 136.806C110.841 136.629 108.234 136.871 105.678 138.001C105.093 138.26 103.299 139.216 102.989 139.686C102.632 140.23 102.676 140.832 103.449 140.758C103.701 140.734 105.79 139.386 106.406 139.127C108.625 138.195 110.711 137.906 113.101 138.171C113.209 138.773 112.92 138.477 112.631 138.586C110.766 139.298 109.057 140.128 107.533 141.448C106.747 142.126 103.85 144.91 105.845 145.338C107.118 144.181 108.275 142.694 109.741 141.666C113.785 138.835 122.453 137.644 127.5 136.367C131.863 135.265 136.205 134.033 140.534 132.808C139.847 137.453 140.592 142.282 144.217 145.522C144.54 145.808 145.809 146.383 145.704 146.815C137.356 152.329 128.105 157.274 118.576 160.439C104.551 165.094 95.2946 165.217 92.2929 148.742C89.9276 135.762 89.4307 112.238 95.7064 100.408C100.842 90.7295 114.969 88.5446 123.542 82.9258C124.423 88.3915 131.233 91.9207 136.161 92.9621C142.049 94.2043 150.131 93.4521 149.88 85.7063L150.36 85.7199C160.181 89.1572 168.717 90.6172 174.969 99.6733C175.585 100.565 177.269 103.778 177.8 104.2C178.484 104.744 178.995 103.403 178.821 102.794C178.753 102.546 178.072 101.514 177.868 101.147C176.973 99.5474 175.683 97.5565 174.523 96.1441C168.877 89.2831 159.902 87.316 151.836 84.5696C150.656 84.7159 149.492 84.9337 148.409 85.417C148.124 87.2684 147.715 89.2185 146.088 90.362C141.031 93.915 127.769 89.9331 125.587 84.0523C125.533 83.9025 125.485 83.7664 125.444 83.6371C124.91 82.6774 124.379 81.7177 123.845 80.7579C122.847 81.4862 120.646 82.7148 120.064 83.0279C112.587 87.054 102.145 89.7153 96.6083 96.3449C88.4507 106.112 88.7092 127.941 89.6451 140.056C90.0501 145.301 91.0337 154.303 93.8516 158.703C96.302 162.532 100.774 164.339 105.147 164.802C105.082 166.745 105.055 168.719 104.946 170.659C104.786 173.517 104.017 177.703 104.344 180.409C104.487 181.587 105.726 181.389 105.926 179.984C106.444 176.356 106.522 171.809 106.74 168.076C106.777 167.432 106.576 164.924 106.927 164.686C117.321 163.355 127.418 159.101 136.566 154.17C141.545 151.488 148.848 147.125 152.864 143.239C153.422 142.697 154.202 141.435 154.576 141.173C155.941 140.23 159.334 139.784 161.471 138.328C163.69 136.82 164.759 134.914 166.304 132.828C166.981 133.019 167.617 133.403 168.312 133.549C168.975 133.689 170.024 133.291 170.153 134.094L170.977 180.766C171.113 181.219 172.032 181.219 172.253 180.906C172.365 176.849 172.402 172.735 172.348 168.664C172.341 168.096 172.14 167.613 172.13 167.092C171.987 157.645 171.926 148.207 171.742 138.767C176.269 143.623 182.32 153.792 189.535 154.463C198.359 155.279 212.935 145.784 219.453 140.06C219.987 139.59 221.12 138.1 221.45 137.882C221.93 137.572 225.048 137.157 226.011 136.874C229.71 135.792 233.862 133.355 237.126 131.293C238.967 130.129 243.793 127.097 244.582 125.235C245.032 124.177 244.487 123.169 244.606 122.856C244.722 122.547 245.831 121.985 246.182 121.464C246.781 120.566 247.06 118.701 245.896 118.293V117.901C247.346 117.391 248.649 115.114 247.421 113.787L247.417 113.793ZM147.004 145.526C144.89 145.389 142.488 141.22 142.018 139.369C141.702 138.117 141.154 133.318 142.124 132.515C142.345 132.331 147.47 130.827 147.685 131.021C146.64 135.156 147.804 140.043 151.656 142.248C150.754 142.939 148.008 145.59 147.004 145.526ZM169.452 132.025C168.877 132.076 167.914 131.953 167.563 131.422C168.332 131.535 171.817 130.16 170.139 129.323C169.925 129.217 166.79 129.629 166.42 129.779C165.572 130.119 163.711 134.189 162.788 135.288C160.396 138.13 157.251 138.743 153.895 139.713C153.344 139.873 152.058 140.56 151.721 140.417C149.202 138.678 148.096 133.839 149.318 131.16C149.737 130.241 151.084 129.677 151.84 128.914C155.635 125.079 157.741 117.35 162.336 114.566C166.103 112.282 175.173 108.859 178.406 113.327C180.546 116.285 174.247 114.25 173.206 114.154C169.935 113.862 166.573 115.441 163.336 115.767C162.914 115.829 162.615 116.601 162.812 116.897C163.251 117.551 168.22 116.506 169.251 116.502C169.962 116.502 171.528 116.625 172.219 116.734C174.56 117.105 177.079 120.273 175.414 122.479C174.295 119.715 171.96 119.344 169.254 119.501C168.485 119.545 164.817 119.953 164.602 120.624C164.48 121.162 164.735 121.577 165.283 121.679C167.818 122.159 172.709 119.637 174.022 123.081C174.526 124.398 174.417 125.058 173.723 126.256C171.467 123.894 168.38 124.871 165.518 125.106C164.963 125.314 164.789 125.923 165.16 126.375C166.028 127.441 172.079 125.068 172.692 127.791C173.076 129.506 171.218 131.868 169.455 132.032L169.452 132.025ZM246.294 115.832C245.304 117.547 236.326 120.461 234.655 122.673C232.674 120.035 232.423 124.752 234.219 125.038C234.818 124.786 234.74 124.248 234.781 123.694C236.701 123.425 243.384 118.681 244.77 118.939C245.995 119.167 244.964 120.685 244.286 121.172C242.455 122.485 239.127 123.806 237.01 125.024C236.391 125.382 233.76 126.77 233.641 127.233C233.512 127.743 233.733 128.206 234.271 128.247C235.237 128.322 241.281 123.7 243.051 123.7L243.5 123.976C243.796 125.147 240.318 127.543 239.392 128.2C235.935 130.657 230.078 134.162 226.055 135.333C224.316 135.84 222.114 135.86 220.586 136.425C219.242 136.922 218.456 138.399 217.077 138.879C213.65 136.919 212.197 131.382 213.3 127.75C213.718 126.369 214.436 126.685 214.892 126.11C215.474 125.375 216.298 121.373 216.897 120.018C218.006 117.517 219.99 115.607 221.277 113.266C221.757 112.395 223.036 108.695 223.431 108.45C223.731 108.263 224.119 108.566 224.313 108.774C225.956 110.53 222.917 115.301 222.652 117.421C222.328 120.004 223.928 121.713 223.295 124.422C223.121 125.167 222.448 126.117 222.315 126.835C222.186 127.543 222.706 127.628 223.207 127.114C224.609 125.671 225.146 123.159 224.762 121.236C224.636 120.6 223.972 119.722 224.513 119.283L240.818 112.327C241.564 112.156 243.446 111.466 244.055 111.986C244.375 112.259 244.341 113.075 243.97 113.341C243.691 113.542 242.816 113.688 242.381 113.889C240.621 114.689 238.865 115.526 237.143 116.404C235.972 117.003 233.164 118.259 232.303 118.919C231.463 119.562 231.905 120.709 232.974 120.403C236.098 118.817 239.365 116.833 242.578 115.481C243.412 115.131 247.69 113.419 246.301 115.825L246.294 115.832Z" fill="black"/>
<path d="M157.685 50.6371C156.314 50.256 151.879 50.1436 150.988 51.2497C150.477 51.8827 149.865 54.0166 151.059 54.1731C151.716 54.2582 153.908 53.5299 154.908 53.4891C156.065 53.4448 156.92 53.7137 158.009 54.0166C158.084 55.8373 157.73 57.6444 157.852 59.4686C157.965 61.1362 158.584 62.8583 158.696 64.5055C158.9 67.4663 157.992 70.1617 157.352 72.9898L156.715 71.1928C156.008 69.5831 153.009 68.2728 151.325 68.2184C150.011 68.1776 149.218 68.249 147.84 68.1333C146.036 67.9836 143.504 68.7901 141.806 69.4572C139.699 70.2842 138.14 71.4107 137.439 73.6636L137.14 73.8066C133.073 72.6869 129.881 70.3216 128.322 66.3092C127.335 63.7635 127.345 60.881 125.844 58.5327C125.412 58.4714 125.705 58.7063 125.742 58.9717C126.028 61.0886 126.855 64.4782 126.607 66.5202C126.314 68.9263 124.163 68.6643 122.519 67.742C119.194 65.877 116.56 60.755 118.616 57.1816C119.936 54.8878 123.122 55.2962 124.749 57.1068C124.936 57.3178 125.327 58.2775 125.593 58.0256C126.501 54.7891 128.836 52.2026 131.395 50.1266L130.983 43.0716C137.576 41.4006 144.746 40.3661 151.536 41.4041C153.03 41.6321 154.49 41.6729 155.204 43.1159C156.317 45.3688 156.933 48.231 157.692 50.6269L157.685 50.6371ZM144.916 50.9741C144.528 50.9468 144.324 50.6541 143.919 50.5452C142.146 50.062 136.051 50.0518 134.584 51.1442C134.091 51.5118 131.456 54.8129 131.81 55.1771C132.688 55.0341 133.441 54.4998 134.295 54.2173C136.231 53.5741 137.77 53.4584 139.798 53.4891C141.302 53.5095 145.651 54.5407 145.747 52.2196C145.771 51.6649 145.267 50.5691 144.75 50.3002L144.916 50.9706V50.9741ZM144.243 64.257C143.021 64.5599 142.983 66.0369 143.817 66.7822C144.695 67.565 146.135 67.1532 147.169 67.2961C148.037 67.4152 148.633 67.9972 149.678 67.9393C152.033 67.81 155.739 66.3058 154.163 63.3245C153.227 61.5548 151.066 61.4833 150.331 59.5911C149.78 58.172 149.688 56.6269 150.123 55.1737C148.585 56.7188 148.922 59.278 150.205 60.8912C151.022 61.9156 152.431 62.2389 153.122 63.3517C154.578 65.7034 152.121 66.8027 150.168 67.0613C148.646 67.2621 148.446 66.6631 147.316 66.4725C145.713 66.2003 142.96 67.1532 144.246 64.2502L144.243 64.257ZM124.919 63.0761C125.007 60.544 122.615 56.78 119.793 58.5361L119.715 59.2099C119.984 59.2508 119.821 58.9343 120.083 58.8186C120.814 58.4919 122.182 58.8934 122.666 59.5537C122.251 60.9899 121.938 62.5928 122.54 64.0358C122.662 64.3319 123.037 65.1248 123.415 64.8424C122.884 63.4947 122.938 61.9189 123.415 60.5576L124.922 63.0761H124.919ZM123.615 67.2417C124.061 67.6841 125.222 67.582 125.269 66.6937C125.375 64.8117 122.404 66.0403 123.615 67.2417Z" fill="#FCF7ED"/>
<path d="M147.942 85.9388C148.442 88.6444 148.068 90.1656 145.481 91.2955C139.335 93.9739 127.924 88.8962 124.582 83.3387C123.585 81.6847 124.609 81.6711 125.011 80.0613C125.65 77.5089 125.507 73.6087 125.558 70.8963C125.569 70.3858 125.276 69.6541 125.419 69.0755L126.348 68.6229C127.6 75.1708 132.423 80.109 138.025 83.3353C139.502 84.1861 143.565 85.9388 145.168 85.9388H147.942Z" fill="#FCF7ED"/>
<path d="M155.837 72.4932C156.511 74.6338 154.792 80.1675 151.927 79.5175C151.195 79.3508 150.964 78.4761 151.168 77.8193C151.352 77.2237 154.418 76.4206 153.823 74.6781C153.533 74.6747 153.632 75.0899 153.441 75.3043C151.767 77.1693 145.11 76.7098 143.072 75.1818C142.871 75.3928 143.694 76.053 143.854 76.1619C144.988 76.9447 146.543 77.2475 147.741 77.9044C147.962 80.4738 144.137 80.0961 142.52 79.5141C140.38 78.745 138.797 76.4818 139.28 74.1642C139.764 71.85 140.778 73.0207 142.316 73.1636C143.984 73.3167 145.981 73.1432 147.697 73.1602C149.752 73.1806 151.998 73.4222 154.061 73.1534C154.704 73.0683 155.238 72.6838 155.837 72.4966V72.4932Z" fill="#FCF7ED"/>
<path d="M155.501 72.1524C154.391 72.4825 153.204 72.2579 152.057 72.3226C150.267 72.4247 149.78 72.4247 148.027 72.3158C145.516 72.1592 142.878 72.8603 140.377 72.3192C140.734 71.6623 141.323 71.4139 141.969 71.1416C144.74 69.9777 148.102 70.1717 151.039 70.1308C152.805 70.107 154.943 70.1411 155.497 72.1524H155.501Z" fill="#FCF7ED"/>
<path d="M144.916 50.9732L144.75 50.3027C145.267 50.5716 145.767 51.6675 145.747 52.2222C145.652 54.5398 141.302 53.5121 139.798 53.4916C137.77 53.461 136.231 53.5767 134.295 54.2199C133.441 54.5024 132.688 55.0367 131.81 55.1796C131.456 54.8155 134.091 51.5143 134.584 51.1468C136.051 50.0543 142.143 50.0645 143.919 50.5478C144.324 50.6567 144.532 50.9494 144.916 50.9766V50.9732Z" fill="black"/>
<path d="M144.242 64.2574C142.952 67.1638 145.706 66.2109 147.312 66.4797C148.442 66.6703 148.646 67.2693 150.164 67.0685C152.117 66.8099 154.575 65.7106 153.118 63.359C152.427 62.2427 151.018 61.9228 150.201 60.8984C148.918 59.2852 148.581 56.726 150.12 55.1809C149.684 56.6307 149.776 58.1792 150.327 59.5983C151.062 61.4906 153.223 61.562 154.159 63.3317C155.735 66.313 152.032 67.8173 149.674 67.9466C148.629 68.0044 148.03 67.4225 147.166 67.3034C146.131 67.1604 144.691 67.5722 143.813 66.7895C142.98 66.0441 143.017 64.5671 144.239 64.2642L144.242 64.2574Z" fill="black"/>
<path d="M124.918 63.075L123.411 60.5565C122.934 61.9144 122.88 63.4936 123.411 64.8413C123.029 65.1271 122.658 64.3308 122.536 64.0347C121.937 62.5917 122.25 60.9888 122.662 59.5526C122.182 58.8957 120.814 58.4941 120.079 58.8175C119.817 58.9332 119.98 59.2497 119.711 59.2088L119.79 58.535C122.614 56.7789 125.003 60.5429 124.915 63.075H124.918Z" fill="black"/>
<path d="M123.615 67.2423C122.403 66.0409 125.374 64.8124 125.269 66.6944C125.221 67.5826 124.057 67.6847 123.615 67.2423Z" fill="black"/>
<path d="M118.633 65.2505C119.854 67.1938 122.237 69.719 124.752 69.3004C124.309 73.0236 124.946 76.8522 124.074 80.555C124.01 80.5448 123.952 80.5516 123.887 80.5448V83.5669C126.596 87.8244 131.419 90.7614 136.18 92.0784C139.542 93.0075 144.412 93.5963 147.326 91.2923C147.931 90.8125 148.952 89.669 148.952 88.8828C148.952 88.1954 148.82 86.5516 148.952 86.0241C148.963 85.9866 149.068 85.8845 149.16 85.8199L149.129 85.7484L149.837 85.4659L149.793 85.4387C149.98 85.3911 150.167 85.3264 150.358 85.2583L150.395 85.2447C151.849 84.7002 153.302 83.5499 154.248 82.4132C156.535 79.6702 159.7 69.7666 159.72 66.1932C159.734 63.6339 158.795 61.1632 158.693 58.6345C158.56 55.3402 159.196 53.3799 158.454 49.7962C158.24 48.7684 157.389 46.8116 157.358 46.0016C157.341 45.583 158.083 44.7118 158.182 43.9903C158.376 42.5745 157.706 41.853 157.706 41.1485C157.706 40.8559 158.083 40.3522 158.189 39.9608C158.546 38.6403 158.359 37.6738 157.529 36.6086C157.365 36.3975 156.977 36.3465 156.882 36.0777C156.562 35.1588 157.175 34.4509 156.256 33.1747C155.259 31.7861 154.357 32.2592 153.496 31.7351C153.332 31.6364 152.876 30.629 152.573 30.3057C151.124 28.7538 149.994 29.7033 148.731 29.2745C148.34 29.1418 147.805 27.903 146.311 27.6614C145.018 27.4538 143.48 28.1583 143.02 28.0834C142.52 28.0017 141.72 27.1951 140.635 27.1169C139.073 27.0046 138.293 27.9983 137.419 28.0834C137.044 28.1208 135.904 27.6273 135.278 27.6409C133.852 27.6716 133.049 28.8117 132.225 28.9614C131.596 29.0771 131.109 28.7878 130.554 28.7878C129.258 28.7878 128.002 29.5195 127.199 30.4895C127.052 30.6664 126.981 31.085 126.916 31.1259C126.664 31.2858 124.724 31.0578 123.527 31.8542C122.335 32.6438 122.492 33.7634 121.995 34.1888C121.723 34.4237 121.008 34.5257 120.569 34.7776C119.429 35.4344 118.735 36.6971 118.551 37.9835C118.507 38.2932 118.718 38.5927 118.639 38.8922C118.551 39.2427 118.078 39.515 117.897 39.8349C117.23 41.0158 116.979 41.8598 117.271 43.262C117.431 44.0209 118.109 44.4327 118.18 44.7152C118.34 45.3686 117.69 46.393 118.085 47.6624C118.432 48.7787 119.17 49.0577 119.511 49.7656C119.834 50.4326 119.749 51.6715 120.045 52.5903C120.304 53.3867 120.8 54.064 121.229 54.7684C115.873 55.6124 116.363 61.6396 118.636 65.2607L118.633 65.2505ZM145.481 91.2957C139.335 93.9741 127.924 88.8964 124.582 83.3389C123.584 81.6849 124.605 81.6713 125.01 80.0615C125.65 77.5091 125.507 73.6089 125.558 70.8965C125.568 70.386 125.276 69.6543 125.419 69.0758L126.348 68.6231C127.6 75.171 132.423 80.1092 138.024 83.3355C139.505 84.1863 143.565 85.939 145.168 85.939H147.942C148.442 88.6446 148.067 90.1658 145.481 91.2957ZM151.927 79.517C151.195 79.3502 150.964 78.4756 151.168 77.8188C151.352 77.2232 154.418 76.42 153.822 74.6776C153.533 74.6742 153.632 75.0894 153.441 75.3038C151.767 77.1688 145.11 76.7093 143.071 75.1812C142.874 75.3922 143.694 76.0525 143.854 76.1614C144.988 76.9441 146.543 77.247 147.741 77.9039C147.962 80.4733 144.137 80.0956 142.52 79.5136C140.38 78.7445 138.797 76.4813 139.28 74.1637C139.764 71.8494 140.778 73.0202 142.316 73.1631C143.984 73.3162 145.981 73.1427 147.697 73.1597C149.752 73.1801 151.998 73.4217 154.061 73.1529C154.704 73.0678 155.238 72.6832 155.837 72.4961C156.511 74.6367 154.792 80.1704 151.927 79.5204V79.517ZM140.38 72.3225C140.737 71.6657 141.326 71.4172 141.972 71.145C144.742 69.9811 148.105 70.175 151.042 70.1342C152.808 70.1103 154.945 70.1444 155.5 72.1557C154.391 72.4859 153.203 72.2612 152.06 72.3259C150.269 72.428 149.783 72.428 148.03 72.3191C145.518 72.1625 142.881 72.8636 140.38 72.3225ZM124.745 57.1167C124.932 57.3277 125.323 58.2874 125.589 58.0356C126.501 54.7991 128.832 52.2125 131.392 50.1365L130.98 43.0816C137.572 41.4106 144.743 40.376 151.532 41.414C153.026 41.642 154.486 41.6828 155.201 43.1258C156.314 45.3788 156.93 48.241 157.689 50.6369C156.317 50.2557 151.883 50.1434 150.991 51.2494C150.48 51.8824 149.868 54.0163 151.062 54.1729C151.719 54.2579 153.911 53.5296 154.911 53.4888C156.069 53.4446 156.923 53.7134 158.012 54.0163C158.087 55.837 157.733 57.6442 157.855 59.4683C157.968 61.1359 158.587 62.858 158.699 64.5052C158.904 67.466 157.995 70.1614 157.355 72.9895L156.719 71.1926C156.011 69.5828 153.012 68.2726 151.328 68.2181C150.014 68.1773 149.221 68.2488 147.846 68.133C146.043 67.9833 143.511 68.7899 141.809 69.4569C139.702 70.2839 138.14 71.4104 137.443 73.6634L137.143 73.8063C133.076 72.6866 129.884 70.3214 128.325 66.3089C127.338 63.7632 127.348 60.8807 125.848 58.5324C125.415 58.4712 125.708 58.706 125.745 58.9715C126.031 61.0883 126.858 64.4779 126.61 66.5199C126.317 68.926 124.166 68.664 122.523 67.7417C119.198 65.8767 116.563 60.7548 118.619 57.1813C119.939 54.8875 123.125 55.2959 124.752 57.1065L124.745 57.1167Z" fill="black"/>
<path d="M152.969 59.5837C152.221 58.9916 152.343 56.1362 154.627 57.0109C156.458 57.7086 154.773 61.0131 152.969 59.5837Z" fill="black"/>
<path d="M140.461 56.9076C142.415 56.4856 142.622 59.8616 140.883 59.9944C139.073 60.0148 139.086 57.2037 140.461 56.9076Z" fill="black"/>
</svg>
