<svg width="276" height="174" viewBox="0 0 276 174" fill="none" xmlns="http://www.w3.org/2000/svg">
<path d="M275.475 127.906L257.146 121.93C258.354 116.003 259.667 110.058 260.405 104.041C260.738 101.333 261.479 96.3722 260.286 93.9443C259.162 91.6622 255.748 90.9619 253.448 90.6934L252.911 88.388H258.873C258.905 88.388 259.197 88.105 259.238 88.0174C259.562 87.3229 259.296 81.8746 259.326 80.5848C259.857 55.4855 259.795 30.3511 260.058 5.21098C260.011 4.31509 260.793 4.71489 261.348 4.48435C263.075 3.75772 262.819 0.217963 260.534 0.3522C219.635 0.279245 178.591 0.477681 137.792 0.369708C131.057 0.352199 123.831 -0.0650989 117.119 0.22672C114.362 0.346365 114.14 4.1225 116.804 4.50186L117.426 88.032L119.08 88.3968L170.236 88.4231C172.825 91.8286 175.092 95.4821 177.972 98.6601C179.128 99.9353 180.456 101.07 181.684 102.273C181.789 102.375 182.046 102.264 181.918 102.693C178.623 102.06 175.255 101.937 171.923 101.59C168.882 101.275 165.582 100.65 162.564 100.493C161.032 100.411 159.322 100.14 159.55 102.214C159.734 103.887 161.196 106.265 161.555 108.007H133.671L137.707 95.6397C137.579 95.1115 137.08 94.7117 136.525 94.7964L112.952 100.595C111.689 101.275 110.51 107.426 109.731 108.926L106.704 109.659C107.396 106.428 106.649 103.113 106.094 99.9061C104.994 93.5328 103.331 84.7666 100.921 78.8543C99.1638 74.5471 96.3886 72.9421 91.8449 72.2476L95.7962 70.9723C100.681 68.2088 98.0636 60.7732 98.122 56.3318C100.5 54.7034 100.203 51.1053 97.5238 49.938C98.799 37.67 81.3191 33.2431 74.4497 42.1144C71.0908 46.4508 71.3476 51.5985 70.2562 56.6294C69.1648 61.6633 65.0298 67.9491 71.8525 71.054L74.0499 71.696C68.3857 73.0121 64.1047 76.5198 62.4034 82.1519C61.1194 86.4037 60.9647 91.2975 60.8421 95.7214L58.5485 88.0233C57.2382 84.9767 53.3687 83.1674 50.967 80.9642L51.3085 79.9516C53.1236 80.7541 57.4512 81.3669 58.7411 79.5926C59.3801 78.7142 59.2255 77.6287 59.4618 76.6453C59.5611 76.2338 59.9726 75.7815 60.0659 75.2328C60.1856 74.515 60.0105 73.7592 60.1184 73.0851C60.206 72.5452 60.6904 72.1717 60.8013 71.5647C60.9239 70.8877 60.7838 70.1931 60.8626 69.5161C62.5814 69.4111 63.8362 68.2205 63.2701 66.4316C62.9578 65.4423 61.134 63.3646 61.0669 62.956C61.0114 62.6234 61.6505 61.7829 61.3149 60.6886C61.061 59.8628 60.066 59.8015 59.9522 59.4834C59.8208 59.1099 59.993 58.4825 59.9259 58.0418C59.6019 55.8765 59.7274 56.4456 60.0689 54.5108C60.9093 49.7483 55.3298 46.4391 51.4223 45.4528C34.99 41.3089 25.9728 54.9544 33.6009 69.3206C34.3071 70.6484 35.2001 72.2767 36.4608 73.1026C36.4491 75.2095 35.2526 75.3613 34.0591 76.5548C32.8218 77.7892 31.5932 79.3241 30.458 80.6665C29.4133 80.4418 28.4766 80.1879 27.3823 80.3368C26.8803 80.4039 26.3638 80.7628 25.9027 80.7803C25.2169 80.8066 24.0993 80.3805 23.326 80.3222C18.3884 79.9574 12.9139 81.2764 9.6572 85.1751C8.6621 86.3657 8.04639 87.5038 6.99293 88.747C5.66807 90.3082 4.73713 92.6924 4.54745 94.738C3.8004 102.827 9.7681 109.32 12.5871 116.356C12.0939 116.881 11.5424 116.403 10.9296 116.89C10.5619 117.182 9.8702 118.731 9.62799 119.257C9.38578 119.779 8.9539 121.404 8.6971 121.717C8.62707 121.801 7.14176 122.563 6.77699 122.826C4.27902 124.629 2.23336 126.745 0.488281 129.283V130.935C2.12538 128.787 3.72746 126.549 5.80521 124.789C6.69525 124.037 8.78464 122.449 9.92565 122.496C12.0034 122.578 16.5178 123.94 18.6072 124.652C25.4737 126.984 36.382 134.291 39.5949 140.901C43.6745 149.296 45.4458 160.094 48.7317 168.994C48.898 169.449 49.5459 171.416 49.6947 171.606C49.861 171.816 50.5293 171.784 50.5818 171.53C48.1189 164.275 46.1929 156.799 43.8292 149.501C41.9469 143.688 40.1522 137.609 35.1592 133.687C40.0617 133.836 45.0198 134.034 49.934 133.877C52.3853 133.798 54.8978 133.276 57.2674 133.121C58.0932 133.068 59.8938 133.789 59.3744 132.035C60.4774 132.018 61.4696 132.245 62.5931 132.225C63.1533 132.213 64.4315 132.114 64.9539 132.018C66.6844 131.703 67.9188 129.569 69.6464 131.113L55.0875 138.841L54.7898 139.456L78.3192 144.656C84.8968 140.393 91.9238 136.488 98.3613 132.035C98.9099 131.656 99.832 131.32 99.7328 130.565L79.5419 127.182C79.3084 127.022 79.3551 125.913 79.2442 125.464C79.002 124.489 77.9019 122.738 77.1724 122.032L75.8825 121.031C78.3484 120.555 80.7705 119.869 83.2101 119.277C83.855 119.119 85.5592 119.283 85.2382 118.279L88.3548 118.463L83.2159 120.199C82.7869 120.622 83.0087 121.615 83.639 121.801C90.7536 123.272 97.9002 125.116 105.099 125.936L129.694 117.882L130.216 117.304L133.415 108.95H161.616L166.676 123.33C167.099 124.387 168.596 124.436 169.585 124.638C181.489 127.08 193.85 128.303 205.806 130.337L221.322 123.672L221.167 123.047C221.97 123.114 222.641 123.021 223.406 122.808C224.789 122.423 225.276 121.553 226.948 121.399C230.651 121.057 234.425 121.078 238.134 120.66C240.2 120.427 243.252 119.578 245.105 119.545C246.932 119.516 251.925 121.291 253.959 121.895C261.298 124.077 268.509 126.68 275.831 128.913L275.991 128.294L275.466 127.903L275.475 127.906ZM114.411 101.409L113.332 102.071L112.027 105.626C112.424 104.304 112.59 101.231 114.408 101.412L114.411 101.409ZM110.74 109.662C109.827 113.499 108.251 117.196 107.256 121.031L107.157 120.29L110.74 109.665V109.662ZM97.8098 51.1578C99.6045 52.4768 98.7465 55.7627 96.6979 56.1012C93.1698 56.6819 93.1115 50.7376 95.8137 50.4779C96.2631 50.4341 97.4216 50.8748 97.8068 51.1578H97.8098ZM84.2752 50.2853C87.2838 48.1317 89.9248 45.0851 90.3801 41.2593C93.5113 42.768 96.3215 45.7096 96.6162 49.3281C95.662 49.2639 94.448 49.2697 93.7651 50.0547C93.3362 50.5508 93.4908 51.6977 93.0181 52.2726C91.2205 52.7599 91.6232 50.7464 90.8178 50.081C90.1204 49.5061 88.133 49.2464 87.2517 49.4127C85.317 49.7775 85.5446 50.9623 84.5699 52.2434L82.1274 51.8932C81.7889 51.6043 84.0534 50.4458 84.2781 50.2853H84.2752ZM88.2702 56.8599C84.3189 56.8599 84.4095 50.9944 88.3227 50.6471C92.1485 50.3086 92.1864 56.8599 88.2702 56.8599ZM78.5818 71.3663C82.1011 69.7875 80.8638 66.2653 80.8434 63.172L82.1333 52.8183L84.319 53.183C84.1176 59.32 92.3002 59.1828 92.2156 53.1743L92.9277 53.1976C92.9802 54.5517 95.4256 58.2694 93.9403 59.2091C93.2545 59.641 91.2322 59.2879 92.3353 60.2976C94.5764 60.6857 95.9129 59.2062 95.1513 57.0263H97.1678C97.0948 57.9368 97.267 58.9756 97.1678 59.8686C96.5199 65.6057 92.8605 70.2048 86.6623 67.9841C86.1546 67.8031 84.6137 66.6796 84.3278 67.3888C84.1789 67.7565 84.3569 67.7565 84.5495 67.9024C85.6205 68.7049 87.3889 69.3819 88.7283 69.4957L87.8121 74.8126L88.5182 74.7864L89.096 72.6094L90.3801 72.7962C88.3374 80.0012 79.4982 76.9487 76.4428 72.1542C76.437 71.9674 78.2375 71.518 78.5847 71.3633L78.5818 71.3663ZM57.3929 87.711C60.0368 94.9715 61.1019 102.699 63.2439 110.102C63.8013 112.028 64.0026 113.032 65.3362 114.611C66.7982 116.344 68.768 117.611 70.2008 119.376C66.6318 119.49 63.9617 122.621 60.743 123.771L57.2703 120.841C57.1215 119.607 57.139 118.317 57.1653 117.077C57.3287 109.676 57.8248 102.092 56.3832 94.7701C56.2898 94.3003 55.893 91.8782 55.4319 91.8724C55.0175 92.1963 55.1371 92.7799 55.1604 93.241C55.2859 95.9695 56.1293 98.9956 56.2664 101.855C56.5466 107.689 56.5641 115.116 56.2664 120.943C56.2256 121.74 55.9309 122.563 56.0739 123.409L51.4865 123.044L51.1217 113.966C52.896 105.626 53.6197 96.6377 52.9514 88.1108C52.8172 86.3832 52.3532 84.5331 51.8542 82.8814C53.6518 84.4748 56.0126 85.7646 57.39 87.7081L57.3929 87.711ZM58.8286 123.596H57.177V122.131L58.8257 123.596H58.8286ZM48.1889 87.104C49.8465 88.0087 51.0429 89.4736 52.0351 91.0494C52.2569 97.7817 51.7987 104.464 50.9349 111.127L50.5731 108.833C50.3338 101.543 49.3329 94.2944 48.1889 87.104ZM49.6539 109.843L46.6744 101.546L42.907 92.8499C42.8486 92.1963 46.4847 88.1984 47.1793 87.4717C48.5391 94.8401 49.3679 102.349 49.6539 109.843ZM52.038 89.3043L50.8561 87.8307L48.4136 85.9163L50.4797 81.9768C51.1275 81.9797 52.0643 88.4464 52.038 89.3073V89.3043ZM50.4184 57.8813C50.9612 57.035 52.1314 56.2822 52.7705 55.4621C53.8356 54.0993 54.498 52.15 54.428 50.4224C57.2703 52.1733 58.604 55.2549 59.0125 58.4883C57.7285 58.2607 56.9231 57.7266 55.5603 58.0652C54.892 58.2315 52.7267 59.5826 53.5584 60.2801C54.2062 60.8229 56.0155 59.5418 56.2606 59.7752C56.2577 60.0087 55.9776 60.7207 55.8462 60.8258C55.2889 61.281 49.8406 61.7333 48.7404 61.9726C49.505 60.7645 49.6655 59.0574 50.4213 57.8784L50.4184 57.8813ZM58.8053 63.5163C58.2741 68.5677 55.3735 64.1904 56.7713 61.1176C57.0193 60.5719 57.9794 59.39 58.6039 60.0058C58.9191 60.318 58.8665 62.9356 58.8053 63.5163ZM37.3975 73.3827C39.2038 73.0675 40.479 72.2009 41.2144 70.4937C41.4129 70.3712 42.2854 71.0365 42.6385 71.1095C44.4303 71.4771 45.9011 69.77 44.6112 69.6708C43.9984 69.6241 43.6074 70.2982 42.4955 69.9626C40.4616 69.3469 38.7574 65.7779 40.0355 63.8198C41.5384 61.5203 43.0208 62.244 44.7921 63.6331C46.7852 65.1943 46.8145 66.169 48.4954 63.1078L55.5281 61.9785C55.3735 63.2245 55.6274 66.3732 57.1273 66.7088C58.2887 66.9685 59.138 66.3586 59.4327 65.241L59.9288 62.8977C60.2352 64.205 63.4627 66.7964 61.9423 68.1154C61.2682 68.7019 60.5182 68.1387 59.7478 68.2146C59.4764 68.7545 60.2352 69.2331 60.2498 69.4023C60.2586 69.5132 59.8033 71.3137 59.7099 71.5676C58.8724 73.8234 56.9785 71.5443 55.534 72.5219C56.4357 73.4557 57.959 73.5753 59.1992 73.5286C59.4327 74.7951 58.5864 75.8369 58.3238 76.9633C58.1283 77.7979 58.5514 78.6967 57.533 79.292C55.9922 80.1908 53.3424 79.5605 51.7199 79.079C50.6022 78.7463 48.9739 77.7833 48.0576 77.5966C47.795 77.544 47.3339 77.5557 47.2755 77.8417C47.1413 78.4983 49.8844 79.4175 50.398 79.6743C49.6159 81.1188 49.1344 82.7618 48.2882 84.1683C48.1306 84.4281 47.7308 85.2977 47.3981 85.2481C44.6784 82.9398 41.4216 80.9846 38.7515 78.6588C38.2204 78.1948 36.8984 77.0742 36.7088 76.4672C36.5045 75.8136 37.4763 74.2173 37.4033 73.3769L37.3975 73.3827ZM35.8946 76.4672C35.9442 76.8057 36.1076 77.1647 36.2944 77.4478C37.8761 79.8144 42.0783 82.3211 44.4187 84.1771C44.7747 84.4572 46.6481 85.9017 46.6919 86.1206L42.4109 91.6827C40.231 87.7227 37.0998 83.7861 35.4423 79.581C34.9462 78.3203 34.2108 77.0567 35.8946 76.4672ZM33.9715 78.1189C35.2789 82.6538 38.235 86.4183 40.5141 90.4658C44.7513 97.9976 47.2551 106.279 50.1616 114.38L50.5701 122.866L37.021 121.282V119.502C38.5852 118.714 38.7427 117.456 39.1075 115.898C39.7816 113.018 40.0472 109.883 40.1318 106.927C41.9352 106.708 43.1463 105.351 42.0315 103.618C41.5004 102.792 39.5948 101.4 39.2446 100.536C38.7865 99.4071 39.1075 97.4782 38.9908 96.2059C38.7194 93.3023 36.8051 89.6341 34.8236 87.5359C36.5074 84.536 34.4822 81.968 31.494 81.2326C31.2576 80.9233 33.5601 78.4283 33.9715 78.1189ZM23.4252 108.561L24.4232 109.851C25.4183 110.922 28.3423 111.806 28.3744 109.662C24.7996 110.703 23.4252 107.307 23.8367 104.298C23.9738 103.288 24.7821 101.062 25.9086 100.869C28.4795 100.431 28.4211 102.95 29.6497 103.341C32.0076 104.097 31.6165 100.998 31.9142 99.5355C32.2177 98.0443 32.8335 96.3634 32.9589 94.8956C33.0523 93.7808 32.5387 89.3073 32.9589 88.8433C33.1224 88.6623 33.7585 88.5281 33.9715 88.2363C34.9229 88.2392 37.4762 93.5999 37.6572 94.6213C37.7885 95.3537 37.3625 95.3275 37.0269 95.8469C36.6796 96.378 35.7546 97.6941 36.1631 98.2982C36.8168 99.2612 37.4704 97.02 37.6835 96.6961C37.8002 96.5181 37.6601 96.3693 38.0949 96.4597C38.2175 97.627 37.9286 99.0949 38.0949 100.218C38.3517 101.963 40.9081 103.134 41.4158 104.803C41.4158 105.766 40.1027 105.871 39.376 106.084L39.2214 106.294C39.0463 108.964 38.8799 111.646 38.4072 114.281C38.2204 115.329 37.9081 117.809 36.9831 118.358C35.2205 119.408 31.0708 117.619 29.1098 117.631C28.497 117.94 27.7587 122.405 27.3181 123.371C27.2539 123.511 27.2859 123.721 27.0058 123.599C26.8132 123.514 25.4358 122.143 24.9514 121.801C21.6626 119.484 17.5217 117.818 13.626 116.837L13.3341 115.626C18.2279 115.37 22.5993 114.007 23.4281 108.564L23.4252 108.561ZM9.84685 121.579L11.5248 117.576C12.2689 117.109 18.1724 119.283 19.2668 119.773C23.4981 121.664 27.8579 124.419 29.2878 129.1C23.612 124.956 16.8155 122.478 9.84393 121.579H9.84685ZM53.2345 132.584C48.7288 132.867 43.8058 133.115 39.2826 132.957C38.3109 132.922 34.1028 132.753 33.5163 132.488C33.3529 132.415 30.852 130.398 30.7528 130.252C30.4084 129.733 30.0436 128.09 29.6905 127.325C29.2615 126.392 28.6867 125.525 28.0972 124.684L29.6526 118.72L36.0814 119.744L36.0551 121.553L35.346 121.766L35.6524 122.283L56.2577 124.331C55.0671 126.891 54.7811 129.853 55.5252 132.581C54.7665 132.613 53.9932 132.537 53.2345 132.584ZM58.2771 132.216L56.57 132C56.1468 131.811 56.106 131.09 56.068 130.667C55.8959 128.624 56.3861 126.581 57.2061 124.731L58.6419 124.702C57.5855 127.188 57.4659 129.642 58.2742 132.219L58.2771 132.216ZM79.0049 128.18L97.9002 131.116L78.1382 143.553L56.6283 139.179L70.7494 131.563C71.9371 131.25 73.8952 133.001 75.3397 132.304C75.7395 132.111 75.7804 131.437 75.9292 131.335C76.1247 131.198 76.6266 131.326 76.9856 131.017C77.2482 130.792 77.3037 130.27 77.3825 130.223C77.648 130.063 78.1733 130.401 78.6489 129.931C79.0954 129.491 79.0137 128.758 79.0049 128.177V128.18ZM75.9496 122.344C77.1898 123.217 78.5556 125.531 78.4534 127.083C76.7988 125 75.1559 122.575 72.261 122.178C71.8934 122.128 68.6396 122.008 69.8302 122.776C71.8496 123.094 73.3495 123.275 74.972 124.606C75.5936 125.113 78.6577 128.641 78.0886 129.283C77.7443 129.362 77.6539 129.088 77.4467 128.919C76.6763 128.288 76.0167 127.36 75.2405 126.724C74.4059 126.038 70.1775 123.406 69.3662 124.506L69.2845 125.064C71.4469 125.44 73.9536 126.724 75.5265 128.271C76.0751 128.811 76.7813 129.569 76.6208 130.384C76.3231 130.457 76.1948 130.325 75.9759 130.206C75.1179 129.745 74.225 128.86 73.262 128.335C72.5207 127.932 68.9897 126.339 68.4499 127.074L68.3711 127.629C69.7397 128.002 71.1113 128.388 72.3836 129.03C72.8242 129.251 75.8154 130.865 74.9808 131.399C74.1112 131.957 69.6405 129.105 67.2622 129.736C66.6989 129.885 66.019 130.562 65.3799 130.789C63.4539 131.475 60.8422 131.034 58.8286 130.935C58.6594 129.076 58.6594 127.159 59.4706 125.431C62.1466 124.623 64.2886 122.753 66.7165 121.486C67.3468 121.156 68.6075 120.465 69.2611 120.398C70.1074 120.313 75.1909 121.81 75.9525 122.344H75.9496ZM80.2073 119.02C79.0225 119.376 74.6131 120.538 73.6472 120.441C73.1803 120.395 72.5354 120.112 72.0451 120.009L68.5491 116.263L80.8405 118.647C80.7763 119.006 80.4524 118.944 80.2073 119.02ZM67.411 114.558C65.1815 113.455 65.0823 112.912 64.3849 110.616C62.275 103.685 61.4141 98.5404 61.9511 91.2303C62.24 87.2879 62.8674 82.3882 64.9189 78.9769C67.2243 75.1482 71.3418 73.1989 75.5965 72.2767C78.7569 78.1861 88.7605 81.3231 91.2351 73.158C95.5423 73.5899 98.3059 75.1978 100.007 79.222C102.359 84.787 105.575 99.302 105.969 105.354C106.022 106.142 106.115 109.965 105.301 110.196C105.158 110.236 103.78 109.705 103.643 109.603C103.477 109.481 103.182 108.926 102.855 108.649C101.685 107.666 100.138 107.342 98.6356 107.455L100.284 105.993C99.0996 105.885 98.4546 106.968 97.5354 107.458L97.8098 104.89C98.0257 104.517 100.848 103.239 101.294 103.239C102.21 103.239 103.13 103.233 104.046 103.239C104.078 103.239 104.632 103.533 104.504 102.964C104.206 101.642 98.6618 102.521 97.9031 103.787C97.6551 101.295 98.9187 99.0073 99.3214 96.6815C99.8233 93.7867 98.5918 86.7801 97.4041 84.0195C97.0422 83.1761 96.6279 83.1878 96.7329 84.1304C97.0627 87.1332 98.2446 90.3899 98.4488 93.4277C98.6735 96.7836 97.2115 99.6814 96.8234 102.985C96.6045 104.832 96.6016 106.688 96.6104 108.547C93.9694 108.868 91.5794 110.088 89.0552 110.803C88.6904 110.905 87.2255 111.354 87.0183 111.319C86.8666 111.293 86.8665 110.928 86.5922 110.794C85.066 110.047 80.4261 109.411 78.4213 108.871C76.5507 108.366 74.6889 107.823 72.8884 107.108C72.6871 106.951 72.7484 105.357 72.7659 104.972C73.011 99.5997 73.5742 92.6573 72.9352 87.3958C72.9001 87.1011 72.7746 86.1089 72.3165 86.1819L71.8554 106.904C71.1171 106.571 67.2797 107.631 67.4519 108.459C67.5073 108.728 67.7816 108.702 68.0092 108.661C68.6687 108.538 69.5909 107.972 70.3379 107.864C72.1851 107.601 76.5449 109.37 78.6402 109.93C80.8755 110.528 83.175 110.975 85.4279 111.488C83.4172 112.965 82.0312 116.201 83.9601 118.27C78.789 116.89 72.1968 116.922 67.411 114.552V114.558ZM103.769 112.778C102.225 110.808 100.792 109.306 98.2679 108.652C99.1141 108.033 100.646 108.468 101.51 108.894C102.992 109.624 103.737 111.167 103.769 112.778ZM84.2227 117.007C83.9542 115.804 84.1935 114.596 84.8413 113.566C85.8189 112.011 87.4414 112.262 89.096 111.769C93.2194 110.54 97.6434 107.73 101.385 111.404C101.779 111.789 103.556 114.17 103.687 114.602C103.83 115.072 103.955 116.041 103.407 116.263C102.429 113.779 99.2572 110.963 96.4353 111.129C96.2952 112.06 97.6843 112.028 98.3934 112.378C99.3068 112.831 101.86 115.066 102.388 115.904C102.616 116.265 102.73 116.557 102.671 116.995C102.263 117.415 99.8087 114.873 99.3739 114.517C98.7115 113.978 96.3185 111.926 95.5131 112.495L95.341 113.047C97.4071 114.094 99.4848 115.6 100.845 117.453L100.547 117.905C98.4897 117.167 97.0102 114.78 94.6756 114.445C94.2642 114.386 93.1582 114.453 93.5813 114.984C93.736 115.177 95.125 115.591 95.5248 115.799C95.7904 115.936 98.729 117.506 98.2708 117.911C96.5316 118.282 95.0112 116.654 93.4091 116.613C92.1164 116.581 90.5085 117.418 89.1894 117.544C88.527 117.605 84.4736 117.351 84.2256 117.007H84.2227ZM91.7778 122.475L86.1603 121.215L92.3965 122.315L91.7778 122.475ZM104.583 125.067L93.3157 122.683L103.874 124.705C104.63 124.839 104.662 124.358 104.872 123.783L102.785 123.756L94.0482 121.947C97.6959 122.058 101.422 123.975 105.053 123.412L104.583 125.067ZM104.507 114.243L104.711 111.879C105.575 111.935 105.879 111.08 106.48 110.806C106.76 110.677 109.173 110.111 109.275 110.21L108.283 113.341L104.507 114.243ZM105.788 124.512L106.707 121.582C107.031 121.536 106.885 121.994 106.847 122.181C106.725 122.747 106.427 123.395 106.246 123.967C106.176 124.185 106.054 124.241 106.427 124.147L116.979 120.853L105.791 124.518L105.788 124.512ZM121.555 99.4713L122.48 99.3896L119.005 100.405L118.079 100.487L121.555 99.4713ZM119.509 120.167L118.631 120.293L123.437 118.588L124.316 118.463L119.509 120.167ZM129.084 117.085C128.684 117.369 126.586 117.789 125.967 117.911L128.9 116.905L129.449 115.898C129.434 116.219 129.344 116.902 129.081 117.088L129.084 117.085ZM125.97 111.127L126.431 109.845L126.884 107.458C126.913 108.646 126.904 110.274 125.97 111.127ZM126.151 98.4704L136.791 95.7243L136.604 96.4539L136.169 96.0862L126.151 98.4704ZM117.061 3.48925C115.698 3.61181 115.509 1.59243 116.746 1.31812L260.169 1.26851C261.961 1.31229 262.136 3.49217 260.169 3.67018C253.994 4.22463 246.45 3.50384 240.173 3.46882C199.138 3.24704 158.097 3.64391 117.064 3.48925H117.061ZM118.263 87.2879L117.712 4.58066H259.147L258.415 87.4717H253.005L252.768 87.1566C251.782 82.6421 251.006 75.7348 248.053 72.0637C245.476 68.8595 237.842 65.4949 233.929 63.9949C232.659 63.5076 230.905 63.1895 229.756 62.6642C229.68 62.6292 229.61 62.5854 229.545 62.5387C229.528 62.5679 229.507 62.5942 229.49 62.6234C229.452 62.6817 229.417 62.743 229.382 62.8014C229.376 62.8101 229.37 62.8218 229.364 62.8335C229.356 62.8597 229.347 62.8831 229.347 62.8889C229.329 62.9502 229.321 63.0115 229.309 63.0728C229.268 63.3004 229.16 63.493 229.017 63.6506C229.035 63.671 229.049 63.6914 229.064 63.7119C227.99 66.9044 225.013 69.8109 221.733 70.6892C218.614 71.5238 214.146 71.2058 214.204 67.1524C213.828 66.4199 213.136 65.7575 212.494 65.3723C212.118 65.1476 211.674 64.9988 211.26 64.8704C211.027 64.8003 210.773 64.7011 210.528 64.6836C210.428 64.6748 210.373 64.6778 210.344 64.6778C210.11 64.9112 209.853 65.0309 209.6 65.063C209.608 65.0717 209.614 65.0805 209.623 65.0892C206.655 65.6437 203.057 66.6446 200.574 68.4218C198.712 69.7554 197.469 71.6931 196.156 73.5403C193.716 76.9692 190.996 80.9554 188.816 84.5419C188.276 85.429 187.646 86.4387 187.407 87.4396L182.971 87.4221C180.17 84.9738 176.347 82.1431 174.325 79.0119C173.166 77.2143 172.571 74.8331 171.622 72.91C170.37 70.3682 168.374 68.5473 166.232 66.7468C165.156 65.8421 160.358 61.6691 159.442 64.5319C158.721 66.7789 162.809 68.343 163.761 70.0414C161.514 69.8809 158.088 68.0658 155.975 68.4043C155.012 68.559 154.796 69.4169 154.995 70.2778C155.316 71.6902 158.788 72.7845 160.093 72.9771C159.582 73.6775 160.282 74.9965 160.238 75.2358C160.174 75.5918 159.573 76.1258 159.573 76.9196C159.573 77.7396 160.168 78.2298 160.265 78.7609C160.557 80.3368 159.847 81.1451 161.855 82.1227C162.529 82.4524 163.79 82.4641 163.915 82.54C164.015 82.6013 164.703 83.8707 165.322 84.3405C166.731 85.4086 168.64 85.321 169.445 87.2791H118.263V87.2879ZM188.157 88.388L186.388 90.0193C186.056 90.0777 184.632 88.7003 184.305 88.388H188.157ZM163.568 75.2795C164.018 75.6706 166.945 76.6365 165.964 77.296C164.665 78.1715 160.192 75.2124 160.907 73.7212C161.251 73.0034 162.783 73.9722 162.459 72.91C162.275 72.3117 157.029 71.4567 156.109 70.3653C155.931 70.1523 155.885 69.8809 155.858 69.6153C155.89 69.4257 156.483 69.3206 156.678 69.3323C159.016 69.4549 162.255 71.5472 164.838 70.8001L165.412 71.8857C163.02 71.3809 161.648 73.6191 163.571 75.2854L163.568 75.2795ZM164.546 79.3621C162.99 79.8202 160.177 78.2094 160.641 76.2834C161.406 76.3768 161.803 77.0742 162.468 77.4799C163.2 77.9263 164.023 78.2006 164.858 78.3932C165.299 78.7113 164.902 79.257 164.549 79.3621H164.546ZM165.042 80.3192C164.671 82.324 161.169 81.4603 161.193 79.5868C162.512 80.2317 163.539 80.4827 165.042 80.3192ZM178.611 97.8371C176.361 95.3567 170.201 85.6362 168.512 84.644C167.33 83.9466 165.226 83.8678 164.87 81.9885C166.378 81.5011 165.739 80.4447 165.827 79.5167C165.868 79.0703 166.504 78.472 166.51 77.9351C166.985 77.8505 166.793 78.0022 166.892 78.1948C167.382 79.1578 167.855 81.4282 169.168 81.6062C169.457 81.6441 169.48 81.612 169.445 81.326C168.264 80.0887 167.89 76.4381 166.673 75.6618C165.906 75.1716 163.087 74.6842 163.845 73.1668C164.616 71.626 168.453 74.9148 168.993 74.0947C169.591 73.1814 167.986 73.0471 167.441 72.694C166.326 71.9762 165.552 70.3974 164.677 69.4052C163.921 68.5502 160.361 65.8567 160.297 65.1593C160.151 63.5689 163.055 65.597 163.446 65.8655C165.199 67.0707 168.856 70.2632 169.959 72.0083C171.328 74.1706 171.885 77.1647 173.257 79.3475C176.42 84.3814 182.589 87.5243 186.412 91.6885C187.042 92.3743 187.427 93.6758 188.519 93.524C188.603 92.4414 187.596 91.7177 187.086 90.8627L189.161 88.7878L197.142 95.5434C197.215 95.8119 197.072 95.8469 196.964 96.0016C196.284 96.9792 193.658 99.4071 192.654 100.312C192.231 100.694 189.353 103.137 189.126 103.204C188.574 103.37 184.249 102.915 183.701 102.649C182.694 102.165 179.519 98.8381 178.608 97.8342L178.611 97.8371ZM201.364 111.494L212.004 113.146C211.4 113.668 210.423 113.797 209.643 114.176C207.571 115.183 206.153 117.083 204.863 118.918L203.384 118.831C203.083 116.365 202.012 113.916 201.367 111.494H201.364ZM202.097 118.279L200.451 112.413L202.015 117.357L202.097 118.282V118.279ZM201 110.21C200.498 108.964 199.984 104.975 198.75 104.479L190.541 103.423C193.059 101.275 195.587 99.1124 197.696 96.5356C198.073 96.2613 198.26 96.9208 198.548 96.9792C199.112 97.0959 200.661 95.237 200.819 94.6242L201.548 100.035L202.1 110.026L201.003 110.213L201 110.21ZM160.641 101.683L161.438 101.418L198.245 105.442L197.422 105.62C185.186 104.126 172.895 102.912 160.638 101.68L160.641 101.683ZM186.219 114.987C186.178 114.801 185.974 114.389 186.318 114.43C186.782 115.772 187.127 117.71 185.773 118.647C185.881 118.051 186.391 117.725 186.493 117.077C186.636 116.166 186.394 115.761 186.219 114.987ZM165.456 116.49C164.849 114.946 164.374 113.28 163.942 111.678C164.204 111.634 164.184 111.987 164.26 112.18C164.867 113.724 165.342 115.39 165.774 116.992C165.512 117.036 165.532 116.683 165.456 116.49ZM168.255 123.225C168.065 123.19 167.919 123.1 167.782 122.966C167.519 122.709 166.367 119.248 166.224 118.653C166.18 118.466 165.982 118.051 166.323 118.095L167.835 122.82L204.939 129.1L205.033 127.997L205.4 129.278L168.258 123.225H168.255ZM211.905 125.437C211.429 125.37 211.032 125.04 210.641 125.067C210.142 125.099 209.497 125.72 208.885 125.615L210.843 124.74C211.654 125.265 212.316 125.335 213.285 125.253C213.186 125.569 212.144 125.475 211.905 125.44V125.437ZM251.627 105.349C251.49 107.566 251.044 114.156 249.946 115.772C247.837 118.886 238.796 119.595 235.21 119.928C232.259 120.202 228.509 120.024 225.714 120.523C224.993 120.651 224.625 121.174 224.053 121.431C221.442 122.598 219.148 121.687 216.65 122.464C214.975 122.986 213.525 124.428 211.639 124.147C211.587 123.824 211.634 123.745 211.829 123.514C212.976 122.175 215.646 121.326 217.058 120.301L216.942 119.761C216.545 119.458 214.388 120.544 213.898 120.818C212.804 121.431 210.399 123.672 209.623 123.882C209.063 124.034 208.424 124.08 208.511 123.333C208.572 122.805 211.07 120.663 211.657 120.228C212.842 119.353 214.143 118.825 215.305 118.005C215.348 117.8 215.179 117.631 215.001 117.576C213.776 117.185 210.831 119.478 209.888 120.295C209.349 120.765 207.245 123.234 207.049 123.327C206.856 123.418 206.667 123.505 206.489 123.333C206.287 123.187 206.282 122.826 206.299 122.592C206.39 121.288 210.396 117.748 211.628 117.083C211.99 116.887 214.222 116.295 213.653 115.717C210.571 115.364 208.657 118.159 206.687 120.03L205.216 122.315C204.519 120.386 207.175 117.249 208.613 116.085C213.583 112.06 218.27 115.402 223.42 114.751C225.644 114.471 229.006 113.207 231.174 112.416C234.107 111.348 239.19 108.538 241.986 108.372C242.56 108.337 244.198 108.588 244.367 108.553C244.522 108.521 244.79 108.182 244.565 108.007C243.15 107.123 241.428 107.502 239.882 107.645L239.698 98.4733C243.78 98.5988 247.845 98.1173 251.805 97.1922C251.712 99.8711 251.785 102.684 251.621 105.351L251.627 105.349ZM252.727 96.0862C248.344 96.772 243.722 97.8138 239.248 97.3702C238.846 97.3293 237.959 97.1922 237.775 96.8245C237.518 96.3109 237.719 93.7079 237.684 92.882C237.544 89.6049 237.468 86.4562 237.871 83.1616C238.262 79.972 239.053 77.0188 241.169 74.5354C241.285 74.1385 240.81 74.2115 240.567 74.3019C240.138 74.4595 239.286 75.6181 239.006 76.0412C236.073 80.4447 236.447 89.7304 236.78 94.8868C236.923 97.1222 236.053 97.7525 238.799 98.4062L238.884 108.007C234.784 109.953 230.4 111.947 225.988 113.088C224.9 113.368 223.064 113.899 222.011 113.875C218.439 113.8 213.773 112.586 210.207 111.912C207.884 111.474 205.552 111.03 203.203 110.75C202.897 107.493 202.908 104.205 202.649 100.942C202.269 96.1592 201.402 91.2216 201.184 86.4504C201.029 83.0653 201.367 79.651 201.096 76.2688L200.629 76.1813C199.555 81.6237 200.264 87.3433 200.81 92.8529C200.472 93.9734 199.593 94.8226 198.796 95.631L188.548 86.8531C191.737 82.2657 194.553 77.1793 197.915 72.732C200.197 69.7116 201.662 68.5619 205.26 67.2399C206.203 66.8927 209.833 65.7021 210.615 65.8246C211.085 65.8976 211.823 66.6797 212.465 66.738C214.747 76.5723 228.419 71.3283 229.983 63.8052C234.159 64.9608 238.422 66.7818 242.213 68.9091C248.438 72.4022 249.237 75.3846 250.804 82.1431C251.19 83.8036 253.302 95.5259 252.727 96.0804V96.0862Z" fill="black"/>
<path d="M108.962 154.094C109.09 153.927 109.726 153.662 110.009 153.399C112.542 151.044 112.974 147.344 110.094 145.059C105.612 141.502 99.9534 147.288 102.571 151.844C103.309 153.131 104.722 153.563 105.218 154.861C104.704 155.812 102.942 162.387 102.594 162.679C102.057 163.131 100.14 161.999 99.5449 161.655C87.4811 154.686 91.9635 135.668 105.901 134.626C119.701 133.593 126.856 151.251 116.511 160.271C115.712 160.969 112.399 163.327 111.469 162.758C110.739 160.77 109.741 158.634 109.181 156.609C109.011 156.002 108.571 154.607 108.959 154.097L108.962 154.094ZM112.026 161.558C112.429 161.909 115.137 159.948 115.607 159.545C125.429 151.173 118.852 134.685 105.904 135.724C91.9897 136.838 88.9489 156.519 101.935 161.558L104.094 155.045C99.5653 152.36 99.8046 145.368 104.693 143.314C112.006 140.241 116.701 151.292 109.82 154.882L112.029 161.561L112.026 161.558Z" fill="black"/>
<path d="M256.766 132.584L256.728 133.188L236.817 150.344L205.205 143.297L205.31 142.672L228.646 128.776L230.05 128.758L256.766 132.587V132.584ZM254.931 133.319L228.833 129.68L207.052 142.853L236.485 149.276L253.833 134.513L254.931 133.319Z" fill="black"/>
<path d="M178.943 132.989C180.222 132.855 181.176 133.766 182.104 134.507C185.693 137.381 190.987 141.659 194.121 144.866C195.355 146.13 195.819 147.356 194.67 148.911C190.316 152.489 186.271 158.305 181.92 161.655C180.405 162.822 179.046 162.381 177.694 161.287C173.384 157.797 169.491 153.151 165.126 149.643C163.891 148.628 163.708 146.854 164.852 145.692C168.514 142.284 171.969 138.595 175.678 135.242C176.498 134.501 177.873 133.103 178.943 132.992V132.989ZM179.262 134.139C178.961 134.13 178.593 134.25 178.334 134.413C175.322 137.454 172.039 140.229 168.978 143.215C168.085 144.084 166.226 145.704 165.59 146.612C164.782 147.767 165.409 148.284 166.226 149.092C169.459 152.282 173.198 155.675 176.591 158.719C177.665 159.679 179.197 161.564 180.642 161.109L193.85 148.091C194.357 146.88 194.007 146.387 193.202 145.602C189.227 141.732 184.284 138.394 180.257 134.521C179.982 134.346 179.583 134.151 179.259 134.142L179.262 134.139Z" fill="black"/>
<path d="M139.321 127.136C146.92 126.678 158.202 131.195 157.314 140.356C155.978 154.141 128.278 154.879 124.99 141.354C122.819 132.415 131.678 127.597 139.321 127.136ZM139.689 128.236C132.624 128.566 123.703 132.99 126.145 141.482C129.39 152.758 152.879 152.907 155.925 141.715C158.385 132.678 147.031 127.895 139.689 128.236Z" fill="black"/>
<path d="M70.7515 164.67C72.4207 164.732 74.1308 164.755 74.799 162.94C77.0402 156.832 70.3547 152.805 65.0669 154.769C64.9298 154.034 65.6213 153.931 66.167 153.762C69.7097 152.65 74.3204 154.387 75.7941 157.891C76.6199 159.855 76.334 164.023 74.3029 165.196C72.9401 165.981 71.5336 165.502 70.34 165.817C69.9752 165.914 69.5492 166.421 69.0998 166.596C65.5046 167.991 64.171 165.552 61.2236 164.939C59.7558 164.632 54.9145 164.595 54.0653 163.842C53.2161 163.089 53.8931 160.55 54.1529 159.54C56.3123 151.13 64.1535 146.68 72.5433 149.222C78.8903 151.145 83.4281 158.583 79.4506 164.659C79.2317 164.994 77.7844 166.868 77.5392 165.864C77.44 165.458 78.7648 163.955 79.0421 163.337C84.1547 151.97 65.881 144.156 57.7306 154.32C56.0409 156.427 54.433 160.474 54.967 163.127C57.2199 163.684 59.7149 163.483 61.9502 164.031C64.4715 164.647 65.6184 166.801 68.6475 165.604C70.5589 164.848 69.9169 162.739 69.0648 161.32C68.6825 160.681 67.9646 160.147 67.629 159.637C67.4714 159.394 67.451 159.216 67.7253 159.178C69.0648 158.992 71.5803 163.322 70.7486 164.679L70.7515 164.67Z" fill="black"/>
<path d="M32.0399 173.102L31.4242 173.269C30.8522 173.14 27.2569 163.811 26.7696 162.518C25.6636 159.591 24.403 156.366 23.6559 153.343C23.4808 152.628 22.9731 151.721 23.6968 151.289L32.0399 173.102Z" fill="black"/>
<path d="M32.7774 135.884V136.616C29.7221 136.528 27.2008 139.149 25.73 141.583C25.2719 142.342 24.411 144.664 24.0608 145.05C23.8274 145.306 23.7427 145.327 23.5092 145.055C23.127 144.486 24.6444 141.557 25.0413 140.894C26.5587 138.367 29.6053 135.554 32.7774 135.884Z" fill="black"/>
<path d="M66.3478 158.438C66.1844 158.608 63.3713 157.475 62.0639 158.465C60.5698 159.597 63.345 159.9 64.0921 160.239C64.5035 160.426 66.9081 161.902 65.6854 162.279C64.9004 162.27 64.3051 161.534 63.5405 161.158C62.204 160.496 60.5406 160.688 60.8558 158.727C61.0863 157.286 63.2225 157.058 64.4043 157.178C65.1455 157.254 66.6805 157.484 66.3478 158.441V158.438Z" fill="black"/>
<path d="M259.15 4.58087L258.418 87.4719H253.007L252.771 87.1568C251.785 82.6423 251.008 75.735 248.055 72.0639C245.478 68.8597 237.845 65.4951 233.931 63.9951C232.662 63.5078 230.908 63.1897 229.758 62.6644C229.037 62.3376 228.889 61.4505 228.749 60.7414C228.404 59.0109 228.553 57.1374 228.518 55.3806C231.422 55.4157 233.327 50.6006 232.875 48.1786C232.767 47.5949 232.049 46.7837 232.023 46.6407C232.005 46.5444 232.609 45.2458 232.697 44.7789C232.983 43.2818 233.184 39.3744 232.878 37.9066C232.793 37.4922 231.354 33.7102 231.182 33.5497C230.92 33.3075 230.517 33.2666 230.269 32.9982C229.936 32.6392 229.939 32.0497 229.428 31.6383C228.962 31.2618 228.395 31.2969 227.981 31.0663C227.479 30.7862 227.152 30.1325 226.417 29.8786C225.909 29.7035 225.077 29.7736 224.885 29.6656C224.751 29.5897 224.672 29.0265 224.036 28.7755C222.968 28.3524 222.378 28.8543 221.646 28.7872C220.794 28.7084 220.44 27.7104 218.561 28.0956C216.933 28.4312 215.261 28.5392 213.618 28.8222C212.804 28.9623 212.31 29.7298 211.878 29.8494C211.447 29.9691 210.997 29.829 210.53 29.9691C209.88 30.1646 209.704 30.8941 209.249 31.256C208.517 31.8455 207.548 31.825 207.279 33.1382C207.198 33.5351 207.189 35.9309 207.236 36.4008C207.288 36.9202 207.615 37.39 207.595 37.8511C207.568 38.4202 207.046 39.5845 206.923 40.3053C206.48 42.8908 206.684 44.916 206.509 47.4111C206.211 51.6395 205.715 53.5159 206.591 57.9516C207.075 60.4058 207.84 63.3064 209.623 65.0982C206.655 65.6527 203.057 66.6536 200.573 68.4308C198.712 69.7644 197.469 71.702 196.155 73.5493C193.716 76.981 190.996 80.9644 188.816 84.5508C188.276 85.438 187.646 86.4476 187.407 87.4486L182.971 87.4311C180.169 84.9827 176.347 82.1521 174.324 79.0209C173.166 77.2233 172.571 74.842 171.622 72.9189C170.37 70.3772 168.374 68.5563 166.232 66.7557C165.155 65.8511 160.358 61.681 159.442 64.5408C158.721 66.7878 162.809 68.352 163.761 70.0504C161.514 69.8899 158.088 68.0748 155.975 68.4133C155.012 68.5679 154.796 69.4259 154.994 70.2867C155.315 71.6991 158.788 72.7935 160.092 72.9861C159.582 73.6864 160.282 75.0054 160.238 75.2447C160.174 75.6007 159.573 76.1348 159.573 76.9285C159.573 77.7223 160.168 78.2388 160.265 78.7699C160.556 80.3457 159.847 81.1541 161.855 82.1317C162.529 82.4614 163.79 82.4731 163.915 82.549C164.014 82.6102 164.703 83.8826 165.322 84.3495C166.731 85.4175 168.64 85.33 169.445 87.2881H118.263L117.712 4.58087H259.147H259.15ZM129.043 9.39588C124.17 9.61182 124.234 17.8936 129.361 17.7973C134.363 17.7039 134.45 9.15659 129.043 9.39588ZM136.058 14.85C138.658 15.3519 141.028 12.9619 139.332 10.5661C139.032 10.14 137.894 9.5301 137.433 9.5301H134.406V17.5989H136.058V14.847V14.85ZM142.662 11.1818H145.323C145.749 10.8141 145.749 9.89779 145.323 9.5301H141.013C140.972 11.5145 141.066 13.5105 141.022 15.4978C141.004 16.2711 140.605 16.954 141.013 17.7827H145.323C145.802 17.3917 145.548 16.6855 145.598 16.131H142.662V14.4794L145.113 14.456C145.571 14.3043 145.571 13.0086 145.113 12.8568L142.662 12.8335V11.1818ZM146.882 9.80733V17.5084C147.276 17.9403 148.32 17.9403 148.717 17.5084V13.1078C148.717 13.0436 148.087 12.352 148.802 12.8393L151.875 17.7448L153.559 17.7623C154.014 17.5901 153.672 17.3946 153.672 17.3246V9.80441C153.378 9.38419 152.015 9.36377 151.863 9.83068L152.018 14.6661L148.72 9.62057C148.341 9.47466 147.01 9.39587 146.882 9.80733ZM162.835 10.0904C160.574 8.54377 156.553 10.1429 158.28 13.0786C158.969 14.2459 161.481 14.4239 161.379 15.4803C161.204 17.3071 158.411 15.4394 158.254 15.5824L157.91 17.2108C159.176 17.8265 160.86 18.1767 162.091 17.3129C163.6 16.2565 163.305 14.1554 161.802 13.2275C161.184 12.8452 159.701 12.7138 159.701 11.8267L159.885 11.2577C160.571 10.3968 161.928 11.7042 162.29 11.4736L162.833 10.0933L162.835 10.0904ZM166.825 9.57388C162.637 10.4289 163.083 18.0279 167.68 17.9491C173.204 17.8557 172.757 8.35992 166.825 9.57388ZM174.581 9.71395C173.913 9.59139 173.414 9.43089 172.746 9.71395V15.3081C172.746 15.3898 173.221 16.4024 173.326 16.5629C174.464 18.2993 177.523 18.4014 178.699 16.6768C178.792 16.5425 179.166 15.7488 179.166 15.6758V9.80733C179.166 9.27622 177.666 9.7373 177.33 9.71687V15.311C177.33 16.5016 174.578 16.7205 174.578 15.1272V9.71687L174.581 9.71395ZM183.663 9.5301C182.819 9.41629 181.78 9.61181 180.911 9.5301L180.636 9.80441V17.5055C181.074 18.0074 181.868 17.7127 182.472 17.7798V14.847C183.412 14.9346 184.068 17.3975 184.672 17.6894C185.16 17.9257 185.962 17.7127 186.508 17.7798L184.678 14.5844C187.264 13.1282 186.601 9.92407 183.665 9.5272L183.663 9.5301ZM193.109 15.5824C192 16.0552 191.425 16.6622 190.164 16.0493C187.211 14.6165 189.508 9.23829 192.837 11.7246C193.751 10.4231 193.351 9.8015 191.874 9.57388C189.414 9.19452 187.217 10.7528 187.051 13.28C186.791 17.2225 190.176 18.8625 193.465 17.2137L193.109 15.5795V15.5824ZM207.598 11.7304L208.108 10.3472C206.103 8.42412 202.105 10.1925 203.588 13.0815C204.247 14.3655 206.754 14.4998 206.672 15.492C206.57 16.7847 204.466 16.2916 203.839 15.5824C202.683 17.0678 203.249 17.5376 204.875 17.844C206.5 18.1504 208.345 17.3333 208.35 15.4861C208.356 12.7751 205.137 13.2012 205.024 11.9931L205.199 11.4328C205.917 10.5573 207.472 11.818 207.598 11.7246V11.7304ZM196.228 11.3657H198.89C199.316 10.998 199.316 10.0816 198.89 9.71395H194.579V17.7827H199.167L198.995 16.2128L196.231 16.3178V14.4823H198.983V13.0144H196.231V11.3627L196.228 11.3657ZM212.736 17.7827V11.3657H214.756L214.762 10.0204C214.721 9.83945 214.403 9.78984 214.254 9.76357C213.475 9.62642 210.078 9.57388 209.343 9.71395C208.607 9.85402 208.744 11.1935 209.185 11.3394L210.904 11.3627L210.983 17.6106L212.736 17.7827ZM228.512 17.7827L225.857 9.89488C225.614 9.60306 224.619 9.64099 224.292 9.80441C223.718 10.0875 221.993 16.7847 221.36 17.7827L223.359 17.7652L223.72 16.239L226.291 16.1515L226.694 17.7652L228.509 17.7827H228.512ZM246.859 16.776V13.2012H244.197C243.494 14.278 243.862 15.0192 245.204 14.8529L245.187 16.1164C241.682 17.6543 240.643 12.0135 243.596 11.3044C244.597 11.0622 245.149 11.7567 246.118 11.7304L246.491 10.2713C244.682 9.58848 242.884 9.28498 241.349 10.7236C238.825 13.0845 240.182 17.8907 243.833 17.987C244.536 18.0074 246.649 17.5289 246.859 16.7789V16.776ZM251.443 17.7827V14.3889C251.443 14.0737 253.611 10.8083 253.804 10.1371C253.857 9.56804 252.666 9.63808 252.304 9.74897C251.773 9.90947 250.941 12.0368 250.708 12.6467C250.279 12.7401 250.416 12.5884 250.299 12.4104C249.331 10.9162 249.701 9.41338 247.226 9.8978C246.923 10.1721 249.611 13.9833 249.611 14.3889V17.7827H251.446H251.443ZM218.882 9.8978C217.919 9.7373 216.594 10.0145 215.579 9.8978L215.304 10.1721V17.5084C215.742 18.0104 216.536 17.7156 217.14 17.7827V14.85C218.068 15.5066 218.497 16.7789 219.156 17.6952L221.176 17.7827L219.156 14.4852C221.535 13.9979 221.225 10.2888 218.882 9.8978ZM233.651 9.8978H228.147V11.3657H229.983V17.7827H231.818V11.3657H233.654V9.8978H233.651ZM239.336 9.8978H234.748V17.7827L239.035 17.9403C239.499 17.7886 239.473 16.595 239.061 16.3149H236.4V14.6632H239.152L238.98 13.0932L236.485 13.0232L236.397 11.3627H239.333V9.89488L239.336 9.8978ZM143.765 35.7529C143.485 34.8366 142.396 33.8123 141.658 33.182C135.871 28.2444 128.24 32.7005 128.713 40.0718C129.075 45.6894 134.838 51.3069 138.807 54.9225C139.653 55.6929 143.298 58.9204 144.209 58.862C145.023 58.8095 148.3 55.8271 149.085 55.1063C154.171 50.4285 162.555 41.9045 157.781 34.4894C154.449 29.3154 148.215 30.4447 144.588 34.6557C144.279 35.0146 144.118 35.5195 143.768 35.7558L143.765 35.7529ZM184.121 38.14C185.151 38.0962 186.295 39.7333 187.138 39.6137C187.544 39.5553 188.904 38.1779 188.81 37.7577C188.574 36.678 185.306 35.038 184.202 34.8512C183.919 34.4485 184.395 33.4038 183.864 32.9894C183.525 32.7238 181.734 32.6509 181.579 33.1236L181.529 35C174.543 36.1119 174.593 44.6592 181.553 45.6602V50.6123C180.076 50.4402 179.09 49.3458 177.788 48.7797C177.374 48.7914 175.763 50.5481 175.886 51.0325C176.18 52.2027 180.324 53.7319 181.532 53.7494L181.722 56.0343H183.946L184.135 53.5655C187.088 53.1832 189.802 51.4323 189.619 48.1435C189.446 45.0794 186.677 43.7663 184.118 42.9112V38.1429L184.121 38.14ZM163.483 40.8889C163.151 40.8889 163.177 42.0037 163.2 42.2751C163.215 42.4443 163.186 42.6194 163.238 42.7858L163.483 43.0892H171.003C171.537 42.7887 171.322 40.8889 170.82 40.8889H163.48H163.483ZM163.206 48.0414H171.003C171.47 47.6183 171.47 46.0804 170.782 45.879C168.631 45.9782 166.127 45.6193 164.02 45.8323C162.535 45.9812 163.142 46.9237 163.206 48.0443V48.0414Z" fill="white"/>
<path d="M252.727 96.0847C248.344 96.7705 243.722 97.8122 239.248 97.3687C238.846 97.3278 237.958 97.1907 237.775 96.823C237.518 96.3094 237.719 93.7063 237.684 92.8805C237.544 89.6034 237.468 86.4547 237.871 83.16C238.262 79.9704 239.053 77.0172 241.168 74.5339C241.285 74.137 240.809 74.21 240.567 74.3004C240.138 74.458 239.286 75.6165 239.006 76.0397C236.073 80.4432 236.447 89.7289 236.779 94.8853C236.922 97.1206 236.053 97.751 238.799 98.4046L238.883 108.005C234.783 109.952 230.4 111.945 225.988 113.086C224.9 113.366 223.064 113.897 222.01 113.874C218.439 113.798 213.772 112.584 210.206 111.91C207.884 111.472 205.552 111.029 203.203 110.749C202.896 107.492 202.908 104.203 202.648 100.941C202.269 96.1576 201.402 91.2201 201.183 86.4488C201.029 83.0637 201.367 79.6494 201.096 76.2673L200.629 76.1797C199.555 81.6221 200.264 87.3418 200.81 92.8513C200.471 93.9719 199.593 94.8211 198.796 95.6294L188.548 86.8515C191.737 82.2641 194.553 77.1777 197.915 72.7304C200.197 69.7101 201.662 68.5603 205.26 67.2384C206.203 66.8911 209.833 65.7005 210.615 65.8231C211.085 65.896 211.823 66.6781 212.465 66.7365C214.747 76.5708 228.419 71.3268 229.983 63.8037C234.159 64.9593 238.422 66.7803 242.213 68.9076C248.438 72.4007 249.237 75.3831 250.804 82.1416C251.189 83.802 253.302 95.5244 252.727 96.0788V96.0847Z" fill="#F9D483"/>
<path d="M104.046 103.241C104.078 103.241 104.633 103.536 104.504 102.97C104.207 101.648 98.6622 102.526 97.9035 103.792C97.6554 101.297 98.919 99.0125 99.3217 96.6867C99.8237 93.7889 98.5922 86.7853 97.4045 84.0247C97.0426 83.1813 96.6282 83.193 96.7333 84.1356C97.063 87.1384 98.2449 90.3951 98.4492 93.4329C98.6739 96.7888 97.2119 99.6866 96.8238 102.99C96.6049 104.837 96.602 106.693 96.6078 108.552C93.9669 108.873 91.5769 110.093 89.0527 110.808C88.6879 110.91 87.223 111.359 87.0158 111.321C86.864 111.295 86.864 110.93 86.5897 110.796C85.0635 110.049 80.4236 109.413 78.4188 108.873C76.5483 108.368 74.6864 107.825 72.8859 107.11C72.6845 106.953 72.7458 105.36 72.7633 104.974C73.0085 99.6019 73.5717 92.6596 72.9326 87.3981C72.8976 87.1033 72.7721 86.1112 72.3139 86.1841L71.8529 106.906C71.1146 106.573 67.2772 107.633 67.4493 108.462C67.5048 108.73 67.7791 108.707 68.0067 108.663C68.6662 108.54 69.5883 107.974 70.3354 107.866C72.1826 107.604 76.5424 109.372 78.6377 109.932C80.873 110.531 83.1725 110.977 85.4253 111.491C83.4147 112.967 82.0286 116.203 83.9575 118.272C78.7865 116.892 72.1943 116.924 67.4084 114.555C65.1789 113.452 65.0798 112.909 64.3823 110.612C62.2725 103.682 61.4116 98.5368 61.9485 91.2267C62.2374 87.2843 62.8649 82.3846 64.9164 78.9733C67.2217 75.1446 71.3392 73.1953 75.594 72.2702C78.7544 78.1795 88.7579 81.3137 91.2325 73.1515C95.5398 73.5834 98.3033 75.1913 100.005 79.2155C102.357 84.7805 105.573 99.2955 105.966 105.348C106.019 106.136 106.112 109.959 105.298 110.189C105.155 110.23 103.778 109.699 103.641 109.597C103.474 109.474 103.18 108.92 102.853 108.642C101.683 107.659 100.136 107.335 98.633 107.449L100.282 105.987C99.0971 105.879 98.4522 106.965 97.5329 107.452L97.8072 104.884C98.0232 104.51 100.845 103.232 101.292 103.232C102.208 103.232 103.127 103.226 104.043 103.232L104.046 103.241Z" fill="white"/>
<path d="M251.812 97.1888C251.718 99.8677 251.791 102.681 251.628 105.348C251.491 107.566 251.044 114.155 249.947 115.772C247.837 118.886 238.796 119.595 235.21 119.927C232.26 120.202 228.51 120.024 225.714 120.523C224.993 120.651 224.626 121.173 224.054 121.43C221.442 122.597 219.148 121.687 216.65 122.463C214.975 122.986 213.525 124.427 211.64 124.147C211.587 123.823 211.634 123.744 211.83 123.514C212.976 122.174 215.646 121.325 217.059 120.301L216.942 119.761C216.545 119.458 214.389 120.543 213.898 120.817C212.804 121.43 210.4 123.671 209.623 123.881C209.063 124.033 208.424 124.08 208.512 123.333C208.573 122.805 211.071 120.663 211.657 120.228C212.842 119.352 214.144 118.824 215.305 118.004C215.349 117.8 215.18 117.631 215.002 117.575C213.776 117.184 210.831 119.478 209.889 120.295C209.349 120.765 207.248 123.234 207.05 123.327C206.851 123.42 206.667 123.505 206.489 123.333C206.288 123.187 206.282 122.825 206.3 122.592C206.39 121.287 210.397 117.747 211.628 117.082C211.99 116.887 214.222 116.294 213.653 115.716C210.572 115.363 208.657 118.159 206.688 120.029L205.217 122.314C204.519 120.386 207.175 117.248 208.614 116.084C213.583 112.06 218.27 115.401 223.421 114.75C225.644 114.47 229.006 113.207 231.174 112.416C234.107 111.348 239.19 108.538 241.986 108.371C242.561 108.336 244.198 108.587 244.367 108.552C244.522 108.52 244.79 108.182 244.566 108.007C243.15 107.122 241.429 107.502 239.882 107.645L239.698 98.4729C243.781 98.5983 247.846 98.1168 251.806 97.1918L251.812 97.1888Z" fill="white"/>
<path d="M188.522 93.5199C188.606 92.4372 187.599 91.7135 187.089 90.8585L189.164 88.7836L197.145 95.5393C197.218 95.8077 197.075 95.8427 196.967 95.9974C196.287 96.975 193.661 99.4029 192.657 100.308C192.234 100.69 189.356 103.132 189.129 103.199C188.577 103.366 184.252 102.911 183.704 102.645C182.697 102.161 179.522 98.8339 178.611 97.83C176.361 95.3496 170.201 85.6291 168.512 84.634C167.33 83.9365 165.226 83.8577 164.87 81.9784C166.378 81.4911 165.739 80.4347 165.827 79.5067C165.868 79.0603 166.504 78.462 166.51 77.9251C166.985 77.8404 166.793 77.9922 166.892 78.1848C167.382 79.1478 167.855 81.4181 169.168 81.5962C169.457 81.6341 169.48 81.602 169.445 81.316C168.264 80.0787 167.89 76.428 166.673 75.6518C165.906 75.1616 163.087 74.6742 163.845 73.1568C164.604 71.6393 168.453 74.9048 168.993 74.0847C169.591 73.1714 167.986 73.0371 167.441 72.684C166.326 71.9661 165.553 70.3874 164.677 69.3952C163.921 68.5402 160.361 65.8467 160.297 65.1493C160.151 63.5589 163.055 65.587 163.446 65.8555C165.199 67.0607 168.856 70.2532 169.959 71.9982C171.328 74.1606 171.885 77.1547 173.257 79.3375C176.42 84.3714 182.589 87.5142 186.412 91.6785C187.042 92.3643 187.427 93.6658 188.519 93.514L188.522 93.5199Z" fill="white"/>
<path d="M38.0969 100.215C38.3537 101.96 40.9101 103.13 41.4178 104.799C41.4178 105.762 40.1046 105.867 39.378 106.08L39.2233 106.29C39.0482 108.96 38.8819 111.642 38.4091 114.277C38.2224 115.325 37.9101 117.805 36.985 118.354C35.2225 119.405 31.0728 117.616 29.1118 117.627C28.499 117.937 27.7607 122.402 27.32 123.367C27.2558 123.508 27.2879 123.718 27.0078 123.595C26.8152 123.51 25.4378 122.139 24.9534 121.797C21.6646 119.48 17.5237 117.814 13.6279 116.834L13.3361 115.623C18.2299 115.366 22.6013 114.003 23.4301 108.561L24.4281 109.85C25.4232 110.921 28.3472 111.806 28.3793 109.661C24.8045 110.703 23.4301 107.306 23.8416 104.297C23.9787 103.287 24.787 101.061 25.9135 100.868C28.4844 100.431 28.426 102.949 29.6546 103.34C32.0125 104.096 31.6215 100.997 31.9191 99.5346C32.2168 98.0726 32.8384 96.3626 32.9638 94.8947C33.0572 93.78 32.5436 89.3064 32.9638 88.8424C33.1273 88.6615 33.7634 88.5272 33.9764 88.2354C34.9278 88.2383 37.4811 93.599 37.6621 94.6204C37.7934 95.3529 37.3674 95.3266 37.0318 95.846C36.6962 96.3655 35.7595 97.6932 36.168 98.2973C36.8217 99.2603 37.4753 97.0191 37.6884 96.6952C37.8051 96.5172 37.665 96.3684 38.0998 96.4589C38.2224 97.6261 37.9335 99.094 38.0998 100.217L38.0969 100.215ZM26.6605 102.164C25.6625 102.523 25.1606 103.999 25.2481 104.983C25.3065 105.642 26.6372 108.31 27.4484 107.163C27.679 106.363 25.6304 105.581 26.4971 103.652C26.7043 103.194 27.7315 102.535 26.6605 102.161V102.164Z" fill="white"/>
<path d="M55.5251 61.9795C55.3704 63.2255 55.6243 66.3743 57.1243 66.7098C58.2857 66.9696 59.1349 66.3597 59.4297 65.242L59.9257 62.8987C60.2321 64.206 63.4596 66.7974 61.9393 68.1164C61.2652 68.703 60.5152 68.1398 59.7448 68.2156C59.4734 68.7555 60.2322 69.2341 60.2468 69.4033C60.2555 69.5142 59.8003 71.3147 59.7069 71.5686C58.8694 73.8244 56.9754 71.5453 55.5309 72.5229C56.4327 73.4567 57.956 73.5763 59.1962 73.5296C59.4296 74.7961 58.5834 75.8379 58.3207 76.9644C58.1252 77.799 58.5484 78.6977 57.5328 79.2931C55.992 80.1919 53.3423 79.5615 51.7198 79.08C50.6021 78.7474 48.9738 77.7844 48.0575 77.5976C47.7949 77.5451 47.3337 77.5567 47.2754 77.8427C47.1411 78.4993 49.8843 79.4185 50.3979 79.6753C49.6158 81.1198 49.1343 82.7628 48.2881 84.1694C48.1305 84.4291 47.7307 85.2987 47.398 85.2491C44.6782 82.9408 41.4215 80.9856 38.7514 78.6598C38.2203 78.1958 36.8983 77.0752 36.7086 76.4683C36.5044 75.8146 37.4762 74.2183 37.4032 73.3779C39.2096 73.0627 40.4848 72.196 41.2201 70.4889C41.4186 70.3663 42.2912 71.0317 42.6443 71.1046C44.436 71.4723 45.9068 69.7652 44.617 69.666C44.0041 69.6193 43.6131 70.2934 42.5013 69.9578C40.4673 69.342 38.7631 65.7731 40.0413 63.815C41.5441 61.5155 43.0265 62.2392 44.7978 63.6282C46.791 65.1895 46.8202 66.1641 48.5011 63.103L55.5339 61.9736L55.5251 61.9795ZM41.0334 64.9122C41.5995 64.9122 42.049 64.7868 42.5159 65.172C43.4001 65.9015 42.7143 67.5911 43.4146 67.9501L43.8874 67.8625C44.4535 67.3606 44.1238 65.6651 43.7561 65.0348C42.7552 63.316 40.6044 64.5504 41.0334 64.9152V64.9122Z" fill="white"/>
<path d="M70.1999 119.376C66.631 119.49 63.9609 122.624 60.7421 123.771L57.2694 120.841C57.1206 119.607 57.1382 118.317 57.1644 117.077C57.3278 109.676 57.8239 102.092 56.3824 94.7699C56.289 94.3001 55.8921 91.878 55.431 91.8722C55.0166 92.1961 55.1362 92.7797 55.1596 93.2408C55.2851 95.9693 56.1284 98.9954 56.2656 101.855C56.5457 107.689 56.5632 115.116 56.2656 120.943C56.2247 121.74 55.93 122.563 56.073 123.409L51.4856 123.044L51.1209 113.966C52.8951 105.626 53.6188 96.6375 52.9506 88.1106C52.8163 86.383 52.3523 84.5329 51.8533 82.8812C53.6509 84.4746 56.0117 85.7644 57.3891 87.7079C60.033 94.9683 61.0981 102.696 63.2401 110.099C63.7975 112.025 63.9988 113.026 65.3324 114.608C66.7944 116.341 68.7642 117.608 70.197 119.373L70.1999 119.376ZM62.8636 112.226C63.0037 110.896 60.8939 111.655 60.1702 112.011C59.677 112.253 57.6664 113.852 58.2792 114.427C58.7578 114.876 59.461 113.621 59.8374 113.33C60.6224 112.723 61.8685 112.267 62.8636 112.226Z" fill="white"/>
<path d="M116.742 1.31932L260.165 1.26971C261.956 1.31349 262.132 3.49337 260.165 3.67138C253.99 4.22583 246.446 3.50504 240.169 3.47002C199.134 3.24824 158.092 3.64511 117.06 3.49045C115.697 3.61301 115.507 1.59363 116.745 1.31932H116.742Z" fill="white"/>
<path d="M97.9011 131.114L78.1392 143.552L56.6293 139.177L70.7504 131.561C71.9381 131.249 73.8962 133 75.3407 132.302C75.7405 132.109 75.7814 131.435 75.9302 131.333C76.1257 131.196 76.6276 131.324 76.9865 131.015C77.2492 130.788 77.3046 130.268 77.3834 130.221C77.649 130.061 78.1742 130.399 78.6499 129.93C79.0964 129.489 79.0146 128.757 79.0059 128.176L97.9011 131.111V131.114ZM84.3258 132.582C83.6108 132.655 83.0009 132.976 82.3706 133.286C80.0594 134.418 76.7823 136.388 74.6199 137.823C74.2581 138.063 73.0295 138.658 73.5051 139.183C73.6686 139.364 74.6754 138.786 74.9117 138.664C77.1237 137.531 79.8959 135.903 81.9999 134.564C82.2451 134.406 84.6906 132.935 84.3258 132.582ZM78.6149 133.475L78.361 132.763C77.3951 133.291 70.4002 137.511 70.3915 137.99C70.3798 138.541 71.4566 138.095 71.6813 137.998C73.9487 137.003 76.4233 134.724 78.6178 133.475H78.6149ZM88.7293 133.312C88.5746 132.238 87.454 132.95 86.8908 133.218C84.2207 134.505 79.5078 137.295 77.112 139.031C76.9223 139.169 76.5605 139.358 76.6218 139.638C76.756 140.263 77.8153 139.6 78.0925 139.46C81.6994 137.648 85.032 134.99 88.7293 133.312ZM73.1375 134.05C72.5597 133.963 72.1453 134.275 71.6667 134.505C70.6657 134.984 69.0462 135.999 68.127 136.653C67.7359 136.93 67.1172 137.161 67.266 137.718C67.5433 138.007 71.8709 135.41 72.3845 135.042C72.7727 134.765 73.2659 134.678 73.1345 134.05H73.1375Z" fill="white"/>
<path d="M50.5694 122.863L37.0203 121.278V119.498C38.5844 118.71 38.742 117.453 39.1068 115.894C39.7809 113.014 40.0464 109.88 40.1311 106.924C41.9345 106.705 43.1455 105.348 42.0308 103.614C41.4997 102.789 39.5941 101.397 39.2439 100.533C38.7858 99.4035 39.1068 97.4746 38.9901 96.2023C38.7187 93.2987 36.8043 89.6305 34.8229 87.5323C36.5067 84.5325 34.4815 81.9644 31.4933 81.2291C31.2569 80.9197 33.5593 78.4247 33.9708 78.1154C35.2782 82.6502 38.2343 86.4147 40.5134 90.4622C44.7506 97.994 47.2544 106.276 50.1609 114.377L50.5694 122.863Z" fill="white"/>
<path d="M36.0804 119.744L36.0541 121.554L35.345 121.767L35.6514 122.283L56.2567 124.332C55.0661 126.891 54.7801 129.853 55.5242 132.582C54.7655 132.614 53.9922 132.538 53.2335 132.582C48.7278 132.865 43.8048 133.113 39.2816 132.955C38.3099 132.92 34.1018 132.751 33.5153 132.485C33.3519 132.412 30.851 130.396 30.7518 130.25C30.4074 129.73 30.0426 128.088 29.6895 127.323C29.2605 126.389 28.6857 125.522 28.0962 124.682L29.6516 118.717L36.0804 119.742V119.744Z" fill="white"/>
<path d="M97.1672 59.8706C96.5194 65.6077 92.86 70.2068 86.6617 67.986C86.154 67.8051 84.6132 66.6816 84.3272 67.3907C84.1784 67.7584 84.3563 67.7584 84.5489 67.9043C85.6199 68.7068 87.3883 69.3839 88.7278 69.4977L87.8115 74.8146L88.5177 74.7883L89.0955 72.6114L90.3795 72.7981C88.3368 80.0031 79.4976 76.9507 76.4422 72.1561C76.4364 71.9694 78.2369 71.52 78.5841 71.3653C82.1035 69.7866 80.8662 66.2643 80.8457 63.171L82.1356 52.8173L84.3213 53.1821C84.12 59.319 92.3025 59.1819 92.2179 53.1733L92.93 53.1967C92.9825 54.5507 95.4279 58.2685 93.9426 59.2082C93.2568 59.64 91.2345 59.2869 92.3376 60.2966C94.5788 60.6848 95.9153 59.2052 95.1536 57.0253H97.1701C97.0971 57.9358 97.2693 58.9747 97.1701 59.8677L97.1672 59.8706ZM89.2793 62.3452C88.7978 62.9726 91.6197 63.6059 91.9407 63.6292C92.7374 63.6846 94.9319 63.4745 93.9397 62.3656C92.3872 62.8384 90.7822 62.3043 89.2764 62.3481L89.2793 62.3452Z" fill="white"/>
<path d="M78.4536 127.081C76.799 124.998 75.156 122.573 72.2612 122.179C71.8935 122.129 68.6397 122.009 69.8303 122.774C71.8497 123.092 73.3497 123.273 74.9722 124.604C75.5938 125.111 78.6579 128.639 78.0888 129.281C77.7445 129.36 77.654 129.086 77.4468 128.917C76.6764 128.286 76.0169 127.358 75.2407 126.722C74.4061 126.036 70.1776 123.404 69.3664 124.507L69.2847 125.065C71.447 125.441 73.9537 126.725 75.5266 128.272C76.0753 128.812 76.7815 129.57 76.621 130.385C76.3233 130.458 76.1949 130.326 75.9761 130.207C75.1181 129.745 74.2251 128.861 73.2621 128.336C72.5209 127.933 68.9899 126.34 68.45 127.075L68.3712 127.63C69.7399 128.003 71.1114 128.389 72.3837 129.031C72.8244 129.252 75.8156 130.866 74.981 131.4C74.1464 131.934 69.6406 129.106 67.2623 129.737C66.6991 129.886 66.0192 130.563 65.3801 130.79C63.4541 131.476 60.8423 131.035 58.8288 130.936C58.6595 129.077 58.6595 127.16 59.4708 125.432C62.1468 124.624 64.2887 122.753 66.7167 121.487C67.347 121.157 68.6076 120.466 69.2613 120.399C70.1076 120.314 75.194 121.811 75.9527 122.345C77.1929 123.217 78.5586 125.532 78.4565 127.084L78.4536 127.081Z" fill="white"/>
<path d="M103.406 116.264C102.428 113.78 99.2564 110.964 96.4345 111.131C96.2945 112.061 97.6835 112.029 98.3926 112.38C99.306 112.832 101.859 115.067 102.388 115.905C102.615 116.267 102.729 116.558 102.671 116.996C102.262 117.416 99.8079 114.875 99.3731 114.519C98.7107 113.979 96.3178 111.927 95.5124 112.496L95.3402 113.048C97.4063 114.095 99.484 115.601 100.844 117.454L100.546 117.907C98.4889 117.168 97.0094 114.781 94.6749 114.446C94.2634 114.387 93.1574 114.454 93.5806 114.985C93.7352 115.178 95.1242 115.595 95.524 115.8C95.7896 115.937 98.7253 117.51 98.27 117.912C96.5308 118.283 95.0104 116.655 93.4084 116.614C92.1156 116.582 90.5077 117.419 89.1887 117.545C88.5262 117.606 84.4729 117.352 84.2248 117.008C83.9564 115.806 84.1956 114.597 84.8435 113.567C85.821 112.012 87.4436 112.263 89.0982 111.77C93.2216 110.541 97.6456 107.731 101.387 111.405C101.781 111.79 103.558 114.171 103.689 114.603C103.832 115.073 103.958 116.042 103.409 116.261L103.406 116.264Z" fill="white"/>
<path d="M29.2904 129.099C23.6145 124.955 16.818 122.478 9.84647 121.579L11.5244 117.575C12.2686 117.108 18.1721 119.282 19.2664 119.773C23.4977 121.664 27.8575 124.418 29.2875 129.099H29.2904Z" fill="white"/>
<path d="M35.8952 76.4659C35.9448 76.8044 36.1083 77.1633 36.2951 77.4464C37.8767 79.8131 42.0789 82.3198 44.4193 84.1786C44.7753 84.4588 46.6487 85.9033 46.6925 86.1222L42.4116 91.6842C40.2317 87.7242 37.1005 83.7876 35.443 79.5825C34.9469 78.3218 34.2114 77.0583 35.8952 76.4688V76.4659Z" fill="white"/>
<path d="M96.6158 49.3235C95.6616 49.2623 94.4476 49.2652 93.7648 50.0502C93.3358 50.5463 93.4904 51.6931 93.0177 52.268C91.2201 52.7553 91.6229 50.7418 90.8174 50.0764C90.12 49.5015 88.1326 49.2418 87.2514 49.4082C85.3166 49.7729 85.5442 50.9577 84.5696 52.2388L82.1271 51.8886C81.7886 51.5997 84.053 50.4412 84.2777 50.2807C87.2864 48.1271 89.9274 45.0805 90.3826 41.2548C93.5138 42.7635 96.324 45.705 96.6188 49.3206L96.6158 49.3235Z" fill="white"/>
<path d="M49.6545 109.843L46.6751 101.547L42.9077 92.8507C42.8493 92.1971 46.4854 88.1992 47.1799 87.4725C48.5398 94.841 49.3686 102.349 49.6545 109.843Z" fill="white"/>
<path d="M59.01 58.4941C57.726 58.2665 56.9206 57.7324 55.5578 58.0709C54.8895 58.2373 52.7242 59.5884 53.5559 60.2859C54.2037 60.8286 56.013 59.5475 56.2581 59.781C56.2552 60.0145 55.9751 60.7265 55.8438 60.8316C55.2864 61.2868 49.8381 61.7391 48.7379 61.9784C49.5025 60.7703 49.663 59.0631 50.4188 57.8842C50.9616 57.0379 52.1318 56.285 52.7709 55.465C53.836 54.1022 54.4984 52.1529 54.4284 50.4253C57.2707 52.1762 58.6044 55.2578 59.0129 58.4912L59.01 58.4941Z" fill="white"/>
<path d="M50.9382 111.128L50.5763 108.834C50.337 101.544 49.3361 94.2957 48.1922 87.1053C49.8497 88.0099 51.0461 89.4749 52.0383 91.0507C52.2601 97.7829 51.802 104.466 50.9382 111.128Z" fill="white"/>
<path d="M88.3227 50.647C92.1484 50.3084 92.1863 56.8598 88.2701 56.8598C84.3539 56.8598 84.4094 50.9942 88.3227 50.647ZM88.6787 52.2899C87.5143 52.4737 87.1846 54.2743 88.3081 54.6069C90.5842 55.2781 90.3099 52.0331 88.6787 52.2899Z" fill="white"/>
<path d="M164.835 70.7973L165.41 71.8829C163.017 71.378 161.645 73.6163 163.568 75.2826C164.018 75.6736 166.945 76.6395 165.964 77.299C164.666 78.1745 160.192 75.2154 160.907 73.7243C161.251 73.0064 162.783 73.9752 162.459 72.913C162.276 72.3148 157.029 71.4597 156.109 70.3683C155.931 70.1553 155.885 69.8839 155.858 69.6184C155.891 69.4287 156.483 69.3236 156.678 69.3353C159.016 69.4579 162.255 71.5502 164.838 70.8031L164.835 70.7973Z" fill="white"/>
<path d="M95.8174 50.477C96.2668 50.4333 97.4253 50.8739 97.8105 51.157C99.6052 52.476 98.7473 55.7619 96.6987 56.1004C93.1706 56.6811 93.1122 50.7367 95.8145 50.477H95.8174ZM96.5732 54.0489C97.4837 53.1384 96.0888 51.2649 94.9682 52.3534C93.8476 53.4419 95.6015 55.0206 96.5732 54.0489Z" fill="white"/>
<path d="M58.6419 124.698C57.5855 127.185 57.4658 129.639 58.2742 132.216L56.567 132C56.1439 131.81 56.103 131.089 56.0651 130.666C55.8929 128.623 56.3831 126.581 57.2031 124.73L58.6389 124.701L58.6419 124.698Z" fill="white"/>
<path d="M52.0377 89.3039L50.8558 87.8302L48.4133 85.9159L50.4794 81.9763C51.1272 81.9792 52.064 88.4459 52.0377 89.3068V89.3039Z" fill="white"/>
<path d="M58.6015 60.0032C58.9166 60.3155 58.8641 62.9331 58.8028 63.5138C58.2717 68.5652 55.371 64.1879 56.7688 61.1121C57.0169 60.5664 57.977 59.3846 58.6015 60.0003V60.0032Z" fill="white"/>
<path d="M167.836 122.82L204.94 129.1L205.034 127.997L205.401 129.278L168.259 123.226C168.069 123.191 167.923 123.1 167.786 122.966C167.523 122.709 166.371 119.248 166.228 118.653C166.184 118.466 165.986 118.052 166.327 118.096L167.839 122.82H167.836Z" fill="white"/>
<path d="M198.245 105.444L197.422 105.622C185.186 104.128 172.895 102.914 160.638 101.683L161.435 101.417L198.245 105.441V105.444Z" fill="white"/>
<path d="M160.64 76.2833C161.404 76.3767 161.801 77.0742 162.467 77.4798C163.199 77.9234 164.022 78.2006 164.857 78.3932C165.297 78.7113 164.901 79.257 164.547 79.362C162.992 79.8202 160.179 78.2093 160.643 76.2833H160.64Z" fill="white"/>
<path d="M103.769 112.778C102.225 110.805 100.792 109.305 98.2679 108.652C99.1141 108.033 100.646 108.468 101.51 108.894C102.992 109.623 103.737 111.167 103.769 112.778Z" fill="white"/>
<path d="M165.042 80.3188C164.671 82.3236 161.169 81.4598 161.192 79.5863C162.512 80.2312 163.539 80.4822 165.042 80.3188Z" fill="white"/>
<path d="M116.98 120.848L105.792 124.513L106.711 121.583C107.035 121.536 106.889 121.994 106.851 122.181C106.729 122.747 106.431 123.395 106.25 123.967C106.18 124.186 106.058 124.241 106.431 124.148L116.983 120.853L116.98 120.848Z" fill="white"/>
<path d="M105.052 123.412L104.583 125.067L93.3154 122.683L103.873 124.705C104.629 124.839 104.661 124.358 104.871 123.783L102.785 123.756L94.0478 121.947C97.6956 122.058 101.422 123.975 105.052 123.412Z" fill="white"/>
<path d="M136.79 95.726L136.607 96.4556L136.169 96.0879L126.151 98.472L136.79 95.726Z" fill="white"/>
<path d="M107.257 121.029L107.157 120.287L110.741 109.662C109.827 113.5 108.252 117.197 107.257 121.032V121.029Z" fill="white"/>
<path d="M202.098 118.278L200.449 112.409L202.013 117.353L202.098 118.278Z" fill="white"/>
<path d="M92.3967 122.315L91.778 122.475L86.1605 121.215L92.3967 122.315Z" fill="white"/>
<path d="M124.315 118.464L119.509 120.168L118.631 120.293L123.437 118.592L124.315 118.464Z" fill="white"/>
<path d="M58.8296 123.597L57.175 123.6L57.178 122.132L58.8296 123.597Z" fill="white"/>
<path d="M165.774 116.995C165.511 117.039 165.532 116.685 165.456 116.493C164.849 114.949 164.373 113.283 163.941 111.681C164.204 111.637 164.184 111.99 164.26 112.183C164.867 113.726 165.342 115.393 165.774 116.995Z" fill="white"/>
<path d="M114.412 101.408L113.332 102.07L112.028 105.624C112.425 104.302 112.591 101.23 114.409 101.41L114.412 101.408Z" fill="white"/>
<path d="M122.482 99.3922L119.007 100.408L118.079 100.489L121.554 99.4709L122.482 99.3922Z" fill="white"/>
<path d="M213.289 125.252C213.19 125.57 212.148 125.473 211.909 125.438C211.433 125.371 211.036 125.041 210.645 125.068C210.146 125.1 209.501 125.721 208.888 125.616L210.846 124.741C211.657 125.269 212.32 125.336 213.289 125.254V125.252Z" fill="white"/>
<path d="M125.97 117.911L128.903 116.904L129.451 115.897C129.437 116.218 129.346 116.901 129.084 117.088C128.684 117.371 126.586 117.791 125.967 117.914L125.97 117.911Z" fill="white"/>
<path d="M112.027 161.557L109.818 154.877C116.696 151.288 112.004 140.237 104.691 143.31C99.8029 145.364 99.5637 152.356 104.093 155.041L101.933 161.554C88.9472 156.514 91.988 136.837 105.902 135.719C118.85 134.68 125.43 151.168 115.605 159.541C115.135 159.94 112.427 161.901 112.024 161.554L112.027 161.557Z" fill="white"/>
<path d="M254.931 133.32L253.833 134.514L236.485 149.277L207.052 142.854L228.833 129.681L254.931 133.32ZM228.515 133.314L245.578 136.358L246.124 135.973C246.15 135.637 245.916 135.588 245.657 135.526C240.325 134.274 234.489 133.901 229.128 132.591L228.597 132.757L228.512 133.311L228.515 133.314ZM243.556 138.45L243.238 137.946L225.127 134.593C224.771 134.56 224.424 135.135 224.78 135.334C226.802 135.76 228.833 136.168 230.864 136.559C234.174 137.196 238.808 138.36 242.021 138.614C242.59 138.658 243.016 138.634 243.556 138.45ZM222.031 136.638L221.812 137.172C222.195 137.514 222.696 137.534 223.16 137.66C228.661 139.136 234.932 139.661 240.532 140.849C241.492 140.756 241.285 140.163 240.483 139.965L222.031 136.638ZM229.432 140.102L218.792 138.269C218.693 138.885 218.941 138.873 219.378 139.057C220.616 139.577 226.414 140.677 227.894 140.811C228.305 140.849 228.717 140.881 229.128 140.805L229.35 140.662L229.432 140.102ZM216.157 140.309L215.947 140.654C216.084 140.957 216.968 141.205 217.318 141.301C218.596 141.649 224.914 143.014 225.813 142.813C226.082 142.752 226.315 142.609 226.493 142.396L216.157 140.312V140.309ZM232.825 141.307C231.699 141.328 229.236 141.78 229.067 143.146C228.658 146.481 235.551 146.846 237.033 144.497C238.516 142.148 234.425 141.281 232.825 141.307Z" fill="white"/>
<path d="M179.262 134.14C179.586 134.149 179.985 134.344 180.26 134.519C184.287 138.392 189.23 141.733 193.205 145.6C194.01 146.385 194.36 146.878 193.853 148.089L180.645 161.107C179.203 161.562 177.668 159.677 176.594 158.717C173.201 155.676 169.459 152.279 166.229 149.09C165.412 148.282 164.782 147.765 165.593 146.609C166.229 145.702 168.091 144.082 168.981 143.213C172.039 140.227 175.325 137.452 178.337 134.411C178.596 134.251 178.961 134.128 179.265 134.137L179.262 134.14ZM179.93 151.077C179.781 150.838 179.933 146.633 179.907 145.871C179.88 145.109 179.367 144.202 179.991 143.589C180.484 144.427 182.866 146.07 182.982 146.834C183.026 147.108 182.836 147.389 182.877 147.666C183.598 152.376 189.434 149.624 187.503 146.528C186.519 144.955 185.32 145.582 184.164 145.098C183.995 145.028 181.547 142.819 181.447 142.664C181.293 142.422 181.587 141.681 181.509 141.155C180.89 137.009 174.753 138.981 176.699 142.469C177.096 143.181 178.162 143.461 178.255 144.214C178.383 145.267 178.424 150.07 178.24 151.007C178.124 151.597 176.956 151.918 176.79 153.228C176.282 157.249 182.796 156.908 181.873 152.881C181.564 151.535 180.047 151.267 179.924 151.071L179.93 151.077Z" fill="white"/>
<path d="M139.689 128.238C147.031 127.896 158.386 132.682 155.926 141.717C152.879 152.908 129.391 152.759 126.146 141.483C123.703 132.988 132.624 128.564 139.689 128.238ZM134.133 134.051L133.861 134.69L134.317 134.967L145.867 135.159C146.372 135.11 146.456 134.634 146.246 134.229L146.056 134.051H134.133ZM133.856 137.719L134.13 138.635H146.237C146.582 138.635 146.582 137.719 146.237 137.719H133.856ZM134.317 142.119H146.424C146.768 142.119 146.768 141.203 146.424 141.203H134.133C133.885 141.203 133.564 141.994 134.317 142.119Z" fill="white"/>
<path d="M184.12 38.1399V42.9082C186.68 43.7603 189.452 45.0764 189.621 48.1405C189.805 51.4293 187.091 53.1831 184.138 53.5625L183.948 56.0313H181.724L181.535 53.7463C180.324 53.7288 176.183 52.2026 175.888 51.0295C175.765 50.548 177.376 48.7883 177.791 48.7767C179.092 49.3399 180.079 50.4371 181.555 50.6093V45.6571C174.595 44.6562 174.543 36.1088 181.532 34.997L181.581 33.1206C181.736 32.6478 183.528 32.7208 183.866 32.9863C184.397 33.4036 183.922 34.4454 184.205 34.8481C185.308 35.0349 188.576 36.6749 188.813 37.7547C188.906 38.1749 187.543 39.5523 187.141 39.6106C186.3 39.7303 185.153 38.0932 184.123 38.1369L184.12 38.1399ZM181.552 38.1399C179.276 38.6914 179.151 41.6242 181.552 41.9919V38.1399ZM184.12 50.6093C186.84 49.8768 186.659 47.446 184.12 46.5734V50.6093Z" fill="black"/>
<path d="M143.766 35.7546C144.119 35.5183 144.279 35.0134 144.586 34.6545C148.213 30.4435 154.446 29.3142 157.779 34.4881C162.556 41.9033 154.169 50.4273 149.083 55.1051C148.298 55.8259 145.021 58.8083 144.206 58.8608C143.296 58.9192 139.651 55.6917 138.805 54.9213C134.836 51.3057 129.073 45.6881 128.711 40.0706C128.238 32.6993 135.869 28.2432 141.656 33.1808C142.394 33.8111 143.483 34.8354 143.763 35.7517L143.766 35.7546ZM135.463 32.3199C133.278 32.6147 131.168 34.3481 130.339 36.3645C127.587 43.0618 135.542 50.6082 140.092 54.5536C140.707 55.0876 143.626 57.6381 144.18 57.5535C144.516 57.5039 145.695 56.5642 146.051 56.287C149.993 53.2171 157.207 45.9946 157.84 40.9315C158.759 33.5981 151.686 29.18 146.424 34.2868C145.934 34.7625 144.206 37.488 143.859 37.4034C142.158 34.5553 139.021 31.8355 135.463 32.317V32.3199Z" fill="black"/>
<path d="M146.883 9.80708C147.011 9.39562 148.342 9.4744 148.721 9.62031L152.019 14.6659L151.864 9.83043C152.016 9.36352 153.379 9.38394 153.673 9.80416V17.3243C153.673 17.3944 154.015 17.5899 153.56 17.7621L151.876 17.7445L148.803 12.8391C148.091 12.3517 148.718 13.0433 148.718 13.1075V17.5082C148.324 17.9401 147.28 17.9401 146.883 17.5082V9.80708Z" fill="black"/>
<path d="M166.825 9.57356C172.761 8.3596 173.207 17.8554 167.68 17.9488C163.084 18.0276 162.637 10.4286 166.825 9.57356ZM167.19 11.2223C165.27 11.6601 165.237 15.7193 167.239 16.2329C170.417 17.05 170.913 10.3702 167.19 11.2223Z" fill="black"/>
<path d="M129.043 9.39623C134.448 9.15694 134.36 17.7043 129.361 17.7977C124.234 17.894 124.173 9.61217 129.043 9.39623ZM128.856 11.0392C126.574 11.4769 126.618 16.2977 129.355 16.1431C132.265 15.9797 131.839 10.4672 128.856 11.0392Z" fill="black"/>
<path d="M183.662 9.53051C186.598 9.92738 187.26 13.1316 184.675 14.5877L186.504 17.7831C185.962 17.7189 185.156 17.9291 184.669 17.6927C184.065 17.4009 183.408 14.9379 182.469 14.8504V17.7831C181.865 17.716 181.071 18.0108 180.633 17.5088V9.80774L180.907 9.53343C181.777 9.61514 182.816 9.41962 183.659 9.53343L183.662 9.53051ZM182.469 13.3825C184.969 13.6393 185.197 10.7795 182.469 11.1793V13.3825Z" fill="black"/>
<path d="M218.883 9.89719C221.226 10.2853 221.539 13.9973 219.157 14.4846L221.177 17.7821L219.157 17.6946C218.498 16.7783 218.069 15.506 217.141 14.8494V17.7821C216.537 17.715 215.743 18.0098 215.305 17.5078V10.1715L215.58 9.89719C216.592 10.0139 217.917 9.73669 218.883 9.89719ZM218.749 11.5927C218.44 11.2833 217.57 11.3767 217.141 11.365V13.3844C218.358 13.8601 219.692 12.5381 218.749 11.5927Z" fill="black"/>
<path d="M246.859 16.7766C246.649 17.5266 244.537 18.0022 243.833 17.9847C240.183 17.8855 238.826 13.0793 241.35 10.7214C242.888 9.28562 244.683 9.5862 246.492 10.2691L246.118 11.7281C245.152 11.7544 244.601 11.0628 243.597 11.3021C240.644 12.0141 241.68 17.655 245.187 16.1142L245.205 14.8506C243.862 15.0169 243.495 14.2757 244.198 13.1989H246.859V16.7737V16.7766Z" fill="black"/>
<path d="M174.58 9.71504V15.1254C174.58 16.7158 177.332 16.4998 177.332 15.3092V9.71504C177.665 9.73839 179.168 9.27439 179.168 9.8055V15.674C179.168 15.7469 178.794 16.5378 178.701 16.6749C177.525 18.4025 174.467 18.2974 173.329 16.5611C173.223 16.4006 172.748 15.388 172.748 15.3063V9.71212C173.413 9.42905 173.912 9.58956 174.583 9.71212L174.58 9.71504Z" fill="black"/>
<path d="M228.512 17.7816L226.697 17.7641L226.294 16.1503L223.724 16.2379L223.362 17.7641L221.363 17.7816C221.996 16.7836 223.721 10.0863 224.295 9.80326C224.625 9.64276 225.617 9.60482 225.86 9.89372L228.515 17.7816H228.512ZM225.763 14.662L224.847 12.2808L224.295 14.662H225.763Z" fill="black"/>
<path d="M142.663 11.181V12.8327L145.114 12.856C145.572 13.0078 145.572 14.3034 145.114 14.4552L142.663 14.4785V16.1302H145.598C145.546 16.6847 145.802 17.3909 145.324 17.7819H141.014C140.605 16.9532 141.005 16.2703 141.022 15.497C141.066 13.5097 140.973 11.5137 141.014 9.5293H145.324C145.75 9.89699 145.75 10.8133 145.324 11.181H142.663Z" fill="black"/>
<path d="M196.228 11.3647V13.0164H198.98V14.4843H196.228V16.3198L198.992 16.2147L199.164 17.7847H194.576V9.71594H198.887C199.313 10.0836 199.313 11 198.887 11.3676H196.225L196.228 11.3647Z" fill="black"/>
<path d="M239.336 9.8985V11.3664H236.4L236.488 13.0268L238.983 13.0968L239.155 14.6668H236.403V16.3185H239.064C239.476 16.5987 239.505 17.7922 239.038 17.9439L234.751 17.7864V9.90142H239.339L239.336 9.8985Z" fill="black"/>
<path d="M136.059 14.8503V17.6021H134.407V9.53333H137.433C137.894 9.53333 139.033 10.1432 139.333 10.5693C141.029 12.9651 138.659 15.3551 136.059 14.8532V14.8503ZM136.056 13.3824C138.793 13.7122 138.796 10.6685 136.056 10.9953V13.3824Z" fill="black"/>
<path d="M193.109 15.5814L193.465 17.2156C190.176 18.8673 186.794 17.2272 187.051 13.2819C187.217 10.7547 189.415 9.19639 191.875 9.57575C193.351 9.80337 193.751 10.4249 192.838 11.7265C189.508 9.23724 187.211 14.6184 190.165 16.0512C191.425 16.664 192 16.057 193.109 15.5843V15.5814Z" fill="black"/>
<path d="M162.836 10.0921L162.293 11.4724C161.931 11.703 160.574 10.3956 159.889 11.2565L159.705 11.8256C159.705 12.7127 161.187 12.844 161.806 13.2263C163.309 14.1543 163.603 16.2583 162.095 17.3117C160.863 18.1755 159.177 17.8253 157.913 17.2096L158.257 15.5813C158.415 15.4383 161.208 17.3059 161.383 15.4791C161.485 14.4227 158.972 14.2447 158.284 13.0774C156.556 10.1418 160.577 8.54259 162.839 10.0892L162.836 10.0921Z" fill="black"/>
<path d="M207.598 11.7314C207.469 11.8248 205.917 10.5612 205.199 11.4396L205.024 11.9998C205.138 13.208 208.356 12.7819 208.351 15.4929C208.348 17.3372 206.492 18.1543 204.875 17.8508C203.258 17.5473 202.683 17.0746 203.839 15.5892C204.466 16.2983 206.571 16.7915 206.673 15.4987C206.751 14.5066 204.245 14.3694 203.588 13.0883C202.106 10.1993 206.104 8.4309 208.108 10.354L207.598 11.7372V11.7314Z" fill="black"/>
<path d="M251.443 17.7831H249.607V14.3893C249.607 13.9836 246.92 10.1725 247.223 9.89818C249.698 9.41668 249.33 10.9166 250.296 12.4107C250.41 12.5887 250.276 12.7405 250.705 12.6471C250.941 12.0372 251.773 9.90985 252.301 9.74935C252.66 9.63846 253.853 9.56843 253.801 10.1375C253.611 10.8087 251.44 14.0741 251.44 14.3893V17.7831H251.443Z" fill="black"/>
<path d="M212.736 17.7809L210.983 17.6087L210.904 11.3609L209.185 11.3375C208.744 11.1916 208.628 9.84924 209.343 9.71209C210.058 9.57493 213.475 9.62456 214.254 9.76171C214.403 9.78797 214.721 9.83758 214.762 10.0185L214.756 11.3638H212.736V17.7809Z" fill="black"/>
<path d="M233.651 9.8985V11.3664H231.815V17.7834H229.98V11.3664H228.144L228.147 9.8985H233.651Z" fill="black"/>
<path d="M163.206 48.0413C163.142 46.9208 162.535 45.9782 164.02 45.8293C166.127 45.6163 168.631 45.9782 170.782 45.876C171.468 46.0774 171.468 47.6153 171.004 48.0384H163.206V48.0413Z" fill="black"/>
<path d="M163.483 40.8876H170.823C171.325 40.8876 171.54 42.7873 171.006 43.0879H163.486L163.241 42.7844C163.189 42.6181 163.218 42.443 163.203 42.2737C163.18 42.0052 163.154 40.8876 163.486 40.8876H163.483Z" fill="black"/>
<path d="M185.772 118.648C185.88 118.052 186.391 117.726 186.493 117.078C186.636 116.167 186.394 115.762 186.219 114.988C186.178 114.802 185.974 114.39 186.318 114.431C186.782 115.773 187.126 117.711 185.772 118.648Z" fill="white"/>
<path d="M125.97 111.127L126.431 109.846L126.883 107.459C126.913 108.647 126.904 110.275 125.97 111.127Z" fill="white"/>
<path d="M26.6617 102.164C27.7298 102.534 26.7055 103.197 26.4983 103.655C25.6316 105.584 27.6802 106.366 27.4496 107.165C26.6384 108.309 25.3077 105.645 25.2493 104.986C25.1618 104.002 25.6637 102.525 26.6617 102.167V102.164Z" fill="black"/>
<path d="M41.0334 64.9111C40.6044 64.5463 42.7551 63.3119 43.7561 65.0307C44.1238 65.6611 44.4535 67.3565 43.8874 67.8585L43.4146 67.946C42.7142 67.5871 43.4 65.8974 42.5158 65.1679C42.0489 64.7827 41.5995 64.9111 41.0334 64.9082V64.9111Z" fill="black"/>
<path d="M62.8638 112.227C61.8687 112.268 60.6226 112.723 59.8376 113.33C59.4612 113.622 58.7579 114.88 58.2793 114.427C57.6694 113.852 59.6771 112.253 60.1703 112.011C60.894 111.655 63.0039 110.893 62.8638 112.227Z" fill="black"/>
<path d="M88.7281 133.314C85.0308 134.992 81.6982 137.653 78.0914 139.462C77.8141 139.602 76.7548 140.265 76.6206 139.64C76.5593 139.36 76.9211 139.171 77.1108 139.033C79.5037 137.297 84.2195 134.507 86.8897 133.22C87.4529 132.949 88.5705 132.24 88.7281 133.314Z" fill="black"/>
<path d="M84.3255 132.585C84.6903 132.938 82.2448 134.408 81.9997 134.566C79.8957 135.905 77.1235 137.534 74.9115 138.666C74.678 138.786 73.6683 139.366 73.5049 139.185C73.0292 138.66 74.2578 138.065 74.6197 137.826C76.782 136.39 80.0562 134.417 82.3703 133.288C83.0006 132.978 83.6106 132.66 84.3255 132.585Z" fill="black"/>
<path d="M78.6135 133.477C76.4161 134.726 73.9444 137.005 71.6769 138C71.4522 138.1 70.3784 138.546 70.3871 137.992C70.3959 137.513 77.3936 133.293 78.3566 132.765L78.6105 133.477H78.6135Z" fill="black"/>
<path d="M73.1365 134.052C73.2678 134.68 72.7746 134.764 72.3865 135.045C71.8729 135.412 67.5452 138.009 67.268 137.72C67.1192 137.163 67.7379 136.933 68.1289 136.655C69.0481 136.005 70.6677 134.989 71.6686 134.508C72.1472 134.277 72.5587 133.965 73.1394 134.052H73.1365Z" fill="black"/>
<path d="M89.2794 62.3458C90.7852 62.305 92.3902 62.8361 93.9426 62.3633C94.9348 63.4722 92.7403 63.6823 91.9437 63.6269C91.6227 63.6065 88.8008 62.9732 89.2823 62.3429L89.2794 62.3458Z" fill="black"/>
<path d="M88.6782 52.2901C90.3095 52.0333 90.5867 55.2784 88.3076 54.6072C87.1841 54.2745 87.5109 52.474 88.6782 52.2901Z" fill="black"/>
<path d="M96.5725 54.0498C95.6008 55.0216 93.8265 53.4633 94.9675 52.3544C96.1085 51.2455 97.483 53.1394 96.5725 54.0498Z" fill="black"/>
<path d="M222.031 136.636L240.483 139.963C241.285 140.161 241.495 140.751 240.532 140.847C234.932 139.659 228.661 139.134 223.16 137.658C222.696 137.532 222.194 137.512 221.812 137.17L222.031 136.636Z" fill="black"/>
<path d="M243.556 138.448C243.016 138.635 242.59 138.658 242.021 138.612C238.808 138.358 234.174 137.196 230.865 136.557C228.834 136.166 226.803 135.758 224.781 135.332C224.424 135.133 224.772 134.558 225.128 134.59L243.238 137.943L243.556 138.448Z" fill="black"/>
<path d="M228.516 133.313L228.6 132.759L229.131 132.593C234.492 133.903 240.328 134.276 245.66 135.528C245.922 135.59 246.153 135.639 246.127 135.975L245.581 136.36L228.518 133.316L228.516 133.313Z" fill="black"/>
<path d="M232.826 141.307C234.425 141.281 238.449 142.253 237.034 144.497C235.619 146.741 228.659 146.484 229.067 143.146C229.234 141.783 231.7 141.328 232.826 141.307ZM232.671 142.189C231.948 142.215 229.312 142.673 229.747 143.715C230.5 145.521 235.712 145.434 236.31 144.132C237.008 142.62 233.631 142.153 232.671 142.189Z" fill="black"/>
<path d="M216.158 140.309L226.494 142.393C226.319 142.606 226.085 142.749 225.814 142.81C224.915 143.009 218.597 141.646 217.319 141.299C216.969 141.202 216.085 140.954 215.948 140.651L216.158 140.306V140.309Z" fill="black"/>
<path d="M229.432 140.1L229.351 140.66L229.129 140.803C228.717 140.882 228.306 140.847 227.895 140.809C226.415 140.675 220.616 139.572 219.379 139.055C218.941 138.872 218.696 138.883 218.793 138.267L229.432 140.1Z" fill="black"/>
<path d="M179.93 151.077C180.053 151.272 181.57 151.541 181.88 152.886C182.802 156.913 176.288 157.255 176.796 153.233C176.962 151.923 178.13 151.602 178.246 151.013C178.43 150.076 178.389 145.273 178.261 144.219C178.168 143.466 177.102 143.183 176.706 142.474C174.756 138.987 180.893 137.014 181.515 141.161C181.594 141.686 181.299 142.427 181.453 142.67C181.55 142.824 184.001 145.03 184.17 145.103C185.326 145.588 186.525 144.96 187.509 146.533C189.441 149.629 183.604 152.381 182.883 147.671C182.84 147.394 183.029 147.111 182.988 146.84C182.869 146.075 180.49 144.432 179.997 143.595C179.373 144.207 179.889 145.153 179.913 145.877C179.939 146.638 179.787 150.843 179.936 151.083L179.93 151.077Z" fill="black"/>
<path d="M134.316 142.117C133.563 141.992 133.884 141.201 134.132 141.201H146.424C146.768 141.201 146.768 142.117 146.424 142.117H134.316Z" fill="black"/>
<path d="M134.132 134.049H146.055L146.245 134.227C146.458 134.636 146.371 135.112 145.866 135.158L134.316 134.966L133.86 134.689L134.132 134.049Z" fill="black"/>
<path d="M133.855 137.716H146.237C146.582 137.716 146.582 138.632 146.237 138.632H134.13L133.855 137.716Z" fill="black"/>
<path d="M184.12 50.6103V46.5745C186.658 47.447 186.839 49.8779 184.12 50.6103Z" fill="white"/>
<path d="M181.554 38.1404V41.9925C179.152 41.6277 179.278 38.692 181.554 38.1404Z" fill="white"/>
<path d="M135.464 32.3194C139.018 31.8379 142.155 34.5577 143.859 37.4058C144.206 37.4904 145.934 34.7648 146.424 34.2892C151.686 29.1824 158.759 33.6005 157.84 40.9339C157.207 45.997 149.993 53.2165 146.051 56.2894C145.695 56.5666 144.516 57.5033 144.18 57.5559C143.629 57.6405 140.708 55.09 140.092 54.556C135.542 50.6106 127.587 43.0642 130.339 36.3669C131.168 34.3505 133.278 32.6171 135.464 32.3223V32.3194Z" fill="white"/>
<path d="M167.189 11.2216C170.913 10.3694 170.417 17.0521 167.239 16.2321C165.234 15.7156 165.269 11.6593 167.189 11.2216Z" fill="white"/>
<path d="M128.855 11.0398C131.837 10.4678 132.264 15.9774 129.354 16.1437C126.617 16.2984 126.573 11.4804 128.855 11.0398Z" fill="white"/>
<path d="M182.469 13.3838V11.1806C185.198 10.7808 184.97 13.6406 182.469 13.3838Z" fill="white"/>
<path d="M218.748 11.5915C219.69 12.537 218.356 13.8589 217.14 13.3833V11.3639C217.569 11.3756 218.438 11.2822 218.748 11.5915Z" fill="white"/>
<path d="M225.763 14.6637L224.295 14.6666L224.847 12.2825L225.763 14.6637Z" fill="white"/>
<path d="M136.056 13.3835V10.9964C138.796 10.6696 138.793 13.7103 136.056 13.3835Z" fill="white"/>
<path d="M232.67 142.187C233.63 142.155 237.007 142.622 236.309 144.13C235.711 145.432 230.496 145.519 229.746 143.713C229.312 142.671 231.95 142.213 232.67 142.187Z" fill="white"/>
<path d="M208.575 37.89C209.068 36.892 210.078 36.8657 211.111 36.7081C215.806 35.9873 220.767 36.7023 225.328 37.8608L225.042 42.74C226.811 44.1757 228.425 45.9646 229.055 48.2028C229.236 48.3779 229.507 47.7126 229.639 47.5667C230.765 46.3148 232.968 46.0317 233.882 47.6192C235.303 50.0938 233.482 53.6336 231.182 54.9234C230.047 55.5596 228.559 55.7405 228.355 54.0771C228.182 52.6647 228.754 50.3214 228.953 48.8565C228.976 48.6727 229.18 48.5092 228.883 48.553C227.844 50.1755 227.853 52.1716 227.17 53.9312C226.093 56.7064 223.887 58.3406 221.071 59.1169L220.864 59.0176C220.379 57.4593 219.299 56.6802 217.843 56.1082C216.667 55.6471 214.916 55.0898 213.667 55.1919C212.716 55.2707 212.167 55.2211 211.257 55.2503C210.093 55.2853 208.018 56.1928 207.527 57.3076L207.087 58.5507C206.643 56.5926 206.016 54.7279 206.156 52.6822C206.235 51.5412 206.664 50.3506 206.74 49.1979C206.824 47.9344 206.579 46.6854 206.632 45.4247C207.384 45.2146 207.974 45.0278 208.776 45.0599C209.468 45.0862 210.986 45.591 211.438 45.5327C212.264 45.4247 211.841 43.9481 211.487 43.5104C210.869 42.7458 207.802 42.8246 206.853 43.0873C207.379 41.4297 207.805 39.4512 208.575 37.8929V37.89ZM215.803 42.8538C215.444 43.0406 215.097 43.7964 215.115 44.1816C215.179 45.7866 218.188 45.0745 219.229 45.0599C220.633 45.0395 221.698 45.1183 223.035 45.5648C223.624 45.7603 224.147 46.128 224.754 46.2272C224.999 45.9763 223.175 43.6913 222.836 43.4374C221.821 42.6816 217.607 42.6875 216.381 43.0231C216.101 43.0989 215.958 43.3003 215.69 43.3207L215.803 42.8567V42.8538ZM214.029 54.0421C213.247 54.1734 213.107 54.5878 212.057 54.4478C210.705 54.2697 209.007 53.5081 210.014 51.8827C210.492 51.1123 211.467 50.8876 212.03 50.1814C212.917 49.0666 213.151 47.2953 212.086 46.2272C212.389 47.2311 212.322 48.2991 211.943 49.2826C211.435 50.5899 209.941 50.6395 209.293 51.8652C208.202 53.9283 210.764 54.9672 212.395 55.0576C213.119 55.0985 213.53 54.6929 214.131 54.6112C214.846 54.512 215.844 54.7979 216.448 54.2551C217.052 53.7124 216.997 52.7173 216.154 52.5072C217.044 54.5178 215.141 53.8583 214.032 54.045L214.029 54.0421ZM230.564 49.945C230.893 50.8847 230.931 51.976 230.564 52.9069C230.826 53.1054 231.083 52.5539 231.168 52.3496C231.582 51.3516 231.366 50.2427 231.08 49.2505C231.413 48.7952 232.358 48.518 232.866 48.7427C233.047 48.8215 232.933 49.0433 233.12 49.0141L233.065 48.5472C231.112 47.3332 229.458 49.9362 229.519 51.6871L230.564 49.945ZM229.277 54.188C229.312 54.8009 230.114 54.8738 230.421 54.5674C231.258 53.7357 229.204 52.8865 229.277 54.188Z" fill="white"/>
<path d="M213.597 67.5015C213.249 69.3721 213.509 70.4256 215.298 71.2047C219.55 73.0578 227.441 69.5443 229.755 65.701C230.443 64.5571 229.737 64.5454 229.457 63.4365C229.013 61.671 229.113 58.9717 229.078 57.0953C229.072 56.7422 229.273 56.2374 229.174 55.8346L228.532 55.5224C227.665 60.0514 224.33 63.4686 220.454 65.6981C219.433 66.2876 216.623 67.4986 215.514 67.4986H213.597V67.5015Z" fill="white"/>
<path d="M208.134 58.2005C207.67 59.6829 208.858 63.5087 210.839 63.0593C211.347 62.9455 211.505 62.3385 211.365 61.8862C211.239 61.4747 209.115 60.9173 209.529 59.7121C209.731 59.7092 209.663 59.9981 209.795 60.144C210.953 61.4338 215.558 61.1158 216.968 60.0594C217.105 60.2053 216.536 60.6605 216.428 60.7364C215.646 61.2792 214.569 61.4864 213.74 61.9416C213.586 63.7188 216.232 63.4562 217.35 63.0564C218.829 62.5253 219.927 60.9582 219.591 59.3561C219.255 57.7569 218.555 58.5653 217.49 58.6645C216.337 58.7695 214.954 58.6499 213.766 58.6616C212.345 58.6762 210.79 58.8425 209.366 58.6557C208.919 58.5974 208.552 58.3318 208.137 58.2005H208.134Z" fill="white"/>
<path d="M208.365 57.9667C209.132 58.1943 209.952 58.0396 210.746 58.0863C211.983 58.1593 212.322 58.1563 213.533 58.0805C215.269 57.9725 217.096 58.4569 218.826 58.0805C218.578 57.6252 218.173 57.4531 217.726 57.2663C215.809 56.4609 213.486 56.5951 211.452 56.5659C210.229 56.5484 208.753 56.5718 208.368 57.9637L208.365 57.9667Z" fill="white"/>
<path d="M215.69 43.317L215.804 42.853C215.445 43.0397 215.098 43.7955 215.115 44.1807C215.18 45.7857 218.188 45.0737 219.23 45.0591C220.634 45.0387 221.699 45.1175 223.035 45.564C223.625 45.7595 224.147 46.1272 224.754 46.2264C224.999 45.9754 223.175 43.6905 222.837 43.4366C221.821 42.6808 217.607 42.6866 216.382 43.0222C216.102 43.0981 215.959 43.2995 215.69 43.3199V43.317Z" fill="black"/>
<path d="M216.154 52.5051C217.044 54.5157 215.142 53.8562 214.033 54.043C213.251 54.1743 213.111 54.5887 212.06 54.4486C210.709 54.2706 209.011 53.509 210.017 51.8835C210.496 51.1131 211.471 50.8884 212.034 50.1822C212.921 49.0675 213.154 47.2961 212.089 46.2281C212.393 47.2319 212.326 48.3 211.946 49.2834C211.439 50.5908 209.945 50.6404 209.297 51.866C208.205 53.9292 210.767 54.9681 212.399 55.0585C213.122 55.0994 213.534 54.6938 214.135 54.612C214.85 54.5128 215.848 54.7988 216.452 54.256C217.056 53.7132 217.001 52.7181 216.157 52.508L216.154 52.5051Z" fill="black"/>
<path d="M229.521 51.6864L230.566 49.9443C230.896 50.8839 230.934 51.9753 230.566 52.9062C230.829 53.1047 231.086 52.5531 231.17 52.3489C231.585 51.3508 231.369 50.2419 231.083 49.2498C231.415 48.7945 232.361 48.5173 232.869 48.742C233.05 48.8208 232.936 49.0426 233.122 49.0134L233.067 48.5465C231.115 47.3325 229.46 49.9355 229.521 51.6864Z" fill="black"/>
<path d="M230.421 54.5664C231.259 53.7347 229.204 52.8855 229.277 54.187C229.312 54.7999 230.115 54.8728 230.421 54.5664Z" fill="black"/>
<path d="M232.075 45.9335C232.372 45.4491 232.717 44.9764 232.895 44.4278C233.102 43.7916 233.041 42.9336 233.265 42.4726C233.502 41.9852 234.012 41.7897 234.252 41.0193C234.526 40.1409 234.077 39.4318 234.188 38.9824C234.234 38.7869 234.704 38.5038 234.815 37.9786C235.019 37.0097 234.844 36.4261 234.383 35.609C234.258 35.3872 233.931 35.1975 233.87 34.9553C233.817 34.7481 233.963 34.5409 233.931 34.3279C233.802 33.4379 233.321 32.5653 232.533 32.1101C232.23 31.935 231.736 31.865 231.547 31.7016C231.205 31.4068 231.313 30.6335 230.487 30.0878C229.659 29.5392 228.316 29.6968 228.141 29.5859C228.097 29.5567 228.045 29.2678 227.946 29.1452C227.391 28.474 226.522 27.9663 225.626 27.9692C225.24 27.9692 224.905 28.1676 224.47 28.0888C223.901 27.9867 223.347 27.1959 222.36 27.1754C221.925 27.1667 221.14 27.5081 220.878 27.4819C220.274 27.4235 219.737 26.7377 218.654 26.8136C217.904 26.8661 217.35 27.4264 217.005 27.4819C216.687 27.5315 215.625 27.047 214.729 27.19C213.693 27.3564 213.326 28.2143 213.054 28.3048C212.182 28.6024 211.399 27.9458 210.399 29.0197C210.188 29.2444 209.873 29.939 209.759 30.009C209.164 30.3738 208.54 30.044 207.851 31.007C207.215 31.8912 207.638 32.3786 207.419 33.0147C207.355 33.2015 207.086 33.2365 206.973 33.3824C206.398 34.1207 206.269 34.789 206.514 35.7024C206.587 35.9709 206.847 36.321 206.847 36.5224C206.847 37.0127 206.383 37.5087 206.517 38.4893C206.587 38.9912 207.098 39.5923 207.086 39.8812C207.063 40.4415 206.477 41.7955 206.328 42.5076C205.814 44.9851 206.252 46.3421 206.161 48.6212C206.091 50.3692 205.441 52.0792 205.449 53.8506C205.464 56.3223 207.653 63.1713 209.234 65.0681C209.888 65.8531 210.892 66.6468 211.899 67.0291L211.925 67.0379C212.056 67.0875 212.184 67.1283 212.316 67.1633L212.287 67.1838L212.777 67.3793L212.756 67.4289C212.821 67.4727 212.894 67.5427 212.899 67.569C212.993 67.9308 212.899 69.0718 212.899 69.5446C212.899 70.0874 213.603 70.8782 214.023 71.2109C216.037 72.8042 219.407 72.3956 221.733 71.7536C225.027 70.8432 228.363 68.8121 230.236 65.8677V63.7782C230.193 63.7841 230.152 63.7782 230.108 63.787C229.504 61.2278 229.945 58.578 229.638 56.0042C231.377 56.2931 233.026 54.548 233.87 53.2027C235.442 50.696 235.781 46.5289 232.078 45.9452L232.075 45.9335ZM213.597 67.5019H215.514C216.623 67.5019 219.433 66.2908 220.455 65.7013C224.33 63.4689 227.665 60.0546 228.532 55.5256L229.174 55.8379C229.273 56.2377 229.069 56.7454 229.078 57.0956C229.113 58.972 229.014 61.6713 229.457 63.4368C229.737 64.5486 230.444 64.5574 229.755 65.7013C227.441 69.5446 219.55 73.0581 215.298 71.205C213.509 70.4259 213.25 69.3724 213.597 67.5019ZM208.134 58.2016C208.548 58.33 208.919 58.5985 209.363 58.6568C210.79 58.8436 212.342 58.6773 213.763 58.6627C214.951 58.651 216.331 58.7706 217.484 58.6656C218.549 58.5693 219.249 57.758 219.585 59.3572C219.921 60.9622 218.823 62.5263 217.344 63.0575C216.226 63.4602 213.579 63.7199 213.734 61.9427C214.563 61.4904 215.64 61.2803 216.422 60.7375C216.533 60.6616 217.102 60.2035 216.962 60.0605C215.552 61.1169 210.947 61.4349 209.789 60.1451C209.657 59.9992 209.724 59.7103 209.523 59.7132C209.112 60.9184 211.233 61.4729 211.359 61.8873C211.499 62.3396 211.338 62.9466 210.833 63.0604C208.852 63.5098 207.661 59.684 208.128 58.2016H208.134ZM213.533 58.0819C212.322 58.1578 211.983 58.1578 210.746 58.0878C209.952 58.0411 209.132 58.1987 208.365 57.9681C208.75 56.5762 210.226 56.5528 211.449 56.5703C213.483 56.5995 215.806 56.4653 217.723 57.2707C218.17 57.4575 218.578 57.6296 218.823 58.0849C217.093 58.4584 215.269 57.974 213.53 58.0849L213.533 58.0819ZM233.881 47.6173C235.302 50.092 233.481 53.6317 231.182 54.9216C230.047 55.5577 228.558 55.7386 228.354 54.0753C228.182 52.6629 228.754 50.3196 228.952 48.8546C228.979 48.6708 229.18 48.5074 228.882 48.5512C227.843 50.1737 227.852 52.1697 227.169 53.9294C226.093 56.7046 223.886 58.3387 221.07 59.115L220.863 59.0158C220.379 57.4574 219.299 56.6783 217.843 56.1063C216.667 55.6453 214.916 55.0879 213.667 55.19C212.716 55.2688 212.167 55.2192 211.257 55.2484C210.092 55.2834 208.017 56.191 207.527 57.3057L207.086 58.5489C206.643 56.5908 206.015 54.726 206.156 52.6804C206.234 51.5394 206.663 50.3488 206.739 49.1961C206.824 47.9325 206.576 46.6835 206.631 45.4258C207.384 45.2157 207.974 45.0289 208.776 45.061C209.468 45.0873 210.985 45.5921 211.437 45.5337C212.263 45.4258 211.84 43.9492 211.487 43.5114C210.868 42.7469 207.801 42.8257 206.853 43.0883C207.378 41.4308 207.804 39.4522 208.575 37.8939C209.068 36.8959 210.078 36.8697 211.111 36.7121C215.806 35.9913 220.767 36.7062 225.328 37.8648L225.042 42.744C226.81 44.1797 228.424 45.9686 229.055 48.2068C229.235 48.3819 229.507 47.7166 229.638 47.5706C230.765 46.3187 232.968 46.0357 233.881 47.6232V47.6173Z" fill="black"/>
<path d="M167.352 122.416L160.646 102.018C160.541 101.697 160.795 101.37 161.134 101.396L161.434 101.419L198.037 105.423C198.448 105.467 198.79 105.759 198.904 106.159L205.4 129.282L168.555 123.446C167.991 123.355 167.527 122.959 167.352 122.419V122.416Z" fill="white"/>
<path d="M105.788 124.512L128.955 117.126C129.285 117.021 129.589 116.852 129.848 116.627C129.956 116.534 130.035 116.414 130.082 116.277L136.89 95.902C136.922 95.8057 136.834 95.7124 136.738 95.7386L113.731 101.47C113.244 101.59 112.859 101.957 112.707 102.433L105.788 124.512Z" fill="white"/>
<path d="M217.978 49.0389C217.473 48.6391 217.555 46.7131 219.095 47.3025C220.33 47.7753 219.195 50.0019 217.978 49.0389Z" fill="black"/>
<path d="M209.538 47.2319C210.854 46.9488 210.997 49.225 209.821 49.3155C208.599 49.3271 208.607 47.4303 209.538 47.2319Z" fill="black"/>
</svg>
