<svg width="103" height="110" viewBox="0 0 103 110" fill="none" xmlns="http://www.w3.org/2000/svg">
<path d="M33.1656 99.048H28.9176V98.376L30.0456 97.488V91.728L27.0696 99.036H26.0256L23.0016 91.668V97.716L24.3336 98.244L23.9496 99.024H20.8416V98.352L21.9696 97.464V90.924L20.6376 90.36L21.0336 89.58H24.4056L27.1416 96.252L29.8536 89.58H33.3576V90.252L32.2176 91.14V97.872L33.5496 98.268L33.1656 99.048ZM38.2377 99H34.4457V98.328L35.5137 97.428V94.644L34.4457 93.936V93.264L36.7977 92.304H37.5537V97.86L38.6337 98.22L38.2377 99ZM36.5217 88.692C36.8657 88.692 37.1457 88.804 37.3617 89.028C37.5857 89.244 37.6977 89.516 37.6977 89.844C37.6977 90.076 37.6177 90.292 37.4577 90.492C37.2977 90.692 37.0977 90.852 36.8577 90.972C36.6177 91.092 36.3857 91.152 36.1617 91.152C35.8257 91.152 35.5457 91.044 35.3217 90.828C35.1057 90.604 34.9977 90.328 34.9977 90C34.9977 89.768 35.0777 89.552 35.2377 89.352C35.3977 89.152 35.5937 88.992 35.8257 88.872C36.0657 88.752 36.2977 88.692 36.5217 88.692ZM47.0481 99H44.3241V98.112L43.1721 99.024C42.9161 99.088 42.6201 99.12 42.2841 99.12C41.7561 99.12 41.2801 98.984 40.8561 98.712C40.4401 98.432 40.1121 98.052 39.8721 97.572C39.6401 97.092 39.5241 96.56 39.5241 95.976C39.5241 95.344 39.7281 94.756 40.1361 94.212C40.5441 93.66 41.0521 93.224 41.6601 92.904C42.2761 92.576 42.8681 92.412 43.4361 92.412C43.7561 92.412 44.0521 92.492 44.3241 92.652V90.864L43.2561 90.156V89.484L45.6081 88.524H46.3641V97.86L47.4441 98.22L47.0481 99ZM43.0161 97.512C43.4881 97.512 43.9241 97.396 44.3241 97.164V94.872C44.2761 94.56 44.1161 94.304 43.8441 94.104C43.5721 93.904 43.2041 93.804 42.7401 93.804C42.0361 93.804 41.6841 94.34 41.6841 95.412C41.6841 96.02 41.7961 96.524 42.0201 96.924C42.2521 97.316 42.5841 97.512 43.0161 97.512ZM56.7413 89.448C57.6373 89.448 58.4293 89.648 59.1173 90.048C59.8133 90.44 60.3493 90.988 60.7253 91.692C61.1093 92.396 61.3013 93.192 61.3013 94.08C61.3013 94.992 61.0133 95.836 60.4373 96.612C59.8693 97.38 59.1613 97.992 58.3133 98.448C57.4653 98.896 56.6573 99.12 55.8893 99.12C55.5213 99.12 55.1573 99.1 54.7973 99.06C54.1973 99.02 53.7373 99 53.4173 99H51.5213V98.328L52.6493 97.44V90.756L51.3173 90.348L51.7133 89.568H53.4053C54.1413 89.568 54.8613 89.544 55.5653 89.496C56.1093 89.464 56.5013 89.448 56.7413 89.448ZM56.2373 98.004C56.7413 98.004 57.1973 97.86 57.6053 97.572C58.0213 97.284 58.3453 96.884 58.5773 96.372C58.8173 95.86 58.9373 95.284 58.9373 94.644C58.9373 93.876 58.8213 93.184 58.5893 92.568C58.3653 91.944 58.0173 91.448 57.5453 91.08C57.0813 90.704 56.5053 90.516 55.8173 90.516C55.4573 90.516 55.1253 90.612 54.8213 90.804V97.776C55.2293 97.928 55.6973 98.004 56.2253 98.004H56.2373ZM66.5924 92.412C67.4324 92.412 68.0804 92.732 68.5364 93.372C69.0004 94.012 69.2244 94.9 69.2084 96.036H64.8884C64.9684 96.524 65.1404 96.916 65.4044 97.212C65.6684 97.5 66.0124 97.644 66.4364 97.644C66.9964 97.644 67.8004 97.364 68.8484 96.804L69.2084 97.488L67.3844 98.94C66.9124 99.06 66.3644 99.12 65.7404 99.12C65.1564 99.12 64.6284 98.984 64.1564 98.712C63.6924 98.432 63.3284 98.052 63.0644 97.572C62.8084 97.092 62.6804 96.56 62.6804 95.976C62.6804 95.344 62.8844 94.756 63.2924 94.212C63.7004 93.66 64.2084 93.224 64.8164 92.904C65.4324 92.576 66.0244 92.412 66.5924 92.412ZM65.9324 93.804C65.5804 93.804 65.3164 93.924 65.1404 94.164C64.9644 94.396 64.8684 94.756 64.8524 95.244H67.1444C67.0804 94.748 66.9604 94.384 66.7844 94.152C66.6164 93.92 66.3284 93.804 65.9204 93.804H65.9324ZM77.406 93.204L74.334 99H72.822L71.034 94.656L69.87 93.984V93.312L72.522 92.304L72.978 94.116L74.286 97.308L75.738 94.476L74.022 93.312L74.406 92.532H77.406V93.204Z" fill="#283555"/>
<g clip-path="url(#clip0_2414_68598)">
<path d="M56.5273 33.0663C56.4748 33.2825 56.809 33.4398 56.9596 33.5315C59.6523 35.2677 63.616 35.6476 65.8763 38.3338C68.5559 41.5113 69.8269 51.0962 70.9931 55.4465C71.6548 57.9099 72.7948 60.596 72.9913 63.1249C73.3255 67.4096 71.5893 72.0875 69.3945 75.6712C67.6911 93.8911 65.765 112.104 63.8322 130.311L63.6946 130.6C62.6792 131.17 61.454 131.209 60.3468 131.51C60.3468 131.726 61.1985 132.309 61.4213 132.46C62.273 133.024 63.4195 133.561 64.3498 134C66.027 134.786 70.089 136.005 71.1438 137.204C72.1986 138.402 71.9758 139.877 70.3707 140.263C68.0842 140.813 64.7364 140.237 62.4105 139.981C59.5344 139.673 56.2128 139.51 53.4153 138.979C52.878 138.881 51.6201 138.599 51.4367 137.977C51.1287 136.909 51.9805 133.908 52.367 132.788C52.4784 132.473 53.127 131.228 52.9959 131.045C52.1573 130.796 51.3187 130.508 50.6112 129.971C50.4998 129.781 50.5391 126.891 50.5522 126.407C50.8798 116.481 51.6725 106.549 52.1573 96.6362L52.046 95.7255C49.1043 107.394 46.0972 119.043 43.2996 130.744C42.7886 131.779 39.2966 132.172 38.2222 132.1C38.137 132.663 38.3204 133.207 38.3335 133.744C38.3859 135.611 38.5104 138.33 38.3335 140.139C38.0977 142.602 33.4264 142.916 31.5854 142.622C28.4341 142.117 27.7724 140.184 28.9845 137.38C29.8886 135.284 31.1792 133.207 32.2668 131.196C31.6706 130.914 29.6461 130.475 29.6265 129.715C30.9106 119.862 32.7254 110.08 34.0619 100.233C35.1429 92.2466 35.8177 84.2013 36.9249 76.2215C36.8922 76.0446 35.5098 75.1667 35.2477 74.9374C32.9744 72.9654 28.9976 66.689 28.4734 63.7342C27.8707 60.3274 29.3317 55.6561 30.2817 52.3083C31.2316 48.9604 33.4985 41.341 35.6212 38.8186C38.0125 35.9752 42.4217 34.4028 45.7761 33.0205C43.1424 32.5684 41.3604 31.2778 40.9935 28.4999C40.6659 28.6899 40.7511 29.4761 40.7969 29.8167C40.8821 30.4915 41.2817 30.9829 41.5307 31.5857C40.299 31.5267 39.2311 30.3998 38.9232 29.2533C38.2746 26.8489 39.8142 23.1604 40.4366 20.7625C41.8976 15.1347 42.1924 9.97203 48.6588 7.92795C53.1401 6.51281 60.3927 8.96965 61.5785 13.9292C61.8668 15.1412 61.4671 16.3074 61.6309 17.1722C61.7488 17.8012 62.535 18.2729 62.5416 19.426C62.5481 20.579 61.6702 20.8804 61.5392 21.4504C61.3426 22.3349 61.6899 24.4707 61.8864 25.4206C62.2337 27.1437 63.5243 29.6464 62.2468 31.1991C61.5588 32.0377 59.3379 33.0794 58.2765 33.0794H56.5207L56.5273 33.0663ZM60.4647 16.2615C59.6654 13.9357 58.5124 11.4854 56.3176 10.2013C55.9311 12.2389 54.5159 14.0471 52.7339 15.0757C51.1484 15.9864 48.7964 16.2353 48.3443 18.3908L50.5719 18.8167C50.9191 15.4295 55.6231 15.0888 56.2259 18.4891L56.7828 18.5087C57.2872 16.7791 58.7482 16.1109 60.4713 16.2681L60.4647 16.2615ZM52.7798 16.7136C50.6701 17.1001 50.3295 21.6797 53.1401 21.6273C56.4355 21.5618 56.7172 15.9995 52.7798 16.7136ZM55.4659 29.8757H53.3956C53.0811 29.8757 50.4539 28.7947 50.8994 28.3885C51.6791 28.3885 52.4522 29.1288 53.1925 29.2271C54.3849 29.3909 56.3045 29.2992 57.3855 28.7619C60.0192 27.4582 60.4909 24.6541 60.7858 22.0007C60.2944 21.9352 59.7113 22.2235 59.2986 21.8435C59.5999 21.4504 60.6351 21.5749 60.8382 21.149C61.0413 20.7232 61.0937 17.7422 60.9496 17.3164C60.7334 16.6481 59.5016 16.7595 58.9513 16.9298C58.0996 17.1919 57.2152 18.1353 57.3789 19.0722C57.4445 19.4587 58.0669 20.5594 58.2306 21.0966C58.3617 21.529 58.7417 22.4921 58.3289 22.8C58.1062 22.9638 56.4683 23.4421 56.311 23.2848C56.1931 22.5773 57.8507 22.7148 57.9096 22.1711C57.9293 22.0138 57.0907 19.5635 56.9596 19.2949C56.9138 19.1966 56.9072 19.0853 56.7828 19.046C56.2259 18.856 56.0555 20.199 55.7673 20.6708C54.6535 22.4921 51.6332 22.8328 50.7815 20.5856C50.6374 20.199 50.6374 19.7732 50.4736 19.4063L48.1347 18.9346C47.8923 20.127 47.8726 21.3849 47.9119 22.6035C47.9774 24.5034 48.2133 26.6589 48.5867 28.5261C48.7178 29.1943 49.3795 31.1402 49.3009 31.6381C49.1829 32.3718 47.1061 32.5553 46.6868 32.8632C46.4313 33.0467 46.1364 33.7215 45.6975 33.8787C45.6254 34.6715 48.3509 35.7787 49.006 35.9818C50.7815 36.5321 55.479 36.9317 56.6386 35.1563C57.3527 34.0621 56.121 34.1604 55.6231 33.6167C54.909 32.837 55.1907 30.8388 55.4659 29.8888V29.8757ZM61.6309 20.4087C62.1681 19.8911 62.1681 18.9084 61.6309 18.3908V20.4087ZM69.3945 74.3347C70.6524 71.8385 71.7793 68.9755 72.1462 66.1845C72.6834 62.116 71.1569 59.0236 70.1479 55.2368C69.0145 50.9587 68.3921 46.2743 67.0032 42.1075C65.706 38.2159 63.8584 37.41 60.3206 35.8114C59.8489 35.5952 58.211 34.8221 57.831 34.7828C57.7458 34.7763 57.6672 34.7435 57.5886 34.809C56.6583 37.469 52.3146 37.41 50.0412 36.9514C48.4098 36.6238 45.9792 35.6869 45.1537 34.1735L44.9965 34.1277C40.7773 35.8901 36.6236 37.4166 34.6843 41.8978C32.6468 46.6019 30.9368 52.3083 29.7903 57.3137C28.4734 63.0528 29.1286 65.2149 32.3126 70.0041C33.6361 71.9957 35.1822 74.0595 37.1805 75.396C38.1894 73.1095 39.7225 70.9803 41.4193 69.1589C40.5938 67.5014 40.0435 65.5817 39.2246 63.9439C38.576 62.6532 37.7504 62.2208 36.5122 61.5525C35.9619 61.2577 33.9898 60.5633 33.8916 60.026C33.8785 59.9409 33.8916 59.8491 33.8916 59.764C35.5557 60.2684 37.0167 61.2512 38.5694 61.998C38.4056 61.6246 38.5301 61.107 38.5825 60.6877C39.2377 55.5316 41.2752 50.559 39.467 45.3047C39.2049 44.5381 38.5759 43.7847 38.7266 42.9592C39.2901 42.9068 39.86 44.4923 40.0304 44.9574C41.2752 48.338 40.8428 52.2624 40.2335 55.7479C39.9256 57.5037 39.0476 60.2553 39.1066 61.9325C39.1328 62.7515 39.7225 63.3935 40.0435 64.0946C40.3645 64.7956 41.4062 67.5931 41.8779 67.901C42.5134 68.3203 43.5944 68.6676 44.3151 69.0803C47.1716 70.6985 49.3533 73.3847 52.177 74.9374C52.9632 75.3698 53.8935 75.586 54.5159 76.215C53.6052 76.5949 52.3211 75.8481 51.5087 75.396C48.5081 73.7254 45.4878 69.9254 42.3431 68.9296C42.271 68.91 42.1662 68.9099 42.1859 68.982C44.8196 75.3632 52.5898 80.0149 59.4296 77.7284C61.9585 76.8832 66.6035 73.2405 67.2784 70.5872C67.8221 68.4579 66.7673 66.2959 66.348 64.278C65.7781 61.546 65.7518 58.683 65.4636 55.9051C65.1688 53.0617 64.8674 50.2445 64.6119 47.3946C64.5333 46.5429 64.0484 44.1712 64.3498 43.5161C64.6053 42.9657 64.8739 43.5554 64.9198 43.8961C65.267 46.4119 65.4046 49.0063 65.6732 51.5417C66.1318 55.8723 66.5184 60.216 67.1604 64.5204C67.3504 65.0052 68.2873 64.7301 68.7983 64.7956C69.1914 64.848 69.958 65.1428 70.03 65.5817C70.0693 65.8045 69.9252 65.7586 69.7614 65.7455C69.0538 65.68 68.2939 65.2214 67.4749 65.4245C67.7959 66.3745 67.9728 67.3703 68.0973 68.3596C68.1825 69.0475 68.1104 70.0368 68.2414 70.6658C68.307 70.9934 68.6607 71.5437 68.7787 71.9368C69.0014 72.6706 69.0669 73.4043 69.2438 74.1316C69.27 74.2429 69.2307 74.3936 69.3814 74.3609L69.3945 74.3347ZM41.8517 69.7682C41.7272 69.6699 41.4521 69.9975 41.3735 70.0827C41.1049 70.371 38.1239 74.3936 38.3466 74.5508C38.9625 74.5115 39.5259 74.8391 40.0173 75.1798L40.1549 75.147C40.7904 74.3478 41.3079 73.4633 41.9172 72.6443C42.1334 72.3626 42.6248 72.0416 42.6903 71.7075C42.782 71.2358 41.9041 70.3251 41.8517 69.7682ZM51.3318 129.63C51.7184 129.774 52.0918 129.99 52.4915 130.121C55.158 130.986 60.1306 131.111 62.784 130.213C62.915 130.167 63.0526 130.154 63.0985 129.997C64.4153 119.501 65.2343 108.953 66.3087 98.4313C67.0294 91.4277 68.2873 84.0375 68.6477 77.047C68.7394 75.2257 68.4577 73.0374 67.7435 71.3602C66.656 73.7974 64.0222 76.1298 61.7292 77.4663C55.2497 81.24 47.2633 77.8594 43.0769 72.3168L42.8279 72.4937C41.5831 74.4919 40.4038 76.9356 38.2418 78.0625C37.9404 77.4008 39.7028 76.0446 39.6176 75.6777C39.3294 75.3567 38.3925 75.0226 38.0256 75.2388L37.8422 75.586C36.5253 84.0768 35.8505 92.6594 34.7171 101.176L30.3799 129.577C30.4586 129.813 32.614 130.468 33.0071 130.573C36.0274 131.399 39.7356 131.89 42.6052 130.429C44.04 124.932 45.2651 119.377 46.6475 113.86C48.7767 105.376 50.8208 96.2693 53.389 87.9554C53.8804 86.3699 54.529 84.6468 55.3349 83.2055C55.8066 82.3669 56.4093 81.3055 57.2676 80.8273C57.2938 81.0893 57.2676 81.299 57.1889 81.5414C56.999 82.1048 56.0817 83.3431 55.7411 84.031C52.6815 90.1763 52.9763 96.0203 52.5898 102.683C52.1246 110.67 51.6005 118.708 51.3122 126.721C51.2794 127.691 51.3318 128.667 51.3318 129.636V129.63ZM59.7047 131.576C59.5868 131.471 57.0252 131.595 56.5731 131.569C55.6493 131.517 54.6666 131.235 53.7559 131.301C53.5004 131.458 52.5046 134.701 52.4849 135.146C52.4849 135.271 52.4653 135.376 52.5832 135.454C54.2211 135.919 55.8917 136.306 57.5624 136.647C61.8144 137.505 66.217 138.14 70.5541 137.741C70.6 137.682 69.7811 137.04 69.6697 136.974C68.2152 136.162 65.8436 135.539 64.2057 134.779C63.0854 134.262 60.4582 133.024 59.8227 132.034C59.7375 131.897 59.7179 131.602 59.6917 131.582L59.7047 131.576ZM37.5932 132.1L32.9219 131.399L29.751 137.708C29.6789 138.304 30.9565 139.038 31.4675 139.241C33.374 139.994 36.3222 139.746 37.4949 137.891L37.5998 132.1H37.5932ZM70.9865 138.37C66.4922 138.861 61.893 138.245 57.4772 137.361C56.3176 137.131 55.1449 136.869 53.9918 136.594C53.5397 136.483 52.806 136.181 52.426 136.136C52.2098 136.109 52.177 136.653 52.1639 136.824C52.1049 137.701 52.118 137.898 52.9894 138.121C58.3355 138.448 64.2188 140.06 69.5518 139.641C70.4231 139.575 71.111 139.405 70.9865 138.363V138.37ZM37.7046 138.691C35.6474 140.846 31.343 140.846 29.4627 138.481C28.9713 139.09 29.1089 140.401 29.6331 140.971C30.7141 142.156 34.5074 142.058 35.9291 141.541C37.3508 141.023 37.6784 140.204 37.7046 138.691Z" fill="black"/>
<path d="M51.3308 129.63C51.3308 128.667 51.2718 127.684 51.3112 126.714C51.5994 118.708 52.1301 110.669 52.5887 102.677C52.9753 96.0136 52.6804 90.1696 55.74 84.0243C56.0807 83.3429 56.9979 82.0981 57.1879 81.5347C57.2731 81.2857 57.2927 81.0761 57.2665 80.8205C56.4083 81.2923 55.8055 82.3536 55.3338 83.1988C54.528 84.6401 53.8728 86.3697 53.388 87.9487C50.8132 96.2626 48.7691 105.369 46.6464 113.854C45.2641 119.37 44.0389 124.919 42.6041 130.422C39.728 131.89 36.0198 131.392 33.0061 130.567C32.613 130.462 30.4575 129.807 30.3789 129.571L34.716 101.17C35.856 92.6527 36.5243 84.0701 37.8411 75.5793L38.0246 75.2321C38.3915 75.0159 39.3218 75.35 39.6166 75.671C39.7018 76.0379 37.946 77.3941 38.2408 78.0558C40.4028 76.9355 41.5821 74.4917 42.8269 72.4869L43.0758 72.3101C47.2688 77.8527 55.2552 81.2333 61.7281 77.4596C64.0277 76.1231 66.6549 73.7907 67.7425 71.3535C68.4566 73.0307 68.7383 75.219 68.6466 77.0403C68.2928 84.0243 67.0284 91.4144 66.3077 98.4246C65.2267 108.946 64.4078 119.501 63.0974 129.99C63.045 130.147 62.914 130.16 62.783 130.206C60.1296 131.104 55.1569 130.979 52.4904 130.115C52.0908 129.984 51.7239 129.767 51.3308 129.623V129.63Z" fill="white"/>
<path d="M69.3914 74.3347C69.2407 74.3675 69.28 74.2168 69.2538 74.1054C69.0769 73.3848 69.0049 72.6444 68.7887 71.9107C68.6707 71.5176 68.317 70.9672 68.2514 70.6397C68.127 70.0107 68.1925 69.0214 68.1073 68.3335C67.9828 67.3377 67.7994 66.3418 67.4849 65.3984C68.3039 65.1953 69.0638 65.6539 69.7714 65.7194C69.9352 65.7325 70.0793 65.785 70.04 65.5556C69.9679 65.1167 69.2014 64.8219 68.8083 64.7695C68.2973 64.7039 67.3604 64.9791 67.1704 64.4943C66.5284 60.1899 66.1418 55.8462 65.6832 51.5156C65.4146 48.9736 65.277 46.3858 64.9298 43.87C64.8839 43.5293 64.6088 42.9396 64.3598 43.49C64.0584 44.1451 64.5498 46.5168 64.6219 47.3685C64.8774 50.2119 65.1787 53.0356 65.4736 55.879C65.7618 58.6503 65.7881 61.5199 66.358 64.2519C66.7773 66.2698 67.8321 68.4383 67.2884 70.561C66.6136 73.221 61.9619 76.8571 59.4396 77.7022C52.5932 79.9887 44.8296 75.3371 42.1958 68.9559C42.1696 68.8838 42.281 68.8838 42.3531 68.9035C45.5044 69.8993 48.5181 73.6992 51.5187 75.3699C52.3311 75.8219 53.6152 76.5688 54.5259 76.1888C53.9035 75.5664 52.9666 75.3437 52.187 74.9113C49.3567 73.3586 47.1816 70.679 44.3251 69.0542C43.6044 68.6414 42.5234 68.2942 41.8879 67.8749C41.4162 67.567 40.3811 64.7826 40.0535 64.0684C39.7259 63.3543 39.1494 62.7254 39.1166 61.9064C39.0577 60.2292 39.9421 57.4776 40.2435 55.7217C40.8462 52.2363 41.2786 48.3119 40.0404 44.9313C39.8701 44.4661 39.3001 42.8872 38.7366 42.9331C38.5859 43.7586 39.2149 44.512 39.477 45.2785C41.2852 50.5329 39.2476 55.5055 38.5925 60.6616C38.5401 61.0875 38.4156 61.6051 38.5794 61.9719C37.0267 61.2251 35.5657 60.2489 33.9016 59.7379C33.9016 59.823 33.8885 59.9147 33.9016 59.9999C33.9998 60.5371 35.9719 61.2316 36.5222 61.5264C37.7539 62.1947 38.5859 62.6271 39.2345 63.9178C40.06 65.5556 40.6038 67.4753 41.4293 69.1328C39.7325 70.9541 38.206 73.0899 37.1905 75.3699C35.1857 74.0334 33.6461 71.9696 32.3227 69.978C29.1386 65.1822 28.4834 63.0202 29.8003 57.2876C30.9468 52.2822 32.6568 46.5757 34.6943 41.8717C36.7319 37.1677 40.7938 35.8705 45.0065 34.1016L45.1637 34.1474C45.9827 35.6543 48.4199 36.5912 50.0512 36.9253C52.3311 37.3839 56.6683 37.4429 57.5986 34.7829C57.6772 34.7174 57.7558 34.7436 57.841 34.7567C58.221 34.796 59.8589 35.5691 60.3306 35.7853C63.8685 37.3839 65.7094 38.1832 67.0132 42.0814C68.4021 46.2416 69.0245 50.9325 70.158 55.2107C71.1603 59.0041 72.6934 62.0964 72.1562 66.1584C71.7893 68.9494 70.6624 71.8124 69.4045 74.3085L69.3914 74.3347Z" fill="#0F172A"/>
<path d="M52.7782 16.7128C56.7223 15.9921 56.434 21.5609 53.1385 21.6265C50.3279 21.6854 50.6686 17.0993 52.7782 16.7128ZM54.2654 18.6324C53.6889 18.0231 52.5948 18.8814 53.1778 19.5562C53.8133 20.2899 54.8616 19.2679 54.2654 18.6324Z" fill="white"/>
<path d="M41.849 69.7682C41.9014 70.3251 42.7793 71.2423 42.6876 71.7075C42.6221 72.0416 42.1307 72.3626 41.9145 72.6443C41.3052 73.4567 40.7876 74.3477 40.1521 75.147L40.0146 75.1798C39.5232 74.8391 38.9663 74.5181 38.3439 74.5508C38.1212 74.3936 41.1021 70.371 41.3707 70.0827C41.4493 69.9975 41.7245 69.6699 41.849 69.7682Z" fill="white"/>
<path d="M61.6289 20.4085V18.3906C62.1661 18.9082 62.1661 19.8909 61.6289 20.4085Z" fill="white"/>
<path d="M54.5739 25.4268C54.967 25.3024 57.0962 25.4793 57.5286 25.6299C58.151 25.8461 57.5679 26.1017 57.2011 26.1148C56.7228 26.1344 55.5107 26.0034 54.9932 25.9313C54.6656 25.8855 54.0694 25.5841 54.5739 25.4268Z" fill="black"/>
<path d="M59.2619 18.6205C60.2512 18.4174 60.4739 19.9177 59.4453 19.9832C58.6788 20.0356 58.4364 18.7908 59.2619 18.6205Z" fill="black"/>
<path d="M54.264 18.6337C54.8668 19.2692 53.8185 20.2912 53.1765 19.5575C52.5868 18.8826 53.6875 18.0244 54.264 18.6337Z" fill="black"/>
</g>
<g clip-path="url(#clip1_2414_68598)">
<rect x="71.5" y="11" width="19" height="3.30435" rx="1.65217" fill="#0F172A" fill-opacity="0.3"/>
<rect x="71.5" y="11" width="12.3913" height="3.30435" rx="1.65217" fill="#0F172A"/>
</g>
<defs>
<clipPath id="clip0_2414_68598">
<rect width="48.5876" height="76.5254" fill="white" transform="translate(26.3867 4.73633)"/>
</clipPath>
<clipPath id="clip1_2414_68598">
<rect x="71.5" y="11" width="19" height="3.30435" rx="1.65217" fill="white"/>
</clipPath>
</defs>
</svg>
