<svg width="103" height="110" viewBox="0 0 103 110" fill="none" xmlns="http://www.w3.org/2000/svg">
<path d="M16.2161 97.812C16.2161 98.132 16.2241 98.428 16.2401 98.7C16.2641 98.964 16.2921 99.144 16.3241 99.24L13.6121 102.168L12.8561 101.58C13.3201 101.012 13.6321 100.528 13.7921 100.128C13.9601 99.728 14.0441 99.232 14.0441 98.64V90.732L12.4841 90.348L12.8681 89.568H17.3561V90.24L16.2161 91.128V97.812ZM25.7744 99H23.0384V97.968L21.7424 99.036C21.5264 99.1 21.2824 99.132 21.0104 99.132C20.3944 99.132 19.9064 98.968 19.5464 98.64C19.1864 98.304 19.0064 97.852 19.0064 97.284V94.704L17.9384 94.092V93.42L20.2904 92.376H21.0464V96.384C21.0464 96.768 21.1024 97.036 21.2144 97.188C21.3264 97.34 21.5264 97.416 21.8144 97.416C22.2304 97.416 22.6384 97.28 23.0384 97.008V94.704L21.9704 94.092V93.42L24.3224 92.376H25.0784V97.86L26.1584 98.22L25.7744 99ZM34.7357 99H32.0117V95.16C32.0117 94.784 31.9517 94.52 31.8317 94.368C31.7197 94.208 31.5197 94.128 31.2317 94.128C30.8077 94.128 30.3877 94.264 29.9717 94.536V97.86L31.0517 98.22L30.6557 99H26.8637V98.328L27.9317 97.428V94.704L26.8637 94.032V93.36L29.3597 92.304L29.8277 93.696L31.3157 92.508C31.5317 92.444 31.7757 92.412 32.0477 92.412C32.6557 92.412 33.1397 92.58 33.4997 92.916C33.8677 93.244 34.0517 93.692 34.0517 94.26V97.86L35.1317 98.22L34.7357 99ZM39.5853 99H35.7933V98.328L36.8613 97.428V94.644L35.7933 93.936V93.264L38.1453 92.304H38.9013V97.86L39.9813 98.22L39.5853 99ZM37.8693 88.692C38.2133 88.692 38.4933 88.804 38.7093 89.028C38.9333 89.244 39.0453 89.516 39.0453 89.844C39.0453 90.076 38.9653 90.292 38.8053 90.492C38.6453 90.692 38.4453 90.852 38.2053 90.972C37.9653 91.092 37.7333 91.152 37.5093 91.152C37.1733 91.152 36.8933 91.044 36.6693 90.828C36.4533 90.604 36.3453 90.328 36.3453 90C36.3453 89.768 36.4253 89.552 36.5853 89.352C36.7453 89.152 36.9413 88.992 37.1733 88.872C37.4133 88.752 37.6453 88.692 37.8693 88.692ZM44.7838 92.412C45.3758 92.412 45.9038 92.552 46.3678 92.832C46.8318 93.104 47.1918 93.48 47.4478 93.96C47.7118 94.44 47.8438 94.972 47.8438 95.556C47.8438 96.188 47.6398 96.78 47.2318 97.332C46.8238 97.876 46.3118 98.312 45.6958 98.64C45.0878 98.96 44.4998 99.12 43.9318 99.12C43.3478 99.12 42.8198 98.984 42.3478 98.712C41.8838 98.432 41.5198 98.052 41.2558 97.572C40.9998 97.092 40.8718 96.56 40.8718 95.976C40.8718 95.344 41.0758 94.756 41.4838 94.212C41.8918 93.66 42.3998 93.224 43.0078 92.904C43.6238 92.576 44.2158 92.412 44.7838 92.412ZM44.0878 93.804C43.7518 93.804 43.4958 93.94 43.3198 94.212C43.1518 94.476 43.0678 94.872 43.0678 95.4C43.0678 96.072 43.2038 96.632 43.4758 97.08C43.7478 97.52 44.1318 97.74 44.6278 97.74C44.9558 97.74 45.2038 97.604 45.3718 97.332C45.5478 97.052 45.6358 96.648 45.6358 96.12C45.6358 95.448 45.4998 94.896 45.2278 94.464C44.9558 94.024 44.5758 93.804 44.0878 93.804ZM53.0193 94.116C52.7313 94.116 52.4433 94.244 52.1553 94.5V97.74L53.9793 98.22L53.5953 99H49.0473V98.328L50.1152 97.428V94.704L49.0473 94.032V93.36L51.5433 92.304L51.9993 93.636L53.0913 92.508C53.2593 92.444 53.4553 92.412 53.6793 92.412C54.0953 92.412 54.4513 92.508 54.7473 92.7C55.0513 92.892 55.2633 93.156 55.3833 93.492L54.2313 94.932H53.4753C53.4673 94.644 53.4273 94.44 53.3553 94.32C53.2833 94.192 53.1713 94.128 53.0193 94.128V94.116ZM64.5108 89.448C65.4068 89.448 66.1988 89.648 66.8868 90.048C67.5828 90.44 68.1188 90.988 68.4948 91.692C68.8788 92.396 69.0708 93.192 69.0708 94.08C69.0708 94.992 68.7828 95.836 68.2068 96.612C67.6388 97.38 66.9308 97.992 66.0828 98.448C65.2348 98.896 64.4268 99.12 63.6588 99.12C63.2908 99.12 62.9268 99.1 62.5668 99.06C61.9668 99.02 61.5068 99 61.1868 99H59.2908V98.328L60.4188 97.44V90.756L59.0868 90.348L59.4828 89.568H61.1748C61.9108 89.568 62.6308 89.544 63.3348 89.496C63.8788 89.464 64.2708 89.448 64.5108 89.448ZM64.0068 98.004C64.5108 98.004 64.9668 97.86 65.3748 97.572C65.7908 97.284 66.1148 96.884 66.3468 96.372C66.5868 95.86 66.7068 95.284 66.7068 94.644C66.7068 93.876 66.5908 93.184 66.3588 92.568C66.1348 91.944 65.7868 91.448 65.3148 91.08C64.8508 90.704 64.2748 90.516 63.5868 90.516C63.2268 90.516 62.8948 90.612 62.5908 90.804V97.776C62.9988 97.928 63.4668 98.004 63.9948 98.004H64.0068ZM74.3619 92.412C75.2019 92.412 75.8499 92.732 76.3059 93.372C76.7699 94.012 76.9939 94.9 76.9779 96.036H72.6579C72.7379 96.524 72.9099 96.916 73.1739 97.212C73.4379 97.5 73.7819 97.644 74.2059 97.644C74.7659 97.644 75.5699 97.364 76.6179 96.804L76.9779 97.488L75.1539 98.94C74.6819 99.06 74.1339 99.12 73.5099 99.12C72.9259 99.12 72.3979 98.984 71.9259 98.712C71.4619 98.432 71.0979 98.052 70.8339 97.572C70.5779 97.092 70.4499 96.56 70.4499 95.976C70.4499 95.344 70.6539 94.756 71.0619 94.212C71.4699 93.66 71.9779 93.224 72.5859 92.904C73.2019 92.576 73.7939 92.412 74.3619 92.412ZM73.7019 93.804C73.3499 93.804 73.0859 93.924 72.9099 94.164C72.7339 94.396 72.6379 94.756 72.6219 95.244H74.9139C74.8499 94.748 74.7299 94.384 74.5539 94.152C74.3859 93.92 74.0979 93.804 73.6899 93.804H73.7019ZM85.1755 93.204L82.1035 99H80.5915L78.8035 94.656L77.6395 93.984V93.312L80.2915 92.304L80.7475 94.116L82.0555 97.308L83.5075 94.476L81.7915 93.312L82.1755 92.532H85.1755V93.204Z" fill="#283555"/>
<g clip-path="url(#clip0_2414_68593)">
<path d="M32.536 60.3944C31.2682 59.4139 29.8258 57.9208 29.7018 56.2304C29.4652 53.0469 33.3248 45.1529 34.9589 42.1891C37.3366 37.8618 39.1397 35.9348 43.4501 33.4837C43.8276 33.2696 46.4702 31.8441 46.6167 31.9455L48.3691 37.9688C48.8424 38.2731 50.2792 36.6053 50.6454 36.2897C51.1131 35.8841 51.4568 35.5009 52.1104 35.6981C52.009 35.4333 51.9189 35.1234 51.6033 35.0558C51.0793 35.0051 49.7045 36.6109 49.2255 36.9772C49.0509 37.1124 48.8706 37.2814 48.6339 37.2533L47.09 31.4384C47.5183 30.4805 48.1155 29.5057 49.1354 29.1113L49.0903 30.2101C48.9607 30.1312 48.6734 30.0692 48.6339 30.2551C48.4987 30.9144 52.1386 34.3796 52.7471 35.1065C53.4346 35.9235 54.0318 36.825 54.6291 37.7097C54.5615 38.3013 54.2008 38.8197 54.1276 39.4169C53.9586 40.8706 54.3812 42.4314 54.4826 43.8908C54.8432 49.1647 54.6122 54.6246 54.5896 59.9042C54.5784 61.9439 54.8545 64.3047 54.6685 66.2994C54.5445 67.601 53.9079 69.7083 53.5472 71.0324C53.4515 71.3761 52.8655 73.5736 52.7359 73.6525C51.5301 73.737 50.3186 73.4271 49.2143 72.9538C46.1209 71.6128 41.6978 66.8008 38.2607 69.7365L37.5733 70.4182C38.3058 67.7418 39.2129 65.1049 39.4947 62.3214C40.9653 62.5918 42.2781 63.5835 43.8276 63.4088C44.0868 63.3807 44.763 63.1102 44.9207 63.1553C45.0278 63.1891 45.1574 63.4877 45.2983 63.6061C46.1603 64.3329 49.7214 64.4174 50.7131 63.899C51.5075 63.4821 51.5695 61.9777 51.716 61.155C52.1499 58.7491 52.4372 56.3093 52.7697 53.8865C53.2711 53.554 53.4796 53.0187 53.288 52.4158C53.2486 52.2919 53.057 52.2919 52.9951 52.1566C52.8711 51.8636 52.95 51.503 52.7359 51.1368C52.2062 50.224 49.9073 50.286 48.9551 50.2522C48.1437 50.224 47.3154 50.1676 46.4871 50.2522C46.1209 50.2916 45.3997 50.3592 45.0954 50.5057C44.5939 50.7536 44.6052 51.2382 44.4193 51.6608C44.0868 52.4215 43.467 53.1145 44.7066 53.5089L44.6615 54.7373C43.4501 55.1711 42.7571 56.1346 41.957 57.07L40.7061 56.7094C40.9089 55.9431 40.7455 55.1993 39.9398 54.957C40.1708 53.9822 40.0581 52.8384 40.2441 51.8806C40.5652 50.1789 42.357 48.0434 43.0106 46.3249C43.1402 45.9868 43.2811 45.6431 43.2416 45.2769C43.2416 45.1923 43.0782 45.2205 43.0219 45.2431C42.4641 45.4572 39.5397 52.213 38.8016 53.0976C37.2747 51.6157 35.4772 51.4918 33.6347 52.506C32.9811 52.8666 32.0007 53.5935 31.8993 54.3823C32.1134 54.5795 33.0375 53.6047 33.2798 53.4301C34.6602 52.4271 37.0098 51.8636 38.2607 53.3737C38.9876 54.2471 38.024 53.7794 37.6184 53.7456C35.8209 53.5822 34.4179 55.0415 33.5671 56.4614C33.2798 56.9404 32.5416 58.5068 32.5416 59.0026V60.4225L32.536 60.3944ZM43.3262 43.5189V41.6877C43.3262 41.2144 42.8416 39.755 42.6387 39.2648C42.2218 38.2618 41.433 36.8532 40.3117 36.6504L40.1257 36.9264C41.6189 37.7942 42.3007 39.3662 42.6444 40.9946C42.7345 41.4172 42.9148 43.6034 43.1008 43.6485L43.3262 43.5132V43.5189Z" fill="#C4DEF8"/>
<path d="M59.328 36.6089C58.9054 36.2933 58.2011 34.958 57.5813 35.0988C57.3052 35.1608 56.0881 36.5807 55.8965 36.8793C55.8177 36.9977 55.7106 37.054 55.7613 37.2456C56.3304 37.2569 57.446 35.6341 57.8066 35.7073C58.325 36.0454 59.0462 37.5273 59.5984 37.6682C60.0774 37.7921 59.8013 36.3046 59.7618 36.0398C59.6435 35.2791 59.4407 34.3945 59.0575 33.724C59.035 33.662 59.1308 33.662 59.1928 33.6789C59.5196 33.7803 60.4211 34.2875 60.7648 34.4847C66.1007 37.5442 65.1147 42.1984 66.9177 47.354C67.1037 47.8893 68.4052 50.7403 68.1066 51.0559C66.991 50.7234 65.695 50.6051 64.6357 51.1967C64.4611 51.2982 63.6102 51.9574 63.8074 52.149C64.3765 52.1152 64.8104 51.6644 65.3908 51.4897C66.2134 51.2418 66.9234 51.2813 67.7404 51.5066L66.3655 52.0983C63.8018 53.4844 62.5904 57.3666 64.2639 59.8289C63.5483 59.7838 62.1115 58.8879 61.9311 58.1836C61.7227 57.3891 61.9875 55.4734 62.0833 54.5775C62.4946 50.684 63.4919 46.8525 63.8074 42.9478C63.8751 42.1364 63.9878 40.8911 63.8976 40.1136C63.8751 39.8995 63.8244 39.4938 63.5314 39.522C63.3341 40.7334 63.3792 41.9955 63.2553 43.2238C62.596 49.7712 60.8437 56.0143 60.9676 62.7138C61.0014 64.4436 61.2775 66.1903 61.3395 67.9201C61.3677 68.6244 61.4466 70.1007 61.317 70.7374C61.1029 71.7967 59.1871 72.8165 58.2518 73.1602C57.7447 73.3462 57.1812 73.5715 56.6403 73.549C56.229 73.4476 55.2655 67.3228 55.2091 66.5453C54.6457 58.7978 55.4232 50.6896 54.933 42.852C54.8091 40.8968 54.3752 39.9333 55.0232 37.9105C55.35 36.885 56.2233 35.4707 56.3755 34.5072C56.4544 33.9888 56.2966 33.6282 56.3022 33.1549C56.3079 32.6816 56.4544 32.0449 56.4938 31.5547C58.4377 32.259 59.035 34.7551 59.328 36.5863V36.6089ZM55.4176 41.1616C55.9472 41.556 56.4149 40.5474 55.9416 40.3164L55.6261 40.2657C55.2655 40.322 55.226 40.9024 55.4176 41.1616ZM55.9191 47.5117C55.5303 47.6244 55.5359 48.6499 56.0825 48.5992C56.4994 48.5598 56.4544 47.7935 56.229 47.5343C56.1332 47.4723 56.0261 47.4779 55.9247 47.5061L55.9191 47.5117ZM56.3924 56.5383C56.6403 56.0819 56.6741 55.4339 56.0092 55.4621C55.705 55.5579 55.7219 56.2509 55.8458 56.4989L56.3924 56.5383ZM56.3867 62.787L55.8402 62.8265C55.4176 64.2971 56.8882 64.1675 56.3867 62.787Z" fill="#C4DEF8"/>
<path d="M44.9714 61.1257C46.6336 61.1257 48.2394 61.5652 49.9073 61.3117C50.1214 61.5371 49.3663 61.8639 49.1973 61.9315C47.8507 62.4499 46.3969 62.2921 45.0221 62.5118C44.5713 62.5851 44.0699 62.8105 43.6304 62.8556C42.5767 62.9682 39.6636 61.8075 38.4748 61.4469C37.8042 61.2441 37.1225 61.0638 36.4351 60.9285L36.2942 60.7933C36.0012 59.503 36.9084 57.9253 37.8831 57.1027C39.1002 56.0828 39.2861 56.6857 40.4412 57.1928C40.8244 57.3619 41.3033 57.4295 41.6076 57.5591C41.7484 57.621 41.6921 57.8633 41.9964 57.8352C42.2555 57.807 43.343 56.2349 43.7374 55.9081C45.1968 54.6967 47.552 54.815 49.2931 55.294C49.5297 55.3616 51.3103 55.8687 50.651 56.3251C50.4256 56.4772 47.0505 56.2011 46.3124 56.2857C46.0476 56.3138 44.8531 56.5617 44.7009 56.6857L44.6559 57.1027C44.7967 57.3337 46.4307 57.3337 46.8421 57.3844C47.845 57.514 49.8847 57.9929 50.713 58.5451C50.8933 58.6634 51.1131 58.7649 50.9778 59.024C50.6792 59.2156 50.3073 59.2269 49.9636 59.2044C48.493 59.1142 46.6843 58.4831 45.208 58.9226C44.684 59.0748 44.8362 59.2663 45.2982 59.3001C46.7632 59.4072 48.8142 59.5255 50.2172 59.8692C50.9891 60.0552 51.1187 60.4609 50.2397 60.5792L45.3038 60.675C45.0672 60.7144 44.9489 60.8891 44.9827 61.1314L44.9714 61.1257Z" fill="white"/>
<path d="M72.2243 53.6258C72.0214 54.2625 71.8806 54.7978 72.5905 55.1471C74.6021 55.057 76.6361 54.933 78.5744 55.5472L78.7209 55.3218C78.6364 54.9161 76.5009 54.764 76.36 54.0202C76.3206 53.8117 76.3826 53.6202 76.5967 53.5582C77.2334 53.3666 78.6702 54.0258 79.3295 54.0822C79.5041 54.0991 79.6168 54.1104 79.7295 53.947C79.4309 53.6371 79.0365 53.4399 78.6308 53.3103C77.9434 53.0849 75.8191 53.0736 76.0671 52.0425C76.1403 51.7382 78.6139 51.9467 79.0308 51.9918C79.6055 52.0594 80.1634 52.3975 80.7325 52.1608C80.7663 51.9974 80.6817 51.9805 80.5803 51.9016C79.8028 51.3044 76.7488 51.4452 76.4784 50.8818C76.1685 50.2282 76.8897 50.0986 77.3912 50.0535C78.2194 49.9802 80.1803 49.9802 80.8564 50.4366C81.3297 50.7522 81.8087 51.8734 81.4593 52.3805C81.2734 52.6454 80.9297 52.3129 80.8395 52.6848C80.7944 52.8764 80.9466 53.2032 80.924 53.4849C80.879 54.0202 80.3437 54.3921 79.8197 54.3526C79.8929 54.8316 79.9605 54.871 79.6732 55.2598C79.0365 56.1163 77.4137 56.5558 76.3882 56.5501C76.0614 56.5501 75.3008 56.3022 75.0359 56.3811C74.912 56.4149 74.7486 56.6515 74.5739 56.753C72.9737 57.6489 70.6297 58.7589 68.8605 59.1815C68.0322 59.3787 67.5645 59.7167 67.2433 58.7476C66.4489 56.3811 68.3815 53.6258 70.9002 53.6258H72.2243Z" fill="white"/>
<path d="M40.1231 56.4614C39.1709 55.7796 38.7145 55.7289 37.796 56.4614C36.286 57.6672 35.283 59.5829 35.8352 61.5325C35.9479 61.9212 36.1902 62.4734 36.6522 62.496L36.4212 61.4029L38.3877 61.9945C38.5567 62.1072 38.0665 62.5241 37.9763 62.5918C36.6241 63.5722 34.5787 62.8566 33.6377 61.6282C32.0263 59.5265 34.1505 55.5993 36.224 54.5231C37.6777 53.768 38.4158 54.6752 39.5146 55.3795C39.9992 55.6951 40.433 55.5655 40.1288 56.4557L40.1231 56.4614Z" fill="#C4DEF8"/>
<path d="M70.6718 53.1696C68.0686 53.0457 66.4008 55.6827 66.5529 58.0661C66.6205 59.069 67.1276 60.2072 68.2489 60.303C68.5025 60.3255 68.9532 60.3819 68.9363 60.0325L68.3898 59.7564C69.1842 59.7959 69.99 59.3226 70.7225 59.2042C70.9704 59.1648 70.7394 59.5085 70.6774 59.6212C69.7815 61.2383 67.4713 61.6496 65.9275 60.7087C61.7692 58.1675 65.1668 50.7073 69.7195 52.4371C70.052 52.5667 70.6154 52.764 70.6774 53.1696H70.6718Z" fill="#C4DEF8"/>
<path d="M55.2005 18.7935C57.2121 18.6357 57.5952 21.4417 56.226 22.5687C54.1356 24.2872 52.1635 20.574 53.8032 19.3175C54.1413 19.0583 54.7836 18.8217 55.2005 18.7935ZM54.8737 21.5882C54.9921 21.7066 55.3583 21.7291 55.5161 21.684C56.3162 21.4474 55.9781 19.3006 54.9414 19.8246C54.5582 20.0162 54.6033 21.3234 54.8737 21.5882Z" fill="white"/>
<path d="M52.2845 53.9015L51.5069 58.5669C51.1745 57.9922 50.1941 57.7161 49.563 57.4907C48.7685 57.209 47.929 56.9103 47.0725 56.916C47.05 56.7582 47.281 56.8315 47.3937 56.8258C48.2445 56.792 50.6674 57.1977 51.1407 56.5497C51.845 55.5862 50.1828 54.989 49.5235 54.7861C48.1487 54.3692 46.7175 54.3523 45.3033 54.5438C45.0441 54.4086 45.1849 53.4395 45.292 53.4395C47.5458 54.2114 49.9461 54.0085 52.2845 53.9015Z" fill="white"/>
<path d="M52.3804 51.9806C52.4029 52.1891 52.3353 52.4539 52.3973 52.6511C52.4649 52.8596 52.9157 52.899 52.741 53.1639C52.6903 53.2427 51.276 53.423 51.0506 53.4399C49.5857 53.5752 47.884 53.5019 46.4303 53.2146C45.9964 53.1244 45.4837 52.8821 45.0836 52.8202C44.909 52.792 44.616 53.0061 44.5089 52.7525C44.3793 52.437 44.7287 52.5722 44.8301 52.437C44.9315 52.3018 44.909 51.6707 45.1907 51.6369C45.2865 51.6256 46.7064 52.144 47.0614 52.206C48.8194 52.5102 50.6393 52.3694 52.3691 51.975L52.3804 51.9806Z" fill="white"/>
<path d="M60.9719 18.4095L61.3438 22.0156C60.8029 22.7256 60.0535 22.1847 59.6196 21.6381C58.4026 20.1111 58.8364 18.3532 60.9719 18.4095ZM60.2112 19.4294C59.6365 19.4801 59.6309 20.6295 60.0591 20.8267C60.9325 21.2212 60.9944 19.3618 60.2112 19.4294Z" fill="white"/>
<path d="M47.484 62.8667C47.8502 62.8329 48.4757 62.6808 48.8476 62.585C49.2871 62.4723 50.1717 62.2582 50.3238 61.7736C50.5154 61.1425 50.1153 61.0749 51.1408 60.9453C51.0563 61.4186 50.9436 63.0019 50.6393 63.278C49.9745 63.8809 46.2951 63.8133 45.6528 63.1484C45.5682 63.0583 45.4894 63.0132 45.5175 62.8723C46.1542 62.8329 46.8529 62.9287 47.484 62.8723V62.8667Z" fill="white"/>
<path d="M52.1059 51.5202C50.038 52.016 47.4461 52.0499 45.4289 51.2892C45.0007 51.1258 45.4064 50.9511 45.6768 50.906C46.8657 50.6863 50.6691 50.6638 51.734 51.1145C51.903 51.1878 52.1228 51.3061 52.1002 51.5258L52.1059 51.5202Z" fill="white"/>
<path d="M40.3049 73.1103C39.6907 72.9243 37.7862 71.8819 37.7468 71.2283C37.7073 70.5747 39.4146 69.5549 39.9893 69.3633C40.0288 69.8084 39.9217 70.2366 39.9442 70.6874C39.9612 71.048 40.3837 73.0145 40.3105 73.1103H40.3049Z" fill="white"/>
<path d="M61.7959 21.8805L61.4297 18.4941C62.7707 18.928 62.8327 21.0804 61.7959 21.8805Z" fill="white"/>
<path d="M43.3254 43.5191L43.1 43.6544C42.9085 43.6093 42.7338 41.4231 42.6436 41.0005C42.2999 39.3665 41.6182 37.7944 40.125 36.9323L40.3109 36.6562C41.4379 36.8591 42.2267 38.2677 42.638 39.2707C42.8409 39.7609 43.3254 41.2202 43.3254 41.6935V43.5248V43.5191Z" fill="black"/>
<path d="M56.392 56.54L55.8454 56.5006C55.7215 56.2583 55.7046 55.5652 56.0088 55.4638C56.6737 55.4356 56.6399 56.0836 56.392 56.54Z" fill="black"/>
<path d="M56.3856 62.7891C56.8871 64.1695 55.4165 64.2991 55.839 62.8285L56.3856 62.7891Z" fill="black"/>
<path d="M55.9182 47.5124C56.0252 47.4842 56.1323 47.4729 56.2225 47.5405C56.4478 47.7941 56.4929 48.566 56.076 48.6055C55.5294 48.6562 55.5238 47.6251 55.9126 47.518L55.9182 47.5124Z" fill="black"/>
<path d="M55.4181 41.1635C55.2265 40.9043 55.266 40.3239 55.6266 40.2676L55.9421 40.3183C56.4098 40.555 55.9421 41.5579 55.4181 41.1635Z" fill="black"/>
<path d="M59.3253 25.4541C59.6408 25.7302 58.0969 26.1471 57.9786 26.164C57.3588 26.2429 56.4629 26.0795 55.8826 25.8372C55.5558 25.702 55.2177 25.6006 55.3022 25.1836C55.9276 25.2287 56.4629 25.5555 57.0884 25.64C57.8828 25.7414 58.5533 25.5611 59.3253 25.4597V25.4541Z" fill="black"/>
<path d="M49.1779 24.5342C48.6765 24.4835 48.0623 24.2243 48.2201 23.6271L46.9805 22.3424C47.7975 22.2241 48.1694 22.5114 48.5694 23.1763C48.6596 23.3284 49.2287 24.4835 49.1723 24.5399L49.1779 24.5342Z" fill="black"/>
<path d="M56.2164 17.6724C55.4163 17.6105 54.526 17.4414 53.7766 17.8358C53.4611 18.0049 53.3484 18.4049 52.9258 18.3092C53.1005 16.9456 55.7036 16.1906 56.2164 17.6668V17.6724Z" fill="black"/>
<path d="M54.8694 21.5879C54.6046 21.3231 54.5538 20.0159 54.937 19.8243C55.9794 19.3003 56.3118 21.447 55.5117 21.6837C55.3483 21.7288 54.9877 21.7062 54.8694 21.5879Z" fill="black"/>
<path d="M60.2126 19.4298C61.0015 19.3566 60.9338 21.2216 60.0605 20.8272C59.6266 20.63 59.6323 19.4806 60.2126 19.4298Z" fill="black"/>
<path d="M86.7962 117.675C84.6269 116.503 82.7844 118.143 80.9588 118.943C79.7192 119.484 78.0457 119.737 76.6033 119.653C77.1892 118.92 77.5949 118.154 77.8654 117.292C77.6175 116.785 77.285 116.17 76.8963 115.5C76.2032 113.691 68.929 96.6693 66.6019 90.6967C64.658 85.6988 60.4152 81.9462 58.2346 77.0554C58.7643 75.4439 58.584 75.2693 58.7023 73.5789C59.8517 73.2014 61.6097 72.1196 61.8689 70.8462C62.0323 70.0348 61.9309 68.6205 61.8914 67.7528C61.8238 66.0793 61.6153 64.4002 61.5196 62.7268L61.6153 58.8333C62.1337 59.47 62.9395 60.0841 63.7339 60.3264C64.0551 60.4222 64.5678 60.4222 64.8101 60.5293C65.0806 60.6532 65.6102 61.2787 66.123 61.5041C67.9542 62.3211 70.2137 61.6167 71.1997 59.87C71.3744 59.5545 71.4871 59.053 71.6843 58.7995C71.9266 58.4896 73.8423 57.8022 74.3607 57.543C74.5974 57.4246 75.1608 56.9626 75.3073 56.9344C75.4538 56.9063 75.651 57.0133 75.8313 57.0133C77.3639 57.0133 79.1332 56.9119 80.1249 55.5371C80.2995 55.3004 80.3671 54.9849 80.5024 54.8158C80.8123 54.4271 81.2968 54.3369 81.4377 53.6495C81.4771 53.4523 81.4152 53.1142 81.4771 53.0015C81.494 52.9733 81.7251 52.8776 81.8265 52.7592C82.2773 52.2127 82.0012 51.7675 82.1026 51.2041C82.1533 50.9336 82.5759 50.3984 82.6886 50.0547C83.0717 48.877 82.621 48.2572 81.5504 47.8177C81.9054 47.181 82.2378 46.5218 82.5083 45.8456C82.7618 45.2146 83.4661 43.8735 82.328 43.7439C81.1109 43.6031 79.1557 43.5693 77.933 43.6482C76.5751 43.7383 76.4624 43.8172 75.8933 44.9892C75.3073 46.2006 74.8791 47.5754 74.3156 48.8094C73.8085 49.1869 73.2282 49.356 72.9013 49.9589C72.4731 50.7477 72.8337 51.2097 72.9408 52.0042C72.3379 52.3028 72.2928 53.3678 71.4871 53.1255C71.1659 53.0297 71.0927 52.686 70.8955 52.5226C70.2475 51.976 69.4868 51.7675 68.698 51.5196C68.6247 49.463 67.5485 47.6149 66.9682 45.6597C65.4581 40.5942 66.292 37.0276 61.0406 34.0243C60.4321 33.6806 59.2094 33.2693 58.753 32.9481C58.6854 32.9031 58.3698 32.3284 58.229 32.165C57.8177 31.686 57.3162 31.3423 56.7584 31.0493L57.0401 30.1478C61.0237 30.0689 61.8914 25.6796 61.8858 22.4848C63.4691 21.4424 63.3564 18.5293 61.4294 17.9884L61.3562 17.8814C61.3674 17.3066 61.0688 16.6023 61.0632 16.0614C61.0575 15.4754 61.2604 14.7316 61.1589 14.1006L62.5789 15.1993C62.838 15.3064 62.6746 14.6697 62.6521 14.5739C62.3253 13.385 61.2209 12.6638 60.156 12.2243C60.7138 12.0045 62.2633 10.5508 62.0661 9.9479C61.9083 9.46333 61.1026 10.1226 60.8829 10.2071C60.6068 10.3142 59.9024 10.5846 59.6489 10.6184C58.8601 10.7255 57.8571 10.5395 57.0401 10.6184C57.3838 10.2747 58.4825 9.37881 58.5051 8.92805C58.5107 8.78155 58.5163 8.77028 58.3642 8.78718C57.4289 9.20977 56.5499 9.73379 55.5413 9.98734C52.6282 10.7311 47.9966 9.85212 47.0557 13.7118C46.1598 13.7118 45.5287 14.2583 45.0723 14.9739C43.7763 17.0249 44.4412 19.5605 45.9569 21.2846C44.8413 23.5216 46.526 26.4233 49.0785 26.3501C49.225 27.1502 49.3771 27.9052 49.1686 28.7166C48.453 28.6715 47.9572 29.1843 47.5346 29.6857C47.1853 30.1027 46.7401 31.0718 46.4302 31.3254C45.9006 31.7649 44.3454 32.334 43.6299 32.7284C38.2094 35.726 36.1528 38.3517 33.4313 43.8397C32.1917 46.3415 30.7943 49.4123 29.9492 52.0662C28.7321 55.8864 28.6927 57.4923 31.617 60.3264C32.2819 60.9744 32.4847 61.166 33.082 61.8816C34.5977 63.6903 37.0712 64.2312 38.9363 62.569C38.6771 64.0227 38.3954 65.4764 38.0178 66.9076C37.7079 68.0627 36.812 70.0855 37.0374 71.1955C37.2797 72.3844 39.4941 73.3761 40.5365 73.731C41.1056 75.4158 41.3479 75.6693 42.2099 77.2019C40.8069 80.9376 39.0715 85.1636 37.6347 88.8936C37.3699 89.5754 37.1276 92.2349 36.5303 92.5617C35.533 93.1083 35.302 92.973 34.4061 93.914C30.2084 98.3371 26.4445 103.459 22.2524 107.922C21.9875 108.198 21.9481 108.186 22.0382 108.485L22.7482 110.936C22.7144 110.953 22.675 110.97 22.6299 110.987C20.7198 111.759 19.3506 112.863 18.0321 114.441C15.6318 117.309 19.3956 119.844 20.7705 122.132C21.6044 123.518 22.0157 125.129 23.1088 126.38C25.1034 128.662 28.4391 129.017 31.2958 128.803C33.1045 128.668 34.068 128.088 33.8032 126.115C33.5158 123.935 31.1775 124.008 30.3492 122.797C29.7858 121.968 29.4251 120.554 29.1998 119.264C29.1998 119.264 29.9097 119.501 30.1238 119.455C34.6258 118.464 40.3224 109.026 42.6156 105.797C44.368 103.335 45.7541 101.802 46.819 99.5148C48.1826 96.5961 48.9827 92.8547 50.3913 90.0882C50.442 89.9924 50.3462 89.9135 50.5829 89.9585C51.6647 91.9757 52.9607 93.514 53.8509 95.6213C54.9666 98.2808 55.8625 101.188 56.995 103.915C58.9558 108.643 61.0406 113.342 63.1705 118.002C64.1509 120.56 65.1369 122.971 66.0948 125.017C66.23 125.304 66.3934 125.67 66.5456 125.935C66.5907 126.008 66.5174 126.087 66.7033 126.053C67.0583 125.879 67.3908 125.71 67.7232 125.541C67.9655 127.355 69.222 130.516 70.1742 131.626C70.7433 132.291 71.2673 132.144 72.0618 131.975C74.603 131.418 79.9164 127.676 82.2772 126.093C84.2043 124.803 91.1066 119.979 86.7962 117.652V117.675ZM61.7957 21.8819L61.4294 18.4955C62.7704 18.9294 62.8324 21.0818 61.7957 21.8819ZM76.4737 120.036C76.6089 120.036 76.7441 119.979 76.7047 120.177C76.4117 120.458 76.0905 120.87 75.9553 121.258C75.7862 121.721 75.9102 121.884 76.2877 121.501C76.8624 120.915 77.2174 120.013 78.2598 120.047C78.1809 120.425 77.7133 120.611 77.578 120.965C77.5442 121.05 77.4259 121.518 77.6626 121.416C78.3274 120.763 79.0148 119.974 79.9953 119.861C79.4938 120.543 78.9022 121.242 78.1077 121.585C77.054 122.042 75.0763 122.211 73.7465 122.171C74.7946 121.456 75.6228 120.774 76.2595 120.07C76.3328 120.058 76.4061 120.041 76.4737 120.041V120.036ZM82.1927 49.9251C82.1533 50.0603 81.8716 50.8097 81.6913 50.6012C80.6601 49.418 80.2883 49.7279 79.0092 49.2602C78.1246 48.939 78.2429 48.3812 79.1501 48.2516C80.3784 48.0769 82.7055 48.122 82.1927 49.9251ZM73.9607 49.694C73.7747 50.1054 73.6282 50.5448 73.4366 50.9562C73.3747 51.0858 73.493 51.2041 73.2282 51.1534C73.1493 50.5787 73.3521 49.88 73.9607 49.6884V49.694ZM72.8225 53.8129C74.1353 51.0463 75.0707 47.8684 76.4173 45.1469C76.5695 44.8314 76.716 44.4821 77.054 44.3187C78.8064 44.1158 80.6151 44.2004 82.3843 44.2454C82.5533 44.3638 82.5195 44.8596 82.2434 44.8483H77.5724L77.2512 44.9836L73.0366 54.6243C72.9464 54.675 72.7943 54.6243 72.6872 54.6412L72.8281 53.8242L72.8225 53.8129ZM70.8955 53.627H72.2196C72.0167 54.2637 71.8759 54.7989 72.5858 55.1483C74.5974 55.0581 76.6314 54.9342 78.5697 55.5483L78.7162 55.323C78.6317 54.9173 76.4962 54.7651 76.3553 54.0214C76.3159 53.8129 76.3779 53.6213 76.592 53.5593C77.2287 53.3678 78.6655 54.027 79.3247 54.0834C79.4994 54.1003 79.6121 54.1115 79.7248 53.9481C79.4262 53.6382 79.0317 53.441 78.6261 53.3114C77.9386 53.086 75.8144 53.0748 76.0623 52.0437C76.1356 51.7394 78.6092 51.9479 79.0261 51.9929C79.6008 52.0606 80.1587 52.3986 80.7277 52.162C80.7616 51.9986 80.677 51.9817 80.5756 51.9028C79.798 51.3055 76.7441 51.4464 76.4737 50.8829C76.1638 50.2293 76.885 50.0997 77.3865 50.0547C78.2147 49.9814 80.1756 49.9814 80.8517 50.4378C81.325 50.7533 81.804 51.8746 81.4546 52.3817C81.2687 52.6465 80.925 52.3141 80.8348 52.686C80.7897 52.8776 80.9419 53.2044 80.9193 53.4861C80.8742 54.0214 80.339 54.3932 79.815 54.3538C79.8882 54.8327 79.9558 54.8722 79.6685 55.261C79.0317 56.1174 77.409 56.5569 76.3835 56.5513C76.0567 56.5513 75.296 56.3034 75.0312 56.3822C74.9073 56.4161 74.7439 56.6527 74.5692 56.7541C72.969 57.65 70.625 58.76 68.8557 59.1826C68.0275 59.3798 67.5598 59.7179 67.2386 58.7488C66.4442 56.3823 68.3768 53.627 70.8955 53.627ZM69.7122 52.4381C70.0446 52.5677 70.6081 52.7649 70.6701 53.1706C68.0669 53.0466 66.3991 55.6836 66.5512 58.067C66.6188 59.0699 67.1259 60.2081 68.2472 60.3039C68.5008 60.3265 68.9515 60.3828 68.9346 60.0334L68.3881 59.7574C69.1825 59.7968 69.9883 59.3235 70.7208 59.2052C70.9687 59.1657 70.7377 59.5094 70.6757 59.6221C69.7798 61.2392 67.4696 61.6506 65.9258 60.7096C61.7675 58.1684 65.1651 50.7083 69.7178 52.4381H69.7122ZM59.3277 36.6106C58.9051 36.2951 58.2008 34.9597 57.581 35.1005C57.3049 35.1625 56.0878 36.5824 55.8963 36.8811C55.8174 36.9994 55.7103 37.0557 55.761 37.2473C56.3301 37.2586 57.4458 35.6358 57.8064 35.7091C58.3248 36.0471 59.046 37.529 59.5982 37.6699C60.0771 37.7939 59.801 36.3063 59.7616 36.0415C59.6433 35.2808 59.4404 34.3962 59.0573 33.7257C59.0347 33.6637 59.1305 33.6637 59.1925 33.6806C59.5193 33.7821 60.4208 34.2892 60.7645 34.4864C66.1004 37.5459 65.1144 42.2001 66.9175 47.3557C67.1034 47.891 68.405 50.7421 68.1063 51.0576C66.9907 50.7252 65.6948 50.6068 64.6355 51.1985C64.4608 51.2999 63.61 51.9591 63.8072 52.1507C64.3763 52.1169 64.8101 51.6661 65.3905 51.4915C66.2131 51.2435 66.9231 51.283 67.7401 51.5084L66.3653 52.1C63.8016 53.4861 62.5901 57.3683 64.2636 59.8306C63.548 59.7855 62.1112 58.8896 61.9309 58.1853C61.7224 57.3908 61.9872 55.4751 62.083 54.5792C62.4943 50.6857 63.4916 46.8542 63.8072 42.9495C63.8748 42.1381 63.9875 40.8929 63.8973 40.1153C63.8748 39.9012 63.8241 39.4955 63.5311 39.5237C63.3339 40.7351 63.379 41.9972 63.255 43.2256C62.5958 49.7729 60.8434 56.016 60.9674 62.7155C61.0012 64.4453 61.2773 66.192 61.3393 67.9218C61.3674 68.6261 61.4463 70.1024 61.3167 70.7391C61.1026 71.7984 59.1869 72.8182 58.2515 73.1619C57.7444 73.3479 57.181 73.5733 56.64 73.5507C56.2287 73.4493 55.2652 67.3246 55.2089 66.547C54.6454 58.7995 55.423 50.6914 54.9328 42.8537C54.8088 40.8985 54.3749 39.935 55.0229 37.9122C55.3497 36.8867 56.2231 35.4724 56.3752 34.5089C56.4541 33.9906 56.2963 33.6299 56.302 33.1566C56.302 32.6833 56.4541 32.0466 56.4935 31.5564C58.4375 32.2607 59.0347 34.7568 59.3277 36.5881V36.6106ZM61.3449 22.0171C60.804 22.7271 60.0546 22.1861 59.6207 21.6396C58.4037 20.1126 58.8375 18.3547 60.973 18.411L61.3449 22.0171ZM50.3181 19.228C50.38 18.9745 50.5547 18.7547 50.6167 18.5237C50.8815 17.5264 50.8646 16.5967 50.735 15.5768C51.9352 15.9543 53.2368 16.067 54.482 15.8473C54.6679 15.6275 53.6481 14.1287 53.7551 14.0217C54.9328 14.4274 56.2851 14.9345 57.5472 14.9401C57.6824 14.9401 57.8177 14.9965 57.7782 14.7993L56.8654 13.7456C57.5866 13.9653 58.5952 14.2133 59.1981 14.6584C59.4855 14.8725 60.9674 16.315 60.618 16.6699C60.2631 16.5629 58.9389 16.8671 59.0629 17.3573C59.277 17.6222 59.6207 17.2785 59.9419 17.2277C60.2011 17.1883 60.4772 17.2334 60.742 17.2165L60.8941 17.9546C59.7221 17.8532 58.6797 18.5237 58.4036 19.6731L57.4401 19.814C57.1246 19.4421 57.0514 19.0026 56.6231 18.6984C55.2765 17.7518 52.9494 18.6477 52.7353 20.3155L50.0082 20.9691C50.1772 20.4169 50.1885 19.7633 50.3237 19.228H50.3181ZM56.2231 22.5749C54.1327 24.2935 52.1606 20.5803 53.8002 19.3238C54.1383 19.0646 54.7806 18.828 55.1976 18.7998C57.2091 18.642 57.5923 21.448 56.2231 22.5749ZM48.5883 25.8092C46.8754 25.5838 45.3371 23.0144 46.6105 21.5607C47.6755 20.3493 48.7629 22.0171 49.811 22.2481C49.811 21.9946 49.7941 21.4818 50.0589 21.3522C50.211 21.279 52.6451 20.7775 52.7409 20.8789C52.8142 23.8822 56.5837 24.5752 57.4345 21.4086C57.6317 20.6817 57.3162 20.2873 58.3586 20.1464C58.5332 20.5916 58.6459 21.0311 58.8882 21.4537C59.0404 21.7298 59.8292 22.5806 59.8405 22.6594C59.8799 22.9299 59.5925 23.3694 59.3728 23.5328C59.0798 23.7469 57.6712 23.8878 58.2684 24.3667C58.7586 24.7612 60.4546 23.5723 60.3419 22.8116L61.3393 22.8003C61.3055 23.2905 61.3843 23.8258 61.3393 24.3104C61.1984 25.8092 60.2574 28.5081 58.815 29.1955C56.5555 30.2717 54.1777 29.0828 52.2563 27.9109C52.0141 27.7644 51.9239 27.4714 51.5577 27.5615C51.3886 27.7249 52.4029 28.649 52.5606 28.7955C53.5185 29.6857 54.6229 30.4802 55.8568 30.9084C55.7441 31.7311 55.7836 32.5425 55.761 33.3651C55.7498 33.7933 55.8287 34.4469 55.8061 34.7061C55.7385 35.3823 55.0849 36.4697 54.8933 37.1628C54.2115 36.3683 53.7044 35.4386 53.017 34.6498C52.2845 33.8046 51.3266 33.0665 50.5942 32.2269C50.2786 31.8607 49.5292 30.9873 49.5405 30.5366C49.5574 29.5731 49.8842 28.7279 49.8166 27.6066C49.7997 27.3023 49.6025 26.8797 49.6363 26.6036C49.6645 26.3839 50.3969 25.6965 49.6983 25.7303C49.3264 25.7472 49.0334 25.8655 48.5939 25.8092H48.5883ZM37.9728 62.5915C36.6205 63.5719 34.5751 62.8563 33.6342 61.628C32.0227 59.5263 34.1469 55.5991 36.2204 54.5229C37.6741 53.7678 38.4123 54.675 39.511 55.3793C39.9956 55.6948 40.4294 55.5652 40.1252 56.4555C39.1729 55.7737 38.7165 55.723 37.7981 56.4555C36.288 57.6613 35.2851 59.577 35.8373 61.5266C35.95 61.9154 36.1922 62.4676 36.6543 62.4901L36.4233 61.397L38.3897 61.9886C38.5588 62.1013 38.0685 62.5183 37.9784 62.5859L37.9728 62.5915ZM38.4799 61.4477C37.8094 61.2449 37.1276 61.0646 36.4402 60.9293L36.2993 60.7941C36.0063 59.5038 36.9135 57.9261 37.8882 57.1035C39.1053 56.0836 39.2912 56.6865 40.4463 57.1936C40.8295 57.3627 41.3084 57.4303 41.6127 57.5599C41.7535 57.6218 41.6972 57.8641 42.0015 57.836C42.2607 57.8078 43.3481 56.2358 43.7425 55.9089C45.2019 54.6975 47.5571 54.8158 49.2982 55.2948C49.5349 55.3624 51.3154 55.8695 50.6561 56.3259C50.4308 56.478 47.0557 56.202 46.3175 56.2865C46.0527 56.3146 44.8582 56.5626 44.7061 56.6865L44.661 57.1035C44.8018 57.3345 46.4359 57.3345 46.8472 57.3852C47.8501 57.5148 49.8898 57.9937 50.7181 58.5459C50.8984 58.6642 51.1182 58.7657 50.9829 59.0249C50.6843 59.2164 50.3124 59.2277 49.9687 59.2052C48.4981 59.115 46.6894 58.4839 45.2132 58.9234C44.6891 59.0756 44.8413 59.2672 45.3033 59.301C46.7683 59.408 48.8193 59.5263 50.2223 59.87C50.9942 60.056 51.1238 60.4617 50.2448 60.58L45.309 60.6758C45.0723 60.7152 44.954 60.8899 44.9878 61.1322C46.65 61.1322 48.2558 61.5717 49.9236 61.3181C50.1378 61.5435 49.3827 61.8703 49.2137 61.9379C47.867 62.4563 46.4133 62.2985 45.0385 62.5183C44.5877 62.5915 44.0863 62.8169 43.6468 62.862C42.5931 62.9747 39.68 61.814 38.4911 61.4533L38.4799 61.4477ZM47.0726 52.2127C48.8305 52.5169 50.6505 52.3761 52.3803 51.9817C52.4028 52.1901 52.3352 52.455 52.3972 52.6522C52.4648 52.8607 52.9156 52.9001 52.7409 53.1649C52.6902 53.2438 51.2759 53.4241 51.0506 53.441C49.5856 53.5762 47.8839 53.503 46.4302 53.2156C45.9964 53.1255 45.4836 52.8832 45.0836 52.8212C44.9089 52.793 44.6159 53.0071 44.5088 52.7536C44.3792 52.4381 44.7286 52.5733 44.83 52.4381C44.9314 52.3028 44.9089 51.6718 45.1906 51.638C45.2864 51.6267 46.7063 52.1451 47.0613 52.207L47.0726 52.2127ZM45.6808 50.9055C46.8697 50.6857 50.673 50.6632 51.738 51.1139C51.907 51.1872 52.1268 51.3055 52.1042 51.5253C50.0363 52.0211 47.4444 52.0549 45.4273 51.2942C44.999 51.1308 45.4047 50.9562 45.6752 50.9111L45.6808 50.9055ZM49.5236 54.7877C48.1488 54.3707 46.7176 54.3538 45.3033 54.5454C45.0441 54.4102 45.185 53.441 45.292 53.441C47.5459 54.2129 49.9462 54.0101 52.2845 53.903L51.507 58.5685C51.1745 57.9937 50.1941 57.7176 49.563 57.4923C48.7686 57.2105 47.929 56.9119 47.0726 56.9175C47.05 56.7598 47.281 56.833 47.3937 56.8274C48.2446 56.7936 50.6674 57.1993 51.1407 56.5513C51.845 55.5878 50.1828 54.9905 49.5236 54.7877ZM51.1407 60.9406C51.0562 61.4139 50.9435 62.9972 50.6392 63.2733C49.9744 63.8762 46.295 63.8086 45.6527 63.1437C45.5681 63.0536 45.4893 63.0085 45.5174 62.8676C46.1541 62.8282 46.8528 62.924 47.4839 62.8676C47.8501 62.8338 48.4756 62.6817 48.8475 62.5859C49.2869 62.4732 50.1716 62.2591 50.3237 61.7745C50.5153 61.1434 50.1152 61.0758 51.1407 60.9462V60.9406ZM39.4828 62.3154C40.9534 62.5859 42.2663 63.5776 43.8158 63.4029C44.075 63.3747 44.7511 63.1043 44.9089 63.1494C45.016 63.1832 45.1455 63.4818 45.2864 63.6001C46.1485 64.327 49.7095 64.4115 50.7012 63.8931C51.4957 63.4762 51.5577 61.9717 51.7042 61.1491C52.138 58.7431 52.4254 56.3034 52.7578 53.8805C53.2593 53.5481 53.4678 53.0128 53.2762 52.4099C53.2368 52.2859 53.0452 52.2859 52.9832 52.1507C52.8593 51.8577 52.9381 51.4971 52.724 51.1309C52.1944 50.2181 49.8955 50.28 48.9432 50.2462C48.1319 50.2181 47.3036 50.1617 46.4753 50.2462C46.1091 50.2857 45.3878 50.3533 45.0836 50.4998C44.5821 50.7477 44.5934 51.2323 44.4074 51.6549C44.075 52.4155 43.4552 53.1086 44.6948 53.503L44.6497 54.7313C43.4383 55.1652 42.7452 56.1287 41.9451 57.064L40.6943 56.7034C40.8971 55.9371 40.7337 55.1934 39.928 54.9511C40.159 53.9763 40.0463 52.8325 40.2322 51.8746C40.5534 50.173 42.3452 48.0375 42.9988 46.3189C43.1284 45.9809 43.2692 45.6372 43.2298 45.2709C43.2298 45.1864 43.0664 45.2146 43.0101 45.2371C42.4522 45.4512 39.5279 52.207 38.7898 53.0917C37.2628 51.6098 35.4654 51.4858 33.6229 52.5C32.9693 52.8607 31.9889 53.5875 31.8874 54.3764C32.1016 54.5736 33.0256 53.5988 33.2679 53.4241C34.6484 52.4212 36.998 51.8577 38.2489 53.3678C38.9757 54.2411 38.0122 53.7734 37.6065 53.7396C35.8091 53.5762 34.4061 55.0356 33.5553 56.4555C33.2679 56.9344 32.5298 58.5009 32.5298 58.9967V60.4166C31.262 59.4362 29.8196 57.943 29.6956 56.2527C29.459 53.0691 33.3186 45.1751 34.9526 42.2113C37.3304 37.884 39.1335 35.957 43.4439 33.506C43.8214 33.2918 46.464 31.8663 46.6105 31.9677L48.3629 37.9911C48.8362 38.2953 50.273 36.6275 50.6392 36.312C51.1069 35.9063 51.4506 35.5231 52.1042 35.7204C52.0028 35.4555 51.9126 35.1456 51.5971 35.078C51.0731 35.0273 49.6983 36.6331 49.2193 36.9994C49.0447 37.1346 48.8644 37.3036 48.6277 37.2755L47.0838 31.4606C47.5121 30.5028 48.1093 29.528 49.1292 29.1336L49.0841 30.2323C48.9545 30.1534 48.6671 30.0914 48.6277 30.2774C48.4925 30.9366 52.1324 34.4019 52.7409 35.1287C53.4283 35.9457 54.0256 36.8472 54.6229 37.7319C54.5553 38.3235 54.1946 38.8419 54.1214 39.4392C53.9524 40.8929 54.3749 42.4536 54.4764 43.913C54.837 49.1869 54.606 54.6468 54.5834 59.9264C54.5722 61.9661 54.8482 64.327 54.6623 66.3216C54.5383 67.6232 53.9016 69.7305 53.541 71.0546C53.4452 71.3983 52.8592 73.5958 52.7297 73.6747C51.5239 73.7592 50.3124 73.4493 49.2081 72.976C46.1147 71.635 41.6916 66.8231 38.2545 69.7587L37.5671 70.4405C38.2996 67.7641 39.2067 65.1271 39.4885 62.3436L39.4828 62.3154ZM40.3055 73.1112C39.6913 72.9253 37.7868 71.8829 37.7474 71.2293C37.7079 70.5926 39.4152 69.5558 39.9899 69.3643C40.0294 69.8094 39.9223 70.2376 39.9449 70.6884C39.9618 71.049 40.3843 73.0154 40.3111 73.1112H40.3055ZM23.2384 112.463C23.6835 113.607 24.2864 114.672 25.0302 115.624C24.7766 115.669 24.4893 115.635 24.1118 115.427C23.1764 114.914 22.9454 113.59 23.2328 112.463H23.2384ZM31.3916 128.268C29.0082 128.567 25.9599 128.228 24.078 126.617C22.5566 125.315 22.1171 123.214 21.0691 121.574C20.5338 120.74 19.7394 120.002 19.1477 119.196C18.0941 117.771 16.9108 115.855 18.8153 114.542C19.0125 117.348 21.2269 119.117 22.4552 121.377C23.0919 122.538 23.4187 123.901 24.3033 124.921C26.3487 127.282 30.4394 127.248 33.2623 126.707C33.4539 127.981 32.3551 128.138 31.386 128.262L31.3916 128.268ZM31.2226 124.048C32.1692 124.527 33.144 125.084 33.2623 126.256C31.4254 126.51 29.4139 126.639 27.5883 126.217C24.1061 125.411 24.1174 123.225 22.6355 120.65C21.548 118.762 19.5872 117.128 19.3618 114.779C19.2717 113.804 19.5027 113.646 20.1845 113.038C20.9451 112.362 21.9199 111.781 22.9229 111.556L22.9454 111.635C22.9454 111.635 22.9454 111.646 22.951 111.657C22.1847 113.038 22.5904 115.708 24.2921 116.063C24.54 116.114 25.1485 116.035 25.1992 116.249C25.0133 117.557 25.3457 119.072 25.6725 120.351C25.9036 121.264 26.2191 122.273 26.6924 123.084C26.7825 123.242 27.1939 123.704 27.1319 123.788C26.9403 123.777 26.4557 124.104 26.4895 124.29C26.5234 124.465 26.6586 124.374 26.7375 124.363C27.2333 124.279 27.8475 123.946 28.3884 123.817C29.628 123.518 30.0675 123.473 31.2113 124.048H31.2226ZM29.2279 121.698L29.8815 122.921L29.7519 123.056C29.2505 123.011 27.8475 123.636 27.5038 123.467C26.8051 123.124 26.067 119.85 25.9035 119.027C25.7345 118.171 25.4472 117.128 25.6894 116.39C26.0839 116.813 26.5064 117.207 26.9516 117.573C26.7656 117.607 26.4163 117.827 26.2247 117.838C25.9317 118.244 27.222 118.081 27.5601 118.041C27.932 118.306 28.3151 118.554 28.7152 118.779C28.7152 118.903 28.7152 119.038 28.6927 119.208C28.3828 119.185 26.6755 119.258 26.7713 119.709C26.8445 120.064 28.3602 119.517 28.7828 119.895C28.8617 119.963 29.0476 120.915 29.0589 121.084C29.0758 121.337 28.873 121.101 28.6476 121.118C28.1236 121.157 27.4023 121.225 27.0474 121.63C27.0417 121.963 28.9687 121.529 29.2279 121.692V121.698ZM49.7771 89.2148C48.3122 91.9363 47.2022 94.9451 45.4104 97.4751C44.1989 99.188 42.6382 100.461 41.2183 101.971C38.1925 105.189 35.2456 108.502 32.4734 111.95C31.6733 110.158 29.2843 107.02 29.2843 107.02L24.185 107.612C24.7597 106.952 25.6387 106.068 25.8979 105.775C27.9151 103.493 29.9266 101.205 31.9325 98.9119C33.2566 97.4018 34.6653 95.441 36.0457 94.0605C36.7332 93.3731 37.3755 93.3337 38.0798 92.8942C38.7391 92.4772 39.7984 89.243 40.1195 88.3471C41.1563 85.4734 41.9508 81.9913 43.1115 79.2642C43.1565 79.1571 43.1566 79.0444 43.2749 78.9712C45.1625 81.9913 47.3881 84.8875 49.2137 87.9414C49.4165 88.2851 49.8729 88.8598 49.7771 89.2148ZM55.6934 99.295C54.775 96.8609 54.313 95.1705 52.9663 92.8773C50.2279 88.2231 47.0444 83.8394 44.1482 79.2867C42.3283 76.43 40.3393 73.3592 40.5308 69.8094C40.6323 69.6629 41.669 69.7981 41.8831 69.8376C45.3766 70.4348 47.9797 74.0071 51.7774 74.21C52.8593 74.2663 53.079 74.2663 53.4791 73.2521L54.8482 68.1697C55.192 69.7474 55.3216 71.4603 55.8287 72.9929C56.3752 74.6438 56.7696 74.0917 58.229 73.8381L57.5472 76.3286L55.192 73.7141L54.8877 73.3817L54.6623 73.5226C54.5891 73.8663 56.2231 77.3822 56.4992 77.9851C58.1332 81.5743 60.0151 85.0508 61.683 88.6232C63.4973 92.4941 64.7932 96.4326 66.2638 100.399L56.533 99.8134C56.6738 100.202 56.8147 100.597 56.9781 101.019C58.1726 104.18 59.5418 108.113 60.973 112.08C59.0854 107.803 57.2542 103.431 55.6878 99.2837L55.6934 99.295ZM69.8925 129.738C69.7911 129.806 69.8305 129.879 69.7122 129.738C69.3234 129.265 68.4782 126.679 68.3374 125.992C68.2867 125.738 68.2585 125.513 68.2528 125.298C68.7374 125.051 69.1938 124.814 69.6389 124.577C70.4841 124.521 71.4364 123.884 71.9322 123.309C72.3323 123.073 72.7211 122.842 73.076 122.616L74.4678 122.695C75.2791 122.543 76.113 122.538 76.9244 122.402C79.5952 121.963 80.0009 120.216 82.1026 118.988C83.3591 118.25 85.6749 117.241 86.8581 118.486C82.4181 119.365 79.9502 123.772 76.1638 125.851C74.1973 126.932 72.4281 127.507 70.6306 129.006C70.3883 129.209 70.1292 129.581 69.8981 129.738H69.8925ZM84.6832 121.388C82.2829 123.011 80.3221 125.315 77.9217 126.972C76.6483 127.851 75.2453 128.488 73.9325 129.293C72.8168 129.981 71.8139 130.837 70.6701 131.468L70.1235 130.415C70.1235 130.031 71.673 128.854 72.0449 128.595C73.7747 127.389 75.8257 126.786 77.5499 125.597C80.3953 123.636 82.8632 120.165 86.2778 119.146C87.2976 118.841 87.5906 118.819 87.6695 120.036C86.6159 120.12 85.5453 120.802 84.6776 121.388H84.6832Z" fill="black"/>
<path d="M49.2139 87.936C47.3883 84.8821 44.5542 80.9886 42.6666 77.9629C42.5483 78.0361 42.5483 78.1488 42.5032 78.2559C41.3425 80.9886 39.7479 84.6117 38.7111 87.4853C38.39 88.3812 37.6068 92.5451 36.9419 92.9621C36.2376 93.4072 35.5952 93.4466 34.9078 94.1284C33.5273 95.5089 32.1187 97.4641 30.7946 98.9798C28.7887 101.273 26.7715 103.555 24.76 105.843C24.3768 106.277 22.5343 108.17 22.4442 108.542C22.3822 108.79 22.5343 109.483 22.6132 109.792C24.5008 117.151 29.8254 119.439 30.3325 119.011C33.8541 117.929 39.4436 110.221 44.0921 102.879C45.2021 101.127 46.0755 100.822 46.7854 98.8502C47.8109 95.9878 48.5885 92.4606 50.0535 89.7447C50.1493 89.3898 49.4168 88.2741 49.2139 87.936ZM39.9395 93.8298C39.1788 94.151 38.2885 94.427 37.4715 94.2467L37.5898 94.0439L41.134 92.7874C41.1678 93.3452 40.3902 93.6438 39.9451 93.8354L39.9395 93.8298Z" fill="white"/>
<path d="M58.2305 73.8439L57.5487 76.3344L55.1935 73.72L54.8892 73.3875L54.6638 73.5284C54.5906 73.8777 57.2952 76.5147 57.8079 77.4162C59.904 81.1069 64.0679 86.2681 65.7414 89.8404C67.7867 94.2128 74.8637 112.705 77.1569 117.444C75.7765 120.566 72.9141 121.986 67.0711 125.654C66.8908 125.693 66.9584 125.614 66.9133 125.535C66.7556 125.27 66.5922 124.904 66.4626 124.617C63.3467 117.962 58.2925 106.152 55.6949 99.2952C54.7765 96.8611 54.3145 95.1707 52.9678 92.8774C50.2294 88.2233 47.0459 83.8396 44.1497 79.2869C42.3298 76.4302 40.3408 73.3593 40.5324 69.8096C40.6338 69.6631 41.6705 69.7983 41.8847 69.8377C45.3781 70.435 47.9812 74.0073 51.7789 74.2102C52.8608 74.2665 53.0805 74.2665 53.4806 73.2523L54.8498 68.1699C55.1935 69.7476 55.3231 71.4605 55.8302 72.9931C56.3767 74.644 56.7711 74.0918 58.2305 73.8383V73.8439Z" fill="white"/>
</g>
<g clip-path="url(#clip1_2414_68593)">
<rect x="71.5" y="11" width="19" height="3.30435" rx="1.65217" fill="#C4DEF8" fill-opacity="0.3"/>
<rect x="71.5" y="11" width="12.3913" height="3.30435" rx="1.65217" fill="#C4DEF8"/>
</g>
<defs>
<clipPath id="clip0_2414_68593">
<rect width="48.5876" height="76.5254" fill="white" transform="translate(22.1094 7.73633)"/>
</clipPath>
<clipPath id="clip1_2414_68593">
<rect x="71.5" y="11" width="19" height="3.30435" rx="1.65217" fill="white"/>
</clipPath>
</defs>
</svg>
