<svg width="103" height="110" viewBox="0 0 103 110" fill="none" xmlns="http://www.w3.org/2000/svg">
<g clip-path="url(#clip0_2414_68603)">
<path d="M16.8339 97.02C16.8339 96.78 16.7379 96.552 16.5459 96.336C16.3619 96.12 16.1259 95.92 15.8379 95.736C15.5499 95.552 15.1659 95.328 14.6859 95.064C14.0939 94.736 13.6099 94.448 13.2339 94.2C12.8659 93.952 12.5539 93.664 12.2979 93.336C12.0419 93.008 11.9139 92.648 11.9139 92.256C11.9139 91.856 12.0979 91.428 12.4659 90.972C12.8339 90.508 13.2819 90.12 13.8099 89.808C14.3459 89.488 14.8379 89.328 15.2859 89.328C15.8219 89.328 16.4499 89.388 17.1699 89.508C17.8899 89.628 18.4179 89.756 18.7539 89.892V92.52H17.6259C17.2899 91.872 16.9179 91.368 16.5099 91.008C16.1099 90.648 15.6859 90.468 15.2379 90.468C14.9179 90.468 14.6659 90.572 14.4819 90.78C14.2979 90.98 14.2059 91.236 14.2059 91.548C14.2059 91.804 14.3019 92.048 14.4939 92.28C14.6939 92.504 14.9379 92.712 15.2259 92.904C15.5219 93.088 15.9179 93.316 16.4139 93.588C16.9979 93.908 17.4699 94.188 17.8299 94.428C18.1899 94.668 18.4939 94.948 18.7419 95.268C18.9899 95.588 19.1139 95.94 19.1139 96.324C19.1139 96.724 18.9179 97.156 18.5259 97.62C18.1339 98.076 17.6539 98.464 17.0859 98.784C16.5259 99.096 16.0139 99.252 15.5499 99.252C14.9899 99.252 14.3179 99.192 13.5339 99.072C12.7579 98.952 12.1979 98.824 11.8539 98.688V96.06H12.9819C13.3339 96.708 13.7419 97.212 14.2059 97.572C14.6699 97.932 15.1379 98.112 15.6099 98.112C15.9779 98.112 16.2739 98.008 16.4979 97.8C16.7219 97.584 16.8339 97.324 16.8339 97.02ZM24.2643 92.412C25.1043 92.412 25.7523 92.732 26.2083 93.372C26.6723 94.012 26.8963 94.9 26.8803 96.036H22.5603C22.6403 96.524 22.8123 96.916 23.0763 97.212C23.3403 97.5 23.6843 97.644 24.1083 97.644C24.6683 97.644 25.4723 97.364 26.5203 96.804L26.8803 97.488L25.0563 98.94C24.5843 99.06 24.0363 99.12 23.4123 99.12C22.8283 99.12 22.3003 98.984 21.8283 98.712C21.3643 98.432 21.0003 98.052 20.7363 97.572C20.4803 97.092 20.3523 96.56 20.3523 95.976C20.3523 95.344 20.5563 94.756 20.9643 94.212C21.3723 93.66 21.8803 93.224 22.4883 92.904C23.1043 92.576 23.6963 92.412 24.2643 92.412ZM23.6043 93.804C23.2523 93.804 22.9883 93.924 22.8123 94.164C22.6363 94.396 22.5403 94.756 22.5243 95.244H24.8163C24.7523 94.748 24.6323 94.384 24.4563 94.152C24.2883 93.92 24.0003 93.804 23.5923 93.804H23.6043ZM35.9778 99H33.2538V95.16C33.2538 94.784 33.1938 94.52 33.0738 94.368C32.9618 94.208 32.7618 94.128 32.4738 94.128C32.0498 94.128 31.6298 94.264 31.2138 94.536V97.86L32.2938 98.22L31.8978 99H28.1058V98.328L29.1738 97.428V94.704L28.1058 94.032V93.36L30.6018 92.304L31.0698 93.696L32.5578 92.508C32.7738 92.444 33.0178 92.412 33.2898 92.412C33.8978 92.412 34.3818 92.58 34.7418 92.916C35.1098 93.244 35.2938 93.692 35.2938 94.26V97.86L36.3738 98.22L35.9778 99ZM40.8275 99H37.0355V98.328L38.1035 97.428V94.644L37.0355 93.936V93.264L39.3875 92.304H40.1435V97.86L41.2235 98.22L40.8275 99ZM39.1115 88.692C39.4555 88.692 39.7355 88.804 39.9515 89.028C40.1755 89.244 40.2875 89.516 40.2875 89.844C40.2875 90.076 40.2075 90.292 40.0475 90.492C39.8875 90.692 39.6875 90.852 39.4475 90.972C39.2075 91.092 38.9755 91.152 38.7515 91.152C38.4155 91.152 38.1355 91.044 37.9115 90.828C37.6955 90.604 37.5875 90.328 37.5875 90C37.5875 89.768 37.6675 89.552 37.8275 89.352C37.9875 89.152 38.1835 88.992 38.4155 88.872C38.6555 88.752 38.8875 88.692 39.1115 88.692ZM46.026 92.412C46.618 92.412 47.146 92.552 47.61 92.832C48.074 93.104 48.434 93.48 48.69 93.96C48.954 94.44 49.086 94.972 49.086 95.556C49.086 96.188 48.882 96.78 48.474 97.332C48.066 97.876 47.554 98.312 46.938 98.64C46.33 98.96 45.742 99.12 45.174 99.12C44.59 99.12 44.062 98.984 43.59 98.712C43.126 98.432 42.762 98.052 42.498 97.572C42.242 97.092 42.114 96.56 42.114 95.976C42.114 95.344 42.318 94.756 42.726 94.212C43.134 93.66 43.642 93.224 44.25 92.904C44.866 92.576 45.458 92.412 46.026 92.412ZM45.33 93.804C44.994 93.804 44.738 93.94 44.562 94.212C44.394 94.476 44.31 94.872 44.31 95.4C44.31 96.072 44.446 96.632 44.718 97.08C44.99 97.52 45.374 97.74 45.87 97.74C46.198 97.74 46.446 97.604 46.614 97.332C46.79 97.052 46.878 96.648 46.878 96.12C46.878 95.448 46.742 94.896 46.47 94.464C46.198 94.024 45.818 93.804 45.33 93.804ZM54.2614 94.116C53.9734 94.116 53.6854 94.244 53.3974 94.5V97.74L55.2214 98.22L54.8374 99H50.2894V98.328L51.3574 97.428V94.704L50.2894 94.032V93.36L52.7854 92.304L53.2414 93.636L54.3334 92.508C54.5014 92.444 54.6974 92.412 54.9214 92.412C55.3374 92.412 55.6934 92.508 55.9894 92.7C56.2934 92.892 56.5054 93.156 56.6254 93.492L55.4734 94.932H54.7174C54.7094 94.644 54.6694 94.44 54.5974 94.32C54.5254 94.192 54.4134 94.128 54.2614 94.128V94.116ZM65.753 89.448C66.649 89.448 67.441 89.648 68.129 90.048C68.825 90.44 69.361 90.988 69.737 91.692C70.121 92.396 70.313 93.192 70.313 94.08C70.313 94.992 70.025 95.836 69.449 96.612C68.881 97.38 68.173 97.992 67.325 98.448C66.477 98.896 65.669 99.12 64.901 99.12C64.533 99.12 64.169 99.1 63.809 99.06C63.209 99.02 62.749 99 62.429 99H60.533V98.328L61.661 97.44V90.756L60.329 90.348L60.725 89.568H62.417C63.153 89.568 63.873 89.544 64.577 89.496C65.121 89.464 65.513 89.448 65.753 89.448ZM65.249 98.004C65.753 98.004 66.209 97.86 66.617 97.572C67.033 97.284 67.357 96.884 67.589 96.372C67.829 95.86 67.949 95.284 67.949 94.644C67.949 93.876 67.833 93.184 67.601 92.568C67.377 91.944 67.029 91.448 66.557 91.08C66.093 90.704 65.517 90.516 64.829 90.516C64.469 90.516 64.137 90.612 63.833 90.804V97.776C64.241 97.928 64.709 98.004 65.237 98.004H65.249ZM75.6041 92.412C76.4441 92.412 77.0921 92.732 77.5481 93.372C78.0121 94.012 78.2361 94.9 78.2201 96.036H73.9001C73.9801 96.524 74.1521 96.916 74.4161 97.212C74.6801 97.5 75.0241 97.644 75.4481 97.644C76.0081 97.644 76.8121 97.364 77.8601 96.804L78.2201 97.488L76.3961 98.94C75.9241 99.06 75.3761 99.12 74.7521 99.12C74.1681 99.12 73.6401 98.984 73.1681 98.712C72.7041 98.432 72.3401 98.052 72.0761 97.572C71.8201 97.092 71.6921 96.56 71.6921 95.976C71.6921 95.344 71.8961 94.756 72.3041 94.212C72.7121 93.66 73.2201 93.224 73.8281 92.904C74.4441 92.576 75.0361 92.412 75.6041 92.412ZM74.9441 93.804C74.5921 93.804 74.3281 93.924 74.1521 94.164C73.9761 94.396 73.8801 94.756 73.8641 95.244H76.1561C76.0921 94.748 75.9721 94.384 75.7961 94.152C75.6281 93.92 75.3401 93.804 74.9321 93.804H74.9441ZM86.4177 93.204L83.3457 99H81.8337L80.0457 94.656L78.8817 93.984V93.312L81.5337 92.304L81.9897 94.116L83.2977 97.308L84.7497 94.476L83.0337 93.312L83.4177 92.532H86.4177V93.204Z" fill="#283555"/>
<g clip-path="url(#clip1_2414_68603)">
<path d="M54.6957 32.0218C54.8948 33.1 54.7455 33.7083 53.717 34.1562C51.2674 35.2234 46.7165 33.1996 45.3838 30.9822C44.9857 30.3242 45.3949 30.3186 45.5552 29.6772C45.8096 28.6597 45.7543 27.1059 45.7764 26.0221C45.7764 25.8175 45.6658 25.53 45.7211 25.2977L46.0916 25.1152C46.5893 27.7252 48.5136 29.6938 50.7476 30.9822C51.3392 31.3195 52.9594 32.0218 53.5953 32.0218H54.7013H54.6957Z" fill="white"/>
<path d="M57.7148 26.526C57.2724 26.6587 56.7969 26.5702 56.3435 26.5924C55.6301 26.6311 55.4366 26.6311 54.7399 26.5924C53.739 26.5315 52.6884 26.808 51.6875 26.5924C51.8313 26.3325 52.0635 26.2329 52.3234 26.1223C53.4293 25.6579 54.7675 25.7353 55.9398 25.7187C56.6421 25.7076 57.4936 25.7187 57.7203 26.526H57.7148Z" fill="white"/>
<path d="M53.4881 18.0823L53.4217 17.8169C53.6263 17.922 53.8254 18.3588 53.8198 18.58C53.7811 19.5034 52.0504 19.0942 51.4476 19.0832C50.6403 19.0721 50.0265 19.1164 49.2524 19.3763C48.9095 19.4868 48.6109 19.7025 48.2626 19.7578C48.1243 19.614 49.1694 18.298 49.3685 18.1487C49.9546 17.7118 52.3821 17.7174 53.0899 17.9109C53.2503 17.9551 53.3332 18.0713 53.4881 18.0823Z" fill="black"/>
<path d="M53.2222 23.3739C52.708 24.5351 53.8084 24.1535 54.4443 24.2586C54.8922 24.336 54.9751 24.5738 55.5834 24.4909C56.3631 24.3858 57.3418 23.949 56.7612 23.0144C56.4847 22.5721 55.9262 22.4394 55.6 22.0302C55.0857 21.3887 54.953 20.3657 55.5668 19.752C55.3899 20.3326 55.4286 20.9464 55.6498 21.5104C55.9428 22.2624 56.8055 22.2956 57.1759 22.9979C57.8063 24.1867 56.3299 24.7839 55.3899 24.8392C54.9751 24.8613 54.7374 24.6291 54.389 24.5849C53.9743 24.5296 53.4047 24.6899 53.0508 24.3803C52.6969 24.0706 52.7356 23.4955 53.2222 23.3739Z" fill="black"/>
<path d="M51.6795 20.3925L51.7127 20.5474C51.8343 21.4819 50.7063 21.3989 50.839 20.5087L50.8777 20.3594C50.9828 20.011 51.486 19.8451 51.6795 20.3981V20.3925Z" fill="black"/>
<path d="M57.4297 20.3113V20.4938C57.5569 21.3177 56.5118 21.4394 56.6445 20.5325L56.6998 20.2615C56.7827 19.9906 57.3578 19.8524 57.4242 20.3113H57.4297Z" fill="black"/>
<path d="M45.515 22.9044L44.9123 21.898C44.7243 22.4399 44.7022 23.0703 44.9123 23.6067C44.763 23.7228 44.6137 23.4021 44.5639 23.286C44.3261 22.7109 44.4478 22.0695 44.6137 21.4999C44.4202 21.24 43.8782 21.0796 43.5852 21.2068C43.4801 21.2511 43.5465 21.3782 43.4414 21.3617L43.4746 21.0907C44.6026 20.3884 45.5537 21.8925 45.5205 22.8989L45.515 22.9044Z" fill="black"/>
<path d="M44.9942 24.569C44.5131 24.0879 45.6964 23.6013 45.6522 24.3478C45.6301 24.7017 45.1711 24.7404 44.9942 24.569Z" fill="black"/>
<path d="M43.0091 23.7728C43.4957 24.547 44.4468 25.5534 45.4477 25.3875C45.2707 26.8694 45.5251 28.4011 45.1767 29.872C45.1491 29.872 45.1269 29.872 45.1048 29.872V31.0775C46.1831 32.7751 48.1074 33.9474 50.0041 34.4727C51.3423 34.8432 53.2887 35.0754 54.4499 34.1575C54.6932 33.964 55.0969 33.5105 55.0969 33.1953C55.0969 32.9188 55.0416 32.2664 55.0969 32.0562C55.0969 32.0396 55.1411 32.0009 55.1798 31.9733L55.1688 31.9456L55.4508 31.835L55.4342 31.824C55.5116 31.8074 55.5835 31.7797 55.6609 31.7521H55.6775C56.2581 31.5309 56.8387 31.0775 57.2147 30.624C58.1271 29.5292 59.3879 25.581 59.399 24.1544C59.4045 23.1314 59.0285 22.1471 58.9898 21.1407C58.94 19.8247 59.1888 19.045 58.8958 17.6183C58.8128 17.2091 58.47 16.4295 58.4589 16.1032C58.4534 15.9373 58.7465 15.5889 58.7852 15.3014C58.8626 14.7374 58.5972 14.4498 58.5972 14.1678C58.5972 14.0517 58.7465 13.8526 58.7907 13.6923C58.9345 13.167 58.857 12.7799 58.5253 12.3541C58.4589 12.2712 58.3041 12.249 58.2654 12.144C58.1382 11.779 58.3815 11.497 58.0165 10.9883C57.6184 10.4353 57.259 10.6233 56.9161 10.4132C56.8498 10.3745 56.6673 9.97083 56.5457 9.84365C55.9706 9.22433 55.5171 9.60587 55.0139 9.43445C54.8591 9.37916 54.6435 8.88702 54.0463 8.79301C53.532 8.71007 52.9182 8.99208 52.7357 8.95891C52.5367 8.92573 52.2159 8.60501 51.7846 8.57183C51.1598 8.52759 50.8501 8.9202 50.5018 8.95891C50.3525 8.97549 49.899 8.77643 49.6502 8.78196C49.0806 8.79302 48.7599 9.24645 48.4337 9.30727C48.1848 9.35151 47.9913 9.23539 47.7701 9.23539C47.2503 9.23539 46.7527 9.52846 46.4319 9.91553C46.3766 9.98742 46.3435 10.1533 46.3213 10.1699C46.2218 10.2363 45.4477 10.1422 44.9666 10.4574C44.491 10.7726 44.5519 11.2205 44.3583 11.3864C44.2477 11.4804 43.9657 11.5191 43.7888 11.6242C43.3353 11.8841 43.0589 12.3873 42.9814 12.9015C42.9649 13.0232 43.0478 13.1448 43.0146 13.2665C42.9814 13.4047 42.7934 13.5153 42.716 13.6425C42.4506 14.1125 42.3511 14.4498 42.4672 15.0083C42.528 15.3125 42.799 15.4728 42.8266 15.5889C42.8874 15.8488 42.6331 16.258 42.7879 16.7612C42.9261 17.2036 43.2192 17.3197 43.3575 17.6017C43.4846 17.8672 43.4515 18.3593 43.5731 18.7298C43.6782 19.045 43.8717 19.3159 44.0431 19.5979C41.9087 19.9352 42.1022 22.3351 43.0091 23.7839V23.7728ZM53.7145 34.1575C51.2648 35.2247 46.7139 33.2009 45.3813 30.9835C44.9832 30.3254 45.3924 30.3199 45.5527 29.6785C45.8071 28.661 45.7518 27.1072 45.7739 26.0234C45.7739 25.8188 45.6633 25.5312 45.7186 25.299L46.0891 25.1165C46.5868 27.7265 48.5111 29.6951 50.7451 30.9835C51.3367 31.3208 52.9569 32.023 53.5928 32.023H54.6988C54.8978 33.1013 54.7485 33.7096 53.72 34.1575H53.7145ZM56.2858 29.4628C55.9927 29.3965 55.9042 29.0481 55.9816 28.7882C56.0535 28.5504 57.2756 28.2297 57.0378 27.533C56.9217 27.533 56.9604 27.6989 56.883 27.7818C56.2139 28.5283 53.5597 28.3403 52.7468 27.732C52.6694 27.815 52.9956 28.0804 53.0565 28.1247C53.5099 28.4343 54.1292 28.556 54.6048 28.8214C54.6932 29.8444 53.167 29.6951 52.5256 29.4628C51.674 29.1587 51.0381 28.2518 51.2317 27.3284C51.4252 26.4049 51.8289 26.8749 52.4427 26.9302C53.1062 26.9911 53.9025 26.9192 54.5882 26.9302C55.4066 26.9358 56.3024 27.0353 57.1263 26.9302C57.3806 26.8971 57.5963 26.7422 57.8341 26.6704C58.105 27.5219 57.4193 29.7282 56.2747 29.4684L56.2858 29.4628ZM51.6796 26.5929C51.8233 26.333 52.0556 26.2335 52.3155 26.1229C53.4214 25.6584 54.7596 25.7358 55.9319 25.7193C56.6341 25.7082 57.4857 25.7193 57.7124 26.5266C57.27 26.6593 56.7945 26.5708 56.3411 26.5929C55.6277 26.6316 55.4342 26.6316 54.7319 26.5929C53.7311 26.5321 52.6804 26.8086 51.6796 26.5929ZM45.4477 20.5324C45.5251 20.6154 45.6799 20.9969 45.785 20.8974C46.1499 19.609 47.0789 18.575 48.0964 17.7455L47.9305 14.9309C50.5571 14.2618 53.4159 13.8526 56.1254 14.2674C56.7226 14.3614 57.3032 14.3724 57.5852 14.9475C58.0276 15.8433 58.2764 16.9879 58.575 17.9446C58.0276 17.7953 56.2581 17.7455 55.9042 18.1879C55.6996 18.4422 55.4563 19.2938 55.9319 19.3546C56.1918 19.3878 57.0654 19.1003 57.4691 19.0837C57.9281 19.0671 58.2709 19.1722 58.7022 19.2938C58.7354 20.0182 58.5916 20.7426 58.6414 21.467C58.6856 22.1305 58.9345 22.8162 58.9787 23.4742C59.0616 24.652 58.6967 25.7303 58.4423 26.8584L58.188 26.1395C57.9059 25.4981 56.7115 24.9728 56.0369 24.9562C55.5116 24.9396 55.1964 24.9672 54.649 24.923C53.9301 24.8622 52.9182 25.1829 52.2436 25.4483C51.4031 25.7801 50.7838 26.228 50.5018 27.1238L50.3801 27.1791C48.7599 26.7312 47.4881 25.7911 46.8632 24.1875C46.4706 23.1701 46.4706 22.0255 45.8734 21.0854C45.702 21.0578 45.8182 21.1573 45.8347 21.2624C45.9509 22.1084 46.2771 23.4576 46.1776 24.2705C46.0615 25.2271 45.2044 25.1276 44.5463 24.7571C43.2192 24.0161 42.1686 21.9702 42.9925 20.5435C43.5178 19.6311 44.7896 19.7915 45.4366 20.5159L45.4477 20.5324Z" fill="black"/>
<path d="M54.8591 32.371C54.9973 32.3323 55.0084 32.4097 55.0858 32.4595C55.6001 32.8079 56.1143 33.3332 56.6452 33.7092C59.5869 35.8326 61.091 35.91 62.5398 39.5927C63.4688 41.9539 64.2097 44.4091 65.1442 46.7757C65.9847 48.8991 66.9469 50.9727 67.8151 53.0851C67.8427 53.5827 66.3829 54.3679 65.946 54.5615C65.465 54.7716 64.4254 55.1366 63.9277 55.1697C63.8061 55.1753 63.7563 55.1255 63.6955 55.026C62.9877 51.3764 62.4955 47.6771 61.7159 44.0441C61.5113 43.0819 61.2956 41.6995 60.9583 40.8148C60.8975 40.6655 60.8754 40.4941 60.6597 40.5272C60.632 40.9033 60.7205 41.2682 60.7758 41.6332C61.5168 46.3444 62.4845 51.2658 63.4024 55.955C64.6466 62.3251 66.4714 68.7561 66.5543 75.2866C66.5654 76.0165 65.5203 76.4036 64.912 76.6469C61.2735 78.1122 56.1586 77.3602 52.5919 75.9225C48.5885 74.3134 45.1822 71.3716 41.9419 68.6344C40.7032 65.5655 39.5475 62.3915 39.177 59.0792C39.9788 58.8304 40.0784 58.7419 40.3604 57.9788C41.1954 55.7393 41.87 52.2722 42.4008 49.8668C43.1141 46.632 43.7943 43.3197 43.4404 39.9853C43.269 39.9577 43.1971 40.0572 43.1694 40.2121C43.0588 40.8314 43.2081 41.8765 43.1694 42.5732C43.1086 43.7566 42.9261 45.6698 42.5778 46.7868C42.5335 46.925 42.5169 47.1075 42.351 47.1462C41.8147 44.2211 40.6922 40.9199 38.3642 38.9402C38.2757 38.8684 37.7946 38.4702 37.7283 38.5366C37.7559 38.8739 38.154 38.99 38.3642 39.2112C40.7364 41.694 41.9308 45.5205 42.1409 48.8881L39.8959 57.835L39.6249 57.7963C37.7614 56.9724 35.8979 56.1043 34.0068 55.3467C32.3313 54.6776 30.7001 54.0085 28.8477 54.3901C30.2135 50.6741 31.43 46.8974 32.8345 43.1981C33.6253 41.1134 34.5045 38.5587 35.8427 36.7782C37.9992 33.9083 41.7207 32.4484 44.679 30.5684C45.2928 31.0771 45.8071 31.7849 46.4264 32.3268C48.124 33.8087 50.9109 35.4179 53.2279 34.8649C54.6434 34.5276 54.8259 33.7092 54.8536 32.371H54.8591ZM43.5344 65.8143C44.3804 66.5332 45.5361 66.9534 46.5259 67.4898C50.2695 69.5136 54.8093 72.4996 59.2552 72.0683C59.3823 72.0573 59.9353 71.9633 59.9353 71.8416C59.8247 71.6757 59.6975 71.7144 59.5316 71.7034C58.8902 71.6536 58.199 71.7532 57.5465 71.6979C53.6592 71.355 49.7276 68.6013 46.2882 66.9202C45.4311 66.5 44.4634 65.9968 43.5344 65.8198V65.8143Z" fill="#F9D483"/>
<path d="M70.9377 129.898C69.688 126.818 66.5306 127.227 64.3408 125.712C63.6883 125.259 64.0478 125.292 64.103 124.778C64.1583 124.252 63.9759 123.418 64.0035 122.776C64.1196 120.078 65.0044 117.036 65.4302 114.321C66.2817 108.864 66.8458 102.919 67.0891 97.4006C67.2494 93.8339 66.9287 90.6046 66.8126 87.0712C66.796 86.6343 66.8292 86.192 66.8126 85.7551C67.3324 85.7551 67.6199 85.9431 68.112 85.6501C68.9525 85.1524 70.241 82.2272 70.5009 81.2429C71.1644 78.7491 69.5553 74.2866 69.03 71.6158C68.3498 68.1487 67.8853 64.6319 67.1444 61.1759C66.7186 59.1797 66.0937 57.2166 65.7343 55.226C66.4476 54.9108 67.3213 54.4297 67.8964 53.8988C68.112 53.6998 68.4549 53.4675 68.3111 53.1247C67.3766 50.8631 66.3647 48.6346 65.4689 46.3509C64.5122 43.9123 63.7713 41.2747 62.7704 38.8969C61.2442 35.2639 58.6729 34.816 55.8141 32.6263C55.4492 32.3498 55.2224 32.1452 55.0842 31.9849L54.4649 31.9517C54.4041 32.4494 54.2492 33.4004 54.1884 33.5663C53.7903 34.6557 51.9876 34.5949 51.0531 34.3903C48.8744 33.9147 46.6957 32.1286 45.2746 30.4642L44.5834 30.0605C44.5723 30.0661 44.5558 30.0716 44.5447 30.0771C40.1155 32.6152 36.1507 34.1746 33.9001 39.096C31.6551 44.0063 30.2285 49.5968 28.2323 54.6343C28.0166 55.9448 29.6478 57.294 30.7316 57.753C30.7759 58.7594 30.5658 59.7658 30.6598 60.7722C30.892 63.3656 33.1094 66.4124 34.4144 68.6022C34.2927 71.3449 33.6402 74.3364 34.3259 77.0404C34.5416 77.8864 34.9563 78.9647 35.8079 79.3241L35.83 79.4403C34.6743 85.2519 34.149 91.3179 32.4458 97.0024C32.0256 98.3959 32.0698 97.9978 31.2459 98.9765C29.1557 101.465 28.7244 107.409 27.5798 110.627C26.8609 112.657 24.6435 115.344 25.1578 117.49C25.2684 117.965 25.5393 118.43 25.755 118.861C24.649 120.741 22.686 122.71 23.7919 125.021C24.3228 126.127 26.5402 129.39 27.353 130.341C29.3382 132.658 33.5241 133.061 36.4161 132.879C38.3073 132.757 39.4021 132.431 39.2694 130.296C39.1146 127.753 38.0695 128.035 36.5599 126.752C35.6309 125.961 35.4761 124.501 35.371 123.362C37.4115 123.672 37.0299 120.608 38.1524 119.845C38.6943 119.475 39.4077 119.436 39.9496 118.922C41.3486 117.595 43.7153 111.855 44.6332 109.831C46.3916 105.955 48.0228 102.012 49.643 98.0752C49.726 98.0752 49.6928 98.4678 49.6873 98.5728C49.5601 100.337 49.3831 101.863 49.5103 103.649C49.7702 107.321 51.3683 111.567 50.3674 115.118C49.8532 116.942 49.0956 118.314 49.1398 120.332C49.173 121.643 49.7592 122.854 49.8642 124.136C49.9306 124.966 49.7592 125.961 49.8753 126.757C49.9416 127.233 50.3453 127.482 50.4061 127.858C50.7047 129.649 49.5877 132.215 52.0208 132.857C53.8953 133.349 56.7984 133.465 58.7891 133.609C61.8801 133.83 66.1822 134.211 69.1627 133.57C71.4741 133.067 71.8114 132.088 70.9266 129.898H70.9377ZM66.7296 85.3957L66.6356 82.8299C67.0835 82.5313 67.3932 82.4373 67.6476 81.9231C67.8134 81.5802 67.8079 81.1102 68.0844 80.8669C68.0733 82.4152 66.796 83.8474 67.1775 85.3957H66.7241H66.7296ZM69.0189 73.6286C69.9589 77.8533 71.2529 79.7333 68.947 83.9469C68.759 84.2842 68.0512 85.6058 67.5535 85.2906C67.0669 84.9865 68.3996 81.9618 68.4438 81.2706C68.5102 80.3471 68.0402 79.9545 68.0844 78.915C68.101 78.5334 68.3166 77.6874 68.2669 77.3777C68.2392 77.2229 68.1618 77.1178 67.9904 77.1455C67.5867 78.0191 67.8632 81.5858 66.9895 81.995C66.5527 82.1996 66.4974 81.7793 66.4587 81.442C66.2873 80.0043 66.3591 78.3786 66.2596 76.9188L66.995 75.752C66.9453 73.319 66.8015 70.9136 66.431 68.5137C65.8172 64.5102 64.7611 60.5897 64.0035 56.6194C64.009 56.2932 64.9657 56.3761 65.2311 56.2268L65.408 56.3098C67.1941 61.9445 67.736 67.8888 69.0134 73.6397L69.0189 73.6286ZM28.8571 54.3965C30.2229 50.6806 31.4394 46.9038 32.844 43.2045C33.6347 41.1198 34.5139 38.5651 35.8521 36.7846C38.0087 33.9147 41.7301 32.4549 44.6885 30.5748C45.3023 31.0835 45.8165 31.7913 46.4358 32.3332C48.1334 33.8152 50.9204 35.4243 53.2373 34.8713C54.6529 34.534 54.8354 33.7156 54.863 32.3775C55.0013 32.3388 55.0123 32.4162 55.0897 32.4659C55.604 32.8143 56.1182 33.3396 56.6491 33.7156C59.5909 35.839 61.0949 35.9164 62.5437 39.5992C63.4727 41.9603 64.2136 44.4155 65.1482 46.7822C65.9887 48.9056 66.9508 50.9792 67.819 53.0915C67.8466 53.5892 66.3868 54.3744 65.9499 54.5679C65.4689 54.7781 64.4293 55.143 63.9316 55.1762C63.81 55.1817 63.7602 55.132 63.6994 55.0324C62.9916 51.3829 62.4995 47.6835 61.7198 44.0505C61.5152 43.0884 61.2995 41.706 60.9622 40.8212C60.9014 40.6719 60.8793 40.5005 60.6636 40.5337C60.636 40.9097 60.7244 41.2747 60.7797 41.6396C61.5207 46.3509 62.4884 51.2723 63.4063 55.9614C64.6505 62.3315 66.4753 68.7625 66.5582 75.293C66.5693 76.0229 65.5242 76.41 64.9159 76.6533C61.2774 78.1187 56.1625 77.3666 52.5959 75.9289C48.5924 74.3198 45.1861 71.378 41.9458 68.6409C40.7071 65.5719 39.5514 62.3979 39.1809 59.0856C39.9827 58.8368 40.0767 58.7483 40.3643 57.9852C41.1993 55.7457 41.8739 52.2787 42.4047 49.8733C43.1181 46.6384 43.7982 43.3262 43.4443 39.9918C43.2729 39.9641 43.201 40.0637 43.1733 40.2185C43.0628 40.8378 43.2121 41.8829 43.1733 42.5797C43.1125 43.763 42.93 45.6763 42.5817 46.7933C42.5374 46.9315 42.5209 47.114 42.355 47.1527C41.8186 44.2275 40.6961 40.9263 38.3681 38.9467C38.2796 38.8748 37.7985 38.4767 37.7322 38.543C37.7598 38.8803 38.158 38.9965 38.3681 39.2176C40.7403 41.7004 41.9347 45.527 42.1448 48.8945L39.8998 57.8415L39.6288 57.8028C37.7654 56.9789 35.9019 56.1107 34.0107 55.3531C32.3352 54.684 30.704 54.015 28.8516 54.3965H28.8571ZM31.3454 61.7343C30.8422 59.81 31.3012 57.6866 31.5722 55.7513C33.0209 56.1273 34.4863 56.4535 35.9185 56.8849C36.2613 56.9899 37.887 57.4544 37.9865 57.6258C39.0538 62.232 40.6187 66.6834 42.4379 71.0352C42.4711 71.1735 42.4379 71.3006 42.3992 71.4333C42.2554 71.9587 41.4315 73.3964 41.1274 73.9715C41.0444 74.1318 40.2869 75.5916 40.1763 75.5087C39.2362 74.1263 38.075 72.8545 37.0576 71.5108C35.172 69.0114 32.1196 64.7148 31.3399 61.7288L31.3454 61.7343ZM34.8236 77.1123C34.2043 74.729 34.6964 71.8757 34.8346 69.4427L38.2575 73.8498C37.3506 75.4257 36.2724 76.9187 36.0069 78.7712C35.2881 78.7712 34.9729 77.6874 34.8181 77.1068L34.8236 77.1123ZM37.146 132.342C34.9563 132.658 30.6266 132.287 28.7742 131.021C27.53 130.169 25.5835 127.106 24.743 125.718C24.0795 124.623 23.6371 123.97 24.1293 122.671C24.1624 122.583 24.356 122.052 24.5053 122.19C25.0085 123.705 26.037 124.955 26.8996 126.276C28.094 128.107 28.3263 129.218 30.6653 129.937C33.22 130.722 36.1894 130.578 38.8215 130.346C38.9542 131.812 38.4897 132.149 37.146 132.337V132.342ZM35.6641 126.392C36.3387 127.454 37.9478 127.725 38.5063 128.897C38.6446 129.19 38.9321 129.876 38.5063 129.981C36.6318 130.435 31.4118 130.031 29.7031 129.096C28.3318 128.344 27.9613 127.133 27.1761 125.917C26.5291 124.916 24.8426 122.71 24.7818 121.604C24.7375 120.763 25.6223 120 26.0093 119.292C26.2029 119.292 26.8554 120.238 27.0489 120.432C27.7456 121.123 28.5972 121.51 29.3105 122.063C30.1842 122.743 30.2893 124.839 31.3067 125.867C31.8597 126.426 33.0265 126.907 33.8006 126.907H35.2051C35.2549 126.691 35.1222 126.702 34.9563 126.663C33.3693 126.298 32.2689 126.658 31.2348 125.032C31.0358 124.717 30.1344 122.759 30.3114 122.555L34.9287 124.142C35.3102 124.822 35.2383 125.707 35.6696 126.392H35.6641ZM50.4172 127.039C50.0688 126.608 50.3011 124.557 50.2347 123.865C50.1462 122.898 49.6983 121.936 49.6154 120.951C49.3776 118.242 50.4172 117.047 50.9314 114.681C51.6945 111.191 50.1352 106.994 49.9582 103.384C49.6983 97.9922 52.7396 88.9402 55.051 83.9967C55.4823 83.0788 56.2897 81.8899 56.5993 81.0107C56.6491 80.8669 56.6933 80.7397 56.6712 80.5849C55.8971 81.5692 55.2114 82.8133 54.6308 83.9359C52.1646 88.7245 50.6052 93.9003 48.6753 98.9157C46.7234 103.986 44.5226 109.168 42.1614 114.061C41.531 115.372 40.3311 118.347 39.0261 118.905C36.2613 120.083 33.5407 117.578 31.2404 116.494C31.1132 116.434 31.0026 116.356 30.8478 116.389C31.7657 117.54 33.3029 118.308 34.6522 118.878C35.0503 119.044 37.24 119.751 37.3285 119.923C37.3838 120.033 37.3506 120.094 37.3285 120.194C37.2622 120.542 36.7977 121.67 36.6263 122.035C36.2779 122.776 36.2171 122.959 35.3268 122.909C33.3914 122.798 29.3105 121.322 27.7291 120.177C25.4177 118.502 25.0693 116.893 26.2637 114.305C26.9273 112.872 27.718 111.673 28.2378 110.113C29.2165 107.177 29.4156 103.688 30.6432 100.917C31.6496 98.6447 33.2034 98.6779 34.9121 97.301C35.8963 96.5048 36.9083 95.1555 37.5829 94.0828C37.8594 93.6404 38.5948 92.4847 38.722 92.0479C38.7773 91.8654 38.5616 91.8709 38.4676 91.9373C38.357 92.0091 37.3009 93.8063 37.0742 94.1215C35.8687 95.8246 34.6356 97.3231 32.6504 98.1692C33.2532 95.5758 33.9112 92.9934 34.4199 90.3779C35.1277 86.7283 35.5259 82.935 36.3221 79.3186C36.6097 77.997 36.9912 76.0285 38.357 75.3704C39.1035 75.011 39.9385 75.3926 39.8113 76.2773C39.7616 76.6036 39.3192 77.0238 39.9938 76.8247L43.3945 70.6205C45.5566 72.6941 47.9952 74.4415 50.7158 75.7078C53.8511 77.1731 57.2795 78.4394 60.7908 78.2348C62.4995 78.1353 64.0975 77.4441 65.8172 77.4164C65.9831 79.6338 66.0495 81.8567 66.1822 84.0796C66.4532 88.7467 66.8845 93.4413 66.6356 98.1305C66.337 103.776 65.7066 110.019 64.7943 115.593C64.4293 117.822 63.7768 120.067 63.6441 122.328C63.622 122.732 63.727 124.866 63.5446 124.993C63.0911 124.96 62.7151 124.761 62.2451 124.728C58.8499 124.474 56.0906 127.017 52.9055 127.266C52.441 127.305 51.1582 127.338 50.7545 127.25C50.6328 127.222 50.4946 127.139 50.4172 127.045V127.039ZM50.9646 127.902C53.735 128.433 56.1625 127.062 58.7116 126.265C60.2931 126.862 62.1456 128.107 63.904 127.659C64.3353 127.548 64.9712 127.299 65.0929 126.813C64.6394 126.929 64.3077 127.233 63.8321 127.316C62.3502 127.576 60.5198 126.658 59.2093 126.039C59.143 125.889 59.4139 125.845 59.5079 125.801C60.1272 125.53 61.4875 125.148 62.1456 125.176C63.1022 125.215 63.8929 126.055 64.7611 126.464C66.8181 127.432 69.6272 127.648 70.5396 130.119C70.5174 130.407 69.4723 130.518 69.1737 130.578C64.5288 131.463 57.6942 130.949 53.0272 130.053C52.7286 129.998 51.0697 129.666 50.9591 129.583C50.6881 129.378 51.0254 128.256 50.9591 127.902H50.9646ZM70.617 132.564C69.5608 133.526 64.9104 133.476 63.4174 133.432C60.7908 133.354 57.7937 133.155 55.1782 132.884C54.3432 132.796 52.2309 132.597 51.5839 132.221C50.854 131.789 50.8706 130.838 50.8706 130.075C52.4023 130.324 53.9175 130.678 55.4602 130.877C59.6959 131.436 64.7168 131.8 68.9194 131.043C69.5055 130.938 70.0972 130.816 70.6612 130.623C70.9764 131.104 71.0593 132.154 70.617 132.558V132.564Z" fill="black"/>
</g>
<g clip-path="url(#clip2_2414_68603)">
<rect x="71.5" y="11" width="19" height="3.30435" rx="1.65217" fill="#F9D483" fill-opacity="0.3"/>
<rect x="71.5" y="11" width="12.3913" height="3.30435" rx="1.65217" fill="#F9D483"/>
</g>
</g>
<defs>
<clipPath id="clip0_2414_68603">
<rect x="0.5" width="102" height="110" rx="10" fill="white"/>
</clipPath>
<clipPath id="clip1_2414_68603">
<rect width="48.5876" height="76.5254" fill="white" transform="translate(23.1094 2.73633)"/>
</clipPath>
<clipPath id="clip2_2414_68603">
<rect x="71.5" y="11" width="19" height="3.30435" rx="1.65217" fill="white"/>
</clipPath>
</defs>
</svg>
