<svg width="264" height="198" viewBox="0 0 264 198" fill="none" xmlns="http://www.w3.org/2000/svg">
<path d="M153.604 67.065C153.252 66.7132 154.539 65.0016 154.745 64.5854C155.144 63.7747 155.616 62.8566 155.891 62.0029C155.955 61.8056 156.328 61.0592 155.886 61.0635C154.406 64.89 150.55 67.4254 146.723 68.5665L142.841 69.3386C151.202 72.1141 161.42 73.9674 168.584 79.3125C179.266 87.2789 183.063 106.995 188.717 118.805C188.811 119.007 188.931 119.753 189.305 119.625C190.077 119.359 192.801 117.269 193.796 116.66C195.8 115.429 198.76 113.37 200.81 112.495C201.402 112.242 201.78 112.143 202.449 112.169C203.294 109.144 203.83 105.897 206.408 103.812L189.751 100.389C189.103 100.234 188.408 99.7882 188.378 99.0546L203.187 24.8268C203.496 24.0847 204.122 23.9816 204.855 23.9988C208.734 24.076 214.014 26.1867 217.914 26.2982C219.244 26.3368 218.592 24.8953 220.183 24.831C222.075 24.7538 224.971 25.8864 226.983 25.895C227.776 23.2395 228.784 20.4511 231.985 20.0822C236.716 19.5373 240.839 22.759 238.922 27.7395C239.136 28.0398 245.202 28.5975 246.219 29.0394C246.956 29.3611 247.047 29.8759 247.012 30.6266L262.005 33.1277C262.619 33.3036 263.026 33.8827 263.146 34.4875L248.08 111.109C247.66 111.856 246.956 112.323 246.077 112.203L232.324 109.11C228.712 114.601 224.37 119.123 218.768 122.585C217.584 123.318 216.605 123.421 215.623 124.618C214.405 126.102 215.494 126.356 214.851 127.78C214.207 129.204 210.595 133.455 209.416 134.768C196.958 148.654 178.589 159.92 167.581 137.252L164.998 131.658C164.977 133.073 165.02 134.493 165.002 135.909C164.972 139.131 164.947 142.348 165.436 145.6C166.38 151.85 169.331 159.362 169.55 165.509C169.571 166.088 169.541 166.577 169.292 167.109C168.953 167.826 167.988 168.169 167.778 168.504C167.495 168.954 168.499 172.395 168.657 173.218C170.215 181.309 171.291 189.473 172.034 197.688H170.373C169.61 188.156 168.306 178.658 166.229 169.327C160.459 171.7 154.441 173.45 148.259 174.441C134.656 176.624 119.272 176.29 105.729 173.814C99.8176 172.733 94.0091 171.056 88.5824 168.495C86.5361 178.1 85.1848 187.881 84.4384 197.683H82.7782C83.7778 187.662 85.0003 177.637 87.141 167.8C86.6648 167.448 85.957 167.045 85.7682 166.436C85.2149 164.63 86.5747 158.225 86.9823 156.037C87.4585 153.485 88.0805 150.962 88.5739 148.418C78.6985 152.97 68.8489 143.635 63.1133 136.51C61.629 134.669 56.3696 127.522 56.2667 125.536C56.2367 124.974 56.6785 123.756 56.5884 123.563C56.4898 123.353 53.4611 121.01 52.9635 120.577C52.3758 120.067 51.891 119.427 51.3033 118.913C48.5964 118.925 45.7179 119.951 43.0839 119.067C35.4178 115.189 27.8591 111.101 20.2488 107.115C17.7049 105.785 14.5862 104.584 12.1924 103.164C11.2615 102.611 10.5494 101.985 10.3649 100.852C7.70517 86.3009 4.28184 71.8954 1.46338 57.3784C0.948598 54.723 -1.17919 48.9531 2.79753 48.2753C17.1343 49.5408 31.4926 51.2396 45.8208 52.7754C49.5873 53.1786 53.4611 53.2901 57.2062 53.8135C59.291 54.1052 60.7625 54.5985 61.1443 56.9151L68.3127 95.3954L79.3677 99.3378C80.4402 96.5665 81.3025 93.6151 82.4178 90.8138C85.5065 83.0705 88.1834 79.3426 95.8924 75.7177C100.633 73.4869 105.257 72.719 110.019 70.9988C111.306 70.5355 113.455 70.0035 113.013 68.3004C107.724 69.5231 101.13 69.9006 96.5873 66.4001C88.8698 60.4586 96.124 48.1852 97.8228 40.8666C96.094 38.1855 95.2747 35.1439 96.2957 32.0208C96.4115 31.6734 97.3681 29.8716 97.2737 29.7944L96.0211 29.7001C95.2275 28.4731 96.8147 28.4003 97.6899 28.3445C96.0211 15.8952 104.198 5.20907 116.072 2.11607C128.084 -1.01555 141.52 1.71715 149.001 12.1373C154.385 19.6317 155.024 26.8859 157.427 35.3884C159.58 43.0073 164.449 51.2524 162.193 59.4075C161.176 63.0754 157.534 66.8248 153.596 67.0607L153.604 67.065ZM138.903 32.2912L138.59 28.7692C130.276 22.6089 120.495 17.5897 116.741 7.24246C113.275 10.7816 109.14 13.6645 105.558 17.0707C102.658 19.8291 99.809 23.2395 100.178 27.5251C104.202 25.9292 108.848 27.1262 109.912 31.6649C112.318 30.8412 114.133 31.0471 116.325 32.2869C118.809 25.3244 129.478 24.6637 131.885 32.0552L138.898 32.2912H138.903ZM235.335 23.2438C233.302 21.0173 230.114 23.4797 231.908 25.5346C233.701 27.5894 236.97 25.0412 235.335 23.2438ZM218.42 27.9455L204.555 25.8864L190.047 98.9474L208.146 102.465C210.934 101.371 220.544 92.77 220.08 100.715C220.046 101.298 219.9 101.856 219.699 102.401C219.317 103.413 218.6 103.829 218.21 104.743L246.579 110.333L261.491 34.775L246.583 32.2869C246.206 33.2221 246.279 35.8561 245.193 36.1778L218.871 32.1539C216.97 31.5061 218.291 29.3654 218.42 27.9455ZM123.322 27.997C114.472 29.151 114.875 42.9558 124.06 42.767C133.901 42.5611 133.253 26.7014 123.322 27.997ZM102.825 28.2072C93.3957 29.3655 96.9048 44.9678 105.463 41.6088C111.649 39.1807 110.1 27.3106 102.825 28.2072ZM139.109 33.5309H132.275C133.875 41.4886 124.759 47.3057 118.397 41.9176C115.969 39.8628 115.188 36.6282 115.664 33.5738C114.129 32.54 112.288 31.9522 110.632 33.1148C110.396 34.7878 110.714 36.2593 110.263 37.9237C109.14 42.0806 104.146 44.942 100.178 42.6426C99.7747 45.7313 100.307 49.1204 101.156 52.1147C103.631 60.8532 110.328 65.8981 119.547 65.2117C120.636 65.1302 122.799 64.3538 123.485 64.3924C123.824 64.4096 124.038 64.6498 124.176 64.9329C124.459 66.0397 120.735 66.5545 119.924 66.6274C118.586 66.7433 116.951 66.696 115.587 66.666C115.257 66.6574 114.811 66.4515 114.768 66.4558C114.309 66.5072 114.665 67.0993 114.674 67.3739C114.746 69.9521 114.382 71.6723 111.508 72.0369L111.289 72.2943C111.254 75.5718 114.914 77.1248 117.616 77.8884C125.827 80.2049 137.092 78.5104 141.991 70.8873L140.644 69.9779C139.984 68.5021 139.894 69.0984 138.607 68.9054C135.437 68.4335 135.509 67.5026 136.093 64.5811C137.83 55.9027 140.378 47.739 139.521 38.5973L139.096 33.5352L139.109 33.5309ZM66.4294 94.5975L59.4841 56.928C59.2224 55.9413 58.536 55.6668 57.6094 55.4909L4.82235 49.8883C3.33376 49.8239 2.10686 49.7467 2.04251 51.6128L11.5746 98.098L66.4294 94.6018V94.5975ZM201.231 114.056C194.581 117.647 188.451 122.357 181.956 126.15C181.446 126.446 179.957 127.54 179.485 127.209C178.833 126.75 179.884 125.965 180.219 125.656C182.171 123.867 185.088 122.447 187.258 120.894L187.554 120.384C184.213 112.04 181.265 103.486 177.722 95.2281C174.582 87.9224 171.575 82.5343 164.376 78.5533C158.061 75.0614 150.46 73.2853 143.583 71.1918C138.77 79.793 125.964 81.8866 117.157 79.3856C114.056 78.5061 109.672 76.477 109.907 72.659C102.078 74.7654 92.6321 77.1076 87.5829 83.98C84.1939 88.5959 82.7095 94.5031 80.9121 99.8655L90.0281 103.091L93.3356 92.0064C93.829 91.4444 94.4209 91.6674 94.3909 92.4182L91.2722 103.709C95.7336 105.296 100.375 106.592 104.614 108.698C105.686 109.518 104.781 112.765 104.017 113.447C103.37 114.026 102.138 114.065 101.315 114.267L89.8222 115.095C89.4146 120.174 90.5686 125.116 91.062 130.105C91.5982 135.51 91.5081 140.834 90.5858 146.183C89.4661 152.661 87.7159 159.074 87.1625 165.664C87.304 166.148 90.3284 167.551 90.9933 167.852C108.487 175.788 140.306 176.037 158.525 170.421C159.812 170.022 167.358 167.358 167.791 166.642C168.297 165.805 166.873 159.293 166.585 157.908C164.522 147.878 161.897 138.826 163.844 128.316C161.978 121.474 158.447 113.121 157.967 106.06C157.881 104.825 159.01 104.885 159.348 105.73C159.709 106.626 159.897 108.591 160.163 109.676C164.093 125.746 171.347 159.255 194.796 145.201C201.784 141.014 207.674 134.622 212.616 128.234C212.702 127.831 212.534 127.986 212.359 127.883C211.217 127.226 210.188 126.827 209.034 126.029C204.958 123.215 202.093 118.977 201.226 114.061L201.231 114.056ZM102.25 109.299C90.2898 105.275 78.4926 100.792 66.7169 96.2576L14.243 99.5695L43.3884 114.833L45.01 115.283C59.1581 113.915 73.2976 112.353 87.4413 110.955C92.0015 110.504 96.7718 110.341 101.289 109.685C101.521 109.651 102.254 109.612 102.246 109.299H102.25ZM218.21 98.7372C217.862 98.4926 214.285 100.578 213.676 100.929C211.08 102.431 206.601 104.988 205.336 107.703C204.555 109.376 204.439 111.594 203.732 113.138C203.521 113.597 202.985 113.941 202.921 114.198C202.831 114.558 203.345 115.983 203.504 116.442C204.928 120.564 208.51 124.528 212.53 126.27L212.813 126.257C212.886 126.038 212.921 125.759 213.062 125.579C213.607 124.88 214.701 123.031 215.121 122.662C215.825 122.048 218.025 121.186 219.025 120.56C222.187 118.587 225.009 115.837 227.429 113.023C228.038 112.315 230.389 109.604 230.633 108.981C230.784 108.595 230.492 108.716 230.333 108.668C225.97 107.364 220.908 107.055 216.477 105.82C214.551 106.854 215.284 107.793 215.053 109.552C214.915 110.582 213.8 113.503 212.946 114.069C212.298 114.498 211.539 114.228 211.9 113.439C212.084 113.035 212.727 112.456 213.011 111.856C213.367 111.092 213.877 109.183 213.847 108.381C213.826 107.789 213.341 107.218 213.534 106.596C213.727 105.974 217.249 103.49 217.974 102.324C218.647 101.238 218.523 99.9297 218.214 98.7329L218.21 98.7372ZM103.494 110.955L48.3089 116.54L43.9762 116.738L11.7677 99.9813C11.6991 100.719 11.935 101.182 12.5227 101.607C14.4918 103.027 18.5157 104.46 20.8837 105.67C28.717 109.685 36.4131 114.146 44.4051 117.763C63.5938 116.497 82.7181 113.906 101.928 112.594C103.112 112.418 103.134 111.984 103.498 110.959L103.494 110.955ZM88.3765 115.296L77.1327 116.373L76.1417 118.895C79.342 120.912 82.6881 122.962 85.4808 125.54C85.8969 125.922 88.2778 127.981 87.0209 128.337C86.4332 128.505 81.1094 124.082 80.1613 123.408C77.3429 121.409 74.3786 119.565 71.3028 117.982C69.604 123.576 63.9499 126.162 58.5618 126.892C63.0104 134.618 72.5082 147.14 82.0661 148.002C83.8249 148.161 87.5314 147.844 88.7798 146.441C89.5991 145.518 89.9466 138.706 89.9552 137.17C90.0067 129.839 88.1234 122.636 88.3765 115.296ZM75.125 116.54L72.6412 116.849L74.7089 117.99L75.125 116.544V116.54ZM53.3796 118.612C55.6061 121.027 58.3259 123.031 61.1057 124.777C64.9323 123.601 69.2093 121.362 69.7369 116.956L53.3796 118.612Z" fill="black"/>
<path d="M201.23 114.056C202.092 118.973 204.962 123.211 209.038 126.025C210.192 126.823 211.221 127.222 212.362 127.878C212.538 127.981 212.706 127.823 212.62 128.23C207.678 134.613 201.788 141.005 194.8 145.197C171.351 159.255 164.101 125.742 160.167 109.672C159.901 108.587 159.708 106.622 159.352 105.725C159.013 104.876 157.889 104.82 157.971 106.056C158.451 113.113 161.982 121.469 163.848 128.312C161.896 138.822 164.526 147.878 166.589 157.903C166.877 159.289 168.301 165.801 167.795 166.637C167.362 167.354 159.816 170.018 158.529 170.417C140.31 176.032 108.491 175.784 90.9972 167.847C90.3323 167.547 87.308 166.144 87.1664 165.659C87.7198 159.07 89.4701 152.661 90.5897 146.179C91.5121 140.83 91.6064 135.506 91.0659 130.101C90.5683 125.111 89.4186 120.169 89.8261 115.09L101.319 114.262C102.142 114.065 103.374 114.022 104.021 113.443C104.789 112.757 105.694 109.513 104.618 108.694C100.379 106.592 95.7376 105.292 91.2761 103.705L94.3949 92.4139C94.4249 91.6631 93.8329 91.4401 93.3396 92.002L90.032 103.087L80.916 99.8611C82.7135 94.4988 84.1978 88.5916 87.5868 83.9757C92.636 77.1033 102.082 74.761 109.911 72.6547C109.671 76.4727 114.06 78.5018 117.161 79.3812C125.968 81.8822 138.774 79.7887 143.587 71.1875C150.459 73.281 158.065 75.0528 164.38 78.549C171.579 82.53 174.586 87.9181 177.726 95.2237C181.274 103.482 184.217 112.036 187.558 120.38L187.262 120.89C185.092 122.443 182.174 123.863 180.223 125.652C179.888 125.961 178.837 126.746 179.489 127.205C179.961 127.539 181.45 126.446 181.96 126.145C188.455 122.353 194.585 117.647 201.235 114.052L201.23 114.056Z" fill="#031C51"/>
<path d="M218.42 27.9458C218.287 29.3657 216.966 31.5064 218.871 32.1542L245.193 36.1782C246.279 35.8607 246.206 33.2224 246.583 32.2872L261.491 34.7754L246.579 110.333L218.21 104.743C218.596 103.834 219.317 103.418 219.699 102.401C219.904 101.856 220.046 101.299 220.08 100.715C220.544 92.7703 210.934 101.372 208.146 102.465L190.047 98.9477L204.555 25.8867L218.42 27.9458ZM211.582 43.4624L212.981 35.4831C212.916 35.1357 211.835 34.9727 211.513 34.9598L209.922 43.1363L211.582 43.4581V43.4624ZM220.076 38.7049C220.488 35.7749 215.151 34.9469 214.371 37.4522C213.337 40.7597 218.425 40.8627 218.021 42.7202C217.905 43.2479 216.391 43.2307 215.885 42.999C214.928 42.5658 214.847 41.5877 214.667 41.429C214.499 41.2788 213.277 41.4761 213.225 41.7378C213.32 45.0625 219.308 45.6073 219.617 42.2827C219.827 40.0219 216.957 39.6615 216.031 38.7177C215.053 37.7225 216.919 36.6801 218.116 37.6667C218.841 38.2673 218.24 39.0738 220.076 38.7091V38.7049ZM222.127 42.6601C219.703 42.2869 220.681 44.4919 222.135 45.2383C225.889 47.1645 228.815 43.3766 225.653 41.0986C225.198 40.7726 221.753 39.5114 223.594 38.6019C225.434 37.6924 225.653 40.4208 227.184 39.9146C228.257 39.5629 226.665 37.8254 225.932 37.5037C222.375 35.9593 219.857 39.3741 222.779 41.4847C223.705 42.1539 226.069 42.4886 225.117 44.1059C223.928 44.6292 222.157 44.0886 222.122 42.6601H222.127ZM231.05 38.293L229.398 38.0871C229.282 40.8155 226.768 45.5772 230.47 46.8385C235.515 48.5587 235.035 42.6558 235.799 39.4556L234.366 38.9065C233.478 40.6524 234.224 46.1779 231.2 45.4872C228.725 44.9209 231.178 39.9747 231.054 38.2887L231.05 38.293ZM243.267 40.571L237.472 39.5328L236.112 47.6192L241.607 48.8505L241.804 47.4133L237.909 46.4524L238.3 44.5005L241.68 45.1397L242.023 43.6769C241.478 43.6383 238.613 43.3036 238.548 42.9604L238.917 41.1887L242.761 41.9609L243.267 40.571ZM248.685 43.8484C249.016 44.0586 250.067 43.9686 250.114 43.3637C250.294 41.0944 244.786 40.0004 244.314 42.9647C243.842 45.929 248.406 46.0278 248.003 47.6708C247.827 48.3915 246.476 48.3142 245.901 48.1855C245.065 47.9968 244.919 47.2846 244.511 46.6626L243.289 46.7999C242.954 50.2876 249.698 50.7423 249.689 47.2975C249.681 44.7107 245.854 44.5005 245.743 43.3551C245.631 42.2097 247.527 42.1626 248.243 42.9433C248.479 43.2007 248.617 43.8055 248.681 43.8484H248.685ZM213.813 50.7595C212.693 50.5621 207.018 49.0392 206.409 49.3567C206.151 49.4897 206.095 49.7513 206.001 49.9916C205.589 51.0683 204.941 54.4187 204.813 55.6327C204.757 56.1346 204.637 56.6451 204.851 57.1385C205.113 57.5331 211.363 58.7215 212.101 58.5713C212.702 58.4512 212.698 58.1766 212.865 57.679C213.217 56.628 213.993 52.8958 214.057 51.8148C214.079 51.433 214.04 51.0769 213.817 50.7552L213.813 50.7595ZM217.103 53.8482C216.4 54.0798 216.769 55.1909 217.545 55.208L248.544 60.8579C249.458 60.6906 249.136 59.5108 248.325 59.4207L218.291 53.8439C217.927 53.8096 217.446 53.7366 217.103 53.8482ZM236.592 61.527L217.875 57.9836C217.331 57.9364 216.404 57.7563 216.335 58.477C216.271 59.129 216.683 59.159 217.172 59.3092C223.083 60.0299 229.458 62.149 235.318 62.6939C235.747 62.7325 236.185 62.7754 236.609 62.6939C236.794 62.3635 236.88 61.8059 236.588 61.527H236.592ZM204.071 61.0895C203.916 61.1323 203.8 61.2354 203.702 61.3555C203.491 61.6172 202.337 67.134 202.286 67.8161C202.196 68.9486 202.5 68.9829 203.466 69.2789C204.658 69.6435 207.593 70.2484 208.815 70.3514C209.193 70.3814 209.57 70.4543 209.93 70.2742C210.385 70.0468 210.969 66.7993 211.106 66.0658C211.252 65.2893 211.784 63.539 211.483 62.9212C211.059 62.0461 205.272 61.3769 204.071 61.0852V61.0895ZM214.306 65.8513L214.375 66.8637L245.854 72.861C247.24 72.0073 245.897 71.5353 244.936 71.2951C235.374 68.9485 224.962 68.0992 215.357 65.6539L214.311 65.847L214.306 65.8513ZM213.791 69.7894C213.088 70.021 213.452 71.1322 214.233 71.1493C221.26 71.9429 229.016 74.6927 235.944 75.3191C238.008 75.5078 238.45 74.5554 236.481 73.9548C229.471 73.1955 221.672 70.3556 214.769 69.7765C214.456 69.7507 214.1 69.6821 213.791 69.7851V69.7894ZM201.364 72.8909C201.068 72.9939 201.042 73.2727 200.96 73.5215C200.596 74.6197 200.278 76.6274 200.09 77.8286C199.841 79.4416 199.103 80.5141 200.982 81.0847C202.183 81.4493 205.1 82.0542 206.331 82.1571C207.854 82.2858 207.678 81.8311 208 80.5613C208.322 79.2915 209.047 76.3529 209.09 75.2118C209.098 74.9716 209.145 74.7399 209.004 74.5168C208.772 74.0621 205.525 73.4787 204.791 73.3414C203.95 73.1827 202.071 72.6507 201.364 72.8909ZM212.135 77.4425C211.642 77.6099 211.608 78.648 212.144 78.8282L243.37 84.6668C244.305 84.4909 243.954 83.3369 243.109 83.2725L212.135 77.4468V77.4425ZM211.428 82.7491L233.426 86.9446C234.349 86.7902 234.035 85.6062 233.169 85.5461L211.411 81.5822L211.432 82.7491H211.428ZM199.103 84.4865C198.948 84.5337 198.833 84.6281 198.734 84.7525C198.515 85.0228 197.374 90.7112 197.318 91.4233C197.194 93.0878 199.18 92.9805 200.574 93.2937C201.462 93.4953 204.311 94.2032 204.967 93.8771C205.289 93.7184 205.383 93.2593 205.486 92.9504C205.872 91.7793 206.426 88.8708 206.563 87.6096C206.61 87.1849 206.756 86.4599 206.524 86.1038C206.314 85.7864 199.48 84.3793 199.107 84.4865H199.103ZM241.148 95.4772L209.858 89.4542C209.411 89.6044 209.467 90.2564 209.544 90.6425L240.505 96.8715C241.375 96.88 241.62 96.1336 241.152 95.4772H241.148ZM208.824 93.3837C207.846 93.7098 208.682 94.6321 209.544 94.8809C215.379 96.5497 222.35 96.8843 228.283 98.5101C228.866 98.6131 229.467 98.5917 229.763 98.0168L228.819 97.1374C223.203 96.185 217.648 94.7951 212.037 93.8342C211.359 93.7184 209.304 93.2207 208.819 93.3837H208.824Z" fill="white"/>
<path d="M66.4299 94.5975L11.5751 98.0937L2.04297 51.6086C2.10732 49.7425 3.33422 49.8197 4.82281 49.884L57.6099 55.4867C58.5365 55.6625 59.2229 55.937 59.4846 56.9237L66.4299 94.5932V94.5975ZM8.68371 58.7598C9.03977 59.3303 15.9079 59.3561 17.049 59.399C17.9713 59.4333 22.1282 60.2355 22.124 58.8885C22.124 58.6182 21.9824 58.5282 21.785 58.3909C21.1716 57.9748 15.3674 58.022 14.1362 57.9662C12.7162 57.9019 10.7729 57.52 9.39584 57.5586C9.1599 57.5672 8.90249 57.683 8.688 57.7817V58.7555L8.68371 58.7598ZM14.3807 61.3037C13.6729 61.6468 14.1662 62.2646 14.6638 62.6121L31.2271 63.2384C31.6947 62.818 31.6604 62.2389 31.0855 61.9258L14.3807 61.3037ZM17.0405 66.4472C17.8212 66.6102 19.6315 66.4472 20.5624 66.4472C21.163 66.4472 21.163 64.9973 20.5624 64.9973H17.2507C15.7663 64.9973 16.2082 66.2713 17.0447 66.4472H17.0405ZM23.6597 65.0917C22.6087 65.1775 22.5658 66.4774 24.0758 66.6532C30.1632 67.3611 36.9755 66.6361 43.1444 67.2838C44.1611 67.4812 44.7617 66.1813 43.7106 65.8682C41.8016 65.2976 38.404 65.7008 36.2934 65.6236C33.7109 65.5335 31.0255 65.2547 28.443 65.1946C26.8514 65.156 25.247 65.3233 23.664 65.0917H23.6597ZM29.9315 68.9783C29.7342 68.7896 29.3267 68.7509 29.0521 68.7209C26.0063 68.3906 22.4028 68.6866 19.3055 68.5021L18.9323 68.545L18.5762 69.034L18.795 69.6562L19.5371 69.9478L29.953 70.1409C30.1332 69.8105 30.2275 69.2615 29.9315 68.974V68.9783ZM53.9506 75.6062C53.3758 75.1171 48.2408 75.4002 47.0611 75.3573C38.713 75.0527 30.382 74.7096 22.0038 74.5294C21.399 74.5165 19.6229 73.8645 19.6229 75.0399C19.6229 76.4513 24.2646 75.9237 25.3328 75.9623C34.17 76.2926 42.9728 76.5929 51.84 76.7902C52.4878 76.8031 53.7233 77.3951 54.1222 76.5886C54.2595 76.3097 54.1694 75.7906 53.9549 75.6062H53.9506ZM48.5668 78.918C47.9877 78.4246 40.6005 78.6991 39.1891 78.6691C33.8267 78.5447 28.4258 78.3431 23.0377 78.2573C22.2055 78.2444 21.3346 77.6524 20.6826 78.579C20.7426 79.5657 21.8537 79.6215 22.6344 79.6902C26.5554 80.0505 31.2614 79.8017 35.2725 79.8918C38.906 79.9733 42.591 80.0162 46.246 80.0977C46.9367 80.1148 48.3265 80.724 48.7341 79.8961C48.8714 79.6172 48.7813 79.0981 48.5668 78.9137V78.918ZM39.9012 82.9891L39.7339 82.0539L39.0004 81.7536L21.5234 81.582C21.1072 82.4356 21.4719 82.9977 22.4242 83.0062C24.4748 82.736 39.4165 83.714 39.9055 82.9891H39.9012ZM15.539 86.8886C15.7664 87.116 16.2983 87.1245 16.62 87.1545C18.795 87.3347 24.093 87.4291 26.165 87.1545C27.5549 86.9701 27.3876 85.5416 25.9334 85.503C25.1269 85.4815 24.3204 85.503 23.4753 85.4815C22.4285 85.4472 15.5433 85.37 15.3073 85.7175C15.2473 86.0435 15.3245 86.6655 15.5475 86.8929L15.539 86.8886Z" fill="white"/>
<path d="M139.11 33.532L139.535 38.594C140.393 47.7358 137.844 55.9038 136.107 64.5779C135.524 67.495 135.446 68.4303 138.621 68.9022C139.904 69.0909 139.998 68.4946 140.659 69.9746L142.006 70.884C137.107 78.5072 125.841 80.2017 117.63 77.8852C114.928 77.1216 111.269 75.5686 111.303 72.2911L111.522 72.0337C114.396 71.6733 114.761 69.9489 114.688 67.3706C114.679 67.1004 114.323 66.504 114.782 66.4525C114.825 66.4483 115.267 66.6585 115.601 66.6628C116.961 66.6928 118.6 66.74 119.938 66.6242C120.749 66.5513 124.473 66.0365 124.19 64.9297C124.052 64.6466 123.838 64.4064 123.499 64.3892C122.808 64.3506 120.651 65.127 119.561 65.2085C110.346 65.8906 103.65 60.8457 101.17 52.1115C100.321 49.1129 99.7888 45.7281 100.192 42.6394C104.16 44.9388 109.154 42.0774 110.278 37.9205C110.728 36.256 110.411 34.7846 110.647 33.1116C112.302 31.949 114.147 32.5367 115.679 33.5706C115.202 36.625 115.983 39.8596 118.411 41.9144C124.769 47.3025 133.889 41.4854 132.289 33.5277H139.123L139.11 33.532ZM115.271 47.8431C113.765 47.2768 112.195 48.0361 110.754 47.0795C109.484 46.2386 109.952 45.415 110.32 44.1838C110.741 42.781 112.491 39.6107 112.603 38.5855C112.736 37.3543 111.706 37.3628 111.114 38.3538C110.436 39.482 108.592 44.2224 108.48 45.4579C108.18 48.7654 112.478 49.3917 114.958 49.0271C115.4 48.8812 115.353 48.2249 115.267 47.8388L115.271 47.8431ZM109.964 53.6645C109.325 54.2522 110.441 54.8227 110.938 54.9685C112.989 55.582 116.76 55.2989 118.862 54.7927C119.625 54.6082 122.971 53.5186 122.967 52.6821C122.924 52.3303 122.598 51.97 122.242 51.9614C121.942 51.9571 119.668 53.0595 118.977 53.2526C116.948 53.8145 114.816 53.9347 112.714 53.8146C111.933 53.7717 110.586 53.0896 109.964 53.6602V53.6645Z" fill="#FCF7ED"/>
<path d="M88.3772 115.295C88.1241 122.635 90.0031 129.842 89.9559 137.169C89.9473 138.705 89.5999 145.517 88.7805 146.44C87.5321 147.842 83.8257 148.16 82.0668 148.001C72.5089 147.139 63.0111 134.621 58.5625 126.89C63.9549 126.161 69.609 123.574 71.3035 117.98C74.3793 119.563 77.3436 121.408 80.1621 123.407C81.1101 124.081 86.4339 128.503 87.0216 128.336C88.2785 127.98 85.8977 125.921 85.4815 125.539C82.6888 122.961 79.3427 120.91 76.1424 118.894L77.1334 116.372L88.3772 115.295Z" fill="#031C51"/>
<path d="M102.249 109.299C102.262 109.612 101.524 109.651 101.292 109.685C96.7749 110.342 92.0046 110.5 87.4444 110.955C73.2964 112.353 59.1612 113.915 45.0132 115.284L43.3916 114.833L14.2461 99.5697L66.72 96.2578C78.4914 100.792 90.2929 105.275 102.253 109.299H102.249ZM33.5033 105.159L37.227 107.128C48.4365 106.669 59.6802 105.49 70.8811 104.542C73.1891 104.344 76.1063 104.456 78.3198 104.113C80.5334 103.769 79.1564 102.607 77.9552 102.019C74.5276 100.342 70.2806 99.2651 66.7414 97.7036L25.4298 100.608C25.4598 100.852 25.3526 101.204 25.4641 101.397C25.6872 101.775 31.9805 104.241 32.8342 104.915L39.3033 104.542L37.1283 104.949L33.5076 105.159H33.5033ZM77.6077 109.707L66.7929 110.796C65.8491 110.659 64.8539 112.023 65.9135 112.195L81.6144 110.5L81.9577 110.02C81.8032 109.827 81.6187 109.664 81.4085 109.531C80.4733 108.93 73.1677 106.095 72.1209 105.979C67.4664 106.421 62.6746 106.27 58.0329 106.802C57.6168 106.85 57.1407 106.935 56.9262 107.347C57.0077 107.759 56.9948 108.008 57.4109 108.059C58.2303 108.162 59.646 108.081 60.5211 108.042C66.9388 107.776 71.1986 106.193 77.3117 109.269C77.5348 109.381 77.7021 109.162 77.6077 109.702V109.707Z" fill="white"/>
<path d="M138.901 32.2909L131.887 32.0549C129.476 24.6677 118.812 25.3241 116.328 32.2866C114.136 31.0468 112.321 30.8409 109.915 31.6646C108.851 27.1259 104.205 25.9289 100.181 27.5248C99.8119 23.2392 102.66 19.8288 105.56 17.0704C109.142 13.6642 113.278 10.7813 116.744 7.24219C120.498 17.5894 130.279 22.6129 138.592 28.7689L138.906 32.2909H138.901ZM103.445 24.0672C102.973 24.1187 101.292 24.4618 101.004 24.7321C100.387 26.6496 102.665 25.5344 103.6 25.4614C104.265 25.41 105.226 25.3971 105.882 25.4528C106.538 25.5086 108.653 26.2894 108.876 25.5558C109.357 23.9642 104.325 23.9685 103.45 24.0672H103.445ZM122.081 24.479C121.677 24.5219 119.949 24.8523 119.73 25.0239C119.335 25.3327 119.271 26.1092 119.777 26.2679C120.107 26.3708 123.586 25.6416 124.513 25.6502C126.349 25.663 128.425 26.654 129.901 26.714C130.999 26.7569 131.175 26.0748 130.279 25.4914C128.644 24.4275 124.015 24.2774 122.081 24.4833V24.479Z" fill="#FCF7ED"/>
<path d="M218.21 98.7382C218.519 99.9351 218.643 101.244 217.97 102.329C217.245 103.496 213.714 106.01 213.53 106.602C213.337 107.224 213.822 107.794 213.843 108.386C213.873 109.188 213.363 111.097 213.007 111.861C212.728 112.462 212.08 113.041 211.896 113.444C211.535 114.233 212.294 114.504 212.942 114.075C213.796 113.508 214.911 110.587 215.049 109.557C215.28 107.803 214.547 106.859 216.473 105.825C220.904 107.061 225.966 107.37 230.329 108.674C230.488 108.721 230.78 108.596 230.629 108.987C230.385 109.613 228.034 112.32 227.425 113.028C225.005 115.838 222.178 118.592 219.021 120.565C218.021 121.192 215.821 122.054 215.117 122.667C214.697 123.032 213.603 124.885 213.058 125.584C212.916 125.765 212.886 126.048 212.809 126.262L212.526 126.275C208.506 124.533 204.929 120.569 203.5 116.447C203.341 115.988 202.827 114.564 202.917 114.203C202.981 113.946 203.517 113.603 203.728 113.144C204.431 111.599 204.547 109.382 205.332 107.708C206.597 104.993 211.076 102.432 213.672 100.935C214.281 100.583 217.863 98.498 218.206 98.7425L218.21 98.7382Z" fill="#FCF7ED"/>
<path d="M123.32 27.9971C133.256 26.7016 133.899 42.5613 124.058 42.7672C114.869 42.9559 114.47 29.1511 123.32 27.9971ZM122.274 33.1622C120.532 33.6812 120.558 39.1293 123.634 38.4601C125.826 37.9839 125.675 32.1498 122.274 33.1622Z" fill="#FCF7ED"/>
<path d="M102.824 28.2084C110.099 27.3118 111.648 39.1819 105.462 41.61C96.9035 44.969 93.3944 29.3667 102.824 28.2084ZM103.643 32.9444C102.026 33.4035 101.931 37.9893 104.235 38.2896C107.581 38.7186 106.611 32.0993 103.643 32.9444Z" fill="#FCF7ED"/>
<path d="M103.494 110.954C103.129 111.98 103.108 112.413 101.924 112.589C82.7097 113.901 63.5896 116.493 44.4009 117.758C36.4089 114.142 28.7128 109.685 20.8795 105.665C18.5158 104.451 14.4876 103.018 12.5185 101.602C11.9308 101.182 11.6948 100.719 11.7635 99.9766L43.9719 116.733L48.3047 116.535L103.49 110.95L103.494 110.954Z" fill="white"/>
<path d="M53.3789 118.613L69.7362 116.957C69.2086 121.363 64.9359 123.602 61.105 124.778C58.3209 123.032 55.6054 121.032 53.3789 118.613Z" fill="#FCF7ED"/>
<path d="M235.334 23.2453C236.972 25.0384 233.768 27.6639 231.906 25.5361C230.044 23.4083 233.3 21.0188 235.334 23.2453Z" fill="white"/>
<path d="M75.1244 116.541L74.7083 117.991L72.6406 116.85L75.1244 116.541Z" fill="white"/>
<path d="M241.147 95.4781C241.619 96.1344 241.37 96.8809 240.499 96.8723L209.539 90.6434C209.462 90.253 209.406 89.6052 209.852 89.4551L241.143 95.4781H241.147Z" fill="black"/>
<path d="M217.101 53.8486C217.44 53.7371 217.92 53.81 218.289 53.8443L248.322 59.4212C249.133 59.5156 249.451 60.691 248.541 60.8584L217.543 55.2085C216.766 55.1913 216.397 54.0803 217.101 53.8486Z" fill="black"/>
<path d="M214.305 65.8512L215.352 65.6582C224.957 68.1034 235.368 68.9528 244.931 71.2994C245.892 71.5353 247.234 72.0073 245.849 72.8652L214.369 66.868L214.301 65.8555L214.305 65.8512Z" fill="black"/>
<path d="M212.133 77.4437L243.106 83.2694C243.952 83.3338 244.303 84.4835 243.368 84.6637L212.142 78.8251C211.606 78.6492 211.636 77.6068 212.133 77.4395V77.4437Z" fill="black"/>
<path d="M199.103 84.4867C199.476 84.3752 206.314 85.7866 206.52 86.104C206.752 86.4601 206.606 87.1851 206.559 87.6098C206.422 88.871 205.872 91.7795 205.482 92.9507C205.379 93.2638 205.285 93.7186 204.963 93.8774C204.311 94.2034 201.458 93.4955 200.57 93.2939C199.176 92.9807 197.19 93.088 197.314 91.4235C197.37 90.7114 198.511 85.023 198.73 84.7528C198.828 84.6283 198.944 84.5339 199.099 84.4867H199.103ZM205.165 86.9448L199.789 85.9024L198.773 91.4707L204.109 92.5045L205.165 86.9448Z" fill="black"/>
<path d="M201.363 72.891C202.075 72.6465 203.949 73.1828 204.79 73.3415C205.524 73.4788 208.771 74.0622 209.003 74.5169C209.144 74.74 209.097 74.9674 209.089 75.2119C209.046 76.353 208.316 79.3216 207.999 80.5614C207.682 81.8012 207.857 82.2859 206.33 82.1572C205.099 82.0543 202.182 81.4494 200.981 81.0848C199.098 80.5142 199.835 79.4417 200.088 77.8287C200.273 76.6275 200.59 74.6241 200.959 73.5216C201.041 73.2728 201.067 72.994 201.363 72.891ZM207.652 75.3491L202.058 74.311L201.019 79.6905L206.609 80.7244L207.652 75.3491Z" fill="black"/>
<path d="M213.814 50.7602C214.037 51.082 214.08 51.438 214.054 51.8198C213.99 52.9009 213.213 56.633 212.862 57.6841C212.694 58.1817 212.694 58.4563 212.098 58.5764C211.36 58.7222 205.11 57.5339 204.848 57.1435C204.634 56.6502 204.758 56.1397 204.809 55.6378C204.942 54.428 205.586 51.0777 205.998 49.9966C206.092 49.7521 206.148 49.4947 206.405 49.3617C207.014 49.0443 212.69 50.5672 213.81 50.7645L213.814 50.7602ZM212.621 51.7511L207.238 50.713L206.208 56.2941L211.583 57.3366L212.621 51.7469V51.7511Z" fill="black"/>
<path d="M204.069 61.0879C205.266 61.3796 211.057 62.0488 211.482 62.924C211.782 63.5417 211.25 65.292 211.105 66.0685C210.967 66.8021 210.384 70.0452 209.929 70.2769C209.569 70.4571 209.191 70.3884 208.814 70.3541C207.587 70.2511 204.657 69.6463 203.464 69.2816C202.499 68.9856 202.194 68.9513 202.285 67.8188C202.336 67.1367 203.49 61.6156 203.7 61.3582C203.799 61.2381 203.915 61.1308 204.069 61.0922V61.0879ZM210.135 63.546L204.751 62.5079L203.799 67.9046L209.08 68.9042L210.135 63.5418V63.546Z" fill="black"/>
<path d="M213.79 69.7912C214.095 69.6883 214.451 69.7569 214.768 69.7827C221.666 70.3618 229.47 73.2017 236.479 73.961C238.449 74.5573 238.007 75.5097 235.943 75.3253C229.019 74.6989 221.259 71.9491 214.232 71.1555C213.456 71.1383 213.091 70.0272 213.79 69.7955V69.7912Z" fill="black"/>
<path d="M211.428 82.7489L211.406 81.582L233.165 85.5459C234.031 85.6102 234.344 86.79 233.422 86.9444L211.423 82.7489H211.428Z" fill="black"/>
<path d="M243.267 40.5714L242.761 41.9613L238.917 41.1891L238.548 42.9608C238.612 43.304 241.478 43.6344 242.023 43.6773L241.68 45.1401L238.299 44.5009L237.909 46.4528L241.804 47.4138L241.607 48.8509L236.111 47.6197L237.471 39.5332L243.267 40.5714Z" fill="black"/>
<path d="M208.823 93.3847C209.307 93.226 211.358 93.7193 212.04 93.8351C217.651 94.7918 223.207 96.186 228.822 97.1383L229.766 98.0178C229.465 98.5926 228.869 98.614 228.286 98.5111C222.349 96.8852 215.378 96.5506 209.548 94.8818C208.685 94.633 207.849 93.7107 208.827 93.3847H208.823Z" fill="black"/>
<path d="M231.05 38.2934C231.174 39.9793 228.721 44.9256 231.196 45.4919C234.22 46.1825 233.474 40.6571 234.362 38.9111L235.795 39.4602C235.031 42.6605 235.511 48.5634 230.467 46.8431C226.764 45.5819 229.278 40.8202 229.394 38.0918L231.046 38.2977L231.05 38.2934Z" fill="black"/>
<path d="M222.125 42.6604C222.159 44.089 223.931 44.6338 225.119 44.1062C226.071 42.4889 223.708 42.1542 222.781 41.485C219.86 39.3744 222.378 35.9596 225.934 37.504C226.668 37.8214 228.259 39.5589 227.187 39.9149C225.655 40.4211 225.368 37.7271 223.596 38.6022C221.824 39.4773 225.201 40.7729 225.655 41.099C228.813 43.3769 225.887 47.1648 222.138 45.2386C220.683 44.4922 219.705 42.2872 222.129 42.6604H222.125Z" fill="black"/>
<path d="M220.076 38.7053C218.239 39.07 218.84 38.2635 218.115 37.6629C216.918 36.6763 215.052 37.7187 216.03 38.7139C216.957 39.6577 219.831 40.0181 219.617 42.2788C219.308 45.6035 213.315 45.0587 213.225 41.734C213.276 41.4723 214.499 41.275 214.666 41.4252C214.846 41.5839 214.928 42.5619 215.884 42.9952C216.391 43.2269 217.905 43.2441 218.021 42.7164C218.424 40.8632 213.34 40.7559 214.37 37.4484C215.151 34.9431 220.487 35.7711 220.076 38.701V38.7053Z" fill="black"/>
<path d="M261.634 35.8243C261.561 35.7791 261.417 35.1428 261.173 34.8719C260.419 34.0504 258.424 34.1407 258.542 35.3052C258.659 36.4697 262.69 36.7315 262.694 39.4532C262.703 43.0777 255.608 42.5993 255.96 38.9297L257.246 38.7852C257.675 39.4397 257.829 40.1845 258.709 40.3876C259.314 40.5275 260.735 40.6043 260.92 39.846C261.345 38.1173 256.529 38.1352 257.039 34.8944C257.549 31.6536 263.326 32.9265 263.141 35.3143C263.092 35.9507 261.986 36.0454 261.638 35.8243H261.634Z" fill="black"/>
<path d="M236.592 61.5278C236.884 61.8023 236.798 62.3643 236.613 62.6946C236.189 62.7804 235.747 62.7375 235.322 62.6946C229.462 62.1455 223.087 60.0307 217.176 59.31C216.687 59.1641 216.271 59.1341 216.339 58.4777C216.408 57.757 217.339 57.9372 217.88 57.9843L236.596 61.5278H236.592Z" fill="black"/>
<path d="M211.582 43.4612L209.922 43.1394L211.513 34.9629C211.835 34.9715 212.921 35.1388 212.981 35.4862L211.582 43.4655V43.4612Z" fill="black"/>
<path d="M53.9492 75.6066C54.1637 75.791 54.2538 76.3101 54.1165 76.589C53.7175 77.3955 52.4821 76.8034 51.8343 76.7906C42.9671 76.5932 34.1685 76.293 25.3271 75.9626C24.2589 75.924 19.6215 76.4516 19.6172 75.0403C19.6172 73.8648 21.3932 74.5169 21.9981 74.5298C30.3762 74.71 38.7072 75.0531 47.0553 75.3577C48.2351 75.4006 53.3743 75.1175 53.9449 75.6066H53.9492Z" fill="black"/>
<path d="M48.5659 78.9207C48.7804 79.1052 48.8704 79.6242 48.7332 79.9031C48.3256 80.731 46.9357 80.1219 46.2451 80.1047C42.5901 80.0189 38.9008 79.9803 35.2716 79.8988C31.2648 79.8087 26.5545 80.0575 22.6335 79.6972C21.8527 79.6243 20.7417 79.5685 20.6816 78.5861C21.3337 77.6552 22.2045 78.2515 23.0368 78.2643C28.4249 78.3501 33.8258 78.5517 39.1882 78.6761C40.5995 78.7105 47.9825 78.4316 48.5659 78.925V78.9207Z" fill="black"/>
<path d="M23.6582 65.0918C25.2412 65.3235 26.8456 65.1561 28.4372 65.1947C31.0197 65.2548 33.7052 65.5337 36.2877 65.6237C38.4026 65.6967 41.7959 65.2977 43.7049 65.8683C44.7559 66.1815 44.1596 67.4856 43.1386 67.284C36.9741 66.6362 30.1574 67.3612 24.0701 66.6534C22.56 66.4775 22.6029 65.1776 23.654 65.0918H23.6582Z" fill="black"/>
<path d="M39.9 82.9891C39.4109 83.7141 24.465 82.736 22.4187 83.0063C21.4663 82.9977 21.1017 82.4357 21.5178 81.582L38.9948 81.7537L39.7284 82.054L39.8957 82.9891H39.9Z" fill="black"/>
<path d="M14.3777 61.3047L31.0825 61.9268C31.6574 62.24 31.6917 62.819 31.2241 63.2394L14.6608 62.6131C14.1675 62.2656 13.6741 61.6479 14.3777 61.3047Z" fill="black"/>
<path d="M8.68203 58.7602V57.7864C8.89652 57.6877 9.15822 57.5719 9.38987 57.5633C10.7669 57.5247 12.7103 57.9065 14.1302 57.9708C15.3657 58.0266 21.1656 57.9795 21.7791 58.3956C21.9764 58.5286 22.118 58.6229 22.118 58.8932C22.118 60.2402 17.9653 59.438 17.043 59.4037C15.9019 59.3608 9.03379 59.335 8.67773 58.7645L8.68203 58.7602Z" fill="black"/>
<path d="M15.5372 86.8896C15.3141 86.6622 15.2369 86.0402 15.297 85.7141C15.5329 85.371 22.4182 85.4439 23.4649 85.4782C24.3143 85.5039 25.1165 85.4782 25.923 85.4996C27.3816 85.5383 27.5489 86.9667 26.1547 87.1512C24.0827 87.4257 18.7847 87.3314 16.6097 87.1512C16.2922 87.1255 15.756 87.1169 15.5286 86.8853L15.5372 86.8896Z" fill="black"/>
<path d="M29.9295 68.9778C30.2255 69.2652 30.1312 69.81 29.951 70.1446L19.5351 69.9516L18.793 69.6598L18.5742 69.0378L18.9303 68.5488L19.3035 68.5059C22.4008 68.686 26 68.39 29.0501 68.7246C29.3247 68.7547 29.7322 68.7933 29.9295 68.9821V68.9778Z" fill="black"/>
<path d="M17.0391 66.448C16.2026 66.2721 15.7607 64.998 17.245 64.998H20.5568C21.1574 64.998 21.1574 66.448 20.5568 66.448C19.6259 66.448 17.8156 66.611 17.0348 66.448H17.0391Z" fill="black"/>
<path d="M115.27 47.8409C115.351 48.2269 115.403 48.879 114.961 49.0292C112.481 49.3938 108.187 48.7675 108.483 45.4599C108.595 44.2245 110.439 39.4841 111.117 38.3559C111.709 37.3649 112.739 37.3521 112.606 38.5875C112.494 39.6171 110.744 42.7831 110.324 44.1859C109.955 45.4171 109.487 46.2364 110.757 47.0815C112.198 48.0382 113.768 47.2789 115.274 47.8451L115.27 47.8409Z" fill="black"/>
<path d="M109.962 53.6657C110.58 53.0951 111.931 53.7729 112.712 53.8201C114.81 53.9359 116.946 53.82 118.975 53.2581C119.666 53.065 121.939 51.9625 122.24 51.9668C122.596 51.9711 122.926 52.3358 122.965 52.6876C122.965 53.5284 119.623 54.6137 118.859 54.7982C116.757 55.3044 112.986 55.5875 110.936 54.974C110.438 54.8239 109.323 54.2577 109.962 53.67V53.6657Z" fill="black"/>
<path d="M33.5048 105.159L37.1255 104.949L39.3004 104.541L32.8313 104.914C31.9819 104.241 25.6843 101.774 25.4612 101.397C25.3454 101.199 25.4527 100.852 25.4269 100.607L66.7386 97.7031C70.2777 99.2646 74.5247 100.341 77.9523 102.019C79.1578 102.606 80.5263 103.769 78.317 104.112C76.1077 104.455 73.1863 104.344 70.8783 104.541C59.6774 105.489 48.4379 106.669 37.2241 107.128L33.5005 105.159H33.5048ZM75.5371 102.465C72.753 102.456 69.9517 102.439 67.1761 102.697C66.9488 102.718 66.035 102.791 66.0135 103.083L72.118 102.877L75.5371 102.465ZM63.9415 102.671L48.4121 103.911L63.6327 103.087L63.9373 102.675L63.9415 102.671ZM46.9622 104.121L46.8635 103.713C45.0446 104.086 43.0284 103.915 41.1623 104.228C41.158 104.7 46.3273 103.996 46.9622 104.125V104.121Z" fill="black"/>
<path d="M77.6073 109.708C77.706 109.167 77.5344 109.386 77.3113 109.275C71.1982 106.203 66.9384 107.786 60.5207 108.048C59.6413 108.082 58.2299 108.164 57.4105 108.065C56.9944 108.013 57.0073 107.765 56.9258 107.353C57.1403 106.937 57.6164 106.855 58.0326 106.808C62.6742 106.276 67.4617 106.426 72.1205 105.984C73.1673 106.1 80.4729 108.932 81.4081 109.536C81.6183 109.669 81.7985 109.832 81.9573 110.025L81.6141 110.506L65.9131 112.2C64.8535 112.025 65.8487 110.66 66.7925 110.802L77.6073 109.712V109.708Z" fill="black"/>
<path d="M122.081 24.4814C124.012 24.2755 128.645 24.4256 130.279 25.4894C131.176 26.0729 131 26.7593 129.902 26.7121C128.426 26.652 126.35 25.6611 124.513 25.6482C123.591 25.6396 120.112 26.3689 119.777 26.2659C119.271 26.1115 119.336 25.3308 119.73 25.0219C119.949 24.8503 121.682 24.52 122.081 24.4771V24.4814Z" fill="black"/>
<path d="M103.447 24.0671C104.322 23.9684 109.359 23.9641 108.874 25.5557C108.651 26.2893 106.514 25.5042 105.879 25.4527C105.245 25.4013 104.258 25.4141 103.597 25.4613C102.666 25.53 100.388 26.6495 101.002 24.732C101.289 24.466 102.971 24.1229 103.443 24.0671H103.447Z" fill="black"/>
<path d="M122.274 33.1627C125.676 32.1503 125.826 37.9845 123.634 38.4606C120.558 39.1299 120.532 33.6818 122.274 33.1627Z" fill="black"/>
<path d="M103.643 32.9418C106.616 32.0967 107.581 38.716 104.235 38.287C101.932 37.991 102.026 33.4051 103.643 32.9418Z" fill="black"/>
<path d="M205.165 86.9448L204.11 92.5044L198.773 91.4706L199.79 85.9023L205.165 86.9448ZM199.996 88.8109C199.953 89.5273 200.519 91.1575 201.322 91.0889C201.755 91.0502 204.556 88.8581 204.552 88.4977C204.539 86.6359 202.055 89.3128 201.712 89.4029C201.026 89.583 201.009 88.2446 199.996 88.8152V88.8109Z" fill="white"/>
<path d="M207.652 75.3487L206.609 80.7239L201.02 79.6901L202.058 74.3105L207.652 75.3487ZM206.802 76.1939C206.21 75.7606 204.464 77.3864 204.018 77.8282C203.542 77.9355 203.31 76.3225 202.457 77.3135C202.182 77.6309 202.976 79.4541 203.98 79.2525C204.177 79.2139 206.704 77.3049 206.845 77.1161C207.034 76.8673 206.974 76.3183 206.802 76.1939Z" fill="white"/>
<path d="M212.62 51.7506L211.582 57.3404L206.207 56.2979L207.237 50.7168L212.62 51.7549V51.7506ZM211.788 52.5786C211.312 52.2312 209.446 53.9557 208.965 54.2131L208.146 53.428C206.825 53.1106 207.627 55.9204 208.948 55.6502C209.545 55.53 212.702 53.2479 211.788 52.5786Z" fill="white"/>
<path d="M210.137 63.5475L209.082 68.9099L203.801 67.9104L204.753 62.5137L210.137 63.5518V63.5475ZM209.292 64.3927C208.708 63.9723 207.065 65.7526 206.486 66.01L206.207 66.0314C206.143 65.5552 205.821 65.1305 205.276 65.2077C204.534 65.4265 205.259 68.0091 206.817 67.3741C207.001 67.3012 209.219 65.4866 209.33 65.315C209.571 64.9375 209.429 64.8002 209.292 64.397V64.3927Z" fill="white"/>
<path d="M63.9396 102.672L63.635 103.088L48.4102 103.912L63.9396 102.672Z" fill="white"/>
<path d="M75.5353 102.466L72.1162 102.878L66.0117 103.084C66.0332 102.792 66.9469 102.719 67.1743 102.698C69.9499 102.445 72.7512 102.458 75.5353 102.466Z" fill="white"/>
<path d="M46.9601 104.121C46.3252 103.996 41.1559 104.696 41.1602 104.224C43.0263 103.915 45.0425 104.082 46.8614 103.709L46.9601 104.117V104.121Z" fill="white"/>
<path d="M199.994 88.8105C201.007 88.2442 201.024 89.5826 201.71 89.3981C202.054 89.308 204.537 86.6312 204.55 88.493C204.55 88.8577 201.749 91.0498 201.32 91.0841C200.518 91.1528 199.952 89.5226 199.994 88.8062V88.8105Z" fill="black"/>
<path d="M206.803 76.1938C206.97 76.3182 207.035 76.8673 206.846 77.1161C206.704 77.3049 204.177 79.2138 203.98 79.2525C202.976 79.4541 202.183 77.6309 202.457 77.3134C203.311 76.3225 203.543 77.9354 204.019 77.8282C204.465 77.3863 206.211 75.7605 206.803 76.1938Z" fill="black"/>
<path d="M211.789 52.5793C212.707 53.2485 209.545 55.5307 208.949 55.6508C207.628 55.921 206.821 53.1112 208.147 53.4286L208.966 54.2137C209.442 53.9563 211.309 52.2318 211.789 52.5793Z" fill="black"/>
<path d="M209.291 64.3932C209.428 64.7965 209.569 64.9337 209.329 65.3112C209.222 65.4828 207 67.2974 206.815 67.3704C205.258 68.0096 204.533 65.4227 205.275 65.204C205.82 65.1267 206.142 65.5514 206.206 66.0276L206.485 66.0062C207.064 65.7531 208.707 63.9728 209.291 64.3889V64.3932Z" fill="black"/>
</svg>
