<svg width="219" height="266" viewBox="0 0 219 266" fill="none" xmlns="http://www.w3.org/2000/svg">
<path d="M113.261 204.917C112.614 198.943 111.035 193.08 110.033 187.164C109.773 186.888 109.608 186.504 109.608 186.022V184.69C109.608 184.562 109.625 184.447 109.645 184.335H109.641L109.315 182.971C109.262 182.814 109.204 182.662 109.155 182.517C108.652 181.058 108.037 179.644 107.514 178.197C106.899 176.494 106.281 174.474 106.71 172.701C106.38 171.983 106.174 171.151 105.997 170.52C105.634 169.209 105.395 167.869 105.061 166.55C104.207 163.189 103.506 159.784 102.513 156.461C101.544 153.216 100.307 149.811 98.6578 146.846C97.9322 145.544 96.9963 143.536 95.7512 142.332C95.4502 142.311 95.1905 142.225 94.9802 142.093C94.9802 142.097 94.9803 142.101 94.9885 142.109L88.1817 136.993C85.4688 135.426 82.7808 133.744 79.903 132.482C78.1013 131.691 74.3289 130.809 73.0509 129.972C72.5025 129.613 72.7623 129.118 72.519 128.632H81.6799C83.3744 128.632 86.6727 127.094 88.0456 126.01C95.5863 120.036 89.703 108.038 89.4227 100.102C90.2637 98.972 91.3316 98.5597 92.0654 97.1827C93.9207 93.7195 93.5084 88.8175 90.8451 85.9191C90.2967 85.3213 88.7671 84.3854 88.5898 84.0267C88.2229 83.2846 88.1569 81.0789 87.823 79.9533C86.6768 76.0449 84.8174 72.7713 81.8985 69.9472C82.8096 65.2265 84.2815 58.7784 80.1298 55.1421C79.0785 54.2227 75.9327 53.3074 76.0646 51.6912C76.0853 51.4562 78.2704 49.1021 78.5837 47.7457C79.0373 45.8162 77.9653 40.2545 78.827 39.5124C79.1939 39.199 80.7729 39.3351 79.9566 38.024C79.1486 36.7253 73.793 36.4862 72.3376 36.6552C69.9917 36.9232 67.5881 38.9063 67.3449 41.3635C67.2418 42.3984 67.7159 43.2848 67.6788 43.7136C67.6623 43.9238 66.2606 44.1836 66.2688 45.8203C66.2812 48.5084 69.5506 48.6774 68.994 51.2707C68.322 54.4 63.8239 53.4517 62.8303 56.3624C63.4652 56.8943 67.2706 54.6556 68.19 54.6556C68.8167 54.6556 70.8946 55.9625 72.6715 56.0326C74.9391 56.1192 76.3574 54.635 77.8911 55.2987C82.6818 57.3643 81.4491 65.0987 81.1481 69.1597C80.5833 68.2486 76.1842 66.249 76.0234 65.9934C75.339 64.9008 76.9676 61.4294 75.7884 60.8646C75.0958 60.5306 75.2648 61.5902 75.1741 61.9695C74.9391 62.9713 74.7082 63.9897 74.5804 65.0122C67.2294 60.6337 59.6228 60.275 51.6781 63.3671C41.7832 67.2138 38.9838 74.2102 36.0442 83.6886C33.6695 91.3447 27.8027 111.209 28.6479 118.399C29.1797 122.909 32.8325 127.23 37.5985 126.904C37.3965 125.564 36.7863 124.233 36.6008 122.893C36.539 122.46 36.2586 120.765 36.9059 120.683C36.6338 123.87 39.1446 126.389 41.7502 127.77L45.8937 128.978C35.2073 131.6 24.6982 137.578 19.3014 147.477C17.4956 147.7 11.5216 146.348 10.2888 147.135C9.95077 147.354 9.88477 147.613 9.94661 148.001C10.3259 148.43 16.8936 148.533 18.0769 148.693C18.5345 148.755 18.6953 148.512 18.5923 149.213C18.3531 150.833 15.8629 155.463 15.1249 157.508C14.5395 159.124 14.086 160.844 13.7438 162.526C11.9256 161.437 9.97551 159.784 7.87286 159.417C7.09364 160.126 12.3832 163.614 13.4016 163.222C9.90951 176.923 4.87139 192.255 6.18658 206.57C7.04001 215.855 12.9687 224.294 23.0779 223.733C22.6821 225.531 22.5131 227.918 22.7646 229.753C23.1274 232.42 25.7536 233.133 25.1723 236.019L21.0948 264.789C22.2162 267.266 22.6904 264.628 22.9748 263.218C24.525 255.603 24.995 247.357 26.2071 239.656C28.1696 240.254 30.9773 238.786 32.5563 238.947C33.2201 239.017 38.72 241.866 40.1836 242.41C46.6771 244.809 55.0753 246.545 61.9687 247.242C75.4462 248.602 88.6476 245.927 97.9116 235.496C99.771 237.376 100.633 240.118 101.094 242.678C102.364 249.749 101.68 257.837 102.236 265.048C102.674 266.487 103.482 266.079 103.634 264.723C104.211 259.569 102.913 253.364 102.929 248.12C112.432 235.966 114.885 220.035 113.249 204.933L113.261 204.917ZM89.4474 86.4468C91.5624 89.7987 92.387 95.3398 89.1134 98.201L88.763 86.62L89.4474 86.4509V86.4468ZM75.6235 54.2845C73.694 54.9029 71.2574 54.87 69.765 53.3775C70.2886 51.9098 70.6225 51.3532 70.3545 49.704C69.9257 47.0489 68.0993 48.059 67.6582 45.8368C67.9015 44.567 68.9981 44.5216 70.0948 44.6082L70.8287 40.8482C73.0303 40.8441 75.339 41.8459 77.3551 40.4606C77.1036 42.6251 77.6973 45.4864 77.3551 47.5478C77.2232 48.3476 75.5699 51.1429 74.9474 51.7119C74.432 52.1819 72.7664 52.3056 73.7559 52.9281C74.3042 53.2744 75.7926 53.0971 75.6276 54.2886L75.6235 54.2845ZM87.7406 93.1712C87.8065 94.239 88.0333 98.5391 87.151 98.8318C77.7468 101.953 74.7289 85.6264 82.8014 84.4431C87.0273 83.8247 87.5427 90.0543 87.7406 93.1712ZM53.0056 90.9572C58.1633 87.1642 63.7456 83.4578 67.6705 78.3083C69.5093 75.9006 72.3623 71.8437 71.48 68.8093C71.7728 68.5207 74.5433 70.7099 74.9391 71.048C77.7426 73.4351 81.2718 77.2817 83.2384 80.3821C83.4858 80.7738 84.8051 82.7816 84.6113 82.9836C82.2118 82.2539 79.0867 83.8989 77.7592 85.9768C76.2832 88.2856 77.6313 90.1079 74.0197 90.2275C72.6674 90.2728 72.5232 88.5701 71.8264 87.6507C67.1964 81.5612 56.2668 85.4367 56.609 93.3443C55.2154 93.2454 53.6529 94.2761 52.449 93.1258L53.0097 90.9531L53.0056 90.9572ZM70.0865 98.7081C68.124 101.095 65.4937 101.837 62.5953 100.687C56.3616 98.2134 57.1243 87.4157 63.791 86.5334C70.9235 85.5893 74.4815 93.3649 70.0865 98.7081ZM53.0798 127.341C54.5022 122.171 52.3954 114.21 52.1068 108.764C52.0243 107.189 51.8965 96.2922 52.2717 95.7603L56.5883 95.113C58.7281 107.638 75.339 103.482 73.9043 91.6375L76.1224 91.3283C76.9346 91.5179 76.5635 93.1299 76.749 93.7978C77.1737 95.3398 78.0766 96.8364 78.9383 98.1804C79.7299 99.4132 80.5916 99.0627 80.4844 101.128C80.3277 104.138 77.553 104.971 74.9432 104.773C74.7907 105.531 75.5081 105.754 76.0317 105.923C79.6928 107.102 82.2242 103.672 81.8573 100.275C83.7579 100.794 85.8111 100.798 87.7282 100.275C87.3736 112.14 81.2182 125.14 67.2665 122.645C64.566 122.163 62.2861 120.811 59.9567 120.267C59.5321 120.168 59.5733 119.763 59.0456 120.506C58.8889 121.305 63.0447 124.525 63.8405 125.041C65.0732 125.836 70.5895 128.108 70.8328 128.421C71.3687 129.114 71.3193 133.781 70.8204 134.61C70.705 134.804 68.6436 136.115 68.2725 136.296C61.4492 139.631 51.5997 136.795 48.3303 129.84C48.3303 129.555 52.3624 130.001 53.0963 127.337L53.0798 127.341ZM99.132 233.917C99.7298 232.767 100.369 231.616 100.777 230.375C103.259 222.83 98.8681 208.017 97.7921 199.639C96.2048 187.279 96.3697 170.582 93.1497 158.984C93.0508 158.63 93.0631 157.937 92.5684 158.019C92.5107 161.066 92.6632 164.142 92.9106 167.18C93.8012 178.028 94.9927 189.897 96.4109 200.678C97.8663 211.744 104.191 226.496 95.6853 235.657C81.1894 251.27 49.9341 246.677 33.1046 237.384C28.5571 234.873 22.7563 231.649 24.1993 225.519C28.4994 222.839 34.9682 220.922 38.1015 216.782C38.8436 215.805 42.9129 208.747 43.0531 207.906C43.2592 206.677 43.0325 205.44 43.1644 204.212C43.3046 202.892 44.2239 202.167 43.6756 200.538C43.5189 200.068 42.8964 199.619 42.8428 199.285C42.7933 198.98 44.9166 195.764 43.4818 194.333H48.4952C49.7527 194.333 50.5525 192.841 50.7092 191.707C50.9607 189.897 51.0555 182.818 49.5548 181.862C47.4851 180.542 42.4347 184.764 42.7686 178.588C43.049 173.402 47.415 177.817 49.361 176.873C49.6826 176.63 49.9795 176.284 50.1361 175.912C50.5938 174.828 50.569 167.988 50.3999 166.496C50.3051 165.688 50.1608 164.83 49.5383 164.249H40.031C42.1089 158.807 40.0228 156.329 34.3291 156.989C30.3794 157.446 30.5031 160.897 31.7359 163.903L22.2286 164.249C21.7132 164.286 21.4782 164.587 21.2762 165.024C20.8268 165.989 20.8309 174.972 21.338 175.776C23.2758 177.557 25.3248 174.812 27.143 175.566C29.5425 176.568 29.592 180.613 27.6996 182.187C25.6382 182.187 21.7874 180.386 21.0948 183.515C20.7732 184.966 20.8722 191.765 21.4576 193.031C21.6555 193.463 21.8039 193.769 22.2987 193.917L25.1682 194.325C22.1832 194.898 18.7365 194.214 16.1886 196.23C16.6957 197.03 16.9349 196.547 17.4956 196.51C19.4745 196.382 21.4164 195.789 23.4407 196.061C19.4993 202.027 18.4314 208.945 23.1026 214.894C25.2547 217.636 27.6089 218.98 31.1875 218.501C32.3213 218.349 33.3355 217.479 34.4982 217.665C28.5159 223.717 17.0997 223.841 11.6947 216.968C3.34594 206.351 9.93427 181.882 13.1666 169.703C17.042 155.092 20.3692 142.612 34.4899 135.022C36.2133 134.095 45.6422 129.625 46.8914 130.413C48.5365 135.352 55.3268 139.005 60.2371 139.364C64.9165 139.706 73.5951 138.052 72.5231 131.744C80.2411 133.917 89.6041 138.617 94.8195 144.88C101.808 153.266 105.7 174.288 108.017 185.275C111.678 202.645 114.997 219.693 107.839 236.753C107.522 237.508 103.552 245.609 102.941 245.16C102.517 241.016 101.482 237.388 99.1361 233.921L99.132 233.917ZM25.7165 173.95C24.6074 174.07 23.7953 174.828 22.7398 174.964V165.63H32.2471C32.3296 165.63 33.2118 165.078 33.3025 164.933C33.9457 163.903 31.7358 162.023 32.6841 159.838C33.4839 157.991 36.8935 158.019 38.3942 158.79C41.0947 160.184 36.8647 165.626 38.8189 165.626H49.0147L48.6684 175.306C47.4563 175.574 46.4256 174.461 45.3413 174.383C39.6394 173.958 39.7094 184.006 44.9866 183.828C46.1905 183.787 47.2172 182.859 48.4375 182.884C48.656 182.946 49.0147 183.709 49.0147 183.775V192.074L48.4952 192.594H40.7195C41.3792 190.899 41.9687 190.615 41.2967 188.726C39.9321 184.884 34.8197 187.646 32.4161 188.957C29.2621 190.676 26.6483 194.222 22.7439 192.074V183.255C26.0958 183.367 29.155 184.987 30.4248 180.74C31.3937 177.492 29.4477 173.542 25.7206 173.946L25.7165 173.95ZM33.1046 190.342C34.4858 189.596 38.3242 187.625 39.594 188.879C42.2532 191.501 34.156 194.127 32.9397 195.018C32.2512 195.521 27.5718 200.311 27.5883 200.724C27.9634 201.136 28.0212 201.388 28.6231 201.074C29.4848 200.621 31.2246 198.877 32.313 198.196C33.5293 197.438 38.9673 194.189 39.9362 194.041C41.7543 193.76 42.6532 195.842 41.7791 197.294C41.3338 198.032 34.6466 201.969 33.15 203.181C32.3584 203.824 30.5856 204.855 30.6928 205.91C30.9195 206.372 31.6452 205.964 31.9791 205.811C33.7396 205.012 39.6723 199.549 41.2019 199.887C42.076 200.081 42.2903 202.163 41.9234 202.962C41.173 204.595 33.8509 209.431 33.8138 210.404C33.8055 210.569 34.5353 211.221 34.8486 210.755L41.239 205.741C42.7356 207.592 39.4951 211.278 38.1222 212.647C33.9333 216.836 28.3056 219.178 24.1251 213.513C17.5203 204.558 24.9991 194.721 33.1046 190.342Z" fill="black"/>
<path d="M36.5688 77.8018C37.4346 78.4903 34.3383 79.15 33.9796 79.1871C25.1526 80.0652 14.9445 78.515 5.96495 79.1994C2.60896 79.1129 1.28137 76.1568 1.29786 73.1512C2.3698 51.5063 -0.0750436 28.5709 1.29786 7.07443C1.48751 4.08537 2.08944 1.00149 5.61859 0.675781L97.7683 0.848934C99.2113 1.49622 100.329 2.64649 100.531 4.31212L100.522 75.2044C100.539 76.9566 98.8072 78.7665 97.1581 79.1005C95.9748 79.3437 90.8295 79.3809 89.6422 79.1706C89.1639 79.084 88.8753 78.8655 88.5908 78.4862L88.9413 77.7935H96.5438C97.7806 77.7935 99.1453 75.7486 99.1453 74.5159L98.9845 4.1266L97.0839 2.22596H5.10324L3.30981 3.88747L3.20261 75.7363C4.08903 77.7853 6.49678 78.3708 8.42627 77.4555C8.21189 70.6981 7.11106 63.0709 11.5431 57.4185C13.9591 54.3428 17.6697 53.4811 18.7952 49.4408C19.3724 47.367 16.4287 46.5259 15.7567 44.5016C13.6417 38.1277 22.8933 33.3576 27.7624 36.9857C30.3887 38.9399 29.0529 40.9972 29.7166 42.9844C29.9475 43.677 31.1926 43.6152 31.3946 44.7819C31.7409 46.7856 30.1413 46.8475 29.5806 48.1421C29.1971 49.0244 29.3868 49.8201 28.7849 50.8013C27.6593 52.6319 24.2786 52.4834 24.1384 54.817C24.0931 55.5549 26.0638 59.3768 26.4555 60.7662C27.1605 63.2729 27.2924 65.8991 27.985 68.4017L32.0831 68.7934C33.6045 61.2362 37.9829 54.4541 45.2144 51.329C42.1594 47.7421 39.9042 45.3509 42.044 40.5437C43.5076 37.2495 45.8947 35.9549 49.5063 36.326C51.8852 36.5692 56.7789 37.5299 57.2531 40.354C57.451 41.5373 55.6988 47.3752 55.1587 48.8265C54.7588 49.9066 54.095 50.6653 53.6291 51.6754C53.6291 52.3061 55.2247 53.8027 55.7524 54.2769C56.7213 55.1468 58.5106 55.6127 58.3498 57.035C55.7895 56.8495 54.1115 54.3593 52.6479 52.5453C51.9429 55.3983 48.3107 55.6209 46.1627 54.281C45.4948 53.8646 45.9194 52.838 44.163 53.3863C41.8707 54.0996 38.8776 57.2659 37.6036 59.2779C36.6842 60.725 33.0438 67.9193 33.9549 69.1644C34.4538 69.8447 40.7329 68.6243 41.0009 68.3852C41.0751 68.3193 41.4379 66.9092 41.6564 66.4599C41.846 66.0682 42.3861 66.0558 42.4439 65.792C42.8561 63.9161 41.442 58.812 43.7343 58.1523C49.7908 58.4286 55.942 57.3319 61.9779 57.7359C62.786 57.7895 65.1195 57.9833 65.7132 58.1482C66.9418 58.4904 67.1686 60.0859 66.9913 61.1867C59.5619 59.5129 52.0377 60.6631 45.7999 65.054C44.2497 66.1424 41.2812 69.5479 40.3618 69.989C39.6898 70.3106 38.6962 70.2405 37.9623 70.5291L39.3435 70.8713C39.4589 72.0587 38.6508 73.9346 37.5253 74.4128C36.3997 74.8911 35.4309 74.5076 34.3961 74.7426C33.4396 74.957 32.7015 75.8311 31.1761 76.0166C22.2708 77.1133 17.6738 73.4604 16.5277 64.6458L17.5707 64.8767C18.9106 72.1164 23.5448 75.9053 31.0607 74.5159C32.8789 74.1778 35.4185 73.4151 34.3301 71.2094C33.522 69.5685 27.0203 70.9496 26.2864 68.1956C25.2598 64.3448 26.0143 59.385 22.7697 56.1898C20.6629 56.2352 18.4777 55.9054 16.7049 54.7262C8.61591 59.6489 9.17662 69.4901 9.95996 77.7812H36.5771L36.5688 77.8018ZM28.6694 44.2089C28.4344 43.8337 28.6529 40.6261 28.2695 39.7645L23.4334 41.1497C23.9488 41.9331 24.0848 44.3037 22.9304 44.4645C22.2831 44.5552 21.2483 43.6564 21.0009 45.1283C20.7288 46.7609 22.1224 46.563 22.3615 47.2392C22.8686 48.6863 21.4627 48.5461 20.7082 49.3047C20.2918 49.7252 18.8653 52.3845 18.5767 53.0524C18.4571 53.3286 17.9748 53.5554 18.4118 53.9429L22.5099 54.6397C23.3015 50.7931 27.7377 51.8114 28.2695 48.4059C28.0881 48.2369 25.1815 48.8017 25.5072 47.367C26.6245 47.5072 27.4614 48.3688 28.5746 47.6597L28.6323 46.3486C32.8665 45.7632 28.8055 44.4233 28.6694 44.2048V44.2089ZM51.0029 53.1637C52.7097 50.3395 55.4844 47.6432 55.5957 44.0687C55.6576 42.1351 52.9447 41.4342 51.6501 40.1355C48.8961 42.7947 46.7522 44.5758 42.7696 43.0215C42.1182 43.9739 41.9491 44.852 42.7737 45.7384C43.6972 46.7321 44.8928 45.0169 45.973 47.8164C47.2387 51.094 45.1278 55.1097 50.9988 53.1637H51.0029Z" fill="black"/>
<path d="M86.8647 67.4292C86.5266 67.3467 86.2339 66.9716 86.6956 66.5675C87.7758 65.6234 93.6138 65.9697 95.0692 66.4851C95.3701 66.5923 95.6628 66.7036 95.6793 67.0787C95.032 66.7819 94.092 67.4292 93.7787 67.4292C92.1131 67.4292 88.1634 67.7466 86.8647 67.4292Z" fill="black"/>
<path d="M142.974 45.2104C142.594 45.128 142.269 44.7528 142.784 44.3488C143.988 43.4046 150.506 43.751 152.126 44.2663C152.464 44.3735 152.79 44.4848 152.811 44.86C152.085 44.5632 151.038 45.2104 150.688 45.2104C148.828 45.2104 144.421 45.5279 142.974 45.2104Z" fill="black"/>
<path d="M156.596 45.2104C155.021 45.128 153.66 44.7528 155.804 44.3488C160.834 43.4046 188.02 43.751 194.786 44.2663C196.192 44.3735 197.556 44.4848 197.635 44.86C194.617 44.5632 190.238 45.2104 188.783 45.2104C181.028 45.2104 162.648 45.5279 156.596 45.2104Z" fill="black"/>
<path d="M142.974 68.0327C142.594 67.9502 142.269 67.5751 142.784 67.171C143.988 66.2269 150.506 66.5732 152.126 67.0886C152.464 67.1958 152.79 67.3071 152.811 67.6823C152.085 67.3854 151.038 68.0327 150.688 68.0327C148.828 68.0327 144.421 68.3502 142.974 68.0327Z" fill="black"/>
<path d="M156.596 68.0327C155.021 67.9502 153.66 67.5751 155.804 67.171C160.834 66.2269 188.02 66.5732 194.786 67.0886C196.192 67.1958 197.556 67.3071 197.635 67.6823C194.617 67.3854 190.238 68.0327 188.783 68.0327C181.028 68.0327 162.648 68.3502 156.596 68.0327Z" fill="black"/>
<path d="M142.974 89.8335C142.594 89.751 142.269 89.3759 142.784 88.9718C143.988 88.0277 150.506 88.374 152.126 88.8894C152.464 88.9966 152.79 89.1079 152.811 89.483C152.085 89.1862 151.038 89.8335 150.688 89.8335C148.828 89.8335 144.421 90.1509 142.974 89.8335Z" fill="black"/>
<path d="M156.596 89.8335C155.021 89.751 153.66 89.3759 155.804 88.9718C160.834 88.0277 188.02 88.374 194.786 88.8894C196.192 88.9966 197.556 89.1079 197.635 89.483C194.617 89.1862 190.238 89.8335 188.783 89.8335C181.028 89.8335 162.648 90.1509 156.596 89.8335Z" fill="black"/>
<path d="M40.024 164.243C42.1019 158.801 40.0157 156.323 34.3221 156.983C30.3724 157.441 30.4961 160.891 31.7289 163.897L22.2216 164.243C21.7062 164.28 21.4712 164.581 21.2692 165.018C20.8198 165.983 20.824 174.967 21.3311 175.771C23.2688 177.552 25.3178 174.806 27.136 175.56C29.5355 176.562 29.585 180.607 27.6926 182.182C25.6312 182.182 21.7804 180.38 21.0878 183.509C20.7662 184.96 20.8651 191.759 21.4506 193.025C21.6485 193.458 21.7969 193.763 22.2917 193.911L25.1611 194.319C22.1762 194.892 18.7295 194.208 16.1816 196.224C16.6887 197.024 16.9278 196.542 17.4885 196.504C19.4675 196.377 21.4094 195.783 23.4337 196.055C19.4923 202.021 18.4244 208.939 23.0956 214.888C25.2477 217.63 27.6019 218.974 31.1805 218.496C32.3143 218.343 33.3285 217.473 34.4911 217.659C28.5089 223.711 17.0928 223.835 11.6877 216.962C3.33897 206.346 9.92725 181.877 13.1596 169.698C17.035 155.086 20.3622 142.607 34.4829 135.016C36.2062 134.089 45.6352 129.62 46.8844 130.407C48.5294 135.346 55.3198 138.999 60.2301 139.358C65.1404 139.716 73.5881 138.047 72.5161 131.739C80.2341 133.911 89.5971 138.611 94.8125 144.874C101.801 153.26 105.693 174.282 108.01 185.27C111.671 202.639 114.99 219.687 107.832 236.748C107.515 237.502 103.545 245.603 102.934 245.154C102.51 241.011 101.475 237.382 99.1291 233.915C99.7269 232.765 100.366 231.615 100.774 230.374C103.256 222.829 98.8652 208.015 97.7892 199.638C96.2019 187.278 96.3668 170.58 93.1468 158.982C93.0479 158.628 93.0602 157.935 92.5655 158.018C92.5078 161.064 92.6604 164.14 92.9077 167.179C93.7983 178.026 94.9898 189.896 96.408 200.677C97.8634 211.742 104.188 226.494 95.6824 235.655C81.1865 251.268 49.9312 246.675 33.1017 237.382C28.5543 234.872 22.7534 231.648 24.1964 225.517C28.4965 222.837 34.9653 220.92 38.0986 216.781C38.8407 215.803 42.91 208.745 43.0502 207.904C43.2563 206.676 43.0296 205.439 43.1615 204.21C43.3017 202.891 44.2211 202.165 43.6727 200.537C43.5161 200.067 42.8935 199.617 42.8399 199.283C42.7904 198.978 44.9137 195.762 43.479 194.332H48.4923C49.7498 194.332 50.5497 192.839 50.7063 191.705C50.9578 189.896 51.0526 182.817 49.5519 181.86C47.4822 180.541 42.4318 184.763 42.7657 178.587C43.0461 173.4 47.4122 177.816 49.3581 176.871C49.6797 176.628 49.9766 176.282 50.1332 175.911C50.5909 174.827 50.5661 167.987 50.3971 166.494C50.3023 165.686 50.1579 164.829 49.5354 164.247H40.0281L40.024 164.243Z" fill="#031C51"/>
<path d="M49.011 165.627L48.6647 175.308C47.4526 175.576 46.4219 174.462 45.3376 174.384C39.6357 173.959 39.7058 184.007 44.983 183.83C46.1869 183.788 47.2135 182.861 48.4338 182.885C48.6523 182.947 49.011 183.71 49.011 183.776V192.075L48.4915 192.595H40.7158C41.3755 190.9 41.965 190.616 41.293 188.728C39.9284 184.885 34.816 187.647 32.4124 188.958C29.2584 190.678 26.6446 194.223 22.7402 192.075V183.256C26.0921 183.368 29.1513 184.988 30.4211 180.742C31.39 177.493 29.444 173.543 25.7169 173.947C24.6079 174.067 23.7957 174.825 22.7402 174.961V165.627H32.2475C32.33 165.627 33.2123 165.075 33.303 164.93C33.9461 163.9 31.7363 162.02 32.6845 159.835C33.4844 157.988 36.8939 158.016 38.3947 158.787C41.0951 160.181 36.8651 165.623 38.8193 165.623H49.0151L49.011 165.627Z" fill="white"/>
<path d="M79.0835 111.343C79.2237 112.04 78.7496 112.147 78.2919 112.448C75.3029 114.41 69.568 113.4 66.7397 111.417C65.7008 110.687 65.0947 109.426 66.7397 109.677C67.589 109.805 69.601 111.166 70.7966 111.504C73.9424 112.398 75.9708 111.677 79.0835 111.343Z" fill="black"/>
<path d="M65.6923 92.4174C66.0139 92.1206 66.657 91.9268 67.0817 92.0299C68.9865 92.9493 68.7886 95.7322 67.0817 96.7712L65.9397 96.6516C64.6162 95.8147 64.6698 93.3574 65.684 92.4174H65.6923Z" fill="black"/>
<path d="M82.439 90.2954C85.3786 89.475 85.8609 94.7481 83.0038 95.3583C80.559 95.3583 80.6455 90.7943 82.439 90.2954Z" fill="black"/>
<path d="M53.506 46.6812C53.7781 48.2026 51.861 48.7509 50.7519 48.2314C50.0717 47.914 49.2966 46.8956 50.3891 46.6771L50.7231 47.547C51.9929 48.4046 53.0648 46.1948 53.506 46.6771V46.6812Z" fill="black"/>
<path d="M214.568 2.81445H125.585C123.334 2.81445 121.512 4.39762 121.512 6.35185V109.971C121.512 111.925 123.334 113.509 125.585 113.509H214.568C216.819 113.509 218.642 111.925 218.642 109.971V6.35185C218.642 4.39762 216.819 2.81445 214.568 2.81445ZM216.325 108.611C216.325 110.565 214.502 112.148 212.251 112.148H127.898C125.647 112.148 123.825 110.565 123.825 108.611V7.71238C123.825 5.75815 125.647 4.17499 127.898 4.17499H212.251C214.502 4.17499 216.325 5.75815 216.325 7.71238V108.611Z" fill="black"/>
</svg>
