<svg width="277" height="187" viewBox="0 0 277 187" fill="none" xmlns="http://www.w3.org/2000/svg">
<path d="M105.397 78.717C107.251 79.1165 110.282 87.0492 110.719 88.9768C111.028 88.882 111.044 88.4908 111.365 88.2272C112.164 87.5764 113.503 87.387 114.269 88.1819C115.34 89.2981 115.558 93.7422 116.164 95.3773C116.398 96.0116 119.059 95.5545 119.768 95.6945L121.456 94.3971C131.803 93.4086 142.058 91.8023 152.326 90.2824L150.242 87.0492C147.746 83.8572 148.393 79.3719 147.437 76.0521C147.326 75.6691 146.243 74.4829 145.946 73.8116C144.525 70.5948 145.703 69.6722 145.983 66.8756C146.07 66.0148 145.798 65.3805 145.79 64.6432C145.613 50.9607 153.15 42.4967 166.322 39.6383C179.51 36.7758 187.743 40.2561 195.985 50.4665C199.235 54.4946 201.62 59.4536 206.768 61.3276C212.196 63.3046 221.946 64.0995 221.946 72.2835C221.946 75.5249 220.187 73.1402 219.219 72.3824C217.897 71.3444 216.08 70.7513 214.466 70.3271C218.609 73.7909 220.504 80.5622 217.044 85.1216C215.178 87.5805 215.224 84.9981 214.552 83.3877C213.811 81.6166 212.336 79.516 210.549 78.7211C213.968 82.8934 214.042 89.2857 209.058 92.243C214.812 100.209 218.511 109.472 224.466 117.314C226.723 120.283 233.396 127.376 233.688 130.852C233.775 131.882 233.144 132.99 233.354 133.789C233.466 134.217 234.751 135.91 235.088 136.536C238.981 143.698 240.558 151.668 242.642 159.481L249.829 155.383C251.127 154.078 252.214 152.574 253.458 151.178C258.051 146.009 261.494 148.501 265.316 152.764C268.66 156.5 275.539 168.197 276.021 173.028C276.47 177.526 274.002 179.614 269.76 177.608C266.552 176.092 263.467 173.069 260.682 170.886C252.647 177.225 242.243 187.032 231.134 182.645C223.609 179.672 216.212 172.888 210.64 167.134C209.466 165.919 202.797 158.234 201.883 158.188C192.311 161.446 183.2 165.923 174.304 170.672L164.473 186.266C163.97 186.781 162.903 186.451 162.224 186.534L172.492 170.03C181.326 164.803 190.614 159.963 200.479 156.973C200.837 156.763 200.359 156.483 200.19 156.322C199.198 155.383 196.389 153.967 195.804 153.06C195.219 152.154 196.133 152.093 196.883 152.356C198.304 152.859 201.504 155.338 202.719 156.409C207.6 160.717 211.756 166.236 216.612 170.685C221.707 175.351 230.887 182.617 238.07 182.056C243.787 181.607 253.569 175.248 257.659 171.232C258.335 170.569 258.364 170.458 258.401 169.465C258.508 166.442 257.066 162.476 255.143 160.145C254.385 159.226 251.588 156.714 250.439 156.907L243.108 161.166C242.832 161.607 243.602 163.267 243.754 163.885C243.853 164.284 244.479 166.541 243.861 166.57C243.655 166.405 243.38 166.319 243.198 166.117C242.667 165.503 241.6 162.101 241.291 161.125C238.898 153.579 237.897 145.498 234.162 138.406C233.861 137.838 233.009 136.19 232.658 135.807C232.506 135.638 232.473 135.556 232.201 135.613C230.735 139.23 227.143 142.632 223.939 144.794C211.5 153.184 190.956 149.366 179.864 140.14C172.504 143.097 165.177 146.495 158.883 151.388C147.969 159.877 143.096 174.531 136.457 186.237C136.053 186.785 135.217 186.463 134.612 186.534C138.174 179.285 141.671 171.924 145.773 164.959C148.871 159.7 152.17 154.844 156.91 150.915C163.274 145.643 171.133 141.862 178.83 138.97C178.406 138.233 177.961 137.512 177.624 136.73C177.129 135.576 176.837 133.908 176.363 132.953C176.067 132.351 173.394 130.189 172.669 129.369C170.836 127.302 169.366 124.888 168.258 122.363L158.966 123.125H148.315C139.336 122.306 129.789 121.849 120.95 120.077C118.627 119.612 118.553 119.007 117.511 116.984C113.248 116.338 108.12 116.63 104.396 114.237C103.021 113.356 102.238 112.001 100.834 111.362V116.305C100.834 117.03 98.7455 117.079 98.1277 117.145C91.513 117.853 84.7789 117.907 78.1559 118.459C72.888 117.174 66.5946 117.001 61.4544 115.567C60.4865 115.3 60.4659 114.785 60.367 113.854C60.1734 112.017 60.3093 109.826 60.194 107.948C60.4494 107.075 62.1051 106.926 62.8712 106.91C63.1472 106.906 64.2593 107.285 64.2593 106.79V101.288L61.5038 101.057L60.3711 89.434C60.3135 89.1127 60.6965 88.6061 60.9931 88.6061H64.0739L63.6991 82.8275C62.9 82.6092 61.5079 83.363 60.9025 82.7328C60.1735 81.9749 60.437 75.8833 59.9634 74.5159C59.8645 73.8198 60.3794 73.4409 61.0096 73.3255C68.7157 72.7242 76.4219 71.9458 84.1281 71.6286C86.1463 71.5462 88.1851 71.5751 90.1991 71.4515L90.578 65.3969C90.6398 64.4043 90.1744 61.3647 91.2576 61.0434L111.048 61.7066C112.099 62.3285 111.477 63.3829 111.46 64.2643C111.407 67.1309 111.501 70.0017 111.279 72.8519C111.221 73.5932 111.131 75.4838 110.908 76.0233C110.562 76.8553 109.825 76.5835 109.689 75.8462L110.171 69.318L110.352 63.0616L91.8754 62.4974L91.5006 71.4515L99.4869 71.3033C100.261 73.7127 99.6228 76.2746 100.088 78.7252H105.406L105.397 78.717ZM179.938 65.4711C180.054 65.364 179.704 64.4126 179.601 64.2231C178.97 63.0328 173.707 60.125 172.228 59.0953C167.496 55.8003 162.994 52.0851 158.949 47.9829C154.439 51.0101 150.09 55.7385 149.526 61.3688C151.305 60.751 153.521 59.7707 154.645 58.185C154.958 57.7402 155.555 56.0433 155.984 55.9691C157.224 56.3151 156.301 58.0738 155.84 58.8193C154.575 60.8663 151.754 62.3161 149.348 62.312L149.155 63.3293C150.082 63.3293 151.054 62.9051 152.013 62.9339C155.065 63.0246 157.088 65.4134 158.035 68.0989L160.889 67.8806C162.232 60.2197 172.146 59.5936 175.218 66.4184L179.943 65.4711H179.938ZM177.517 54.4699C177.232 55.306 178.134 58.7246 179.284 58.3868C180.433 58.0491 178.715 54.3381 177.517 54.4699ZM188.711 60.438C188.283 60.9117 190.314 65.0633 190.795 65.7182C191.146 66.196 191.978 67.2792 192.632 66.8756C192.863 66.6326 193.024 66.3278 192.97 65.9818C192.859 65.2363 190.89 62.415 190.297 61.7395C190.132 61.5541 188.901 60.2238 188.711 60.438ZM167.397 63.1028C160.572 63.8318 160.704 75.3231 167.537 75.9162C176.928 76.7359 176.31 62.1514 167.397 63.1028ZM151.54 64.2107C146.07 64.5032 144.843 73.8569 150.012 76.0851C155.032 78.2516 157.03 73.0331 156.593 68.9473C156.322 66.3978 154.246 64.0625 151.544 64.2107H151.54ZM180.655 66.9991L175.457 67.7158C177.776 77.2548 164.201 81.7608 161.223 71.9623C160.621 69.9853 161.338 68.5272 158.315 69.4168C158.397 71.2373 158.043 72.856 157.359 74.5241C157.261 74.7671 156.643 75.4344 157.219 75.3108C157.397 75.2737 157.537 75.1131 157.73 75.2531C158.595 75.8627 156.746 76.7729 156.416 77.3125C155.411 78.9559 156.725 80.105 158.381 80.1709C158.822 80.1874 159.287 79.8744 159.843 80.0515C160.745 80.3398 159.452 81.0235 159.085 81.0976C156.453 81.633 154.299 79.9361 154.929 77.226C153.072 78.0374 151.198 77.9632 149.332 77.226C150.057 92.2059 165.63 99.9985 177.78 90.4636C179.061 89.4587 180.074 88.1489 181.421 87.2963C181.804 87.6176 180.548 89.8994 180.272 90.3401C178.27 93.5074 174.625 96.1434 170.976 96.996L172.776 98.4458C173.159 98.4787 176.12 96.7983 176.697 96.4647C178.151 95.6286 180.68 94.1376 181.887 93.0708C184.049 91.1556 185.437 87.63 188.143 86.1719V85.9001C187.171 84.9116 186.199 84.1208 185.626 82.8151C185.375 82.2385 185.297 81.4518 185.05 80.9658C184.885 80.6446 183.938 80.1174 184.856 80.0432C185.029 80.0309 185.202 80.1997 185.519 80.1091C185.836 80.0185 187.764 78.6552 187.764 78.4328C184.547 75.2284 182.583 71.0355 180.647 66.9909L180.655 66.9991ZM98.5849 80.2121L98.3995 73.029L98.1277 72.6089L78.6131 73.618L78.8067 80.7681L98.589 80.208L98.5849 80.2121ZM77.3157 73.4944L61.4544 74.796L62.0145 81.5136L77.3157 80.7681V73.4944ZM118.272 104.274C117.272 104.121 115.958 104.385 114.916 104.274C114.15 103.681 113.919 102.746 113.565 101.897C111.645 97.3172 110.356 92.2512 108.672 87.5764C108.243 86.3902 105.772 79.689 104.302 80.0391C103.05 81.1759 104.104 81.8308 104.598 82.8852C105.093 83.9396 105.624 85.134 106.06 86.2708C106.448 87.2758 108.548 93.6763 108.215 94.2035C108.062 94.4465 107.799 94.4094 107.564 94.3765C106.901 92.6054 103.111 81.9255 101.826 81.5383C101.662 81.4889 101.497 81.4807 101.332 81.5301C100.891 81.6743 100.434 83.6224 100.508 84.0096C100.529 84.1167 101.439 85.3399 101.612 85.6777C102.778 87.91 105.373 92.8608 105.743 95.1714C105.797 95.5009 105.714 95.7439 105.686 96.0611C105.356 96.37 104.491 94.9284 104.347 94.6936C102.926 92.3706 101.938 89.3639 100.558 86.9174C99.9811 85.896 98.173 82.4568 97.8476 85.5211C97.6376 87.494 98.5561 88.0171 99.3716 89.5946C100.5 91.7775 101.966 94.6772 102.56 97.0372C103.074 99.076 102.461 98.8 101.546 97.3049C100.339 95.332 99.4663 92.8814 98.3172 90.8343C98.0165 90.2948 97.2628 88.8697 96.9168 88.5031C96.1342 87.6876 95.813 89.4628 95.6688 90.0312C97.168 94.8666 99.0998 99.5373 100.653 104.356C101.954 108.393 102.259 112.194 106.942 113.924C108.046 114.332 117.037 115.802 117.441 115.456C116.806 111.865 117.399 108.096 118.75 104.723C118.853 104.459 118.404 104.286 118.281 104.266L118.272 104.274ZM99.3304 81.7031L81.6033 82.0738L81.9904 88.2148L94.3549 88.1983C94.532 87.5187 96.1383 86.7485 96.2537 86.555C96.4184 86.279 96.4184 85.0022 96.5832 84.4585C96.9745 83.1694 97.7776 82.671 99.1203 82.7987L99.3262 81.7031H99.3304ZM80.3018 82.2591L65.1901 82.8234L65.5608 88.6061L80.4912 88.2313L80.3059 82.2591H80.3018ZM178.447 134.118C179.3 138.241 181.878 140.292 185.346 142.236C196.331 148.402 214.227 150.676 224.623 142.319C228.276 139.382 230.99 135.708 231.995 131.05C230.068 126.284 226.381 122.635 223.342 118.615C218.997 112.866 215.87 106.461 212.184 100.299C207.896 93.1367 203.506 83.3547 193.489 84.5203C191.178 84.788 188.608 87.2757 187.122 88.9727C186.953 89.1662 185.977 90.3195 186.1 90.4678L187.216 90.373C182.323 95.538 175.19 100.13 168.188 101.753C155.601 104.673 138.516 103.911 125.542 103.343C124.628 103.302 122.058 102.758 121.432 103.137C120.806 103.516 119.673 106.498 119.438 107.297C118.446 110.662 118.194 115.263 120.056 118.343C143.29 122.124 169.053 124.027 191.08 114.188C192.525 113.541 199.737 109.579 200.569 109.702C201.311 110.238 199.729 111.165 199.218 111.506C192.76 115.872 183.233 119.184 175.651 120.963C174.012 121.35 172.067 121.523 170.506 121.98C170.329 122.034 170.136 121.881 170.247 122.256C170.49 123.097 171.713 125.053 172.249 125.852C177.385 133.496 187.13 137.005 195.923 138.369C197.962 138.686 200.252 138.674 202.192 139.007C202.505 139.061 202.863 139.168 203.073 139.427C203.082 139.67 201.566 139.852 201.282 139.868C199.638 139.975 197.044 139.699 195.359 139.493C189.461 138.781 183.678 136.861 178.452 134.106L178.447 134.118ZM116.312 102.219L113.285 89.4834L112.704 89.1868C112.251 89.3063 111.192 90.962 111.398 91.5469L114.986 102.107L116.312 102.219ZM95.2281 93.6392C94.6227 92.5025 94.4826 91.0073 94.0707 89.8541C94.0172 89.7058 93.9678 89.5987 93.8072 89.5493L77.6864 89.7223L77.8758 95.505L95.2281 93.6392ZM76.1954 89.7223L61.8292 90.0971L62.2287 94.4547L76.3848 94.1994C76.0636 92.7619 76.2448 91.2092 76.1995 89.7223H76.1954ZM168.517 96.4771C168.196 96.2917 165.111 96.4935 164.361 96.4317C160.304 96.1104 156.593 94.1335 153.533 91.584C143.08 93.3798 132.565 94.8172 122.004 95.8798L121.535 96.1599C122.745 97.8898 124.133 99.5661 124.731 101.634C133.446 102.173 142.19 102.004 150.93 102.037C155.531 101.658 160.14 101.42 164.699 100.695C165.473 100.571 171.367 99.6031 171.351 98.9524C170.638 98.3552 169.823 97.8733 169.11 97.2802C168.847 97.0619 168.558 96.5018 168.517 96.4771ZM95.7594 95.159L77.8717 96.8106C77.8923 97.8321 77.7688 98.87 78.0488 99.8627L96.9044 98.487L95.7594 95.1549V95.159ZM76.566 95.6904L62.3852 95.8757L62.76 99.9821H76.566V95.6904ZM120.509 97.1855H116.683C116.637 99.2325 118.071 100.983 117.988 102.968C118.47 102.902 119.273 103.112 119.669 102.873C119.85 102.762 120.027 102.264 120.315 102.029C121.254 101.267 122.148 101.625 123.211 101.663L120.505 97.1855H120.509ZM82.3529 101.102V108.005L99.8946 106.976C99.108 105.032 98.6755 102.153 97.7488 100.357C97.6458 100.155 97.6046 99.8956 97.341 99.8174L82.3529 101.107V101.102ZM80.8578 101.288H65.742V107.07L80.8578 108.191V101.288ZM77.1262 109.496L61.6397 108.376C61.4955 109.484 61.7592 110.592 61.8251 111.642C61.858 112.19 61.6726 114.039 62.0021 114.262L77.1262 116.77V109.496ZM78.6213 109.682V116.955L99.5199 115.65C99.4045 114.74 99.4498 108.664 99.0297 108.549L78.6172 109.678L78.6213 109.682ZM259.99 169.371C262.898 166.529 260.802 161.141 258.499 158.452C256.877 156.557 254.191 154.481 251.592 155.379C251.3 155.762 253.013 156.343 253.326 156.533C257.713 159.173 259.937 164.354 259.99 169.366V169.371Z" fill="black"/>
<path d="M0.904929 136.732C0.843147 136.715 0.575419 136.443 0.534231 136.357L0.476562 1.25367L0.810205 0.841797L225.612 0.874779C225.776 0.924204 226.028 1.29486 226.028 1.40606V57.7382C226.028 58.0677 224.969 58.529 224.627 57.8329L224.532 26.8682H157.64L157.36 27.1482V40.0193L157.179 40.2129C156.767 40.4271 156.281 40.3447 156.239 39.834L156.054 26.8723H83.1893C83.0905 26.8723 82.8886 27.1853 82.901 27.3418L82.9628 36.1065C83.074 46.527 82.8969 57.0422 82.8186 67.5408C82.5015 68.0722 81.6036 67.6973 81.6036 67.4461V26.8764H2.11587V135.253H81.7931C81.7601 134.166 81.8342 133.07 81.8013 131.983C81.7107 129.046 81.3935 125.99 81.5995 123.029C81.6571 122.213 81.7189 121.665 82.6539 122.18L82.9257 122.843L83.1028 135.257H156.248C156.404 134.108 155.642 128.395 156.248 127.885C156.655 127.539 157.492 127.654 157.562 128.268L157.368 135.257H170.523C170.997 135.257 171.195 136.748 170.709 136.748H0.909051L0.904929 136.732ZM224.347 2.24218H2.11587V25.7437H81.6036V8.11552C81.6036 8.04962 81.7971 7.81483 81.8177 7.67891L82.069 7.63361C82.485 7.62125 82.8845 7.63363 82.9092 8.11552L83.1893 25.7437H156.054V8.11552C156.054 7.92194 157.22 6.91698 157.36 8.48622V25.7437H224.347V2.24218Z" fill="black"/>
<path d="M254.019 13.2467L253.911 15.6809C256.572 16.5665 259.212 17.9957 261.02 20.1456C262.47 19.5608 260.955 19.116 260.773 18.5229C260.333 17.0772 262.54 15.2032 263.813 15.2814C265.086 15.3597 268.389 19.5731 268.397 20.8005C268.405 22.0279 266.144 23.2141 265.119 23.1482C264.53 23.1112 263.817 21.9703 263.352 22.5716C263.265 22.6828 264.402 24.3015 264.567 24.6186C272.022 38.9107 259.241 55.4763 243.532 51.4317C230.076 47.9678 225.167 31.1798 234.52 20.8912C234.969 20.401 236.934 18.8112 237.041 18.5599C237.136 18.3375 236.983 18.1892 236.765 18.284C236.329 18.4734 235.583 19.5691 234.751 19.0419C234.372 18.7988 232.943 16.0269 233.017 15.4791C233.277 13.4898 237.605 11.5334 239.38 11.5663C240.991 11.5951 241.638 14.7666 241.522 16.0475C243.252 15.4132 245.031 14.8654 246.905 14.9025L247.301 12.1388C244.825 11.9494 245.126 9.04565 246.032 7.40639C246.753 6.10074 247.49 6.2737 248.891 6.34784C250.102 6.41374 255.917 7.27866 256.535 8.03239C257.565 9.28861 256.51 14.2888 254.023 13.2509L254.019 13.2467ZM254.949 11.7558C254.859 11.1256 255.477 9.68403 254.949 9.23509L247.313 7.85944C247.342 8.53903 246.349 10.1907 247.111 10.5407L254.945 11.7558H254.949ZM252.499 13.0861L248.606 12.5013C248.841 13.2179 247.91 14.7501 248.887 14.9272C249.933 15.1167 251.403 14.9643 252.523 15.302L252.499 13.0902V13.0861ZM240.023 15.2979L239.368 13.4321C238.964 12.9337 236.588 13.9098 236.044 14.2105C235.348 14.5977 234.788 15.1702 234.273 15.7592L235.451 17.2996C236.852 16.4017 238.322 15.4915 240.023 15.2897V15.2979ZM246.514 16.4718C234.961 17.4932 228.145 29.5899 232.77 40.171C238.33 52.8938 255.88 53.9812 262.697 41.7856C269.299 29.9689 260.032 15.2732 246.514 16.4676V16.4718ZM265.238 21.4266C265.53 21.5954 266.684 20.9612 266.494 20.4669C266.086 19.915 264.262 16.9083 263.665 16.9989L262.491 18.1028L265.242 21.4266H265.238Z" fill="black"/>
<path d="M15.8889 62.1617C16.3955 62.0752 17.1122 62.31 17.6888 62.31C21.0621 62.3223 24.4271 62.4295 27.7674 62.4995C30.1563 62.5489 32.9282 62.2729 35.247 62.483C36.3014 62.5777 36.528 62.8249 36.6392 63.8916C36.9728 67.1331 36.7051 71.19 36.8204 74.5303C36.878 76.1902 37.1581 78.0807 37.2076 79.7364C37.3105 83.2209 36.8081 82.8626 33.5542 83.0191C27.8333 82.1582 21.0868 83.4927 15.4564 82.8255C14.6574 82.7308 14.052 82.2942 14.0437 81.4251C14.0149 78.2084 14.8139 74.4603 14.8181 71.1694C14.8881 68.2739 14.5833 65.3414 15.0817 62.4789C15.1846 62.3182 15.6789 62.1905 15.893 62.1535L15.8889 62.1617ZM35.3294 63.7968L16.3873 63.4303L15.3658 81.3304L35.8937 81.5198L35.3335 63.7968H35.3294Z" fill="black"/>
<path d="M92.843 33.6185C93.3702 33.2395 99.5731 33.3713 100.739 33.3837C101.464 33.3919 102.213 33.5731 102.959 33.5855C106.031 33.6225 110.368 33.2024 113.243 33.569C113.865 33.6472 114.19 33.9685 114.269 34.5946C114.648 37.5436 114.145 41.8188 114.063 44.8544C114.005 46.9632 114.022 48.9114 113.886 51.0202C113.816 52.1075 114.368 53.9321 113.054 54.1051C109.948 54.517 105.434 53.9568 102.23 53.9033C99.4989 53.8539 96.0597 54.2039 93.4526 53.9115C91.5456 53.6973 91.8133 52.3711 91.8586 50.8265C91.8998 49.4221 92.1882 47.7746 92.2458 46.366C92.4106 42.4614 92.2458 38.2685 92.6124 34.4175C92.633 34.2115 92.6947 33.7214 92.8389 33.6185H92.843ZM112.955 34.8829L93.9221 34.6976L93.1725 52.6059L112.58 52.7912L112.955 34.8829Z" fill="black"/>
<path d="M49.6427 33.4299L69.5898 33.9324L69.8452 34.4225C70.1253 37.3427 69.9234 40.2712 70.0305 43.1914C70.1376 46.1116 70.7966 50.2386 70.4218 53.0805C70.3271 53.7972 69.9029 54.0196 69.2027 54.1019C66.5378 54.4108 63.3046 53.9536 60.6233 53.9083C57.0647 53.8506 52.9007 54.1349 49.4162 53.7271C49.1114 53.69 48.8231 53.6571 48.5842 53.4429C48.3906 53.2575 48.23 52.7674 48.2217 52.4956C48.1147 49.5425 48.8355 45.712 48.9631 42.6312C49.0579 40.3329 48.8313 38.0017 48.9549 35.7076C48.9878 35.1186 49.0372 33.607 49.6468 33.4258L49.6427 33.4299ZM68.7331 35.0692L50.2605 34.8838L49.7004 52.4173L69.1079 52.7921L68.7331 35.0692Z" fill="black"/>
<path d="M15.4035 33.6145C16.149 33.2892 16.7833 33.5816 17.5041 33.5857C23.0067 33.6104 29.5143 33.1244 34.8728 33.5692C35.6966 33.6392 36.5245 33.664 36.648 34.5948C37.0928 37.9186 36.4462 43.0876 36.2691 46.5432C36.2073 47.75 36.2526 53.4134 35.7131 54.0065C35.1035 54.6696 31.8867 54.1053 30.96 54.0888C26.1658 54.0023 20.6879 54.4925 16.0172 54.1053C14.2009 53.9529 14.382 53.1621 14.4315 51.5723C14.5138 49.0475 14.9216 46.4691 15.004 43.9402C15.0987 41.123 14.7363 37.9021 14.9999 35.1673C15.0246 34.8913 15.2717 33.7175 15.4117 33.6187L15.4035 33.6145ZM35.5154 34.8831H16.2973L16.3055 43.9361L15.7371 52.602C22.0553 52.915 28.4434 52.6596 34.7698 52.9768L35.5154 34.8831Z" fill="black"/>
<path d="M15.6829 92.0027C19.711 92.0027 23.7556 91.875 27.7796 91.9574C29.9543 92.0027 33.2081 91.9162 35.2387 92.1469C37.2692 92.3775 36.4249 94.8693 36.4414 96.3562C36.4537 97.4889 36.4537 98.5515 36.4414 99.6965C36.4084 103.123 36.6473 107.786 36.2642 111.089C36.1613 111.966 35.8977 112.226 35.0575 112.308C28.8093 112.922 21.7745 111.694 15.4481 112.115C14.4761 111.979 14.023 111.513 14.0395 110.525C14.0766 107.683 14.8056 104.301 14.9868 101.381C15.1475 98.7657 14.8426 95.2318 15.168 92.7935C15.2175 92.4146 15.2751 92.1386 15.6787 91.9986L15.6829 92.0027ZM35.3293 93.4566L16.4819 93.2713L15.3616 110.809L34.9545 110.994L35.3293 93.4566Z" fill="black"/>
<path d="M143.74 34.8817H126.107C126.05 34.8817 125.844 34.6264 125.642 34.6964L124.892 52.4152L141.96 52.9795C143.077 53.4367 142.731 54.1781 141.602 54.2893C138.781 54.5735 134.658 54.0175 131.709 53.9021C129.909 53.8321 128.29 53.8568 126.474 53.7209C123.714 53.515 123.467 54.1822 123.574 50.8213C123.64 48.7454 124.056 46.4266 124.151 44.3096C124.299 40.961 124.27 37.5837 124.336 34.2351C124.398 33.7903 124.723 33.5637 125.16 33.5678C131.684 33.7861 138.315 33.1477 144.778 33.9303C145.066 34.1568 145.021 34.4616 145.049 34.7788C145.358 38.0326 145.012 42.7939 144.852 46.1671C144.802 47.1597 144.547 48.2512 144.629 49.3015C142.615 51.2126 143.53 47.032 143.554 45.99C143.649 42.2831 143.74 38.5968 143.731 34.8817H143.74Z" fill="black"/>
<path d="M202.705 52.23H213.339L212.968 35.0672L195.427 34.8819V43.1812C195.427 43.6383 194.121 43.6383 194.121 43.1812V34.227C194.121 33.9922 194.834 33.6051 195.138 33.5639C198.73 33.082 203.388 33.9511 207.099 33.5639C209.023 34.0787 211.375 33.465 213.236 33.7698C213.615 33.8316 213.945 34.0087 214.179 34.3176L214.554 53.1609C214.303 53.4368 213.973 53.4945 213.623 53.5357C211.564 53.7705 205.365 53.8034 203.347 53.5398C202.445 53.4204 202.429 52.9755 202.705 52.2259V52.23Z" fill="black"/>
<path d="M56.5075 81.1452C56.8082 81.2276 57.0636 81.8001 56.9565 82.142C56.7052 82.9328 55.2348 82.455 54.6582 82.4509C52.9901 82.4427 50.3953 82.6815 48.8714 82.4385C47.5616 82.2326 47.7923 80.7911 47.8252 79.7367C47.9323 76.211 48.4472 72.4959 48.5872 68.9332C48.6572 67.158 48.3812 65.0286 48.5748 63.3275C48.616 62.9692 48.6696 62.6521 48.9579 62.4049L69.115 62.2031C69.4322 62.3061 69.601 62.4297 69.6669 62.7715C69.8028 63.5005 69.807 68.5831 69.6669 69.2997C69.5681 69.8022 69.3004 69.7858 68.8267 69.7816L68.5755 69.7363C68.5549 69.5963 68.3613 69.3656 68.3613 69.2997V63.4223L49.8887 63.6076L49.1432 81.1411H56.5117L56.5075 81.1452Z" fill="black"/>
<path d="M269.131 93.8287C268.517 94.3848 267.22 94.5289 266.371 94.706C261.787 95.6492 256.861 96.2629 252.215 96.9672C243.29 98.3182 233.94 99.7968 224.982 100.707C224.393 100.769 223.285 101.028 222.861 100.633C222.82 100.225 223.717 100.184 224.014 100.11C229.014 98.8413 235.328 98.1782 240.522 97.3997C248.652 96.1806 257.174 94.8584 265.333 94.0388C266.589 93.9111 267.87 93.804 269.135 93.8329L269.131 93.8287Z" fill="black"/>
<path d="M270.065 72.5645C270.152 73.0711 269.97 72.8857 269.657 72.9887C269.287 73.1081 268.817 73.1823 268.426 73.2564C256.659 75.46 243.096 77.0456 231.139 78.3225C230.365 78.4048 225.48 78.9362 225.286 78.7179C225.233 78.236 225.286 78.4213 225.558 78.3431C226.291 78.1289 227.271 77.9929 228.05 77.8488C233.318 76.8562 238.923 76.1395 244.253 75.3899C252.816 74.1872 261.428 72.9599 270.069 72.5645H270.065Z" fill="black"/>
<path d="M270.436 114.158C270.202 114.636 269.423 114.694 268.945 114.813C266.342 115.464 263.262 115.884 260.584 116.341C253.447 117.561 245.757 118.899 238.594 119.727C237.458 119.859 236.321 120.007 235.172 119.937C235.027 119.414 235.934 119.36 236.284 119.278C244.253 117.359 253.97 116.012 262.158 114.925C264.897 114.562 267.681 114.233 270.436 114.154V114.158Z" fill="black"/>
<path d="M254.95 85.8108C254.806 86.2309 254.229 86.2268 253.867 86.3132C250.601 87.0752 246.63 87.5118 243.257 88.0184C236.177 89.0769 229.056 90.0201 221.926 90.6585C221.856 90.259 222.103 90.2137 222.391 90.1025C224.43 89.3199 229.348 88.8298 231.749 88.455C237.038 87.623 242.664 86.7581 247.973 86.2103C250.292 85.9714 252.615 85.7408 254.946 85.8149L254.95 85.8108Z" fill="black"/>
<path d="M258.307 63.9846C258.397 64.52 258.187 64.2935 257.874 64.38C252.808 65.8298 244.443 66.4394 238.969 67.1272C236.51 67.4361 233.57 67.9798 231.156 68.0827C230.641 68.1033 229.949 68.231 229.57 67.8027C235.192 66.6247 240.95 65.6568 246.667 64.9401C250.522 64.4582 254.41 64.0134 258.303 63.9805L258.307 63.9846Z" fill="black"/>
<path d="M265.774 124.981C265.856 125.458 265.7 125.314 265.403 125.438C263.397 126.249 260.168 126.735 257.973 127.16C252.734 128.177 247.388 129.029 242.078 129.454C241.996 128.98 242.153 129.116 242.449 128.996C243.545 128.56 245.472 128.272 246.704 128.016C252.956 126.719 259.427 125.656 265.774 124.977V124.981Z" fill="black"/>
<path d="M255.509 105.02C255.579 105.423 255.332 105.465 255.04 105.576C253.17 106.305 249.15 106.688 246.988 107.038C242.861 107.709 238.445 108.451 234.302 108.908C233.103 109.04 231.905 109.196 230.69 109.118C230.599 108.599 230.801 108.805 231.098 108.698C234.442 107.507 241.419 106.708 245.18 106.165C248.61 105.67 252.05 105.279 255.505 105.016L255.509 105.02Z" fill="black"/>
<path d="M114.681 77.927C114.475 77.7046 114.409 77.3256 114.533 77.0455C114.611 76.8684 116.769 74.6443 117.148 74.2366C118.643 72.6344 120.291 71.1269 121.856 69.603C122.956 69.4959 122.923 70.3402 122.383 71.0775C121.621 72.1195 116.699 77.0373 115.657 77.7869C115.48 77.9146 115.332 78.0752 115.097 78.0876C114.957 78.0711 114.776 78.0299 114.681 77.927Z" fill="black"/>
<path d="M106.398 128.687C106.118 128.864 105.537 128.629 105.236 128.494C104.433 128.135 101.777 125.796 101.007 125.075C100.533 124.63 98.7082 122.896 98.6094 122.414L98.7536 121.887L99.2354 121.615C99.6144 121.615 100.446 122.707 100.817 123.024C101.707 123.782 106.353 127.303 106.526 127.958C106.575 128.139 106.497 128.621 106.394 128.687H106.398Z" fill="black"/>
<path d="M89.3724 123.871C89.6401 123.78 89.8913 123.867 90.1137 124.031C90.4432 124.274 92.1402 127.26 92.5768 127.911C93.1781 128.805 94.8215 130.679 95.1304 131.515C95.4187 132.298 94.9779 132.639 94.2366 132.409C94.0183 132.343 91.9754 129.505 91.6418 129.031C91.0569 128.199 89.0223 125.329 89.0511 124.513C89.0593 124.262 89.0882 123.965 89.3724 123.871Z" fill="black"/>
<path d="M125.967 78.3836C126.432 78.2642 126.803 78.293 127.001 78.7707C127.182 79.1497 126.852 79.508 126.564 79.7387C125.74 80.3895 120.382 83.4332 119.484 83.6679C118.738 83.8656 117.787 83.5691 118.442 82.8113C118.821 82.3747 120.225 81.8516 120.843 81.4809C122.552 80.4553 124.208 79.3392 125.963 78.3877L125.967 78.3836Z" fill="black"/>
<path d="M259.801 137.291C259.723 137.637 259.336 137.67 259.06 137.761C256.477 138.576 252.346 139.186 249.574 139.659C247.77 139.968 245.971 140.384 244.129 140.277C244.022 139.787 244.323 139.894 244.644 139.779C246.304 139.194 248.668 138.811 250.435 138.473C253.512 137.884 256.667 137.299 259.801 137.299V137.291Z" fill="black"/>
<path d="M238.158 60.4378C237.882 61.0144 237.071 61.0102 236.51 61.1214C233.084 61.8093 227.544 62.5507 224.076 62.6825C223.47 62.7072 222.564 62.8308 222.111 62.3942C225.13 61.6693 228.273 61.1791 231.37 60.8331C232.264 60.7343 237.931 60.1618 238.158 60.4378Z" fill="black"/>
<path d="M178.448 134.12C183.675 136.872 189.457 138.795 195.355 139.508C197.044 139.709 199.639 139.99 201.278 139.882C201.558 139.866 203.078 139.681 203.07 139.442C202.86 139.182 202.501 139.075 202.188 139.022C200.252 138.688 197.958 138.7 195.92 138.383C187.126 137.02 177.377 133.507 172.245 125.866C171.71 125.067 170.486 123.115 170.243 122.271C170.136 121.896 170.326 122.048 170.503 121.995C172.06 121.538 174.008 121.36 175.647 120.977C183.226 119.194 192.756 115.887 199.215 111.521C199.721 111.179 201.307 110.252 200.566 109.717C199.734 109.593 192.522 113.555 191.076 114.202C169.049 124.042 143.286 122.139 120.052 118.358C118.195 115.277 118.442 110.676 119.434 107.311C119.669 106.512 120.831 103.514 121.428 103.151C122.025 102.789 124.624 103.316 125.538 103.357C138.512 103.926 155.597 104.688 168.184 101.768C175.19 100.141 182.324 95.5523 187.213 90.3874L186.096 90.4821C185.977 90.3339 186.949 89.1806 187.118 88.987C188.605 87.286 191.175 84.8024 193.485 84.5347C203.502 83.3691 207.897 93.1511 212.18 100.314C215.867 106.479 218.993 112.88 223.338 118.63C226.378 122.65 230.064 126.299 231.992 131.064C230.991 135.722 228.272 139.396 224.619 142.333C214.223 150.69 196.327 148.416 185.343 142.251C181.875 140.307 179.296 138.256 178.444 134.133L178.448 134.12Z" fill="#031C51"/>
<path d="M180.655 67.002C182.591 71.0466 184.555 75.2395 187.772 78.4438C187.772 78.6663 185.832 80.0337 185.527 80.1202C185.222 80.2067 185.041 80.0378 184.864 80.0543C183.946 80.1284 184.893 80.6515 185.058 80.9769C185.305 81.467 185.379 82.2496 185.634 82.8262C186.207 84.1318 187.175 84.9268 188.147 85.9111V86.183C185.445 87.6452 184.057 91.1667 181.894 93.0819C180.692 94.1487 178.163 95.6396 176.705 96.4757C176.128 96.8094 173.167 98.4898 172.784 98.4568L170.984 97.007C174.633 96.1544 178.278 93.5185 180.28 90.3512C180.556 89.9105 181.812 87.6287 181.429 87.3074C180.082 88.1559 179.069 89.4697 177.788 90.4747C165.634 100.01 150.061 92.2169 149.34 77.237C151.206 77.9743 153.08 78.0484 154.937 77.237C154.307 79.9472 156.461 81.6441 159.093 81.1087C159.46 81.0345 160.757 80.3508 159.851 80.0625C159.295 79.8854 158.829 80.1984 158.389 80.1819C156.733 80.116 155.419 78.9669 156.424 77.3236C156.754 76.7881 158.603 75.8738 157.738 75.2642C157.544 75.1283 157.4 75.2848 157.227 75.3219C156.651 75.4454 157.268 74.7782 157.367 74.5352C158.051 72.8629 158.405 71.2443 158.323 69.4279C161.346 68.5341 160.629 69.9963 161.231 71.9733C164.209 81.7677 177.784 77.2618 175.465 67.7269L180.663 67.0102L180.655 67.002ZM178.356 72.0062C177.945 72.101 177.739 73.8968 177.702 74.3416C177.557 76.1621 177.306 80.2684 180.177 79.6177C182.212 79.1564 181.837 75.6761 180.593 75.9273C179.963 76.055 181.124 78.1679 179.806 78.518L179.279 78.3574C179.057 78.1185 178.842 76.9487 178.814 76.5698C178.76 75.919 179.493 71.7468 178.352 72.0104L178.356 72.0062ZM173.34 88.3535C174.81 86.9202 174.695 84.5231 173.023 83.3039C170.37 81.3722 165.428 81.8871 162.643 83.3493C162.199 83.5841 160.93 84.6137 160.769 84.659C160.3 84.7949 159.806 84.4902 159.32 84.4861C157.227 84.4696 156.968 86.4713 157.17 88.1435C157.577 91.5744 164.303 89.5068 166.412 89.3544C168.521 89.202 171.717 89.931 173.34 88.3535Z" fill="#FCF7ED"/>
<path d="M118.272 104.275C118.391 104.291 118.84 104.468 118.742 104.732C117.391 108.105 116.798 111.874 117.432 115.465C117.028 115.807 108.037 114.341 106.933 113.933C102.25 112.203 101.945 108.406 100.644 104.365C99.0911 99.5462 97.1635 94.8715 95.6602 90.0402C95.8084 89.4759 96.1297 87.6966 96.9081 88.5121C97.2541 88.8745 98.0078 90.3038 98.3085 90.8433C99.4576 92.8903 100.331 95.341 101.538 97.3139C102.452 98.809 103.066 99.085 102.551 97.0462C101.954 94.6861 100.491 91.7824 99.3629 89.6036C98.5474 88.0261 97.6289 87.5071 97.8389 85.5301C98.1643 82.4658 99.9725 85.9049 100.549 86.9264C101.929 89.377 102.917 92.3796 104.338 94.7026C104.482 94.9374 105.347 96.3789 105.677 96.07C105.706 95.7528 105.788 95.5099 105.735 95.1804C105.364 92.8698 102.769 87.9231 101.603 85.6866C101.426 85.3489 100.52 84.1257 100.5 84.0186C100.426 83.6314 100.883 81.6832 101.323 81.5391C101.488 81.4897 101.653 81.4979 101.818 81.5473C103.103 81.9304 106.892 92.6144 107.555 94.3854C107.794 94.4143 108.053 94.4514 108.206 94.2125C108.539 93.6853 106.439 87.2806 106.052 86.2798C105.615 85.143 105.104 83.9938 104.59 82.8941C104.075 81.7944 103.045 81.1849 104.293 80.0481C105.763 79.7021 108.235 86.3992 108.663 87.5854C110.352 92.2602 111.637 97.3262 113.556 101.906C113.914 102.759 114.145 103.694 114.907 104.283C115.949 104.394 117.267 104.13 118.264 104.283L118.272 104.275Z" fill="#FCF7ED"/>
<path d="M168.518 96.479C168.563 96.5037 168.851 97.0639 169.111 97.2821C169.823 97.8794 170.639 98.3571 171.351 98.9543C171.368 99.601 165.474 100.573 164.7 100.697C160.14 101.426 155.531 101.66 150.931 102.039C142.191 102.002 133.447 102.175 124.731 101.636C124.134 99.5639 122.746 97.8876 121.535 96.1619L122.005 95.8818C132.565 94.8191 143.08 93.3858 153.534 91.5859C156.594 94.1354 160.305 96.1124 164.362 96.4337C165.112 96.4913 168.196 96.2896 168.518 96.479Z" fill="#031C51"/>
<path d="M179.94 65.4726L175.216 66.4199C172.143 59.5951 162.229 60.2171 160.887 67.8821L158.032 68.1004C157.081 65.415 155.063 63.0261 152.011 62.9355C151.051 62.9066 150.083 63.335 149.152 63.3308L149.346 62.3135C151.747 62.3135 154.573 60.8678 155.837 58.8208C156.298 58.0753 157.225 56.3166 155.981 55.9706C155.553 56.0448 154.956 57.7417 154.643 58.1865C153.518 59.7722 151.302 60.7525 149.523 61.3703C150.087 55.74 154.437 51.0117 158.947 47.9844C162.991 52.0866 167.493 55.8018 172.226 59.0968C173.704 60.1265 178.968 63.0343 179.598 64.2246C179.701 64.4182 180.047 65.3655 179.936 65.4726H179.94ZM170.611 58.9485C168.115 58.7591 164.577 60.04 162.262 58.8043C161.999 58.6643 161.01 57.0868 160.734 58.1289C160.277 59.8546 163.922 60.7525 165.108 60.806C166.645 60.8761 170.055 60.6866 170.611 58.9444V58.9485Z" fill="#FCF7ED"/>
<path d="M78.6211 109.683L99.0336 108.555C99.4537 108.67 99.4084 114.741 99.5237 115.655L78.6252 116.961V109.687L78.6211 109.683Z" fill="white"/>
<path d="M98.5851 80.2145L78.8069 80.7747L78.6133 73.6205L98.1279 72.6113L98.3997 73.0314L98.5851 80.2145Z" fill="white"/>
<path d="M82.3555 101.104L97.3436 99.8145C97.6031 99.8927 97.6443 100.152 97.7514 100.354C98.6781 102.15 99.1105 105.033 99.8972 106.973L82.3555 108.003V101.1V101.104Z" fill="white"/>
<path d="M167.398 63.1032C176.311 62.1518 176.929 76.7363 167.538 75.9166C160.705 75.3194 160.578 63.8281 167.398 63.1032ZM166.838 67.5597C164.396 67.8727 165.31 72.8811 167.332 72.7493C169.495 72.6051 169.194 67.259 166.838 67.5597Z" fill="#FCF7ED"/>
<path d="M77.3166 73.4961V80.7739L62.0154 81.5153L61.4512 74.8018L77.3166 73.4961Z" fill="white"/>
<path d="M77.1267 109.497V116.771L62.0026 114.263C61.6731 114.04 61.8585 112.187 61.8255 111.643C61.7596 110.593 61.496 109.485 61.6401 108.377L77.1267 109.497Z" fill="white"/>
<path d="M80.8578 101.289V108.192L65.7461 107.072V101.289H80.8578Z" fill="white"/>
<path d="M99.3304 81.7031L99.1244 82.7987C97.7817 82.671 96.9786 83.1694 96.5873 84.4585C96.4226 85.0022 96.4225 86.2749 96.2578 86.555C96.1425 86.7486 94.532 87.5188 94.3591 88.1983L81.9946 88.2148L81.6074 82.0738L99.3345 81.7031H99.3304Z" fill="white"/>
<path d="M80.3033 82.2598L80.4886 88.232L65.5581 88.6067L65.1875 82.824L80.3033 82.2598Z" fill="white"/>
<path d="M151.541 64.2114C154.247 64.0673 156.319 66.4026 156.59 68.948C157.027 73.0338 155.029 78.2523 150.009 76.0858C144.84 73.8534 146.067 64.5039 151.537 64.2114H151.541ZM152.455 73.8081C153.53 72.8402 153.316 69.4628 151.66 69.2116C148.135 68.6762 149.976 76.0446 152.455 73.8081Z" fill="#FCF7ED"/>
<path d="M95.2292 93.6407L77.8769 95.5065L77.6875 89.7238L93.8083 89.5508C93.973 89.6002 94.0183 89.7073 94.0718 89.8556C94.4837 91.0088 94.6238 92.4998 95.2292 93.6407Z" fill="white"/>
<path d="M76.1965 89.7227C76.2418 91.2054 76.0606 92.7623 76.3818 94.1997L62.2257 94.4551L61.8262 90.0974L76.1924 89.7227H76.1965Z" fill="white"/>
<path d="M95.7589 95.1602L96.9039 98.4922L78.0483 99.8679C77.7683 98.8753 77.8918 97.8374 77.8712 96.8159L95.7589 95.1643V95.1602Z" fill="white"/>
<path d="M76.5675 95.6914V99.9831H62.7615L62.3867 95.8767L76.5675 95.6914Z" fill="white"/>
<path d="M259.991 169.373C259.937 164.36 257.713 159.179 253.327 156.539C253.014 156.349 251.296 155.768 251.593 155.385C254.192 154.483 256.877 156.559 258.5 158.458C260.802 161.148 262.899 166.531 259.991 169.377V169.373Z" fill="white"/>
<path d="M120.511 97.1855L123.217 101.663C122.154 101.626 121.256 101.271 120.321 102.029C120.033 102.264 119.852 102.762 119.675 102.874C119.279 103.117 118.476 102.902 117.994 102.968C118.077 100.979 116.643 99.2284 116.689 97.1855H120.515H120.511Z" fill="#FCF7ED"/>
<path d="M116.311 102.221L114.985 102.11L111.397 91.5495C111.191 90.9605 112.25 89.3089 112.703 89.1895L113.284 89.486L116.311 102.221Z" fill="#FCF7ED"/>
<path d="M188.711 60.4393C188.905 60.2251 190.136 61.5554 190.297 61.7408C190.886 62.4162 192.855 65.2376 192.97 65.9831C193.024 66.3291 192.863 66.6339 192.632 66.8769C191.982 67.2805 191.145 66.1931 190.795 65.7195C190.314 65.0646 188.283 60.9129 188.711 60.4393Z" fill="black"/>
<path d="M177.518 54.4704C178.712 54.3345 180.376 58.062 179.285 58.3874C178.135 58.7292 177.233 55.3106 177.518 54.4704Z" fill="black"/>
<path d="M224.348 2.24023V25.7418H157.361V8.48427C157.221 6.91503 156.055 7.91587 156.055 8.11357V25.7418H83.1906L82.9105 8.11357C82.8817 7.63168 82.4863 7.61931 82.0703 7.63166L81.8191 7.67696C81.7985 7.817 81.6049 8.04767 81.6049 8.11357V25.7418H2.11719V2.24023H224.348ZM45.5411 9.18032C45.1169 9.30388 44.8904 9.75282 44.841 10.1565C44.6021 11.9934 44.6803 16.6435 44.841 18.567C45.014 20.6387 46.5626 20.3874 48.2183 20.0621C55.3232 18.6699 54.4541 9.93819 48.4737 9.15563C47.9218 9.08149 46.0107 9.0444 45.5453 9.18032H45.5411ZM97.042 9.18032C96.6178 9.30388 96.3912 9.75282 96.3418 10.1565C96.1152 11.8987 96.177 16.5652 96.3418 18.3816C96.5848 20.9929 99.2414 20.2227 101.066 19.5431C105.654 17.8379 106.235 11.6351 101.577 9.60456C100.592 9.17621 98.0346 8.89612 97.0461 9.17619L97.042 9.18032ZM25.4417 11.1944H28.333C28.9837 11.1944 29.7622 9.50156 27.9705 9.32034C27.0397 9.22561 20.9975 9.2174 20.4456 9.45629C20.1408 9.58809 19.9926 10.0411 20.0255 10.35C20.1532 11.5115 22.7521 11.145 23.5717 11.1944V19.3083C23.5717 20.1362 25.4375 20.1362 25.4375 19.3083V11.1944H25.4417ZM59.1742 9.36976C53.2761 9.99169 53.4821 20.3133 59.4996 19.9673C65.6489 19.6131 64.891 8.76431 59.1742 9.36976ZM127.508 10.1688V16.3263C127.508 16.3716 127.863 16.5776 127.599 16.6064H127.323L122.941 10.0741C120.42 9.02382 121.33 12.3806 121.359 13.7068C121.384 14.9054 121.087 18.9829 121.713 19.6914C121.977 19.992 122.29 20.0579 122.661 19.8767L123.105 18.9953L123.126 13.435C124.217 14.5677 126.763 19.5143 127.937 20.0126C128.674 20.3216 129.246 19.8643 129.366 19.1106C129.58 17.7679 129.58 11.7092 129.366 10.3665C129.172 9.14325 127.99 9.05265 127.512 10.1688H127.508ZM138.143 15.8568C137.974 18.5628 135.042 19.1601 133.584 16.9606C132.286 15.0001 133.357 10.7825 136.17 11.2026C136.949 11.318 137.682 12.3517 138.518 11.8451C139.799 11.0708 137.426 9.52628 136.512 9.36976C132.266 8.64486 129.967 14.2093 131.726 17.5084C133.172 20.2186 137.035 21.1576 138.971 18.4516C139.63 17.5249 140.585 14.477 138.979 14.1764C138.497 14.0857 136.104 14.1022 135.795 14.3411C134.836 16.1039 136.928 15.8939 138.143 15.8527V15.8568ZM172.798 9.36569C172.168 9.50985 171.987 9.93818 171.917 10.5354C171.711 12.3023 171.752 16.3799 171.913 18.1963C172.011 19.3413 172.238 20.0991 173.502 20.1609C177.432 20.3463 181.316 17.0925 180.138 12.9572C179.318 10.0823 175.5 8.74783 172.798 9.36976V9.36569ZM203.825 13.8057C203.948 12.9201 203.524 11.7093 204.105 11.0091H207.836C208.425 11.0091 208.425 9.32859 207.836 9.32859H202.614C202.325 9.32859 201.992 10.2265 201.955 10.5354C201.741 12.3559 201.782 16.7012 201.951 18.5711C202.025 19.3948 202.292 19.9961 203.182 20.1362C203.961 20.2597 208.903 20.2762 209.055 19.6502C209.208 19.0241 208.911 18.2786 208.207 18.2786H203.821V15.2925H207.087C207.573 15.2925 207.371 13.8015 206.901 13.8015H203.821L203.825 13.8057ZM36.76 10.7002C32.5671 6.70497 26.945 14.0199 30.8578 18.5587C35.1001 23.4806 41.4265 15.1484 36.76 10.7002ZM109.921 9.55926C104.789 10.5272 104.789 20.857 111.355 19.9426C116.927 19.1683 116.408 8.33187 109.921 9.55926ZM117.751 9.53865C117.302 9.66221 117.1 10.3171 117.055 10.7207C116.857 12.43 116.857 17.0389 117.055 18.7482C117.24 20.3586 118.863 20.3874 119.102 18.9212C119.341 17.4549 119.291 12.2282 119.114 10.7207C119.032 10.0082 118.55 9.31623 117.751 9.53865ZM193.931 13.4309C193.96 13.4597 194.063 13.9333 194.224 14.164C195.196 15.552 196.988 18.6864 198.042 19.679C198.697 20.2968 199.484 20.371 199.858 19.4443C200.295 18.361 200.151 14.5017 200.097 13.1384C200.077 12.5824 199.887 9.96291 199.743 9.77757C199.236 9.13504 198.211 9.61281 198.087 10.3954L198.231 16.6064C196.456 14.9177 195.315 11.7669 193.577 10.1647C193.009 9.64162 192.321 9.67458 191.909 10.3789C191.353 11.3386 191.827 14.8807 191.897 16.1328C191.967 17.3849 191.452 19.5884 192.758 20.1074C194.142 20.2268 193.787 16.8824 193.763 15.9433C193.742 15.2019 193.458 14.5429 193.569 13.7068C193.602 13.4515 193.668 13.1632 193.94 13.4309H193.931ZM185.488 9.74458C179.079 10.8484 181.703 22.7599 187.757 19.6584C192.037 17.4673 190.657 8.85081 185.488 9.74458Z" fill="white"/>
<path d="M246.516 16.4707C260.03 15.2763 269.301 29.9679 262.699 41.7887C255.886 53.9843 238.332 52.8928 232.772 40.1741C228.147 29.5889 234.963 17.4963 246.516 16.4748V16.4707ZM246.331 18.5219C240.816 19.0861 235.746 23.419 234.049 28.6251C229.642 42.1511 244.823 53.9596 256.611 45.4008C268.399 36.8421 261.793 16.9444 246.331 18.5219Z" fill="white"/>
<path d="M254.95 11.7557L247.116 10.5407C246.354 10.1865 247.347 8.53485 247.318 7.85938L254.954 9.23502C255.482 9.68397 254.86 11.1255 254.954 11.7557H254.95Z" fill="white"/>
<path d="M240.023 15.2976C238.318 15.4953 236.852 16.4097 235.451 17.3076L234.273 15.7672C234.792 15.1741 235.348 14.6016 236.045 14.2185C236.588 13.9179 238.969 12.9417 239.368 13.4401L240.023 15.3059V15.2976Z" fill="white"/>
<path d="M252.498 13.085L252.523 15.2968C251.398 14.9591 249.928 15.1115 248.886 14.922C247.91 14.7449 248.841 13.2128 248.606 12.4961L252.498 13.0809V13.085Z" fill="white"/>
<path d="M265.24 21.4258L262.488 18.1019L263.662 16.9981C264.259 16.9075 266.088 19.9142 266.492 20.4661C266.685 20.9604 265.528 21.5946 265.236 21.4258H265.24Z" fill="white"/>
<path d="M35.3308 63.7943L35.8909 81.5173L15.3672 81.3279L16.3886 63.4277L35.3308 63.7943Z" fill="white"/>
<path d="M112.956 34.8826L112.581 52.7909L93.1738 52.6056L93.9234 34.6973L112.956 34.8826Z" fill="white"/>
<path d="M68.7322 35.066L69.1029 52.789L49.6953 52.4183L50.2555 34.8848L68.7322 35.066Z" fill="white"/>
<path d="M35.5165 34.8828L34.771 52.9765C28.4405 52.6635 22.0564 52.9188 15.7383 52.6017L16.3067 43.9358L16.2984 34.8828H35.5165Z" fill="white"/>
<path d="M35.329 93.4551L34.9584 110.989L15.3613 110.803L16.4817 93.2656L35.329 93.4551Z" fill="white"/>
<path d="M173.34 88.3509C171.717 89.9283 168.542 89.1993 166.412 89.3517C164.283 89.5041 157.578 91.5717 157.17 88.1408C156.972 86.4686 157.228 84.4669 159.32 84.4834C159.81 84.4834 160.3 84.7923 160.77 84.6563C160.93 84.611 162.199 83.5773 162.644 83.3466C165.428 81.8845 170.366 81.3654 173.023 83.3013C174.695 84.5204 174.815 86.9216 173.34 88.3509ZM162.026 88.4168C162.228 88.5898 165.436 87.906 166.038 87.8607C167.623 87.7454 171.841 88.4003 172.64 86.9999C173.76 85.0271 171.557 83.8408 169.905 83.6184C166.462 83.1489 162.224 84.3927 162.022 88.4168H162.026Z" fill="black"/>
<path d="M178.358 72.0045C179.499 71.7368 178.762 75.9132 178.819 76.5639C178.852 76.9429 179.062 78.1126 179.285 78.3515L179.812 78.5122C181.13 78.1621 179.968 76.0491 180.599 75.9214C181.842 75.6743 182.217 79.1505 180.183 79.6118C177.308 80.2626 177.563 76.1562 177.707 74.3357C177.74 73.895 177.946 72.0992 178.362 72.0004L178.358 72.0045Z" fill="black"/>
<path d="M170.61 58.9473C170.053 60.6895 166.647 60.879 165.107 60.8089C163.925 60.7554 160.276 59.8534 160.733 58.1318C161.009 57.0897 161.993 58.6631 162.261 58.8072C164.576 60.0429 168.114 58.7619 170.61 58.9514V58.9473Z" fill="black"/>
<path d="M166.839 67.561C169.195 67.2604 169.5 72.6065 167.333 72.7507C165.311 72.8825 164.396 67.8782 166.839 67.561Z" fill="black"/>
<path d="M152.453 73.8096C149.974 76.0461 148.129 68.6818 151.658 69.2131C153.314 69.4643 153.528 72.8417 152.453 73.8096Z" fill="black"/>
<path d="M193.929 13.4325C193.658 13.1607 193.596 13.4489 193.559 13.7084C193.447 14.5404 193.732 15.2036 193.752 15.9449C193.781 16.8799 194.135 20.2243 192.747 20.109C191.442 19.59 191.952 17.3535 191.887 16.1344C191.821 14.9152 191.343 11.336 191.899 10.3805C192.311 9.67619 192.999 9.63911 193.567 10.1663C195.305 11.7685 196.446 14.9235 198.221 16.608L198.077 10.397C198.201 9.61854 199.226 9.14077 199.733 9.77917C199.877 9.96452 200.066 12.584 200.087 13.14C200.14 14.5033 200.285 18.3626 199.848 19.4459C199.477 20.3726 198.691 20.2984 198.032 19.6806C196.977 18.688 195.186 15.5536 194.214 14.1656C194.053 13.935 193.95 13.4613 193.921 13.4325H193.929Z" fill="black"/>
<path d="M45.5408 9.18149C46.0103 9.04557 47.9173 9.08678 48.4692 9.1568C54.4538 9.93937 55.3187 18.667 48.2139 20.0632C46.5622 20.3886 45.0136 20.6399 44.8365 18.5681C44.6759 16.6447 44.5935 11.9946 44.8365 10.1576C44.89 9.75399 45.1124 9.30093 45.5367 9.18149H45.5408ZM46.7146 18.4693C52.8227 18.0986 53.0904 10.9031 46.7146 10.8207V18.4693Z" fill="black"/>
<path d="M127.507 10.169C127.985 9.05282 129.167 9.14755 129.36 10.3667C129.574 11.7094 129.574 17.764 129.36 19.1108C129.241 19.8604 128.668 20.3217 127.931 20.0128C126.753 19.5186 124.212 14.5679 123.12 13.4352L123.1 18.9955L122.655 19.8769C122.284 20.0622 121.975 19.9922 121.708 19.6916C121.082 18.9831 121.378 14.9014 121.353 13.707C121.329 12.3808 120.414 9.024 122.935 10.0743L127.317 16.6066H127.593C127.857 16.5778 127.503 16.3718 127.503 16.3265V10.169H127.507Z" fill="black"/>
<path d="M97.0406 9.18076C98.0291 8.89656 100.587 9.18077 101.571 9.60912C106.234 11.6397 105.653 17.8384 101.06 19.5477C99.2359 20.2273 96.5793 20.9974 96.3363 18.3861C96.1674 16.5739 96.1056 11.9032 96.3363 10.161C96.3898 9.75738 96.6122 9.30432 97.0365 9.18488L97.0406 9.18076ZM98.2103 18.2832C104.327 17.8507 104.726 10.9436 98.2103 10.82V18.2832Z" fill="black"/>
<path d="M172.797 9.36875C175.499 8.74682 179.317 10.0813 180.136 12.9562C181.314 17.0914 177.43 20.3493 173.501 20.1598C172.237 20.0981 172.01 19.3361 171.911 18.1952C171.751 16.3788 171.709 12.3054 171.915 10.5343C171.985 9.93712 172.171 9.50878 172.797 9.36462V9.36875ZM173.971 11.0121L173.793 17.981C173.946 18.57 175.445 17.9686 175.832 17.8163C180.445 15.9752 178.546 10.6579 173.971 11.0121Z" fill="black"/>
<path d="M59.1726 9.37176C64.8936 8.77043 65.6473 19.6151 59.498 19.9693C53.4764 20.3153 53.2746 9.99369 59.1726 9.37176ZM61.0178 11.8183C57.4304 8.33387 54.156 18.396 59.498 18.1118C62.1217 17.9717 62.7312 13.4864 61.0178 11.8183Z" fill="black"/>
<path d="M109.921 9.55909C116.404 8.33583 116.923 19.1681 111.354 19.9424C104.789 20.8568 104.789 10.527 109.921 9.55909ZM110.839 11.2519C107.507 11.3096 106.988 18.1179 110.448 18.2703C114.06 18.4268 114.373 11.1901 110.839 11.2519Z" fill="black"/>
<path d="M138.142 15.8559C136.927 15.8971 134.834 16.1072 135.794 14.3444C136.103 14.1055 138.496 14.089 138.978 14.1796C140.584 14.4803 139.633 17.5281 138.97 18.4549C137.038 21.165 133.17 20.2218 131.725 17.5117C129.966 14.2125 132.26 8.6481 136.511 9.373C137.421 9.52951 139.797 11.0699 138.517 11.8484C137.68 12.355 136.947 11.3212 136.169 11.2059C133.356 10.7858 132.285 15.0034 133.582 16.9639C135.04 19.1633 137.973 18.5619 138.142 15.86V15.8559Z" fill="black"/>
<path d="M185.485 9.74637C190.659 8.8526 192.034 17.4732 187.755 19.6602C181.7 22.7575 179.073 10.8502 185.485 9.74637ZM185.675 11.6081C182.487 12.2629 183.162 18.577 186.173 18.2763C189.349 17.9633 189.168 10.8873 185.675 11.6081Z" fill="black"/>
<path d="M36.7586 10.7019C41.4252 15.146 35.0987 23.4782 30.8564 18.5604C26.9436 14.0216 32.5657 6.71082 36.7586 10.7019ZM33.7931 11.4144C30.7493 11.8263 30.5434 18.2227 33.9332 18.1115C37.5041 17.9962 37.084 10.9655 33.7931 11.4144Z" fill="black"/>
<path d="M203.824 13.8069H206.905C207.379 13.8069 207.576 15.2979 207.09 15.2979H203.824V18.284H208.211C208.915 18.284 209.212 19.0378 209.059 19.6556C208.907 20.2734 203.96 20.261 203.186 20.1416C202.296 20.0015 202.029 19.4002 201.954 18.5765C201.786 16.7107 201.744 12.3613 201.959 10.5408C201.996 10.2278 202.325 9.33398 202.618 9.33398H207.84C208.429 9.33398 208.429 11.0145 207.84 11.0145H204.109C203.528 11.7147 203.952 12.9297 203.828 13.8111L203.824 13.8069Z" fill="black"/>
<path d="M25.4401 11.1965V19.3104C25.4401 20.1382 23.5743 20.1382 23.5743 19.3104V11.1965C22.7505 11.147 20.1516 11.5136 20.028 10.3521C19.9951 10.0391 20.1392 9.58604 20.4481 9.45836C21 9.22359 27.0422 9.22768 27.9731 9.32241C29.7647 9.50776 28.9863 11.1965 28.3355 11.1965H25.4442H25.4401Z" fill="black"/>
<path d="M117.751 9.53826C118.55 9.31585 119.032 10.0119 119.114 10.7203C119.287 12.2278 119.332 17.4957 119.102 18.9208C118.871 20.3459 117.24 20.3623 117.055 18.7478C116.857 17.0385 116.857 12.4255 117.055 10.7203C117.1 10.3167 117.302 9.66182 117.751 9.53826Z" fill="black"/>
<path d="M246.33 18.5232C261.792 16.9457 268.728 36.6045 256.611 45.4022C244.493 54.1998 229.637 42.1524 234.048 28.6264C235.745 23.4162 240.815 19.0833 246.33 18.5232ZM234.987 31.9009V34.9776C234.987 35.3112 235.374 36.6457 235.498 37.0781C235.597 37.4117 236.124 38.981 236.285 39.0963C236.853 39.5041 238.245 37.836 238.822 38.8039C239.147 39.4588 237.771 40.2619 237.302 40.4761L237.244 40.7273C238.9 43.664 241.878 45.7028 245.132 46.4606C245.548 46.3947 245.325 44.4878 245.651 43.9606C245.976 43.4334 246.623 43.4869 246.738 44.1171C246.878 44.8791 246.569 45.8634 246.82 46.646C247.385 47.4532 253.427 46.0323 254.391 45.2291C254.654 45.0067 254.506 45.0438 254.432 44.8338C254.263 44.3725 253.097 42.8238 253.946 42.5478C254.877 42.1648 255.437 44.1253 255.803 44.2077C258.48 42.5849 260.149 39.4505 260.923 36.4768L258.616 35.8343C257.628 34.2074 260.19 34.7511 261.104 34.887V31.6208C261.104 30.9741 260.441 28.9601 260.177 28.2599C258.575 24.0423 254.609 20.9532 250.194 20.146C249.806 23.1403 247.986 23.1733 248.608 19.9606C246.627 19.9524 244.452 20.2407 242.718 21.2581C244.209 24.5283 242.574 24.8249 241.239 21.8264C238.393 23.824 235.77 26.8266 235.383 30.381C235.906 30.6529 237.59 30.7188 237.767 31.2707L237.697 31.8926C237.31 32.6711 235.696 31.8556 234.987 31.8926V31.9009Z" fill="black"/>
<path d="M162.027 88.4177C162.225 84.3936 166.463 83.1498 169.911 83.6193C171.558 83.8458 173.766 85.028 172.645 87.0008C171.846 88.4053 167.629 87.7504 166.043 87.8616C165.442 87.9069 162.233 88.5907 162.031 88.4177H162.027Z" fill="white"/>
<path d="M46.7129 18.4689V10.8203C53.0887 10.9027 52.821 18.0982 46.7129 18.4689Z" fill="white"/>
<path d="M98.2109 18.2835V10.8203C104.727 10.9439 104.327 17.851 98.2109 18.2835Z" fill="white"/>
<path d="M173.97 11.0091C178.546 10.6549 180.445 15.9721 175.832 17.8132C175.449 17.9656 173.949 18.5669 173.793 17.978L173.97 11.0091Z" fill="white"/>
<path d="M61.0182 11.8164C62.7316 13.4845 62.1221 17.9698 59.4985 18.1099C54.1564 18.3941 57.4308 8.33195 61.0182 11.8164Z" fill="white"/>
<path d="M110.837 11.2523C114.371 11.1906 114.058 18.4272 110.446 18.2707C106.986 18.1183 107.501 11.3141 110.837 11.2523Z" fill="white"/>
<path d="M185.676 11.6082C189.169 10.8874 189.35 17.9634 186.174 18.2764C183.164 18.573 182.488 12.263 185.676 11.6082Z" fill="white"/>
<path d="M33.7942 11.4128C37.085 10.968 37.5052 17.9946 33.9342 18.1099C30.3633 18.2253 30.7504 11.8247 33.7942 11.4128Z" fill="white"/>
<path d="M234.986 31.9009C235.691 31.8639 237.305 32.6794 237.696 31.9009L237.766 31.279C237.589 30.7271 235.905 30.6612 235.382 30.3893C235.769 26.8307 238.393 23.8282 241.239 21.8347C242.573 24.829 244.212 24.5366 242.717 21.2663C244.451 20.2448 246.626 19.9607 248.607 19.9689C247.985 23.1815 249.81 23.1445 250.193 20.1542C254.612 20.9615 258.574 24.0464 260.177 28.2682C260.444 28.9725 261.103 30.9865 261.103 31.6291V34.8953C260.189 34.7593 257.627 34.2156 258.616 35.8425L260.922 36.4851C260.148 39.4588 258.48 42.5932 255.803 44.216C255.436 44.1336 254.876 42.1731 253.945 42.5561C253.096 42.8321 254.262 44.3849 254.431 44.8421C254.509 45.0562 254.658 45.0191 254.39 45.2374C253.426 46.0406 247.384 47.4615 246.82 46.6543C246.568 45.8717 246.877 44.8873 246.737 44.1253C246.622 43.4952 245.963 43.4622 245.65 43.9688C245.337 44.4754 245.547 46.403 245.131 46.4689C241.877 45.7111 238.895 43.6723 237.243 40.7356L237.301 40.4844C237.766 40.2702 239.142 39.4671 238.821 38.8122C238.24 37.8443 236.852 39.5082 236.284 39.1046C236.123 38.9893 235.596 37.42 235.497 37.0864C235.369 36.6539 234.986 35.3195 234.986 34.9859V31.9092V31.9009ZM254.901 25.5869C254.575 25.6528 253.418 26.6619 253.08 26.9543C251.943 27.9428 249.847 30.6117 248.706 31.1595C247.845 31.5714 246.885 31.2996 246.181 32.3663C244.381 35.0765 248.195 37.8525 250.102 35.1671C251.029 33.8614 250.238 33.1819 250.568 32.4652C250.724 32.1233 252.849 30.4305 253.368 29.8498C253.966 29.1867 255.617 27.0738 255.811 26.3036C255.881 26.0194 255.852 25.9164 255.621 25.731C255.407 25.5333 255.176 25.5334 254.905 25.5869H254.901Z" fill="white"/>
<path d="M254.901 25.587C255.173 25.5335 255.403 25.5335 255.617 25.7312C255.848 25.9165 255.877 26.0195 255.807 26.3037C255.613 27.078 253.966 29.1868 253.364 29.8499C252.841 30.4265 250.72 32.1235 250.564 32.4653C250.234 33.182 251.025 33.8574 250.098 35.1672C248.191 37.8526 244.377 35.0766 246.177 32.3665C246.886 31.3038 247.845 31.5756 248.702 31.1597C249.847 30.6119 251.944 27.9429 253.076 26.9544C253.414 26.662 254.571 25.6488 254.897 25.587H254.901ZM247.804 32.8607C246.906 33.1367 247.083 34.8047 248.13 34.7059C249.308 34.5947 249.303 32.4035 247.804 32.8607Z" fill="black"/>
<path d="M247.803 32.8595C249.306 32.4023 249.306 34.5935 248.128 34.7047C247.082 34.8036 246.905 33.1355 247.803 32.8595Z" fill="white"/>
</svg>
