<svg width="337" height="222" viewBox="0 0 337 222" fill="none" xmlns="http://www.w3.org/2000/svg">
<mask id="mask0_1_910" style="mask-type:alpha" maskUnits="userSpaceOnUse" x="0" y="21" width="337" height="201">
<path d="M2.59691 213.919L39.0587 27.1317C39.529 24.7353 41.6277 23.0012 44.0703 23.0012H329.387C332.634 23.0012 335.057 25.984 334.389 29.159L295.12 215.947C294.625 218.313 292.536 220.001 290.119 220.001H7.6085C4.39218 220.001 1.97994 217.069 2.59691 213.914V213.919Z" stroke="black" stroke-width="3.46192" stroke-miterlimit="10"/>
<path d="M48.8191 36.7445C50.21 36.7445 51.3375 35.6172 51.3375 34.2267C51.3375 32.8362 50.21 31.709 48.8191 31.709C47.4282 31.709 46.3006 32.8362 46.3006 34.2267C46.3006 35.6172 47.4282 36.7445 48.8191 36.7445Z" fill="black"/>
<path d="M56.3439 36.7445C57.7348 36.7445 58.8624 35.6172 58.8624 34.2267C58.8624 32.8362 57.7348 31.709 56.3439 31.709C54.953 31.709 53.8255 32.8362 53.8255 34.2267C53.8255 35.6172 54.953 36.7445 56.3439 36.7445Z" fill="black"/>
<path d="M63.8742 36.7445C65.2651 36.7445 66.3927 35.6172 66.3927 34.2267C66.3927 32.8362 65.2651 31.709 63.8742 31.709C62.4833 31.709 61.3558 32.8362 61.3558 34.2267C61.3558 35.6172 62.4833 36.7445 63.8742 36.7445Z" fill="black"/>
<path d="M36.0348 42.6004H331.729" stroke="black" stroke-width="2.07715" stroke-miterlimit="10"/>
</mask>
<g mask="url(#mask0_1_910)">
<path d="M-4.04463 17.3923H339.084L293.739 229.568H290.466L-2.17472 223.959L34.0492 43.3079L37.6169 43.3277L5.30493 216.015H290.466L329.735 43.5637L38.0284 43.3079L-4.04463 43.0963V17.3923Z" fill="black"/>
</g>
<path d="M289.267 105.395C281.053 95.5096 267.187 90.5696 255.256 86.6588C253.942 85.7868 253.157 80.0831 251.724 78.7127C250.465 77.5047 246.676 78.6585 246.306 77.131L247.069 65.664C255.179 66.119 261.044 57.3061 260.172 49.9395C260.019 48.6395 258.629 45.9962 258.728 45.4058C258.826 44.8371 260.292 42.8275 260.706 41.2404C262.908 32.823 260.003 21.4643 254.77 14.5581L258.041 11.2106C257.218 9.59104 253.228 9.79687 252.552 9.13063C251.745 8.3398 252.263 3.18316 249.331 1.9915C247.391 1.68817 249.593 5.1494 247.647 4.7919C246.3 4.54274 244.115 2.51692 242.692 1.88317C231.693 -3.03513 219.669 3.0315 208.583 4.80815L208.561 6.45481L210.251 7.0073C205.111 8.41021 199.938 9.99186 194.51 9.81311C194.063 11.476 198.985 14.2168 198.995 14.5635C196.766 16.6977 193.507 18.2739 192.15 21.1664C190.4 24.893 190.809 27.7963 195.632 27.1463C195.267 30.5371 197.578 33.7763 197.889 36.945C198.216 40.2708 197.028 39.1279 195.333 41.0996C192.373 44.55 192.716 50.7087 195.627 54.1049C196.614 55.2532 199.649 56.4557 200.031 57.7124C200.554 59.4457 200.331 63.4053 200.854 65.8427C203.111 76.3835 207.444 78.2577 215.685 83.5226C216.568 84.086 219.56 84.568 219.25 86.1118C218.127 87.4388 216.41 86.7347 214.889 87.3738C213.472 87.9697 212.954 89.7734 211.575 90.7863C208.943 92.7255 202.805 94.6321 199.399 96.5659C195.523 98.765 191.261 101.798 188.04 104.832C186.116 102.99 185.56 95.813 182.982 95.3363C175.455 95.4175 167.971 96.5496 160.477 97.01C154.448 97.3784 147.935 97.1454 141.929 97.5788C140.768 97.6654 136.282 98.1475 136.069 99.0142L146.638 132.521C141.411 135.793 136.042 140.896 136.582 147.601C136.941 152.048 140.604 158.072 143.193 161.706C145.139 164.442 148.573 167.21 149.99 169.485C154.121 176.136 155.855 180.323 161.659 186.395C164.259 189.114 167.437 189.093 166.38 194.282H138.827L123.811 139.612C120.906 131.064 108.261 133.421 100.739 133.204C82.2727 132.662 60.0945 131.947 41.8299 133.356C37.8728 133.659 32.5913 133.914 33.7032 139.162C39.9822 159.632 44.4897 180.648 51.1012 200.993H12.855C12.6533 201.036 12.4353 201.063 12.2009 201.063H8.78886C8.60354 202.022 8.5 202.537 8.5 202.537L11.4324 203.252C54.0009 203.647 96.6511 203.788 139.083 203.761C161.681 203.745 184.284 203.831 206.877 203.783L207.438 217.763L77.7542 218.31C77.9123 218.852 77.9177 219.442 77.7705 219.989L280.094 220C280.099 219.962 280.104 219.924 280.11 219.886C280.328 218.938 280.742 218.001 281.287 217.14C280.541 213.933 279.505 203.674 279.974 203.225C293.039 203.295 299.034 191.032 301.165 179.852C304.654 161.576 301.514 120.134 289.261 105.395H289.267ZM198.728 41.1158L199.568 53.9695C194.319 52.0195 194.232 43.9487 198.728 41.1158ZM136.892 202.141C123.375 203.582 103.208 202.32 89.0368 202.141C85.3086 202.093 81.5587 201.621 77.8523 201.54C73.5301 201.448 56.7479 202.326 54.2625 200.933C52.8835 200.159 52.5728 198.87 52.0714 197.521C45.34 179.289 42.7129 157.59 36.0523 139.076C35.2893 136.319 36.8699 136.096 39.1646 135.744C55.6742 133.226 77.5144 134.905 94.7053 135.571C102.358 135.506 109.705 135.322 116.627 136.14C118.698 136.384 119.854 137.386 121.069 138.994L138.805 201.291C138.293 202.103 137.726 202.06 136.887 202.152L136.892 202.141ZM200.135 37.4758C201.666 37.01 203.388 37.1292 204.953 36.6796C210.501 35.0817 202.522 33.4567 200.135 34.9625C199.808 31.3171 200.745 27.7801 201.824 24.3459H202.942C201.846 26.3068 202.609 28.5221 203.22 30.4938L213.352 21.5564C214.627 21.3234 214.126 22.1089 214.186 22.943C214.29 24.3839 213.99 26.0738 214.186 27.4388C214.295 28.208 213.87 28.3922 215.031 28.273C217.702 26.8159 236.588 17.2718 237.803 18.2089C235.819 22.9376 236.435 27.3955 238.266 31.9996C239.852 35.9863 243.292 39.2687 242.856 43.9054C239.564 44.9129 236.397 43.9054 233.334 44.4633C231.726 38.8029 225.327 36.1596 219.871 38.6675C216.224 40.3412 216.034 44.68 211.21 43.3637C210.414 43.1471 208.844 38.3533 204.282 37.7954C202.685 37.6004 201.208 38.635 200.129 37.4813L200.135 37.4758ZM225.082 55.6216C216.432 56.4395 213.461 41.7658 222.471 40.13C234.364 37.9742 233.612 54.8145 225.082 55.6216ZM201.252 39.9946C212.6 39.3337 210.076 52.4745 201.819 55.0907L201.252 39.9946ZM202.38 57.3278L206.844 61.5473C208.463 62.0403 218.263 62.0674 214.764 59.8249C212.169 58.9853 206.299 60.9407 205.732 57.0136C205.367 54.5057 208.158 53.4657 209.368 51.6999C210.839 49.5549 210.976 44.8804 214.246 46.4675C215.467 61.7261 233.922 61.6394 233.873 46.1425C236.451 46.4891 238.795 45.7362 241.444 46.7166C243.112 47.3341 244.36 49.5333 245.973 49.4899C247.162 49.4574 249.265 46.2129 251.713 45.7145C261.289 43.7591 257.959 59.9928 251.718 62.4953C249.467 63.3998 245.385 61.9807 244.665 64.429C243.717 67.6302 244.861 75.9664 244.578 79.991C244.066 87.2276 240.545 91.2305 235.846 96.4684C232.947 99.6967 229.589 102.589 226.281 105.395C225.152 105.427 221.517 91.6421 222.166 89.5784C222.313 89.1017 227 85.2234 227.981 84.178C228.957 83.138 229.219 81.7189 230.2 80.7926C232.958 78.1872 240.169 76.2372 240.054 71.3081C233.737 75.3706 229.987 80.3918 221.806 80.8306C207.94 81.5781 202.064 69.5531 202.386 57.3386L202.38 57.3278ZM138.838 99.8158L182.622 97.6546L197.328 139.78C192.853 140.018 182.889 142.428 182.66 148.181C182.595 149.773 183.494 154.719 184.383 155.997C185.113 157.053 186.797 157.709 187.042 158.104C187.364 158.624 187.151 159.583 187.506 160.135C189.713 163.58 195.311 163.629 198.848 165.655C199.491 166.023 204.359 169.847 204.07 170.237L160.771 171.922L157.359 153.814C162.45 152.628 165.458 148.257 160.21 145.072L162.493 141.99C162.619 141.101 159.932 139.975 159.741 138.55C159.566 137.261 162.466 136.21 158.798 132.792C155.435 129.656 152.388 131.785 148.42 131.644L138.844 99.805L138.838 99.8158ZM199.573 138.669C201.306 134.818 208.19 140.072 209.984 141.73C216.731 147.943 220.427 157.189 228.755 161.674C227.458 167.47 225.458 173.325 221.779 178.07C218.966 173.531 214.328 174.327 210.621 172.399C207.122 170.573 204.56 166.392 200.86 164.214C196.881 161.874 191.081 161.668 188.885 157.958C189.599 157.682 190.171 158.51 190.291 158.51H199.851C200.069 158.51 201.808 157.297 201.808 157.113C201.448 156.853 200.587 155.715 200.413 155.715H189.73C186.961 155.715 184.819 153.608 185.511 150.683H202.38V148.446H185.511C185.255 146.117 188.563 144.276 190.433 143.561C194.455 142.028 198.756 142.066 202.936 142.856C203.89 139.763 198.565 140.896 199.568 138.669H199.573ZM231.061 159.074L240.806 162.513C242.316 163.423 241.836 167.101 241.673 168.78C241.384 171.808 236.691 187.192 233.595 187.419L221.506 181.704C227.164 175.806 230.706 167.047 231.055 159.068L231.061 159.074ZM138.811 145.949C139.029 139.363 148.573 132.646 154.879 133.312C156.607 133.496 159.763 135.896 157.566 137.158C154.634 138.837 149.63 139.314 146.065 141.378C145.008 141.99 140.893 144.703 142.212 146.209L149.14 142.201C152.53 141.524 158.302 137.039 159.049 142.51C158.634 143.902 145.09 147.802 144.452 151.518C144.321 152.287 144.474 152.59 145.292 152.352C149.837 151.014 154.923 144.541 160.526 147.287L160.515 149.595C158.209 150.472 148.9 154.015 149.516 157.102C150.137 160.19 154.279 153.343 155.424 155.152L158.509 170.806C150.192 169.652 138.555 153.527 138.805 145.949H138.811ZM154.912 174.674C154.514 174.083 152.606 171.158 152.9 170.812C154.465 171.933 156.372 172.02 158.089 172.632C158.978 172.951 159.348 173.932 160.493 174.154C163.387 174.717 176.981 173.054 177.635 173.607C177.406 180.047 172.74 185.144 167.235 187.939C165.311 187.825 156.378 176.84 154.912 174.674ZM178.463 201.546L141.334 201.973L139.394 196.524H180.164C181.794 196.524 180.507 201.713 178.463 201.54V201.546ZM192.259 201.556H182.137C186.83 190.75 175.22 195.376 169.481 194.287C168.402 194.081 168.287 193.924 168.08 192.89C167.295 189.006 169.961 189.521 172.582 187.305C177.313 183.313 179.292 179.657 180.447 173.601H192.82L192.259 201.551V201.556ZM224.874 217.768C224.095 208.235 225.114 198.783 224.308 189.261C223.784 189.022 222.623 189.754 222.623 190.095V217.768H209.689C209.553 214.719 209.88 211.599 209.684 208.549C209.553 206.534 209.248 203.024 208.283 201.556H193.943L194.504 173.601C197.873 173.921 202.854 172.057 205.994 172.502C208.507 172.854 212.246 177.019 215.761 176.51C216.437 184.44 222.247 184.337 227.889 187.105C233.617 189.911 238.931 193.491 244.742 196.064C254.809 200.527 266.653 203.718 277.734 203.241L279.423 217.768H224.874ZM296.718 187.728C289.828 204.926 274.103 202.688 258.935 198.724C250.89 196.622 242.381 193.047 235.563 188.421C241.302 181.726 244.256 172.312 243.995 163.548C252.269 165.595 261.273 166.868 269.416 169.295C272.463 170.205 277.668 173.314 279.696 173.617C280.562 173.747 280.671 173.634 280.535 172.778L273.231 168.017C276.311 168.098 279.423 167.903 282.508 168.017C283.168 168.038 284.623 169.604 285.037 167.188C284.639 165.411 274.278 165.66 272.392 165.79C270.73 165.904 267.661 167.675 267.127 165.98C266.898 165.243 266.527 159.632 266.456 158.261C265.982 148.934 265.508 138.458 265.895 129.147C265.977 127.229 266.843 125.328 266.473 123.302C265.721 123.541 264.963 124.44 264.663 125.128C262.483 130.062 263.955 157.205 264.925 163.7C265.067 164.637 265.584 165.482 265.917 166.343C258.788 163.754 250.966 163.32 243.733 161.284C238.261 159.745 232.222 154.86 226.913 157.904C218.105 150.884 212.273 132.727 198.467 136.14L188.961 107.491C194.651 100.509 203.405 97.3567 211.096 93.1155L207.689 108.212C209.439 110.958 215.391 103.775 216.715 102.627L220.083 105.969C222.176 105.52 218.912 100.347 217.293 100.395L210.251 105.411C211.259 102.383 213.875 90.6238 216.443 89.4917C217.342 89.0963 218.279 89.1126 219.228 89.2209C219.637 92.3951 220.269 95.645 221.217 98.7054C221.893 100.894 224.28 105.232 224.346 106.82C224.498 110.611 222.803 117.528 222.596 121.883C222.225 129.716 222.057 140.457 222.596 148.203C222.727 150.055 222.754 152.498 224.869 151.816C224.199 137.548 224.275 123.362 225.545 109.16C230.527 104.75 235.22 100.785 239.476 95.6179C243.221 91.068 247.232 85.9709 248.775 80.251C254.83 84.4434 252.018 93.213 250.323 99.1333C249.511 101.982 247.887 107.453 246.502 109.869C246.197 110.405 246.104 110.655 245.69 110.145C244.938 109.219 244.3 107.719 243.406 106.809C242.354 105.731 236.44 100.834 235.552 101.506L235.241 103.196C239.111 105.27 242.054 110.443 245.374 112.713C245.962 113.114 245.995 113.433 246.807 113C249.287 111.678 255.103 92.4438 254.678 88.6413C268.473 93.538 284.47 98.8896 291.327 112.854C299.699 129.894 303.732 170.2 296.712 187.733L296.718 187.728Z" fill="black"/>
<path d="M282.514 168.016C283.173 168.038 284.623 169.603 285.043 167.188C284.645 165.411 274.284 165.66 272.398 165.79C270.735 165.904 267.667 167.675 267.132 165.98C266.903 165.243 266.533 159.637 266.462 158.261C265.988 148.934 265.514 138.458 265.901 129.147C265.982 127.229 266.849 125.328 266.478 123.302C265.726 123.54 264.969 124.44 264.669 125.128C262.489 130.062 263.96 157.205 264.93 163.699C265.072 164.636 265.59 165.481 265.922 166.343C258.793 163.754 250.972 163.32 243.739 161.284C238.266 159.745 232.227 154.859 226.919 157.904C218.11 150.884 212.278 132.727 198.472 136.14L188.967 107.491C194.657 100.509 203.41 97.3565 211.101 93.1153L207.695 108.211C209.444 110.958 215.396 103.775 216.721 102.627L220.089 105.969C222.182 105.519 218.917 100.346 217.298 100.395L210.256 105.411C211.265 102.383 213.881 90.6236 216.448 89.4915C217.347 89.0961 218.285 89.1124 219.233 89.2207C219.642 92.3948 220.274 95.6448 221.223 98.7052C221.899 100.894 224.286 105.232 224.351 106.819C224.504 110.611 222.809 117.528 222.602 121.883C222.231 129.715 222.062 140.457 222.602 148.202C222.732 150.055 222.76 152.498 224.875 151.815C224.204 137.548 224.28 123.362 225.55 109.159C230.532 104.75 235.225 100.785 239.482 95.6177C243.226 91.0678 247.238 85.9707 248.781 80.2508C254.836 84.4432 252.024 93.2127 250.328 99.1331C249.516 101.982 247.892 107.453 246.508 109.869C246.202 110.405 246.11 110.654 245.696 110.145C244.943 109.219 244.306 107.718 243.412 106.808C242.36 105.736 236.446 100.834 235.558 101.506L235.247 103.196C239.117 105.27 242.06 110.443 245.379 112.713C245.968 113.113 246.001 113.433 246.813 113C249.293 111.678 255.109 92.4436 254.683 88.6411C268.479 93.5377 284.476 98.8894 291.333 112.853C299.705 129.894 303.738 170.199 296.718 187.733C289.828 204.931 274.104 202.694 258.935 198.729C250.89 196.627 242.382 193.052 235.563 188.426C241.302 181.731 244.257 172.317 243.995 163.553C252.269 165.601 261.273 166.873 269.416 169.3C272.463 170.21 277.668 173.319 279.696 173.623C280.562 173.753 280.671 173.639 280.535 172.783L273.232 168.022C276.311 168.103 279.423 167.908 282.508 168.022L282.514 168.016Z" fill="#C4DEF9"/>
<path d="M39.1698 135.743C55.6794 133.224 76.3968 134.903 94.7106 135.57C102.679 135.499 109.71 135.32 116.633 136.138C118.704 136.382 119.859 137.384 121.075 138.993L138.811 201.29C138.298 202.102 137.731 202.059 136.892 202.151C123.375 203.592 103.208 202.33 89.0366 202.151C85.3084 202.102 81.5585 201.631 77.8521 201.55C73.5299 201.457 56.7477 202.335 54.2623 200.943C52.8833 200.168 52.5727 198.879 52.0712 197.53C45.3398 179.298 42.7127 157.599 36.0522 139.08C35.2891 136.323 36.8697 136.1 39.1644 135.748L39.1698 135.743ZM80.7791 160.291C71.8566 161.602 74.4019 175.506 84.4418 173.47C92.1161 171.915 89.1456 159.062 80.7791 160.291Z" fill="#0F172A"/>
<path d="M182.622 97.6574L197.328 139.783C192.853 140.021 182.89 142.431 182.661 148.184C182.595 149.776 183.495 154.722 184.383 156C185.113 157.056 186.798 157.712 187.043 158.107C187.364 158.627 187.152 159.586 187.506 160.138C189.714 163.583 195.311 163.632 198.849 165.658C199.492 166.026 204.359 169.85 204.07 170.24L160.771 171.925L157.359 153.817C162.45 152.631 165.459 148.26 160.21 145.075L162.494 141.993C162.619 141.104 159.932 139.978 159.741 138.553C159.567 137.264 162.466 136.213 158.798 132.795C155.435 129.659 152.388 131.788 148.42 131.647L138.844 99.8078L182.628 97.6466L182.622 97.6574ZM177.641 109.319L148.644 111.524L148.399 113.23C158.15 112.856 167.917 111.605 177.641 110.993V109.325V109.319ZM181.576 117.146L152.329 119.384V121.057L181.581 118.82V117.146H181.576ZM185.511 126.095L163.001 127.476L162.456 129.442C169.923 128.381 177.733 128.944 185.179 127.817L185.511 126.095Z" fill="white"/>
<path d="M193.942 201.556L194.503 173.601C197.872 173.921 202.854 172.057 205.993 172.501C208.506 172.853 212.245 177.019 215.76 176.51C216.442 184.44 222.247 184.337 227.888 187.105C233.616 189.91 238.931 193.491 244.741 196.064C254.808 200.527 266.652 203.717 277.733 203.241L279.422 217.768H224.874C224.094 208.235 225.114 198.783 224.307 189.26C223.784 189.022 222.623 189.753 222.623 190.095V217.768H209.689C209.552 214.719 209.879 211.599 209.683 208.549C209.552 206.534 209.247 203.024 208.282 201.556H193.942Z" fill="#C4DEF9"/>
<path d="M240.049 71.3027C233.731 75.3651 229.982 80.3863 221.8 80.8251C207.934 81.5726 202.059 69.5477 202.38 57.3332L206.844 61.5527C208.463 62.0456 218.263 62.0727 214.764 59.8302C212.169 58.9907 206.299 60.9461 205.732 57.019C205.367 54.5111 208.158 53.4711 209.368 51.7053C210.839 49.5603 210.976 44.8858 214.246 46.4728C215.467 61.7315 233.928 61.6448 233.873 46.1478C236.451 46.4945 238.795 45.7416 241.444 46.722C243.112 47.3395 244.36 49.5386 245.973 49.4953C247.162 49.4628 249.265 46.2183 251.713 45.7199C261.289 43.7645 257.959 59.9982 251.718 62.5006C249.467 63.4052 245.385 61.9861 244.665 64.4344C243.717 67.6356 244.861 75.9718 244.578 79.9964C244.066 87.233 240.545 91.2359 235.846 96.4737C232.947 99.7021 229.589 102.595 226.281 105.4C225.152 105.433 221.517 91.6475 222.166 89.5838C222.313 89.1071 227 85.2288 227.981 84.1834C228.957 83.1434 229.224 81.7243 230.2 80.798C232.958 78.1926 240.169 76.2426 240.049 71.3135V71.3027ZM255.234 47.827C254.291 46.7653 247.897 54.6411 249.614 56.7644C252.318 57.2627 251.522 54.9607 252.296 53.5686C253.332 51.6999 255.686 50.3403 255.228 47.827H255.234ZM226.559 64.039C222.525 65.7235 217.516 69.4718 212.9 68.3939C212.371 68.2693 208.043 65.1439 209.221 68.1393C210.316 70.9235 215.173 71.0427 217.718 70.6093C219.359 70.3277 228.494 66.0865 226.564 64.039H226.559Z" fill="#FCF7ED"/>
<path d="M185.51 148.447C185.254 146.117 188.563 144.276 190.432 143.561C194.455 142.028 198.755 142.066 202.936 142.857C203.889 139.764 198.564 140.896 199.567 138.67C201.3 134.818 208.184 140.072 209.978 141.73C216.725 147.943 220.421 157.189 228.749 161.674C227.452 167.47 225.452 173.325 221.773 178.07C218.96 173.531 214.322 174.327 210.615 172.399C207.116 170.574 204.554 166.392 200.854 164.214C196.875 161.874 191.075 161.669 188.879 157.958C189.593 157.682 190.165 158.511 190.285 158.511H199.845C200.063 158.511 201.802 157.297 201.802 157.113C201.442 156.853 200.581 155.716 200.407 155.716H189.724C186.955 155.716 184.813 153.609 185.505 150.684H202.374V148.447H185.505H185.51Z" fill="#FCF7ED"/>
<path d="M237.809 18.1982C235.825 22.927 236.441 27.3848 238.272 31.989C239.853 35.9756 243.298 39.2581 242.862 43.8947C239.569 44.9022 236.403 43.8947 233.34 44.4527C231.732 38.7923 225.333 36.149 219.877 38.6569C216.23 40.3306 216.04 44.6693 211.216 43.3531C210.42 43.1364 208.85 38.3427 204.288 37.7848C202.691 37.5898 201.214 38.6244 200.135 37.4706C201.667 37.0048 203.389 37.1239 204.953 36.6744C210.502 35.0765 202.522 33.4515 200.135 34.9573C199.808 31.3119 200.745 27.7748 201.825 24.3407H202.942C201.846 26.3015 202.609 28.5169 203.22 30.4886L213.352 21.5511C214.628 21.3182 214.126 22.1036 214.186 22.9378C214.29 24.3786 213.99 26.0686 214.186 27.4336C214.295 28.2028 213.87 28.3869 215.031 28.2678C217.702 26.8107 236.588 17.2666 237.803 18.2037L237.809 18.1982ZM221.496 36.6365C230.941 38.1098 232.68 32.7473 221.828 34.9194L221.496 36.6365Z" fill="#FCF7ED"/>
<path d="M192.82 173.608L192.259 201.557H182.137C186.83 190.751 175.221 195.377 169.481 194.288C168.402 194.082 168.288 193.925 168.081 192.891C167.296 189.007 169.961 189.522 172.583 187.306C177.314 183.314 179.292 179.658 180.448 173.602H192.82V173.608Z" fill="white"/>
<path d="M142.211 146.21L149.139 142.202C152.529 141.525 158.301 137.04 159.048 142.511C158.634 143.903 145.089 147.803 144.451 151.519C144.321 152.288 144.473 152.591 145.291 152.353C149.836 151.015 154.922 144.542 160.525 147.288L160.514 149.596C158.208 150.473 148.899 154.016 149.515 157.103C150.136 160.191 154.279 153.344 155.423 155.153L158.508 170.807C150.191 169.654 138.554 153.528 138.805 145.95C139.023 139.364 148.567 132.647 154.873 133.313C156.601 133.498 159.756 135.897 157.56 137.159C154.627 138.838 149.624 139.315 146.059 141.379C145.002 141.991 140.887 144.705 142.206 146.21H142.211Z" fill="#FCF7ED"/>
<path d="M231.061 159.075L240.806 162.515C242.316 163.425 241.836 167.103 241.673 168.782C241.384 171.81 236.691 187.193 233.595 187.42L221.506 181.706C227.163 175.807 230.706 167.049 231.055 159.07L231.061 159.075Z" fill="#C4DEF9"/>
<path d="M177.634 173.608C177.405 180.048 172.74 185.145 167.235 187.94C165.31 187.827 156.377 176.842 154.911 174.675C154.513 174.085 152.605 171.16 152.9 170.813C154.464 171.934 156.372 172.021 158.089 172.633C158.977 172.953 159.348 173.933 160.492 174.155C163.386 174.718 176.98 173.056 177.634 173.608Z" fill="#FCF7ED"/>
<path d="M139.394 196.527H180.164C181.794 196.527 180.507 201.716 178.463 201.543L141.334 201.971L139.394 196.521V196.527Z" fill="#0F172A"/>
<path d="M222.476 40.1303C234.369 37.9745 233.617 54.8094 225.087 55.6219C216.437 56.4398 213.466 41.7661 222.476 40.1303ZM221.898 45.6823C218.797 46.5978 220.955 51.3536 223.909 50.5411C226.586 49.8044 225.861 44.5124 221.898 45.6823Z" fill="#FCF7ED"/>
<path d="M201.819 55.0872L201.252 39.991C212.6 39.3302 210.076 52.4709 201.819 55.0872ZM204.468 45.6676C202.053 46.3339 202.424 50.7484 205.383 50.4939C208.746 50.2068 207.852 44.7306 204.468 45.6676Z" fill="#FCF7ED"/>
<path d="M199.562 53.9707C194.313 52.0207 194.226 43.9499 198.722 41.117L199.562 53.9707Z" fill="white"/>
<path d="M80.7794 160.295C89.1459 159.065 92.1164 171.919 84.4421 173.473C74.4023 175.505 71.8569 161.606 80.7794 160.295ZM80.763 162.526C75.3834 163.626 76.7678 173.436 84.3113 171.117C88.9987 169.676 86.0173 161.454 80.763 162.526Z" fill="black"/>
<path d="M177.64 109.317V110.986C167.911 111.598 158.149 112.849 148.398 113.223L148.643 111.516L177.64 109.312V109.317Z" fill="black"/>
<path d="M181.575 117.143V118.817L152.328 121.054V119.38L181.575 117.143Z" fill="black"/>
<path d="M185.511 126.093L185.179 127.816C177.734 128.942 169.923 128.379 162.456 129.441L163.001 127.475L185.511 126.093Z" fill="black"/>
<path d="M226.559 64.0403C228.488 66.0877 219.353 70.329 217.713 70.6106C215.173 71.044 210.311 70.9248 209.215 68.1406C208.038 65.1452 212.366 68.2706 212.894 68.3952C217.511 69.4731 222.525 65.7248 226.553 64.0403H226.559Z" fill="black"/>
<path d="M255.233 47.8259C255.691 50.3392 253.336 51.6988 252.301 53.5675C251.527 54.965 252.322 57.2617 249.619 56.7633C247.902 54.64 254.29 46.7642 255.238 47.8259H255.233Z" fill="black"/>
<path d="M221.495 36.6349L221.827 34.9178C232.674 32.7457 230.941 38.1082 221.495 36.6349Z" fill="black"/>
<path d="M221.898 45.6822C225.861 44.5122 226.586 49.8043 223.909 50.5409C220.955 51.3534 218.797 46.603 221.898 45.6822Z" fill="black"/>
<path d="M204.468 45.6647C207.852 44.7277 208.746 50.1985 205.383 50.491C202.424 50.7455 202.053 46.3364 204.468 45.6647Z" fill="black"/>
<path d="M80.7632 162.526C86.0175 161.454 89.0044 169.676 84.3115 171.117C76.768 173.435 75.3781 163.62 80.7632 162.526Z" fill="white"/>
</svg>
