<svg width="301" height="233" viewBox="0 0 301 233" fill="none" xmlns="http://www.w3.org/2000/svg">
<mask id="mask0_1_909" style="mask-type:alpha" maskUnits="userSpaceOnUse" x="0" y="52" width="301" height="180">
<path d="M2.58642 224.568L35.0945 57.6915C35.5138 55.5506 37.3849 54.0013 39.5627 54.0013H293.942C296.836 54.0013 298.996 56.6662 298.401 59.5028L263.391 226.379C262.949 228.493 261.087 230.001 258.931 230.001H7.05459C4.18702 230.001 2.03635 227.382 2.58642 224.563V224.568Z" stroke="black" stroke-width="3.46192" stroke-miterlimit="10"/>
<path d="M43.7965 66.2794C45.0366 66.2794 46.0419 65.2724 46.0419 64.0301C46.0419 62.7878 45.0366 61.7808 43.7965 61.7808C42.5564 61.7808 41.5512 62.7878 41.5512 64.0301C41.5512 65.2724 42.5564 66.2794 43.7965 66.2794Z" fill="black"/>
<path d="M50.5054 66.2794C51.7455 66.2794 52.7508 65.2724 52.7508 64.0301C52.7508 62.7878 51.7455 61.7808 50.5054 61.7808C49.2653 61.7808 48.2601 62.7878 48.2601 64.0301C48.2601 65.2724 49.2653 66.2794 50.5054 66.2794Z" fill="black"/>
<path d="M57.2192 66.2794C58.4593 66.2794 59.4646 65.2724 59.4646 64.0301C59.4646 62.7878 58.4593 61.7808 57.2192 61.7808C55.9791 61.7808 54.9738 62.7878 54.9738 64.0301C54.9738 65.2724 55.9791 66.2794 57.2192 66.2794Z" fill="black"/>
<path d="M32.3985 71.5111H296.03" stroke="black" stroke-width="2.07715" stroke-miterlimit="10"/>
</mask>
<g mask="url(#mask0_1_909)">
<path d="M-3.33496 48.99H302.587L262.159 238.548H259.241L-1.66781 233.537L30.6282 72.143L33.809 72.1607L5.00079 226.439H259.241L294.251 72.3715L34.1759 72.143L-3.33496 71.954V48.99Z" fill="black"/>
</g>
<path d="M214.204 192.007L207.124 188.702H220.4C222.314 188.702 225.74 186.708 226.837 184.994C226.837 184.994 231.907 176.752 238.562 155.727C238.562 155.727 244.483 140.82 245.444 135.583C245.889 133.154 243.588 131.048 241.119 130.98L221.608 130.893C217.747 131.092 210.942 131.092 210.98 131.135L182.055 131.092C179.861 122.457 178.005 113.653 175.376 105.135C170.673 89.8747 166.947 81.4968 153.188 72.7123C152.12 72.0299 149.321 71.5313 151.303 70.6359C153.589 69.6002 155.841 69.4744 158.108 67.7804C165.879 61.9724 161.24 49.7709 160.771 41.8963C160.37 35.1639 163.903 34.3847 161.631 27.0038C160.674 23.8917 160.79 23.8143 160.273 20.6247C156.982 0.301796 126.573 -6.01919 113.132 6.52113C104.583 14.4974 95.9172 39.6893 93.868 51.31C92.3456 59.9348 94.5446 67.6594 104.273 68.7435C103.674 67.277 103.084 65.6847 102.877 64.102C102.804 63.5551 102.403 61.4884 103.302 61.4981C103.785 64.1165 105.274 66.6817 107.391 68.2886C108.048 68.7871 109.155 68.4192 109.097 69.2275C96.1105 72.7607 85.4538 80.0739 78.9148 91.9559C72.3903 103.804 69.534 118.6 66.1268 131.624C65.4212 131.314 65.3728 129.199 65.2424 128.406C62.8742 113.62 62.2411 84.667 50.4438 75.0355C49.6802 74.4111 48.4671 74.3869 48.269 73.5932L92.6839 72.388C92.1185 71.541 91.3935 71.6911 90.5429 71.6281C77.8661 70.7569 62.2363 71.512 49.4966 72.1557C41.8701 72.5429 32.9533 70.4423 31.3729 79.8754C27.4486 103.267 31.3729 109.864 31.3729 109.864C33.4366 105.334 34.0939 75.0258 39.9466 74.1982C52.261 72.4558 56.5865 85.1171 58.6695 94.8502C61.4823 108 62.0091 122.027 64.7252 135.254C63.5025 142.703 62.3184 150.461 62.7582 157.944L58.4182 169.352C57.9204 154.788 50.2843 140.249 37.738 132.747L31.3729 101.636V109.859L35.7419 132.321C35.7419 132.321 19.0827 129.616 31.3729 153.389C33.4801 157.469 31.3729 135.007 31.3729 135.007C38.9027 132.457 45.1807 140.176 48.9504 145.694C54.8032 154.246 56.7073 162.692 57.4613 172.972C57.5483 174.167 57.3308 174.327 56.9055 173.044C56.0984 170.629 55.5088 168.137 54.4793 165.794C49.6512 154.817 40.6716 145.079 33.0548 135.98L31.8562 137.18C40.6426 147.199 49.8204 157.644 54.5422 170.32C46.8529 163.626 37.7573 158.699 31.3729 150.49V153.394L41.4303 162.382L41.0244 165.968C29.4832 158.21 18.3191 166.467 31.3729 177.095V164.521C42.0973 165.886 52.377 175.513 53.5901 186.524L49.9702 181.931C44.4848 176.108 38.0714 171.283 31.3729 166.941V168.877C38.2647 173.48 45.1324 178.402 50.207 185.077L37.3272 179.119L31.3729 174.685V177.105L42.3728 183.741L45.8622 199.592L42.3003 199.906L41.5753 200.632C41.0582 202.215 42.6241 212.122 43.0204 214.528C43.552 217.766 45.577 229.343 47.7422 231.075C48.4043 231.608 48.5976 231.676 49.4482 231.787C54.1894 232.406 62.2556 231.85 67.3592 231.787C85.4297 231.545 103.809 230.896 121.88 230.78C152.062 230.582 182.258 231.167 212.43 230.562L212.909 229.352L208.617 229.294C208.796 227.126 204.934 223.027 205.263 221.488C205.65 219.697 208.438 218.119 206.375 215.331C204.253 212.747 191.871 208.434 190.803 206.518C190.489 205.956 190.759 204.243 190.493 203.192C188.691 196.083 177.841 191.615 171.123 192.09C166.822 192.395 164.004 194.766 160.075 195.971C151.569 192.714 142.72 190.255 133.725 188.716C133.745 187.855 135.77 188.218 136.393 188.223C138.79 188.227 141.328 188.692 143.599 188.745C161.375 189.176 181.842 187.182 199.135 188.731C204.364 189.2 212.131 192.027 216.244 195.294C225.953 203.009 225.914 219.498 227.872 230.809H229.317C230.008 230.151 227.195 214.199 226.678 211.924C224.663 203.047 222.299 196.804 214.19 192.027L214.204 192.007ZM125.553 26.9409C128.197 24.9613 132.193 23.6546 135.021 21.9122C140.047 18.8243 143.266 12.7889 143.391 6.84056C144.058 6.06617 149.075 11.2449 149.65 11.9322C152.158 14.9136 154.135 18.65 155.454 22.3139C152.879 21.9122 150.796 23.1076 149.563 25.3582C148.423 27.4297 149.157 29.2689 146.079 29.5932C143.198 20.436 132.135 20.8232 129.864 30.0626L123.596 29.5738C123.03 29.0947 125.181 27.2264 125.553 26.9457V26.9409ZM135.683 38.9923C129.091 36.6256 130.657 26.06 136.007 24.8355C148.075 22.0767 146.19 42.7627 135.683 38.9923ZM115.873 65.8492C116.873 66.4446 116.839 67.9885 118.009 68.7774C118.589 69.1646 119.067 69.5324 119.758 69.0242C123.774 63.9084 119.792 33.5377 123.083 31.2388L129.869 31.5098C129.178 44.6115 146.91 44.3163 145.861 31.079L148.191 30.5515C147.997 33.2957 152.787 36.4707 153.053 38.0631C153.521 40.8509 150.97 43.4015 148.215 43.1208V44.568C151.269 45.0375 154.444 42.0512 154.536 39.0117C154.643 35.4737 152.859 35.6092 151.39 33.4119C146.591 26.2294 156.237 19.197 159.891 27.3136C161.733 31.4033 160.974 39.6264 154.986 37.3129C155.087 39.4328 156.407 40.0378 158.364 39.728C158.383 50.7825 150.8 66.0428 137.573 63.2163C135.306 62.7323 134.426 60.9028 132.29 60.5301C132.851 64.6054 138.085 65.2249 141.458 64.8861C142.671 71.1296 144.184 76.8166 136.272 78.7864C128.931 80.6159 111.726 76.2454 115.882 65.8541L115.873 65.8492ZM68.7898 126.789C72.1487 113.426 76.9236 94.555 86.1691 84.2217C93.0464 76.5358 103.49 71.9089 113.451 69.7212C114.824 80.2675 136.63 84.6912 142.425 77.2134C143.783 75.4614 144.662 72.8236 143.88 70.6892C171.485 77.62 173.694 108.281 180.571 131.14C176.115 130.942 173.467 133.749 171.65 137.442C169.412 141.982 167.653 148.065 166.082 152.91C165.947 153.051 165.502 152.654 165.357 152.426C164.966 151.812 165.033 143.022 165.13 141.546C166.198 125.037 170.384 118.551 163.685 101.389C163.516 100.963 161.766 95.6633 160.78 96.8056C161.554 101.433 163.82 105.73 164.884 110.343C168.054 124.103 163.25 136.629 163.656 150.752C163.7 152.276 164.54 154.043 164.381 155.403C163.99 158.728 159.983 165.484 158.601 168.868C156.784 159.681 148.539 154.299 139.341 155.379C134.803 155.911 128.182 160.049 123.832 159.197C122.469 158.931 122.634 157.508 121.305 156.894C117.206 154.996 110.561 153.665 105.965 151.947C102.316 150.582 98.7976 148.883 95.1487 147.538C98.9861 135.922 101.059 123.648 101.755 111.398C101.915 108.601 100.335 108.48 99.9962 111.606C99.8367 113.058 100.088 114.505 99.9334 115.899C98.8991 125.439 97.6861 135.07 94.622 144.193C93.752 143.995 93.9695 142.795 93.1576 142.04C88.3971 137.597 77.0976 141.919 72.8929 145.883L64.2129 155.8C64.1743 145.883 66.3974 136.304 68.7898 126.779V126.789ZM143.875 159.918C144.701 160.606 147.093 161.22 148.471 162.087C152.419 164.575 156.257 170.078 156.242 174.835C156.242 175.237 156.155 176.742 155.469 176.602C153.816 172.439 148.664 166.365 144.633 164.478C142.376 163.423 141.357 164.575 143.034 165.61C145.996 167.435 147.751 168.306 150.138 171.055C151.221 172.299 156.068 178.596 154.483 179.98C153.816 180.077 153.197 180.033 152.574 179.738C150.912 178.944 146.649 173.398 144.585 171.781C143.014 170.547 141.178 169.55 139.298 168.868L138.79 170.334C143.672 172.42 147.553 176.215 150.636 180.469C144.716 181.635 144.72 179.23 141.139 176.689C135.436 172.643 134.131 175.944 128.931 177.352C122.697 179.041 119.449 175.973 113.461 175.634C114.664 172.188 117.869 161.859 121.208 160.383C121.807 160.117 125.862 160.751 127.583 160.519C131.555 159.981 135.635 157.281 139.83 156.826C148.954 155.838 156.155 161.83 157.397 170.799L154.222 165.523C152.627 163.418 146.842 158.176 144.136 158.709C143.706 158.791 143.217 159.357 143.884 159.918H143.875ZM123.596 186.761C107.768 183.62 93.1431 192.574 85.9951 206.411L83.7671 211.919C78.5717 204.843 81.022 197.094 80.1859 189.234C83.7429 186.979 88.7064 182.173 87.3822 177.579C95.7819 180.087 104.554 180.498 113.219 181.49C115.351 181.505 115.476 179.186 115.384 177.57C118.676 177.468 121.484 179.598 124.799 179.544C131.343 179.438 137.606 172.439 142.425 180.474H122.871C120.807 180.474 121.754 185.851 123.596 186.756V186.761ZM61.7916 195.468C67.9247 188.59 76.0295 181.384 85.449 179.995C85.5795 179.361 85.2508 178.78 84.6419 178.601C80.3212 177.323 64.9379 188.382 62.2797 192.574C63.8795 186.166 71.8152 177.468 78.504 176.665C83.9266 176.016 88.3488 177.129 84.4051 183.058C79.7364 190.086 69.1812 192.477 61.7916 195.468ZM79.6494 190.154L78.6925 200.313C73.0234 199.374 67.2239 200.245 61.5451 199.829C59.6893 199.693 60.0228 198.754 61.173 197.869C65.339 194.674 74.9083 193.203 79.6494 190.154ZM72.4145 169.11C81.6309 164.938 89.6392 158.036 93.665 148.554L120.696 158.234C121.01 159.507 119.758 159.241 118.985 160.131C115.201 164.492 112.818 172.023 111.523 177.57L113.93 177.091V179.511C99.6047 179.307 84.6515 176.873 72.4145 169.105V169.11ZM59.9841 170.692C61.811 159.255 74.3138 141.309 87.1405 141.754C98.1887 142.137 90.2481 152.605 86.4252 157.034C79.2048 165.397 69.3165 167.585 61.3132 174.675C64.2661 168.04 68.8284 159.894 74.6666 155.412C79.0066 152.078 84.6371 150.974 88.3343 146.865C86.8312 144.987 85.884 147.233 84.6467 147.998C82.844 149.106 80.5435 149.851 78.8375 150.887C70.4523 155.969 64.1598 163.742 60.3321 172.74C59.4138 172.817 59.8971 171.21 59.9793 170.692H59.9841ZM58.9063 180.73C59.3703 178.301 67.8763 170.765 70.3556 170.402C72.2985 170.116 76.6047 174.308 79.171 174.196L71.9698 177.376C68.2098 180.009 65.0925 183.537 62.6761 187.409L59.3848 194.5C59.2205 190.551 58.1862 184.52 58.9063 180.725V180.73ZM49.4869 173.219C46.9448 170.189 41.9185 168.103 42.4839 164.037C43.1315 163.355 49.5159 168.132 50.4342 168.887C54.489 172.207 56.3255 173.756 56.9587 179.278C57.4661 183.707 57.0312 188.624 57.9252 193.053C57.2293 193.169 57.2921 192.24 57.0891 191.727C54.344 184.752 54.7258 179.457 49.4869 173.219ZM44.1706 184.346C52.3577 186.577 56.34 191.838 58.4085 199.829H47.3024L44.1658 184.346H44.1706ZM42.9576 201.76C47.0607 201.707 51.1833 201.828 55.2913 201.779C58.2249 201.745 61.0183 201.75 63.9423 201.779C67.7507 201.818 73.5261 201.218 77.001 201.755C77.4891 201.832 77.9192 201.924 78.0932 202.462L75.3288 214.61H44.8617L42.9624 201.755L42.9576 201.76ZM51.3862 230.32C45.5867 229.793 46.5678 220.626 44.8907 216.27H74.8261L71.4672 229.59C64.9234 229.599 57.8769 230.906 51.3862 230.32ZM73.3811 229.812L78.9342 205.138C78.9825 208.023 83.424 212.48 83.9024 214.194C84.2311 215.355 83.9121 216.836 84.2166 218.23C84.9947 221.802 87.1164 224.759 89.789 227.155L93.6554 229.807H73.3762L73.3811 229.812ZM182.5 229.328H180.083C179.837 229.077 180.799 225.974 178.885 225.94L178.643 229.333H175.743C175.526 229.101 176.343 226.11 174.298 226.429L174.777 229.328H139.047C136.466 223.69 140.071 217.349 145.653 215.379C149.824 218.995 154.449 222.77 160.181 223.39C166.599 224.087 168.064 220.055 170.654 219.861C173.738 219.634 183.476 225.03 182.5 229.328ZM184.868 198.173C187.188 199.979 190.527 204.509 189.015 207.568C188.884 207.829 184.911 211.198 184.597 211.367C181.412 213.061 181.809 208.71 179.605 210.704C183.674 218.264 188.28 208.415 190.861 208.637C191.62 208.7 196.395 211.687 197.772 212.33C198.294 212.572 202.271 213.724 201.807 214.329C197.264 215.128 199.304 220.708 203.185 221.178C204.002 223.767 201.527 225.814 199.164 225.868C197.231 225.911 195.515 224.295 194.225 224.096C191.122 223.617 193.649 225.931 195.539 226.661C199.628 228.23 202.059 227.237 205.181 224.493L207.119 229.323H200.841L201.324 227.881L200.121 227.867C199.836 227.959 199.749 228.864 199.41 229.077C197.69 230.161 186.772 228.786 183.945 229.333C184.336 222.789 175.492 218.714 169.949 218.201C171.36 213.632 172.07 208.744 174.361 204.49C174.55 204.141 177.531 201.445 175.502 201.29C172.5 201.058 168.267 216.807 167.759 219.643C163.733 224.595 151.25 219.764 148.693 215.559C145.035 209.543 153.657 202.292 158.108 199.335C166.759 193.585 175.961 191.252 184.873 198.178L184.868 198.173ZM158.354 196.93C153.869 200.535 148.529 203.827 146.615 209.586C146.219 210.777 146.407 212.635 145.847 213.535C145.484 214.116 143.382 214.474 142.444 215.084C139.119 217.253 136.471 221.991 136.142 225.94C135.156 225.384 134.881 223.898 133.991 223.022C133.653 222.688 132.319 221.589 132.044 221.589H124.321C124.238 221.589 123.484 222.63 123.117 221.831C131.86 216.628 126.331 206.125 117.806 205.143C117.39 207.297 119.652 207.084 121.029 207.95C127.491 212.006 128.061 217.349 121.029 221.187C119.531 222.005 116.907 221.667 117.322 223.999C123.832 223.854 134.267 219.561 135.185 229.319L132.309 229.299C132.261 228.05 132.189 226.211 130.603 225.931C128.757 225.601 131.352 228.413 130.84 229.323H98.2515C92.5728 228.617 86.0821 222.828 85.4587 216.991C84.3809 206.929 93.5877 196.383 101.867 191.828C111.726 186.408 119.323 187.472 129.965 189.331C139.617 191.015 149.06 193.972 158.364 196.92L158.354 196.93ZM150.419 186.795C143.295 187.685 134.175 186.161 126.834 186.664C125.321 186.32 123.784 184.443 123.17 183.068L123.837 181.931H153.531L151.844 186.287C151.496 186.829 150.95 186.727 150.423 186.795H150.419ZM153.526 186.766L173.23 138.066C174.859 134.756 175.922 133.4 179.817 133.057C191.803 131.997 206.718 133.158 218.969 133.095C219.97 133.091 242.182 133.265 242.182 133.265C243.845 135.23 237.789 151.792 234.072 163.703C232.25 169.54 228.626 179.065 225.561 183.712C224.788 184.883 222.734 186.761 221.362 186.761H153.526V186.766Z" fill="black"/>
<path d="M32.0303 89.7446C32.8519 81.0423 34.0988 75.0263 39.9467 74.1986C52.2611 72.4563 56.5866 85.1176 58.6696 94.8507C61.4824 108.001 62.0092 122.027 64.7253 135.255C63.5026 142.703 62.3185 150.462 62.7583 157.944L58.4183 169.352C57.9205 154.789 50.2844 140.249 37.7381 132.748L32.5765 107.517C31.779 103.611 31.4842 99.6229 31.7017 95.6445L32.0255 89.7446H32.0303Z" fill="#D9D9D9"/>
<path d="M31.3735 135.01C38.3233 131.148 45.1813 140.179 48.951 145.697C54.8037 154.249 56.7079 162.695 57.4618 172.975C57.5488 174.17 57.3362 174.33 56.906 173.048C56.0989 170.632 55.5093 168.14 54.4799 165.797C49.6518 154.82 40.6721 145.082 33.0554 135.983L31.8568 137.184C40.6431 147.202 49.8209 157.647 54.5427 170.323C46.8535 163.629 37.7578 158.702 31.3735 150.493C31.3735 150.493 25.9799 138.011 31.3735 135.015V135.01Z" fill="#C4DEF9"/>
<path d="M31.3731 164.517C42.1748 164.014 52.3772 175.509 53.5903 186.52L49.9704 181.926C44.485 176.104 38.0716 171.279 31.3731 166.937C31.3731 166.937 26.4967 164.745 31.3731 164.517Z" fill="#C4DEF9"/>
<path d="M31.3724 168.871C38.2642 173.474 45.1318 178.396 50.2064 185.07L37.3266 179.112C37.3266 179.112 32.5999 176.073 31.3724 174.679C21.9722 163.973 31.3724 168.876 31.3724 168.876V168.871Z" fill="#C4DEF9"/>
<path d="M31.3724 153.394L41.4298 162.382L41.0239 165.969C38.0323 164.425 34.8667 162.716 31.3724 163.065V153.39V153.394Z" fill="white"/>
<path d="M113.446 69.7173C114.819 80.2636 136.625 84.6873 142.42 77.2096C143.778 75.4575 144.657 72.8197 143.874 70.6853C171.48 77.6161 173.689 108.277 180.566 131.136C176.11 130.938 173.462 133.745 171.645 137.438C169.407 141.978 167.648 148.062 166.077 152.906C165.942 153.047 165.497 152.65 165.352 152.422C164.961 151.808 165.028 143.018 165.125 141.542C166.193 125.033 170.378 118.548 163.68 101.385C163.511 100.959 161.761 95.6594 160.775 96.8017C161.549 101.429 163.815 105.727 164.879 110.339C168.049 124.099 163.245 136.625 163.651 150.748C163.694 152.272 164.535 154.039 164.376 155.399C163.984 158.724 159.978 165.481 158.596 168.864C156.778 159.677 148.533 154.295 139.336 155.375C134.798 155.907 128.177 160.045 123.827 159.193C122.464 158.927 122.629 157.504 121.3 156.89C117.201 154.992 110.556 153.661 105.96 151.943C102.311 150.578 98.7926 148.88 95.1437 147.534C98.9811 135.918 101.054 123.644 101.75 111.394C101.91 108.597 100.329 108.476 99.9912 111.602C99.8317 113.054 100.083 114.501 99.9283 115.895C98.8941 125.435 97.681 135.066 94.6169 144.19C93.747 143.991 93.9645 142.791 93.1525 142.036C88.392 137.593 77.0926 141.915 72.8879 145.879L64.2079 155.796C64.1692 145.879 66.3924 136.301 68.7847 126.775C72.1436 113.412 76.9186 94.5414 86.164 84.2081C93.0413 76.5223 103.485 71.8953 113.446 69.7076V69.7173Z" fill="#0F172A"/>
<path d="M153.357 186.781L173.061 138.082C174.689 134.771 175.752 133.416 179.648 133.072C191.634 132.012 206.548 133.072 218.8 133.111C220.931 133.121 234.985 132.472 241.297 132.942C243.148 133.082 244.289 134.607 243.931 135.797C241.722 143.188 234.512 162.33 233.903 163.714C231.452 169.314 228.456 179.076 225.392 183.722C224.619 184.894 222.565 186.772 221.197 186.772H153.361L153.357 186.781ZM203.47 153.991C197.365 154.552 194.301 164.266 202.411 164.484C210.134 164.692 210.434 153.347 203.47 153.991Z" fill="#C4DEF9"/>
<path d="M207.93 158.55C208.848 164.76 199.26 166.967 198.1 161.27C196.582 153.822 206.949 151.929 207.93 158.55ZM206.268 158.541C205.451 154.548 198.129 155.579 199.859 161.178C200.932 164.658 207.065 162.447 206.268 158.541Z" fill="black"/>
<path d="M98.2465 229.333C92.5678 228.627 86.0771 222.838 85.4537 217.001C84.3759 206.939 93.5827 196.393 101.862 191.838C111.721 186.417 119.318 187.482 129.96 189.341C139.612 191.025 149.056 193.982 158.359 196.93C153.874 200.536 148.534 203.827 146.62 209.586C146.223 210.777 146.412 212.635 145.851 213.536C145.489 214.116 143.386 214.47 142.449 215.084C139.124 217.253 136.475 221.991 136.147 225.94C135.161 225.384 134.885 223.898 133.996 223.022C133.658 222.688 132.324 221.589 132.048 221.589H124.325C124.243 221.589 123.489 222.63 123.122 221.831C131.865 216.628 126.336 206.126 117.81 205.143C117.395 207.297 119.657 207.084 121.034 207.95C127.496 212.006 128.066 217.35 121.034 221.188C119.531 222.006 116.911 221.667 117.327 224C123.837 223.854 134.271 219.561 135.19 229.319L132.314 229.299C132.266 228.051 132.193 226.212 130.608 225.931C128.762 225.602 131.357 228.414 130.845 229.324H98.2562L98.2465 229.333Z" fill="#D9D9D9"/>
<path d="M154.981 37.3086C155.078 39.4285 156.402 40.0335 158.359 39.7237C158.379 50.7782 150.796 66.0385 137.568 63.212C135.301 62.728 134.422 60.8985 132.285 60.5258C132.846 64.6011 138.08 65.2206 141.454 64.8818C142.667 71.1253 144.179 76.8123 136.268 78.7821C128.927 80.6116 111.726 76.2412 115.878 65.8498C116.878 66.4451 116.844 67.989 118.014 68.7779C118.594 69.1651 119.072 69.533 119.763 69.0248C123.779 63.909 119.797 33.5383 123.088 31.2393L129.874 31.5103C129.183 44.6121 146.915 44.3168 145.866 31.0796L148.196 30.552C148.002 33.2963 152.792 36.4713 153.058 38.0636C153.526 40.8514 150.974 43.4021 148.22 43.1214V44.5685C151.274 45.038 154.449 42.0517 154.541 39.0122C154.648 35.4742 152.864 35.6098 151.395 33.4124C146.596 26.2299 156.242 19.1975 159.896 27.3141C161.738 31.4039 160.979 39.6269 154.991 37.3134L154.981 37.3086ZM155.237 29.0952C153.758 29.5405 154.251 34.6418 156.648 33.9206C158.127 33.4753 157.634 28.374 155.237 29.0952ZM148.698 51.3396C146.755 51.2622 145.697 52.3754 143.633 52.3415C141.652 52.3076 139.593 51.0202 138.22 50.9379C137.558 50.8992 136.973 51.4412 137.114 52.0559C140.405 54.3065 144.822 54.2629 148.413 52.8303L148.698 51.3396Z" fill="#FCF7ED"/>
<path d="M201.808 214.329C197.265 215.127 199.304 220.708 203.185 221.177C204.002 223.767 201.527 225.814 199.164 225.867C197.231 225.911 195.515 224.294 194.225 224.096C191.122 223.617 193.65 225.93 195.539 226.661C199.628 228.229 202.059 227.237 205.181 224.493L207.119 229.323H200.841L201.324 227.881L200.121 227.866C199.836 227.958 199.749 228.863 199.411 229.076C197.69 230.16 186.772 228.786 183.945 229.333C184.337 222.789 175.492 218.714 169.949 218.201C171.36 213.632 172.07 208.743 174.361 204.489C174.55 204.145 177.532 201.445 175.502 201.29C172.501 201.058 168.267 216.807 167.759 219.643C163.734 224.594 151.25 219.764 148.693 215.558C145.035 209.542 153.657 202.292 158.108 199.335C166.759 193.585 175.961 191.252 184.873 198.178C187.193 199.983 190.532 204.513 189.02 207.572C188.889 207.834 184.916 211.202 184.602 211.371C181.417 213.065 181.814 208.714 179.61 210.708C183.679 218.268 188.285 208.419 190.866 208.642C191.625 208.705 196.4 211.691 197.777 212.335C198.299 212.577 202.276 213.729 201.813 214.334L201.808 214.329Z" fill="#D9D9D9"/>
<path d="M120.696 158.233C121.01 159.506 119.759 159.24 118.985 160.13C115.201 164.491 112.818 172.022 111.523 177.569L113.93 177.09V179.51C99.6051 179.306 84.6519 176.872 72.4148 169.104C81.6313 164.932 89.6395 158.03 93.6654 148.548L120.696 158.228V158.233Z" fill="#0F172A"/>
<path d="M157.387 170.803L154.212 165.528C152.617 163.422 146.832 158.181 144.126 158.713C143.696 158.795 143.208 159.362 143.875 159.923C144.701 160.61 147.093 161.225 148.471 162.091C152.419 164.579 156.257 170.082 156.242 174.84C156.242 175.241 156.155 176.747 155.469 176.606C153.816 172.444 148.664 166.37 144.633 164.482C142.376 163.427 141.357 164.579 143.034 165.615C145.996 167.439 147.751 168.311 150.138 171.06C151.221 172.304 156.068 178.6 154.483 179.985C153.816 180.081 153.197 180.038 152.574 179.743C150.911 178.949 146.649 173.402 144.585 171.786C143.014 170.552 141.178 169.555 139.298 168.872L138.79 170.339C143.672 172.425 147.552 176.219 150.636 180.473C144.715 181.64 144.72 179.234 141.139 176.693C135.436 172.647 134.131 175.948 128.931 177.357C122.696 179.046 119.449 175.977 113.461 175.638C114.664 172.192 117.868 161.864 121.208 160.388C121.807 160.121 125.862 160.755 127.583 160.523C131.555 159.986 135.634 157.285 139.829 156.83C148.954 155.843 156.155 161.835 157.397 170.803H157.387Z" fill="#FCF7ED"/>
<path d="M142.425 180.48H122.871C120.807 180.48 121.754 185.857 123.596 186.762C107.768 183.621 93.1431 192.575 85.9952 206.412L83.7672 211.92C78.5717 204.844 81.0221 197.095 80.186 189.235C83.743 186.98 88.7065 182.174 87.3822 177.581C95.7819 180.088 104.554 180.499 113.219 181.491C115.351 181.506 115.476 179.188 115.384 177.571C118.676 177.469 121.484 179.599 124.799 179.546C131.343 179.439 137.606 172.441 142.425 180.475V180.48Z" fill="white"/>
<path d="M61.3131 174.676C64.2661 168.04 68.8284 159.895 74.6666 155.413C79.0066 152.078 84.637 150.975 88.3343 146.866C86.8312 144.988 85.8839 147.233 84.6467 147.998C82.844 149.107 80.5435 149.852 78.8375 150.888C70.4523 155.97 64.1598 163.743 60.332 172.74C59.4138 172.817 59.8971 171.211 59.9792 170.693C61.8061 159.256 74.3042 141.309 87.1357 141.755C98.1838 142.137 90.2433 152.606 86.4204 157.034C79.1999 165.398 69.3117 167.585 61.3035 174.676H61.3131Z" fill="#C4DEF9"/>
<path d="M42.9576 201.76C47.0608 201.707 51.1833 201.828 55.2913 201.78C58.2249 201.746 61.0184 201.751 63.9423 201.78C67.7459 201.818 73.5261 201.218 77.001 201.755C77.4891 201.833 77.9193 201.925 78.0932 202.462L75.3288 214.61H44.8618L42.9624 201.755L42.9576 201.76Z" fill="#0F172A"/>
<path d="M74.8257 216.271L71.4668 229.59C64.923 229.6 57.8765 230.907 51.3858 230.321C45.5815 229.793 46.5674 220.627 44.8903 216.271H74.8257Z" fill="#0F172A"/>
<path d="M139.042 229.335C136.461 223.697 140.066 217.356 145.648 215.386C149.819 219.002 154.444 222.777 160.176 223.396C166.594 224.093 168.059 220.062 170.649 219.868C173.733 219.641 183.471 225.037 182.495 229.335H180.078C179.832 229.083 180.794 225.981 178.88 225.947L178.638 229.34H175.738C175.521 229.108 176.338 226.117 174.293 226.436L174.772 229.335H139.042Z" fill="#D9D9D9"/>
<path d="M155.459 22.3141C152.883 21.9124 150.8 23.1079 149.567 25.3585C148.427 27.43 149.161 29.2692 146.083 29.5934C143.202 20.4362 132.14 20.8234 129.868 30.0629L123.6 29.5741C123.034 29.0949 125.185 27.2267 125.557 26.946C128.201 24.9664 132.198 23.6596 135.025 21.9173C140.051 18.8294 143.27 12.794 143.396 6.84567C144.058 6.07128 149.079 11.25 149.654 11.9373C152.163 14.9187 154.139 18.6551 155.459 22.319V22.3141Z" fill="#FCF7ED"/>
<path d="M73.3812 229.812L78.9343 205.138C78.9826 208.023 83.4241 212.48 83.9026 214.194C84.2312 215.355 83.9123 216.836 84.2167 218.23C84.9948 221.802 87.1165 224.759 89.7891 227.155L93.6555 229.807H73.3764L73.3812 229.812Z" fill="#D9D9D9"/>
<path d="M61.7921 195.467C67.9251 188.59 76.03 181.383 85.4495 179.994C85.5848 179.36 85.2513 178.779 84.6424 178.6C80.3217 177.322 64.9384 188.382 62.2802 192.573C63.8799 186.165 71.8157 177.468 78.5045 176.664C83.9271 176.016 88.3492 177.129 84.4055 183.058C79.7369 190.085 69.1817 192.476 61.7921 195.467Z" fill="#C4DEF9"/>
<path d="M79.1711 174.197L71.97 177.377C68.2099 180.01 65.0927 183.538 62.6762 187.41L59.385 194.501C59.2206 190.551 58.1864 184.521 58.9065 180.726C59.3705 178.297 67.8765 170.761 70.3558 170.398C72.2986 170.112 76.6048 174.304 79.1711 174.192V174.197Z" fill="#D9D9D9"/>
<path d="M136.007 24.8353C148.075 22.0765 146.19 42.7625 135.683 38.9921C129.091 36.6254 130.657 26.0598 136.007 24.8353ZM139.907 31.1321L137.916 30.5851C133.759 35.3428 141.777 38.2323 139.907 31.1321Z" fill="#FCF7ED"/>
<path d="M153.527 181.929L151.84 186.285C151.492 186.827 150.946 186.725 150.419 186.793C143.295 187.684 134.175 186.159 126.834 186.662C125.321 186.319 123.784 184.441 123.171 183.066L123.838 181.929H153.531H153.527Z" fill="#C4DEF9"/>
<path d="M47.3066 199.827L44.1748 184.344C52.3619 186.575 56.3442 191.836 58.4127 199.827H47.3066Z" fill="#D9D9D9"/>
<path d="M78.6926 200.313C73.0283 199.374 67.2288 200.245 61.5452 199.829C59.6893 199.693 60.0228 198.754 61.1731 197.868C65.3391 194.674 74.9083 193.203 79.6495 190.154L78.6926 200.313Z" fill="#D9D9D9"/>
<path d="M57.9255 193.052C57.2295 193.168 57.2924 192.239 57.0894 191.726C54.3442 184.751 54.726 179.456 49.4871 173.218C46.945 170.188 41.9187 168.102 42.4841 164.036C43.1318 163.354 49.5161 168.131 50.4344 168.886C54.4892 172.206 56.3258 173.755 56.9589 179.277C57.4663 183.706 57.0314 188.623 57.9255 193.052Z" fill="#D9D9D9"/>
<path d="M148.698 51.3395L148.413 52.8302C144.827 54.2628 140.405 54.3112 137.114 52.0558C136.973 51.4411 137.558 50.899 138.22 50.9377C139.593 51.02 141.652 52.3074 143.633 52.3413C145.697 52.3752 146.755 51.262 148.698 51.3395Z" fill="black"/>
<path d="M155.237 29.0942C157.639 28.3779 158.132 33.4792 156.648 33.9196C154.246 34.636 153.754 29.5346 155.237 29.0942Z" fill="black"/>
<path d="M139.907 31.133C141.777 38.2332 133.759 35.3437 137.916 30.5861L139.907 31.133Z" fill="black"/>
</svg>
