<svg width="459" height="274" viewBox="0 0 459 274" fill="none" xmlns="http://www.w3.org/2000/svg">
<path d="M2.13261 263.466L52.0534 7.65798C52.6973 4.37608 55.5707 2.00122 58.915 2.00122H449.551C453.996 2.00122 457.312 6.08628 456.398 10.4344L402.635 266.242C401.956 269.483 399.097 271.795 395.787 271.795H8.99413C4.59057 271.795 1.28791 267.779 2.13261 263.459V263.466Z" stroke="black" stroke-width="3.46192" stroke-miterlimit="10"/>
<path d="M65.4167 20.823C67.321 20.823 68.8647 19.2793 68.8647 17.3749C68.8647 15.4706 67.321 13.9269 65.4167 13.9269C63.5124 13.9269 61.9686 15.4706 61.9686 17.3749C61.9686 19.2793 63.5124 20.823 65.4167 20.823Z" fill="black"/>
<path d="M75.7192 20.823C77.6235 20.823 79.1672 19.2793 79.1672 17.3749C79.1672 15.4706 77.6235 13.9269 75.7192 13.9269C73.8148 13.9269 72.2711 15.4706 72.2711 17.3749C72.2711 19.2793 73.8148 20.823 75.7192 20.823Z" fill="black"/>
<path d="M86.0291 20.823C87.9334 20.823 89.4772 19.2793 89.4772 17.3749C89.4772 15.4706 87.9334 13.9269 86.0291 13.9269C84.1248 13.9269 82.581 15.4706 82.581 17.3749C82.581 19.2793 84.1248 20.823 86.0291 20.823Z" fill="black"/>
<path d="M47.9134 28.8427H452.757" stroke="black" stroke-width="2.07715" stroke-miterlimit="10"/>
</svg>
