<svg width="352" height="259" viewBox="0 0 352 259" fill="none" xmlns="http://www.w3.org/2000/svg">
<rect x="37" y="210" width="297" height="49" rx="24.5" fill="#FFE4C0"/>
<path d="M66.6448 245H63.2548L61.3648 239.81H53.0548L51.1648 245H47.8648L55.3348 225.2H59.1748L66.6448 245ZM53.9548 237.2H60.4648L57.2248 227.96L53.9548 237.2ZM72.8438 245.3C71.6038 245.3 70.4738 244.99 69.4538 244.37C68.4538 243.75 67.6638 242.86 67.0838 241.7C66.5038 240.54 66.2138 239.15 66.2138 237.53C66.2138 235.85 66.5238 234.43 67.1438 233.27C67.7638 232.11 68.5938 231.23 69.6338 230.63C70.6738 230.01 71.8138 229.7 73.0538 229.7C74.3338 229.7 75.4138 230.05 76.2938 230.75C77.1738 231.45 77.7638 232.36 78.0638 233.48L77.7038 233.81V223.25H80.9138V245H78.0638L77.8238 240.92L78.2438 240.95C78.1038 241.85 77.7738 242.63 77.2538 243.29C76.7338 243.93 76.0838 244.43 75.3038 244.79C74.5438 245.13 73.7238 245.3 72.8438 245.3ZM73.5338 242.72C74.3938 242.72 75.1338 242.5 75.7538 242.06C76.3738 241.62 76.8538 241 77.1938 240.2C77.5338 239.4 77.7038 238.44 77.7038 237.32C77.7038 236.28 77.5338 235.39 77.1938 234.65C76.8538 233.89 76.3738 233.31 75.7538 232.91C75.1538 232.51 74.4538 232.31 73.6538 232.31C72.3138 232.31 71.2738 232.77 70.5338 233.69C69.7938 234.61 69.4238 235.88 69.4238 237.5C69.4238 239.12 69.7838 240.4 70.5038 241.34C71.2238 242.26 72.2338 242.72 73.5338 242.72ZM93.4623 230H96.8223L90.8523 245H87.3423L81.3423 230H84.8523L89.1123 242.21L93.4623 230ZM98.8791 227.48C98.1791 227.48 97.6391 227.31 97.2591 226.97C96.8991 226.61 96.7191 226.11 96.7191 225.47C96.7191 224.83 96.8991 224.34 97.2591 224C97.6391 223.66 98.1791 223.49 98.8791 223.49C99.5591 223.49 100.079 223.66 100.439 224C100.819 224.34 101.009 224.83 101.009 225.47C101.009 226.11 100.819 226.61 100.439 226.97C100.079 227.31 99.5591 227.48 98.8791 227.48ZM100.469 230V245H97.2591V230H100.469ZM108.892 245.3C107.392 245.3 106.022 245.01 104.782 244.43C103.542 243.85 102.562 243.03 101.842 241.97L104.062 240.05C104.502 240.87 105.132 241.53 105.952 242.03C106.792 242.51 107.792 242.75 108.952 242.75C109.872 242.75 110.602 242.59 111.142 242.27C111.682 241.95 111.952 241.5 111.952 240.92C111.952 240.54 111.822 240.21 111.562 239.93C111.322 239.63 110.852 239.4 110.152 239.24L107.002 238.58C105.402 238.26 104.262 237.75 103.582 237.05C102.902 236.33 102.562 235.42 102.562 234.32C102.562 233.5 102.802 232.74 103.282 232.04C103.762 231.34 104.462 230.78 105.382 230.36C106.322 229.92 107.442 229.7 108.742 229.7C110.242 229.7 111.522 229.97 112.582 230.51C113.642 231.03 114.452 231.78 115.012 232.76L112.792 234.62C112.412 233.82 111.852 233.23 111.112 232.85C110.372 232.45 109.602 232.25 108.802 232.25C108.162 232.25 107.612 232.33 107.152 232.49C106.692 232.65 106.342 232.87 106.102 233.15C105.862 233.43 105.742 233.76 105.742 234.14C105.742 234.54 105.892 234.89 106.192 235.19C106.492 235.49 107.032 235.72 107.812 235.88L111.232 236.6C112.672 236.88 113.682 237.36 114.262 238.04C114.862 238.7 115.162 239.51 115.162 240.47C115.162 241.43 114.912 242.28 114.412 243.02C113.912 243.74 113.192 244.3 112.252 244.7C111.312 245.1 110.192 245.3 108.892 245.3ZM123.251 229.7C124.711 229.7 126.001 230.01 127.121 230.63C128.241 231.25 129.111 232.15 129.731 233.33C130.371 234.49 130.691 235.88 130.691 237.5C130.691 239.12 130.371 240.52 129.731 241.7C129.111 242.86 128.241 243.75 127.121 244.37C126.001 244.99 124.711 245.3 123.251 245.3C121.791 245.3 120.501 244.99 119.381 244.37C118.261 243.75 117.381 242.86 116.741 241.7C116.101 240.52 115.781 239.12 115.781 237.5C115.781 235.88 116.101 234.49 116.741 233.33C117.381 232.15 118.261 231.25 119.381 230.63C120.501 230.01 121.791 229.7 123.251 229.7ZM123.251 232.22C122.351 232.22 121.581 232.43 120.941 232.85C120.321 233.25 119.841 233.84 119.501 234.62C119.161 235.4 118.991 236.36 118.991 237.5C118.991 238.62 119.161 239.58 119.501 240.38C119.841 241.16 120.321 241.76 120.941 242.18C121.581 242.58 122.351 242.78 123.251 242.78C124.151 242.78 124.911 242.58 125.531 242.18C126.151 241.76 126.631 241.16 126.971 240.38C127.311 239.58 127.481 238.62 127.481 237.5C127.481 236.36 127.311 235.4 126.971 234.62C126.631 233.84 126.151 233.25 125.531 232.85C124.911 232.43 124.151 232.22 123.251 232.22ZM132.429 245V230H135.159L135.459 232.7C135.859 231.72 136.449 230.98 137.229 230.48C138.029 229.96 139.009 229.7 140.169 229.7C140.469 229.7 140.769 229.73 141.069 229.79C141.369 229.83 141.619 229.9 141.819 230L141.369 232.82C141.149 232.74 140.899 232.68 140.619 232.64C140.359 232.58 139.999 232.55 139.539 232.55C138.919 232.55 138.309 232.72 137.709 233.06C137.109 233.38 136.609 233.87 136.209 234.53C135.829 235.19 135.639 236.03 135.639 237.05V245H132.429ZM147.724 245.3C146.224 245.3 144.854 245.01 143.614 244.43C142.374 243.85 141.394 243.03 140.674 241.97L142.894 240.05C143.334 240.87 143.964 241.53 144.784 242.03C145.624 242.51 146.624 242.75 147.784 242.75C148.704 242.75 149.434 242.59 149.974 242.27C150.514 241.95 150.784 241.5 150.784 240.92C150.784 240.54 150.654 240.21 150.394 239.93C150.154 239.63 149.684 239.4 148.984 239.24L145.834 238.58C144.234 238.26 143.094 237.75 142.414 237.05C141.734 236.33 141.394 235.42 141.394 234.32C141.394 233.5 141.634 232.74 142.114 232.04C142.594 231.34 143.294 230.78 144.214 230.36C145.154 229.92 146.274 229.7 147.574 229.7C149.074 229.7 150.354 229.97 151.414 230.51C152.474 231.03 153.284 231.78 153.844 232.76L151.624 234.62C151.244 233.82 150.684 233.23 149.944 232.85C149.204 232.45 148.434 232.25 147.634 232.25C146.994 232.25 146.444 232.33 145.984 232.49C145.524 232.65 145.174 232.87 144.934 233.15C144.694 233.43 144.574 233.76 144.574 234.14C144.574 234.54 144.724 234.89 145.024 235.19C145.324 235.49 145.864 235.72 146.644 235.88L150.064 236.6C151.504 236.88 152.514 237.36 153.094 238.04C153.694 238.7 153.994 239.51 153.994 240.47C153.994 241.43 153.744 242.28 153.244 243.02C152.744 243.74 152.024 244.3 151.084 244.7C150.144 245.1 149.024 245.3 147.724 245.3ZM168.309 245.3C166.969 245.3 165.809 245.08 164.829 244.64C163.869 244.18 163.119 243.55 162.579 242.75C162.059 241.95 161.799 241.01 161.799 239.93C161.799 239.31 161.879 238.72 162.039 238.16C162.219 237.58 162.499 237.03 162.879 236.51C163.279 235.97 163.819 235.48 164.499 235.04C165.179 234.58 166.029 234.18 167.049 233.84L168.219 233.33C169.019 232.87 169.659 232.45 170.139 232.07C170.639 231.69 170.999 231.29 171.219 230.87C171.459 230.45 171.579 229.96 171.579 229.4C171.579 228.74 171.379 228.23 170.979 227.87C170.579 227.51 170.049 227.33 169.389 227.33C168.609 227.33 168.019 227.55 167.619 227.99C167.239 228.41 167.049 228.92 167.049 229.52C167.049 229.88 167.099 230.23 167.199 230.57C167.319 230.91 167.539 231.33 167.859 231.83C168.199 232.33 168.689 232.99 169.329 233.81C169.969 234.61 170.839 235.67 171.939 236.99C173.019 238.29 173.919 239.35 174.639 240.17C175.379 240.97 176.009 241.58 176.529 242C177.049 242.4 177.529 242.67 177.969 242.81C178.429 242.93 178.939 242.98 179.499 242.96L178.959 245.3C178.319 245.3 177.719 245.23 177.159 245.09C176.619 244.97 176.029 244.69 175.389 244.25C174.769 243.81 174.029 243.15 173.169 242.27C172.329 241.39 171.289 240.22 170.049 238.76C168.889 237.4 167.919 236.26 167.139 235.34C166.379 234.4 165.779 233.61 165.339 232.97C164.919 232.31 164.619 231.72 164.439 231.2C164.259 230.66 164.169 230.09 164.169 229.49C164.169 228.75 164.359 228.03 164.739 227.33C165.119 226.61 165.689 226.03 166.449 225.59C167.229 225.13 168.239 224.9 169.479 224.9C170.479 224.9 171.329 225.08 172.029 225.44C172.729 225.8 173.269 226.3 173.649 226.94C174.029 227.56 174.219 228.28 174.219 229.1C174.219 229.86 174.079 230.57 173.799 231.23C173.519 231.89 173.019 232.52 172.299 233.12C171.599 233.72 170.599 234.31 169.299 234.89L168.309 235.31C167.389 235.77 166.669 236.21 166.149 236.63C165.629 237.05 165.259 237.5 165.039 237.98C164.819 238.44 164.709 239 164.709 239.66C164.709 240.34 164.879 240.93 165.219 241.43C165.579 241.91 166.059 242.28 166.659 242.54C167.259 242.8 167.929 242.93 168.669 242.93C169.729 242.93 170.629 242.75 171.369 242.39C172.109 242.01 172.799 241.49 173.439 240.83L173.859 240.38C174.339 239.62 174.709 238.76 174.969 237.8C175.249 236.84 175.339 235.75 175.239 234.53L177.729 234.68C177.769 235.96 177.599 237.2 177.219 238.4C176.859 239.6 176.299 240.68 175.539 241.64L174.939 242.3C174.219 243.22 173.309 243.95 172.209 244.49C171.109 245.03 169.809 245.3 168.309 245.3ZM201.871 227.96H190.771V233.72H199.471V236.48H190.771V245H187.561V225.2H201.871V227.96ZM210.356 235.37C210.356 234.37 210.076 233.6 209.516 233.06C208.976 232.5 208.226 232.22 207.266 232.22C206.366 232.22 205.596 232.43 204.956 232.85C204.316 233.27 203.846 233.95 203.546 234.89L200.846 233.75C201.226 232.53 201.966 231.55 203.066 230.81C204.186 230.07 205.626 229.7 207.386 229.7C208.586 229.7 209.646 229.9 210.566 230.3C211.486 230.68 212.206 231.26 212.726 232.04C213.266 232.82 213.536 233.82 213.536 235.04V241.73C213.536 242.47 213.906 242.84 214.646 242.84C215.006 242.84 215.356 242.79 215.696 242.69L215.516 244.91C215.056 245.13 214.476 245.24 213.776 245.24C213.136 245.24 212.556 245.13 212.036 244.91C211.536 244.67 211.136 244.32 210.836 243.86C210.556 243.38 210.416 242.79 210.416 242.09V241.88L211.076 241.85C210.896 242.63 210.526 243.28 209.966 243.8C209.406 244.3 208.756 244.68 208.016 244.94C207.276 245.18 206.526 245.3 205.766 245.3C204.826 245.3 203.976 245.15 203.216 244.85C202.476 244.55 201.886 244.1 201.446 243.5C201.026 242.88 200.816 242.12 200.816 241.22C200.816 240.1 201.176 239.18 201.896 238.46C202.636 237.74 203.676 237.25 205.016 236.99L210.836 235.85L210.806 238.1L206.576 238.97C205.736 239.13 205.106 239.36 204.686 239.66C204.266 239.96 204.056 240.4 204.056 240.98C204.056 241.54 204.266 241.99 204.686 242.33C205.126 242.65 205.706 242.81 206.426 242.81C206.926 242.81 207.406 242.75 207.866 242.63C208.346 242.51 208.776 242.32 209.156 242.06C209.536 241.78 209.826 241.43 210.026 241.01C210.246 240.57 210.356 240.05 210.356 239.45V235.37ZM222.946 229.7C224.146 229.7 225.166 229.88 226.006 230.24C226.866 230.58 227.586 231.07 228.166 231.71C228.746 232.35 229.186 233.08 229.486 233.9L226.456 235.1C226.196 234.18 225.776 233.48 225.196 233C224.636 232.5 223.896 232.25 222.976 232.25C222.076 232.25 221.306 232.46 220.666 232.88C220.026 233.28 219.536 233.87 219.196 234.65C218.876 235.43 218.716 236.39 218.716 237.53C218.716 238.65 218.886 239.6 219.226 240.38C219.566 241.16 220.056 241.75 220.696 242.15C221.336 242.55 222.096 242.75 222.976 242.75C223.656 242.75 224.246 242.64 224.746 242.42C225.246 242.18 225.656 241.85 225.976 241.43C226.316 240.99 226.546 240.46 226.666 239.84L229.576 240.83C229.296 241.73 228.856 242.52 228.256 243.2C227.676 243.86 226.946 244.38 226.066 244.76C225.186 245.12 224.176 245.3 223.036 245.3C221.556 245.3 220.246 244.99 219.106 244.37C217.966 243.75 217.076 242.86 216.436 241.7C215.816 240.52 215.506 239.12 215.506 237.5C215.506 235.88 215.816 234.49 216.436 233.33C217.076 232.15 217.956 231.25 219.076 230.63C220.216 230.01 221.506 229.7 222.946 229.7ZM232.632 227.48C231.932 227.48 231.392 227.31 231.012 226.97C230.652 226.61 230.472 226.11 230.472 225.47C230.472 224.83 230.652 224.34 231.012 224C231.392 223.66 231.932 223.49 232.632 223.49C233.312 223.49 233.832 223.66 234.192 224C234.572 224.34 234.762 224.83 234.762 225.47C234.762 226.11 234.572 226.61 234.192 226.97C233.832 227.31 233.312 227.48 232.632 227.48ZM234.222 230V245H231.012V230H234.222ZM240.064 223.25V240.8C240.064 241.54 240.194 242.05 240.454 242.33C240.714 242.61 241.144 242.75 241.744 242.75C242.104 242.75 242.404 242.73 242.644 242.69C242.904 242.63 243.224 242.53 243.604 242.39L243.244 244.79C242.904 244.95 242.514 245.07 242.074 245.15C241.634 245.25 241.194 245.3 240.754 245.3C239.414 245.3 238.424 244.96 237.784 244.28C237.164 243.58 236.854 242.51 236.854 241.07V223.25H240.064ZM245.61 227.48C244.91 227.48 244.37 227.31 243.99 226.97C243.63 226.61 243.45 226.11 243.45 225.47C243.45 224.83 243.63 224.34 243.99 224C244.37 223.66 244.91 223.49 245.61 223.49C246.29 223.49 246.81 223.66 247.17 224C247.55 224.34 247.74 224.83 247.74 225.47C247.74 226.11 247.55 226.61 247.17 226.97C246.81 227.31 246.29 227.48 245.61 227.48ZM247.2 230V245H243.99V230H247.2ZM254.302 225.59V240.5C254.302 241.24 254.492 241.78 254.872 242.12C255.272 242.46 255.802 242.63 256.462 242.63C257.002 242.63 257.472 242.55 257.872 242.39C258.272 242.21 258.642 241.97 258.982 241.67L259.702 244.01C259.242 244.41 258.672 244.73 257.992 244.97C257.332 245.19 256.592 245.3 255.772 245.3C254.912 245.3 254.122 245.16 253.402 244.88C252.682 244.6 252.122 244.15 251.722 243.53C251.322 242.89 251.112 242.06 251.092 241.04V226.49L254.302 225.59ZM259.462 230V232.52H248.212V230H259.462ZM269.095 235.37C269.095 234.37 268.815 233.6 268.255 233.06C267.715 232.5 266.965 232.22 266.005 232.22C265.105 232.22 264.335 232.43 263.695 232.85C263.055 233.27 262.585 233.95 262.285 234.89L259.585 233.75C259.965 232.53 260.705 231.55 261.805 230.81C262.925 230.07 264.365 229.7 266.125 229.7C267.325 229.7 268.385 229.9 269.305 230.3C270.225 230.68 270.945 231.26 271.465 232.04C272.005 232.82 272.275 233.82 272.275 235.04V241.73C272.275 242.47 272.645 242.84 273.385 242.84C273.745 242.84 274.095 242.79 274.435 242.69L274.255 244.91C273.795 245.13 273.215 245.24 272.515 245.24C271.875 245.24 271.295 245.13 270.775 244.91C270.275 244.67 269.875 244.32 269.575 243.86C269.295 243.38 269.155 242.79 269.155 242.09V241.88L269.815 241.85C269.635 242.63 269.265 243.28 268.705 243.8C268.145 244.3 267.495 244.68 266.755 244.94C266.015 245.18 265.265 245.3 264.505 245.3C263.565 245.3 262.715 245.15 261.955 244.85C261.215 244.55 260.625 244.1 260.185 243.5C259.765 242.88 259.555 242.12 259.555 241.22C259.555 240.1 259.915 239.18 260.635 238.46C261.375 237.74 262.415 237.25 263.755 236.99L269.575 235.85L269.545 238.1L265.315 238.97C264.475 239.13 263.845 239.36 263.425 239.66C263.005 239.96 262.795 240.4 262.795 240.98C262.795 241.54 263.005 241.99 263.425 242.33C263.865 242.65 264.445 242.81 265.165 242.81C265.665 242.81 266.145 242.75 266.605 242.63C267.085 242.51 267.515 242.32 267.895 242.06C268.275 241.78 268.565 241.43 268.765 241.01C268.985 240.57 269.095 240.05 269.095 239.45V235.37ZM279.029 225.59V240.5C279.029 241.24 279.219 241.78 279.599 242.12C279.999 242.46 280.529 242.63 281.189 242.63C281.729 242.63 282.199 242.55 282.599 242.39C282.999 242.21 283.369 241.97 283.709 241.67L284.429 244.01C283.969 244.41 283.399 244.73 282.719 244.97C282.059 245.19 281.319 245.3 280.499 245.3C279.639 245.3 278.849 245.16 278.129 244.88C277.409 244.6 276.849 244.15 276.449 243.53C276.049 242.89 275.839 242.06 275.819 241.04V226.49L279.029 225.59ZM284.189 230V232.52H272.939V230H284.189ZM291.573 229.7C293.033 229.7 294.323 230.01 295.443 230.63C296.563 231.25 297.433 232.15 298.053 233.33C298.693 234.49 299.013 235.88 299.013 237.5C299.013 239.12 298.693 240.52 298.053 241.7C297.433 242.86 296.563 243.75 295.443 244.37C294.323 244.99 293.033 245.3 291.573 245.3C290.113 245.3 288.823 244.99 287.703 244.37C286.583 243.75 285.703 242.86 285.063 241.7C284.423 240.52 284.103 239.12 284.103 237.5C284.103 235.88 284.423 234.49 285.063 233.33C285.703 232.15 286.583 231.25 287.703 230.63C288.823 230.01 290.113 229.7 291.573 229.7ZM291.573 232.22C290.673 232.22 289.903 232.43 289.263 232.85C288.643 233.25 288.163 233.84 287.823 234.62C287.483 235.4 287.313 236.36 287.313 237.5C287.313 238.62 287.483 239.58 287.823 240.38C288.163 241.16 288.643 241.76 289.263 242.18C289.903 242.58 290.673 242.78 291.573 242.78C292.473 242.78 293.233 242.58 293.853 242.18C294.473 241.76 294.953 241.16 295.293 240.38C295.633 239.58 295.803 238.62 295.803 237.5C295.803 236.36 295.633 235.4 295.293 234.62C294.953 233.84 294.473 233.25 293.853 232.85C293.233 232.43 292.473 232.22 291.573 232.22ZM300.752 245V230H303.482L303.782 232.7C304.182 231.72 304.772 230.98 305.552 230.48C306.352 229.96 307.332 229.7 308.492 229.7C308.792 229.7 309.092 229.73 309.392 229.79C309.692 229.83 309.942 229.9 310.142 230L309.692 232.82C309.472 232.74 309.222 232.68 308.942 232.64C308.682 232.58 308.322 232.55 307.862 232.55C307.242 232.55 306.632 232.72 306.032 233.06C305.432 233.38 304.932 233.87 304.532 234.53C304.152 235.19 303.962 236.03 303.962 237.05V245H300.752ZM316.046 245.3C314.546 245.3 313.176 245.01 311.936 244.43C310.696 243.85 309.716 243.03 308.996 241.97L311.216 240.05C311.656 240.87 312.286 241.53 313.106 242.03C313.946 242.51 314.946 242.75 316.106 242.75C317.026 242.75 317.756 242.59 318.296 242.27C318.836 241.95 319.106 241.5 319.106 240.92C319.106 240.54 318.976 240.21 318.716 239.93C318.476 239.63 318.006 239.4 317.306 239.24L314.156 238.58C312.556 238.26 311.416 237.75 310.736 237.05C310.056 236.33 309.716 235.42 309.716 234.32C309.716 233.5 309.956 232.74 310.436 232.04C310.916 231.34 311.616 230.78 312.536 230.36C313.476 229.92 314.596 229.7 315.896 229.7C317.396 229.7 318.676 229.97 319.736 230.51C320.796 231.03 321.606 231.78 322.166 232.76L319.946 234.62C319.566 233.82 319.006 233.23 318.266 232.85C317.526 232.45 316.756 232.25 315.956 232.25C315.316 232.25 314.766 232.33 314.306 232.49C313.846 232.65 313.496 232.87 313.256 233.15C313.016 233.43 312.896 233.76 312.896 234.14C312.896 234.54 313.046 234.89 313.346 235.19C313.646 235.49 314.186 235.72 314.966 235.88L318.386 236.6C319.826 236.88 320.836 237.36 321.416 238.04C322.016 238.7 322.316 239.51 322.316 240.47C322.316 241.43 322.066 242.28 321.566 243.02C321.066 243.74 320.346 244.3 319.406 244.7C318.466 245.1 317.346 245.3 316.046 245.3Z" fill="#010101"/>
<path d="M32.1113 159.959C32.4125 159.951 32.8419 159.967 33.3984 160.012C34.5065 160.1 36.0259 160.291 37.8398 160.559C41.4625 161.093 46.1938 161.927 51.0244 162.829C59.479 164.409 68.1968 166.195 71.7334 166.957L72.916 167.217C73.2824 167.301 74.6402 168.067 75.2539 170.109C75.5334 171.04 75.7209 172.861 75.3789 174.692C75.0376 176.52 74.2098 178.169 72.6465 179.054C72.5886 179.086 72.3876 179.161 71.9512 179.206C71.5394 179.249 71.004 179.258 70.3486 179.231C69.0389 179.178 67.3388 178.984 65.3643 178.677C61.4204 178.063 56.4713 177.015 51.5391 175.819C46.6091 174.624 41.7158 173.287 37.8857 172.1C35.9693 171.505 34.3302 170.953 33.0908 170.477C32.4705 170.238 31.9619 170.024 31.5742 169.838C31.1647 169.641 30.9602 169.508 30.8906 169.448C30.4367 169.057 30.1203 168.396 29.9854 167.461C29.8515 166.534 29.913 165.442 30.1162 164.345C30.3186 163.252 30.6523 162.202 31.0244 161.371C31.2105 160.956 31.3994 160.61 31.5762 160.348C31.7009 160.163 31.8036 160.044 31.876 159.974C31.931 159.968 32.0081 159.962 32.1113 159.959Z" fill="#010101" stroke="#010101" stroke-width="2"/>
<path d="M72.1158 179.887C69.9893 178.346 68.7765 175.593 69.1904 172.982C69.5913 170.456 71.409 168.254 73.7995 167.353C74.3214 167.156 74.0954 166.312 73.5665 166.511C70.8251 167.544 68.7325 170.019 68.3176 172.94C67.8967 175.905 69.2674 178.897 71.6729 180.64C72.1308 180.971 72.5677 180.213 72.1158 179.887Z" fill="#CADFF7"/>
<path d="M60.3076 151.48C60.4392 151.595 60.6258 151.79 60.8584 152.084C61.1499 152.453 61.4754 152.93 61.8125 153.489C62.4871 154.609 63.179 156.015 63.708 157.465C64.2403 158.923 64.5879 160.37 64.6191 161.584C64.6508 162.816 64.3572 163.617 63.8428 164.061C63.7459 164.144 63.456 164.324 62.8857 164.593C62.3456 164.847 61.6317 165.145 60.7607 165.48C59.02 166.152 56.6973 166.956 53.9756 167.836C48.5348 169.594 41.5397 171.642 34.5029 173.519C27.4642 175.396 20.4012 177.098 14.8203 178.167C12.027 178.702 9.62665 179.074 7.7959 179.233C6.87925 179.313 6.12957 179.338 5.55664 179.308C5.09751 179.284 4.82809 179.228 4.69141 179.184L4.59668 179.145C2.65172 178.044 1.63926 176.001 1.22461 173.781C0.809372 171.558 1.03442 169.345 1.37891 168.197C2.13262 165.689 3.8115 164.71 4.32715 164.593C7.02043 163.978 20.7379 160.361 33.9443 157.091C40.5651 155.451 47.0694 153.896 52.0391 152.837C54.5265 152.307 56.6134 151.905 58.1318 151.679C58.8941 151.565 59.4891 151.499 59.9102 151.48C60.0919 151.472 60.2216 151.474 60.3076 151.48Z" fill="#010101" stroke="#010101" stroke-width="2"/>
<path d="M44.9111 169.152C44.6994 169.578 44.4575 170.064 44.1875 170.598C43.151 172.645 41.7194 175.393 40.1367 178.206C38.5516 181.023 36.8258 183.885 35.2012 186.166C34.3885 187.307 33.6139 188.285 32.9062 189.034C32.1814 189.801 31.5956 190.253 31.1699 190.439C29.0518 191.365 26.1358 191.096 23.6973 189.986C21.2107 188.854 19.68 187.081 19.6797 185.38C19.6797 184.561 20.1955 183.373 21.2021 181.929C22.1773 180.53 23.4955 179.053 24.8389 177.692C26.178 176.336 27.5208 175.118 28.5303 174.237C29.0343 173.798 29.4543 173.444 29.7471 173.2C29.8652 173.102 29.9622 173.021 30.0361 172.961L44.9111 169.152Z" fill="#010101" stroke="#010101" stroke-width="2"/>
<path d="M5.8158 180.802C8.6662 178.737 10.2918 175.184 9.79595 171.672C9.30706 168.203 6.82358 165.255 3.56726 164.028C3.04037 163.829 2.81242 164.673 3.33431 164.871C6.2277 165.961 8.43025 168.619 8.91815 171.677C9.42404 174.845 7.95434 178.178 5.37288 180.048C4.92298 180.374 5.3589 181.132 5.8158 180.802Z" fill="#CADFF7"/>
<path d="M19.6742 184.54C23.8993 183.905 28.3464 185.885 30.7189 189.425C31.0308 189.891 31.7886 189.453 31.4737 188.984C28.8623 185.088 24.0773 182.999 19.4412 183.698C18.8873 183.782 19.1223 184.623 19.6742 184.54Z" fill="#CADFF7"/>
<path d="M29.2168 105.838C29.7162 105.889 30.226 106.173 30.751 106.802C31.2824 107.439 31.7733 108.368 32.2109 109.55C33.0851 111.911 33.6666 115.05 34.0469 118.235C34.4255 121.407 34.5983 124.565 34.6758 126.935C34.7145 128.118 34.7291 129.102 34.7344 129.789C34.737 130.132 34.7368 130.401 34.7363 130.584C34.7361 130.675 34.7357 130.745 34.7354 130.791V130.859L36.7344 130.898V130.896C36.7344 130.895 36.7353 130.893 36.7354 130.89C36.7355 130.883 36.7359 130.873 36.7363 130.859C36.7372 130.832 36.7382 130.79 36.7402 130.735C36.7443 130.626 36.7509 130.464 36.7607 130.257C36.7805 129.843 36.8139 129.247 36.8672 128.529C36.974 127.091 37.1603 125.17 37.4805 123.222C37.8025 121.262 38.2514 119.327 38.8643 117.837C39.1706 117.092 39.502 116.5 39.8477 116.078C40.1924 115.658 40.5077 115.459 40.7822 115.39C42.0507 115.07 43.5335 115.765 45.2148 117.593C46.8512 119.372 48.418 121.957 49.79 124.668C51.1553 127.366 52.2981 130.13 53.1006 132.224C53.5012 133.269 53.8161 134.145 54.0303 134.758C54.1373 135.064 54.2196 135.305 54.2744 135.468C54.3018 135.549 54.3222 135.612 54.3359 135.653C54.3428 135.674 54.3482 135.69 54.3516 135.7C54.3531 135.705 54.3537 135.709 54.3545 135.711L54.3555 135.714L56.292 135.547L56.2969 135.548C56.2969 135.548 56.2967 135.546 56.2969 135.545C56.2972 135.543 56.298 135.539 56.2988 135.533C56.3005 135.522 56.3038 135.504 56.3076 135.479C56.3152 135.431 56.3265 135.359 56.3428 135.266C56.3753 135.079 56.4263 134.81 56.4961 134.487C56.6366 133.838 56.8518 132.989 57.1553 132.16C57.4641 131.317 57.8381 130.568 58.2627 130.067C58.6523 129.608 58.9845 129.464 59.292 129.477C59.3225 129.496 59.3857 129.54 59.4824 129.631C59.6796 129.816 59.9303 130.112 60.2168 130.529C60.7868 131.359 61.4317 132.57 62.0264 134.061C63.2162 137.043 64.1608 141.036 63.9531 145.158C63.7461 149.266 62.3985 153.476 59.0352 156.987C55.6661 160.505 50.1824 163.417 41.5264 164.749C32.8843 166.079 26.6826 164.839 22.2451 162.261C17.8066 159.682 15.0138 155.694 13.3193 151.308C11.6217 146.912 11.0439 142.153 11.0244 138.129C11.0049 134.078 11.5502 130.891 12.0107 129.639C13.0397 126.841 13.8659 126.246 14.125 126.144C14.1388 126.138 14.1517 126.137 14.1621 126.134L19.4355 135.629L21.3018 135.019C20.7961 131.023 21.3519 123.4 22.8818 116.848C23.6461 113.574 24.6348 110.652 25.8047 108.616C27.0196 106.502 28.1894 105.732 29.2168 105.838Z" fill="#FFE4C0" stroke="#010101" stroke-width="2"/>
<path d="M41.3192 160.652C36.4732 160.795 31.5953 159.108 27.876 156.003C26.9802 155.255 26.1294 154.397 25.6845 153.32C25.2396 152.242 25.2806 150.9 26.0424 150.018C26.8433 149.089 28.248 148.881 29.4357 149.188C30.6245 149.494 31.6503 150.225 32.646 150.941C30.9974 147.951 30.0056 144.603 29.7577 141.2C29.6637 139.9 29.7676 138.397 30.8034 137.604C32.1381 136.583 34.0657 137.4 35.4425 138.366C39.2147 141.008 42.268 144.664 44.1946 148.846C44.2446 147.607 44.3026 146.335 44.7925 145.195C45.2824 144.055 46.3072 143.059 47.5459 142.971C48.8866 142.876 50.1234 143.889 50.6433 145.126C51.1632 146.364 51.895 149.336 51.6541 150.656C50.8412 155.089 48.2428 159.72 41.3192 160.652Z" fill="#CADFF7"/>
<path d="M15.7959 113.597C15.9668 113.622 16.2771 113.794 16.5312 114.415C16.7759 115.013 16.8871 115.871 16.7441 116.834C16.6005 117.797 16.2435 118.586 15.835 119.088C15.4108 119.608 15.0648 119.682 14.8945 119.656H14.8936C14.7234 119.631 14.4134 119.46 14.1592 118.839C13.945 118.315 13.833 117.592 13.9043 116.774L13.9463 116.419C14.0899 115.456 14.4469 114.666 14.8555 114.165C15.2797 113.645 15.6257 113.571 15.7959 113.597Z" fill="#FFE4C0" stroke="#010101" stroke-width="2"/>
<path d="M276.433 8.75391C276.499 8.83083 276.581 8.92856 276.679 9.0498C276.99 9.43589 277.424 10.0056 277.974 10.75C279.07 12.236 280.6 14.3818 282.476 17.0576C286.225 22.4074 291.341 29.858 297.098 38.3516C308.611 55.3391 322.678 76.4866 333.493 93.3242C338.507 101.126 342.817 107.994 345.849 113.091C347.365 115.641 348.554 117.736 349.35 119.276C349.748 120.049 350.038 120.664 350.221 121.118C350.287 121.282 350.332 121.416 350.365 121.521C350.346 121.537 350.326 121.557 350.303 121.575C350.051 121.774 349.65 122.037 349.087 122.362C347.967 123.009 346.317 123.84 344.194 124.831C339.956 126.809 333.918 129.388 326.673 132.358C312.186 138.298 292.919 145.783 273.662 153.125C254.407 160.467 235.169 167.663 220.744 173.024C213.532 175.705 207.524 177.926 203.318 179.478C201.216 180.253 199.564 180.861 198.438 181.275C197.874 181.482 197.442 181.641 197.151 181.748C197.101 181.767 197.055 181.782 197.013 181.798L74.3145 147.288C74.398 147.073 74.4951 146.826 74.6035 146.547C75.0506 145.397 75.7049 143.714 76.5361 141.585C78.1987 137.327 80.5674 131.284 83.3887 124.143C90.7233 105.582 101.134 79.6045 110.234 58.2188C114.785 47.5237 119.003 37.9899 122.341 31.1094C124.012 27.6657 125.452 24.9084 126.597 23.0078C127.171 22.054 127.653 21.3457 128.038 20.8809C128.231 20.6473 128.379 20.5018 128.479 20.4209C128.493 20.4105 128.504 20.4024 128.514 20.3955C132.081 20.0526 168.379 17.0318 204.196 14.1523C222.29 12.6978 240.254 11.2798 253.803 10.2617C260.578 9.75262 266.247 9.34348 270.274 9.08008C272.289 8.94834 273.888 8.85381 275.009 8.80078C275.57 8.77421 276.004 8.75865 276.307 8.75391C276.353 8.75319 276.395 8.75412 276.433 8.75391Z" fill="#CADFF7" stroke="#010101" stroke-width="2"/>
<path d="M334.5 94.2432C339.33 101.771 343.482 108.393 346.427 113.345C347.943 115.895 349.133 117.989 349.928 119.529C350.326 120.302 350.617 120.917 350.799 121.371C350.865 121.535 350.91 121.668 350.943 121.773C350.924 121.789 350.904 121.809 350.881 121.827C350.629 122.026 350.229 122.29 349.665 122.615C348.545 123.262 346.895 124.092 344.772 125.083C340.534 127.061 334.497 129.641 327.251 132.611C312.764 138.551 293.497 146.036 274.24 153.378C254.985 160.72 235.747 167.915 221.322 173.276C214.11 175.957 208.102 178.179 203.896 179.73C201.794 180.506 200.142 181.114 199.016 181.528C198.453 181.735 198.02 181.894 197.729 182.001C197.68 182.019 197.634 182.036 197.593 182.051L74.8926 147.54C74.9761 147.325 75.0731 147.077 75.1816 146.798C75.6287 145.648 76.283 143.965 77.1143 141.836C78.7124 137.743 80.9629 132.001 83.6406 125.22C92.3328 127.527 115.405 133.599 137.257 138.929C148.564 141.687 159.555 144.249 168.06 145.988C172.31 146.858 175.955 147.524 178.714 147.907C180.091 148.098 181.267 148.222 182.196 148.262C182.661 148.282 183.08 148.28 183.441 148.254C183.787 148.228 184.147 148.175 184.455 148.053L184.456 148.052C189.536 146.022 301.841 105.897 334.5 94.2432Z" fill="#FFE4C0" stroke="#010101" stroke-width="2"/>
<path d="M106.921 92.9903C106.921 92.9903 115.003 126.645 98.3203 155.304L165.178 173.99C165.178 173.99 149.934 152.648 154.71 104.742C154.71 104.742 126.828 79.6502 126.261 36.9922C126.261 36.9922 120.78 79.4595 106.921 92.9903Z" fill="#010101"/>
<g opacity="0.3">
<path d="M238.986 56.3829C237.622 55.3247 236.905 56.2422 236.062 57.3144C236.352 57.8675 236.493 58.3786 236.871 58.8159C238.467 59.394 238.467 59.394 239.509 58.6921C239.337 57.9344 239.168 57.1846 238.986 56.3829Z" fill="#010101"/>
<path d="M242.342 60.9882C242.554 58.8247 239.332 58.7668 239.416 61.0341C239.877 62.6634 242.407 63.2555 242.342 60.9882Z" fill="#010101"/>
<path d="M215.842 54.8214C215.732 53.1751 215.043 52.6799 213.172 52.9405C213.867 53.6024 214.651 54.3422 215.509 55.1429C215.624 55.045 215.739 54.9492 215.842 54.8214Z" fill="#010101"/>
<path d="M249.523 50.8922C249.899 52.9348 252.781 52.5225 252.807 50.6775C252.425 48.6418 249.981 49.2678 249.523 50.8922Z" fill="#010101"/>
<path d="M243.228 51.5899C243.582 53.1573 246.185 52.5463 245.83 51.0288C246.095 48.2943 242.378 49.3705 243.228 51.5899Z" fill="#010101"/>
<path d="M272.141 65.2967C272.239 64.8135 272.282 64.6158 272.418 64.4132C272.188 63.8461 271.938 63.262 271.67 62.666C268.296 62.9026 270.427 67.8186 272.141 65.2967Z" fill="#010101"/>
<path d="M261.462 52.8203C260.935 53.0879 260.448 53.3345 259.951 53.5861C259.771 54.0423 259.588 54.5086 259.367 55.0656C259.993 55.3721 260.481 55.6117 261.041 55.8863C261.41 55.6996 261.82 55.4929 262.19 55.3062C262.436 54.815 262.657 54.3738 262.896 53.8966C262.512 53.3934 261.949 53.1737 261.462 52.8203Z" fill="#010101"/>
<path d="M253.133 74.3182C253.307 74.7664 253.545 75.2217 253.792 75.66C256.092 76.234 257.103 73.1541 254.681 72.7168C253.579 73.1681 253.579 73.1681 253.133 74.3182Z" fill="#010101"/>
<path d="M228.398 48.7285L226.836 48.7985C227.363 49.2265 227.955 49.1245 228.398 48.7285Z" fill="#010101"/>
<path d="M259.223 50.1309C257.996 48.6344 256.022 49.6227 256.537 51.4717C257.696 52.9912 259.821 52.2255 259.223 50.1309Z" fill="#010101"/>
<path d="M263.643 78.8686C264.47 78.5961 265.263 78.2896 266.017 77.9552C266.078 77.6766 266.139 77.3961 266.205 77.0896C264.307 75.2216 262.313 77.6966 263.643 78.8686Z" fill="#010101"/>
<path d="M261.922 75.9928C262.531 75.0324 263.024 74.1439 262.192 73.0596C260.328 72.8929 260.328 72.8929 259.932 74.4983C259.616 75.4657 261.19 75.895 261.922 75.9928Z" fill="#010101"/>
<path d="M221.196 59.5525C220.909 59.4856 220.684 59.5585 220.492 59.6982C221.128 60.2663 221.783 60.8463 222.451 61.4324C222.538 60.5239 222.441 59.5215 221.196 59.5525Z" fill="#010101"/>
<path d="M268.72 75.7533C270.719 74.693 268.571 72.0144 266.835 73.2124C267.129 73.8414 267.042 74.2038 266.622 74.698C266.527 75.8012 267.953 75.8132 268.72 75.7533Z" fill="#010101"/>
<path d="M244.818 59.1846C245.875 58.2591 246.769 56.3013 244.643 56.0078C244.274 56.2474 243.888 56.5 243.476 56.7696C243.353 57.1509 243.229 57.5423 243.102 57.9376C243.531 58.5736 243.877 59.569 244.818 59.1846Z" fill="#010101"/>
<path d="M254.489 65.9844C252.111 66.3048 253.251 69.867 255.414 68.9206C255.636 68.5023 255.893 68.02 256.173 67.4919C255.577 66.9448 255.161 66.3588 254.489 65.9844Z" fill="#010101"/>
<path d="M228.65 53.382C227.667 52.2529 226.792 53.3461 226.121 54.0409C225.64 54.8905 226.916 55.5984 227.68 55.8799C229.268 55.1032 229.318 54.9425 228.65 53.382Z" fill="#010101"/>
<path d="M259.558 77.339C258.837 76.7889 258.255 76.0651 257.166 76.4425C256.919 76.9976 256.331 77.3929 256.266 78.1687C257.297 79.7111 259.277 79.1371 259.558 77.339Z" fill="#010101"/>
<path d="M233.047 60.2635C233.235 60.9664 233.395 61.5704 233.574 62.2413C233.757 62.3241 234.007 62.437 234.238 62.5418C235.039 62.1914 235.871 61.9388 235.996 60.8076C235.317 59.8432 233.884 58.8578 233.047 60.2635Z" fill="#010101"/>
<path d="M252.77 77.599C252.239 76.1254 249.955 75.4105 249.825 77.4382C249.676 79.2932 252.925 79.3221 252.77 77.599Z" fill="#010101"/>
<path d="M254.329 79.4297C253.829 79.5165 253.5 79.836 253.312 80.2274C254.09 80.2713 254.859 80.2813 255.622 80.2613C255.393 79.835 254.961 79.4926 254.329 79.4297Z" fill="#010101"/>
<path d="M222.548 53.8343C221.027 51.7168 219.077 53.5098 219.637 55.1991C221.109 56.2893 221.989 55.235 222.548 53.8343Z" fill="#010101"/>
<path d="M265.128 69.4258C264.774 70.2534 264.222 70.1426 263.731 69.9719C263.125 70.5629 263.143 71.2418 263.117 71.9117C264.975 73.4352 267.417 71.0212 265.128 69.4258Z" fill="#010101"/>
<path d="M267.186 69.0011C272.032 69.676 267.328 63.6539 266.336 67.7432C266.624 68.1705 266.882 68.5509 267.186 69.0011Z" fill="#010101"/>
<path d="M253.164 47.9342C253.876 48.1888 254.202 49.2221 255.187 48.8317C255.583 48.2287 255.878 47.8813 255.906 47.5039L253.164 47.6257C253.164 47.7275 253.164 47.8294 253.164 47.9342Z" fill="#010101"/>
<path d="M252.922 54.2443C253.347 55.9485 254.105 55.9106 255.639 55.4863C256.084 53.0673 254.278 51.8682 252.922 54.2443Z" fill="#010101"/>
<path d="M260.015 47.3198C259.945 47.4346 259.876 47.5485 259.805 47.6653C259.935 48.8803 262.333 49.4254 262.549 48.1565C262.391 47.832 262.484 47.5235 262.543 47.207L260.015 47.3198Z" fill="#010101"/>
<path d="M264.321 52.4338C265.078 52.7343 265.663 52.3419 265.963 51.7758C265.552 51.065 265.167 50.4091 264.824 49.832C263.149 50.2044 262.796 51.3066 264.321 52.4338Z" fill="#010101"/>
<path d="M216.672 56.2223C217.344 56.8432 218.057 57.4962 218.796 58.1671C219.419 57.2666 218.096 55.762 216.672 56.2223Z" fill="#010101"/>
<path d="M218.566 49.6298C217.16 48.9309 216.805 50.0211 216.227 50.8358C216.501 53.6242 220.155 51.7882 218.566 49.6298Z" fill="#010101"/>
<path d="M240.723 49.1436C241.695 49.1626 241.928 48.6893 242.212 48.1133L239.781 48.2221C240.024 48.6264 240.338 48.9339 240.723 49.1436Z" fill="#010101"/>
<path d="M245.096 72.405C245.445 71.825 245.725 71.3587 246.053 70.8106C243.781 67.1516 241.569 72.2662 245.096 72.405Z" fill="#010101"/>
<path d="M225.415 51.2792C225.619 49.1367 223.254 48.9989 222.911 51.0016C222.681 52.4363 225.585 53.229 225.415 51.2792Z" fill="#010101"/>
<path d="M260.905 66.2792C259.712 66.2293 259.727 67.2057 260.012 67.9624C261.445 70.9296 264.429 66.7095 260.905 66.2792Z" fill="#010101"/>
<path d="M268.022 55.9747C268.103 55.9207 268.157 55.8688 268.23 55.8159C267.78 54.9883 267.334 54.1856 266.903 53.4238C266.777 53.5926 266.712 53.8192 266.753 54.1197C266.39 55.2089 267.105 55.4625 268.022 55.9747Z" fill="#010101"/>
<path d="M237.085 49.786C236.503 50.9301 236.503 50.9301 237.15 52.2759C239.939 52.4806 240.284 49.0472 237.085 49.786Z" fill="#010101"/>
<path d="M232.7 64.2407C231.708 62.0083 229.894 62.4586 229.633 64.8756C230.966 65.8301 231.808 65.4277 232.7 64.2407Z" fill="#010101"/>
<path d="M232.945 67.729C233.319 68.2911 233.648 68.7873 234.037 69.3713C237.48 68.3031 234.456 64.062 232.945 67.729Z" fill="#010101"/>
<path d="M232.295 49.9371C231.414 50.1378 230.663 49.5028 229.721 49.9361C228.967 52.8184 233.313 53.2177 232.295 49.9371Z" fill="#010101"/>
<path d="M235.415 48.416L233.625 48.496C233.945 48.649 234.376 48.752 234.93 48.794C235.125 48.67 235.281 48.543 235.415 48.416Z" fill="#010101"/>
<path d="M242.351 73.3331C241.935 73.1375 241.486 72.9258 241.01 72.7012C239.963 73.0756 239.619 74.4603 240.235 75.2809C240.412 75.3948 240.586 75.4996 240.762 75.6104C241.091 75.5425 241.433 75.4726 241.758 75.4057C242.496 74.3884 242.496 74.3884 242.351 73.3331Z" fill="#010101"/>
<path d="M235.479 55.1895C236.705 54.5146 235.293 52.9132 234.208 52.9661C233.724 53.3515 233.224 53.7488 232.75 54.1262C232.82 55.4341 234.519 55.5429 235.479 55.1895Z" fill="#010101"/>
<path d="M247.967 48.8459C248.567 48.5783 248.906 48.2019 249.044 47.8086L246.461 47.9234C246.952 48.2249 247.432 48.5194 247.967 48.8459Z" fill="#010101"/>
<path d="M259.246 71.6369C259.313 70.7214 259.329 69.9077 258.566 69.4395C256.814 69.7619 255.869 70.5766 257.352 72.0033C258.377 72.136 258.377 72.136 259.246 71.6369Z" fill="#010101"/>
<path d="M224.021 55.9648C223.322 56.3183 223.089 56.8634 222.875 57.5303C223.916 60.6741 227.723 56.6877 224.021 55.9648Z" fill="#010101"/>
<path d="M272.902 71.2199C272.213 70.6299 272.205 69.8412 271.472 69.5117C269.883 69.7953 269.456 71.191 270.595 72.3231C271.376 72.0016 272.317 72.0266 272.902 71.2199Z" fill="#010101"/>
<path d="M250.09 70.4872C249.666 72.0896 251.371 73.063 252.472 71.795C253.267 70.0509 250.929 69.0915 250.09 70.4872Z" fill="#010101"/>
<path d="M249.064 66.9124C248.9 66.5829 248.316 66.531 247.96 66.7217C243.443 66.7407 250.129 71.8074 249.064 66.9124Z" fill="#010101"/>
<path d="M247.142 61.9636C247.575 62.0724 248.017 62.1842 248.509 62.307C249.358 61.4175 249.048 60.5279 248.805 59.6574C247.535 58.5881 246.001 60.6617 247.142 61.9636Z" fill="#010101"/>
<path d="M253.078 61.3487C253.582 61.7001 254.026 62.0086 254.445 62.3021C255.465 61.8798 255.465 61.8798 256.074 60.7147C255.42 60.2165 254.764 59.7213 253.859 59.6484C253.227 60.0248 253.367 60.7406 253.078 61.3487Z" fill="#010101"/>
<path d="M258.884 65.5833C259.543 63.9909 259.341 63.7813 258.247 62.9746C255.763 63.0365 256.748 66.5158 258.884 65.5833Z" fill="#010101"/>
<path d="M223.992 62.7757C224.543 63.2519 225.102 63.7301 225.667 64.2103C225.676 64.1694 225.688 64.1295 225.696 64.0895C225.348 63.1111 224.606 62.6369 223.992 62.7757Z" fill="#010101"/>
<path d="M262.318 61.015C262.183 58.8426 259.65 59.6852 259.633 61.3045C260.469 62.7272 261.731 62.5285 262.318 61.015Z" fill="#010101"/>
<path d="M229.981 56.6285C229.875 56.9899 229.775 57.3343 229.695 57.6079C230.107 58.0761 230.465 58.4824 230.846 58.9127C231.407 58.6761 231.981 58.5074 232.341 58.0292C232.252 56.5346 231.281 55.3306 229.981 56.6285Z" fill="#010101"/>
<path d="M239.079 71.0488C239.007 68.8544 236.207 69.4764 236.251 71.3693C237.271 72.0133 238.634 72.7211 239.079 71.0488Z" fill="#010101"/>
<path d="M251.446 65.6403C251.405 64.8526 252.463 64.6339 252.425 63.9051C252.179 63.5727 251.986 63.3161 251.803 63.0695C249.189 62.6192 248.973 65.9308 251.446 65.6403Z" fill="#010101"/>
<path d="M273.669 68.6309C273.7 68.6608 273.732 68.6768 273.763 68.7037C273.714 68.4122 273.65 68.1067 273.567 67.7812C273.552 68.0249 273.571 68.2974 273.669 68.6309Z" fill="#010101"/>
<path d="M245.501 63.3971C244.247 62.6234 243.615 62.9558 243.078 64.3276C244.013 66.6398 246.129 65.275 245.501 63.3971Z" fill="#010101"/>
<path d="M210.597 49.5215H210.584C210.385 49.6393 210.212 49.7731 210.047 49.9138C210.401 50.2623 211.02 50.8693 211.845 51.665C211.996 51.4763 212.105 51.2017 212.178 50.7764C211.836 50.1365 211.143 49.9468 210.597 49.5215Z" fill="#010101"/>
<path d="M242.43 54.9718C242.343 53.9365 241.989 53.3425 241.262 52.6387C240.376 52.7345 240.111 53.3106 239.828 53.8387C240.441 55.1006 241.155 56.3606 242.43 54.9718Z" fill="#010101"/>
<path d="M238.622 65.2443C238.734 64.8928 238.845 64.5464 239.021 64.0013C238.279 62.4039 236.765 62.7533 236.617 64.4995C236.746 64.8409 236.89 65.2233 237.023 65.5757C237.676 65.8473 238.144 65.5068 238.622 65.2443Z" fill="#010101"/>
<path d="M247.983 52.7188C247.475 53.0362 246.98 53.3477 246.398 53.7121C246.551 54.2782 246.681 54.7634 246.812 55.2486C247.96 56.1701 248.691 55.2905 248.94 54.0855C248.705 53.5464 248.556 52.9983 247.983 52.7188Z" fill="#010101"/>
<path d="M263.227 64.6849C263.628 65.1671 264.011 65.6204 264.551 65.9489C267.866 64.2656 264.071 61.4991 263.227 64.6849Z" fill="#010101"/>
<path d="M249.876 58.3037C250.198 58.5174 250.537 58.743 250.932 59.0046C255.07 57.1796 249.37 54.7985 249.876 58.3037Z" fill="#010101"/>
<path d="M242.779 67.6616C242.204 65.8615 240.493 66.3957 239.672 67.7944C240.17 68.2197 240.649 68.629 241.093 69.0094C241.829 68.7868 242.311 68.3744 242.779 67.6616Z" fill="#010101"/>
<path d="M263.109 57.8046C263.372 59.5198 266.751 58.8709 265.536 56.8342C265.203 56.7473 264.851 56.6565 264.495 56.5646C264.504 56.4708 264.518 56.341 264.533 56.2112C263.531 55.8888 263.405 57.2385 263.109 57.8046Z" fill="#010101"/>
<path d="M257.019 58.6695C257.556 58.397 258.176 58.387 258.89 58.7285C259.773 53.9273 255.041 57.2339 257.019 58.6695Z" fill="#010101"/>
<path d="M226.887 59.4922C227.028 60.1411 226.962 60.3857 226.617 60.8549C227.329 64.0247 231.676 60.0493 226.887 59.4922Z" fill="#010101"/>
<path d="M246.998 73.4183C246.954 73.9374 246.911 74.4236 246.867 74.9338C250.466 76.7698 249.873 72.0056 246.998 73.4183Z" fill="#010101"/>
<path d="M268.142 62.3077C268.583 61.6877 269.569 60.7462 268.807 60.0354C267.62 59.2886 267.322 60.6414 266.391 61.0418C266.891 61.5889 267.347 63.1443 268.142 62.3077Z" fill="#010101"/>
<path d="M244.328 76.752C244.002 76.8139 243.751 77.0195 243.578 77.2711C244.227 77.6265 244.858 77.948 245.473 78.2405C245.583 77.7114 245.174 76.9995 244.328 76.752Z" fill="#010101"/>
</g>
<path d="M209.693 49.5616C207.974 49.8751 239.401 83.2983 249.885 79.808C260.37 76.3178 264.448 38.5098 264.448 38.5098C264.448 38.5098 233.686 45.1828 209.693 49.5616Z" fill="#FFE4C0"/>
<path d="M128.68 18.5195C130.04 20.7658 131.154 23.1739 132.288 25.538C134.276 29.6782 136.184 33.8564 138.073 38.0415C143.51 50.0788 148.77 62.1959 153.981 74.332C160.076 88.5257 166.084 102.758 172.008 117.025C177.359 129.912 182.653 142.824 187.779 155.801C190.966 163.869 194.296 171.956 196.883 180.242C197.044 180.757 197.199 181.275 197.342 181.795C197.59 182.697 198.996 182.314 198.747 181.407C196.675 173.86 193.539 166.526 190.692 159.25C185.764 146.65 180.647 134.124 175.478 121.621C169.562 107.311 163.556 93.0363 157.468 78.7977C152.085 66.2063 146.647 53.6379 141.054 41.1384C137.725 33.7016 134.519 26.1121 130.607 18.9548C130.392 18.5605 130.171 18.1691 129.939 17.7847C129.455 16.983 128.193 17.7138 128.68 18.5195Z" fill="#010101"/>
<path d="M228.623 137.371C253.494 120.949 275.339 99.7822 292.755 75.6278C293.239 74.9559 292.135 74.3339 291.65 74.9829C273.769 98.9126 252.613 119.466 228.342 136.889C228.055 137.096 228.319 137.571 228.623 137.371Z" fill="#010101"/>
<path d="M274.157 122.083C286.696 111.398 297.651 99.0945 306.5 85.1962C306.921 84.5343 305.877 83.9343 305.452 84.5843C296.474 98.3078 285.941 110.705 273.586 121.511C273.192 121.856 273.765 122.418 274.157 122.083Z" fill="#010101"/>
<path d="M212.203 52.7071C229.394 50.8621 246.575 46.657 263.315 42.4469C263.768 42.3331 263.575 41.6322 263.122 41.747C246.243 45.9961 229.164 48.7995 212.163 52.4066C211.997 52.4425 212.03 52.726 212.203 52.7071Z" fill="#010101"/>
<path d="M117.955 160.634L165.618 174.099C160.314 163.156 157.699 151.136 155.16 137.193C145.445 138.781 136.637 140.765 126.922 142.352C124.685 142.717 122.362 143.118 120.513 144.426C118.198 146.067 116.993 148.926 116.711 151.746C116.43 154.567 116.957 158.733 117.481 161.518" fill="#CADFF7"/>
<path d="M96.5679 88.7181C100.054 91.5824 104.668 92.439 109.063 91.7261C109.63 91.6343 109.386 90.7847 108.826 90.8685C104.461 91.5205 100.58 90.5281 96.6998 88.5464C96.5959 88.4944 96.4669 88.6352 96.5679 88.7181Z" fill="#010101"/>
<path d="M153.665 103.465C157.982 104.723 162.245 104.51 166.329 102.535C166.929 102.244 166.405 101.382 165.81 101.648C162.011 103.356 157.871 103.962 153.76 103.123C153.537 103.078 153.444 103.401 153.665 103.465Z" fill="#010101"/>
<path d="M119.003 144.752C131.561 148.926 144.237 152.795 156.956 156.455C157.952 156.741 158.371 155.207 157.383 154.907C144.724 151.065 131.987 147.421 119.183 144.099C118.758 143.989 118.591 144.615 119.003 144.752Z" fill="#010101"/>
<path d="M127.947 10.2731C128.093 12.9947 128.238 15.7152 128.384 18.4357C128.434 19.3682 129.892 19.3732 129.842 18.4357C129.696 15.7152 129.551 12.9937 129.405 10.2731C129.355 9.34165 127.896 9.33566 127.947 10.2731Z" fill="#010101"/>
<path d="M276.625 0.918797C276.936 2.62899 277.247 4.33918 277.558 6.04938C277.628 6.43674 278.1 6.65538 278.455 6.55754C278.863 6.44573 279.035 6.05037 278.964 5.66201C278.653 3.95181 278.342 2.24163 278.031 0.531432C277.961 0.144067 277.489 -0.074577 277.134 0.0232626C276.726 0.135079 276.554 0.530434 276.625 0.918797Z" fill="#010101"/>
<path d="M128.615 12.8956C153.173 11.9841 177.731 9.38232 202.262 7.83984C226.827 6.29638 251.404 4.97555 275.991 3.88134C277.008 3.83641 277.012 2.25002 275.991 2.29794C251.405 3.46003 226.826 4.80283 202.262 6.37026C177.759 7.93469 152.985 8.91809 128.615 11.9551C128.033 12.03 127.994 12.9195 128.615 12.8956Z" fill="#010101"/>
<path d="M154.446 105.297C152.019 123.567 153.687 142.385 158.875 160.054C160.314 164.957 162.048 169.764 164.045 174.469C164.409 175.328 165.665 174.587 165.303 173.734C158.18 156.946 154.617 138.597 154.822 120.371C154.878 115.329 155.24 110.296 155.904 105.297C156.026 104.37 154.568 104.379 154.446 105.297Z" fill="#010101"/>
<g opacity="0.3">
<path d="M161.101 164.037L160.916 163.324C160.904 163.57 160.965 163.814 161.101 164.037Z" fill="#010101"/>
<path d="M152.572 141.698C154.484 141.501 154.429 138.605 152.675 138.461C150.439 139.302 150.274 140.855 152.572 141.698Z" fill="#010101"/>
<path d="M154.194 142.733C154.002 144.286 155.107 144.871 156.074 144.746L155.353 141.982C154.948 142.245 154.56 142.497 154.194 142.733Z" fill="#010101"/>
<path d="M144.111 140.029C144.649 142.189 145.862 141.883 147.233 140.623C147.883 138.879 144.024 137.684 144.111 140.029Z" fill="#010101"/>
<path d="M152.09 145.451C151.565 145.639 151.073 145.876 150.789 146.506C151.712 151.111 156.782 145.751 152.09 145.451Z" fill="#010101"/>
<path d="M139.336 151.861C138.422 152.446 137.495 152.582 137.312 153.724C138.829 155.455 139.996 155.651 140.629 153.217C140.465 152.478 139.897 152.221 139.336 151.861Z" fill="#010101"/>
<path d="M147.453 143.74C147.784 144.361 148.317 144.778 149.082 145.041C149.895 144.777 150.463 144.347 150.654 143.501C150.055 141.295 147.881 141.684 147.453 143.74Z" fill="#010101"/>
<path d="M155.317 165.095C156.081 164.985 156.667 164.653 157.192 164.05C156.886 163.392 157.025 162.547 156.358 161.853C154.472 161.587 153.608 164.211 155.317 165.095Z" fill="#010101"/>
<path d="M155.984 148.52C151.725 149.832 156.294 153.296 157.432 150.195C157.226 149.452 157.113 148.675 155.984 148.52Z" fill="#010101"/>
<path d="M158.711 154.868L158.09 152.484C157.313 153.43 157.907 154.487 158.711 154.868Z" fill="#010101"/>
<path d="M145.612 148.369C147.524 148.13 147.49 145.408 145.697 145.148C144.844 145.393 144.204 146.142 144.094 146.976C144.09 147.646 145.24 147.863 145.612 148.369Z" fill="#010101"/>
<path d="M143.819 156.193C142.892 155.246 141.286 155.079 140.961 156.636C141.098 159.586 144.491 158.375 143.819 156.193Z" fill="#010101"/>
<path d="M159.39 158.484C158.785 158.677 158.265 158.857 157.95 159.366C157.662 162.323 159.629 162.019 160.276 160.864L159.724 158.747C159.619 158.659 159.522 158.569 159.39 158.484Z" fill="#010101"/>
<path d="M135.866 142.199L135.57 144.733C135.575 144.734 135.578 144.736 135.583 144.737C138.138 144.586 137.361 142.96 135.866 142.199Z" fill="#010101"/>
<path d="M156.103 168.926C155.659 169.035 155.219 169.141 154.85 169.233C154.529 169.607 154.424 169.99 154.398 170.388L156.789 171.004C157.126 170.325 157.01 169.409 156.103 168.926Z" fill="#010101"/>
<path d="M140.979 143.861C142.176 145.903 143.562 144.946 143.782 142.901C143.062 141.528 140.678 142.294 140.979 143.861Z" fill="#010101"/>
<path d="M150.82 166.887C151.069 167.993 152.31 168.2 153.135 168.044C153.626 167.513 153.886 166.217 153.409 165.591C152.103 165.224 151.32 165.78 150.82 166.887Z" fill="#010101"/>
<path d="M143.28 137.588C143.28 137.509 143.28 137.439 143.28 137.363L141.258 137.667C141.502 137.938 141.815 138.151 142.24 138.277C142.599 138.039 142.976 137.791 143.28 137.588Z" fill="#010101"/>
<path d="M150.493 136.279L147.805 136.684C148.252 138.359 150.767 138.455 150.493 136.279Z" fill="#010101"/>
<path d="M133.829 159.658L133.711 160.665C133.91 160.299 133.938 159.955 133.829 159.658Z" fill="#010101"/>
<path d="M138.472 138.904C137.239 139.091 137.577 140.228 138.025 141.1C141.14 141.854 141.513 137.999 138.472 138.904Z" fill="#010101"/>
<path d="M163.014 171.386L162.342 168.809C162.085 168.845 161.803 168.912 161.471 169.056C161.323 169.716 161.403 170.402 161.416 171.274C162.069 171.631 162.609 171.604 163.014 171.386Z" fill="#010101"/>
<path d="M144.701 152.419C143.207 154.487 146.153 155.161 147.547 153.778C146.693 152.826 146.006 151.365 144.701 152.419Z" fill="#010101"/>
<path d="M156.858 157.497C157.999 156.082 155.745 154.687 154.484 155.902C153.919 157.368 155.865 159.004 156.858 157.497Z" fill="#010101"/>
<path d="M135.304 155.763C134.168 157.327 134.21 157.755 135.592 158.428C137.712 157.833 137.842 155.445 135.304 155.763Z" fill="#010101"/>
<path d="M152.474 158.775C149.718 159.675 151.568 162.371 153.685 160.901C153.98 159.389 153.96 159.351 152.474 158.775Z" fill="#010101"/>
<path d="M150.333 162.963C149.8 161.449 147.647 162.204 147.438 163.611C148.119 165.213 150.791 164.768 150.333 162.963Z" fill="#010101"/>
<path d="M149.023 169.001L150.181 169.3C149.839 168.991 149.441 168.904 149.023 169.001Z" fill="#010101"/>
<path d="M147.727 156.147C147.442 158.258 149.839 158.945 150.466 156.895C150.083 155.203 148.92 155.286 147.727 156.147Z" fill="#010101"/>
<path d="M147.349 159.521C145.433 156.846 142.886 161.583 146.108 161.487C146.763 161.004 146.508 160.039 147.349 159.521Z" fill="#010101"/>
<path d="M141.988 149.045C141.712 149.464 141.463 149.844 141.234 150.191C141.796 151.865 142.307 151.614 143.649 151.095C144.328 149.741 143.459 148.656 141.988 149.045Z" fill="#010101"/>
<path d="M135.045 149.257L134.82 151.18C135.014 151.421 135.308 151.626 135.752 151.742C136.351 151.265 136.988 150.801 137.217 149.991C136.482 148.726 135.592 148.759 135.045 149.257Z" fill="#010101"/>
<path d="M138.219 166.214L140.365 166.767C140.307 166.307 140.098 165.889 139.65 165.527C139.003 165.692 138.538 165.94 138.219 166.214Z" fill="#010101"/>
<path d="M143.142 164.571C143.406 164.19 143.664 163.819 143.92 163.45C143.701 163.026 143.497 162.63 143.208 162.07C140.771 162.091 140.314 165.232 143.142 164.571Z" fill="#010101"/>
<path d="M157.88 166.813C158.527 167.689 158.505 168.44 159.91 168.142C160.108 167.765 160.318 167.363 160.603 166.818C160.25 165.543 157.454 165.204 157.88 166.813Z" fill="#010101"/>
<path d="M150.392 149.272C150 149.071 149.636 148.885 149.326 148.727C148.44 148.895 147.911 149.345 147.734 150.165C148.55 151.877 151.071 151.304 150.392 149.272Z" fill="#010101"/>
<path d="M140.302 160.561C140.17 160.07 140.057 159.649 139.917 159.131C139.448 159.037 139.005 158.951 138.6 158.871C138.044 159.215 137.798 159.695 137.648 160.231C137.822 161.469 139.848 161.742 140.302 160.561Z" fill="#010101"/>
<path d="M139.367 145.404C138.372 145.703 137.729 146.232 137.785 147.324C138.605 148.766 140.264 148.079 140.286 146.544C140.082 146.099 139.799 145.686 139.367 145.404Z" fill="#010101"/>
<path d="M134.266 163.677C134.752 165.535 138.303 164.41 136.592 162.438C135.636 162.254 134.465 162.683 134.266 163.677Z" fill="#010101"/>
<path d="M151.762 152.719C150.015 153.765 152.101 154.936 153.378 154.514C154.616 153.282 153.114 152.001 151.762 152.719Z" fill="#010101"/>
<path d="M144.344 166.999C144.935 167.835 146.054 168.513 146.719 167.393C147.393 165.844 144.49 164.977 144.344 166.999Z" fill="#010101"/>
<path d="M138.169 165.622C138.23 165.606 138.291 165.589 138.351 165.572C138.456 164.602 137.593 164.823 138.169 165.622Z" fill="#010101"/>
</g>
</svg>
