<svg width="80" height="81" viewBox="0 0 80 81" fill="none" xmlns="http://www.w3.org/2000/svg">
<mask id="mask0_2492_25753" style="mask-type:alpha" maskUnits="userSpaceOnUse" x="0" y="0" width="80" height="81">
<circle cx="40" cy="40.5" r="40" fill="#C3DEF7"/>
</mask>
<g mask="url(#mask0_2492_25753)">
<circle cx="40" cy="40.5" r="40" fill="#FFE4C0"/>
<path d="M29.0341 28.3885C28.6401 27.5252 27.8743 26.9011 27.1715 26.3091C26.558 25.7923 25.7998 26.0133 25.3945 26.6783C24.772 27.6997 25.0029 29.3548 25.4679 30.3968C25.8078 31.1584 27.1371 33.081 28.1554 32.6648C28.4652 32.5382 28.6862 32.2594 28.8549 31.9701C29.4807 30.8975 29.5498 29.5185 29.0341 28.3885Z" fill="#010101"/>
<path d="M26.0751 27.9786C26.3022 28.1912 26.6032 28.3948 26.9017 28.3082C27.1749 28.229 27.3244 27.9403 27.4229 27.6731C27.9444 26.2574 27.8853 24.6371 27.262 23.2633C27.0734 22.8472 26.8079 22.4288 26.3874 22.2511C25.1404 21.7239 24.7807 23.8455 24.728 24.639C24.6433 25.9184 25.1429 27.1062 26.0751 27.9786Z" fill="#010101"/>
<path d="M65.6603 42.0144C65.7439 42.7864 65.7859 43.5628 65.7878 44.3394C65.7969 48.2237 64.7983 52.0959 62.9803 55.523C62.0712 57.2368 60.9556 58.8419 59.6559 60.2822C59.0017 61.0073 58.2689 61.6302 57.5736 62.3104C57 62.8716 56.4435 63.5774 55.5241 63.2168C54.2625 62.7219 53.9167 60.925 54.3209 59.7621C54.6476 58.8223 55.3056 58.0427 55.9045 57.2483C58.1366 54.2876 59.8768 50.6616 60.4822 46.9803C61.0782 43.3565 60.1664 39.1242 58.6744 35.8116C57.6116 33.4521 56.1129 31.2922 54.2872 29.46C53.4128 28.5825 52.4389 27.6595 51.3734 27.016C50.4323 26.4477 49.9574 25.6383 50.6238 24.5061C51.4149 23.1616 52.5986 23.4676 53.7059 24.0805C60.2326 27.6927 64.8561 34.5873 65.6603 42.0144Z" fill="#010101"/>
<path d="M58.2321 50.7589C58.2031 55.0853 57.9324 59.4539 56.701 63.6245C56.3003 64.9818 56.0123 66.3922 54.6527 67.0424C53.0661 67.8011 51.3318 67.9721 49.7383 67.1106C48.018 66.1803 46.8694 64.4572 46.0364 62.6866C44.4343 59.2813 43.7574 55.5137 43.3808 51.7687C42.9161 47.1455 42.8855 42.4787 43.2897 37.8499C43.6567 33.6476 44.4278 29.352 46.6771 25.7845C47.2532 24.8709 48.865 22.8445 50.1759 23.5355C50.7362 23.8308 51.2738 24.7544 51.6518 25.25C52.1359 25.8848 52.5811 26.5488 52.9909 27.2341C54.6692 30.0406 55.7415 33.1719 56.5255 36.334C57.6935 41.0456 58.2647 45.9045 58.2321 50.7589Z" fill="#010101"/>
<path d="M58.0837 53.6932C58.0503 55.294 57.9201 56.8932 57.6887 58.4776C57.458 60.0574 57.1301 61.623 56.7075 63.1626C56.4686 64.0328 56.1991 64.8945 55.9004 65.746C55.8323 65.9403 56.1404 66.0239 56.2082 65.8309C56.7409 64.3124 57.1797 62.7614 57.5207 61.1886C57.8619 59.6145 58.1059 58.0188 58.2517 56.4146C58.334 55.5096 58.3841 54.6017 58.403 53.6931C58.407 53.4877 58.0878 53.4877 58.0837 53.6932Z" fill="#010101"/>
<path d="M51.167 36.0948C51.4622 37.7359 51.7024 39.3865 51.8853 41.0437C52.0688 42.7067 52.1958 44.3762 52.2665 46.0479C52.3369 47.7114 52.3512 49.3772 52.3099 51.0417C52.2686 52.7063 52.1712 54.3693 52.0182 56.0272C51.864 57.6957 51.6532 59.3587 51.385 61.0127C51.3518 61.2171 51.3178 61.4214 51.2829 61.6255C51.2486 61.8265 51.5561 61.9129 51.5907 61.7104C51.873 60.0552 52.1 58.3903 52.2702 56.7198C52.4406 55.0469 52.5539 53.3682 52.6104 51.6876C52.6667 50.0069 52.6662 48.3244 52.6086 46.6439C52.551 44.9634 52.4366 43.2847 52.265 41.612C52.0938 39.9416 51.8664 38.2767 51.5825 36.6218C51.5476 36.4177 51.5115 36.2138 51.475 36.01C51.4385 35.8078 51.1308 35.8934 51.167 36.0948Z" fill="#010101"/>
<path d="M57.0636 32.454C57.0449 31.7712 57.1497 31.0624 57.503 30.4671C57.8225 29.9291 58.3572 29.5346 58.9852 29.4514C59.3183 29.4073 59.6576 29.4632 59.9483 29.6346C60.1258 29.739 60.2865 29.4631 60.1093 29.3588C59.4971 28.9982 58.7317 29.0739 58.1266 29.4113C57.4719 29.7765 57.0631 30.4466 56.879 31.159C56.77 31.5803 56.7325 32.0196 56.7443 32.454C56.75 32.6591 57.0692 32.6599 57.0636 32.454Z" fill="#010101"/>
<path d="M59.9824 38.4848C60.2136 37.8561 60.6884 37.3304 61.2766 37.0151C61.8986 36.6818 62.632 36.6232 63.3062 36.8217C63.6901 36.9348 64.048 37.1298 64.3471 37.3965C64.4999 37.5329 64.7265 37.3077 64.5727 37.1707C63.9722 36.6352 63.1648 36.3482 62.3602 36.3909C61.5994 36.4313 60.8784 36.7719 60.3502 37.3197C60.0517 37.6292 59.823 37.9965 59.6746 38.4C59.6036 38.5931 59.9119 38.6765 59.9824 38.4848Z" fill="#010101"/>
<path d="M60.8953 46.5912C61.364 46.0941 62.0296 45.8057 62.7124 45.7977C63.3708 45.79 64.003 46.0629 64.4693 46.5248C64.7296 46.7825 64.9354 47.0946 65.0602 47.4397C65.1296 47.6315 65.4381 47.5487 65.3679 47.3547C65.1183 46.665 64.6011 46.083 63.9414 45.7601C63.258 45.4256 62.4592 45.3909 61.7465 45.6576C61.3391 45.81 60.9684 46.0481 60.6696 46.3652C60.5288 46.5149 60.754 46.741 60.8953 46.5912Z" fill="#010101"/>
<path d="M58.8057 53.0897C59.1111 52.9463 59.4802 52.9367 59.8091 52.9824C60.1437 53.0287 60.4812 53.1377 60.7608 53.3311C61.4286 53.7934 61.7232 54.6787 61.7862 55.4529C61.8323 56.0191 61.7798 56.5873 61.7101 57.1491C61.6994 57.2348 61.791 57.3088 61.8697 57.3088C61.9648 57.3088 62.0186 57.235 62.0293 57.1491C62.1544 56.1403 62.2077 55.0895 61.783 54.1398C61.6093 53.7512 61.3512 53.3877 61.0145 53.1242C60.7066 52.8833 60.3207 52.7427 59.9371 52.6812C59.5037 52.6116 59.0476 52.6249 58.6447 52.8141C58.459 52.9013 58.6208 53.1766 58.8057 53.0897Z" fill="#010101"/>
<path d="M52.3484 56.477C52.8099 55.759 53.5677 55.2606 54.3922 55.0624C55.2408 54.8585 56.1453 55.0062 56.8974 55.4452C57.3094 55.6857 57.6721 56.0102 57.9411 56.4056C58.056 56.5745 58.3327 56.4149 58.2167 56.2443C57.6831 55.46 56.8313 54.9158 55.9042 54.7273C54.9745 54.5384 53.9975 54.7205 53.1919 55.2214C52.744 55.4999 52.3583 55.8717 52.0728 56.3158C51.9615 56.4891 52.2377 56.6494 52.3484 56.477Z" fill="#010101"/>
<path d="M52.6393 48.3824C52.8033 47.5484 53.3743 46.8355 54.0732 46.3736C54.8018 45.8921 55.6769 45.7037 56.5356 45.8867C57.0135 45.9886 57.4707 46.193 57.8532 46.4995C57.9204 46.5533 58.0132 46.5651 58.0788 46.4995C58.1345 46.4437 58.1465 46.3278 58.0788 46.2737C57.3181 45.6641 56.3296 45.3998 55.3653 45.5343C54.4495 45.662 53.5935 46.1917 53.0136 46.9049C52.6841 47.3103 52.4331 47.782 52.3316 48.2975C52.2921 48.4984 52.5997 48.5843 52.6393 48.3824Z" fill="#010101"/>
<path d="M52.1196 40.4237C52.6032 39.7871 53.1179 39.1429 53.7913 38.6972C54.3906 38.3005 55.1261 38.0614 55.8467 38.2066C56.2278 38.2834 56.5618 38.4671 56.8117 38.7673C56.9433 38.9254 57.168 38.6983 57.0373 38.5415C56.5295 37.9318 55.7053 37.7678 54.951 37.8848C54.1168 38.0143 53.3863 38.5198 52.8056 39.1108C52.4547 39.468 52.1464 39.8642 51.8438 40.2624C51.7917 40.331 51.8331 40.4411 51.9011 40.4808C51.9833 40.5291 52.0672 40.4927 52.1196 40.4237Z" fill="#010101"/>
<path d="M52.4583 53.1619C51.8069 52.6586 50.9724 52.397 50.1504 52.4283C49.365 52.4582 48.6158 52.7611 48.0137 53.2635C47.6783 53.5435 47.3957 53.8878 47.1852 54.2707C47.0861 54.4509 47.3617 54.6123 47.4608 54.4319C47.8048 53.806 48.3493 53.3109 48.9991 53.0171C49.6746 52.7116 50.449 52.669 51.1607 52.8662C51.574 52.9807 51.9581 53.1757 52.2973 53.4379C52.3656 53.4906 52.476 53.4483 52.5156 53.3806C52.5638 53.2978 52.5268 53.2148 52.4583 53.1619Z" fill="#010101"/>
<path d="M52.4195 44.4525C51.7876 43.8408 50.8711 43.6771 50.0278 43.8322C49.1227 43.9986 48.3512 44.5622 47.7486 45.2377C47.3912 45.6385 47.0824 46.0809 46.7985 46.536C46.6894 46.7109 46.9654 46.8714 47.0741 46.6971C47.5365 45.9562 48.0733 45.226 48.793 44.7153C49.4434 44.2538 50.2502 43.9933 51.0503 44.1259C51.4785 44.1968 51.8801 44.3747 52.194 44.6784C52.3414 44.8214 52.5674 44.5957 52.4195 44.4525Z" fill="#010101"/>
<path d="M48.6384 56.0492L34.1875 58.7705C34.4955 57.0505 34.73 55.3178 34.8896 53.5787C35.1465 50.8096 35.2167 48.0245 35.0987 45.2458L42.0289 40.5539L49.0039 35.8301C48.3289 42.5453 48.206 49.3148 48.6384 56.0492Z" fill="#FDF7EC"/>
<path d="M42.3395 50.3495C40.3385 52.2164 37.7039 53.6792 34.8906 53.5786C35.1475 50.8094 35.2177 48.0243 35.0997 45.2456L42.0299 40.5537C43.0001 40.3222 44.023 40.2328 44.9549 40.5697C49.3479 42.1635 44.1905 48.6248 42.3395 50.3495Z" fill="#010101"/>
<path d="M49.5359 39.0117C50.8531 36.03 51.7067 32.8532 51.9856 29.6505C52.3247 25.7558 51.68 21.5781 49.1874 18.568C47.4721 16.4966 45.0113 15.1427 42.4376 14.3666C39.8977 13.6007 37.1434 13.3633 34.5922 14.0904C28.2836 15.8885 25.6154 22.4585 26.1032 28.5276C26.1873 29.5736 26.3411 30.6291 26.5005 31.666C26.6513 32.6465 26.5489 33.5958 26.4836 34.5895C26.3569 36.5193 26.4002 38.4708 26.7793 40.372C27.1639 42.3003 27.9712 43.7943 28.8766 45.4762C30.8014 49.0521 34.0554 53.4957 38.6953 51.7248C40.1118 51.1842 41.3171 50.2058 42.4175 49.1622C45.3959 46.3375 47.8469 42.835 49.5359 39.0117Z" fill="#FDF7EC"/>
<path d="M37.979 32.3383C37.8977 32.5217 38.1081 32.6949 38.2697 32.5766C38.9817 32.0558 40.4014 31.2225 41.9246 31.4844C43.3203 31.7244 44.3236 32.5071 44.8621 33.0356C45.2212 33.3878 45.7701 33.475 46.2046 33.2219C46.2223 33.2115 46.2402 33.201 46.2583 33.19C46.2913 33.1699 46.3032 33.1264 46.2833 33.0934C46.1933 32.9431 45.9016 32.5178 45.1685 31.8826C44.334 31.1594 42.2624 29.9566 39.9457 30.6768C38.7562 31.0465 38.2186 31.7978 37.979 32.3383Z" fill="#010101"/>
<path d="M26.6328 32.6388C26.6328 32.6388 26.6869 32.672 26.7898 32.7105C27.2129 32.8689 27.6858 32.7519 28.0128 32.44C28.3254 32.1417 28.8692 31.7661 29.6673 31.6995C30.6199 31.6201 31.762 32.0537 32.7494 32.7421C32.9639 32.8918 33.2182 32.6144 33.0443 32.4192C32.5061 31.8156 31.6849 31.1816 30.5042 30.9414C27.7787 30.3868 26.6328 32.6388 26.6328 32.6388Z" fill="#010101"/>
<path d="M36.1485 32.4046C36.1453 32.6478 36.2438 32.9578 36.4686 33.0677C36.7324 33.1967 37.0262 32.9636 37.0303 32.6702C37.0337 32.4267 36.922 32.0705 36.7041 31.9512C36.6165 31.9032 36.5091 31.897 36.4169 31.9343C36.2449 32.0044 36.1511 32.2104 36.1485 32.4046Z" fill="#CADFF7"/>
<path d="M33.3384 32.9141C33.4592 33.0896 33.6665 32.9805 33.7613 32.8448C33.8904 32.6603 34.263 32.0942 33.9413 31.9241C33.5375 31.7108 33.1491 32.6391 33.3384 32.9141Z" fill="#CADFF7"/>
<path d="M30.167 34.9587C30.6843 35.2241 31.1954 35.0433 31.5305 34.5922C32.0065 33.9513 32.1561 32.9626 31.9234 32.2031C31.8163 31.8535 31.609 31.5354 31.2658 31.3836C30.5713 31.0766 29.9852 31.4136 29.6994 32.1035C29.3712 32.8957 29.238 34.4818 30.167 34.9587Z" fill="#010101"/>
<path d="M42.184 34.7573C43.2454 34.1076 43.6699 31.4765 42.2333 31.0563C40.6525 30.594 40.1478 33.0995 40.5418 34.1528C40.6296 34.3874 40.7692 34.6092 40.9736 34.7538C41.3154 34.9955 41.838 34.9689 42.184 34.7573Z" fill="#010101"/>
<path d="M31.9212 37.1901C31.7537 37.6836 31.5989 38.2438 31.727 38.7644C31.7932 39.0337 31.9493 39.2542 32.1749 39.4133C32.4047 39.575 32.6881 39.657 32.8895 39.8586C33.0349 40.0043 33.2607 39.7785 33.1151 39.6328C32.9205 39.4378 32.6672 39.3396 32.4347 39.201C32.2301 39.079 32.0919 38.9134 32.0348 38.6798C31.9218 38.2183 32.0811 37.7107 32.229 37.2752C32.2952 37.0799 31.9871 36.9963 31.9212 37.1901Z" fill="#010101"/>
<path d="M35.685 39.8248C35.6997 39.8096 35.7148 39.7951 35.7305 39.7811C35.7394 39.7731 35.7487 39.7653 35.7581 39.7574C35.7648 39.7518 35.8032 39.722 35.7782 39.741C35.8305 39.7012 35.8851 39.6645 35.9406 39.6295C36.0775 39.5431 36.2213 39.4669 36.3692 39.4012C36.5125 39.3374 36.67 39.2835 36.8267 39.2512C36.8992 39.2363 36.941 39.23 37.0214 39.2292C37.1049 39.2282 37.1156 39.23 37.1933 39.2521C37.2001 39.2541 37.207 39.2568 37.2137 39.2593C37.2368 39.2681 37.1928 39.249 37.2147 39.26C37.2292 39.2673 37.2432 39.2753 37.2571 39.2839C37.278 39.2967 37.2496 39.2734 37.274 39.2972C37.2857 39.3087 37.2975 39.32 37.3079 39.3328C37.2895 39.31 37.3192 39.3529 37.3238 39.3609C37.3359 39.3813 37.3356 39.3842 37.3366 39.3871C37.3485 39.4192 37.3608 39.4733 37.3632 39.4936C37.3728 39.5794 37.4298 39.6533 37.5228 39.6533C37.6016 39.6533 37.6919 39.5798 37.6824 39.4936C37.5747 38.5303 36.3777 39.0001 35.8631 39.3029C35.7214 39.3863 35.5741 39.4796 35.4595 39.599C35.317 39.7472 35.5423 39.9733 35.685 39.8248Z" fill="#010101"/>
<path d="M38.519 42.914C37.5347 42.2016 36.4148 41.6112 35.2112 41.5446C34.8579 41.5251 34.4955 41.5529 34.1687 41.6917C33.8419 41.8305 33.5535 42.0919 33.4361 42.4337C33.3186 42.7754 33.3539 43.2192 33.6893 43.4418C33.6893 43.4418 34.83 43.7032 36.022 43.5132C37.214 43.323 38.519 42.914 38.519 42.914Z" fill="#010101"/>
<path d="M33.2962 43.5782C34.7444 43.8189 36.236 43.7542 37.6567 43.3808C38.054 43.2764 38.4443 43.1473 38.8262 42.9958C38.9063 42.964 38.9623 42.8889 38.9375 42.7994C38.9166 42.7232 38.8219 42.6558 38.7413 42.6879C37.4213 43.2117 36 43.4541 34.581 43.3944C34.1788 43.3775 33.7781 43.3364 33.3809 43.2703C33.296 43.2562 33.209 43.2927 33.1846 43.3818C33.1637 43.4583 33.2108 43.564 33.2962 43.5782Z" fill="#010101"/>
<path d="M34.0977 45.2254C35.0519 45.8351 36.3225 45.8652 37.3075 45.3099C37.4865 45.209 37.3259 44.933 37.1465 45.0341C36.2569 45.5354 35.118 45.4987 34.2589 44.9496C34.0851 44.8386 33.9249 45.1151 34.0977 45.2254Z" fill="#010101"/>
<path d="M40.6139 26.2125C41.5733 26.033 42.5797 26.1334 43.491 26.4795C44.0058 26.675 45.5281 27.2598 45.0024 28.0538C44.8824 28.235 44.6736 28.3425 44.4608 28.3864C44.2479 28.4303 44.0278 28.4181 43.8108 28.4054C42.8034 28.3473 41.8085 28.3273 40.8014 28.2951C40.473 28.2845 40.1323 28.271 39.84 28.121C39.3351 27.862 39.2405 27.201 39.5604 26.755C39.7984 26.4234 40.2308 26.2842 40.6139 26.2125Z" fill="#010101"/>
<path d="M32.2344 27.5515C32.2416 27.6112 32.2418 27.6718 32.2343 27.7315C32.1607 28.3193 31.4077 28.5756 30.9245 28.7274C30.3282 28.9145 29.7046 28.9899 29.0872 29.0715C28.7323 29.1185 28.3761 29.1656 28.0182 29.1676C27.6207 29.17 27.2535 28.9719 27.2743 28.525C27.292 28.141 27.5797 27.7673 27.872 27.5397C28.4933 27.056 29.2997 26.7969 30.0754 26.7176C30.5433 26.6698 31.0223 26.6874 31.4742 26.818C31.6862 26.8792 31.8982 26.9699 32.0461 27.1337C32.1503 27.249 32.2159 27.3976 32.2344 27.5515Z" fill="#010101"/>
<path d="M47.7754 27.0922C48.4993 27.3929 49.3003 27.5136 50.0848 27.5794C50.5437 27.6179 50.9987 27.5583 51.4463 27.597C51.9516 27.6406 52.4862 27.8589 52.9689 28.0005C53.275 28.0903 53.6115 28.1792 53.9069 28.061C54.1306 27.9716 54.2892 27.7773 54.4114 27.5767C55.9904 24.988 53.0699 23.121 50.943 22.2612C49.3795 21.6291 47.7086 21.239 46.0157 21.1203C45.0637 21.0536 44.4726 21.6507 44.5181 22.6037C44.5567 23.4137 45.0375 24.2904 45.4699 24.9722C45.8977 25.6469 46.4113 26.2905 47.0928 26.7344C47.3098 26.8759 47.5385 26.9936 47.7754 27.0922Z" fill="#010101"/>
<path d="M48.2008 28.447C48.6805 29.4205 48.8716 30.6353 48.9701 31.6971C49.0011 32.0313 49.0325 32.399 49.2809 32.6355C49.8945 33.2195 50.925 32.638 51.5373 32.3854C52.3275 32.0593 53.4783 31.8835 54.1771 31.4285C54.7564 31.0514 54.9584 30.1112 54.8888 29.4807C54.7498 28.2192 53.9729 27.9442 52.9173 27.5373C52.1384 27.2369 51.3243 26.9937 50.4991 26.8423C49.1565 26.5956 47.3365 26.6925 48.2008 28.447Z" fill="#010101"/>
<path d="M54.5534 22.4396C54.6624 23.1894 54.6164 23.9677 54.2019 24.3945C53.441 25.1778 51.9371 23.8898 51.2396 23.5738C50.0574 23.0383 48.8367 22.5857 47.5893 22.2207C46.727 21.9683 45.808 21.923 44.9789 21.6196C44.1331 21.3101 43.3456 20.8487 42.664 20.2668C42.2869 19.9448 41.4614 19.3746 41.4849 18.8094C41.5118 18.1578 42.5122 17.9223 43.0166 17.8399C44.8172 17.5451 46.6611 17.5087 48.4722 17.7321C50.6284 17.998 53.0913 18.7987 54.097 20.8762C54.2753 21.244 54.4652 21.8324 54.5534 22.4396Z" fill="#010101"/>
<path d="M53.1113 17.7146C52.0817 15.8131 49.8673 14.6941 47.6552 14.389C45.1322 14.0411 42.3146 14.4195 39.9338 15.2373C39.3135 15.4504 38.4853 15.7449 38.0032 16.1714C37.5132 16.6051 36.9461 17.5408 37.7366 17.942C38.0668 18.1093 38.4418 18.1719 38.8108 18.2237C40.9486 18.5233 43.0785 18.3765 45.2187 18.544C47.4324 18.7173 49.6143 19.2761 51.6215 20.194C51.9549 20.3465 52.2908 20.5108 52.656 20.5607C53.9853 20.7422 53.5153 18.5231 53.1933 17.8733C53.167 17.8196 53.1397 17.7668 53.1113 17.7146Z" fill="#010101"/>
<path d="M48.6508 12.7556C47.479 11.975 46.0652 11.5796 44.6487 11.3796C42.7116 11.1062 40.6974 11.1821 38.8455 11.7862C36.9937 12.3902 35.3138 13.5475 34.2982 15.1354C33.6492 16.1501 33.7894 17.4644 35.2685 17.6311C35.9451 17.7075 36.616 17.4689 37.2284 17.1857C37.9924 16.8326 38.7798 16.3887 39.5898 16.1555C40.5732 15.8725 41.6503 15.7569 42.6719 15.6903C45.0408 15.5359 47.4446 15.8357 49.6832 16.5897C49.9303 16.6729 50.19 16.7628 50.4481 16.7186C51.3825 16.5583 50.6766 15.1384 50.4385 14.6866C50.0313 13.9129 49.3947 13.2513 48.6508 12.7556Z" fill="#010101"/>
<path d="M32.8017 12.0773C33.688 11.549 34.7531 11.2146 35.7899 11.229C36.4079 11.2376 38.4774 11.6685 38.0528 12.6332C37.9673 12.8274 37.8133 12.9816 37.6618 13.1303C36.84 13.9368 35.9933 14.6905 35.2354 15.5473C34.5344 16.3397 33.6776 16.995 32.7291 17.4632C32.4256 17.613 32.1047 17.746 31.7667 17.7636C30.2427 17.8428 30.1989 15.8798 30.5192 14.8392C30.8774 13.6749 31.7683 12.6932 32.8017 12.0773Z" fill="#010101"/>
<path d="M27.533 16.5489C26.957 17.3714 26.8162 18.4264 26.9567 19.4037C27.0641 20.1506 27.3006 21.4761 28.3336 21.284C28.7594 21.205 29.1064 20.9009 29.3986 20.581C30.136 19.7739 30.6696 18.7838 30.946 17.7261C31.1022 17.1286 31.1885 16.9965 31.5813 16.5292C31.9856 16.048 32.5626 15.0635 32.3156 14.4038C32.0968 13.8195 31.4929 14.0221 31.0205 14.1663C29.5982 14.6004 28.3998 15.3112 27.533 16.5489Z" fill="#010101"/>
<path d="M24.8284 22.859C24.8981 23.3108 25.0636 23.7317 25.3505 24.086C25.5607 24.3455 25.9553 24.8009 26.2907 24.4608C26.3877 24.3624 26.445 24.2329 26.5004 24.1062C26.8808 23.2367 29.4959 18.8653 27.4958 18.3315C27.0455 18.1841 26.5741 18.4844 26.2379 18.8187C25.3392 19.7117 24.609 21.4374 24.8284 22.859Z" fill="#010101"/>
<path d="M48.2313 27.1998C49.3837 26.6708 50.6967 26.929 51.8496 27.3115C52.8581 27.646 53.9948 28.0948 54.5025 29.1021C54.7488 29.5907 54.8244 30.1934 54.57 30.6942C54.4772 30.877 54.7524 31.0388 54.8456 30.8553C55.1008 30.3529 55.0993 29.7665 54.9082 29.2424C54.7068 28.69 54.3312 28.2473 53.8609 27.9023C53.3694 27.5418 52.7975 27.3049 52.2261 27.1032C51.5838 26.8765 50.9267 26.6856 50.2475 26.6114C49.5077 26.5304 48.7502 26.6115 48.07 26.9239C47.9916 26.9598 47.9723 27.0732 48.0127 27.1424C48.0599 27.223 48.1526 27.2359 48.2313 27.1998Z" fill="#010101"/>
<path d="M44.9894 21.598C45.7246 21.0793 46.7248 21.1622 47.5681 21.2896C48.5307 21.4351 49.4693 21.7293 50.3627 22.1125C51.2385 22.4881 52.1174 22.9257 52.8926 23.4838C53.6091 23.9998 54.2469 24.6927 54.5053 25.5546C54.7585 26.3991 54.5796 27.4322 53.8421 27.9858C53.7733 28.0376 53.7377 28.1238 53.7848 28.2043C53.8245 28.2722 53.9338 28.3137 54.0031 28.2616C54.7094 27.7314 55.0277 26.8188 54.915 25.9542C54.7914 25.0061 54.2222 24.1787 53.5103 23.5661C52.7479 22.9099 51.8299 22.4337 50.9214 22.0138C49.9796 21.5787 48.9944 21.2257 47.9725 21.0355C47.4266 20.934 46.8627 20.8631 46.3066 20.8848C45.7871 20.9051 45.2591 21.018 44.8281 21.3222C44.6618 21.4397 44.8211 21.7168 44.9894 21.598Z" fill="#010101"/>
<path d="M41.8289 18.4499C43.3321 17.7294 45.0062 17.3803 46.6715 17.4287C48.256 17.4747 49.8219 17.8945 51.2231 18.6352C51.9963 19.0438 52.7172 19.5464 53.3652 20.1339C53.5172 20.2716 53.7436 20.0464 53.5909 19.9081C52.3938 18.8231 50.9566 18.0135 49.4091 17.5504C47.7942 17.067 46.0763 16.9823 44.4188 17.2813C43.4661 17.4531 42.5404 17.7559 41.6677 18.1745C41.4826 18.2629 41.6444 18.5384 41.8289 18.4499Z" fill="#010101"/>
<path d="M37.5462 17.132C37.9885 16.3093 38.7704 15.7513 39.6122 15.387C40.4847 15.0093 41.4391 14.7917 42.3733 14.6317C44.1931 14.3201 46.0902 14.2982 47.9052 14.655C48.8716 14.8449 49.8202 15.1446 50.6977 15.5957C50.8801 15.6895 51.0418 15.414 50.8587 15.32C49.2107 14.4729 47.3371 14.1237 45.4963 14.0821C44.5333 14.0604 43.5694 14.1273 42.6171 14.2709C41.6487 14.4169 40.67 14.6317 39.755 14.9863C38.7499 15.3758 37.7934 15.9985 37.2705 16.971C37.1733 17.1518 37.4487 17.3133 37.5462 17.132Z" fill="#010101"/>
<path d="M34.1078 16.7104C34.4049 15.143 35.4088 13.7503 36.7754 12.9362C37.1614 12.7062 37.5728 12.5257 38.0039 12.3993C38.2005 12.3416 38.1169 12.0332 37.919 12.0912C36.3147 12.562 34.9518 13.7604 34.2426 15.2719C34.0401 15.7034 33.8889 16.1571 33.8001 16.6256C33.762 16.8264 34.0695 16.9124 34.1078 16.7104Z" fill="#010101"/>
<path d="M31.0822 17.493C30.4447 16.5393 30.4398 15.2373 31.071 14.2793C31.1845 14.1071 30.9081 13.947 30.7954 14.1182C30.1059 15.1645 30.1101 16.6125 30.8066 17.6543C30.9202 17.8241 31.1968 17.6644 31.0822 17.493Z" fill="#010101"/>
<path d="M27.8512 21.0842C27.2475 20.364 26.9759 19.3733 27.1305 18.4456C27.1447 18.3606 27.1082 18.2736 27.0192 18.2491C26.9427 18.2281 26.8371 18.2752 26.8229 18.3606C26.648 19.4103 26.9421 20.4943 27.6257 21.31C27.7577 21.4678 27.9825 21.2409 27.8512 21.0842Z" fill="#010101"/>
<path d="M24.9208 23.5789C25.0977 24.1165 25.5653 24.5451 26.1233 24.6554C26.2077 24.672 26.2957 24.6313 26.3196 24.544C26.3411 24.4654 26.2931 24.3643 26.2082 24.3475C26.1484 24.3357 26.0895 24.3205 26.0317 24.3011C26.0041 24.2918 25.9768 24.2817 25.9499 24.2706C25.9756 24.2811 25.9347 24.2635 25.9298 24.2613C25.9154 24.2546 25.901 24.2477 25.8868 24.2405C25.8324 24.2132 25.7798 24.1824 25.7292 24.1484C25.7049 24.1321 25.6811 24.1153 25.658 24.0976C25.6791 24.1137 25.6405 24.0831 25.6405 24.0831C25.6282 24.0729 25.6162 24.0626 25.6042 24.0521C25.5109 23.9695 25.436 23.8838 25.3788 23.7979C25.3464 23.7495 25.317 23.699 25.291 23.6469C25.2838 23.6327 25.2769 23.6184 25.2704 23.604C25.2702 23.6035 25.2509 23.558 25.2613 23.5839C25.2493 23.5543 25.2387 23.5245 25.2288 23.4941C25.2018 23.4122 25.1185 23.3589 25.0325 23.3827C24.9522 23.4045 24.8937 23.4967 24.9208 23.5789Z" fill="#010101"/>
<path d="M25.2009 27.1486C25.3684 27.44 25.5823 27.7066 25.8317 27.9321C25.8936 27.9881 25.997 27.9979 26.0573 27.9321C26.1133 27.8711 26.1235 27.766 26.0573 27.7063C25.9391 27.5994 25.829 27.4838 25.7286 27.3599C25.7161 27.3445 25.704 27.3292 25.6919 27.3137C25.7005 27.3247 25.7027 27.3279 25.6928 27.3148C25.6863 27.3061 25.6798 27.2974 25.6732 27.2887C25.6498 27.257 25.6271 27.2251 25.6049 27.1927C25.5593 27.1259 25.5167 27.0574 25.4763 26.9875C25.4347 26.915 25.3301 26.8837 25.258 26.9301C25.1851 26.9772 25.1564 27.0711 25.2009 27.1486Z" fill="#010101"/>
<path d="M49.7394 26.8865C50.5005 27.0585 51.191 27.47 51.7102 28.0524C52.2593 28.6684 52.5762 29.4688 52.6176 30.2919C52.6422 30.7831 52.571 31.2705 52.4071 31.7341C52.3385 31.9283 52.6466 32.0118 52.7148 31.819C53.0243 30.9441 53.0162 29.9573 52.6939 29.0868C52.3953 28.2805 51.8365 27.5952 51.1174 27.1264C50.7236 26.8696 50.2827 26.6824 49.8243 26.5788C49.6243 26.5334 49.5388 26.8411 49.7394 26.8865Z" fill="#010101"/>
<path d="M46.1712 21.2227C47.1685 21.3866 48.1162 21.823 48.8828 22.4839C49.6697 23.1621 50.2457 24.0588 50.543 25.0543C50.7144 25.628 50.7911 26.223 50.771 26.8214C50.7642 27.0269 51.0833 27.0267 51.0902 26.8214C51.1277 25.7048 50.8337 24.581 50.258 23.6238C49.7073 22.7082 48.896 21.9593 47.9455 21.4739C47.4144 21.2028 46.8442 21.0116 46.2559 20.915C46.171 20.9011 46.0842 20.9372 46.0596 21.0265C46.0387 21.1025 46.0856 21.2087 46.1712 21.2227Z" fill="#010101"/>
<path d="M52.0539 22.9425C53.0519 23.7637 53.5772 25.0554 53.4035 26.3415C53.3527 26.7168 53.2445 27.0868 53.0838 27.4295C53.0473 27.5076 53.062 27.6016 53.1411 27.648C53.2104 27.6885 53.3227 27.669 53.3594 27.5906C53.9677 26.2929 53.8617 24.7415 53.0466 23.5564C52.8306 23.2423 52.5738 22.9586 52.2794 22.7165C52.1222 22.5872 51.8952 22.8119 52.0539 22.9425Z" fill="#010101"/>
<path d="M43.5494 17.8121C44.3429 17.5974 45.2099 17.6855 45.9455 18.0538C46.6674 18.4152 47.239 19.0439 47.5369 19.7951C47.7043 20.2172 47.7895 20.6643 47.7814 21.1185C47.7777 21.324 48.0969 21.3242 48.1005 21.1185C48.1167 20.2327 47.7996 19.362 47.2377 18.6799C46.6738 17.9953 45.8502 17.5467 44.9748 17.4196C44.4699 17.3463 43.9577 17.3706 43.4646 17.5041C43.2664 17.5577 43.3505 17.866 43.5494 17.8121Z" fill="#010101"/>
<path d="M48.8959 17.7417C49.3178 17.8326 49.7241 17.9958 50.1133 18.1801C50.5786 18.4005 51.0278 18.6579 51.4502 18.9526C51.8218 19.2117 52.1876 19.5053 52.4699 19.8628C52.7991 20.2798 52.9941 20.8224 53.1013 21.3373C53.2392 21.9991 53.2115 22.6901 53.0231 23.3389C52.9656 23.5366 53.2735 23.6211 53.3307 23.4239C53.5093 22.8095 53.5476 22.1653 53.4579 21.5328C53.3735 20.9382 53.1702 20.3253 52.8342 19.824C52.5729 19.4344 52.2097 19.1214 51.8381 18.8411C51.4084 18.5171 50.944 18.2376 50.4632 17.9965C49.9933 17.7607 49.4968 17.545 48.9809 17.4338C48.7805 17.3906 48.6948 17.6985 48.8959 17.7417Z" fill="#010101"/>
<path d="M41.7325 14.7883C43.0091 14.6138 44.309 15.2115 45.0133 16.2879C45.2018 16.5758 45.3454 16.8877 45.441 17.2184C45.498 17.4155 45.8059 17.3317 45.7487 17.1335C45.3639 15.8013 44.2445 14.7639 42.8787 14.5078C42.4701 14.4311 42.0592 14.4241 41.6476 14.4803C41.5621 14.492 41.5155 14.6015 41.5361 14.6767C41.5616 14.769 41.6468 14.8 41.7325 14.7883Z" fill="#010101"/>
<path d="M49.6168 15.1593C50.5128 15.8641 50.983 17.0615 50.7719 18.1878C50.7342 18.3887 51.0417 18.4748 51.0797 18.2728C51.3105 17.0411 50.8311 15.7113 49.8424 14.9335C49.7747 14.8804 49.6828 14.8674 49.6168 14.9335C49.5614 14.989 49.5486 15.1059 49.6168 15.1593Z" fill="#010101"/>
<path d="M36.309 13.2605C37.4362 12.7528 38.8621 13.1353 39.6123 14.1037C39.8148 14.3651 39.968 14.6629 40.0636 14.9793C40.1229 15.1755 40.4311 15.0919 40.3714 14.8943C40.1796 14.2595 39.7825 13.7068 39.2508 13.3128C38.6981 12.9031 37.999 12.7098 37.3149 12.7255C36.9113 12.7346 36.5162 12.8189 36.1481 12.9847C36.0694 13.0201 36.0506 13.1343 36.0908 13.2031C36.1379 13.2841 36.2301 13.2959 36.309 13.2605Z" fill="#010101"/>
<path d="M44.6114 11.6526C45.0263 11.8683 45.3622 12.2064 45.57 12.6264C45.8022 13.0959 45.8417 13.6464 45.7034 14.1488C45.6488 14.3473 45.9565 14.4319 46.0111 14.2338C46.3187 13.1167 45.8012 11.9118 44.7725 11.3769C44.5905 11.2822 44.4289 11.5577 44.6114 11.6526Z" fill="#010101"/>
<path d="M30.6385 16.1338C30.8764 15.4763 31.2851 14.8479 31.8686 14.4485C32.4198 14.0713 33.104 13.934 33.7506 14.1235C34.0971 14.2251 34.4015 14.4223 34.6267 14.7056C34.6805 14.7732 34.7963 14.7617 34.8523 14.7056C34.919 14.6389 34.9061 14.5475 34.8523 14.4798C34.3963 13.9062 33.6235 13.6587 32.9092 13.731C32.1318 13.8097 31.4565 14.2516 30.98 14.8593C30.6985 15.2181 30.4856 15.6205 30.3305 16.049C30.2608 16.2424 30.5691 16.3259 30.6385 16.1338Z" fill="#010101"/>
<path d="M34.701 11.5854C35.4681 11.5702 36.2105 12.0808 36.4576 12.8111C36.523 13.0048 36.8314 12.9216 36.7652 12.7261C36.4734 11.8631 35.6144 11.248 34.7008 11.266C34.4959 11.2702 34.4951 11.5896 34.701 11.5854Z" fill="#010101"/>
<path d="M27.3045 20.0915C27.4076 19.3093 27.5125 18.501 27.8524 17.78C28.1461 17.157 28.6178 16.5884 29.2848 16.3554C29.6494 16.2279 30.0384 16.2048 30.4083 16.323C30.6044 16.3856 30.6884 16.0773 30.4932 16.0149C29.7493 15.7774 28.9361 16.0357 28.3639 16.5392C27.764 17.067 27.4249 17.8313 27.2373 18.5938C27.1162 19.0859 27.0514 19.5895 26.9853 20.0913C26.974 20.1769 27.0667 20.251 27.1449 20.251C27.2405 20.2512 27.2931 20.1774 27.3045 20.0915Z" fill="#010101"/>
<path d="M25.7894 24.1629C25.2034 23.0135 25.4227 21.5898 26.3244 20.6706C26.5601 20.4304 26.8316 20.2335 27.1316 20.0817C27.3149 19.9889 27.1534 19.7132 26.9706 19.8059C25.7477 20.4253 25.0065 21.7776 25.1608 23.1434C25.2076 23.5568 25.3249 23.9533 25.514 24.3242C25.6072 24.5072 25.8826 24.3457 25.7894 24.1629Z" fill="#010101"/>
<path d="M52.6216 30.7867C52.9093 30.7178 53.2138 30.6793 53.5363 30.6759C54.4996 30.6658 55.4047 31.2652 55.8196 32.1276C56.1443 32.8024 56.185 33.5936 56.0156 34.3232C55.8461 35.0529 55.4772 35.7249 55.0214 36.3191C54.4498 37.0647 53.7018 37.7011 52.8894 38.1692C52.0564 38.6491 51.0833 39.0857 50.1063 39.0873C49.5427 39.0882 48.9518 38.9008 48.5918 38.4667C48.3572 38.1839 48.2388 37.8215 48.175 37.4595C48.1036 37.0553 48.0739 36.5725 48.2324 36.1835C48.3395 35.9205 48.56 35.734 48.677 35.4738C48.9795 34.8007 49.1661 34.0984 49.5269 33.445C50.2015 32.2224 51.2204 31.1229 52.6216 30.7867Z" fill="#FDF7EC"/>
<path d="M49.9034 35.384C50.6799 34.4057 51.712 33.6323 52.8748 33.1744C53.2049 33.0444 53.5444 32.9397 53.89 32.8596C54.0899 32.8133 54.0054 32.5053 53.8051 32.5516C52.5446 32.8437 51.3691 33.474 50.4209 34.3542C50.153 34.6029 49.905 34.872 49.6778 35.1583C49.6241 35.2257 49.6118 35.3183 49.6778 35.3841C49.7333 35.4397 49.8495 35.452 49.9034 35.384Z" fill="#010101"/>
<path d="M51.403 33.8802C51.6602 34.0278 51.8476 34.2729 51.9176 34.5621C51.9944 34.879 51.9154 35.2388 51.7817 35.5308C51.539 36.0612 51.0776 36.4836 50.4914 36.5783C50.4062 36.592 50.3589 36.6981 50.38 36.7747C50.4049 36.8654 50.4909 36.9001 50.5763 36.8862C51.1123 36.7996 51.5702 36.4571 51.8738 36.0157C52.1967 35.546 52.3922 34.8735 52.1766 34.3227C52.0582 34.0203 51.8468 33.7665 51.5642 33.6044C51.3856 33.5021 51.2246 33.778 51.403 33.8802Z" fill="#010101"/>
<path d="M2.88281 86.4591C4.74806 81.3622 6.28667 75.9824 9.16042 71.3352C12.0083 66.7297 17.7603 64.9868 22.5743 63.3154C25.1562 62.419 25.861 62.2389 28.444 61.3154C29.0509 61.0984 30.0394 60.7323 30.634 60.4835C31.1089 60.2849 32.1448 60.0458 32.4854 59.6437C32.801 59.271 32.8647 58.3358 32.9949 57.8618C33.1889 57.1551 33.383 56.4485 33.577 55.7417C33.7493 55.1142 34.1299 54.401 34.7128 54.1147C34.7583 54.0923 34.8153 54.1073 34.8432 54.1495C34.9833 54.3606 35.7103 54.8934 39.4689 54.3504C43.7322 53.7344 47.8979 51.9554 48.4712 51.7045C48.513 51.6863 48.5622 51.6903 48.5992 51.7168C49.1635 52.1213 49.4666 52.8296 49.6899 53.4906C49.9618 54.2959 50.2337 55.1013 50.5058 55.9066C50.6272 56.2664 50.7027 56.7675 50.8959 57.09C51.0707 57.3814 51.3962 57.5219 51.6921 57.7046C53.1683 58.6163 54.6588 59.5046 56.1634 60.3687C60.5227 62.8724 66.7195 64.9022 70.5821 68.3011C75.3112 72.4627 76.6892 78.9304 78.0029 84.823L2.88281 86.4591Z" fill="#CADFF7"/>
<path d="M32.5779 59.9793C33.3477 60.9183 34.6171 61.1573 35.7681 61.1638C37.0874 61.1713 38.4172 61.0399 39.7221 60.8549C41.0247 60.6703 42.316 60.4048 43.5859 60.0608C44.8499 59.7184 46.0923 59.2981 47.3047 58.8033C48.3057 58.3948 49.371 58.0494 50.2469 57.3959C50.3558 57.3148 50.4612 57.2297 50.5626 57.1393C50.7161 57.0021 50.4898 56.7769 50.3369 56.9135C49.5459 57.62 48.5026 57.9839 47.5331 58.3693C46.3701 58.8314 45.2038 59.2661 44.0005 59.6131C42.7614 59.9704 41.5007 60.2527 40.2275 60.4575C38.9618 60.6612 37.6833 60.7863 36.4021 60.8326C35.2656 60.8738 33.9751 60.8406 33.0764 60.0389C32.9779 59.9511 32.8873 59.8554 32.8035 59.7534C32.6732 59.5945 32.4485 59.8216 32.5779 59.9793Z" fill="#010101"/>
<path d="M41.8394 61.3776C43.0769 61.2594 44.3034 61.0349 45.5015 60.7026C46.6986 60.3704 47.8665 59.9322 48.9878 59.3971C49.617 59.0968 50.2307 58.7648 50.8269 58.4034C51.0023 58.2971 50.842 58.0208 50.6657 58.1276C49.6215 58.7605 48.523 59.3033 47.3841 59.7433C46.2491 60.1818 45.076 60.5223 43.8824 60.759C43.2068 60.8929 42.5249 60.9928 41.8393 61.0582C41.7534 61.0665 41.6797 61.1258 41.6797 61.2179C41.6798 61.2979 41.7531 61.3859 41.8394 61.3776Z" fill="#010101"/>
<path d="M63.0713 68.8628C61.8972 70.3173 60.833 71.8595 59.8936 73.476C58.957 75.0873 58.1445 76.7702 57.462 78.5046C57.0776 79.4815 56.7358 80.4748 56.4371 81.4812C56.3785 81.6786 56.6863 81.7631 56.7449 81.5662C57.2691 79.8001 57.9265 78.0744 58.713 76.4085C59.5028 74.7357 60.4192 73.1227 61.4524 71.5885C62.031 70.7292 62.6464 69.8949 63.2971 69.0889C63.3512 69.0219 63.3625 68.9286 63.2971 68.8631C63.2409 68.8068 63.1257 68.7953 63.0713 68.8628Z" fill="#010101"/>
<path d="M16.4139 71.8648C16.2415 73.1837 16.138 74.5114 16.1052 75.8412C16.0727 77.1643 16.1092 78.4893 16.2152 79.8085C16.2754 80.5572 16.3588 81.3038 16.4622 82.0476C16.4742 82.1332 16.5832 82.1799 16.6585 82.1593C16.7506 82.134 16.7818 82.0486 16.7699 81.9628C16.5884 80.6597 16.4771 79.3465 16.4335 78.0316C16.3899 76.7152 16.415 75.3966 16.5086 74.083C16.5615 73.3415 16.6366 72.6018 16.733 71.8648C16.7442 71.7792 16.6516 71.7051 16.5734 71.7051C16.478 71.7051 16.4252 71.7787 16.4139 71.8648Z" fill="#010101"/>
</g>
</svg>
