<svg width="80" height="81" viewBox="0 0 80 81" fill="none" xmlns="http://www.w3.org/2000/svg">
<mask id="mask0_2492_25650" style="mask-type:alpha" maskUnits="userSpaceOnUse" x="0" y="0" width="80" height="81">
<circle cx="40" cy="40.5" r="40" fill="#C3DEF7"/>
</mask>
<g mask="url(#mask0_2492_25650)">
<circle cx="40" cy="40.5" r="40" fill="#CADFF7"/>
<path d="M75.343 91.0001C74.4668 85.6079 74.3372 82.32 73.6168 78.8568C72.8964 75.3937 71.8317 72.4964 69.4819 69.8539C67.2117 67.3009 63.8558 65.1185 60.7295 63.7433C58.1582 62.6123 55.4311 61.4891 52.9025 60.2609C51.7915 59.7211 51.6736 59.6855 50.717 58.9182C49.7427 58.1366 47.9998 57.2333 46.8507 56.7439L31.6466 56.207C30.1293 56.7477 28.6907 57.5078 27.3863 58.4533C26.8073 58.8731 26.2991 59.4004 25.6578 59.7013C24.9306 60.0426 24.1374 60.3033 23.3986 60.6387C20.1624 62.1079 17.0171 63.7773 13.9867 65.6347C11.9953 66.8553 10.0285 68.1784 8.48872 69.9352C6.57233 72.1219 5.40931 74.8863 4.73696 77.7159C4.06461 80.5456 3.85549 83.4619 3.64844 86.3631L75.343 91.0001Z" fill="#010101"/>
<path d="M21.0915 72.9444C21.9559 74.1677 22.7726 75.4245 23.5385 76.7118C24.3043 77.9992 25.0194 79.3166 25.6815 80.6603C26.0561 81.4202 26.4134 82.1887 26.754 82.9643C26.7886 83.0434 26.9039 83.0616 26.9722 83.0217C27.0535 82.9741 27.0642 82.8825 27.0294 82.8033C26.4273 81.4315 25.772 80.0834 25.0642 78.7632C24.3565 77.443 23.5967 76.1507 22.7875 74.8904C22.3297 74.1776 21.8559 73.475 21.367 72.7833C21.2495 72.6168 20.9727 72.7761 21.0915 72.9444Z" fill="#010101"/>
<path d="M61.3994 72.9262C62.1664 74.1818 62.8524 75.4862 63.4516 76.8302C64.0499 78.1722 64.5594 79.554 64.9787 80.9624C65.2153 81.7567 65.4225 82.5595 65.6007 83.3691C65.6449 83.5696 65.9526 83.4848 65.9084 83.2841C65.5892 81.8354 65.1764 80.4076 64.6722 79.0126C64.1694 77.6216 63.5777 76.2625 62.9013 74.9476C62.5194 74.2052 62.1099 73.4775 61.6749 72.7652C61.5679 72.59 61.2919 72.7503 61.3994 72.9262Z" fill="#010101"/>
<path d="M26.5482 59.362C26.3656 60.1113 26.5554 60.8737 26.8557 61.5653C27.1812 62.3141 27.6426 62.9975 28.1138 63.6607C28.6031 64.3492 29.0811 65.0458 29.5739 65.7318C30.1778 66.5728 30.8102 67.3935 31.4692 68.1918C32.7027 69.6862 34.0289 71.1078 35.4331 72.443C36.8099 73.7521 38.2701 74.9759 39.819 76.0769C40.5877 76.6234 41.3785 77.1388 42.1916 77.6168C43.0059 78.0957 43.8432 78.5571 44.7103 78.9336C45.4552 79.2572 46.2619 79.4739 47.0722 79.2967C47.6332 79.1739 48.1358 78.8669 48.5485 78.4731C49.4499 77.6131 49.976 76.3994 50.3692 75.2388C50.7942 73.9846 51.0704 72.68 51.3258 71.3826C51.6838 69.5645 51.9591 67.725 52.0824 65.8752C52.1955 64.1774 52.1944 62.4417 51.856 60.7676C51.7846 60.4137 51.6956 60.0636 51.5857 59.7197C51.5233 59.5248 51.2151 59.6081 51.278 59.8046C51.7634 61.3217 51.8532 62.9484 51.8224 64.5309C51.7873 66.3384 51.5727 68.1411 51.2704 69.922C51.0285 71.348 50.7484 72.7776 50.3619 74.1725C50.0358 75.3493 49.619 76.5426 48.9146 77.551C48.5997 78.0018 48.2118 78.4166 47.734 78.6958C47.2336 78.9882 46.6589 79.095 46.085 79.021C45.6058 78.959 45.145 78.7849 44.7079 78.5852C44.2796 78.3894 43.8594 78.1742 43.4439 77.9528C42.6258 77.5167 41.8285 77.0416 41.0528 76.5337C39.4983 75.516 38.0321 74.3677 36.6475 73.1294C35.2605 71.889 33.9538 70.5594 32.7206 69.1662C32.0537 68.4129 31.4115 67.6374 30.7957 66.8415C30.1926 66.0615 29.6282 65.2561 29.0658 64.4467C28.6311 63.8211 28.1676 63.2162 27.7615 62.571C27.3523 61.9209 26.972 61.2176 26.835 60.4534C26.7752 60.1201 26.775 59.7765 26.8554 59.4469C26.9046 59.2473 26.597 59.1621 26.5482 59.362Z" fill="#010101"/>
<path d="M46.0736 57.9357L42.4623 60.26L32.5469 55.6928C33.228 49.9619 33.3428 44.1654 32.893 38.4121L33.3046 38.7745L45.7706 49.7607C45.6701 51.3523 45.6637 52.9519 45.7514 54.545C45.812 55.6785 45.9189 56.8103 46.0736 57.9357Z" fill="#FDF7EC"/>
<path d="M45.7482 54.5459C45.5105 54.5028 45.0896 54.4925 44.8514 54.4383C38.5513 53.0054 36.0354 48.3345 34.1196 43.3586C33.5948 41.9937 33.1466 40.6495 33.2599 39.1665C33.2694 39.0356 33.2838 38.9063 33.3013 38.7754L45.7673 49.7616C45.6668 51.3532 45.6605 52.9528 45.7482 54.5459Z" fill="#010101"/>
<path d="M22.2198 41.9612C22.7919 45.0326 23.7229 48.6712 26.2025 50.7955C27.6696 52.0523 27.9722 48.9445 28.1203 48.1137C28.9849 43.2643 28.9932 38.2185 29.3921 33.3122C29.6201 30.5085 29.9287 29.9796 29.4103 27.1695C29.232 26.223 28.9535 25.2764 28.4103 24.4852C27.8672 23.6941 27.0264 23.0711 26.0766 22.973C24.5841 22.8186 23.2359 23.9651 22.4707 25.2706C21.1298 27.5585 20.7637 30.905 21.2351 33.5012C21.739 36.2765 21.6967 39.1536 22.2198 41.9612Z" fill="#FFE4C0"/>
<path d="M27.3017 9.85106C29.6148 10.3726 31.7275 11.6647 33.2896 13.4443C33.9088 14.1498 35.089 15.4435 34.9568 16.3981C34.7673 17.7667 33.9678 19.2818 33.4574 20.5608C32.1794 23.7636 30.6477 26.8652 28.8806 29.826C28.419 30.5994 28.1223 31.1149 27.9691 31.9975C27.82 32.8567 27.6326 33.7093 27.4077 34.5519C26.89 36.4924 25.9093 38.3153 25.4972 40.2522C25.1146 42.0492 24.4713 42.489 23.4881 44.0324C22.6289 45.3809 20.9328 46.5821 19.8531 46.8609C19.1905 47.0318 17.773 47.2491 17.0078 46.7118C16.8683 46.6137 16.7966 46.444 16.8155 46.2745C17.2276 42.5537 17.7135 38.9114 17.6854 35.1679C17.6673 32.7591 17.6722 30.3504 17.6969 27.9416C17.733 24.4638 17.4744 20.7163 18.1723 17.3246C18.7157 14.683 19.4334 11.8839 21.9292 10.4131C23.5184 9.47655 25.5024 9.44542 27.3017 9.85106Z" fill="#FFE4C0"/>
<path d="M23.0595 44.9357C22.4855 42.6216 22.0738 40.2647 21.8154 37.8947C21.7443 37.242 21.6854 36.5878 21.6398 35.9328C21.6256 35.7289 21.3064 35.7273 21.3208 35.9328C21.4875 38.3273 21.8237 40.7128 22.3082 43.0635C22.4433 43.7186 22.5908 44.3712 22.7519 45.0206C22.8012 45.2198 23.1089 45.1354 23.0595 44.9357Z" fill="#010101"/>
<path d="M58.8573 32.1593C58.4623 29.2626 57.6024 26.4359 56.5529 23.685L53.8088 21.2441C53.4804 21.4804 53.1934 21.7539 52.9433 22.054C52.1704 21.6993 51.2977 21.5837 50.4981 21.8493C49.4195 22.2077 48.6581 23.167 48.0721 24.1416C45.7154 28.0605 45.2198 32.9561 46.3074 37.3986C46.8623 39.6653 47.9232 41.9698 49.9135 43.1858C50.3536 43.4546 50.8419 43.6666 51.3564 43.6997C52.1596 43.7514 52.6598 43.2421 53.2829 42.8399C53.8798 42.4543 54.4178 41.9788 54.8795 41.4387C55.0396 41.2515 55.1819 41.0569 55.3157 40.8589C55.2502 41.3097 55.1692 41.7582 55.0773 42.2016C55.0219 42.469 54.7525 43.9825 54.4729 44.8993C54.38 45.2038 54.7085 45.4775 55.0181 45.349C55.7921 45.0278 56.4638 44.4792 56.9688 43.8371C57.6614 42.9564 58.0707 41.9092 58.3709 40.853C59.1736 38.0309 59.2522 35.0559 58.8573 32.1593Z" fill="#FFE4C0"/>
<path d="M31.9856 39.4359C30.6688 36.4553 29.8156 33.2796 29.5368 30.0781C29.1978 26.1849 29.8422 22.0088 32.334 18.9998C34.0486 16.9291 36.5085 15.5757 39.0813 14.7999C41.6203 14.0343 44.3735 13.7971 46.9238 14.5239C53.23 16.3212 55.8972 22.8889 55.4096 28.9557C55.3255 30.0013 55.1718 31.0564 55.0124 32.0929C54.8617 33.0731 54.9641 34.022 55.0293 35.0154C55.156 36.9444 55.1127 38.8952 54.7337 40.7957C54.3495 42.7233 53.5423 44.2167 52.6372 45.898C50.7132 49.4726 47.4604 53.9145 42.8222 52.1443C41.4062 51.6039 40.2014 50.6258 39.1014 49.5826C36.1241 46.7588 33.6739 43.2576 31.9856 39.4359Z" fill="#FDF7EC"/>
<path d="M31.0946 28.1116C30.9346 26.388 30.9178 24.6512 31.0427 22.9247C31.1065 22.0432 31.207 21.164 31.345 20.291C31.3996 19.9457 31.4307 19.587 31.5532 19.2664C31.6808 18.9323 31.8631 18.7064 31.8446 18.3214C31.8253 17.918 31.6108 17.5213 31.2657 17.3118C30.5283 16.8639 29.0756 17.4847 28.412 17.8955C27.5657 18.4192 26.8866 19.2067 26.4352 20.0898C25.3655 22.1828 25.2459 24.8555 25.3969 27.1584C25.4964 28.6764 25.7769 30.1829 26.2332 31.6342C26.6408 32.9304 27.1122 34.574 28.2444 35.4273C28.6556 35.7372 29.1922 35.9182 29.6921 35.7956C30.4407 35.612 30.8802 34.8336 31.0944 34.0926C31.6518 32.1646 31.2801 30.1101 31.0946 28.1116Z" fill="#FFE4C0"/>
<path d="M31.8859 14.7591C35.1106 12.2753 39.5176 10.6316 43.6259 11.0546C45.438 11.2412 47.2049 11.8344 48.7709 12.7642C50.0802 13.5416 52.5643 15.069 51.7441 16.9104C51.4491 17.5726 50.8045 18.0263 50.1188 18.2597C49.433 18.4931 48.6994 18.5354 47.9765 18.5813C43.932 18.838 39.8163 19.2877 36.1222 20.9555C35.0715 21.4297 34.0557 22.0022 32.9446 22.3084C31.8332 22.6146 30.5761 22.6233 29.5984 22.0123C26.5318 20.095 30.1015 16.1335 31.8859 14.7591Z" fill="#FFE4C0"/>
<path d="M33.4165 13.583C31.9165 14.3906 30.7081 15.5818 29.6258 16.8808C29.4947 17.038 29.3737 17.2259 29.2169 17.3584C29.0757 17.4777 28.894 17.5399 28.7236 17.6041C28.3059 17.7614 27.9304 17.9868 27.5841 18.2685C26.8959 18.8282 26.3915 19.5878 26.0363 20.3942C25.2839 22.1027 25.1063 24.0068 25.1358 25.8556C25.1634 27.5797 25.4024 29.3079 25.9044 30.9594C26.4059 32.6094 27.173 34.1804 28.2049 35.5636C28.3335 35.736 28.4659 35.9056 28.6014 36.0724C28.7311 36.2318 28.9556 36.0047 28.827 35.8466C27.7568 34.5301 26.9372 33.0191 26.3868 31.4151C25.8403 29.8226 25.5507 28.1499 25.4737 26.4697C25.3916 24.6772 25.4893 22.8203 26.0912 21.1155C26.378 20.3029 26.7876 19.515 27.3853 18.887C27.6961 18.5605 28.0532 18.2832 28.4502 18.0695C28.7881 17.8876 29.1942 17.8252 29.4785 17.5513C29.6247 17.4105 29.7447 17.2339 29.8748 17.0781C30.0072 16.9196 30.1412 16.7622 30.2775 16.6069C30.5488 16.2972 30.8287 15.9946 31.1215 15.7047C31.7021 15.1297 32.3339 14.6084 33.0283 14.1762C33.2079 14.0645 33.3913 13.9588 33.5775 13.8585C33.7584 13.7613 33.5976 13.4856 33.4165 13.583Z" fill="#010101"/>
<path d="M31.1628 48.1202C31.1628 45.6404 31.1628 43.1606 31.1628 40.6807C31.1628 39.9778 31.1628 39.2751 31.1628 38.5722C31.1628 38.3667 30.8438 38.3664 30.8438 38.5722C30.8438 41.052 30.8438 43.5318 30.8438 46.0117C30.8438 46.7146 30.8438 47.4175 30.8438 48.1202C30.8438 48.3257 31.1628 48.326 31.1628 48.1202Z" fill="#010101"/>
<path d="M31.819 48.3559C31.7544 47.1767 30.2135 47.3281 30.1207 48.4273C30.0681 49.0502 30.616 49.7103 31.2658 49.4234C31.6819 49.2396 31.8425 48.7829 31.819 48.3559Z" fill="#010101"/>
<path d="M28.4595 31.3961C28.1719 31.3271 27.8676 31.2886 27.5452 31.2853C26.5822 31.2752 25.6774 31.8743 25.2627 32.7364C24.9381 33.411 24.8974 34.2018 25.0668 34.9312C25.2362 35.6606 25.605 36.3324 26.0604 36.9264C26.6798 37.7345 27.5077 38.422 28.4078 38.8949C29.3247 39.3766 30.2778 39.7349 31.3287 39.482C31.804 39.3676 32.2743 39.127 32.5349 38.713C32.9537 38.048 32.679 37.2742 32.54 36.576C32.4169 35.9572 32.1585 35.3291 31.9018 34.7555C31.3848 33.6 30.6316 32.4696 29.5153 31.8209C29.1859 31.6293 28.8301 31.4848 28.4595 31.3961Z" fill="#FDF7EC"/>
<path d="M31.4031 35.7646C30.5976 34.7498 29.5232 33.9647 28.3215 33.4855C27.9822 33.3501 27.633 33.2416 27.2771 33.159C27.0774 33.1127 26.9921 33.4205 27.1923 33.467C28.4098 33.749 29.5448 34.3536 30.4577 35.2084C30.7166 35.4509 30.9568 35.7126 31.1774 35.9905C31.231 36.058 31.347 36.0465 31.4029 35.9905C31.4698 35.9236 31.4569 35.8323 31.4031 35.7646Z" fill="#010101"/>
<path d="M29.517 34.2118C29.2726 34.352 29.0683 34.5673 28.9498 34.824C28.8134 35.119 28.7938 35.4318 28.8491 35.7498C28.9436 36.2911 29.2509 36.7959 29.6858 37.1303C29.9254 37.3145 30.2055 37.444 30.5046 37.4924C30.5894 37.5061 30.6762 37.4703 30.7008 37.3809C30.7217 37.3048 30.6749 37.1985 30.5894 37.1846C30.0035 37.0899 29.5422 36.6677 29.2996 36.1375C29.168 35.8502 29.0889 35.4959 29.1605 35.1835C29.228 34.8885 29.4164 34.6377 29.6781 34.4877C29.8561 34.3855 29.6957 34.1095 29.517 34.2118Z" fill="#010101"/>
<path d="M36.3715 33.8313C36.4149 33.8383 36.4495 33.7941 36.4307 33.7544C36.3443 33.5713 36.1935 33.169 36.4337 32.9886C36.7443 32.7555 38.2517 31.6296 42.1195 32.7194C42.2077 32.7443 42.2804 32.6478 42.2297 32.5714C42.051 32.3025 41.6328 31.8414 40.7526 31.5568C39.308 31.0897 36.3995 31.2768 34.4649 33.1179C34.4095 33.1706 34.4213 33.2624 34.4874 33.3007C34.6928 33.4194 35.2057 33.6415 36.3715 33.8313Z" fill="#010101"/>
<path d="M48.4005 32.9054C49.1156 32.5697 50.8205 32.0221 52.8684 33.1139C52.9853 33.1763 53.0564 33.3021 53.0516 33.4346C53.0464 33.5823 53.0285 33.7915 52.977 34.0217C52.9642 34.0789 53.0193 34.1282 53.0748 34.1094C53.4015 33.9986 54.2348 33.7564 54.906 33.0382C55.022 32.9142 54.3941 32.6383 54.3109 32.5986C53.8071 32.3583 53.2924 32.1414 52.7687 31.9487C52.3742 31.8036 51.9718 31.6728 51.5565 31.6018C51.1386 31.5301 50.7263 31.543 50.3079 31.6015C49.8351 31.6674 49.3662 31.8092 48.9501 32.0459C48.6671 32.207 48.4018 32.4159 48.2149 32.6856C48.1283 32.8107 48.2627 32.97 48.4005 32.9054Z" fill="#010101"/>
<path d="M36.696 31.1438C37.7764 30.6263 39.0289 30.4727 40.2037 30.7027C40.539 30.7683 40.8675 30.8648 41.1857 30.9893C41.2659 31.0207 41.3609 30.9548 41.3819 30.8778C41.4068 30.7875 41.3511 30.7129 41.2706 30.6815C40.0927 30.2208 38.7673 30.1593 37.5477 30.4893C37.1991 30.5836 36.8607 30.7121 36.5349 30.8681C36.3499 30.9567 36.5115 31.2321 36.696 31.1438Z" fill="#010101"/>
<path d="M49.0826 31.1769C50.1456 30.6893 51.3929 30.6561 52.4922 31.042C52.8023 31.1509 53.0976 31.2961 53.3756 31.4712C53.55 31.5809 53.7101 31.3049 53.5367 31.1956C52.4742 30.5265 51.1577 30.3096 49.9317 30.5648C49.5827 30.6375 49.2453 30.7526 48.9215 30.9012C48.8432 30.9371 48.8239 31.0504 48.8643 31.1196C48.9115 31.2 49.004 31.213 49.0826 31.1769Z" fill="#010101"/>
<path d="M47.0496 31.7678C47.3497 33.7125 47.6215 35.6616 47.9461 37.6027C48.0369 38.1457 48.1321 38.688 48.2328 39.2294C48.2702 39.4311 48.5778 39.3457 48.5405 39.1444C48.1805 37.2099 47.8949 35.2627 47.6044 33.3167C47.5231 32.7719 47.4413 32.2272 47.3572 31.6828C47.3439 31.5976 47.2371 31.5503 47.161 31.5714C47.0701 31.5965 47.0364 31.6822 47.0496 31.7678Z" fill="#010101"/>
<path d="M46.2637 39.5465C46.3438 39.5003 46.3742 39.4861 46.4575 39.4595C46.4929 39.4481 46.5287 39.4386 46.565 39.4307C46.5858 39.4261 46.6067 39.4228 46.6276 39.4188C46.6469 39.4159 46.6485 39.4156 46.6324 39.4177C46.6402 39.4167 46.6481 39.4157 46.6561 39.4149C46.7325 39.407 46.8097 39.4063 46.8863 39.413C46.8968 39.414 46.9073 39.4151 46.9179 39.4162C46.9018 39.4138 46.9034 39.414 46.9227 39.417C46.9383 39.4196 46.9539 39.4223 46.9695 39.4253C47.0112 39.4336 47.052 39.4445 47.0925 39.4571C47.1723 39.482 47.2701 39.4277 47.2888 39.3457C47.3085 39.259 47.2626 39.176 47.1774 39.1493C46.8214 39.0384 46.4253 39.0848 46.1026 39.2708C46.0302 39.3125 45.9989 39.417 46.0453 39.4892C46.0925 39.5623 46.1863 39.591 46.2637 39.5465Z" fill="#010101"/>
<path d="M40.6877 33.0758C40.6876 32.7279 40.6469 32.257 40.3815 32.001C40.1164 31.7452 39.5423 31.581 39.1873 31.5623C37.9369 31.4967 38.0223 33.3194 38.6452 33.983C39.0187 34.381 39.7286 34.5599 40.1955 34.2194C40.5549 33.9571 40.6879 33.5036 40.6877 33.0758Z" fill="#010101"/>
<path d="M50.3504 34.3497C51.116 34.4061 51.522 33.7137 51.4918 33.0214C51.4587 32.261 51.1577 31.5813 50.2701 31.7508C49.5026 31.8974 49.1671 32.4393 49.2673 33.1915C49.344 33.7672 49.7375 34.3045 50.3504 34.3497Z" fill="#010101"/>
<path d="M49.1187 43.7606C49.1764 43.4318 48.9833 43.0961 48.7092 42.9056C48.4353 42.715 48.0949 42.6465 47.7625 42.6189C46.6379 42.5251 45.4827 42.8632 44.5859 43.5487C44.5859 43.5487 46.2254 44.1267 47.7855 44.018C49.3455 43.9093 49.1187 43.7606 49.1187 43.7606Z" fill="#FFE4C0"/>
<path d="M44.445 43.6831C45.6136 44.1001 46.8758 44.2586 48.1113 44.1416C48.4686 44.1077 48.8237 44.052 49.174 43.9746C49.3743 43.9304 49.2896 43.6224 49.0891 43.6668C47.5772 44.0006 45.9874 43.8952 44.5297 43.3753C44.3361 43.306 44.2526 43.6144 44.445 43.6831Z" fill="#010101"/>
<path d="M44.8915 45.2349C45.8245 45.9525 47.1912 46.0157 48.1933 45.4036C48.3683 45.2968 48.2081 45.0205 48.0323 45.1279C47.1175 45.6867 45.9001 45.6108 45.0526 44.9592C44.9842 44.9067 44.8739 44.9487 44.8344 45.0165C44.7862 45.0989 44.8231 45.1822 44.8915 45.2349Z" fill="#010101"/>
<path d="M37.6004 36.394C37.5993 36.3868 37.5981 36.3797 37.5961 36.3727C37.5949 36.3679 37.593 36.3633 37.5914 36.3587C37.5896 36.3515 37.5906 36.3438 37.588 36.337C37.578 36.3092 37.5662 36.28 37.5489 36.2554C37.5378 36.2394 37.5259 36.2238 37.5132 36.2091C37.5035 36.1981 37.4923 36.1899 37.4806 36.181C37.4695 36.1724 37.4596 36.1639 37.4468 36.158C37.4325 36.1513 37.4175 36.1443 37.4023 36.1395C37.3924 36.1363 37.3813 36.1357 37.3712 36.1344C37.3615 36.1331 37.3507 36.1307 37.3404 36.1309C37.3243 36.131 37.3076 36.1345 37.2916 36.1369C37.2717 36.14 37.2533 36.1495 37.2352 36.1577C37.2293 36.1604 37.2237 36.1634 37.2184 36.1671C37.2025 36.1784 37.1848 36.1904 37.1715 36.2053C37.1431 36.2373 37.1246 36.2675 37.1117 36.3084C37.1056 36.3277 37.1042 36.3491 37.1023 36.3689C37.1013 36.378 37.1013 36.3868 37.1023 36.3959C37.1044 36.4168 37.1064 36.4388 37.1119 36.4592C37.1157 36.4736 37.1217 36.487 37.1275 36.5006C37.1366 36.5221 37.1453 36.5429 37.1592 36.5617C37.1753 36.5834 37.1911 36.6055 37.2122 36.6224C37.2273 36.6345 37.2427 36.6476 37.2594 36.6575C37.2768 36.6676 37.2961 36.6749 37.3148 36.6818C37.3205 36.6838 37.3264 36.6853 37.3323 36.6864C37.3516 36.6898 37.3723 36.6941 37.3921 36.6925C37.4111 36.6909 37.4317 36.6894 37.4499 36.6827C37.4779 36.6724 37.4947 36.6639 37.5172 36.6465C37.5397 36.6293 37.5524 36.6146 37.5695 36.5903C37.581 36.5739 37.5878 36.5539 37.5949 36.5354C37.6044 36.51 37.6073 36.4811 37.6071 36.4541C37.6075 36.4343 37.6035 36.4139 37.6004 36.394Z" fill="#FFE4C0"/>
<path d="M40.0625 37.633C40.0582 37.6252 40.0504 37.6165 40.0456 37.6103C40.0402 37.6031 40.0346 37.5947 40.0276 37.5883C40.0135 37.5755 39.9984 37.5627 39.9813 37.5538C39.9191 37.5211 39.8507 37.5137 39.7824 37.5294C39.772 37.5318 39.7618 37.5351 39.7519 37.5391C39.7315 37.5473 39.7098 37.5554 39.6907 37.5669C39.6782 37.5744 39.6683 37.5837 39.6576 37.5924C39.6557 37.5937 39.6535 37.5947 39.6516 37.5961C39.6337 37.6089 39.6154 37.6221 39.5996 37.6376C39.5891 37.648 39.5804 37.6598 39.5713 37.6716C39.5607 37.6855 39.5506 37.698 39.5433 37.7138C39.5299 37.7425 39.5224 37.7636 39.5182 37.7941C39.5141 37.8245 39.5147 37.8469 39.5214 37.8783C39.5297 37.917 39.552 37.9503 39.5777 37.9792C39.5902 37.9933 39.6069 38.0045 39.6219 38.015C39.6278 38.0191 39.6339 38.0225 39.6403 38.0257C39.6817 38.0455 39.7106 38.0531 39.757 38.0565C39.7711 38.0576 39.7845 38.0551 39.7987 38.0531C39.8124 38.0512 39.8264 38.0503 39.8395 38.0456C39.8968 38.0255 39.9489 37.9918 39.9872 37.9441C40.0063 37.92 40.025 37.8957 40.0417 37.87C40.0464 37.8629 40.0512 37.8555 40.0556 37.8482C40.058 37.844 40.0603 37.8397 40.0623 37.8354C40.0697 37.8196 40.0781 37.8028 40.0823 37.7856C40.0952 37.7334 40.0883 37.6801 40.0625 37.633Z" fill="#FFE4C0"/>
<path d="M41.1919 39.2874C41.1898 39.2678 41.1877 39.2445 41.182 39.2245C41.1742 39.1975 41.1629 39.1701 41.1471 39.1466C41.1321 39.1244 41.1145 39.1002 41.0933 39.0828C41.0719 39.065 41.0501 39.047 41.0246 39.0357C41.0073 39.028 40.9874 39.0184 40.9683 39.0133C40.9647 39.0124 40.9611 39.0117 40.9574 39.0109C40.9395 39.0077 40.9204 39.0041 40.9021 39.0039C40.8998 39.0039 40.8978 39.0041 40.8957 39.0042C40.8821 39.0052 40.8633 39.0073 40.8501 39.0104C40.848 39.0109 40.8461 39.0114 40.8438 39.012C40.8316 39.0159 40.814 39.0234 40.8028 39.0294C40.7776 39.0427 40.7625 39.0595 40.7461 39.0805C40.7295 39.1021 40.7194 39.1198 40.7113 39.1479C40.7086 39.1572 40.7079 39.1682 40.7067 39.1773C40.7052 39.1873 40.7033 39.198 40.7031 39.2084C40.7028 39.2285 40.7071 39.2491 40.71 39.2687C40.7111 39.2766 40.7129 39.2844 40.7146 39.2921C40.7151 39.294 40.7162 39.2957 40.7167 39.2976C40.718 39.3048 40.7193 39.3123 40.7201 39.3182C40.7245 39.3473 40.7365 39.3744 40.7491 39.4008C40.7524 39.4079 40.7566 39.4145 40.7612 39.421C40.7725 39.437 40.7864 39.457 40.8024 39.4704C40.8336 39.4965 40.8676 39.52 40.9088 39.5282C40.949 39.5361 40.9927 39.5398 41.0324 39.5261C41.0512 39.5195 41.0705 39.5127 41.0869 39.5013C41.1176 39.4803 41.1372 39.4611 41.1574 39.43C41.1812 39.3934 41.1884 39.353 41.1921 39.3107C41.193 39.3029 41.1927 39.2952 41.1919 39.2874Z" fill="#FFE4C0"/>
<path d="M42.9567 36.5641C42.9256 36.5164 42.8838 36.4837 42.8296 36.4658C42.7721 36.4469 42.7091 36.4605 42.657 36.4875C42.6256 36.5038 42.5972 36.5282 42.5724 36.5534C42.5476 36.5786 42.5255 36.6074 42.5066 36.6372C42.4873 36.6672 42.4734 36.7009 42.4609 36.7341C42.4389 36.7921 42.4386 36.8591 42.47 36.9139C42.4745 36.9215 42.4799 36.9276 42.4857 36.935C42.4903 36.9409 42.4959 36.9495 42.5019 36.9555C42.5078 36.9615 42.5171 36.9675 42.5225 36.9718C42.5303 36.9779 42.5367 36.9836 42.545 36.9883C42.5767 37.0062 42.6126 37.0154 42.6492 37.0159C42.6517 37.0159 42.6541 37.0157 42.6568 37.0154C42.6731 37.014 42.691 37.0124 42.7069 37.0082C42.7168 37.0057 42.7261 37.0007 42.7356 36.9964C42.7359 36.9963 42.7364 36.9964 42.7367 36.9963C42.7385 36.9958 42.7398 36.9945 42.7415 36.994C42.7474 36.9913 42.754 36.9896 42.7594 36.9867C42.7608 36.9859 42.7619 36.9844 42.7635 36.9836C42.7843 36.9749 42.8052 36.9666 42.8245 36.9551C42.8806 36.9214 42.9379 36.8751 42.9661 36.8143C42.9848 36.774 42.9982 36.7324 42.994 36.6872C42.9899 36.6433 42.9813 36.6018 42.9567 36.5641Z" fill="#FFE4C0"/>
<path d="M50.4843 36.7246C50.4594 36.6603 50.4291 36.6058 50.3857 36.5524C50.3661 36.5281 50.34 36.5075 50.3135 36.4914C50.2752 36.4682 50.235 36.4583 50.191 36.4553C50.1837 36.4548 50.1765 36.4551 50.169 36.4559C50.1479 36.4582 50.1257 36.4598 50.1056 36.4671C50.0876 36.4738 50.0683 36.4807 50.0519 36.4912C50.0355 36.5019 50.0176 36.5148 50.0045 36.53C49.9677 36.573 49.9463 36.622 49.9453 36.6794C49.945 36.7016 49.9488 36.7252 49.9544 36.7468C49.9575 36.7586 49.9621 36.7698 49.9669 36.781C49.9914 36.8395 50.0171 36.8997 50.0548 36.9515C50.0619 36.9612 50.0706 36.9703 50.0782 36.9802C50.0787 36.9808 50.0792 36.9815 50.0795 36.9821C50.0806 36.9835 50.0817 36.9847 50.0828 36.9861C50.0887 36.9931 50.0937 37.0011 50.1002 37.0073C50.1008 37.008 50.1018 37.0084 50.1024 37.0091C50.1053 37.0121 50.1074 37.0158 50.1106 37.0187C50.1356 37.0412 50.1524 37.0517 50.1811 37.0638C50.1908 37.068 50.1996 37.0723 50.2095 37.0749C50.2261 37.079 50.2462 37.082 50.2632 37.0819C50.2835 37.0817 50.3049 37.079 50.3243 37.0734C50.3396 37.0691 50.3554 37.0614 50.3696 37.0547C50.3744 37.0525 50.379 37.0501 50.3834 37.0471C50.4183 37.0231 50.4497 36.9947 50.4701 36.9567C50.4915 36.917 50.5033 36.8736 50.5027 36.8282C50.5027 36.7936 50.4968 36.757 50.4843 36.7246Z" fill="#FFE4C0"/>
<path d="M51.2517 38.3102C51.2048 38.2514 51.1338 38.2139 51.0565 38.2273C50.9872 38.2393 50.9272 38.2834 50.8799 38.3352C50.8177 38.4034 50.7719 38.4914 50.7735 38.5836C50.7779 38.8378 51.0742 38.8611 51.2182 38.7038C51.3137 38.5998 51.3437 38.4254 51.2517 38.3102Z" fill="#FFE4C0"/>
<path d="M53.1028 36.6297C53.0992 36.6168 53.0935 36.6046 53.0884 36.5923C53.0833 36.5801 53.0785 36.5674 53.0716 36.5559C53.0621 36.5397 53.0495 36.525 53.0378 36.5103C53.033 36.5044 53.0283 36.4986 53.0225 36.4935C53.0078 36.48 52.9916 36.467 52.9746 36.4565C52.9711 36.4543 52.9675 36.4525 52.9638 36.4509C52.9485 36.4439 52.9325 36.4357 52.9161 36.4319C52.8809 36.4234 52.8506 36.4242 52.8153 36.4313C52.8124 36.4319 52.8097 36.4325 52.807 36.4333C52.7927 36.438 52.7756 36.4447 52.7625 36.4523C52.747 36.4614 52.7317 36.4733 52.7191 36.4859C52.7127 36.4923 52.707 36.5007 52.7019 36.5074C52.6958 36.5154 52.6886 36.5234 52.6835 36.5323C52.6741 36.5486 52.6671 36.567 52.6609 36.5845C52.6585 36.5911 52.6569 36.5978 52.6556 36.6046C52.652 36.6251 52.6481 36.6468 52.6485 36.6677C52.6488 36.6891 52.6528 36.711 52.6561 36.7319C52.6601 36.7574 52.6695 36.7806 52.6794 36.8039C52.6855 36.8208 52.6926 36.8372 52.7 36.8529C52.7068 36.8676 52.7156 36.8813 52.7252 36.8942C52.7368 36.9097 52.748 36.9276 52.763 36.9404C52.7746 36.9502 52.7879 36.9619 52.8016 36.9691C52.8284 36.9833 52.8568 36.9919 52.8872 36.9926C52.9198 36.9932 52.9546 36.9839 52.9828 36.9675C52.997 36.9592 53.011 36.9472 53.0233 36.9364C53.0262 36.9338 53.0291 36.9309 53.0316 36.9281C53.0485 36.9094 53.0659 36.8881 53.0772 36.8652C53.0887 36.8419 53.1005 36.8163 53.1058 36.7905C53.1112 36.7641 53.1157 36.7362 53.1146 36.7092C53.1131 36.6827 53.1099 36.6552 53.1028 36.6297Z" fill="#FFE4C0"/>
<path d="M53.8516 38.6273C53.8367 38.3521 53.4131 38.2121 53.355 38.5395C53.3303 38.679 53.4421 38.8165 53.5696 38.8602C53.66 38.8913 53.7634 38.8463 53.8149 38.7686C53.843 38.7263 53.8543 38.6766 53.8516 38.6273Z" fill="#FFE4C0"/>
<path d="M42.2845 26.8533C42.4212 27.3435 42.3419 28.1171 41.8126 28.3442C41.5879 28.4406 41.3363 28.4481 41.0919 28.4541C39.8653 28.4843 38.6386 28.5145 37.412 28.5447C37.0767 28.553 36.7201 28.5558 36.4341 28.3806C36.1003 28.1761 36.0317 27.7257 36.1923 27.3886C36.3863 26.9813 36.8624 26.7599 37.2598 26.6081C38.2575 26.2266 39.3248 26.0281 40.393 26.0254C41.0414 26.0237 42.0734 26.0973 42.2845 26.8533Z" fill="#FFE4C0"/>
<path d="M51.8505 26.1773C52.0648 26.2225 52.2758 26.2823 52.4817 26.3561C52.892 26.5029 53.2825 26.7055 53.6372 26.9589C53.9764 27.2012 54.3037 27.4625 54.3078 27.9095C54.3145 28.6244 53.6247 28.6319 53.1121 28.6232C52.0174 28.6047 50.9193 28.4852 49.8427 28.3006C49.2583 28.2005 48.9531 27.8353 48.9962 27.2617C49.0461 26.5943 49.6716 26.1917 50.2871 26.1118C50.8072 26.0441 51.3377 26.0689 51.8505 26.1773Z" fill="#FFE4C0"/>
<path d="M58.6909 21.6289C58.4774 18.467 56.0924 15.624 53.2841 14.3669C52.034 13.8073 46.3585 12.5575 46.1818 15.0758C46.1384 15.6941 46.78 15.7563 47.2358 16.1755C47.5115 16.4291 47.8257 16.632 48.1499 16.8211C48.0822 17.3842 48.2912 17.9545 48.6164 18.429C48.5973 18.618 48.5936 18.8078 48.6053 18.993C48.7239 20.8973 49.5124 22.8402 49.9197 24.7029C49.9733 24.9482 50.035 25.2085 50.2168 25.3849C50.4899 25.6497 50.9449 25.6309 51.2964 25.4795C51.882 25.2275 52.2867 24.6895 52.588 24.136C52.7384 23.8598 52.8676 23.573 52.9796 23.2799C53.2674 23.746 53.5333 24.2315 53.7788 24.7399C53.8933 24.9773 54.0313 25.2364 54.2797 25.324C54.6248 25.4458 54.9796 25.1745 55.2155 24.8945C55.2557 24.8467 55.2942 24.7982 55.3318 24.7495C55.5004 25.0459 55.6981 25.3135 55.9587 25.4403C56.4165 25.6631 56.97 25.4262 57.361 25.0999C57.3766 25.0868 57.3923 25.0736 57.4076 25.0603C58.3616 24.2329 58.776 22.8921 58.6909 21.6289Z" fill="#FFE4C0"/>
<path d="M55.2444 24.5362C55.2108 24.9935 55.5639 25.3764 55.9866 25.4921C56.4567 25.6209 56.933 25.4562 57.346 25.2336C57.5269 25.1363 57.3659 24.8604 57.1851 24.9579C56.8675 25.1291 56.4977 25.2766 56.1311 25.1987C55.8128 25.131 55.5381 24.882 55.5636 24.5362C55.5786 24.3312 55.2594 24.3322 55.2444 24.5362Z" fill="#010101"/>
<path d="M31.3043 24.4038C31.0966 25.8385 33.0625 26.0352 34.0575 25.9881C35.8315 25.9043 37.5363 25.2475 38.8675 24.0588C39.8164 23.2115 40.5711 22.1735 41.2128 21.0807C41.5373 20.5282 41.8177 19.9554 42.1147 19.3883C42.3532 18.9329 42.6989 18.5855 42.9453 18.1278C43.1145 17.8135 43.2742 17.4563 43.1846 17.1106C43.056 16.6153 42.4893 16.3854 41.986 16.2951C39.7443 15.8925 37.4903 16.8005 35.4372 17.7867C34.2923 18.3367 32.7382 19.0844 32.3155 20.3934C31.9132 21.6389 31.4935 22.8927 31.333 24.1973C31.3241 24.2693 31.3139 24.3379 31.3043 24.4038Z" fill="#FFE4C0"/>
<path d="M53.1555 23.3036C53.4703 22.0594 53.5066 20.7534 53.2659 19.4929C53.1983 19.1386 53.1077 18.7894 52.996 18.4466C52.9327 18.252 52.6245 18.3354 52.6883 18.5315C53.0705 19.706 53.1913 20.9547 53.0437 22.181C53.0016 22.5308 52.9341 22.8773 52.8478 23.2188C52.7974 23.418 53.1051 23.503 53.1555 23.3036Z" fill="#010101"/>
<path d="M50.7612 14.9667C52.3775 15.4148 53.817 16.458 54.7541 17.8499C55.6366 19.1605 56.0955 20.807 55.9272 22.3857C55.827 23.3253 55.4702 24.2323 54.8747 24.9684C54.8207 25.0353 54.8093 25.1287 54.8747 25.1942C54.9307 25.2502 55.0459 25.2615 55.1003 25.1942C55.6659 24.4949 56.0414 23.666 56.1922 22.7785C56.3357 21.9336 56.2933 21.0672 56.1095 20.2318C55.7434 18.5684 54.8092 17.0642 53.4742 16.0061C52.6958 15.3891 51.8039 14.9244 50.8461 14.6589C50.6478 14.6038 50.5632 14.9118 50.7612 14.9667Z" fill="#010101"/>
<path d="M49.6356 17.6343C49.2263 17.1383 48.6292 16.7413 47.9859 16.5684C47.9711 15.8296 47.6436 15.0769 46.9984 14.7357C46.4814 14.4624 45.8602 14.4926 45.2815 14.5764C43.5955 14.8208 41.9276 15.4961 40.7445 16.7229C39.5998 17.9098 39.0795 19.4671 39.3959 21.0855C39.4607 21.417 39.6205 21.7614 39.6087 22.0913C39.5799 22.8914 39.4259 23.7109 39.339 24.5079C39.3082 24.7902 39.2879 25.109 39.4743 25.3232C39.6985 25.5812 40.1029 25.5553 40.4355 25.4766C41.3825 25.2526 42.2559 24.7799 43.0472 24.2132C44.2389 23.3597 45.2665 22.2792 46.0671 21.0511C46.2439 20.7801 46.3973 20.5006 46.5434 20.2177C46.6476 20.7549 46.7077 21.3027 46.7218 21.8773C46.7288 22.1652 46.6165 24.4891 46.3742 25.4225C46.3216 25.6254 46.4937 25.8161 46.7014 25.7882C47.7647 25.6453 48.7291 24.9112 49.3198 23.9934C50.456 22.228 51.077 19.3805 49.6356 17.6343Z" fill="#FFE4C0"/>
<path d="M49.8022 23.5368C50.073 22.9605 50.2615 22.351 50.3545 21.7207C50.3671 21.6355 50.3333 21.5491 50.2432 21.5244C50.1681 21.5038 50.0596 21.5501 50.047 21.6358C49.9583 22.2373 49.7856 22.8251 49.5268 23.3755C49.4901 23.4534 49.5051 23.5478 49.5841 23.5939C49.6532 23.6346 49.7653 23.6152 49.8022 23.5368Z" fill="#010101"/>
<path d="M39.626 23.5076C40.3885 22.6246 41.0283 21.6378 41.514 20.5765C41.6541 20.2705 41.7818 19.9588 41.8973 19.6428C41.968 19.4494 41.6598 19.3661 41.5896 19.5578C41.0924 20.9181 40.3467 22.1859 39.4003 23.2817C39.2668 23.4365 39.4914 23.6634 39.626 23.5076Z" fill="#010101"/>
<path d="M33.1337 29.9778C33.7448 33.5904 35.0401 37.0213 37.8362 39.4553C38.0351 39.6285 38.0188 39.9447 37.8011 40.0937C36.967 40.6644 35.7054 40.9564 34.8158 40.6261C32.4682 39.7548 31.7994 36.8981 31.1826 34.8984C29.5952 29.7527 29.7849 23.6782 32.3071 18.8549C32.545 18.3999 33.5863 16.4303 33.9348 17.5389C34.2254 18.4632 33.4572 20.0822 33.277 20.9683C32.6751 23.9283 32.6301 26.9999 33.1337 29.9778Z" fill="#FFE4C0"/>
<path d="M31.7298 22.6926C31.9985 21.6096 32.2126 20.4921 32.5422 19.4264C32.7765 18.6686 33.305 18.0783 33.5082 17.2729C33.5476 17.1169 33.5784 16.9426 33.4986 16.8029C33.4141 16.6546 33.2241 16.5928 33.0548 16.6131C32.8856 16.6334 32.7321 16.7204 32.5873 16.8103C30.3297 18.2122 29.4634 20.3571 29.0235 22.8634C28.5221 25.7191 28.309 28.6282 28.4329 31.5263C28.5754 34.8585 29.096 38.361 30.1723 41.5269C30.7829 43.3233 31.5561 45.3737 32.9347 46.7628C33.1282 46.9577 33.461 46.8064 33.4353 46.5328C33.2858 44.9337 33.2281 43.326 33.2621 41.7204C33.2812 40.8146 33.2917 39.8849 33.4174 38.9866C33.5243 38.2232 33.2499 37.5657 33.058 36.8154C32.1648 33.3238 31.6703 29.7303 31.586 26.1272C31.5599 25.0037 31.4581 23.7875 31.7298 22.6926Z" fill="#FFE4C0"/>
<path d="M33.559 39.6221C33.0382 39.1632 32.6275 38.5985 32.3488 37.9625C32.3142 37.8835 32.1987 37.8653 32.1306 37.9052C32.0493 37.9528 32.0387 38.0444 32.0733 38.1236C32.3614 38.7813 32.795 39.3732 33.3335 39.8477C33.4869 39.9832 33.7135 39.7581 33.559 39.6221Z" fill="#010101"/>
<path d="M32.9442 25.8614C32.9581 23.9282 33.2337 22.0017 33.7639 20.1426C33.9155 19.6113 34.0879 19.0863 34.2796 18.5682C34.3511 18.3752 34.0428 18.2921 33.9719 18.4833C33.2913 20.3223 32.864 22.252 32.6998 24.2063C32.6536 24.7569 32.629 25.3089 32.625 25.8614C32.6237 26.0669 32.9428 26.067 32.9442 25.8614Z" fill="#010101"/>
<path d="M28.5792 31.1957C28.5256 29.9295 28.5359 28.6608 28.6119 27.3959C28.6883 26.1245 28.8305 24.857 29.0447 23.6015C29.1656 22.8925 29.3095 22.1876 29.4763 21.488C29.524 21.2883 29.2165 21.2031 29.1688 21.4031C28.8705 22.6532 28.648 23.9204 28.4925 25.1961C28.3376 26.4674 28.2514 27.7471 28.2312 29.0275C28.2197 29.7502 28.2297 30.4732 28.2604 31.1956C28.2688 31.4004 28.5878 31.4015 28.5792 31.1957Z" fill="#010101"/>
<path d="M41.6433 71.5581C42.6034 72.2789 43.6112 72.9361 44.6592 73.522C45.3703 73.9195 46.2701 74.2047 46.7059 73.2929C47.2237 72.209 47.5881 70.8484 47.8115 69.6754C48.2831 67.1995 48.436 64.6538 48.1551 62.1458C48.0625 61.3184 47.9013 60.4967 47.6362 59.7065C47.3946 58.9861 47.3188 58.3504 46.4459 58.4934C45.8023 58.5989 45.2394 58.9699 44.6551 59.26C43.645 59.7614 42.1086 60.3353 41.0352 59.8583C39.7468 59.2859 38.6058 58.4082 37.4288 57.645C36.1586 56.8214 34.7907 56.0704 33.2908 55.8687C31.8227 55.671 30.6084 56.6688 31.2282 58.159C31.815 59.5702 32.5012 60.9445 33.2876 62.2548C33.6509 62.86 34.0129 63.5424 34.4795 64.0748C34.8624 64.5116 35.2653 64.8328 35.6078 65.3211C36.3939 66.4419 37.2635 67.5041 38.2064 68.4964C39.2641 69.6099 40.4149 70.6361 41.6433 71.5581Z" fill="#FDF7EC"/>
<path d="M32.7441 52.6004C33.8513 53.6206 39.3215 58.5702 42.238 59.5162C42.238 59.5162 45.5484 57.4412 45.8582 54.8921C45.8662 54.8259 45.9445 54.7965 45.9909 54.8446C46.3426 55.2085 47.4031 56.3586 47.9829 57.5641C47.9992 57.5982 48.0105 57.6328 48.0177 57.6698C48.1606 58.4051 49.6136 66.2154 46.5835 64.9151C43.2967 63.5047 42.238 60.1335 42.238 60.1335C42.238 60.1335 40.2597 65.6089 37.396 65.8805C34.6595 66.1399 31.7028 61.2206 30.6564 57.124C30.561 56.7505 30.5756 56.3589 30.6932 55.9917C30.946 55.2017 31.6519 53.6431 32.3785 52.6373C32.4651 52.5175 32.6356 52.5003 32.7441 52.6004Z" fill="#FDF7EC"/>
<path d="M35.9259 65.7643C36.4475 66.0958 37.0806 66.1701 37.6813 66.065C38.2916 65.9582 38.8407 65.6509 39.3101 65.2546C39.7896 64.8499 40.1849 64.3515 40.5417 63.8381C40.9305 63.2787 41.2672 62.6841 41.5588 62.0687C41.8872 61.3758 42.1605 60.6576 42.387 59.9252C42.2844 59.9252 42.1819 59.9252 42.0795 59.9252C42.3833 61.0965 42.9959 62.1756 43.8095 63.0675C44.2171 63.5142 44.6776 63.913 45.1767 64.2543C45.7084 64.6178 46.3243 64.9864 46.9855 65.0063C47.631 65.0258 48.3354 64.5802 48.3476 63.8809C48.3511 63.6754 48.032 63.6753 48.0285 63.8809C48.0194 64.4062 47.4522 64.7012 46.9855 64.687C46.3852 64.6688 45.8191 64.3076 45.3378 63.9786C44.4229 63.3529 43.6492 62.5166 43.0941 61.5572C42.7826 61.0187 42.5435 60.4429 42.3872 59.8405C42.3465 59.6837 42.1249 59.6936 42.0796 59.8405C41.699 61.0716 41.1843 62.2657 40.485 63.3506C39.8643 64.3137 39.0551 65.3503 37.9075 65.6848C37.3014 65.8615 36.6295 65.8336 36.087 65.4886C35.9131 65.3781 35.753 65.6543 35.9259 65.7643Z" fill="#010101"/>
<path d="M42.0789 60.1344C42.2793 61.8275 42.623 63.5029 43.0326 65.1568C43.4911 67.0076 44.0392 68.837 44.6704 70.6361C45.021 71.6355 45.3986 72.6255 45.809 73.6019C45.8423 73.6812 45.9144 73.7384 46.0052 73.7133C46.08 73.6927 46.1502 73.5969 46.1165 73.517C45.3828 71.7721 44.7516 69.984 44.1989 68.1739C43.6586 66.4043 43.191 64.61 42.8297 62.7949C42.6543 61.9137 42.5035 61.0268 42.3979 60.1342C42.3879 60.0487 42.3319 59.9746 42.2384 59.9746C42.1601 59.9748 42.0687 60.0482 42.0789 60.1344Z" fill="#010101"/>
</g>
</svg>
