<svg width="250" height="227" viewBox="0 0 250 227" fill="none" xmlns="http://www.w3.org/2000/svg">
<path d="M181.789 221.928C181.622 221.928 181.488 221.928 181.353 221.894C179.98 220.309 178.807 218.588 177.902 216.666C177.433 215.687 175.925 216.396 176.394 217.374C177.131 218.892 178.002 220.309 178.974 221.624C169.289 219.836 164.028 210.02 162.654 200.676C162.486 199.597 160.844 199.9 161.012 200.946C162.419 210.56 167.882 220.545 177.433 223.007C175.422 223.378 173.478 223.986 171.602 224.829C171.132 225.031 170.965 225.74 171.334 226.144C172.004 226.853 172.54 227.055 173.512 226.988C174.249 226.954 174.35 226.178 173.981 225.706C176.327 224.863 178.773 224.39 181.286 224.323C181.353 224.39 181.421 224.458 181.488 224.492C182.258 225.234 183.532 224.154 182.761 223.412L182.727 223.378C182.727 223.176 182.66 222.974 182.526 222.839C182.56 222.366 182.325 221.928 181.789 221.928Z" fill="#010101"/>
<path d="M55.2109 221.928C55.3784 221.928 55.5125 221.928 55.6465 221.894C57.0205 220.309 58.1934 218.588 59.0982 216.666C59.5674 215.687 61.0754 216.396 60.6062 217.374C59.869 218.892 58.9977 220.309 58.0258 221.624C67.7107 219.836 72.972 210.02 74.346 200.676C74.5135 199.597 76.1556 199.9 75.988 200.946C74.5805 210.56 69.1181 220.545 59.5674 223.007C61.5781 223.378 63.5217 223.986 65.3984 224.829C65.8675 225.031 66.0351 225.74 65.6665 226.144C64.9962 226.853 64.46 227.055 63.4882 226.988C62.751 226.954 62.6504 226.178 63.019 225.706C60.6732 224.863 58.2269 224.39 55.7135 224.323C55.6465 224.39 55.5795 224.458 55.5125 224.492C54.7417 225.234 53.4683 224.154 54.239 223.412L54.2725 223.378C54.2725 223.176 54.3396 222.974 54.4736 222.839C54.4401 222.366 54.6747 221.928 55.2109 221.928Z" fill="#010101"/>
<rect y="146" width="250" height="49" rx="24.5" fill="#CADFF7"/>
<path d="M13.2371 181V161.2H21.0371C23.4171 161.2 25.1571 161.68 26.2571 162.64C27.3571 163.6 27.9071 164.93 27.9071 166.63C27.9071 167.67 27.6071 168.6 27.0071 169.42C26.4071 170.22 25.5271 170.73 24.3671 170.95V170.98C25.6471 171.18 26.6371 171.71 27.3371 172.57C28.0571 173.41 28.4171 174.39 28.4171 175.51C28.4171 177.21 27.7971 178.55 26.5571 179.53C25.3171 180.51 23.5171 181 21.1571 181H13.2371ZM16.3871 178.33H21.3071C22.5671 178.33 23.5071 178.07 24.1271 177.55C24.7671 177.03 25.0871 176.3 25.0871 175.36C25.0871 174.42 24.7671 173.69 24.1271 173.17C23.5071 172.65 22.5671 172.39 21.3071 172.39H16.3871V178.33ZM16.3871 169.72H20.7971C23.3171 169.72 24.5771 168.75 24.5771 166.81C24.5771 164.87 23.3171 163.9 20.7971 163.9H16.3871V169.72ZM36.8604 165.7C38.3204 165.7 39.6104 166.01 40.7304 166.63C41.8504 167.25 42.7204 168.15 43.3404 169.33C43.9804 170.49 44.3004 171.88 44.3004 173.5C44.3004 175.12 43.9804 176.52 43.3404 177.7C42.7204 178.86 41.8504 179.75 40.7304 180.37C39.6104 180.99 38.3204 181.3 36.8604 181.3C35.4004 181.3 34.1104 180.99 32.9904 180.37C31.8704 179.75 30.9904 178.86 30.3504 177.7C29.7104 176.52 29.3904 175.12 29.3904 173.5C29.3904 171.88 29.7104 170.49 30.3504 169.33C30.9904 168.15 31.8704 167.25 32.9904 166.63C34.1104 166.01 35.4004 165.7 36.8604 165.7ZM36.8604 168.22C35.9604 168.22 35.1904 168.43 34.5504 168.85C33.9304 169.25 33.4504 169.84 33.1104 170.62C32.7704 171.4 32.6004 172.36 32.6004 173.5C32.6004 174.62 32.7704 175.58 33.1104 176.38C33.4504 177.16 33.9304 177.76 34.5504 178.18C35.1904 178.58 35.9604 178.78 36.8604 178.78C37.7604 178.78 38.5204 178.58 39.1404 178.18C39.7604 177.76 40.2404 177.16 40.5804 176.38C40.9204 175.58 41.0904 174.62 41.0904 173.5C41.0904 172.36 40.9204 171.4 40.5804 170.62C40.2404 169.84 39.7604 169.25 39.1404 168.85C38.5204 168.43 37.7604 168.22 36.8604 168.22ZM54.6793 171.37C54.6793 170.37 54.3993 169.6 53.8393 169.06C53.2993 168.5 52.5493 168.22 51.5893 168.22C50.6893 168.22 49.9193 168.43 49.2793 168.85C48.6393 169.27 48.1693 169.95 47.8693 170.89L45.1693 169.75C45.5493 168.53 46.2893 167.55 47.3893 166.81C48.5093 166.07 49.9493 165.7 51.7093 165.7C52.9093 165.7 53.9693 165.9 54.8893 166.3C55.8093 166.68 56.5293 167.26 57.0493 168.04C57.5893 168.82 57.8593 169.82 57.8593 171.04V177.73C57.8593 178.47 58.2293 178.84 58.9693 178.84C59.3293 178.84 59.6793 178.79 60.0193 178.69L59.8393 180.91C59.3793 181.13 58.7993 181.24 58.0993 181.24C57.4593 181.24 56.8793 181.13 56.3593 180.91C55.8593 180.67 55.4593 180.32 55.1593 179.86C54.8793 179.38 54.7393 178.79 54.7393 178.09V177.88L55.3993 177.85C55.2193 178.63 54.8493 179.28 54.2893 179.8C53.7293 180.3 53.0793 180.68 52.3393 180.94C51.5993 181.18 50.8493 181.3 50.0893 181.3C49.1493 181.3 48.2993 181.15 47.5393 180.85C46.7993 180.55 46.2093 180.1 45.7693 179.5C45.3493 178.88 45.1393 178.12 45.1393 177.22C45.1393 176.1 45.4993 175.18 46.2193 174.46C46.9593 173.74 47.9993 173.25 49.3393 172.99L55.1593 171.85L55.1293 174.1L50.8993 174.97C50.0593 175.13 49.4293 175.36 49.0093 175.66C48.5893 175.96 48.3793 176.4 48.3793 176.98C48.3793 177.54 48.5893 177.99 49.0093 178.33C49.4493 178.65 50.0293 178.81 50.7493 178.81C51.2493 178.81 51.7293 178.75 52.1893 178.63C52.6693 178.51 53.0993 178.32 53.4793 178.06C53.8593 177.78 54.1493 177.43 54.3493 177.01C54.5693 176.57 54.6793 176.05 54.6793 175.45V171.37ZM60.8187 181V166H63.5487L63.8487 168.7C64.2487 167.72 64.8387 166.98 65.6187 166.48C66.4187 165.96 67.3987 165.7 68.5587 165.7C68.8587 165.7 69.1587 165.73 69.4587 165.79C69.7587 165.83 70.0087 165.9 70.2087 166L69.7587 168.82C69.5387 168.74 69.2887 168.68 69.0087 168.64C68.7487 168.58 68.3887 168.55 67.9287 168.55C67.3087 168.55 66.6987 168.72 66.0987 169.06C65.4987 169.38 64.9987 169.87 64.5987 170.53C64.2187 171.19 64.0287 172.03 64.0287 173.05V181H60.8187ZM76.3197 181.3C75.0797 181.3 73.9497 180.99 72.9297 180.37C71.9297 179.75 71.1397 178.86 70.5597 177.7C69.9797 176.54 69.6897 175.15 69.6897 173.53C69.6897 171.85 69.9997 170.43 70.6197 169.27C71.2397 168.11 72.0697 167.23 73.1097 166.63C74.1497 166.01 75.2897 165.7 76.5297 165.7C77.8097 165.7 78.8897 166.05 79.7697 166.75C80.6497 167.45 81.2397 168.36 81.5397 169.48L81.1797 169.81V159.25H84.3897V181H81.5397L81.2997 176.92L81.7197 176.95C81.5797 177.85 81.2497 178.63 80.7297 179.29C80.2097 179.93 79.5597 180.43 78.7797 180.79C78.0197 181.13 77.1997 181.3 76.3197 181.3ZM77.0097 178.72C77.8697 178.72 78.6097 178.5 79.2297 178.06C79.8497 177.62 80.3297 177 80.6697 176.2C81.0097 175.4 81.1797 174.44 81.1797 173.32C81.1797 172.28 81.0097 171.39 80.6697 170.65C80.3297 169.89 79.8497 169.31 79.2297 168.91C78.6297 168.51 77.9297 168.31 77.1297 168.31C75.7897 168.31 74.7497 168.77 74.0097 169.69C73.2697 170.61 72.8997 171.88 72.8997 173.5C72.8997 175.12 73.2597 176.4 73.9797 177.34C74.6997 178.26 75.7097 178.72 77.0097 178.72ZM101.034 165.7C102.494 165.7 103.784 166.01 104.904 166.63C106.024 167.25 106.894 168.15 107.514 169.33C108.154 170.49 108.474 171.88 108.474 173.5C108.474 175.12 108.154 176.52 107.514 177.7C106.894 178.86 106.024 179.75 104.904 180.37C103.784 180.99 102.494 181.3 101.034 181.3C99.5742 181.3 98.2842 180.99 97.1642 180.37C96.0442 179.75 95.1642 178.86 94.5242 177.7C93.8842 176.52 93.5642 175.12 93.5642 173.5C93.5642 171.88 93.8842 170.49 94.5242 169.33C95.1642 168.15 96.0442 167.25 97.1642 166.63C98.2842 166.01 99.5742 165.7 101.034 165.7ZM101.034 168.22C100.134 168.22 99.3642 168.43 98.7242 168.85C98.1042 169.25 97.6242 169.84 97.2842 170.62C96.9442 171.4 96.7742 172.36 96.7742 173.5C96.7742 174.62 96.9442 175.58 97.2842 176.38C97.6242 177.16 98.1042 177.76 98.7242 178.18C99.3642 178.58 100.134 178.78 101.034 178.78C101.934 178.78 102.694 178.58 103.314 178.18C103.934 177.76 104.414 177.16 104.754 176.38C105.094 175.58 105.264 174.62 105.264 173.5C105.264 172.36 105.094 171.4 104.754 170.62C104.414 169.84 103.934 169.25 103.314 168.85C102.694 168.43 101.934 168.22 101.034 168.22ZM116.367 159.04C116.987 159.04 117.547 159.11 118.047 159.25C118.567 159.37 118.957 159.54 119.217 159.76L118.617 162.07C118.397 161.93 118.147 161.83 117.867 161.77C117.587 161.69 117.267 161.65 116.907 161.65C116.087 161.65 115.437 161.84 114.957 162.22C114.497 162.6 114.267 163.22 114.267 164.08V166.27L114.357 167.08V181H111.147V163.84C111.147 163.08 111.257 162.4 111.477 161.8C111.717 161.2 112.067 160.7 112.527 160.3C112.987 159.88 113.537 159.57 114.177 159.37C114.837 159.15 115.567 159.04 116.367 159.04ZM119.127 166V168.52H108.327V166H119.127ZM133.619 161.2C136.719 161.2 139.129 162.06 140.849 163.78C142.589 165.48 143.459 167.92 143.459 171.1C143.459 174.28 142.589 176.73 140.849 178.45C139.129 180.15 136.719 181 133.619 181H126.629V161.2H133.619ZM133.619 178.27C135.719 178.27 137.319 177.65 138.419 176.41C139.539 175.15 140.099 173.38 140.099 171.1C140.099 168.82 139.539 167.06 138.419 165.82C137.319 164.56 135.719 163.93 133.619 163.93H129.839V178.27H133.619ZM146.973 163.48C146.273 163.48 145.733 163.31 145.353 162.97C144.993 162.61 144.813 162.11 144.813 161.47C144.813 160.83 144.993 160.34 145.353 160C145.733 159.66 146.273 159.49 146.973 159.49C147.653 159.49 148.173 159.66 148.533 160C148.913 160.34 149.103 160.83 149.103 161.47C149.103 162.11 148.913 162.61 148.533 162.97C148.173 163.31 147.653 163.48 146.973 163.48ZM148.563 166V181H145.353V166H148.563ZM151.286 181V166H154.016L154.316 168.7C154.716 167.72 155.306 166.98 156.086 166.48C156.886 165.96 157.866 165.7 159.026 165.7C159.326 165.7 159.626 165.73 159.926 165.79C160.226 165.83 160.476 165.9 160.676 166L160.226 168.82C160.006 168.74 159.756 168.68 159.476 168.64C159.216 168.58 158.856 168.55 158.396 168.55C157.776 168.55 157.166 168.72 156.566 169.06C155.966 169.38 155.466 169.87 155.066 170.53C154.686 171.19 154.496 172.03 154.496 173.05V181H151.286ZM167.627 181.3C166.127 181.3 164.807 180.99 163.667 180.37C162.527 179.75 161.637 178.86 160.997 177.7C160.377 176.52 160.067 175.12 160.067 173.5C160.067 171.88 160.377 170.49 160.997 169.33C161.637 168.15 162.517 167.25 163.637 166.63C164.757 166.01 166.027 165.7 167.447 165.7C168.907 165.7 170.147 166 171.167 166.6C172.187 167.2 172.967 168.02 173.507 169.06C174.047 170.1 174.317 171.28 174.317 172.6C174.317 172.96 174.307 173.3 174.287 173.62C174.267 173.94 174.237 174.22 174.197 174.46H162.137V172H172.787L171.197 172.48C171.197 171.12 170.857 170.08 170.177 169.36C169.497 168.62 168.567 168.25 167.387 168.25C166.527 168.25 165.777 168.45 165.137 168.85C164.497 169.25 164.007 169.85 163.667 170.65C163.327 171.43 163.157 172.39 163.157 173.53C163.157 174.65 163.337 175.6 163.697 176.38C164.057 177.16 164.567 177.75 165.227 178.15C165.887 178.55 166.667 178.75 167.567 178.75C168.567 178.75 169.377 178.56 169.997 178.18C170.617 177.8 171.107 177.27 171.467 176.59L174.017 177.79C173.657 178.51 173.167 179.14 172.547 179.68C171.947 180.2 171.227 180.6 170.387 180.88C169.547 181.16 168.627 181.3 167.627 181.3ZM182.551 165.7C183.751 165.7 184.771 165.88 185.611 166.24C186.471 166.58 187.191 167.07 187.771 167.71C188.351 168.35 188.791 169.08 189.091 169.9L186.061 171.1C185.801 170.18 185.381 169.48 184.801 169C184.241 168.5 183.501 168.25 182.581 168.25C181.681 168.25 180.911 168.46 180.271 168.88C179.631 169.28 179.141 169.87 178.801 170.65C178.481 171.43 178.321 172.39 178.321 173.53C178.321 174.65 178.491 175.6 178.831 176.38C179.171 177.16 179.661 177.75 180.301 178.15C180.941 178.55 181.701 178.75 182.581 178.75C183.261 178.75 183.851 178.64 184.351 178.42C184.851 178.18 185.261 177.85 185.581 177.43C185.921 176.99 186.151 176.46 186.271 175.84L189.181 176.83C188.901 177.73 188.461 178.52 187.861 179.2C187.281 179.86 186.551 180.38 185.671 180.76C184.791 181.12 183.781 181.3 182.641 181.3C181.161 181.3 179.851 180.99 178.711 180.37C177.571 179.75 176.681 178.86 176.041 177.7C175.421 176.52 175.111 175.12 175.111 173.5C175.111 171.88 175.421 170.49 176.041 169.33C176.681 168.15 177.561 167.25 178.681 166.63C179.821 166.01 181.111 165.7 182.551 165.7ZM194.996 161.59V176.5C194.996 177.24 195.186 177.78 195.566 178.12C195.966 178.46 196.496 178.63 197.156 178.63C197.696 178.63 198.166 178.55 198.566 178.39C198.966 178.21 199.336 177.97 199.676 177.67L200.396 180.01C199.936 180.41 199.366 180.73 198.686 180.97C198.026 181.19 197.286 181.3 196.466 181.3C195.606 181.3 194.816 181.16 194.096 180.88C193.376 180.6 192.816 180.15 192.416 179.53C192.016 178.89 191.806 178.06 191.786 177.04V162.49L194.996 161.59ZM200.156 166V168.52H188.906V166H200.156ZM207.541 165.7C209.001 165.7 210.291 166.01 211.411 166.63C212.531 167.25 213.401 168.15 214.021 169.33C214.661 170.49 214.981 171.88 214.981 173.5C214.981 175.12 214.661 176.52 214.021 177.7C213.401 178.86 212.531 179.75 211.411 180.37C210.291 180.99 209.001 181.3 207.541 181.3C206.081 181.3 204.791 180.99 203.671 180.37C202.551 179.75 201.671 178.86 201.031 177.7C200.391 176.52 200.071 175.12 200.071 173.5C200.071 171.88 200.391 170.49 201.031 169.33C201.671 168.15 202.551 167.25 203.671 166.63C204.791 166.01 206.081 165.7 207.541 165.7ZM207.541 168.22C206.641 168.22 205.871 168.43 205.231 168.85C204.611 169.25 204.131 169.84 203.791 170.62C203.451 171.4 203.281 172.36 203.281 173.5C203.281 174.62 203.451 175.58 203.791 176.38C204.131 177.16 204.611 177.76 205.231 178.18C205.871 178.58 206.641 178.78 207.541 178.78C208.441 178.78 209.201 178.58 209.821 178.18C210.441 177.76 210.921 177.16 211.261 176.38C211.601 175.58 211.771 174.62 211.771 173.5C211.771 172.36 211.601 171.4 211.261 170.62C210.921 169.84 210.441 169.25 209.821 168.85C209.201 168.43 208.441 168.22 207.541 168.22ZM216.719 181V166H219.449L219.749 168.7C220.149 167.72 220.739 166.98 221.519 166.48C222.319 165.96 223.299 165.7 224.459 165.7C224.759 165.7 225.059 165.73 225.359 165.79C225.659 165.83 225.909 165.9 226.109 166L225.659 168.82C225.439 168.74 225.189 168.68 224.909 168.64C224.649 168.58 224.289 168.55 223.829 168.55C223.209 168.55 222.599 168.72 221.999 169.06C221.399 169.38 220.899 169.87 220.499 170.53C220.119 171.19 219.929 172.03 219.929 173.05V181H216.719ZM232.014 181.3C230.514 181.3 229.144 181.01 227.904 180.43C226.664 179.85 225.684 179.03 224.964 177.97L227.184 176.05C227.624 176.87 228.254 177.53 229.074 178.03C229.914 178.51 230.914 178.75 232.074 178.75C232.994 178.75 233.724 178.59 234.264 178.27C234.804 177.95 235.074 177.5 235.074 176.92C235.074 176.54 234.944 176.21 234.684 175.93C234.444 175.63 233.974 175.4 233.274 175.24L230.124 174.58C228.524 174.26 227.384 173.75 226.704 173.05C226.024 172.33 225.684 171.42 225.684 170.32C225.684 169.5 225.924 168.74 226.404 168.04C226.884 167.34 227.584 166.78 228.504 166.36C229.444 165.92 230.564 165.7 231.864 165.7C233.364 165.7 234.644 165.97 235.704 166.51C236.764 167.03 237.574 167.78 238.134 168.76L235.914 170.62C235.534 169.82 234.974 169.23 234.234 168.85C233.494 168.45 232.724 168.25 231.924 168.25C231.284 168.25 230.734 168.33 230.274 168.49C229.814 168.65 229.464 168.87 229.224 169.15C228.984 169.43 228.864 169.76 228.864 170.14C228.864 170.54 229.014 170.89 229.314 171.19C229.614 171.49 230.154 171.72 230.934 171.88L234.354 172.6C235.794 172.88 236.804 173.36 237.384 174.04C237.984 174.7 238.284 175.51 238.284 176.47C238.284 177.43 238.034 178.28 237.534 179.02C237.034 179.74 236.314 180.3 235.374 180.7C234.434 181.1 233.314 181.3 232.014 181.3Z" fill="#010101"/>
<path d="M71.7891 1.87207C77.6114 0.32101 84.4101 3.77487 86.5742 9.37305L87.7275 12.3564L89.2842 9.5625C92.2339 4.2653 99.8331 2.0493 105.184 4.93262C110.534 7.81477 112.835 15.3583 110.009 20.7178L108.468 23.6416L111.684 22.877C114.788 22.1386 118.059 23.0179 120.783 24.9834C123.511 26.9516 125.568 29.9277 126.254 33.1523C127.651 39.7245 124.405 46.8641 119.09 51.4727H119.089C113.776 56.0806 106.754 58.4587 99.5625 59.8008C83.5221 62.7914 69.5794 60.8337 54.5547 54.3418C51.9218 52.9637 49.5636 51.2959 48.0439 49.0566C46.5152 46.804 46.0077 43.9462 46.9902 41.7217C47.9844 39.4754 50.7052 38.1943 52.6924 38.9648L57.291 40.748L54.4639 36.7061C52.2321 33.516 51.6254 29.2334 52.8584 25.5479L52.9834 25.1934C54.3788 21.4286 57.7224 18.4125 61.623 17.4053L62.9395 17.0654L62.7305 15.7217C61.8056 9.79626 65.968 3.42293 71.7891 1.87207Z" fill="#E0E6ED" stroke="#010101" stroke-width="3"/>
<mask id="path-6-inside-1_2495_26186" fill="white">
<path d="M50.827 37.8201C55.1105 38.5327 58.9832 40.7162 61.7704 44.0388C62.6811 45.1248 64.2763 43.6105 63.3694 42.5301C60.3711 38.9592 56.0819 36.4876 51.4696 35.7219C50.884 35.6252 50.2832 35.8318 50.095 36.4497C49.941 36.9577 50.2376 37.7234 50.827 37.8201Z"/>
</mask>
<path d="M50.827 37.8201C55.1105 38.5327 58.9832 40.7162 61.7704 44.0388C62.6811 45.1248 64.2763 43.6105 63.3694 42.5301C60.3711 38.9592 56.0819 36.4876 51.4696 35.7219C50.884 35.6252 50.2832 35.8318 50.095 36.4497C49.941 36.9577 50.2376 37.7234 50.827 37.8201Z" fill="#CADFF7"/>
<path d="M50.827 37.8201L51.3193 34.8607L51.3125 34.8596L50.827 37.8201ZM61.7704 44.0388L64.0692 42.1112L64.0688 42.1107L61.7704 44.0388ZM63.3694 42.5301L65.6671 40.6013L65.6669 40.601L63.3694 42.5301ZM51.4696 35.7219L51.9609 32.7624L51.9582 32.762L51.4696 35.7219ZM50.095 36.4497L47.2252 35.5755L47.224 35.5793L50.095 36.4497ZM50.827 37.8201L50.3346 40.7794C53.9249 41.3767 57.1527 43.202 59.472 45.9668L61.7704 44.0388L64.0688 42.1107C60.8137 38.2304 56.296 35.6887 51.3193 34.8607L50.827 37.8201ZM61.7704 44.0388L59.4717 45.9664C60.247 46.8911 61.3695 47.441 62.6018 47.4123C63.7351 47.386 64.6744 46.8807 65.3137 46.2757C66.5642 45.0922 67.3884 42.6519 65.6671 40.6013L63.3694 42.5301L61.0716 44.4589C60.7531 44.0795 60.5837 43.534 60.6556 42.985C60.7184 42.5049 60.9447 42.1495 61.1893 41.918C61.4293 41.6909 61.8558 41.4281 62.4622 41.414C63.1676 41.3976 63.7492 41.7295 64.0692 42.1112L61.7704 44.0388ZM63.3694 42.5301L65.6669 40.601C62.2143 36.4891 57.2876 33.6467 51.9609 32.7624L51.4696 35.7219L50.9782 38.6814C54.8763 39.3285 58.5279 41.4294 61.0718 44.4592L63.3694 42.5301ZM51.4696 35.7219L51.9582 32.762C50.5237 32.5252 48.0164 32.9783 47.2252 35.5755L50.095 36.4497L52.9648 37.3239C52.8023 37.8572 52.4014 38.3002 51.9161 38.5297C51.5013 38.726 51.1575 38.711 50.981 38.6819L51.4696 35.7219ZM50.095 36.4497L47.224 35.5793C46.8947 36.6657 47.0796 37.7607 47.4793 38.5907C47.8885 39.4405 48.7949 40.5269 50.3414 40.7805L50.827 37.8201L51.3125 34.8596C52.2697 35.0166 52.7331 35.6718 52.8852 35.9876C53.0277 36.2835 53.1413 36.7417 52.9659 37.3201L50.095 36.4497Z" fill="#010101" mask="url(#path-6-inside-1_2495_26186)"/>
<mask id="path-8-inside-2_2495_26186" fill="white">
<path d="M87.9338 39.8247C86.7988 37.7985 88.0384 35.2796 89.8978 34.1462C92.2687 32.7 95.3334 33.0753 97.9077 33.6553C98.5921 33.8088 99.3146 33.3918 99.3298 32.6356C99.4667 26.1723 105.347 21.1875 111.804 22.3721C113.184 22.6261 113.84 20.5279 112.448 20.272C104.619 18.8354 97.3012 24.5632 97.1301 32.5749C97.6035 32.2356 98.0788 31.8963 98.5523 31.5552C95.1053 30.7781 91.0329 30.4369 88.0708 32.7531C85.6562 34.6428 84.4432 38.0923 86.0022 40.8804C86.6924 42.1124 88.6259 41.0643 87.9338 39.8247Z"/>
</mask>
<path d="M87.9338 39.8247C86.7988 37.7985 88.0384 35.2796 89.8978 34.1462C92.2687 32.7 95.3334 33.0753 97.9077 33.6553C98.5921 33.8088 99.3146 33.3918 99.3298 32.6356C99.4667 26.1723 105.347 21.1875 111.804 22.3721C113.184 22.6261 113.84 20.5279 112.448 20.272C104.619 18.8354 97.3012 24.5632 97.1301 32.5749C97.6035 32.2356 98.0788 31.8963 98.5523 31.5552C95.1053 30.7781 91.0329 30.4369 88.0708 32.7531C85.6562 34.6428 84.4432 38.0923 86.0022 40.8804C86.6924 42.1124 88.6259 41.0643 87.9338 39.8247Z" fill="#CADFF7"/>
<path d="M87.9338 39.8247L90.5533 38.3623L90.5511 38.3585L87.9338 39.8247ZM89.8978 34.1462L91.4593 36.7078L91.4601 36.7073L89.8978 34.1462ZM97.9077 33.6553L97.2483 36.5819L97.2511 36.5825L97.9077 33.6553ZM99.3298 32.6356L96.3305 32.572L96.3305 32.5752L99.3298 32.6356ZM111.804 22.3721L112.347 19.4216L112.345 19.4214L111.804 22.3721ZM112.448 20.272L112.991 17.3215L112.99 17.3213L112.448 20.272ZM97.1301 32.5749L94.1308 32.5108L94.0027 38.507L98.8776 35.0133L97.1301 32.5749ZM98.5523 31.5552L100.306 33.989L105.711 30.0939L99.212 28.6286L98.5523 31.5552ZM88.0708 32.7531L86.2229 30.3898L86.2218 30.3906L88.0708 32.7531ZM86.0022 40.8804L83.3838 42.3446L83.3849 42.3466L86.0022 40.8804ZM87.9338 39.8247L90.5511 38.3585C90.51 38.2851 90.4421 38.1137 90.5871 37.7427C90.7452 37.3382 91.0822 36.9376 91.4593 36.7078L89.8978 34.1462L88.3364 31.5846C86.854 32.4881 85.6416 33.9137 84.9987 35.5587C84.3428 37.237 84.2226 39.3382 85.3165 41.2909L87.9338 39.8247ZM89.8978 34.1462L91.4601 36.7073C92.7116 35.9439 94.6731 36.0017 97.2483 36.5819L97.9077 33.6553L98.5671 30.7286C95.9938 30.1489 91.8257 29.4561 88.3356 31.585L89.8978 34.1462ZM97.9077 33.6553L97.2511 36.5825C99.3116 37.0447 102.267 35.8065 102.329 32.6959L99.3298 32.6356L96.3305 32.5752C96.3437 31.918 96.7024 31.3275 97.2001 30.9941C97.6442 30.6966 98.1391 30.6326 98.5643 30.728L97.9077 33.6553ZM99.3298 32.6356L102.329 32.6991C102.428 28.0268 106.679 24.4819 111.262 25.3229L111.804 22.3721L112.345 19.4214C104.016 17.8932 96.5053 24.3179 96.3305 32.572L99.3298 32.6356ZM111.804 22.3721L111.261 25.3226C113.8 25.7898 115.534 24.0048 116.031 22.4009C116.288 21.5716 116.341 20.4768 115.82 19.4183C115.247 18.2539 114.175 17.5391 112.991 17.3215L112.448 20.272L111.906 23.2226C111.418 23.1329 110.786 22.7764 110.438 22.0694C110.142 21.4683 110.206 20.9302 110.3 20.6256C110.472 20.0713 111.188 19.2084 112.347 19.4216L111.804 22.3721ZM112.448 20.272L112.99 17.3213C103.412 15.5638 94.3428 22.5821 94.1308 32.5108L97.1301 32.5749L100.129 32.6389C100.26 26.5442 105.826 22.1069 111.907 23.2228L112.448 20.272ZM97.1301 32.5749L98.8776 35.0133C99.3446 34.6787 99.8287 34.3332 100.306 33.989L98.5523 31.5552L96.7983 29.1213C96.329 29.4595 95.8624 29.7925 95.3826 30.1364L97.1301 32.5749ZM98.5523 31.5552L99.212 28.6286C95.7036 27.8377 90.3605 27.1545 86.2229 30.3898L88.0708 32.7531L89.9187 35.1164C91.7053 33.7194 94.507 33.7185 97.8925 34.4817L98.5523 31.5552ZM88.0708 32.7531L86.2218 30.3906C82.9795 32.9281 80.9123 37.9247 83.3838 42.3446L86.0022 40.8804L88.6207 39.4163C87.9741 38.26 88.333 36.3574 89.9197 35.1156L88.0708 32.7531ZM86.0022 40.8804L83.3849 42.3466C83.9743 43.3987 84.9489 44.1112 86.0818 44.3467C87.1365 44.566 88.1418 44.3383 88.9206 43.9143C89.6985 43.4909 90.4468 42.764 90.831 41.7366C91.2451 40.6293 91.1404 39.4139 90.5533 38.3623L87.9338 39.8247L85.3144 41.2871C85.0733 40.8552 84.9865 40.2357 85.2111 39.635C85.4058 39.1144 85.7573 38.8049 86.0521 38.6444C86.3478 38.4835 86.7835 38.3643 87.3032 38.4723C87.901 38.5966 88.3752 38.9781 88.6195 39.4142L86.0022 40.8804Z" fill="#010101" mask="url(#path-8-inside-2_2495_26186)"/>
<mask id="path-10-inside-3_2495_26186" fill="white">
<path d="M57.7479 18.4338C60.7918 16.4664 64.6665 16.9252 67.6515 18.7997C70.8189 20.7898 72.8837 24.0593 74.5701 27.3023C74.88 27.8993 75.8134 28.087 76.2925 27.5714C78.5398 25.1491 82.5647 24.7587 85.1143 26.9744C86.1752 27.8955 87.7836 26.3944 86.7132 25.4657C83.3062 22.5051 77.8991 22.6169 74.7792 25.9774C75.3533 26.0665 75.9275 26.1575 76.5017 26.2466C74.5244 22.4444 71.9539 18.576 68.0659 16.4987C64.5505 14.6203 60.1283 14.2849 56.6908 16.5081C55.5083 17.2739 56.5559 19.2052 57.7479 18.4338Z"/>
</mask>
<path d="M57.7479 18.4338C60.7918 16.4664 64.6665 16.9252 67.6515 18.7997C70.8189 20.7898 72.8837 24.0593 74.5701 27.3023C74.88 27.8993 75.8134 28.087 76.2925 27.5714C78.5398 25.1491 82.5647 24.7587 85.1143 26.9744C86.1752 27.8955 87.7836 26.3944 86.7132 25.4657C83.3062 22.5051 77.8991 22.6169 74.7792 25.9774C75.3533 26.0665 75.9275 26.1575 76.5017 26.2466C74.5244 22.4444 71.9539 18.576 68.0659 16.4987C64.5505 14.6203 60.1283 14.2849 56.6908 16.5081C55.5083 17.2739 56.5559 19.2052 57.7479 18.4338Z" fill="#CADFF7"/>
<path d="M57.7479 18.4338L56.1194 15.9143L56.1181 15.9152L57.7479 18.4338ZM67.6515 18.7997L69.2475 16.2595L69.2469 16.2591L67.6515 18.7997ZM74.5701 27.3023L77.2327 25.9202L77.2317 25.9182L74.5701 27.3023ZM76.2925 27.5714L78.4901 29.6137L78.4918 29.6118L76.2925 27.5714ZM85.1143 26.9744L83.1464 29.2388L83.1474 29.2396L85.1143 26.9744ZM86.7132 25.4657L84.7454 27.7302L84.7471 27.7316L86.7132 25.4657ZM74.7792 25.9774L72.5806 23.9362L68.7373 28.0759L74.3192 28.9419L74.7792 25.9774ZM76.5017 26.2466L76.0417 29.2111L81.8973 30.1196L79.1633 24.8624L76.5017 26.2466ZM68.0659 16.4987L66.6521 19.1446L66.6522 19.1447L68.0659 16.4987ZM56.6908 16.5081L55.0616 13.9891L55.0603 13.99L56.6908 16.5081ZM57.7479 18.4338L59.3764 20.9534C61.1909 19.7806 63.7785 19.91 66.056 21.3402L67.6515 18.7997L69.2469 16.2591C65.5545 13.9403 60.3927 13.1523 56.1194 15.9143L57.7479 18.4338ZM67.6515 18.7997L66.0554 21.3399C68.5015 22.8768 70.2605 25.5174 71.9084 28.6864L74.5701 27.3023L77.2317 25.9182C75.5068 22.6012 73.1363 18.7028 69.2475 16.2595L67.6515 18.7997ZM74.5701 27.3023L71.9074 28.6844C72.5691 29.9593 73.7745 30.6241 74.8594 30.8107C75.9658 31.001 77.4191 30.7661 78.4901 29.6137L76.2925 27.5714L74.095 25.5292C74.6868 24.8923 75.4338 24.8214 75.8763 24.8975C76.2972 24.9699 76.8809 25.2424 77.2327 25.9202L74.5701 27.3023ZM76.2925 27.5714L78.4918 29.6118C79.7262 28.2813 81.9143 28.1681 83.1464 29.2388L85.1143 26.9744L87.0821 24.71C83.2151 21.3493 77.3534 22.017 74.0932 25.531L76.2925 27.5714ZM85.1143 26.9744L83.1474 29.2396C85.1175 30.9502 87.5336 30.2577 88.7658 29.1014C89.4017 28.5047 89.9813 27.5839 90.0577 26.419C90.1414 25.1418 89.5894 23.9894 88.6793 23.1997L86.7132 25.4657L84.7471 27.7316C84.3722 27.4063 84.0205 26.7899 84.0706 26.0265C84.1132 25.3755 84.4252 24.9465 84.6601 24.7261C84.9033 24.4979 85.2496 24.3102 85.6911 24.2701C86.1934 24.2245 86.7091 24.3861 87.0811 24.7091L85.1143 26.9744ZM86.7132 25.4657L88.681 23.2012C84.127 19.2439 76.8678 19.3185 72.5806 23.9362L74.7792 25.9774L76.9777 28.0186C78.9304 25.9153 82.4854 25.7663 84.7454 27.7302L86.7132 25.4657ZM74.7792 25.9774L74.3192 28.9419C74.6035 28.9861 74.8882 29.0307 75.1757 29.0758C75.4624 29.1207 75.7519 29.1661 76.0417 29.2111L76.5017 26.2466L76.9616 23.282C76.6773 23.2379 76.3926 23.1933 76.1051 23.1482C75.8184 23.1032 75.529 23.0579 75.2391 23.0129L74.7792 25.9774ZM76.5017 26.2466L79.1633 24.8624C77.131 20.9545 74.2106 16.3803 69.4796 13.8527L68.0659 16.4987L66.6522 19.1447C69.6973 20.7716 71.9179 23.9344 73.8401 27.6307L76.5017 26.2466ZM68.0659 16.4987L69.4797 13.8527C65.2709 11.6038 59.6448 11.0248 55.0616 13.9891L56.6908 16.5081L58.3201 19.0272C60.6117 17.545 63.8302 17.6369 66.6521 19.1446L68.0659 16.4987ZM56.6908 16.5081L55.0603 13.99C52.8373 15.4294 52.8743 17.9795 53.6954 19.4844C54.1164 20.2559 54.8584 21.034 55.9433 21.4048C57.1253 21.8088 58.3672 21.6065 59.3778 20.9525L57.7479 18.4338L56.1181 15.9152C56.5326 15.6469 57.1965 15.4924 57.8838 15.7273C58.4739 15.929 58.8044 16.321 58.9623 16.6104C59.124 16.9067 59.2253 17.3064 59.1427 17.7685C59.0485 18.2955 58.7353 18.7584 58.3214 19.0263L56.6908 16.5081Z" fill="#010101" mask="url(#path-10-inside-3_2495_26186)"/>
<path d="M78.8477 50.5508L85.2373 62.0254L87.127 65.417L88.0088 61.6357L88.0098 61.6338C88.0101 61.6323 88.0101 61.6297 88.0107 61.627C88.0121 61.6212 88.014 61.6127 88.0166 61.6016C88.0219 61.5788 88.0298 61.545 88.04 61.501C88.0606 61.4128 88.0914 61.2828 88.1299 61.1182C88.2067 60.7889 88.3165 60.3187 88.4482 59.7549C88.7118 58.6266 89.0628 57.1231 89.4141 55.623C89.7654 54.1229 90.1168 52.6265 90.3799 51.5117C90.4291 51.3033 90.4752 51.1086 90.5176 50.9297C90.9614 50.9727 91.445 51.0436 91.8809 51.165C92.4693 51.3291 92.7233 51.5172 92.7949 51.6084C92.8083 51.6254 92.8098 51.6282 92.8115 51.6504C92.8144 51.689 92.8137 51.8317 92.6943 52.1133C91.9237 53.9287 90.54 57.5323 89.3594 60.6523C88.7667 62.2187 88.2212 63.6735 87.8242 64.7363C87.6258 65.2676 87.4644 65.7012 87.3525 66.002C87.2966 66.1524 87.2523 66.2699 87.2227 66.3496C87.2079 66.3892 87.197 66.42 87.1895 66.4404C87.1858 66.4503 87.1826 66.4577 87.1807 66.4629C87.1797 66.4655 87.1792 66.4684 87.1787 66.4697L87.1777 66.4707V66.4717L89.5752 68.1191L92.6914 65.376L93.2461 66.1377C93.1109 66.1913 92.9714 66.2474 92.8291 66.3076C91.5146 66.8634 89.7711 67.7684 88.5322 69.1035C88.0862 69.5842 87.9408 70.2222 87.873 70.6191C87.7926 71.0908 87.7615 71.6407 87.7598 72.2236C87.7563 73.3964 87.8713 74.8962 88.0596 76.5742C88.4373 79.9413 89.1318 84.1959 89.8848 88.3516C90.6389 92.5136 91.4563 96.6036 92.085 99.6514C92.3994 101.176 92.6666 102.441 92.8555 103.325C92.8717 103.401 92.8873 103.475 92.9023 103.545C92.374 103.713 91.7326 103.825 90.9805 103.87C89.7506 103.943 88.3683 103.836 86.9893 103.645C85.6156 103.454 84.2948 103.187 83.1836 102.958C82.6365 102.845 82.1238 102.738 81.6982 102.659C81.6541 102.651 81.6091 102.645 81.5645 102.637C81.5536 102.545 81.5426 102.442 81.5322 102.327C81.4501 101.42 81.4162 100.073 81.4238 98.376C81.439 94.9967 81.6189 90.4022 81.8594 85.5635C82.3374 75.9454 83.0589 65.304 83.1572 61.7656C83.2181 59.5744 82.3515 57.574 81.1719 55.877C79.9901 54.177 78.4258 52.6809 76.9111 51.457C76.4752 51.1048 76.0389 50.7726 75.6123 50.4609L78.8477 50.5508Z" fill="#E0E6ED" stroke="#010101" stroke-width="3"/>
<path d="M120.882 75.3965C126.951 74.2153 133.573 75.7667 138.781 79.2002C143.986 82.6311 147.629 87.8324 148.02 93.8428L148.275 97.7734L150.699 94.6689C155.317 88.7542 164.698 87.1396 171.067 91.1006L171.368 91.2939C177.737 95.4983 180.035 104.923 176.32 111.569L173.804 116.073L178.343 113.621C182.181 111.548 187.184 111.743 190.849 114.105C194.114 116.211 196.233 119.988 196.426 123.854L34.502 120.93C34.4581 116.914 36.5277 113.01 39.7441 110.24C43.3039 107.175 48.042 105.693 52.3896 106.896L54.3721 107.443L54.2881 105.389C53.9036 95.904 61.7543 86.7124 71.2188 85.582C80.6839 84.4518 90.4905 91.5384 92.3623 100.846L95.2656 100.995C99.0731 88.7401 108.592 77.7883 120.882 75.3965Z" fill="#FFE4C0" stroke="#010101" stroke-width="3"/>
<mask id="path-14-inside-4_2495_26186" fill="white">
<path d="M198.314 125.999C189.819 123.623 182.845 116.471 180.702 107.94C179.957 104.972 179.777 101.767 180.847 98.8995C181.917 96.0318 184.416 93.5773 187.456 93.147C183.509 84.2691 181.839 74.3962 182.651 64.7203C182.86 62.226 183.262 59.6615 184.598 57.5425C185.935 55.4235 188.418 53.8485 190.893 54.2598C187.551 47.7624 185.378 40.67 184.503 33.4183C184.167 30.6169 184.151 27.4214 186.142 25.4161C188.84 22.6962 193.524 23.8088 196.745 25.8861C204.614 30.9619 208.997 40.9183 207.413 50.1298C211.634 51.8508 213.369 57.19 212.468 61.646C211.567 66.102 208.69 69.8681 205.896 73.4599C209.544 72.7396 213.212 75.3003 214.938 78.5849C216.664 81.8677 216.873 85.7115 216.959 89.4188C217.102 95.6337 216.986 101.928 215.398 107.939C213.811 113.949 210.613 119.716 205.58 123.386"/>
</mask>
<path d="M198.314 125.999C189.819 123.623 182.845 116.471 180.702 107.94C179.957 104.972 179.777 101.767 180.847 98.8995C181.917 96.0318 184.416 93.5773 187.456 93.147C183.509 84.2691 181.839 74.3962 182.651 64.7203C182.86 62.226 183.262 59.6615 184.598 57.5425C185.935 55.4235 188.418 53.8485 190.893 54.2598C187.551 47.7624 185.378 40.67 184.503 33.4183C184.167 30.6169 184.151 27.4214 186.142 25.4161C188.84 22.6962 193.524 23.8088 196.745 25.8861C204.614 30.9619 208.997 40.9183 207.413 50.1298C211.634 51.8508 213.369 57.19 212.468 61.646C211.567 66.102 208.69 69.8681 205.896 73.4599C209.544 72.7396 213.212 75.3003 214.938 78.5849C216.664 81.8677 216.873 85.7115 216.959 89.4188C217.102 95.6337 216.986 101.928 215.398 107.939C213.811 113.949 210.613 119.716 205.58 123.386" fill="#E0E6ED"/>
<path d="M180.702 107.94L177.793 108.671L177.793 108.671L180.702 107.94ZM187.456 93.147L187.876 96.1174L191.812 95.5604L190.197 91.9283L187.456 93.147ZM182.651 64.7203L185.641 64.9711L185.641 64.971L182.651 64.7203ZM190.893 54.2598L190.401 57.2192L196.293 58.198L193.561 52.8874L190.893 54.2598ZM184.503 33.4183L181.524 33.7761L181.525 33.7775L184.503 33.4183ZM186.142 25.4161L188.271 27.5296L188.272 27.5287L186.142 25.4161ZM196.745 25.8861L198.371 23.365L198.371 23.365L196.745 25.8861ZM207.413 50.1298L204.456 49.6214L204.048 51.9975L206.28 52.9077L207.413 50.1298ZM212.468 61.646L209.528 61.0513L212.468 61.646ZM205.896 73.4599L203.528 71.6175L198.593 77.9593L206.477 76.4031L205.896 73.4599ZM214.938 78.5849L212.282 79.9806L212.283 79.9813L214.938 78.5849ZM216.959 89.4188L219.958 89.35L219.958 89.3496L216.959 89.4188ZM198.314 125.999L199.122 123.11C191.661 121.023 185.492 114.693 183.612 107.21L180.702 107.94L177.793 108.671C180.199 118.25 187.977 126.223 197.505 128.889L198.314 125.999ZM180.702 107.94L183.612 107.21C182.95 104.571 182.877 102.039 183.658 99.9486L180.847 98.8995L178.036 97.8504C176.676 101.496 176.965 105.373 177.793 108.671L180.702 107.94ZM180.847 98.8995L183.658 99.9486C184.44 97.8535 186.172 96.3586 187.876 96.1174L187.456 93.147L187.035 90.1766C182.659 90.796 179.395 94.2101 178.036 97.8504L180.847 98.8995ZM187.456 93.147L190.197 91.9283C186.455 83.5111 184.871 74.1436 185.641 64.9711L182.651 64.7203L179.662 64.4695C178.808 74.6488 180.563 85.0272 184.714 94.3658L187.456 93.147ZM182.651 64.7203L185.641 64.971C185.845 62.538 186.212 60.6069 187.135 59.143L184.598 57.5425L182.061 55.9421C180.311 58.7162 179.876 61.914 179.662 64.4697L182.651 64.7203ZM184.598 57.5425L187.135 59.143C188.056 57.6841 189.488 57.0675 190.401 57.2192L190.893 54.2598L191.385 51.3003C187.347 50.6294 183.814 53.1629 182.061 55.9421L184.598 57.5425ZM190.893 54.2598L193.561 52.8874C190.381 46.7071 188.313 39.9578 187.481 33.0591L184.503 33.4183L181.525 33.7775C182.442 41.3822 184.72 48.8177 188.225 55.6321L190.893 54.2598ZM184.503 33.4183L187.482 33.0605C187.325 31.7552 187.272 30.5618 187.419 29.5491C187.563 28.5574 187.868 27.9353 188.271 27.5296L186.142 25.4161L184.013 23.3026C182.425 24.9021 181.743 26.8804 181.481 28.6882C181.222 30.4749 181.345 32.28 181.524 33.7761L184.503 33.4183ZM186.142 25.4161L188.272 27.5287C188.786 27.0108 189.612 26.6988 190.939 26.8362C192.286 26.9757 193.818 27.5678 195.119 28.4072L196.745 25.8861L198.371 23.365C196.452 22.1271 194.03 21.1242 191.556 20.8681C189.061 20.6098 186.196 21.1015 184.012 23.3034L186.142 25.4161ZM196.745 25.8861L195.119 28.4071C201.98 32.833 205.836 41.5986 204.456 49.6214L207.413 50.1298L210.369 50.6381C212.158 40.238 207.248 29.0908 198.371 23.365L196.745 25.8861ZM207.413 50.1298L206.28 52.9077C207.475 53.395 208.46 54.4475 209.079 55.9834C209.703 57.5322 209.865 59.3835 209.528 61.0513L212.468 61.646L215.409 62.2407C215.973 59.4525 215.718 56.4062 214.644 53.7411C213.565 51.0632 211.571 48.5855 208.546 47.3518L207.413 50.1298ZM212.468 61.646L209.528 61.0513C208.789 64.7043 206.398 67.9296 203.528 71.6175L205.896 73.4599L208.263 75.3022C210.983 71.8066 214.345 67.4998 215.409 62.2407L212.468 61.646ZM205.896 73.4599L206.477 76.4031C208.376 76.0282 210.932 77.4111 212.282 79.9806L214.938 78.5849L217.594 77.1893C215.491 73.1895 210.713 69.4511 205.315 70.5167L205.896 73.4599ZM214.938 78.5849L212.283 79.9813C213.64 82.5627 213.873 85.7297 213.96 89.488L216.959 89.4188L219.958 89.3496C219.874 85.6933 219.688 81.1727 217.593 77.1886L214.938 78.5849ZM216.959 89.4188L213.96 89.4876C214.101 95.6595 213.971 101.596 212.498 107.172L215.398 107.939L218.299 108.705C220.001 102.261 220.102 95.608 219.958 89.35L216.959 89.4188ZM215.398 107.939L212.498 107.172C211.029 112.732 208.131 117.813 203.813 120.962L205.58 123.386L207.348 125.81C213.094 121.62 216.592 115.165 218.299 108.705L215.398 107.939Z" fill="#010101" mask="url(#path-14-inside-4_2495_26186)"/>
<mask id="path-16-inside-5_2495_26186" fill="white">
<path d="M182.836 95.7938C185.247 93.7999 188.831 94.1752 191.405 95.6555C194.356 97.3518 196.411 100.193 198.384 102.881C198.765 103.4 199.559 103.173 199.869 102.733C200.898 101.27 202.521 100.443 204.309 100.443C205.52 100.443 205.579 98.5649 204.362 98.5649C201.89 98.5649 199.687 99.723 198.268 101.738C198.763 101.688 199.259 101.639 199.753 101.59C197.457 98.4606 194.97 95.1361 191.31 93.5137C188.127 92.1016 184.3 92.1471 181.541 94.4292C180.608 95.2025 181.905 96.5634 182.836 95.7938Z"/>
</mask>
<path d="M182.836 95.7938C185.247 93.7999 188.831 94.1752 191.405 95.6555C194.356 97.3518 196.411 100.193 198.384 102.881C198.765 103.4 199.559 103.173 199.869 102.733C200.898 101.27 202.521 100.443 204.309 100.443C205.52 100.443 205.579 98.5649 204.362 98.5649C201.89 98.5649 199.687 99.723 198.268 101.738C198.763 101.688 199.259 101.639 199.753 101.59C197.457 98.4606 194.97 95.1361 191.31 93.5137C188.127 92.1016 184.3 92.1471 181.541 94.4292C180.608 95.2025 181.905 96.5634 182.836 95.7938Z" fill="#CADFF7"/>
<path d="M182.836 95.7938L184.747 98.1068L184.748 98.1056L182.836 95.7938ZM191.405 95.6555L189.91 98.2562L189.91 98.2563L191.405 95.6555ZM198.384 102.881L200.805 101.108L200.803 101.105L198.384 102.881ZM199.869 102.733L202.321 104.461L202.324 104.458L199.869 102.733ZM198.268 101.738L195.815 100.011L192.04 105.374L198.566 104.723L198.268 101.738ZM199.753 101.59L200.051 104.575L205.283 104.054L202.172 99.8149L199.753 101.59ZM191.31 93.5137L190.093 96.2559L190.094 96.2563L191.31 93.5137ZM181.541 94.4292L179.629 92.1176L179.628 92.1189L181.541 94.4292ZM182.836 95.7938L184.748 98.1056C185.834 97.2074 187.949 97.1287 189.91 98.2562L191.405 95.6555L192.9 93.0548C189.713 91.2217 184.66 90.3924 180.924 93.4821L182.836 95.7938ZM191.405 95.6555L189.91 98.2563C192.212 99.5797 193.906 101.85 195.966 104.656L198.384 102.881L200.803 101.105C198.916 98.5362 196.5 95.124 192.9 93.0546L191.405 95.6555ZM198.384 102.881L195.964 104.653C196.986 106.049 198.543 106.307 199.641 106.127C200.65 105.96 201.664 105.394 202.321 104.461L199.869 102.733L197.417 101.005C197.764 100.512 198.226 100.279 198.666 100.206C199.194 100.119 200.163 100.232 200.805 101.108L198.384 102.881ZM199.869 102.733L202.324 104.458C202.779 103.81 203.479 103.443 204.309 103.443V100.443V97.4432C201.564 97.4432 199.016 98.7293 197.415 101.008L199.869 102.733ZM204.309 100.443V103.443C205.458 103.443 206.507 102.967 207.239 102.145C207.921 101.379 208.219 100.443 208.244 99.5936C208.27 98.7469 208.029 97.7632 207.342 96.9384C206.598 96.0451 205.513 95.5649 204.362 95.5649V98.5649V101.565C203.819 101.565 203.183 101.319 202.732 100.778C202.338 100.306 202.236 99.7916 202.247 99.4144C202.258 99.0344 202.39 98.5682 202.759 98.1545C203.177 97.6848 203.764 97.4432 204.309 97.4432V100.443ZM204.362 98.5649V95.5649C200.904 95.5649 197.789 97.2066 195.815 100.011L198.268 101.738L200.722 103.465C201.584 102.239 202.877 101.565 204.362 101.565V98.5649ZM198.268 101.738L198.566 104.723C198.813 104.698 199.06 104.674 199.308 104.649C199.556 104.624 199.803 104.6 200.051 104.575L199.753 101.59L199.456 98.6047C199.209 98.6293 198.962 98.6539 198.714 98.6786C198.466 98.7032 198.218 98.7279 197.971 98.7525L198.268 101.738ZM199.753 101.59L202.172 99.8149C199.957 96.7972 197.033 92.7691 192.526 90.7711L191.31 93.5137L190.094 96.2563C192.907 97.5032 194.956 100.124 197.335 103.365L199.753 101.59ZM191.31 93.5137L192.527 90.7715C188.603 89.0309 183.492 88.9224 179.629 92.1176L181.541 94.4292L183.454 96.7408C185.108 95.3719 187.651 95.1724 190.093 96.2559L191.31 93.5137ZM181.541 94.4292L179.628 92.1189C178.739 92.8553 178.194 93.9385 178.22 95.1416C178.243 96.2437 178.736 97.1484 179.315 97.7572C180.446 98.9467 182.777 99.7337 184.747 98.1068L182.836 95.7938L180.926 93.4809C181.343 93.1357 181.925 92.9635 182.503 93.0399C183.014 93.1074 183.404 93.3496 183.664 93.6229C183.918 93.891 184.204 94.3586 184.218 95.0121C184.235 95.7666 183.877 96.3897 183.455 96.7394L181.541 94.4292Z" fill="#010101" mask="url(#path-16-inside-5_2495_26186)"/>
<mask id="path-18-inside-6_2495_26186" fill="white">
<path d="M205.902 71.3243C200.21 74.5901 197.495 81.4362 199.518 87.6947C199.886 88.8376 201.721 88.4016 201.348 87.2473C199.584 81.7887 201.805 75.8411 206.807 72.9734C207.855 72.3706 206.957 70.7197 205.902 71.3243Z"/>
</mask>
<path d="M205.902 71.3243C200.21 74.5901 197.495 81.4362 199.518 87.6947C199.886 88.8376 201.721 88.4016 201.348 87.2473C199.584 81.7887 201.805 75.8411 206.807 72.9734C207.855 72.3706 206.957 70.7197 205.902 71.3243Z" fill="#CADFF7"/>
<path d="M205.902 71.3243L204.41 68.7214L204.409 68.7222L205.902 71.3243ZM199.518 87.6947L202.373 86.7733L202.372 86.772L199.518 87.6947ZM201.348 87.2473L204.203 86.3257L204.203 86.3247L201.348 87.2473ZM206.807 72.9734L208.299 75.576L208.303 75.5737L206.807 72.9734ZM205.902 71.3243L204.409 68.7222C197.509 72.6809 194.196 80.9859 196.663 88.6174L199.518 87.6947L202.372 86.772C200.793 81.8864 202.91 76.4992 207.395 73.9265L205.902 71.3243ZM199.518 87.6947L196.663 88.6161C197.448 91.0501 199.84 91.6283 201.414 91.249C202.226 91.0533 203.136 90.5636 203.756 89.6458C204.436 88.6409 204.559 87.4272 204.203 86.3257L201.348 87.2473L198.494 88.169C198.324 87.6446 198.358 86.9183 198.787 86.2841C199.157 85.7369 199.654 85.5012 200.008 85.4159C200.37 85.3287 200.821 85.3362 201.281 85.551C201.801 85.794 202.203 86.2482 202.373 86.7733L199.518 87.6947ZM201.348 87.2473L204.203 86.3247C202.866 82.1865 204.553 77.7233 208.299 75.576L206.807 72.9734L205.315 70.3707C199.056 73.9588 196.303 81.3909 198.494 88.17L201.348 87.2473ZM206.807 72.9734L208.303 75.5737C209.302 74.9992 209.976 74.0586 210.196 72.9731C210.401 71.9631 210.183 71.0028 209.776 70.258C209.37 69.515 208.669 68.7918 207.668 68.4252C206.585 68.0285 205.409 68.149 204.41 68.7214L205.902 71.3243L207.393 73.9273C206.922 74.1973 206.255 74.2975 205.604 74.0592C205.035 73.8509 204.691 73.4647 204.51 73.1342C204.329 72.8019 204.204 72.3295 204.316 71.7797C204.443 71.1544 204.836 70.6462 205.311 70.373L206.807 72.9734Z" fill="#010101" mask="url(#path-18-inside-6_2495_26186)"/>
<mask id="path-20-inside-7_2495_26186" fill="white">
<path d="M187.103 54.9437C192.478 54.0605 197.788 57.3224 199.419 62.4949C199.78 63.6416 201.615 63.2056 201.25 62.0476C200.351 59.195 198.529 56.7026 196.027 55.0385C193.282 53.2133 189.89 52.5859 186.656 53.1185C185.46 53.3156 185.911 55.1389 187.103 54.9437Z"/>
</mask>
<path d="M187.103 54.9437C192.478 54.0605 197.788 57.3224 199.419 62.4949C199.78 63.6416 201.615 63.2056 201.25 62.0476C200.351 59.195 198.529 56.7026 196.027 55.0385C193.282 53.2133 189.89 52.5859 186.656 53.1185C185.46 53.3156 185.911 55.1389 187.103 54.9437Z" fill="#CADFF7"/>
<path d="M187.103 54.9437L187.588 57.9043L187.589 57.904L187.103 54.9437ZM199.419 62.4949L202.28 61.5935L202.28 61.5926L199.419 62.4949ZM201.25 62.0476L204.111 61.1457L204.111 61.1456L201.25 62.0476ZM196.027 55.0385L197.689 52.5406L197.688 52.5403L196.027 55.0385ZM186.656 53.1185L186.169 50.1584L186.168 50.1584L186.656 53.1185ZM187.103 54.9437L187.589 57.904C191.497 57.2619 195.377 59.6525 196.558 63.3972L199.419 62.4949L202.28 61.5926C200.199 54.9923 193.459 50.859 186.616 51.9834L187.103 54.9437ZM199.419 62.4949L196.558 63.3963C197.329 65.8454 199.729 66.433 201.31 66.052C202.124 65.8559 203.03 65.3661 203.65 64.4539C204.327 63.4568 204.459 62.249 204.111 61.1457L201.25 62.0476L198.389 62.9495C198.223 62.4252 198.262 61.7061 198.688 61.0807C199.055 60.5401 199.548 60.3047 199.904 60.219C200.267 60.1316 200.722 60.1386 201.188 60.3578C201.714 60.6059 202.115 61.0674 202.28 61.5935L199.419 62.4949ZM201.25 62.0476L204.111 61.1456C203.014 57.667 200.785 54.5996 197.689 52.5406L196.027 55.0385L194.366 57.5364C196.274 58.8056 197.687 60.7231 198.389 62.9496L201.25 62.0476ZM196.027 55.0385L197.688 52.5403C194.259 50.2604 190.088 49.513 186.169 50.1584L186.656 53.1185L187.144 56.0786C189.693 55.6588 192.305 56.1661 194.366 57.5368L196.027 55.0385ZM186.656 53.1185L186.168 50.1584C185.03 50.346 184.007 51.0074 183.424 52.0715C182.89 53.0448 182.87 54.0801 183.071 54.8948C183.462 56.4847 185.084 58.3144 187.588 57.9043L187.103 54.9437L186.618 51.9831C187.151 51.8959 187.733 52.0391 188.187 52.3876C188.59 52.6965 188.807 53.0949 188.897 53.4617C188.985 53.8203 189.003 54.375 188.684 54.9571C188.315 55.63 187.684 55.9896 187.144 56.0786L186.656 53.1185Z" fill="#010101" mask="url(#path-20-inside-7_2495_26186)"/>
<path d="M202.646 51.791L202.759 52.1445M202.646 51.791L202.56 51.8223C202.248 51.9496 201.996 52.224 201.936 52.5479C201.957 52.5758 201.978 52.6058 202.002 52.6328C202.291 52.9549 202.629 53.0542 202.75 53.085C202.9 53.1228 203.023 53.1284 203.082 53.1299L203.084 53.1289L202.874 52.1504C202.805 52.149 202.728 52.1569 202.648 52.1816C202.686 52.17 202.722 52.1566 202.759 52.1445M202.646 51.791L202.759 52.1445M202.646 51.791C202.693 51.7758 202.74 51.7586 202.787 51.7432L202.865 52.1094C202.83 52.1215 202.794 52.1329 202.759 52.1445M207.505 49.333L207.459 49.4131L207.752 49.6152C207.756 49.5907 207.759 49.5562 207.763 49.5137L207.505 49.333ZM207.505 49.333L207.763 49.5127C207.771 49.4229 207.778 49.297 207.757 49.1514C207.749 49.1 207.735 49.0355 207.714 48.9619L207.505 49.333ZM206.65 48.8564L206.957 49.0693C206.853 49.2144 206.745 49.3558 206.633 49.4932L206.423 49.3457L206.336 49.2793M206.65 48.8564C206.584 48.953 206.515 49.0478 206.444 49.1406C206.408 49.188 206.372 49.2338 206.336 49.2793M206.65 48.8564L206.958 49.0684C206.977 49.0423 206.997 49.0175 207.016 48.9912L207.504 49.332L207.714 48.9609C207.669 48.8044 207.587 48.6093 207.435 48.4229C207.131 48.4282 206.843 48.5798 206.65 48.8564ZM206.336 49.2793L206.395 49.3262L206.333 49.2822C206.334 49.2811 206.335 49.2803 206.336 49.2793ZM207.751 49.6221C207.733 49.7283 207.705 49.8151 207.686 49.8691C207.654 49.8838 207.619 49.8982 207.581 49.9072C207.431 49.9424 207.295 49.9108 207.207 49.8613L207.457 49.417L207.751 49.6221ZM207.456 49.416L207.205 49.8604C206.99 49.7381 206.92 49.5687 206.9 49.4834C206.883 49.4088 206.869 49.2536 206.964 49.0742L207.456 49.416ZM207.503 49.333L207.458 49.4121L206.965 49.0723C206.979 49.046 206.996 49.0193 207.015 48.9922L207.503 49.333Z" fill="#CADFF7" stroke="#010101" stroke-width="3"/>
</svg>
