<svg width="80" height="80" viewBox="0 0 80 80" fill="none" xmlns="http://www.w3.org/2000/svg">
<mask id="mask0_2492_26519" style="mask-type:alpha" maskUnits="userSpaceOnUse" x="0" y="0" width="80" height="80">
<circle cx="40" cy="40" r="40" fill="#C3DEF7"/>
</mask>
<g mask="url(#mask0_2492_26519)">
<circle cx="40" cy="40" r="40" fill="#FFE4C0"/>
<path d="M32.1509 34.1002C32.0407 33.2502 31.7217 32.4223 31.6517 31.5764C31.6238 31.2393 31.5004 30.856 31.2838 30.5597C31.795 28.927 31.7454 27.1175 31.1684 25.487C30.9142 24.7687 30.5692 23.7219 29.8329 23.3664C29.1362 23.03 28.2631 23.3961 27.7799 24.0007C27.3694 24.5141 27.1809 25.1516 27.0289 25.7801C26.8656 26.4551 27.0454 27.1198 27.0892 27.8133C27.1815 29.2725 27.0827 30.7431 26.8024 32.1778C26.6088 33.1692 26.3285 34.1439 25.9648 35.0862C25.6196 35.9803 25.2606 36.9113 24.7453 37.7164C24.7441 37.7181 24.7429 37.7199 24.7419 37.7216C24.5213 38.0659 24.7099 38.5244 25.1109 38.6032C25.8085 38.7404 26.5887 38.3901 27.0125 37.8226C27.1549 37.6317 27.281 37.4335 27.3942 37.2297C27.5036 37.9874 27.7828 38.7049 28.3368 39.3072C28.8868 39.9051 30.7654 41.1494 31.5094 40.242C31.653 40.0669 31.7189 39.8424 31.7768 39.6235C32.2503 37.8293 32.3896 35.9419 32.1509 34.1002Z" fill="#010101"/>
<path d="M27.5588 37.2462C27.5205 36.4653 27.5875 35.6841 27.7617 34.9218C27.8034 34.7395 27.5232 34.6617 27.4815 34.8444C27.3017 35.631 27.2286 36.4401 27.2683 37.2461C27.2773 37.4325 27.568 37.4335 27.5588 37.2462Z" fill="#010101"/>
<path d="M57.569 45.6446C57.4127 44.6791 56.9979 43.6114 56.2505 42.9458C55.7021 42.4577 54.6937 41.7562 53.9418 42.0303C53.5369 42.178 53.5188 42.4507 53.3168 42.7574C53.1349 43.0338 52.8069 43.2504 52.5637 43.4828C52.0156 44.0063 51.5026 44.5679 51.0419 45.17C50.129 46.3631 49.409 47.734 49.1352 49.2219C48.93 50.3368 48.9168 51.9635 49.6868 52.8691C50.8944 54.2892 52.85 54.2334 54.3038 53.3008C56.8379 51.6751 58.0449 48.5849 57.569 45.6446Z" fill="#010101"/>
<path d="M54.6732 43.496C55.6431 43.2789 56.5005 42.0779 55.9608 41.1012C55.743 40.7069 55.2712 40.4897 54.8218 40.5158C54.3725 40.5418 53.9535 40.7851 53.6514 41.1191C53.1893 41.6301 52.5451 42.8582 53.4124 43.333C53.7868 43.5379 54.2597 43.5885 54.6732 43.496Z" fill="#010101"/>
<path d="M40.4047 12.6485C46.0076 12.6366 50.184 14.6595 53.5949 18.143C57.0058 21.6265 59.1238 26.2301 60.2018 30.9864C60.7908 33.5853 61.0876 36.3187 59.8809 38.7812C58.5599 41.4767 55.8937 42.9511 52.9468 43.0573C51.494 43.1096 50.0336 42.8619 48.6596 42.3947C47.9894 42.167 47.3552 41.7875 46.6853 41.5971C45.8365 41.3558 44.9774 41.2553 44.14 40.9404C41.1549 39.8181 38.6297 37.6122 36.8589 34.9841C34.5414 31.5444 33.409 27.4309 32.8328 23.3227C32.5128 21.0405 31.9173 17.7344 33.4396 15.7547C35.0118 13.71 37.9444 12.6537 40.4047 12.6485Z" fill="#010101"/>
<path d="M53.419 42.8062C52.5841 42.4613 51.8992 41.7493 51.5659 40.9113C51.4688 40.667 51.4004 40.4128 51.3609 40.153C51.3491 40.0754 51.2514 40.0323 51.1821 40.0514C51.0991 40.0742 51.0687 40.1523 51.0806 40.2303C51.2303 41.2135 51.8053 42.1067 52.6091 42.6843C52.837 42.8481 53.0828 42.9795 53.3418 43.0865C53.4144 43.1164 53.5016 43.054 53.5205 42.9849C53.5434 42.9014 53.4918 42.8363 53.419 42.8062Z" fill="#010101"/>
<path d="M56.5524 42.1778C57.196 41.0411 57.6736 39.8106 57.9701 38.5385C58.2665 37.2661 58.3869 35.9504 58.3192 34.6455C58.2808 33.9062 58.1821 33.1697 58.0246 32.4462C57.9847 32.2634 57.7045 32.3407 57.7443 32.5236C58.017 33.7762 58.1032 35.0653 58.0112 36.3436C57.9196 37.6163 57.6477 38.8756 57.2083 40.0734C56.9603 40.7497 56.6561 41.4041 56.3013 42.031C56.209 42.194 56.46 42.3408 56.5524 42.1778Z" fill="#010101"/>
<path d="M18.6108 76.6956C17.734 75.2903 29.0773 62.8282 29.2107 61.2262C29.3089 60.0472 28.6712 58.3551 29.6416 57.3749C30.05 56.9625 31.216 56.7487 31.7618 56.5041C32.3955 56.22 33.0206 55.9167 33.6374 55.5979C34.5473 55.1274 35.481 54.6771 36.2989 54.0527C36.6486 53.7858 36.9862 53.2574 37.3542 53.0601C37.8075 52.8171 38.624 52.8406 39.132 52.7797C40.9783 52.558 42.8375 52.6823 44.6901 52.7228C45.6548 52.7439 46.6217 52.7452 47.5837 52.6601C48.3207 52.595 49.2819 52.1268 49.9908 52.4609C50.4575 52.6808 50.7499 53.0968 51.05 53.4972C51.416 53.9855 51.8159 54.2995 52.23 54.7155C53.098 55.5877 52.6801 57.5299 52.2874 58.5952C51.8456 59.7935 51.0984 60.8593 50.2472 61.8111C48.6165 63.6341 51.8978 67.3637 49.8158 68.6465C48.3328 69.5602 50.1584 78.9597 48.4979 79.4849C46.8374 80.0101 32.2059 85.3504 30.5164 84.9272C28.6754 84.4661 19.6158 78.3065 18.6108 76.6956Z" fill="#FDF7EC"/>
<path d="M25.2866 60.0362C26.7528 60.6334 28.2191 61.2307 29.6852 61.8279C30.3548 62.1006 31.0279 62.3665 31.6931 62.6497C32.267 62.8942 32.8351 63.159 33.3656 63.4892C33.9425 63.8483 34.4728 64.2921 34.8657 64.8512C34.9726 65.0032 35.2247 64.858 35.1167 64.7044C34.3815 63.6578 33.2498 63.0181 32.1034 62.5125C31.4473 62.2232 30.779 61.9613 30.1151 61.6909C29.3709 61.3878 28.6266 61.0845 27.8822 60.7814C27.0427 60.4394 26.2034 60.0976 25.3639 59.7557C25.2913 59.726 25.2042 59.7878 25.1852 59.8572C25.1623 59.9405 25.2137 60.0064 25.2866 60.0362Z" fill="#010101"/>
<path d="M38.7957 65.2495C40.3614 64.5821 42.0416 64.2385 43.7169 63.9818C45.4107 63.7223 47.1184 63.55 48.8009 63.2201C49.7413 63.0357 50.6727 62.8008 51.5755 62.4773C51.7504 62.4146 51.675 62.1334 51.4982 62.1967C49.8773 62.7772 48.1739 63.0678 46.4745 63.3065C44.7764 63.545 43.0671 63.7338 41.394 64.1206C40.456 64.3374 39.535 64.6205 38.6489 64.9984C38.5766 65.0292 38.5606 65.1357 38.5967 65.1973C38.6406 65.2721 38.7231 65.2804 38.7957 65.2495Z" fill="#010101"/>
<path d="M51.9864 53.998C54.047 55.5423 56.2343 56.8746 58.4823 58.1265C62.3067 60.2563 66.6093 62.478 69.7127 65.6415C72.3852 68.3658 73.4127 71.9649 73.8015 75.657C74.2369 79.7914 73.8901 83.9758 73.3036 88.0774L7.46875 85.4934C7.86959 82.6813 8.40021 79.8884 9.05379 77.1242C9.62787 74.6962 10.195 72.2638 11.1013 69.9337C11.8719 67.9529 13.1623 65.8904 14.7959 64.458C17.5078 62.0802 20.6398 60.6102 23.946 59.2762C25.6331 58.5955 27.2995 57.8638 28.9661 57.1346C29.9817 56.6903 30.9908 56.438 32.0237 56.0531C29.8891 64.5283 29.5392 73.4492 31.0031 82.0659C31.0031 81.6606 32.1183 80.6096 32.3799 80.2678C32.8806 79.6138 33.3813 78.96 33.8818 78.3061C34.8832 76.9984 35.8846 75.6905 36.8858 74.3827C38.8885 71.7671 40.8911 69.1517 42.8937 66.5361C44.8486 63.9828 46.9877 61.4925 48.7724 58.8176C49.2693 58.0728 49.6248 57.2448 50.1681 56.5306C50.7529 55.7623 51.8486 55.0038 51.9864 53.998Z" fill="#CADFF7"/>
<path d="M58.3967 69.3261C57.5659 70.6535 56.7982 72.02 56.0978 73.4207C55.3943 74.8274 54.7583 76.2681 54.1918 77.7354C53.8738 78.5591 53.5781 79.3915 53.3048 80.231C53.2466 80.4095 53.5273 80.4858 53.5851 80.3084C54.0678 78.826 54.6196 77.3661 55.2418 75.9366C55.8646 74.5058 56.5555 73.1049 57.3114 71.74C57.7365 70.9725 58.1823 70.2166 58.6478 69.473C58.7472 69.3137 58.4958 69.1676 58.3967 69.3261Z" fill="#010101"/>
<path d="M19.5961 72.4134C19.0969 73.9536 18.6902 75.5236 18.3808 77.1129C18.294 77.5588 18.215 78.0062 18.1432 78.4548C18.1308 78.5323 18.1631 78.6113 18.2446 78.6337C18.3138 78.6528 18.411 78.6101 18.4234 78.5322C18.679 76.9333 19.0306 75.35 19.4778 73.7939C19.6032 73.3572 19.7362 72.9229 19.8763 72.4908C19.9343 72.3122 19.6538 72.2358 19.5961 72.4134Z" fill="#010101"/>
<path d="M36.1809 53.7879C35.5665 54.9665 34.9778 56.1595 34.4694 57.3883C33.9662 58.6041 33.5427 59.8578 33.2798 61.1488C33.0189 62.4298 32.9169 63.7473 33.0516 65.0501C33.1086 65.6005 33.2109 66.1581 33.4696 66.6529C33.7312 67.153 34.1627 67.5272 34.7045 67.692C35.9373 68.0671 37.125 67.3925 38.1323 66.7518C39.1158 66.1262 40.0769 65.4651 41.009 64.7649C41.9443 64.0622 42.8514 63.3216 43.72 62.5377C44.5868 61.7557 45.4157 60.9311 46.1951 60.0616C46.9688 59.1985 47.694 58.2909 48.3578 57.3404C49.0193 56.3929 49.619 55.4017 50.1429 54.3714C50.2711 54.1193 50.3945 53.8649 50.5137 53.6083C50.5467 53.537 50.5337 53.4515 50.4615 53.4094C50.3986 53.3726 50.2958 53.39 50.2627 53.4616C49.7835 54.4937 49.2293 55.4901 48.6107 56.445C47.9967 57.3925 47.3205 58.2985 46.5932 59.1616C45.8577 60.0346 45.0717 60.8643 44.2465 61.6527C43.4208 62.4416 42.5558 63.1889 41.6608 63.898C40.7633 64.6089 39.8343 65.2799 38.8825 65.9161C38.3952 66.2417 37.9049 66.5673 37.3984 66.8624C36.8779 67.1656 36.3099 67.4376 35.7023 67.4941C35.1686 67.5437 34.5897 67.4433 34.1722 67.0854C33.7726 66.743 33.5677 66.2452 33.4529 65.7429C33.3206 65.1637 33.2873 64.5579 33.2827 63.9653C33.2776 63.3301 33.3228 62.6939 33.4138 62.0653C33.5985 60.7893 33.9562 59.5435 34.4064 58.3373C34.8613 57.1189 35.4125 55.9387 35.9986 54.7786C36.1412 54.4963 36.2861 54.2153 36.4322 53.9348C36.5183 53.769 36.2676 53.6218 36.1809 53.7879Z" fill="#FDF7EC"/>
<path d="M36.2899 53.5473C35.4269 55.5211 34.8873 57.6265 34.6954 59.7724C34.6476 60.3074 34.6217 60.8443 34.618 61.3814C34.6148 61.8489 34.6194 62.3192 34.6747 62.784C34.7683 63.5703 35.0035 64.4274 35.6549 64.937C36.4454 65.5558 37.4863 65.3945 38.3589 65.0557C38.8137 64.8793 39.2522 64.6589 39.6837 64.4326C40.1165 64.2056 40.5413 63.9636 40.958 63.708C42.6304 62.6823 44.1663 61.4448 45.5954 60.1036C47.0323 58.7549 48.3648 57.2992 49.6525 55.8085C49.81 55.6261 49.9668 55.4433 50.1232 55.26C50.244 55.1183 50.0394 54.9117 49.9177 55.0544C48.663 56.5256 47.3736 57.9699 45.9906 59.3224C44.6264 60.6565 43.1699 61.9025 41.5819 62.9633C40.786 63.4949 39.9585 63.9797 39.1004 64.404C38.6694 64.6172 38.2313 64.8195 37.7664 64.9478C37.3345 65.0668 36.8705 65.125 36.4316 65.0079C35.6257 64.7928 35.2205 64.0435 35.0502 63.2815C34.9624 62.8891 34.9284 62.4877 34.9165 62.0864C34.9009 61.5607 34.907 61.0343 34.9342 60.5091C35.042 58.4211 35.4885 56.3518 36.2476 54.4038C36.3406 54.1652 36.4384 53.9287 36.5409 53.6941C36.5723 53.6223 36.562 53.538 36.4887 53.4951C36.4271 53.4591 36.3214 53.4751 36.2899 53.5473Z" fill="#FDF7EC"/>
<path d="M28.7182 61.7037C28.738 61.7353 28.757 61.767 28.7755 61.7987C29.9687 63.8583 29.9497 66.8989 28.0914 68.5603C26.4581 70.0206 23.5914 70.1815 22.0411 68.5051C21.731 68.1697 21.5668 67.6552 21.7682 67.245C21.9624 66.8496 22.4144 66.6701 22.8106 66.4777C24.0179 65.8915 25.0015 64.8732 25.5804 63.6648C25.9785 62.8336 26.4296 60.9501 27.6452 60.9356C28.1062 60.9302 28.469 61.3059 28.7182 61.7037Z" fill="#010101"/>
<path d="M32.831 58.0473C32.4546 58.8952 31.9135 59.6733 31.293 60.2958C30.3149 61.2772 28.6619 62.4561 27.2342 61.7182C26.2299 61.1991 25.9026 59.6887 25.8231 58.662C25.7133 57.242 25.9368 55.7546 26.7079 54.5347C27.6568 53.0338 30.0357 51.7079 31.7478 52.7018C32.5544 53.17 33.241 54.0836 33.3522 55.0233C33.4722 56.0377 33.2571 57.0872 32.831 58.0473Z" fill="#010101"/>
<path d="M29.1894 47.4957C28.9499 49.1109 28.7384 51.0262 29.8766 52.3574C30.6671 53.2819 31.9947 53.7956 33.1925 53.4949C34.1382 53.2576 34.9959 52.7419 35.7467 52.1194C36.182 51.7587 36.5848 51.3611 36.9728 50.9503C37.2593 50.6469 37.6662 50.3502 37.9022 50.0132C38.2028 49.5841 38.3111 48.8807 38.4042 48.3753C38.5119 47.7913 38.5543 47.1951 38.5288 46.6018C38.4741 45.3336 38.0983 44.0601 37.3342 43.0467C36.5702 42.0334 35.3978 41.3038 34.1332 41.2042C30.7743 40.9395 29.5827 44.843 29.1894 47.4957Z" fill="#010101"/>
<path d="M26.9825 61.3575C27.2184 61.1203 27.5831 61.0785 27.8908 61.184C28.232 61.3009 28.4879 61.5888 28.6631 61.8935C28.7564 62.0557 29.0077 61.9093 28.9141 61.7466C28.6958 61.3668 28.3691 61.0302 27.9429 60.8951C27.5443 60.7687 27.0764 60.8506 26.7769 61.1517C26.6449 61.2846 26.8504 61.4904 26.9825 61.3575Z" fill="#010101"/>
<path d="M23.7489 66.0909C24.6385 65.6959 25.4351 65.0975 26.0632 64.3537C26.1832 64.2116 25.9786 64.0047 25.8577 64.148C25.2431 64.8757 24.4724 65.4534 23.6021 65.8397C23.5303 65.8716 23.5134 65.9763 23.5499 66.0387C23.5932 66.1126 23.6768 66.1228 23.7489 66.0909Z" fill="#010101"/>
<path d="M30.1972 52.6067C31.0578 52.4202 31.9541 52.8013 32.42 53.5474C32.519 53.7058 32.7706 53.56 32.671 53.4007C32.1337 52.5402 31.1105 52.1116 30.1201 52.3262C29.9372 52.3657 30.0145 52.6462 30.1972 52.6067Z" fill="#010101"/>
<path d="M36.7993 52.4155C36.8836 50.8853 36.8735 49.3494 36.7659 47.8207L48.6734 39.5985L49.7925 38.8262C48.9728 44.4216 48.9815 50.1377 49.8157 55.7317L36.0625 57.9586C36.4491 56.1332 36.6963 54.2787 36.7993 52.4155Z" fill="#FDF7EC"/>
<path d="M49.173 41.0478C48.8359 42.6419 48.1387 44.1927 47.4502 45.6623C46.7833 47.086 45.9391 48.4389 44.8437 49.5731C42.7262 51.7655 39.8171 52.7531 36.799 52.4146C36.8833 50.8845 36.8732 49.3486 36.7656 47.8199L48.6731 39.5977C49.0524 39.9962 49.2937 40.4776 49.173 41.0478Z" fill="#010101"/>
<path d="M51.6954 61.1236C52.636 60.1074 53.5935 58.8069 53.6848 57.3745C53.7704 56.0338 53.3424 54.772 52.0497 54.1575C50.9991 53.658 49.7219 53.7744 48.6819 54.2958C47.5998 54.8382 46.621 55.8213 46.1255 56.9228C45.1954 58.9909 45.1169 62.7835 48.0986 63.0463C49.6063 63.1793 50.7493 62.1458 51.6954 61.1236Z" fill="#010101"/>
<path d="M52.3466 52.1416C51.916 51.8235 51.2226 51.6302 50.754 51.9858C50.2164 52.3938 49.7429 54.0063 50.4224 54.4701C50.8606 54.7693 51.6137 55.0337 52.151 54.8903C52.5997 54.7704 53.0379 54.1357 53.1259 53.6951C53.2374 53.1378 52.7707 52.455 52.3466 52.1416Z" fill="#010101"/>
<path d="M51.0497 45.1699C50.1368 46.363 49.4168 47.7339 49.143 49.2218C48.9378 50.3367 48.9246 51.9634 49.6946 52.869C50.9022 54.2891 52.8578 54.2333 54.3116 53.3007L51.0497 45.1699Z" fill="#010101"/>
<path d="M43.6162 64.3293C41.6886 66.4944 40.5614 69.6979 42.8611 71.8109C43.9082 72.773 45.8118 73.1791 47.118 72.4866C47.2765 72.4026 47.4127 72.2564 47.4379 72.0786C47.4578 71.9381 47.4073 71.7982 47.3578 71.6651C47.1066 70.9907 46.7657 70.2053 46.8982 69.4735C46.9745 69.0517 47.1572 68.658 47.3291 68.2654C47.7874 67.2191 48.1809 66.1443 48.5072 65.0494C48.8504 63.8976 48.8505 61.9404 47.2014 62.0578C46.7602 62.0892 46.3408 62.2607 45.9473 62.4626C45.1491 62.8716 44.3281 63.5296 43.6162 64.3293Z" fill="#010101"/>
<path d="M46.5144 62.2703C46.8956 62.1055 47.3523 62.1047 47.7322 62.2737C48.0746 62.426 48.3461 62.6987 48.5081 63.0353C48.5892 63.2038 48.84 63.0565 48.7592 62.8884C48.5669 62.4891 48.2274 62.1678 47.819 61.9968C47.352 61.8011 46.8294 61.8196 46.3676 62.0193C46.2955 62.0504 46.2793 62.1563 46.3155 62.2183C46.3591 62.2926 46.442 62.3016 46.5144 62.2703Z" fill="#010101"/>
<path d="M47.1965 70.7895C46.7641 69.67 46.6717 68.4353 46.9433 67.2654C46.9856 67.0833 46.7054 67.0055 46.6631 67.1881C46.3803 68.4059 46.4656 69.7 46.9163 70.8669C46.9447 70.9402 47.014 70.9908 47.0951 70.9684C47.1648 70.9492 47.2249 70.8633 47.1965 70.7895Z" fill="#010101"/>
<path d="M50.3388 39.1516C51.5385 36.4359 52.3159 33.5425 52.57 30.6255C52.8788 27.0783 52.2917 23.2735 50.0213 20.5318C48.4591 18.6452 46.2179 17.4121 43.8737 16.7052C41.5604 16.0076 39.0519 15.7915 36.7282 16.4537C30.9825 18.0912 28.5523 24.0751 28.9966 29.6029C29.0732 30.5556 29.2133 31.5169 29.3585 32.4613C29.4958 33.3543 29.4025 34.2189 29.3431 35.124C29.2276 36.8816 29.2671 38.659 29.6124 40.3906C29.9625 42.1469 30.6979 43.5075 31.5226 45.0394C33.2756 48.2965 36.2393 52.3434 40.4653 50.7305C41.7555 50.2382 42.8532 49.347 43.8554 48.3965C46.5681 45.8237 48.8005 42.6337 50.3388 39.1516Z" fill="#FDF7EC"/>
<path d="M43.5294 26.9369C44.0442 27.0179 44.525 27.174 44.861 27.3595C45.2574 27.5784 45.7129 28.0149 45.7296 28.5001C45.7524 29.1617 45.0538 29.3265 44.5308 29.3236C43.9523 29.3203 43.3737 29.2976 42.7965 29.2554C42.3317 29.2215 41.718 29.2616 41.3128 28.9926C40.8685 28.697 40.7414 27.8144 41.1301 27.4163C41.6542 26.8798 42.6425 26.7973 43.5294 26.9369Z" fill="#010101"/>
<path d="M32.7526 27.274C33.2586 27.36 33.6901 27.5771 33.7986 28.0373C33.8895 28.4241 33.6929 28.9488 33.4049 29.204C33.0376 29.5292 32.5945 29.4679 32.1468 29.4854C31.5755 29.5077 31.0027 29.51 30.4309 29.5199C29.7314 29.5319 29.2591 29.2287 29.502 28.4457C29.6934 27.8282 30.4423 27.4616 31.0252 27.3397C31.4149 27.2583 32.1385 27.1697 32.7526 27.274Z" fill="#010101"/>
<path d="M37.3798 39.5674C37.4139 39.5659 37.448 39.5658 37.482 39.5674C37.499 39.5682 37.516 39.5696 37.5329 39.5712C37.5413 39.572 37.5497 39.573 37.5583 39.5741C37.5445 39.5725 37.5429 39.5717 37.5576 39.5742C37.627 39.5861 37.6951 39.6032 37.7612 39.6276C37.7692 39.6305 37.7771 39.634 37.7851 39.6367C37.8061 39.6439 37.7654 39.6276 37.7858 39.6367C37.8013 39.6437 37.8169 39.6507 37.8321 39.6583C37.8627 39.6734 37.8926 39.6898 37.9215 39.7077C37.9361 39.7167 37.9503 39.7259 37.9644 39.7357C37.9714 39.7405 37.9783 39.7454 37.9853 39.7503C37.9875 39.7519 38.0089 39.7677 37.9962 39.7581C37.9836 39.7486 38.0045 39.7647 38.0065 39.7665C38.0131 39.7719 38.0196 39.7774 38.0262 39.7829C38.0407 39.7954 38.0548 39.8084 38.0686 39.8216C38.1237 39.8741 38.22 39.8805 38.2741 39.8216C38.3263 39.7647 38.333 39.6719 38.2741 39.6159C38.0359 39.3893 37.7092 39.2622 37.3798 39.2765C37.304 39.2797 37.2309 39.3411 37.2345 39.4219C37.2378 39.4978 37.2985 39.5709 37.3798 39.5674Z" fill="#010101"/>
<path d="M35.9629 33.211C35.7214 34.1603 35.5041 35.1158 35.3123 36.0763C35.2216 36.5305 35.1271 36.9839 35.036 37.4379C34.9931 37.6515 34.959 37.8717 34.9713 38.0902C34.9841 38.3156 35.0544 38.5132 35.146 38.7175C35.35 39.1729 35.6153 39.5957 35.9272 39.9845C35.9763 40.0458 36.0815 40.0359 36.1327 39.9845C36.1932 39.924 36.182 39.8402 36.1327 39.7789C35.8669 39.4477 35.6409 39.0842 35.4575 38.7014C35.3716 38.5219 35.283 38.3375 35.2655 38.1366C35.2476 37.9331 35.2737 37.7305 35.313 37.5311C35.3542 37.3218 35.408 37.1152 35.4477 36.9057C35.4919 36.6724 35.5358 36.4389 35.5821 36.206C35.6724 35.7518 35.7682 35.2987 35.8696 34.847C35.9866 34.3257 36.1113 33.806 36.2431 33.2882C36.2894 33.1068 36.0092 33.0293 35.9629 33.211Z" fill="#010101"/>
<path d="M34.5305 43.2375C35.7779 43.643 37.1121 43.7357 38.4047 43.5179C38.4822 43.5048 38.5255 43.4091 38.5062 43.339C38.4837 43.2568 38.405 43.2244 38.3274 43.2375C37.0867 43.4465 35.8037 43.3457 34.6077 42.9571C34.4295 42.899 34.3531 43.1798 34.5305 43.2375Z" fill="#010101"/>
<path d="M35.0849 44.9177C35.812 45.3576 36.7118 45.4764 37.5282 45.2406C37.7075 45.1889 37.6312 44.908 37.451 44.9601C36.7066 45.175 35.8947 45.0676 35.2317 44.6664C35.0711 44.5694 34.9248 44.8209 35.0849 44.9177Z" fill="#010101"/>
<path d="M46.4027 33.3889C46.3581 33.463 46.2591 33.4811 46.19 33.4291C45.8307 33.1598 44.6161 32.3841 42.59 32.4235C41.3289 32.4479 40.4894 32.9377 40.0226 33.3215C39.898 33.4239 39.7233 33.2776 39.8001 33.1358C40.014 32.7409 40.5824 32.2526 41.3502 31.9383C42.8476 31.3251 44.9768 31.7985 45.9493 32.3623C46.6443 32.765 46.5267 33.183 46.4027 33.3889Z" fill="#010101"/>
<path d="M35.1194 33.1744C35.1734 33.2958 35.0311 33.4109 34.924 33.3323C34.3479 32.9094 32.8825 32.0076 31.2788 32.3808C29.9769 32.6838 29.5867 33.1018 29.4737 33.2875C29.441 33.3414 29.3733 33.3614 29.3185 33.3304C29.1158 33.2158 28.7665 32.9114 29.4483 32.3908C30.3405 31.7096 31.9141 31.1765 33.6958 32.0166C34.6392 32.4612 34.9916 32.8871 35.1194 33.1744Z" fill="#010101"/>
<path d="M33.5443 33.619C33.5844 33.1748 33.5086 32.7214 33.2747 32.336C33.1011 32.0502 32.8234 31.8189 32.4724 31.8391C32.259 31.8513 31.9975 32.08 31.8635 32.239C31.6979 32.4358 31.5946 32.6848 31.5594 32.9389C31.4877 33.4549 31.6054 34.0302 31.9133 34.46C32.1391 34.7752 32.583 35.0569 32.9728 34.861C33.2207 34.7363 33.3489 34.4421 33.4284 34.1912C33.4868 34.0065 33.5267 33.8136 33.5443 33.619Z" fill="#010101"/>
<path d="M44.2534 34.2095C44.6058 33.3549 44.4602 31.4491 43.0943 31.7631C42.3197 31.9411 42.2681 33.0983 42.3476 33.7198C42.3922 34.0692 42.5307 34.4188 42.7954 34.651C43.0599 34.8831 43.4645 34.9718 43.7756 34.8073C44.0057 34.6856 44.1541 34.4503 44.2534 34.2095Z" fill="#010101"/>
<path d="M30.8897 36.9082C30.5796 36.9149 30.6285 37.367 30.801 37.5158C31.1453 37.8129 31.3415 37.2661 31.0841 37.0016C31.0327 36.9485 30.9637 36.9066 30.8897 36.9082Z" fill="#FDF7EC"/>
<path d="M31.602 39.2768C31.8886 39.297 31.9602 38.8688 31.667 38.8268C31.5437 38.8092 31.4542 38.8838 31.4171 38.9772C31.3673 39.1033 31.4133 39.2636 31.602 39.2768Z" fill="#FDF7EC"/>
<path d="M33.1667 37.203C33.3829 37.5385 33.9165 36.7394 33.4674 36.6943C33.2489 36.6725 33.0517 37.0246 33.1667 37.203Z" fill="#FDF7EC"/>
<path d="M33.5195 38.1154C33.7724 38.2648 33.852 37.8587 33.632 37.7942C33.4186 37.7316 33.3445 38.012 33.5195 38.1154Z" fill="#FDF7EC"/>
<path d="M39.6847 36.0005C39.3853 36.107 39.4738 36.75 39.7786 36.589C39.9967 36.4739 40.0716 35.863 39.6847 36.0005Z" fill="#FDF7EC"/>
<path d="M40.8171 37.4214C40.5579 37.4531 40.6034 37.8288 40.7616 37.9456C41.0756 38.1775 41.3426 37.8261 41.0851 37.5507C41.0147 37.4755 40.9194 37.409 40.8171 37.4214Z" fill="#FDF7EC"/>
<path d="M43.6927 37.1322C43.8631 37.1372 44.4295 37.0269 44.2836 36.7453C44.2289 36.6397 44.0967 36.5937 43.9784 36.6052C43.8252 36.6202 43.3889 36.7219 43.4068 36.9356C43.4175 37.0619 43.5659 37.1284 43.6927 37.1322Z" fill="#FDF7EC"/>
<path d="M45.5564 36.2655C45.9099 36.4975 46.31 36.0515 45.8747 35.8072C45.5131 35.6043 45.1977 36.03 45.5564 36.2655Z" fill="#FDF7EC"/>
<path d="M42.8802 38.6825C42.7325 38.8177 42.8756 39.1451 43.1167 39.0882C43.3903 39.0236 43.2735 38.5989 43.0109 38.6284C42.9537 38.6348 42.9107 38.6545 42.8802 38.6825Z" fill="#FDF7EC"/>
<path d="M41.4081 27.3076C41.3761 27.4226 41.4742 27.5311 41.5914 27.5082C42.4185 27.3464 43.2829 27.0929 43.7253 26.393C43.9582 26.0246 44.0362 25.5811 44.0871 25.1482C44.3737 22.7128 44.216 19.0522 41.8223 17.6561C40.9542 17.1498 40.2484 17.6441 40.6592 18.5466C41.0723 19.4543 41.3876 20.3826 41.5863 21.3626C41.9836 23.3215 41.9455 25.3792 41.4081 27.3076Z" fill="#010101"/>
<path d="M41.4414 18.5984C39.5379 21.4996 38.8838 25.099 40.3665 28.8018C40.3973 28.8786 40.343 28.9623 40.2603 28.9634C39.9491 28.9675 39.2785 28.9621 38.8065 28.859C38.6295 28.8203 38.4718 28.7233 38.3593 28.581C37.8506 27.937 36.4108 25.677 37.4406 21.7375C38.6767 17.0098 41.4414 18.5984 41.4414 18.5984Z" fill="#010101"/>
<path d="M38.5929 26.9547C38.6299 25.4992 38.667 24.0439 38.7042 22.5884C38.7203 21.9561 38.6602 21.2668 38.8273 20.6612C38.9909 20.0682 39.2325 19.4865 39.3467 18.8813C39.4674 18.2423 39.3637 17.4901 38.8421 17.1023C38.5263 16.8674 38.1057 16.8084 37.7166 16.8665C37.3275 16.9249 36.9629 17.0898 36.6128 17.2696C35.9181 17.6262 35.2497 18.054 34.715 18.6233C33.2693 20.1624 33.3815 22.5527 33.764 24.4904C34.0298 25.8374 34.6018 27.1498 35.5587 28.1338C35.7222 28.3019 35.9086 28.4665 36.1386 28.5127C36.3047 28.546 36.4499 28.4929 36.5834 28.3988C36.8064 28.2415 36.6844 28.2033 37.0142 28.2075C37.3764 28.212 37.9625 28.1887 38.2685 27.9644C38.5622 27.749 38.5844 27.2846 38.5929 26.9547Z" fill="#010101"/>
<path d="M36.9223 14.502C33.5601 14.5018 30.237 16.1569 28.2098 18.8413C26.2401 21.4496 25.5384 24.9708 26.3421 28.1378C26.3867 28.3138 26.5482 28.4351 26.7296 28.4319C27.0082 28.4268 27.4801 28.3778 28.1757 28.1788C28.2104 28.2534 28.244 28.3135 28.2745 28.3605C28.3423 28.4651 28.47 28.5122 28.5905 28.4811C29.567 28.2281 31.0086 27.5548 31.0086 27.5548C31.7168 27.6206 32.4394 27.524 33.1059 27.2757C33.2033 27.2394 33.2559 27.1342 33.2298 27.0336C33.0417 26.312 32.3844 23.5329 33.0083 22.0938C33.7293 20.431 35.027 20.96 35.027 20.96C35.027 20.96 35.032 20.1409 34.7541 19.3344C37.5771 18.857 41.9844 18.8977 41.9844 18.8977L47.052 19.0842L36.9223 14.502Z" fill="#010101"/>
<path d="M53.044 23.056C51.6288 20.3446 49.3541 18.0908 46.6308 16.7017C44.9609 15.8498 43.127 15.3256 41.2615 15.1507C40.3602 15.0662 39.4437 15.176 38.553 15.0752C37.9827 15.0106 37.1167 15.2983 37.2773 16.0879C37.3425 16.4084 37.6296 16.6443 37.9376 16.7538C38.2454 16.8633 38.5784 16.8719 38.9037 16.9032C39.9626 17.0051 40.9738 17.3613 41.8967 17.8911C41.8631 18.2205 41.9104 18.5757 41.9842 18.8982C42.2374 20.0043 42.6877 21.0646 43.304 22.0169C43.6027 22.4782 43.962 22.8548 44.156 23.3624C44.3805 23.95 44.5831 24.5356 44.869 25.0985C45.4403 26.2234 46.2478 27.2622 47.2966 27.9778C47.6663 28.23 48.2161 28.6581 48.6922 28.6675C49.0419 29.6116 49.4061 30.5496 49.8279 31.4637C50.0796 32.0092 50.3588 32.556 50.7852 32.9789C51.2119 33.4019 51.8138 33.6877 52.4079 33.6004C53.4075 33.4535 53.9752 32.3781 54.2261 31.3986C54.9382 28.616 54.3732 25.6022 53.044 23.056Z" fill="#010101"/>
<path d="M44.4075 23.1248C44.3591 21.9647 44.1059 20.8177 43.6553 19.7476C43.625 19.6753 43.5593 19.6232 43.4766 19.6461C43.4084 19.6648 43.3443 19.7521 43.3751 19.825C43.8156 20.8713 44.0694 21.9901 44.1168 23.1248C44.1246 23.3112 44.4153 23.3122 44.4075 23.1248Z" fill="#010101"/>
<path d="M37.9885 27.8892C37.2657 26.4418 37.0238 24.7575 37.2955 23.1631C37.3727 22.7101 37.4909 22.2647 37.6476 21.8327C37.7115 21.6564 37.4307 21.5805 37.3672 21.7553C36.7947 23.3339 36.7494 25.0938 37.2159 26.7054C37.3486 27.1637 37.5243 27.6094 37.7375 28.0361C37.8211 28.2035 38.0719 28.0565 37.9885 27.8892Z" fill="#010101"/>
<path d="M33.7439 21.2483C33.766 20.6001 34.0067 19.9654 34.4247 19.469C34.5444 19.3267 34.3399 19.1199 34.2192 19.2633C33.7497 19.8208 33.4781 20.519 33.4532 21.2483C33.4468 21.4355 33.7375 21.4353 33.7439 21.2483Z" fill="#010101"/>
<path d="M31.0655 27.3522C30.6145 25.7104 30.5407 23.9676 30.854 22.2935C30.9431 21.8182 31.063 21.3493 31.2117 20.8892C31.2694 20.7107 30.9889 20.6342 30.9315 20.8118C30.3924 22.4785 30.2458 24.2601 30.4882 25.994C30.5559 26.4785 30.6555 26.9579 30.7851 27.4296C30.8347 27.6098 31.1152 27.5332 31.0655 27.3522Z" fill="#010101"/>
<path d="M28.7451 28.2449C28.6323 28.2946 28.4342 28.3864 28.3367 28.2622C28.2905 28.2033 28.2755 28.116 28.2558 28.0455C28.2296 27.9518 28.2055 27.8576 28.1834 27.7629C28.0968 27.3905 28.0448 27.0122 28.0253 26.6304C28.0158 26.4441 27.725 26.4429 27.7346 26.6304C27.7589 27.106 27.8305 27.5798 27.953 28.04C28.0045 28.2333 28.0549 28.4641 28.2517 28.5608C28.4665 28.6664 28.6883 28.5857 28.8919 28.4958C28.9637 28.4641 28.9804 28.3591 28.9441 28.2968C28.9006 28.2229 28.8172 28.213 28.7451 28.2449Z" fill="#010101"/>
<path d="M27.2002 28.5393C27.5025 28.5062 27.7994 28.4436 28.0874 28.3456C28.1592 28.3212 28.2142 28.2445 28.1889 28.1667C28.1658 28.0953 28.0872 28.0389 28.0101 28.0652C27.7479 28.1543 27.4545 28.2205 27.2002 28.2484C27.1249 28.2567 27.051 28.3094 27.0548 28.3939C27.058 28.4656 27.1192 28.5482 27.2002 28.5393Z" fill="#010101"/>
<path d="M53.1475 32.562C53.4094 32.4992 53.6868 32.4641 53.9805 32.4611C54.8579 32.4519 55.6823 32.9978 56.0602 33.7832C56.3559 34.3978 56.3929 35.1184 56.2386 35.783C56.0842 36.4475 55.7481 37.0596 55.3333 37.6008C54.2276 39.0431 51.49 40.923 49.8743 39.1705C49.4005 38.6567 49.2264 38.064 49.4041 37.3788C49.9185 35.3961 51.0303 33.07 53.1475 32.562Z" fill="#FDF7EC"/>
<path d="M51.5782 40.6715C52.0788 40.6715 52.4845 40.2654 52.4845 39.7644C52.4845 39.2635 52.0788 38.8574 51.5782 38.8574C51.0777 38.8574 50.6719 39.2635 50.6719 39.7644C50.6719 40.2654 51.0777 40.6715 51.5782 40.6715Z" fill="#FDF7EC"/>
<path d="M50.6683 36.7481C51.3755 35.8569 52.3154 35.1526 53.3746 34.7356C53.6753 34.6172 53.9845 34.5218 54.2993 34.4489C54.4814 34.4068 54.4043 34.1262 54.2219 34.1684C53.0739 34.4344 52.0032 35.0085 51.1396 35.8101C50.8956 36.0365 50.6698 36.2816 50.4628 36.5424C50.414 36.6038 50.4028 36.6881 50.4628 36.7481C50.5134 36.7987 50.6192 36.8099 50.6683 36.7481Z" fill="#010101"/>
<path d="M52.0379 35.3791C52.2722 35.5134 52.4428 35.7367 52.5066 36C52.5764 36.2885 52.5046 36.6164 52.3828 36.8823C52.1618 37.3652 51.7416 37.75 51.2076 37.8363C51.13 37.8488 51.0868 37.9454 51.1062 38.0152C51.1288 38.0978 51.2072 38.1294 51.2849 38.1167C51.7732 38.0379 52.1902 37.7259 52.4667 37.3239C52.7608 36.8961 52.9389 36.2836 52.7424 35.782C52.6345 35.5065 52.442 35.2753 52.1846 35.1277C52.0219 35.0348 51.8754 35.286 52.0379 35.3791Z" fill="#010101"/>
<path d="M50.8174 23.4865C50.6821 23.2908 50.5297 23.0966 50.3205 22.9833C50.2602 22.9506 50.1938 22.9273 50.1256 22.9128C50.0902 22.8364 50.0573 22.7589 50.0204 22.6831C49.582 21.7836 49.0439 20.7216 48.1381 20.2168C47.6069 19.9209 46.9506 19.822 46.3799 20.0315C44.1689 20.8437 46.1352 23.6343 46.5365 25.0488C47.1126 27.0797 47.3934 29.1797 47.6074 31.2755C47.8754 33.8997 47.0164 36.6372 45.2724 38.6172C45.0753 38.841 45.2855 39.1921 45.573 39.1132C45.5751 39.1126 45.5773 39.112 45.5795 39.1113C45.9731 38.9974 46.3565 38.8483 46.7249 38.669C46.9792 38.545 47.226 38.4059 47.4646 38.2537C47.3545 38.583 47.2389 38.9107 47.1151 39.2364C47.0421 39.4284 47.2542 39.6001 47.4286 39.4918C48.9019 38.5767 50.0612 37.1813 50.8311 35.6202C51.6916 33.875 52.0898 31.9293 52.2138 29.987C52.3575 27.7326 52.1019 25.3441 50.8174 23.4865Z" fill="#010101"/>
<path d="M47.6584 38.2595C48.4053 37.7648 49.0454 37.1256 49.5413 36.3791C49.6452 36.2228 49.3935 36.077 49.2903 36.2324C48.8229 36.9359 48.2157 37.5421 47.5117 38.0085C47.3565 38.1111 47.5018 38.3632 47.6584 38.2595Z" fill="#010101"/>
<path d="M51.8734 33.0793C52.0844 31.8558 52.1537 30.6064 52.1174 29.3661C52.0792 28.0626 51.9264 26.7485 51.5816 25.4886C51.4054 24.8449 51.1752 24.2123 50.863 23.6215C50.7755 23.456 50.5245 23.6027 50.612 23.7682C51.1723 24.8291 51.4644 26.0231 51.6406 27.2033C51.8301 28.4725 51.8753 29.7669 51.8064 31.0475C51.7712 31.7022 51.7045 32.3557 51.593 33.0019C51.5796 33.0793 51.6137 33.1586 51.6945 33.1808C51.7647 33.2002 51.86 33.1573 51.8734 33.0793Z" fill="#010101"/>
<path d="M47.3254 27.8196C47.2622 27.1081 47.169 26.397 47.0026 25.7016C46.8532 25.0779 46.6404 24.4737 46.3871 23.8852C46.2293 23.5187 46.0563 23.1588 45.8773 22.8022C45.7931 22.6349 45.5424 22.7821 45.6263 22.9491C45.9247 23.5428 46.2057 24.1463 46.4261 24.7739C46.6338 25.3654 46.7836 25.9746 46.8852 26.593C46.9519 26.9997 46.9983 27.4093 47.0347 27.8198C47.0417 27.898 47.0965 27.9652 47.1801 27.9652C47.2533 27.9651 47.3324 27.8983 47.3254 27.8196Z" fill="#010101"/>
<path d="M36.6003 53.6747C36.5312 54.4989 36.3862 55.3145 36.1698 56.1125C36.1208 56.2935 36.4012 56.3706 36.4501 56.1899C36.6732 55.3668 36.8199 54.5245 36.8911 53.6747C36.9065 53.4881 36.6158 53.4892 36.6003 53.6747Z" fill="#010101"/>
</g>
</svg>
