<svg width="575" height="187" viewBox="0 0 575 187" fill="none" xmlns="http://www.w3.org/2000/svg">
<path d="M2 182.944C2 183.099 2.96765 181.393 7.54567 175.737C16.459 164.724 41.8778 148.992 73.098 131.272C105.471 112.897 124.088 117.299 133.814 120.236C143.564 123.18 147.215 140.289 149.03 151.885C150.635 162.136 144.909 170.648 140.104 177.295C134.402 185.182 126.148 185.24 117.575 184.896C115.35 184.807 113.576 182.711 112.224 180.87C109.599 177.295 109.088 170.278 109.15 162.627C109.245 151.006 118.707 142.4 139.389 124.886C146.391 118.956 155.318 114.754 196.862 103.355C238.405 91.9557 312.68 74.2302 371.273 62.4123C429.866 50.5944 470.526 45.2213 496.162 40.7035C531.423 34.4897 547.052 25.1511 557.737 18.0256C564.767 12.4868 569.011 7.93516 573 2" stroke="#010101" stroke-width="3" stroke-linecap="round" stroke-dasharray="6 6"/>
</svg>
