<svg width="466" height="227" viewBox="0 0 466 227" fill="none" xmlns="http://www.w3.org/2000/svg">
<path d="M115.903 0C115.903 0 38.4925 9.1085 55.3468 42.0221C72.2011 74.9356 185.967 50.0786 162.09 82.9808C138.214 115.883 -34.5422 126.119 6.1887 174.745C46.9196 223.369 154.8 237.445 217.434 219.532C280.068 201.617 292.71 159.392 364.34 160.67C435.97 161.949 466 182.601 466 182.601C466 182.601 430.866 5.9413 422.883 7.16982C414.901 8.39833 361.766 21.8664 361.766 21.8664L115.903 0Z" fill="#CADFF7"/>
<rect x="81" y="141" width="145" height="49" rx="24.5" fill="#FFE4C0"/>
<path d="M101.16 156.2C104.26 156.2 106.67 157.06 108.39 158.78C110.13 160.48 111 162.92 111 166.1C111 169.28 110.13 171.73 108.39 173.45C106.67 175.15 104.26 176 101.16 176H94.1703V156.2H101.16ZM101.16 173.27C103.26 173.27 104.86 172.65 105.96 171.41C107.08 170.15 107.64 168.38 107.64 166.1C107.64 163.82 107.08 162.06 105.96 160.82C104.86 159.56 103.26 158.93 101.16 158.93H97.3803V173.27H101.16ZM119.612 176.3C118.112 176.3 116.792 175.99 115.652 175.37C114.512 174.75 113.622 173.86 112.982 172.7C112.362 171.52 112.052 170.12 112.052 168.5C112.052 166.88 112.362 165.49 112.982 164.33C113.622 163.15 114.502 162.25 115.622 161.63C116.742 161.01 118.012 160.7 119.432 160.7C120.892 160.7 122.132 161 123.152 161.6C124.172 162.2 124.952 163.02 125.492 164.06C126.032 165.1 126.302 166.28 126.302 167.6C126.302 167.96 126.292 168.3 126.272 168.62C126.252 168.94 126.222 169.22 126.182 169.46H114.122V167H124.772L123.182 167.48C123.182 166.12 122.842 165.08 122.162 164.36C121.482 163.62 120.552 163.25 119.372 163.25C118.512 163.25 117.762 163.45 117.122 163.85C116.482 164.25 115.992 164.85 115.652 165.65C115.312 166.43 115.142 167.39 115.142 168.53C115.142 169.65 115.322 170.6 115.682 171.38C116.042 172.16 116.552 172.75 117.212 173.15C117.872 173.55 118.652 173.75 119.552 173.75C120.552 173.75 121.362 173.56 121.982 173.18C122.602 172.8 123.092 172.27 123.452 171.59L126.002 172.79C125.642 173.51 125.152 174.14 124.532 174.68C123.932 175.2 123.212 175.6 122.372 175.88C121.532 176.16 120.612 176.3 119.612 176.3ZM133.756 176.3C132.256 176.3 130.886 176.01 129.646 175.43C128.406 174.85 127.426 174.03 126.706 172.97L128.926 171.05C129.366 171.87 129.996 172.53 130.816 173.03C131.656 173.51 132.656 173.75 133.816 173.75C134.736 173.75 135.466 173.59 136.006 173.27C136.546 172.95 136.816 172.5 136.816 171.92C136.816 171.54 136.686 171.21 136.426 170.93C136.186 170.63 135.716 170.4 135.016 170.24L131.866 169.58C130.266 169.26 129.126 168.75 128.446 168.05C127.766 167.33 127.426 166.42 127.426 165.32C127.426 164.5 127.666 163.74 128.146 163.04C128.626 162.34 129.326 161.78 130.246 161.36C131.186 160.92 132.306 160.7 133.606 160.7C135.106 160.7 136.386 160.97 137.446 161.51C138.506 162.03 139.316 162.78 139.876 163.76L137.656 165.62C137.276 164.82 136.716 164.23 135.976 163.85C135.236 163.45 134.466 163.25 133.666 163.25C133.026 163.25 132.476 163.33 132.016 163.49C131.556 163.65 131.206 163.87 130.966 164.15C130.726 164.43 130.606 164.76 130.606 165.14C130.606 165.54 130.756 165.89 131.056 166.19C131.356 166.49 131.896 166.72 132.676 166.88L136.096 167.6C137.536 167.88 138.546 168.36 139.126 169.04C139.726 169.7 140.026 170.51 140.026 171.47C140.026 172.43 139.776 173.28 139.276 174.02C138.776 174.74 138.056 175.3 137.116 175.7C136.176 176.1 135.056 176.3 133.756 176.3ZM143.255 158.48C142.555 158.48 142.015 158.31 141.635 157.97C141.275 157.61 141.095 157.11 141.095 156.47C141.095 155.83 141.275 155.34 141.635 155C142.015 154.66 142.555 154.49 143.255 154.49C143.935 154.49 144.455 154.66 144.815 155C145.195 155.34 145.385 155.83 145.385 156.47C145.385 157.11 145.195 157.61 144.815 157.97C144.455 158.31 143.935 158.48 143.255 158.48ZM144.845 161V176H141.635V161H144.845ZM160.767 157.85L161.277 160.37C161.217 160.37 161.157 160.37 161.097 160.37C161.037 160.35 160.977 160.34 160.917 160.34C159.957 160.34 159.227 160.55 158.727 160.97C158.227 161.37 157.977 161.96 157.977 162.74L156.417 162.02C156.417 161.22 156.587 160.51 156.927 159.89C157.267 159.25 157.747 158.75 158.367 158.39C159.007 158.03 159.727 157.85 160.527 157.85C160.567 157.85 160.607 157.85 160.647 157.85C160.687 157.85 160.727 157.85 160.767 157.85ZM156.027 173.66C157.547 173.66 158.727 174 159.567 174.68C160.407 175.34 160.827 176.26 160.827 177.44C160.827 178.48 160.497 179.37 159.837 180.11C159.177 180.87 158.277 181.45 157.137 181.85C156.017 182.25 154.727 182.45 153.267 182.45C150.807 182.45 148.987 182.07 147.807 181.31C146.627 180.55 146.037 179.6 146.037 178.46C146.037 177.66 146.317 176.96 146.877 176.36C147.457 175.76 148.427 175.42 149.787 175.34L149.607 175.82C148.767 175.64 148.087 175.32 147.567 174.86C147.067 174.38 146.817 173.71 146.817 172.85C146.817 171.99 147.147 171.26 147.807 170.66C148.467 170.06 149.397 169.71 150.597 169.61L152.277 170.42H151.917C150.997 170.5 150.347 170.71 149.967 171.05C149.587 171.39 149.397 171.77 149.397 172.19C149.397 172.69 149.577 173.06 149.937 173.3C150.317 173.54 150.847 173.66 151.527 173.66H156.027ZM153.267 180.05C154.367 180.05 155.267 179.94 155.967 179.72C156.687 179.52 157.217 179.25 157.557 178.91C157.917 178.59 158.097 178.23 158.097 177.83C158.097 177.37 157.907 177 157.527 176.72C157.167 176.44 156.507 176.3 155.547 176.3H150.717C150.157 176.3 149.687 176.44 149.307 176.72C148.927 177.02 148.737 177.42 148.737 177.92C148.737 178.58 149.137 179.1 149.937 179.48C150.737 179.86 151.847 180.05 153.267 180.05ZM153.147 160.7C154.467 160.7 155.607 160.91 156.567 161.33C157.547 161.75 158.297 162.34 158.817 163.1C159.357 163.86 159.627 164.75 159.627 165.77C159.627 166.79 159.357 167.68 158.817 168.44C158.297 169.2 157.547 169.79 156.567 170.21C155.607 170.63 154.467 170.84 153.147 170.84C151.067 170.84 149.467 170.38 148.347 169.46C147.247 168.52 146.697 167.29 146.697 165.77C146.697 164.75 146.967 163.86 147.507 163.1C148.047 162.34 148.797 161.75 149.757 161.33C150.737 160.91 151.867 160.7 153.147 160.7ZM153.147 162.95C152.227 162.95 151.457 163.21 150.837 163.73C150.237 164.23 149.937 164.91 149.937 165.77C149.937 166.63 150.237 167.32 150.837 167.84C151.457 168.36 152.227 168.62 153.147 168.62C154.087 168.62 154.857 168.36 155.457 167.84C156.077 167.32 156.387 166.63 156.387 165.77C156.387 164.91 156.077 164.23 155.457 163.73C154.857 163.21 154.087 162.95 153.147 162.95ZM161.468 176V161H164.318L164.528 164.9L164.108 164.48C164.388 163.62 164.788 162.91 165.308 162.35C165.848 161.77 166.478 161.35 167.198 161.09C167.938 160.83 168.718 160.7 169.538 160.7C170.598 160.7 171.548 160.91 172.388 161.33C173.248 161.73 173.928 162.34 174.428 163.16C174.928 163.98 175.178 165.02 175.178 166.28V176H171.968V167.27C171.968 165.79 171.658 164.77 171.038 164.21C170.438 163.63 169.678 163.34 168.758 163.34C168.098 163.34 167.458 163.5 166.838 163.82C166.218 164.12 165.698 164.61 165.278 165.29C164.878 165.97 164.678 166.88 164.678 168.02V176H161.468ZM184.343 176.3C182.843 176.3 181.523 175.99 180.383 175.37C179.243 174.75 178.353 173.86 177.713 172.7C177.093 171.52 176.783 170.12 176.783 168.5C176.783 166.88 177.093 165.49 177.713 164.33C178.353 163.15 179.233 162.25 180.353 161.63C181.473 161.01 182.743 160.7 184.163 160.7C185.623 160.7 186.863 161 187.883 161.6C188.903 162.2 189.683 163.02 190.223 164.06C190.763 165.1 191.033 166.28 191.033 167.6C191.033 167.96 191.023 168.3 191.003 168.62C190.983 168.94 190.953 169.22 190.913 169.46H178.853V167H189.503L187.913 167.48C187.913 166.12 187.573 165.08 186.893 164.36C186.213 163.62 185.283 163.25 184.103 163.25C183.243 163.25 182.493 163.45 181.853 163.85C181.213 164.25 180.723 164.85 180.383 165.65C180.043 166.43 179.873 167.39 179.873 168.53C179.873 169.65 180.053 170.6 180.413 171.38C180.773 172.16 181.283 172.75 181.943 173.15C182.603 173.55 183.383 173.75 184.283 173.75C185.283 173.75 186.093 173.56 186.713 173.18C187.333 172.8 187.823 172.27 188.183 171.59L190.733 172.79C190.373 173.51 189.883 174.14 189.263 174.68C188.663 175.2 187.943 175.6 187.103 175.88C186.263 176.16 185.343 176.3 184.343 176.3ZM192.786 176V161H195.516L195.816 163.7C196.216 162.72 196.806 161.98 197.586 161.48C198.386 160.96 199.366 160.7 200.526 160.7C200.826 160.7 201.126 160.73 201.426 160.79C201.726 160.83 201.976 160.9 202.176 161L201.726 163.82C201.506 163.74 201.256 163.68 200.976 163.64C200.716 163.58 200.356 163.55 199.896 163.55C199.276 163.55 198.666 163.72 198.066 164.06C197.466 164.38 196.966 164.87 196.566 165.53C196.186 166.19 195.996 167.03 195.996 168.05V176H192.786ZM208.081 176.3C206.581 176.3 205.211 176.01 203.971 175.43C202.731 174.85 201.751 174.03 201.031 172.97L203.251 171.05C203.691 171.87 204.321 172.53 205.141 173.03C205.981 173.51 206.981 173.75 208.141 173.75C209.061 173.75 209.791 173.59 210.331 173.27C210.871 172.95 211.141 172.5 211.141 171.92C211.141 171.54 211.011 171.21 210.751 170.93C210.511 170.63 210.041 170.4 209.341 170.24L206.191 169.58C204.591 169.26 203.451 168.75 202.771 168.05C202.091 167.33 201.751 166.42 201.751 165.32C201.751 164.5 201.991 163.74 202.471 163.04C202.951 162.34 203.651 161.78 204.571 161.36C205.511 160.92 206.631 160.7 207.931 160.7C209.431 160.7 210.711 160.97 211.771 161.51C212.831 162.03 213.641 162.78 214.201 163.76L211.981 165.62C211.601 164.82 211.041 164.23 210.301 163.85C209.561 163.45 208.791 163.25 207.991 163.25C207.351 163.25 206.801 163.33 206.341 163.49C205.881 163.65 205.531 163.87 205.291 164.15C205.051 164.43 204.931 164.76 204.931 165.14C204.931 165.54 205.081 165.89 205.381 166.19C205.681 166.49 206.221 166.72 207.001 166.88L210.421 167.6C211.861 167.88 212.871 168.36 213.451 169.04C214.051 169.7 214.351 170.51 214.351 171.47C214.351 172.43 214.101 173.28 213.601 174.02C213.101 174.74 212.381 175.3 211.441 175.7C210.501 176.1 209.381 176.3 208.081 176.3Z" fill="#010101"/>
<path d="M426.189 90.5L425.323 93.0137C425.323 93.0137 425.322 93.0155 425.321 93.0186C425.319 93.0248 425.315 93.0373 425.308 93.0557C425.293 93.0929 425.269 93.1543 425.235 93.2354C425.167 93.3978 425.059 93.6404 424.905 93.9355C424.597 94.529 424.117 95.3194 423.434 96.1055C422.08 97.6628 419.966 99.1777 416.745 99.1875L416.416 99.1836C413.044 99.1062 410.723 97.6984 409.215 96.2871C408.43 95.5524 407.866 94.8164 407.502 94.2686C407.32 93.9956 407.19 93.7719 407.108 93.623C407.068 93.5488 407.038 93.4934 407.021 93.46C407.013 93.4435 407.008 93.432 407.006 93.4268L407.004 93.4238L406.178 91.6426L404.677 92.915C404.677 92.9152 404.676 92.9161 404.675 92.917C404.672 92.919 404.668 92.9226 404.662 92.9277C404.649 92.9387 404.627 92.9567 404.598 92.9805C404.539 93.0281 404.448 93.1004 404.33 93.1914C404.093 93.3737 403.746 93.6313 403.314 93.9209C402.444 94.5056 401.268 95.1977 399.997 95.6885C398.71 96.1852 397.447 96.4276 396.348 96.2568C395.386 96.1074 394.443 95.6286 393.63 94.4668L393.469 94.2256L393.335 93.9961C392.703 92.8149 392.632 91.1221 393.142 88.9639C393.675 86.7022 394.783 84.2066 396.078 81.8398C397.366 79.4855 398.803 77.3239 399.944 75.7432C400.514 74.9535 401.005 74.3171 401.359 73.8809C401.538 73.6609 401.674 73.5025 401.763 73.4043C401.769 73.397 401.775 73.3898 401.78 73.3838C401.847 73.334 401.961 73.2427 402.07 73.1016C402.191 72.945 402.452 72.5382 402.368 71.9668C402.281 71.3716 401.89 71.0457 401.691 70.9189C401.495 70.7936 401.317 70.7453 401.246 70.7275C401.092 70.689 400.966 70.6847 400.936 70.6836C400.848 70.6803 400.777 70.6854 400.761 70.6865C400.685 70.6917 400.581 70.7045 400.536 70.71C400.396 70.7269 400.188 70.7517 399.924 70.7734C399.389 70.8174 398.647 70.8458 397.863 70.7656C396.312 70.6068 395.061 70.0888 394.488 68.9639L394.383 68.7305L394.326 68.5645C394.078 67.7003 394.35 66.3035 395.431 64.3389C396.528 62.3434 398.24 60.1587 400.085 58.0996C401.919 56.0523 403.834 54.1839 405.296 52.8242C406.025 52.1457 406.639 51.5962 407.068 51.2178C407.283 51.0287 407.452 50.8825 407.566 50.7842C407.624 50.735 407.668 50.6974 407.696 50.6729C407.71 50.661 407.721 50.6523 407.728 50.6465C407.731 50.6436 407.734 50.6409 407.735 50.6396L407.737 50.6387L405.931 48.4229C405.845 48.313 405.843 48.3119 405.844 48.3115L405.846 48.3105C405.847 48.3096 405.848 48.3085 405.85 48.3076C405.852 48.3058 405.854 48.3043 405.856 48.3027C405.86 48.2996 405.864 48.2964 405.867 48.2939C405.874 48.2888 405.88 48.2849 405.884 48.2822C405.886 48.2804 405.888 48.2791 405.89 48.2783C405.882 48.2832 405.853 48.2997 405.807 48.3193C405.715 48.3583 405.559 48.4073 405.346 48.4072C404.978 48.4071 404.097 48.2577 402.837 46.8438C402.839 46.8406 402.722 46.6444 402.771 45.9834C402.821 45.2927 403.033 44.3644 403.409 43.2256C404.158 40.9599 405.457 38.1503 406.934 35.2842C408.404 32.4307 410.02 29.5761 411.379 27.2334C412.716 24.9285 413.847 23.0444 414.278 22.2432C415.501 19.9686 416.258 19.1434 416.683 18.8232C417.069 18.5318 417.019 18.6562 417.67 18.4668C417.786 18.6816 417.947 19.0521 418.171 19.6807C418.763 21.3448 419.581 24.1125 421.33 27.4844C423.088 30.8727 425.52 34.117 427.708 36.8789C429.963 39.725 431.847 41.932 432.763 43.4766C433.015 43.9021 432.959 44.12 432.882 44.29C432.757 44.5647 432.443 44.9119 431.905 45.2793C431.391 45.6308 430.801 45.9135 430.318 46.1123C430.082 46.2097 429.881 46.2832 429.742 46.3311C429.673 46.3549 429.62 46.372 429.586 46.3828C429.569 46.3881 429.558 46.3915 429.551 46.3936C429.548 46.3944 429.546 46.3952 429.545 46.3955H429.546L427.378 47.041L428.817 48.7871L428.818 48.7881C428.819 48.7889 428.82 48.7903 428.821 48.792C428.824 48.7953 428.829 48.8 428.834 48.8066C428.845 48.8203 428.863 48.8412 428.885 48.8682C428.929 48.9221 428.995 49.0025 429.08 49.1064C429.251 49.3146 429.5 49.6186 429.812 50.002C430.437 50.769 431.316 51.8529 432.329 53.1182C434.358 55.6516 436.92 58.903 439.07 61.7969C440.786 64.1064 441.123 65.5069 441.061 66.2617C441.009 66.8762 440.662 67.3317 439.906 67.7158C439.111 68.1194 438.061 68.3232 437.119 68.4072C436.664 68.4478 436.267 68.4578 435.986 68.4561C435.941 68.4558 435.899 68.4529 435.861 68.4521L431.752 66.2314L434.121 70.6406V70.6416L434.122 70.6426C434.123 70.6439 434.124 70.6459 434.125 70.6484C434.128 70.6536 434.132 70.6616 434.138 70.6719C434.149 70.6926 434.166 70.7233 434.188 70.7637C434.231 70.8443 434.294 70.9631 434.376 71.1152C434.539 71.4198 434.774 71.8592 435.061 72.3945C435.634 73.4653 436.414 74.9236 437.238 76.4736C438.894 79.5857 440.713 83.0325 441.425 84.4805C442.038 85.7277 442.764 87.8315 442.604 89.9316C442.454 91.9102 441.524 93.9883 438.577 95.4678C435.72 96.9024 433.136 96.2516 431.139 95.1436C430.135 94.5866 429.312 93.927 428.737 93.4023C428.452 93.1417 428.232 92.9194 428.088 92.7656C428.016 92.6889 427.963 92.6292 427.93 92.5918C427.913 92.5732 427.902 92.56 427.896 92.5527C427.892 92.5492 427.891 92.5465 427.891 92.5459L426.189 90.5ZM400.23 70.834C400.247 70.8259 400.26 70.8204 400.267 70.8174C400.336 70.7865 400.391 70.7695 400.396 70.7676C400.337 70.7872 400.281 70.8104 400.23 70.834ZM406.77 49.4922C406.735 49.4483 406.702 49.4059 406.67 49.3652L406.77 49.4922Z" fill="#FFE4C0" stroke="#010101" stroke-width="3"/>
<mask id="path-5-inside-1_2495_26214" fill="white">
<path d="M398.63 73.7952C402.588 73.4079 406.113 71.811 408.93 68.9932C408.269 68.6077 407.605 68.2242 406.944 67.8387C406.233 72.054 409.365 75.8839 413.734 75.7699C418.389 75.6484 421.49 71.3629 420.954 66.9216C420.216 67.121 419.479 67.3203 418.739 67.5197C420.631 70.4989 423.425 73.2218 427.197 73.2199C430.457 73.218 433.263 70.7515 433.219 67.4286C432.482 67.628 431.744 67.8273 431.005 68.0267C433.242 71.7047 438.04 71.4217 441.492 69.8571C442.884 69.2267 441.677 67.1817 440.293 67.8083C438.071 68.8147 434.556 69.2932 433.056 66.8286C432.455 65.8393 430.826 66.2286 430.841 67.4286C430.879 70.2369 427.999 71.2793 425.644 70.6109C423.471 69.9938 421.95 68.1482 420.79 66.3216C420.216 65.4197 418.426 65.6722 418.576 66.9197C418.918 69.7641 417.58 72.6388 414.58 73.2901C411.629 73.93 408.711 71.5622 409.232 68.4672C409.419 67.3602 408.149 66.4108 407.246 67.3128C404.894 69.6654 401.944 71.0951 398.627 71.4198C397.121 71.5698 397.106 73.9452 398.63 73.7952Z"/>
</mask>
<path d="M398.63 73.7952C402.588 73.4079 406.113 71.811 408.93 68.9932C408.269 68.6077 407.605 68.2242 406.944 67.8387C406.233 72.054 409.365 75.8839 413.734 75.7699C418.389 75.6484 421.49 71.3629 420.954 66.9216C420.216 67.121 419.479 67.3203 418.739 67.5197C420.631 70.4989 423.425 73.2218 427.197 73.2199C430.457 73.218 433.263 70.7515 433.219 67.4286C432.482 67.628 431.744 67.8273 431.005 68.0267C433.242 71.7047 438.04 71.4217 441.492 69.8571C442.884 69.2267 441.677 67.1817 440.293 67.8083C438.071 68.8147 434.556 69.2932 433.056 66.8286C432.455 65.8393 430.826 66.2286 430.841 67.4286C430.879 70.2369 427.999 71.2793 425.644 70.6109C423.471 69.9938 421.95 68.1482 420.79 66.3216C420.216 65.4197 418.426 65.6722 418.576 66.9197C418.918 69.7641 417.58 72.6388 414.58 73.2901C411.629 73.93 408.711 71.5622 409.232 68.4672C409.419 67.3602 408.149 66.4108 407.246 67.3128C404.894 69.6654 401.944 71.0951 398.627 71.4198C397.121 71.5698 397.106 73.9452 398.63 73.7952Z" fill="#CADFF7"/>
<path d="M398.63 73.7952L398.338 70.8095L398.337 70.8096L398.63 73.7952ZM408.93 68.9932L411.052 71.1143L413.804 68.3611L410.44 66.4011L408.93 68.9932ZM406.944 67.8387L408.454 65.2466L404.707 63.0633L403.985 67.3398L406.944 67.8387ZM413.734 75.7699L413.812 78.7689L413.812 78.7689L413.734 75.7699ZM420.954 66.9216L423.932 66.5621L423.517 63.1212L420.171 64.0256L420.954 66.9216ZM418.739 67.5197L417.958 64.6231L414.021 65.6848L416.207 69.1277L418.739 67.5197ZM427.197 73.2199L427.198 76.2199L427.199 76.2199L427.197 73.2199ZM433.219 67.4286L436.219 67.3891L436.168 63.5238L432.436 64.5325L433.219 67.4286ZM431.005 68.0267L430.224 65.1301L426.364 66.1707L428.442 69.5859L431.005 68.0267ZM441.492 69.8571L440.254 67.1245L440.254 67.1247L441.492 69.8571ZM440.293 67.8083L439.055 65.0754L439.055 65.0755L440.293 67.8083ZM433.056 66.8286L430.491 68.3857L430.493 68.3882L433.056 66.8286ZM430.841 67.4286L427.841 67.4666L427.841 67.4692L430.841 67.4286ZM425.644 70.6109L424.824 73.4968L424.825 73.497L425.644 70.6109ZM420.79 66.3216L423.323 64.7137L423.321 64.7107L420.79 66.3216ZM418.576 66.9197L421.554 66.5614L421.554 66.5611L418.576 66.9197ZM414.58 73.2901L415.216 76.222L415.216 76.2218L414.58 73.2901ZM409.232 68.4672L412.191 68.9651L412.191 68.9651L409.232 68.4672ZM407.246 67.3128L405.126 65.1902L405.124 65.1919L407.246 67.3128ZM398.627 71.4198L398.334 68.4341L398.329 68.4346L398.627 71.4198ZM398.63 73.7952L398.923 76.781C403.538 76.3293 407.719 74.4472 411.052 71.1143L408.93 68.9932L406.809 66.872C404.506 69.1747 401.639 70.4865 398.338 70.8095L398.63 73.7952ZM408.93 68.9932L410.44 66.4011C410.107 66.2068 409.774 66.0133 409.443 65.8213C409.111 65.6288 408.782 65.4379 408.454 65.2466L406.944 67.8387L405.433 70.4308C405.767 70.6251 406.1 70.8186 406.431 71.0106C406.763 71.2031 407.092 71.394 407.42 71.5853L408.93 68.9932ZM406.944 67.8387L403.985 67.3398C402.975 73.3291 407.468 78.9344 413.812 78.7689L413.734 75.7699L413.656 72.771C411.262 72.8334 409.49 70.779 409.902 68.3377L406.944 67.8387ZM413.734 75.7699L413.812 78.7689C420.504 78.5942 424.647 72.4802 423.932 66.5621L420.954 66.9216L417.976 67.2811C418.333 70.2456 416.275 72.7026 413.656 72.771L413.734 75.7699ZM420.954 66.9216L420.171 64.0256C419.434 64.2249 418.697 64.424 417.958 64.6231L418.739 67.5197L419.52 70.4163C420.261 70.2166 420.999 70.0171 421.737 69.8177L420.954 66.9216ZM418.739 67.5197L416.207 69.1277C418.263 72.3665 421.843 76.2226 427.198 76.2199L427.197 73.2199L427.195 70.2199C425.008 70.221 422.999 68.6313 421.272 65.9117L418.739 67.5197ZM427.197 73.2199L427.199 76.2199C431.897 76.2172 436.288 72.6079 436.219 67.3891L433.219 67.4286L430.219 67.4681C430.238 68.8951 429.017 70.2188 427.195 70.2199L427.197 73.2199ZM433.219 67.4286L432.436 64.5325C431.699 64.732 430.962 64.9311 430.224 65.1301L431.005 68.0267L431.785 70.9233C432.526 70.7236 433.265 70.524 434.002 70.3247L433.219 67.4286ZM431.005 68.0267L428.442 69.5859C430.148 72.3911 432.852 73.6255 435.491 73.8926C438.046 74.1513 440.642 73.536 442.731 72.5896L441.492 69.8571L440.254 67.1247C438.89 67.7428 437.362 68.0514 436.095 67.9231C434.912 67.8034 434.098 67.3403 433.568 66.4675L431.005 68.0267ZM441.492 69.8571L442.73 72.5898C443.854 72.0807 444.727 71.1136 445.013 69.8416C445.275 68.6807 444.972 67.6109 444.52 66.841C443.641 65.3466 441.476 63.9794 439.055 65.0754L440.293 67.8083L441.53 70.5413C441.11 70.7317 440.598 70.7403 440.154 70.5641C439.766 70.4102 439.505 70.1502 439.347 69.8817C439.195 69.6235 439.02 69.144 439.16 68.5242C439.324 67.7934 439.826 67.3184 440.254 67.1245L441.492 69.8571ZM440.293 67.8083L439.055 65.0755C438.259 65.4359 437.3 65.6586 436.543 65.6233C435.838 65.5905 435.688 65.3833 435.618 65.269L433.056 66.8286L430.493 68.3882C431.923 70.7384 434.281 71.5244 436.264 71.6168C438.194 71.7068 440.104 71.1871 441.53 70.5412L440.293 67.8083ZM433.056 66.8286L435.62 65.2715C434.517 63.4553 432.5 63.0084 430.97 63.4023C429.389 63.809 427.813 65.2506 427.841 67.4666L430.841 67.4286L433.841 67.3906C433.846 67.8118 433.694 68.2622 433.39 68.6229C433.109 68.9564 432.767 69.1352 432.465 69.2129C431.896 69.3594 430.994 69.2125 430.491 68.3857L433.056 66.8286ZM430.841 67.4286L427.841 67.4692C427.844 67.6354 427.808 67.6537 427.832 67.6143C427.85 67.5868 427.846 67.6149 427.749 67.6652C427.646 67.7194 427.467 67.7802 427.218 67.8C426.971 67.8196 426.707 67.7942 426.463 67.7249L425.644 70.6109L424.825 73.497C426.64 74.0122 428.753 73.9114 430.53 72.9819C432.453 71.9761 433.876 70.0204 433.841 67.388L430.841 67.4286ZM425.644 70.6109L426.463 67.7251C425.429 67.4314 424.422 66.4447 423.323 64.7137L420.79 66.3216L418.258 67.9295C419.478 69.8517 421.513 72.5563 424.824 73.4968L425.644 70.6109ZM420.79 66.3216L423.321 64.7107C422.189 62.9314 420.164 62.5878 418.788 62.8801C418.027 63.0417 417.154 63.4439 416.483 64.2412C415.762 65.0971 415.466 66.1878 415.597 67.2783L418.576 66.9197L421.554 66.5611C421.61 67.0278 421.482 67.6192 421.073 68.1051C420.713 68.5323 420.295 68.6938 420.035 68.7492C419.66 68.8287 418.818 68.8098 418.26 67.9325L420.79 66.3216ZM418.576 66.9197L415.597 67.278C415.702 68.147 415.532 68.9086 415.233 69.4281C414.962 69.8961 414.567 70.223 413.943 70.3584L414.58 73.2901L415.216 76.2218C420.205 75.1387 422.017 70.4045 421.554 66.5614L418.576 66.9197ZM414.58 73.2901L413.944 70.3583C413.428 70.4701 412.919 70.3169 412.573 70.0159C412.259 69.7421 412.118 69.3951 412.191 68.9651L409.232 68.4672L406.274 67.9693C405.347 73.4756 410.517 77.241 415.216 76.222L414.58 73.2901ZM409.232 68.4672L412.191 68.9651C412.498 67.1415 411.611 65.4795 410.276 64.6168C408.775 63.6473 406.654 63.664 405.126 65.1902L407.246 67.3128L409.366 69.4353C409.135 69.6656 408.738 69.9022 408.216 69.9463C407.721 69.9881 407.306 69.8416 407.02 69.6565C406.498 69.3197 406.153 68.686 406.274 67.9693L409.232 68.4672ZM407.246 67.3128L405.124 65.1919C403.249 67.0674 400.94 68.1791 398.334 68.4341L398.627 71.4198L398.919 74.4056C402.948 74.0112 406.539 72.2633 409.368 69.4336L407.246 67.3128ZM398.627 71.4198L398.329 68.4346C395.675 68.699 394.496 70.9828 394.492 72.7127C394.49 73.6062 394.769 74.6803 395.577 75.5502C396.461 76.5021 397.698 76.9015 398.924 76.7808L398.63 73.7952L398.337 70.8096C398.801 70.764 399.468 70.9226 399.973 71.4667C400.402 71.9287 400.493 72.4277 400.492 72.7273C400.491 73.0381 400.398 73.3957 400.138 73.7266C399.841 74.1056 399.39 74.3586 398.924 74.405L398.627 71.4198Z" fill="#010101" mask="url(#path-5-inside-1_2495_26214)"/>
<mask id="path-7-inside-2_2495_26214" fill="white">
<path d="M405.827 50.6847C408.76 50.2119 411.285 48.448 412.791 45.8998C412.053 45.7004 411.315 45.501 410.576 45.3017C410.749 48.1498 413.23 50.8917 416.197 50.9714C417.553 51.0075 418.767 50.2537 419.446 49.1011C420.334 47.5935 420.128 45.8542 419.898 44.2042C419.174 44.508 418.45 44.8137 417.727 45.1194C419.163 47.2821 420.339 50.3258 423.444 50.2803C426.523 50.2347 427.084 46.9251 426.546 44.5497C425.822 44.8554 425.1 45.1592 424.375 45.4649C426.33 48.1384 429.74 49.3461 432.926 48.2865C434.369 47.8061 433.751 45.5143 432.295 45.9985C430.192 46.6972 427.769 46.101 426.426 44.2668C425.651 43.2073 423.944 43.8054 424.256 45.182C424.575 46.5966 424.21 48.7346 422.328 47.5536C421.102 46.7846 420.55 45.0852 419.781 43.9231C418.995 42.7402 417.429 43.5396 417.61 44.8383C417.802 46.2264 417.929 49.1676 415.661 48.4935C414.264 48.0777 413.043 46.7808 412.954 45.3055C412.886 44.1624 411.363 43.6497 410.739 44.7054C409.523 46.7656 407.546 48.0226 405.198 48.4005C403.689 48.6378 404.329 50.9258 405.827 50.6847Z"/>
</mask>
<path d="M405.827 50.6847C408.76 50.2119 411.285 48.448 412.791 45.8998C412.053 45.7004 411.315 45.501 410.576 45.3017C410.749 48.1498 413.23 50.8917 416.197 50.9714C417.553 51.0075 418.767 50.2537 419.446 49.1011C420.334 47.5935 420.128 45.8542 419.898 44.2042C419.174 44.508 418.45 44.8137 417.727 45.1194C419.163 47.2821 420.339 50.3258 423.444 50.2803C426.523 50.2347 427.084 46.9251 426.546 44.5497C425.822 44.8554 425.1 45.1592 424.375 45.4649C426.33 48.1384 429.74 49.3461 432.926 48.2865C434.369 47.8061 433.751 45.5143 432.295 45.9985C430.192 46.6972 427.769 46.101 426.426 44.2668C425.651 43.2073 423.944 43.8054 424.256 45.182C424.575 46.5966 424.21 48.7346 422.328 47.5536C421.102 46.7846 420.55 45.0852 419.781 43.9231C418.995 42.7402 417.429 43.5396 417.61 44.8383C417.802 46.2264 417.929 49.1676 415.661 48.4935C414.264 48.0777 413.043 46.7808 412.954 45.3055C412.886 44.1624 411.363 43.6497 410.739 44.7054C409.523 46.7656 407.546 48.0226 405.198 48.4005C403.689 48.6378 404.329 50.9258 405.827 50.6847Z" fill="#CADFF7"/>
<path d="M405.827 50.6847L406.304 53.6466L406.305 53.6465L405.827 50.6847ZM412.791 45.8998L415.373 47.4259L417.379 44.0323L413.573 43.0037L412.791 45.8998ZM410.576 45.3017L411.357 42.4051L407.328 41.319L407.581 45.4835L410.576 45.3017ZM416.197 50.9714L416.117 53.9703L416.117 53.9704L416.197 50.9714ZM419.446 49.1011L416.861 47.5789L416.861 47.5789L419.446 49.1011ZM419.898 44.2042L422.87 43.7899L422.332 39.9303L418.738 41.4377L419.898 44.2042ZM417.727 45.1194L416.558 42.3566L413.229 43.7657L415.228 46.7782L417.727 45.1194ZM423.444 50.2803L423.488 53.2799L423.488 53.2799L423.444 50.2803ZM426.546 44.5497L429.472 43.887L428.681 40.3925L425.38 41.7858L426.546 44.5497ZM424.375 45.4649L423.209 42.7011L419.716 44.1751L421.953 47.2353L424.375 45.4649ZM432.926 48.2865L433.873 51.1333L433.874 51.1329L432.926 48.2865ZM432.295 45.9985L433.241 48.8454L433.241 48.8452L432.295 45.9985ZM426.426 44.2668L428.848 42.4953L428.847 42.4948L426.426 44.2668ZM424.256 45.182L427.182 44.5214L427.181 44.5194L424.256 45.182ZM422.328 47.5536L423.923 45.0125L423.922 45.0121L422.328 47.5536ZM419.781 43.9231L422.281 42.2662L422.28 42.2642L419.781 43.9231ZM417.61 44.8383L420.581 44.4273L420.581 44.4252L417.61 44.8383ZM415.661 48.4935L414.805 51.3689L414.806 51.3692L415.661 48.4935ZM412.954 45.3055L409.959 45.4847L409.96 45.4868L412.954 45.3055ZM410.739 44.7054L408.156 43.1798L408.156 43.1799L410.739 44.7054ZM405.198 48.4005L405.664 51.3641L405.675 51.3623L405.198 48.4005ZM405.827 50.6847L406.305 53.6465C410.143 53.0278 413.427 50.72 415.373 47.4259L412.791 45.8998L410.208 44.3737C409.143 46.1759 407.378 47.396 405.35 47.7229L405.827 50.6847ZM412.791 45.8998L413.573 43.0037C412.836 42.8044 412.097 42.6047 411.357 42.4051L410.576 45.3017L409.795 48.1982C410.533 48.3973 411.27 48.5964 412.008 48.7958L412.791 45.8998ZM410.576 45.3017L407.581 45.4835C407.837 49.6874 411.405 53.8437 416.117 53.9703L416.197 50.9714L416.278 47.9725C415.054 47.9396 413.661 46.6123 413.57 45.1198L410.576 45.3017ZM416.197 50.9714L416.117 53.9704C418.679 54.0385 420.86 52.612 422.031 50.6233L419.446 49.1011L416.861 47.5789C416.675 47.8953 416.426 47.9764 416.277 47.9725L416.197 50.9714ZM419.446 49.1011L422.031 50.6234C423.526 48.0853 423.079 45.2909 422.87 43.7899L419.898 44.2042L416.927 44.6184C417.178 46.4175 417.142 47.1016 416.861 47.5789L419.446 49.1011ZM419.898 44.2042L418.738 41.4377C418.01 41.7431 417.282 42.0501 416.558 42.3566L417.727 45.1194L418.897 47.8821C419.617 47.5772 420.339 47.2728 421.059 46.9706L419.898 44.2042ZM417.727 45.1194L415.228 46.7782C415.548 47.261 415.809 47.722 416.231 48.4116C416.61 49.0304 417.083 49.7679 417.663 50.4577C418.879 51.9047 420.734 53.3204 423.488 53.2799L423.444 50.2803L423.4 47.2806C423.05 47.2857 422.764 47.2023 422.257 46.5981C421.975 46.2624 421.69 45.8363 421.348 45.2775C421.049 44.7896 420.624 44.0591 420.227 43.4605L417.727 45.1194ZM423.444 50.2803L423.488 53.2799C424.822 53.2602 426.059 52.8739 427.09 52.1096C428.099 51.3616 428.742 50.3778 429.132 49.4153C429.882 47.5643 429.835 45.4873 429.472 43.887L426.546 44.5497L423.62 45.2124C423.699 45.561 423.738 45.9513 423.724 46.3245C423.709 46.7035 423.643 46.9859 423.571 47.162C423.503 47.3295 423.462 47.3302 423.517 47.2897C423.593 47.233 423.605 47.2775 423.399 47.2806L423.444 50.2803ZM426.546 44.5497L425.38 41.7858C425.018 41.9383 424.658 42.0903 424.296 42.2427C423.934 42.395 423.572 42.5478 423.209 42.7011L424.375 45.4649L425.542 48.2288C425.903 48.0764 426.264 47.9244 426.626 47.7719C426.987 47.6196 427.35 47.4669 427.713 47.3136L426.546 44.5497ZM424.375 45.4649L421.953 47.2353C424.631 50.8984 429.376 52.6285 433.873 51.1333L432.926 48.2865L431.979 45.4398C430.103 46.0636 428.028 45.3785 426.797 43.6946L424.375 45.4649ZM432.926 48.2865L433.874 51.1329C436.473 50.2674 437.057 47.6973 436.592 45.9916C436.354 45.1199 435.802 44.1829 434.832 43.5601C433.781 42.885 432.518 42.7628 431.348 43.1517L432.295 45.9985L433.241 48.8452C432.8 48.9921 432.16 48.9748 431.589 48.6082C431.1 48.294 430.885 47.8692 430.803 47.57C430.72 47.2655 430.71 46.8648 430.9 46.4392C431.118 45.9495 431.533 45.5884 431.978 45.4401L432.926 48.2865ZM432.295 45.9985L431.349 43.1516C430.313 43.496 429.319 43.1395 428.848 42.4953L426.426 44.2668L424.005 46.0383C426.218 49.0626 430.072 49.8985 433.241 48.8454L432.295 45.9985ZM426.426 44.2668L428.847 42.4948C427.599 40.7894 425.502 40.3687 423.843 41.0161C422.05 41.7156 420.828 43.6311 421.33 45.8447L424.256 45.182L427.181 44.5194C427.251 44.8264 427.239 45.2902 426.982 45.7559C426.741 46.195 426.373 46.4693 426.024 46.6056C425.334 46.8747 424.479 46.6847 424.006 46.0389L426.426 44.2668ZM424.256 45.182L421.329 45.8427C421.351 45.9377 421.362 46.0648 421.357 46.1682C421.351 46.3025 421.328 46.207 421.443 45.9816C421.581 45.71 422.023 45.103 422.902 44.9341C423.662 44.7881 424.077 45.1098 423.923 45.0125L422.328 47.5536L420.733 50.0947C421.519 50.588 422.686 51.0853 424.034 50.8263C425.501 50.5445 426.367 49.536 426.791 48.7008C427.524 47.259 427.418 45.5675 427.182 44.5214L424.256 45.182ZM422.328 47.5536L423.922 45.0121C423.949 45.0293 423.806 44.9441 423.477 44.378C423.318 44.1052 423.179 43.8363 422.976 43.4572C422.794 43.1163 422.558 42.6839 422.281 42.2662L419.781 43.9231L417.28 45.5801C417.388 45.7434 417.51 45.9592 417.686 46.2878C417.841 46.5782 418.061 47.0001 418.29 47.3935C418.735 48.1599 419.48 49.3089 420.734 50.0951L422.328 47.5536ZM419.781 43.9231L422.28 42.2642C421.057 40.4209 418.869 39.9037 417.082 40.7233C415.451 41.4717 414.36 43.2478 414.638 45.2515L417.61 44.8383L420.581 44.4252C420.679 45.1301 420.281 45.8572 419.584 46.1769C419.23 46.339 418.766 46.4103 418.277 46.2737C417.766 46.1308 417.439 45.8204 417.281 45.5821L419.781 43.9231ZM417.61 44.8383L414.638 45.2494C414.674 45.5083 414.703 45.8175 414.705 46.1127C414.708 46.4315 414.677 46.6013 414.666 46.6409C414.646 46.7148 414.74 46.2692 415.285 45.9058C415.572 45.7146 415.879 45.6214 416.143 45.5983C416.386 45.5771 416.525 45.6204 416.516 45.6178L415.661 48.4935L414.806 51.3692C415.946 51.7079 417.354 51.7377 418.613 50.8982C419.767 50.1294 420.242 48.9882 420.45 48.2375C420.852 46.7817 420.685 45.1752 420.581 44.4273L417.61 44.8383ZM415.661 48.4935L416.517 45.6182C416.385 45.579 416.209 45.4749 416.074 45.3204C415.941 45.1687 415.946 45.0866 415.949 45.1241L412.954 45.3055L409.96 45.4868C410.139 48.4471 412.433 50.663 414.805 51.3689L415.661 48.4935ZM412.954 45.3055L415.949 45.1262C415.831 43.1536 414.444 41.7621 412.911 41.3056C411.28 40.82 409.248 41.3309 408.156 43.1798L410.739 44.7054L413.322 46.231C413.135 46.5483 412.801 46.8568 412.346 47.0188C411.92 47.1707 411.515 47.1502 411.199 47.0562C410.6 46.8778 410.009 46.3143 409.959 45.4847L412.954 45.3055ZM410.739 44.7054L408.156 43.1799C407.429 44.412 406.259 45.191 404.721 45.4386L405.198 48.4005L405.675 51.3623C408.832 50.8542 411.617 49.1192 413.323 46.2309L410.739 44.7054ZM405.198 48.4005L404.732 45.4369C403.514 45.6285 402.408 46.3296 401.795 47.4915C401.237 48.55 401.256 49.6659 401.494 50.5248C401.956 52.1891 403.687 54.0678 406.304 53.6466L405.827 50.6847L405.35 47.7228C405.807 47.6493 406.3 47.7761 406.678 48.058C407.008 48.3044 407.192 48.6194 407.275 48.9192C407.355 49.2065 407.403 49.7211 407.102 50.2913C406.747 50.965 406.128 51.2911 405.664 51.364L405.198 48.4005Z" fill="#010101" mask="url(#path-7-inside-2_2495_26214)"/>
<path d="M421.91 102.78C421.922 103.899 421.918 104.769 421.687 105.552H421.686C421.46 106.316 421.016 106.848 420.553 107.045L420.552 107.046C420.031 107.267 419.405 107.01 419.192 106.695L419.155 106.632C419.031 106.373 419.003 106.011 419.009 105.268V105.265C419.021 103.396 419.034 101.527 419.048 99.6562L421.842 96.5801C421.865 98.6467 421.888 100.713 421.91 102.78Z" fill="#FFE4C0" stroke="#010101" stroke-width="3"/>
<path d="M367.504 4.55176C367.763 4.86097 368.07 5.52317 368.525 6.82324C369.329 9.11692 370.39 12.7364 372.559 17.168L373.008 18.0645C375.491 22.9237 378.937 27.5909 382.064 31.5967C385.258 35.6864 388.006 38.9576 389.347 41.2539C389.817 42.0587 389.759 42.6166 389.551 43.0801C389.297 43.6438 388.735 44.2319 387.926 44.793C387.139 45.3388 386.25 45.7694 385.536 46.0674C385.184 46.2144 384.885 46.3247 384.677 46.3975C384.573 46.4337 384.493 46.4606 384.44 46.4775C384.414 46.486 384.395 46.4925 384.384 46.4961C384.378 46.4979 384.374 46.4985 384.372 46.499L382.232 47.1455L383.642 48.8809H383.643L383.644 48.8828C383.644 48.8839 383.646 48.8856 383.647 48.8877C383.651 48.8926 383.658 48.9003 383.666 48.9102C383.682 48.93 383.707 48.9599 383.738 48.999C383.802 49.0776 383.896 49.1943 384.019 49.3457C384.263 49.6486 384.62 50.0918 385.067 50.6494C385.963 51.7646 387.221 53.3395 388.673 55.1787C391.578 58.8602 395.25 63.5891 398.335 67.8018C400.822 71.1989 401.425 73.4055 401.314 74.7578C401.215 75.9713 400.505 76.8008 399.304 77.4199C398.061 78.0606 396.465 78.3673 395.086 78.4922C394.412 78.5532 393.824 78.5681 393.405 78.5654C393.272 78.5646 393.158 78.5589 393.066 78.5557L388.954 76.2891L391.305 80.7305L392.631 80.0283L391.306 80.7305V80.7314L391.307 80.7334C391.308 80.7353 391.31 80.7385 391.312 80.7422C391.316 80.7498 391.321 80.7616 391.329 80.7764C391.345 80.8064 391.369 80.851 391.399 80.9092C391.461 81.0264 391.553 81.1997 391.67 81.4209C391.904 81.8633 392.241 82.4997 392.651 83.2773C393.472 84.8329 394.587 86.9521 395.768 89.2041C398.134 93.7195 400.743 98.7367 401.769 100.852C402.674 102.719 403.767 105.904 403.526 109.127C403.294 112.233 401.829 115.467 397.4 117.724H397.399C393.064 119.933 389.141 118.915 386.168 117.241C384.676 116.401 383.457 115.41 382.608 114.623C382.186 114.231 381.86 113.895 381.644 113.661C381.535 113.544 381.455 113.453 381.403 113.394C381.378 113.364 381.359 113.342 381.348 113.329C381.342 113.323 381.339 113.318 381.337 113.316H381.338L379.625 111.227L378.758 113.782C378.757 113.784 378.756 113.788 378.754 113.794C378.749 113.806 378.742 113.829 378.73 113.859C378.708 113.92 378.67 114.016 378.618 114.142C378.514 114.393 378.352 114.762 378.123 115.209C377.664 116.107 376.948 117.302 375.929 118.493C373.902 120.861 370.711 123.179 365.877 123.193C360.606 123.209 356.989 121.014 354.666 118.808C353.498 117.698 352.659 116.587 352.115 115.757C351.844 115.343 351.648 115.002 351.522 114.771C351.46 114.655 351.414 114.567 351.387 114.512C351.373 114.484 351.364 114.464 351.358 114.453C351.357 114.451 351.356 114.449 351.355 114.447L350.525 112.632L349.014 113.933C349.013 113.933 349.012 113.935 349.01 113.937C349.005 113.94 348.998 113.946 348.987 113.955C348.967 113.973 348.934 114 348.89 114.036C348.801 114.109 348.668 114.217 348.494 114.353C348.146 114.624 347.637 115.006 347.007 115.436C345.738 116.3 344.012 117.335 342.134 118.071C340.24 118.813 338.314 119.202 336.59 118.931C334.941 118.671 333.342 117.788 332.025 115.683C330.801 113.724 330.676 110.92 331.469 107.508C332.252 104.137 333.87 100.45 335.736 96.9883C337.597 93.5382 339.668 90.3747 341.313 88.0625C342.136 86.9071 342.846 85.9721 343.362 85.3271C343.622 85.0031 343.824 84.7623 343.962 84.6074C343.991 84.5745 344.016 84.5488 344.035 84.5283C344.039 84.5256 344.044 84.5243 344.048 84.5215C344.105 84.4809 344.238 84.3811 344.366 84.2148C344.486 84.0597 344.739 83.66 344.663 83.0977C344.583 82.5062 344.201 82.1751 343.997 82.042C343.799 81.9124 343.617 81.8622 343.544 81.8438C343.388 81.8041 343.26 81.7991 343.228 81.7979C343.138 81.7944 343.064 81.8004 343.044 81.8018C342.957 81.8079 342.829 81.8238 342.754 81.833C342.552 81.8578 342.245 81.8951 341.854 81.9277C341.067 81.9935 339.964 82.0378 338.791 81.916C336.441 81.672 334.292 80.8335 333.363 78.749L333.277 78.543C332.671 76.9976 333.153 74.636 334.813 71.5732C336.42 68.6087 338.909 65.3909 341.562 62.3857C344.204 59.3924 346.96 56.6646 349.061 54.6816C350.109 53.6913 350.992 52.89 351.611 52.3369C351.921 52.0604 352.164 51.8455 352.329 51.7012C352.412 51.6292 352.475 51.5743 352.517 51.5381C352.537 51.5201 352.553 51.5068 352.563 51.498C352.568 51.4938 352.572 51.4903 352.574 51.4883C352.575 51.4873 352.577 51.4867 352.577 51.4863V51.4854L350.738 49.2637C350.677 49.187 350.668 49.1758 350.667 49.1738L350.668 49.1719C350.669 49.1709 350.671 49.1698 350.672 49.1689C350.674 49.1674 350.676 49.1664 350.678 49.165C350.682 49.1621 350.685 49.1592 350.688 49.1572C350.692 49.154 350.694 49.152 350.695 49.1514C350.693 49.1526 350.685 49.1587 350.67 49.168C350.635 49.1899 350.567 49.2292 350.469 49.2715C350.273 49.356 349.966 49.4501 349.563 49.4502C348.817 49.4503 347.39 49.1218 345.485 46.9473C345.365 46.8093 345.151 46.3489 345.233 45.2012C345.312 44.1158 345.635 42.7064 346.181 41.0293C347.269 37.6864 349.148 33.5671 351.266 29.3955C353.377 25.2368 355.697 21.0806 357.644 17.6748C359.569 14.3066 361.171 11.598 361.781 10.4473C363.544 7.12219 364.684 5.81863 365.408 5.26465C366.137 4.70723 366.236 4.91349 367.371 4.53516C367.409 4.52256 367.439 4.51406 367.462 4.50879C367.473 4.52029 367.488 4.53316 367.504 4.55176ZM343.751 84.6846C343.713 84.7014 343.67 84.7187 343.623 84.7344C343.64 84.7289 343.689 84.7107 343.751 84.6846ZM342.526 81.9492C342.537 81.944 342.546 81.9398 342.551 81.9375C342.62 81.9063 342.674 81.8893 342.676 81.8887C342.622 81.9064 342.573 81.928 342.526 81.9492Z" fill="#E0E6ED" stroke="#010101" stroke-width="3"/>
<mask id="path-11-inside-3_2495_26214" fill="white">
<path d="M339.957 85.1079C345.48 84.5857 350.457 82.2654 354.335 78.2894C353.673 77.9039 353.012 77.5204 352.348 77.1349C351.316 82.9053 355.764 88.2732 361.739 87.9599C368.085 87.6257 372.176 81.7395 371.391 75.6596C370.653 75.8589 369.915 76.0583 369.176 76.2577C371.718 80.3477 375.461 84.1281 380.591 84.2668C385.068 84.3883 389.062 80.9876 388.941 76.3982C388.203 76.5976 387.465 76.7969 386.726 76.9982C389.674 82.0604 396.41 81.6293 401.033 79.4647C402.417 78.8172 401.212 76.7703 399.833 77.4159C396.411 79.0166 391.022 79.6565 388.777 75.8001C388.195 74.7994 386.532 75.2096 386.562 76.3982C386.675 80.6401 382.405 82.5636 378.715 81.6047C375.333 80.7255 372.987 77.8963 371.225 75.0595C370.66 74.15 368.851 74.4159 369.01 75.6577C369.585 80.1008 367.294 84.675 362.576 85.4763C357.998 86.2548 353.793 82.4686 354.635 77.7634C354.833 76.6621 353.538 75.6975 352.648 76.6089C349.232 80.1103 344.832 82.2692 339.952 82.7325C338.45 82.8769 338.435 85.2522 339.957 85.1079Z"/>
</mask>
<path d="M339.957 85.1079C345.48 84.5857 350.457 82.2654 354.335 78.2894C353.673 77.9039 353.012 77.5204 352.348 77.1349C351.316 82.9053 355.764 88.2732 361.739 87.9599C368.085 87.6257 372.176 81.7395 371.391 75.6596C370.653 75.8589 369.915 76.0583 369.176 76.2577C371.718 80.3477 375.461 84.1281 380.591 84.2668C385.068 84.3883 389.062 80.9876 388.941 76.3982C388.203 76.5976 387.465 76.7969 386.726 76.9982C389.674 82.0604 396.41 81.6293 401.033 79.4647C402.417 78.8172 401.212 76.7703 399.833 77.4159C396.411 79.0166 391.022 79.6565 388.777 75.8001C388.195 74.7994 386.532 75.2096 386.562 76.3982C386.675 80.6401 382.405 82.5636 378.715 81.6047C375.333 80.7255 372.987 77.8963 371.225 75.0595C370.66 74.15 368.851 74.4159 369.01 75.6577C369.585 80.1008 367.294 84.675 362.576 85.4763C357.998 86.2548 353.793 82.4686 354.635 77.7634C354.833 76.6621 353.538 75.6975 352.648 76.6089C349.232 80.1103 344.832 82.2692 339.952 82.7325C338.45 82.8769 338.435 85.2522 339.957 85.1079Z" fill="#CADFF7"/>
<path d="M339.957 85.1079L339.675 82.1212L339.674 82.1213L339.957 85.1079ZM354.335 78.2894L356.482 80.3841L359.166 77.6324L355.845 75.6973L354.335 78.2894ZM352.348 77.1349L353.855 74.5409L350.15 72.3881L349.395 76.6067L352.348 77.1349ZM361.739 87.9599L361.896 90.9558L361.897 90.9558L361.739 87.9599ZM371.391 75.6596L374.366 75.2753L373.926 71.8666L370.608 72.7635L371.391 75.6596ZM369.176 76.2577L368.395 73.3611L364.497 74.4121L366.628 77.8411L369.176 76.2577ZM380.591 84.2668L380.673 81.2679L380.672 81.2679L380.591 84.2668ZM388.941 76.3982L391.94 76.3187L391.838 72.5072L388.158 73.5021L388.941 76.3982ZM386.726 76.9982L385.938 74.1035L382.166 75.1301L384.134 78.5081L386.726 76.9982ZM401.033 79.4647L399.762 76.7474L399.761 76.7478L401.033 79.4647ZM399.833 77.4159L401.104 80.1333L401.106 80.1327L399.833 77.4159ZM388.777 75.8001L386.183 77.3078L386.184 77.3094L388.777 75.8001ZM386.562 76.3982L383.563 76.4749L383.564 76.4775L386.562 76.3982ZM378.715 81.6047L377.96 84.5082L377.96 84.5082L378.715 81.6047ZM371.225 75.0595L368.676 76.6418L368.677 76.6426L371.225 75.0595ZM369.01 75.6577L366.035 76.0403L366.035 76.0421L369.01 75.6577ZM362.576 85.4763L362.073 82.5186L362.073 82.5187L362.576 85.4763ZM354.635 77.7634L351.682 77.2333L351.682 77.2349L354.635 77.7634ZM352.648 76.6089L350.502 74.5134L350.501 74.5139L352.648 76.6089ZM339.952 82.7325L339.668 79.746L339.665 79.7463L339.952 82.7325ZM339.957 85.1079L340.24 88.0946C346.449 87.5075 352.093 84.884 356.482 80.3841L354.335 78.2894L352.187 76.1947C348.82 79.6469 344.511 81.664 339.675 82.1212L339.957 85.1079ZM354.335 78.2894L355.845 75.6973C355.181 75.3106 354.515 74.9244 353.855 74.5409L352.348 77.1349L350.841 79.7289C351.508 80.1163 352.165 80.4973 352.824 80.8815L354.335 78.2894ZM352.348 77.1349L349.395 76.6067C348.041 84.178 353.89 91.3756 361.896 90.9558L361.739 87.9599L361.582 84.964C357.638 85.1708 354.591 81.6327 355.301 77.6632L352.348 77.1349ZM361.739 87.9599L361.897 90.9558C370.261 90.5153 375.338 82.8024 374.366 75.2753L371.391 75.6596L368.415 76.0438C369.013 80.6766 365.908 84.7362 361.581 84.9641L361.739 87.9599ZM371.391 75.6596L370.608 72.7635C369.87 72.9629 369.133 73.162 368.395 73.3611L369.176 76.2577L369.957 79.1542C370.697 78.9546 371.436 78.7549 372.173 78.5556L371.391 75.6596ZM369.176 76.2577L366.628 77.8411C369.323 82.1783 373.82 87.0849 380.51 87.2657L380.591 84.2668L380.672 81.2679C377.101 81.1714 374.112 78.517 371.724 74.6742L369.176 76.2577ZM380.591 84.2668L380.51 87.2657C386.438 87.4266 392.114 82.8842 391.94 76.3187L388.941 76.3982L385.942 76.4777C386.011 79.0909 383.698 81.35 380.673 81.2679L380.591 84.2668ZM388.941 76.3982L388.158 73.5021C387.421 73.7014 386.681 73.9014 385.938 74.1035L386.726 76.9982L387.514 79.8929C388.25 79.6924 388.985 79.4937 389.723 79.2943L388.941 76.3982ZM386.726 76.9982L384.134 78.5081C386.205 82.0637 389.615 83.6037 392.963 83.9276C396.233 84.2439 399.612 83.4425 402.305 82.1817L401.033 79.4647L399.761 76.7478C397.83 77.6516 395.53 78.1479 393.54 77.9554C391.628 77.7704 390.196 76.9949 389.318 75.4883L386.726 76.9982ZM401.033 79.4647L402.304 82.182C403.423 81.6587 404.276 80.6849 404.553 79.4258C404.807 78.2737 404.51 77.2091 404.056 76.4364C403.173 74.9324 400.987 73.5629 398.561 74.6992L399.833 77.4159L401.106 80.1327C400.687 80.3289 400.166 80.3467 399.707 80.1676C399.306 80.0113 399.04 79.7441 398.882 79.4745C398.729 79.2137 398.56 78.7419 398.693 78.1355C398.85 77.4221 399.335 76.947 399.762 76.7474L401.033 79.4647ZM399.833 77.4159L398.562 74.6986C397.195 75.338 395.492 75.7457 394.042 75.6597C392.653 75.5773 391.838 75.0957 391.37 74.2907L388.777 75.8001L386.184 77.3094C387.961 80.3609 390.963 81.4875 393.686 81.6492C396.348 81.8071 399.05 81.0946 401.104 80.1333L399.833 77.4159ZM388.777 75.8001L391.371 74.2923C390.268 72.3949 388.192 71.983 386.685 72.3747C385.142 72.776 383.505 74.2066 383.563 76.4749L386.562 76.3982L389.561 76.3215C389.589 77.4012 388.769 78.0323 388.195 78.1816C387.658 78.3213 386.705 78.2046 386.184 77.3078L388.777 75.8001ZM386.562 76.3982L383.564 76.4775C383.588 77.418 383.197 77.9814 382.543 78.3661C381.779 78.8157 380.619 78.9998 379.47 78.7011L378.715 81.6047L377.96 84.5082C380.501 85.1684 383.321 84.8702 385.586 83.5373C387.961 82.1396 389.649 79.6203 389.561 76.3189L386.562 76.3982ZM378.715 81.6047L379.47 78.7012C377.276 78.131 375.462 76.1953 373.773 73.4765L371.225 75.0595L368.677 76.6426C370.512 79.5974 373.39 83.3201 377.96 84.5082L378.715 81.6047ZM371.225 75.0595L373.774 73.4773C372.64 71.6513 370.58 71.3259 369.216 71.6187C368.458 71.7815 367.585 72.1836 366.915 72.9804C366.192 73.8387 365.893 74.9376 366.035 76.0403L369.01 75.6577L371.986 75.275C372.048 75.7568 371.915 76.3568 371.505 76.8445C371.146 77.2706 370.731 77.4302 370.476 77.485C370.118 77.5618 369.245 77.5583 368.676 76.6418L371.225 75.0595ZM369.01 75.6577L366.035 76.0421C366.471 79.4179 364.725 82.0683 362.073 82.5186L362.576 85.4763L363.078 88.4339C369.862 87.2817 372.698 80.7837 371.986 75.2732L369.01 75.6577ZM362.576 85.4763L362.073 82.5187C359.324 82.9862 357.15 80.7375 357.588 78.292L354.635 77.7634L351.682 77.2349C350.435 84.1997 356.672 89.5233 363.078 88.4338L362.576 85.4763ZM354.635 77.7634L357.588 78.2935C357.922 76.4337 356.999 74.765 355.677 73.9113C354.191 72.9515 352.042 72.9351 350.502 74.5134L352.648 76.6089L354.795 78.7045C354.555 78.9502 354.146 79.1945 353.614 79.2393C353.115 79.2814 352.702 79.1321 352.422 78.9515C351.92 78.6276 351.546 77.9918 351.682 77.2333L354.635 77.7634ZM352.648 76.6089L350.501 74.5139C347.566 77.5219 343.82 79.3518 339.668 79.746L339.952 82.7325L340.235 85.7191C345.843 85.1867 350.898 82.6987 354.796 78.704L352.648 76.6089ZM339.952 82.7325L339.665 79.7463C337 80.0024 335.824 82.2969 335.82 84.0224C335.819 84.9149 336.097 85.9859 336.9 86.8547C337.779 87.8054 339.012 88.211 340.24 88.0945L339.957 85.1079L339.674 82.1213C340.142 82.077 340.805 82.2397 341.306 82.7812C341.73 83.2407 341.821 83.7358 341.82 84.0345C341.82 84.3438 341.727 84.703 341.465 85.0364C341.165 85.4187 340.709 85.6736 340.239 85.7188L339.952 82.7325Z" fill="#010101" mask="url(#path-11-inside-3_2495_26214)"/>
<mask id="path-13-inside-4_2495_26214" fill="white">
<path d="M350.123 51.5659C354.214 50.8976 357.702 48.4348 359.78 44.8632C359.043 44.6638 358.305 44.4645 357.566 44.2632C357.794 48.0722 361.105 51.8489 365.097 51.959C370.089 52.0995 370.39 46.3728 369.903 42.8106C369.179 43.1163 368.455 43.4201 367.732 43.7258C369.648 46.6576 371.241 51.0286 375.471 50.9545C379.547 50.8824 380.102 46.3841 379.416 43.31C378.692 43.6157 377.967 43.9195 377.245 44.2252C379.891 47.8975 384.564 49.5418 388.904 48.0778C390.345 47.5918 389.727 45.298 388.273 45.7898C385.009 46.8911 381.34 45.862 379.298 43.029C378.526 41.9581 376.821 42.5752 377.127 43.9442C377.387 45.1119 377.667 46.5645 376.969 47.6506C376.169 48.9 374.703 48.6798 373.616 47.9962C371.755 46.8266 370.943 44.3012 369.785 42.5315C369.004 41.3391 367.438 42.1536 367.614 43.4467C367.938 45.8088 367.975 50.5463 364.196 49.4165C361.942 48.7424 360.086 46.6253 359.946 44.2689C359.877 43.1315 358.351 42.6074 357.731 43.6708C355.936 46.7544 353.005 48.7083 349.494 49.2817C347.986 49.5228 348.625 51.8109 350.123 51.5659Z"/>
</mask>
<path d="M350.123 51.5659C354.214 50.8976 357.702 48.4348 359.78 44.8632C359.043 44.6638 358.305 44.4645 357.566 44.2632C357.794 48.0722 361.105 51.8489 365.097 51.959C370.089 52.0995 370.39 46.3728 369.903 42.8106C369.179 43.1163 368.455 43.4201 367.732 43.7258C369.648 46.6576 371.241 51.0286 375.471 50.9545C379.547 50.8824 380.102 46.3841 379.416 43.31C378.692 43.6157 377.967 43.9195 377.245 44.2252C379.891 47.8975 384.564 49.5418 388.904 48.0778C390.345 47.5918 389.727 45.298 388.273 45.7898C385.009 46.8911 381.34 45.862 379.298 43.029C378.526 41.9581 376.821 42.5752 377.127 43.9442C377.387 45.1119 377.667 46.5645 376.969 47.6506C376.169 48.9 374.703 48.6798 373.616 47.9962C371.755 46.8266 370.943 44.3012 369.785 42.5315C369.004 41.3391 367.438 42.1536 367.614 43.4467C367.938 45.8088 367.975 50.5463 364.196 49.4165C361.942 48.7424 360.086 46.6253 359.946 44.2689C359.877 43.1315 358.351 42.6074 357.731 43.6708C355.936 46.7544 353.005 48.7083 349.494 49.2817C347.986 49.5228 348.625 51.8109 350.123 51.5659Z" fill="#CADFF7"/>
<path d="M350.123 51.5659L349.639 48.6052L349.639 48.6052L350.123 51.5659ZM359.78 44.8632L362.373 46.3718L364.342 42.9885L360.563 41.9672L359.78 44.8632ZM357.566 44.2632L358.353 41.3685L354.321 40.271L354.571 44.4426L357.566 44.2632ZM365.097 51.959L365.182 48.9602L365.18 48.9601L365.097 51.959ZM369.903 42.8106L372.875 42.4046L372.345 38.5236L368.737 40.0468L369.903 42.8106ZM367.732 43.7258L366.563 40.9631L363.257 42.3622L365.221 45.3672L367.732 43.7258ZM375.471 50.9545L375.524 53.9541L375.524 53.954L375.471 50.9545ZM379.416 43.31L382.344 42.6564L381.561 39.1484L378.249 40.5461L379.416 43.31ZM377.245 44.2252L376.076 41.4624L372.612 42.9281L374.811 45.9791L377.245 44.2252ZM388.904 48.0778L389.863 50.9205L389.863 50.9205L388.904 48.0778ZM388.273 45.7898L389.232 48.6324L389.234 48.6317L388.273 45.7898ZM379.298 43.029L381.732 41.275L381.732 41.2749L379.298 43.029ZM377.127 43.9442L380.055 43.2912L380.055 43.2897L377.127 43.9442ZM376.969 47.6506L374.445 46.0293L374.443 46.0325L376.969 47.6506ZM373.616 47.9962L375.212 45.4564L375.212 45.4562L373.616 47.9962ZM369.785 42.5315L372.296 40.8891L372.295 40.8873L369.785 42.5315ZM367.614 43.4467L364.642 43.8531L364.642 43.8534L367.614 43.4467ZM364.196 49.4165L363.337 52.2908L363.337 52.2908L364.196 49.4165ZM359.946 44.2689L362.94 44.0901L362.94 44.0887L359.946 44.2689ZM357.731 43.6708L355.139 42.1601L355.138 42.1618L357.731 43.6708ZM349.494 49.2817L349.968 52.244L349.978 52.2425L349.494 49.2817ZM350.123 51.5659L350.607 54.5267C355.608 53.7095 359.858 50.6954 362.373 46.3718L359.78 44.8632L357.187 43.3547C355.547 46.1742 352.82 48.0856 349.639 48.6052L350.123 51.5659ZM359.78 44.8632L360.563 41.9672C359.825 41.7677 359.09 41.569 358.353 41.3685L357.566 44.2632L356.778 47.1579C357.52 47.36 358.26 47.56 358.997 47.7593L359.78 44.8632ZM357.566 44.2632L354.571 44.4426C354.732 47.1243 355.954 49.6693 357.74 51.5588C359.533 53.4564 362.077 54.8768 365.015 54.9578L365.097 51.959L365.18 48.9601C364.126 48.931 363.018 48.4081 362.1 47.4375C361.175 46.4589 360.628 45.2111 360.56 44.0839L357.566 44.2632ZM365.097 51.959L365.013 54.9578C366.875 55.0102 368.543 54.5056 369.886 53.4407C371.186 52.4106 371.948 51.0422 372.392 49.7473C373.254 47.238 373.144 44.3695 372.875 42.4046L369.903 42.8106L366.931 43.2167C367.149 44.8139 367.132 46.5898 366.717 47.7993C366.523 48.3637 366.305 48.6234 366.159 48.7388C366.057 48.8195 365.816 48.978 365.182 48.9602L365.097 51.959ZM369.903 42.8106L368.737 40.0468C368.023 40.3478 367.284 40.6579 366.563 40.9631L367.732 43.7258L368.901 46.4886C369.625 46.1824 370.334 45.8849 371.07 45.5745L369.903 42.8106ZM367.732 43.7258L365.221 45.3672C365.651 46.0244 366.033 46.7157 366.572 47.6283C367.071 48.4738 367.672 49.4469 368.397 50.3478C369.89 52.2038 372.141 54.0133 375.524 53.9541L375.471 50.9545L375.419 47.955C374.572 47.9698 373.911 47.6308 373.072 46.5868C372.63 46.0378 372.208 45.3731 371.738 44.5768C371.307 43.8476 370.772 42.8931 370.243 42.0845L367.732 43.7258ZM375.471 50.9545L375.524 53.954C377.126 53.9257 378.571 53.4469 379.75 52.5263C380.901 51.6271 381.616 50.4502 382.042 49.3004C382.866 47.0771 382.769 44.5603 382.344 42.6564L379.416 43.31L376.488 43.9636C376.749 45.1339 376.717 46.4032 376.416 47.2156C376.28 47.5836 376.135 47.7369 376.057 47.7975C376.007 47.8367 375.854 47.9473 375.418 47.955L375.471 50.9545ZM379.416 43.31L378.249 40.5461C377.536 40.8471 376.797 41.1573 376.076 41.4624L377.245 44.2252L378.414 46.988C379.138 46.6818 379.847 46.3843 380.582 46.0739L379.416 43.31ZM377.245 44.2252L374.811 45.9791C378.185 50.6617 384.209 52.8275 389.863 50.9205L388.904 48.0778L387.945 45.2352C384.918 46.2562 381.597 45.1333 379.679 42.4714L377.245 44.2252ZM388.904 48.0778L389.863 50.9205C392.453 50.0466 393.032 47.4806 392.568 45.7782C392.331 44.9072 391.778 43.9674 390.804 43.3444C389.747 42.6682 388.48 42.5529 387.312 42.9479L388.273 45.7898L389.234 48.6317C388.793 48.7808 388.148 48.7678 387.571 48.3986C387.077 48.0825 386.861 47.6543 386.779 47.356C386.697 47.0519 386.687 46.6542 386.874 46.2322C387.089 45.7467 387.5 45.3852 387.945 45.2352L388.904 48.0778ZM388.273 45.7898L387.313 42.9472C385.205 43.6587 382.949 42.9635 381.732 41.275L379.298 43.029L376.864 44.783C379.731 48.7605 384.812 50.1236 389.232 48.6324L388.273 45.7898ZM379.298 43.029L381.732 41.2749C380.483 39.5419 378.369 39.1242 376.705 39.7817C374.931 40.4829 373.705 42.3875 374.199 44.5987L377.127 43.9442L380.055 43.2897C380.125 43.6043 380.107 44.0649 379.855 44.5221C379.618 44.9521 379.258 45.2243 378.911 45.3615C378.217 45.6359 377.341 45.4451 376.864 44.783L379.298 43.029ZM377.127 43.9442L374.199 44.5972C374.329 45.1823 374.401 45.5795 374.408 45.8989C374.415 46.202 374.355 46.1702 374.445 46.0293L376.969 47.6506L379.493 49.272C380.282 48.045 380.43 46.7438 380.407 45.7572C380.384 44.7868 380.185 43.8738 380.055 43.2912L377.127 43.9442ZM376.969 47.6506L374.443 46.0325C374.498 45.9471 374.623 45.8027 374.833 45.689C375.036 45.5796 375.217 45.552 375.322 45.5493C375.417 45.5468 375.446 45.5637 375.403 45.55C375.363 45.537 375.294 45.5076 375.212 45.4564L373.616 47.9962L372.019 50.536C372.9 51.0898 374.117 51.5827 375.478 51.5473C376.993 51.5079 378.516 50.7979 379.495 49.2688L376.969 47.6506ZM373.616 47.9962L375.212 45.4562C374.915 45.2696 374.547 44.8697 374.031 43.9817C373.778 43.546 373.549 43.104 373.259 42.5588C372.989 42.0501 372.666 41.4552 372.296 40.8891L369.785 42.5315L367.275 44.1739C367.483 44.4926 367.696 44.877 367.962 45.3761C368.208 45.8387 368.516 46.4329 368.843 46.996C369.487 48.1056 370.455 49.5531 372.019 50.5362L373.616 47.9962ZM369.785 42.5315L372.295 40.8873C371.747 40.0523 370.93 39.3889 369.901 39.1008C368.895 38.8192 367.899 38.9557 367.08 39.3345C365.462 40.0836 364.368 41.8524 364.642 43.8531L367.614 43.4467L370.587 43.0403C370.683 43.748 370.285 44.463 369.601 44.7796C369.249 44.9422 368.78 45.0178 368.283 44.8785C367.761 44.7325 367.432 44.4145 367.276 44.1757L369.785 42.5315ZM367.614 43.4467L364.642 43.8534C364.707 44.3299 364.756 44.9165 364.748 45.4952C364.74 46.0964 364.673 46.5534 364.583 46.8379C364.486 47.1433 364.469 46.9405 364.796 46.7385C365.206 46.4858 365.443 46.6581 365.056 46.5422L364.196 49.4165L363.337 52.2908C364.839 52.7398 366.488 52.7436 367.944 51.8466C369.317 51.0002 369.978 49.6772 370.305 48.6442C370.935 46.6476 370.762 44.3233 370.587 43.0401L367.614 43.4467ZM364.196 49.4165L365.056 46.5422C363.87 46.1877 362.998 45.0504 362.94 44.0901L359.946 44.2689L356.951 44.4477C357.175 48.2001 360.013 51.2972 363.337 52.2908L364.196 49.4165ZM359.946 44.2689L362.94 44.0887C362.822 42.1152 361.431 40.7282 359.907 40.271C358.275 39.7815 356.229 40.2895 355.139 42.1601L357.731 43.6708L360.323 45.1814C360.136 45.5013 359.8 45.8159 359.338 45.9809C358.906 46.1352 358.497 46.1123 358.183 46.0181C357.594 45.8415 357.001 45.2853 356.951 44.4491L359.946 44.2689ZM357.731 43.6708L355.138 42.1618C353.811 44.4424 351.67 45.8866 349.01 46.3209L349.494 49.2817L349.978 52.2425C354.341 51.5299 358.062 49.0664 360.324 45.1797L357.731 43.6708ZM349.494 49.2817L349.02 46.3193C347.802 46.5143 346.701 47.2186 346.091 48.3778C345.535 49.4343 345.552 50.5484 345.791 51.4078C346.253 53.0744 347.987 54.955 350.607 54.5266L350.123 51.5659L349.639 48.6052C350.096 48.5306 350.591 48.656 350.972 48.9397C351.305 49.1875 351.489 49.5044 351.572 49.8044C351.652 50.0923 351.699 50.6044 351.401 51.1718C351.048 51.8418 350.433 52.1697 349.968 52.244L349.494 49.2817Z" fill="#010101" mask="url(#path-13-inside-4_2495_26214)"/>
<path d="M373.836 120.456C373.862 122.881 373.888 125.307 373.915 127.732C373.933 129.336 373.933 130.706 373.566 131.961L373.565 131.964C373.206 133.202 372.466 134.175 371.57 134.561H371.569C370.517 135.015 369.164 134.502 368.75 133.635V133.634C368.491 133.092 368.463 132.403 368.471 131.345V131.344C368.49 128.54 368.509 125.737 368.528 122.932L373.799 117.043C373.811 118.181 373.824 119.318 373.836 120.456Z" fill="#E0E6ED" stroke="#010101" stroke-width="3"/>
</svg>
