<svg width="80" height="81" viewBox="0 0 80 81" fill="none" xmlns="http://www.w3.org/2000/svg">
<mask id="mask0_2492_26102" style="mask-type:alpha" maskUnits="userSpaceOnUse" x="0" y="0" width="80" height="81">
<circle cx="40" cy="40.5" r="40" fill="#C3DEF7"/>
</mask>
<g mask="url(#mask0_2492_26102)">
<circle cx="40" cy="40.5" r="40" fill="#FFE4C0"/>
<path d="M38.2949 58.5088L32.5588 57.8103L22.4531 81.2603L38.2949 86.8599L48.2718 84.6789L57.0252 70.1793L50.6055 57.8103L46.5416 55.873L38.2949 58.5088Z" fill="#FDF7EC"/>
<path d="M25.1644 64.0479C27.1031 64.6084 29.0418 65.1689 30.9805 65.7296C31.9468 66.0089 32.9129 66.2883 33.8792 66.5676C34.6341 66.786 35.4052 66.9829 36.1206 67.3146C36.8309 67.6438 37.4863 68.1161 37.8109 68.8517C37.8449 68.9287 37.9574 68.9467 38.0241 68.9077C38.1034 68.8612 38.1142 68.7717 38.0801 68.6943C37.4578 67.2847 35.8021 66.7989 34.4483 66.4075C32.4909 65.8415 30.5335 65.2756 28.5762 64.7096C27.4665 64.3888 26.357 64.0681 25.2473 63.7471C25.0541 63.6913 24.9717 63.9921 25.1644 64.0479Z" fill="#010101"/>
<path d="M40.8813 68.8404C41.0965 68.3624 41.5152 67.9955 41.9411 67.6775C42.5482 67.2243 43.2159 66.8536 43.89 66.5111C45.5364 65.6748 47.264 65.0037 48.986 64.3425C49.9138 63.9863 50.8444 63.6376 51.7691 63.2734C51.8473 63.2426 51.9019 63.1689 51.8779 63.0816C51.8574 63.0069 51.7649 62.9417 51.6862 62.9728C49.9691 63.6491 48.2336 64.2778 46.5274 64.9816C45.6632 65.3381 44.8043 65.7103 43.966 66.125C43.265 66.4718 42.5708 66.8463 41.9322 67.3001C41.4237 67.6616 40.8749 68.0992 40.612 68.683C40.5774 68.7598 40.5899 68.8508 40.6679 68.8964C40.735 68.9354 40.8467 68.9176 40.8813 68.8404Z" fill="#010101"/>
<path d="M53.195 61.5724L49.0032 58.2448C47.7311 66.9854 44.0002 77.1434 39.3132 84.6282C39.1337 84.3165 38.9568 84.0032 38.7856 83.6868C34.5716 75.8999 33.0781 66.9296 33.9418 58.1543L24.3359 73.9943L27.163 88.214L55.4434 88.8677L53.195 61.5724Z" fill="#010101"/>
<path d="M30.479 87.6138C31.4763 77.3763 32.8197 67.1728 34.5062 57.0262L34.6474 56.2246C34.6474 56.2246 28.4633 58.8327 24.9296 62.0157L21.3516 67.0993L22.4559 87.0364L30.479 87.6138Z" fill="#CADFF7"/>
<path d="M48.4554 57.6809L33.9609 61.1744C34.1386 59.3171 34.1581 59.1016 34.3343 57.2442C34.4917 55.5849 34.6506 53.924 34.808 52.2647L48.8327 41.3607L48.9948 41.2344C48.189 46.6724 48.0082 52.2023 48.4554 57.6809Z" fill="#FDF7EC"/>
<path d="M48.8343 41.3613C48.8468 41.7793 48.7876 42.1957 48.652 42.5918C48.2235 43.8378 48.1222 45.1961 47.7716 46.4874C47.008 49.2961 45.7006 51.98 43.7481 54.1539C42.3908 55.6666 40.7327 56.986 38.7802 57.5443C37.1705 58.0059 35.6449 57.8421 34.3359 57.2448C34.4933 55.5855 34.6523 53.9247 34.8097 52.2654L48.8343 41.3613Z" fill="#010101"/>
<path d="M49.4225 43.0652C50.7088 40.1535 51.5424 37.0512 51.8148 33.9236C52.1459 30.1203 51.5162 26.0406 49.0821 23.1011C47.4071 21.0783 45.0041 19.7562 42.4906 18.9982C40.0102 18.2503 37.3206 18.0186 34.8292 18.7286C28.6686 20.4843 26.063 26.9004 26.5394 32.8271C26.6215 33.8486 26.7716 34.8793 26.9274 35.8918C27.0747 36.8494 26.9746 37.7763 26.9109 38.7468C26.7872 40.6313 26.8295 42.537 27.1996 44.3936C27.5752 46.2767 28.3635 47.7356 29.2477 49.3781C31.1273 52.8701 34.305 57.2094 38.836 55.4801C40.2193 54.9522 41.3963 53.9967 42.4709 52.9776C45.3795 50.219 47.7732 46.7987 49.4225 43.0652Z" fill="#FDF7EC"/>
<path d="M33.2628 36.8079C32.8424 38.1506 32.6579 39.5679 32.6817 40.9735C32.6937 41.6764 32.7595 42.3786 32.8786 43.0715C32.9334 43.3906 32.9954 43.711 33.0821 44.0231C33.1508 44.2704 33.2426 44.5232 33.3936 44.733C33.5732 44.9825 33.8536 45.1926 34.176 45.1771C34.5473 45.1592 34.8472 44.8875 35.0913 44.633C35.2302 44.4881 35.0101 44.2673 34.871 44.4125C34.6898 44.6014 34.4552 44.8482 34.176 44.8652C33.9491 44.8791 33.7524 44.7127 33.6342 44.5342C33.5053 44.3397 33.4292 44.1173 33.3699 43.8932C33.2895 43.59 33.2289 43.2806 33.1762 42.9715C32.956 41.6796 32.9336 40.35 33.0953 39.0498C33.1863 38.3183 33.3431 37.5942 33.5633 36.8907C33.6234 36.6989 33.3227 36.6167 33.2628 36.8079Z" fill="#010101"/>
<path d="M35.7839 44.2179C35.8198 44.2076 35.8561 44.1988 35.8928 44.1922C35.8967 44.1914 35.9424 44.1853 35.9064 44.1896C35.9248 44.1874 35.943 44.1855 35.9615 44.1843C35.9936 44.1821 36.0258 44.1814 36.0579 44.1822C36.0761 44.1827 36.0943 44.1836 36.1125 44.1852C36.1172 44.1855 36.1658 44.1911 36.1462 44.1883C36.1266 44.1855 36.1748 44.1933 36.1794 44.1942C36.1973 44.1977 36.2151 44.2016 36.2325 44.2059C36.2634 44.2136 36.2938 44.2228 36.3237 44.2334C36.3295 44.2354 36.3822 44.2568 36.3498 44.2427C36.3622 44.2482 36.3745 44.2538 36.3868 44.2599C36.4195 44.2758 36.4512 44.2939 36.482 44.3132C36.5512 44.3567 36.6567 44.3301 36.6952 44.2572C36.7357 44.1805 36.7131 44.0902 36.6393 44.0439C36.3614 43.8692 36.0153 43.827 35.7012 43.9171C35.6229 43.9396 35.5662 44.0283 35.5924 44.1089C35.618 44.1888 35.6999 44.242 35.7839 44.2179Z" fill="#010101"/>
<path d="M37.3129 47.7598C36.9194 47.3476 36.5202 46.9308 36.0363 46.6298C35.5525 46.3288 34.9665 46.1515 34.4084 46.2651C33.8502 46.3788 33.3434 46.8319 33.2812 47.3986C33.2812 47.3986 33.9678 47.8641 35.2971 47.9029C36.6263 47.9418 37.3129 47.7598 37.3129 47.7598Z" fill="#010101"/>
<path d="M32.7945 47.4319C34.0207 47.9699 35.3802 48.185 36.7123 48.0374C37.0918 47.9955 37.4673 47.9265 37.8363 47.8288C38.03 47.7775 37.9479 47.4765 37.7536 47.5279C36.518 47.8553 35.2041 47.8506 33.9697 47.5186C33.6224 47.4252 33.2813 47.3071 32.9519 47.1625C32.8749 47.1287 32.7847 47.1399 32.7387 47.2185C32.7 47.2847 32.717 47.3979 32.7945 47.4319Z" fill="#010101"/>
<path d="M33.5731 49.3853C34.4269 50.1556 35.7335 50.3209 36.7514 49.7861C36.929 49.6927 36.7716 49.4236 36.5941 49.5168C35.7047 49.9842 34.5398 49.8382 33.7934 49.1648C33.6449 49.0307 33.4238 49.2506 33.5731 49.3853Z" fill="#010101"/>
<path d="M38.2963 36.6619C38.6717 36.2744 39.1477 35.9807 39.6911 35.9143C39.7746 35.9041 39.8469 35.8499 39.8469 35.7583C39.8469 35.6819 39.7753 35.5921 39.6911 35.6024C39.0622 35.6793 38.5138 35.9893 38.0759 36.4414C37.9362 36.5856 38.1564 36.8065 38.2963 36.6619Z" fill="#010101"/>
<path d="M31.0755 35.909C31.4979 36.052 31.878 36.3052 32.1795 36.6377C32.2361 36.7001 32.3424 36.6952 32.3999 36.6377C32.4619 36.5756 32.4566 36.4797 32.3999 36.4172C32.063 36.0457 31.6326 35.7687 31.1582 35.6083C31.0784 35.5813 30.9879 35.6393 30.9666 35.7173C30.9432 35.8024 30.9954 35.8818 31.0755 35.909Z" fill="#010101"/>
<path d="M45.7629 37.0871C45.6045 37.2425 45.404 37.3538 45.1893 37.4087C44.9791 37.4625 44.7754 37.3986 44.5636 37.3675C43.5451 37.218 42.5769 37.0237 41.5368 37.1082C40.5444 37.1888 39.5549 37.4619 38.7093 37.9985C38.4599 38.1568 38.1584 37.9968 38.3664 37.7209C38.5702 37.4506 38.8685 37.227 39.1529 37.0492C39.7394 36.6823 40.4199 36.4756 41.1042 36.3958C42.6143 36.2197 44.2259 36.5163 45.6845 36.8958C45.7423 36.9107 45.8124 36.9416 45.8119 37.0014C45.8118 37.0352 45.7872 37.0634 45.7629 37.0871Z" fill="#010101"/>
<path d="M29.0829 37.2345C29.532 37.1656 29.9898 37.1321 30.4388 37.2164C30.8364 37.2911 31.2101 37.4561 31.5604 37.655C31.7374 37.7554 31.909 37.865 32.0784 37.9779C32.189 38.0517 32.392 38.2384 32.5185 38.0955C32.6963 37.895 32.2888 37.5973 32.1649 37.483C31.5818 36.9452 30.869 36.6184 30.0822 36.5451C29.4672 36.4878 28.8356 36.5237 28.2377 36.6837C27.959 36.7583 27.6934 36.8635 27.4135 36.941C27.3448 36.9601 27.2148 36.9972 27.1972 37.0823C27.1791 37.17 27.2958 37.2628 27.3597 37.3116C27.8076 37.6542 28.35 37.3621 28.8274 37.277C28.9121 37.262 28.9973 37.2476 29.0829 37.2345Z" fill="#010101"/>
<path d="M30.9278 37.0307C30.6535 36.9069 30.3576 36.8306 30.0575 36.8091C29.9236 36.7994 29.7826 36.7968 29.6537 36.7882C29.216 36.7589 29.2282 37.3181 29.2371 37.6488C29.25 38.1221 29.3947 38.6953 29.7708 39.0119C30.1081 39.2959 30.6074 39.4217 31.0395 39.3377C31.5577 39.2368 31.7771 38.7607 31.7704 38.2716C31.7669 38.0232 31.715 37.7705 31.6209 37.5405C31.5048 37.2573 31.195 37.1514 30.9278 37.0307Z" fill="#010101"/>
<path d="M43.3586 38.201C43.3896 38.0265 43.3944 37.8466 43.3801 37.6711C43.3584 37.4059 43.3094 36.8834 43.0434 36.754C42.5485 36.5132 41.9399 36.4125 41.397 36.4954C41.3683 36.4998 41.3393 36.5037 41.3106 36.5081C41.1356 36.535 40.8975 36.5606 40.7867 36.7189C40.7035 36.8379 40.6727 37.0405 40.6417 37.18C40.569 37.5082 40.5477 37.8527 40.5971 38.1856C40.6985 38.869 41.1408 39.4009 41.8593 39.4402C42.4002 39.4699 42.8907 39.1715 43.1691 38.7158C43.2658 38.5577 43.3263 38.3823 43.3586 38.201Z" fill="#010101"/>
<path d="M38.59 31.749C38.87 31.5901 39.1877 31.4984 39.5061 31.4407C40.4292 31.2733 41.3989 31.3798 42.2664 31.7363C42.7899 31.9514 44.0465 32.525 43.5438 33.2818C43.3181 33.6213 42.8226 33.5839 42.4542 33.5948C41.7604 33.6155 41.0667 33.6361 40.3728 33.6511C40.0085 33.6589 39.6441 33.6651 39.28 33.669C38.9759 33.6722 38.6255 33.725 38.3362 33.6302C37.4405 33.3367 37.8256 32.294 38.4033 31.8697C38.4633 31.8257 38.5256 31.7856 38.59 31.749Z" fill="#010101"/>
<path d="M31.5301 32.3851C32.0046 32.709 32.4632 33.2124 31.958 33.6449C31.6136 33.9396 31.0537 33.9089 30.6303 33.9363C29.8935 33.9842 29.155 33.9229 28.4209 33.8633C28.1633 33.8424 27.9002 33.8152 27.6666 33.7044C26.9677 33.373 27.1118 32.3976 27.6703 32.0122C27.9154 31.843 28.2104 31.7602 28.5049 31.7159C29.3601 31.5871 30.2418 31.7641 31.0355 32.1081C31.1682 32.1655 31.3502 32.2624 31.5301 32.3851Z" fill="#010101"/>
<path d="M46.4845 15.5162C47.7275 16.5535 48.5458 17.9985 48.9848 19.5435C49.1662 20.1821 49.1387 20.6211 48.6862 21.1354C48.0788 21.8258 47.2047 21.8823 46.3414 21.8002C44.3373 21.6098 42.3756 20.9099 40.7398 19.7355C40.3029 19.4217 39.8849 19.0703 39.5705 18.6337C39.21 18.1332 38.9099 17.4018 39.1659 16.8036C39.4313 16.1834 39.8622 15.6096 40.337 15.1356C40.7997 14.6735 41.3719 14.1002 42.0415 14.0455C43.6378 13.9151 45.2623 14.4965 46.4845 15.5162Z" fill="#010101"/>
<path d="M42.0127 7.53026C43.0364 6.83363 44.3133 6.43268 45.5267 6.67783C46.7805 6.9311 47.8238 7.8434 48.513 8.92179C49.2094 10.0114 49.6898 11.3548 50.0299 12.5922C50.5122 12.7306 50.9117 13.0871 51.1814 13.5105C51.4512 13.9339 51.6025 14.4218 51.7113 14.912C52.0525 16.4515 52.0676 18.1069 51.5774 19.6167C51.3278 20.3855 50.941 21.0748 50.4353 21.703C50.2056 21.9882 50.0768 22.3017 49.7447 22.4972C49.4129 22.6926 49.0103 22.7645 48.6305 22.7823C46.8508 22.8659 45.1035 22.1074 43.7284 20.9735C42.187 19.7025 41.2249 18.0234 40.1096 16.4035C39.1326 14.9842 38.8354 13.3611 39.2344 11.6785C39.624 10.0353 40.6087 8.48576 42.0127 7.53026Z" fill="#010101"/>
<path d="M48.7754 17.8528C49.014 16.6997 48.9756 15.5003 48.6585 14.3659C48.6046 14.1729 48.3038 14.2549 48.3581 14.4489C48.6599 15.5284 48.7021 16.6718 48.4749 17.7699C48.4343 17.9657 48.7346 18.0495 48.7754 17.8528Z" fill="#010101"/>
<path d="M40.2217 15.5245C40.5969 15.0227 41.1022 14.5848 41.6936 14.3618C41.9944 14.2484 42.3104 14.1894 42.6321 14.1979C42.956 14.2063 43.2829 14.2604 43.6005 14.3217C44.2689 14.451 44.9308 14.6556 45.5336 14.9757C46.1359 15.2956 46.6543 15.7533 47.1148 16.253C47.6515 16.8354 48.0953 17.4985 48.4342 18.2145C48.5201 18.3957 48.7889 18.2377 48.7033 18.0572C48.3854 17.3858 47.9739 16.7615 47.4864 16.2013C47.0175 15.6627 46.4734 15.1549 45.8527 14.7961C45.2266 14.4341 44.5274 14.1977 43.822 14.0489C43.1511 13.9075 42.4452 13.7991 41.7764 14.0043C41.0307 14.2333 40.4141 14.7499 39.9526 15.3672C39.9021 15.4347 39.9416 15.5414 40.0085 15.5805C40.088 15.6271 40.171 15.5922 40.2217 15.5245Z" fill="#010101"/>
<path d="M49.9312 12.7213C50.1238 13.2796 50.239 13.8597 50.2695 14.4497C50.2798 14.6495 50.5916 14.6507 50.5812 14.4497C50.5492 13.8328 50.4331 13.2224 50.2318 12.6383C50.1667 12.4498 49.8654 12.5309 49.9312 12.7213Z" fill="#010101"/>
<path d="M53.2294 29.694C53.3399 29.2037 53.4032 28.6992 53.4619 28.265C53.6015 27.2315 53.6112 26.1758 53.4226 25.1477C53.1305 23.5539 52.3127 21.9453 50.9775 20.9797C50.3918 20.5561 50.1297 19.6909 49.6288 19.1321C49.0948 18.5362 48.4448 18.0433 47.7221 17.6991C46.8483 17.283 45.6242 16.9841 44.5279 17.0995C43.9545 16.6736 43.3084 16.3447 42.6286 16.1383C41.8599 15.905 41.0454 15.8275 40.246 15.9027C39.5012 15.9729 38.8035 16.3412 38.0714 16.2809C36.5011 16.1516 34.8981 16.4131 33.4514 17.0382C32.0735 17.6334 30.8088 18.5486 29.8692 19.725C29.6281 20.0268 29.4092 20.3468 29.2177 20.6824C26.9631 22.2143 25.6476 24.9654 25.285 27.7774C24.8434 31.2034 26.5216 32.5256 26.5216 32.5256C26.5216 32.5256 26.3893 25.8765 29.2346 24.0272C29.2346 24.0272 31.4435 21.0068 34.1297 22.486C34.2355 22.5442 34.3628 22.5479 34.4728 22.4981C35.4101 22.0744 39.9348 20.3619 44.6217 24.2969C44.6823 24.3477 44.7557 24.3802 44.8342 24.3894C45.3108 24.4452 47.1407 24.8691 47.4673 28.0854C47.4821 28.2309 47.572 28.3589 47.7043 28.4208C48.4364 28.7628 50.7277 30.1282 49.7329 33.4844C49.6983 33.6009 49.7233 33.7256 49.802 33.8183C50.0585 34.1206 50.5203 34.9575 49.5897 36.4454C49.4823 36.6171 49.6399 36.8323 49.8339 36.7746C50.3311 36.6264 51.0756 36.3284 51.7221 35.7595C51.9329 35.8036 51.9135 36.2085 52.0906 36.0767C52.8537 35.5095 53.0803 34.3859 53.2925 33.4904C53.5364 32.4613 53.6383 31.3692 53.4019 30.3287C53.3533 30.1148 53.295 29.9033 53.2294 29.694Z" fill="#010101"/>
<path d="M39.6633 16.1978C40.4851 16.011 41.3466 16.0228 42.1658 16.219C42.573 16.3165 42.97 16.4568 43.3457 16.6421C43.5346 16.7352 43.7183 16.8387 43.8956 16.9524C44.0539 17.054 44.2082 17.1567 44.3879 17.2174C44.5353 17.2671 44.693 17.2813 44.8474 17.2905C45.0845 17.3049 45.3213 17.3139 45.5577 17.3362C46.0208 17.3799 46.481 17.4591 46.9288 17.5859C47.7719 17.8245 48.5291 18.2465 49.1558 18.8609C49.8354 19.5273 50.3506 20.3355 50.8583 21.1344C50.9656 21.3033 51.2354 21.147 51.1274 20.977C50.6597 20.241 50.1849 19.5 49.589 18.8591C48.976 18.1997 48.2377 17.7035 47.3875 17.4041C46.9479 17.2492 46.4914 17.1461 46.0303 17.0805C45.7735 17.044 45.5155 17.0172 45.2566 17.0003C45.0601 16.9875 44.8597 16.9906 44.6645 16.9626C44.5097 16.9404 44.3722 16.883 44.2388 16.8029C44.055 16.6922 43.8791 16.5714 43.6901 16.4693C43.308 16.263 42.9016 16.0981 42.4838 15.9796C41.5411 15.7122 40.5364 15.6796 39.5805 15.897C39.3848 15.9416 39.4676 16.2422 39.6633 16.1978Z" fill="#010101"/>
<path d="M29.2332 24.0273C29.2332 24.0273 25.0923 26.314 28.9955 28.9273C29.1445 29.0269 29.336 28.8794 29.2762 28.7105C29.0938 28.1962 28.8481 27.3453 28.7864 26.3624C28.6752 24.5977 29.2332 24.0273 29.2332 24.0273Z" fill="#010101"/>
<path d="M27.4767 26.6325C27.5956 25.6309 28.205 24.7086 29.0678 24.1928C29.2399 24.0901 29.0833 23.8203 28.9105 23.9235C27.9451 24.5004 27.2971 25.518 27.1648 26.6325C27.1549 26.7163 27.2435 26.7885 27.3207 26.7885C27.4134 26.7885 27.4667 26.7166 27.4767 26.6325Z" fill="#010101"/>
<path d="M44.5458 24.1191C44.5458 24.1191 45.9403 26.4202 43.6953 28.457C43.6953 28.457 46.0153 27.989 45.8353 26.1518C45.6553 24.3144 44.5458 24.1191 44.5458 24.1191Z" fill="#010101"/>
<path d="M29.1781 20.5876C28.9066 21.227 28.7927 21.921 28.865 22.6134C28.8737 22.6971 28.9303 22.7693 29.0208 22.7693C29.0983 22.7693 29.1854 22.6977 29.1767 22.6134C29.1105 21.9793 29.1975 21.333 29.4472 20.7449C29.4801 20.6674 29.4704 20.5779 29.3912 20.5316C29.3258 20.4932 29.2111 20.5096 29.1781 20.5876Z" fill="#010101"/>
<path d="M34.4243 21.9775C33.8106 21.0752 33.8055 19.8343 34.4129 18.9274C34.525 18.7602 34.2551 18.604 34.1438 18.7701C33.4793 19.7621 33.4835 21.1475 34.1552 22.135C34.2674 22.2998 34.5376 22.144 34.4243 21.9775Z" fill="#010101"/>
<path d="M34.7112 21.6275C34.4745 20.902 34.601 20.0989 35.0442 19.4787C35.0931 19.4101 35.0562 19.3051 34.9883 19.2653C34.9099 19.2195 34.8242 19.2525 34.7751 19.3213C34.2876 20.0034 34.1507 20.9139 34.4106 21.7105C34.4726 21.9003 34.7737 21.819 34.7112 21.6275Z" fill="#010101"/>
<path d="M44.971 24.1544C46.3549 23.6714 47.6606 22.9716 48.8242 22.079C49.1537 21.826 49.4724 21.5597 49.7785 21.2786C49.9265 21.1426 49.7057 20.9226 49.5581 21.0581C48.5059 22.0241 47.3015 22.8186 46.0013 23.4092C45.6373 23.5745 45.2656 23.7219 44.8882 23.8537C44.7 23.9192 44.7808 24.2206 44.971 24.1544Z" fill="#010101"/>
<path d="M52.9104 29.7065C52.6277 30.4175 52.1005 31.0212 51.4423 31.4075C51.2693 31.509 51.4261 31.7787 51.5997 31.6768C52.3326 31.2469 52.8975 30.578 53.211 29.7895C53.2422 29.7112 53.177 29.6183 53.1022 29.5977C53.0134 29.5732 52.9416 29.6279 52.9104 29.7065Z" fill="#010101"/>
<path d="M47.8682 28.3768C48.6692 28.4444 49.466 28.1947 50.0994 27.7042C50.166 27.6526 50.1536 27.538 50.0994 27.4837C50.0337 27.4179 49.9458 27.4319 49.8791 27.4837C49.3108 27.9236 48.5813 28.125 47.8682 28.0649C47.6683 28.0481 47.6695 28.3601 47.8682 28.3768Z" fill="#010101"/>
<path d="M44.5448 17.067C43.8724 17.1377 43.2294 17.3877 42.6926 17.8005C42.1511 18.2169 41.7445 18.7798 41.508 19.4205C41.3744 19.7821 41.3024 20.1655 41.2892 20.5506C41.2822 20.7514 41.594 20.7512 41.6008 20.5506C41.6443 19.2946 42.4099 18.164 43.552 17.6475C43.8644 17.5062 44.2043 17.4148 44.5451 17.3789C44.6288 17.3702 44.7009 17.3136 44.7009 17.223C44.7006 17.1455 44.6289 17.0581 44.5448 17.067Z" fill="#010101"/>
<path d="M52.4355 35.0341C52.7164 34.9668 53.0137 34.9292 53.3287 34.9259C54.2694 34.9161 55.1533 35.5014 55.5584 36.3435C55.8756 37.0025 55.9153 37.7751 55.7498 38.4876C55.5843 39.2002 55.2239 39.8564 54.7791 40.4367C53.6502 41.9093 51.7239 43.0876 49.8305 43.1025C49.3108 43.1066 48.7925 42.8678 48.5022 42.4282C48.3314 42.1698 48.2567 41.8587 48.2259 41.5504C48.126 40.5524 48.5458 39.6108 48.9084 38.7041C49.2353 37.8868 49.6608 37.0942 50.2416 36.428C50.8226 35.7615 51.5684 35.2422 52.4355 35.0341Z" fill="#FDF7EC"/>
<path d="M49.7799 39.5227C50.5381 38.5673 51.5459 37.812 52.6816 37.3649C53.004 37.238 53.3354 37.1357 53.6729 37.0574C53.8682 37.0122 53.7856 36.7113 53.59 36.7566C52.3591 37.0418 51.2111 37.6573 50.2852 38.5169C50.0237 38.7598 49.7814 39.0225 49.5595 39.3021C49.5071 39.368 49.4952 39.4584 49.5595 39.5227C49.6137 39.5769 49.7273 39.5889 49.7799 39.5227Z" fill="#010101"/>
<path d="M51.2461 38.055C51.4973 38.1991 51.6802 38.4384 51.7486 38.7207C51.8236 39.0301 51.7464 39.3816 51.6158 39.6667C51.3788 40.1846 50.9283 40.5971 50.3558 40.6896C50.2728 40.703 50.2265 40.8065 50.247 40.8814C50.2714 40.97 50.3553 41.0038 50.4387 40.9903C50.9623 40.9057 51.4094 40.5712 51.7057 40.1402C52.0211 39.6815 52.2121 39.0248 52.0015 38.4869C51.8859 38.1916 51.6794 37.9438 51.4034 37.7855C51.2291 37.6857 51.072 37.9551 51.2461 38.055Z" fill="#010101"/>
<path d="M50.0534 42.2597C49.4424 43.9185 49.3357 45.7567 49.7416 47.4769C49.8246 47.8285 49.9205 48.2292 50.1952 48.4856C50.5213 48.7901 50.9832 48.7449 51.3039 48.4561C51.6232 48.1685 51.7226 47.6936 51.828 47.296C51.942 46.8654 52.0316 46.4286 52.0913 45.9871C52.2289 44.9697 52.1867 43.9491 51.9822 42.9434C51.957 42.8196 51.8105 42.7481 51.6947 42.78C51.566 42.8154 51.5062 42.9436 51.5315 43.0677C51.6945 43.8701 51.7474 44.6891 51.6779 45.5055C51.6435 45.91 51.5779 46.311 51.4901 46.7072C51.445 46.9114 51.3938 47.1143 51.3379 47.3158C51.2891 47.4917 51.2447 47.6755 51.1687 47.8421C51.1018 47.9885 51.0101 48.1259 50.8626 48.1981C50.7434 48.2565 50.6421 48.2438 50.5444 48.1722C50.5676 48.1892 50.5047 48.1345 50.4991 48.1287C50.4732 48.1017 50.4706 48.0986 50.4559 48.0782C50.4103 48.0141 50.3727 47.943 50.3417 47.8709C50.3286 47.8405 50.299 47.7541 50.2828 47.7008C50.2549 47.6085 50.2313 47.5148 50.2084 47.421C50.018 46.6422 49.9415 45.8399 49.9732 45.0389C50.009 44.1317 50.1902 43.236 50.5039 42.3843C50.5476 42.2658 50.4551 42.1281 50.3406 42.0966C50.2105 42.0606 50.0972 42.1407 50.0534 42.2597Z" fill="#010101"/>
<path d="M50.5437 92.5648C49.2991 79.9342 48.4154 67.4118 48.2734 54.7207C48.2734 54.7207 54.4796 57.9036 56.5999 59.5834L60.5311 67.4521L54.4022 93.2686L50.5437 92.5648Z" fill="#CADFF7"/>
<path d="M77.0037 93.2684C76.3457 88.7389 76.6205 89.9282 75.6558 84.4016C74.9628 80.4322 73.6902 72.2367 71.047 69.0582C68.7797 66.3317 65.5855 64.4362 62.4117 62.8573C58.5931 60.9573 54.9683 58.8908 50.875 56.8867L52.5742 92.9346L77.0037 93.2684Z" fill="#CADFF7"/>
<path d="M30.5698 60.4648C29.5454 69.2472 28.097 77.9801 26.2314 86.6228C26.156 86.9723 26.0696 87.3411 25.8203 87.5972C25.6065 87.8168 25.3034 87.9206 25.0114 88.0134C19.0183 89.9162 12.5229 90.2083 6.38335 88.851C5.55122 88.667 4.88225 90.5241 4.69743 89.6914C4.60581 89.2788 4.22809 88.983 4.36584 88.5833C5.71252 84.6756 7.65898 79.1815 9.43856 74.9234C10.2646 72.9469 11.1905 70.9123 12.5287 69.2292C14.5993 66.6249 17.6199 65.241 20.6058 63.9566C23.8375 62.5664 27.1953 61.4699 30.6248 60.6871L30.5698 60.4648Z" fill="#CADFF7"/>
<path d="M29.7892 64.491C27.1321 66.1374 24.6652 68.0913 22.4573 70.3047C22.3313 70.431 22.2062 70.5581 22.082 70.686C21.943 70.829 21.7824 70.9687 21.6677 71.1325C21.5333 71.3243 21.5117 71.5434 21.5452 71.7692C21.5612 71.8778 21.5784 71.9863 21.5955 72.0947C21.6484 72.4261 21.7046 72.7569 21.7629 73.0873C21.969 74.2554 22.1991 75.4191 22.439 76.5806C22.8378 78.51 23.2673 80.433 23.7128 82.3521C24.3624 85.1499 25.0481 87.9394 25.7551 90.7232C25.8606 91.1384 25.9666 91.5535 26.073 91.9683C26.1229 92.1627 26.4234 92.0803 26.3734 91.8854C25.6331 88.9986 24.9144 86.1062 24.232 83.205C23.7595 81.1962 23.3037 79.1834 22.8785 77.1642C22.6148 75.912 22.3622 74.6576 22.1338 73.3986C22.0657 73.0235 21.9999 72.648 21.9379 72.2717C21.893 71.9996 21.754 71.5681 21.9134 71.324C22.0142 71.1696 22.174 71.0383 22.3021 70.9064C22.4376 70.7668 22.5741 70.6281 22.7117 70.4906C22.9869 70.2155 23.266 69.9443 23.5492 69.6773C24.1153 69.1432 24.6968 68.6256 25.2929 68.1253C26.4749 67.1332 27.7146 66.2104 29.0037 65.362C29.3152 65.1571 29.6295 64.9566 29.9464 64.7602C30.1168 64.655 29.9605 64.385 29.7892 64.491Z" fill="#010101"/>
<path d="M24.6069 62.3137C23.6119 63.4941 22.6916 64.7376 21.8565 66.0364C21.7663 66.1767 21.6192 66.3381 21.6099 66.5114C21.6016 66.6645 21.7001 66.8093 21.8433 66.8612C21.9277 66.8918 22.0259 66.8977 22.1143 66.9127C22.2196 66.9306 22.3248 66.9488 22.43 66.9672C22.9681 67.0614 23.5053 67.1608 24.0406 67.2696C24.6078 67.385 25.1799 67.5023 25.732 67.6784C25.9235 67.7395 26.0056 67.4384 25.8149 67.3777C25.3585 67.2322 24.8879 67.1296 24.4196 67.0304C23.8917 66.9186 23.3614 66.818 22.8303 66.7227C22.6195 66.6848 22.4083 66.648 22.1972 66.612C22.155 66.6048 22.1125 66.5976 22.0703 66.5905C22.0352 66.5845 21.9799 66.5855 21.9486 66.5685C21.9265 66.5565 21.9203 66.5415 21.9223 66.5189C21.9246 66.4931 21.9555 66.461 21.969 66.4395C21.9982 66.3933 22.0275 66.3472 22.0569 66.301C22.4523 65.6814 22.8668 65.074 23.2997 64.4801C23.7857 63.8135 24.2957 63.1647 24.8274 62.534C24.956 62.3817 24.7366 62.1599 24.6069 62.3137Z" fill="#010101"/>
<path d="M50.2092 62.9522C51.8576 64.1234 53.4109 65.4265 54.8517 66.8458C55.5699 67.5534 56.2601 68.2895 56.92 69.0519C57.247 69.4296 57.5662 69.8136 57.8781 70.2038C58.0403 70.407 58.2005 70.6117 58.3583 70.8182C58.5001 71.0039 58.7108 71.209 58.778 71.437C58.8515 71.6865 58.7228 72.0299 58.6698 72.2801C58.6038 72.5926 58.5374 72.905 58.4708 73.2173C58.2829 74.0992 58.0936 74.9808 57.9028 75.8619C57.6588 76.9892 57.4126 78.1159 57.1636 79.2422C56.8859 80.4983 56.6049 81.7537 56.3195 83.0082C56.0321 84.2711 55.7401 85.5329 55.4407 86.793C55.1638 87.9585 54.881 89.1227 54.5854 90.2837C54.3444 91.23 54.0965 92.1751 53.8238 93.1128C53.6462 93.7238 53.4681 94.3425 53.2223 94.9304C53.2365 94.8964 53.2113 94.9562 53.206 94.9685C53.1965 94.9901 53.1868 95.0117 53.177 95.033C53.1588 95.0726 53.1396 95.1118 53.1195 95.1505C53.0269 95.3282 53.2957 95.4862 53.3886 95.308C53.6403 94.8244 53.7955 94.2825 53.9549 93.7636C54.2228 92.892 54.4596 92.0106 54.6898 91.1284C54.9843 89.9994 55.2635 88.8666 55.5365 87.7324C55.8407 86.4684 56.1363 85.2024 56.4271 83.9353C56.7218 82.6511 57.0112 81.3657 57.297 80.0794C57.5575 78.9073 57.8148 77.7346 58.0697 76.5614C58.2753 75.6155 58.4791 74.6692 58.6812 73.7226C58.8093 73.1228 58.9368 72.523 59.0633 71.923C59.1192 71.6574 59.1364 71.3999 58.9924 71.1543C58.8671 70.9405 58.6923 70.7448 58.5413 70.5486C58.3895 70.3513 58.236 70.1554 58.0805 69.9611C57.4447 69.1664 56.777 68.3972 56.0795 67.6562C54.6881 66.1776 53.1782 64.813 51.5705 63.5736C51.175 63.2687 50.7733 62.9719 50.3663 62.6828C50.2027 62.5664 50.0469 62.8368 50.2092 62.9522Z" fill="#010101"/>
<path d="M55.9318 67.5535C56.5969 67.2832 57.2618 67.0129 57.9269 66.7427C58.2565 66.6087 58.5859 66.4749 58.9155 66.3409C59.0734 66.2768 59.234 66.2171 59.3891 66.1465C59.5109 66.091 59.6311 66.0106 59.6964 65.8898C59.862 65.5832 59.6119 65.2306 59.4773 64.9617C59.3177 64.6433 59.158 64.3248 58.9984 64.0064C58.6763 63.3637 58.3542 62.721 58.032 62.0784C57.6692 61.3546 57.3064 60.631 56.9436 59.9072C56.8537 59.7277 56.5848 59.8855 56.6745 60.0647C57.287 61.2863 57.8992 62.508 58.5116 63.7297C58.6626 64.0307 58.8134 64.3318 58.9644 64.633C59.0428 64.7892 59.1212 64.9457 59.1996 65.1019C59.2706 65.2438 59.357 65.3859 59.4107 65.5353C59.4547 65.6573 59.448 65.7555 59.3314 65.8258C59.2105 65.8988 59.0709 65.9436 58.9405 65.9965C58.6229 66.1256 58.3055 66.2545 57.9879 66.3835C57.275 66.6733 56.562 66.963 55.8489 67.2528C55.771 67.2844 55.7159 67.3566 55.7402 67.4446C55.7606 67.5185 55.8535 67.5854 55.9318 67.5535Z" fill="#010101"/>
</g>
</svg>
