<svg width="80" height="80" viewBox="0 0 80 80" fill="none" xmlns="http://www.w3.org/2000/svg">
<mask id="mask0_2492_26637" style="mask-type:alpha" maskUnits="userSpaceOnUse" x="0" y="0" width="80" height="80">
<circle cx="40" cy="40" r="40" fill="#C3DEF7"/>
</mask>
<g mask="url(#mask0_2492_26637)">
<circle cx="40" cy="40" r="40" fill="#CADFF7"/>
<path d="M31.0949 78.4164C30.7519 79.6602 30.4045 80.9156 29.7972 82.0536C28.4992 84.4856 26.0928 86.1877 23.4989 87.117C20.9051 88.0463 18.1159 88.2758 15.3619 88.349C11.9043 88.4408 8.44065 88.2984 5.0023 87.9235C3.90451 87.8038 2.74866 87.6357 1.8849 86.9474C0.0970662 85.5229 1.45534 83.1051 2.16268 81.4862C3.27401 78.9426 4.51816 76.3641 5.91871 73.9293C7.33099 71.474 9.0728 68.4245 11.258 66.5792C12.8772 65.2117 14.7599 64.3375 16.7125 63.5337C18.6776 62.7247 20.9686 61.9631 22.9926 61.319C26.7979 60.1081 30.3207 58.9834 34.0967 57.6996C34.6645 57.5067 35.4215 57.0891 35.9663 57.5459C37.0004 58.4138 35.9651 60.7491 35.6924 61.7382C35.1774 63.6066 34.6623 65.4748 34.1473 67.3432C33.1298 71.0342 32.1123 74.7253 31.0949 78.4164Z" fill="#010101"/>
<path d="M50.9071 78.4164C51.25 79.6602 51.5975 80.9156 52.2048 82.0536C53.5028 84.4856 55.9092 86.1877 58.503 87.117C61.0969 88.0463 63.8861 88.2758 66.6401 88.349C70.0977 88.4408 73.5613 88.2984 76.9997 87.9235C78.0973 87.8038 79.2533 87.6357 80.1171 86.9474C81.9049 85.5229 80.5466 83.1051 79.8393 81.4862C78.7279 78.9426 77.4838 76.3641 76.0833 73.9293C74.671 71.474 72.9292 68.4245 70.744 66.5792C69.1248 65.2117 67.242 64.3375 65.2895 63.5337C63.3243 62.7247 61.0334 61.9631 59.0094 61.319C55.2041 60.1081 51.6812 58.9834 47.9052 57.6996C47.3376 57.5067 46.5805 57.0891 46.0357 57.5459C45.0017 58.4138 46.0369 60.7491 46.3096 61.7382C46.8246 63.6066 47.3396 65.4748 47.8547 67.3432C48.8722 71.0342 49.8896 74.7253 50.9071 78.4164Z" fill="#010101"/>
<path d="M22.2031 68.6266C23.7329 65.7083 26.8888 60.3754 27.8539 58.7528C28.0461 58.4297 28.2911 58.1428 28.5804 57.9028C29.5064 57.1347 31.7538 55.3165 33.9532 53.8867C34.1523 53.7573 34.3799 53.6793 34.6161 53.6552C36.4271 53.4713 44.5704 52.7185 48.4278 53.6263C48.5989 53.6666 48.7603 53.7348 48.9078 53.8307C49.5914 54.2749 51.7852 55.7542 53.7397 57.6634C53.9865 57.9045 54.1959 58.1808 54.3575 58.4858C55.1882 60.0518 57.9841 65.4577 59.0387 69.2258C60.2839 73.6742 22.2031 68.6266 22.2031 68.6266Z" fill="#010101"/>
<path d="M50.2209 72.6692H31.9485C31.9485 72.6692 26.3746 60.9468 30.5137 58.7282C33.0044 57.3931 33.991 56.7775 34.3805 56.499C34.54 56.3846 34.6407 56.207 34.6543 56.0098C34.7581 54.5031 34.8017 52.9182 34.7836 51.3166C34.7536 48.4854 34.5294 45.5984 34.0903 42.9824H48.0792C47.3919 47.0795 47.2294 51.8404 47.5152 56.0098C47.5287 56.207 47.6295 56.3846 47.7889 56.499C48.1785 56.7775 49.1651 57.3931 51.6558 58.7282C55.7947 60.9468 50.2209 72.6692 50.2209 72.6692Z" fill="#FDF7EC"/>
<path d="M47.3968 46.1599C47.1066 47.1759 46.5892 48.2641 46.0808 49.1898C44.7829 51.556 42.4877 53.2102 39.7248 53.2463C39.3142 53.2508 38.9097 53.2192 38.5156 53.1545C37.1139 52.9212 35.8264 52.2619 34.7871 51.3166C34.757 48.4854 34.5329 45.5984 34.0938 42.9824H47.5127C47.7232 44.033 47.6915 45.1318 47.3968 46.1599Z" fill="#010101"/>
<path d="M49.8595 56.6719C48.3748 61.5687 41.9684 63.8727 37.4174 62.0924C35.2277 61.2358 33.4057 59.3913 32.7465 57.1328L29.5197 58.7847L27.5 81.8246L53.9213 79.8336L52.0338 58.1283L49.8595 56.6719Z" fill="#FFE4C0"/>
<path d="M31.2673 60.3255C31.7882 61.7913 32.7123 63.0899 33.8713 64.1206C35.0652 65.1822 36.5003 65.971 38.0349 66.4134C39.6016 66.8651 41.2568 66.9343 42.8552 66.611C44.4281 66.293 45.9328 65.6092 47.2101 64.6374C48.4536 63.6914 49.5022 62.4688 50.1531 61.0409C50.2321 60.8677 50.3054 60.6917 50.3732 60.5138C50.4022 60.4378 50.3411 60.3487 50.2682 60.3287C50.1835 60.3054 50.1122 60.3576 50.0832 60.4337C49.5446 61.8473 48.6043 63.0833 47.4555 64.0575C46.2699 65.0629 44.8506 65.794 43.348 66.1878C41.8225 66.5876 40.2194 66.6199 38.6812 66.2692C37.1719 65.925 35.7355 65.2391 34.5224 64.2759C33.341 63.3379 32.3617 62.1382 31.7561 60.751C31.6836 60.585 31.6181 60.4161 31.5575 60.2454C31.493 60.0642 31.2021 60.1423 31.2673 60.3255Z" fill="#010101"/>
<path d="M26.8651 32.8265C26.1366 33.1923 25.5927 33.9115 25.4459 34.7146C25.0675 36.784 26.4443 39.0895 28.1371 40.2116C28.9276 40.7355 30.0278 40.9643 30.8809 40.437C31.5636 40.0151 31.7631 39.0756 31.866 38.3287C32.0032 37.3329 31.4428 36.0272 31.0304 35.1323C30.3089 33.5669 28.8443 31.9452 26.9718 32.7759C26.9358 32.792 26.9002 32.8089 26.8651 32.8265Z" fill="#FDF7EC"/>
<path d="M53.9907 32.8265C54.7193 33.1923 55.263 33.9115 55.41 34.7146C55.7884 36.784 54.4116 39.0895 52.7188 40.2116C51.9283 40.7355 50.8281 40.9643 49.975 40.437C49.2923 40.0151 49.0927 39.0756 48.9899 38.3287C48.8527 37.3329 49.4131 36.0272 49.8255 35.1323C50.5468 33.5669 52.0116 31.9452 53.8841 32.7759C53.9201 32.792 53.9556 32.8089 53.9907 32.8265Z" fill="#FDF7EC"/>
<path d="M51.6869 40.0638C51.5767 40.0749 51.4368 40.0955 51.3019 40.1333C51.1742 40.169 51.088 40.2887 51.094 40.4211C51.1113 40.8045 51.1573 41.5977 51.2456 41.7183C51.3629 41.8783 52.1196 41.7716 52.2049 41.6116C52.2702 41.4892 52.0564 40.6404 51.9524 40.2483C51.9209 40.1297 51.8089 40.0514 51.6869 40.0638Z" fill="#FDF7EC"/>
<path d="M29.5633 38.4258C29.9655 40.4024 30.7157 42.5426 31.8442 44.2167C33.1318 46.1268 34.4067 48.0733 36.0251 49.7254C36.7249 50.4397 37.4541 51.1798 38.3841 51.5874C39.4069 52.0355 40.7519 52.0307 41.8323 51.8129C43.2301 51.5311 44.1756 50.4084 45.0715 49.3885C46.1076 48.2089 47.0565 46.9527 47.9089 45.634C48.917 44.074 49.7847 42.4264 50.5141 40.7183C51.5579 38.2741 51.7883 35.5596 52.0418 32.9275C52.3015 30.2297 52.8156 27.765 52.479 25.02C52.298 23.5441 52.0099 22.0633 51.3813 20.7162C49.6502 17.0055 45.398 14.6861 41.3617 14.9965C40.1561 15.0892 38.9773 15.3963 37.8195 15.745C36.6679 16.0918 35.5252 16.4827 34.4478 17.0175C31.7445 18.3591 29.4513 20.7145 28.6528 23.6266C28.2442 25.1171 28.2338 26.6867 28.3108 28.2302C28.4797 31.6192 28.8867 35.1005 29.5633 38.4258Z" fill="#FDF7EC"/>
<path d="M31.0321 34.5211C30.9325 34.4797 30.9061 34.3475 30.9792 34.2682C31.7847 33.3935 32.9291 32.8377 34.1151 32.7505C34.8453 32.6968 35.5862 32.8213 36.2631 33.0993C36.5847 33.2313 37.9446 33.8877 37.455 34.2336C37.3512 34.3069 37.2114 34.3028 37.1066 34.231C36.7053 33.9562 35.4654 33.2168 34.0598 33.4735C32.7631 33.7102 31.972 34.2209 31.6635 34.4557C31.5451 34.5459 31.3979 34.5893 31.25 34.5727C31.1766 34.5643 31.0987 34.5488 31.0321 34.5211Z" fill="#010101"/>
<path d="M35.6104 34.7326C35.6213 34.6648 35.6288 34.5973 35.6332 34.531C35.66 34.1231 35.6219 33.5286 35.3082 33.2287C34.9286 32.866 34.1187 32.9164 33.7102 33.1898C33.4014 33.3964 33.3852 33.8505 33.3916 34.2019C33.4008 34.6909 33.559 35.2449 33.9597 35.5579C34.2579 35.7907 34.6971 35.7963 35.0316 35.642C35.382 35.4805 35.5499 35.1044 35.6104 34.7326Z" fill="#010101"/>
<path d="M34.9718 28.5506C35.454 28.6909 36.04 29.0221 35.994 29.6081C35.9482 30.192 35.331 30.3947 34.8414 30.4741C34.1103 30.5924 33.3717 30.6544 32.6343 30.7167C32.1913 30.7542 31.5417 30.7701 31.3986 30.228C31.3294 29.9661 31.4189 29.6801 31.5845 29.4657C32.076 28.8299 33.1046 28.5187 33.87 28.4371C34.1574 28.4064 34.5794 28.4363 34.9718 28.5506Z" fill="#010101"/>
<path d="M49.7247 34.0143C49.8209 33.9656 49.8375 33.8318 49.7587 33.7581C48.8901 32.946 47.7074 32.477 46.5184 32.4785C45.7862 32.4794 45.0566 32.6588 44.4022 32.9865C44.0913 33.1422 42.784 33.8982 43.2981 34.2065C43.407 34.2718 43.5463 34.2573 43.6454 34.1779C44.0252 33.8738 45.2064 33.044 46.6271 33.1951C47.938 33.3345 48.7649 33.7849 49.09 33.9959C49.2148 34.077 49.3647 34.1092 49.5109 34.0817C49.5837 34.068 49.6601 34.0468 49.7247 34.0143Z" fill="#010101"/>
<path d="M45.1705 34.5651C45.1544 34.4984 45.1421 34.4315 45.1328 34.3658C45.0756 33.9611 45.0693 33.3653 45.3599 33.0429C45.7115 32.6529 46.5229 32.6428 46.9507 32.8849C47.274 33.0679 47.3241 33.5195 47.3438 33.8703C47.3712 34.3588 47.2545 34.923 46.8783 35.2649C46.5983 35.5194 46.1608 35.5576 45.8156 35.4288C45.4537 35.2939 45.2585 34.9313 45.1705 34.5651Z" fill="#010101"/>
<path d="M44.3876 28.116C43.9172 28.292 43.3576 28.666 43.447 29.247C43.5362 29.8259 44.1668 29.982 44.6609 30.0246C45.3988 30.0881 46.14 30.0948 46.8799 30.1018C47.3245 30.1062 47.9735 30.0737 48.0758 29.5223C48.1253 29.2559 48.0147 28.9775 47.8336 28.7761C47.2962 28.1786 46.2474 27.945 45.4777 27.9208C45.189 27.9116 44.7704 27.973 44.3876 28.116Z" fill="#010101"/>
<path d="M38.2258 40.0004C38.2995 39.9265 38.3662 39.8849 38.4598 39.8636C38.4745 39.8603 38.4491 39.863 38.4746 39.861C38.4849 39.8603 38.4955 39.8597 38.5058 39.8594C38.5162 39.8591 38.5268 39.8592 38.5371 39.8597C38.5364 39.8597 38.577 39.8627 38.564 39.8612C38.5898 39.8642 38.6539 39.8813 38.6919 39.8953C38.7167 39.9045 38.7089 39.9012 38.733 39.9128C38.7563 39.9239 38.779 39.9358 38.8014 39.9485C38.8477 39.9745 38.8922 40.0037 38.9355 40.0344C39.0143 40.0907 39.0938 40.1596 39.1702 40.2286C39.2305 40.2831 39.3234 40.2882 39.3829 40.2286C39.438 40.1733 39.4435 40.0704 39.3829 40.0157C39.1935 39.8449 38.9876 39.6735 38.7408 39.5944C38.4723 39.5083 38.2089 39.5911 38.0128 39.7876C37.8761 39.9248 38.0888 40.1377 38.2258 40.0004Z" fill="#010101"/>
<path d="M41.0056 40.1675C41.0411 40.1282 41.0793 40.0916 41.1204 40.0584C41.1383 40.0439 41.1256 40.0555 41.1149 40.0624C41.1199 40.0591 41.1246 40.0552 41.1295 40.0516C41.1405 40.0436 41.1517 40.0358 41.1629 40.0283C41.1855 40.0131 41.2086 39.9989 41.2324 39.9857C41.2548 39.9732 41.2777 39.9614 41.301 39.9507C41.3079 39.9476 41.3148 39.9446 41.3216 39.9414C41.3394 39.9333 41.2926 39.9528 41.3108 39.9461C41.3234 39.9413 41.336 39.9361 41.3488 39.9315C41.4001 39.9131 41.4526 39.8993 41.506 39.8893C41.5836 39.875 41.6346 39.7769 41.611 39.7042C41.5842 39.6211 41.509 39.5836 41.426 39.5991C41.1852 39.6437 40.957 39.773 40.7931 39.9547C40.7403 40.0131 40.7311 40.1106 40.7931 40.1675C40.8504 40.2203 40.9492 40.2298 41.0056 40.1675Z" fill="#010101"/>
<path d="M48.6414 36.17C48.5384 36.7388 49.3919 36.4811 49.3721 36.0719C49.3485 35.5842 48.7082 35.8005 48.6414 36.17Z" fill="#010101"/>
<path d="M38.1973 44.4035C39.5656 44.5722 40.9519 44.5664 42.3189 44.3859C42.3994 44.3752 42.4693 44.3243 42.4693 44.2354C42.4693 44.1624 42.4 44.0742 42.3189 44.0849C40.9521 44.2653 39.5658 44.2712 38.1973 44.1025C38.1165 44.0925 38.0469 44.1788 38.0469 44.253C38.0469 44.3426 38.1164 44.3934 38.1973 44.4035Z" fill="#010101"/>
<path d="M38.6652 46.0791C39.6395 46.428 40.7277 46.4323 41.7049 46.0918C41.8865 46.0284 41.8083 45.7376 41.625 45.8014C40.6931 46.1263 39.6744 46.1216 38.7452 45.7888C38.5626 45.7235 38.484 46.0143 38.6652 46.0791Z" fill="#010101"/>
<path d="M25.5287 23.8312C25.3206 24.491 25.1499 25.1628 25.0181 25.8422C24.8626 26.6447 24.7934 27.5261 24.349 28.2379C24.081 28.6673 23.6539 28.9667 23.271 29.2976C22.71 29.7822 22.2172 30.3694 21.9592 31.0648C21.6957 31.7748 21.7008 32.3663 22.1376 32.9916C22.5267 33.5487 23.1095 33.9677 23.7519 34.1823C24.728 34.5085 25.8134 34.397 26.7747 34.0293C27.3931 33.7928 27.9675 33.4549 28.5041 33.0693C28.9812 32.7264 29.2339 32.3543 29.6127 31.9348C30.4876 30.9665 31.2291 29.9671 31.7697 28.7697C32.7168 26.6724 33.0687 24.3527 33.1917 22.0546C33.2369 21.2123 33.251 20.3545 33.0319 19.54C32.8127 18.7256 32.3304 17.9486 31.5898 17.5458C30.3615 16.8778 28.8989 17.6319 28.1149 18.6607C27.1173 19.9695 26.3558 21.5132 25.7928 23.054C25.6993 23.3111 25.611 23.5702 25.5287 23.8312Z" fill="#010101"/>
<path d="M54.4979 21.8537C53.9694 20.064 52.8063 18.3 51.1404 17.3913C50.0864 16.8163 48.5034 16.5357 47.4393 17.2381C47.3528 17.2951 47.2769 17.3547 47.2064 17.4155C46.5309 17.7203 46.507 18.5145 46.528 19.3717C46.5638 20.835 46.727 22.292 47.0301 23.7244C47.2797 24.9043 47.9021 26.1464 49.0184 26.7159C49.3219 26.8708 49.6741 26.9778 50.0274 27.0188C50.0204 27.1265 50.0148 27.2162 50.0098 27.2792C49.8955 28.7333 49.9631 30.2311 50.3937 31.6328C50.517 32.0345 50.7752 32.379 50.9011 32.774C51.0691 33.3011 51.0839 33.9386 51.1433 34.4872C51.2453 35.4296 51.2976 36.3773 51.2998 37.3251C51.3004 37.5432 51.5641 37.6514 51.7163 37.4953C52.0528 37.1502 52.4843 36.7572 52.5953 36.6017C53.0216 36.0043 53.3731 35.3531 53.6385 34.6686C54.1061 33.4617 53.9448 32.1399 53.4001 30.9658C53.3032 30.757 53.3035 30.5176 53.4041 30.3112C53.9278 29.237 54.3422 27.9241 54.4408 27.5745C54.9682 25.7076 55.0506 23.7256 54.4979 21.8537Z" fill="#010101"/>
<path d="M48.0044 17.6123C47.264 16.5176 45.5576 14.9458 44.167 14.8093C42.2808 14.624 40.1898 15.4454 38.7482 16.6216C36.7752 18.2314 35.763 20.7851 35.5439 23.2677C35.376 25.1697 36.2324 27.4208 38.5156 26.8898C39.5444 26.6505 40.3841 25.8748 40.9334 24.9722C41.4826 24.0695 41.7807 23.0397 42.0676 22.0225C42.2324 21.4379 42.5285 19.4504 43.2347 19.2797C43.3816 19.2442 43.5355 19.2757 43.6826 19.3104C44.7388 19.5604 45.808 19.9826 46.7094 20.5956C47.1415 20.8894 47.304 21.1281 47.8259 20.8329C48.2372 20.6004 48.524 20.1276 48.5961 19.6678C48.7093 18.946 48.4135 18.2171 48.0044 17.6123Z" fill="#010101"/>
<path d="M37.4007 18.2367C37.0262 17.7535 36.3358 17.6597 35.726 17.6972C34.2936 17.785 31.2253 17.1517 30.0497 17.9754C28.1943 19.275 28.4574 22.3916 27.6941 24.5254C27.4812 25.1202 27.3412 25.7301 27.2268 26.3456C25.4388 28.6517 25.807 32.0204 26.8485 34.5913C27.3292 35.7778 28.1217 36.8848 29.2071 37.5401C29.3565 37.6303 29.544 37.4959 29.5054 37.3256C29.3295 36.5521 29.2459 35.0945 29.2103 34.8035C29.1036 33.9352 29.032 33.0626 28.992 32.1886C30.5756 31.9824 32.5035 30.6447 33.2492 29.7764C34.5114 28.3064 35.6898 25.7972 36.4165 24.0484C37.1466 22.2918 37.4595 21.6842 37.662 19.71C37.714 19.2011 37.714 18.641 37.4007 18.2367Z" fill="#010101"/>
<path d="M49.1446 18.8208C50.9281 18.7886 50.0637 16.3079 49.3819 15.2011C48.4582 13.7013 46.9428 12.558 45.3472 11.8975C43.4476 11.1114 41.5237 11.1481 39.5619 11.6117C37.8235 12.0225 36.1694 12.7236 34.5249 13.4215C32.6471 14.2184 30.7815 15.1654 28.8074 15.678C27.9157 15.9096 27.1001 16.2082 26.5397 16.9662C26.1083 17.5498 25.7454 18.4945 26.1572 19.179C26.6045 19.9227 28.0087 20.1825 28.7935 20.2436C31.0781 20.4216 33.3128 19.6295 35.4814 18.8888C36.8889 18.4081 38.3203 17.943 39.8032 17.7669C41.3629 17.5816 42.6346 17.9702 44.1263 18.3623C44.9207 18.5711 45.73 18.7814 46.5556 18.8057C47.2918 18.8274 47.9223 18.6522 48.6674 18.78C48.8441 18.8104 49.0027 18.8234 49.1446 18.8208Z" fill="#010101"/>
<path d="M48.4063 17.7183C48.4072 16.6939 48.0406 15.6913 47.3994 14.8954C47.2171 14.6691 47.0118 14.4628 46.7871 14.2787C46.6385 14.1569 46.4245 14.3687 46.5744 14.4915C47.5318 15.2765 48.1066 16.4784 48.1055 17.7183C48.1054 17.9121 48.4062 17.9124 48.4063 17.7183Z" fill="#010101"/>
<path d="M27.3615 20.001C28.4835 20.1151 29.6335 19.8505 30.5959 19.2633C30.7609 19.1626 30.61 18.9022 30.444 19.0034C29.5223 19.5657 28.4348 19.8091 27.3613 19.7C27.2804 19.6917 27.2109 19.7751 27.2109 19.8505C27.2111 19.9387 27.2803 19.9928 27.3615 20.001Z" fill="#010101"/>
<path d="M35.9833 25.2326C35.5682 23.9375 35.6253 22.5223 36.1375 21.2631C36.1681 21.1877 36.1042 21.0977 36.0325 21.0779C35.9464 21.0543 35.8782 21.1074 35.8475 21.1832C35.3172 22.4871 35.2638 23.9726 35.6933 25.3126C35.7521 25.4963 36.0426 25.4177 35.9833 25.2326Z" fill="#010101"/>
<path d="M50.0046 17.0237C50.0196 17.049 50.0328 17.0751 50.0446 17.1021C50.0396 17.09 50.0345 17.0782 50.0294 17.0661C50.0523 17.1206 50.0677 17.177 50.0762 17.2355C50.0743 17.2221 50.0726 17.2088 50.0708 17.1954C50.0784 17.254 50.0787 17.3125 50.0713 17.3711C50.0731 17.3577 50.075 17.3444 50.0768 17.331C50.0745 17.3468 50.072 17.3626 50.0687 17.3784C50.0605 17.4183 50.0628 17.4584 50.0838 17.4945C50.102 17.5256 50.1378 17.5555 50.1738 17.5637C50.2488 17.5809 50.3419 17.5412 50.3588 17.4585C50.3995 17.2579 50.3692 17.0487 50.2645 16.8716C50.2245 16.8039 50.1271 16.7734 50.0587 16.8176C49.9904 16.8617 49.9617 16.9511 50.0046 17.0237Z" fill="#010101"/>
<path d="M43.0316 19.2061C43.3863 18.6026 43.8608 17.8241 44.6636 17.8558C45.3765 17.8841 45.8933 18.5201 46.1257 19.1378C46.2806 19.5496 46.359 19.9849 46.4357 20.4166C46.45 20.4967 46.5476 20.5418 46.6207 20.5217C46.705 20.4985 46.7399 20.4168 46.7256 20.3365C46.5817 19.5281 46.4113 18.6425 45.7823 18.0581C45.5026 17.7982 45.1562 17.6111 44.7746 17.5643C44.3707 17.5148 43.9804 17.6611 43.6638 17.9066C43.2745 18.2084 43.0179 18.6357 42.7719 19.0543C42.6735 19.2215 42.9334 19.3731 43.0316 19.2061Z" fill="#010101"/>
<path d="M50.1659 27.1098C50.9862 27.2114 51.7812 26.7144 52.202 26.031C52.6755 25.2622 52.7197 24.3184 52.5837 23.4481C52.4971 22.8935 52.3376 22.3537 52.1784 21.8165C52.1235 21.6312 51.8333 21.7101 51.8885 21.8966C52.1423 22.7544 52.4048 23.6357 52.344 24.5406C52.2929 25.3031 51.987 26.0816 51.3297 26.5163C50.9836 26.7452 50.5804 26.8601 50.166 26.8088C50.0853 26.7988 50.0156 26.8851 50.0156 26.9593C50.0155 27.049 50.085 27.0997 50.1659 27.1098Z" fill="#010101"/>
<path d="M26.7544 34.0796C27.2079 33.8023 27.6299 33.4722 28.0061 33.0965C28.3216 32.7815 28.5866 32.4048 29.0189 32.2428C29.095 32.2144 29.1469 32.1411 29.1239 32.0577C29.1037 31.9845 29.0153 31.9239 28.9389 31.9526C28.7152 32.0363 28.5173 32.1558 28.3401 32.3163C28.1698 32.4704 28.0229 32.6485 27.863 32.813C27.4864 33.2007 27.0633 33.5377 26.6025 33.8196C26.4377 33.9205 26.5885 34.181 26.7544 34.0796Z" fill="#010101"/>
<path d="M30.2683 40.5283C30.0018 39.582 29.7994 38.6173 29.6689 37.6427C29.6581 37.5622 29.6075 37.4922 29.5185 37.4922C29.4456 37.4922 29.3573 37.5616 29.3681 37.6427C29.5023 38.6446 29.7041 39.6353 29.9783 40.6082C30.0306 40.7944 30.3211 40.7154 30.2683 40.5283Z" fill="#010101"/>
<path d="M50.7354 40.5713C51.1044 39.6612 51.4025 38.7239 51.6273 37.7678C51.6715 37.5793 51.3816 37.499 51.3372 37.6877C51.1124 38.6437 50.8141 39.5811 50.4453 40.4913C50.4148 40.5667 50.4786 40.6567 50.5503 40.6764C50.6365 40.7002 50.7048 40.6471 50.7354 40.5713Z" fill="#010101"/>
<path d="M34.0759 55.6543C32.9916 60.5373 32.3093 65.5097 32.0386 70.5043C32.0386 70.5043 32.0295 71.6362 33.2062 73.2641C33.3396 73.4488 33.4449 73.6523 33.5189 73.8677C33.9551 75.1388 35.4293 79.605 35.6473 82.5079C35.9037 85.9212 21.9766 82.2234 21.9766 82.2234L28.9891 58.387L34.0759 55.6543Z" fill="#010101"/>
<path d="M61.8368 77.0122C58.9618 80.3203 54.7829 82.4614 50.4203 82.8612C50.0831 82.892 49.728 82.9099 49.4217 82.7656C48.6005 82.3786 48.7284 80.4012 48.6514 79.6476C48.524 78.3993 48.4282 77.1478 48.3642 75.8946C48.32 75.0283 48.2085 74.154 48.4309 73.319C48.6484 72.5023 49.0962 71.8855 49.5314 71.1753C50.1818 70.1142 50.0273 68.9338 49.9948 67.7375C49.9574 66.3571 49.8725 64.9779 49.7403 63.6034C49.4806 60.8999 49.0384 58.214 48.4166 55.5703L53.322 58.5297L61.8368 77.0122Z" fill="#010101"/>
<path d="M12.682 69.3205C12.9002 70.8812 13.2224 72.4269 13.6465 73.9447C14.0696 75.4586 14.5943 76.9429 15.2126 78.3877C15.562 79.2041 15.9427 80.0071 16.3526 80.795C16.4419 80.9668 16.7016 80.8148 16.6123 80.6431C15.891 79.2567 15.262 77.8233 14.7317 76.3528C14.201 74.8814 13.7676 73.3748 13.4358 71.8462C13.2487 70.9838 13.0942 70.1144 12.972 69.2405C12.9607 69.16 12.858 69.1159 12.787 69.1355C12.7003 69.1591 12.6707 69.2396 12.682 69.3205Z" fill="#010101"/>
<path d="M68.1104 68.1185C67.8193 69.7172 67.4301 71.2976 66.9443 72.8484C66.4625 74.3866 65.8871 75.8954 65.2196 77.3625C64.8406 78.1958 64.4321 79.0154 63.9961 79.8202C63.9038 79.9906 64.1635 80.1427 64.2558 79.972C65.0333 78.537 65.7214 77.0541 66.3168 75.5345C66.9117 74.0163 67.4125 72.4613 67.8154 70.8813C68.0416 69.9943 68.2364 69.0993 68.4003 68.1986C68.4349 68.0091 68.1451 67.9278 68.1104 68.1185Z" fill="#010101"/>
<path d="M22.0859 70.2971C21.9992 70.2971 21.9124 70.2686 21.8384 70.2117C21.6914 70.0985 21.6405 69.9071 21.7112 69.7353C23.5623 65.2509 26.9529 59.9733 26.9868 59.9205C27.0317 59.8506 27.1246 59.8306 27.1947 59.8756C27.2645 59.9206 27.2846 60.0138 27.2395 60.0836C27.2057 60.1361 23.8297 65.3915 21.9893 69.8502C21.9616 69.9172 22.003 69.9585 22.0221 69.9731C22.0368 69.9847 22.09 70.0186 22.15 69.9735C23.9461 68.6098 28.4647 65.7669 31.6228 68.8092C31.6827 68.8668 31.6845 68.9621 31.6269 69.022C31.5693 69.0819 31.4741 69.0837 31.4142 69.0261C28.4229 66.1447 24.0662 68.8965 22.3317 70.2132C22.2582 70.2691 22.172 70.2971 22.0859 70.2971Z" fill="#010101"/>
<path d="M58.7152 69.5566C58.6335 69.5566 58.5515 69.5352 58.4772 69.4917C57.0328 68.6482 53.3825 66.9443 50.6877 69.3385C50.6256 69.3936 50.5306 69.3879 50.4754 69.3258C50.4203 69.2637 50.4259 69.1685 50.488 69.1133C53.33 66.589 57.1278 68.3551 58.6288 69.2316C58.7224 69.2863 58.7991 69.2351 58.8204 69.2181C58.8417 69.2012 58.9086 69.1383 58.8773 69.0356C57.8368 65.6294 55.1738 60.4064 55.1469 60.354C55.1091 60.28 55.1383 60.1893 55.2123 60.1514C55.2864 60.1133 55.3768 60.1428 55.4149 60.2169C55.4418 60.2694 58.1167 65.5158 59.165 68.9476C59.222 69.1342 59.16 69.3329 59.0072 69.4541C58.9215 69.5221 58.8187 69.5566 58.7152 69.5566Z" fill="#010101"/>
</g>
</svg>
