<svg width="80" height="81" viewBox="0 0 80 81" fill="none" xmlns="http://www.w3.org/2000/svg">
<mask id="mask0_2492_25881" style="mask-type:alpha" maskUnits="userSpaceOnUse" x="0" y="0" width="80" height="81">
<circle cx="40" cy="40.5" r="40" fill="#C3DEF7"/>
</mask>
<g mask="url(#mask0_2492_25881)">
<circle cx="40" cy="40.5" r="40" fill="#FFE4C0"/>
<path d="M50.4654 60.0791L38.8127 65.4914L33.9531 61.5197C34.2804 60.0157 34.5512 58.4997 34.7619 56.9751C35.1921 53.926 35.3925 50.8443 35.3617 47.7643L50.1226 38.8416L50.5922 38.5586C49.6891 45.6927 49.6445 52.9365 50.4654 60.0791Z" fill="#FDF7EC"/>
<path d="M48.9062 45.614C47.986 48.6477 46.3307 51.4979 43.9368 53.6021C41.4298 55.8058 38.0814 57.1194 34.7656 56.9754C35.1957 53.9262 35.3962 50.8445 35.3654 47.7645L50.1263 38.8418C50.1692 41.1501 49.5711 43.4189 48.9062 45.614Z" fill="#010101"/>
<path d="M54.5277 27.8324C54.454 31.1713 53.9057 34.476 52.8998 37.6589C52.7901 38.007 52.6753 38.3517 52.5553 38.6964C51.534 41.6135 50.1409 44.4019 48.4101 46.9623C46.5766 49.6805 44.3883 52.2528 41.4409 53.7911C39.6759 54.712 37.5939 54.983 35.6267 54.8647C33.8994 54.7584 31.6152 54.4377 30.4345 53.0383C29.3447 51.7452 28.8272 49.7645 28.3028 48.1868C27.7425 46.5044 27.2883 44.7878 26.9525 43.0471C26.9388 42.982 26.9268 42.9185 26.9148 42.8534C26.6166 41.2636 26.3253 39.5899 26.3082 37.9676C26.291 36.3006 26.459 34.6235 26.351 32.9531C26.2945 32.1008 26.1317 31.2605 26.0014 30.4167C25.6621 28.2234 25.5422 25.9957 25.645 23.7783C25.7907 20.5868 27.6225 18.1894 30.0764 16.2721C31.9682 14.7921 34.1222 13.626 36.4407 13.0017C38.0172 12.5764 39.6674 12.4066 41.2936 12.5456C42.793 12.6742 44.4072 12.8662 45.7986 13.4579C48.5524 14.6275 50.9308 16.6648 52.5074 19.208C52.8638 19.7825 53.1654 20.3827 53.4173 21.0001C54.2964 23.1472 54.5808 25.5138 54.5277 27.8324Z" fill="#FDF7EC"/>
<path d="M53.8462 34.8987C55.0224 34.1716 55.2923 33.1114 55.4859 31.8666C55.728 30.3094 55.9503 28.7629 56.0409 27.1876C56.1405 25.4589 56.2699 23.5463 55.9774 21.8312C55.5022 19.0443 53.7171 16.204 51.5969 14.386C49.4686 12.5612 46.7597 11.5257 44.0118 10.9739C41.6741 10.5043 39.0821 10.5069 36.7386 10.9462C34.3564 11.393 32.1698 12.313 30.5406 14.1549C30.0323 14.7294 29.6327 15.4253 29.5323 16.186C29.4301 16.9601 29.8224 17.2705 30.0448 17.9147C30.2439 18.491 30.0076 19.2794 30.1144 19.9096C30.3219 21.1354 30.9549 21.8835 32.0425 22.4889C33.3738 23.2299 35.0146 23.21 36.4891 22.827C37.9637 22.4441 39.3268 21.7305 40.7246 21.1241C41.9226 20.6043 43.3552 20.0147 44.687 20.0454C45.9132 20.0737 47.0048 21.0559 47.7545 21.9336C49.6254 24.1237 50.4971 26.9446 50.785 29.7715C50.9301 31.1966 50.9353 32.6336 50.8583 34.0632C50.8114 34.9351 50.6222 35.3202 51.6394 35.4111C52.4038 35.4792 53.1921 35.3029 53.8462 34.8987Z" fill="#010101"/>
<path d="M32.599 12.7285C30.0163 13.7448 27.7819 15.6149 26.3062 17.9652C24.6611 20.5849 25.1375 24.598 25.6807 27.5067C25.6807 27.5067 26.0611 25.9511 26.3202 25.0113C26.5793 24.0715 28.2694 19.8093 31.7669 19.0638C35.2642 18.3185 32.599 12.7285 32.599 12.7285Z" fill="#010101"/>
<path d="M52.9915 32.2912C53.4412 31.8585 53.9445 31.4871 54.5099 31.2269C55.59 30.7303 56.9971 30.6749 57.9726 31.4303C59.0196 32.2411 59.2348 33.9336 59.0124 35.1524C58.7862 36.3921 58.1183 37.5195 57.2721 38.4527C56.6237 39.1678 55.8501 39.7928 54.9467 40.1323C53.8228 40.5549 52.3362 40.5244 51.4875 39.5628C51.2149 39.2538 51.0519 38.8628 50.9373 38.4668C50.3869 36.5646 50.9587 34.7797 52.1421 33.2476C52.4022 32.9108 52.6843 32.5867 52.9915 32.2912Z" fill="#FDF7EC"/>
<path d="M57.068 33.3179C55.5838 33.596 54.1881 34.2966 53.0654 35.3053C52.7521 35.5867 52.462 35.893 52.1967 36.2202C52.1385 36.2921 52.1265 36.3926 52.1967 36.4627C52.2571 36.5231 52.3804 36.5349 52.439 36.4627C53.3568 35.3309 54.5839 34.4586 55.9576 33.9714C56.349 33.8325 56.7508 33.7252 57.159 33.6487C57.3757 33.608 57.2841 33.2774 57.068 33.3179Z" fill="#010101"/>
<path d="M53.3139 38.1838C53.9226 37.869 54.4875 37.3696 54.7523 36.7253C54.8942 36.3803 54.9319 35.9836 54.9161 35.6133C54.8986 35.2047 54.8033 34.8104 54.6431 34.435C54.6068 34.3498 54.4814 34.3309 54.4087 34.3735C54.3206 34.4251 54.3107 34.5227 54.3472 34.6081C54.485 34.9308 54.5614 35.282 54.5742 35.6324C54.5864 35.9646 54.5564 36.3197 54.4241 36.6282C54.1839 37.1885 53.671 37.6135 53.141 37.8875C52.9448 37.989 53.118 38.2852 53.3139 38.1838Z" fill="#010101"/>
<path d="M54.5283 27.8322C54.5109 28.6204 54.633 29.5252 54.369 30.2717C54.1171 30.9838 53.6224 31.5694 53.1727 32.1633C52.5027 33.0484 52.0837 34.1109 51.8945 35.2009C51.7011 36.3165 51.7372 37.4596 51.9007 38.5764C51.9663 39.024 52.1793 39.5735 52.0584 40.0159C51.9449 40.4309 51.7009 40.9116 51.5263 41.3091C50.6595 43.2816 49.6173 45.1771 48.4108 46.9619C46.5772 49.68 44.389 52.2524 41.4416 53.7907C39.6766 54.7116 37.5946 54.9825 35.6274 54.8642C33.9 54.7579 31.6158 54.4372 30.4352 53.0378C29.3453 51.7448 28.8278 49.764 28.3034 48.1863C27.7431 46.504 27.289 44.7873 26.9531 43.0467C27.0285 43.2851 27.1108 43.5217 27.1965 43.7567C27.594 44.8336 28.1287 46.0975 28.8432 47.0047C29.4824 47.8159 30.442 48.4178 31.4856 48.0886C31.938 47.9462 32.3475 47.7027 32.7759 47.5038C34.1811 46.8521 35.809 46.7338 37.3067 47.1076C38.8078 47.4815 40.1016 48.6322 41.7449 48.2995C43.222 48.0028 44.3461 46.6652 45.0881 45.4562C46.0135 43.9436 46.8463 42.3762 47.5848 40.7641C48.8495 38.0031 49.7954 35.074 50.1484 32.0489C50.3266 30.5226 50.3506 28.9809 50.2101 27.4512C50.0764 26.0107 49.7251 24.5015 50.2118 23.0867C50.486 22.2893 51.036 21.5673 51.79 21.1934C52.3007 20.9413 52.8593 20.9036 53.4179 20.9997C54.297 23.1471 54.5815 25.5137 54.5283 27.8322Z" fill="#010101"/>
<path d="M30.2724 19.5663C30.2786 18.5953 30.5959 17.6504 31.1688 16.8674C31.2235 16.7926 31.1813 16.6762 31.1073 16.6328C31.0204 16.5818 30.9277 16.6194 30.8729 16.6943C30.2662 17.5233 29.936 18.5396 29.9297 19.5663C29.9283 19.787 30.271 19.7872 30.2724 19.5663Z" fill="#010101"/>
<path d="M44.7828 19.7623C46.0214 19.4274 47.3678 19.5258 48.5481 20.0298C48.8869 20.1746 49.2104 20.3536 49.5152 20.5604C49.6983 20.6846 49.87 20.3875 49.6881 20.2642C48.5697 19.5052 47.189 19.142 45.8418 19.2377C45.4533 19.2653 45.0676 19.3298 44.6916 19.4315C44.479 19.4891 44.5691 19.8201 44.7828 19.7623Z" fill="#010101"/>
<path d="M50.9041 27.6186C51.2499 27.1125 51.7713 26.7299 52.3553 26.5461C52.9602 26.3555 53.6093 26.3896 54.1973 26.6246C54.535 26.7594 54.8429 26.9645 55.1017 27.2193C55.259 27.3744 55.5015 27.1319 55.344 26.9768C54.8256 26.4663 54.1388 26.1554 53.4155 26.0897C52.7241 26.0269 52.0162 26.2218 51.4433 26.6116C51.114 26.8357 50.8328 27.1166 50.6081 27.4455C50.4834 27.628 50.7802 27.7998 50.9041 27.6186Z" fill="#010101"/>
<path d="M44.0638 30.9546C44.7868 31.0698 45.4907 31.3378 46.0942 31.7546C46.402 31.9671 46.7044 32.2356 46.9354 32.5297C47.059 32.6871 47.1762 32.8665 47.04 33.0514C46.7783 33.4066 46.4068 33.083 46.1511 32.9219C45.2577 32.3591 44.286 32.0135 43.225 31.9566C42.0959 31.8961 41.0604 32.2356 40.0302 32.6609C39.8816 32.7223 39.7325 32.7882 39.5733 32.8096C39.4141 32.831 39.2398 32.8015 39.1219 32.6925C39.1153 32.6856 39.1084 32.6786 39.1017 32.6717C38.5561 32.0658 40.7667 31.2223 41.1599 31.1135C42.0966 30.8541 43.1042 30.8014 44.0638 30.9546Z" fill="#010101"/>
<path d="M30.3466 31.4063C31.0062 31.3614 31.6733 31.4456 32.3039 31.6474C32.6523 31.7589 33.0036 31.9347 33.2995 32.1551C33.4335 32.2547 33.5475 32.3917 33.5896 32.5555C33.6477 32.7815 33.544 33.0729 33.3058 33.1144C33.0313 33.1622 32.7589 32.9686 32.5304 32.8424C31.631 32.3447 30.5307 32.3715 29.5661 32.646C28.9802 32.8129 28.4255 33.0763 27.8744 33.3392C27.7079 33.4186 27.5314 33.5001 27.3485 33.4824C27.171 33.4653 26.9912 33.3125 26.9846 33.1195C26.9777 32.9216 27.1647 32.7572 27.3007 32.6426C28.1579 31.9206 29.239 31.4818 30.3466 31.4063Z" fill="#010101"/>
<path d="M32.4922 33.7481C32.5169 33.0146 32.1962 32.2396 31.5843 31.915C31.3307 31.7806 31.049 31.6775 30.7628 31.6979C30.1137 31.7442 29.9728 32.5638 29.948 33.0925C29.9151 33.7887 30.1812 34.9449 30.9071 35.2361C31.3004 35.3937 31.7737 35.2348 32.0593 34.9216C32.3369 34.6174 32.4773 34.1902 32.4922 33.7481Z" fill="#010101"/>
<path d="M45.2188 33.4362C45.2598 32.3901 44.6106 31.2675 43.5127 31.2233C43.3069 31.215 43.1034 31.2027 42.9433 31.3424C42.7723 31.4916 42.6547 31.706 42.5865 31.92C42.4933 32.2133 42.4834 32.5266 42.4973 32.8339C42.5165 33.2609 42.586 33.6953 42.7596 34.0886C42.9024 34.4123 43.1481 34.8196 43.4757 34.9762C43.8872 35.1727 44.4091 35.0249 44.7239 34.6949C45.0426 34.3609 45.2005 33.9063 45.2188 33.4362Z" fill="#010101"/>
<path d="M35.65 41.0674C35.7303 41.0674 35.8107 41.071 35.8907 41.0775C35.9908 41.0856 36.0796 41.0966 36.1604 41.1091C36.401 41.1461 36.6389 41.1993 36.8741 41.2617C36.9636 41.2854 37.0602 41.2319 37.0849 41.142C37.1094 41.053 37.0551 40.9549 36.9653 40.9311C36.539 40.8179 36.0931 40.7244 35.6501 40.7246C35.4294 40.7244 35.4289 41.0674 35.65 41.0674Z" fill="#010101"/>
<path d="M34.1983 32.1379C33.6322 33.5781 33.247 35.085 33.0405 36.6185C32.9369 37.389 32.8764 38.1649 32.8625 38.9422C32.8556 39.3267 32.8601 39.7112 32.8755 40.0955C32.8867 40.3716 32.9024 40.6537 32.9885 40.9183C33.0695 41.1677 33.2098 41.3922 33.4316 41.5383C33.6768 41.6998 33.9866 41.7276 34.2719 41.7022C34.3641 41.694 34.4433 41.6294 34.4433 41.5307C34.4433 41.4443 34.3646 41.351 34.2719 41.3593C34.0509 41.379 33.8161 41.3737 33.6223 41.2534C33.4753 41.1624 33.379 41.0072 33.3226 40.8383C33.2402 40.5913 33.2275 40.3336 33.2174 40.0755C33.2032 39.7112 33.1989 39.3464 33.2045 38.9819C33.2278 37.5039 33.4167 36.0305 33.7731 34.5958C33.9729 33.7913 34.2255 33.0004 34.5286 32.229C34.5626 32.1427 34.4914 32.0407 34.409 32.0181C34.3117 31.9915 34.2322 32.0515 34.1983 32.1379Z" fill="#010101"/>
<path d="M34.2392 44.0127C35.7915 44.4046 37.4544 44.2314 38.8953 43.5356C39.0939 43.4398 38.9204 43.1439 38.7224 43.2394C37.3665 43.8942 35.7893 44.0503 34.3303 43.6819C34.1165 43.6281 34.0251 43.9587 34.2392 44.0127Z" fill="#010101"/>
<path d="M45.7554 28.2796C46.1214 27.4237 45.262 26.6942 44.5548 26.4266C43.4634 26.0137 42.2519 25.9245 41.1118 26.173C40.7842 26.2445 40.4586 26.3448 40.1735 26.5213C39.7389 26.7904 39.4856 27.1802 39.5381 27.6979C39.5909 28.2203 40.1174 28.6144 40.5901 28.7559C40.9585 28.8661 41.3485 28.8744 41.733 28.8817C42.5268 28.897 43.3205 28.9123 44.1144 28.9275C44.7298 28.9395 45.4678 28.952 45.7554 28.2796Z" fill="#010101"/>
<path d="M32.3318 27.3209C32.6404 27.757 32.5078 28.4152 32.0857 28.7245C31.8731 28.8804 31.6174 28.9588 31.3664 29.0324C30.7107 29.2246 30.0501 29.4033 29.3791 29.5282C28.7948 29.6369 28.1059 29.8151 27.5551 29.5028C27.0332 29.2068 26.9576 28.5592 27.154 28.0139C27.4275 27.2538 28.2452 26.8747 28.9639 26.7212C29.8423 26.5336 30.8622 26.5155 31.705 26.8536C31.9485 26.9513 32.1777 27.1033 32.3318 27.3209Z" fill="#010101"/>
<path d="M82.3477 90.1544C80.815 84.9418 79.1312 79.5631 75.5066 75.5174C73.0235 72.7458 69.7858 70.7839 66.5992 68.8635C60.604 65.2509 54.6088 61.6382 48.6136 58.0254L39.0762 61.5091L33.5007 60.7434C29.129 62.461 23.8662 64.8732 19.7727 66.7783C15.8788 68.5907 11.494 70.4696 8.56993 73.6989C5.70805 76.8597 4.03643 80.899 2.62529 84.8677C2.17787 86.1261 1.75581 87.3933 1.3257 88.6577C0.821212 90.1407 0.347232 91.6341 -0.0957334 93.1367C-0.413092 94.2137 -0.714686 95.2951 -1 96.381L82.3477 90.1544Z" fill="#FFE4C0"/>
<path d="M43.716 88.7735C42.6616 82.2628 41.6072 75.7523 40.553 69.2416C41.3475 68.6283 41.762 67.5357 42.274 66.5466C42.6734 65.775 43.2262 64.6356 42.6119 63.8185C42.1736 63.2354 41.2818 63.2405 40.6284 63.1521C39.6642 63.0214 38.6924 62.962 37.7193 62.9826C37.0909 62.9958 35.7918 62.8689 35.24 63.252C34.5078 63.7602 34.5871 65.247 34.6046 65.9956C34.6259 66.9084 34.7998 67.7949 35.1014 68.6372C35.2532 69.0613 35.4285 69.3325 35.6849 69.4993C33.7706 75.937 32.0755 82.44 30.6094 88.9946L43.716 88.7735Z" fill="#010101"/>
<path d="M35.9637 69.3963C36.1457 68.7996 36.9386 68.7549 37.4508 68.7336C38.1012 68.7067 38.7529 68.7749 39.3835 68.9372C39.7382 69.0284 40.0861 69.1478 40.4209 69.2966C40.5054 69.3342 40.6052 69.3211 40.6554 69.2351C40.698 69.162 40.6788 69.0382 40.5938 69.0005C39.9315 68.7058 39.2351 68.5141 38.5149 68.4304C38.1556 68.3886 37.7928 68.3754 37.4314 68.3913C37.0753 68.4071 36.6992 68.4326 36.3654 68.5666C36.0283 68.7017 35.7418 68.9492 35.6333 69.3049C35.5687 69.5166 35.8993 69.6072 35.9637 69.3963Z" fill="#010101"/>
<path d="M49.9531 53.2656C49.9531 53.2656 48.6902 57.5435 39.0781 61.5094C39.0781 61.5094 42.4436 64.3896 44.9846 69.9482C44.9846 69.9482 50.9732 65.1025 53.9362 60.8247C53.9362 60.8247 51.6043 55.128 50.3051 53.3294L49.9531 53.2656Z" fill="#FFE4C0"/>
<path d="M39.0777 61.5086C39.0777 61.5086 34.4268 66.0256 32.4992 69.5255C32.4992 69.5255 30.483 66.4351 30.7702 61.8552C30.7702 61.8552 33.4485 56.902 34.4686 55.8974L34.8947 55.6875L34.7973 56.3495C34.7973 56.3495 36.1632 60.2204 39.0777 61.5086Z" fill="#FFE4C0"/>
<path d="M40.4691 63.0988C40.4208 63.0988 40.3728 63.0784 40.3388 63.0389C40.002 62.6455 39.6541 62.2936 39.4769 62.1189C39.4077 62.0506 39.3162 62.0131 39.2192 62.0131H38.9707C38.8725 62.0131 38.7769 62.0534 38.7084 62.1235C38.432 62.4068 37.9258 62.9292 37.9258 62.9292L37.6797 62.6903C37.6797 62.6903 38.1864 62.1674 38.463 61.8838C38.5954 61.748 38.7805 61.6699 38.9705 61.6699H39.219C39.4065 61.6699 39.5835 61.7425 39.7172 61.8743C39.9386 62.0925 40.2712 62.4329 40.599 62.8155C40.6605 62.8873 40.6523 62.9957 40.5805 63.0573C40.5483 63.0853 40.5087 63.0988 40.4691 63.0988Z" fill="#010101"/>
<path d="M32.1849 69.4296C32.1557 69.4296 32.1263 69.4265 32.0969 69.4203C31.9431 69.3874 31.8211 69.2722 31.7789 69.1199C31.0585 66.5221 30.5916 62.1822 30.5869 62.1388C30.5768 62.0446 30.645 61.9601 30.7391 61.9501C30.8351 61.9405 30.9177 62.0083 30.9276 62.1024C30.9322 62.1456 31.3963 66.4576 32.1091 69.0281C32.1208 69.0705 32.1547 69.0818 32.1688 69.0849C32.1852 69.0881 32.2172 69.0899 32.2429 69.0588C32.6897 68.519 33.5701 67.4537 34.3908 66.4549C34.4509 66.3818 34.559 66.3714 34.632 66.4314C34.705 66.4916 34.7157 66.5996 34.6555 66.6728C33.8345 67.672 32.9537 68.7374 32.5068 69.2775C32.426 69.375 32.3079 69.4296 32.1849 69.4296Z" fill="#010101"/>
<path d="M45.2947 69.738C45.2726 69.738 45.2504 69.7366 45.2281 69.7337C45.0781 69.7143 44.9445 69.631 44.861 69.5051C43.7378 67.8096 42.5694 65.9633 42.5578 65.9447C42.5072 65.8648 42.5311 65.7589 42.6111 65.7081C42.6911 65.6575 42.7968 65.6813 42.8476 65.7613C42.8592 65.7796 44.0255 67.6231 45.1467 69.3154C45.1755 69.359 45.22 69.3868 45.2719 69.3935C45.3234 69.4001 45.3741 69.3847 45.4133 69.3496C46.6445 68.2491 50.8668 64.4032 53.5072 61.1245C53.5666 61.0507 53.6746 61.039 53.7481 61.0986C53.8218 61.1581 53.8333 61.2661 53.774 61.3397C51.1172 64.6387 46.8776 68.5003 45.6414 69.6054C45.5454 69.6913 45.4221 69.738 45.2947 69.738Z" fill="#010101"/>
<path d="M13.9061 74.1643C13.5896 76.0471 13.3865 77.9488 13.3027 79.8561C13.2188 81.7621 13.2525 83.673 13.4037 85.5749C13.4887 86.6452 13.612 87.7124 13.7702 88.7742C13.7839 88.866 13.8994 88.9164 13.981 88.8939C14.0792 88.867 14.1143 88.7749 14.1006 88.683C13.8228 86.8182 13.6616 84.9361 13.6148 83.0512C13.568 81.165 13.6362 79.2758 13.8192 77.3978C13.9217 76.3457 14.0614 75.2977 14.2367 74.2554C14.2519 74.1641 14.2127 74.0707 14.117 74.0444C14.0348 74.0218 13.9215 74.0724 13.9061 74.1643Z" fill="#010101"/>
<path d="M71.4317 73.4642C69.6168 74.9756 67.9478 76.6607 66.4516 78.4884C64.9611 80.3092 63.6386 82.2671 62.5126 84.3336C61.8806 85.4934 61.3124 86.6868 60.806 87.9068C60.7705 87.9923 60.8444 88.0954 60.9256 88.1177C61.0241 88.1448 61.1007 88.0837 61.1364 87.9978C62.0316 85.8408 63.1365 83.7705 64.4214 81.821C65.7004 79.8804 67.1604 78.0611 68.7777 76.3923C69.6944 75.4461 70.6618 74.5496 71.674 73.7067C71.8438 73.5654 71.6001 73.3239 71.4317 73.4642Z" fill="#010101"/>
</g>
</svg>
