<svg width="80" height="80" viewBox="0 0 80 80" fill="none" xmlns="http://www.w3.org/2000/svg">
<mask id="mask0_2492_26859" style="mask-type:alpha" maskUnits="userSpaceOnUse" x="0" y="0" width="80" height="80">
<circle cx="40" cy="40" r="40" fill="#C3DEF7"/>
</mask>
<g mask="url(#mask0_2492_26859)">
<circle cx="40" cy="40" r="40" fill="#CADFF7"/>
<path d="M33.1357 15.9287C36.232 14.5699 39.8009 14.3626 43.0303 15.3662C43.7966 15.6044 44.359 15.8228 44.9502 16.2656C45.5649 16.7262 46.1357 17.2486 46.6582 17.8174C47.7241 18.9774 48.5903 20.3237 49.2598 21.7617C50.2844 23.9625 50.8557 26.3545 51.2061 28.7861C51.2448 29.0554 51.3175 29.3098 51.375 29.5205C51.4355 29.7423 51.4819 29.9258 51.5 30.1104C51.5559 30.6828 51.6012 31.294 51.6982 31.8984C51.8904 33.0945 52.1996 34.2719 52.6172 35.4092C52.8385 36.0113 53.1622 36.5251 53.4893 36.9941C53.8282 37.4801 54.1455 37.8862 54.4316 38.3535C54.653 38.7152 54.7251 39.1076 54.7285 39.5654C54.7302 39.7969 54.7146 40.0371 54.6943 40.2969C54.6745 40.5505 54.6497 40.8286 54.6387 41.1064C54.5329 43.79 54.4855 46.4763 54.4971 49.1621C54.5203 54.5335 54.7784 59.9041 55.2705 65.2529C55.3148 65.7344 55.3611 66.2161 55.4092 66.6973L55.5596 68.1396C55.6086 68.5913 55.658 69.0394 55.7031 69.4883C55.8614 71.0628 55.9561 72.5992 55.7314 74.1006C55.614 74.886 55.3748 75.8269 54.9854 76.665C54.5924 77.5104 54.0719 78.1972 53.4219 78.5557C53.2238 78.6649 52.9901 78.7289 52.7061 78.7803C52.4604 78.8247 52.0776 78.8717 51.7812 78.9375C51.2487 79.0559 50.7242 79.2007 50.2148 79.3389C49.7011 79.4782 49.2004 79.612 48.6953 79.7168C45.0918 80.4645 41.3873 80.6256 37.6709 80.7119C34.2516 80.7912 30.8534 80.8126 27.5459 80.208C25.7407 79.878 23.9926 79.3396 22.7178 78.1904C21.8967 77.4503 21.3175 76.4029 21.2061 75.3242C21.1489 74.7701 21.2284 74.1609 21.3623 73.5088C21.429 73.1841 21.5065 72.8593 21.584 72.5293C21.6606 72.2031 21.7377 71.8719 21.7969 71.5488C22.3735 68.4007 22.8686 65.2373 23.2812 62.0635C23.8078 58.1145 24.1814 54.143 24.4395 50.1709C24.5662 48.2192 24.5931 46.2482 24.6348 44.3008C24.6765 42.3477 24.7331 40.4137 24.917 38.5098C25.013 37.5156 25.0166 36.5053 25.0078 35.5146C24.9989 34.5162 24.9771 33.544 25.0166 32.5879C25.1622 29.0649 24.9734 26.4167 26.4209 23.3379C26.8845 22.3519 27.8998 20.7812 29.1504 19.3037C30.4087 17.8171 31.8461 16.4948 33.1357 15.9287Z" fill="#FDF7EC" stroke="#010101"/>
<path d="M78.998 88.8246C78.5672 86.5605 78.0565 84.3115 77.4648 82.0841C76.6488 79.0118 75.469 75.7977 73.0714 73.5931C70.592 71.3133 67.0995 70.2676 64.081 68.8976C61.3937 67.6776 58.7147 66.4398 56.0372 65.1984L55.1915 64.2789C55.0569 64.1326 54.8995 64.0091 54.7254 63.9131L49.105 60.8128C48.904 60.7019 48.6867 60.6238 48.4602 60.5865C42.7392 59.647 34.7968 60.6052 33.0328 60.84C32.7981 60.8713 32.571 60.9425 32.3615 61.0529C30.5586 62.0013 27.2101 63.9284 26.1929 64.5159C25.9939 64.631 25.8184 64.781 25.6735 64.9597L25.121 65.6414C22.7621 66.7341 20.4013 67.823 18.0341 68.8976C15.0158 70.2678 11.5231 71.3133 9.04372 73.5931C6.64613 75.7977 5.46634 79.0118 4.65035 82.0841C4.05882 84.3115 3.54803 86.5605 3.11719 88.8246H78.998Z" fill="#010101"/>
<path d="M35.8203 88.8248H46.4788L50.7586 68.5922H50.3915V63.1557C49.6731 62.68 48.9974 62.14 48.3744 61.5444C48.2283 61.4033 48.1423 61.2107 48.132 61.006C47.9705 57.5267 48.0771 54.0353 48.45 50.5731C48.6012 49.1524 48.7971 47.737 49.0395 46.3301L33.5826 47.1728C33.7733 50.494 33.8301 53.8839 33.7544 57.2635C33.7252 58.6171 33.6754 59.9689 33.6032 61.3156C33.5912 61.5272 33.4984 61.725 33.342 61.866C32.834 62.3199 32.2949 62.7387 31.7291 63.1174C30.9006 63.6721 30.4812 64.6655 30.6966 65.6395L35.8203 88.8248Z" fill="#FDF7EC"/>
<path d="M33.1724 61.8595C33.2834 63.1152 33.4587 64.3652 33.6981 65.6029C33.9373 66.8397 34.2406 68.0641 34.6048 69.2699C34.9745 70.4941 35.4069 71.6992 35.898 72.8798C36.3968 74.0782 36.9532 75.2522 37.5673 76.3958C38.1903 77.556 38.871 78.6852 39.6043 79.7788C39.6951 79.9142 39.7868 80.049 39.8791 80.1835C40.0037 80.3648 40.3017 80.193 40.1759 80.01C39.4357 78.9328 38.7459 77.8213 38.1126 76.6779C37.4898 75.5532 36.9213 74.3985 36.4119 73.2181C35.9102 72.056 35.4679 70.8678 35.0857 69.6612C34.7048 68.4589 34.3847 67.2375 34.1282 66.0026C33.8754 64.7856 33.6845 63.5557 33.5597 62.3189C33.5442 62.1658 33.5298 62.0127 33.5164 61.8595C33.5082 61.767 33.4432 61.6875 33.3446 61.6875C33.2578 61.6875 33.1643 61.7664 33.1724 61.8595Z" fill="#010101"/>
<path d="M48.2136 61.4319C48.0372 62.7352 47.7788 64.0267 47.4488 65.2996C47.114 66.5913 46.7067 67.8636 46.2375 69.1125C45.7677 70.363 45.2351 71.5895 44.6478 72.7893C44.0582 73.9939 43.4137 75.1719 42.7196 76.3194C42.0349 77.4511 41.3018 78.5535 40.5226 79.6223C40.4277 79.7523 40.3323 79.8817 40.2361 80.0108C40.1806 80.0853 40.2239 80.2029 40.2978 80.2461C40.3855 80.2974 40.4772 80.2592 40.5329 80.1844C41.3248 79.1213 42.0712 78.0245 42.769 76.8974C43.4743 75.7582 44.1301 74.5883 44.7323 73.3912C45.3403 72.1825 45.893 70.9457 46.385 69.685C46.8707 68.4405 47.2955 67.1717 47.6492 65.8833C47.9996 64.6067 48.2801 63.3104 48.4772 62.001C48.5011 61.8419 48.5238 61.6828 48.5453 61.5234C48.5577 61.4314 48.5233 61.3387 48.4253 61.3118C48.3451 61.2898 48.2261 61.3392 48.2136 61.4319Z" fill="#010101"/>
<path d="M49.0428 46.3301C48.8005 47.737 48.6046 49.1524 48.4534 50.5731C48.3176 51.0478 48.1698 51.5208 47.9893 51.9937C47.0819 54.3741 45.8514 56.7544 43.8356 58.3832C42.0706 59.809 39.6319 60.5331 37.4717 59.8417C36.0263 59.379 34.7683 58.4382 33.7578 57.2635C33.8334 53.8839 33.7767 50.494 33.5859 47.1728L49.0428 46.3301Z" fill="#010101"/>
<path d="M38.7176 88.8254C35.4612 80.9131 33.1385 70.6996 32.7409 62.1517C32.7345 62.0143 32.5872 61.9316 32.4669 61.9979L30.638 63.007C28.3659 71.0441 27.8625 79.5768 29.1738 87.8256L38.7176 88.8254Z" fill="#CADFF7"/>
<path d="M50.7711 63.0176L49.2047 61.8656C49.0605 61.7596 48.8565 61.8413 48.8257 62.0178C47.3558 70.4508 44.1558 80.4878 40.6953 88.8256L50.4138 88.6689C51.3307 80.0574 51.583 70.1763 50.7711 63.0176Z" fill="#CADFF7"/>
<path d="M24.6469 36.3465C23.8144 36.7644 23.1932 37.586 23.0253 38.5038C22.5929 40.8683 24.1661 43.5027 26.1003 44.7849C27.0036 45.3836 28.2607 45.645 29.2355 45.0425C30.0156 44.5604 30.2436 43.4869 30.3612 42.6334C30.5179 41.4955 29.8775 40.0035 29.4063 38.981C28.5819 37.1923 26.9084 35.3393 24.7688 36.2885C24.7278 36.3071 24.6871 36.3264 24.6469 36.3465Z" fill="#FDF7EC"/>
<path d="M28.0414 42.791C26.996 42.2298 26.2566 40.8193 26.9195 39.7091C27.0332 39.5186 26.7361 39.3454 26.6227 39.5356C26.0344 40.5207 26.389 41.7455 27.1426 42.5337C27.3532 42.754 27.5992 42.9439 27.8678 43.0882C28.0628 43.1926 28.2366 42.8959 28.0414 42.791Z" fill="#010101"/>
<path d="M27.6606 40.2677C27.1296 39.4021 26.4618 38.5855 25.5026 38.1839C25.2033 38.0585 24.892 37.9842 24.5703 37.9443C24.478 37.9328 24.3984 38.0315 24.3984 38.1163C24.3984 38.2188 24.4778 38.2767 24.5703 38.2883C25.2005 38.3665 25.7853 38.6433 26.2607 39.0617C26.7066 39.454 27.0547 39.9375 27.3637 40.4414C27.4793 40.6297 27.7768 40.4572 27.6606 40.2677Z" fill="#010101"/>
<path d="M27.7225 42.7448C28.182 45.0034 29.0392 47.4489 30.3287 49.3618C31.8 51.5444 33.2568 53.7685 35.106 55.6563C35.9057 56.4726 36.7388 57.3182 37.8016 57.784C38.9702 58.296 40.5072 58.2905 41.7416 58.0416C43.3389 57.7197 44.4191 56.4368 45.4429 55.2714C46.6268 53.9235 47.7112 52.4881 48.685 50.9811C49.837 49.1986 50.8284 47.316 51.6618 45.3642C52.8544 42.5713 53.1179 39.4696 53.4073 36.462C53.7041 33.3794 54.2915 30.5631 53.9069 27.4265C53.7001 25.7401 53.3709 24.0481 52.6527 22.5087C50.6746 18.2687 45.8157 15.6185 41.2037 15.9731C39.8261 16.079 38.4792 16.4299 37.1563 16.8284C35.8403 17.2247 34.5346 17.6713 33.3036 18.2824C30.2146 19.8154 29.1544 21.6311 28.2422 24.9587C27.7752 26.6616 27.3747 27.6316 27.4628 29.3952C27.656 33.2678 26.9495 38.9452 27.7225 42.7448Z" fill="#FDF7EC"/>
<path d="M39.7246 16.2227C41.8223 14.8711 43.8648 14.3991 46.1797 15.2334C48.8807 16.2069 51.8908 18.3319 53.6162 21.0566C54.5559 22.5406 54.5896 23.8622 54.707 25.752C54.9546 29.7371 54.9639 33.7376 54.7344 37.7236C54.7216 37.9459 54.7304 38.4052 54.6709 38.8701C54.6172 38.6056 54.573 38.339 54.5391 38.0713C54.5356 38.0437 54.5335 37.9771 54.5342 37.8535C54.5348 37.7451 54.537 37.6012 54.5352 37.4648C54.5333 37.3284 54.5271 37.1742 54.5068 37.0342C54.4908 36.9237 54.4528 36.7065 54.3105 36.54V36.5391L54.2158 36.4473C54.1172 36.3662 54.0103 36.3158 53.9385 36.2852C53.8287 36.2383 53.7079 36.2006 53.6064 36.1699C53.4947 36.1362 53.408 36.1118 53.3242 36.084C53.2848 36.0709 53.2534 36.0588 53.2295 36.0488C53.2077 36.0397 53.1977 36.035 53.1963 36.0342C52.9398 35.8752 52.7063 35.6642 52.5059 35.4219C51.8004 34.5683 51.3852 33.5095 51.1182 32.3545C50.8501 31.195 50.739 29.9799 50.6143 28.8115C50.4544 27.3136 50.2982 25.7517 49.9082 24.2461L49.8711 24.1045L49.7646 24.0049C49.415 23.6794 49.041 23.3175 48.665 23.0176C47.7395 22.2792 46.7031 21.6851 45.6074 21.248C44.1519 20.6675 42.5835 20.3619 41.0127 20.3682C40.2208 20.3712 39.4485 20.4918 38.7256 20.584C38.6859 20.589 38.6467 20.5951 38.6123 20.6006L38.3828 20.6377L38.2627 20.8369L38.1191 21.0752C35.8577 24.973 33.0902 28.3669 29.4551 31.0195C29.011 31.3435 28.5986 31.6154 28.1572 31.7432C27.9765 31.7955 27.7449 31.8529 27.5176 31.8877C27.339 31.915 27.1888 31.9245 27.0771 31.918L26.9785 31.9062C26.6521 31.8415 26.4267 31.6415 26.2646 31.2891C26.0938 30.9172 26.011 30.4039 26.001 29.8115C25.981 28.6321 26.2486 27.319 26.4111 26.6533C26.9506 24.443 28.1015 22.38 29.6895 20.75C31.3521 19.0433 33.4577 17.8022 35.7432 17.0586L36.2031 16.916C37.2758 16.6012 38.3827 16.396 39.4961 16.3008L39.6201 16.29L39.7246 16.2227Z" fill="#FDF7EC" stroke="#010101"/>
<path d="M41.7879 14.5429C40.54 14.9591 39.3988 15.6803 38.4902 16.6328C38.2316 16.9038 37.9938 17.1938 37.7748 17.4977C37.7205 17.5731 37.7617 17.6893 37.8365 17.733C37.9231 17.7837 38.0171 17.7469 38.0716 17.6713C38.8036 16.656 39.7883 15.8311 40.9078 15.2746C41.2221 15.1182 41.5466 14.9856 41.8795 14.8745C42.0881 14.8049 41.9986 14.4726 41.7879 14.5429Z" fill="#010101"/>
<path d="M39.0281 20.9072C39.4839 20.2015 39.9618 19.4895 40.6036 18.9374C41.2578 18.3745 42.0848 18.0798 42.9489 18.2183C43.8931 18.3695 44.7409 18.8935 45.4752 19.4835C46.1884 20.0562 46.8353 20.7111 47.4014 21.4297C48.0386 22.2384 48.5673 23.1338 48.9775 24.078C49.0144 24.1632 49.1394 24.1826 49.2126 24.1398C49.3004 24.0883 49.3114 23.99 49.2743 23.9045C48.5114 22.1483 47.3299 20.5732 45.8553 19.3522C45.094 18.7217 44.2306 18.1454 43.2524 17.9275C42.7722 17.8205 42.2733 17.8078 41.7933 17.9232C41.3774 18.0233 40.9858 18.218 40.642 18.4708C39.8379 19.0621 39.2663 19.9052 38.7312 20.7338C38.611 20.9201 38.9084 21.0926 39.0281 20.9072Z" fill="#010101"/>
<path d="M55.6368 36.3465C56.4693 36.7644 57.0906 37.586 57.2585 38.5038C57.6909 40.8683 56.1177 43.5027 54.1834 44.7849C53.2801 45.3836 52.023 45.645 51.0482 45.0425C50.2681 44.5604 50.0401 43.4869 49.9226 42.6334C49.7658 41.4955 50.4062 40.0035 50.8774 38.981C51.7016 37.1923 53.3754 35.3393 55.515 36.2885C55.5559 36.3071 55.5966 36.3264 55.6368 36.3465Z" fill="#FDF7EC"/>
<path d="M51.9042 45.2113C52.2388 44.2422 52.5786 43.2718 52.8125 42.2722C53.0509 41.2535 53.1861 40.2047 53.3265 39.1688C53.4066 38.577 53.4795 37.9843 53.5445 37.3907C53.5546 37.2982 53.4582 37.2188 53.3726 37.2188C53.2712 37.2188 53.2109 37.298 53.2007 37.3907C53.0866 38.4333 52.9484 39.4732 52.7853 40.5094C52.7059 41.0144 52.6283 41.5209 52.5176 42.0202C52.4091 42.5099 52.2735 42.9933 52.1244 43.472C51.9522 44.0251 51.7617 44.5724 51.5727 45.1198C51.5005 45.3295 51.8324 45.4196 51.9042 45.2113Z" fill="#010101"/>
<path d="M52.6418 43.0898C53.5705 42.5912 54.2839 41.5068 54.1782 40.4283C54.1472 40.1118 54.0501 39.8107 53.8869 39.5374C53.7736 39.3475 53.4763 39.5204 53.5901 39.7109C54.2529 40.8211 53.5136 42.2316 52.4682 42.7928C52.2733 42.8976 52.4467 43.1946 52.6418 43.0898Z" fill="#010101"/>
<path d="M53.1436 40.4414C53.4528 39.9376 53.8008 39.454 54.2466 39.0617C54.7221 38.6434 55.3068 38.3665 55.937 38.2883C56.0291 38.2769 56.1088 38.2174 56.1088 38.1163C56.1088 38.0322 56.0298 37.9328 55.937 37.9443C55.3867 38.0126 54.8627 38.1954 54.4025 38.5084C53.9768 38.7977 53.6227 39.1695 53.3125 39.5782C53.1446 39.7994 52.9919 40.0312 52.8466 40.2679C52.7308 40.4569 53.0279 40.6299 53.1436 40.4414Z" fill="#010101"/>
<path d="M50.5081 37.0885C50.6286 37.0475 50.6375 36.8833 50.5251 36.8236C49.3022 36.1738 47.8563 35.9575 46.4949 36.2053C45.2941 36.4239 44.0755 37.2988 43.3035 38.6173C43.2155 38.7676 43.4081 38.9269 43.5394 38.8125C44.2782 38.17 45.5937 37.217 47.0273 37.0735C48.9368 36.8824 49.4897 37.1791 49.9666 37.1791C50.1818 37.1793 50.3682 37.1359 50.5081 37.0885Z" fill="#010101"/>
<path d="M48.0274 38.0557C48.1765 37.4797 47.9784 36.7758 47.4173 36.4968C47.249 36.4132 47.0613 36.375 46.8742 36.358C46.6934 36.3415 46.5064 36.3447 46.3373 36.4104C45.7984 36.6198 45.7475 37.5004 45.8443 37.9776C45.9192 38.3479 46.0752 38.7677 46.4239 38.9604C47.1313 39.3511 47.8517 38.7335 48.0274 38.0557Z" fill="#010101"/>
<path d="M47.631 31.6845C47.7957 31.7196 47.9589 31.7595 48.1206 31.8034C48.7335 31.9697 49.9769 32.5361 49.5572 33.4077C49.2793 33.9847 48.1241 33.8059 47.6223 33.8258C46.7616 33.8601 45.9009 33.8941 45.0402 33.9283C44.7593 33.9395 44.4712 33.9497 44.2045 33.8609C43.6021 33.6605 43.4702 32.9846 43.7493 32.4616C44.0983 31.8079 45.02 31.6178 45.6931 31.5509C46.34 31.4864 46.995 31.549 47.631 31.6845Z" fill="#010101"/>
<path d="M30.1586 37.0885C30.0381 37.0475 30.0292 36.8833 30.1416 36.8236C31.3645 36.1738 32.8104 35.9575 34.1718 36.2053C35.3726 36.4239 36.5912 37.2988 37.3632 38.6173C37.4512 38.7676 37.2586 38.9269 37.1273 38.8125C36.3884 38.17 35.0729 37.217 33.6394 37.0735C31.7299 36.8824 31.177 37.1791 30.7003 37.1791C30.485 37.1793 30.2985 37.1359 30.1586 37.0885Z" fill="#010101"/>
<path d="M32.6417 38.0557C32.4925 37.4797 32.6906 36.7758 33.2517 36.4968C33.42 36.4132 33.6077 36.375 33.7948 36.358C33.9756 36.3415 34.1626 36.3447 34.3317 36.4104C34.8706 36.6198 34.9215 37.5004 34.8247 37.9776C34.7498 38.3479 34.5939 38.7677 34.2451 38.9604C33.5377 39.3511 32.8171 38.7335 32.6417 38.0557Z" fill="#010101"/>
<path d="M33.0421 31.6845C32.8775 31.7196 32.714 31.7595 32.5525 31.8034C31.9396 31.9697 30.6962 32.5361 31.1161 33.4077C31.394 33.9847 32.549 33.8059 33.051 33.8258C33.9117 33.8601 34.7723 33.8941 35.633 33.9283C35.9138 33.9395 36.202 33.9497 36.4688 33.8609C37.0711 33.6605 37.2031 32.9846 36.924 32.4616C36.575 31.8079 35.6533 31.6178 34.9803 31.5509C34.3331 31.4864 33.6781 31.549 33.0421 31.6845Z" fill="#010101"/>
<path d="M43.1106 48.8031C42.2702 48.2531 41.007 47.6927 39.8718 47.6764C38.8114 47.6611 37.584 47.9337 36.8984 48.8397C36.8984 48.8397 38.4677 49.2159 40.1077 49.1165C41.7479 49.0172 43.1106 48.8031 43.1106 48.8031Z" fill="#010101"/>
<path d="M49.1342 30.6186C49.1316 30.3311 48.9125 30.0939 48.6236 30.0918C48.2905 30.0894 48.1345 30.3532 48.1587 30.6745C48.1857 31.0321 48.4801 31.3673 48.8422 31.1454C49.0213 31.0359 49.1361 30.8286 49.1342 30.6186Z" fill="#FDF7EC"/>
<path d="M38.4874 38.5271C38.4494 39.4058 38.4115 40.2847 38.3735 41.1634C38.3546 41.6003 38.336 42.0371 38.3135 42.4738C38.2917 42.8991 38.246 43.3367 38.275 43.7622C38.3071 44.2324 38.4568 44.6823 38.5603 45.1393C38.6091 45.3552 38.9406 45.2638 38.8918 45.0478C38.8024 44.6536 38.6705 44.2639 38.6275 43.8606C38.5833 43.4459 38.6297 43.0152 38.6509 42.5999C38.6947 41.7386 38.7295 40.8769 38.7668 40.0154C38.7883 39.5194 38.8098 39.0232 38.8311 38.5271C38.8407 38.3058 38.497 38.3063 38.4874 38.5271Z" fill="#010101"/>
<path d="M40.7246 44.9552C40.8812 44.9287 41.0747 44.9256 41.2484 44.9461C41.3921 44.963 41.5937 45.0177 41.731 45.0775C41.8161 45.1147 41.9154 45.1026 41.9661 45.0158C42.0087 44.943 41.99 44.8178 41.9044 44.7805C41.5004 44.6044 41.0682 44.5502 40.6332 44.6236C40.5416 44.6391 40.4904 44.7521 40.5132 44.8352C40.5399 44.9322 40.6328 44.9707 40.7246 44.9552Z" fill="#010101"/>
<path d="M36.7348 49.057C38.4257 49.3181 40.1458 49.364 41.8472 49.1798C42.3318 49.1273 42.8148 49.0571 43.2942 48.9698C43.5115 48.9302 43.4195 48.5986 43.2028 48.638C41.5645 48.9364 39.8884 49.0193 38.2283 48.8884C37.7589 48.8514 37.2913 48.7971 36.826 48.7252C36.7344 48.7111 36.6413 48.7484 36.6147 48.8454C36.5923 48.927 36.6425 49.0427 36.7348 49.057Z" fill="#010101"/>
<path d="M38.1665 50.6019C39.4272 51.0023 40.8098 50.9858 42.0599 50.5529C42.2677 50.481 42.1783 50.1485 41.9685 50.2213C40.7715 50.6358 39.4652 50.6538 38.2577 50.2703C38.0465 50.203 37.9561 50.535 38.1665 50.6019Z" fill="#010101"/>
<path d="M33.428 19.5325L33.4337 19.209C29.8143 21.1585 28.7717 21.346 27.8543 25.2016C27.2896 27.5751 26.3473 31.9752 26.2503 34.416C26.1429 37.116 26.0481 41.4912 25.9465 44.1915C25.7522 49.3507 25.572 54.5104 25.3984 59.6703H29.9285C29.6365 52.72 29.3802 45.7679 29.2974 38.8121C29.2549 35.249 29.2594 31.6692 29.7267 28.1301C30.1524 24.9031 30.9 21.7847 33.428 19.5325Z" fill="#FDF7EC"/>
<path d="M29.547 31.5069C29.5737 30.0761 29.7371 28.6505 30.0365 27.2512C30.3357 25.8527 30.7653 24.4801 31.324 23.1637C31.6402 22.4184 31.9979 21.6912 32.3926 20.9845C32.5007 20.7912 32.204 20.6175 32.0959 20.811C31.3866 22.0799 30.7999 23.4175 30.3446 24.7983C29.889 26.1804 29.5695 27.6046 29.3834 29.0478C29.2782 29.8636 29.2185 30.6846 29.2032 31.5071C29.1992 31.7283 29.5429 31.7283 29.547 31.5069Z" fill="#010101"/>
<path d="M26.4374 35.7816C26.5048 33.9676 26.6786 32.1577 26.9632 30.3649C27.0434 29.8592 27.1325 29.355 27.2296 28.8522C27.2713 28.6359 26.9402 28.5433 26.8982 28.7607C26.5495 30.5661 26.308 32.3925 26.1776 34.2268C26.1408 34.7445 26.1132 35.2628 26.0939 35.7814C26.0855 36.0029 26.4292 36.0027 26.4374 35.7816Z" fill="#010101"/>
<path d="M29.4609 48.4083C29.4773 50.1944 29.5122 51.9802 29.5658 53.7656C29.6196 55.5581 29.6923 57.3499 29.7837 59.141C29.8351 60.1472 29.8925 61.1528 29.9556 62.1583C29.9693 62.3781 30.3132 62.3796 30.2993 62.1583C30.1874 60.3756 30.0937 58.5919 30.019 56.8073C29.9439 55.0157 29.8877 53.223 29.8502 51.4302C29.8291 50.423 29.8142 49.4158 29.8049 48.4085C29.8026 48.1871 29.4589 48.1864 29.4609 48.4083Z" fill="#010101"/>
<path d="M24.0797 88.7806C23.5229 87.2284 22.9817 85.6705 22.4514 84.1088C22.0059 82.7971 21.5683 81.4825 21.1377 80.1658C20.8617 79.3217 20.5882 78.4765 20.3191 77.6301C20.2559 77.4313 20.1809 77.234 20.3071 77.0397C20.4031 76.8918 20.5551 76.7645 20.6764 76.6369C20.8122 76.4943 20.9488 76.3524 21.0863 76.2115C21.6273 75.6574 22.1822 75.1168 22.7504 74.5905C23.8898 73.5349 25.0822 72.5356 26.3231 71.6017C26.4751 71.4873 26.6279 71.374 26.7812 71.2615C26.8559 71.2066 26.893 71.1122 26.8428 71.0262C26.7997 70.9524 26.683 70.9092 26.6077 70.9645C25.3372 71.8968 24.1131 72.8925 22.9432 73.9487C22.3539 74.4808 21.7782 75.0282 21.2169 75.59C20.9387 75.8686 20.6639 76.1507 20.3927 76.4363C20.1383 76.7041 19.8518 76.9609 19.895 77.3658C19.9127 77.5326 19.9795 77.696 20.0302 77.8554C20.0842 78.025 20.1385 78.1948 20.193 78.3642C20.3398 78.8218 20.4875 79.279 20.6362 79.736C21.055 81.023 21.4805 82.3078 21.9133 83.5901C22.4405 85.1528 22.9784 86.7119 23.5315 88.2659C23.6035 88.4681 23.6757 88.67 23.748 88.8721C23.8224 89.0788 24.1548 88.9896 24.0797 88.7806Z" fill="#010101"/>
<path d="M25.0311 65.6059C23.9539 66.6984 22.9592 67.871 22.0554 69.1107C21.826 69.4254 21.6024 69.7447 21.385 70.068C21.28 70.2243 21.1764 70.3815 21.0741 70.5398C20.977 70.6901 20.8553 70.8433 20.7893 71.0105C20.7309 71.1584 20.7388 71.3225 20.8048 71.4665C20.8673 71.6028 20.978 71.6859 21.1026 71.7614C21.335 71.9023 21.5689 72.0404 21.8045 72.1757C22.5215 72.5877 23.2526 72.9779 24.0072 73.3166C24.0917 73.3546 24.1919 73.341 24.2423 73.2548C24.2852 73.1814 24.2657 73.0577 24.1806 73.0195C23.5279 72.7266 22.8932 72.3947 22.2695 72.0445C22.0169 71.9026 21.7663 71.7576 21.5173 71.6094C21.3606 71.5162 21.0598 71.4106 21.0947 71.1825C21.1047 71.1173 21.1482 71.0633 21.1824 71.0091C21.2343 70.9268 21.2865 70.8445 21.3393 70.7625C21.4376 70.6096 21.5373 70.4576 21.6383 70.3064C21.8404 70.004 22.0478 69.7054 22.2606 69.4105C22.6889 68.8166 23.139 68.2389 23.6095 67.678C24.1395 67.0461 24.6953 66.4362 25.2741 65.8491C25.4297 65.6914 25.1868 65.448 25.0311 65.6059Z" fill="#010101"/>
<path d="M54.4132 70.9257C55.6918 71.865 56.9214 72.8701 58.0964 73.9364C58.6845 74.4701 59.2587 75.0189 59.8185 75.5824C60.1006 75.8665 60.3791 76.1543 60.6535 76.4456C60.7704 76.5696 60.9161 76.6881 60.9519 76.8629C60.9747 76.9745 60.9455 77.0756 60.912 77.1809C60.6558 77.9872 60.3957 78.7924 60.1333 79.5967C59.7073 80.9021 59.2744 82.2054 58.8339 83.506C58.3046 85.0692 57.7646 86.6287 57.2092 88.1828C57.138 88.3819 57.0665 88.5811 56.9947 88.7803C56.9194 88.9889 57.2514 89.0787 57.326 88.8718C57.9002 87.2786 58.4574 85.6794 59.0028 84.0761C59.465 82.7178 59.9188 81.3565 60.3652 79.9927C60.6494 79.1244 60.9307 78.2551 61.2078 77.3845C61.2806 77.1556 61.3459 76.9306 61.2598 76.6922C61.1923 76.5049 61.0572 76.3732 60.9235 76.231C60.7841 76.0827 60.6437 75.9355 60.5023 75.7891C59.9413 75.2085 59.3649 74.6428 58.7743 74.0928C57.5915 72.9915 56.3507 71.9536 55.0604 70.981C54.9031 70.8625 54.7452 70.7452 54.5866 70.6286C54.5117 70.5735 54.3948 70.616 54.3515 70.6903C54.3006 70.7777 54.3381 70.8705 54.4132 70.9257Z" fill="#010101"/>
<path d="M55.7453 65.2357C56.8089 66.3149 57.7808 67.4855 58.6763 68.7073C59.1204 69.3133 59.5459 69.9329 59.9488 70.5671C60.0149 70.6711 60.1241 70.7881 60.1047 70.9209C60.0866 71.0443 59.9804 71.0953 59.8845 71.1532C59.6556 71.2917 59.4251 71.4272 59.1931 71.5603C58.4852 71.9662 57.7633 72.3508 57.0184 72.685C56.9337 72.723 56.9134 72.8463 56.9567 72.9202C57.0078 73.0074 57.1068 73.0202 57.1918 72.982C57.8913 72.6681 58.5703 72.3097 59.2369 71.9313C59.4921 71.7865 59.7456 71.6382 59.9971 71.4869C60.1062 71.4212 60.2282 71.3608 60.3109 71.2616C60.4167 71.1343 60.4657 70.9714 60.4434 70.807C60.4197 70.6329 60.3071 70.4904 60.215 70.3461C60.1125 70.1856 60.0087 70.026 59.9035 69.8674C59.6843 69.5368 59.459 69.2101 59.2283 68.8872C58.7604 68.2321 58.2706 67.5923 57.7596 66.9701C57.1978 66.2859 56.6094 65.6232 55.988 64.9927C55.8328 64.8346 55.5898 65.078 55.7453 65.2357Z" fill="#010101"/>
</g>
</svg>
