<svg width="80" height="81" viewBox="0 0 80 81" fill="none" xmlns="http://www.w3.org/2000/svg">
<mask id="mask0_2492_25940" style="mask-type:alpha" maskUnits="userSpaceOnUse" x="0" y="0" width="80" height="81">
<circle cx="40" cy="40.5" r="40" fill="#C3DEF7"/>
</mask>
<g mask="url(#mask0_2492_25940)">
<circle cx="40" cy="40.5" r="40" fill="#CADFF7"/>
<path d="M63.3892 68.0964C64.0006 64.3234 63.1748 60.3352 61.1176 57.1151C61.0983 57.0851 61.1105 57.0461 61.1434 57.0327C62.4217 56.5085 63.7218 55.372 64.1561 54.0278C64.6229 52.5826 64.3695 50.7796 63.9707 49.351C63.1232 46.3152 61.0719 43.7922 59.2646 41.2107C57.8512 39.1917 56.5173 36.9844 56.07 34.5251C55.629 32.101 55.8231 29.6312 55.3969 27.1973C54.7063 23.2542 52.1479 19.3901 47.9548 18.6692C47.5539 18.6002 46.9424 18.6948 46.5881 18.5286C46.2101 18.3513 45.8223 17.749 45.5068 17.4612C44.7984 16.8152 44.022 16.2544 43.144 15.862C41.7973 15.2602 40.3098 14.9721 38.8363 15.0209C37.1013 15.0785 35.3999 15.5794 33.8667 16.3841C32.9356 16.8728 30.0416 18.2754 31.4356 19.6402L44.4468 64.6191L63.3892 68.0964Z" fill="#010101"/>
<path d="M50.4731 39.5637C50.5665 40.7416 50.3028 41.8846 50.1287 43.0413C50.0857 43.3263 50.0393 43.6158 50.0259 43.9041C50.0142 44.1539 50.0448 44.4065 50.1063 44.6485C50.232 45.1438 50.4853 45.5992 50.7656 46.0222C51.0429 46.4405 51.3549 46.834 51.638 47.2481C51.9444 47.6964 52.2193 48.1665 52.4606 48.6531C52.9448 49.6289 53.2908 50.6724 53.4945 51.7423C53.6982 52.8116 53.7541 53.9096 53.6581 54.9941C53.6463 55.1271 53.6321 55.2598 53.6159 55.3923C53.6069 55.4651 53.6845 55.5279 53.7513 55.5279C53.8319 55.5279 53.8778 55.4654 53.8867 55.3923C54.0197 54.305 53.9971 53.204 53.8328 52.1213C53.6686 51.0392 53.3568 49.9823 52.9131 48.9821C52.6929 48.4856 52.4391 48.004 52.1526 47.5425C51.8824 47.1068 51.5745 46.6991 51.2756 46.2833C50.9825 45.8755 50.6922 45.4512 50.5022 44.9835C50.4097 44.7556 50.337 44.5146 50.3089 44.2696C50.2784 44.0024 50.307 43.7387 50.3399 43.4733C50.483 42.3189 50.7823 41.183 50.7652 40.0125C50.7631 39.8627 50.7556 39.7131 50.7438 39.5637C50.7303 39.3909 50.4593 39.3895 50.4731 39.5637Z" fill="#010101"/>
<path d="M48.3584 46.2108C49.0281 47.9277 49.2539 49.8083 49.0123 51.6355C48.9448 52.1454 48.8389 52.6502 48.6994 53.145C48.652 53.3132 48.9133 53.3851 48.9605 53.2171C49.4701 51.4088 49.5095 49.4759 49.0858 47.646C48.9671 47.133 48.8109 46.6292 48.6195 46.1386C48.593 46.0705 48.5286 46.0232 48.4529 46.044C48.3881 46.0619 48.3316 46.1422 48.3584 46.2108Z" fill="#010101"/>
<path d="M39.7068 52.9959C39.6619 49.865 39.2938 46.7972 38.8328 43.7057C38.7544 43.1795 38.8343 42.7184 38.8214 42.1986C38.8047 41.5233 38.5557 40.8173 38.3782 40.1699C38.0036 38.805 37.5256 37.4601 36.8249 36.2261C35.7192 34.2791 33.9792 32.596 31.816 32.0223C30.1932 31.592 28.4443 31.8151 26.8777 32.4188C25.311 33.0225 23.908 33.9886 22.6096 35.0535C21.3376 36.0968 20.1411 37.2536 19.2188 38.6164C18.049 40.3448 16.8629 42.0606 17.5245 44.1287C17.7375 44.7946 18.3386 46.0885 18.7402 46.6645C18.8842 46.8709 19.0958 47.2414 19.1436 47.4939C19.2166 47.8798 18.8024 48.3429 18.5832 48.6147C15.9191 51.9186 13.8787 55.7299 12.6463 59.7925C12.2855 60.9821 11.9911 62.2168 12.0778 63.457C12.1645 64.6972 12.6808 65.9565 13.6784 66.6972C14.4886 67.2987 15.5379 67.5054 16.546 67.4653C17.552 67.4253 19.0919 66.6065 19.9626 67.1087C21.1042 67.7672 22.0628 68.3153 23.4074 68.4921C24.8597 68.6831 26.3337 68.5317 27.7861 68.3414C30.3318 68.0079 32.9602 67.5146 35.0416 66.0103C36.9845 64.6059 38.2685 62.4241 38.9466 60.1235C39.6242 57.8228 39.7412 55.3943 39.7068 52.9959Z" fill="#010101"/>
<path d="M46.6224 56.1674L39.3604 59.9368L34.7812 58.6803C35.0277 57.3466 35.2214 56.002 35.3582 54.652C35.5221 53.0621 35.6088 51.4641 35.6209 49.8661L46.8432 41.5046L47.0437 41.3555C46.4843 46.2688 46.3434 51.231 46.6224 56.1674Z" fill="#FDF7EC"/>
<path d="M46.4814 44.3326C45.7311 46.992 44.4295 49.5279 42.4684 51.4973C40.5642 53.4085 37.9625 54.8276 35.3594 54.6514C35.5233 53.0615 35.6099 51.4634 35.6221 49.8654L46.8444 41.5039C46.8674 42.4757 46.7306 43.4503 46.4814 44.3326Z" fill="#010101"/>
<path d="M47.7251 41.961C48.8432 39.4304 49.5676 36.734 49.8044 34.0158C50.0922 30.7102 49.5448 27.1644 47.4293 24.6096C45.9735 22.8515 43.885 21.7024 41.7005 21.0437C39.5448 20.3936 37.2072 20.1922 35.0418 20.8093C29.6875 22.3353 27.4228 27.9115 27.8369 33.0628C27.9082 33.9506 28.0387 34.8464 28.1741 35.7264C28.3021 36.5586 28.2151 37.3643 28.1598 38.2078C28.0522 39.8456 28.0891 41.502 28.4107 43.1156C28.737 44.7522 29.4223 46.0202 30.1907 47.4477C31.8244 50.4828 34.5862 54.2542 38.5243 52.7512C39.7265 52.2924 40.7495 51.4619 41.6835 50.5762C44.2113 48.1787 46.2917 45.206 47.7251 41.961Z" fill="#FDF7EC"/>
<path d="M44.1999 35.6734C44.3429 35.7646 44.5126 35.606 44.4334 35.4558C44.0657 34.7589 43.3326 34.3262 42.6483 34.0835C41.2952 33.6033 39.5396 33.819 38.6185 34.9623C38.568 35.025 38.5767 35.1198 38.6412 35.168C38.7035 35.2144 38.8181 35.2579 39.0266 35.2733C39.132 35.281 39.2383 35.255 39.3255 35.1953C39.5975 35.0092 40.3433 34.5831 41.3819 34.6591C42.544 34.744 43.2778 35.0851 44.1999 35.6734Z" fill="#010101"/>
<path d="M33.5319 35.5357C33.5814 35.614 33.4897 35.7074 33.4106 35.6594C32.879 35.3366 32.234 35.1797 31.6265 35.1254C30.8721 35.058 30.0724 35.1484 29.4532 35.6189C29.1625 35.8397 29.0551 36.0319 28.6603 35.9531C28.5961 35.9403 28.5251 35.9171 28.4967 35.858C28.4672 35.7969 28.496 35.7245 28.5276 35.6644C28.9944 34.7742 30.1555 34.3848 31.106 34.379C31.9435 34.3738 33.0335 34.7457 33.5319 35.5357Z" fill="#010101"/>
<path d="M30.655 36.3282C30.6772 36.627 30.755 36.9218 30.8856 37.1912C31.0976 37.6281 31.6381 37.9004 32.1156 37.7324C32.654 37.5432 32.8149 36.9823 32.7908 36.4612C32.7652 35.9061 32.6035 35.1744 32.0389 34.935C31.4717 34.6945 30.8729 34.979 30.7205 35.5733C30.6575 35.8193 30.6363 36.0752 30.655 36.3282Z" fill="#010101"/>
<path d="M42.9031 36.5752C42.9114 36.4948 42.9165 36.414 42.921 36.3337C42.9519 35.7807 42.9648 35.039 42.515 34.6332C42.2564 34.3999 41.8795 34.3056 41.5416 34.3896C41.0864 34.5028 40.8372 34.8671 40.7343 35.2994C40.5759 35.965 40.6852 36.6789 41.0639 37.2464C41.2198 37.4801 41.4518 37.6365 41.7377 37.6458C41.9116 37.6515 42.0842 37.6094 42.2475 37.5493C42.5098 37.453 42.7068 37.2747 42.8081 37.0108C42.8616 36.8714 42.8878 36.7242 42.9031 36.5752Z" fill="#010101"/>
<path d="M33.1326 40.8002C33.0706 41.198 33.1975 41.5689 33.4819 41.853C33.7528 42.1237 34.1141 42.2961 34.478 42.402C34.6458 42.4508 34.7174 42.1893 34.5501 42.1405C33.9849 41.9761 33.2865 41.5607 33.3939 40.872C33.4051 40.7998 33.3754 40.7262 33.2993 40.7053C33.235 40.6878 33.144 40.7274 33.1326 40.8002Z" fill="#010101"/>
<path d="M37.5468 45.6326C36.8224 45.2782 36.0819 44.9217 35.2781 44.7935C34.4743 44.6653 33.5831 44.7982 32.9844 45.3233C32.9844 45.3233 33.6318 45.8736 35.2953 45.9197C36.959 45.9655 37.5468 45.6326 37.5468 45.6326Z" fill="#010101"/>
<path d="M35.7791 42.0486C35.7788 42.0446 35.7805 42.0333 35.7787 42.0299C35.7756 42.049 35.7754 42.0535 35.7782 42.0434C35.7805 42.0363 35.7799 42.0374 35.7764 42.0466C35.7723 42.0556 35.7722 42.0568 35.7757 42.0503C35.7797 42.044 35.7787 42.0448 35.7732 42.0523C35.7671 42.0667 35.7742 42.0532 35.778 42.0481C35.7853 42.0413 35.7824 42.0434 35.7691 42.0539C35.7718 42.0522 35.7745 42.0504 35.7771 42.0486C35.7799 42.047 35.7826 42.0455 35.7855 42.0439C35.7805 42.0458 35.7756 42.0478 35.7706 42.0499C35.7721 42.0466 35.7903 42.0439 35.7937 42.0431C35.8075 42.0404 35.8094 42.0401 35.7996 42.0419C35.7916 42.0431 35.7916 42.0434 35.7996 42.0428C35.8071 42.044 35.8162 42.0427 35.824 42.0432C35.8307 42.0436 35.8562 42.0493 35.8306 42.0434C35.846 42.0469 35.8616 42.0496 35.8769 42.0537C35.8923 42.0577 35.9077 42.0622 35.9228 42.0672C35.935 42.0713 35.9582 42.0753 35.9678 42.0836C35.961 42.0776 35.9494 42.0753 35.9648 42.0825C35.9713 42.0855 35.9777 42.0885 35.984 42.0916C35.9984 42.0985 36.0125 42.106 36.0264 42.1138C36.0527 42.1286 36.0776 42.1453 36.1024 42.1626C36.1234 42.1773 36.0923 42.1535 36.1046 42.1641C36.11 42.1687 36.1155 42.1731 36.1209 42.1777C36.1331 42.188 36.1449 42.1987 36.1564 42.2098C36.1795 42.232 36.2009 42.2556 36.221 42.2804C36.266 42.3356 36.3665 42.3307 36.4126 42.2804C36.4663 42.2219 36.4605 42.1476 36.4126 42.0888C36.3037 41.9553 36.1533 41.8574 35.9898 41.8044C35.8959 41.7739 35.7847 41.7547 35.69 41.7922C35.5865 41.8333 35.5 41.931 35.5084 42.0486C35.5134 42.1193 35.567 42.1876 35.6438 42.1842C35.7127 42.1811 35.7845 42.1243 35.7791 42.0486Z" fill="#010101"/>
<path d="M32.7312 45.3458C33.2404 45.7238 33.8908 45.896 34.5096 45.9826C35.2673 46.0888 36.0374 46.073 36.7936 45.9605C37.2114 45.8984 37.6245 45.8037 38.0255 45.67C38.1901 45.6153 38.1195 45.3534 37.9534 45.4086C37.2543 45.6414 36.5189 45.7588 35.7832 45.7802C35.0922 45.8003 34.3863 45.7413 33.7245 45.5319C33.4197 45.4354 33.1256 45.3028 32.8678 45.1116C32.8091 45.0679 32.7165 45.102 32.6825 45.1603C32.6422 45.2294 32.6723 45.302 32.7312 45.3458Z" fill="#010101"/>
<path d="M33.6607 47.0845C34.1645 47.93 35.2342 48.307 36.1507 47.9367C36.4124 47.8309 36.6494 47.6775 36.8486 47.4768C36.9716 47.3529 36.7801 47.1611 36.6571 47.2851C36.2717 47.6734 35.7051 47.8751 35.1607 47.7969C34.6377 47.7218 34.1644 47.4005 33.8945 46.9478C33.8054 46.798 33.5711 46.9342 33.6607 47.0845Z" fill="#010101"/>
<path d="M40.3226 29.0511C41.3423 28.8828 42.923 29.1743 43.5668 30.091C43.8089 30.4355 43.7905 31.0068 43.4562 31.2921C43.1486 31.5545 42.6691 31.5017 42.2949 31.5147C41.5634 31.5401 40.832 31.5655 40.1006 31.591C39.5797 31.6092 39.0875 31.4639 38.8591 30.9362C38.466 30.0277 39.5078 29.1857 40.3226 29.0511Z" fill="#010101"/>
<path d="M28.8099 31.7505C28.1481 30.3154 30.1742 29.7773 31.1714 29.6878C31.7203 29.6386 32.3752 29.7267 32.7388 30.208C32.9445 30.4802 33.0061 30.8662 32.9763 31.1991C32.9619 31.3615 32.9234 31.5281 32.8388 31.669C32.737 31.8383 32.5908 31.9101 32.3995 31.9406C32.3835 31.9432 32.3676 31.9455 32.3516 31.9477C31.8334 32.0201 31.3139 32.0866 30.7915 32.12C30.3527 32.148 29.9017 32.165 29.4662 32.0924C29.2386 32.0545 28.918 31.9848 28.8099 31.7505Z" fill="#010101"/>
<path d="M29.5891 31.2192C29.2698 32.3882 28.804 33.5174 28.2059 34.5712C27.8894 35.129 27.5356 35.6658 27.1469 36.176C26.815 36.6116 26.2895 37.0263 26.0349 37.5017C25.7475 38.0382 25.6616 38.8279 25.4822 39.4154C25.2901 40.0441 25.0895 40.6704 24.8701 41.2901C24.4202 42.5608 23.8935 43.8081 23.2204 44.9778C22.8397 45.6392 22.3996 46.2887 21.7806 46.7347C19.0779 48.6817 17.3364 44.6446 17.2479 42.4951C17.1672 40.5339 17.9497 38.6339 18.9232 36.9717C19.4372 36.0939 20.0235 35.2596 20.6471 34.4568C20.8651 34.1761 21.219 33.6875 21.3282 33.3436C21.4569 32.9378 21.3393 32.3962 21.296 31.9705C21.1764 30.793 21.0554 29.615 21.0017 28.4324C20.8872 25.9158 21.1874 23.2328 22.7538 21.1657C23.4603 20.2336 24.3927 19.4899 25.4025 18.9007C27.3486 17.7648 29.9673 16.9281 32.2112 17.5278C32.9328 17.7206 33.6166 18.0842 34.1616 18.5977C34.4393 18.8593 34.6962 19.1663 34.8728 19.5063C35.0459 19.8394 34.9623 20.1568 34.8065 20.4938C34.5685 21.0089 34.0821 21.3755 33.5565 21.5886C32.7676 21.9082 31.8126 21.6921 31.1074 22.1105C30.4719 22.4875 30.053 23.2113 29.9067 23.9216C29.6559 25.1402 30.0343 26.3894 30.0936 27.601C30.1521 28.7956 29.9023 30.073 29.5891 31.2192Z" fill="#010101"/>
<path d="M27.8513 34.8636C27.1554 35.7403 26.2644 36.4501 25.2547 36.9324C24.9696 37.0686 24.6757 37.1843 24.3752 37.2815C24.2101 37.3349 24.2807 37.5968 24.4472 37.543C25.5435 37.1883 26.5538 36.5828 27.3834 35.7824C27.6192 35.555 27.8391 35.3118 28.0428 35.0553C28.0882 34.9981 28.0986 34.9194 28.0428 34.8636C27.9957 34.8164 27.8971 34.806 27.8513 34.8636Z" fill="#010101"/>
<path d="M51.6353 29.065C51.2122 28.1537 50.6119 27.1092 49.838 26.2974C49.7364 25.2695 49.3309 24.2796 48.7718 23.4071C47.6399 21.6412 46.0349 20.42 44.2118 19.695C41.5322 18.2222 38.2172 17.9928 35.2183 18.4538C33.8223 18.6685 32.4811 19.0678 31.1746 19.5993C30.5761 19.8427 30.2425 19.945 29.7973 20.4397C28.7339 21.6214 27.6271 23.286 27.7337 24.9485C27.7505 25.2111 27.8028 25.4789 27.9454 25.7C28.088 25.9209 28.3354 26.0875 28.5981 26.0773C28.9211 26.0648 29.1731 25.8072 29.4011 25.5778C30.4409 24.5309 31.7201 23.7262 33.1086 23.2299C34.5713 22.7068 36.0237 22.7514 37.5429 23.0501C38.1244 23.1645 38.6826 23.3354 39.2298 23.5324C39.657 24.6262 39.6219 25.7822 40.0936 26.8588C40.5679 27.9409 41.3423 28.8934 42.3185 29.5603C42.7816 29.8765 43.3541 30.1546 43.9737 30.3581C43.9909 30.445 44.0089 30.5313 44.0283 30.6162C44.5287 32.8027 45.8713 34.9792 48.0157 35.8585C49.9635 36.6571 51.8296 34.8063 52.2187 33.0155C52.5059 31.6914 52.2057 30.2938 51.6353 29.065Z" fill="#010101"/>
<path d="M50.1013 26.4153C50.9394 27.6688 51.5385 29.0712 51.8836 30.5386C52.2264 31.9958 52.3163 33.5113 52.1461 34.9987C52.0502 35.8362 51.8663 36.6638 51.6015 37.4639C51.5466 37.6299 51.808 37.7011 51.8627 37.536C52.343 36.0838 52.5501 34.5431 52.4908 33.0153C52.4314 31.487 52.1106 29.9665 51.5346 28.5491C51.2114 27.7539 50.8122 26.9919 50.335 26.2782C50.2386 26.1342 50.004 26.2697 50.1013 26.4153Z" fill="#010101"/>
<path d="M44.0727 30.4926C44.714 30.6601 45.3911 30.6555 46.0298 30.478C46.1976 30.4313 46.1262 30.1697 45.9577 30.2165C45.3649 30.3813 44.74 30.3866 44.1448 30.231C43.9759 30.1871 43.904 30.4484 44.0727 30.4926Z" fill="#010101"/>
<path d="M35.0379 22.7095C35.1669 22.0892 35.7048 21.5737 36.3435 21.5147C37.0968 21.4452 37.7702 21.894 38.2523 22.4319C38.5468 22.7605 38.7895 23.1307 39.0315 23.4982C39.127 23.6433 39.3617 23.5077 39.2654 23.3615C38.8049 22.6619 38.3134 21.923 37.554 21.5193C37.2016 21.332 36.8 21.2155 36.3983 21.2394C36.0276 21.2617 35.6835 21.401 35.3953 21.6339C35.0844 21.885 34.8584 22.2453 34.7767 22.6374C34.7413 22.8077 35.0024 22.8804 35.0379 22.7095Z" fill="#010101"/>
<path d="M29.9939 24.9315C29.8699 24.1352 30.115 23.2527 30.6214 22.6275C30.8869 22.2999 31.2338 22.0241 31.6405 21.898C32.135 21.7447 32.6704 21.8024 33.1547 21.9655C33.7575 22.1685 34.3123 22.4997 34.8404 22.8492C34.9862 22.9457 35.1219 22.7111 34.977 22.6152C34.0414 21.996 32.899 21.3393 31.7337 21.593C30.8011 21.7961 30.1396 22.6283 29.8574 23.5011C29.7011 23.9847 29.6543 24.5011 29.7325 25.0035C29.7438 25.0759 29.8344 25.116 29.8991 25.0981C29.9765 25.077 30.0053 25.0041 29.9939 24.9315Z" fill="#010101"/>
<path d="M32.1037 17.6067C33.1498 17.8914 34.0534 18.6141 34.586 19.5566C34.7364 19.8229 34.8545 20.1041 34.9395 20.398C34.9878 20.5653 35.2493 20.4941 35.2007 20.3259C34.8795 19.2146 34.0916 18.2558 33.0763 17.7064C32.7913 17.5522 32.4883 17.4303 32.1758 17.3452C32.0073 17.2994 31.9354 17.5609 32.1037 17.6067Z" fill="#010101"/>
<path d="M50.3388 34.9809C50.5829 34.9223 50.8414 34.8897 51.1151 34.8868C51.9327 34.8783 52.701 35.3868 53.0531 36.1188C53.3287 36.6916 53.3632 37.363 53.2194 37.9823C53.0756 38.6016 52.7623 39.172 52.3758 39.6763C51.5432 40.7623 50.1365 41.7513 48.7653 41.974C48.0879 42.0841 47.4777 41.907 47.1527 41.2812C46.9869 40.9619 46.883 40.6111 46.8441 40.2536C46.7242 39.1467 47.2993 37.9011 47.8632 36.9761C48.4297 36.0469 49.2538 35.2413 50.3388 34.9809Z" fill="#FDF7EC"/>
<path d="M48.0343 38.8826C48.6934 38.0522 49.5693 37.3958 50.5563 37.0072C50.8365 36.8969 51.1246 36.808 51.4179 36.7401C51.5876 36.7008 51.5159 36.4393 51.3459 36.4786C50.2761 36.7265 49.2783 37.2615 48.4736 38.0085C48.2462 38.2195 48.0357 38.4479 47.8428 38.6909C47.7973 38.7481 47.7869 38.8267 47.8428 38.8826C47.89 38.9297 47.9886 38.9402 48.0343 38.8826Z" fill="#010101"/>
<path d="M49.3022 37.6066C49.5206 37.7318 49.6795 37.9399 49.739 38.1854C49.8041 38.4543 49.7371 38.7597 49.6236 39.0076C49.4176 39.4577 49.026 39.8162 48.5284 39.8966C48.4563 39.9082 48.416 39.9982 48.4339 40.0633C48.455 40.1403 48.528 40.1697 48.6005 40.1579C49.0556 40.0844 49.4441 39.7937 49.7017 39.4191C49.9758 39.0204 50.1418 38.4497 49.9587 37.9822C49.8582 37.7255 49.6787 37.5101 49.4388 37.3725C49.2874 37.2856 49.1509 37.5199 49.3022 37.6066Z" fill="#010101"/>
<path d="M51.2655 58.3706C50.2646 57.7982 49.2636 57.2258 48.2627 56.6535C47.777 56.3757 47.2824 56.0908 46.9093 55.6739C46.5362 55.2569 46.2989 54.6773 46.4284 54.1328L35.29 55.8977C35.2519 56.3924 35.091 56.8823 34.77 57.1897C34.449 57.4971 34.0416 57.6959 33.6374 57.8801C32.4282 58.4312 31.1804 58.8972 29.9062 59.2737L35.9662 65.4644L48.2471 64.1581L51.2655 58.3706Z" fill="#FDF7EC"/>
<path d="M71.0029 82.1398L8.21875 84.2353C8.36773 83.4004 8.53974 82.5695 8.73341 81.7441C9.31444 79.2623 10.1013 76.767 11.0887 74.3842C11.174 74.1768 11.2607 73.9708 11.3501 73.7648C11.3812 73.6929 11.4123 73.6197 11.4435 73.5479C12.2223 71.7561 13.0457 69.9493 14.2755 68.4204C14.3784 68.293 14.4827 68.1683 14.591 68.0449C14.8321 67.763 15.0867 67.4906 15.3495 67.2276C16.3477 66.2274 17.4772 65.3572 18.6568 64.5846C19.9245 63.7537 21.2382 62.9744 22.5831 62.2479H22.5845C23.0084 62.0174 23.435 61.7924 23.8657 61.5756C25.9297 60.5211 28.0575 59.5899 30.2028 58.7807C30.3382 58.7292 30.4872 58.7997 30.5373 58.9339C30.8393 59.7349 32.2953 62.153 38.826 61.8534C45.4285 61.5498 48.7589 58.4663 49.6324 57.5189C49.7801 57.3576 50.0144 57.3115 50.2121 57.4063C51.4933 58.0244 56.1361 60.3056 60.3238 62.8849C60.3238 62.8849 60.3252 62.8849 60.3265 62.8849C60.7382 63.1384 61.1472 63.3959 61.5468 63.6534C64.0131 65.2474 66.1706 66.901 67.1633 68.3079C67.2324 68.4069 67.3015 68.5071 67.3678 68.6115C67.5331 68.8663 67.6915 69.1361 67.8432 69.418C68.599 70.8262 69.1867 72.5422 69.6391 74.2514C69.7095 74.5184 69.7759 74.7868 69.8409 75.0524C70.7267 78.7242 71.0029 82.1398 71.0029 82.1398Z" fill="#CADFF7"/>
<path d="M22.7204 65.4147C22.8347 65.7998 22.949 66.1849 23.0633 66.57C23.2446 67.1807 23.426 67.7916 23.6073 68.4023C23.6473 68.5368 23.6822 68.674 23.7275 68.8069C23.8244 69.0924 24.1913 69.0928 24.3015 68.8186C24.3227 68.7657 24.3426 68.7122 24.3632 68.6591C24.5636 68.141 24.7819 67.6265 24.9656 67.1022C24.9678 67.0961 24.9739 67.0873 24.9739 67.081C24.9739 67.0795 24.9754 67.078 24.9757 67.0765C24.9708 67.1079 24.9316 67.1537 24.9012 67.1596C24.8719 67.1559 24.8427 67.1522 24.8135 67.1486C24.8022 67.138 24.7908 67.1274 24.7794 67.1167C24.7768 67.1181 24.9923 67.5459 25.0111 67.5839C25.1632 67.8904 25.3152 68.1969 25.4673 68.5035C25.7763 69.1264 26.0854 69.7495 26.3945 70.3724C26.4692 70.5231 26.544 70.6739 26.6188 70.8246C26.6675 70.9229 26.8066 70.9502 26.8967 70.8975C26.9968 70.839 27.0184 70.7181 26.9695 70.6194C26.6629 70.0015 26.3564 69.3834 26.0498 68.7655C25.8977 68.459 25.7457 68.1526 25.5937 67.8461C25.4418 67.5402 25.2987 67.2277 25.1375 66.9267C25.0561 66.7748 24.8643 66.7073 24.712 66.8023C24.6434 66.845 24.607 66.9103 24.578 66.9831C24.5465 67.0628 24.5161 67.143 24.4851 67.223C24.3696 67.5215 24.2542 67.8199 24.1386 68.1184C24.0627 68.3148 23.9911 68.5138 23.9103 68.7083C23.9045 68.7224 23.9249 68.6732 23.9215 68.6788C23.9543 68.6234 24.1239 68.5825 24.1204 68.7032C24.1204 68.7011 24.1187 68.6989 24.1185 68.6967C24.1167 68.6818 24.1092 68.6656 24.1049 68.6512C24.0837 68.5796 24.0624 68.5079 24.0411 68.4364C23.8691 67.8569 23.6971 67.2776 23.5251 66.6982C23.3897 66.2421 23.2624 65.7827 23.1187 65.3292C23.1164 65.3218 23.1142 65.3142 23.1121 65.3067C23.0378 65.0564 22.6456 65.1629 22.7204 65.4147Z" fill="#010101"/>
<path d="M42.4608 74.826C42.869 74.1711 43.2772 73.5162 43.6854 72.8614C43.7499 72.7578 43.8278 72.6549 43.8822 72.5457C43.8849 72.5404 43.8909 72.5348 43.8925 72.5291C43.8621 72.6324 43.6614 72.5754 43.6908 72.4757C43.6899 72.4788 43.6914 72.4829 43.6909 72.4862C43.6839 72.5358 43.6925 72.5931 43.6931 72.6429C43.6992 73.0938 43.7053 73.5449 43.7114 73.9958C43.714 74.1895 43.701 74.429 43.945 74.4853C44.1153 74.5246 44.2198 74.4145 44.31 74.2946C44.4707 74.0808 44.6314 73.8671 44.7921 73.6535C45.3687 72.8864 45.9454 72.1194 46.5221 71.3524C46.7826 71.0059 47.0431 70.6594 47.3036 70.3129C47.4413 70.1297 47.5854 69.9497 47.7175 69.7623C47.7234 69.7539 47.7299 69.7458 47.7361 69.7375C47.8022 69.6497 47.7503 69.5102 47.6633 69.4594C47.5593 69.3986 47.4515 69.4444 47.3854 69.5323C47.0491 69.9796 46.7128 70.4268 46.3767 70.874C45.7886 71.6562 45.2004 72.4385 44.6123 73.2208C44.4188 73.4783 44.2251 73.7359 44.0314 73.9934C43.9943 74.0429 43.9519 74.0911 43.9186 74.1433C43.9033 74.1673 43.8877 74.1414 43.9601 74.1013C44.016 74.0702 44.1452 74.1043 44.1204 74.1958C44.1215 74.1917 44.1197 74.1865 44.1203 74.1823C44.1273 74.1283 44.1188 74.067 44.118 74.0128C44.1119 73.5616 44.1058 73.1103 44.0997 72.6591C44.0989 72.6038 44.0996 72.5483 44.0974 72.4931C44.0912 72.3275 43.9823 72.1846 43.8076 72.1785C43.6181 72.172 43.5393 72.3279 43.4548 72.4634C43.0177 73.1644 42.5808 73.8656 42.1438 74.5666C42.1326 74.5848 42.1212 74.6028 42.11 74.6209C41.9712 74.8434 42.3226 75.0478 42.4608 74.826Z" fill="#010101"/>
<path d="M54.5979 71.6187C55.1064 72.0538 55.5725 72.5427 55.9732 73.0794C56.073 73.2132 56.1693 73.3497 56.2618 73.4886C56.3587 73.6342 56.4399 73.8459 56.6316 73.8772C56.8349 73.9104 56.9263 73.7486 57.0166 73.6049C57.19 73.3292 57.3633 73.0535 57.5366 72.7778C57.5424 72.7686 57.5561 72.7538 57.5585 72.7429C57.5605 72.7341 57.6051 72.7092 57.542 72.7637C57.5175 72.7739 57.493 72.7841 57.4684 72.7942C57.4529 72.7911 57.4373 72.7881 57.4217 72.785C57.421 72.7868 57.4924 72.8372 57.4959 72.8398C57.6303 72.9394 57.7633 73.0408 57.8947 73.1443C58.1726 73.3632 58.4444 73.59 58.7097 73.8239C59.3059 74.3497 59.8688 74.9127 60.3955 75.5082C60.4682 75.5904 60.6085 75.5824 60.6827 75.5082C60.7644 75.4264 60.7557 75.3031 60.6827 75.2207C60.2137 74.6906 59.7163 74.1861 59.1919 73.7108C58.9297 73.4732 58.661 73.2428 58.3862 73.0201C58.2452 72.9058 58.1026 72.7938 57.9587 72.6834C57.8897 72.6302 57.8202 72.5776 57.7503 72.5255C57.6692 72.4649 57.5939 72.3958 57.4877 72.3898C57.2948 72.3789 57.2137 72.5279 57.1267 72.6661C57.0321 72.8169 56.9372 72.9675 56.8426 73.1182C56.7633 73.2442 56.6841 73.3702 56.6049 73.4962C56.5993 73.5049 56.587 73.518 56.5849 73.5281C56.5853 73.5264 56.6221 73.4987 56.639 73.4916C56.656 73.4846 56.7602 73.4348 56.7544 73.5061C56.7551 73.4986 56.7322 73.4677 56.7249 73.4561C56.6329 73.3109 56.5369 73.1683 56.4368 73.0284C55.9893 72.4025 55.4697 71.8311 54.885 71.3309C54.8017 71.2596 54.6795 71.2491 54.5977 71.3309C54.525 71.4043 54.5142 71.547 54.5979 71.6187Z" fill="#010101"/>
<path d="M31.1888 73.8388C31.3549 74.408 31.4841 74.9886 31.6232 75.5647C31.7024 75.8927 31.7814 76.2207 31.8628 76.5481C31.897 76.6863 31.9318 76.8242 31.9677 76.9618C31.9859 77.0315 31.999 77.1106 32.038 77.1722C32.1044 77.2772 32.2344 77.3302 32.3555 77.303C32.5406 77.2612 32.6224 77.0358 32.7026 76.8842C32.7919 76.7155 32.8769 76.5448 32.9614 76.3738C33.1249 76.0434 33.2829 75.7092 33.4647 75.3882C33.4818 75.358 33.4991 75.328 33.5168 75.2982C33.5538 75.2361 33.5412 75.2935 33.4764 75.3137C33.4478 75.3103 33.4192 75.3067 33.3906 75.3033C33.3576 75.2658 33.3481 75.2601 33.3625 75.2864C33.3684 75.3329 33.4105 75.3925 33.4296 75.4359C33.4506 75.4836 33.4712 75.5315 33.4911 75.5796C33.5752 75.783 33.653 75.9891 33.7253 76.197C33.8717 76.6176 33.9964 77.0455 34.1094 77.4761C34.366 78.4549 34.5608 79.4486 34.8035 80.4309C34.8662 80.6847 35.2581 80.5772 35.1953 80.3228C34.7658 78.5848 34.4834 76.7927 33.7441 75.149C33.6955 75.0408 33.6352 74.9486 33.5128 74.92C33.3772 74.8883 33.2548 74.9549 33.1814 75.0675C33.0896 75.2085 33.0143 75.3631 32.9375 75.5125C32.7627 75.8526 32.5995 76.1985 32.4248 76.5387C32.3865 76.6134 32.3476 76.6876 32.3077 76.7614C32.2882 76.7971 32.2685 76.8328 32.2485 76.8683C32.2398 76.8836 32.231 76.8989 32.2222 76.9143C32.2171 76.9232 32.2119 76.9321 32.2066 76.941C32.1801 76.9808 32.1991 76.9697 32.2637 76.9077C32.2929 76.9003 32.413 76.9174 32.3935 76.9828C32.395 76.9778 32.3858 76.9549 32.3853 76.9518C32.38 76.9191 32.3678 76.8861 32.3595 76.8539C32.3425 76.7883 32.3257 76.7226 32.3089 76.6569C32.2293 76.3425 32.153 76.0274 32.0768 75.7123C31.917 75.0512 31.7712 74.3838 31.5807 73.7308C31.5075 73.48 31.1153 73.5867 31.1888 73.8388Z" fill="#010101"/>
<path d="M12.3386 80.1572C12.5186 79.8294 12.6984 79.5016 12.8784 79.1738C13.2173 78.5564 13.5563 77.9391 13.8951 77.3217C14.0965 76.9548 14.3113 76.5922 14.5005 76.2188C14.6224 75.9782 14.4328 75.7244 14.1675 75.7745C14.0769 75.7916 13.9871 75.8151 13.8971 75.8351C13.582 75.9059 13.2668 75.9765 12.9518 76.0472C12.9273 76.0528 12.8861 76.0539 12.8642 76.0669C12.9377 76.0234 12.993 76.2001 12.9987 76.1966C13.0153 76.1863 13.0287 76.0948 13.0346 76.0752C13.0602 75.9892 13.0864 75.9034 13.1133 75.8179C13.2158 75.4907 13.3267 75.1661 13.4457 74.8446C13.6814 74.208 13.9501 73.5841 14.25 72.9749C14.3246 72.8235 14.4011 72.6731 14.4794 72.5235C14.5302 72.4263 14.5043 72.3025 14.4066 72.2453C14.315 72.1918 14.1797 72.2207 14.1286 72.3182C13.8075 72.9322 13.5181 73.5622 13.2594 74.2051C13.1314 74.5232 13.0114 74.8445 12.8997 75.1687C12.8429 75.3332 12.7883 75.4986 12.7359 75.6645C12.7121 75.74 12.6887 75.8155 12.6658 75.8912C12.6394 75.9781 12.5983 76.0738 12.596 76.1656C12.5909 76.37 12.7852 76.494 12.9709 76.4593C12.9965 76.4545 13.0218 76.4479 13.0472 76.4422C13.1879 76.4106 13.3285 76.3791 13.4692 76.3476C13.6386 76.3095 13.8082 76.2716 13.9776 76.2335C14.0434 76.2187 14.1092 76.2039 14.1751 76.1892C14.2046 76.1825 14.2454 76.1806 14.2726 76.1673C14.2875 76.16 14.2566 76.1835 14.2618 76.1686C14.2563 76.1694 14.251 76.1702 14.2456 76.171C14.1756 76.164 14.1426 76.1322 14.1465 76.0761C14.1442 76.0577 14.1331 76.0234 14.1535 76.0073C14.1518 76.0088 14.151 76.0125 14.1496 76.0144C14.1407 76.0264 14.1345 76.0421 14.1273 76.0552C14.0941 76.1157 14.0609 76.1763 14.0276 76.2367C13.9049 76.4602 13.7822 76.6836 13.6596 76.9071C13.3216 77.5227 12.9836 78.1385 12.6456 78.7541C12.4298 79.1471 12.2061 79.5366 11.9981 79.9337C11.9948 79.94 11.9913 79.9461 11.9879 79.9523C11.8617 80.1815 12.2125 80.387 12.3386 80.1572Z" fill="#010101"/>
<path d="M50.7957 62.6866C51.2291 63.2499 51.6625 63.8131 52.0959 64.3764C52.27 64.6026 52.444 64.829 52.6182 65.0551C52.7103 65.1746 52.8454 65.2393 52.9936 65.1749C53.1108 65.1241 53.1565 65.0262 53.1767 64.9067C53.197 64.7867 53.2172 64.6669 53.2375 64.5469C53.2763 64.318 53.315 64.0891 53.3537 63.8601C53.3731 63.7457 53.3925 63.6312 53.4118 63.5168C53.4128 63.5114 53.4137 63.506 53.4147 63.5004C53.4244 63.464 53.4239 63.4574 53.413 63.4809C53.391 63.4984 53.3688 63.516 53.3467 63.5335C53.3094 63.5419 53.2763 63.5342 53.247 63.5103C53.2557 63.5064 53.3681 63.6488 53.3801 63.6627C54.09 64.475 54.7999 65.2873 55.5099 66.0996C55.5822 66.1822 55.7232 66.1736 55.7971 66.0996C55.8791 66.0176 55.8696 65.8949 55.7971 65.8121C55.1649 65.0885 54.5326 64.3652 53.9004 63.6417C53.8228 63.5527 53.7452 63.464 53.6674 63.3752C53.5912 63.2879 53.5173 63.1715 53.3982 63.1411C53.2954 63.1149 53.1792 63.1425 53.1048 63.2204C53.0185 63.3108 53.0149 63.4389 52.9951 63.5557C52.9554 63.7901 52.9159 64.0244 52.8762 64.2588C52.8568 64.3732 52.8375 64.4877 52.8181 64.6021C52.8089 64.6566 52.7997 64.7111 52.7904 64.7656C52.7876 64.7825 52.7785 64.8125 52.7793 64.831C52.7667 64.8775 52.7739 64.8753 52.8007 64.8247C52.8382 64.7901 52.8817 64.7852 52.9314 64.8101C52.9836 64.8411 52.987 64.8755 52.9675 64.8477C52.9598 64.8366 52.9509 64.8261 52.9427 64.8154C52.9127 64.7764 52.8827 64.7375 52.8527 64.6985C52.7466 64.5605 52.6404 64.4225 52.5342 64.2847C52.2525 63.9186 51.9708 63.5525 51.6891 63.1864C51.5081 62.9513 51.3273 62.7162 51.1464 62.4812C51.0796 62.3943 50.9717 62.3478 50.8685 62.4082C50.7833 62.4585 50.7284 62.5991 50.7957 62.6866Z" fill="#010101"/>
<path d="M58.2422 68.9945C57.4343 70.5998 56.6561 72.2201 55.9088 73.8544C55.1656 75.4797 54.4528 77.1188 53.7703 78.7705C53.3835 79.7067 53.0066 80.6471 52.6396 81.5911C52.613 81.6593 52.6688 81.7398 52.7341 81.7578C52.8108 81.779 52.874 81.7317 52.9007 81.6632C53.5478 79.999 54.2253 78.3468 54.934 76.708C55.643 75.0685 56.3828 73.4421 57.1523 71.8303C57.5841 70.9259 58.0253 70.0263 58.4758 69.1312C58.5542 68.9759 58.3206 68.8385 58.2422 68.9945Z" fill="#010101"/>
<path d="M19.6831 68.96C19.4725 70.4496 19.2619 71.9393 19.0513 73.4289C18.8407 74.9185 18.6301 76.4082 18.4195 77.898C18.3011 78.7348 18.1829 79.5718 18.0645 80.4086C18.0544 80.481 18.0823 80.5542 18.159 80.5753C18.2226 80.5928 18.3153 80.5536 18.3256 80.4807C18.5362 78.9911 18.7468 77.5014 18.9574 76.0118C19.168 74.522 19.3786 73.0325 19.5892 71.5429C19.7075 70.7059 19.8258 69.8691 19.9442 69.0322C19.9544 68.9599 19.9265 68.8867 19.8497 68.8655C19.7863 68.8479 19.6934 68.8871 19.6831 68.96Z" fill="#010101"/>
<path d="M52.5373 59.1598C51.1869 60.3938 49.6942 61.4663 48.0981 62.3589C46.4161 63.2994 44.6236 64.0377 42.7679 64.5559C40.9051 65.0761 38.9814 65.3742 37.0479 65.4287C35.2085 65.4806 33.3236 65.3273 31.6033 64.6296C29.9343 63.9526 28.4085 62.671 27.749 60.9581C27.6676 60.7468 27.6009 60.5306 27.5469 60.3107C27.5053 60.1414 27.2439 60.2131 27.2858 60.3827C27.7323 62.1985 29.1116 63.6671 30.7368 64.5244C32.4086 65.4061 34.329 65.688 36.1987 65.7077C38.1556 65.7284 40.1185 65.4914 42.0199 65.0308C43.9501 64.5632 45.8235 63.8594 47.5858 62.9429C49.2412 62.082 50.7978 61.0302 52.2112 59.8114C52.386 59.6605 52.5586 59.5071 52.729 59.3512C52.8579 59.2337 52.666 59.0423 52.5373 59.1598Z" fill="#010101"/>
</g>
</svg>
