<svg width="80" height="81" viewBox="0 0 80 81" fill="none" xmlns="http://www.w3.org/2000/svg">
<mask id="mask0_2492_26941" style="mask-type:alpha" maskUnits="userSpaceOnUse" x="0" y="0" width="80" height="81">
<circle cx="40" cy="40.5" r="40" fill="#C3DEF7"/>
</mask>
<g mask="url(#mask0_2492_26941)">
<circle cx="40" cy="40.5" r="40" fill="#FFE4C0"/>
<path d="M29.6986 52.2589C29.8066 53.7926 29.9148 56.7165 31.0546 57.8083C32.4262 59.1222 35.3388 59.3085 37.107 59.2697C39.3678 59.2201 41.5873 58.6921 43.7868 58.1668C46.5399 57.5094 49.4232 56.7845 51.5043 54.8646C53.7177 52.8227 54.6717 49.6834 54.6476 46.671C54.6278 44.1857 53.771 42.0224 53.3403 39.6269C52.9763 37.6025 51.853 36.2329 49.9739 35.2546C48.4397 34.4559 46.6912 34.131 44.962 34.1122C40.7868 34.0666 36.6599 35.884 33.7705 38.8812C30.4187 42.3578 29.3675 47.5558 29.6986 52.2589Z" fill="#010101"/>
<path d="M47.5927 56.6846C50.5064 57.4723 53.4178 59.0751 54.2371 62.1225C55.2764 65.988 55.4474 69.6534 54.1559 73.5081C52.8959 77.2685 50.5684 80.6091 47.7828 83.4302C45.1591 86.0873 41.7471 88.4368 38.0245 88.1619C35.4167 87.9693 33.058 86.4966 31.1486 84.7085C26.9996 80.823 24.6135 75.201 24.4465 69.5393C24.3792 67.2616 24.328 64.1082 26.0414 62.4088C28.0847 60.3821 30.5768 58.785 33.233 57.6939C37.7466 55.84 42.8679 55.4071 47.5927 56.6846Z" fill="#FDF7EC"/>
<path d="M26.4175 64.0554C28.0231 65.0802 29.755 65.9058 31.5605 66.5116C32.4567 66.8124 33.3712 67.0588 34.2972 67.2481C34.766 67.344 35.2377 67.4252 35.7115 67.4917C36.1064 67.547 36.5031 67.5879 36.8957 67.6574C37.663 67.7931 38.5211 68.0383 38.9148 68.7764C39.011 68.9566 39.2849 68.7965 39.1886 68.6162C38.8293 67.9427 38.1164 67.6116 37.4052 67.4394C37.025 67.3473 36.6366 67.2938 36.2489 67.2447C35.7908 67.1864 35.3343 67.121 34.8798 67.0385C32.9993 66.697 31.159 66.1224 29.4201 65.3284C28.4379 64.88 27.4876 64.3626 26.5774 63.7815C26.405 63.6712 26.2458 63.9457 26.4175 64.0554Z" fill="#010101"/>
<path d="M42.2824 68.8458C42.6943 68.1719 43.4505 67.7953 44.1772 67.5507C45.0617 67.2532 45.9919 67.1077 46.9132 66.9774C47.7205 66.8633 48.5436 66.7858 49.3349 66.5816C50.7127 66.2258 52.0653 65.7751 53.4142 65.3239C54.7694 64.8707 56.1228 64.4102 57.4981 64.0214C57.6684 63.9733 57.839 63.9263 58.0098 63.8805C58.2067 63.8276 58.1231 63.5214 57.9254 63.5745C56.534 63.9479 55.1664 64.4031 53.8008 64.8604C52.4322 65.3187 51.0636 65.7797 49.6715 66.1626C49.2448 66.2801 48.8194 66.3789 48.3823 66.4497C47.9471 66.5203 47.5097 66.577 47.0732 66.6373C46.1403 66.7662 45.2001 66.9023 44.2976 67.1791C43.5155 67.4189 42.6963 67.7794 42.1795 68.4412C42.1182 68.5197 42.0606 68.6007 42.0086 68.6857C41.9019 68.8603 42.176 69.0199 42.2824 68.8458Z" fill="#010101"/>
<path d="M77.0064 83.4646L54.009 84.9198L48.2006 85.2864L38.4453 85.9037C46.0916 78.6752 51.1944 70.4327 52.4693 59.9844C55.8072 60.7747 59.6176 61.676 62.9254 62.9599C63.4392 63.1598 63.9402 63.3677 64.4255 63.5867C64.852 63.7787 65.2897 63.985 65.7321 64.2088C68.7513 65.7275 71.9924 67.9603 73.5036 70.9072C75.454 74.7174 76.5783 79.2211 77.0064 83.4646Z" fill="#FDF7EC"/>
<path d="M67.5736 74.2432C67.0896 75.3497 66.5635 76.4377 66.0107 77.5114C65.4383 78.623 64.8367 79.72 64.203 80.798C63.8652 81.3728 63.5178 81.9421 63.1585 82.5035C63.0481 82.676 63.3225 82.8353 63.4324 82.6636C64.0834 81.6466 64.6957 80.6048 65.2813 79.5487C65.8876 78.4551 66.4653 77.3454 67.0097 76.2196C67.2999 75.6194 67.5802 75.0143 67.8474 74.4034C67.8817 74.325 67.8704 74.2331 67.7905 74.1863C67.7233 74.1469 67.6081 74.1644 67.5736 74.2432Z" fill="#010101"/>
<path d="M65.7323 64.2079C65.6498 65.9837 65.4437 67.7531 65.1139 69.5003C64.7682 71.3284 64.2132 73.2534 62.7876 74.4499C61.7157 75.3497 60.306 75.7036 58.9661 76.1067C57.6262 76.5098 56.2323 77.0366 55.3777 78.1459C54.8306 78.8552 54.5594 79.7376 54.3707 80.6136C54.0647 82.0243 53.9442 83.4748 54.0092 84.9189C54.0599 86.098 54.236 87.2707 54.5341 88.4133L47.8281 87.631C47.9391 86.8486 48.058 86.0647 48.2008 85.2855C48.5702 83.2606 49.0967 81.269 50.0259 79.4408C51.3135 76.9113 53.4891 74.7023 56.2371 73.9929C57.4597 73.6771 58.7948 73.6485 59.8604 72.9709C61.0561 72.2108 61.6523 70.8 62.0471 69.44C62.656 67.3373 62.9526 65.1458 62.9256 62.959C63.4394 63.1589 63.9405 63.3668 64.4257 63.5858C64.8522 63.7778 65.2899 63.9841 65.7323 64.2079Z" fill="#CADFF7"/>
<path d="M66.1989 71.9827C67.5325 72.9992 69.5633 70.0809 68.6661 68.953C68.3441 68.5482 67.7366 68.4017 67.2658 68.6157C66.9288 68.7686 66.681 69.0757 66.5254 69.4117C66.331 69.8312 66.171 70.3338 66.0327 70.7726C65.9157 71.1436 65.8455 71.7132 66.1989 71.9827Z" fill="#010101"/>
<path d="M42.0471 85.9037L3.48438 83.4646C3.91251 79.2211 5.03677 74.7174 6.98877 70.9072C7.84981 69.2266 9.27536 67.7762 10.9023 66.559C11.7269 65.9433 12.6022 65.3863 13.4822 64.8896C14.3544 64.396 15.2328 63.9628 16.0669 63.5867C19.6807 61.9585 24.1667 60.8969 28.0215 59.9844C28.3514 62.679 28.9349 65.226 29.7515 67.6477C29.9545 68.2507 30.1718 68.8474 30.4033 69.4345C32.8484 75.6378 36.8634 81.0032 42.0471 85.9037Z" fill="#FDF7EC"/>
<path d="M13.7115 75.7617C13.8969 78.083 14.4142 80.3755 15.2525 82.5483C15.4885 83.1601 15.7492 83.7623 16.0333 84.3531C16.1218 84.5371 16.3953 84.3763 16.3072 84.193C15.3156 82.131 14.6254 79.9258 14.2581 77.6673C14.1554 77.0355 14.0796 76.3998 14.0287 75.7617C14.0127 75.5595 13.6954 75.5577 13.7115 75.7617Z" fill="#010101"/>
<path d="M30.4072 69.4336C29.5177 69.7748 28.552 69.9208 27.6021 69.8478C26.7125 69.7796 25.8182 69.5289 24.9413 69.6939C23.557 69.9542 22.585 71.1602 21.4195 71.9521C20.2984 72.7138 18.8855 73.1074 17.5615 72.8185C16.3389 72.5504 15.3066 71.741 14.4122 70.8635C13.0882 69.5654 11.9734 68.0784 10.9062 66.5581C11.7308 65.9424 12.6061 65.3854 13.4862 64.8887C14.3044 66.2661 15.3795 67.4912 16.6433 68.4751C17.4742 69.1226 18.5018 69.6891 19.5325 69.4717C21.1325 69.1337 21.9317 67.1024 23.53 66.7565C24.7732 66.4867 25.9498 67.3421 27.1756 67.6848C28.016 67.9197 28.9198 67.8975 29.7555 67.6468C29.9585 68.2498 30.1757 68.8465 30.4072 69.4336Z" fill="#CADFF7"/>
<path d="M25.0722 84.4621C23.6173 80.2654 23.5014 75.4558 23.5 74.0862C23.4997 73.8596 23.6479 73.6608 23.8646 73.5951L26.3716 72.8348C26.6586 72.7477 26.9587 72.9245 27.0223 73.2179C27.4874 75.3599 29.3018 83.3122 31.5811 88.0418C34.2331 93.545 25.0722 84.4621 25.0722 84.4621Z" fill="#010101"/>
<path d="M22.1639 78.2035C22.1712 77.2066 20.7791 75.843 19.9549 76.9487C19.3796 77.7206 19.7405 78.8016 20.5065 79.2571C21.4072 79.7925 22.1562 79.2641 22.1639 78.2035Z" fill="#010101"/>
<path d="M33.9181 51.8196C34.0291 48.9123 33.999 46.0003 33.8262 43.0962L46.9367 42.3123L47.4204 42.2837L47.9643 42.252C47.0208 49.5391 47.4378 56.9993 49.1869 64.1341L32.6797 63.6834C33.3393 59.8542 33.75 55.9836 33.9054 52.1004C33.9102 52.0068 33.9149 51.9132 33.9181 51.8196Z" fill="#FDF7EC"/>
<path d="M36.3285 56.7113C36.4164 58.066 36.6247 59.4132 36.952 60.7308C37.2779 62.0425 37.7222 63.3237 38.274 64.5572C38.5858 65.2542 38.9334 65.9346 39.3144 66.5962C39.4162 66.7732 39.6904 66.6135 39.5883 66.436C38.9216 65.2783 38.3585 64.0625 37.9093 62.8041C37.4617 61.5501 37.1244 60.2564 36.9037 58.9431C36.7795 58.2041 36.6942 57.459 36.6457 56.7111C36.6325 56.5084 36.3154 56.507 36.3285 56.7113Z" fill="#010101"/>
<path d="M47.2243 45.1404C47.1846 45.4657 47.1371 45.7879 47.0958 46.1053C46.9753 47.0479 46.6043 47.9398 46.1048 48.7427C45.4435 49.8076 44.6126 50.7708 43.6263 51.5468C42.104 52.7465 40.1996 53.4861 38.2619 53.4924C36.7095 53.4988 35.1475 53.0147 33.8996 52.1007C33.9044 52.007 33.9091 51.9134 33.9123 51.8198C34.0233 48.9125 33.9932 46.0005 33.8203 43.0964L46.9309 42.3125C47.0704 42.6283 47.1735 42.96 47.2322 43.3059C47.3353 43.909 47.2956 44.5278 47.2243 45.1404Z" fill="#010101"/>
<path d="M43.266 11.3069C43.7897 11.6026 44.2949 11.9341 44.7798 12.2868C45.9133 13.1113 46.9833 14.0918 47.593 15.3544C48.2026 16.6169 48.2758 18.2091 47.4896 19.3699C47.2743 19.6878 46.9897 19.9738 46.6305 20.1091C46.2457 20.254 45.7581 20.1518 45.3526 20.1209C44.7987 20.0785 44.2838 19.8632 43.774 19.658C42.3231 19.074 40.8103 18.6442 39.2694 18.3781C37.8627 18.1351 36.3899 18.0142 35.1464 17.3128C33.7265 16.5119 33.108 14.9649 33.5929 13.4075C34.1372 11.6594 35.6272 10.4912 37.3825 10.131C38.2337 9.95644 39.1187 9.9501 39.9752 10.0918C41.1365 10.2843 42.2373 10.7264 43.266 11.3069Z" fill="#010101"/>
<path d="M61.2038 34.1318C61.0607 33.6577 60.0651 33.1633 59.7002 32.8275C59.0927 32.2686 58.5369 31.6535 58.0406 30.9935C57.4112 30.1567 56.8776 29.2473 56.456 28.2886C56.2286 27.7716 56.0339 27.2401 55.8742 26.6982C55.7343 26.2231 55.5487 25.3385 55.2734 24.4235C54.7858 21.7943 53.5753 19.2295 52.0194 17.3477C50.4292 15.4245 48.3313 13.9315 46.0058 13.0333C45.2048 12.724 43.8088 12.0219 42.9298 12.1256C41.6869 12.2722 41.6248 13.8074 41.7622 14.7519C42.4552 19.5143 44.5547 23.9485 46.8192 28.1939C47.4687 29.4115 48.158 30.6506 49.215 31.5374C50.0777 32.261 51.247 32.7066 52.3387 32.5549C53.1352 33.927 54.2003 35.1406 55.7023 35.7468C56.682 36.1423 57.798 36.2178 58.8212 35.9535C59.4051 35.8025 61.4543 34.9616 61.2038 34.1318Z" fill="#010101"/>
<path d="M29.8636 14.8474C27.7403 16.6172 26.4337 19.1605 25.6079 21.7572C25.1826 23.0947 24.8975 24.4636 24.6409 25.8412C24.3659 27.317 24.1511 28.7546 23.1805 29.9731C22.4158 30.933 21.2383 31.6108 20.0293 31.6481C19.7009 31.6582 19.5097 32.0126 19.6816 32.2929C20.1395 33.0393 20.8333 33.6419 21.643 33.9767C22.8346 34.4696 23.7023 34.1423 24.8734 33.9439C25.3809 33.8579 25.9183 34.0428 26.4602 33.9363C27.0345 33.8234 27.5813 33.5778 28.0846 33.2839C29.8363 32.261 31.2122 30.7097 32.4457 29.0949C33.9712 27.0977 35.3377 24.9825 36.5416 22.7764C37.9649 20.1679 39.2815 17.2327 38.8023 14.2482C38.7321 13.8105 38.5994 13.3817 38.3726 13.0009C37.9787 12.3393 37.4426 11.9516 36.7078 12.1157C35.9114 12.2936 35.095 12.3591 34.3008 12.5684C32.6809 12.9956 31.1516 13.7737 29.8636 14.8474Z" fill="#010101"/>
<path d="M22.4666 36.3225C21.8318 37.5338 20.7047 38.5537 19.3529 38.7549C18.6449 38.8603 18.1059 38.7024 17.6489 38.355C17.389 38.1574 17.0164 38.3585 17.0401 38.6841C17.1478 40.1584 17.4409 41.6634 18.0006 43.0072C18.7034 44.6943 19.9718 46.219 21.682 46.8605C24.4478 47.8977 28.1076 46.5299 29.9687 44.3801C31.9083 42.1395 32.9841 39.1508 32.8577 36.1842C32.7841 34.4562 32.2935 32.6935 31.1692 31.38C30.045 30.0663 28.2138 29.2887 26.5379 29.7111C25.3767 30.0039 23.8848 30.889 23.5032 32.1025C23.059 33.5142 23.1843 34.9531 22.4666 36.3225Z" fill="#010101"/>
<path d="M58.459 36.5765C58.4632 36.585 58.4671 36.5934 58.4712 36.602C59.2329 38.1943 59.5893 40.5398 60.8044 41.8292C61.5277 42.5966 62.4189 43.2401 63.4852 43.262C63.6727 43.2658 63.7948 43.464 63.7057 43.6289C63.1548 44.6469 62.2837 45.4906 61.2449 46.0011C57.3126 47.9333 52.6117 44.8291 50.4761 41.5692C48.8394 39.0708 48.2135 35.929 48.7679 32.9935C48.9242 32.1656 49.1919 31.3179 49.7903 30.7253C50.6299 29.8942 51.9873 29.75 53.0993 30.148C55.7405 31.0931 57.3164 34.1896 58.459 36.5765Z" fill="#010101"/>
<path d="M35.0379 60.6953C34.2563 59.9452 32.6776 58.0493 33.2749 55.1796C33.5892 53.6698 31.5084 54.1026 31.7465 52.5612C32.3574 48.6047 33.0496 44.6578 32.6787 40.6378C32.5978 39.7602 32.4613 38.8625 31.8711 38.153C31.6852 37.9296 31.4545 37.7426 31.1899 37.623C30.2565 37.201 29.3912 37.6639 28.6891 38.3136C27.828 37.7834 26.6394 37.7779 25.6867 38.1938C23.914 38.9679 22.9739 40.4994 22.4428 42.2555C21.7989 44.3852 21.332 46.5683 21.0453 48.7746C20.7116 51.3445 20.3606 54.072 20.5002 56.6679C20.6034 58.5863 21.0713 60.525 22.143 62.1193C23.2144 63.7133 24.9457 64.9243 26.8592 65.0803C27.3859 65.1233 28.0586 64.9758 28.1621 64.4571C28.2344 64.0949 27.9764 63.7592 27.7491 63.4682C27.4173 63.0437 27.0526 62.5227 26.7236 61.9574C27.1674 62.1693 27.6419 62.3445 28.148 62.4763C30.4689 63.0805 33.0436 62.5984 35.0025 61.2192C35.1776 61.0965 35.192 60.8434 35.0379 60.6953Z" fill="#010101"/>
<path d="M44.8092 61.2304C44.5299 61.557 44.2204 61.9771 44.3941 62.3667C44.5401 62.6945 44.953 62.808 45.3158 62.8675C51.9956 63.9626 59.5409 59.6971 59.6723 52.6721C59.7346 49.3432 56.6411 46.3017 53.3388 45.7999C52.4345 45.6625 51.4768 45.6919 50.6473 46.0676C49.2547 46.6984 49.1572 47.5711 49.3775 48.8308C49.622 50.2289 49.2419 51.8561 48.9084 53.2175C48.192 56.144 46.7896 58.9151 44.8092 61.2304Z" fill="#010101"/>
<path d="M54.0826 63.5717C54.0192 63.7047 54.1316 63.8527 54.2759 63.8234C54.702 63.7366 55.3612 63.6325 55.4879 63.5858C56.0316 63.3849 56.5459 63.1036 57.0094 62.7554C57.8942 62.0908 58.7414 61.0926 59.3134 60.1521C60.5445 58.1281 61.1492 55.7421 61.2002 53.3828C61.2514 51.015 60.7874 48.6665 60.0674 46.4194C59.4099 44.3677 58.7045 41.2465 56.7642 40.1709C56.2617 39.8924 55.664 39.8075 55.1184 39.9869C53.9155 40.3826 53.6873 41.6821 53.6366 42.8114C53.4715 46.4856 54.3779 50.0681 55.7018 53.4695C56.3017 55.0105 55.965 56.9987 55.6779 58.6016C55.3698 60.3195 54.8339 61.9967 54.0826 63.5717Z" fill="#010101"/>
<path d="M55.3598 60.6803C55.5601 59.9999 55.6892 59.2957 55.8075 58.5972C55.9475 57.7707 56.0637 56.9366 56.1192 56.0998C56.1429 55.7444 56.1587 55.3846 56.1283 55.0291C56.111 54.8271 55.7937 54.8254 55.8111 55.0291C55.8704 55.7215 55.7869 56.4324 55.7047 57.1194C55.6072 57.9343 55.4743 58.7464 55.3072 59.5498C55.2341 59.901 55.1554 60.2519 55.0541 60.5961C54.9962 60.7924 55.3023 60.8762 55.3598 60.6803Z" fill="#010101"/>
<path d="M33.7762 12.636C33.6551 12.8066 33.5712 13.0075 33.5355 13.2138C33.528 13.2568 33.5287 13.2971 33.5515 13.3362C33.5707 13.369 33.6084 13.4004 33.6463 13.4092C33.7234 13.4268 33.8263 13.3858 33.8414 13.2984C33.8499 13.2492 33.8609 13.2005 33.875 13.1526C33.8882 13.1076 33.9086 13.0648 33.9215 13.0202C33.9083 13.0662 33.9188 13.0269 33.9242 13.0151C33.9294 13.0037 33.9346 12.9924 33.9402 12.9813C33.9497 12.9616 33.9598 12.9423 33.9705 12.9232C33.9947 12.8796 34.0214 12.8374 34.0504 12.7966C34.0731 12.7647 34.0764 12.7106 34.0664 12.6743C34.0562 12.6374 34.0279 12.5976 33.9934 12.5794C33.9116 12.5359 33.8277 12.5635 33.7762 12.636Z" fill="#010101"/>
<path d="M45.4611 13.0016C46.0982 13.4451 46.6611 13.9974 47.1159 14.6269C47.166 14.6962 47.2539 14.73 47.3329 14.6839C47.4014 14.6439 47.4402 14.5366 47.3898 14.4668C46.9012 13.7906 46.3056 13.2042 45.6211 12.7277C45.5507 12.6786 45.4449 12.7148 45.4042 12.7846C45.3582 12.8633 45.3907 12.9524 45.4611 13.0016Z" fill="#010101"/>
<path d="M23.2708 34.2193C23.315 33.7385 23.435 33.2669 23.6177 32.8203C23.6502 32.741 23.5825 32.6459 23.5069 32.6251C23.416 32.6002 23.3443 32.6564 23.3118 32.7359C23.1179 33.2101 23.0004 33.7093 22.9536 34.2193C22.9458 34.3049 23.0321 34.378 23.1122 34.378C23.2045 34.378 23.2628 34.305 23.2708 34.2193Z" fill="#010101"/>
<path d="M21.4405 46.9324C23.6396 47.52 26.0384 47.0819 27.8764 45.7354C28.3564 45.3837 28.7952 44.9802 29.181 44.5269C29.3126 44.3724 29.0893 44.1467 28.9568 44.3025C27.5829 45.9161 25.5496 46.87 23.4288 46.875C22.7854 46.8764 22.1463 46.7926 21.5247 46.6266C21.3275 46.5736 21.2433 46.8795 21.4405 46.9324Z" fill="#010101"/>
<path d="M24.1468 47.156C25.4693 47.932 27.1091 48.0503 28.5241 47.4571C28.9088 47.2958 29.2707 47.0895 29.6026 46.8366C29.6706 46.7847 29.7064 46.6998 29.6595 46.6195C29.6203 46.5523 29.5111 46.5103 29.4426 46.5625C28.3048 47.4296 26.8171 47.7345 25.4344 47.3576C25.0383 47.2496 24.661 47.0897 24.307 46.882C24.1305 46.7785 23.9706 47.0527 24.1468 47.156Z" fill="#010101"/>
<path d="M58.3391 35.9683C58.0422 35.4835 57.7206 35.0143 57.3754 34.5626C57.3234 34.4947 57.2389 34.4587 57.1585 34.5057C57.0916 34.5449 57.0493 34.6544 57.1016 34.7227C57.4468 35.1744 57.7684 35.6435 58.0652 36.1284C58.1718 36.3024 58.4461 36.143 58.3391 35.9683Z" fill="#010101"/>
<path d="M50.9431 41.9102C51.5922 43.0828 52.4927 44.1051 53.5654 44.9065C54.6992 45.7535 56.0459 46.3577 57.4439 46.591C58.2673 46.7285 59.104 46.7343 59.9261 46.5845C60.1266 46.548 60.0417 46.2421 59.8418 46.2784C58.4391 46.5339 56.9885 46.2917 55.6812 45.749C54.468 45.2455 53.3731 44.4731 52.4833 43.5075C51.9922 42.9744 51.5681 42.3841 51.217 41.7499C51.118 41.5713 50.844 41.7312 50.9431 41.9102Z" fill="#010101"/>
<path d="M50.2032 44.1156C51.0866 45.2658 52.3829 46.074 53.805 46.3607C54.2071 46.4418 54.6173 46.4823 55.0275 46.4785C55.2315 46.4766 55.2319 46.1592 55.0275 46.1611C53.6684 46.1736 52.3149 45.6755 51.28 44.7941C50.9853 44.5431 50.713 44.2625 50.477 43.9553C50.4249 43.8873 50.3407 43.8512 50.2601 43.8983C50.1934 43.9375 50.1507 44.0472 50.2032 44.1156Z" fill="#010101"/>
<path d="M26.8284 61.7222C26.2085 60.7488 25.9029 59.6008 25.9561 58.4479C25.9654 58.2437 25.6483 58.2442 25.6389 58.4479C25.5834 59.6526 25.9071 60.8654 26.5545 61.8825C26.6639 62.0542 26.9386 61.8952 26.8284 61.7222Z" fill="#010101"/>
<path d="M54.0916 32.8294C54.8597 33.1654 55.433 33.8262 55.5879 34.5642C55.9868 36.4657 54.5353 38.5841 52.7506 39.6151C51.9171 40.0966 50.7572 40.3068 49.8578 39.8224C49.138 39.4347 48.9276 38.5714 48.8191 37.8852C48.6745 36.9702 49.2654 35.7703 49.7002 34.9483C50.4608 33.5099 52.005 32.0198 53.9792 32.7831C54.0171 32.7978 54.0547 32.8132 54.0916 32.8294Z" fill="#FDF7EC"/>
<path d="M51.4362 36.7796C52.0334 35.714 52.9991 34.8653 54.1389 34.4233C54.2186 34.3924 54.274 34.3167 54.2496 34.2281C54.2286 34.1518 54.1348 34.0861 54.0545 34.1173C52.8367 34.5896 51.8019 35.4781 51.1622 36.6194C51.0623 36.7977 51.3362 36.9579 51.4362 36.7796Z" fill="#010101"/>
<path d="M25.6019 32.8294C24.8338 33.1654 24.2604 33.8262 24.1057 34.5642C23.7065 36.4657 25.1582 38.5841 26.943 39.6151C27.7764 40.0966 28.9363 40.3068 29.8358 39.8224C30.5555 39.4347 30.7659 38.5714 30.8744 37.8852C31.019 36.9702 30.4282 35.7703 29.9934 34.9483C29.2327 33.5099 27.6886 32.0198 25.7144 32.7831C25.6765 32.7978 25.639 32.8132 25.6019 32.8294Z" fill="#FDF7EC"/>
<path d="M41.5043 14.3114C40.7985 14.2532 40.0957 14.2461 39.4216 14.2807C37.0633 14.4017 34.733 15.1873 32.8156 16.5733C30.9717 17.9062 29.5343 19.7767 28.6658 21.8766C27.6389 24.3594 27.5559 27.1654 27.725 29.8024C27.9187 32.8257 28.2173 35.843 28.6517 38.8415C29.0414 41.5331 30.609 43.8383 32.1756 45.985C32.9984 47.1125 33.8604 48.2173 34.8365 49.2174C35.8322 50.2373 36.5068 50.8768 38.0333 51.4694C40.1405 52.2874 42.385 51.6381 44.0861 50.257C45.339 49.2399 46.281 47.8978 47.2107 46.5945C48.7749 44.4018 50.4425 41.8205 50.9119 39.1451C51.3702 36.5334 51.6678 33.8937 51.804 31.2454C51.9345 28.7065 52.0547 26.2286 51.5885 23.7099C51.2863 22.0767 50.7909 20.4532 49.8783 19.0659C48.9631 17.6743 47.6592 16.5712 46.2363 15.7065C44.8648 14.8732 43.1756 14.4492 41.5043 14.3114Z" fill="#FDF7EC"/>
<path d="M28.2112 36.3112C28.2725 37.5982 28.4504 38.8792 28.7425 40.1341C28.7888 40.333 29.0947 40.2488 29.0483 40.0497C28.7625 38.8216 28.5884 37.5707 28.5281 36.3112C28.5186 36.1078 28.2013 36.1066 28.2112 36.3112Z" fill="#010101"/>
<path d="M51.3509 34.9165C51.1807 36.2486 51.0534 37.5887 50.7805 38.9053C50.7025 39.2818 50.6121 39.6559 50.5068 40.0258C50.4508 40.2226 50.7567 40.3065 50.8127 40.1102C51.1871 38.795 51.362 37.4354 51.5255 36.0808C51.5724 35.6927 51.6184 35.3044 51.668 34.9165C51.679 34.8313 51.5873 34.7578 51.5094 34.7578C51.4148 34.7578 51.3618 34.831 51.3509 34.9165Z" fill="#010101"/>
<path d="M41.9564 33.1782C41.8522 33.2745 41.9573 33.4461 42.0889 33.3934C42.7855 33.1149 44.0397 32.78 45.6699 33.0447C47.0344 33.2663 47.7031 33.4641 48.0212 33.5884C48.191 33.6547 48.2933 33.8304 48.2657 34.0107C48.238 34.1924 48.1807 34.4368 48.0629 34.6743C48.0434 34.7137 48.0873 34.7545 48.1246 34.7311C48.3372 34.5972 48.7723 34.2497 49.1742 33.4714C49.2005 33.4205 49.1886 33.3573 49.1447 33.3205C48.9016 33.1168 48.0193 32.496 46.0893 32.2841C44.0982 32.0654 42.9439 32.2659 41.9564 33.1782Z" fill="#010101"/>
<path d="M46.627 34.6706C46.6784 34.5459 46.722 34.4215 46.7604 34.3084C46.8371 34.0811 46.893 33.8462 46.9266 33.6076C46.9521 33.4271 47.0395 33.1166 46.8834 32.9742C46.7499 32.8523 46.54 32.7703 46.376 32.7019C45.8905 32.4993 45.3461 32.4082 44.8296 32.4629C44.6205 32.4851 44.3281 32.521 44.1567 32.6487C43.869 32.8633 43.9835 33.4251 44.0358 33.7326C44.1324 34.3003 44.4359 35.3667 45.145 35.4455C45.4397 35.4784 45.9607 35.5506 46.1979 35.344C46.3854 35.1807 46.5222 34.9252 46.627 34.6706Z" fill="#010101"/>
<path d="M42.442 43.3819C42.6683 42.8612 42.0106 42.2096 41.6056 41.9375C41.1545 41.6342 40.5329 41.4477 39.9899 41.4344C39.3945 41.4198 38.797 41.5996 38.3051 41.9349C37.8787 42.2257 37.4726 42.8257 37.6816 43.343C37.6816 43.343 38.8479 43.7494 39.8669 43.7145C40.8855 43.6796 42.442 43.3819 42.442 43.3819Z" fill="#010101"/>
<path d="M38.8929 34.3579C38.7759 35.1262 38.6936 35.8976 38.6357 36.6725C38.6087 37.0332 38.5767 37.3837 38.6845 37.7355C38.7967 38.1009 38.9316 38.4587 39.0551 38.8202C39.1208 39.0124 39.4273 38.9299 39.361 38.7358C39.2416 38.3862 39.1125 38.0399 39.0018 37.6875C38.8954 37.3488 38.9268 37.0208 38.953 36.6723C39.0088 35.9258 39.086 35.1823 39.1988 34.4422C39.2116 34.3576 39.1774 34.2716 39.0881 34.247C39.0129 34.2265 38.9059 34.2727 38.8929 34.3579Z" fill="#010101"/>
<path d="M40.8482 38.5877C40.8756 38.5711 40.9035 38.5554 40.9324 38.5412C40.9363 38.5393 40.9609 38.5249 40.965 38.526C40.9455 38.5339 40.9439 38.5347 40.9604 38.5281C40.9679 38.525 40.9753 38.5222 40.9829 38.5193C41.0375 38.499 41.0938 38.4836 41.1509 38.473C41.1645 38.4705 41.1786 38.4674 41.1924 38.4662C41.1469 38.47 41.2014 38.4659 41.21 38.4652C41.2381 38.463 41.2661 38.4619 41.2942 38.462C41.3223 38.4622 41.3503 38.4635 41.3783 38.466C41.3862 38.4667 41.3943 38.4676 41.4022 38.4684C41.4203 38.4706 41.418 38.4703 41.3958 38.4676C41.4104 38.4668 41.4288 38.4732 41.4433 38.476C41.5243 38.4922 41.6183 38.4528 41.6383 38.3651C41.6562 38.2864 41.6145 38.1872 41.5275 38.1699C41.2401 38.1128 40.9393 38.16 40.6881 38.3135C40.6174 38.3567 40.5843 38.4576 40.6312 38.5306C40.6769 38.6019 40.7724 38.6339 40.8482 38.5877Z" fill="#010101"/>
<path d="M36.8193 43.1868C38.3792 43.8623 40.1269 44.0424 41.7934 43.7079C42.2657 43.6132 42.7286 43.4754 43.1763 43.2974C43.2559 43.2658 43.3115 43.1912 43.2869 43.1022C43.2662 43.0265 43.172 42.9595 43.0919 42.9914C41.5752 43.5943 39.8835 43.7181 38.2945 43.3451C37.845 43.2396 37.4032 43.0963 36.9793 42.9127C36.9008 42.8787 36.8092 42.8895 36.7624 42.9697C36.7232 43.0366 36.7404 43.1525 36.8193 43.1868Z" fill="#010101"/>
<path d="M38.4605 45.2413C39.3788 45.6138 40.4261 45.5784 41.3262 45.1718C41.4042 45.1366 41.423 45.0231 41.3831 44.9547C41.3361 44.8744 41.2445 44.8623 41.1662 44.8977C40.3413 45.2705 39.3807 45.2743 38.5448 44.9353C38.4654 44.9031 38.3706 44.9704 38.3498 45.0463C38.3247 45.1367 38.3807 45.2089 38.4605 45.2413Z" fill="#010101"/>
<path d="M45.2787 27.5921C45.6354 27.5879 45.9926 27.6303 46.3378 27.7189C46.9845 27.885 48.3864 28.5939 48.0085 29.455C47.7288 30.0923 46.7745 29.9866 46.204 30.0085C45.4632 30.0369 44.7209 30.0155 43.9815 29.9631C43.6234 29.9377 43.1828 29.9225 42.9233 29.6343C42.2894 28.9297 43.1116 28.1883 43.7558 27.9107C44.2358 27.7043 44.7567 27.5983 45.2787 27.5921Z" fill="#010101"/>
<path d="M37.3568 33.0434C37.461 33.1398 37.3559 33.3113 37.2241 33.2586C36.5275 32.9801 35.2734 32.6453 33.6431 32.91C32.2786 33.1315 31.6099 33.3294 31.2918 33.4537C31.122 33.52 31.0197 33.6957 31.0473 33.8759C31.0751 34.0576 31.1323 34.302 31.2501 34.5396C31.2696 34.5789 31.2257 34.6197 31.1884 34.5964C30.9758 34.4625 30.5407 34.1149 30.1389 33.3367C30.1125 33.2858 30.1244 33.2226 30.1682 33.1858C30.4113 32.982 31.2936 32.3612 33.2235 32.1494C35.2152 31.9307 36.3693 32.131 37.3568 33.0434Z" fill="#010101"/>
<path d="M32.8547 34.5359C32.8034 34.4112 32.7598 34.2867 32.7214 34.1736C32.6446 33.9463 32.5888 33.7115 32.5552 33.4728C32.5298 33.2924 32.4423 32.9818 32.5985 32.8395C32.732 32.7176 32.942 32.6355 33.1059 32.5671C33.5913 32.3645 34.1358 32.2734 34.6523 32.3281C34.8614 32.3504 35.1539 32.3862 35.3253 32.514C35.6131 32.7285 35.4984 33.2903 35.4461 33.5978C35.3495 34.1655 35.046 35.2319 34.3369 35.3108C34.0423 35.3436 33.5212 35.4158 33.284 35.2092C33.0964 35.0458 32.9597 34.7904 32.8547 34.5359Z" fill="#010101"/>
<path d="M33.8637 27.5921C33.5071 27.5879 33.1498 27.6303 32.8046 27.7189C32.1581 27.885 30.756 28.5939 31.1339 29.455C31.4135 30.0923 32.3679 29.9866 32.9384 30.0085C33.6793 30.0369 34.4216 30.0155 35.161 29.9631C35.519 29.9377 35.9597 29.9225 36.2191 29.6343C36.8531 28.9297 36.0309 28.1883 35.3866 27.9107C34.9066 27.7043 34.3859 27.5983 33.8637 27.5921Z" fill="#010101"/>
<path d="M31.2075 36.8608C31.657 37.039 31.7414 36.3477 31.3486 36.1933C30.9473 36.0353 30.8634 36.7243 31.2075 36.8608Z" fill="#010101"/>
<path d="M35.462 46.8442C35.3393 46.6984 35.1663 46.5925 35.0272 46.6952C34.9076 46.7836 34.8295 46.9637 34.8859 47.1013C34.9422 47.2386 35.0519 47.3919 35.1992 47.4392C35.3399 47.4844 35.6401 47.2962 35.6152 47.137C35.6023 47.0546 35.5432 46.9407 35.462 46.8442Z" fill="#010101"/>
<path d="M49.8689 22.324C49.593 21.3304 49.1733 20.3453 48.4403 19.6205C47.8741 19.0606 47.0915 18.6839 46.3077 18.6703C46.2259 18.294 46.1082 17.9271 45.9451 17.5759C45.4207 16.4475 44.3462 15.5118 43.1044 15.4432C42.0292 15.3839 40.948 16.0263 40.4852 16.9994C40.0962 17.8175 40.1809 18.7579 40.593 19.5464C40.9813 20.2891 41.1569 21.1298 41.454 21.9257C42.1194 23.7084 43.0323 25.4453 44.4672 26.7295C45.0285 27.2319 45.6882 27.3768 45.8975 26.5095C45.9264 26.39 45.9475 26.2704 45.9644 26.1507C46.5375 26.9394 48.9051 30.0262 49.7982 28.7915C49.9444 28.5895 50.0059 28.3397 50.0568 28.0955C50.4537 26.1934 50.3887 24.1963 49.8689 22.324Z" fill="#010101"/>
<path d="M37.7745 17.1353C37.5634 16.2244 36.8567 15.382 35.9325 15.2452C35.1133 15.124 34.3149 15.5555 33.6557 16.057C32.3896 17.0202 31.6551 18.3799 30.5275 19.4435C29.3006 20.6005 28.1653 22.2409 27.3466 23.7112C26.5417 25.1567 26.0003 26.7486 25.7589 28.386C24.8978 29.973 24.7159 32.0288 25.4501 33.6739C26.1579 35.2601 28.2323 37.0792 29.9867 35.9762C30.1339 35.8837 30.1666 35.6823 30.0594 35.5454C29.6254 34.9909 28.7849 33.4995 28.7107 33.3261C28.3966 32.5915 28.1882 31.8118 28.0899 31.0187C28.4458 30.4945 28.7531 29.9373 29.0031 29.3551C29.006 29.3486 29.0089 29.3419 29.0115 29.3354C28.9944 30.1073 28.986 30.8759 28.9657 31.6335C28.9605 31.8275 28.9664 32.0487 29.1119 32.1771C29.2526 32.3012 29.4774 32.2827 29.6369 32.1836C29.7963 32.0846 29.9048 31.9231 30.0056 31.7647C30.7853 30.5404 31.4015 29.2132 31.8417 27.8302C32.0201 27.7572 32.1953 27.6736 32.3685 27.5717C33.4391 26.942 34.3171 26.0221 35.0586 25.0358C36.187 23.5347 36.8322 21.6352 37.4664 19.8837C37.7841 19.0048 37.9855 18.0462 37.7745 17.1353Z" fill="#010101"/>
<path d="M56.7054 29.617C56.5083 29.3818 56.2254 29.2399 55.9602 29.0858C54.4732 28.2219 53.3758 26.7551 52.8727 25.1183C52.5977 24.2239 52.6488 23.4076 52.5941 22.4974C52.541 21.6123 51.9332 20.6699 51.3266 20.034C51.0212 19.7137 50.645 19.4205 50.2041 19.3829C49.7317 19.3426 49.2722 19.615 48.985 19.9926C48.6979 20.3701 48.559 20.8393 48.4708 21.3056C48.1766 22.8622 48.3969 24.4402 48.8114 25.9548C48.8078 25.961 48.8033 25.9669 48.7998 25.9731C48.4236 26.6189 48.4538 27.3832 48.7212 28.06C49.0171 28.8094 49.231 29.554 49.3724 30.3562C49.6756 32.0757 49.6956 33.8456 49.4251 35.5708C49.4019 35.7181 49.3812 35.8842 49.4714 36.0028C50.0817 36.8045 51.8678 34.5068 52.1269 34.1073C52.4926 33.5432 52.7609 32.9341 52.9456 32.3017C53.1532 32.3174 53.3587 32.3182 53.5574 32.303C54.3593 32.2414 55.1363 31.9282 55.7695 31.4343C56.2766 31.0382 57.2762 30.2981 56.7054 29.617Z" fill="#010101"/>
<path d="M53.1181 23.889C52.6875 19.4681 49.5248 15.4832 45.3954 13.8549C41.2661 12.2265 36.3573 12.9217 32.707 15.4485C30.7011 16.8369 29.0643 18.7916 28.11 21.0427C27.6234 22.1907 27.437 23.3342 27.2423 24.5527C27.0972 25.4612 27.4451 26.4863 28.4982 25.6472C28.9041 25.3238 29.1593 24.8534 29.4468 24.4211C30.7746 22.4246 32.9586 21.1097 35.2975 20.5428C35.3443 21.2898 35.4506 22.0329 35.6232 22.7613C36.0441 24.5368 36.9329 26.6974 38.5433 27.7095C38.7778 27.857 39.0644 27.9423 39.3347 27.882C39.7564 27.7878 40.0305 27.3712 40.1533 26.9565C40.2283 26.7036 40.2557 26.4579 40.2579 26.2147C40.2969 26.2437 40.3361 26.2719 40.3761 26.2981C40.979 26.6933 41.5173 26.3008 41.8717 25.7381C42.1227 25.3398 42.2486 24.8764 42.3511 24.4168C42.5824 23.3804 42.7928 22.1226 42.8265 20.8573C43.2841 20.9816 43.7378 21.1198 44.1852 21.2712C46.7471 22.1372 49.1563 23.3928 51.576 24.6004C52.0499 24.8369 52.729 25.024 53.0208 24.5819C53.1521 24.3833 53.1411 24.1259 53.1181 23.889Z" fill="#010101"/>
<path d="M27.9137 30.967C27.626 31.3939 27.2434 31.7594 26.8045 32.0298C26.7315 32.0747 26.7036 32.1717 26.7475 32.2469C26.79 32.3197 26.8914 32.3489 26.9645 32.3039C27.4516 32.0036 27.8677 31.6017 28.1875 31.1272C28.2354 31.0561 28.2012 30.9513 28.1306 30.9101C28.0526 30.8644 27.9617 30.8958 27.9137 30.967Z" fill="#010101"/>
<path d="M29.1967 29.3952C29.3147 29.1095 29.4068 28.814 29.4719 28.5119C29.4893 28.4309 29.4479 28.3364 29.3612 28.3167C29.2812 28.2984 29.1848 28.3408 29.1661 28.4274C29.101 28.7296 29.009 29.0251 28.891 29.3107C28.8591 29.3877 28.9253 29.4885 29.0017 29.5059C29.0941 29.527 29.1626 29.4775 29.1967 29.3952Z" fill="#010101"/>
<path d="M32.0567 27.7742C32.5206 26.365 32.8094 24.9015 32.921 23.422C32.9364 23.2182 32.6191 23.2192 32.6039 23.422C32.4945 24.8734 32.206 26.3073 31.751 27.6897C31.6869 27.8843 31.9929 27.9676 32.0567 27.7742Z" fill="#010101"/>
<path d="M35.994 23.6131C35.5903 22.1109 35.4335 20.5489 35.5296 18.9961C35.5565 18.5595 35.6038 18.1244 35.6713 17.6923C35.6845 17.6077 35.6498 17.5215 35.5607 17.4971C35.4853 17.4764 35.3789 17.5228 35.3656 17.6078C35.1184 19.1879 35.1281 20.7982 35.3975 22.375C35.4736 22.8201 35.5711 23.2613 35.6883 23.6973C35.7413 23.8944 36.0473 23.811 35.994 23.6131Z" fill="#010101"/>
<path d="M42.6368 23.9612C42.923 22.4009 42.999 20.8046 42.8523 19.2248C42.8107 18.7783 42.7516 18.3333 42.6766 17.8912C42.6622 17.8066 42.5581 17.7593 42.4815 17.7804C42.3921 17.805 42.3564 17.8908 42.3709 17.9756C42.6293 19.4981 42.6767 21.056 42.5167 22.5918C42.4719 23.0225 42.4094 23.451 42.3312 23.8769C42.2943 24.0764 42.5998 24.1621 42.6368 23.9612Z" fill="#010101"/>
<path d="M46.1016 26.1027C45.4737 25.2216 44.975 24.2535 44.6276 23.2285C44.5624 23.0361 44.2559 23.1186 44.3217 23.3129C44.6777 24.3636 45.1838 25.3597 45.8276 26.263C45.8773 26.3327 45.9659 26.366 46.0446 26.32C46.1135 26.2795 46.1516 26.1728 46.1016 26.1027Z" fill="#010101"/>
<path d="M49.2382 28.8744C48.7973 27.4622 48.3564 26.0501 47.9154 24.6379C47.8547 24.4437 47.5485 24.5265 47.6096 24.7224C48.0506 26.1346 48.4914 27.5466 48.9323 28.9588C48.9931 29.1531 49.2993 29.0702 49.2382 28.8744Z" fill="#010101"/>
<path d="M53.0865 32.4889C53.3538 31.5788 53.4314 30.6168 53.3086 29.6763C53.2975 29.5914 53.2436 29.5176 53.1501 29.5176C53.073 29.5176 52.9804 29.5907 52.9915 29.6763C53.1109 30.5915 53.0408 31.5192 52.7806 32.4047C52.7231 32.6008 53.0289 32.6848 53.0865 32.4889Z" fill="#010101"/>
<path d="M25.3531 33.1024C25.0857 32.0775 25.0748 30.9972 25.3225 29.9672C25.3702 29.7687 25.0645 29.6841 25.0166 29.8828C24.7556 30.9678 24.7656 32.1068 25.0472 33.1867C25.0987 33.3842 25.4046 33.3006 25.3531 33.1024Z" fill="#010101"/>
<path d="M37.7628 17.4202C37.5692 19.4061 37.8491 21.4385 38.5683 23.2993C38.7708 23.8232 39.0063 24.3339 39.2749 24.8272C39.3726 25.0066 39.6466 24.8466 39.5488 24.6671C38.6138 22.9504 38.0902 21.0158 38.0263 19.0619C38.0084 18.5141 38.0268 17.9658 38.0799 17.4204C38.0883 17.335 38.0011 17.2617 37.9214 17.2617C37.8288 17.2616 37.7712 17.3346 37.7628 17.4202Z" fill="#010101"/>
<path d="M37.7565 17.8566C38.5827 19.3051 39.0765 20.9616 39.0958 22.6342C39.1012 23.1063 39.0692 23.579 38.9931 24.0451C38.9793 24.1296 39.015 24.2159 39.1038 24.2403C39.1796 24.2611 39.285 24.2146 39.2988 24.1296C39.5795 22.4104 39.3202 20.6305 38.6707 19.0214C38.4868 18.5659 38.2738 18.123 38.0304 17.6965C37.9292 17.519 37.6551 17.6787 37.7565 17.8566Z" fill="#010101"/>
<path d="M45.8979 52.3876C46.2653 52.6598 46.4785 52.2476 46.4927 51.9168C46.4994 51.7598 46.481 51.5524 46.369 51.4299C46.0303 51.0592 45.5227 52.1094 45.8979 52.3876Z" fill="#010101"/>
</g>
</svg>
