<svg width="556" height="196" viewBox="0 0 556 196" fill="none" xmlns="http://www.w3.org/2000/svg">
<path d="M550.283 33.7482C545.039 33.5122 539.772 33.4672 534.527 33.2313C533.539 33.1841 533.034 34.5928 533.931 35.0938C535.563 36.1911 537.17 37.169 538.801 38.2663C536.853 38.6015 535.248 37.9339 533.407 37.0039C532.604 36.6701 531.638 36.4318 530.915 37.0767C529.771 38.056 530.096 40.2283 530.131 41.589C530.23 45.0505 530.753 48.4879 530.43 51.9735C529.971 55.9843 527.796 54.6247 525.873 52.4055C523.808 50.091 522.068 47.2749 520.704 44.5064C518.359 39.6377 516.104 34.3152 512.052 30.6649C509.802 28.6369 505.206 27.3979 503.306 30.6457C500.941 34.6097 500.901 40.9599 502.114 45.3757C502.605 47.7627 507.954 63.086 501.343 59.7712C496.502 57.3387 493.454 49.9398 491.204 45.2381C490.893 44.6176 489.932 45.0001 490.126 45.6445C491.721 50.7283 494.609 55.8594 498.286 59.7726C500.302 61.8484 505.14 63.9706 506.446 59.9116C507.981 55.184 505.229 49.5277 503.921 44.9448C503.027 42.0806 503.232 38.619 503.49 35.7064C504.049 29.4992 508.941 29.807 512.313 33.7204C516.421 38.5403 518.168 44.9612 521.575 50.2353C522.814 52.0967 526.818 58.4924 530.047 56.6526C533.767 54.526 532.508 47.5081 532.22 44.0229C532.198 44.2139 531.608 38.3654 532.386 38.58C533.163 38.7944 533.944 39.3191 534.746 39.6528C536.279 40.2728 537.715 40.4152 539.169 40.0563C538.217 41.3698 537.406 42.7787 536.737 44.283C536.414 45.0949 537.432 45.8821 538.158 45.5475C543.074 42.9906 546.612 38.7872 550.933 35.4189C551.634 34.9651 551.2 33.7478 550.283 33.7482ZM541.653 39.0525C541.931 38.6226 541.67 38.2408 541.339 38.1216C541.337 37.8113 541.217 37.5249 540.933 37.3341C540.011 36.7138 539.018 36.0459 538.096 35.4257C541.294 35.5196 544.421 35.5657 547.62 35.6596C545.076 37.8572 542.698 40.2695 539.963 42.1328C540.495 41.1539 541.074 40.1032 541.653 39.0525Z" fill="#010101"/>
<path d="M544.112 159.201C541.398 154.707 538.513 150.3 535.799 145.806C535.29 144.958 533.838 145.319 533.919 146.344C533.911 148.31 533.989 150.19 533.982 152.156C532.622 150.721 532.287 149.015 532.039 146.967C531.871 146.115 531.533 145.179 530.596 144.935C529.146 144.527 527.519 146.002 526.406 146.786C523.582 148.79 521.013 151.132 517.933 152.797C514.342 154.64 514.266 152.077 515.045 149.246C515.825 146.243 517.202 143.233 518.749 140.563C521.498 135.91 524.674 131.08 525.463 125.685C525.902 122.687 524.383 118.176 520.626 118.398C516.016 118.63 510.711 122.12 507.71 125.579C505.997 127.312 496.217 140.265 495.306 132.925C494.644 127.549 499.108 120.907 501.771 116.426C502.115 115.823 501.263 115.236 500.835 115.755C497.49 119.903 494.824 125.153 493.609 130.383C493.001 133.212 493.92 138.415 498.021 137.249C502.806 135.902 505.985 130.475 509.071 126.843C510.958 124.51 513.952 122.761 516.518 121.359C521.992 118.379 524.451 122.621 523.066 127.597C521.336 133.689 516.963 138.705 514.466 144.466C513.605 146.529 510.506 153.409 513.828 155.075C517.661 156.99 522.801 152.048 525.541 149.875C525.37 149.963 529.908 146.226 530.161 146.993C530.414 147.758 530.411 148.699 530.578 149.551C530.913 151.171 531.591 152.444 532.697 153.455C531.075 153.391 529.453 153.498 527.831 153.777C526.976 153.959 526.886 155.242 527.567 155.661C532.422 158.331 537.882 158.942 543.082 160.668C543.849 161 544.621 159.964 544.112 159.201ZM534.91 154.964C535.422 154.958 535.595 154.528 535.51 154.187C535.767 154.013 535.939 153.754 535.94 153.412C535.944 152.301 535.949 151.104 535.953 149.993C537.65 152.705 539.347 155.333 541.044 158.046C537.804 157.149 534.477 156.509 531.41 155.268C532.519 155.167 533.715 155.066 534.91 154.964Z" fill="#010101"/>
<path d="M39.4974 74.7692C39.4896 74.777 39.4727 74.7947 39.4456 74.8189C39.3864 74.8719 39.2833 74.9572 39.1375 75.053C38.8462 75.2442 38.3899 75.4736 37.7686 75.5821C36.5839 75.7887 34.4488 75.6091 31.3092 73.0729C30.9436 72.7774 30.5303 72.0266 30.3691 70.4323C30.2143 68.8999 30.3233 66.8898 30.6646 64.5006C31.3454 59.7341 32.9053 53.7559 34.7642 47.6756C36.6191 41.6089 38.7532 35.4989 40.5609 30.4865C42.1298 26.1364 43.4765 22.5512 44.1526 20.6029L44.3997 19.8709C45.9856 14.9947 47.2326 12.8937 48.1515 11.8963C49.0741 10.8951 49.4603 11.047 50.7428 10.3553C51.0302 10.2005 51.1559 10.2108 51.181 10.2135C51.2057 10.2161 51.3103 10.2301 51.5225 10.4097C52.0269 10.8367 52.6341 11.742 53.5376 13.3604C55.2654 16.4554 57.7005 21.4321 62.1059 27.2924C66.5253 33.1703 72.1857 38.5824 77.2949 43.2088C82.4831 47.9067 86.9686 51.6862 89.3263 54.4822C90.2492 55.5767 90.3498 56.514 90.1348 57.3578C89.8928 58.3077 89.1993 59.3077 88.2198 60.2759C87.259 61.2254 86.1382 62.031 85.2368 62.6069C84.7905 62.892 84.4078 63.115 84.1392 63.2651C84.0052 63.3399 83.9 63.3961 83.8304 63.4329C83.796 63.4511 83.7703 63.4646 83.7541 63.473C83.7461 63.4771 83.74 63.4803 83.7369 63.4819C83.7354 63.4827 83.7344 63.4832 83.7342 63.4834L83.7351 63.4832L81.74 64.4862L83.4243 65.9541L83.4253 65.954L83.4266 65.9557C83.4282 65.9571 83.4305 65.9596 83.4337 65.9624C83.4403 65.9682 83.4507 65.9764 83.4639 65.9879C83.4902 66.0108 83.5292 66.0453 83.5809 66.0904C83.6844 66.1808 83.8381 66.3146 84.0369 66.4887C84.4348 66.8372 85.0152 67.3465 85.7436 67.9885C87.2005 69.2725 89.2497 71.088 91.6193 73.2114C95.7684 76.9295 100.892 81.5859 105.531 85.99L107.485 87.859C111.633 91.8549 113.066 94.7801 113.251 96.8085C113.423 98.6981 112.53 100.135 110.977 101.314C109.386 102.521 107.248 103.325 105.408 103.82C104.503 104.063 103.703 104.224 103.129 104.32C102.88 104.362 102.678 104.389 102.532 104.407L98.109 102.909L101.16 106.847L101.161 106.848C101.161 106.849 101.161 106.85 101.162 106.851C101.164 106.853 101.167 106.857 101.171 106.861C101.178 106.87 101.189 106.884 101.203 106.902C101.231 106.939 101.273 106.994 101.328 107.065C101.439 107.207 101.6 107.417 101.808 107.686C102.224 108.223 102.823 108.997 103.553 109.941C105.012 111.831 106.997 114.405 109.099 117.143C113.312 122.628 117.974 128.74 119.842 131.338C121.516 133.665 123.775 137.76 124.217 142.259C124.635 146.504 123.456 151.193 118.334 155.274L117.826 155.667C112.359 159.774 106.675 159.297 102.209 157.714C99.97 156.92 98.0717 155.855 96.7304 154.985C96.0619 154.551 95.5374 154.168 95.184 153.898C95.0074 153.763 94.8734 153.657 94.7865 153.586C94.7433 153.551 94.7113 153.525 94.6917 153.508C94.6821 153.5 94.6756 153.494 94.6718 153.491C94.6704 153.49 94.669 153.489 94.6685 153.489L92.6226 151.721L92.2072 154.393C92.2066 154.397 92.2055 154.404 92.2038 154.414C92.2003 154.434 92.1944 154.469 92.1858 154.515C92.1684 154.608 92.14 154.751 92.0987 154.937C92.0158 155.309 91.8802 155.855 91.674 156.521C91.2604 157.859 90.5681 159.666 89.4571 161.541C87.2447 165.275 83.4061 169.244 76.7584 170.423C69.557 171.7 64.0749 169.553 60.3686 167.085C58.5079 165.846 57.0967 164.525 56.1545 163.518C55.6845 163.016 55.3339 162.594 55.1042 162.304C54.9895 162.158 54.9047 162.046 54.8513 161.973C54.8247 161.937 54.8052 161.91 54.794 161.895C54.7889 161.887 54.7854 161.882 54.7835 161.88L54.7845 161.879L53.6547 160.232L52.3875 161.777C52.3865 161.778 52.3845 161.78 52.3818 161.784C52.3763 161.79 52.3668 161.801 52.3545 161.815C52.3297 161.845 52.2912 161.891 52.2395 161.951C52.1358 162.072 51.9792 162.252 51.775 162.477C51.3665 162.929 50.768 163.567 50.0165 164.298C48.5062 165.766 46.4106 167.58 44.0263 169.03C41.6278 170.489 39.0511 171.509 36.552 171.549C34.1287 171.588 31.6386 170.711 29.2884 168.089C27.0542 165.596 26.2357 161.696 26.5027 156.895C26.7673 152.136 28.0844 146.777 29.7784 141.69C31.468 136.616 33.5086 131.882 35.1746 128.391C36.0073 126.646 36.7422 125.221 37.2871 124.228C37.5606 123.729 37.7805 123.352 37.9362 123.101C37.9893 123.015 38.0304 122.953 38.0595 122.91C38.0732 122.897 38.0893 122.886 38.1034 122.871C38.1525 122.821 38.267 122.7 38.3644 122.515C38.4553 122.341 38.6365 121.904 38.465 121.363C38.2846 120.795 37.8518 120.535 37.6278 120.438C37.4098 120.345 37.2222 120.326 37.1472 120.32C36.985 120.308 36.857 120.325 36.8247 120.33C36.7338 120.342 36.6589 120.361 36.6368 120.366C36.539 120.391 36.3918 120.436 36.2839 120.468C36.0184 120.549 35.6092 120.673 35.0845 120.81C34.0295 121.086 32.5302 121.41 30.8908 121.523C27.531 121.756 24.0965 121.091 22.2433 118.04C20.939 115.892 21.1116 112.409 22.6214 107.907C24.0958 103.511 26.6944 98.5882 29.5462 93.9374C32.39 89.2999 35.4469 84.9953 37.7967 81.846C38.9706 80.2728 39.9659 78.9904 40.6664 78.1034C41.0165 77.66 41.2925 77.3151 41.4807 77.0822C41.5747 76.9658 41.6474 76.8777 41.6955 76.8187C41.7195 76.7893 41.7375 76.7673 41.7494 76.7528C41.7553 76.7456 41.7596 76.7401 41.7625 76.7367C41.7639 76.7349 41.7652 76.7339 41.7658 76.7331L41.7656 76.7321L39.5658 74.8544C39.4882 74.7854 39.4848 74.7837 39.485 74.7833L39.4868 74.782C39.4877 74.7809 39.4892 74.7794 39.4901 74.7784C39.4917 74.7767 39.493 74.7751 39.4943 74.7737C39.4955 74.7723 39.4965 74.7703 39.4974 74.7692ZM36.1568 120.604C36.1687 120.595 36.1773 120.589 36.1823 120.585C36.2184 120.561 36.2473 120.544 36.26 120.536C36.2743 120.528 36.2854 120.522 36.2899 120.52C36.2418 120.546 36.1982 120.575 36.1568 120.604Z" fill="#E0E6ED" stroke="#010101" stroke-width="3"/>
<path d="M72.1415 110.47C71.854 115.886 68.4431 120.758 62.9293 122.184L62.5852 122.269C57.1869 123.505 52.1337 120.51 50.19 115.785C50.22 115.748 50.2502 115.712 50.2801 115.676C52.3396 120.869 58.4219 123.591 63.9617 121.624C69.2118 119.761 71.7238 115.101 71.8879 110.243C71.9722 110.319 72.0563 110.395 72.1415 110.47ZM46.7411 114.827C46.7626 114.917 46.7846 115.007 46.8078 115.096C43.0636 119.149 38.3089 122.004 32.8554 123.514C32.8495 123.432 32.8669 123.362 32.8877 123.324C32.8972 123.306 32.9053 123.297 32.9119 123.292C32.9173 123.287 32.939 123.271 32.9938 123.256L32.9927 123.255C38.3754 121.78 43.0635 118.862 46.7411 114.827ZM75.1307 108.834C77.6085 110.869 80.5517 112.485 83.9975 112.769L83.9985 112.769C86.934 113.01 89.9402 112.124 92.0876 110.296C93.3405 109.23 94.2883 107.847 94.7454 106.225C94.8002 106.265 94.8555 106.304 94.9107 106.343C93.9032 109.708 90.8512 112.355 87.0279 112.917L87.0289 112.917C82.6508 113.558 78.632 111.847 75.1413 109.072C75.1384 108.993 75.1347 108.914 75.1307 108.834ZM112.339 101.942C112.379 101.95 112.442 101.981 112.5 102.039C109.847 103.877 106.492 105.261 103.271 105.507C101.491 105.642 99.7824 105.432 98.2412 104.778C98.2467 104.702 98.252 104.625 98.2559 104.549C100.024 105.334 101.968 105.503 103.842 105.29C106.919 104.941 109.964 103.56 112.219 101.983L112.22 101.982C112.269 101.948 112.296 101.942 112.303 101.94C112.311 101.939 112.321 101.938 112.339 101.942Z" fill="#CADFF7" stroke="#010101" stroke-width="3"/>
<path d="M65.8355 66.74C66.6881 67.6022 67.6879 68.3993 68.8997 68.8963L68.8998 68.8972C69.8903 69.3034 71.1048 69.5388 72.2784 69.3026C73.5271 69.0512 74.6551 68.2699 75.2516 66.8474C75.4913 66.2772 75.6038 65.7014 75.6345 65.1431C75.6454 65.1493 75.6558 65.1561 75.6666 65.1623C75.6559 65.5478 75.6212 65.9231 75.5553 66.281C75.3942 67.1568 75.0705 67.8699 74.5898 68.4021C74.1208 68.9213 73.4247 69.3548 72.3542 69.561C70.161 69.9829 68.4207 69.1801 66.7197 67.6842C66.4222 67.4226 66.1313 67.1423 65.8425 66.8488C65.8408 66.8125 65.8374 66.7763 65.8355 66.74ZM50.5827 69.4877C52.1735 71.4635 54.5649 72.7979 57.0387 73.0919C58.6558 73.284 60.0527 72.9697 61.0865 72.0533C62.0838 71.1691 62.4989 69.9369 62.6504 68.8039C62.6898 68.5087 62.7114 68.2068 62.7211 67.9014C62.765 67.9506 62.8094 67.9996 62.8538 68.0487C62.8397 68.4637 62.8055 68.8688 62.7435 69.2585C62.5642 70.3858 62.1851 71.2928 61.5982 71.9522C61.0298 72.5906 60.1678 73.1095 58.7964 73.3089L58.7954 73.3091C56.5828 73.632 54.3092 72.9171 52.4193 71.505C51.7001 70.9677 51.0516 70.3402 50.4963 69.6515C50.5253 69.597 50.5541 69.5424 50.5827 69.4877ZM46.8276 69.5326C46.8664 69.6041 46.9041 69.6763 46.9443 69.7471C44.9071 72.7839 41.959 75.1075 38.422 76.3377C38.3663 76.357 38.3364 76.3561 38.326 76.3554C38.3142 76.3545 38.2993 76.352 38.279 76.3418C38.2399 76.322 38.1898 76.2793 38.1497 76.2196C41.7742 74.933 44.7718 72.6355 46.8276 69.5326ZM78.5337 63.0596C81.937 64.4905 85.8912 64.2777 89.2206 62.4787C89.2236 62.4843 89.2295 62.4892 89.2325 62.4955C89.2506 62.5342 89.2616 62.576 89.2659 62.6135C89.2701 62.6502 89.2672 62.6742 89.2645 62.6851C89.2633 62.6903 89.2622 62.6932 89.262 62.6935L89.2612 62.6946C89.2606 62.6955 89.2569 62.6997 89.2485 62.7068C89.24 62.7139 89.2239 62.7259 89.1969 62.7406C85.8267 64.5741 81.941 64.6624 78.5589 63.2495C78.5508 63.1862 78.5427 63.1228 78.5337 63.0596Z" fill="#CADFF7" stroke="#010101" stroke-width="3"/>
<path d="M88.9829 174C89.3758 176.132 89.7161 178.04 89.5089 179.896L89.5083 179.898C89.3056 181.738 88.4933 183.386 87.2097 184.227L87.2087 184.227C85.6971 185.218 83.4395 184.831 82.4983 183.506C81.9432 182.724 81.7315 181.683 81.4989 180.286L81.4987 180.285C80.8602 176.463 80.2205 172.642 79.5815 168.819L86.0838 158.373C87.0506 163.582 88.018 168.79 88.9829 174Z" fill="#E0E6ED" stroke="#010101" stroke-width="3"/>
<path d="M289.277 122.901C296.091 120.877 304.217 124.732 306.956 131.292L308.192 134.253L309.671 131.405C312.984 125.029 321.866 122.165 328.281 125.404C334.696 128.643 337.662 137.491 334.497 143.944L333.043 146.908L336.231 146.054C339.887 145.074 343.78 146.016 347.048 148.246C350.32 150.478 352.841 153.924 353.757 157.719C355.559 165.189 352.245 173.396 346.528 178.971L345.968 179.502C339.908 185.076 331.793 188.081 323.479 189.875C304.912 193.878 288.631 192.043 270.959 184.958C267.841 183.43 265.004 181.544 263.132 178.937C261.251 176.317 260.535 172.917 261.645 170.197C262.763 167.457 265.997 165.789 268.471 166.671L273.108 168.325L270.181 164.366C267.356 160.546 266.534 155.291 268.058 150.791C269.581 146.291 273.423 142.617 277.989 141.297L279.294 140.92L279.048 139.585C277.761 132.594 282.46 124.926 289.276 122.901H289.277Z" fill="#FFE4C0" stroke="#010101" stroke-width="3"/>
<mask id="path-8-inside-1_2495_26275" fill="white">
<path d="M266.195 165.627C271.186 166.318 275.747 168.734 279.088 172.511C280.179 173.743 281.981 171.934 280.896 170.704C277.304 166.646 272.249 163.908 266.876 163.165C266.193 163.07 265.504 163.33 265.306 164.057C265.138 164.653 265.507 165.532 266.195 165.627Z"/>
</mask>
<path d="M266.195 165.627C271.186 166.318 275.747 168.734 279.088 172.511C280.179 173.743 281.981 171.934 280.896 170.704C277.304 166.646 272.249 163.908 266.876 163.165C266.193 163.07 265.504 163.33 265.306 164.057C265.138 164.653 265.507 165.532 266.195 165.627Z" fill="#CADFF7"/>
<path d="M266.195 165.627L265.783 168.599L265.784 168.599L266.195 165.627ZM279.088 172.511L276.841 174.499L276.842 174.499L279.088 172.511ZM280.896 170.704L283.145 168.719L283.142 168.716L280.896 170.704ZM266.876 163.165L266.461 166.137L266.465 166.137L266.876 163.165ZM265.306 164.057L268.194 164.87L268.197 164.859L268.2 164.848L265.306 164.057ZM266.195 165.627L265.784 168.599C270.076 169.193 273.982 171.266 276.841 174.499L279.088 172.511L281.335 170.523C277.512 166.202 272.297 163.444 266.607 162.656L266.195 165.627ZM279.088 172.511L276.842 174.499C277.679 175.446 278.861 175.983 280.136 175.918C281.313 175.858 282.279 175.304 282.932 174.65C284.211 173.368 284.987 170.806 283.145 168.719L280.896 170.704L278.646 172.689C278.358 172.362 278.189 171.872 278.24 171.37C278.285 170.937 278.478 170.619 278.684 170.412C278.886 170.209 279.265 169.954 279.83 169.925C280.495 169.891 281.043 170.193 281.335 170.523L279.088 172.511ZM280.896 170.704L283.142 168.716C279.083 164.128 273.379 161.036 267.287 160.194L266.876 163.165L266.465 166.137C271.118 166.78 275.526 169.163 278.649 172.692L280.896 170.704ZM266.876 163.165L267.291 160.194C265.734 159.977 263.153 160.551 262.412 163.267L265.306 164.057L268.2 164.848C268.069 165.326 267.717 165.748 267.273 165.975C266.897 166.167 266.594 166.155 266.461 166.137L266.876 163.165ZM265.306 164.057L262.418 163.245C262.096 164.387 262.316 165.535 262.761 166.401C263.216 167.287 264.188 168.378 265.783 168.599L266.195 165.627L266.607 162.656C267.514 162.782 267.957 163.386 268.098 163.659C268.228 163.912 268.347 164.323 268.194 164.87L265.306 164.057Z" fill="#010101" mask="url(#path-8-inside-1_2495_26275)"/>
<mask id="path-10-inside-2_2495_26275" fill="white">
<path d="M309.283 166.77C307.901 164.449 309.257 161.479 311.376 160.1C314.08 158.342 317.646 158.679 320.652 159.27C321.451 159.427 322.274 158.917 322.269 158.037C322.22 150.515 328.879 144.528 336.404 145.696C338.013 145.946 338.707 143.484 337.085 143.234C327.958 141.816 319.654 148.715 319.716 158.037C320.255 157.628 320.794 157.218 321.333 156.805C317.311 156.014 312.577 155.746 309.216 158.535C306.475 160.812 305.181 164.862 307.078 168.056C307.916 169.469 310.126 168.185 309.283 166.77Z"/>
</mask>
<path d="M309.283 166.77C307.901 164.449 309.257 161.479 311.376 160.1C314.08 158.342 317.646 158.679 320.652 159.27C321.451 159.427 322.274 158.917 322.269 158.037C322.22 150.515 328.879 144.528 336.404 145.696C338.013 145.946 338.707 143.484 337.085 143.234C327.958 141.816 319.654 148.715 319.716 158.037C320.255 157.628 320.794 157.218 321.333 156.805C317.311 156.014 312.577 155.746 309.216 158.535C306.475 160.812 305.181 164.862 307.078 168.056C307.916 169.469 310.126 168.185 309.283 166.77Z" fill="#CADFF7"/>
<path d="M309.283 166.77L306.705 168.305L306.705 168.305L309.283 166.77ZM311.376 160.1L309.741 157.585L309.74 157.586L311.376 160.1ZM320.652 159.27L321.231 156.326L321.23 156.326L320.652 159.27ZM322.269 158.037L325.269 158.02L325.268 158.018L322.269 158.037ZM336.404 145.696L336.865 142.732L336.864 142.732L336.404 145.696ZM337.085 143.234L336.624 146.198L336.628 146.199L337.085 143.234ZM319.716 158.037L316.716 158.057L316.756 164.059L321.533 160.425L319.716 158.037ZM321.333 156.805L323.156 159.187L328.436 155.145L321.912 153.862L321.333 156.805ZM309.216 158.535L307.3 156.226L307.299 156.227L309.216 158.535ZM307.078 168.056L309.659 166.526L309.658 166.524L307.078 168.056ZM309.283 166.77L311.86 165.234C311.719 164.997 311.646 164.639 311.841 164.093C312.048 163.513 312.496 162.951 313.012 162.614L311.376 160.1L309.74 157.586C308.137 158.629 306.847 160.241 306.192 162.071C305.525 163.935 305.464 166.221 306.705 168.305L309.283 166.77ZM311.376 160.1L313.011 162.615C314.615 161.573 317.066 161.623 320.074 162.214L320.652 159.27L321.23 156.326C318.226 155.736 313.546 155.111 309.741 157.585L311.376 160.1ZM320.652 159.27L320.073 162.213C322.282 162.648 325.287 161.229 325.269 158.02L322.269 158.037L319.269 158.055C319.265 157.467 319.573 156.919 320.018 156.601C320.412 156.32 320.853 156.252 321.231 156.326L320.652 159.27ZM322.269 158.037L325.268 158.018C325.231 152.277 330.31 147.786 335.944 148.661L336.404 145.696L336.864 142.732C327.447 141.27 319.208 148.753 319.269 158.057L322.269 158.037ZM336.404 145.696L335.944 148.661C338.613 149.076 340.372 147.155 340.846 145.459C341.09 144.582 341.112 143.442 340.544 142.362C339.92 141.177 338.791 140.462 337.542 140.269L337.085 143.234L336.628 146.199C336.189 146.131 335.582 145.818 335.234 145.156C334.942 144.601 334.993 144.108 335.066 143.846C335.143 143.572 335.311 143.282 335.617 143.053C335.969 142.788 336.434 142.665 336.865 142.732L336.404 145.696ZM337.085 143.234L337.545 140.27C326.653 138.577 316.642 146.826 316.716 158.057L319.716 158.037L322.716 158.018C322.667 150.604 329.264 145.055 336.624 146.198L337.085 143.234ZM319.716 158.037L321.533 160.425C322.071 160.016 322.613 159.603 323.156 159.187L321.333 156.805L319.509 154.423C318.974 154.832 318.439 155.239 317.9 155.65L319.716 158.037ZM321.333 156.805L321.912 153.862C317.829 153.058 311.813 152.482 307.3 156.226L309.216 158.535L311.131 160.844C313.342 159.009 316.792 158.969 320.753 159.749L321.333 156.805ZM309.216 158.535L307.299 156.227C303.748 159.177 301.651 164.794 304.499 169.588L307.078 168.056L309.658 166.524C308.711 164.93 309.202 162.446 311.132 160.843L309.216 158.535ZM307.078 168.056L304.498 169.586C305.142 170.673 306.176 171.389 307.363 171.603C308.47 171.802 309.516 171.535 310.321 171.066C311.125 170.597 311.882 169.815 312.25 168.737C312.646 167.579 312.506 166.319 311.86 165.234L309.283 166.77L306.705 168.305C306.481 167.928 306.38 167.359 306.573 166.796C306.738 166.313 307.049 166.028 307.301 165.881C307.554 165.734 307.944 165.611 308.427 165.698C308.99 165.799 309.433 166.146 309.659 166.526L307.078 168.056Z" fill="#010101" mask="url(#path-10-inside-2_2495_26275)"/>
<mask id="path-12-inside-3_2495_26275" fill="white">
<path d="M273.587 142.851C277.055 140.463 281.564 140.873 285.083 142.959C288.818 145.174 291.319 148.909 293.382 152.627C293.761 153.313 294.849 153.501 295.387 152.885C297.917 149.995 302.57 149.409 305.599 151.905C306.857 152.941 308.675 151.144 307.407 150.098C303.359 146.762 297.092 147.066 293.583 151.077C294.251 151.162 294.921 151.25 295.589 151.335C293.173 146.976 290.066 142.559 285.49 140.265C281.355 138.192 276.211 137.944 272.298 140.641C270.952 141.572 272.231 143.787 273.587 142.851Z"/>
</mask>
<path d="M273.587 142.851C277.055 140.463 281.564 140.873 285.083 142.959C288.818 145.174 291.319 148.909 293.382 152.627C293.761 153.313 294.849 153.501 295.387 152.885C297.917 149.995 302.57 149.409 305.599 151.905C306.857 152.941 308.675 151.144 307.407 150.098C303.359 146.762 297.092 147.066 293.583 151.077C294.251 151.162 294.921 151.25 295.589 151.335C293.173 146.976 290.066 142.559 285.49 140.265C281.355 138.192 276.211 137.944 272.298 140.641C270.952 141.572 272.231 143.787 273.587 142.851Z" fill="#CADFF7"/>
<path d="M273.587 142.851L271.886 140.38L271.883 140.382L273.587 142.851ZM285.083 142.959L286.613 140.378L286.612 140.378L285.083 142.959ZM293.382 152.627L296.007 151.176L296.005 151.171L293.382 152.627ZM295.387 152.885L293.13 150.909L293.129 150.91L295.387 152.885ZM305.599 151.905L303.692 154.22L303.692 154.22L305.599 151.905ZM307.407 150.098L309.316 147.784L309.315 147.783L307.407 150.098ZM293.583 151.077L291.325 149.102L287.617 153.341L293.204 154.053L293.583 151.077ZM295.589 151.335L295.209 154.311L301.082 155.059L298.213 149.881L295.589 151.335ZM285.49 140.265L286.835 137.583L286.834 137.583L285.49 140.265ZM272.298 140.641L270.596 138.171L270.592 138.174L272.298 140.641ZM273.587 142.851L275.288 145.322C277.547 143.767 280.756 143.882 283.553 145.54L285.083 142.959L286.612 140.378C282.372 137.865 276.563 137.16 271.886 140.38L273.587 142.851ZM285.083 142.959L283.553 145.54C286.557 147.32 288.736 150.436 290.758 154.082L293.382 152.627L296.005 151.171C293.903 147.382 291.08 143.027 286.613 140.378L285.083 142.959ZM293.382 152.627L290.756 154.078C291.476 155.381 292.748 156.048 293.897 156.213C295.067 156.382 296.572 156.088 297.646 154.859L295.387 152.885L293.129 150.91C293.664 150.298 294.355 150.217 294.753 150.275C295.128 150.329 295.666 150.558 296.007 151.176L293.382 152.627ZM295.387 152.885L297.645 154.86C299.193 153.091 302.014 152.838 303.692 154.22L305.599 151.905L307.507 149.59C303.126 145.98 296.64 146.898 293.13 150.909L295.387 152.885ZM305.599 151.905L303.692 154.22C305.799 155.956 308.306 155.163 309.566 153.91C310.215 153.264 310.787 152.289 310.834 151.084C310.885 149.768 310.291 148.588 309.316 147.784L307.407 150.098L305.497 152.412C305.157 152.131 304.811 151.568 304.839 150.85C304.862 150.245 305.139 149.85 305.335 149.655C305.539 149.452 305.838 149.276 306.235 149.228C306.694 149.173 307.168 149.311 307.507 149.589L305.599 151.905ZM307.407 150.098L309.315 147.783C304.091 143.478 295.966 143.796 291.325 149.102L293.583 151.077L295.841 153.052C298.217 150.335 302.627 150.046 305.499 152.413L307.407 150.098ZM293.583 151.077L293.204 154.053C293.535 154.095 293.867 154.138 294.202 154.182C294.536 154.225 294.873 154.268 295.209 154.311L295.589 151.335L295.968 148.359C295.637 148.317 295.305 148.274 294.97 148.231C294.636 148.188 294.299 148.144 293.962 148.101L293.583 151.077ZM295.589 151.335L298.213 149.881C295.739 145.417 292.264 140.305 286.835 137.583L285.49 140.265L284.145 142.947C287.868 144.813 290.607 148.534 292.964 152.789L295.589 151.335ZM285.49 140.265L286.834 137.583C281.993 135.156 275.636 134.698 270.596 138.171L272.298 140.641L274 143.111C276.787 141.191 280.716 141.228 284.146 142.947L285.49 140.265ZM272.298 140.641L270.592 138.174C268.321 139.744 268.433 142.399 269.335 143.952C269.797 144.749 270.593 145.539 271.729 145.894C272.965 146.281 274.251 146.038 275.291 145.32L273.587 142.851L271.883 140.382C272.245 140.132 272.863 139.962 273.52 140.168C274.077 140.342 274.382 140.696 274.524 140.94C274.67 141.191 274.77 141.537 274.708 141.952C274.637 142.432 274.364 142.86 274.004 143.109L272.298 140.641Z" fill="#010101" mask="url(#path-12-inside-3_2495_26275)"/>
<g clip-path="url(#clip0_2495_26275)">
<path d="M203.088 154.67C235.79 154.67 262.301 128.159 262.301 95.457C262.301 62.7547 235.79 36.2441 203.088 36.2441C170.386 36.2441 143.875 62.7547 143.875 95.457C143.875 128.159 170.386 154.67 203.088 154.67Z" fill="#CADFF7"/>
<path d="M203.089 145.929C230.963 145.929 253.56 123.333 253.56 95.4579C253.56 67.5832 230.963 44.9863 203.089 44.9863C175.214 44.9863 152.617 67.5832 152.617 95.4579C152.617 123.333 175.214 145.929 203.089 145.929Z" fill="#CADFF7"/>
<path d="M242.578 64.0254C246.54 71.2303 248.796 79.5056 248.796 88.3089C248.796 116.183 226.199 138.78 198.324 138.78C182.334 138.78 168.083 131.343 158.836 119.741C167.42 135.35 184.018 145.929 203.09 145.929C230.964 145.929 253.561 123.332 253.561 95.4573C253.561 83.5726 249.451 72.649 242.578 64.0254Z" fill="#CADFF7"/>
<path d="M203.089 115.936C214.399 115.936 223.568 106.767 223.568 95.4561C223.568 84.1456 214.399 74.9766 203.089 74.9766C191.778 74.9766 182.609 84.1456 182.609 95.4561C182.609 106.767 191.778 115.936 203.089 115.936Z" fill="#CADFF7"/>
<path d="M229.364 70.9499C230.006 69.8054 228.739 68.539 227.595 69.1811L200.096 84.6122L196.17 88.5377L192.245 92.4631L176.814 119.962C176.172 121.107 177.438 122.373 178.583 121.731L206.082 106.3L210.007 102.374L213.933 98.449L229.364 70.9499Z" fill="#FFE4C0"/>
<path d="M203.085 99.0647C205.078 99.0647 206.694 97.4491 206.694 95.4562C206.694 93.4633 205.078 91.8477 203.085 91.8477C201.092 91.8477 199.477 93.4633 199.477 95.4562C199.477 97.4491 201.092 99.0647 203.085 99.0647Z" fill="#CADFF7"/>
<path d="M166.134 132.411C176.004 142.281 189.128 147.717 203.087 147.717C217.045 147.717 230.169 142.281 240.039 132.411C249.91 122.54 255.345 109.417 255.345 95.4579C255.345 81.4991 249.91 68.3758 240.039 58.5052C230.169 48.6351 217.045 43.1992 203.087 43.1992C189.128 43.1992 176.004 48.6351 166.134 58.5052C156.264 68.3758 150.828 81.4991 150.828 95.4579C150.828 109.417 156.264 122.54 166.134 132.411ZM236.525 60.1074L234.306 62.2453C233.596 62.9301 233.575 64.0615 234.26 64.7722C234.61 65.1363 235.078 65.3193 235.547 65.3193C235.993 65.3193 236.44 65.1533 236.786 64.8192L239.031 62.657C246.94 71.3169 251.771 82.8335 251.771 95.4581C251.771 108.083 246.94 119.599 239.031 128.259L236.786 126.097C236.076 125.412 234.945 125.433 234.26 126.144C233.575 126.855 233.596 127.986 234.306 128.671L236.525 130.809C227.797 139.069 216.024 144.143 203.087 144.143C190.15 144.143 178.376 139.069 169.648 130.809L171.867 128.671C172.577 127.986 172.598 126.855 171.914 126.144C171.229 125.434 170.098 125.412 169.387 126.097L167.143 128.259C159.233 119.599 154.402 108.082 154.402 95.4579C154.402 82.8333 159.233 71.3166 167.143 62.6568L169.387 64.819C169.734 65.153 170.18 65.3191 170.626 65.3191C171.095 65.3191 171.563 65.1359 171.914 64.772C172.598 64.0612 172.577 62.9299 171.867 62.2453L169.648 60.1074C178.376 51.8469 190.15 46.7734 203.087 46.7734C216.024 46.7734 227.797 51.8469 236.525 60.1074Z" fill="#010101"/>
<path d="M256.049 122.025C255.18 121.555 254.096 121.878 253.627 122.746C243.568 141.335 224.202 152.883 203.086 152.883C187.747 152.883 173.326 146.91 162.48 136.064C151.633 125.217 145.66 110.796 145.66 95.4573C145.66 80.7385 151.222 66.7409 161.322 56.0432C161.999 55.3255 161.967 54.1946 161.249 53.517C160.531 52.8395 159.4 52.8717 158.722 53.5896C147.994 64.9535 142.086 79.8223 142.086 95.4573C142.086 111.751 148.431 127.069 159.952 138.591C171.474 150.112 186.792 156.457 203.086 156.457C225.516 156.457 246.086 144.192 256.77 124.447C257.24 123.579 256.917 122.494 256.049 122.025Z" fill="#010101"/>
<path d="M246.221 52.3234C234.699 40.8022 219.381 34.457 203.087 34.457C188.945 34.457 175.161 39.4071 164.274 48.3955C163.513 49.0239 163.406 50.1505 164.034 50.9115C164.663 51.6729 165.789 51.7801 166.55 51.152C176.798 42.6908 189.774 38.0312 203.087 38.0312C218.426 38.0312 232.847 44.0045 243.693 54.8508C254.54 65.6971 260.513 80.1179 260.513 95.457C260.513 102.63 259.207 109.625 256.633 116.25C256.276 117.17 256.732 118.206 257.652 118.563C257.865 118.646 258.083 118.685 258.299 118.685C259.014 118.685 259.69 118.252 259.965 117.545C262.7 110.506 264.087 103.074 264.087 95.457C264.087 79.1634 257.742 63.845 246.221 52.3234Z" fill="#010101"/>
<path d="M177.936 123.692C178.453 123.692 178.974 123.561 179.455 123.291L193.397 115.467C193.498 115.544 193.608 115.612 193.728 115.667C196.671 117.032 199.819 117.724 203.086 117.724C215.364 117.724 225.353 107.735 225.353 95.4572C225.353 92.0457 224.601 88.7727 223.119 85.7275L230.92 71.8257H230.92C231.604 70.6061 231.4 69.1221 230.411 68.1332C229.422 67.1444 227.938 66.9395 226.718 67.624L212.815 75.4256C212.805 75.4204 212.795 75.4139 212.785 75.4089C209.748 73.9373 206.484 73.191 203.086 73.191C190.808 73.191 180.82 83.1798 180.82 95.4577C180.82 98.8711 181.573 102.142 183.055 105.186L175.253 119.089C174.569 120.309 174.773 121.793 175.762 122.782C176.362 123.381 177.143 123.692 177.936 123.692ZM221.779 95.4574C221.779 105.765 213.394 114.15 203.087 114.15C201.111 114.15 199.189 113.847 197.345 113.252L206.954 107.86C207.097 107.78 207.228 107.681 207.343 107.565L215.194 99.7143C215.31 99.5988 215.409 99.4677 215.489 99.3252L220.883 89.7137C221.478 91.5553 221.779 93.4783 221.779 95.4574ZM184.394 95.4574C184.394 85.1503 192.78 76.765 203.087 76.765C205.065 76.765 206.988 77.0664 208.83 77.6621L199.219 83.0551C199.076 83.1352 198.946 83.2343 198.83 83.3499L190.979 91.2008C190.863 91.3163 190.764 91.4474 190.684 91.5899L185.291 101.2C184.696 99.3593 184.394 97.4373 184.394 95.4574ZM193.68 93.554L201.183 86.0515L226.953 71.5907L212.492 97.3611L204.99 104.863L179.219 119.324L193.68 93.554Z" fill="#010101"/>
<path d="M200.076 65.1734C201.063 65.1734 201.863 64.3733 201.863 63.3863V57.6976L206.329 64.1639C206.84 64.902 207.697 65.2144 208.515 64.9592C209.345 64.6997 209.882 63.931 209.882 62.9834L209.775 51.9262C209.765 50.945 208.967 50.1562 207.988 50.1562C207.983 50.1562 207.976 50.1562 207.971 50.1562C206.983 50.1658 206.191 50.9736 206.201 51.9605L206.257 57.77L201.547 50.9492C201.102 50.3057 200.292 50.0261 199.544 50.2587C198.798 50.4915 198.289 51.1828 198.289 51.9648V63.3863C198.289 64.3733 199.089 65.1734 200.076 65.1734Z" fill="#010101"/>
<path d="M242.318 102.588H247.096C248.083 102.588 248.883 101.788 248.883 100.801C248.883 99.8143 248.083 99.0142 247.096 99.0142H244.105V96.9192H246.743C247.731 96.9192 248.531 96.119 248.531 95.1321C248.531 94.1451 247.731 93.345 246.743 93.345H244.105V91.25H247.096C248.083 91.25 248.883 90.4499 248.883 89.4629C248.883 88.4759 248.083 87.6758 247.096 87.6758H242.318C241.331 87.6758 240.531 88.4759 240.531 89.4629V100.801C240.531 101.788 241.331 102.588 242.318 102.588Z" fill="#010101"/>
<path d="M205.972 131.663C204.63 131.168 203.375 130.63 202.927 130.434C202.801 130.312 202.79 130.16 202.806 130.045C202.847 129.761 203.088 129.533 203.466 129.419C204.885 128.991 206.234 130.04 206.287 130.082C207.042 130.706 208.161 130.606 208.794 129.854C209.429 129.099 209.331 127.971 208.576 127.336C207.538 126.464 205.077 125.201 202.436 125.997C200.721 126.513 199.508 127.869 199.269 129.537C199.043 131.11 199.725 132.624 201.049 133.487C201.128 133.538 201.211 133.583 201.297 133.622C201.364 133.652 202.95 134.358 204.736 135.016C205.407 135.264 206.094 135.699 206.008 136.177C205.936 136.583 205.362 137.184 204.361 137.184C203.323 137.184 202.327 136.769 201.697 136.075C201.035 135.344 199.905 135.288 199.173 135.95C198.442 136.613 198.386 137.743 199.049 138.475C200.364 139.926 202.3 140.758 204.361 140.758C206.945 140.758 209.118 139.096 209.527 136.805C209.837 135.068 209.066 132.804 205.972 131.663Z" fill="#010101"/>
<path d="M169.72 89.0828L168.67 94.3614L166.983 88.8843C166.692 87.9409 165.692 87.4124 164.748 87.7026C164.118 87.8966 163.675 88.408 163.535 89.0068L161.877 94.3626L160.829 89.0637C160.638 88.0956 159.699 87.4658 158.73 87.6574C157.762 87.8489 157.132 88.7892 157.323 89.7571L159.553 101.028C159.569 101.113 159.593 101.197 159.622 101.279C159.911 102.095 160.684 102.64 161.549 102.64H161.564C162.434 102.634 163.207 102.076 163.486 101.252C163.491 101.237 163.496 101.222 163.501 101.207L165.274 95.4782L167.039 101.208C167.046 101.232 167.054 101.256 167.063 101.279C167.352 102.095 168.125 102.64 168.99 102.64H169.004C169.874 102.635 170.647 102.077 170.927 101.254C170.952 101.18 170.972 101.104 170.987 101.027L173.226 89.7805C173.419 88.8126 172.79 87.8716 171.822 87.6788C170.854 87.486 169.913 88.1146 169.72 89.0828Z" fill="#010101"/>
<path d="M208.479 95.4562C208.479 92.481 206.059 90.0605 203.083 90.0605C200.108 90.0605 197.688 92.481 197.688 95.4562C197.688 98.4314 200.108 100.852 203.083 100.852C206.058 100.852 208.479 98.4314 208.479 95.4562ZM203.083 97.2776C202.079 97.2776 201.262 96.4605 201.262 95.4562C201.262 94.4518 202.079 93.6348 203.083 93.6348C204.087 93.6348 204.905 94.4518 204.905 95.4562C204.905 96.4605 204.087 97.2776 203.083 97.2776Z" fill="#010101"/>
</g>
<rect x="298.086" y="56.457" width="177" height="49" rx="24.5" fill="#CADFF7"/>
<path d="M319.111 71.657C321.231 71.657 322.911 72.187 324.151 73.247C325.411 74.307 326.041 75.737 326.041 77.537C326.041 79.397 325.411 80.837 324.151 81.857C322.911 82.857 321.231 83.357 319.111 83.357L318.811 83.537H314.221V91.457H311.041V71.657H319.111ZM318.871 80.867C320.171 80.867 321.131 80.607 321.751 80.087C322.391 79.547 322.711 78.727 322.711 77.627C322.711 76.547 322.391 75.737 321.751 75.197C321.131 74.657 320.171 74.387 318.871 74.387H314.221V80.867H318.871ZM320.761 81.527L327.211 91.457H323.521L318.001 82.787L320.761 81.527ZM334.637 91.757C333.137 91.757 331.817 91.447 330.677 90.827C329.537 90.207 328.647 89.317 328.007 88.157C327.387 86.977 327.077 85.577 327.077 83.957C327.077 82.337 327.387 80.947 328.007 79.787C328.647 78.607 329.527 77.707 330.647 77.087C331.767 76.467 333.037 76.157 334.457 76.157C335.917 76.157 337.157 76.457 338.177 77.057C339.197 77.657 339.977 78.477 340.517 79.517C341.057 80.557 341.327 81.737 341.327 83.057C341.327 83.417 341.317 83.757 341.297 84.077C341.277 84.397 341.247 84.677 341.207 84.917H329.147V82.457H339.797L338.207 82.937C338.207 81.577 337.867 80.537 337.187 79.817C336.507 79.077 335.577 78.707 334.397 78.707C333.537 78.707 332.787 78.907 332.147 79.307C331.507 79.707 331.017 80.307 330.677 81.107C330.337 81.887 330.167 82.847 330.167 83.987C330.167 85.107 330.347 86.057 330.707 86.837C331.067 87.617 331.577 88.207 332.237 88.607C332.897 89.007 333.677 89.207 334.577 89.207C335.577 89.207 336.387 89.017 337.007 88.637C337.627 88.257 338.117 87.727 338.477 87.047L341.027 88.247C340.667 88.967 340.177 89.597 339.557 90.137C338.957 90.657 338.237 91.057 337.397 91.337C336.557 91.617 335.637 91.757 334.637 91.757ZM348.78 91.757C347.28 91.757 345.91 91.467 344.67 90.887C343.43 90.307 342.45 89.487 341.73 88.427L343.95 86.507C344.39 87.327 345.02 87.987 345.84 88.487C346.68 88.967 347.68 89.207 348.84 89.207C349.76 89.207 350.49 89.047 351.03 88.727C351.57 88.407 351.84 87.957 351.84 87.377C351.84 86.997 351.71 86.667 351.45 86.387C351.21 86.087 350.74 85.857 350.04 85.697L346.89 85.037C345.29 84.717 344.15 84.207 343.47 83.507C342.79 82.787 342.45 81.877 342.45 80.777C342.45 79.957 342.69 79.197 343.17 78.497C343.65 77.797 344.35 77.237 345.27 76.817C346.21 76.377 347.33 76.157 348.63 76.157C350.13 76.157 351.41 76.427 352.47 76.967C353.53 77.487 354.34 78.237 354.9 79.217L352.68 81.077C352.3 80.277 351.74 79.687 351 79.307C350.26 78.907 349.49 78.707 348.69 78.707C348.05 78.707 347.5 78.787 347.04 78.947C346.58 79.107 346.23 79.327 345.99 79.607C345.75 79.887 345.63 80.217 345.63 80.597C345.63 80.997 345.78 81.347 346.08 81.647C346.38 81.947 346.92 82.177 347.7 82.337L351.12 83.057C352.56 83.337 353.57 83.817 354.15 84.497C354.75 85.157 355.05 85.967 355.05 86.927C355.05 87.887 354.8 88.737 354.3 89.477C353.8 90.197 353.08 90.757 352.14 91.157C351.2 91.557 350.08 91.757 348.78 91.757ZM363.23 91.757C361.73 91.757 360.41 91.447 359.27 90.827C358.13 90.207 357.24 89.317 356.6 88.157C355.98 86.977 355.67 85.577 355.67 83.957C355.67 82.337 355.98 80.947 356.6 79.787C357.24 78.607 358.12 77.707 359.24 77.087C360.36 76.467 361.63 76.157 363.05 76.157C364.51 76.157 365.75 76.457 366.77 77.057C367.79 77.657 368.57 78.477 369.11 79.517C369.65 80.557 369.92 81.737 369.92 83.057C369.92 83.417 369.91 83.757 369.89 84.077C369.87 84.397 369.84 84.677 369.8 84.917H357.74V82.457H368.39L366.8 82.937C366.8 81.577 366.46 80.537 365.78 79.817C365.1 79.077 364.17 78.707 362.99 78.707C362.13 78.707 361.38 78.907 360.74 79.307C360.1 79.707 359.61 80.307 359.27 81.107C358.93 81.887 358.76 82.847 358.76 83.987C358.76 85.107 358.94 86.057 359.3 86.837C359.66 87.617 360.17 88.207 360.83 88.607C361.49 89.007 362.27 89.207 363.17 89.207C364.17 89.207 364.98 89.017 365.6 88.637C366.22 88.257 366.71 87.727 367.07 87.047L369.62 88.247C369.26 88.967 368.77 89.597 368.15 90.137C367.55 90.657 366.83 91.057 365.99 91.337C365.15 91.617 364.23 91.757 363.23 91.757ZM380.344 81.827C380.344 80.827 380.064 80.057 379.504 79.517C378.964 78.957 378.214 78.677 377.254 78.677C376.354 78.677 375.584 78.887 374.944 79.307C374.304 79.727 373.834 80.407 373.534 81.347L370.834 80.207C371.214 78.987 371.954 78.007 373.054 77.267C374.174 76.527 375.614 76.157 377.374 76.157C378.574 76.157 379.634 76.357 380.554 76.757C381.474 77.137 382.194 77.717 382.714 78.497C383.254 79.277 383.524 80.277 383.524 81.497V88.187C383.524 88.927 383.894 89.297 384.634 89.297C384.994 89.297 385.344 89.247 385.684 89.147L385.504 91.367C385.044 91.587 384.464 91.697 383.764 91.697C383.124 91.697 382.544 91.587 382.024 91.367C381.524 91.127 381.124 90.777 380.824 90.317C380.544 89.837 380.404 89.247 380.404 88.547V88.337L381.064 88.307C380.884 89.087 380.514 89.737 379.954 90.257C379.394 90.757 378.744 91.137 378.004 91.397C377.264 91.637 376.514 91.757 375.754 91.757C374.814 91.757 373.964 91.607 373.204 91.307C372.464 91.007 371.874 90.557 371.434 89.957C371.014 89.337 370.804 88.577 370.804 87.677C370.804 86.557 371.164 85.637 371.884 84.917C372.624 84.197 373.664 83.707 375.004 83.447L380.824 82.307L380.794 84.557L376.564 85.427C375.724 85.587 375.094 85.817 374.674 86.117C374.254 86.417 374.044 86.857 374.044 87.437C374.044 87.997 374.254 88.447 374.674 88.787C375.114 89.107 375.694 89.267 376.414 89.267C376.914 89.267 377.394 89.207 377.854 89.087C378.334 88.967 378.764 88.777 379.144 88.517C379.524 88.237 379.814 87.887 380.014 87.467C380.234 87.027 380.344 86.507 380.344 85.907V81.827ZM386.483 91.457V76.457H389.213L389.513 79.157C389.913 78.177 390.503 77.437 391.283 76.937C392.083 76.417 393.063 76.157 394.223 76.157C394.523 76.157 394.823 76.187 395.123 76.247C395.423 76.287 395.673 76.357 395.873 76.457L395.423 79.277C395.203 79.197 394.953 79.137 394.673 79.097C394.413 79.037 394.053 79.007 393.593 79.007C392.973 79.007 392.363 79.177 391.763 79.517C391.163 79.837 390.663 80.327 390.263 80.987C389.883 81.647 389.693 82.487 389.693 83.507V91.457H386.483ZM402.704 76.157C403.904 76.157 404.924 76.337 405.764 76.697C406.624 77.037 407.344 77.527 407.924 78.167C408.504 78.807 408.944 79.537 409.244 80.357L406.214 81.557C405.954 80.637 405.534 79.937 404.954 79.457C404.394 78.957 403.654 78.707 402.734 78.707C401.834 78.707 401.064 78.917 400.424 79.337C399.784 79.737 399.294 80.327 398.954 81.107C398.634 81.887 398.474 82.847 398.474 83.987C398.474 85.107 398.644 86.057 398.984 86.837C399.324 87.617 399.814 88.207 400.454 88.607C401.094 89.007 401.854 89.207 402.734 89.207C403.414 89.207 404.004 89.097 404.504 88.877C405.004 88.637 405.414 88.307 405.734 87.887C406.074 87.447 406.304 86.917 406.424 86.297L409.334 87.287C409.054 88.187 408.614 88.977 408.014 89.657C407.434 90.317 406.704 90.837 405.824 91.217C404.944 91.577 403.934 91.757 402.794 91.757C401.314 91.757 400.004 91.447 398.864 90.827C397.724 90.207 396.834 89.317 396.194 88.157C395.574 86.977 395.264 85.577 395.264 83.957C395.264 82.337 395.574 80.947 396.194 79.787C396.834 78.607 397.714 77.707 398.834 77.087C399.974 76.467 401.264 76.157 402.704 76.157ZM410.77 91.457V69.707H413.98V78.857C414.48 77.917 415.15 77.237 415.99 76.817C416.85 76.377 417.8 76.157 418.84 76.157C419.9 76.157 420.85 76.367 421.69 76.787C422.55 77.187 423.23 77.797 423.73 78.617C424.23 79.437 424.48 80.477 424.48 81.737V91.457H421.27V82.757C421.27 81.277 420.96 80.247 420.34 79.667C419.74 79.087 418.98 78.797 418.06 78.797C417.42 78.797 416.78 78.957 416.14 79.277C415.52 79.577 415 80.077 414.58 80.777C414.18 81.457 413.98 82.377 413.98 83.537V91.457H410.77ZM433.644 91.757C432.144 91.757 430.824 91.447 429.684 90.827C428.544 90.207 427.654 89.317 427.014 88.157C426.394 86.977 426.084 85.577 426.084 83.957C426.084 82.337 426.394 80.947 427.014 79.787C427.654 78.607 428.534 77.707 429.654 77.087C430.774 76.467 432.044 76.157 433.464 76.157C434.924 76.157 436.164 76.457 437.184 77.057C438.204 77.657 438.984 78.477 439.524 79.517C440.064 80.557 440.334 81.737 440.334 83.057C440.334 83.417 440.324 83.757 440.304 84.077C440.284 84.397 440.254 84.677 440.214 84.917H428.154V82.457H438.804L437.214 82.937C437.214 81.577 436.874 80.537 436.194 79.817C435.514 79.077 434.584 78.707 433.404 78.707C432.544 78.707 431.794 78.907 431.154 79.307C430.514 79.707 430.024 80.307 429.684 81.107C429.344 81.887 429.174 82.847 429.174 83.987C429.174 85.107 429.354 86.057 429.714 86.837C430.074 87.617 430.584 88.207 431.244 88.607C431.904 89.007 432.684 89.207 433.584 89.207C434.584 89.207 435.394 89.017 436.014 88.637C436.634 88.257 437.124 87.727 437.484 87.047L440.034 88.247C439.674 88.967 439.184 89.597 438.564 90.137C437.964 90.657 437.244 91.057 436.404 91.337C435.564 91.617 434.644 91.757 433.644 91.757ZM442.088 91.457V76.457H444.818L445.118 79.157C445.518 78.177 446.108 77.437 446.888 76.937C447.688 76.417 448.668 76.157 449.828 76.157C450.128 76.157 450.428 76.187 450.728 76.247C451.028 76.287 451.278 76.357 451.478 76.457L451.028 79.277C450.808 79.197 450.558 79.137 450.278 79.097C450.018 79.037 449.658 79.007 449.198 79.007C448.578 79.007 447.968 79.177 447.368 79.517C446.768 79.837 446.268 80.327 445.868 80.987C445.488 81.647 445.298 82.487 445.298 83.507V91.457H442.088ZM457.382 91.757C455.882 91.757 454.512 91.467 453.272 90.887C452.032 90.307 451.052 89.487 450.332 88.427L452.552 86.507C452.992 87.327 453.622 87.987 454.442 88.487C455.282 88.967 456.282 89.207 457.442 89.207C458.362 89.207 459.092 89.047 459.632 88.727C460.172 88.407 460.442 87.957 460.442 87.377C460.442 86.997 460.312 86.667 460.052 86.387C459.812 86.087 459.342 85.857 458.642 85.697L455.492 85.037C453.892 84.717 452.752 84.207 452.072 83.507C451.392 82.787 451.052 81.877 451.052 80.777C451.052 79.957 451.292 79.197 451.772 78.497C452.252 77.797 452.952 77.237 453.872 76.817C454.812 76.377 455.932 76.157 457.232 76.157C458.732 76.157 460.012 76.427 461.072 76.967C462.132 77.487 462.942 78.237 463.502 79.217L461.282 81.077C460.902 80.277 460.342 79.687 459.602 79.307C458.862 78.907 458.092 78.707 457.292 78.707C456.652 78.707 456.102 78.787 455.642 78.947C455.182 79.107 454.832 79.327 454.592 79.607C454.352 79.887 454.232 80.217 454.232 80.597C454.232 80.997 454.382 81.347 454.682 81.647C454.982 81.947 455.522 82.177 456.302 82.337L459.722 83.057C461.162 83.337 462.172 83.817 462.752 84.497C463.352 85.157 463.652 85.967 463.652 86.927C463.652 87.887 463.402 88.737 462.902 89.477C462.402 90.197 461.682 90.757 460.742 91.157C459.802 91.557 458.682 91.757 457.382 91.757Z" fill="#010101"/>
<defs>
<clipPath id="clip0_2495_26275">
<rect width="122" height="122" fill="white" transform="translate(142.086 34.457)"/>
</clipPath>
</defs>
</svg>
