<svg width="430" height="432" viewBox="0 0 430 432" fill="none" xmlns="http://www.w3.org/2000/svg">
<path d="M0 6.63867L13.3314 17.6964L16.242 0.622248L0 6.63867ZM37.6122 21.6975L36.9307 23.0338L37.6122 21.6975ZM97.0441 73.4854L95.9011 74.4568L97.0441 73.4854ZM119.659 105.629L120.958 104.879L119.659 105.629ZM138.258 144.812L136.858 145.351L136.858 145.351L138.258 144.812ZM153.494 194.085L152.038 194.446L153.494 194.085ZM163.074 240.442L161.595 240.69L163.074 240.442ZM164.013 282.561L162.519 282.427L162.519 282.427L164.013 282.561ZM144.307 323.716L143.126 322.792L143.126 322.792L144.307 323.716ZM98.5975 342.203L98.8079 340.718L98.5975 342.203ZM87.9695 319.385L86.5002 319.687L87.9695 319.385ZM109.237 272.279L108.03 271.387L109.237 272.279ZM157.472 246.339L157.92 247.771L157.472 246.339ZM202.782 236.608L203.047 238.085L202.782 236.608ZM260.036 243.908L259.468 245.296L259.468 245.296L260.036 243.908ZM320.753 296.373L319.646 297.385L320.753 296.373ZM413.994 425.236C414.779 429.584 418.941 432.472 423.289 431.686C427.637 430.9 430.524 426.738 429.738 422.391C428.953 418.043 424.791 415.155 420.443 415.941C416.095 416.727 413.208 420.889 413.994 425.236ZM3.02033 8.67364C3.82988 8.84949 4.6287 8.33577 4.80455 7.52622C4.98039 6.71667 4.46667 5.91785 3.65712 5.742L3.33873 7.20782L3.02033 8.67364ZM10.3419 7.65167C9.55826 7.38282 8.70509 7.8001 8.43625 8.58369C8.1674 9.36728 8.58468 10.2204 9.36827 10.4893L9.85506 9.07048L10.3419 7.65167ZM15.6123 12.879C16.377 13.1974 17.2552 12.8356 17.5736 12.0708C17.892 11.306 17.5302 10.4279 16.7654 10.1095L16.1888 11.4942L15.6123 12.879ZM23.0231 12.8657C22.2708 12.5188 21.3797 12.8474 21.0328 13.5997C20.6859 14.352 21.0146 15.2431 21.7669 15.59L22.395 14.2278L23.0231 12.8657ZM27.8566 18.4886C28.601 18.8523 29.4992 18.5438 29.8629 17.7995C30.2266 17.0551 29.918 16.1569 29.1737 15.7932L28.5152 17.1409L27.8566 18.4886ZM35.2644 18.8236C34.5249 18.4502 33.6228 18.7469 33.2494 19.4865C32.876 20.226 33.1728 21.1281 33.9123 21.5015L34.5884 20.1625L35.2644 18.8236ZM39.457 24.3826C40.1806 24.7859 41.0941 24.5263 41.4975 23.8026C41.9008 23.079 41.6411 22.1655 40.9175 21.7621L40.1872 23.0724L39.457 24.3826ZM46.0029 24.8135C45.3054 24.3666 44.3777 24.5697 43.9307 25.2672C43.4837 25.9647 43.6869 26.8925 44.3844 27.3395L45.1937 26.0765L46.0029 24.8135ZM49.1613 30.5703C49.8368 31.0498 50.7732 30.891 51.2528 30.2155C51.7323 29.54 51.5735 28.6036 50.898 28.1241L50.0297 29.3472L49.1613 30.5703ZM55.6389 31.6279C54.9814 31.1239 54.0399 31.2484 53.5359 31.9059C53.0319 32.5634 53.1564 33.505 53.8139 34.0089L54.7264 32.8184L55.6389 31.6279ZM58.3627 37.6027C59.0058 38.1249 59.9505 38.0269 60.4727 37.3838C60.9949 36.7407 60.897 35.796 60.2539 35.2738L59.3083 36.4382L58.3627 37.6027ZM64.769 39.0252C64.1372 38.4893 63.1907 38.5669 62.6547 39.1986C62.1188 39.8304 62.1965 40.7769 62.8282 41.3129L63.7986 40.169L64.769 39.0252ZM67.1027 45.0098C67.7231 45.5588 68.6711 45.5009 69.2201 44.8804C69.7691 44.26 69.7112 43.312 69.0907 42.7631L68.0967 43.8864L67.1027 45.0098ZM73.2111 46.4914C72.6028 45.9291 71.6538 45.9663 71.0914 46.5747C70.5291 47.183 70.5664 48.132 71.1747 48.6943L72.1929 47.5929L73.2111 46.4914ZM75.1728 52.4644C75.77 53.0385 76.7196 53.0198 77.2937 52.4226C77.8678 51.8253 77.8491 50.8758 77.2519 50.3016L76.2123 51.383L75.1728 52.4644ZM81.2189 54.1858C80.6322 53.601 79.6824 53.6024 79.0975 54.1891C78.5126 54.7758 78.5141 55.7255 79.1008 56.3104L80.1598 55.2481L81.2189 54.1858ZM82.9602 60.2264C83.5365 60.8215 84.4861 60.8367 85.0812 60.2604C85.6763 59.684 85.6915 58.7344 85.1152 58.1393L84.0377 59.1829L82.9602 60.2264ZM88.9418 62.1601C88.376 61.555 87.4267 61.5232 86.8217 62.089C86.2166 62.6549 86.1848 63.6041 86.7506 64.2092L87.8462 63.1846L88.9418 62.1601ZM90.4696 68.2579C91.0245 68.873 91.973 68.9219 92.5881 68.367C93.2033 67.8122 93.2522 66.8637 92.6973 66.2485L91.5835 67.2532L90.4696 68.2579ZM96.3775 70.4071C95.8345 69.7814 94.8872 69.7143 94.2615 70.2573C93.6358 70.8002 93.5687 71.7476 94.1117 72.3733L95.2446 71.3902L96.3775 70.4071ZM97.9964 76.9559C98.5244 77.5943 99.4699 77.6839 100.108 77.156C100.747 76.628 100.836 75.6825 100.308 75.0441L99.1524 76L97.9964 76.9559ZM104.442 80.1935C103.933 79.5398 102.991 79.4223 102.337 79.9312C101.684 80.44 101.566 81.3825 102.075 82.0362L103.259 81.1149L104.442 80.1935ZM105.992 87.2368C106.479 87.9065 107.418 88.0542 108.087 87.5665C108.757 87.0789 108.905 86.1407 108.417 85.471L107.204 86.3539L105.992 87.2368ZM112.219 90.8776C111.753 90.1921 110.82 90.0136 110.135 90.4789C109.45 90.9441 109.271 91.8769 109.736 92.5624L110.977 91.72L112.219 90.8776ZM113.306 98.0083C113.75 98.7082 114.676 98.9162 115.376 98.473C116.076 98.0297 116.284 97.103 115.841 96.4031L114.574 97.2057L113.306 98.0083ZM119.291 102.032C118.868 101.319 117.948 101.085 117.236 101.508C116.523 101.931 116.289 102.852 116.712 103.564L118.002 102.798L119.291 102.032ZM119.697 108.722C120.104 109.444 121.018 109.699 121.74 109.292C122.462 108.886 122.717 107.971 122.31 107.249L121.004 107.985L119.697 108.722ZM124.941 112.031C124.549 111.301 123.64 111.027 122.91 111.419C122.18 111.81 121.906 112.72 122.298 113.45L123.619 112.74L124.941 112.031ZM124.801 118.23C125.178 118.968 126.081 119.261 126.819 118.884C127.557 118.507 127.849 117.604 127.473 116.866L126.137 117.548L124.801 118.23ZM129.905 121.751C129.543 121.006 128.646 120.695 127.901 121.057C127.155 121.419 126.845 122.316 127.206 123.061L128.556 122.406L129.905 121.751ZM129.515 127.94C129.862 128.692 130.753 129.021 131.505 128.674C132.257 128.327 132.586 127.436 132.239 126.684L130.877 127.312L129.515 127.94ZM134.475 131.66C134.143 130.901 133.259 130.556 132.5 130.888C131.741 131.22 131.395 132.105 131.727 132.864L133.101 132.262L134.475 131.66ZM133.847 137.829C134.165 138.594 135.043 138.956 135.808 138.638C136.573 138.32 136.935 137.442 136.617 136.677L135.232 137.253L133.847 137.829ZM138.666 141.732C138.362 140.961 137.491 140.584 136.72 140.888C135.95 141.192 135.572 142.064 135.876 142.834L137.271 142.283L138.666 141.732ZM137.996 148.352C138.286 149.128 139.15 149.522 139.926 149.232C140.702 148.943 141.096 148.079 140.807 147.302L139.401 147.827L137.996 148.352ZM143.015 153.394C142.74 152.612 141.883 152.202 141.102 152.477C140.32 152.752 139.91 153.608 140.185 154.39L141.6 153.892L143.015 153.394ZM142.264 160.469C142.526 161.255 143.375 161.68 144.161 161.419C144.947 161.157 145.372 160.308 145.111 159.522L143.688 159.995L142.264 160.469ZM147.104 165.683C146.855 164.893 146.013 164.454 145.223 164.702C144.432 164.951 143.993 165.793 144.242 166.583L145.673 166.133L147.104 165.683ZM146.125 172.73C146.362 173.524 147.198 173.975 147.991 173.739C148.785 173.502 149.237 172.666 149 171.872L147.563 172.301L146.125 172.73ZM150.806 178.088C150.58 177.291 149.751 176.827 148.954 177.053C148.157 177.278 147.693 178.107 147.919 178.904L149.362 178.496L150.806 178.088ZM149.627 185.104C149.842 185.904 150.665 186.379 151.465 186.164C152.265 185.949 152.74 185.127 152.525 184.327L151.076 184.715L149.627 185.104ZM154.161 190.587C153.957 189.784 153.141 189.299 152.338 189.503C151.535 189.707 151.05 190.524 151.254 191.327L152.708 190.957L154.161 190.587ZM152.74 197.312C152.934 198.117 153.745 198.612 154.55 198.418C155.355 198.223 155.85 197.412 155.656 196.607L154.198 196.96L152.74 197.312ZM157.019 202.383C156.833 201.576 156.028 201.072 155.221 201.258C154.413 201.445 153.91 202.25 154.096 203.057L155.558 202.72L157.019 202.383ZM155.394 208.816C155.572 209.625 156.373 210.137 157.182 209.958C157.991 209.78 158.502 208.98 158.324 208.171L156.859 208.494L155.394 208.816ZM159.574 213.971C159.403 213.161 158.607 212.642 157.797 212.813C156.986 212.983 156.467 213.779 156.638 214.59L158.106 214.28L159.574 213.971ZM157.83 220.374C157.994 221.186 158.785 221.712 159.597 221.548C160.409 221.384 160.935 220.593 160.771 219.781L159.301 220.077L157.83 220.374ZM161.918 225.601C161.761 224.788 160.975 224.255 160.162 224.412C159.348 224.568 158.816 225.355 158.972 226.168L160.445 225.885L161.918 225.601ZM160.063 231.972C160.212 232.787 160.994 233.327 161.809 233.177C162.624 233.028 163.163 232.246 163.014 231.431L161.539 231.702L160.063 231.972ZM164.056 237.273C163.914 236.457 163.138 235.91 162.322 236.051C161.506 236.192 160.958 236.969 161.1 237.785L162.578 237.529L164.056 237.273ZM162.004 243.274C162.126 244.094 162.889 244.659 163.708 244.537C164.528 244.415 165.093 243.651 164.971 242.832L163.487 243.053L162.004 243.274ZM165.66 248.125C165.569 247.302 164.827 246.709 164.004 246.8C163.18 246.892 162.587 247.633 162.679 248.457L164.169 248.291L165.66 248.125ZM163.156 253.658C163.215 254.484 163.933 255.106 164.76 255.046C165.586 254.986 166.207 254.268 166.148 253.442L164.652 253.55L163.156 253.658ZM166.428 258.774C166.401 257.946 165.707 257.297 164.879 257.325C164.051 257.353 163.403 258.046 163.43 258.874L164.929 258.824L166.428 258.774ZM163.507 264.1C163.504 264.929 164.173 265.603 165.001 265.606C165.83 265.609 166.504 264.94 166.507 264.111L165.007 264.106L163.507 264.1ZM166.398 269.442C166.428 268.614 165.781 267.918 164.953 267.888C164.125 267.858 163.43 268.504 163.4 269.332L164.899 269.387L166.398 269.442ZM163.135 274.567C163.082 275.394 163.71 276.106 164.536 276.159C165.363 276.211 166.076 275.584 166.129 274.757L164.632 274.662L163.135 274.567ZM165.736 280.054C165.805 279.228 165.192 278.503 164.366 278.435C163.54 278.366 162.815 278.98 162.747 279.805L164.242 279.93L165.736 280.054ZM162.178 285.198C162.051 286.017 162.611 286.784 163.429 286.911C164.248 287.039 165.015 286.479 165.142 285.66L163.66 285.429L162.178 285.198ZM163.88 291.475C164.101 290.676 163.633 289.85 162.834 289.629C162.036 289.408 161.21 289.877 160.989 290.675L162.435 291.075L163.88 291.475ZM159.22 296.024C158.923 296.797 159.31 297.665 160.083 297.961C160.857 298.258 161.724 297.871 162.021 297.098L160.62 296.561L159.22 296.024ZM159.684 302.514C160.041 301.767 159.725 300.871 158.978 300.514C158.23 300.157 157.335 300.473 156.977 301.22L158.331 301.867L159.684 302.514ZM154.354 306.259C153.948 306.981 154.205 307.896 154.927 308.302C155.649 308.707 156.564 308.451 156.969 307.729L155.662 306.994L154.354 306.259ZM153.956 312.756C154.4 312.057 154.194 311.13 153.495 310.686C152.796 310.241 151.869 310.447 151.424 311.146L152.69 311.951L153.956 312.756ZM148.248 315.895C147.773 316.573 147.937 317.509 148.616 317.984C149.294 318.46 150.229 318.295 150.705 317.617L149.476 316.756L148.248 315.895ZM147.266 322.331C147.766 321.67 147.636 320.73 146.975 320.23C146.315 319.73 145.374 319.86 144.874 320.52L146.07 321.426L147.266 322.331ZM141.123 325.183C140.569 325.799 140.62 326.748 141.237 327.301C141.853 327.855 142.801 327.804 143.355 327.187L142.239 326.185L141.123 325.183ZM138.595 331.809C139.227 331.274 139.306 330.327 138.771 329.695C138.236 329.062 137.289 328.983 136.657 329.518L137.626 330.664L138.595 331.809ZM131.638 333.212C130.94 333.657 130.734 334.584 131.179 335.283C131.625 335.981 132.552 336.187 133.251 335.741L132.444 334.477L131.638 333.212ZM127.444 338.932C128.194 338.58 128.517 337.687 128.165 336.937C127.813 336.187 126.92 335.864 126.17 336.216L126.807 337.574L127.444 338.932ZM120.36 338.512C119.572 338.769 119.142 339.616 119.399 340.404C119.656 341.191 120.503 341.621 121.29 341.364L120.825 339.938L120.36 338.512ZM114.894 343.038C115.707 342.876 116.234 342.086 116.072 341.274C115.91 340.461 115.12 339.934 114.308 340.096L114.601 341.567L114.894 343.038ZM108.113 340.95C107.287 341.014 106.668 341.735 106.732 342.561C106.795 343.387 107.516 344.005 108.342 343.942L108.227 342.446L108.113 340.95ZM101.708 344.015C102.535 344.064 103.244 343.432 103.292 342.605C103.341 341.778 102.709 341.069 101.882 341.02L101.795 342.518L101.708 344.015ZM96.4006 339.783C95.7272 339.301 94.7901 339.455 94.3076 340.129C93.8251 340.802 93.9799 341.739 94.6533 342.222L95.5269 341.002L96.4006 339.783ZM90.4632 336.088C90.7589 336.862 91.6259 337.25 92.3998 336.954C93.1737 336.658 93.5613 335.791 93.2657 335.018L91.8645 335.553L90.4632 336.088ZM91.4834 328.824C91.2961 328.017 90.49 327.515 89.6831 327.702C88.8761 327.89 88.3738 328.696 88.5612 329.503L90.0223 329.163L91.4834 328.824ZM87.1657 322.95C87.331 323.762 88.123 324.286 88.9348 324.121C89.7465 323.955 90.2707 323.163 90.1054 322.352L88.6356 322.651L87.1657 322.95ZM89.1479 316.102C89.145 315.273 88.4711 314.604 87.6427 314.607C86.8142 314.61 86.145 315.284 86.1479 316.112L87.6479 316.107L89.1479 316.102ZM87.0646 309.218C86.8654 310.022 87.3558 310.836 88.16 311.035C88.9641 311.234 89.7774 310.744 89.9766 309.939L88.5206 309.579L87.0646 309.218ZM91.9675 303.871C92.274 303.101 91.8986 302.229 91.1289 301.922C90.3593 301.616 89.4869 301.991 89.1804 302.761L90.5739 303.316L91.9675 303.871ZM91.9517 296.631C91.5807 297.371 91.8803 298.273 92.621 298.644C93.3617 299.015 94.263 298.715 94.634 297.974L93.2929 297.303L91.9517 296.631ZM97.7309 292.243C98.1448 291.526 97.8985 290.608 97.1808 290.194C96.4632 289.781 95.5459 290.027 95.1321 290.744L96.4315 291.494L97.7309 292.243ZM98.5901 285.049C98.1458 285.748 98.3523 286.675 99.0515 287.119C99.7507 287.563 100.678 287.357 101.122 286.658L99.8561 285.853L98.5901 285.049ZM104.732 281.189C105.199 280.505 105.023 279.571 104.339 279.104C103.655 278.637 102.721 278.813 102.254 279.497L103.493 280.343L104.732 281.189ZM106.073 274.065C105.588 274.737 105.739 275.675 106.411 276.16C107.083 276.645 108.02 276.493 108.505 275.822L107.289 274.944L106.073 274.065ZM112.11 271.09C112.652 270.463 112.583 269.516 111.957 268.974C111.331 268.432 110.383 268.5 109.841 269.127L110.975 270.108L112.11 271.09ZM113.904 265.042C113.283 265.59 113.223 266.538 113.771 267.159C114.319 267.781 115.267 267.84 115.889 267.292L114.896 266.167L113.904 265.042ZM120.133 263.954C120.81 263.477 120.972 262.541 120.494 261.864C120.017 261.187 119.081 261.025 118.404 261.503L119.268 262.729L120.133 263.954ZM123.197 258.433C122.481 258.851 122.24 259.77 122.658 260.485C123.075 261.201 123.994 261.442 124.709 261.024L123.953 259.729L123.197 258.433ZM129.52 258.435C130.261 258.066 130.563 257.166 130.194 256.424C129.825 255.683 128.925 255.381 128.183 255.75L128.851 257.093L129.52 258.435ZM133.299 253.373C132.539 253.703 132.191 254.587 132.522 255.347C132.852 256.106 133.736 256.454 134.496 256.124L133.897 254.748L133.299 253.373ZM139.588 254.032C140.36 253.732 140.743 252.862 140.443 252.09C140.142 251.318 139.273 250.936 138.501 251.236L139.045 252.634L139.588 254.032ZM143.759 249.284C142.978 249.561 142.57 250.419 142.848 251.2C143.125 251.98 143.983 252.388 144.764 252.111L144.261 250.697L143.759 249.284ZM149.998 250.315C150.784 250.054 151.209 249.205 150.948 248.418C150.687 247.632 149.838 247.207 149.052 247.468L149.525 248.891L149.998 250.315ZM154.364 245.746C153.575 245.996 153.138 246.84 153.389 247.629C153.639 248.419 154.483 248.856 155.272 248.605L154.818 247.176L154.364 245.746ZM160.659 246.952C161.455 246.724 161.916 245.894 161.688 245.097C161.46 244.301 160.63 243.84 159.833 244.068L160.246 245.51L160.659 246.952ZM165.483 242.561C164.679 242.762 164.19 243.576 164.391 244.38C164.592 245.184 165.407 245.672 166.211 245.471L165.847 244.016L165.483 242.561ZM171.819 244.139C172.627 243.956 173.133 243.153 172.95 242.345C172.768 241.537 171.964 241.03 171.156 241.213L171.487 242.676L171.819 244.139ZM176.844 239.976C176.033 240.146 175.514 240.941 175.684 241.752C175.853 242.563 176.648 243.082 177.459 242.912L177.152 241.444L176.844 239.976ZM183.123 241.762C183.936 241.602 184.465 240.813 184.305 240.001C184.145 239.188 183.356 238.659 182.543 238.819L182.833 240.291L183.123 241.762ZM188.249 237.722C187.435 237.875 186.899 238.659 187.052 239.473C187.205 240.287 187.989 240.823 188.803 240.67L188.526 239.196L188.249 237.722ZM194.495 239.62C195.31 239.472 195.851 238.691 195.703 237.876C195.555 237.061 194.774 236.52 193.959 236.668L194.227 238.144L194.495 239.62ZM199.67 235.641C198.855 235.787 198.312 236.566 198.457 237.382C198.603 238.197 199.382 238.74 200.198 238.594L199.934 237.118L199.67 235.641ZM205.896 237.618C206.715 237.496 207.281 236.733 207.159 235.913C207.037 235.094 206.274 234.528 205.455 234.65L205.675 236.134L205.896 237.618ZM211.36 233.956C210.535 234.028 209.924 234.754 209.995 235.58C210.066 236.405 210.793 237.017 211.618 236.945L211.489 235.451L211.36 233.956ZM217.373 236.631C218.201 236.612 218.857 235.925 218.838 235.097C218.819 234.269 218.132 233.613 217.304 233.632L217.338 235.131L217.373 236.631ZM223.255 233.685C222.427 233.651 221.729 234.295 221.695 235.123C221.661 235.95 222.304 236.649 223.132 236.683L223.194 235.184L223.255 233.685ZM228.877 237.102C229.701 237.188 230.439 236.591 230.525 235.767C230.612 234.943 230.014 234.205 229.19 234.118L229.033 235.61L228.877 237.102ZM235.084 234.924C234.267 234.786 233.493 235.337 233.356 236.154C233.218 236.971 233.769 237.745 234.586 237.882L234.835 236.403L235.084 234.924ZM240.24 239.01C241.047 239.196 241.852 238.692 242.038 237.885C242.224 237.078 241.72 236.273 240.913 236.087L240.576 237.548L240.24 239.01ZM246.662 237.583C245.866 237.352 245.034 237.81 244.804 238.606C244.573 239.402 245.031 240.234 245.827 240.464L246.244 239.023L246.662 237.583ZM251.335 242.213C252.119 242.482 252.972 242.066 253.242 241.283C253.512 240.499 253.095 239.646 252.312 239.376L251.824 240.794L251.335 242.213ZM257.866 241.423C257.094 241.121 256.224 241.502 255.923 242.273C255.621 243.045 256.002 243.915 256.773 244.216L257.32 242.82L257.866 241.423ZM261.595 246.247C262.342 246.605 263.238 246.29 263.597 245.543C263.955 244.796 263.64 243.9 262.893 243.541L262.244 244.894L261.595 246.247ZM267.261 245.838C266.539 245.431 265.624 245.686 265.217 246.408C264.81 247.13 265.066 248.045 265.787 248.451L266.524 247.145L267.261 245.838ZM269.912 250.879C270.62 251.31 271.543 251.086 271.974 250.379C272.405 249.671 272.18 248.749 271.473 248.317L270.693 249.598L269.912 250.879ZM275.601 250.888C274.901 250.445 273.975 250.653 273.531 251.353C273.088 252.053 273.296 252.979 273.996 253.423L274.799 252.155L275.601 250.888ZM278.542 256.385C279.221 256.859 280.156 256.693 280.63 256.013C281.104 255.334 280.937 254.399 280.258 253.925L279.4 255.155L278.542 256.385ZM285.23 257.781C284.599 257.245 283.652 257.323 283.116 257.955C282.58 258.587 282.658 259.533 283.29 260.069L284.26 258.925L285.23 257.781ZM287.807 264.122C288.411 264.689 289.36 264.658 289.927 264.054C290.494 263.45 290.463 262.501 289.859 261.934L288.833 263.028L287.807 264.122ZM294.322 266.246C293.734 265.664 292.784 265.668 292.201 266.257C291.618 266.846 291.623 267.795 292.212 268.378L293.267 267.312L294.322 266.246ZM296.522 272.721C297.101 273.313 298.051 273.323 298.643 272.744C299.236 272.165 299.246 271.215 298.667 270.623L297.595 271.672L296.522 272.721ZM302.957 275.061C302.384 274.462 301.435 274.441 300.836 275.014C300.238 275.587 300.217 276.537 300.79 277.135L301.873 276.098L302.957 275.061ZM305.015 281.586C305.584 282.189 306.533 282.217 307.136 281.649C307.739 281.081 307.767 280.132 307.199 279.529L306.107 280.558L305.015 281.586ZM311.418 284.033C310.854 283.427 309.904 283.394 309.298 283.958C308.692 284.523 308.658 285.472 309.223 286.078L310.321 285.056L311.418 284.033ZM313.394 290.576C313.956 291.185 314.905 291.223 315.514 290.661C316.122 290.099 316.16 289.15 315.598 288.541L314.496 289.559L313.394 290.576ZM319.767 293.073C319.207 292.463 318.258 292.421 317.647 292.981C317.037 293.541 316.995 294.49 317.555 295.1L318.661 294.087L319.767 293.073ZM321.576 299.518C322.129 300.135 323.078 300.186 323.694 299.633C324.311 299.08 324.363 298.132 323.81 297.515L322.693 298.516L321.576 299.518ZM327.678 301.901C327.135 301.276 326.187 301.209 325.562 301.752C324.936 302.295 324.869 303.242 325.412 303.868L326.545 302.885L327.678 301.901ZM329.175 308.264C329.71 308.897 330.656 308.976 331.289 308.441C331.922 307.907 332.001 306.96 331.467 306.328L330.321 307.296L329.175 308.264ZM335.2 310.798C334.673 310.16 333.727 310.07 333.089 310.597C332.45 311.125 332.36 312.07 332.888 312.709L334.044 311.754L335.2 310.798ZM336.559 317.197C337.08 317.841 338.025 317.94 338.669 317.418C339.312 316.897 339.411 315.952 338.89 315.309L337.724 316.253L336.559 317.197ZM342.54 319.85C342.023 319.202 341.08 319.096 340.432 319.613C339.784 320.129 339.678 321.073 340.194 321.721L341.367 320.785L342.54 319.85ZM343.799 326.272C344.311 326.923 345.254 327.036 345.905 326.523C346.556 326.011 346.669 325.068 346.156 324.417L344.978 325.345L343.799 326.272ZM349.744 329.004C349.236 328.351 348.293 328.233 347.639 328.741C346.985 329.25 346.868 330.192 347.376 330.846L348.56 329.925L349.744 329.004ZM350.929 335.437C351.435 336.093 352.377 336.215 353.033 335.709C353.689 335.204 353.811 334.262 353.306 333.606L352.117 334.521L350.929 335.437ZM356.847 338.22C356.344 337.562 355.402 337.436 354.744 337.939C354.086 338.442 353.96 339.384 354.464 340.042L355.655 339.131L356.847 338.22ZM357.984 344.661C358.485 345.32 359.426 345.449 360.086 344.947C360.745 344.446 360.874 343.505 360.372 342.846L359.178 343.753L357.984 344.661ZM363.886 347.48C363.386 346.819 362.445 346.689 361.784 347.189C361.124 347.688 360.993 348.629 361.493 349.29L362.689 348.385L363.886 347.48ZM364.994 353.927C365.493 354.588 366.434 354.72 367.095 354.222C367.757 353.723 367.888 352.782 367.39 352.121L366.192 353.024L364.994 353.927ZM370.888 356.765C370.39 356.103 369.449 355.971 368.787 356.469C368.125 356.967 367.992 357.907 368.491 358.569L369.689 357.667L370.888 356.765ZM371.985 363.214C372.483 363.876 373.423 364.01 374.085 363.512C374.747 363.014 374.88 362.073 374.382 361.411L373.184 362.313L371.985 363.214ZM377.877 366.056C377.378 365.394 376.438 365.262 375.776 365.76C375.114 366.258 374.981 367.198 375.48 367.86L376.678 366.958L377.877 366.056ZM378.978 372.504C379.477 373.166 380.418 373.297 381.079 372.799C381.74 372.3 381.872 371.359 381.373 370.698L380.176 371.601L378.978 372.504ZM384.876 375.334C384.376 374.673 383.435 374.543 382.774 375.043C382.114 375.543 381.984 376.484 382.484 377.144L383.68 376.239L384.876 375.334ZM385.999 381.778C386.5 382.437 387.441 382.565 388.1 382.063C388.76 381.562 388.888 380.621 388.386 379.961L387.192 380.869L385.999 381.778ZM391.909 384.578C391.405 383.92 390.463 383.795 389.806 384.298C389.148 384.802 389.023 385.743 389.526 386.401L390.717 385.489L391.909 384.578ZM393.071 391.012C393.577 391.668 394.519 391.789 395.175 391.283C395.831 390.777 395.952 389.835 395.446 389.179L394.258 390.096L393.071 391.012ZM399.004 393.767C398.495 393.113 397.552 392.997 396.899 393.506C396.246 394.016 396.129 394.958 396.639 395.611L397.821 394.689L399.004 393.767ZM400.234 400.195C400.748 400.845 401.691 400.956 402.341 400.443C402.991 399.929 403.102 398.986 402.589 398.336L401.412 399.265L400.234 400.195ZM406.202 402.879C405.684 402.233 404.74 402.129 404.094 402.647C403.447 403.165 403.343 404.109 403.861 404.755L405.032 403.817L406.202 402.879ZM407.524 409.287C408.048 409.929 408.993 410.025 409.635 409.501C410.276 408.977 410.372 408.032 409.849 407.39L408.686 408.339L407.524 409.287ZM413.533 411.861C413.003 411.224 412.057 411.138 411.421 411.669C410.784 412.199 410.699 413.145 411.229 413.781L412.381 412.821L413.533 411.861ZM414.984 418.231C415.523 418.861 416.469 418.935 417.099 418.396C417.729 417.858 417.803 416.911 417.264 416.281L416.124 417.256L414.984 418.231ZM421.068 420.662C420.52 420.041 419.572 419.982 418.951 420.53C418.33 421.078 418.271 422.026 418.819 422.647L419.944 421.655L421.068 420.662ZM9.85506 9.07048L9.36827 10.4893C11.3373 11.1649 13.4179 11.9653 15.6123 12.879L16.1888 11.4942L16.7654 10.1095C14.5253 9.17678 12.3838 8.35225 10.3419 7.65167L9.85506 9.07048ZM22.395 14.2278L21.7669 15.59C23.7232 16.4921 25.7528 17.4607 27.8566 18.4886L28.5152 17.1409L29.1737 15.7932C27.0544 14.7576 25.004 13.7791 23.0231 12.8657L22.395 14.2278ZM34.5884 20.1625L33.9123 21.5015C34.904 22.0023 35.9102 22.5133 36.9307 23.0338L37.6122 21.6975L38.2937 20.3613C37.2702 19.8392 36.2604 19.3264 35.2644 18.8236L34.5884 20.1625ZM37.6122 21.6975L36.9307 23.0338C37.7677 23.4606 38.6094 23.9102 39.457 24.3826L40.1872 23.0724L40.9175 21.7621C40.0393 21.2726 39.165 20.8056 38.2937 20.3613L37.6122 21.6975ZM45.1937 26.0765L44.3844 27.3395C45.9519 28.3439 47.5426 29.421 49.1613 30.5703L50.0297 29.3472L50.898 28.1241C49.2445 26.9501 47.6144 25.8461 46.0029 24.8135L45.1937 26.0765ZM54.7264 32.8184L53.8139 34.0089C55.3037 35.1508 56.8188 36.3489 58.3627 37.6027L59.3083 36.4382L60.2539 35.2738C58.6905 34.0042 57.1533 32.7886 55.6389 31.6279L54.7264 32.8184ZM63.7986 40.169L62.8282 41.3129C63.5578 41.9319 64.2941 42.5623 65.0373 43.204L66.0176 42.0687L66.998 40.9334C66.2486 40.2863 65.5057 39.6502 64.769 39.0252L63.7986 40.169ZM66.0176 42.0687L65.0373 43.204C65.7223 43.7956 66.4111 44.3978 67.1027 45.0098L68.0967 43.8864L69.0907 42.7631C68.3903 42.1433 67.6925 41.5331 66.998 40.9334L66.0176 42.0687ZM72.1929 47.5929L71.1747 48.6943C72.505 49.9241 73.8396 51.1828 75.1728 52.4644L76.2123 51.383L77.2519 50.3016C75.9051 49.007 74.5563 47.7349 73.2111 46.4914L72.1929 47.5929ZM80.1598 55.2481L79.1008 56.3104C80.3959 57.6016 81.6841 58.9088 82.9602 60.2264L84.0377 59.1829L85.1152 58.1393C83.8271 56.8092 82.5265 55.4895 81.2189 54.1858L80.1598 55.2481ZM87.8462 63.1846L86.7506 64.2092C88.0102 65.556 89.2516 66.9075 90.4696 68.2579L91.5835 67.2532L92.6973 66.2485C91.4671 64.8846 90.2134 63.5198 88.9418 62.1601L87.8462 63.1846ZM95.2446 71.3902L94.1117 72.3733C94.7163 73.07 95.313 73.7648 95.9011 74.4568L97.0441 73.4854L98.1871 72.5141C97.5922 71.8141 96.9887 71.1115 96.3775 70.4071L95.2446 71.3902ZM97.0441 73.4854L95.9011 74.4568C96.614 75.2956 97.3121 76.1283 97.9964 76.9559L99.1524 76L100.308 75.0441C99.6152 74.2059 98.9085 73.3629 98.1871 72.5141L97.0441 73.4854ZM103.259 81.1149L102.075 82.0362C103.43 83.7767 104.732 85.5062 105.992 87.2368L107.204 86.3539L108.417 85.471C107.138 83.7141 105.816 81.959 104.442 80.1935L103.259 81.1149ZM110.977 91.72L109.736 92.5624C110.955 94.3585 112.142 96.1694 113.306 98.0083L114.574 97.2057L115.841 96.4031C114.66 94.5384 113.456 92.7008 112.219 90.8776L110.977 91.72ZM118.002 102.798L116.712 103.564C117.264 104.492 117.812 105.429 118.36 106.379L119.659 105.629L120.958 104.879C120.405 103.919 119.849 102.971 119.291 102.032L118.002 102.798ZM119.659 105.629L118.36 106.379C118.808 107.154 119.253 107.935 119.697 108.722L121.004 107.985L122.31 107.249C121.861 106.453 121.411 105.663 120.958 104.879L119.659 105.629ZM123.619 112.74L122.298 113.45C123.139 115.017 123.973 116.61 124.801 118.23L126.137 117.548L127.473 116.866C126.636 115.227 125.792 113.616 124.941 112.031L123.619 112.74ZM128.556 122.406L127.206 123.061C127.982 124.66 128.752 126.286 129.515 127.94L130.877 127.312L132.239 126.684C131.468 125.011 130.69 123.368 129.905 121.751L128.556 122.406ZM133.101 132.262L131.727 132.864C132.44 134.491 133.147 136.145 133.847 137.829L135.232 137.253L136.617 136.677C135.909 134.976 135.195 133.304 134.475 131.66L133.101 132.262ZM137.271 142.283L135.876 142.834C136.205 143.666 136.532 144.505 136.858 145.351L138.258 144.812L139.658 144.273C139.329 143.419 138.998 142.572 138.666 141.732L137.271 142.283ZM138.258 144.812L136.858 145.351C137.24 146.343 137.62 147.344 137.996 148.352L139.401 147.827L140.807 147.302C140.427 146.285 140.043 145.275 139.658 144.273L138.258 144.812ZM141.6 153.892L140.185 154.39C140.889 156.39 141.582 158.417 142.264 160.469L143.688 159.995L145.111 159.522C144.424 157.455 143.725 155.411 143.015 153.394L141.6 153.892ZM145.673 166.133L144.242 166.583C144.881 168.613 145.509 170.663 146.125 172.73L147.563 172.301L149 171.872C148.379 169.791 147.747 167.727 147.104 165.683L145.673 166.133ZM149.362 178.496L147.919 178.904C148.5 180.957 149.069 183.025 149.627 185.104L151.076 184.715L152.525 184.327C151.963 182.234 151.39 180.154 150.806 178.088L149.362 178.496ZM152.708 190.957L151.254 191.327C151.518 192.364 151.78 193.404 152.038 194.446L153.494 194.085L154.95 193.724C154.69 192.676 154.427 191.63 154.161 190.587L152.708 190.957ZM153.494 194.085L152.038 194.446C152.275 195.401 152.509 196.357 152.74 197.312L154.198 196.96L155.656 196.607C155.423 195.647 155.188 194.685 154.95 193.724L153.494 194.085ZM155.558 202.72L154.096 203.057C154.542 204.991 154.975 206.914 155.394 208.816L156.859 208.494L158.324 208.171C157.903 206.259 157.468 204.327 157.019 202.383L155.558 202.72ZM158.106 214.28L156.638 214.59C157.052 216.554 157.45 218.486 157.83 220.374L159.301 220.077L160.771 219.781C160.389 217.885 159.99 215.945 159.574 213.971L158.106 214.28ZM160.445 225.885L158.972 226.168C159.359 228.177 159.723 230.116 160.063 231.972L161.539 231.702L163.014 231.431C162.672 229.567 162.307 227.619 161.918 225.601L160.445 225.885ZM162.578 237.529L161.1 237.785C161.274 238.792 161.439 239.761 161.595 240.69L163.074 240.442L164.553 240.195C164.397 239.26 164.231 238.285 164.056 237.273L162.578 237.529ZM163.074 240.442L161.595 240.69C161.74 241.561 161.877 242.423 162.004 243.274L163.487 243.053L164.971 242.832C164.841 241.963 164.702 241.084 164.553 240.195L163.074 240.442ZM164.169 248.291L162.679 248.457C162.875 250.227 163.033 251.958 163.156 253.658L164.652 253.55L166.148 253.442C166.022 251.704 165.861 249.934 165.66 248.125L164.169 248.291ZM164.929 258.824L163.43 258.874C163.489 260.642 163.513 262.381 163.507 264.1L165.007 264.106L166.507 264.111C166.513 262.357 166.489 260.581 166.428 258.774L164.929 258.824ZM164.899 269.387L163.4 269.332C163.336 271.086 163.245 272.828 163.135 274.567L164.632 274.662L166.129 274.757C166.241 272.995 166.332 271.226 166.398 269.442L164.899 269.387ZM164.242 279.93L162.747 279.805C162.674 280.677 162.598 281.55 162.519 282.427L164.013 282.561L165.507 282.695C165.587 281.814 165.663 280.933 165.736 280.054L164.242 279.93ZM164.013 282.561L162.519 282.427C162.436 283.351 162.322 284.275 162.178 285.198L163.66 285.429L165.142 285.66C165.296 284.675 165.418 283.687 165.507 282.695L164.013 282.561ZM162.435 291.075L160.989 290.675C160.493 292.468 159.899 294.252 159.22 296.024L160.62 296.561L162.021 297.098C162.732 295.244 163.357 293.368 163.88 291.475L162.435 291.075ZM158.331 301.867L156.977 301.22C156.166 302.918 155.287 304.599 154.354 306.259L155.662 306.994L156.969 307.729C157.931 306.017 158.841 304.277 159.684 302.514L158.331 301.867ZM152.69 311.951L151.424 311.146C150.401 312.756 149.337 314.34 148.248 315.895L149.476 316.756L150.705 317.617C151.817 316.029 152.906 314.407 153.956 312.756L152.69 311.951ZM146.07 321.426L144.874 320.52C144.294 321.287 143.71 322.044 143.126 322.792L144.307 323.716L145.489 324.64C146.083 323.88 146.676 323.111 147.266 322.331L146.07 321.426ZM144.307 323.716L143.126 322.792C142.477 323.623 141.808 324.419 141.123 325.183L142.239 326.185L143.355 327.187C144.086 326.373 144.798 325.524 145.489 324.64L144.307 323.716ZM137.626 330.664L136.657 329.518C135.039 330.887 133.359 332.115 131.638 333.212L132.444 334.477L133.251 335.741C135.081 334.575 136.87 333.268 138.595 331.809L137.626 330.664ZM126.807 337.574L126.17 336.216C124.246 337.118 122.3 337.879 120.36 338.512L120.825 339.938L121.29 341.364C123.342 340.695 125.403 339.888 127.444 338.932L126.807 337.574ZM114.601 341.567L114.308 340.096C112.184 340.519 110.106 340.798 108.113 340.95L108.227 342.446L108.342 343.942C110.454 343.78 112.651 343.485 114.894 343.038L114.601 341.567ZM101.795 342.518L101.882 341.02C100.804 340.958 99.7765 340.855 98.8079 340.718L98.5975 342.203L98.3871 343.688C99.4416 343.838 100.552 343.948 101.708 344.015L101.795 342.518ZM98.5975 342.203L98.8079 340.718C97.8512 340.582 97.0713 340.264 96.4006 339.783L95.5269 341.002L94.6533 342.222C95.7385 342.999 96.979 343.489 98.3871 343.688L98.5975 342.203ZM91.8645 335.553L93.2657 335.018C92.6147 333.314 92.0473 331.253 91.4834 328.824L90.0223 329.163L88.5612 329.503C89.1362 331.979 89.7398 334.195 90.4632 336.088L91.8645 335.553ZM88.6356 322.651L90.1054 322.352C89.8918 321.302 89.6705 320.21 89.4388 319.083L87.9695 319.385L86.5002 319.687C86.7312 320.811 86.9514 321.897 87.1657 322.95L88.6356 322.651ZM87.9695 319.385L89.4388 319.083C89.248 318.155 89.1516 317.161 89.1479 316.102L87.6479 316.107L86.1479 316.112C86.1522 317.345 86.2645 318.541 86.5002 319.687L87.9695 319.385ZM88.5206 309.579L89.9766 309.939C90.4528 308.017 91.1245 305.987 91.9675 303.871L90.5739 303.316L89.1804 302.761C88.2976 304.977 87.5797 307.138 87.0646 309.218L88.5206 309.579ZM93.2929 297.303L94.634 297.974C95.5733 296.099 96.6114 294.185 97.7309 292.243L96.4315 291.494L95.1321 290.744C93.9874 292.729 92.9208 294.696 91.9517 296.631L93.2929 297.303ZM99.8561 285.853L101.122 286.658C102.276 284.841 103.484 283.015 104.732 281.189L103.493 280.343L102.254 279.497C100.99 281.347 99.7641 283.201 98.5901 285.049L99.8561 285.853ZM107.289 274.944L108.505 275.822C109.145 274.935 109.792 274.051 110.443 273.171L109.237 272.279L108.03 271.387C107.373 272.276 106.72 273.169 106.073 274.065L107.289 274.944ZM109.237 272.279L110.443 273.171C110.969 272.459 111.525 271.766 112.11 271.09L110.975 270.108L109.841 269.127C109.208 269.859 108.604 270.612 108.03 271.387L109.237 272.279ZM114.896 266.167L115.889 267.292C117.213 266.124 118.631 265.014 120.133 263.954L119.268 262.729L118.404 261.503C116.822 262.618 115.317 263.795 113.904 265.042L114.896 266.167ZM123.953 259.729L124.709 261.024C126.254 260.123 127.86 259.262 129.52 258.435L128.851 257.093L128.183 255.75C126.47 256.602 124.805 257.495 123.197 258.433L123.953 259.729ZM133.897 254.748L134.496 256.124C136.158 255.401 137.858 254.705 139.588 254.032L139.045 252.634L138.501 251.236C136.738 251.922 135.001 252.632 133.299 253.373L133.897 254.748ZM144.261 250.697L144.764 252.111C146.491 251.497 148.238 250.9 149.998 250.315L149.525 248.891L149.052 247.468C147.276 248.058 145.509 248.662 143.759 249.284L144.261 250.697ZM154.818 247.176L155.272 248.605C156.154 248.325 157.037 248.047 157.92 247.771L157.472 246.339L157.024 244.908C156.138 245.185 155.251 245.464 154.364 245.746L154.818 247.176ZM157.472 246.339L157.92 247.771C158.799 247.496 159.714 247.223 160.659 246.952L160.246 245.51L159.833 244.068C158.867 244.345 157.929 244.625 157.024 244.908L157.472 246.339ZM165.847 244.016L166.211 245.471C168.026 245.017 169.904 244.573 171.819 244.139L171.487 242.676L171.156 241.213C169.224 241.651 167.323 242.1 165.483 242.561L165.847 244.016ZM177.152 241.444L177.459 242.912C179.347 242.517 181.243 242.133 183.123 241.762L182.833 240.291L182.543 238.819C180.653 239.192 178.745 239.578 176.844 239.976L177.152 241.444ZM188.526 239.196L188.803 240.67C190.756 240.303 192.663 239.953 194.495 239.62L194.227 238.144L193.959 236.668C192.123 237.002 190.21 237.353 188.249 237.722L188.526 239.196ZM199.934 237.118L200.198 238.594C201.189 238.417 202.141 238.247 203.047 238.085L202.782 236.608L202.517 235.132C201.613 235.294 200.662 235.464 199.67 235.641L199.934 237.118ZM202.782 236.608L203.047 238.085C204.005 237.913 204.955 237.757 205.896 237.618L205.675 236.134L205.455 234.65C204.484 234.794 203.505 234.955 202.517 235.132L202.782 236.608ZM211.489 235.451L211.618 236.945C213.576 236.776 215.494 236.674 217.373 236.631L217.338 235.131L217.304 233.632C215.363 233.676 213.382 233.782 211.36 233.956L211.489 235.451ZM223.194 235.184L223.132 236.683C225.095 236.763 227.009 236.906 228.877 237.102L229.033 235.61L229.19 234.118C227.261 233.916 225.283 233.768 223.255 233.685L223.194 235.184ZM234.835 236.403L234.586 237.882C236.528 238.209 238.413 238.589 240.24 239.01L240.576 237.548L240.913 236.087C239.031 235.653 237.088 235.261 235.084 234.924L234.835 236.403ZM246.244 239.023L245.827 240.464C247.736 241.017 249.572 241.605 251.335 242.213L251.824 240.794L252.312 239.376C250.506 238.754 248.623 238.151 246.662 237.583L246.244 239.023ZM257.32 242.82L256.773 244.216C257.695 244.577 258.594 244.938 259.468 245.296L260.036 243.908L260.605 242.52C259.718 242.157 258.805 241.79 257.866 241.423L257.32 242.82ZM260.036 243.908L259.468 245.296C260.144 245.573 260.854 245.891 261.595 246.247L262.244 244.894L262.893 243.541C262.108 243.165 261.344 242.822 260.605 242.52L260.036 243.908ZM266.524 247.145L265.787 248.451C267.11 249.197 268.488 250.012 269.912 250.879L270.693 249.598L271.473 248.317C270.029 247.438 268.62 246.604 267.261 245.838L266.524 247.145ZM274.799 252.155L273.996 253.423C274.668 253.848 275.347 254.281 276.031 254.718L276.839 253.455L277.647 252.191C276.961 251.752 276.278 251.317 275.601 250.888L274.799 252.155ZM276.839 253.455L276.031 254.718C276.856 255.247 277.672 255.779 278.542 256.385L279.4 255.155L280.258 253.925C279.341 253.286 278.488 252.729 277.647 252.191L276.839 253.455ZM284.26 258.925L283.29 260.069C284.591 261.173 286.072 262.494 287.807 264.122L288.833 263.028L289.859 261.934C288.095 260.279 286.576 258.923 285.23 257.781L284.26 258.925ZM293.267 267.312L292.212 268.378C293.528 269.682 294.96 271.123 296.522 272.721L297.595 271.672L298.667 270.623C297.095 269.015 295.652 267.563 294.322 266.246L293.267 267.312ZM301.873 276.098L300.79 277.135C302.117 278.522 303.523 280.003 305.015 281.586L306.107 280.558L307.199 279.529C305.702 277.94 304.29 276.454 302.957 275.061L301.873 276.098ZM310.321 285.056L309.223 286.078C310.553 287.505 311.942 289.004 313.394 290.576L314.496 289.559L315.598 288.541C314.143 286.965 312.751 285.464 311.418 284.033L310.321 285.056ZM318.661 294.087L317.555 295.1C318.239 295.847 318.936 296.608 319.646 297.385L320.753 296.373L321.86 295.361C321.15 294.584 320.452 293.821 319.767 293.073L318.661 294.087ZM320.753 296.373L319.646 297.385C320.286 298.085 320.929 298.797 321.576 299.518L322.693 298.516L323.81 297.515C323.157 296.787 322.507 296.069 321.86 295.361L320.753 296.373ZM326.545 302.885L325.412 303.868C326.656 305.301 327.911 306.767 329.175 308.264L330.321 307.296L331.467 306.328C330.194 304.822 328.931 303.345 327.678 301.901L326.545 302.885ZM334.044 311.754L332.888 312.709C334.104 314.181 335.328 315.678 336.559 317.197L337.724 316.253L338.89 315.309C337.653 313.783 336.423 312.278 335.2 310.798L334.044 311.754ZM341.367 320.785L340.194 321.721C341.39 323.22 342.592 324.738 343.799 326.272L344.978 325.345L346.156 324.417C344.946 322.878 343.74 321.355 342.54 319.85L341.367 320.785ZM348.56 329.925L347.376 330.846C348.557 332.364 349.741 333.895 350.929 335.437L352.117 334.521L353.306 333.606C352.115 332.06 350.928 330.526 349.744 329.004L348.56 329.925ZM355.655 339.131L354.464 340.042C355.635 341.574 356.808 343.114 357.984 344.661L359.178 343.753L360.372 342.846C359.195 341.297 358.02 339.754 356.847 338.22L355.655 339.131ZM362.689 348.385L361.493 349.29C362.659 350.832 363.826 352.378 364.994 353.927L366.192 353.024L367.39 352.121C366.221 350.571 365.053 349.023 363.886 347.48L362.689 348.385ZM369.689 357.667L368.491 358.569C369.655 360.117 370.82 361.666 371.985 363.214L373.184 362.313L374.382 361.411C373.218 359.863 372.053 358.314 370.888 356.765L369.689 357.667ZM376.678 366.958L375.48 367.86C376.647 369.412 377.814 370.96 378.978 372.504L380.176 371.601L381.373 370.698C380.21 369.155 379.044 367.607 377.877 366.056L376.678 366.958ZM383.68 376.239L382.484 377.144C383.658 378.696 384.83 380.241 385.999 381.778L387.192 380.869L388.386 379.961C387.219 378.427 386.049 376.884 384.876 375.334L383.68 376.239ZM390.717 385.489L389.526 386.401C390.712 387.95 391.894 389.488 393.071 391.012L394.258 390.096L395.446 389.179C394.271 387.658 393.092 386.123 391.909 384.578L390.717 385.489ZM397.821 394.689L396.639 395.611C397.843 397.156 399.042 398.685 400.234 400.195L401.412 399.265L402.589 398.336C401.401 396.831 400.205 395.307 399.004 393.767L397.821 394.689ZM405.032 403.817L403.861 404.755C405.09 406.289 406.311 407.8 407.524 409.287L408.686 408.339L409.849 407.39C408.642 405.911 407.426 404.407 406.202 402.879L405.032 403.817ZM412.381 412.821L411.229 413.781C412.491 415.296 413.744 416.78 414.984 418.231L416.124 417.256L417.264 416.281C416.032 414.841 414.789 413.366 413.533 411.861L412.381 412.821ZM419.944 421.655L418.819 422.647C419.466 423.381 420.11 424.104 420.75 424.816L421.866 423.813L422.982 422.811C422.348 422.106 421.71 421.389 421.068 420.662L419.944 421.655Z" fill="#272E4A"/>
</svg>
