<svg width="80" height="80" viewBox="0 0 80 80" fill="none" xmlns="http://www.w3.org/2000/svg">
<mask id="mask0_2492_26710" style="mask-type:alpha" maskUnits="userSpaceOnUse" x="0" y="0" width="80" height="80">
<circle cx="40" cy="40" r="40" fill="#C3DEF7"/>
</mask>
<g mask="url(#mask0_2492_26710)">
<circle cx="40" cy="40" r="40" fill="#CADFF7"/>
<path d="M48.0352 42.8726C47.8307 41.1534 47.485 39.3478 46.7502 37.7678C46.4993 37.2284 46.0969 36.8157 45.816 36.3C45.482 35.6865 45.3165 34.9923 44.9822 34.3731C43.6463 31.8992 41.2214 30.1726 38.6674 29.1227C36.9089 28.3999 34.9086 28.0323 33.1075 28.6409C31.3171 29.2459 30.0064 30.7363 29.1709 32.3833C28.2989 34.1027 27.4551 36.0853 27.0655 37.975C26.5322 40.563 26.7915 43.3616 28.0777 45.6692C29.364 47.9771 31.7388 49.7214 34.3685 49.9609C37.9456 50.2865 41.2151 47.9583 44.7674 47.4263C45.4936 47.3176 46.2627 47.2739 46.8829 46.8802C47.5029 46.4867 47.8809 45.7869 48.0295 45.0673C48.178 44.3477 48.1221 43.6023 48.0352 42.8726Z" fill="#010101"/>
<path d="M70.4591 75.4157C71.2325 78.2577 72.122 83.594 68.8654 85.6015C67.3562 86.5319 66.609 86.2846 64.8755 86.4722C61.6219 86.8244 58.3136 86.8952 55.0925 86.316C51.8715 85.7368 48.7297 84.4813 46.2097 82.3917C43.5333 80.1725 41.6437 77.0659 40.7038 73.7171C39.7641 70.3683 39.7517 66.7892 40.4651 63.385C40.8425 61.5838 41.435 59.7942 42.5088 58.3C43.2026 57.3345 44.111 56.5027 45.1737 55.9617C46.3607 55.3575 46.9612 55.4865 48.1501 55.9005C50.4592 56.7048 52.5794 58.027 54.3052 59.7621C55.3916 60.8542 56.8159 61.5259 58.1368 62.3189C59.6203 63.2096 61.0979 64.1104 62.5603 65.0357C64.2789 66.123 66.0016 67.2658 67.3187 68.8161C68.9089 70.6876 69.8141 73.0454 70.4591 75.4157Z" fill="#010101"/>
<path d="M45.2527 54.9575C43.5815 53.5612 41.3813 53.049 39.2614 52.8526C37.225 52.664 35.1983 51.9375 33.149 52.6454C31.6791 53.1531 30.5593 54.8011 29.994 56.1648C29.3336 57.7578 29.1423 59.5028 29.0351 61.2241C28.8736 63.8147 28.889 66.4374 29.428 68.9762C29.9671 71.5151 31.0566 73.9791 32.8338 75.8695C34.8085 77.97 37.5184 79.2512 40.2957 80.0205C42.1077 80.5224 44.0056 80.8271 45.8698 80.5822C47.7339 80.3373 49.5702 79.4945 50.7423 78.0235C52.5203 75.7922 52.4694 72.6142 51.8809 69.8217C51.2115 66.6464 49.971 63.6247 48.737 60.6237C47.8847 58.5511 46.9718 56.3935 45.2527 54.9575Z" fill="#FDF7EC"/>
<path d="M44.7464 52.0625C47.3123 54.0797 49.0113 56.6544 50.6124 59.4559C52.1685 62.1786 53.5684 64.9909 54.8024 67.8742C54.8585 68.0052 54.6973 68.1225 54.5904 68.0284C53.6244 67.179 51.3031 65.4048 49.3029 65.9584L47.0336 66.0692C47.0336 66.0692 45.3988 56.0988 44.8877 54.4924C44.3768 52.8859 44.7464 52.0625 44.7464 52.0625Z" fill="#FFE4C0"/>
<path d="M54.6182 80.0877C54.1454 74.4109 52.8859 68.8004 50.8873 63.4668L47.034 66.0692C47.034 66.0692 47.0617 67.0369 47.1724 68.0625C47.278 69.0415 48.2412 69.5074 48.4007 71.4848C48.415 71.6637 48.3576 71.8408 48.2425 71.9784C47.6888 72.6398 46.012 74.8585 45.9922 77.4939C45.9685 80.6509 54.6182 80.0877 54.6182 80.0877Z" fill="#FFE4C0"/>
<path d="M47.759 67.6989C47.98 67.1633 48.3802 66.7025 48.8705 66.3968C49.4074 66.062 50.0428 65.9295 50.67 66.0025C51.0307 66.0446 51.3824 66.1613 51.6992 66.3379C51.864 66.4298 52.0119 66.1766 51.847 66.0848C51.2143 65.732 50.4714 65.6131 49.7594 65.7418C49.1076 65.8596 48.503 66.207 48.0583 66.6965C47.8104 66.9694 47.6169 67.2805 47.4765 67.621C47.4463 67.6941 47.5092 67.782 47.5787 67.8012C47.6629 67.8244 47.7287 67.7724 47.759 67.6989Z" fill="#010101"/>
<path d="M31.4766 55.0001C32.5456 49.1056 32.8107 43.0645 32.2644 37.0996L32.8268 37.4924L45.4502 46.2931C45.276 49.2037 45.2599 52.1246 45.4004 55.0382C45.5073 57.2629 45.7051 59.4833 45.9935 61.6919L31.4766 55.0001Z" fill="#FDF7EC"/>
<path d="M45.3995 55.038C42.1762 54.5719 38.8988 52.1347 37.0463 49.8044C34.9024 47.1063 33.6342 43.822 32.8888 40.4834C32.6779 39.5367 32.6706 38.5166 32.8258 37.4922L45.4493 46.2929C45.275 49.2035 45.2589 52.1244 45.3995 55.038Z" fill="#010101"/>
<path d="M38.6281 74.3817C38.3749 73.505 38.0794 72.6499 37.7521 71.8021C37.4661 71.0613 37.4326 70.2496 37.2561 69.4644C36.856 67.684 36.1774 65.9838 35.6378 64.2445C34.8498 61.7041 33.7784 59.2517 32.4487 56.9486C31.9853 56.1462 30.9463 54.3438 29.8168 54.502C29.2509 54.5812 28.4653 55.154 27.96 55.4278C27.2985 55.7862 26.6583 56.1838 26.0435 56.6174C24.9714 57.3734 24.1482 58.2459 22.948 58.7849C20.1023 60.0626 17.3188 61.4795 14.6106 63.0278C12.7202 64.1083 10.8473 65.268 9.30601 66.8067C7.39463 68.7149 6.06417 71.1416 5.1221 73.6736C4.51041 75.3179 4.05394 77.0146 3.65298 78.7211C3.29668 80.2369 2.59375 81.955 3.89242 83.2144C4.43485 83.7403 5.14204 84.0594 5.85024 84.3217C8.27052 85.2185 10.8535 85.5667 13.4127 85.9004C17.789 86.4711 22.1834 87.0181 26.5968 86.9999C30.5175 86.9838 34.4732 86.5123 38.1964 85.2407C38.5243 85.1287 39.2292 85.0125 39.473 84.7673C39.7414 84.4975 39.6956 83.9825 39.7263 83.6061C39.812 82.5597 39.8124 81.5071 39.7432 80.4597C39.6067 78.3994 39.2005 76.3628 38.6281 74.3817Z" fill="#010101"/>
<path d="M32.0524 50.4492C32.5829 56.7522 37.0938 62.7612 41.9298 66.6632C42.256 66.9263 42.397 67.3551 42.2897 67.7604C42.0209 68.775 41.5463 70.6928 41.5069 71.7205C41.5069 71.7205 43.8028 76.4288 45.3947 78.6444C43.7369 78.4529 44.3916 83.7104 42.7338 83.5189C41.5428 83.3813 39.9325 82.6595 38.7415 82.5219C38.3114 82.4722 36.9786 82.0281 36.5487 81.976C35.9416 81.9022 35.741 81.8819 35.5292 81.2479C34.8187 79.1219 33.2404 72.4902 32.6528 70.3279C32.3883 69.3548 31.9132 68.2655 31.8504 67.2581C31.8161 66.7082 31.9091 66.1383 31.8896 65.58C31.8109 63.32 31.7328 61.0599 31.6543 58.8C31.6526 58.7501 31.6465 58.6982 31.649 58.6482L32.0524 50.4492Z" fill="#FFE4C0"/>
<path d="M32.0489 50.4492C32.0489 50.4492 30.3671 52.4236 29.0325 55.1147C28.9822 55.2163 28.9579 55.3281 28.9612 55.4414C28.9948 56.597 29.2456 63.3733 30.6586 69.8656C30.6852 69.9874 30.8211 70.0494 30.93 69.9892C31.8159 69.4997 35.3949 67.718 41.2402 67.2892L32.7604 58.205L32.4264 54.189L32.0489 50.4492Z" fill="#FFE4C0"/>
<path d="M32.414 69.3775C33.6535 68.9831 34.9088 68.6393 36.1766 68.3484C36.8104 68.203 37.4473 68.0706 38.0865 67.9516C38.7228 67.8332 39.3733 67.6987 40.0238 67.7542C40.5901 67.8026 41.1857 68.0369 41.5197 68.5184C41.6265 68.6722 41.8804 68.5258 41.7727 68.3705C41.4581 67.9172 40.9597 67.6362 40.427 67.5203C39.7772 67.3789 39.109 67.4736 38.4629 67.5867C37.1352 67.8196 35.8177 68.1114 34.5152 68.4581C33.7838 68.6528 33.0575 68.8654 32.3364 69.0949C32.1572 69.1518 32.2338 69.4349 32.414 69.3775Z" fill="#010101"/>
<path d="M56.6386 22.0477C56.8271 24.4929 56.0411 27.0017 57.3268 29.2296C57.9613 30.3292 58.7915 31.3412 59.151 32.5591C59.9124 35.1388 58.2977 37.8919 59.558 40.3363C60.4936 42.1511 62.7434 43.1971 63.1255 45.3154C63.3884 46.7726 62.312 48.9022 60.7427 49.1162C60.263 49.1816 59.7756 49.1093 59.3002 49.0171C57.7693 48.7201 56.2521 48.1992 55.0109 47.2547C54.1139 46.572 53.3716 45.651 52.9761 44.5889C52.8045 44.1283 52.8268 43.6149 52.6007 43.1937C52.2712 42.5802 51.7228 42.0123 51.3069 41.4525C49.5597 39.1011 47.8126 36.7499 46.0654 34.3985C44.0232 31.6502 41.9462 28.8352 40.91 25.571C39.8124 22.1131 38.9497 16.8573 42.3628 14.7212C46.3287 12.2394 52.8982 14.1581 55.3003 17.9806C56.0684 19.2037 56.5276 20.608 56.6386 22.0477Z" fill="#FFE4C0"/>
<path d="M48.4698 52.0469C49.8467 52.0806 51.213 51.6439 52.3352 50.8498C52.9636 50.4052 53.1732 50.2233 53.8823 50.6137C54.5455 50.9788 55.2338 51.2624 55.9783 51.4136C57.1598 51.6537 58.4222 51.5707 59.5199 51.072C60.6177 50.5733 61.534 49.6397 61.91 48.4933C62.6215 46.3249 61.1475 44.4421 59.5851 43.1368C57.9855 41.8007 56.174 40.6858 54.1813 40.0764C52.1888 39.467 50.0041 39.3856 48.0323 40.059C46.0604 40.7326 44.3297 42.2028 43.5376 44.1314C42.7587 46.0278 43.0929 47.8552 43.9904 49.6167C44.3836 50.3882 44.7458 50.8022 45.5384 51.2414C46.4331 51.7372 47.4465 52.0218 48.4698 52.0469Z" fill="#FFE4C0"/>
<path d="M21.8868 37.5939C21.7706 39.0844 21.9639 40.6688 22.1441 42.1494C22.3262 43.646 22.8209 45.0912 23.5221 46.4221C24.4201 48.1264 25.1973 49.6797 26.8253 50.8345C28.5649 52.0683 32.2723 53.4357 34.045 51.5948C34.5738 51.0457 35.0168 49.9806 34.7687 49.2133C34.6222 48.7602 34.1289 48.2822 33.876 47.8717C33.5841 47.3978 33.3139 46.9108 33.066 46.4125C31.9382 44.1456 31.3927 41.6465 31.2939 39.1249C31.1991 36.708 30.2075 33.9212 29.2286 31.7221C28.8279 30.822 28.2465 29.8658 27.2889 29.6362C26.1721 29.3684 25.1012 30.216 24.3847 31.1141C22.9199 32.9503 22.0692 35.2512 21.8868 37.5939Z" fill="#FFE4C0"/>
<path d="M27.3038 48.1386C27.2566 46.6748 27.2096 45.2112 27.1625 43.7474C27.1408 43.0732 27.1038 42.3996 27.1614 41.7357C27.2206 41.0563 27.253 40.3557 27.0985 39.6857C26.9368 38.9845 26.5282 38.3044 25.881 37.9913C25.1025 37.615 24.1667 37.8396 23.3814 38.2015C21.8369 38.9133 20.5406 40.135 19.6921 41.61C18.8461 43.0804 18.4031 44.8915 18.4309 46.5862C18.4554 48.0803 19.6402 49.7008 20.7504 50.6005C22.009 51.6204 23.6546 52.1495 25.2712 52.0539C26.0211 52.0095 26.8979 51.7382 27.2558 51.0104C27.628 50.2533 27.3304 48.9679 27.3038 48.1386Z" fill="#FFE4C0"/>
<path d="M24.1492 43.019C25.2816 41.8704 26.3634 40.5849 26.9272 39.0518C27.1988 38.3132 27.2066 37.6893 27.8214 37.1307C28.3587 36.6426 29.0505 36.3468 29.7241 36.1006C30.6334 35.7683 31.5623 35.4933 32.4972 35.2437C34.0082 34.8402 35.5365 34.5055 37.0475 34.1018C38.5584 33.6981 39.9619 33.1042 41.4297 32.5908C44.2273 31.6124 46.8374 29.6204 49.0651 27.689C50.4102 26.5228 51.7069 25.2157 52.3882 23.5703C53.0266 22.0286 53.0661 20.2423 52.5497 18.6593C52.17 17.4952 51.0994 16.3982 50.1968 15.6017C46.6422 12.4643 41.4445 11.8315 36.9224 12.4448C31.8868 13.1278 26.7998 15.5825 24.1524 20.0756C22.8383 22.3058 22.3686 24.8871 21.5556 27.3147C21.3927 27.8012 21.2524 28.3111 20.9545 28.731C20.6153 29.2092 20.1786 29.6333 19.8103 30.0904C19.0617 31.0196 18.3348 32.0332 18.0126 33.1989C17.5882 34.7344 17.5708 36.3785 17.9332 37.9282C18.0029 38.2261 18.216 38.5946 18.2283 38.8929C18.2427 39.2393 17.9635 39.6625 17.824 39.9709C17.4691 40.7548 17.0759 41.5206 16.7107 42.2995C16.1658 43.4617 15.6774 44.6664 15.4835 45.9353C15.2896 47.2043 15.4096 48.5531 16.0256 49.6791C16.5813 50.6946 17.6286 51.5273 18.7776 51.74C19.0679 51.7938 19.3961 51.7362 19.5977 51.5203C20.0479 51.0384 19.7927 50.1506 19.8248 49.5624C19.8613 48.8924 19.9689 48.1861 20.1833 47.5486C20.379 46.9663 20.8337 46.46 21.2347 45.99C22.136 44.9331 23.1755 44.0066 24.1492 43.019Z" fill="#FFE4C0"/>
<path d="M31.6219 39.8725C30.413 37.1361 29.6296 34.2206 29.3737 31.2814C29.0625 27.7072 29.6543 23.8734 31.9417 21.1108C33.516 19.2098 35.7742 17.9673 38.1361 17.2551C40.4671 16.5522 42.9947 16.3344 45.336 17.0017C51.1255 18.6518 53.5742 24.6812 53.1265 30.251C53.0494 31.2109 52.9083 32.1795 52.7619 33.1311C52.6235 34.031 52.7175 34.9021 52.7774 35.8142C52.8937 37.5851 52.854 39.3761 52.5061 41.1208C52.1531 42.8905 51.4123 44.2616 50.5814 45.8051C48.815 49.0869 45.8287 53.1647 41.5705 51.5396C40.2705 51.0435 39.1645 50.1455 38.1546 49.1878C35.4214 46.5953 33.172 43.381 31.6219 39.8725Z" fill="#FDF7EC"/>
<path d="M41.5716 32.9741C41.666 33.0122 41.7492 32.9052 41.6911 32.8223C40.34 30.8956 36.6876 31.2541 35.1396 32.8362C34.741 33.2436 35.6421 33.265 35.8559 33.2166C36.2617 33.125 36.6099 32.8749 36.9965 32.7321C38.4443 32.1976 40.1475 32.4006 41.5716 32.9741Z" fill="#010101"/>
<path d="M47.5887 32.9877C47.5455 33.0787 47.6425 33.1716 47.7306 33.1229C48.4425 32.7294 49.2602 32.5033 50.0816 32.533C50.5429 32.5497 50.9998 32.6488 51.421 32.8313C51.5954 32.9068 51.7813 33.0737 51.9708 33.0834C52.0995 33.09 52.3077 33.0224 52.4217 32.9632C52.9322 32.6978 51.6657 32.0422 51.4294 31.9613C50.8883 31.7762 50.1859 31.7358 49.6132 31.7847C48.5507 31.8757 47.8919 32.3488 47.5887 32.9877Z" fill="#010101"/>
<path d="M47.6442 43.0161C47.6256 42.361 47.0871 41.7937 46.4573 41.6146C45.8273 41.4355 45.139 41.5917 44.5642 41.9057C43.9893 42.2196 43.5093 42.6793 43.0469 43.1433C43.0469 43.1433 44.7619 43.5757 45.8063 43.4312C46.8508 43.2867 47.6442 43.0161 47.6442 43.0161Z" fill="#FDF7EC"/>
<path d="M39.2241 33.6908C39.2423 33.4118 39.2178 33.13 39.1513 32.8584C39.0727 32.537 38.9355 32.0753 38.5714 31.9782C38.3061 31.9074 38.0366 31.8856 37.7693 31.9625C37.4574 32.0522 37.1987 32.2437 37.1121 32.5632C36.8727 33.4462 36.9147 35.3705 38.2766 35.1828C38.8221 35.1076 39.0693 34.5558 39.1711 34.0766C39.198 33.9495 39.2158 33.8205 39.2241 33.6908Z" fill="#010101"/>
<path d="M50.5268 33.8618C50.6109 33.3506 50.6217 32.3099 50.0267 32.1186C49.7735 32.0373 49.5026 31.9728 49.2438 32.034C48.5664 32.1945 48.5345 33.3347 48.5875 33.881C48.6257 34.2742 48.6781 34.7889 49.027 35.0317C49.8683 35.6175 50.4125 34.5585 50.5268 33.8618Z" fill="#010101"/>
<path d="M44.9916 39.168C45.2359 38.9558 45.562 38.8365 45.8854 38.8341C45.9646 38.8335 46.0318 38.7672 46.0318 38.6876C46.0318 38.6086 45.9648 38.5404 45.8854 38.541C45.4799 38.544 45.0902 38.6953 44.7846 38.9608C44.7248 39.0126 44.7314 39.1148 44.7846 39.168C44.8439 39.2273 44.9317 39.22 44.9916 39.168Z" fill="#010101"/>
<path d="M42.6878 43.2165C43.3817 43.437 44.1095 43.553 44.8362 43.5865C45.535 43.6189 46.245 43.5743 46.9283 43.4188C47.2745 43.34 47.6132 43.2286 47.9332 43.0739C48.1028 42.9918 47.9545 42.739 47.7853 42.8208C47.2308 43.089 46.6071 43.214 45.9973 43.2695C45.3036 43.3327 44.5978 43.3092 43.9096 43.2011C43.5224 43.1402 43.1395 43.0525 42.7657 42.9338C42.5856 42.8766 42.5086 43.1594 42.6878 43.2165Z" fill="#010101"/>
<path d="M43.7009 44.8548C44.9025 45.3016 46.2849 45.1866 47.4008 44.5583C47.5651 44.4658 47.4177 44.2126 47.2529 44.3052C46.2004 44.8977 44.9094 44.9927 43.7787 44.5721C43.6019 44.5063 43.5255 44.7894 43.7009 44.8548Z" fill="#010101"/>
<path d="M40.0162 27.3052C40.445 27.4129 40.8621 27.6213 41.081 27.9937C41.3423 28.4381 41.395 29.0148 40.8807 29.294C40.6675 29.4096 40.4244 29.4552 40.1852 29.4947C38.9232 29.7034 37.6411 29.7908 36.3623 29.755C35.3016 29.7254 35.141 28.5137 35.9857 28.0204C37.0448 27.402 38.3591 27.0891 39.5839 27.2278C39.7245 27.2436 39.8711 27.2685 40.0162 27.3052Z" fill="#010101"/>
<path d="M49.2176 27.3458C49.4387 27.3322 49.659 27.3378 49.8587 27.3502C50.6139 27.3976 53.3829 28.0275 52.4915 29.2512C52.1113 29.7731 51.3737 29.7873 50.7903 29.8045C49.95 29.8291 48.7797 29.8537 48.0291 29.4316C47.6303 29.2043 47.63 28.7063 47.7214 28.3122C47.8866 27.5995 48.5567 27.3867 49.2176 27.3458Z" fill="#010101"/>
<path d="M45.7629 21.2546C45.6367 21.3991 45.5059 21.5393 45.3712 21.6747C43.8584 23.1951 41.87 24.1699 39.8158 24.7848C38.7453 25.1051 37.6047 25.3571 36.7546 26.0825C35.9795 26.7441 35.5504 27.7122 34.9784 28.5558C33.8751 30.183 32.2381 31.3351 30.558 32.3034C29.9337 32.6632 29.032 33.4148 28.3424 33.5311C27.6653 33.6454 26.4583 33.147 25.9586 32.713C24.4378 31.3915 24.0607 28.9852 24.3608 27.0998C24.6302 25.4069 25.408 23.8305 26.3649 22.4088C28.611 19.0718 31.9268 16.4825 35.6803 15.0534C38.8777 13.8359 42.5134 13.0218 45.8602 14.1337C47.5059 14.6805 47.9403 15.543 47.6866 17.2409C47.464 18.7295 46.7506 20.1244 45.7629 21.2546Z" fill="#FFE4C0"/>
<path d="M27.4374 34.222C27.3355 32.9717 27.4598 31.7109 27.793 30.5021C28.1261 29.2933 28.664 28.144 29.3812 27.1156C29.7845 26.5373 30.2466 26.0016 30.7577 25.5161C30.8946 25.3859 30.6875 25.1789 30.5507 25.3088C29.6212 26.192 28.854 27.2444 28.2856 28.3936C27.7143 29.5485 27.3419 30.7949 27.187 32.0741C27.1008 32.7865 27.0861 33.5068 27.1444 34.2221C27.1598 34.4087 27.4528 34.4103 27.4374 34.222Z" fill="#010101"/>
<path d="M28.7985 32.3245C28.5345 32.2612 28.2551 32.2258 27.9591 32.2228C27.075 32.2135 26.2444 32.7636 25.8636 33.555C25.5656 34.1743 25.5283 34.9004 25.6838 35.57C25.8393 36.2396 26.1779 36.8563 26.596 37.4016C27.1576 38.1341 27.8645 38.6679 28.6506 39.123C29.4726 39.5987 30.2082 39.966 31.1964 39.8122C31.45 39.7728 31.7022 39.7013 31.9216 39.5679C32.329 39.3204 32.5898 38.8747 32.6918 38.4088C32.7684 38.0588 32.7971 37.6238 32.705 37.2736C32.634 37.003 32.464 36.7656 32.373 36.4975C32.1654 35.886 31.9318 35.2877 31.6156 34.7229C30.9971 33.6174 30.068 32.629 28.7985 32.3245Z" fill="#FDF7EC"/>
<path d="M31.5018 36.3359C30.7623 35.4042 29.776 34.6835 28.6727 34.2435C28.3612 34.1192 28.0407 34.0196 27.7139 33.9438C27.5306 33.9013 27.4522 34.1838 27.636 34.2265C28.754 34.4855 29.7959 35.0405 30.6339 35.8253C30.8717 36.0479 31.0921 36.2881 31.2946 36.5433C31.3438 36.6053 31.4503 36.5947 31.5017 36.5433C31.5631 36.4819 31.5512 36.398 31.5018 36.3359Z" fill="#010101"/>
<path d="M29.7724 34.9112C29.5481 35.0399 29.3605 35.2376 29.2517 35.4731C29.1265 35.744 29.1084 36.0311 29.1593 36.323C29.246 36.82 29.5282 37.2834 29.9274 37.5904C30.1473 37.7596 30.4045 37.8784 30.6791 37.9228C30.7571 37.9354 30.8367 37.9026 30.8592 37.8205C30.8784 37.7506 30.8355 37.6529 30.757 37.6403C30.2191 37.5533 29.7957 37.1657 29.5728 36.679C29.4521 36.4152 29.3794 36.09 29.445 35.8032C29.5069 35.5323 29.6799 35.3021 29.9203 35.1643C30.0838 35.0705 29.9364 34.8171 29.7724 34.9112Z" fill="#010101"/>
<path d="M46.5854 33.2857C46.7298 33.7544 46.8699 34.2242 47.0055 34.6955C47.1205 35.0952 47.2168 35.5026 47.3525 35.8958C47.4645 36.2205 47.5895 36.5411 47.6776 36.8735C47.7172 37.0233 47.7518 37.176 47.7617 37.3311C47.7717 37.4857 47.7489 37.6128 47.6944 37.7573C47.5217 38.2154 47.2744 38.6495 46.9706 39.0335C46.9216 39.0955 46.9102 39.1802 46.9706 39.2407C47.0216 39.2917 47.1284 39.3031 47.1777 39.2407C47.4665 38.8756 47.708 38.4789 47.8902 38.0499C47.9632 37.878 48.0368 37.708 48.0535 37.5204C48.0678 37.3601 48.0456 37.1964 48.0158 37.039C47.948 36.6804 47.8186 36.3355 47.6964 35.9927C47.5636 35.6203 47.4649 35.2391 47.3568 34.859C47.2 34.3067 47.0367 33.7563 46.8677 33.2076C46.8125 33.0282 46.5296 33.1048 46.5854 33.2857Z" fill="#010101"/>
<path d="M47.7501 17.6363C47.7918 16.8934 47.631 16.1505 47.2938 15.488C47.2082 15.3199 46.9553 15.4681 47.0408 15.6361C47.3551 16.2537 47.496 16.9451 47.4572 17.6364C47.4466 17.8248 47.7395 17.8242 47.7501 17.6363Z" fill="#010101"/>
<path d="M25.3204 23.6337C24.7884 24.7399 24.4151 25.9197 24.219 27.1319C24.0214 28.3527 24.0012 29.5914 24.1557 30.8182C24.2378 31.4683 24.3501 32.1375 24.2218 32.7894C24.0991 33.4128 23.8046 33.9846 23.5747 34.572C23.1214 35.7301 22.8268 36.9465 22.6857 38.1818C22.5453 39.412 22.5664 40.6573 22.744 41.8825C22.7666 42.0381 22.7919 42.1934 22.8196 42.3481C22.8527 42.5335 23.135 42.455 23.1021 42.2701C22.8862 41.0612 22.8335 39.8244 22.937 38.6009C23.0401 37.3832 23.303 36.1788 23.7152 35.0285C23.9242 34.4452 24.2049 33.8877 24.3924 33.2968C24.4898 32.99 24.551 32.6742 24.5668 32.3525C24.5832 32.021 24.5555 31.6892 24.517 31.36C24.4441 30.7367 24.3613 30.1191 24.3467 29.4907C24.3326 28.8866 24.3622 28.2814 24.4346 27.6814C24.579 26.482 24.9004 25.2961 25.3854 24.1897C25.4455 24.0527 25.5083 23.9167 25.5732 23.7819C25.6547 23.6124 25.4023 23.4637 25.3204 23.6337Z" fill="#010101"/>
<path d="M27.2858 50.903C26.164 50.2757 25.2587 49.2978 24.7033 48.1395C24.5473 47.8141 24.4228 47.475 24.3274 47.1271C24.2774 46.9453 23.9948 47.0226 24.045 47.205C24.399 48.4937 25.1631 49.6654 26.1963 50.5121C26.4911 50.7538 26.8053 50.9701 27.138 51.156C27.3026 51.2482 27.4505 50.9951 27.2858 50.903Z" fill="#010101"/>
<path d="M20.2177 49.9165C19.5881 49.1097 19.1835 48.1175 19.0653 47.1008C19.0311 46.8056 19.0202 46.5084 19.0315 46.2117C19.0387 46.023 18.7458 46.0233 18.7386 46.2117C18.697 47.3026 18.9641 48.4 19.4954 49.3531C19.6464 49.6238 19.8201 49.8795 20.0106 50.1237C20.0594 50.1861 20.1666 50.1749 20.2177 50.1237C20.2792 50.062 20.2665 49.979 20.2177 49.9165Z" fill="#010101"/>
<path d="M62.0934 48.1672C62.186 46.8576 61.8032 45.5207 61.0467 44.4495C60.8329 44.1468 60.5911 43.8649 60.3223 43.6096C60.1857 43.4797 59.9782 43.6867 60.1153 43.8168C61.0206 44.6769 61.6144 45.8559 61.7718 47.0956C61.8169 47.4508 61.8259 47.81 61.8007 48.1672C61.7872 48.3554 62.0803 48.3545 62.0934 48.1672Z" fill="#FFE4C0"/>
<path d="M30.2783 40.9643C30.4414 41.0634 30.6463 41.0634 30.8094 40.9643C30.9065 40.9054 31.0028 40.8452 31.0947 40.7786C31.2709 40.6514 31.4335 40.4981 31.5366 40.3067C31.6396 40.1153 31.6776 39.8814 31.6031 39.6773C31.5285 39.4731 31.3284 39.3107 31.1113 39.3145C30.9916 39.3166 30.8681 39.3663 30.761 39.456C30.639 39.5581 30.4592 39.5701 30.3357 39.4699C30.2133 39.3704 30.0661 39.3169 29.9393 39.3145C29.7221 39.3107 29.5588 39.4731 29.4843 39.6774C29.4098 39.8817 29.4477 40.1155 29.5508 40.3069C29.6539 40.4983 29.8164 40.6516 29.9926 40.7788C30.085 40.8452 30.1812 40.9054 30.2783 40.9643Z" fill="#FDF7EC"/>
<path d="M24.2228 58.3608C24.5304 59.7485 24.8735 61.1282 25.2524 62.4982C25.6312 63.8681 26.0457 65.2283 26.495 66.5766C26.9443 67.9251 27.4283 69.262 27.9464 70.5854C28.4646 71.9089 29.0168 73.2191 29.6021 74.5144C30.1874 75.8095 30.8061 77.0894 31.4578 78.3525C31.5385 78.509 31.6198 78.6651 31.7015 78.8211C31.7891 78.9882 32.0418 78.8402 31.9544 78.6733C31.2978 77.4199 30.6732 76.1498 30.0818 74.8644C29.4906 73.5789 28.9327 72.2782 28.409 70.9638C27.883 69.6434 27.3909 68.3095 26.9337 66.9638C26.4786 65.624 26.0579 64.2724 25.6721 62.9109C25.2864 61.5494 24.9358 60.1781 24.6209 58.7984C24.5817 58.6266 24.5432 58.4549 24.5051 58.2829C24.4644 58.0987 24.182 58.1767 24.2228 58.3608Z" fill="#010101"/>
<path d="M13.5684 71.143C14.515 72.0425 15.4218 72.9839 16.2845 73.9643C17.1462 74.9436 17.9642 75.9615 18.7342 77.0145C19.17 77.6105 19.5905 78.2179 19.9958 78.8352C20.0989 78.9921 20.3526 78.8454 20.2487 78.6873C19.525 77.5849 18.7518 76.5156 17.9327 75.4824C17.118 74.4546 16.2573 73.4636 15.3537 72.5131C14.8412 71.974 14.3147 71.4483 13.7755 70.9359C13.6388 70.8058 13.4313 71.0127 13.5684 71.143Z" fill="#010101"/>
<path d="M54.7732 61.2093C55.1292 62.3332 55.4515 63.4677 55.7386 64.6112C56.0256 65.7546 56.2779 66.9068 56.4951 68.0657C56.7108 69.2173 56.8922 70.3755 57.0375 71.5382C57.1837 72.7081 57.2942 73.8824 57.3691 75.0591C57.4439 76.2356 57.4828 77.4147 57.4858 78.5936C57.4862 78.7395 57.4859 78.8854 57.4852 79.0313C57.4843 79.22 57.7772 79.2202 57.7781 79.0313C57.7838 77.8464 57.7538 76.6615 57.6871 75.4785C57.6208 74.3014 57.5187 73.1263 57.3809 71.9553C57.2424 70.7771 57.0689 69.603 56.8595 68.4354C56.6514 67.275 56.4081 66.1208 56.13 64.9751C55.8504 63.8237 55.5357 62.6809 55.1862 61.5489C55.1431 61.4095 55.0995 61.2703 55.0554 61.1312C54.9989 60.9521 54.7161 61.0287 54.7732 61.2093Z" fill="#010101"/>
</g>
</svg>
