<svg width="80" height="81" viewBox="0 0 80 81" fill="none" xmlns="http://www.w3.org/2000/svg">
<mask id="mask0_2492_26032" style="mask-type:alpha" maskUnits="userSpaceOnUse" x="0" y="0" width="80" height="81">
<circle cx="40" cy="40.5" r="40" fill="#C3DEF7"/>
</mask>
<g mask="url(#mask0_2492_26032)">
<circle cx="40" cy="40.5" r="40" fill="#CADFF7"/>
<path d="M51.9088 58.4161L36.6593 64.018L31.875 57.5763C32.6392 57.2218 33.3872 56.8321 34.1162 56.4085C34.7966 56.0143 35.3095 55.8378 35.355 54.9745C35.3668 54.748 35.3786 54.52 35.3874 54.2935C35.5005 51.5932 35.4271 48.8885 35.3874 46.175L47.8233 38.3373L48.7521 37.752C48.5126 39.0315 48.32 40.3199 48.1701 41.6127C48.1378 41.9024 48.1055 42.1922 48.0776 42.4819C47.9482 43.7791 47.8644 45.0793 47.8262 46.3809C47.7248 49.7548 46.965 55.0539 49.9249 56.2526C50.9742 56.6776 51.2255 57.513 51.9088 58.4161Z" fill="#FDF7EC"/>
<path d="M35.2252 55.1443C35.1352 55.7747 35.0453 56.405 34.9553 57.0354C34.9442 57.1139 34.9746 57.1934 35.0579 57.2163C35.1269 57.2353 35.2274 57.1928 35.2387 57.1136C35.3286 56.4833 35.4186 55.8529 35.5085 55.2225C35.5197 55.144 35.4893 55.0646 35.4059 55.0416C35.337 55.0225 35.2365 55.0652 35.2252 55.1443Z" fill="#010101"/>
<path d="M48.1734 41.6133C48.1543 41.903 48.1234 42.1927 48.0808 42.4825C47.5341 46.1844 45.121 49.7715 42.2405 51.8865C40.2654 53.3381 37.8478 54.2279 35.3906 54.2941C35.5038 51.5938 35.4303 48.8891 35.3906 46.1755L47.8265 38.3379C47.9177 38.6306 47.9912 38.9291 48.0455 39.2292C48.1896 40.0146 48.2278 40.8132 48.1734 41.6133Z" fill="#010101"/>
<path d="M31.4319 27.359C31.3525 26.937 31.2338 26.5086 30.9697 26.17C30.8223 25.981 30.6337 25.8332 30.4236 25.7222C30.5194 25.2633 30.5657 24.7974 30.5279 24.3306C30.4553 23.4331 30.0343 22.5279 29.2726 22.0487C28.6947 21.6853 28.0108 21.5336 27.3838 21.8653C26.7392 22.2062 26.3208 22.8928 26.0118 23.5277C25.6163 24.34 25.2831 25.1952 25.1069 26.0784C24.6837 28.2004 24.6528 30.4007 25.0214 32.5331C25.0911 32.9361 25.18 33.3512 25.3776 33.7133C25.5181 33.9708 25.901 34.5173 26.1213 33.9964C26.3638 33.4226 26.6875 32.6974 26.7276 32.5512C26.73 32.5427 26.7337 32.5353 26.736 32.5268C27.1302 32.9293 27.5721 33.2706 27.9668 33.5056C28.3454 33.731 28.9459 34.1258 29.3891 34.0265C29.9571 33.8993 30.4095 33.1185 30.6518 32.6514C31.4885 31.0393 31.7677 29.1441 31.4319 27.359Z" fill="#010101"/>
<path d="M50.398 38.6609C50.5012 38.366 50.5998 38.0697 50.6939 37.7717C51.5568 35.0412 52.0264 32.2071 52.0909 29.3444C52.1487 26.783 51.7273 24.1543 50.3582 21.9477C49.0048 19.7666 46.9657 18.0187 44.6042 17.0155C43.4107 16.5085 42.0269 16.3437 40.7406 16.2341C39.3449 16.1151 37.9301 16.2601 36.5789 16.6243C34.5905 17.1602 32.7429 18.1606 31.1199 19.4289C29.0149 21.0739 27.4446 23.1308 27.3191 25.8674C27.2318 27.7688 27.3347 29.6789 27.6256 31.5598C27.7375 32.2837 27.8773 33.005 27.9248 33.736C28.0177 35.1679 27.8738 36.606 27.8883 38.0356C27.9026 39.427 28.1531 40.8625 28.4089 42.2266C28.6994 43.7762 29.1013 45.3043 29.5984 46.8002C30.0482 48.1538 30.4919 49.8528 31.4269 50.961C32.4396 52.1613 34.3987 52.4369 35.8803 52.5268C37.5675 52.6291 39.3524 52.3967 40.8659 51.6069C43.3949 50.2874 45.2702 48.0808 46.8436 45.7507C48.3275 43.554 49.523 41.1634 50.398 38.6609Z" fill="#FDF7EC"/>
<path d="M44.6473 33.6311C44.1198 34.071 43.5539 33.9636 42.9171 33.9558C42.2227 33.9471 41.5279 33.9823 40.8379 34.061C40.2465 34.1285 39.6766 34.3212 39.1249 34.5372C38.8448 34.6469 38.6307 34.7565 38.3479 34.8589C38.2505 34.8942 38.1076 34.9496 38.0583 34.8187C37.9742 34.5959 38.3785 34.3953 38.525 34.2997C39.2071 33.8552 39.9676 33.5742 40.7685 33.4389C41.7073 33.2803 42.6649 33.2326 43.6147 33.2978C43.9507 33.3209 44.2858 33.358 44.6188 33.4094C44.651 33.4144 44.6857 33.4209 44.7074 33.4449C44.7563 33.499 44.7024 33.5831 44.6473 33.6311Z" fill="#010101"/>
<path d="M42.2417 35.2983C42.5738 34.954 42.6685 34.4255 42.529 33.9746C42.3951 33.5414 41.8602 33.5264 41.4756 33.5531C41.0631 33.5816 40.6523 33.6373 40.2471 33.7198C39.3714 33.8981 39.9174 35.1347 40.3681 35.4958C40.8491 35.881 41.6489 35.7865 42.1125 35.4159C42.1581 35.3794 42.2013 35.3402 42.2417 35.2983Z" fill="#010101"/>
<path d="M31.3462 33.8891C31.7054 33.9779 32.0547 34.1075 32.3842 34.2759C32.5435 34.3573 33.7141 34.9596 33.4841 35.1995C33.3113 35.3798 32.807 35.0102 32.627 34.9367C32.2896 34.799 31.9402 34.6908 31.5843 34.6127C31.0347 34.4922 30.469 34.4441 29.907 34.4722C29.5608 34.4894 28.8345 34.688 28.6568 34.2431C28.4434 33.7092 30.4049 33.7439 30.6637 33.7704C30.8936 33.7939 31.1218 33.8336 31.3462 33.8891Z" fill="#010101"/>
<path d="M32.4801 35.2557C32.4574 34.8146 32.3605 34.38 31.9227 34.2208C31.3731 34.0213 30.7808 33.9349 30.1971 33.9677C30.132 33.9714 30.0645 33.9773 30.008 34.0095C29.6886 34.1911 30.2112 35.0445 30.3464 35.2321C30.6103 35.5988 30.9816 35.9199 31.4217 36.0474C31.7531 36.1434 32.1578 36.0659 32.3529 35.781C32.4563 35.6297 32.4896 35.4389 32.4801 35.2557Z" fill="#010101"/>
<path d="M32.3469 40.1371C32.2174 40.602 32.4734 41.0517 32.7793 41.3847C33.0875 41.7205 33.484 42.0024 33.9107 42.1648C33.9849 42.193 34.0719 42.1335 34.0915 42.0621C34.1143 41.9793 34.0633 41.9096 33.9889 41.8812C33.6253 41.7428 33.2882 41.4931 33.0212 41.2132C32.7743 40.9544 32.5261 40.5901 32.6304 40.2153C32.6812 40.0326 32.3978 39.9547 32.3469 40.1371Z" fill="#010101"/>
<path d="M35.5406 41.7889C35.7329 41.6904 35.9416 41.5789 36.1641 41.5879C36.2312 41.5905 36.3185 41.6136 36.3804 41.6488C36.422 41.6725 36.4342 41.6817 36.4646 41.713C36.4843 41.7335 36.4821 41.73 36.4953 41.7514C36.5009 41.7604 36.5063 41.7695 36.5112 41.7789C36.5128 41.7819 36.5247 41.81 36.5191 41.7953C36.5473 41.8694 36.6182 41.9204 36.6999 41.8979C36.7709 41.8784 36.8308 41.7916 36.8025 41.717C36.7068 41.4652 36.4737 41.3261 36.2133 41.2976C35.9223 41.2656 35.6432 41.4062 35.3922 41.5349C35.3215 41.5711 35.301 41.6704 35.3395 41.7361C35.3815 41.8079 35.4697 41.8253 35.5406 41.7889Z" fill="#010101"/>
<path d="M33.5574 44.4475C34.7559 44.7625 36.0133 44.8431 37.2416 44.6794C37.5912 44.6328 37.9378 44.5682 38.2803 44.4838C38.4639 44.4387 38.3861 44.1548 38.2021 44.2001C37.0388 44.4866 35.8177 44.5477 34.632 44.3697C34.2963 44.3192 33.9637 44.2501 33.6354 44.1636C33.4525 44.1157 33.3744 44.3994 33.5574 44.4475Z" fill="#010101"/>
<path d="M34.2489 45.8453C35.0929 46.3702 36.1838 46.4155 37.0729 45.9769C37.2426 45.8933 37.0938 45.6395 36.9245 45.7229C36.1285 46.1155 35.1487 46.0587 34.3972 45.5913C34.2361 45.4911 34.0884 45.7454 34.2489 45.8453Z" fill="#010101"/>
<path d="M43.4842 29.9769C43.744 30.3229 43.8489 30.7304 43.4097 31.0649C43.2671 31.1734 43.057 31.1208 42.878 31.1186C41.7301 31.104 40.582 31.0894 39.4341 31.0749C39.1685 31.0715 38.8932 31.0659 38.654 30.9506C37.9775 30.6242 38.2009 29.5912 38.6563 29.1751C38.9489 28.9077 39.4998 28.853 39.8819 28.8062C40.8484 28.6877 41.8531 28.8737 42.7065 29.3457C43.0008 29.5085 43.2821 29.7079 43.4842 29.9769Z" fill="#010101"/>
<path d="M32.7658 29.864C32.8251 29.9608 32.8742 30.0701 32.9115 30.1932C33.204 31.1577 32.4448 31.3893 31.741 31.4343C31.0238 31.4801 30.3052 31.4865 29.5889 31.4536C29.1299 31.4326 28.4367 31.5389 28.1692 31.0294C28.0117 30.7295 28.1472 30.3277 28.391 30.0924C28.9403 29.5621 30.0181 29.3463 30.7291 29.2504C31.4291 29.156 32.3404 29.1713 32.7658 29.864Z" fill="#010101"/>
<path d="M55.273 23.8567C54.2081 21.8107 52.6812 20.0221 50.9779 18.4699C49.2871 16.929 47.3686 15.5619 45.1689 14.9073C43.5656 14.4302 41.7977 14.3668 40.1947 14.8798C39.5154 15.0972 38.9621 15.3354 38.2674 15.4584C37.6136 15.574 37.1126 16.1551 37.1683 16.8362C37.2224 17.4995 37.6697 18.0581 38.1031 18.5663C38.9615 19.5727 39.8899 20.5946 41.1245 21.0837C42.3628 21.5742 43.7588 21.4676 45.049 21.8018C46.2879 22.1225 47.3683 22.8366 48.2763 23.7433C47.9973 23.9427 47.7725 24.2153 47.632 24.573C47.2853 25.4559 47.7102 26.3917 47.8239 27.2924C47.8942 27.8483 47.9596 28.4049 48.02 28.962C48.1381 30.0496 48.2378 31.1391 48.3187 32.2302C48.3596 32.7814 48.3957 33.3331 48.4272 33.8849C48.4428 34.1593 48.3396 34.9816 48.843 34.9013C48.958 34.883 49.0537 34.8057 49.1422 34.73C49.6799 34.2694 50.1725 33.7566 50.7261 33.3154C51.1053 33.0132 51.5168 32.7436 51.9679 32.5618C52.3409 32.4115 52.7505 32.27 53.1489 32.3918C53.3851 32.464 53.5591 32.6393 53.7838 32.7271C54.0329 32.8243 54.2129 32.6545 54.3655 32.469C54.4043 32.4218 54.4407 32.3724 54.476 32.3224C54.6122 32.1301 54.7377 31.92 54.8527 31.6988C55.0186 31.6457 55.1814 31.572 55.3394 31.4734C56.0679 31.0193 56.515 30.2007 56.6491 29.3581C56.9404 27.5311 56.1013 25.4479 55.273 23.8567Z" fill="#010101"/>
<path d="M55.0739 31.6122C55.5749 30.5518 55.7542 29.3703 55.5963 28.2087C55.5855 28.1299 55.4847 28.087 55.4155 28.1061C55.3306 28.1295 55.302 28.208 55.3129 28.287C55.4594 29.3631 55.2838 30.4825 54.8203 31.4638C54.7398 31.6338 54.9931 31.7834 55.0739 31.6122Z" fill="#010101"/>
<path d="M50.7785 33.1671C51.1641 32.796 51.5957 32.4775 52.0807 32.2544C53.007 31.8284 54.2137 31.7809 55.0504 32.4288C55.9483 33.1242 56.1329 34.5757 55.9421 35.6209C55.7482 36.6841 55.1753 37.651 54.4496 38.4514C53.8933 39.0647 53.2301 39.6006 52.4553 39.8919C51.4914 40.2543 50.2165 40.2281 49.4886 39.4034C49.2546 39.1384 49.115 38.8031 49.0167 38.4635C48.5445 36.8321 49.0351 35.3012 50.05 33.9874C50.2731 33.6987 50.5151 33.4207 50.7785 33.1671Z" fill="#FDF7EC"/>
<path d="M54.2738 34.0479C53.001 34.2864 51.804 34.8872 50.8411 35.7523C50.5724 35.9937 50.3236 36.2563 50.0961 36.5368C50.0461 36.5984 50.0359 36.6845 50.0961 36.7448C50.1477 36.7966 50.2536 36.8068 50.3039 36.7448C51.091 35.7741 52.1434 35.0261 53.3215 34.6082C53.6571 34.4891 54.0018 34.397 54.3518 34.3314C54.5376 34.2967 54.459 34.0132 54.2738 34.0479Z" fill="#010101"/>
<path d="M51.0504 38.2222C51.5724 37.9522 52.057 37.5239 52.284 36.9713C52.4057 36.6754 52.438 36.3352 52.4245 36.0177C52.4095 35.6672 52.3278 35.3291 52.1904 35.0071C52.1592 34.934 52.0517 34.9178 51.9894 34.9543C51.9138 34.9986 51.9053 35.0823 51.9366 35.1555C52.0547 35.4323 52.1203 35.7335 52.1313 36.034C52.1418 36.3189 52.116 36.6235 52.0026 36.8881C51.7965 37.3686 51.3567 37.733 50.9021 37.968C50.7339 38.0551 50.8824 38.309 51.0504 38.2222Z" fill="#010101"/>
<path d="M32.0544 16.4849C30.8094 16.8851 29.7348 17.695 28.7581 18.5423C27.2629 19.8395 26.0162 21.4812 25.3391 23.3533C24.5867 25.4338 24.5676 27.8517 25.5971 29.8437C25.6911 30.0258 25.841 30.2302 26.0444 30.2064C26.234 30.1842 26.3363 29.9779 26.4045 29.7995C26.7224 28.9683 27.0232 28.1138 27.3384 27.2612C27.5982 27.7311 27.9673 28.175 28.4631 28.5784C29.2144 29.1897 29.6908 29.1712 29.7249 28.1257C29.7556 27.1828 29.8888 26.2435 30.1172 25.3284C30.1677 25.1257 30.223 24.9241 30.2829 24.7239C30.5797 23.7322 30.9896 22.7741 31.5039 21.8761C31.7814 21.3917 32.0818 20.7973 32.5149 20.4383C32.9106 20.1103 33.3912 19.9292 33.4147 19.3217C33.426 19.0268 33.3539 18.8087 33.2259 18.6592C33.4304 18.4804 33.6354 18.302 33.8405 18.1239C34.0559 17.9366 34.2752 17.7443 34.4166 17.4963C35.3227 15.907 32.7743 16.2535 32.0544 16.4849Z" fill="#010101"/>
<path d="M24.8211 27.7213C24.877 28.1679 24.9718 28.609 25.1123 29.0368C25.1821 29.2492 25.263 29.4581 25.3559 29.6615C25.4425 29.8509 25.5361 30.0486 25.666 30.2126C25.7981 30.3793 26.013 30.4838 26.2131 30.363C26.3797 30.2624 26.4398 30.0567 26.5028 29.8853C26.6503 29.4841 26.7969 29.0826 26.9437 28.6811C27.1073 28.2334 27.2707 27.7855 27.4354 27.3383C27.501 27.1605 27.217 27.0837 27.1521 27.26C26.8843 27.987 26.6198 28.7153 26.3532 29.4428C26.2927 29.6081 26.2356 29.7754 26.1707 29.9391C26.1489 29.9942 26.1197 30.0723 26.0681 30.1064C26.0108 30.1445 25.9595 30.1002 25.9189 30.0573C25.7967 29.9283 25.7173 29.7399 25.6416 29.581C25.5545 29.3981 25.4805 29.2094 25.4154 29.0176C25.273 28.5975 25.17 28.1611 25.1149 27.7208C25.105 27.642 25.0545 27.5737 24.9679 27.5737C24.8964 27.5742 24.8111 27.6418 24.8211 27.7213Z" fill="#010101"/>
<path d="M52.2123 26.1624C52.0158 25.3416 51.9178 24.4925 51.623 23.6905C51.0323 22.0837 49.9008 20.6708 48.4314 19.7866C47.8753 19.452 47.2627 19.1863 46.6163 19.1313C46.0244 19.081 45.4019 19.2278 44.9424 19.5984C45.0892 19.1225 44.997 18.5574 44.745 18.1128C44.1652 17.0901 43.0495 16.573 42.0848 15.9958C41.0032 15.3487 39.8863 14.7448 38.6878 14.3426C37.0599 13.7962 35.2402 13.6447 33.6419 14.2723C32.6976 14.6429 31.8594 15.315 31.3116 16.1716C30.8424 16.9053 30.3205 18.2733 31.11 18.9932C31.2133 19.0875 31.3316 19.1599 31.4579 19.2169C31.381 20.4906 31.7515 21.9639 32.0153 22.9003C32.4263 24.3597 33.1121 25.7569 34.0974 26.9152C34.6321 27.5436 35.2414 28.1797 36.0043 28.5256C36.0663 28.5537 36.1296 28.5801 36.1939 28.6042C36.6702 28.7829 37.4038 28.9461 37.6004 28.305C37.677 28.0553 37.6401 27.7869 37.6078 27.5277C37.5237 26.8544 37.5143 26.1545 37.529 25.4438C38.5354 26.4505 39.6786 27.3196 40.9299 27.9942C41.5227 28.3138 42.1499 28.594 42.8179 28.6804C43.2868 28.7411 43.8569 28.7081 44.2931 28.4906C44.898 29.052 45.5872 29.5012 46.4536 29.6921C47.3616 29.8921 48.3472 29.7477 49.1643 29.305C49.3922 29.1816 49.5977 29.0342 49.7878 28.8685C50.1502 29.1335 50.5125 29.4025 50.8693 29.6892C51.0862 29.8634 51.3436 30.0483 51.6162 29.9933C51.9496 29.9259 52.1066 29.5459 52.1836 29.2144C52.412 28.2321 52.4481 27.148 52.2123 26.1624Z" fill="#010101"/>
<path d="M28.2071 28.0925C27.5321 27.5238 27.1568 26.7096 27.0504 25.8421C27.0291 25.6687 27.0174 25.4943 27.0127 25.3197C27.0077 25.1309 26.7137 25.13 26.7188 25.3197C26.7407 26.1341 26.929 26.9616 27.3985 27.6392C27.5691 27.8854 27.7703 28.1075 27.9993 28.3005C28.143 28.4217 28.352 28.2146 28.2071 28.0925Z" fill="#010101"/>
<path d="M35.4574 23.0391C35.985 23.9867 36.6673 24.8463 37.471 25.5742C37.6109 25.701 37.8195 25.4936 37.6788 25.3662C36.8922 24.6538 36.2276 23.8181 35.7112 22.8907C35.6192 22.7252 35.3651 22.8733 35.4574 23.0391Z" fill="#010101"/>
<path d="M40.4533 23.4311C41.1622 24.9205 42.0825 26.3073 43.177 27.5411C43.4851 27.8886 43.8076 28.2234 44.1424 28.5453C44.2787 28.6765 44.487 28.4687 44.3501 28.3374C43.1786 27.2112 42.1682 25.9234 41.3551 24.516C41.1226 24.1138 40.9068 23.7021 40.7071 23.2825C40.6257 23.1118 40.3722 23.2609 40.4533 23.4311Z" fill="#010101"/>
<path d="M48.2599 29.8197C48.8097 29.6644 49.2866 29.3681 49.7432 29.033C49.7554 29.0241 49.7746 29.0154 49.7848 29.0046C49.7704 29.0199 49.7527 29.0013 49.7619 29.0148C49.7682 29.0241 49.8109 29.0317 49.8223 29.037C49.85 29.0501 49.8763 29.0671 49.9006 29.0858C50.0013 29.1632 50.0877 29.2586 50.1866 29.3386C50.4316 29.5371 50.673 29.7415 50.9234 29.9331C51.1398 30.0986 51.4037 30.2518 51.6865 30.204C51.9497 30.1596 52.1093 29.9403 52.1938 29.7037C52.2899 29.4347 52.326 29.1363 52.3663 28.8548C52.4106 28.545 52.4416 28.2337 52.4564 27.921C52.4905 27.203 52.441 26.4832 52.3168 25.7753C52.3031 25.6971 52.2073 25.6529 52.136 25.6726C52.0534 25.6953 52.0196 25.775 52.0334 25.8535C52.2393 27.0282 52.2321 28.27 51.9647 29.4348C51.9226 29.6182 51.8525 29.8758 51.6359 29.9155C51.3915 29.9603 51.1455 29.7388 50.9718 29.5982C50.7421 29.4122 50.4993 29.2354 50.2815 29.0355C50.1365 28.9026 49.9213 28.6658 49.6962 28.7261C49.586 28.7556 49.486 28.8618 49.3948 28.9257C49.2741 29.0101 49.1512 29.0913 49.0247 29.1666C48.759 29.3248 48.4798 29.452 48.1819 29.5362C47.9999 29.5875 48.0772 29.8714 48.2599 29.8197Z" fill="#010101"/>
<path d="M30.833 16.9987C30.6949 17.3916 30.6303 17.8101 30.642 18.2264C30.6472 18.4152 30.9412 18.4159 30.9359 18.2264C30.925 17.8337 30.9861 17.4474 31.1165 17.077C31.1428 17.0021 31.0865 16.9161 31.0139 16.8961C30.9326 16.8736 30.8595 16.9234 30.833 16.9987Z" fill="#010101"/>
<path d="M40.0776 15.1302C41.2207 15.5243 42.301 16.0934 43.2751 16.8102C43.5503 17.0129 43.8158 17.2284 44.0724 17.4543C44.2139 17.5788 44.4226 17.3716 44.2802 17.2463C43.3455 16.4236 42.289 15.7419 41.1503 15.2378C40.8243 15.0936 40.4927 14.9628 40.1558 14.8466C39.9765 14.7849 39.8995 15.0689 40.0776 15.1302Z" fill="#010101"/>
<path d="M4.59375 88.0344C6.02839 83.2251 7.63278 78.4664 9.40293 73.7705C10.4203 71.0715 11.3906 68.1901 13.4754 66.198C15.4519 64.3094 17.9974 63.1541 20.4903 62.0337C22.8482 60.9739 25.2063 59.914 27.583 58.8969C28.6971 58.42 29.3903 58.1507 30.508 57.6844C31.4347 57.2976 31.8352 56.6431 33.425 56.2758C33.5404 56.2492 33.648 56.345 33.6318 56.4625C33.5241 57.2417 33.4652 59.6842 36.8138 60.266C40.765 60.9525 46.7155 58.4765 49.5966 55.6712C49.659 55.6103 49.7537 55.5953 49.8307 55.6363C50.5931 56.0412 51.1886 56.541 51.8451 57.0975C52.6834 57.8084 53.8743 58.2783 54.8387 58.8424C57.3822 60.3304 59.9258 61.8185 62.4693 63.3065C64.0609 64.2376 65.6633 65.1764 67.0511 66.3909C69.375 68.4247 70.3783 70.9973 70.9121 73.978C71.6335 78.0062 71.8185 82.1089 72.002 86.1973L4.59375 88.0344Z" fill="#FFE4C0"/>
<path d="M31.0926 57.4082C30.4645 58.9244 31.1479 60.7209 32.1752 61.8884C33.2637 63.1258 34.979 63.6811 36.5647 63.8992C38.5387 64.1707 40.5279 63.8208 42.4172 63.2424C44.1052 62.7256 45.7336 62.0068 47.252 61.1057C48.7522 60.2153 50.1495 59.1443 51.3875 57.9141C51.5368 57.7657 51.6836 57.6151 51.8282 57.4622C51.9583 57.3248 51.7508 57.1164 51.6204 57.2542C50.4547 58.4858 49.1365 59.5674 47.7078 60.4797C46.2575 61.4059 44.6979 62.1598 43.0713 62.7206C41.2655 63.3431 39.3432 63.7926 37.4221 63.6892C36.5912 63.6445 35.7606 63.4951 34.9674 63.2424C34.2166 63.0032 33.4772 62.6604 32.8681 62.153C32.2685 61.6535 31.8014 60.9867 31.5 60.2685C31.207 59.5705 31.0565 58.7769 31.2101 58.0262C31.248 57.8412 31.304 57.6609 31.3761 57.4866C31.4067 57.4126 31.3429 57.3257 31.2735 57.3057C31.1893 57.2814 31.1229 57.3352 31.0926 57.4082Z" fill="#010101"/>
<path d="M18.7403 69.4886C18.4218 71.0198 18.1783 72.5666 18.0103 74.1216C17.8425 75.6755 17.751 77.2374 17.7364 78.8002C17.7282 79.683 17.7448 80.566 17.7855 81.4479C17.7942 81.6364 18.0881 81.6375 18.0794 81.4479C18.0077 79.8926 18.0115 78.334 18.0921 76.7791C18.1722 75.2316 18.3272 73.6877 18.5588 72.1555C18.6899 71.2885 18.8453 70.4252 19.0238 69.5668C19.0622 69.3821 18.779 69.3031 18.7403 69.4886Z" fill="#010101"/>
<path d="M59.9978 70.6781C58.9918 71.879 58.0763 73.1553 57.2637 74.495C56.4537 75.8304 55.7474 77.2272 55.1476 78.6694C54.8103 79.4804 54.5083 80.3058 54.242 81.1428C54.1844 81.3235 54.4682 81.4009 54.5255 81.221C54.9932 79.7517 55.5716 78.3189 56.2565 76.9375C56.942 75.5545 57.7315 74.2232 58.6167 72.9588C59.1162 72.2452 59.6466 71.5539 60.2059 70.8862C60.3264 70.7419 60.1195 70.5328 59.9978 70.6781Z" fill="#010101"/>
</g>
</svg>
