<svg width="80" height="80" viewBox="0 0 80 80" fill="none" xmlns="http://www.w3.org/2000/svg">
<mask id="mask0_2492_26380" style="mask-type:alpha" maskUnits="userSpaceOnUse" x="0" y="0" width="80" height="80">
<circle cx="40" cy="40" r="40" fill="#C3DEF7"/>
</mask>
<g mask="url(#mask0_2492_26380)">
<circle cx="40" cy="40" r="40" fill="#CADFF7"/>
<path d="M47.9462 53.4564L35.0703 57.7705C35.1633 57.2064 35.2535 56.6409 35.338 56.0753C35.7608 53.2844 36.0821 50.4779 36.3034 47.6644L47.0316 44.3601L47.9955 44.0625C47.8109 47.1905 47.7955 50.327 47.9462 53.4564Z" fill="#FDF7EC"/>
<path d="M70.9734 81.0003C70.8909 79.7126 70.7587 78.5587 70.5773 77.2013C70.2476 74.7206 69.5782 72.0918 68.2775 69.9552C66.3723 66.8258 63.2171 64.905 59.99 63.1718C57.7649 61.9758 54.8323 60.2073 52.7425 58.7787C51.9548 58.2414 50.5737 57.4897 50.1961 56.5899C49.7381 55.5012 49.569 54.1713 49.1814 53.036C48.8616 52.0982 48.6995 51.0405 47.8737 50.4453C47.8737 50.4453 48.009 50.5525 44.4156 51.9177C44.2 51.9995 43.9702 52.0855 43.7264 52.1771C39.4284 53.7891 35.0232 52.6863 35.0232 52.6863C34.2468 53.5367 34.1763 54.466 33.8536 55.6479C33.831 55.7297 33.8099 55.8129 33.7902 55.8947C33.669 56.408 33.5957 56.9284 33.483 57.4446C33.3463 58.0693 32.6727 58.2569 32.1189 58.5643C29.0736 60.2553 25.8648 61.6162 22.7716 63.2042C20.0519 64.599 17.1461 65.7455 14.8421 67.813C12.5141 69.9002 11.1542 72.8999 9.97752 75.7388C9.25263 77.4862 8.54633 79.2345 7.89062 81.0002L70.9734 81.0003Z" fill="#FFE4C0"/>
<path d="M44.4144 51.918C43.5661 52.9306 42.5726 53.8176 41.4396 54.5087C39.4681 55.7102 36.3524 56.4478 33.7891 55.895C33.8088 55.8132 33.8299 55.73 33.8525 55.6482C34.1752 54.4664 34.2456 53.537 35.0221 52.6866C35.0221 52.6866 39.4273 53.7894 43.7253 52.1775C43.969 52.0858 44.1988 51.9998 44.4144 51.918Z" fill="#010101"/>
<path d="M20.2359 69.3569C19.9862 70.8181 19.797 72.2896 19.67 73.7666C19.5437 75.2367 19.4792 76.7121 19.4766 78.1877C19.4752 79.0234 19.494 79.8592 19.5322 80.6941C19.5405 80.8749 19.8223 80.8759 19.814 80.6941C19.7468 79.2258 19.7404 77.7549 19.7959 76.2861C19.8515 74.8174 19.9684 73.3508 20.1466 71.8919C20.247 71.0691 20.3679 70.2488 20.5076 69.4318C20.5204 69.3568 20.4877 69.2799 20.4092 69.2583C20.3415 69.2397 20.2489 69.2814 20.2359 69.3569Z" fill="#010101"/>
<path d="M33.1172 58.1999C33.1166 58.6619 33.2223 59.1273 33.4805 59.5154C33.7199 59.8753 34.0641 60.1502 34.447 60.3453C35.3185 60.7896 36.3418 60.8954 37.3059 60.9205C38.2265 60.9444 39.1459 60.8745 40.0614 60.7855C41.7623 60.6201 43.4336 60.2847 45.0511 59.7269C46.586 59.1975 48.0877 58.4956 49.3008 57.3952C49.4475 57.2622 49.5892 57.1237 49.7261 56.9807C49.8517 56.8497 49.6527 56.6498 49.5269 56.7813C48.435 57.9215 47.0394 58.6813 45.5763 59.2376C43.9112 59.8708 42.1614 60.2896 40.3891 60.4711C39.5128 60.561 38.6336 60.6387 37.7522 60.6429C36.8008 60.6476 35.8155 60.5883 34.9183 60.2473C34.5465 60.106 34.183 59.8974 33.9086 59.6049C33.6421 59.3206 33.4741 58.9473 33.4204 58.5578C33.4042 58.4393 33.3987 58.3193 33.399 58.1999C33.3993 58.0184 33.1175 58.0181 33.1172 58.1999Z" fill="#010101"/>
<path d="M47.5143 45.8388C47.503 46.8923 46.7011 48.2743 46.2262 49.1882C45.1158 51.3262 43.5121 53.2456 41.442 54.5078C39.8538 55.4753 37.5216 56.1423 35.3359 56.0746C35.7587 53.2837 36.08 50.4772 36.3013 47.6637L47.0295 44.3594C47.3239 44.8276 47.5198 45.3395 47.5143 45.8388Z" fill="#010101"/>
<path d="M29.3 27.2396C29.4089 26.5783 29.372 25.9062 29.3003 25.2373C29.2797 25.0452 29.2467 24.8375 29.1066 24.7046C29.0566 24.6572 28.9963 24.6241 28.9312 24.6031C29.1327 24.2126 29.3661 23.8376 29.5322 23.4307C29.7098 22.9963 29.806 22.5085 29.6805 22.0564C29.3145 20.7394 27.6987 21.0212 27.0054 21.8678C26.5955 22.3683 26.3983 23.0113 26.2972 23.6506C26.1452 24.6127 26.1957 25.6052 26.4359 26.5488C26.4568 26.6308 26.5027 26.8282 26.5703 27.0612C26.2774 27.9951 26.2571 29.0238 26.5251 29.9516C26.7207 30.6288 27.0673 31.2608 27.5264 31.7947C27.7709 32.0791 28.0664 32.2893 28.3312 32.5484C28.5531 32.7654 28.7429 32.9699 29.0876 32.755C29.3172 32.6118 29.4433 32.3499 29.5274 32.0927C29.8183 31.2032 29.7432 30.2365 29.5879 29.3136C29.4781 28.662 29.1918 27.8965 29.3 27.2396Z" fill="#010101"/>
<path d="M51.9571 32.7218C51.9064 34.0517 51.7753 35.2589 51.5569 36.4478C51.3272 37.7114 51.0017 38.9525 50.5747 40.3007C50.4845 40.587 50.3901 40.8705 50.2914 41.1539C49.453 43.5528 48.3059 45.846 46.884 47.9515C45.3747 50.1868 43.5766 52.3023 41.1513 53.5673C39.6999 54.3246 37.9891 54.5475 36.3713 54.4487C34.9509 54.3627 33.071 54.099 32.1001 52.9482C31.2038 51.8848 30.7782 50.2559 30.347 48.9585C29.8707 47.5242 29.4846 46.0589 29.207 44.5725C28.9618 43.2651 28.7208 41.8887 28.7067 40.5546C28.694 39.1838 28.8321 37.8045 28.742 36.4309C28.6969 35.73 28.563 35.0389 28.4559 34.3451C28.1769 32.5413 28.0782 30.7093 28.1613 28.8858C28.2825 26.2613 29.7876 24.2897 31.8056 22.7116C33.3627 21.4959 35.1341 20.5369 37.0407 20.0236C38.3358 19.6738 39.6928 19.5342 41.0316 19.6484C42.2646 19.7542 43.5921 19.9122 44.7364 20.3987C45.8172 20.8571 46.9601 21.3112 48.0001 21.888C49.1443 22.5184 50.1646 23.2983 50.8438 24.3927C52.1573 26.5081 52.1037 28.804 51.9571 32.7218Z" fill="#FDF7EC"/>
<path d="M50.5864 40.0639C51.1943 38.8482 51.365 38.9938 51.525 37.6452C51.6961 36.2058 52.0131 33.4381 52.0305 31.9886C52.0455 30.761 51.6855 28.9673 51.525 28.0309C51.3745 27.1527 51.7533 27.6476 51.342 26.8564C50.9185 26.0422 50.6344 25.2243 49.9025 24.6116C49.3407 24.1414 48.5378 23.8379 47.8469 24.58C47.6903 24.7481 47.5752 24.9508 47.4943 25.1657C47.2196 25.8967 47.2808 26.5398 47.5021 27.2594C47.7516 28.0711 47.6324 29.1546 47.623 29.9984C47.602 31.8952 47.4048 33.7902 47.0338 35.6505C46.9829 35.9056 46.9294 36.174 47.0103 36.4212C47.1155 36.7431 47.4196 36.9495 47.6978 37.1423C48.3572 37.5993 48.9765 38.114 49.5468 38.6783C49.7416 38.8711 50.7632 39.7107 50.5864 40.0639Z" fill="#010101"/>
<path d="M47.3212 27.5484C46.4672 25.95 45.6389 24.9436 42.556 24.864C41.216 24.8295 39.9619 25.4266 38.6662 25.7082C37.3968 25.9841 36.0942 25.9467 34.8427 25.6047C33.7741 25.3128 32.6821 24.8329 31.5725 24.7154C31.331 24.6899 31.0895 24.6932 30.8489 24.6963C29.0409 26.1106 28.128 29.889 28.128 29.889L27.1719 25.1124L28.7234 23.5505C28.6373 23.4103 28.5691 23.259 28.522 23.1043C28.3713 22.6097 28.3966 22.0797 28.4475 21.5651C28.5326 20.704 28.6855 19.8499 28.9035 19.0126C29.0722 18.3647 29.4889 17.8 29.9476 17.3159C30.8626 16.3501 32.0545 15.6488 33.2688 15.1278C34.0092 14.8102 34.6897 14.6394 35.4457 14.8774C35.6501 14.4533 35.9684 13.9295 36.3754 13.6957C37.3721 13.123 39.4043 12.918 41.657 13.6182C42.3822 13.8436 43.0052 14.3183 43.4163 14.9573C43.4939 15.0779 43.5745 15.2109 43.6566 15.3549C43.9036 15.0181 44.3075 14.6369 44.9211 14.5183C46.0928 14.2918 49.1819 15.5577 50.8197 17.5965C51.6817 18.6696 52.0344 20.3569 52.1753 21.715C52.8762 21.7707 53.6784 21.8876 54.0952 22.3138C54.5749 22.8043 54.7554 23.4126 54.7023 24.0967C54.4947 26.7712 53.5213 29.9704 51.998 32.3379C51.998 32.3379 50.5912 29.4991 48.7267 28.887C48.1215 28.6883 47.6366 28.229 47.3685 27.6506L47.3212 27.5484Z" fill="#010101"/>
<path d="M47.2272 26.8955C46.9305 25.6939 47.4313 24.4052 48.4678 23.7285C48.743 23.5488 49.0429 23.4168 49.3611 23.3356C49.5367 23.2908 49.4623 23.0187 49.2861 23.0636C48.6758 23.2193 48.1127 23.5577 47.6892 24.0247C47.2359 24.5245 46.9604 25.1529 46.8809 25.8218C46.8354 26.2051 46.8629 26.5958 46.9553 26.9703C46.9987 27.1466 47.2707 27.072 47.2272 26.8955Z" fill="#010101"/>
<path d="M47.6238 26.6547C47.909 25.8158 48.5852 25.122 49.4175 24.8184C49.5867 24.7567 49.5137 24.4838 49.3427 24.5463C48.4127 24.8855 47.671 25.6414 47.352 26.5798C47.2933 26.7519 47.5655 26.8258 47.6238 26.6547Z" fill="#010101"/>
<path d="M30.778 24.5379C30.1005 24.1828 29.6115 23.4913 29.5248 22.727C29.5162 22.6513 29.4661 22.5859 29.3838 22.5859C29.3143 22.5859 29.2342 22.6508 29.2428 22.727C29.3407 23.5896 29.8641 24.377 30.6358 24.7816C30.7964 24.8658 30.939 24.6223 30.778 24.5379Z" fill="#010101"/>
<path d="M35.3626 14.7853C34.9264 15.4477 34.6634 16.2088 34.5864 16.9975C34.579 17.0734 34.6565 17.1386 34.7274 17.1386C34.8097 17.1386 34.8609 17.0737 34.8684 16.9975C34.9404 16.2588 35.1982 15.5467 35.6061 14.9277C35.7063 14.7757 35.4621 14.6342 35.3626 14.7853Z" fill="#010101"/>
<path d="M34.5079 20.595C34.5643 22.0642 34.9848 23.5136 35.7221 24.7855C35.9331 25.1495 36.1711 25.496 36.4302 25.827C36.4771 25.8871 36.5803 25.8764 36.6295 25.827C36.6887 25.7678 36.6765 25.6877 36.6295 25.6276C35.7568 24.5132 35.1703 23.1811 34.9184 21.789C34.8471 21.3945 34.8051 20.9955 34.7898 20.595C34.7829 20.4141 34.501 20.4132 34.5079 20.595Z" fill="#010101"/>
<path d="M34.1593 23.161C34.3591 24.1911 34.949 25.1178 35.7824 25.7504C35.8431 25.7966 35.9401 25.76 35.9752 25.6998C36.0174 25.6275 35.9854 25.553 35.9246 25.5069C35.1494 24.9184 34.616 24.0396 34.431 23.086C34.3964 22.908 34.1247 22.9835 34.1593 23.161Z" fill="#010101"/>
<path d="M43.5175 15.4125C43.6939 15.7652 43.801 16.1523 43.8303 16.5457C43.836 16.6217 43.8911 16.6867 43.9713 16.6867C44.0432 16.6867 44.1179 16.6221 44.1123 16.5457C44.0792 16.1001 43.9609 15.6697 43.761 15.2701C43.7269 15.202 43.6307 15.1828 43.5681 15.2195C43.4988 15.26 43.4833 15.3441 43.5175 15.4125Z" fill="#010101"/>
<path d="M49.8003 36.2214C50.1531 35.8734 50.5479 35.5747 50.9915 35.3655C51.8388 34.9661 52.9427 34.9214 53.7079 35.5291C54.5292 36.1813 54.6982 37.5425 54.5237 38.5228C54.3463 39.5198 53.8222 40.4266 53.1585 41.1772C52.6497 41.7525 52.0429 42.2549 51.3342 42.5281C50.4525 42.868 49.2863 42.8435 48.6204 42.0701C48.4065 41.8216 48.2786 41.5071 48.1888 41.1885C47.7569 39.6585 48.2055 38.2228 49.1339 36.9906C49.3378 36.7198 49.5592 36.4592 49.8003 36.2214Z" fill="#FDF7EC"/>
<path d="M52.9967 37.0459C51.8289 37.2704 50.7356 37.8353 49.8607 38.639C49.6118 38.8676 49.3821 39.1161 49.1724 39.3811C49.1252 39.4407 49.1142 39.5222 49.1724 39.5805C49.2215 39.6296 49.3242 39.6406 49.3717 39.5805C50.0874 38.6757 51.0486 37.9697 52.1341 37.5758C52.4394 37.4651 52.7529 37.3792 53.0717 37.318C53.2495 37.2837 53.1743 37.0118 52.9967 37.0459Z" fill="#010101"/>
<path d="M50.0563 40.9643C50.5397 40.7079 50.9822 40.3031 51.1886 39.7872C51.2994 39.5104 51.3286 39.1931 51.3166 38.8971C51.3039 38.5817 51.2368 38.2699 51.1156 37.9787C51.0863 37.9084 51.0222 37.8582 50.9423 37.8802C50.8761 37.8984 50.8145 37.9829 50.8439 38.0537C51.0512 38.5517 51.1268 39.1736 50.9268 39.6874C50.7491 40.1442 50.337 40.4965 49.9141 40.7208C49.7538 40.8057 49.896 41.0493 50.0563 40.9643Z" fill="#010101"/>
<path d="M38.7556 47.3183C38.7439 47.3004 38.7321 47.2827 38.72 47.265C37.9094 46.0794 36.4781 45.5965 35.1093 45.4565C34.6591 45.4104 34.2019 45.3946 33.7562 45.4725C33.4572 45.5249 33.1105 45.6409 32.9477 45.9193C32.7793 46.2074 32.785 46.6032 32.9227 46.9006C32.9227 46.9006 34.3251 47.5811 35.8017 47.6303C37.2782 47.6795 37.8512 47.5234 38.3486 47.4465C38.8459 47.3698 38.7556 47.3183 38.7556 47.3183Z" fill="#010101"/>
<path d="M33.1019 41.7828C33.0823 42.7933 33.8398 43.5792 34.6991 43.9951C34.8618 44.0738 35.0049 43.8306 34.8415 43.7514C34.0711 43.3785 33.3663 42.6966 33.384 41.7828C33.3873 41.6011 33.1053 41.6011 33.1019 41.7828Z" fill="#010101"/>
<path d="M36.9513 43.1821C37.4193 43.0998 37.904 43.2297 38.2811 43.5146C38.3419 43.5606 38.4387 43.5243 38.474 43.4639C38.5163 43.3917 38.4844 43.3169 38.4234 43.2709C37.9838 42.9388 37.416 42.815 36.8763 42.9099C36.8013 42.9232 36.759 43.015 36.7779 43.0834C36.7998 43.1627 36.8762 43.1952 36.9513 43.1821Z" fill="#010101"/>
<path d="M32.7093 46.9828C34.198 47.6617 35.867 47.9258 37.4925 47.7329C37.9562 47.6779 38.4144 47.5886 38.864 47.4621C39.0383 47.4131 38.9642 47.1409 38.789 47.1902C37.2664 47.6187 35.6347 47.6174 34.1105 47.1957C33.6797 47.0766 33.2582 46.9247 32.8515 46.7392C32.7823 46.7076 32.6999 46.7195 32.6587 46.7899C32.6233 46.8505 32.6397 46.951 32.7093 46.9828Z" fill="#010101"/>
<path d="M33.5614 48.916C33.9409 49.2491 34.4253 49.4406 34.9141 49.5459C35.4702 49.6657 36.0501 49.6851 36.6139 49.6139C36.9319 49.5737 37.2452 49.5079 37.5493 49.4056C37.7204 49.3481 37.647 49.0756 37.4745 49.1336C36.9645 49.3052 36.4266 49.3797 35.8891 49.3721C35.3796 49.3649 34.8645 49.2843 34.39 49.0931C34.1637 49.0019 33.9447 48.8779 33.7608 48.7164C33.6248 48.5972 33.4247 48.796 33.5614 48.916Z" fill="#010101"/>
<path d="M44.8997 36.7503C44.8452 36.8087 44.7601 36.8255 44.6866 36.7939C44.3572 36.6519 43.1957 36.1999 41.6223 36.1273C40.5122 36.0761 39.6603 36.2735 39.2732 36.3869C39.1028 36.4368 38.9609 36.2521 39.0518 36.0996C39.1093 36.0032 39.2208 35.8985 39.4255 35.8004C40.0513 35.5005 41.5161 35.1207 43.5866 35.7803C45.0909 36.2598 45.0399 36.6001 44.8997 36.7503Z" fill="#010101"/>
<path d="M34.2177 36.5706C34.2828 36.6995 34.1515 36.8402 34.0168 36.7885C33.5276 36.6004 32.3124 36.2108 30.8087 36.2923C29.8028 36.3469 29.2893 36.5162 29.0492 36.6317C28.9084 36.6994 28.738 36.6332 28.6865 36.4857C28.6176 36.2885 28.6762 36.022 29.3175 35.846C30.446 35.5361 31.9239 35.5614 33.1922 35.9392C33.8605 36.1383 34.1219 36.3809 34.2177 36.5706Z" fill="#010101"/>
<path d="M32.1848 38.8992C32.886 38.8149 33.0002 38.0901 32.9421 37.506C32.8749 36.8297 32.7007 36.0281 31.9204 35.8837C31.5504 35.8152 31.068 35.9097 30.9665 36.3119C30.8406 36.8108 30.9244 37.3964 31.1032 37.8708C31.2742 38.3234 31.6083 38.9686 32.1848 38.8992Z" fill="#010101"/>
<path d="M42.8631 37.5549C42.992 36.8265 42.8586 35.9663 42.1826 35.7476C42.0031 35.6895 41.8097 35.6494 41.6223 35.681C41.0602 35.7759 40.8959 36.5444 40.8908 36.9729C40.883 37.6244 41.1353 39.0079 42.1495 38.659C42.6202 38.4968 42.7728 38.0654 42.8631 37.5549Z" fill="#010101"/>
<path d="M31.1358 31.6189C31.824 31.6784 32.5112 31.8939 33.0995 32.2583C33.4573 32.4799 33.904 33.1515 33.5066 33.5457C33.2765 33.7738 32.7685 33.6861 32.4697 33.6899C32.0112 33.6958 31.5536 33.6974 31.0953 33.7184C30.446 33.7483 29.7711 33.891 29.1247 33.8812C28.3649 33.8696 28.4373 32.5696 28.8659 32.154C29.4255 31.6113 30.3717 31.5577 31.1059 31.6164C31.1159 31.6172 31.1258 31.6181 31.1358 31.6189Z" fill="#010101"/>
<path d="M43.8491 31.9767C44.0447 32.1189 44.2112 32.297 44.3233 32.5176C44.5101 32.8858 44.5493 33.3802 44.1189 33.5888C43.8937 33.698 43.6326 33.6936 43.3825 33.6871C42.1506 33.655 41.0834 33.6272 39.8514 33.595C39.2487 33.5792 38.5309 33.3718 38.7289 32.6655C38.8713 32.1572 39.344 31.8629 39.8196 31.7143C40.8906 31.3796 42.089 31.2879 43.1692 31.6407C43.4082 31.7185 43.6446 31.8281 43.8491 31.9767Z" fill="#010101"/>
<path d="M60.0195 67.4483C59.1912 68.0099 58.4199 68.6535 57.7096 69.3582C56.9971 70.0652 56.3462 70.8321 55.7467 71.6368C55.1275 72.4682 54.5663 73.3416 54.0501 74.2404C53.4908 75.2144 52.984 76.2179 52.5079 77.2351C52.0312 78.2539 51.5852 79.2867 51.1465 80.3222C51.0925 80.4497 51.0386 80.5772 50.9847 80.7047C50.9551 80.7748 50.9637 80.8557 51.0353 80.8976C51.0944 80.9322 51.1984 80.9177 51.2281 80.847C51.6611 79.821 52.0983 78.7967 52.5626 77.7844C53.0286 76.7684 53.5223 75.7645 54.065 74.7871C54.5714 73.8752 55.1207 72.9868 55.7277 72.1383C56.3036 71.3333 56.932 70.5653 57.6185 69.8521C58.3058 69.1382 59.0514 68.4786 59.8582 67.9025C59.9584 67.831 60.0596 67.7608 60.1614 67.6917C60.3111 67.5906 60.1702 67.3462 60.0195 67.4483Z" fill="#010101"/>
</g>
</svg>
