<svg width="39" height="20" viewBox="0 0 39 20" fill="none" xmlns="http://www.w3.org/2000/svg">
<path fill-rule="evenodd" clip-rule="evenodd" d="M35.6593 14.9328C34.4969 16.0499 33.3212 17.1543 32.1553 18.2663C31.7611 18.6425 31.7382 19.2761 32.1049 19.6806C32.4711 20.0854 33.0891 20.1085 33.4833 19.7323C35.0442 18.2442 36.6211 16.7689 38.163 15.2607C38.185 15.2388 38.6814 14.6862 38.7726 14.5687C39.3086 13.8791 38.7362 13.2399 38.6819 13.1886C36.8822 11.4943 34.5488 10.1398 33.045 8.13474C32.7165 7.69671 32.1036 7.61489 31.6767 7.95191C31.2503 8.28859 31.1705 8.91745 31.499 9.35547C32.5433 10.7485 33.9607 11.8534 35.346 12.9585C33.4465 13.2622 31.1085 13.3904 29.051 12.9512C27.5282 12.6257 26.155 11.9964 25.3305 10.7998C24.2346 9.21043 23.315 5.83451 21.9154 3.38678C20.7771 1.39557 19.3068 0.0113514 17.4294 4.57944e-05C16.3272 -0.00634723 15.542 0.65713 15.0253 1.67144C14.4822 2.73767 14.2657 4.23915 14.0713 5.09798C13.54 7.44394 12.8205 11.3124 11.352 13.7706C10.7622 14.7581 10.0729 15.5223 9.13952 15.6538C8.13981 15.7943 6.9726 15.2234 5.49368 13.8206C4.60498 12.9775 4.15214 11.8846 3.69531 10.7533C2.99749 9.02637 2.4059 7.24758 1.91491 5.44707C1.76952 4.91525 1.23088 4.60417 0.712557 4.75334C0.193918 4.90205 -0.108963 5.45517 0.0364258 5.98699C0.548502 7.86393 1.16514 9.71908 1.89316 11.52C2.4594 12.922 3.06847 14.2458 4.16912 15.2903C6.25042 17.2648 7.99787 17.8349 9.40481 17.6364C10.8781 17.429 12.0841 16.3751 13.0151 14.8167C14.5867 12.1856 15.4033 8.06125 15.9719 5.551C16.1147 4.9183 16.2524 3.88609 16.5746 3.01498C16.6745 2.74539 16.7904 2.49253 16.9426 2.2901C17.0638 2.12904 17.2079 2.00053 17.4179 2.00169C18.6511 2.00936 19.4851 3.09178 20.2326 4.39919C21.6609 6.8972 22.6197 10.3338 23.738 11.9561C24.8376 13.5518 26.6214 14.4764 28.6533 14.9105C30.9443 15.4002 33.5497 15.2678 35.6593 14.9328Z" fill="#FEE3B2"/>
</svg>
